g Canyon_Rock4_3
v -21.27193 -8.3865 -3.005075
v -14.74303 2.978459 8.204328
v -15.89371 -8.364072 9.390958
v -19.30252 -3.339089 -2.710818
v -1.394394 3.90886 15.24294
v -1.057968 -8.375 17.22068
v 17.6461 -1.63372 8.071919
v 18.13237 -8.389889 8.580274
v 21.27193 -8.432165 -4.236537
v 19.33727 -0.5135448 -4.560809
v 13.9836 1.052895 -14.35511
v 15.09422 -8.500753 -15.48933
v -9.414566 9.655582 2.184688
v 6.170639 11.61013 -8.756378
v 15.09422 -8.500753 -15.48933
v -4.263977 3.428925 -15.65878
v -5.936417 -8.532175 -17.22068
v 13.9836 1.052895 -14.35511
v -19.30252 -3.339089 -2.710818
v -21.27193 -8.3865 -3.005075
v 6.170639 11.61013 -8.756378
v -9.414566 9.655582 2.184688
v -14.74303 2.978459 8.204328
v -9.653809 -11.48946 5.521253
v 11.62701 -11.50597 5.014215
v -13.01749 -11.49213 -2.23161
v -0.3751526 -11.5102 10.41823
v -15.89371 -8.364072 9.390958
v -21.27193 -8.3865 -3.005075
v -3.42627 -11.61013 -11.12232
v -5.936417 -8.532175 -17.22068
v 9.726868 -11.57674 -10.03956
v 15.09422 -8.500753 -15.48933
v 13.59058 -11.52579 -3.001796
v 21.27193 -8.432165 -4.236537
v 18.13237 -8.389889 8.580274
v -1.057968 -8.375 17.22068
v -13.01749 -11.49213 -2.23161
vt 0.1077727 0.5036642
vt 0.1554582 0.4770433
vt 0.1259623 0.4557815
vt 0.129376 0.503161
vt 0.1875937 0.4573405
vt 0.1759639 0.4159341
vt 0.2444224 0.4441414
vt 0.2544482 0.4214027
vt 0.2928738 0.4536795
vt 0.2719374 0.4753163
vt 0.2881084 0.5153368
vt 0.3242769 0.493422
vt 0.1739867 0.4950494
vt 0.2290319 0.5335331
vt 0.2003743 0.6309276
vt 0.1734382 0.550751
vt 0.1368299 0.5754097
vt 0.2232572 0.5981073
vt 0.129376 0.503161
vt 0.1077727 0.5036642
vt 0.2290319 0.5335331
vt 0.1739867 0.4950494
vt 0.1554582 0.4770433
vt 0.4645496 0.4125682
vt 0.5247564 0.4140027
vt 0.4550333 0.4345022
vt 0.4908004 0.3987139
vt 0.446896 0.4016201
vt 0.4316802 0.4366904
vt 0.4821683 0.4596554
vt 0.4750667 0.4769087
vt 0.5193806 0.4565921
vt 0.5345657 0.4720104
vt 0.5303116 0.4366812
vt 0.5520434 0.4401745
vt 0.5431611 0.4039137
vt 0.4888686 0.3794686
vt 0.4550333 0.4345022
vn -0.9252114 -0.3152586 -0.2111774
vn -0.6996773 0.5467288 0.4599341
vn -0.6968317 -0.2525912 0.6712847
vn -0.7842283 0.5923157 -0.1847922
vn -0.03460428 0.6670243 0.7442319
vn -0.002059078 -0.08518504 0.996363
vn 0.7110547 0.4691635 0.523724
vn 0.76154 -0.01170962 0.6480122
vn 0.9882957 -0.1060248 -0.1096839
vn 0.8119236 0.5765968 -0.09119259
vn 0.4981966 0.5341524 -0.6829945
vn 0.5263734 -0.1555062 -0.8359119
vn -0.4132069 0.8989509 0.1454212
vn 0.3135004 0.9148447 -0.2545127
vn 0.5263734 -0.1555062 -0.8359119
vn -0.2714655 0.5881426 -0.7618365
vn -0.3145388 -0.1588222 -0.9358636
vn 0.4981966 0.5341524 -0.6829945
vn -0.7842283 0.5923157 -0.1847922
vn -0.9252114 -0.3152586 -0.2111774
vn 0.3135004 0.9148447 -0.2545127
vn -0.4132069 0.8989509 0.1454212
vn -0.6996773 0.5467288 0.4599341
vn -0.1948293 -0.9627375 0.1875584
vn 0.1481744 -0.9796836 0.1351463
vn -0.1730157 -0.9841114 -0.03987687
vn -0.00588916 -0.9594972 0.2816566
vn -0.2873289 -0.9168095 0.2773129
vn -0.3450678 -0.9347431 -0.08475599
vn -0.09267654 -0.9592277 -0.2670082
vn -0.136717 -0.9065225 -0.3994064
vn 0.1316336 -0.966972 -0.2182604
vn 0.1953716 -0.923802 -0.3292716
vn 0.1859983 -0.9823769 -0.01844411
vn 0.3677784 -0.9289258 -0.04284559
vn 0.2939524 -0.9179459 0.2663968
vn -0.008307307 -0.9088963 0.4169394
vn -0.001201908 -0.9999969 0.002177684
g Canyon_Rock4_3_0
f 3/3/3 2/2/2 1/1/1
f 2/2/2 4/4/4 1/1/1
f 5/5/5 2/2/2 3/3/3
f 6/6/6 5/5/5 3/3/3
f 7/7/7 5/5/5 6/6/6
f 8/8/8 7/7/7 6/6/6
f 8/8/8 9/9/9 7/7/7
f 9/9/9 10/10/10 7/7/7
f 11/11/11 10/10/10 9/9/9
f 12/12/12 11/11/11 9/9/9
f 5/5/5 13/13/13 2/2/2
f 7/7/7 14/14/14 5/5/5
f 14/14/14 13/13/13 5/5/5
f 10/10/10 14/14/14 7/7/7
f 11/11/11 14/14/14 10/10/10
f 17/17/17 16/16/16 15/15/15
f 16/16/16 18/18/18 15/15/15
f 19/19/19 16/16/16 17/17/17
f 20/20/20 19/19/19 17/17/17
f 16/16/16 21/21/21 18/18/18
f 19/19/19 22/22/22 16/16/16
f 22/22/22 21/21/21 16/16/16
f 23/23/23 22/22/22 19/19/19
f 26/26/26 25/25/25 24/24/24
f 25/25/25 27/27/27 24/24/24
f 26/26/26 24/24/24 28/28/28
f 29/29/29 26/26/26 28/28/28
f 30/30/30 26/26/26 29/29/29
f 31/31/31 30/30/30 29/29/29
f 32/32/32 30/30/30 31/31/31
f 33/33/33 32/32/32 31/31/31
f 34/34/34 32/32/32 33/33/33
f 26/26/26 30/30/30 34/34/34
f 30/30/30 32/32/32 34/34/34
f 35/35/35 34/34/34 33/33/33
f 25/25/25 34/34/34 35/35/35
f 36/36/36 25/25/25 35/35/35
f 27/27/27 25/25/25 36/36/36
f 37/37/37 27/27/27 36/36/36
f 28/28/28 24/24/24 37/37/37
f 24/24/24 27/27/27 37/37/37
f 38/38/38 34/34/34 25/25/25
