g Canyon_Rock1_3
v 17.5743 -9.441721 -14.46245
v 5.29981 -7.753216 -19.82078
v 5.305971 -9.444294 -19.1923
v 18.17965 -7.75145 -14.92709
v -10.83639 -3.363301 -14.73234
v -10.24726 -9.308956 -14.24237
v -18.17965 -3.535329 4.91427
v -17.3468 -8.98685 4.963285
v -11.19078 -7.17313 16.30545
v -10.60136 -8.88026 15.88423
v 1.458673 -4.066051 19.82078
v 1.421858 -8.939514 19.27506
v 5.394236 1.613761 -17.75997
v -8.593102 2.649004 -13.31791
v -15.08698 -1.295373 4.814091
v -9.019106 -1.199487 14.63818
v 1.428606 0.3268567 17.58582
v -2.518681 6.100754 -9.282293
v 5.55332 9.135775 -12.2332
v -3.055691 12.69186 9.070635
v 1.348455 12.81346 11.47359
v 10.39312 8.842392 -9.375275
v 1.421858 -8.939514 19.27506
v 17.85219 -3.627738 5.783457
v 16.96774 -9.256551 5.874355
v 1.458673 -4.066051 19.82078
v 18.17965 -7.75145 -14.92709
v 17.5743 -9.441721 -14.46245
v 14.79832 2.391266 5.778982
v 1.428606 0.3268567 17.58582
v 16.05081 -4.504651 -13.37607
v 5.394236 1.613761 -17.75997
v 5.55332 9.135775 -12.2332
v 10.39312 8.842392 -9.375275
v 6.690985 8.127499 6.087572
v 1.348455 12.81346 11.47359
v 5.305971 -9.444294 -19.1923
v 11.10997 -12.72661 -6.871387
v 17.5743 -9.441721 -14.46245
v 3.655152 -12.77131 -13.43085
v -10.24726 -9.308956 -14.24237
v 3.655152 -12.77131 -13.43085
v 5.305971 -9.444294 -19.1923
v -6.193425 -12.81346 -7.606215
v -17.3468 -8.98685 4.963285
v -6.193425 -12.81346 -7.606215
v -10.24726 -9.308956 -14.24237
v -10.60808 -12.63306 1.455853
v -10.60136 -8.88026 15.88423
v -10.60808 -12.63306 1.455853
v -7.65592 -12.49033 11.85808
v 1.421858 -8.939514 19.27506
v -7.65592 -12.49033 11.85808
v 2.739145 -12.64381 11.61695
v 16.96774 -9.256551 5.874355
v 2.739145 -12.64381 11.61695
v 1.421858 -8.939514 19.27506
v 9.86441 -12.77762 2.839336
v 17.5743 -9.441721 -14.46245
v 9.86441 -12.77762 2.839336
v 16.96774 -9.256551 5.874355
v 11.10997 -12.72661 -6.871387
v 3.655152 -12.77131 -13.43085
v -7.65592 -12.49033 11.85808
v 2.739145 -12.64381 11.61695
v 9.86441 -12.77762 2.839336
v 11.10997 -12.72661 -6.871387
v -10.60808 -12.63306 1.455853
v -6.193425 -12.81346 -7.606215
vt 0.6628704 0.442438
vt 0.6344958 0.5331248
vt 0.6476778 0.5446408
vt 0.65254 0.4500851
vt 0.5522718 0.5995987
vt 0.5570851 0.6255223
vt 0.4235016 0.5719908
vt 0.4107348 0.5850437
vt 0.3874558 0.4978145
vt 0.3722211 0.4989261
vt 0.4117412 0.4205174
vt 0.3974677 0.4079111
vt 0.6078876 0.5204772
vt 0.5472182 0.569522
vt 0.4470587 0.5466236
vt 0.420464 0.4918942
vt 0.4374253 0.437393
vt 0.545921 0.5303763
vt 0.581688 0.5036658
vt 0.481535 0.4955727
vt 0.4834616 0.4698304
vt 0.5828767 0.474777
vt 0.3974677 0.4079111
vt 0.5417047 0.3825188
vt 0.5430326 0.3602059
vt 0.4117412 0.4205174
vt 0.65254 0.4500851
vt 0.6628704 0.442438
vt 0.5292212 0.4119856
vt 0.4374253 0.437393
vt 0.6195318 0.4610835
vt 0.6078876 0.5204772
vt 0.581688 0.5036658
vt 0.5828767 0.474777
vt 0.5227321 0.4618273
vt 0.4834616 0.4698304
vt 0.4200462 0.6211054
vt 0.3546344 0.5726794
vt 0.3423517 0.6319501
vt 0.4089472 0.5823691
vt 0.4837271 0.5480211
vt 0.4089472 0.5823691
vt 0.4200462 0.6211054
vt 0.4395437 0.5268123
vt 0.4620049 0.431491
vt 0.4395437 0.5268123
vt 0.4837271 0.5480211
vt 0.4344805 0.4709867
vt 0.3943198 0.3953586
vt 0.4344805 0.4709867
vt 0.3910593 0.4303077
vt 0.3222791 0.4159922
vt 0.3910593 0.4303077
vt 0.3426343 0.4606279
vt 0.2846139 0.5284799
vt 0.3426343 0.4606279
vt 0.3222791 0.4159922
vt 0.3329597 0.5225952
vt 0.3423517 0.6319501
vt 0.3329597 0.5225952
vt 0.2846139 0.5284799
vt 0.3546344 0.5726794
vt 0.4089472 0.5823691
vt 0.3910593 0.4303077
vt 0.3426343 0.4606279
vt 0.3329597 0.5225952
vt 0.3546344 0.5726794
vt 0.4344805 0.4709867
vt 0.4395437 0.5268123
vn 0.7979826 -0.3271411 -0.5061646
vn 0.05084812 0.01564697 -0.9985838
vn 0.008938652 -0.2684969 -0.963239
vn 0.819729 0.08569273 -0.5663049
vn -0.676979 0.1500479 -0.7205449
vn -0.6892253 -0.1623364 -0.7061269
vn -0.9656651 0.2280374 0.1244584
vn -0.9803335 -0.1799875 0.08093651
vn -0.5881992 0.1620889 0.7923061
vn -0.5926215 -0.1920665 0.7822469
vn 0.2008954 0.1394481 0.9696367
vn 0.2263037 -0.1412863 0.9637556
vn 0.1140884 0.4816171 -0.8689239
vn -0.5469677 0.6299334 -0.5513713
vn -0.7645945 0.6276248 0.1465689
vn -0.5399825 0.4862995 0.6869728
vn 0.1616681 0.4715134 0.8669133
vn -0.3614567 0.90918 -0.2067383
vn 0.02594057 0.9096935 -0.4144694
vn -0.4550078 0.8782132 0.1473417
vn 0.3510143 0.806967 0.4749664
vn 0.3655615 0.9230115 -0.1200608
vn 0.2263037 -0.1412863 0.9637556
vn 0.8971947 0.1588064 0.4120948
vn 0.8870336 -0.1556453 0.4346791
vn 0.2008954 0.1394481 0.9696367
vn 0.819729 0.08569273 -0.5663049
vn 0.7979826 -0.3271411 -0.5061646
vn 0.7882437 0.5140735 0.338231
vn 0.1616681 0.4715134 0.8669133
vn 0.7242628 0.5143666 -0.4592063
vn 0.1140884 0.4816171 -0.8689239
vn 0.02594057 0.9096935 -0.4144694
vn 0.3655615 0.9230115 -0.1200608
vn 0.7603539 0.5818564 0.2886264
vn 0.3510143 0.806967 0.4749664
vn 0.008938652 -0.2684969 -0.963239
vn 0.1952895 -0.9209086 -0.3373267
vn 0.7979826 -0.3271411 -0.5061646
vn 0.1952895 -0.9209086 -0.3373267
vn -0.1919002 -0.8748033 -0.4448522
vn -0.1919002 -0.8748033 -0.4448522
vn -0.1919002 -0.8748033 -0.4448522
vn -0.1919002 -0.8748033 -0.4448522
vn -0.9803335 -0.1799875 0.08093651
vn -0.5033787 -0.842905 -0.1900555
vn -0.6892253 -0.1623364 -0.7061269
vn -0.5033787 -0.842905 -0.1900555
vn -0.5926215 -0.1920665 0.7822469
vn -0.4676853 -0.8553799 0.222701
vn -0.4676853 -0.8553799 0.222701
vn 0.2263037 -0.1412863 0.9637556
vn -0.07950224 -0.8577213 0.5079305
vn -0.07950224 -0.8577213 0.5079305
vn 0.3572228 -0.8521143 0.3824826
vn 0.3572228 -0.8521143 0.3824826
vn 0.3572228 -0.8521143 0.3824826
vn 0.3572228 -0.8521143 0.3824826
vn 0.4567459 -0.889017 0.03212298
vn 0.4567459 -0.889017 0.03212298
vn 0.4567459 -0.889017 0.03212298
vn 0.4567459 -0.889017 0.03212298
vn -0.01465752 -0.9998822 0.004553622
vn -0.01465752 -0.9998822 0.004553622
vn -0.01465752 -0.9998822 0.004553622
vn -0.005831848 -0.9999813 0.001837797
vn -0.005831848 -0.9999813 0.001837797
vn 0.008282069 -0.9998174 0.01722043
vn 0.008282069 -0.9998174 0.01722043
g Canyon_Rock1_3_0
f 3/3/3 2/2/2 1/1/1
f 2/2/2 4/4/4 1/1/1
f 5/5/5 2/2/2 3/3/3
f 6/6/6 5/5/5 3/3/3
f 7/7/7 5/5/5 6/6/6
f 8/8/8 7/7/7 6/6/6
f 9/9/9 7/7/7 8/8/8
f 10/10/10 9/9/9 8/8/8
f 11/11/11 9/9/9 10/10/10
f 12/12/12 11/11/11 10/10/10
f 2/2/2 13/13/13 4/4/4
f 5/5/5 14/14/14 2/2/2
f 14/14/14 13/13/13 2/2/2
f 7/7/7 15/15/15 5/5/5
f 15/15/15 14/14/14 5/5/5
f 9/9/9 16/16/16 7/7/7
f 16/16/16 15/15/15 7/7/7
f 11/11/11 17/17/17 9/9/9
f 17/17/17 16/16/16 9/9/9
f 14/14/14 18/18/18 13/13/13
f 18/18/18 19/19/19 13/13/13
f 15/15/15 20/20/20 14/14/14
f 20/20/20 18/18/18 14/14/14
f 16/16/16 20/20/20 15/15/15
f 17/17/17 21/21/21 16/16/16
f 21/21/21 20/20/20 16/16/16
f 18/18/18 22/22/22 19/19/19
f 20/20/20 22/22/22 18/18/18
f 21/21/21 22/22/22 20/20/20
f 25/25/25 24/24/24 23/23/23
f 24/24/24 26/26/26 23/23/23
f 27/27/27 24/24/24 25/25/25
f 28/28/28 27/27/27 25/25/25
f 24/24/24 29/29/29 26/26/26
f 29/29/29 30/30/30 26/26/26
f 27/27/27 31/31/31 24/24/24
f 31/31/31 29/29/29 24/24/24
f 32/32/32 31/31/31 27/27/27
f 32/32/32 33/33/33 31/31/31
f 33/33/33 34/34/34 31/31/31
f 31/31/31 34/34/34 29/29/29
f 29/29/29 35/35/35 30/30/30
f 34/34/34 35/35/35 29/29/29
f 35/35/35 36/36/36 30/30/30
f 35/35/35 34/34/34 36/36/36
f 39/39/39 38/38/38 37/37/37
f 38/38/38 40/40/40 37/37/37
f 43/43/43 42/42/42 41/41/41
f 42/42/42 44/44/44 41/41/41
f 47/47/47 46/46/46 45/45/45
f 46/46/46 48/48/48 45/45/45
f 45/45/45 50/50/50 49/49/49
f 50/50/50 51/51/51 49/49/49
f 49/49/49 53/53/53 52/52/52
f 53/53/53 54/54/54 52/52/52
f 57/57/57 56/56/56 55/55/55
f 56/56/56 58/58/58 55/55/55
f 61/61/61 60/60/60 59/59/59
f 60/60/60 62/62/62 59/59/59
f 65/65/65 64/64/64 63/63/63
f 66/66/66 65/65/65 63/63/63
f 67/67/67 66/66/66 63/63/63
f 64/64/64 68/68/68 63/63/63
f 68/68/68 69/69/69 63/63/63
