g Canyon_Rocks2_4
v 8.418913 -14.53788 -36.70997
v -14.56355 -11.4697 -30.5182
v -13.87339 -14.49909 -29.69304
v 8.766523 -11.51001 -37.97581
v -31.30355 -3.938513 -5.444595
v -30.01571 -14.51799 -5.584805
v -12.03964 5.118458 -27.49981
v -26.55309 6.727643 -5.807009
v -2.645464 16.66692 -17.2491
v -30.01571 -14.51799 -5.584805
v -17.64994 -2.858565 28.23783
v -18.61202 -14.54374 28.98265
v -31.30355 -3.938513 -5.444595
v 2.5361 -11.6065 37.97581
v 2.868772 -14.61686 36.69334
v 24.05011 -6.091531 28.93824
v 23.33866 -14.73549 28.09509
v -26.55309 6.727643 -5.807009
v 3.775282 -0.92116 33.42389
v 21.58782 1.788085 25.98026
v 13.36549 20.04741 11.53171
v -2.645464 16.66692 -17.2491
v 23.33866 -14.73549 28.09509
v 31.30356 -4.781416 -8.725269
v 30.10753 -14.78983 -7.768429
v 24.05011 -6.091531 28.93824
v 8.766523 -11.51001 -37.97581
v 8.418913 -14.53788 -36.70997
v 27.1194 5.897566 -5.173124
v 21.58782 1.788085 25.98026
v 7.557775 -5.808098 -33.37536
v -12.03964 5.118458 -27.49981
v -2.645464 16.66692 -17.2491
v 13.36549 20.04741 11.53171
v -18.51667 -19.87394 -3.200653
v 14.98343 -19.98969 17.94622
v 19.23336 -20.04741 -4.571709
v 2.130911 -19.90137 23.34488
v 14.98343 -19.98969 17.94622
v 23.33866 -14.73549 28.09509
v 30.10753 -14.78983 -7.768429
v 19.23336 -20.04741 -4.571709
v 8.418913 -14.53788 -36.70997
v 5.615758 -19.84302 -22.7434
v 2.868772 -14.61686 36.69334
v -11.35645 -19.86684 18.5035
v -18.61202 -14.54374 28.98265
v -18.51667 -19.87394 -3.200653
v -30.01571 -14.51799 -5.584805
v -8.381166 -19.83818 -18.33764
v -13.87339 -14.49909 -29.69304
v 8.418913 -14.53788 -36.70997
vt 0.27913 0.5036642
vt 0.3029158 0.45969
vt 0.2973196 0.4557815
vt 0.2869043 0.5031867
vt 0.3542866 0.4385905
vt 0.3473212 0.4159341
vt 0.3268155 0.4770433
vt 0.358951 0.4573405
vt 0.345344 0.4950494
vt 0.3473212 0.4159341
vt 0.4157797 0.4441414
vt 0.4258055 0.4214027
vt 0.3542866 0.4385905
vt 0.4586267 0.4579058
vt 0.4642311 0.4536795
vt 0.4789446 0.5068657
vt 0.4956342 0.493422
vt 0.358951 0.4573405
vt 0.4432947 0.4753163
vt 0.4594657 0.5153368
vt 0.4003892 0.5335331
vt 0.345344 0.4950494
vt 0.3717316 0.6309276
vt 0.3247624 0.5619113
vt 0.3081872 0.5754097
vt 0.3861988 0.6168892
vt 0.2869043 0.5031867
vt 0.27913 0.5036642
vt 0.3447955 0.550751
vt 0.3946145 0.5981073
vt 0.3007333 0.503161
vt 0.3268155 0.4770433
vt 0.345344 0.4950494
vt 0.4003892 0.5335331
vt 0.3838634 0.3680837
vt 0.4633854 0.3095281
vt 0.4149192 0.2793775
vt 0.4643549 0.3442138
vt 0.4633854 0.3095281
vt 0.4971861 0.2974252
vt 0.4177843 0.2479027
vt 0.4149192 0.2793775
vt 0.3284784 0.2731248
vt 0.3605344 0.2945684
vt 0.4992562 0.3557097
vt 0.4408576 0.3710918
vt 0.4596874 0.400704
vt 0.3838634 0.3680837
vt 0.3663861 0.3957221
vt 0.357915 0.3308686
vt 0.3231325 0.3341274
vt 0.3284784 0.2731248
vn 0.3064493 -0.3152586 -0.8981653
vn -0.582328 0.03208176 -0.8123206
vn -0.5950083 -0.2525912 -0.762996
vn 0.2886631 0.09872057 -0.9523276
vn -0.9817564 0.145219 -0.1227422
vn -0.9907228 -0.08518504 -0.1058849
vn -0.3845119 0.5467287 -0.7437998
vn -0.736573 0.6670244 -0.1119768
vn -0.1015665 0.8989509 -0.4261121
vn -0.9907228 -0.08518504 -0.1058849
vn -0.5949754 0.4691635 0.6526024
vn -0.7238483 -0.01170962 0.6898599
vn -0.9817564 0.145219 -0.1227422
vn 0.01434188 0.1612567 0.9868084
vn 0.006090295 -0.1060248 0.9943448
vn 0.7622002 0.1246587 0.6352252
vn 0.7765035 -0.1555062 0.6106226
vn -0.736573 0.6670244 -0.1119768
vn 0.00608052 0.5765968 0.8170062
vn 0.6273552 0.5341524 0.5666627
vn 0.220455 0.9148447 0.3383175
vn -0.1015665 0.8989509 -0.4261121
vn 0.7765035 -0.1555062 0.6106226
vn 0.9595006 0.1561668 -0.2344577
vn 0.9635476 -0.1588222 -0.215294
vn 0.7622002 0.1246587 0.6352252
vn 0.2886631 0.09872057 -0.9523276
vn 0.3064493 -0.3152586 -0.8981653
vn 0.7859792 0.5881425 -0.1905916
vn 0.6273552 0.5341524 0.5666627
vn 0.2655151 0.5923156 -0.7606996
vn -0.3845119 0.5467287 -0.7437998
vn -0.1015665 0.8989509 -0.4261121
vn 0.220455 0.9148447 0.3383175
vn -0.004533127 -0.9999883 0.001708001
vn -0.004533127 -0.9999883 0.001708001
vn -0.004533127 -0.9999883 0.001708001
vn 0.00127898 -0.9683741 0.2494997
vn 0.2041539 -0.9667454 0.1540276
vn 0.3055174 -0.9246289 0.2274216
vn 0.4093888 -0.9075167 -0.09388398
vn 0.27572 -0.9589766 -0.06589511
vn 0.351025 -0.8960702 -0.2717344
vn 0.07863323 -0.9711685 -0.2250523
vn 0.004222944 -0.9296759 0.3683542
vn -0.200067 -0.9633868 0.1784908
vn -0.2942248 -0.918755 0.2632888
vn -0.2797449 -0.9593569 -0.0371081
vn -0.4119237 -0.9097635 -0.05147117
vn -0.1670065 -0.9624093 -0.2141892
vn -0.2447317 -0.9176207 -0.3131753
vn -0.1188335 -0.9197783 -0.3740141
g Canyon_Rocks2_4_0
f 3/3/3 2/2/2 1/1/1
f 2/2/2 4/4/4 1/1/1
f 5/5/5 2/2/2 3/3/3
f 6/6/6 5/5/5 3/3/3
f 2/2/2 7/7/7 4/4/4
f 5/5/5 8/8/8 2/2/2
f 8/8/8 7/7/7 2/2/2
f 8/8/8 9/9/9 7/7/7
f 12/12/12 11/11/11 10/10/10
f 11/11/11 13/13/13 10/10/10
f 14/14/14 11/11/11 12/12/12
f 15/15/15 14/14/14 12/12/12
f 16/16/16 14/14/14 15/15/15
f 17/17/17 16/16/16 15/15/15
f 11/11/11 18/18/18 13/13/13
f 14/14/14 19/19/19 11/11/11
f 16/16/16 20/20/20 14/14/14
f 20/20/20 19/19/19 14/14/14
f 11/11/11 21/21/21 18/18/18
f 19/19/19 21/21/21 11/11/11
f 20/20/20 21/21/21 19/19/19
f 21/21/21 22/22/22 18/18/18
f 25/25/25 24/24/24 23/23/23
f 24/24/24 26/26/26 23/23/23
f 27/27/27 24/24/24 25/25/25
f 28/28/28 27/27/27 25/25/25
f 24/24/24 29/29/29 26/26/26
f 29/29/29 30/30/30 26/26/26
f 27/27/27 31/31/31 24/24/24
f 31/31/31 29/29/29 24/24/24
f 32/32/32 31/31/31 27/27/27
f 32/32/32 33/33/33 31/31/31
f 31/31/31 33/33/33 29/29/29
f 29/29/29 34/34/34 30/30/30
f 33/33/33 34/34/34 29/29/29
f 37/37/37 36/36/36 35/35/35
f 39/39/39 38/38/38 35/35/35
f 38/38/38 39/39/39 40/40/40
f 40/40/40 39/39/39 41/41/41
f 39/39/39 42/42/42 41/41/41
f 41/41/41 42/42/42 43/43/43
f 42/42/42 44/44/44 43/43/43
f 45/45/45 38/38/38 40/40/40
f 46/46/46 38/38/38 45/45/45
f 38/38/38 46/46/46 35/35/35
f 47/47/47 46/46/46 45/45/45
f 48/48/48 46/46/46 47/47/47
f 49/49/49 48/48/48 47/47/47
f 50/50/50 48/48/48 49/49/49
f 44/44/44 42/42/42 50/50/50
f 42/42/42 48/48/48 50/50/50
f 44/44/44 50/50/50 51/51/51
f 51/51/51 50/50/50 49/49/49
f 52/52/52 44/44/44 51/51/51
