g Canyon_Rocks1_6
v -15.31476 -6.611907 7.262342
v -5.893191 2.509482 13.02263
v -5.996158 -6.511605 14.30522
v -13.95183 -2.586121 6.771117
v -12.29357 -6.727119 -8.450203
v -10.55742 2.802546 -7.93392
v 1.936093 -6.596286 -14.67748
v 1.720487 1.003792 -13.47972
v -5.394656 7.811673 6.77902
v -0.6642179 9.384648 -6.668871
v -5.996158 -6.511605 14.30522
v 5.953855 3.344028 13.35405
v 7.184415 -6.416359 14.67748
v -5.893191 2.509482 13.02263
v -5.394656 7.811673 6.77902
v 7.184415 -6.416359 14.67748
v 14.71905 -1.011414 1.413312
v 15.31476 -6.382086 1.612648
v 5.953855 3.344028 13.35405
v 11.22824 -6.461467 -8.755821
v 9.791928 -0.1709566 -8.305498
v 1.720487 1.003792 -13.47972
v 1.936093 -6.596286 -14.67748
v -0.6642179 9.384648 -6.668871
v -5.394656 7.811673 6.77902
v 5.594357 -9.226432 -3.985466
v -6.339572 -9.384648 -3.83028
v -7.872684 -9.29714 4.141548
v 0.8799105 -9.30281 -6.989862
v -15.31476 -6.611907 7.262342
v -5.996158 -6.511605 14.30522
v -3.144626 -9.258368 7.714919
v -12.29357 -6.727119 -8.450203
v 1.936093 -6.596286 -14.67748
v 11.22824 -6.461467 -8.755821
v 7.667752 -9.19331 1.275164
v 15.31476 -6.382086 1.612648
v 3.542844 -9.224761 7.903871
v 7.184415 -6.416359 14.67748
v 5.594357 -9.226432 -3.985466
vt 0.6576234 0.4046889
vt 0.6265479 0.4865929
vt 0.6828729 0.4696841
vt 0.6355848 0.4189471
vt 0.596244 0.3336262
vt 0.5615678 0.3791836
vt 0.5072007 0.3017195
vt 0.5013152 0.3455223
vt 0.5741726 0.4737279
vt 0.4993404 0.4122962
vt 0.3246067 0.4855318
vt 0.3823215 0.4234411
vt 0.3313678 0.4056222
vt 0.3830399 0.485625
vt 0.4341889 0.4739339
vt 0.3313678 0.4056222
vt 0.4003083 0.3554552
vt 0.3816981 0.331543
vt 0.3823215 0.4234411
vt 0.442035 0.3082035
vt 0.4524643 0.3427243
vt 0.5013152 0.3455223
vt 0.5072007 0.3017195
vt 0.4993404 0.4122962
vt 0.4341889 0.4739339
vt 0.4608381 0.4876199
vt 0.5125743 0.4868032
vt 0.5191615 0.4522823
vt 0.4812679 0.5005576
vt 0.5538501 0.4379101
vt 0.512009 0.4054786
vt 0.4987602 0.4368358
vt 0.5405453 0.5083964
vt 0.476519 0.5366184
vt 0.4340932 0.5101119
vt 0.4518976 0.4648394
vt 0.4158731 0.462881
vt 0.4698282 0.4361238
vt 0.4525469 0.4044125
vt 0.4608381 0.4876199
vn -0.8945502 -0.2998864 0.3314333
vn -0.4030794 0.5196312 0.7533329
vn -0.3040292 -0.2389703 0.9222035
vn -0.7703135 0.5656768 0.2943242
vn -0.7623494 -0.1778892 -0.622237
vn -0.621549 0.612455 -0.4884423
vn 0.06685436 -0.1527687 -0.985998
vn 0.1140825 0.5258333 -0.8429025
vn -0.3034644 0.8844819 0.3544023
vn 0.1507199 0.9078975 -0.3911593
vn -0.3040292 -0.2389703 0.9222035
vn 0.320611 0.6963527 0.6421071
vn 0.5004336 -0.08399648 0.8616906
vn -0.4030794 0.5196312 0.7533329
vn -0.3034644 0.8844819 0.3544023
vn 0.5004336 -0.08399648 0.8616906
vn 0.8798277 0.4749895 0.01697623
vn 0.9954224 -0.003158406 0.09552113
vn 0.320611 0.6963527 0.6421071
vn 0.7800124 -0.09061291 -0.6191687
vn 0.6521412 0.5478323 -0.5240148
vn 0.1140825 0.5258333 -0.8429025
vn 0.06685436 -0.1527687 -0.985998
vn 0.1507199 0.9078975 -0.3911593
vn -0.3034644 0.8844819 0.3544023
vn 0.1456458 -0.9836184 -0.1062167
vn -0.1685414 -0.9762566 -0.1360761
vn -0.1425868 -0.9877803 0.06292015
vn 0.02575888 -0.9758503 -0.2169163
vn -0.2941879 -0.9483612 0.1185945
vn -0.1098938 -0.9333989 0.341599
vn -0.0522982 -0.9833474 0.1740486
vn -0.2574683 -0.9436371 -0.2079887
vn 0.03151797 -0.9440371 -0.3283301
vn 0.2774277 -0.9361619 -0.2159509
vn 0.2333979 -0.9720515 0.02532212
vn 0.3436191 -0.9383805 0.03698827
vn 0.1138516 -0.9729137 0.2011881
vn 0.166105 -0.9396926 0.2989762
vn 0.006560035 -0.9999762 0.002170172
g Canyon_Rocks1_6_0
f 3/3/3 2/2/2 1/1/1
f 2/2/2 4/4/4 1/1/1
f 1/1/1 4/4/4 5/5/5
f 4/4/4 6/6/6 5/5/5
f 5/5/5 6/6/6 7/7/7
f 6/6/6 8/8/8 7/7/7
f 2/2/2 9/9/9 4/4/4
f 4/4/4 9/9/9 6/6/6
f 6/6/6 10/10/10 8/8/8
f 9/9/9 10/10/10 6/6/6
f 13/13/13 12/12/12 11/11/11
f 12/12/12 14/14/14 11/11/11
f 12/12/12 15/15/15 14/14/14
f 18/18/18 17/17/17 16/16/16
f 17/17/17 19/19/19 16/16/16
f 18/18/18 20/20/20 17/17/17
f 20/20/20 21/21/21 17/17/17
f 22/22/22 21/21/21 20/20/20
f 23/23/23 22/22/22 20/20/20
f 17/17/17 24/24/24 19/19/19
f 21/21/21 24/24/24 17/17/17
f 22/22/22 24/24/24 21/21/21
f 24/24/24 25/25/25 19/19/19
f 28/28/28 27/27/27 26/26/26
f 27/27/27 29/29/29 26/26/26
f 27/27/27 28/28/28 30/30/30
f 30/30/30 28/28/28 31/31/31
f 28/28/28 32/32/32 31/31/31
f 33/33/33 27/27/27 30/30/30
f 29/29/29 27/27/27 33/33/33
f 34/34/34 29/29/29 33/33/33
f 26/26/26 29/29/29 34/34/34
f 35/35/35 26/26/26 34/34/34
f 36/36/36 26/26/26 35/35/35
f 26/26/26 36/36/36 32/32/32
f 37/37/37 36/36/36 35/35/35
f 38/38/38 36/36/36 37/37/37
f 36/36/36 38/38/38 32/32/32
f 39/39/39 38/38/38 37/37/37
f 31/31/31 32/32/32 39/39/39
f 32/32/32 38/38/38 39/39/39
f 28/28/28 40/40/40 32/32/32
