g Canyon_Rocks1_4
v 6.699986 -3.10921 -4.708714
v -0.2760114 -3.130247 -9.912898
v -0.150752 -4.303224 -9.421857
v 6.814626 -0.6095099 -5.188432
v 8.757665 -2.197931 4.05455
v 9.174336 -0.9279847 3.968239
v -5.260219 1.667901 -6.140479
v 4.93369 2.863239 -4.493398
v 6.667836 3.081444 3.57991
v -0.150752 -4.303224 -9.421857
v -5.260219 1.667901 -6.140479
v -9.174342 -4.84321 -3.107053
v -0.2760114 -3.130247 -9.912898
v -8.281245 -2.602482 7.508351
v -7.734965 -3.775793 7.330698
v -7.319224 1.741439 6.168649
v -7.734965 -3.775793 7.330698
v -0.8925886 0.6110635 9.912898
v -0.05478948 -2.7004 9.87665
v -8.281245 -2.602482 7.508351
v 9.174336 -0.9279847 3.968239
v 8.757665 -2.197931 4.05455
v -7.319224 1.741439 6.168649
v 6.667836 3.081444 3.57991
v -1.847926 4.84321 0.3681353
v -5.260219 1.667901 -6.140479
v 4.93369 2.863239 -4.493398
v -5.260219 1.667901 -6.140479
v -0.150752 -4.303224 -9.421857
v -7.734965 -3.775793 7.330698
v -0.05478948 -2.7004 9.87665
v -9.174342 -4.84321 -3.107053
v 8.757665 -2.197931 4.05455
v 6.699986 -3.10921 -4.708714
vt 0.7074045 0.2992522
vt 0.7086553 0.3504273
vt 0.7169809 0.3475029
vt 0.6926891 0.3057595
vt 0.6791333 0.2637043
vt 0.6753318 0.2698379
vt 0.6555542 0.3634534
vt 0.6738722 0.3133551
vt 0.6605976 0.2856392
vt 0.5269991 0.3588486
vt 0.5819357 0.3397372
vt 0.5478435 0.2947952
vt 0.5351076 0.3634534
vt 0.5922792 0.2650961
vt 0.5887083 0.2582745
vt 0.6069795 0.2834359
vt 0.5887083 0.2582745
vt 0.6290945 0.2646033
vt 0.6314892 0.242899
vt 0.5922792 0.2650961
vt 0.6753318 0.2698379
vt 0.6791333 0.2637043
vt 0.6069795 0.2834359
vt 0.6605976 0.2856392
vt 0.6294132 0.3193312
vt 0.5819357 0.3397372
vt 0.6738722 0.3133551
vt 0.6555542 0.3634534
vt 0.7169809 0.3475029
vt 0.5887083 0.2582745
vt 0.6314892 0.242899
vt 0.5478435 0.2947952
vt 0.6791333 0.2637043
vt 0.7074045 0.2992522
vn 0.8199314 -0.1989841 -0.5367661
vn 0.06733423 0.1343369 -0.9886454
vn -0.009812755 -0.1724522 -0.984969
vn 0.7636392 0.2196947 -0.6071157
vn 0.9224766 -0.06953276 0.3797395
vn 0.89517 0.2491352 0.3695975
vn -0.6121706 0.6234227 -0.4864065
vn 0.324654 0.8489865 -0.4169194
vn 0.4637097 0.8475754 0.2580487
vn -0.009812755 -0.1724522 -0.984969
vn -0.6121706 0.6234227 -0.4864065
vn -0.8703431 0.1922605 -0.4533637
vn 0.06733423 0.1343369 -0.9886454
vn -0.8257673 0.2520303 0.5045681
vn -0.7808462 0.1813615 0.5978187
vn -0.6245211 0.7220439 0.2977015
vn -0.7808462 0.1813615 0.5978187
vn 0.0582623 0.5361478 0.8421111
vn 0.1418044 -0.03968366 0.9890989
vn -0.8257673 0.2520303 0.5045681
vn 0.89517 0.2491352 0.3695975
vn 0.9224766 -0.06953276 0.3797395
vn -0.6245211 0.7220439 0.2977015
vn 0.4637097 0.8475754 0.2580487
vn -0.09088063 0.9948835 0.04413118
vn -0.6121706 0.6234227 -0.4864065
vn 0.324654 0.8489865 -0.4169194
vn -0.6121706 0.6234227 -0.4864065
vn 0.1144601 -0.9899557 0.08298577
vn 0.1144601 -0.9899557 0.08298577
vn 0.1144601 -0.9899557 0.08298577
vn 0.1144601 -0.9899557 0.08298577
vn 0.1129357 -0.9903715 0.0800617
vn 0.1129357 -0.9903715 0.0800617
g Canyon_Rocks1_4_0
f 3/3/3 2/2/2 1/1/1
f 2/2/2 4/4/4 1/1/1
f 1/1/1 4/4/4 5/5/5
f 4/4/4 6/6/6 5/5/5
f 2/2/2 7/7/7 4/4/4
f 7/7/7 8/8/8 4/4/4
f 4/4/4 8/8/8 6/6/6
f 8/8/8 9/9/9 6/6/6
f 12/12/12 11/11/11 10/10/10
f 11/11/11 13/13/13 10/10/10
f 14/14/14 11/11/11 12/12/12
f 15/15/15 14/14/14 12/12/12
f 14/14/14 16/16/16 11/11/11
f 19/19/19 18/18/18 17/17/17
f 18/18/18 20/20/20 17/17/17
f 21/21/21 18/18/18 19/19/19
f 22/22/22 21/21/21 19/19/19
f 18/18/18 23/23/23 20/20/20
f 21/21/21 24/24/24 18/18/18
f 18/18/18 25/25/25 23/23/23
f 24/24/24 25/25/25 18/18/18
f 23/23/23 25/25/25 26/26/26
f 27/27/27 25/25/25 24/24/24
f 28/28/28 25/25/25 27/27/27
f 31/31/31 30/30/30 29/29/29
f 30/30/30 32/32/32 29/29/29
f 33/33/33 31/31/31 29/29/29
f 34/34/34 33/33/33 29/29/29
