g Canyon_Rock1_4
v 9.847778 -5.811036 -12.72228
v -2.836349 -4.215545 -15.28518
v -2.695885 -5.853443 -14.70729
v 10.31759 -4.171523 -13.26901
v 16.30074 -5.813196 -1.081621
v 17.10287 -4.171203 -1.280973
v -2.371407 4.816643 -13.27871
v 8.599869 1.63208 -11.35852
v 14.19126 1.623553 -0.6164589
v -1.128929 9.264741 -8.014273
v 4.021996 8.989664 -6.297489
v -17.05445 -4.216092 -7.158926
v -16.38351 -5.85392 -6.884495
v -17.10287 -4.115482 5.187828
v -16.29194 -5.75504 5.002777
v -2.695885 -5.853443 -14.70729
v -2.836349 -4.215545 -15.28518
v -17.05445 -4.216092 -7.158926
v -14.67612 1.593902 -6.226339
v -2.371407 4.816643 -13.27871
v -14.22189 1.688276 4.469948
v -17.10287 -4.115482 5.187828
v -6.513847 5.479568 12.50395
v -8.200706 -0.3153747 14.46727
v -8.141335 6.262496 -3.620581
v -1.128929 9.264741 -8.014273
v -2.043106 8.930616 6.203438
v 4.021996 8.989664 -6.297489
v -16.29194 -5.75504 5.002777
v -8.200706 -0.3153747 14.46727
v -7.712326 -5.691484 13.95253
v -17.10287 -4.115482 5.187828
v 4.461029 -4.056934 15.28518
v 4.329247 -5.700662 14.72201
v 17.10287 -4.171203 -1.280973
v 16.30074 -5.813196 -1.081621
v 3.956825 1.731723 13.21104
v -6.513847 5.479568 12.50395
v 14.19126 1.623553 -0.6164589
v 2.617523 3.171081 7.609291
v -2.043106 8.930616 6.203438
v 6.274323 3.079567 1.265932
v 4.021996 8.989664 -6.297489
v 8.599869 1.63208 -11.35852
v -2.695885 -5.853443 -14.70729
v 5.812622 -8.940234 -6.771532
v 9.847778 -5.811036 -12.72228
v -2.726318 -9.069514 -8.361612
v -16.38351 -5.85392 -6.884495
v -2.726318 -9.069514 -8.361612
v -8.576485 -8.927371 -4.121944
v -16.29194 -5.75504 5.002777
v -8.576485 -8.927371 -4.121944
v -10.708 -9.021115 3.316456
v -7.712326 -5.691484 13.95253
v -10.708 -9.021115 3.316456
v -5.711052 -9.264741 9.521387
v 6.560249 -8.94266 0.7405376
v 16.30074 -5.813196 -1.081621
v 5.812622 -8.940234 -6.771532
v 3.468552 -9.20731 6.746565
v 4.329247 -5.700662 14.72201
v 6.560249 -8.94266 0.7405376
v 4.329247 -5.700662 14.72201
v -5.711052 -9.264741 9.521387
v -7.712326 -5.691484 13.95253
v 3.468552 -9.20731 6.746565
v -2.726318 -9.069514 -8.361612
v -10.708 -9.021115 3.316456
v 5.812622 -8.940234 -6.771532
v -8.576485 -8.927371 -4.121944
v -5.711052 -9.264741 9.521387
v 6.560249 -8.94266 0.7405376
v 3.468552 -9.20731 6.746565
vt 0.6277243 0.4513871
vt 0.6018298 0.5504078
vt 0.6087624 0.5533009
vt 0.6198463 0.4545598
vt 0.5551579 0.3788826
vt 0.5524215 0.3872101
vt 0.575473 0.5215437
vt 0.5856141 0.4687769
vt 0.546664 0.4251586
vt 0.5537516 0.5068421
vt 0.5548121 0.4806518
vt 0.5303973 0.5920368
vt 0.5309274 0.6002125
vt 0.4519803 0.5734583
vt 0.4469128 0.5787213
vt 0.6087624 0.5533009
vt 0.6018298 0.5504078
vt 0.5303973 0.5920368
vt 0.5226361 0.5651157
vt 0.575473 0.5215437
vt 0.4751067 0.5447719
vt 0.4519803 0.5734583
vt 0.459408 0.4946578
vt 0.4405868 0.4981382
vt 0.5219667 0.5310568
vt 0.5537516 0.5068421
vt 0.4879881 0.4866663
vt 0.5548121 0.4806518
vt 0.4469128 0.5787213
vt 0.4405868 0.4981382
vt 0.417183 0.5010883
vt 0.4519803 0.5734583
vt 0.4351487 0.4269702
vt 0.4289005 0.4209156
vt 0.5524215 0.3872101
vt 0.5551579 0.3788826
vt 0.4667155 0.4477299
vt 0.459408 0.4946578
vt 0.546664 0.4251586
vt 0.4897004 0.4633291
vt 0.4879881 0.4866663
vt 0.5246017 0.457663
vt 0.5548121 0.4806518
vt 0.5856141 0.4687769
vt 0.7121332 0.6594752
vt 0.6667657 0.6104238
vt 0.6413091 0.6451561
vt 0.7119417 0.6195435
vt 0.7891991 0.6151261
vt 0.7119417 0.6195435
vt 0.7436602 0.5976594
vt 0.790213 0.5478766
vt 0.7436602 0.5976594
vt 0.7552244 0.5583282
vt 0.7425501 0.4964042
vt 0.7552244 0.5583282
vt 0.7290594 0.5258933
vt 0.6634941 0.5706142
vt 0.6075556 0.578666
vt 0.6667657 0.6104238
vt 0.6811426 0.5394303
vt 0.6740611 0.4926989
vt 0.6634941 0.5706142
vt 0.6740611 0.4926989
vt 0.7290594 0.5258933
vt 0.7425501 0.4964042
vt 0.6811426 0.5394303
vt 0.7119417 0.6195435
vt 0.7552244 0.5583282
vt 0.6667657 0.6104238
vt 0.7436602 0.5976594
vt 0.7290594 0.5258933
vt 0.6634941 0.5706142
vt 0.6811426 0.5394303
vn 0.1154887 -0.1120065 -0.9869736
vn -0.5006223 0.3834388 -0.7761135
vn -0.5493755 0.07546584 -0.8321607
vn 0.2422018 0.2618377 -0.9342266
vn 0.7551553 -0.4874627 -0.4383155
vn 0.9365181 -0.1265075 -0.3270012
vn -0.2651451 0.8567168 -0.4424189
vn 0.4408703 0.7458268 -0.4993755
vn 0.834617 0.5494223 0.03936621
vn 0.03977624 0.9877209 0.1510805
vn 0.5882338 0.7764891 0.2259332
vn -0.9593117 0.2694311 -0.08442681
vn -0.9689883 -0.1171669 -0.2175631
vn -0.7119898 0.0008575104 0.7021892
vn -0.739198 -0.37087 0.562176
vn -0.5493755 0.07546584 -0.8321607
vn -0.5006223 0.3834388 -0.7761135
vn -0.9593117 0.2694311 -0.08442681
vn -0.579573 0.7845194 0.2205094
vn -0.2651451 0.8567168 -0.4424189
vn -0.4285661 0.5992976 0.6761461
vn -0.7119898 0.0008575104 0.7021892
vn 0.1711379 0.4403405 0.8813695
vn -0.05251231 -0.2270151 0.9724745
vn -0.1076744 0.8804662 0.4617201
vn 0.03977624 0.9877209 0.1510805
vn 0.2687145 0.8126506 0.5170992
vn 0.5882338 0.7764891 0.2259332
vn -0.739198 -0.37087 0.562176
vn -0.05251231 -0.2270151 0.9724745
vn -0.1199229 -0.4943436 0.8609546
vn -0.7119898 0.0008575104 0.7021892
vn 0.7081599 -0.3606223 0.6070101
vn 0.5855762 -0.6253431 0.515797
vn 0.9365181 -0.1265075 -0.3270012
vn 0.7551553 -0.4874627 -0.4383155
vn 0.7537612 0.3269735 0.5700283
vn 0.1711379 0.4403405 0.8813695
vn 0.834617 0.5494223 0.03936621
vn 0.7728053 0.5350986 0.341235
vn 0.2687145 0.8126506 0.5170992
vn 0.7233826 0.6483091 0.2375143
vn 0.5882338 0.7764891 0.2259332
vn 0.4408703 0.7458268 -0.4993755
vn -0.5493755 0.07546584 -0.8321607
vn 0.0811884 -0.8964097 -0.4357268
vn 0.1154887 -0.1120065 -0.9869736
vn 0.0811884 -0.8964097 -0.4357268
vn -0.9689883 -0.1171669 -0.2175631
vn -0.2508112 -0.8833923 -0.3958686
vn -0.2508112 -0.8833923 -0.3958686
vn -0.739198 -0.37087 0.562176
vn -0.4245362 -0.9043132 -0.04457208
vn -0.4245362 -0.9043132 -0.04457208
vn -0.1199229 -0.4943436 0.8609546
vn -0.432905 -0.8183109 0.3781013
vn -0.432905 -0.8183109 0.3781013
vn 0.3478577 -0.9283499 -0.1310015
vn 0.7551553 -0.4874627 -0.4383155
vn 0.3478577 -0.9283499 -0.1310015
vn 0.3952866 -0.878933 0.2668806
vn 0.5855762 -0.6253431 0.515797
vn 0.3952866 -0.878933 0.2668806
vn 0.04906887 -0.865537 0.4984355
vn 0.04906887 -0.865537 0.4984355
vn 0.04906887 -0.865537 0.4984355
vn 0.04906887 -0.865537 0.4984355
vn -0.0001495954 -0.9999919 0.004042138
vn -0.0001495954 -0.9999919 0.004042138
vn -0.0001495954 -0.9999919 0.004042138
vn -0.0001495954 -0.9999919 0.004042138
vn 0.01382141 -0.9997539 -0.01735536
vn 0.01382141 -0.9997539 -0.01735536
vn 0.01382141 -0.9997539 -0.01735536
g Canyon_Rock1_4_0
f 3/3/3 2/2/2 1/1/1
f 2/2/2 4/4/4 1/1/1
f 1/1/1 4/4/4 5/5/5
f 4/4/4 6/6/6 5/5/5
f 2/2/2 7/7/7 4/4/4
f 7/7/7 8/8/8 4/4/4
f 4/4/4 8/8/8 6/6/6
f 8/8/8 9/9/9 6/6/6
f 7/7/7 10/10/10 8/8/8
f 10/10/10 11/11/11 8/8/8
f 13/13/13 12/12/12 3/3/3
f 14/14/14 12/12/12 13/13/13
f 15/15/15 14/14/14 13/13/13
f 18/18/18 17/17/17 16/16/16
f 18/18/18 19/19/19 17/17/17
f 19/19/19 20/20/20 17/17/17
f 21/21/21 19/19/19 18/18/18
f 22/22/22 21/21/21 18/18/18
f 23/23/23 21/21/21 22/22/22
f 24/24/24 23/23/23 22/22/22
f 19/19/19 25/25/25 20/20/20
f 25/25/25 26/26/26 20/20/20
f 21/21/21 27/27/27 19/19/19
f 27/27/27 25/25/25 19/19/19
f 23/23/23 27/27/27 21/21/21
f 25/25/25 28/28/28 26/26/26
f 27/27/27 28/28/28 25/25/25
f 31/31/31 30/30/30 29/29/29
f 30/30/30 32/32/32 29/29/29
f 33/33/33 30/30/30 31/31/31
f 34/34/34 33/33/33 31/31/31
f 35/35/35 33/33/33 34/34/34
f 36/36/36 35/35/35 34/34/34
f 33/33/33 37/37/37 30/30/30
f 37/37/37 38/38/38 30/30/30
f 35/35/35 39/39/39 33/33/33
f 39/39/39 37/37/37 33/33/33
f 37/37/37 40/40/40 38/38/38
f 40/40/40 41/41/41 38/38/38
f 39/39/39 42/42/42 37/37/37
f 42/42/42 40/40/40 37/37/37
f 43/43/43 42/42/42 39/39/39
f 40/40/40 43/43/43 41/41/41
f 42/42/42 43/43/43 40/40/40
f 44/44/44 43/43/43 39/39/39
f 47/47/47 46/46/46 45/45/45
f 46/46/46 48/48/48 45/45/45
f 45/45/45 50/50/50 49/49/49
f 50/50/50 51/51/51 49/49/49
f 49/49/49 53/53/53 52/52/52
f 53/53/53 54/54/54 52/52/52
f 52/52/52 56/56/56 55/55/55
f 56/56/56 57/57/57 55/55/55
f 59/59/59 58/58/58 47/47/47
f 58/58/58 60/60/60 47/47/47
f 62/62/62 61/61/61 59/59/59
f 61/61/61 63/63/63 59/59/59
f 66/66/66 65/65/65 64/64/64
f 65/65/65 67/67/67 64/64/64
f 70/70/70 69/69/69 68/68/68
f 69/69/69 71/71/71 68/68/68
f 70/70/70 72/72/72 69/69/69
f 70/70/70 73/73/73 72/72/72
f 73/73/73 74/74/74 72/72/72
