g Canyon_Rocks1_5
v -21.27193 -8.573662 -3.005076
v -14.74303 2.791297 8.204325
v -15.89371 -8.551233 9.390955
v -19.30252 -3.526251 -2.710819
v -1.394397 3.721699 15.24294
v -1.057971 -8.562161 17.22068
v 17.6461 -1.820881 8.071918
v 18.13237 -8.57705 8.580271
v 21.27192 -8.619328 -4.236538
v 19.33726 -0.7007065 -4.56081
v 13.98359 0.8657331 -14.35511
v 15.09422 -8.687915 -15.48933
v -9.414569 9.468421 2.184686
v 6.170636 11.42297 -8.756379
v 15.09422 -8.687915 -15.48933
v -4.26398 3.241763 -15.65878
v -5.936419 -8.719337 -17.22068
v 13.98359 0.8657331 -14.35511
v -19.30252 -3.526251 -2.710819
v -21.27193 -8.573662 -3.005076
v 6.170636 11.42297 -8.756379
v -9.414569 9.468421 2.184686
v -14.74303 2.791297 8.204325
v -7.686206 -11.31725 4.295452
v -0.1591062 -11.34109 8.268057
v 8.035962 -11.38896 -8.327906
v -1.057971 -8.562161 17.22068
v 18.13237 -8.57705 8.580271
v 9.577405 -11.33083 3.884141
v 21.27192 -8.619328 -4.236538
v 11.1703 -11.34356 -2.618689
v 15.09422 -8.687915 -15.48933
v 8.035962 -11.38896 -8.327906
v -5.936419 -8.719337 -17.22068
v -2.634265 -11.42297 -9.206247
v -21.27193 -8.573662 -3.005076
v -10.41492 -11.31369 -1.99392
v -15.89371 -8.551233 9.390955
vt 0.1077727 0.5036642
vt 0.1554582 0.4770433
vt 0.1259623 0.4557815
vt 0.129376 0.503161
vt 0.1875937 0.4573405
vt 0.1759639 0.4159341
vt 0.2444224 0.4441414
vt 0.2544482 0.4214027
vt 0.2928738 0.4536795
vt 0.2719374 0.4753163
vt 0.2881084 0.5153368
vt 0.3242769 0.493422
vt 0.1739867 0.4950494
vt 0.2290319 0.5335331
vt 0.2003743 0.6309276
vt 0.1734382 0.550751
vt 0.1368299 0.5754097
vt 0.2232572 0.5981073
vt 0.129376 0.503161
vt 0.1077727 0.5036642
vt 0.2290319 0.5335331
vt 0.1739867 0.4950494
vt 0.1554582 0.4770433
vt 0.1724233 0.5311498
vt 0.2130182 0.5525538
vt 0.2573721 0.4632111
vt 0.2081549 0.6037432
vt 0.3137916 0.5562405
vt 0.2655933 0.5289562
vt 0.3315068 0.484966
vt 0.2742529 0.4939634
vt 0.2970032 0.4223839
vt 0.2573721 0.4632111
vt 0.1810603 0.4122678
vt 0.1997919 0.4583378
vt 0.09652485 0.4911577
vt 0.1578035 0.4972745
vt 0.1258579 0.5605276
vn -0.9252114 -0.3152586 -0.2111774
vn -0.6996773 0.5467288 0.4599341
vn -0.6968317 -0.2525912 0.6712847
vn -0.7842283 0.5923157 -0.1847922
vn -0.03460427 0.6670243 0.7442319
vn -0.002059076 -0.08518504 0.996363
vn 0.7110547 0.4691635 0.523724
vn 0.76154 -0.01170962 0.6480122
vn 0.9882957 -0.1060248 -0.1096839
vn 0.8119236 0.5765968 -0.09119259
vn 0.4981966 0.5341524 -0.6829945
vn 0.5263734 -0.1555062 -0.8359119
vn -0.4132069 0.8989509 0.1454212
vn 0.3135004 0.9148447 -0.2545127
vn 0.5263734 -0.1555062 -0.8359119
vn -0.2714655 0.5881426 -0.7618365
vn -0.3145388 -0.1588222 -0.9358636
vn 0.4981966 0.5341524 -0.6829945
vn -0.7842283 0.5923157 -0.1847922
vn -0.9252114 -0.3152586 -0.2111774
vn 0.3135004 0.9148447 -0.2545127
vn -0.4132069 0.8989509 0.1454212
vn -0.6996773 0.5467288 0.4599341
vn -0.1031191 -0.9895628 0.1006572
vn -0.002801019 -0.9887438 0.1495926
vn -0.003719546 -0.9999926 0.001047516
vn -0.005652697 -0.9555547 0.2947599
vn 0.2057871 -0.9602151 0.1887817
vn 0.1392584 -0.98195 0.1279896
vn 0.2566158 -0.9660982 -0.02832809
vn 0.1733785 -0.9846988 -0.01755654
vn 0.1360836 -0.9637071 -0.2296736
vn 0.06889418 -0.9912744 -0.1123769
vn -0.09656581 -0.9550483 -0.2802818
vn -0.06540197 -0.9804072 -0.1858072
vn -0.2405482 -0.9688691 -0.05856033
vn -0.1612472 -0.9862324 -0.03667176
vn -0.2020485 -0.9596296 0.1956718
g Canyon_Rocks1_5_0
f 3/3/3 2/2/2 1/1/1
f 2/2/2 4/4/4 1/1/1
f 5/5/5 2/2/2 3/3/3
f 6/6/6 5/5/5 3/3/3
f 7/7/7 5/5/5 6/6/6
f 8/8/8 7/7/7 6/6/6
f 8/8/8 9/9/9 7/7/7
f 9/9/9 10/10/10 7/7/7
f 11/11/11 10/10/10 9/9/9
f 12/12/12 11/11/11 9/9/9
f 5/5/5 13/13/13 2/2/2
f 7/7/7 14/14/14 5/5/5
f 14/14/14 13/13/13 5/5/5
f 10/10/10 14/14/14 7/7/7
f 11/11/11 14/14/14 10/10/10
f 17/17/17 16/16/16 15/15/15
f 16/16/16 18/18/18 15/15/15
f 19/19/19 16/16/16 17/17/17
f 20/20/20 19/19/19 17/17/17
f 16/16/16 21/21/21 18/18/18
f 19/19/19 22/22/22 16/16/16
f 22/22/22 21/21/21 16/16/16
f 23/23/23 22/22/22 19/19/19
f 26/26/26 25/25/25 24/24/24
f 24/24/24 25/25/25 27/27/27
f 27/27/27 25/25/25 28/28/28
f 25/25/25 29/29/29 28/28/28
f 28/28/28 29/29/29 30/30/30
f 29/29/29 31/31/31 30/30/30
f 31/31/31 29/29/29 25/25/25
f 30/30/30 31/31/31 32/32/32
f 31/31/31 33/33/33 32/32/32
f 33/33/33 31/31/31 25/25/25
f 32/32/32 33/33/33 34/34/34
f 33/33/33 35/35/35 34/34/34
f 35/35/35 33/33/33 24/24/24
f 34/34/34 35/35/35 36/36/36
f 35/35/35 37/37/37 36/36/36
f 37/37/37 35/35/35 24/24/24
f 36/36/36 37/37/37 38/38/38
f 37/37/37 24/24/24 38/38/38
f 38/38/38 24/24/24 27/27/27
