g Canyon_Rock4_6
v 21.24222 -39.7583 -14.54441
v 11.29532 6.049283 -22.38332
v 13.1558 -39.93644 -24.79168
v 13.60629 -2.114699 -17.11483
v -1.204517 7.631612 -26.47382
v -4.041248 -39.9057 -30.4542
v 6.707455 33.10596 -12.15844
v 7.716167 25.92735 -10.6959
v -0.9499016 30.61215 -15.96063
v 1.655636 42.98696 -0.4723349
v 27.0768 -39.90715 -9.705766
v 19.41989 -0.7774001 -12.17354
v 14.33968 0.4411095 -9.306882
v 12.48816 27.11667 -2.883428
v 11.61735 26.68477 5.41262
v 10.97782 0.2343339 1.324628
v 6.707455 33.10596 -12.15844
v -10.72699 35.37989 -4.701936
v -0.9499016 30.61215 -15.96063
v 1.655636 42.98696 -0.4723349
v -13.9863 32.18723 5.490807
v -11.75258 38.19742 16.73281
v -24.52695 2.037 2.4016
v -12.20305 9.62185 18.69138
v -22.52199 3.470136 -11.67951
v -27.0768 -39.56333 -17.8854
v -26.0676 -39.6439 5.406872
v -17.20543 8.33236 26.12859
v -20.1552 -39.62926 30.4542
v -4.041248 -39.9057 -30.4542
v -1.204517 7.631612 -26.47382
v 11.61735 26.68477 5.41262
v -11.75258 38.19742 16.73281
v 1.655636 42.98696 -0.4723349
v 0.8842964 25.95549 13.83
v -12.20305 9.62185 18.69138
v -5.802219 -0.83562 17.44376
v 10.97782 0.2343339 1.324628
v -17.20543 8.33236 26.12859
v -1.509083 -2.997863 21.39435
v -20.1552 -39.62926 30.4542
v 6.126804 -39.66039 23.96478
v 16.06561 -1.64614 4.225962
v 23.70148 -39.81023 6.796374
v 19.41989 -0.7774001 -12.17354
v 27.0768 -39.90715 -9.705766
v 14.33968 0.4411095 -9.306882
v 13.60629 -2.114699 -17.11483
v 7.131054 -42.98696 -15.65391
v -18.03122 -42.68418 -11.33475
v 2.735073 -42.77895 14.83958
v -3.624485 -42.97618 -19.19538
v -27.0768 -39.56333 -17.8854
v -26.0676 -39.6439 5.406872
v -17.40027 -42.79049 3.233036
v -20.1552 -39.62926 30.4542
v -13.70255 -42.79607 18.89836
v 6.126804 -39.66039 23.96478
v 2.735073 -42.77895 14.83958
v 23.70148 -39.81023 6.796374
v 13.72671 -42.88147 4.102028
v 27.0768 -39.90715 -9.705766
v 15.83768 -42.95382 -6.218818
v 21.24222 -39.7583 -14.54441
v 12.18879 -42.80833 -9.245198
v 13.1558 -39.93644 -24.79168
v -4.041248 -39.9057 -30.4542
vt 0.3790312 0.1776856
vt 0.5141254 0.2786806
vt 0.5164983 0.1650226
vt 0.4335926 0.2918942
vt 0.6007752 0.3126974
vt 0.6826274 0.2014279
vt 0.5122123 0.356779
vt 0.4513291 0.3672361
vt 0.5696208 0.3693591
vt 0.5122123 0.410253
vt 0.3141274 0.2410874
vt 0.4025473 0.3193308
vt 0.4001314 0.3532423
vt 0.4419055 0.3911591
vt 0.4351132 0.4102526
vt 0.383875 0.4028706
vt 0.5122123 0.356779
vt 0.5739175 0.4178815
vt 0.5696208 0.3693591
vt 0.5122123 0.410253
vt 0.5586699 0.4609857
vt 0.5122123 0.4794708
vt 0.6269255 0.5177708
vt 0.5140167 0.5355437
vt 0.6535031 0.4244163
vt 0.7399101 0.4156203
vt 0.6889542 0.5946039
vt 0.5141254 0.5687734
vt 0.5164983 0.6923882
vt 0.6826274 0.2014279
vt 0.6007752 0.3126974
vt 0.4351132 0.4102526
vt 0.5122123 0.4794708
vt 0.5122123 0.410253
vt 0.451166 0.4513013
vt 0.5140167 0.5355437
vt 0.4208224 0.5007728
vt 0.383875 0.4028706
vt 0.5141254 0.5687734
vt 0.3999084 0.5208632
vt 0.5164983 0.6923882
vt 0.3451214 0.5956897
vt 0.37045 0.4016989
vt 0.2870281 0.3704513
vt 0.4025473 0.3193308
vt 0.3141274 0.2410874
vt 0.4001314 0.3532423
vt 0.4335926 0.2918942
vt 0.4126203 0.4731193
vt 0.3041874 0.3673733
vt 0.4937105 0.3093186
vt 0.3481482 0.4542467
vt 0.2379493 0.3689576
vt 0.3212301 0.2585291
vt 0.3562728 0.2983067
vt 0.4343752 0.1560171
vt 0.4270367 0.2341926
vt 0.5409798 0.276135
vt 0.4937105 0.3093186
vt 0.5691125 0.4191492
vt 0.5113053 0.3987633
vt 0.5300979 0.5111446
vt 0.4869045 0.4562992
vt 0.48531 0.5151638
vt 0.4588933 0.4588145
vt 0.4113246 0.5380388
vt 0.3082398 0.5078637
vn 0.7479483 0.08576921 -0.6581922
vn 0.6898158 0.193912 -0.697533
vn 0.6096405 0.0833358 -0.7882852
vn 0.8388433 0.2378427 -0.489666
vn -0.07758263 0.2433362 -0.9668342
vn -0.05178358 0.1022643 -0.9934086
vn 0.8041781 0.4577573 -0.3791518
vn 0.944114 0.2858799 -0.1640775
vn -0.1236228 0.5273526 -0.840605
vn 0.6703323 0.7419778 -0.0111231
vn 0.888298 0.1472307 -0.4350283
vn 0.7809016 0.4871128 -0.3910421
vn 0.8771383 0.4649688 -0.1201353
vn 0.9379659 0.3115459 -0.1521814
vn 0.8517262 0.2047362 0.4823334
vn 0.804604 0.3383338 0.4879986
vn 0.8041781 0.4577573 -0.3791518
vn -0.668932 0.5895411 -0.4527377
vn -0.1236228 0.5273526 -0.840605
vn 0.6703323 0.7419778 -0.0111231
vn -0.9114696 0.3963426 0.110161
vn -0.2672622 0.4664915 0.8431824
vn -0.9599373 0.2514823 0.1236002
vn -0.212068 0.558311 0.8020698
vn -0.8468426 0.2392759 -0.4749785
vn -0.8684994 0.1140496 -0.4823913
vn -0.9903851 0.06774772 0.120614
vn -0.2854429 0.5636092 0.7751561
vn -0.5000792 0.1102479 0.8589332
vn -0.05178358 0.1022643 -0.9934086
vn -0.07758263 0.2433362 -0.9668342
vn 0.8517262 0.2047362 0.4823334
vn -0.2672622 0.4664915 0.8431824
vn 0.6703323 0.7419778 -0.0111231
vn 0.5168741 0.1248248 0.846912
vn -0.212068 0.558311 0.8020698
vn 0.5609772 0.3079631 0.7684162
vn 0.804604 0.3383338 0.4879986
vn -0.2854429 0.5636092 0.7751561
vn 0.54441 0.4141943 0.729425
vn -0.5000792 0.1102479 0.8589332
vn 0.4788597 0.1356612 0.8673462
vn 0.7348301 0.5232394 0.4315614
vn 0.8559234 0.2005744 0.4766184
vn 0.7809016 0.4871128 -0.3910421
vn 0.888298 0.1472307 -0.4350283
vn 0.8771383 0.4649688 -0.1201353
vn 0.8388433 0.2378427 -0.489666
vn 0.07786829 -0.9913778 -0.1053876
vn -0.126154 -0.9901761 -0.06030301
vn -0.01069435 -0.9999125 0.00779288
vn -0.02636784 -0.9848321 -0.1714944
vn -0.2475813 -0.9611451 -0.12208
vn -0.3300863 -0.942956 0.04332485
vn -0.2219215 -0.9746663 0.0278656
vn -0.1285455 -0.9726548 0.1934393
vn -0.08447124 -0.9882706 0.1272231
vn 0.1501669 -0.9509029 0.2706169
vn 0.07679694 -0.9876631 0.1364689
vn 0.2532293 -0.955406 0.1519022
vn 0.170461 -0.9799534 0.1031229
vn 0.231384 -0.9682394 -0.09473141
vn 0.154863 -0.9859684 -0.0623193
vn 0.2052473 -0.9566563 -0.2065967
vn 0.1383306 -0.9807191 -0.1380389
vn 0.1596017 -0.9635849 -0.2145492
vn -0.03393631 -0.9651002 -0.2596731
g Canyon_Rock4_6_0
f 3/3/3 2/2/2 1/1/1
f 2/2/2 4/4/4 1/1/1
f 5/5/5 2/2/2 3/3/3
f 6/6/6 5/5/5 3/3/3
f 2/2/2 7/7/7 4/4/4
f 7/7/7 8/8/8 4/4/4
f 5/5/5 9/9/9 2/2/2
f 9/9/9 7/7/7 2/2/2
f 7/7/7 10/10/10 8/8/8
f 1/1/1 4/4/4 11/11/11
f 4/4/4 12/12/12 11/11/11
f 4/4/4 8/8/8 13/13/13
f 8/8/8 14/14/14 13/13/13
f 10/10/10 14/14/14 8/8/8
f 10/10/10 15/15/15 14/14/14
f 13/13/13 14/14/14 16/16/16
f 14/14/14 15/15/15 16/16/16
f 19/19/19 18/18/18 17/17/17
f 18/18/18 20/20/20 17/17/17
f 18/18/18 21/21/21 20/20/20
f 21/21/21 22/22/22 20/20/20
f 21/21/21 23/23/23 22/22/22
f 23/23/23 24/24/24 22/22/22
f 23/23/23 21/21/21 25/25/25
f 21/21/21 18/18/18 25/25/25
f 23/23/23 25/25/25 26/26/26
f 27/27/27 23/23/23 26/26/26
f 23/23/23 27/27/27 28/28/28
f 23/23/23 28/28/28 24/24/24
f 27/27/27 29/29/29 28/28/28
f 26/26/26 25/25/25 30/30/30
f 25/25/25 31/31/31 30/30/30
f 25/25/25 18/18/18 31/31/31
f 18/18/18 19/19/19 31/31/31
f 34/34/34 33/33/33 32/32/32
f 33/33/33 35/35/35 32/32/32
f 33/33/33 36/36/36 35/35/35
f 36/36/36 37/37/37 35/35/35
f 32/32/32 35/35/35 37/37/37
f 38/38/38 32/32/32 37/37/37
f 36/36/36 39/39/39 37/37/37
f 39/39/39 40/40/40 37/37/37
f 38/38/38 37/37/37 40/40/40
f 39/39/39 41/41/41 40/40/40
f 41/41/41 42/42/42 40/40/40
f 43/43/43 40/40/40 42/42/42
f 43/43/43 38/38/38 40/40/40
f 44/44/44 43/43/43 42/42/42
f 45/45/45 43/43/43 44/44/44
f 46/46/46 45/45/45 44/44/44
f 45/45/45 47/47/47 43/43/43
f 47/47/47 38/38/38 43/43/43
f 48/48/48 47/47/47 45/45/45
f 51/51/51 50/50/50 49/49/49
f 50/50/50 52/52/52 49/49/49
f 52/52/52 50/50/50 53/53/53
f 53/53/53 50/50/50 54/54/54
f 50/50/50 55/55/55 54/54/54
f 54/54/54 55/55/55 56/56/56
f 55/55/55 57/57/57 56/56/56
f 57/57/57 55/55/55 50/50/50
f 56/56/56 57/57/57 58/58/58
f 57/57/57 59/59/59 58/58/58
f 59/59/59 57/57/57 50/50/50
f 58/58/58 59/59/59 60/60/60
f 59/59/59 61/61/61 60/60/60
f 60/60/60 61/61/61 62/62/62
f 61/61/61 63/63/63 62/62/62
f 63/63/63 61/61/61 59/59/59
f 62/62/62 63/63/63 64/64/64
f 63/63/63 65/65/65 64/64/64
f 65/65/65 63/63/63 59/59/59
f 64/64/64 65/65/65 66/66/66
f 65/65/65 49/49/49 66/66/66
f 59/59/59 49/49/49 65/65/65
f 67/67/67 52/52/52 53/53/53
f 66/66/66 49/49/49 67/67/67
f 49/49/49 52/52/52 67/67/67
