g Canyon_Rock1_7
v 19.73111 -3.152729 4.601851
v 14.30449 2.33929 -5.793617
v 13.79292 -3.277689 -6.275589
v -4.048674 2.307308 -11.01281
v -4.167036 -3.513563 -11.34643
v -15.45096 -0.1256069 -7.426708
v -15.04856 -3.624574 -7.169811
v 12.72921 4.258453 -4.295567
v 17.97354 4.419989 5.333864
v -15.04856 -3.624574 -7.169811
v -19.73111 1.102539 0.2791862
v -19.15696 -3.628974 -0.06754684
v -15.45096 -0.1256069 -7.426708
v -19.15696 -3.628974 -0.06754684
v -7.402563 0.01047766 10.68881
v -7.389563 -3.434632 9.739363
v -19.73111 1.102539 0.2791862
v 12.84921 -3.192348 11.34643
v 12.84921 -3.192348 11.34643
v 17.97354 4.419989 5.333864
v 19.73111 -3.152729 4.601851
v 11.68941 -0.6395394 10.5008
v -7.402563 0.01047766 10.68881
v -7.240728 1.983351 9.015312
v -19.73111 1.102539 0.2791862
v -17.61446 4.211846 0.6650772
v -15.45096 -0.1256069 -7.426708
v -14.04438 3.936186 -5.624027
v 3.160601 6.926893 0.1234207
v 12.72921 4.258453 -4.295567
v -10.56051 7.227547 -0.1679611
v -4.183943 3.652591 -8.985523
v 14.30449 2.33929 -5.793617
v -4.048674 2.307308 -11.01281
v -14.04438 3.936186 -5.624027
v -15.45096 -0.1256069 -7.426708
v -10.56051 7.227547 -0.1679611
v -7.022749 5.745516 4.444458
v 13.79292 -3.277689 -6.275589
v 14.90817 -6.8137 3.523168
v 19.73111 -3.152729 4.601851
v 8.884771 -6.978937 -3.988279
v -4.167036 -3.513563 -11.34643
v 8.884771 -6.978937 -3.988279
v -1.143816 -7.121626 -7.7657
v -15.04856 -3.624574 -7.169811
v -1.143816 -7.121626 -7.7657
v -11.92759 -7.227547 -5.796696
v -19.15696 -3.628974 -0.06754684
v -11.92759 -7.227547 -5.796696
v -15.04856 -3.624574 -7.169811
v -19.15696 -3.628974 -0.06754684
v -11.92529 -7.142077 0.7670455
v -11.92759 -7.227547 -5.796696
v -7.389563 -3.434632 9.739363
v -11.92529 -7.142077 0.7670455
v -19.15696 -3.628974 -0.06754684
v -3.375002 -6.890702 4.94165
v 12.84921 -3.192348 11.34643
v 8.042803 -6.735135 7.439932
v 19.73111 -3.152729 4.601851
v 8.042803 -6.735135 7.439932
v 12.84921 -3.192348 11.34643
v 14.90817 -6.8137 3.523168
v 8.884771 -6.978937 -3.988279
v -11.92759 -7.227547 -5.796696
v 14.90817 -6.8137 3.523168
v -1.143816 -7.121626 -7.7657
v -11.92529 -7.142077 0.7670455
v 8.042803 -6.735135 7.439932
v -3.375002 -6.890702 4.94165
vt 0.3029852 0.4772842
vt 0.29493 0.4342288
vt 0.2705614 0.4368671
vt 0.3013532 0.3750077
vt 0.279139 0.3672675
vt 0.3146654 0.3369673
vt 0.3105233 0.3358833
vt 0.3028297 0.4321425
vt 0.3154466 0.4580473
vt 0.4069417 0.3498461
vt 0.4047887 0.3801646
vt 0.416167 0.3812153
vt 0.40224 0.3505386
vt 0.416167 0.3812153
vt 0.3844709 0.4265595
vt 0.394275 0.4329902
vt 0.4047887 0.3801646
vt 0.3410075 0.477189
vt 0.3410075 0.477189
vt 0.3154466 0.4580473
vt 0.3029852 0.4772842
vt 0.3393021 0.465974
vt 0.3844709 0.4265595
vt 0.3794421 0.4207123
vt 0.4047887 0.3801646
vt 0.3947822 0.3811715
vt 0.40224 0.3505386
vt 0.3866527 0.3588279
vt 0.3318539 0.4132809
vt 0.3028297 0.4321425
vt 0.3451951 0.3652206
vt 0.3086207 0.3769867
vt 0.29493 0.4342288
vt 0.3013532 0.3750077
vt 0.3263857 0.3468305
vt 0.3146654 0.3369673
vt 0.3713033 0.3840496
vt 0.3687091 0.4052867
vt 0.5568213 0.3920195
vt 0.5079243 0.4230478
vt 0.5203553 0.4538829
vt 0.5222697 0.3759176
vt 0.5232663 0.2933781
vt 0.5222697 0.3759176
vt 0.5085796 0.3220071
vt 0.4666765 0.2575751
vt 0.5085796 0.3220071
vt 0.4692465 0.2832314
vt 0.4189436 0.2648335
vt 0.4692465 0.2832314
vt 0.4666765 0.2575751
vt 0.4189436 0.2648335
vt 0.4419472 0.301601
vt 0.4692465 0.2832314
vt 0.4099067 0.3485572
vt 0.4419472 0.301601
vt 0.4189436 0.2648335
vt 0.4486118 0.3499578
vt 0.4646775 0.4434065
vt 0.4720081 0.4058374
vt 0.5203553 0.4538829
vt 0.4720081 0.4058374
vt 0.4646775 0.4434065
vt 0.5079243 0.4230478
vt 0.5222697 0.3759176
vt 0.4692465 0.2832314
vt 0.5079243 0.4230478
vt 0.5085796 0.3220071
vt 0.4419472 0.301601
vt 0.4720081 0.4058374
vt 0.4486118 0.3499578
vn 0.9738192 0.2272553 -0.005590292
vn 0.6302479 0.3276042 -0.7038915
vn 0.6222268 0.006924684 -0.7828063
vn -0.05980692 0.3757563 -0.9247866
vn -0.03358588 0.01884358 -0.9992581
vn -0.6226867 0.2535791 -0.7402424
vn -0.6344056 -0.08571555 -0.7682332
vn 0.362948 0.8346415 -0.4142975
vn 0.5568284 0.7617468 0.3311858
vn -0.6344056 -0.08571555 -0.7682332
vn -0.9656647 0.1973527 0.1689482
vn -0.9642277 -0.2173336 0.1517597
vn -0.6226867 0.2535791 -0.7402424
vn -0.9642277 -0.2173336 0.1517597
vn -0.3409269 0.1241091 0.9318615
vn -0.373132 -0.218603 0.901657
vn -0.9656647 0.1973527 0.1689482
vn 0.2120424 0.1438814 0.9666107
vn 0.2120424 0.1438814 0.9666107
vn 0.5568284 0.7617468 0.3311858
vn 0.9738192 0.2272553 -0.005590292
vn 0.1866053 0.5900123 0.7855341
vn -0.3409269 0.1241091 0.9318615
vn -0.1948711 0.650704 0.7339004
vn -0.9656647 0.1973527 0.1689482
vn -0.6102145 0.775197 0.1634251
vn -0.6226867 0.2535791 -0.7402424
vn -0.4206207 0.7476476 -0.5139079
vn 0.05983137 0.9727027 0.2242087
vn 0.362948 0.8346415 -0.4142975
vn -0.1753689 0.98301 -0.05419509
vn -0.06035356 0.8166568 -0.5739592
vn 0.6302479 0.3276042 -0.7038915
vn -0.05980692 0.3757563 -0.9247866
vn -0.4206207 0.7476476 -0.5139079
vn -0.6226867 0.2535791 -0.7402424
vn -0.1753689 0.98301 -0.05419509
vn -0.0692658 0.870631 0.4870358
vn 0.6222268 0.006924684 -0.7828063
vn 0.5403758 -0.7699571 -0.3393525
vn 0.9738192 0.2272553 -0.005590292
vn 0.5403758 -0.7699571 -0.3393525
vn -0.03358588 0.01884358 -0.9992581
vn 0.238359 -0.6446263 -0.7263896
vn 0.238359 -0.6446263 -0.7263896
vn -0.6344056 -0.08571555 -0.7682332
vn -0.1978953 -0.6639869 -0.7210818
vn -0.1978953 -0.6639869 -0.7210818
vn -0.5366362 -0.829208 -0.1563189
vn -0.5366362 -0.829208 -0.1563189
vn -0.5366362 -0.829208 -0.1563189
vn -0.5366362 -0.829208 -0.1563189
vn -0.5366362 -0.829208 -0.1563189
vn -0.5366362 -0.829208 -0.1563189
vn -0.373132 -0.218603 0.901657
vn -0.3240309 -0.805261 0.4965468
vn -0.9642277 -0.2173336 0.1517597
vn -0.1999983 -0.797913 0.568626
vn 0.2120424 0.1438814 0.9666107
vn -0.07183894 -0.7741012 0.6289725
vn 0.3608992 -0.8064986 0.4683073
vn 0.3608992 -0.8064986 0.4683073
vn 0.3608992 -0.8064986 0.4683073
vn 0.3608992 -0.8064986 0.4683073
vn 0.01092361 -0.9998714 0.01174084
vn 0.01092361 -0.9998714 0.01174084
vn 0.01092361 -0.9998714 0.01174084
vn 0.01092361 -0.9998714 0.01174084
vn 0.01089893 -0.9998559 0.01301583
vn 0.007252203 -0.9992037 0.03923416
vn 0.007252203 -0.9992037 0.03923416
g Canyon_Rock1_7_0
f 3/3/3 2/2/2 1/1/1
f 4/4/4 2/2/2 3/3/3
f 5/5/5 4/4/4 3/3/3
f 6/6/6 4/4/4 5/5/5
f 7/7/7 6/6/6 5/5/5
f 2/2/2 8/8/8 1/1/1
f 8/8/8 9/9/9 1/1/1
f 12/12/12 11/11/11 10/10/10
f 11/11/11 13/13/13 10/10/10
f 16/16/16 15/15/15 14/14/14
f 15/15/15 17/17/17 14/14/14
f 18/18/18 15/15/15 16/16/16
f 21/21/21 20/20/20 19/19/19
f 20/20/20 22/22/22 19/19/19
f 19/19/19 22/22/22 23/23/23
f 22/22/22 24/24/24 23/23/23
f 23/23/23 24/24/24 25/25/25
f 24/24/24 26/26/26 25/25/25
f 25/25/25 26/26/26 27/27/27
f 26/26/26 28/28/28 27/27/27
f 20/20/20 29/29/29 22/22/22
f 22/22/22 29/29/29 24/24/24
f 30/30/30 29/29/29 20/20/20
f 31/31/31 29/29/29 30/30/30
f 32/32/32 31/31/31 30/30/30
f 32/32/32 30/30/30 33/33/33
f 34/34/34 32/32/32 33/33/33
f 35/35/35 32/32/32 34/34/34
f 35/35/35 31/31/31 32/32/32
f 36/36/36 35/35/35 34/34/34
f 26/26/26 37/37/37 28/28/28
f 24/24/24 38/38/38 26/26/26
f 38/38/38 37/37/37 26/26/26
f 29/29/29 38/38/38 24/24/24
f 38/38/38 29/29/29 37/37/37
f 41/41/41 40/40/40 39/39/39
f 40/40/40 42/42/42 39/39/39
f 39/39/39 44/44/44 43/43/43
f 44/44/44 45/45/45 43/43/43
f 43/43/43 47/47/47 46/46/46
f 47/47/47 48/48/48 46/46/46
f 51/51/51 50/50/50 49/49/49
f 54/54/54 53/53/53 52/52/52
f 57/57/57 56/56/56 55/55/55
f 56/56/56 58/58/58 55/55/55
f 55/55/55 58/58/58 59/59/59
f 58/58/58 60/60/60 59/59/59
f 63/63/63 62/62/62 61/61/61
f 62/62/62 64/64/64 61/61/61
f 67/67/67 66/66/66 65/65/65
f 66/66/66 68/68/68 65/65/65
f 67/67/67 69/69/69 66/66/66
f 67/67/67 70/70/70 69/69/69
f 70/70/70 71/71/71 69/69/69
