g Canyon_Rocks1_1
v 0.1332064 -6.61243 18.79883
v 11.01759 6.132095 9.017577
v 12.60325 -6.624089 10.08633
v -0.008471423 2.285178 16.51097
v 15.80784 2.181351 -7.25094
v 17.90796 -6.72995 -8.032804
v 17.90796 -6.72995 -8.032804
v 6.532041 2.133884 -16.09871
v 7.954297 -6.781994 -18.20226
v 15.80784 2.181351 -7.25094
v -6.833545 6.55256 -16.6662
v -6.887271 -6.844693 -18.79883
v -6.887271 -6.844693 -18.79883
v -16.40799 2.0454 -8.537617
v -17.90796 -6.88109 -9.455347
v -6.833545 6.55256 -16.6662
v -8.051761 7.313367 -6.19241
v 6.532041 2.133884 -16.09871
v 15.80784 2.181351 -7.25094
v 6.742688 9.555263 0.6733654
v 11.01759 6.132095 9.017577
v -0.008471423 2.285178 16.51097
v -4.418384 7.427421 5.968183
v -13.75074 2.111231 11.89289
v -15.10321 -6.79277 14.1206
v -17.90796 -6.88109 -9.455347
v -16.40799 2.0454 -8.537617
v 0.1332064 -6.61243 18.79883
v -8.051761 7.313367 -6.19241
v 3.573468 -9.50246 -9.678938
v -8.124972 -9.529163 6.720628
v -0.3947629 -9.399027 9.094014
v 0.1332064 -6.61243 18.79883
v 12.60325 -6.624089 10.08633
v 5.932187 -9.422523 4.673686
v -15.10321 -6.79277 14.1206
v -9.548099 -9.555263 -5.241055
v -17.90796 -6.88109 -9.455347
v -3.956653 -9.525494 -9.981659
v -6.887271 -6.844693 -18.79883
v 3.573468 -9.50246 -9.678938
v 7.954297 -6.781994 -18.20226
v 8.623731 -9.499802 -4.519206
v 17.90796 -6.72995 -8.032804
vt 0.6103598 0.3706054
vt 0.6907529 0.4105179
vt 0.6868938 0.3489498
vt 0.6347471 0.4087
vt 0.7632447 0.4031951
vt 0.7814307 0.3624665
vt 0.7814307 0.3624665
vt 0.8051049 0.437374
vt 0.8379663 0.4045947
vt 0.7632447 0.4031951
vt 0.8221431 0.4912651
vt 0.884487 0.4692284
vt 0.884487 0.4692284
vt 0.8380177 0.5563852
vt 0.8947027 0.5548161
vt 0.8221431 0.4912651
vt 0.7808347 0.5249786
vt 0.8051049 0.437374
vt 0.7632447 0.4031951
vt 0.7137533 0.4552295
vt 0.6907529 0.4105179
vt 0.6347471 0.4087
vt 0.646268 0.463231
vt 0.5949882 0.4516208
vt 0.5564325 0.4290673
vt 0.5354885 0.5532824
vt 0.5901072 0.5527816
vt 0.6103598 0.3706054
vt 0.6484721 0.5324557
vt 0.7371399 0.5440222
vt 0.6839325 0.4694329
vt 0.7190914 0.4586382
vt 0.7214928 0.4144983
vt 0.7782096 0.4541249
vt 0.7478679 0.4787429
vt 0.6521937 0.435776
vt 0.6774598 0.5238376
vt 0.6394371 0.5430053
vt 0.7028911 0.545399
vt 0.6895619 0.5855017
vt 0.7371399 0.5440222
vt 0.757065 0.5827884
vt 0.7601098 0.5205544
vt 0.8023367 0.5365352
vn 0.1550721 -0.398873 0.9037992
vn 0.6129634 0.6610061 0.4328358
vn 0.7644358 -0.3385747 0.5486392
vn 0.01642969 0.6904005 0.7232407
vn 0.6904484 0.6845601 -0.233791
vn 0.8866469 -0.4137942 -0.2064742
vn 0.8866469 -0.4137942 -0.2064742
vn 0.3639079 0.7486434 -0.5541697
vn 0.3606378 -0.3333488 -0.8711022
vn 0.6904484 0.6845601 -0.233791
vn -0.2288238 0.8067686 -0.5447606
vn -0.3223129 -0.1977204 -0.9257543
vn -0.3223129 -0.1977204 -0.9257543
vn -0.7420652 0.6510848 -0.1594608
vn -0.8913282 -0.2590317 -0.3720706
vn -0.2288238 0.8067686 -0.5447606
vn -0.1472072 0.984902 -0.09109414
vn 0.3639079 0.7486434 -0.5541697
vn 0.6904484 0.6845601 -0.233791
vn 0.1739526 0.9846473 0.01449862
vn 0.6129634 0.6610061 0.4328358
vn 0.01642969 0.6904005 0.7232407
vn -0.2199315 0.9375847 0.2693786
vn -0.5505738 0.7020112 0.4517178
vn -0.7080514 -0.4052994 0.5782695
vn -0.8913282 -0.2590317 -0.3720706
vn -0.7420652 0.6510848 -0.1594608
vn 0.1550721 -0.398873 0.9037992
vn -0.1472072 0.984902 -0.09109414
vn 0.01421828 -0.9998627 0.008514357
vn -0.09647958 -0.9917445 0.08446728
vn 0.03059907 -0.9894418 0.1416644
vn 0.05481898 -0.9600166 0.2745232
vn 0.2511651 -0.9506271 0.1822752
vn 0.1682245 -0.9778377 0.1246353
vn -0.2021163 -0.9655399 0.163956
vn -0.1728582 -0.9829352 -0.0629163
vn -0.2601231 -0.9609579 -0.09431792
vn -0.0573146 -0.9825858 -0.176749
vn -0.08754003 -0.9606245 -0.2636994
vn 0.05718328 -0.9906331 -0.124
vn 0.1125222 -0.9617626 -0.2497026
vn 0.1774564 -0.9835993 -0.03227643
vn 0.2661616 -0.962567 -0.05121159
g Canyon_Rocks1_1_0
f 3/3/3 2/2/2 1/1/1
f 2/2/2 4/4/4 1/1/1
f 5/5/5 2/2/2 3/3/3
f 6/6/6 5/5/5 3/3/3
f 9/9/9 8/8/8 7/7/7
f 8/8/8 10/10/10 7/7/7
f 11/11/11 8/8/8 9/9/9
f 12/12/12 11/11/11 9/9/9
f 15/15/15 14/14/14 13/13/13
f 14/14/14 16/16/16 13/13/13
f 14/14/14 17/17/17 16/16/16
f 16/16/16 17/17/17 18/18/18
f 18/18/18 17/17/17 19/19/19
f 17/17/17 20/20/20 19/19/19
f 19/19/19 20/20/20 21/21/21
f 21/21/21 20/20/20 22/22/22
f 20/20/20 23/23/23 22/22/22
f 22/22/22 23/23/23 24/24/24
f 22/22/22 24/24/24 25/25/25
f 25/25/25 24/24/24 26/26/26
f 24/24/24 27/27/27 26/26/26
f 24/24/24 23/23/23 27/27/27
f 28/28/28 22/22/22 25/25/25
f 23/23/23 29/29/29 27/27/27
f 29/29/29 23/23/23 20/20/20
f 32/32/32 31/31/31 30/30/30
f 31/31/31 32/32/32 33/33/33
f 33/33/33 32/32/32 34/34/34
f 32/32/32 35/35/35 34/34/34
f 36/36/36 31/31/31 33/33/33
f 37/37/37 31/31/31 36/36/36
f 38/38/38 37/37/37 36/36/36
f 39/39/39 37/37/37 38/38/38
f 40/40/40 39/39/39 38/38/38
f 41/41/41 39/39/39 40/40/40
f 32/32/32 41/41/41 35/35/35
f 31/31/31 37/37/37 41/41/41
f 37/37/37 39/39/39 41/41/41
f 42/42/42 41/41/41 40/40/40
f 43/43/43 41/41/41 42/42/42
f 41/41/41 43/43/43 35/35/35
f 44/44/44 43/43/43 42/42/42
f 34/34/34 35/35/35 44/44/44
f 35/35/35 43/43/43 44/44/44
