g Canyon_Rocks2_1
v -4.497305 -7.375263 -17.30001
v -18.6733 -4.475845 -7.605062
v -17.93867 -7.375263 -7.321815
v -4.744215 -1.412699 -18.23472
v 13.33952 -7.501135 -15.73426
v 13.73713 -4.602028 -16.77723
v -13.75159 7.499753 3.25684
v -3.864905 7.171987 -14.87058
v 12.33033 5.634105 -13.03216
v 1.277353 12.78155 0.5120931
v -17.93867 -7.375263 -7.321815
v -13.75159 7.499753 3.25684
v -12.1263 -7.37557 13.55626
v -18.6733 -4.475845 -7.605062
v 8.72056 -4.400136 18.23472
v 8.47365 -7.287242 17.30001
v 7.832208 5.848308 14.87893
v 1.277353 12.78155 0.5120931
v 8.47365 -7.287242 17.30001
v 18.6733 0.6674578 5.472304
v 18.39372 -7.375263 4.45122
v 8.72056 -4.400136 18.23472
v 13.73713 -4.602028 -16.77723
v 13.33952 -7.501135 -15.73426
v 7.832208 5.848308 14.87893
v 12.33033 5.634105 -13.03216
v 1.277353 12.78155 0.5120931
v -7.374053 -12.69828 8.360189
v 11.78881 -12.67612 2.643275
v 8.615358 -12.78155 -10.03066
v 5.560236 -12.60618 10.7107
v -11.02348 -12.67705 -4.748749
v -2.583937 -12.6608 -11.01388
v -17.93867 -7.375263 -7.321815
v -2.583937 -12.6608 -11.01388
v -4.497305 -7.375263 -17.30001
v -11.02348 -12.67705 -4.748749
v 8.615358 -12.78155 -10.03066
v 13.33952 -7.501135 -15.73426
v 13.33952 -7.501135 -15.73426
v 11.78881 -12.67612 2.643275
v 18.39372 -7.375263 4.45122
v 8.615358 -12.78155 -10.03066
v 18.39372 -7.375263 4.45122
v 5.560236 -12.60618 10.7107
v 8.47365 -7.287242 17.30001
v 11.78881 -12.67612 2.643275
v 8.47365 -7.287242 17.30001
v -7.374053 -12.69828 8.360189
v -12.1263 -7.37557 13.55626
v 5.560236 -12.60618 10.7107
v -12.1263 -7.37557 13.55626
v -11.02348 -12.67705 -4.748749
v -17.93867 -7.375263 -7.321815
v -7.374053 -12.69828 8.360189
vt 0.251846 0.2774459
vt 0.3029745 0.2211009
vt 0.2945493 0.2090686
vt 0.2814302 0.2863792
vt 0.2446958 0.3712281
vt 0.2607702 0.3739231
vt 0.3633199 0.2318849
vt 0.3182052 0.2922316
vt 0.3204309 0.3681783
vt 0.3963881 0.2965502
vt 0.2945493 0.2090686
vt 0.3633199 0.2318849
vt 0.3906148 0.160432
vt 0.3029745 0.2211009
vt 0.4669733 0.2139392
vt 0.4758195 0.2041072
vt 0.4455183 0.245955
vt 0.3963881 0.2965502
vt 0.4758195 0.2041072
vt 0.4887232 0.2744886
vt 0.5247393 0.2632291
vt 0.4669733 0.2139392
vt 0.5258615 0.3739231
vt 0.540051 0.3672419
vt 0.4455183 0.245955
vt 0.4693216 0.3618558
vt 0.3963881 0.2965502
vt 0.4624584 0.4935903
vt 0.5252041 0.4689744
vt 0.5430977 0.5092114
vt 0.4919156 0.4604909
vt 0.4799916 0.5359707
vt 0.5154073 0.535078
vt 0.4669762 0.5571617
vt 0.5154073 0.535078
vt 0.5233814 0.5557399
vt 0.4799916 0.5359707
vt 0.5430977 0.5092114
vt 0.5674835 0.5145434
vt 0.5674835 0.5145434
vt 0.5252041 0.4689744
vt 0.5389847 0.4504589
vt 0.5430977 0.5092114
vt 0.5389847 0.4504589
vt 0.4919156 0.4604909
vt 0.485967 0.4369475
vt 0.5252041 0.4689744
vt 0.485967 0.4369475
vt 0.4624584 0.4935903
vt 0.4390519 0.4896641
vt 0.4919156 0.4604909
vt 0.4390519 0.4896641
vt 0.4799916 0.5359707
vt 0.4669762 0.5571617
vt 0.4624584 0.4935903
vn -0.2751239 -0.207899 -0.9386612
vn -0.8973015 0.1707724 -0.4070464
vn -0.9490463 -0.07451671 -0.3061998
vn -0.309719 0.1470766 -0.9393842
vn 0.644384 -0.1738728 -0.7446727
vn 0.6599733 0.09350854 -0.745447
vn -0.6340861 0.6635802 0.3969836
vn -0.2202501 0.7829072 -0.5818471
vn 0.5369354 0.7030764 -0.4662445
vn 0.1524302 0.9880779 0.02160964
vn -0.9490463 -0.07451671 -0.3061998
vn -0.6340861 0.6635802 0.3969836
vn -0.6910132 0.2795834 0.6665838
vn -0.8973015 0.1707724 -0.4070464
vn 0.2502078 0.2549212 0.9340296
vn 0.3421401 0.1849103 0.9212754
vn 0.1862938 0.6973606 0.6920859
vn 0.1524302 0.9880779 0.02160964
vn 0.3421401 0.1849103 0.9212754
vn 0.9011669 0.3899085 0.1893931
vn 0.9728463 -0.1124934 0.2022749
vn 0.2502078 0.2549212 0.9340296
vn 0.6599733 0.09350854 -0.745447
vn 0.644384 -0.1738728 -0.7446727
vn 0.1862938 0.6973606 0.6920859
vn 0.5369354 0.7030764 -0.4662445
vn 0.1524302 0.9880779 0.02160964
vn 0.003847532 -0.999952 0.00902149
vn 0.003847532 -0.999952 0.00902149
vn 0.003847532 -0.999952 0.00902149
vn 0.003847532 -0.999952 0.00902149
vn -0.006257311 -0.9999744 -0.003481331
vn -0.006257311 -0.9999744 -0.003481331
vn -0.3871392 -0.7598448 -0.5222636
vn -0.1726658 -0.7781267 -0.6039084
vn -0.1726658 -0.7781267 -0.6039084
vn -0.3871392 -0.7598448 -0.5222636
vn 0.05095858 -0.7551689 -0.6535467
vn 0.05095858 -0.7551689 -0.6535467
vn 0.6449698 -0.7480687 -0.1562282
vn 0.6449698 -0.7480687 -0.1562282
vn 0.6449698 -0.7480687 -0.1562282
vn 0.6449698 -0.7480687 -0.1562282
vn 0.5056183 -0.766426 0.396158
vn 0.5056183 -0.766426 0.396158
vn 0.5056183 -0.766426 0.396158
vn 0.5056183 -0.766426 0.396158
vn -0.1151579 -0.7461365 0.6557583
vn -0.1151579 -0.7461365 0.6557583
vn -0.1151579 -0.7461365 0.6557583
vn -0.1151579 -0.7461365 0.6557583
vn -0.6404063 -0.7471697 0.177812
vn -0.6404063 -0.7471697 0.177812
vn -0.6404063 -0.7471697 0.177812
vn -0.6404063 -0.7471697 0.177812
g Canyon_Rocks2_1_0
f 3/3/3 2/2/2 1/1/1
f 2/2/2 4/4/4 1/1/1
f 1/1/1 4/4/4 5/5/5
f 4/4/4 6/6/6 5/5/5
f 2/2/2 7/7/7 4/4/4
f 7/7/7 8/8/8 4/4/4
f 4/4/4 8/8/8 6/6/6
f 8/8/8 9/9/9 6/6/6
f 7/7/7 10/10/10 8/8/8
f 8/8/8 10/10/10 9/9/9
f 13/13/13 12/12/12 11/11/11
f 12/12/12 14/14/14 11/11/11
f 15/15/15 12/12/12 13/13/13
f 16/16/16 15/15/15 13/13/13
f 15/15/15 17/17/17 12/12/12
f 17/17/17 18/18/18 12/12/12
f 21/21/21 20/20/20 19/19/19
f 20/20/20 22/22/22 19/19/19
f 23/23/23 20/20/20 21/21/21
f 24/24/24 23/23/23 21/21/21
f 20/20/20 25/25/25 22/22/22
f 23/23/23 26/26/26 20/20/20
f 20/20/20 27/27/27 25/25/25
f 26/26/26 27/27/27 20/20/20
f 30/30/30 29/29/29 28/28/28
f 29/29/29 31/31/31 28/28/28
f 30/30/30 28/28/28 32/32/32
f 33/33/33 30/30/30 32/32/32
f 36/36/36 35/35/35 34/34/34
f 35/35/35 37/37/37 34/34/34
f 38/38/38 35/35/35 36/36/36
f 39/39/39 38/38/38 36/36/36
f 42/42/42 41/41/41 40/40/40
f 41/41/41 43/43/43 40/40/40
f 46/46/46 45/45/45 44/44/44
f 45/45/45 47/47/47 44/44/44
f 50/50/50 49/49/49 48/48/48
f 49/49/49 51/51/51 48/48/48
f 54/54/54 53/53/53 52/52/52
f 53/53/53 55/55/55 52/52/52
