g Canyon_Rocks2_2
v -4.57532 -1.535195 -10.3252
v -12.94534 -0.3640632 -2.520196
v -12.44126 -1.615724 -2.425907
v -4.828555 1.042308 -10.88773
v 7.324674 -1.588846 -11.06612
v 7.484251 -0.3310488 -11.7782
v -12.44126 -1.615724 -2.425907
v -8.629122 4.724854 4.203675
v -6.535006 -1.761833 10.74885
v -12.94534 -0.3640632 -2.520196
v 7.6517 -0.4987829 11.7782
v 6.742002 3.943747 9.698875
v 12.94535 1.784596 2.405383
v 0.9958779 7.032106 0.9177423
v 6.926877 4.054723 -9.119185
v -6.535006 -1.761833 10.74885
v 7.6517 -0.4987829 11.7782
v 7.394956 -1.736983 11.17442
v 12.94535 1.784596 2.405383
v 12.65188 -1.676086 1.717614
v 7.484251 -0.3310488 -11.7782
v 7.324674 -1.588846 -11.06612
v 6.926877 4.054723 -9.119185
v -3.91379 4.720325 -8.720616
v -4.828555 1.042308 -10.88773
v -8.629122 4.724854 4.203675
v -12.94534 -0.3640632 -2.520196
v 0.9958779 7.032106 0.9177423
v -7.635195 -6.931315 -1.482452
v 4.819547 -7.000709 7.05695
v 8.120237 -6.968824 1.119175
v -3.92679 -7.032106 6.789605
v 4.775388 -6.925406 -6.907543
v -2.696322 -6.873735 -6.442179
v -12.44126 -1.615724 -2.425907
v -2.696322 -6.873735 -6.442179
v -4.57532 -1.535195 -10.3252
v -7.635195 -6.931315 -1.482452
v 4.775388 -6.925406 -6.907543
v 7.324674 -1.588846 -11.06612
v -2.696322 -6.873735 -6.442179
v 7.324674 -1.588846 -11.06612
v 8.120237 -6.968824 1.119175
v 12.65188 -1.676086 1.717614
v 4.775388 -6.925406 -6.907543
v 4.819547 -7.000709 7.05695
v 7.394956 -1.736983 11.17442
v 8.120237 -6.968824 1.119175
v 7.394956 -1.736983 11.17442
v -3.92679 -7.032106 6.789605
v -6.535006 -1.761833 10.74885
v 4.819547 -7.000709 7.05695
v -6.535006 -1.761833 10.74885
v -7.635195 -6.931315 -1.482452
v -12.44126 -1.615724 -2.425907
v -3.92679 -7.032106 6.789605
vt 0.8787618 0.2992522
vt 0.8800126 0.3504273
vt 0.8883382 0.3475029
vt 0.8640463 0.3057595
vt 0.8504906 0.2637043
vt 0.8466891 0.2698379
vt 0.6983564 0.3588486
vt 0.753293 0.3397372
vt 0.7192008 0.2947952
vt 0.7064649 0.3634534
vt 0.7636365 0.2650961
vt 0.7783369 0.2834359
vt 0.8004518 0.2646033
vt 0.8007705 0.3193312
vt 0.8319548 0.2856392
vt 0.7192008 0.2947952
vt 0.7636365 0.2650961
vt 0.7600656 0.2582745
vt 0.8004518 0.2646033
vt 0.8028464 0.242899
vt 0.8466891 0.2698379
vt 0.8504906 0.2637043
vt 0.8319548 0.2856392
vt 0.8452295 0.3133551
vt 0.8640463 0.3057595
vt 0.8269116 0.3634534
vt 0.8800126 0.3504273
vt 0.8007705 0.3193312
vt 0.6663545 0.3183877
vt 0.5966094 0.3568724
vt 0.6145841 0.3877393
vt 0.6195643 0.3167387
vt 0.6598207 0.3948485
vt 0.6790345 0.3621416
vt 0.6930262 0.2864226
vt 0.6790345 0.3621416
vt 0.7197464 0.3641022
vt 0.6663545 0.3183877
vt 0.6598207 0.3948485
vt 0.6777055 0.4314946
vt 0.6790345 0.3621416
vt 0.6777055 0.4314946
vt 0.6145841 0.3877393
vt 0.5911465 0.4195989
vt 0.6598207 0.3948485
vt 0.5966094 0.3568724
vt 0.5562853 0.3573098
vt 0.6145841 0.3877393
vt 0.5562853 0.3573098
vt 0.6195643 0.3167387
vt 0.6010514 0.281698
vt 0.5966094 0.3568724
vt 0.6010514 0.281698
vt 0.6663545 0.3183877
vt 0.6930262 0.2864226
vt 0.6195643 0.3167387
vn -0.4005398 -0.300961 -0.8654423
vn -0.9290262 0.2624926 -0.2607834
vn -0.9804725 -0.11123 -0.1621777
vn -0.4394786 0.2342234 -0.8671781
vn 0.5152165 -0.2549167 -0.8182722
vn 0.5381892 0.1528238 -0.8288529
vn -0.9804725 -0.11123 -0.1621777
vn -0.44695 0.8038426 0.392521
vn -0.5547025 0.4019808 0.7285029
vn -0.9290262 0.2624926 -0.2607834
vn 0.3706853 0.3674732 0.8529689
vn 0.2227448 0.8269831 0.5162207
vn 0.835885 0.5462491 0.05392789
vn 0.1010083 0.9948381 0.009723715
vn 0.3558462 0.8409094 -0.4077313
vn -0.5547025 0.4019808 0.7285029
vn 0.3706853 0.3674732 0.8529689
vn 0.465064 0.2683364 0.8436298
vn 0.835885 0.5462491 0.05392789
vn 0.9832041 -0.1748144 0.05243602
vn 0.5381892 0.1528238 -0.8288529
vn 0.5152165 -0.2549167 -0.8182722
vn 0.3558462 0.8409094 -0.4077313
vn -0.2233694 0.8935608 -0.3894292
vn -0.4394786 0.2342234 -0.8671781
vn -0.44695 0.8038426 0.392521
vn -0.9290262 0.2624926 -0.2607834
vn 0.1010083 0.9948381 0.009723715
vn 0.000846659 -0.9999559 -0.009360652
vn 0.000846659 -0.9999559 -0.009360652
vn 0.000846659 -0.9999559 -0.009360652
vn 0.000846659 -0.9999559 -0.009360652
vn -0.003089169 -0.999962 -0.008156133
vn -0.003089169 -0.999962 -0.008156133
vn -0.9804725 -0.11123 -0.1621777
vn -0.5599263 -0.6068708 -0.5640838
vn -0.4005398 -0.300961 -0.8654423
vn -0.5599263 -0.6068708 -0.5640838
vn -0.05302185 -0.5987147 -0.7992054
vn 0.5152165 -0.2549167 -0.8182722
vn -0.05302185 -0.5987147 -0.7992054
vn 0.5152165 -0.2549167 -0.8182722
vn 0.7392473 -0.5969018 -0.311804
vn 0.9832041 -0.1748144 0.05243602
vn 0.7392473 -0.5969018 -0.311804
vn 0.6823719 -0.627167 0.37554
vn 0.465064 0.2683364 0.8436298
vn 0.6823719 -0.627167 0.37554
vn -0.02273338 -0.60835 0.7933433
vn -0.02273338 -0.60835 0.7933433
vn -0.02273338 -0.60835 0.7933433
vn -0.02273338 -0.60835 0.7933433
vn -0.7305233 -0.6029767 0.3205537
vn -0.7305233 -0.6029767 0.3205537
vn -0.7305233 -0.6029767 0.3205537
vn -0.7305233 -0.6029767 0.3205537
g Canyon_Rocks2_2_0
f 3/3/3 2/2/2 1/1/1
f 2/2/2 4/4/4 1/1/1
f 1/1/1 4/4/4 5/5/5
f 4/4/4 6/6/6 5/5/5
f 9/9/9 8/8/8 7/7/7
f 8/8/8 10/10/10 7/7/7
f 11/11/11 8/8/8 9/9/9
f 11/11/11 12/12/12 8/8/8
f 13/13/13 12/12/12 11/11/11
f 12/12/12 14/14/14 8/8/8
f 13/13/13 14/14/14 12/12/12
f 15/15/15 14/14/14 13/13/13
f 18/18/18 17/17/17 16/16/16
f 19/19/19 17/17/17 18/18/18
f 20/20/20 19/19/19 18/18/18
f 21/21/21 19/19/19 20/20/20
f 22/22/22 21/21/21 20/20/20
f 21/21/21 23/23/23 19/19/19
f 24/24/24 23/23/23 21/21/21
f 25/25/25 24/24/24 21/21/21
f 26/26/26 24/24/24 25/25/25
f 27/27/27 26/26/26 25/25/25
f 26/26/26 28/28/28 24/24/24
f 24/24/24 28/28/28 23/23/23
f 31/31/31 30/30/30 29/29/29
f 30/30/30 32/32/32 29/29/29
f 33/33/33 31/31/31 29/29/29
f 34/34/34 33/33/33 29/29/29
f 37/37/37 36/36/36 35/35/35
f 36/36/36 38/38/38 35/35/35
f 40/40/40 39/39/39 37/37/37
f 39/39/39 41/41/41 37/37/37
f 44/44/44 43/43/43 42/42/42
f 43/43/43 45/45/45 42/42/42
f 47/47/47 46/46/46 44/44/44
f 46/46/46 48/48/48 44/44/44
f 51/51/51 50/50/50 49/49/49
f 50/50/50 52/52/52 49/49/49
f 55/55/55 54/54/54 53/53/53
f 54/54/54 56/56/56 53/53/53
