g Canyon_Rocks2_3
v 5.874261 -4.600667 26.41791
v 16.22754 3.181937 13.91452
v 16.60066 -4.617801 12.93361
v 12.99778 3.344039 -12.41527
v 13.39439 -4.743953 -12.81466
v 2.257578 0.02338386 -25.11229
v 2.165849 -4.846849 -24.49863
v 13.4466 5.848718 12.72812
v 3.943796 5.934769 24.64984
v 10.32005 5.195595 -11.47775
v 0.6851517 5.64062 -22.28952
v 2.600954 9.596345 2.889226
v -4.440581 10.13348 -14.84112
v 2.165849 -4.846849 -24.49863
v -9.933111 1.69177 -26.41791
v -9.151709 -4.887504 -25.92469
v 2.257578 0.02338386 -25.11229
v -9.301519 5.992676 -23.46204
v 0.6851517 5.64062 -22.28952
v -4.440581 10.13348 -14.84112
v -9.151709 -4.887504 -25.92469
v -16.60065 -0.0325911 -5.014668
v -15.35776 -4.812876 -5.550873
v -9.933111 1.69177 -26.41791
v -6.483366 -4.6633 21.24547
v -6.483366 -4.6633 21.24547
v 3.943796 5.934769 24.64984
v 5.874261 -4.600667 26.41791
v -6.041251 -1.096254 19.33256
v -16.60065 -0.0325911 -5.014668
v -14.3808 2.725097 -5.68847
v -9.933111 1.69177 -26.41791
v -9.301519 5.992676 -23.46204
v 2.600954 9.596345 2.889226
v -8.42922 7.998104 -7.834853
v -4.440581 10.13348 -14.84112
v 1.647409 -10.11 -15.47631
v -5.45864 -10.13348 -16.37171
v 3.975832 -9.954836 16.49304
v -3.783255 -9.992597 13.24538
v -9.355322 -10.08524 -3.579451
v 10.71069 -9.963137 8.026544
v 8.697542 -10.04153 -8.140224
v 16.60066 -4.617801 12.93361
v 3.975832 -9.954836 16.49304
v 5.874261 -4.600667 26.41791
v 10.71069 -9.963137 8.026544
v 5.874261 -4.600667 26.41791
v -3.783255 -9.992597 13.24538
v -6.483366 -4.6633 21.24547
v 3.975832 -9.954836 16.49304
v -6.483366 -4.6633 21.24547
v -9.355322 -10.08524 -3.579451
v -15.35776 -4.812876 -5.550873
v -3.783255 -9.992597 13.24538
v -5.45864 -10.13348 -16.37171
v -9.151709 -4.887504 -25.92469
v -9.151709 -4.887504 -25.92469
v 1.647409 -10.11 -15.47631
v 2.165849 -4.846849 -24.49863
v -5.45864 -10.13348 -16.37171
v 8.697542 -10.04153 -8.140224
v 13.39439 -4.743953 -12.81466
v 10.71069 -9.963137 8.026544
v 16.60066 -4.617801 12.93361
vt 0.4743425 0.4772842
vt 0.4662873 0.4342288
vt 0.4419187 0.4368671
vt 0.4727105 0.3750077
vt 0.4504963 0.3672675
vt 0.4860227 0.3369673
vt 0.4818806 0.3358833
vt 0.474187 0.4321425
vt 0.4868039 0.4580473
vt 0.479978 0.3769867
vt 0.497743 0.3468305
vt 0.5032113 0.4132809
vt 0.5165523 0.3652206
vt 0.5782989 0.3498461
vt 0.576146 0.3801646
vt 0.5875243 0.3812153
vt 0.5735973 0.3505386
vt 0.5661395 0.3811715
vt 0.55801 0.3588279
vt 0.5426606 0.3840496
vt 0.5875243 0.3812153
vt 0.5558282 0.4265595
vt 0.5656322 0.4329902
vt 0.576146 0.3801646
vt 0.5123647 0.477189
vt 0.5123647 0.477189
vt 0.4868039 0.4580473
vt 0.4743425 0.4772842
vt 0.5106595 0.465974
vt 0.5558282 0.4265595
vt 0.5507994 0.4207123
vt 0.576146 0.3801646
vt 0.5661395 0.3811715
vt 0.5032113 0.4132809
vt 0.5400665 0.4052867
vt 0.5426606 0.3840496
vt 0.517933 0.2903148
vt 0.5163454 0.3110534
vt 0.6117516 0.2796378
vt 0.6031139 0.3022859
vt 0.5542769 0.3210148
vt 0.5866362 0.2609133
vt 0.539217 0.2681675
vt 0.6019729 0.2368228
vt 0.6117516 0.2796378
vt 0.6461891 0.2716399
vt 0.5866362 0.2609133
vt 0.6461891 0.2716399
vt 0.6031139 0.3022859
vt 0.631222 0.3139071
vt 0.6117516 0.2796378
vt 0.631222 0.3139071
vt 0.5542769 0.3210148
vt 0.5499645 0.3458402
vt 0.6031139 0.3022859
vt 0.5163454 0.3110534
vt 0.4843407 0.3269941
vt 0.4843407 0.3269941
vt 0.517933 0.2903148
vt 0.4849918 0.2883011
vt 0.5163454 0.3110534
vt 0.539217 0.2681675
vt 0.5219424 0.2484249
vt 0.5866362 0.2609133
vt 0.6019729 0.2368228
vn 0.3826532 0.2213474 0.8969849
vn 0.8921365 0.3286928 0.309925
vn 0.9630474 0.008630493 0.2691938
vn 0.8273088 0.3826019 -0.4113101
vn 0.9075809 0.026068 -0.4190671
vn 0.4390321 0.2625653 -0.8592498
vn 0.4616611 -0.07644655 -0.8837562
vn 0.5193505 0.8353032 0.180399
vn -0.09189026 0.7559922 0.6480988
vn 0.5020365 0.8210219 -0.271813
vn 0.3069858 0.7537904 -0.580999
vn -0.1873257 0.9707207 0.1503678
vn -0.02224948 0.9844174 -0.1744342
vn 0.4616611 -0.07644655 -0.8837562
vn -0.5317439 0.2020448 -0.8224514
vn -0.5136461 -0.2125116 -0.831268
vn 0.4390321 0.2625653 -0.8592498
vn -0.3908954 0.7777358 -0.492268
vn 0.3069858 0.7537904 -0.580999
vn -0.02224948 0.9844174 -0.1744342
vn -0.5136461 -0.2125116 -0.831268
vn -0.9916078 0.1196354 0.04900288
vn -0.9748862 -0.2226534 0.004732295
vn -0.5317439 0.2020448 -0.8224514
vn -0.8088178 0.1357912 0.5721664
vn -0.8088178 0.1357912 0.5721664
vn -0.09189026 0.7559922 0.6480988
vn 0.3826532 0.2213474 0.8969849
vn -0.6536911 0.5833302 0.4820933
vn -0.9916078 0.1196354 0.04900288
vn -0.7546104 0.6467078 0.1110509
vn -0.5317439 0.2020448 -0.8224514
vn -0.3908954 0.7777358 -0.492268
vn -0.1873257 0.9707207 0.1503678
vn -0.4792423 0.8675939 0.1326938
vn -0.02224948 0.9844174 -0.1744342
vn 0.002717611 -0.9999855 0.004655621
vn 0.002717611 -0.9999855 0.004655621
vn 0.002717611 -0.9999855 0.004655621
vn 0.002863611 -0.9999853 0.004594903
vn 0.002863611 -0.9999853 0.004594903
vn 0.004728066 -0.999979 0.004425484
vn 0.004728066 -0.999979 0.004425484
vn 0.4472963 -0.8201506 0.3567621
vn 0.4472963 -0.8201506 0.3567621
vn 0.4472963 -0.8201506 0.3567621
vn 0.4472963 -0.8201506 0.3567621
vn -0.2028138 -0.8451111 0.4946248
vn -0.2028138 -0.8451111 0.4946248
vn -0.2028138 -0.8451111 0.4946248
vn -0.2028138 -0.8451111 0.4946248
vn -0.8088178 0.1357912 0.5721664
vn -0.6641785 -0.7472004 0.02362994
vn -0.9748862 -0.2226534 0.004732295
vn -0.683846 -0.6923201 0.2303205
vn -0.6138794 -0.7676202 -0.1841504
vn -0.6138794 -0.7676202 -0.1841504
vn 0.0659909 -0.8635883 -0.4998603
vn 0.2654082 -0.8394258 -0.4742603
vn 0.2654082 -0.8394258 -0.4742603
vn 0.0659909 -0.8635883 -0.4998603
vn 0.5948858 -0.7594853 -0.2632354
vn 0.5948858 -0.7594853 -0.2632354
vn 0.7073525 -0.7017732 -0.08465749
vn 0.7073525 -0.7017732 -0.08465749
g Canyon_Rocks2_3_0
f 3/3/3 2/2/2 1/1/1
f 4/4/4 2/2/2 3/3/3
f 5/5/5 4/4/4 3/3/3
f 6/6/6 4/4/4 5/5/5
f 7/7/7 6/6/6 5/5/5
f 2/2/2 8/8/8 1/1/1
f 8/8/8 9/9/9 1/1/1
f 4/4/4 10/10/10 2/2/2
f 10/10/10 8/8/8 2/2/2
f 6/6/6 11/11/11 4/4/4
f 11/11/11 10/10/10 4/4/4
f 8/8/8 12/12/12 9/9/9
f 10/10/10 13/13/13 8/8/8
f 13/13/13 12/12/12 8/8/8
f 11/11/11 13/13/13 10/10/10
f 16/16/16 15/15/15 14/14/14
f 15/15/15 17/17/17 14/14/14
f 15/15/15 18/18/18 17/17/17
f 18/18/18 19/19/19 17/17/17
f 18/18/18 20/20/20 19/19/19
f 23/23/23 22/22/22 21/21/21
f 22/22/22 24/24/24 21/21/21
f 25/25/25 22/22/22 23/23/23
f 28/28/28 27/27/27 26/26/26
f 27/27/27 29/29/29 26/26/26
f 26/26/26 29/29/29 30/30/30
f 29/29/29 31/31/31 30/30/30
f 30/30/30 31/31/31 32/32/32
f 31/31/31 33/33/33 32/32/32
f 27/27/27 34/34/34 29/29/29
f 29/29/29 34/34/34 31/31/31
f 31/31/31 35/35/35 33/33/33
f 34/34/34 35/35/35 31/31/31
f 35/35/35 36/36/36 33/33/33
f 35/35/35 34/34/34 36/36/36
f 39/39/39 38/38/38 37/37/37
f 39/39/39 40/40/40 38/38/38
f 40/40/40 41/41/41 38/38/38
f 39/39/39 37/37/37 42/42/42
f 37/37/37 43/43/43 42/42/42
f 46/46/46 45/45/45 44/44/44
f 45/45/45 47/47/47 44/44/44
f 50/50/50 49/49/49 48/48/48
f 49/49/49 51/51/51 48/48/48
f 54/54/54 53/53/53 52/52/52
f 53/53/53 55/55/55 52/52/52
f 56/56/56 53/53/53 54/54/54
f 57/57/57 56/56/56 54/54/54
f 60/60/60 59/59/59 58/58/58
f 59/59/59 61/61/61 58/58/58
f 62/62/62 59/59/59 60/60/60
f 63/63/63 62/62/62 60/60/60
f 64/64/64 62/62/62 63/63/63
f 65/65/65 64/64/64 63/63/63
