g Canyon_Rock1_9
v -19.09624 -7.996051 -6.061888
v -16.07786 -6.277535 8.460524
v -15.64716 -8.009602 8.054636
v -19.75581 -6.26306 -6.307596
v -14.46433 3.214376 6.990496
v -15.64716 -8.009602 8.054636
v -3.164299 -2.014984 19.59646
v -3.230728 -8.06189 18.77499
v -16.07786 -6.277535 8.460524
v -3.295387 4.099044 16.63075
v -14.46433 3.214376 6.990496
v -9.031319 9.81993 1.416101
v -3.230728 -8.06189 18.77499
v 14.50597 -1.400946 11.96308
v 14.87881 -8.090103 12.56901
v -3.164299 -2.014984 19.59646
v 19.75581 -6.381956 -0.3960667
v -3.295387 4.099044 16.63075
v 17.40239 -0.26675 -1.272161
v 13.69745 1.312013 -12.59368
v 15.24287 -3.194847 -14.06197
v 6.114143 11.75062 -7.816057
v -9.031319 9.81993 1.416101
v 14.87881 -8.090103 12.56901
v 19.75581 -6.381956 -0.3960667
v 19.08875 -8.109303 -0.6411991
v 15.24287 -3.194847 -14.06197
v 14.78349 -8.14194 -13.65623
v 14.78349 -8.14194 -13.65623
v -4.302498 -2.404447 -19.59646
v -3.832642 -8.137529 -18.83828
v 15.24287 -3.194847 -14.06197
v -19.75581 -6.26306 -6.307596
v -19.09624 -7.996051 -6.061888
v -2.485031 3.6934 -16.87906
v 13.69745 1.312013 -12.59368
v -17.36241 -3.00437 -5.423353
v -14.46433 3.214376 6.990496
v -9.031319 9.81993 1.416101
v 6.114143 11.75062 -7.816057
v -15.64716 -8.009602 8.054636
v -9.896332 -11.47247 -5.202604
v -19.09624 -7.996051 -6.061888
v -10.51345 -11.46968 5.955275
v -3.230728 -8.06189 18.77499
v -10.51345 -11.46968 5.955275
v -15.64716 -8.009602 8.054636
v -0.5616379 -11.67399 11.41537
v 14.87881 -8.090103 12.56901
v -0.5616379 -11.67399 11.41537
v -3.230728 -8.06189 18.77499
v 9.134972 -11.75062 9.675901
v 19.08875 -8.109303 -0.6411991
v 9.134972 -11.75062 9.675901
v 14.87881 -8.090103 12.56901
v 14.95903 -11.72688 -0.3714199
v 14.78349 -8.14194 -13.65623
v 14.95903 -11.72688 -0.3714199
v 19.08875 -8.109303 -0.6411991
v 8.251358 -11.71883 -9.87665
v -3.832642 -8.137529 -18.83828
v 8.251358 -11.71883 -9.87665
v 14.78349 -8.14194 -13.65623
v -2.115086 -11.65191 -10.54936
v -19.09624 -7.996051 -6.061888
v -2.115086 -11.65191 -10.54936
v -3.832642 -8.137529 -18.83828
v -9.896332 -11.47247 -5.202604
v -10.51345 -11.46968 5.955275
v -2.115086 -11.65191 -10.54936
v -9.896332 -11.47247 -5.202604
v -0.5616379 -11.67399 11.41537
v 8.251358 -11.71883 -9.87665
v 14.95903 -11.72688 -0.3714199
v 9.134972 -11.75062 9.675901
vt 0.6576234 0.4046889
vt 0.6753109 0.4741373
vt 0.6828729 0.4696841
vt 0.6503562 0.4092202
vt 0.6265479 0.4865929
vt 0.3246067 0.4855318
vt 0.357951 0.4149237
vt 0.3313678 0.4056222
vt 0.3334829 0.4865929
vt 0.3823215 0.4234411
vt 0.3830399 0.485625
vt 0.4341889 0.4739339
vt 0.3313678 0.4056222
vt 0.4003083 0.3554552
vt 0.3816981 0.331543
vt 0.357951 0.4149237
vt 0.4427978 0.3166339
vt 0.3823215 0.4234411
vt 0.4524643 0.3427243
vt 0.5013152 0.3455223
vt 0.5039685 0.3246088
vt 0.4993404 0.4122962
vt 0.4341889 0.4739339
vt 0.3816981 0.331543
vt 0.4427978 0.3166339
vt 0.442035 0.3082035
vt 0.5039685 0.3246088
vt 0.5072007 0.3017195
vt 0.5072007 0.3017195
vt 0.5806192 0.3582159
vt 0.596244 0.3336262
vt 0.5039685 0.3246088
vt 0.6503562 0.4092202
vt 0.6576234 0.4046889
vt 0.5615678 0.3791836
vt 0.5013152 0.3455223
vt 0.6355848 0.4189471
vt 0.6265479 0.4865929
vt 0.5741726 0.4737279
vt 0.4993404 0.4122962
vt 0.396688 0.4569373
vt 0.4235402 0.395805
vt 0.3796951 0.3922881
vt 0.4235765 0.4439189
vt 0.4571175 0.5021349
vt 0.4235765 0.4439189
vt 0.396688 0.4569373
vt 0.4673811 0.4652667
vt 0.5370653 0.4705461
vt 0.4673811 0.4652667
vt 0.4571175 0.5021349
vt 0.5083393 0.4553214
vt 0.554621 0.4091713
vt 0.5083393 0.4553214
vt 0.5370653 0.4705461
vt 0.5307015 0.4115651
vt 0.5304624 0.3511012
vt 0.5307015 0.4115651
vt 0.554621 0.4091713
vt 0.500573 0.3725016
vt 0.4459813 0.3319811
vt 0.500573 0.3725016
vt 0.5304624 0.3511012
vt 0.4560532 0.3712665
vt 0.3796951 0.3922881
vt 0.4560532 0.3712665
vt 0.4459813 0.3319811
vt 0.4235402 0.395805
vt 0.4235765 0.4439189
vt 0.4560532 0.3712665
vt 0.4235402 0.395805
vt 0.4673811 0.4652667
vt 0.500573 0.3725016
vt 0.5307015 0.4115651
vt 0.5083393 0.4553214
vn -0.9047425 -0.2912972 -0.3107843
vn -0.8625736 0.03104141 0.5049786
vn -0.8199677 -0.2377318 0.5207078
vn -0.9529794 0.09569838 -0.2875274
vn -0.7849368 0.5222054 0.3334302
vn -0.8199677 -0.2377318 0.5207078
vn -0.1753983 0.1564244 0.9719911
vn -0.1572099 -0.09097121 0.9833663
vn -0.8625736 0.03104141 0.5049786
vn -0.1525891 0.6916547 0.7059252
vn -0.7849368 0.5222054 0.3334302
vn -0.4532038 0.8868361 0.09015597
vn -0.1572099 -0.09097121 0.9833663
vn 0.6743494 0.4658164 0.5729468
vn 0.7110988 -0.01366579 0.7029592
vn -0.1753983 0.1564244 0.9719911
vn 0.9892775 0.1459608 0.005063279
vn -0.1525891 0.6916547 0.7059252
vn 0.8402233 0.5421411 0.01038217
vn 0.6245685 0.5263804 -0.5769211
vn 0.6971319 0.1240385 -0.7061314
vn 0.3700733 0.9071018 -0.2005293
vn -0.4532038 0.8868361 0.09015597
vn 0.7110988 -0.01366579 0.7029592
vn 0.9892775 0.1459608 0.005063279
vn 0.9951709 -0.09739421 0.01221766
vn 0.6971319 0.1240385 -0.7061314
vn 0.673834 -0.1513963 -0.7232059
vn 0.673834 -0.1513963 -0.7232059
vn -0.2174026 0.1678419 -0.9615431
vn -0.1988477 -0.1686869 -0.9654037
vn 0.6971319 0.1240385 -0.7061314
vn -0.9529794 0.09569838 -0.2875274
vn -0.9047425 -0.2912972 -0.3107843
vn -0.1689654 0.619876 -0.7662926
vn 0.6245685 0.5263804 -0.5769211
vn -0.7792001 0.5730087 -0.2539847
vn -0.7849368 0.5222054 0.3334302
vn -0.4532038 0.8868361 0.09015597
vn 0.3700733 0.9071018 -0.2005293
vn -0.8199677 -0.2377318 0.5207078
vn -0.431736 -0.9007224 0.04799199
vn -0.9047425 -0.2912972 -0.3107843
vn -0.431736 -0.9007224 0.04799199
vn -0.2995547 -0.8660047 0.4003783
vn -0.2995547 -0.8660047 0.4003783
vn -0.2995547 -0.8660047 0.4003783
vn -0.2995547 -0.8660047 0.4003783
vn 0.1515386 -0.8270985 0.5412431
vn 0.1515386 -0.8270985 0.5412431
vn 0.1515386 -0.8270985 0.5412431
vn 0.1515386 -0.8270985 0.5412431
vn 0.5366686 -0.8114503 0.2313765
vn 0.5366686 -0.8114503 0.2313765
vn 0.5366686 -0.8114503 0.2313765
vn 0.5366686 -0.8114503 0.2313765
vn 0.673834 -0.1513963 -0.7232059
vn 0.4810579 -0.8447926 -0.2343261
vn 0.9951709 -0.09739421 0.01221766
vn 0.4810579 -0.8447926 -0.2343261
vn 0.09404586 -0.8742917 -0.4762031
vn 0.09404586 -0.8742917 -0.4762031
vn 0.09404586 -0.8742917 -0.4762031
vn 0.09404586 -0.8742917 -0.4762031
vn -0.283786 -0.8946692 -0.3450108
vn -0.283786 -0.8946692 -0.3450108
vn -0.283786 -0.8946692 -0.3450108
vn -0.283786 -0.8946692 -0.3450108
vn -0.02163561 -0.9997659 2.95878E-05
vn -0.02163561 -0.9997659 2.95878E-05
vn -0.02163561 -0.9997659 2.95878E-05
vn -0.02163561 -0.9997659 2.95878E-05
vn -0.006419315 -0.9999793 -0.0005508238
vn -0.004488444 -0.9999889 -0.00142269
vn -0.004488444 -0.9999889 -0.00142269
g Canyon_Rock1_9_0
f 3/3/3 2/2/2 1/1/1
f 2/2/2 4/4/4 1/1/1
f 2/2/2 5/5/5 4/4/4
f 8/8/8 7/7/7 6/6/6
f 7/7/7 9/9/9 6/6/6
f 7/7/7 10/10/10 9/9/9
f 10/10/10 11/11/11 9/9/9
f 10/10/10 12/12/12 11/11/11
f 15/15/15 14/14/14 13/13/13
f 14/14/14 16/16/16 13/13/13
f 17/17/17 14/14/14 15/15/15
f 14/14/14 18/18/18 16/16/16
f 17/17/17 19/19/19 14/14/14
f 20/20/20 19/19/19 17/17/17
f 21/21/21 20/20/20 17/17/17
f 14/14/14 22/22/22 18/18/18
f 19/19/19 22/22/22 14/14/14
f 20/20/20 22/22/22 19/19/19
f 22/22/22 23/23/23 18/18/18
f 26/26/26 25/25/25 24/24/24
f 27/27/27 25/25/25 26/26/26
f 28/28/28 27/27/27 26/26/26
f 31/31/31 30/30/30 29/29/29
f 30/30/30 32/32/32 29/29/29
f 33/33/33 30/30/30 31/31/31
f 34/34/34 33/33/33 31/31/31
f 30/30/30 35/35/35 32/32/32
f 35/35/35 36/36/36 32/32/32
f 33/33/33 37/37/37 30/30/30
f 37/37/37 35/35/35 30/30/30
f 38/38/38 37/37/37 33/33/33
f 38/38/38 39/39/39 37/37/37
f 37/37/37 39/39/39 35/35/35
f 35/35/35 40/40/40 36/36/36
f 39/39/39 40/40/40 35/35/35
f 43/43/43 42/42/42 41/41/41
f 42/42/42 44/44/44 41/41/41
f 47/47/47 46/46/46 45/45/45
f 46/46/46 48/48/48 45/45/45
f 51/51/51 50/50/50 49/49/49
f 50/50/50 52/52/52 49/49/49
f 55/55/55 54/54/54 53/53/53
f 54/54/54 56/56/56 53/53/53
f 59/59/59 58/58/58 57/57/57
f 58/58/58 60/60/60 57/57/57
f 63/63/63 62/62/62 61/61/61
f 62/62/62 64/64/64 61/61/61
f 67/67/67 66/66/66 65/65/65
f 66/66/66 68/68/68 65/65/65
f 71/71/71 70/70/70 69/69/69
f 70/70/70 72/72/72 69/69/69
f 70/70/70 73/73/73 72/72/72
f 73/73/73 74/74/74 72/72/72
f 74/74/74 75/75/75 72/72/72
