g Canyon_Rock4_2
v -14.43267 -2.764086 4.814257
v -6.01281 3.29403 8.089273
v -5.857948 -2.764844 9.88574
v -13.59559 3.335722 3.594484
v 7.602623 2.981774 4.373838
v 8.633385 -2.768504 6.003458
v 13.0279 3.286274 -2.001888
v 14.43267 -2.775188 -1.355633
v 14.43267 -2.775188 -1.355633
v 12.9051 3.514517 -7.813419
v 14.35012 -2.770488 -7.950489
v 13.0279 3.286274 -2.001888
v 14.35012 -2.770488 -7.950489
v 2.329567 1.59341 -9.318287
v 2.188881 -2.763038 -9.885738
v 12.9051 3.514517 -7.813419
v -11.32914 -0.6947403 -2.563892
v -12.45229 -2.760761 -2.674
v -13.59559 3.335722 3.594484
v -14.43267 -2.764086 4.814257
v -1.247795 5.508304 1.105686
v -6.01281 3.29403 8.089273
v 8.345558 5.877144 -4.334286
v 7.602623 2.981774 4.373838
v 13.0279 3.286274 -2.001888
v 4.020638 4.634302 -6.067257
v 8.345558 5.877144 -4.334286
v 13.0279 3.286274 -2.001888
v 9.203072 -5.877144 -0.9480095
v -7.611519 -5.866862 -1.772549
v -8.85009 -5.869852 2.910803
v -3.487236 -5.868897 6.082647
v 5.576042 -5.87071 3.654566
v 1.545464 -5.86755 -6.282963
v 9.151436 -5.873012 -5.072605
v -5.857948 -2.764844 9.88574
v -8.85009 -5.869852 2.910803
v -14.43267 -2.764086 4.814257
v -3.487236 -5.868897 6.082647
v -14.43267 -2.764086 4.814257
v -7.611519 -5.866862 -1.772549
v -12.45229 -2.760761 -2.674
v -8.85009 -5.869852 2.910803
v -12.45229 -2.760761 -2.674
v 1.545464 -5.86755 -6.282963
v 2.188881 -2.763038 -9.885738
v -7.611519 -5.866862 -1.772549
v 9.151436 -5.873012 -5.072605
v 14.35012 -2.770488 -7.950489
v 14.35012 -2.770488 -7.950489
v 9.203072 -5.877144 -0.9480095
v 14.43267 -2.775188 -1.355633
v 9.151436 -5.873012 -5.072605
v 5.576042 -5.87071 3.654566
v 8.633385 -2.768504 6.003458
v -3.487236 -5.868897 6.082647
v -5.857948 -2.764844 9.88574
vt 0.3029852 0.4772842
vt 0.3028297 0.4321425
vt 0.2705614 0.4368671
vt 0.3154466 0.4580473
vt 0.3086207 0.3769867
vt 0.279139 0.3672675
vt 0.3263857 0.3468305
vt 0.3105233 0.3358833
vt 0.4069417 0.3498461
vt 0.3947822 0.3811715
vt 0.416167 0.3812153
vt 0.3866527 0.3588279
vt 0.416167 0.3812153
vt 0.3794421 0.4207123
vt 0.394275 0.4329902
vt 0.3947822 0.3811715
vt 0.3393021 0.465974
vt 0.3410075 0.477189
vt 0.3154466 0.4580473
vt 0.3029852 0.4772842
vt 0.3318539 0.4132809
vt 0.3028297 0.4321425
vt 0.3451951 0.3652206
vt 0.3086207 0.3769867
vt 0.3263857 0.3468305
vt 0.3687091 0.4052867
vt 0.3713033 0.3840496
vt 0.3866527 0.3588279
vt 0.3370234 0.3819456
vt 0.3310931 0.275953
vt 0.3605712 0.2679393
vt 0.3808052 0.3016182
vt 0.3658884 0.3588744
vt 0.3030497 0.3338907
vt 0.3110126 0.3817993
vt 0.4046835 0.2865037
vt 0.3605712 0.2679393
vt 0.3723311 0.2326542
vt 0.3808052 0.3016182
vt 0.3723311 0.2326542
vt 0.3310931 0.275953
vt 0.3251982 0.2454676
vt 0.3605712 0.2679393
vt 0.3251982 0.2454676
vt 0.3030497 0.3338907
vt 0.2803594 0.3381046
vt 0.3310931 0.275953
vt 0.3110126 0.3817993
vt 0.2930913 0.414706
vt 0.2930913 0.414706
vt 0.3370234 0.3819456
vt 0.3346805 0.4149399
vt 0.3110126 0.3817993
vt 0.3658884 0.3588744
vt 0.3808329 0.3780511
vt 0.3808052 0.3016182
vt 0.4046835 0.2865037
vn -0.8366796 0.2161452 0.5032381
vn -0.1103354 0.832571 0.5428183
vn -0.1343132 0.003861642 0.9909314
vn -0.6573121 0.7536174 0.001309969
vn 0.3352547 0.8202465 0.463465
vn 0.539726 0.02438705 0.8414874
vn 0.6149418 0.7550468 0.2274882
vn 0.9390892 -0.07449576 0.3355025
vn 0.9390892 -0.07449576 0.3355025
vn 0.4310538 0.7812608 -0.4514689
vn 0.7535518 -0.2070889 -0.6239182
vn 0.6149418 0.7550468 0.2274882
vn 0.7535518 -0.2070889 -0.6239182
vn -0.2160484 0.6490875 -0.7293891
vn -0.1378634 -0.218982 -0.9659403
vn 0.4310538 0.7812608 -0.4514689
vn -0.569468 0.5837775 -0.5787142
vn -0.6783845 0.1364557 -0.7219241
vn -0.6573121 0.7536174 0.001309969
vn -0.8366796 0.2161452 0.5032381
vn -0.1782013 0.9707851 -0.1606885
vn -0.1103354 0.832571 0.5428183
vn 0.1661539 0.9852154 -0.0417544
vn 0.3352547 0.8202465 0.463465
vn 0.6149418 0.7550468 0.2274882
vn -0.200441 0.868838 -0.4527074
vn 0.1661539 0.9852154 -0.0417544
vn 0.6149418 0.7550468 0.2274882
vn -0.0005727572 -0.9999995 -0.0007899113
vn -0.0005727572 -0.9999995 -0.0007899113
vn -0.0005727572 -0.9999995 -0.0007899113
vn -0.0001097097 -0.9999995 0.000974872
vn -0.0001097097 -0.9999995 0.000974872
vn -0.0005620602 -0.9999994 -0.0009915901
vn -0.0005620602 -0.9999994 -0.0009915901
vn -0.2899625 -0.8219172 0.4902794
vn -0.2899625 -0.8219172 0.4902794
vn -0.2899625 -0.8219172 0.4902794
vn -0.2899625 -0.8219172 0.4902794
vn -0.5167975 -0.8450565 -0.1371126
vn -0.5167975 -0.8450565 -0.1371126
vn -0.5167975 -0.8450565 -0.1371126
vn -0.5167975 -0.8450565 -0.1371126
vn -0.3205421 -0.6884695 -0.6505862
vn -0.112278 -0.742705 -0.6601384
vn -0.112278 -0.742705 -0.6601384
vn -0.3205421 -0.6884695 -0.6505862
vn 0.1011966 -0.7624742 -0.6390558
vn 0.1011966 -0.7624742 -0.6390558
vn 0.5096482 -0.8603537 -0.007088777
vn 0.5114505 -0.8369384 0.194814
vn 0.5114505 -0.8369384 0.194814
vn 0.5096482 -0.8603537 -0.007088777
vn 0.3464518 -0.7588179 0.551513
vn 0.3464518 -0.7588179 0.551513
vn 0.1841027 -0.7021598 0.6878064
vn 0.1841027 -0.7021598 0.6878064
g Canyon_Rock4_2_0
f 3/3/3 2/2/2 1/1/1
f 2/2/2 4/4/4 1/1/1
f 5/5/5 2/2/2 3/3/3
f 6/6/6 5/5/5 3/3/3
f 7/7/7 5/5/5 6/6/6
f 8/8/8 7/7/7 6/6/6
f 11/11/11 10/10/10 9/9/9
f 10/10/10 12/12/12 9/9/9
f 15/15/15 14/14/14 13/13/13
f 14/14/14 16/16/16 13/13/13
f 17/17/17 14/14/14 15/15/15
f 18/18/18 17/17/17 15/15/15
f 19/19/19 17/17/17 18/18/18
f 20/20/20 19/19/19 18/18/18
f 19/19/19 21/21/21 17/17/17
f 17/17/17 21/21/21 14/14/14
f 22/22/22 21/21/21 19/19/19
f 23/23/23 21/21/21 22/22/22
f 24/24/24 23/23/23 22/22/22
f 25/25/25 23/23/23 24/24/24
f 14/14/14 26/26/26 16/16/16
f 21/21/21 26/26/26 14/14/14
f 26/26/26 27/27/27 16/16/16
f 26/26/26 21/21/21 27/27/27
f 16/16/16 27/27/27 28/28/28
f 31/31/31 30/30/30 29/29/29
f 31/31/31 29/29/29 32/32/32
f 29/29/29 33/33/33 32/32/32
f 30/30/30 34/34/34 29/29/29
f 34/34/34 35/35/35 29/29/29
f 38/38/38 37/37/37 36/36/36
f 37/37/37 39/39/39 36/36/36
f 42/42/42 41/41/41 40/40/40
f 41/41/41 43/43/43 40/40/40
f 46/46/46 45/45/45 44/44/44
f 45/45/45 47/47/47 44/44/44
f 48/48/48 45/45/45 46/46/46
f 49/49/49 48/48/48 46/46/46
f 52/52/52 51/51/51 50/50/50
f 51/51/51 53/53/53 50/50/50
f 54/54/54 51/51/51 52/52/52
f 55/55/55 54/54/54 52/52/52
f 56/56/56 54/54/54 55/55/55
f 57/57/57 56/56/56 55/55/55
