g Canyon_Rock1_5
v 19.14566 -3.374918 -3.798972
v 10.34301 2.190434 -11.49415
v 9.650506 -3.421355 -11.76366
v -8.649667 2.292897 -9.664487
v -8.923398 -3.525813 -9.939384
v -17.97766 -0.08246577 -2.171935
v -17.5345 -3.584833 -2.083854
v 9.435952 4.11368 -9.522599
v 17.8304 4.205777 -2.467036
v -17.5345 -3.584833 -2.083854
v -19.14566 1.142984 6.565515
v -18.77148 -3.590653 6.027297
v -17.97766 -0.08246577 -2.171935
v -18.77148 -3.590653 6.027297
v -3.879247 -0.06565058 11.76366
v -4.237988 -3.507141 10.87043
v -19.14566 1.142984 6.565515
v 15.19545 -3.397298 4.990048
v 15.19545 -3.397298 4.990048
v 17.8304 4.205777 -2.467036
v 19.14566 -3.374918 -3.798972
v 13.82561 -0.8340904 4.628615
v -3.879247 -0.06565058 11.76366
v -4.324311 1.912538 10.14885
v -19.14566 1.142984 6.565515
v -17.01167 4.237541 6.157224
v -17.97766 -0.08246577 -2.171935
v -15.98158 3.963578 -1.000852
v 2.155791 6.824912 -1.916312
v 9.435952 4.11368 -9.522599
v -10.72509 7.21231 2.814103
v -8.026994 3.631248 -7.725606
v 10.34301 2.190434 -11.49415
v -8.649667 2.292897 -9.664487
v -15.98158 3.963578 -1.000852
v -17.97766 -0.08246577 -2.171935
v -10.72509 7.21231 2.814103
v -5.760285 5.690661 5.817777
v 9.650506 -3.421355 -11.76366
v 14.20661 -7.001475 -3.055131
v 19.14566 -3.374918 -3.798972
v 5.858699 -7.100487 -7.854408
v -8.923398 -3.525813 -9.939384
v 5.858699 -7.100487 -7.854408
v -4.857549 -7.166191 -7.716609
v -17.5345 -3.584833 -2.083854
v -4.857549 -7.166191 -7.716609
v -14.18226 -7.21231 -1.952453
v -18.77148 -3.590653 6.027297
v -14.18226 -7.21231 -1.952453
v -17.5345 -3.584833 -2.083854
v -18.77148 -3.590653 6.027297
v -11.78708 -7.151877 4.158957
v -14.18226 -7.21231 -1.952453
v -4.237988 -3.507141 10.87043
v -11.78708 -7.151877 4.158957
v -18.77148 -3.590653 6.027297
v -2.301805 -6.969789 4.930051
v 15.19545 -3.397298 4.990048
v 9.24194 -6.895006 3.094766
v 19.14566 -3.374918 -3.798972
v 9.24194 -6.895006 3.094766
v 15.19545 -3.397298 4.990048
v 14.20661 -7.001475 -3.055131
v -2.301805 -6.969789 4.930051
v 9.24194 -6.895006 3.094766
v 14.20661 -7.001475 -3.055131
v -14.18226 -7.21231 -1.952453
v 5.858699 -7.100487 -7.854408
v -4.857549 -7.166191 -7.716609
v -11.78708 -7.151877 4.158957
vt 0.3029852 0.4772842
vt 0.29493 0.4342288
vt 0.2705614 0.4368671
vt 0.3013532 0.3750077
vt 0.279139 0.3672675
vt 0.3146654 0.3369673
vt 0.3105233 0.3358833
vt 0.3028297 0.4321425
vt 0.3154466 0.4580473
vt 0.4069417 0.3498461
vt 0.4047887 0.3801646
vt 0.416167 0.3812153
vt 0.40224 0.3505386
vt 0.416167 0.3812153
vt 0.3844709 0.4265595
vt 0.394275 0.4329902
vt 0.4047887 0.3801646
vt 0.3410075 0.477189
vt 0.3410075 0.477189
vt 0.3154466 0.4580473
vt 0.3029852 0.4772842
vt 0.3393021 0.465974
vt 0.3844709 0.4265595
vt 0.3794421 0.4207123
vt 0.4047887 0.3801646
vt 0.3947822 0.3811715
vt 0.40224 0.3505386
vt 0.3866527 0.3588279
vt 0.3318539 0.4132809
vt 0.3028297 0.4321425
vt 0.3451951 0.3652206
vt 0.3086207 0.3769867
vt 0.29493 0.4342288
vt 0.3013532 0.3750077
vt 0.3263857 0.3468305
vt 0.3146654 0.3369673
vt 0.3713033 0.3840496
vt 0.3687091 0.4052867
vt 0.6284116 0.5594989
vt 0.5716616 0.5711506
vt 0.5723608 0.6046442
vt 0.6017916 0.5320544
vt 0.6318971 0.4552367
vt 0.6017916 0.5320544
vt 0.6080444 0.476698
vt 0.5917589 0.4016624
vt 0.6080444 0.476698
vt 0.5849262 0.4264106
vt 0.5448248 0.3912077
vt 0.5849262 0.4264106
vt 0.5917589 0.4016624
vt 0.5448248 0.3912077
vt 0.5532705 0.4337357
vt 0.5849262 0.4264106
vt 0.5059206 0.4664801
vt 0.5532705 0.4337357
vt 0.5448248 0.3912077
vt 0.5416666 0.4815688
vt 0.5237017 0.5751362
vt 0.5439371 0.5422897
vt 0.5723608 0.6046442
vt 0.5439371 0.5422897
vt 0.5237017 0.5751362
vt 0.5716616 0.5711506
vt 0.5416666 0.4815688
vt 0.5439371 0.5422897
vt 0.5716616 0.5711506
vt 0.5849262 0.4264106
vt 0.6017916 0.5320544
vt 0.6080444 0.476698
vt 0.5532705 0.4337357
vn 0.906399 0.221193 -0.3598813
vn 0.3326709 0.3263448 -0.8847764
vn 0.294129 0.006024636 -0.9557467
vn -0.3900613 0.3796439 -0.8388818
vn -0.395359 0.02286098 -0.9182421
vn -0.8478184 0.2602796 -0.4620157
vn -0.8713764 -0.07882615 -0.4842413
vn 0.1929722 0.8339329 -0.5170277
vn 0.6447062 0.7569892 0.1064019
vn -0.8713764 -0.07882615 -0.4842413
vn -0.8362058 0.2027301 0.5095687
vn -0.8441188 -0.2118886 0.4925106
vn -0.8478184 0.2602796 -0.4620157
vn -0.8441188 -0.2118886 0.4925106
vn 0.0230844 0.1226821 0.9921775
vn -0.02038137 -0.2197049 0.9753534
vn -0.8362058 0.2027301 0.5095687
vn 0.550806 0.1388703 0.8229993
vn 0.550806 0.1388703 0.8229993
vn 0.6447062 0.7569892 0.1064019
vn 0.906399 0.221193 -0.3598813
vn 0.4643314 0.5858382 0.6642213
vn 0.0230844 0.1226821 0.9921775
vn 0.09072548 0.6491058 0.7552686
vn -0.8362058 0.2027301 0.5095687
vn -0.5030701 0.7783619 0.3755972
vn -0.8478184 0.2602796 -0.4620157
vn -0.5736042 0.7522113 -0.3242784
vn 0.1444399 0.9714488 0.1882132
vn 0.1929722 0.8339329 -0.5170277
vn -0.1759751 0.9842848 0.01470941
vn -0.2595221 0.819199 -0.5114305
vn 0.3326709 0.3263448 -0.8847764
vn -0.3900613 0.3796439 -0.8388818
vn -0.5736042 0.7522113 -0.3242784
vn -0.8478184 0.2602796 -0.4620157
vn -0.1759751 0.9842848 0.01470941
vn 0.1192903 0.869184 0.4798846
vn 0.294129 0.006024636 -0.9557467
vn 0.3733172 -0.7729177 -0.5130618
vn 0.906399 0.221193 -0.3598813
vn 0.3733172 -0.7729177 -0.5130618
vn -0.395359 0.02286098 -0.9182421
vn -0.04749993 -0.6425063 -0.7648068
vn -0.04749993 -0.6425063 -0.7648068
vn -0.8713764 -0.07882615 -0.4842413
vn -0.4531959 -0.6575261 -0.6018911
vn -0.4531959 -0.6575261 -0.6018911
vn -0.5646877 -0.82384 0.04914793
vn -0.5646877 -0.82384 0.04914793
vn -0.5646877 -0.82384 0.04914793
vn -0.5646877 -0.82384 0.04914793
vn -0.5646877 -0.82384 0.04914793
vn -0.5646877 -0.82384 0.04914793
vn -0.02038137 -0.2197049 0.9753534
vn -0.1265636 -0.805049 0.5795497
vn -0.8441188 -0.2118886 0.4925106
vn 0.01513963 -0.7991928 0.6008841
vn 0.550806 0.1388703 0.8229993
vn 0.1565315 -0.7768978 0.6098587
vn 0.499138 -0.8120312 0.3024342
vn 0.499138 -0.8120312 0.3024342
vn 0.499138 -0.8120312 0.3024342
vn 0.499138 -0.8120312 0.3024342
vn 0.0105857 -0.9996098 0.02585129
vn 0.0105857 -0.9996098 0.02585129
vn 0.0105857 -0.9996098 0.02585129
vn 0.007251465 -0.9999576 0.00567745
vn 0.007251465 -0.9999576 0.00567745
vn 0.007251465 -0.9999576 0.00567745
vn 0.01052177 -0.999799 0.01706777
g Canyon_Rock1_5_0
f 3/3/3 2/2/2 1/1/1
f 4/4/4 2/2/2 3/3/3
f 5/5/5 4/4/4 3/3/3
f 6/6/6 4/4/4 5/5/5
f 7/7/7 6/6/6 5/5/5
f 2/2/2 8/8/8 1/1/1
f 8/8/8 9/9/9 1/1/1
f 12/12/12 11/11/11 10/10/10
f 11/11/11 13/13/13 10/10/10
f 16/16/16 15/15/15 14/14/14
f 15/15/15 17/17/17 14/14/14
f 18/18/18 15/15/15 16/16/16
f 21/21/21 20/20/20 19/19/19
f 20/20/20 22/22/22 19/19/19
f 19/19/19 22/22/22 23/23/23
f 22/22/22 24/24/24 23/23/23
f 23/23/23 24/24/24 25/25/25
f 24/24/24 26/26/26 25/25/25
f 25/25/25 26/26/26 27/27/27
f 26/26/26 28/28/28 27/27/27
f 20/20/20 29/29/29 22/22/22
f 22/22/22 29/29/29 24/24/24
f 30/30/30 29/29/29 20/20/20
f 31/31/31 29/29/29 30/30/30
f 32/32/32 31/31/31 30/30/30
f 32/32/32 30/30/30 33/33/33
f 34/34/34 32/32/32 33/33/33
f 35/35/35 32/32/32 34/34/34
f 35/35/35 31/31/31 32/32/32
f 36/36/36 35/35/35 34/34/34
f 26/26/26 37/37/37 28/28/28
f 24/24/24 38/38/38 26/26/26
f 38/38/38 37/37/37 26/26/26
f 29/29/29 38/38/38 24/24/24
f 38/38/38 29/29/29 37/37/37
f 41/41/41 40/40/40 39/39/39
f 40/40/40 42/42/42 39/39/39
f 39/39/39 44/44/44 43/43/43
f 44/44/44 45/45/45 43/43/43
f 43/43/43 47/47/47 46/46/46
f 47/47/47 48/48/48 46/46/46
f 51/51/51 50/50/50 49/49/49
f 54/54/54 53/53/53 52/52/52
f 57/57/57 56/56/56 55/55/55
f 56/56/56 58/58/58 55/55/55
f 55/55/55 58/58/58 59/59/59
f 58/58/58 60/60/60 59/59/59
f 63/63/63 62/62/62 61/61/61
f 62/62/62 64/64/64 61/61/61
f 67/67/67 66/66/66 65/65/65
f 67/67/67 65/65/65 68/68/68
f 67/67/67 68/68/68 69/69/69
f 68/68/68 70/70/70 69/69/69
f 65/65/65 71/71/71 68/68/68
