g crotch
v 32.35858 79.18475 16.30076
v -29.98372 78.69373 -19.69444
v 32.35753 79.18475 -19.69694
v -29.98267 78.69373 16.30326
v 32.38342 65.48584 -19.69564
v -29.98372 78.69373 -19.69444
v -29.95504 64.59018 -19.69564
v 32.35753 79.18475 -19.69694
v 32.38342 65.48583 16.30196
v 32.35753 79.18475 -19.69694
v 32.38342 65.48584 -19.69564
v 32.35858 79.18475 16.30076
v -29.95504 64.59018 16.30196
v 32.35858 79.18475 16.30076
v 32.38342 65.48583 16.30196
v -29.98267 78.69373 16.30326
v -29.95504 64.59018 -19.69564
v -29.98267 78.69373 16.30326
v -29.95504 64.59018 16.30196
v -29.98372 78.69373 -19.69444
v -2.138123 39.75897 -0.8238425
v 5.184322 41.23713 -9.273844
v -2.155371 41.13168 -9.273844
v 5.201571 39.86442 -0.8238425
v -2.404598 60.93119 -15.69354
v 4.883988 65.09078 -11.34014
v -2.455618 64.98534 -11.34014
v 4.935095 61.03663 -15.69354
v 4.999028 55.95638 -17.78264
v -2.340665 55.85094 -17.78264
v -2.268337 50.10966 -17.72284
v 5.071269 50.2151 -17.72284
v 5.136917 44.9983 -14.93914
v -2.202689 44.89276 -14.93914
v 5.184322 41.23713 -9.273844
v -2.155371 41.13168 -9.273844
v 5.201571 39.86442 -0.8238425
v 5.136917 44.9983 -14.93914
v 5.184322 41.23713 -9.273844
v 5.071269 50.2151 -17.72284
v 5.182789 41.35568 7.98976
v 4.918841 62.32772 12.70526
v 4.883988 65.09078 -11.34014
v 4.935095 61.03663 -15.69354
v 4.883988 65.09079 7.946455
v 5.0598 51.12769 15.05536
v 4.979703 57.49213 15.01586
v 5.130053 45.54758 12.78146
v 5.071269 50.2151 -17.72284
v 4.935095 61.03663 -15.69354
v 4.999028 55.95638 -17.78264
v 4.918841 62.32772 12.70526
v -2.455618 64.98534 7.946455
v 4.883988 65.09079 7.946455
v -2.420852 62.22228 12.70526
v -2.35999 57.3866 15.01586
v 4.979703 57.49213 15.01586
v -2.279893 51.02224 15.05536
v 5.0598 51.12769 15.05536
v 5.130053 45.54758 12.78146
v -2.209641 45.44214 12.78146
v -2.156817 41.25023 7.989756
v 5.182789 41.35568 7.98976
v 4.883988 65.09079 7.946455
v 32.38342 65.48584 -19.69564
v 4.883988 65.09078 -11.34014
v 32.38342 65.48583 16.30196
v -2.455618 64.98534 7.946455
v -29.95504 64.59018 16.30196
v -2.455618 64.98534 -11.34014
v -29.95504 64.59018 -19.69564
v 4.883988 65.09078 -11.34014
v -29.95504 64.59018 -19.69564
v -2.455618 64.98534 -11.34014
v 32.38342 65.48584 -19.69564
v -2.420852 62.22228 12.70526
v -2.455618 64.98534 -11.34014
v -2.455618 64.98534 7.946455
v -2.156817 41.25023 7.989756
v -2.268337 50.10966 -17.72284
v -2.404598 60.93119 -15.69354
v -2.138123 39.75897 -0.8238425
v -2.202689 44.89276 -14.93914
v -2.155371 41.13168 -9.273844
v -2.279893 51.02224 15.05536
v -2.209641 45.44214 12.78146
v -2.404598 60.93119 -15.69354
v -2.268337 50.10966 -17.72284
v -2.340665 55.85094 -17.78264
v -2.420852 62.22228 12.70526
v -2.35999 57.3866 15.01586
v -2.279893 51.02224 15.05536
v -2.138123 39.75897 -0.8238425
v 5.182789 41.35568 7.98976
v 5.201571 39.86442 -0.8238425
v -2.156817 41.25023 7.989756
vt 0.4435053 0.9905024
vt 0.1724183 0.9903067
vt 0.4433991 0.9932869
vt 0.172422 0.9884443
vt 0.6176838 0.627188
vt 0.3760974 0.573661
vt 0.3762087 0.6282926
vt 0.6175835 0.5741237
vt 0.01554769 0.9285555
vt 0.170605 0.9875607
vt 0.1705995 0.9285557
vt 0.01555294 0.9875609
vt 0.1725518 0.9284308
vt 0.4433993 0.9905303
vt 0.4435149 0.9309857
vt 0.1724233 0.98836
vt 0.1705995 0.9266646
vt 0.01554221 0.9880367
vt 0.01554769 0.9266646
vt 0.1705944 0.9880367
vt 0.482429 0.7946553
vt 0.4823916 0.7946221
vt 0.4823916 0.794654
vt 0.482429 0.7946235
vt 0.5217445 0.6587881
vt 0.4714868 0.6301059
vt 0.5220966 0.6308329
vt 0.4711345 0.6580609
vt 0.4706936 0.6930913
vt 0.5213039 0.6938184
vt 0.5208049 0.7334068
vt 0.4701957 0.7326797
vt 0.4697426 0.7686518
vt 0.5203526 0.7693795
vt 0.4694159 0.7945868
vt 0.5200262 0.7953135
vt 0.482429 0.7946235
vt 0.4823666 0.7946187
vt 0.4823916 0.7946221
vt 0.4823543 0.7946141
vt 0.482468 0.7946222
vt 0.4824891 0.7946036
vt 0.4823825 0.7946011
vt 0.4823632 0.7946045
vt 0.482468 0.794601
vt 0.4824994 0.7946135
vt 0.4824992 0.7946079
vt 0.4824893 0.7946184
vt 0.4745504 0.7946855
vt 0.4745429 0.7952819
vt 0.4745464 0.7950018
vt 0.3307218 0.9080046
vt 0.2902941 0.9292446
vt 0.3306091 0.9296773
vt 0.2904064 0.9075716
vt 0.2906617 0.885797
vt 0.3309771 0.8862303
vt 0.2909983 0.8459805
vt 0.3313137 0.8464134
vt 0.3315882 0.8130481
vt 0.2912729 0.8126153
vt 0.291337 0.7896789
vt 0.3318712 0.7899196
vt 0.1482228 0.9329748
vt 0.1644823 0.9334944
vt 0.1482226 0.9333373
vt 0.1644825 0.9328178
vt 0.143883 0.9329748
vt 0.1276234 0.9328177
vt 0.143883 0.9333373
vt 0.1276232 0.9334944
vt 0.4827861 0.6325207
vt 0.6170744 0.6271794
vt 0.5110772 0.6325207
vt 0.3767889 0.6271794
vt 0.4824891 0.7946354
vt 0.4823825 0.7946328
vt 0.482468 0.794633
vt 0.482468 0.794654
vt 0.4823543 0.7946461
vt 0.4823632 0.7946365
vt 0.482429 0.7946553
vt 0.4823666 0.7946506
vt 0.4823916 0.794654
vt 0.4824994 0.7946453
vt 0.4824893 0.7946503
vt 0.4741383 0.795276
vt 0.4741459 0.7946796
vt 0.4741419 0.794996
vt 0.4741374 0.7953472
vt 0.4741408 0.7950807
vt 0.4741452 0.7947299
vt 0.2912985 0.7651579
vt 0.3318712 0.7899196
vt 0.3320521 0.7652063
vt 0.291337 0.7896789
vn -0.007876086 0.999969 0
vn -0.007876086 0.999969 0
vn -0.007876086 0.999969 0
vn -0.007876086 0.999969 0
vn -1.993141E-05 0 -1
vn -1.993141E-05 0 -1
vn -1.993141E-05 0 -1
vn -1.993141E-05 0 -1
vn 0.9999983 0.001851207 -1.457066E-05
vn 0.9999983 0.001851207 -1.457066E-05
vn 0.9999983 0.001851207 -1.457066E-05
vn 0.9999983 0.001851207 -1.457066E-05
vn 2.01075E-05 0 1
vn 2.01075E-05 0 1
vn 2.01075E-05 0 1
vn 2.01075E-05 0 1
vn -0.9999981 -0.001996151 1.457104E-05
vn -0.9999981 -0.001996151 1.457104E-05
vn -0.9999981 -0.001996151 1.457104E-05
vn -0.9999981 -0.001996151 1.457104E-05
vn 0.01436498 -0.9998914 0.003284481
vn 0.01417888 -0.9869566 -0.1603609
vn 0.01417888 -0.9869566 -0.1603609
vn 0.01436498 -0.9998914 0.003284481
vn -0.008176597 0.5691356 -0.822203
vn -0.01051221 0.7317097 -0.6815353
vn -0.01051221 0.7317097 -0.6815353
vn -0.008176597 0.5691356 -0.822203
vn -0.002710898 0.1886914 -0.9820327
vn -0.002710898 0.1886914 -0.9820327
vn 0.003559386 -0.247643 -0.9688448
vn 0.003559386 -0.247643 -0.9688448
vn 0.009662976 -0.6723019 -0.7402141
vn 0.009662976 -0.6723019 -0.7402141
vn 0.01197273 -0.8330114 -0.5531262
vn 0.01197273 -0.8330114 -0.5531262
vn 0.9999208 0.01258822 0
vn 0.9999207 0.01259093 0
vn 0.9999207 0.01259093 0
vn 0.9999208 0.01258668 0
vn 0.9999208 0.0125879 0
vn 0.9999207 0.012593 0
vn 0.9999206 0.01260095 0
vn 0.9999208 0.01258514 0
vn 0.9999205 0.01261316 0
vn 0.9999207 0.01258909 0
vn 0.9999208 0.01258458 0
vn 0.9999207 0.01259359 -1.263616E-05
vn 0.9999208 0.01258668 0
vn 0.9999208 0.01258514 0
vn 0.9999208 0.01258155 0
vn -0.009743097 0.6780621 0.73494
vn -0.01242311 0.8646919 0.502149
vn -0.01242311 0.8646919 0.502149
vn -0.009743097 0.6780621 0.73494
vn -0.003219933 0.2240228 0.9745786
vn -0.003219933 0.2240228 0.9745786
vn 0.002718002 -0.1891943 0.9819359
vn 0.002718002 -0.1891943 0.9819359
vn 0.00834041 -0.58055 0.8141819
vn 0.00834041 -0.58055 0.8141819
vn 0.01081116 -0.7525384 0.6584595
vn 0.01081116 -0.7525384 0.6584595
vn 0.0143652 -0.9998969 0
vn 0.0143652 -0.9998969 0
vn 0.0143652 -0.9998969 0
vn 0.0143652 -0.9998969 0
vn 0.01436713 -0.9998968 0
vn 0.01436713 -0.9998968 0
vn 0.01436714 -0.9998968 0
vn 0.01436714 -0.9998968 0
vn 0.0143652 -0.9998969 0
vn 0.01436714 -0.9998968 0
vn 0.01436714 -0.9998968 0
vn 0.0143652 -0.9998969 0
vn -0.9999208 -0.01258606 0
vn -0.9999207 -0.01258837 0
vn -0.9999208 -0.01258798 0
vn -0.9999208 -0.01258438 0
vn -0.9999208 -0.01258668 1.150303E-05
vn -0.9999207 -0.01259265 1.586436E-05
vn -0.9999208 -0.01258016 0
vn -0.9999208 -0.01258016 0
vn -0.9999208 -0.01258559 0
vn -0.9999208 -0.0125851 0
vn -0.9999208 -0.01258606 -1.064648E-05
vn -0.9999207 -0.01259265 1.586436E-05
vn -0.9999208 -0.01258668 1.150303E-05
vn -0.9999207 -0.01259654 3.163693E-05
vn -0.9999208 -0.01258606 0
vn -0.9999208 -0.01258413 0
vn -0.9999208 -0.0125851 0
vn 0.01436498 -0.9998914 0.003284481
vn 0.01416399 -0.985882 0.1668413
vn 0.01436498 -0.9998914 0.003284481
vn 0.01416399 -0.985882 0.1668413
g crotch_0
f 3/3/3 2/2/2 1/1/1
f 2/2/2 4/4/4 1/1/1
f 7/7/7 6/6/6 5/5/5
f 6/6/6 8/8/8 5/5/5
f 11/11/11 10/10/10 9/9/9
f 10/10/10 12/12/12 9/9/9
f 15/15/15 14/14/14 13/13/13
f 14/14/14 16/16/16 13/13/13
f 19/19/19 18/18/18 17/17/17
f 18/18/18 20/20/20 17/17/17
f 23/23/23 22/22/22 21/21/21
f 22/22/22 24/24/24 21/21/21
f 27/27/27 26/26/26 25/25/25
f 26/26/26 28/28/28 25/25/25
f 28/28/28 29/29/29 25/25/25
f 29/29/29 30/30/30 25/25/25
f 30/30/30 29/29/29 31/31/31
f 29/29/29 32/32/32 31/31/31
f 32/32/32 33/33/33 31/31/31
f 33/33/33 34/34/34 31/31/31
f 33/33/33 35/35/35 34/34/34
f 35/35/35 36/36/36 34/34/34
f 39/39/39 38/38/38 37/37/37
f 38/38/38 40/40/40 37/37/37
f 37/37/37 40/40/40 41/41/41
f 40/40/40 42/42/42 41/41/41
f 42/42/42 40/40/40 43/43/43
f 40/40/40 44/44/44 43/43/43
f 45/45/45 42/42/42 43/43/43
f 41/41/41 42/42/42 46/46/46
f 42/42/42 47/47/47 46/46/46
f 48/48/48 41/41/41 46/46/46
f 51/51/51 50/50/50 49/49/49
f 54/54/54 53/53/53 52/52/52
f 53/53/53 55/55/55 52/52/52
f 55/55/55 56/56/56 52/52/52
f 56/56/56 57/57/57 52/52/52
f 56/56/56 58/58/58 57/57/57
f 58/58/58 59/59/59 57/57/57
f 59/59/59 58/58/58 60/60/60
f 58/58/58 61/61/61 60/60/60
f 61/61/61 62/62/62 60/60/60
f 62/62/62 63/63/63 60/60/60
f 66/66/66 65/65/65 64/64/64
f 65/65/65 67/67/67 64/64/64
f 64/64/64 67/67/67 68/68/68
f 67/67/67 69/69/69 68/68/68
f 68/68/68 69/69/69 70/70/70
f 69/69/69 71/71/71 70/70/70
f 74/74/74 73/73/73 72/72/72
f 73/73/73 75/75/75 72/72/72
f 78/78/78 77/77/77 76/76/76
f 77/77/77 79/79/79 76/76/76
f 79/79/79 77/77/77 80/80/80
f 77/77/77 81/81/81 80/80/80
f 79/79/79 80/80/80 82/82/82
f 80/80/80 83/83/83 82/82/82
f 84/84/84 82/82/82 83/83/83
f 76/76/76 79/79/79 85/85/85
f 79/79/79 86/86/86 85/85/85
f 89/89/89 88/88/88 87/87/87
f 92/92/92 91/91/91 90/90/90
f 95/95/95 94/94/94 93/93/93
f 94/94/94 96/96/96 93/93/93
