g extrudedSurface11
v -165.3454 -7.802454 -20.20952
v -104.7258 31.14235 -17.34622
v -165.5128 -7.404901 -63.9192
v -108.4647 66.94994 -30.88995
v -55.58758 43.66185 2.949487
v -51.26958 75.17722 13.86593
v -15.26653 28.76194 26.0258
v -13.83497 46.31584 49.63659
v 23.44836 -12.06269 37.70659
v 20.73538 -8.982012 61.71037
v 58.26349 -37.72975 31.52826
v 52.48532 -50.2057 48.67128
v 118.9 -43.37214 -9.872145
v -121.5323 42.03896 13.63834
v -183.2619 30.70026 -20.90132
v -66.07949 35.62675 32.43555
v -23.43938 7.916029 40.91598
v 17.89348 -33.13533 36.81576
v 55.5192 -46.72348 20.35115
v 121.9514 -39.85563 -22.54626
v 147.7576 -54.62877 -27.91599
v 113.3972 -54.57283 -13.08118
v 145.218 -62.87107 -36.75462
v 176.7822 -74.59104 -37.34091
v 177.6459 -77.24157 -47.18883
v 152.9464 -49.92276 -34.85296
v 182.7518 -69.36206 -35.6297
v -60.70843 66.39446 42.96735
v -122.8177 77.24157 0.3230419
v -180.8568 32.05551 -63.78543
v -21.65481 24.82159 63.9192
v 15.19514 -31.87195 59.59768
v 49.6039 -60.75414 35.82294
v 116.0786 -50.63372 -25.78495
v 150.0013 -56.38876 -43.52354
v 183.2619 -70.56329 -47.16225
v -108.4647 66.94994 -30.88995
v -51.26958 75.17722 13.86593
v -13.83497 46.31584 49.63659
v 20.73538 -8.982012 61.71037
v 52.48532 -50.2057 48.67128
v 113.3972 -54.57283 -13.08118
v 145.218 -62.87107 -36.75462
v 177.6459 -77.24157 -47.18883
v -165.5128 -7.404901 -63.9192
v -180.8568 32.05551 -63.78543
v -165.3454 -7.802454 -20.20952
v -165.5128 -7.404901 -63.9192
v -183.2619 30.70026 -20.90132
vt 0.25 0.5
vt 0.25 0.6
vt 0 0.5
vt 0 0.6
vt 0.25 0.65
vt 0 0.65
vt 0.25 0.7
vt 0 0.7
vt 0.25 0.75
vt 0 0.75
vt 0.25 0.8
vt 0 0.8
vt 0.25 0.9
vt 0.5 0.6
vt 0.5 0.5
vt 0.5 0.65
vt 0.5 0.7
vt 0.5 0.75
vt 0.5 0.8
vt 0.5 0.9
vt 0.25 0.95
vt 0 0.9
vt 0 0.95
vt 0.25 1
vt 0 1
vt 0.5 0.95
vt 0.5 1
vt 0.75 0.65
vt 0.75 0.6
vt 0.75 0.5
vt 0.75 0.7
vt 0.75 0.75
vt 0.75 0.8
vt 0.75 0.9
vt 0.75 0.95
vt 0.75 1
vt 1 0.6
vt 1 0.65
vt 1 0.7
vt 1 0.75
vt 1 0.8
vt 1 0.9
vt 1 0.95
vt 1 1
vt 1 0.5
vt 0.75 0.5
vt 0.25 0.5
vt 0 0.5
vt 0.5 0.5
vn 0.2373986 -0.8216296 0.5182343
vn 0.628616 -0.7158261 -0.3040312
vn 0.6097469 -0.3655109 -0.7032855
vn 0.269554 0.5731807 -0.7738246
vn 0.3858773 -0.4472887 -0.8068653
vn 0.4288704 0.8553563 -0.2905782
vn 0.5645772 0.123203 -0.8161334
vn 0.6461344 0.7160194 0.2642471
vn 0.6286483 0.5002114 -0.5954745
vn 0.5967605 0.3804258 0.7065077
vn 0.4174619 0.8937548 0.164097
vn 0.5351394 -0.2040275 0.8197552
vn 0.6165176 0.2928436 0.7308547
vn -0.2929491 -0.2861019 0.9123193
vn -0.6981968 0.4960254 0.5162171
vn -0.4909566 -0.7661851 0.4146349
vn -0.6539708 -0.7419755 -0.147629
vn -0.557953 -0.5526068 -0.6191238
vn -0.5743847 0.01641485 -0.8184209
vn -0.1490357 0.8796296 -0.451708
vn 0.3383451 -0.1909857 0.9214376
vn 0.2786939 -0.9066001 0.3168692
vn -0.3716712 -0.9278342 -0.03137392
vn -0.187869 -0.7484138 0.6360677
vn -0.3310268 -0.5579006 -0.7610309
vn 0.3962414 0.9125035 -0.1016372
vn 0.477724 0.7971225 0.3692908
vn -0.2063339 0.5800256 0.7880334
vn -0.4022637 0.8764818 0.2645062
vn -0.001532844 0.5772955 -0.8165339
vn -0.2660365 -0.06634736 0.961677
vn -0.4499893 -0.6121238 0.6502416
vn -0.1109059 -0.9932412 0.03423399
vn -0.5813209 -0.04739724 -0.8122926
vn -0.1210903 0.3006552 -0.9460145
vn 0.2610903 0.7640862 -0.5899188
vn 0.269554 0.5731807 -0.7738246
vn 0.4288704 0.8553563 -0.2905782
vn 0.6461344 0.7160194 0.2642471
vn 0.5967605 0.3804258 0.7065077
vn 0.5351394 -0.2040275 0.8197552
vn 0.2786939 -0.9066001 0.3168692
vn -0.3716712 -0.9278342 -0.03137392
vn -0.3310268 -0.5579006 -0.7610309
vn 0.6097469 -0.3655109 -0.7032855
vn -0.9192501 -0.3923959 -0.03169763
vn -0.9192501 -0.3923959 -0.03169763
vn -0.9192501 -0.3923959 -0.03169763
vn -0.9192501 -0.3923959 -0.03169763
g extrudedSurface11_0
f 3/3/3 2/2/2 1/1/1
f 3/3/3 4/4/4 2/2/2
f 5/5/5 2/2/2 4/4/4
f 5/5/5 4/4/4 6/6/6
f 7/7/7 5/5/5 6/6/6
f 7/7/7 6/6/6 8/8/8
f 9/9/9 7/7/7 8/8/8
f 8/8/8 10/10/10 9/9/9
f 11/11/11 9/9/9 10/10/10
f 10/10/10 12/12/12 11/11/11
f 12/12/12 13/13/13 11/11/11
f 5/5/5 14/14/14 2/2/2
f 1/1/1 2/2/2 14/14/14
f 1/1/1 14/14/14 15/15/15
f 5/5/5 16/16/16 14/14/14
f 5/5/5 7/7/7 17/17/17
f 17/17/17 16/16/16 5/5/5
f 7/7/7 9/9/9 18/18/18
f 18/18/18 17/17/17 7/7/7
f 11/11/11 18/18/18 9/9/9
f 11/11/11 19/19/19 18/18/18
f 11/11/11 13/13/13 20/20/20
f 20/20/20 19/19/19 11/11/11
f 21/21/21 20/20/20 13/13/13
f 21/21/21 13/13/13 22/22/22
f 12/12/12 22/22/22 13/13/13
f 21/21/21 22/22/22 23/23/23
f 23/23/23 24/24/24 21/21/21
f 23/23/23 25/25/25 24/24/24
f 21/21/21 26/26/26 20/20/20
f 21/21/21 24/24/24 27/27/27
f 27/27/27 26/26/26 21/21/21
f 28/28/28 14/14/14 16/16/16
f 28/28/28 29/29/29 14/14/14
f 15/15/15 14/14/14 29/29/29
f 15/15/15 29/29/29 30/30/30
f 31/31/31 16/16/16 17/17/17
f 31/31/31 28/28/28 16/16/16
f 32/32/32 17/17/17 18/18/18
f 32/32/32 31/31/31 17/17/17
f 33/33/33 18/18/18 19/19/19
f 33/33/33 32/32/32 18/18/18
f 19/19/19 34/34/34 33/33/33
f 19/19/19 20/20/20 34/34/34
f 20/20/20 26/26/26 35/35/35
f 35/35/35 34/34/34 20/20/20
f 27/27/27 35/35/35 26/26/26
f 27/27/27 36/36/36 35/35/35
f 30/30/30 29/29/29 37/37/37
f 38/38/38 29/29/29 28/28/28
f 38/38/38 37/37/37 29/29/29
f 39/39/39 28/28/28 31/31/31
f 39/39/39 38/38/38 28/28/28
f 40/40/40 31/31/31 32/32/32
f 40/40/40 39/39/39 31/31/31
f 41/41/41 32/32/32 33/33/33
f 41/41/41 40/40/40 32/32/32
f 33/33/33 34/34/34 42/42/42
f 42/42/42 41/41/41 33/33/33
f 43/43/43 34/34/34 35/35/35
f 43/43/43 42/42/42 34/34/34
f 35/35/35 44/44/44 43/43/43
f 35/35/35 36/36/36 44/44/44
f 45/45/45 30/30/30 37/37/37
f 48/48/48 47/47/47 46/46/46
f 47/47/47 49/49/49 46/46/46
