g extrudedSurface2
v 166.6429 2.034693 12.37399
v 94.00607 17.4364 17.82806
v 164.7997 1.475714 51.44258
v 94.53139 54.95111 31.136
v 28.18951 28.38421 -5.987194
v 108.9325 29.44703 -15.23435
v 180.8416 36.44666 13.17589
v 41.35536 4.117971 -23.53151
v -35.69133 -29.34297 -11.72081
v 107.3038 66.40271 -2.878021
v 178.235 37.1042 51.61179
v 41.05359 22.67305 -51.61179
v -27.46042 -45.20626 -30.95594
v -100.7243 -59.77588 19.82086
v 94.53139 54.95111 31.136
v 30.20713 47.12312 -33.41787
v -33.98159 -28.41969 -45.69593
v -100.9289 -66.40271 3.506893
v 164.7997 1.475714 51.44258
v 30.20713 47.12312 -33.41787
v -173.7428 -51.84043 39.8931
v -178.4907 -36.60504 40.25383
v -110.0111 -43.966 14.51571
v -43.90718 -13.26501 -26.40306
v -180.8416 -36.96393 24.4698
v -110.4877 -50.25127 -1.795083
v -33.98159 -28.41969 -45.69593
v -176.0936 -52.19932 24.10906
v -100.9289 -66.40271 3.506893
v -173.7428 -51.84043 39.8931
v 178.235 37.1042 51.61179
v 166.6429 2.034693 12.37399
v 164.7997 1.475714 51.44258
v 180.8416 36.44666 13.17589
vt 0.25 0.5
vt 0.25 0.6
vt 0 0.5
vt 0 0.6
vt 0.25 0.7
vt 0.5 0.6
vt 0.5 0.5
vt 0.5 0.7
vt 0.5 0.8
vt 0.75 0.6
vt 0.75 0.5
vt 0.75 0.7
vt 0.75 0.8
vt 0.75 0.9
vt 1 0.6
vt 1 0.7
vt 1 0.8
vt 1 0.9
vt 1 0.5
vt 0 0.7
vt 1 1
vt 0.75 1
vt 0.5 0.9
vt 0.25 0.8
vt 0.5 1
vt 0.25 0.9
vt 0 0.8
vt 0.25 1
vt 0 0.9
vt 0 1
vt 0.75 0.5
vt 0.25 0.5
vt 0 0.5
vt 0.5 0.5
vn 0.04147142 -0.8047618 -0.5921474
vn -0.2951645 -0.811177 0.5048463
vn -0.3468681 -0.5096442 0.787366
vn -0.3227208 0.5561358 0.7658749
vn -0.448804 0.2418711 0.8602752
vn 0.3643681 -0.4046883 -0.8387273
vn 0.4883388 0.6853964 -0.5401455
vn 0.537228 -0.8224275 -0.1870807
vn 0.2570958 -0.08115709 0.9629721
vn 0.2317713 0.8679785 -0.4391986
vn 0.0436649 0.6682199 0.7426813
vn 0.2372051 0.04507353 -0.9704133
vn 0.3832065 -0.9115331 -0.1491992
vn 0.3343226 -0.3949457 0.855714
vn -0.3227208 0.5561358 0.7658749
vn -0.3844315 0.8679875 -0.3143407
vn -0.2493737 -0.04904757 -0.9671645
vn -0.0486339 -0.9423184 -0.3311657
vn -0.3468681 -0.5096442 0.787366
vn -0.3844315 0.8679875 -0.3143407
vn 0.1142215 -0.5825646 0.8047186
vn 0.245237 0.7942705 0.5558717
vn 0.08492419 0.8976547 0.4324396
vn -0.5855508 0.8039168 -0.1041538
vn -0.1101431 0.8291362 -0.5480891
vn -0.4694329 0.1641624 -0.8675733
vn -0.2493737 -0.04904757 -0.9671645
vn -0.3543604 -0.7199544 -0.5967364
vn -0.0486339 -0.9423184 -0.3311657
vn 0.1142215 -0.5825646 0.8047186
vn 0.9286161 -0.3671236 0.0537818
vn 0.9286161 -0.3671235 0.0537818
vn 0.9286161 -0.3671235 0.0537818
vn 0.9286161 -0.3671236 0.0537818
g extrudedSurface2_0
f 3/3/3 2/2/2 1/1/1
f 3/3/3 4/4/4 2/2/2
f 4/4/4 5/5/5 2/2/2
f 1/1/1 2/2/2 6/6/6
f 1/1/1 6/6/6 7/7/7
f 2/2/2 8/8/8 6/6/6
f 2/2/2 5/5/5 8/8/8
f 5/5/5 9/9/9 8/8/8
f 6/6/6 8/8/8 10/10/10
f 7/7/7 6/6/6 10/10/10
f 7/7/7 10/10/10 11/11/11
f 8/8/8 12/12/12 10/10/10
f 8/8/8 13/13/13 12/12/12
f 8/8/8 9/9/9 13/13/13
f 14/14/14 13/13/13 9/9/9
f 11/11/11 10/10/10 15/15/15
f 10/10/10 12/12/12 16/16/16
f 15/15/15 10/10/10 16/16/16
f 12/12/12 13/13/13 17/17/17
f 16/16/16 12/12/12 17/17/17
f 13/13/13 14/14/14 18/18/18
f 17/17/17 13/13/13 18/18/18
f 19/19/19 11/11/11 15/15/15
f 4/4/4 20/20/20 5/5/5
f 18/18/18 14/14/14 21/21/21
f 14/14/14 22/22/22 21/21/21
f 23/23/23 22/22/22 14/14/14
f 23/23/23 14/14/14 9/9/9
f 24/24/24 23/23/23 9/9/9
f 24/24/24 5/5/5 20/20/20
f 23/23/23 25/25/25 22/22/22
f 26/26/26 25/25/25 23/23/23
f 24/24/24 26/26/26 23/23/23
f 27/27/27 26/26/26 24/24/24
f 27/27/27 24/24/24 20/20/20
f 26/26/26 28/28/28 25/25/25
f 29/29/29 28/28/28 26/26/26
f 27/27/27 29/29/29 26/26/26
f 29/29/29 30/30/30 28/28/28
f 5/5/5 24/24/24 9/9/9
f 33/33/33 32/32/32 31/31/31
f 32/32/32 34/34/34 31/31/31
