g extrudedSurface5
v 93.49319 26.10834 2.57136
v 69.69606 44.03934 -1.149864
v 86.37101 1.214056 -7.75571
v 60.58026 22.76947 -5.845375
v 20.22292 31.36479 -18.68395
v 22.827 19.26955 -3.362308
v -1.691437 -5.351549 -16.82359
v -9.066589 0.2369366 -3.27032
v -35.38103 -26.65713 5.506402
v -42.22563 -17.65232 3.248066
v -92.84866 -38.95192 11.50035
v 58.41235 32.50445 16.08897
v 80.37868 3.591467 18.68395
v 7.363998 31.77416 -3.344467
v -17.11618 0.1910152 -16.44175
v -43.37642 -27.23545 -1.938426
v -93.49319 -44.03934 11.272
v 60.58026 22.76947 -5.845375
v 86.37101 1.214056 -7.75571
v 22.827 19.26955 -3.362308
v -9.066589 0.2369366 -3.27032
v -42.22563 -17.65232 3.248066
v -91.66034 -41.38953 7.14198
v -91.66034 -41.38953 7.14198
v 93.49319 26.10834 2.57136
v 86.37101 1.214056 -7.75571
v 80.37868 3.591467 18.68395
vt 0.4632497 0.4112769
vt 0.4632497 0.4290216
vt 0.4112769 0.4112769
vt 0.4112769 0.4290216
vt 0.4632497 0.4645108
vt 0.4112769 0.4645108
vt 0.4632497 0.5
vt 0.4112769 0.5
vt 0.4632497 0.5354892
vt 0.4112769 0.5354892
vt 0.4632497 0.5887231
vt 0.5152225 0.4290216
vt 0.5152225 0.4112769
vt 0.5152225 0.4645108
vt 0.5152225 0.5
vt 0.5152225 0.5354892
vt 0.5152225 0.5887231
vt 0.5887231 0.4290216
vt 0.5887231 0.4112769
vt 0.5887231 0.4645108
vt 0.5887231 0.5
vt 0.5887231 0.5354892
vt 0.5887231 0.5887231
vt 0.4112769 0.5887231
vt 0.4632497 0.4112769
vt 0.4112769 0.4112769
vt 0.5152225 0.4112769
vn 0.7084355 0.7046936 -0.03906397
vn 0.2421409 0.9441438 -0.2235183
vn -0.4072262 -0.5146242 -0.7545388
vn -0.1176642 -0.6380123 -0.7609832
vn -0.04641384 0.5402339 -0.8402339
vn 0.1902674 -0.8997123 0.3928309
vn 0.4614423 -0.6717425 -0.5795111
vn 0.02846746 -0.03335087 0.9990382
vn 0.406655 -0.6003554 0.6886255
vn -0.4308068 0.7545767 0.4949943
vn -0.1681063 0.5490101 0.8187358
vn -0.1936188 0.329644 0.9240383
vn -0.4145836 -0.4297149 0.8021631
vn -0.5270559 0.7825697 0.3313557
vn -0.5668027 0.3490672 -0.7462485
vn -0.07620092 -0.4976431 -0.8640282
vn 0.2529337 -0.7091959 0.6580773
vn -0.1176642 -0.6380123 -0.7609832
vn -0.4072262 -0.5146242 -0.7545388
vn 0.1902674 -0.8997123 0.3928309
vn 0.02846746 -0.03335087 0.9990382
vn -0.4308068 0.7545767 0.4949943
vn -0.2422548 -0.0209853 -0.9699857
vn -0.2422548 -0.0209853 -0.9699857
vn 0.9036469 -0.3568005 0.2368875
vn 0.9036469 -0.3568004 0.2368874
vn 0.9036469 -0.3568004 0.2368874
g extrudedSurface5_0
f 3/3/3 2/2/2 1/1/1
f 3/3/3 4/4/4 2/2/2
f 4/4/4 5/5/5 2/2/2
f 4/4/4 6/6/6 5/5/5
f 6/6/6 7/7/7 5/5/5
f 6/6/6 8/8/8 7/7/7
f 8/8/8 9/9/9 7/7/7
f 8/8/8 10/10/10 9/9/9
f 10/10/10 11/11/11 9/9/9
f 1/1/1 2/2/2 12/12/12
f 12/12/12 13/13/13 1/1/1
f 2/2/2 5/5/5 14/14/14
f 14/14/14 12/12/12 2/2/2
f 5/5/5 7/7/7 15/15/15
f 15/15/15 14/14/14 5/5/5
f 7/7/7 9/9/9 16/16/16
f 16/16/16 15/15/15 7/7/7
f 9/9/9 17/17/17 16/16/16
f 9/9/9 11/11/11 17/17/17
f 13/13/13 12/12/12 18/18/18
f 13/13/13 18/18/18 19/19/19
f 12/12/12 20/20/20 18/18/18
f 12/12/12 14/14/14 20/20/20
f 14/14/14 21/21/21 20/20/20
f 14/14/14 15/15/15 21/21/21
f 15/15/15 22/22/22 21/21/21
f 15/15/15 16/16/16 22/22/22
f 16/16/16 17/17/17 23/23/23
f 22/22/22 16/16/16 23/23/23
f 10/10/10 24/24/24 11/11/11
f 27/27/27 26/26/26 25/25/25
