g extrudedSurface1
v -150.5955 -51.96438 -31.9926
v -97.2218 10.74942 -8.726732
v -150.4537 -56.20137 -44.59818
v -104.4069 12.86621 5.582582
v -155.5786 -42.29347 -32.6517
v -73.45041 25.40517 32.77864
v -68.67081 33.44246 12.91271
v -104.3657 24.03698 -13.95828
v -78.10089 52.63706 19.08039
v -39.03023 37.92707 19.78306
v -45.95567 53.96603 46.34285
v -7.307693 31.90423 24.81312
v -4.914474 31.61311 57.86164
v -38.67813 14.50428 34.88162
v -9.664551 -1.318465 24.14455
v -84.42142 44.54652 38.95733
v -113.004 25.25828 0.6421309
v -159.0765 -46.50867 -43.03471
v -44.75356 31.35184 60.87131
v -4.98848 -0.5953972 57.64552
v -104.3657 24.03698 -13.95828
v -78.10089 52.63706 19.08039
v -45.95567 53.96603 46.34285
v -4.914474 31.61311 57.86164
v -150.4537 -56.20137 -44.59818
v 41.0513 -41.81609 20.53854
v 52.93982 -28.38417 55.68757
v 110.7168 -34.87141 -14.49574
v 93.90161 -13.96449 -44.95951
v 38.16463 -4.120303 6.809964
v 90.38282 19.0312 -20.08874
v 109.5758 -0.8493073 9.637402
v 52.84985 8.853856 41.63696
v 52.93982 -28.38417 55.68757
v 110.7168 -34.87141 -14.49574
v 159.0765 16.34341 -17.16163
v 158.9091 16.74096 -60.87131
v 141.1599 54.84612 -17.85343
v 143.5651 56.20137 -60.73754
v 158.9091 16.74096 -60.87131
v 143.5651 56.20137 -60.73754
v 159.0765 16.34341 -17.16163
v 141.1599 54.84612 -17.85343
v 158.9091 16.74096 -60.87131
vt 0.25 0
vt 0.25 0.09999999
vt 0 0
vt 0.5 0.09999999
vt 0.5 0
vt 0.5 0.15
vt 0.25 0.15
vt 0 0.09999999
vt 0 0.15
vt 0.25 0.2
vt 0 0.2
vt 0.25 0.25
vt 0 0.25
vt 0.5 0.2
vt 0.5 0.25
vt 0.75 0.15
vt 0.75 0.09999999
vt 0.75 0
vt 0.75 0.2
vt 0.75 0.25
vt 1 0.09999999
vt 1 0.15
vt 1 0.2
vt 1 0.25
vt 1 0
vt 0.75 0.35
vt 1 0.35
vt 1 0.425
vt 0.75 0.425
vt 0.5 0.35
vt 0.5 0.425
vt 0.25 0.425
vt 0.25 0.35
vt 0 0.35
vt 0 0.425
vt 0.25 0.5
vt 0 0.5
vt 0.5 0.5
vt 0.75 0.5
vt 1 0.5
vt 0.75 0.5
vt 0.25 0.5
vt 0.5 0.5
vt 1 0.5
vn 0.4355657 -0.6860517 0.5827656
vn 0.7796922 -0.4989604 -0.3783101
vn 0.5824636 -0.1323353 -0.8020122
vn -0.1867763 -0.5947431 0.7819176
vn -0.7765471 0.1690712 0.606951
vn -0.2895624 -0.8644635 0.4109215
vn 0.4857621 -0.2374381 -0.8412243
vn -0.07262777 0.5649967 -0.8218905
vn -0.1334476 0.9358597 -0.3261261
vn 0.3152385 0.5720037 -0.7572558
vn 0.2042989 0.914109 0.3502381
vn 0.2342354 0.7239192 -0.6489027
vn 0.312606 0.7100583 0.6309474
vn -0.4535877 -0.8621721 -0.225649
vn -0.5833572 -0.6556955 -0.4793307
vn -0.6540791 0.3535603 0.668712
vn -0.8360744 0.5185879 0.1790148
vn -0.09303543 0.4213034 -0.9021352
vn -0.2524847 -0.1987372 0.9469714
vn -0.3735086 -0.5649991 0.7357088
vn -0.07262777 0.5649967 -0.8218905
vn -0.1334476 0.9358597 -0.3261261
vn 0.2042989 0.914109 0.3502381
vn 0.312606 0.7100583 0.6309474
vn 0.5824636 -0.1323353 -0.8020122
vn -0.309755 -0.9380589 -0.1552333
vn 0.2560879 -0.5189296 0.8155558
vn 0.3917308 -0.9194542 -0.03392558
vn -0.3710884 -0.3612919 -0.8554307
vn -0.3748945 0.4024295 -0.8351675
vn -0.6428834 0.7602247 -0.09359162
vn 0.4411961 0.1615525 0.8827496
vn 0.4476007 0.7949512 0.4095196
vn 0.2560879 -0.5189296 0.8155558
vn 0.3917308 -0.9194542 -0.03392558
vn 0.7357289 -0.4169106 0.5337496
vn 0.2072654 -0.5064657 -0.8369789
vn -0.3397398 0.7854642 0.5173228
vn -0.5674765 0.4272435 -0.7038702
vn 0.2072654 -0.5064657 -0.8369789
vn 0.9192501 0.3923959 0.03169762
vn 0.9192501 0.3923959 0.03169762
vn 0.9192501 0.3923959 0.03169763
vn 0.9192501 0.3923959 0.03169762
g extrudedSurface1_0
f 3/3/3 2/2/2 1/1/1
f 1/1/1 2/2/2 4/4/4
f 1/1/1 4/4/4 5/5/5
f 6/6/6 4/4/4 2/2/2
f 2/2/2 7/7/7 6/6/6
f 7/7/7 2/2/2 8/8/8
f 3/3/3 8/8/8 2/2/2
f 7/7/7 8/8/8 9/9/9
f 10/10/10 7/7/7 9/9/9
f 10/10/10 9/9/9 11/11/11
f 12/12/12 10/10/10 11/11/11
f 13/13/13 12/12/12 11/11/11
f 7/7/7 10/10/10 14/14/14
f 14/14/14 6/6/6 7/7/7
f 12/12/12 15/15/15 10/10/10
f 15/15/15 14/14/14 10/10/10
f 16/16/16 4/4/4 6/6/6
f 16/16/16 17/17/17 4/4/4
f 5/5/5 4/4/4 17/17/17
f 5/5/5 17/17/17 18/18/18
f 19/19/19 6/6/6 14/14/14
f 19/19/19 16/16/16 6/6/6
f 15/15/15 20/20/20 14/14/14
f 20/20/20 19/19/19 14/14/14
f 18/18/18 17/17/17 21/21/21
f 22/22/22 17/17/17 16/16/16
f 22/22/22 21/21/21 17/17/17
f 23/23/23 16/16/16 19/19/19
f 23/23/23 22/22/22 16/16/16
f 20/20/20 24/24/24 19/19/19
f 24/24/24 23/23/23 19/19/19
f 25/25/25 18/18/18 21/21/21
f 15/15/15 26/26/26 20/20/20
f 26/26/26 27/27/27 20/20/20
f 28/28/28 27/27/27 26/26/26
f 28/28/28 26/26/26 29/29/29
f 29/29/29 26/26/26 30/30/30
f 30/30/30 26/26/26 15/15/15
f 29/29/29 30/30/30 31/31/31
f 32/32/32 31/31/31 30/30/30
f 32/32/32 30/30/30 33/33/33
f 33/33/33 30/30/30 12/12/12
f 33/33/33 12/12/12 24/24/24
f 32/32/32 33/33/33 34/34/34
f 33/33/33 24/24/24 34/34/34
f 24/24/24 20/20/20 34/34/34
f 32/32/32 34/34/34 35/35/35
f 36/36/36 32/32/32 35/35/35
f 36/36/36 35/35/35 37/37/37
f 38/38/38 32/32/32 36/36/36
f 38/38/38 31/31/31 32/32/32
f 39/39/39 31/31/31 38/38/38
f 39/39/39 29/29/29 31/31/31
f 40/40/40 29/29/29 39/39/39
f 40/40/40 28/28/28 29/29/29
f 12/12/12 30/30/30 15/15/15
f 43/43/43 42/42/42 41/41/41
f 42/42/42 44/44/44 41/41/41
