g left_leg
v 3.7596 68.86447 -6.922815
v 32.03727 67.73808 -12.03051
v 32.01971 69.21838 -6.922709
v 3.777161 67.38417 -12.03051
v 2.676367 0.01618925 18.53245
v 33.44683 0.0972913 -20.11762
v 2.676367 0.01622601 -18.60907
v 33.44683 0.09724832 17.0239
v 3.115699 17.09543 -18.55657
v 33.55182 33.57165 -17.50158
v 3.307081 33.19286 -17.50158
v 34.2269 17.48503 -18.55657
v 33.44683 0.0972913 -20.11762
v 2.676367 0.01622601 -18.60907
v 3.6182 54.95553 -18.87181
v 32.57261 55.31823 -18.8718
v 3.76513 60.51983 -17.12651
v 32.23668 60.87635 -17.1265
v 3.785141 63.8608 -15.31031
v 32.12166 64.21578 -15.3103
v 3.777161 67.38417 -12.03051
v 32.03727 67.73808 -12.03051
v 3.747917 69.39703 1.653288
v 3.777161 67.38417 -12.03051
v 3.7596 68.86447 -6.922815
v 3.762214 63.63435 11.06896
v 3.843881 51.83017 14.21889
v 3.307081 33.19286 -17.50158
v 3.76513 60.51983 -17.12651
v 3.785141 63.8608 -15.31031
v 3.6182 54.95553 -18.87181
v 3.886591 40.94112 7.826807
v 3.675931 36.75275 8.18622
v 3.881512 45.68602 12.3131
v 3.810468 58.63604 13.77609
v 3.764832 67.17027 6.985188
v 3.514642 31.84403 8.193124
v 3.115699 17.09543 -18.55657
v 3.094758 15.49691 7.115742
v 2.676367 0.01618925 18.53245
v 3.637601 15.40871 18.11412
v 2.676367 0.01622601 -18.60907
v 33.44683 0.09724832 17.0239
v 3.637601 15.40871 18.11412
v 34.34395 15.88449 17.00889
v 2.676367 0.01618925 18.53245
v 34.02037 15.8842 7.115741
v 33.44683 0.09724832 17.0239
v 34.34395 15.88449 17.00889
v 33.44683 0.0972913 -20.11762
v 34.2269 17.48503 -18.55657
v 33.55182 33.57165 -17.50158
v 33.20322 32.21585 8.19312
v 32.92209 37.11905 8.186217
v 32.60779 41.30092 7.826901
v 32.23668 60.87635 -17.1265
v 32.02037 69.75106 1.653295
v 32.12703 64.02633 11.08449
v 32.36978 52.18746 14.2189
v 32.48694 46.04425 12.3131
v 32.57261 55.31823 -18.8718
v 32.03727 67.73808 -12.03051
v 32.12166 64.21578 -15.3103
v 32.01971 69.21838 -6.922709
v 32.05858 67.5246 6.985295
v 32.22972 58.99202 13.7761
v 3.762214 63.63435 11.06896
v 32.05858 67.5246 6.985295
v 32.12703 64.02633 11.08449
v 3.764832 67.17027 6.985188
v 3.810468 58.63604 13.77609
v 32.22972 58.99202 13.7761
v 3.843881 51.83017 14.21889
v 32.36978 52.18746 14.2189
v 3.881512 45.68602 12.3131
v 32.48694 46.04425 12.3131
v 3.886591 40.94112 7.826807
v 32.60779 41.30092 7.826901
v 3.675931 36.75275 8.18622
v 32.60779 41.30092 7.826901
v 32.92209 37.11905 8.186217
v 3.886591 40.94112 7.826807
v 3.514642 31.84403 8.193124
v 33.20322 32.21585 8.19312
v 3.094758 15.49691 7.115742
v 34.02037 15.8842 7.115741
v 3.637601 15.40871 18.11412
v 34.02037 15.8842 7.115741
v 34.34395 15.88449 17.00889
v 3.094758 15.49691 7.115742
v 3.764832 67.17027 6.985188
v 32.02037 69.75106 1.653295
v 32.05858 67.5246 6.985295
v 3.747917 69.39703 1.653288
v 32.01971 69.21838 -6.922709
v 3.7596 68.86447 -6.922815
vt 0.5317707 0.9599892
vt 0.5458599 0.9594281
vt 0.5458509 0.9601656
vt 0.5317794 0.9592517
vt 0.3445487 0.6412373
vt 0.3358108 0.641219
vt 0.3361516 0.6412371
vt 0.3442076 0.6412187
vt 0.5236938 0.800228
vt 0.6207554 0.7491797
vt 0.5243045 0.7503864
vt 0.6242063 0.8005715
vt 0.6239939 0.861735
vt 0.5234339 0.861819
vt 0.524441 0.6945049
vt 0.6157675 0.6931855
vt 0.5248257 0.6764632
vt 0.614629 0.676459
vt 0.5249963 0.6646555
vt 0.6143739 0.6650578
vt 0.5253596 0.6497244
vt 0.6144962 0.6506067
vt 0.07153621 0.9186516
vt 0.1277375 0.9103848
vt 0.1067596 0.9164644
vt 0.03252264 0.8956264
vt 0.01992765 0.8465024
vt 0.1502087 0.7699569
vt 0.1486676 0.882192
vt 0.1412082 0.8959138
vt 0.1558358 0.8593388
vt 0.04618102 0.8017799
vt 0.04470506 0.786352
vt 0.02775514 0.8212677
vt 0.02174627 0.8744551
vt 0.04963737 0.9095062
vt 0.04467678 0.765798
vt 0.1545417 0.7038428
vt 0.049102 0.7008229
vt 0.002212103 0.6336966
vt 0.003930178 0.6969157
vt 0.1547574 0.6336962
vt 0.4491165 0.6365277
vt 0.3313122 0.7000732
vt 0.4524715 0.7026212
vt 0.3275671 0.6362437
vt 0.04880631 0.6969283
vt 0.008265879 0.6323342
vt 0.008327212 0.6969298
vt 0.1602354 0.6323338
vt 0.1538482 0.703478
vt 0.1495313 0.7692984
vt 0.04439759 0.7615864
vt 0.04502388 0.783358
vt 0.04589581 0.8009236
vt 0.1479964 0.8810191
vt 0.07115588 0.9173311
vt 0.03256699 0.8939077
vt 0.01974195 0.8454672
vt 0.02753993 0.8203316
vt 0.1551375 0.8582772
vt 0.1271454 0.9090947
vt 0.140565 0.8946826
vt 0.106246 0.9151517
vt 0.04933941 0.9082214
vt 0.02155366 0.8733091
vt 0.3346013 0.9072634
vt 0.4464896 0.9285103
vt 0.4465822 0.9072617
vt 0.3348667 0.928551
vt 0.3346175 0.8848534
vt 0.4467291 0.8847654
vt 0.3344381 0.857923
vt 0.446964 0.8578889
vt 0.3343319 0.8325407
vt 0.4471622 0.8325197
vt 0.3341893 0.8068128
vt 0.4474602 0.8067322
vt 0.3331568 0.7882798
vt 0.4474602 0.8067322
vt 0.4485155 0.7881206
vt 0.3341893 0.8068128
vt 0.332302 0.7689827
vt 0.4493977 0.7687096
vt 0.3296255 0.6997578
vt 0.4516046 0.6988166
vt 0.3313122 0.7000732
vt 0.4516046 0.6988166
vt 0.4524715 0.7026212
vt 0.3296255 0.6997578
vt 0.5903023 0.952867
vt 0.4589792 0.9800695
vt 0.4589792 0.952867
vt 0.5903023 0.9800695
vt 0.4589792 0.9971884
vt 0.5903023 0.9971884
vn -0.0123368 0.9851558 -0.1712193
vn -0.01066521 0.8516052 -0.5240752
vn -0.0123368 0.9851558 -0.1712193
vn -0.01066521 0.8516052 -0.5240752
vn 0.002634353 -0.9999965 0
vn 0.002634353 -0.9999965 0
vn 0.002634353 -0.9999965 0
vn 0.002634353 -0.9999965 0
vn -0.01276348 0.05652032 -0.9983198
vn -1.599469E-05 0.001281788 -0.9999992
vn -1.599469E-05 0.001281788 -0.9999992
vn -0.01276348 0.05652032 -0.9983198
vn -0.02470501 0.0476211 -0.9985599
vn -0.02470501 0.0476211 -0.9985599
vn -0.001506366 0.1202818 -0.9927387
vn -0.001506366 0.1202818 -0.9927387
vn -0.00488854 0.3903286 -0.9206626
vn -0.00488854 0.3903286 -0.9206626
vn -0.007315549 0.5840885 -0.8116571
vn -0.007315549 0.5840885 -0.8116571
vn -0.01066521 0.8516052 -0.5240752
vn -0.01066521 0.8516052 -0.5240752
vn -0.9999951 0.001647418 0.002677538
vn -0.999966 0.006639547 -0.004886546
vn -0.9999855 -0.005213515 -0.001370244
vn -0.9999825 0.001776976 0.005659372
vn -0.9999295 -0.0006293877 0.01185521
vn -0.9998316 0.0158497 0.009255133
vn -0.9998441 0.01668855 0.005761481
vn -0.999642 0.01705561 -0.02061385
vn -0.9993505 0.01630987 0.0321328
vn -0.9998815 -0.003165332 0.01506917
vn -0.9997179 0.01755891 0.01599233
vn -0.9999315 -0.008591387 0.007954582
vn -0.9999413 -0.004261397 0.009955829
vn -0.9999412 0.008508247 0.006725151
vn -0.9996437 0.02569092 0.007246851
vn -0.999593 0.02768454 0.00690042
vn -0.9995353 0.02866898 0.01035072
vn -0.9994474 0.032262 0.008002697
vn -0.9991186 0.03880581 0.01600452
vn -0.9996693 0.02571473 0
vn 0.04237267 0.01135945 0.9990373
vn 0.04237267 0.01135945 0.9990373
vn 0.04237267 0.01135945 0.9990373
vn 0.04237267 0.01135945 0.9990373
vn 0.9998997 -0.01361164 0.00391349
vn 0.9991513 -0.04061316 -0.006873428
vn 0.9991513 -0.04061316 -0.006873428
vn 0.999077 -0.0429494 -0.0008304839
vn 0.9999567 -9.264096E-05 0.009311267
vn 0.9984639 0.0503848 0.02305121
vn 0.9985771 0.05117951 0.01497775
vn 0.9983352 0.05445878 0.01900667
vn 0.9994838 0.03095099 0.008604975
vn 0.9991618 0.03816702 0.01479201
vn 0.9997422 0.02269603 -0.0005397159
vn 0.9997799 0.02091529 0.00168111
vn 0.9997905 0.02040428 0.001606998
vn 0.9997919 0.02020329 0.002818461
vn 0.9980374 0.04751007 0.04079472
vn 0.9997087 0.02396565 -0.002834737
vn 0.9994615 0.03248642 -0.004633131
vn 0.9998802 0.01544307 -0.001036128
vn 0.9997588 0.02187526 0.001966832
vn 0.9997876 0.02060525 0.0003955321
vn -0.008466811 0.6265397 0.7793435
vn -0.01099708 0.850966 0.5251057
vn -0.008466811 0.6265397 0.7793435
vn -0.01099708 0.850966 0.5251057
vn -0.003732803 0.2756572 0.9612487
vn -0.003732803 0.2756572 0.9612487
vn 0.001472992 -0.117617 0.993058
vn 0.001472992 -0.117617 0.993058
vn 0.006320898 -0.5047141 0.8632634
vn 0.006320898 -0.5047141 0.8632634
vn 0.008603617 -0.6869981 0.7266083
vn 0.008603617 -0.6869981 0.7266083
vn -0.0005457569 0.04351174 0.9990527
vn -0.001073027 0.08553943 0.9963342
vn -0.0005457569 0.04351174 0.9990527
vn -0.001073027 0.08553943 0.9963342
vn 0.0004034576 -0.03220715 0.9994811
vn 0.0004034576 -0.03220715 0.9994811
vn 0.0008239777 -0.06578477 0.9978335
vn 0.0008239777 -0.06578477 0.9978335
vn -0.0139165 0.9998918 0.00478459
vn -0.0139165 0.9998918 0.00478459
vn -0.0139165 0.9998918 0.00478459
vn -0.0139165 0.9998918 0.00478459
vn -0.01099708 0.850966 0.5251057
vn -0.01234831 0.9860452 0.1660192
vn -0.01099708 0.850966 0.5251057
vn -0.01234831 0.9860452 0.1660192
vn -0.0123368 0.9851558 -0.1712193
vn -0.0123368 0.9851558 -0.1712193
g left_leg_0
f 3/3/3 2/2/2 1/1/1
f 2/2/2 4/4/4 1/1/1
f 7/7/7 6/6/6 5/5/5
f 6/6/6 8/8/8 5/5/5
f 11/11/11 10/10/10 9/9/9
f 10/10/10 12/12/12 9/9/9
f 12/12/12 13/13/13 9/9/9
f 13/13/13 14/14/14 9/9/9
f 10/10/10 11/11/11 15/15/15
f 16/16/16 10/10/10 15/15/15
f 15/15/15 17/17/17 16/16/16
f 17/17/17 18/18/18 16/16/16
f 17/17/17 19/19/19 18/18/18
f 19/19/19 20/20/20 18/18/18
f 19/19/19 21/21/21 20/20/20
f 21/21/21 22/22/22 20/20/20
f 25/25/25 24/24/24 23/23/23
f 24/24/24 26/26/26 23/23/23
f 26/26/26 24/24/24 27/27/27
f 24/24/24 28/28/28 27/27/27
f 28/28/28 24/24/24 29/29/29
f 24/24/24 30/30/30 29/29/29
f 31/31/31 28/28/28 29/29/29
f 27/27/27 28/28/28 32/32/32
f 28/28/28 33/33/33 32/32/32
f 34/34/34 27/27/27 32/32/32
f 35/35/35 26/26/26 27/27/27
f 26/26/26 36/36/36 23/23/23
f 37/37/37 33/33/33 28/28/28
f 37/37/37 28/28/28 38/38/38
f 39/39/39 37/37/37 38/38/38
f 39/39/39 38/38/38 40/40/40
f 41/41/41 39/39/39 40/40/40
f 38/38/38 42/42/42 40/40/40
f 45/45/45 44/44/44 43/43/43
f 44/44/44 46/46/46 43/43/43
f 49/49/49 48/48/48 47/47/47
f 48/48/48 50/50/50 47/47/47
f 51/51/51 47/47/47 50/50/50
f 51/51/51 52/52/52 47/47/47
f 52/52/52 53/53/53 47/47/47
f 53/53/53 52/52/52 54/54/54
f 55/55/55 54/54/54 52/52/52
f 56/56/56 55/55/55 52/52/52
f 55/55/55 56/56/56 57/57/57
f 58/58/58 55/55/55 57/57/57
f 55/55/55 58/58/58 59/59/59
f 60/60/60 55/55/55 59/59/59
f 61/61/61 56/56/56 52/52/52
f 57/57/57 56/56/56 62/62/62
f 56/56/56 63/63/63 62/62/62
f 64/64/64 57/57/57 62/62/62
f 65/65/65 58/58/58 57/57/57
f 58/58/58 66/66/66 59/59/59
f 69/69/69 68/68/68 67/67/67
f 68/68/68 70/70/70 67/67/67
f 69/69/69 67/67/67 71/71/71
f 72/72/72 69/69/69 71/71/71
f 72/72/72 71/71/71 73/73/73
f 74/74/74 72/72/72 73/73/73
f 74/74/74 73/73/73 75/75/75
f 76/76/76 74/74/74 75/75/75
f 76/76/76 75/75/75 77/77/77
f 78/78/78 76/76/76 77/77/77
f 81/81/81 80/80/80 79/79/79
f 80/80/80 82/82/82 79/79/79
f 81/81/81 79/79/79 83/83/83
f 84/84/84 81/81/81 83/83/83
f 84/84/84 83/83/83 85/85/85
f 86/86/86 84/84/84 85/85/85
f 89/89/89 88/88/88 87/87/87
f 88/88/88 90/90/90 87/87/87
f 93/93/93 92/92/92 91/91/91
f 92/92/92 94/94/94 91/91/91
f 92/92/92 95/95/95 94/94/94
f 95/95/95 96/96/96 94/94/94
