g left_hand
v 37.4832 74.95979 32.9895
v 42.4181 75.4321 32.5426
v 41.1824 72.8605 33.5131
v 40.3012 78.4292 32.9704
v 34.3689 80.6891 31.1418
v 39.0476 82.03951 31.6301
v 34.7354 85.9627 28.1615
v 38.7331 85.3754 29.5957
v 37.4956 90.8725 26.0469
v 41.0142 88.78081 28.2291
v 44.5442 90.0295 28.4633
v 43.4149 93.96251 25.8577
v 49.1551 94.3282 27.2108
v 47.4785 90.4617 29.0117
v 50.7595 89.65709 30.3773
v 53.9069 92.5512 29.5458
v 52.6367 85.9366 33.0629
v 57.0426 87.6366 33.2724
v 57.0977 82.5462 36.2609
v 53.0472 82.92659 34.9332
v 52.9534 79.9682 36.3259
v 55.4561 79.3568 37.0804
v 55.4358 79.64969 13.2449
v 47.4785 90.4617 29.0117
v 50.7595 89.65709 30.3773
v 52.0766 80.6217 12.166
v 57.1638 76.2484 16.4769
v 52.6367 85.9366 33.0629
v 44.5442 90.0295 28.4633
v 49.0829 80.3165 11.835
v 41.0142 88.78081 28.2291
v 45.4341 79.322 12.036
v 38.7331 85.3754 29.5957
v 42.7511 76.7768 14.8753
v 57.2421 73.9493 19.5644
v 53.0472 82.92659 34.9332
v 56.5569 72.2565 23.1237
v 52.9534 79.9682 36.3259
v 58.7954 72.2106 24.8465
v 52.9534 79.9682 36.3259
v 55.4561 79.3568 37.0804
v 56.5569 72.2565 23.1237
v 61.6349 77.809 16.4478
v 57.0977 82.5462 36.2609
v 57.0426 87.6366 33.2724
v 61.1356 73.905 21.4674
v 58.5799 82.551 12.4257
v 53.9069 92.5512 29.5458
v 53.7911 84.4069 10.2259
v 49.1551 94.3282 27.2108
v 48.0424 84.0594 8.903999
v 43.4149 93.96251 25.8577
v 42.1601 80.8903 8.957703
v 37.4956 90.8725 26.0469
v 38.9338 76.9779 12.7799
v 34.7354 85.9627 28.1615
v 37.8403 73.2602 18.4236
v 34.3689 80.6891 31.1418
v 39.5299 70.5797 25.4909
v 37.4832 74.95979 32.9895
v 42.1236 70.8463 30.0649
v 41.1824 72.8605 33.5131
v 43.4312 73.264 28.8309
v 41.1824 72.8605 33.5131
v 42.4181 75.4321 32.5426
v 42.1236 70.8463 30.0649
v 42.4036 74.8577 19.3349
v 40.3012 78.4292 32.9704
v 39.0476 82.03951 31.6301
v 42.6484 73.4062 24.3712
v 42.7511 76.7768 14.8753
v 38.7331 85.3754 29.5957
v 42.4181 75.4321 32.5426
v 43.4312 73.264 28.8309
v 55.4561 79.3568 37.0804
v 58.7954 72.2106 24.8465
v 53.7911 84.4069 10.2259
v 55.4358 79.64969 13.2449
v 58.5799 82.551 12.4257
v 52.0766 80.6217 12.166
v 61.6349 77.809 16.4478
v 57.1638 76.2484 16.4769
v 57.2421 73.9493 19.5644
v 61.1356 73.905 21.4674
v 56.5569 72.2565 23.1237
v 58.7954 72.2106 24.8465
v 48.0424 84.0594 8.903999
v 49.0829 80.3165 11.835
v 45.4341 79.322 12.036
v 42.1601 80.8903 8.957703
v 42.7511 76.7768 14.8753
v 38.9338 76.9779 12.7799
v 37.8403 73.2602 18.4236
v 42.4036 74.8577 19.3349
v 42.6484 73.4062 24.3712
v 39.5299 70.5797 25.4909
v 43.4312 73.264 28.8309
v 42.1236 70.8463 30.0649
vt 0.4904174 0.9314772
vt 0.4899554 0.9295303
vt 0.4896937 0.930043
vt 0.4910566 0.9302169
vt 0.4916299 0.9326457
vt 0.4917027 0.9306858
vt 0.4920637 0.9325423
vt 0.4919817 0.9308509
vt 0.4924476 0.931426
vt 0.4922448 0.929922
vt 0.4923189 0.9284453
vt 0.492654 0.9289598
vt 0.4926365 0.9265428
vt 0.4923301 0.9272121
vt 0.4922361 0.9258207
vt 0.4924496 0.9245214
vt 0.4919122 0.924993
vt 0.4920163 0.9231516
vt 0.491594 0.923079
vt 0.4916593 0.9247906
vt 0.4913213 0.9248279
vt 0.4911631 0.9237909
vt 0.4840186 0.9258207
vt 0.4923301 0.9272121
vt 0.4922361 0.9258207
vt 0.4842501 0.9272122
vt 0.4839569 0.924993
vt 0.4919122 0.924993
vt 0.4923189 0.9284453
vt 0.4843432 0.9284453
vt 0.4922448 0.929922
vt 0.4844778 0.9299219
vt 0.4919817 0.9308509
vt 0.4849212 0.9308508
vt 0.4842878 0.9247907
vt 0.4916593 0.9247906
vt 0.4849889 0.9248281
vt 0.4913213 0.9248279
vt 0.4852951 0.9237911
vt 0.4913213 0.9248279
vt 0.4911631 0.9237909
vt 0.4849889 0.9248281
vt 0.4839465 0.9231515
vt 0.491594 0.923079
vt 0.4920163 0.9231516
vt 0.4844984 0.9230789
vt 0.484238 0.9245215
vt 0.4924496 0.9245214
vt 0.4844897 0.9265428
vt 0.4926365 0.9265428
vt 0.4845223 0.9289598
vt 0.492654 0.9289598
vt 0.4842506 0.9314262
vt 0.4924476 0.931426
vt 0.484686 0.9325423
vt 0.4920637 0.9325423
vt 0.4855296 0.9326457
vt 0.4916299 0.9326457
vt 0.4868208 0.9314772
vt 0.4904174 0.9314772
vt 0.4880399 0.9300431
vt 0.4896937 0.930043
vt 0.4881751 0.9295302
vt 0.4896937 0.930043
vt 0.4899554 0.9295303
vt 0.4880399 0.9300431
vt 0.4858055 0.9306858
vt 0.4910566 0.9302169
vt 0.4917027 0.9306858
vt 0.486932 0.9302168
vt 0.4849212 0.9308508
vt 0.4919817 0.9308509
vt 0.4899554 0.9295303
vt 0.4881751 0.9295302
vt 0.4911631 0.9237909
vt 0.4852951 0.9237911
vt 0.4844897 0.9265428
vt 0.4840186 0.9258207
vt 0.484238 0.9245215
vt 0.4842501 0.9272122
vt 0.4839465 0.9231515
vt 0.4839569 0.924993
vt 0.4842878 0.9247907
vt 0.4844984 0.9230789
vt 0.4849889 0.9248281
vt 0.4852951 0.9237911
vt 0.4845223 0.9289598
vt 0.4843432 0.9284453
vt 0.4844778 0.9299219
vt 0.4842506 0.9314262
vt 0.4849212 0.9308508
vt 0.484686 0.9325423
vt 0.4855296 0.9326457
vt 0.4858055 0.9306858
vt 0.486932 0.9302168
vt 0.4868208 0.9314772
vt 0.4881751 0.9295302
vt 0.4880399 0.9300431
vn -0.06430417 0.1707901 0.9832069
vn 0.07928862 0.1091109 0.9908624
vn 0.07928862 0.1091109 0.9908624
vn -0.06430417 0.1707901 0.9832069
vn -0.2201268 0.3633403 0.9052778
vn -0.2201268 0.3633403 0.9052778
vn -0.2293993 0.4909286 0.8404553
vn -0.2293993 0.4909286 0.8404553
vn -0.2294036 0.4909287 0.840454
vn -0.2294036 0.4909287 0.840454
vn -0.2294006 0.4909258 0.8404565
vn -0.2294006 0.4909258 0.8404565
vn -0.2293964 0.4909345 0.8404527
vn -0.2293964 0.4909345 0.8404527
vn -0.2293966 0.4909359 0.8404518
vn -0.2293966 0.4909359 0.8404518
vn -0.2293879 0.4909356 0.8404543
vn -0.2293879 0.4909356 0.8404543
vn -0.2280285 0.439068 0.8690352
vn -0.2280285 0.439068 0.8690352
vn -0.2258698 0.3856576 0.8945676
vn -0.2258698 0.3856576 0.8945676
vn -0.6847661 -0.695051 0.2190881
vn -0.173029 -0.8702971 0.4611332
vn -0.6847661 -0.695051 0.2190881
vn -0.173029 -0.8702971 0.4611332
vn -0.9408597 -0.3330228 -0.06228084
vn -0.9408597 -0.3330228 -0.06228084
vn 0.1410342 -0.8376026 0.5277606
vn 0.1410342 -0.8376026 0.5277606
vn 0.5719705 -0.6306664 0.524509
vn 0.5719705 -0.6306664 0.524509
vn 0.8177077 -0.3711559 0.439997
vn 0.8177077 -0.3711559 0.439997
vn -0.9727341 -0.1458962 -0.1802851
vn -0.9727341 -0.1458962 -0.1802851
vn -0.9721925 -0.07379819 -0.222251
vn -0.9721925 -0.07379819 -0.222251
vn -0.33073 -0.85142 0.4070645
vn -0.33073 -0.85142 0.4070645
vn -0.33073 -0.85142 0.4070645
vn -0.33073 -0.85142 0.4070645
vn 0.943801 0.3232789 0.06877836
vn 0.9420699 -0.1050929 0.3185275
vn 0.943801 0.3232789 0.06877836
vn 0.9420699 -0.1050929 0.3185275
vn 0.6960335 0.6863319 -0.2109172
vn 0.6960335 0.6863319 -0.2109172
vn 0.2732736 0.8612362 -0.4284783
vn 0.2732736 0.8612362 -0.4284783
vn -0.1763747 0.8282194 -0.5319253
vn -0.1763747 0.8282194 -0.5319253
vn -0.665772 0.550739 -0.5034226
vn -0.665772 0.550739 -0.5034226
vn -0.9363729 0.1243748 -0.3282326
vn -0.9363729 0.1243748 -0.3282326
vn -0.9564321 -0.2739047 -0.1010629
vn -0.9564321 -0.2739047 -0.1010629
vn -0.7234454 -0.663665 0.1901989
vn -0.7234454 -0.663665 0.1901989
vn -0.5007719 -0.7999606 0.3305914
vn -0.5007719 -0.7999606 0.3305914
vn 0.8765658 -0.2711362 0.39764
vn 0.8765658 -0.2711362 0.39764
vn 0.8765658 -0.2711362 0.39764
vn 0.8765658 -0.2711362 0.39764
vn 0.9578713 0.2671571 0.1054022
vn 0.8814217 0.4710631 -0.0345722
vn 0.9578713 0.2671571 0.1054022
vn 0.8814217 0.4710631 -0.0345722
vn 0.9700189 0.1864885 0.1558375
vn 0.9700189 0.1864885 0.1558375
vn 0.8023767 0.5841698 -0.1222179
vn 0.8023767 0.5841698 -0.1222179
vn 0.8457116 -0.3269014 0.4217908
vn 0.8457116 -0.3269014 0.4217908
vn 0.1863143 -0.51434 -0.8371029
vn 0.209891 -0.5236611 -0.8256663
vn 0.209891 -0.5236611 -0.8256663
vn 0.1863143 -0.51434 -0.8371029
vn 0.2581938 -0.674733 -0.6914271
vn 0.2581938 -0.674733 -0.6914271
vn 0.2359642 -0.8495405 -0.471807
vn 0.2359642 -0.8495405 -0.471807
vn 0.1986481 -0.9120907 -0.3586497
vn 0.1986481 -0.9120907 -0.3586497
vn 0.2249732 -0.5871722 -0.7775704
vn 0.2249732 -0.5871722 -0.7775704
vn 0.2385832 -0.7136847 -0.6585836
vn 0.2385832 -0.7136847 -0.6585836
vn 0.2593096 -0.8239329 -0.5038781
vn 0.2593096 -0.8239329 -0.5038781
vn 0.3801371 -0.8368641 -0.3938963
vn 0.3801371 -0.8368641 -0.3938963
vn 0.5773485 -0.7586521 -0.301854
vn 0.5773485 -0.7586521 -0.301854
vn 0.6834823 -0.6872672 -0.2459993
vn 0.6834823 -0.6872672 -0.2459993
g left_hand_0
f 3/3/3 2/2/2 1/1/1
f 2/2/2 4/4/4 1/1/1
f 5/5/5 1/1/1 4/4/4
f 6/6/6 5/5/5 4/4/4
f 7/7/7 5/5/5 6/6/6
f 8/8/8 7/7/7 6/6/6
f 9/9/9 7/7/7 8/8/8
f 10/10/10 9/9/9 8/8/8
f 9/9/9 10/10/10 11/11/11
f 12/12/12 9/9/9 11/11/11
f 13/13/13 12/12/12 11/11/11
f 14/14/14 13/13/13 11/11/11
f 13/13/13 14/14/14 15/15/15
f 16/16/16 13/13/13 15/15/15
f 16/16/16 15/15/15 17/17/17
f 18/18/18 16/16/16 17/17/17
f 18/18/18 17/17/17 19/19/19
f 17/17/17 20/20/20 19/19/19
f 19/19/19 20/20/20 21/21/21
f 22/22/22 19/19/19 21/21/21
f 25/25/25 24/24/24 23/23/23
f 24/24/24 26/26/26 23/23/23
f 25/25/25 23/23/23 27/27/27
f 28/28/28 25/25/25 27/27/27
f 24/24/24 29/29/29 26/26/26
f 29/29/29 30/30/30 26/26/26
f 29/29/29 31/31/31 30/30/30
f 31/31/31 32/32/32 30/30/30
f 31/31/31 33/33/33 32/32/32
f 33/33/33 34/34/34 32/32/32
f 28/28/28 27/27/27 35/35/35
f 36/36/36 28/28/28 35/35/35
f 36/36/36 35/35/35 37/37/37
f 38/38/38 36/36/36 37/37/37
f 41/41/41 40/40/40 39/39/39
f 40/40/40 42/42/42 39/39/39
f 45/45/45 44/44/44 43/43/43
f 44/44/44 46/46/46 43/43/43
f 45/45/45 43/43/43 47/47/47
f 48/48/48 45/45/45 47/47/47
f 48/48/48 47/47/47 49/49/49
f 50/50/50 48/48/48 49/49/49
f 50/50/50 49/49/49 51/51/51
f 52/52/52 50/50/50 51/51/51
f 52/52/52 51/51/51 53/53/53
f 54/54/54 52/52/52 53/53/53
f 54/54/54 53/53/53 55/55/55
f 56/56/56 54/54/54 55/55/55
f 56/56/56 55/55/55 57/57/57
f 58/58/58 56/56/56 57/57/57
f 58/58/58 57/57/57 59/59/59
f 60/60/60 58/58/58 59/59/59
f 60/60/60 59/59/59 61/61/61
f 62/62/62 60/60/60 61/61/61
f 65/65/65 64/64/64 63/63/63
f 64/64/64 66/66/66 63/63/63
f 69/69/69 68/68/68 67/67/67
f 68/68/68 70/70/70 67/67/67
f 69/69/69 67/67/67 71/71/71
f 72/72/72 69/69/69 71/71/71
f 68/68/68 73/73/73 70/70/70
f 73/73/73 74/74/74 70/70/70
f 44/44/44 75/75/75 46/46/46
f 75/75/75 76/76/76 46/46/46
f 79/79/79 78/78/78 77/77/77
f 78/78/78 80/80/80 77/77/77
f 78/78/78 79/79/79 81/81/81
f 82/82/82 78/78/78 81/81/81
f 83/83/83 82/82/82 81/81/81
f 84/84/84 83/83/83 81/81/81
f 85/85/85 83/83/83 84/84/84
f 86/86/86 85/85/85 84/84/84
f 87/87/87 77/77/77 80/80/80
f 88/88/88 87/87/87 80/80/80
f 87/87/87 88/88/88 89/89/89
f 90/90/90 87/87/87 89/89/89
f 90/90/90 89/89/89 91/91/91
f 92/92/92 90/90/90 91/91/91
f 93/93/93 92/92/92 91/91/91
f 94/94/94 93/93/93 91/91/91
f 93/93/93 94/94/94 95/95/95
f 96/96/96 93/93/93 95/95/95
f 96/96/96 95/95/95 97/97/97
f 98/98/98 96/96/96 97/97/97
