g left_arm
v 43.88525 82.68448 2.745777
v 42.43685 78.49808 11.2871
v 45.20205 76.67499 8.782283
v 48.99415 82.7314 1.590381
v 50.19615 77.00938 8.014979
v 53.17685 85.31489 3.398174
v 54.49365 79.3054 9.434672
v 53.98325 88.92171 7.110065
v 43.88525 82.68448 2.745777
v 40.84295 85.20178 6.187389
v 42.43685 78.49808 11.2871
v 53.98325 88.92171 7.110065
v 54.49365 79.3054 9.434672
v 55.57715 82.21799 12.20977
v 50.94085 91.439 10.55178
v 55.57715 82.21799 12.20977
v 52.81195 84.041 14.71468
v 53.98325 88.92171 7.110065
v 45.83195 91.3922 11.70707
v 47.81785 83.70659 15.48197
v 41.64925 88.80869 9.899371
v 43.52035 81.41068 14.06221
v 40.84295 85.20178 6.187389
v 42.43685 78.49808 11.2871
v 41.33835 80.66199 2.055286
v 40.84295 85.20178 6.187389
v 43.88525 82.68448 2.745777
v 36.79475 84.79579 6.643985
v 49.07485 80.52559 0.5021854
v 48.99415 82.7314 1.590381
v 55.47205 84.46628 2.894496
v 53.17685 85.31489 3.398174
v 56.78285 90.17589 7.830867
v 41.64925 88.80869 9.899371
v 38.10545 90.50529 11.58038
v 45.83195 91.3922 11.70707
v 56.78285 90.17589 7.830867
v 53.98325 88.92171 7.110065
v 52.23915 94.30959 12.41957
v 50.94085 91.439 10.55178
v 44.50275 94.44609 13.97268
v 38.10545 90.50529 11.58038
v 39.88247 95.35071 -13.13213
v 36.79475 84.79579 6.643985
v 41.33835 80.66199 2.055286
v 39.88247 95.35071 -13.13213
v 35.21147 97.03111 -6.641932
v 36.18037 102.1644 -17.24533
v 33.26797 101.2928 -8.991327
v 29.93449 112.9481 -4.715323
v 30.64388 117.0888 -11.95513
v 44.16997 104.3699 -20.51613
v 35.84509 120.246 -14.73943
v 36.18037 102.1644 -17.24533
v 49.62227 106.7815 -16.23683
v 53.19027 99.07831 -12.49343
v 47.48587 96.7788 -16.33993
v 49.07485 80.52559 0.5021854
v 41.33835 80.66199 2.055286
v 39.88247 95.35071 -13.13213
v 55.47205 84.46628 2.894496
v 53.89417 102.218 -5.726733
v 56.78285 90.17589 7.830867
v 39.88247 95.35071 -13.13213
v 36.18037 102.1644 -17.24533
v 51.15197 107.9496 -6.332827
v 39.32169 122.6279 -10.98582
v 34.83258 127.8629 -9.743623
v 32.06979 124.3134 -13.23132
v 30.64388 117.0888 -11.95513
v 28.89478 124.0299 -13.48212
v 29.81679 117.1195 -11.54873
v 34.79919 130.4793 0.9408864
v 41.64569 124.1611 -0.740726
v 27.35688 129.6644 -9.178921
v 49.63826 104.2858 2.376073
v 56.78285 90.17589 7.830867
v 52.23915 94.30959 12.41957
v 29.93449 112.9481 -4.715323
v 29.81679 117.1195 -11.54873
v 26.47238 131.2375 1.09949
v 27.35688 129.6644 -9.178921
v 34.79919 130.4793 0.9408864
v 26.47238 131.2375 1.09949
v 43.33305 101.7833 4.412571
v 52.23915 94.30959 12.41957
v 44.50275 94.44609 13.97268
v 49.63826 104.2858 2.376073
v 48.21777 107.8831 1.34667
v 36.34896 100.8277 1.430371
v 38.10545 90.50529 11.58038
v 43.33305 101.7833 4.412571
v 35.21147 97.03111 -6.641932
v 34.01197 101.8917 -0.02153229
v 33.26797 101.2928 -8.991327
v 30.05108 112.3057 5.753779
v 34.71158 115.9563 10.69248
v 28.77708 116.3658 6.345075
v 30.93828 120.9845 10.80958
v 33.47569 127.5457 7.310081
v 39.32779 121.424 7.946378
v 27.55119 123.3589 9.589279
v 29.93449 112.9481 -4.715323
v 33.47569 127.5457 7.310081
v 26.59687 127.663 6.793275
v 43.33305 101.7833 4.412571
v 41.64569 124.1611 -0.740726
v 34.79919 130.4793 0.9408864
v 33.47569 127.5457 7.310081
v 51.15197 107.9496 -6.332827
v 49.63826 104.2858 2.376073
v 48.21777 107.8831 1.34667
v 53.89417 102.218 -5.726733
v 34.79919 130.4793 0.9408864
v 26.47238 131.2375 1.09949
v 38.10545 90.50529 11.58038
v 36.79475 84.79579 6.643985
v 34.79919 130.4793 0.9408864
v 33.47569 127.5457 7.310081
v 26.59687 127.663 6.793275
v 28.16232 123.6641 -0.9047302
v 26.59687 127.663 6.793275
v 27.55119 123.3589 9.589279
v 26.47238 131.2375 1.09949
v 28.89478 124.0299 -13.48212
v 27.35688 129.6644 -9.178921
v 29.93449 112.9481 -4.715323
v 27.55119 123.3589 9.589279
v 28.77708 116.3658 6.345075
v 28.16232 123.6641 -0.9047302
v 28.89478 124.0299 -13.48212
v 29.81679 117.1195 -11.54873
vt 0.4892426 0.9173801
vt 0.4786794 0.9132504
vt 0.4870186 0.9175006
vt 0.4940944 0.9281846
vt 0.4907476 0.9283259
vt 0.4899059 0.9392641
vt 0.4876819 0.9393848
vt 0.4791307 0.9441286
vt 0.4892426 0.9173801
vt 0.4781927 0.91318
vt 0.4786794 0.9132504
vt 0.4791307 0.9441286
vt 0.4876819 0.9393848
vt 0.4796171 0.9441992
vt 0.4680807 0.9399282
vt 0.4796171 0.9441992
vt 0.4712779 0.939949
vt 0.4791307 0.9441286
vt 0.4632288 0.9291238
vt 0.4675488 0.9291238
vt 0.4674173 0.9180443
vt 0.4706146 0.9180651
vt 0.4781927 0.91318
vt 0.4786794 0.9132504
vt 0.5477681 0.8679893
vt 0.5449734 0.8738996
vt 0.5494981 0.8711987
vt 0.5409268 0.8721005
vt 0.5559435 0.8702711
vt 0.5548576 0.8727682
vt 0.5606637 0.8776091
vt 0.5579125 0.8776889
vt 0.559164 0.8857051
vt 0.5439342 0.8792892
vt 0.5394272 0.8801963
vt 0.5469892 0.8842096
vt 0.559164 0.8857051
vt 0.5568733 0.8830782
vt 0.5523227 0.889816
vt 0.5523487 0.8857791
vt 0.5441474 0.8875345
vt 0.5394272 0.8801963
vt 0.5422239 0.873517
vt 0.5409268 0.8721005
vt 0.5477681 0.8679893
vt 0.5422239 0.873517
vt 0.536003 0.8762503
vt 0.5362027 0.8762512
vt 0.5325924 0.8782187
vt 0.5240442 0.8895255
vt 0.5239774 0.8901248
vt 0.5439095 0.8799484
vt 0.5283881 0.8937868
vt 0.5362027 0.8762512
vt 0.5480461 0.886411
vt 0.5543262 0.8826349
vt 0.5498359 0.8763788
vt 0.5559435 0.8702711
vt 0.5477681 0.8679893
vt 0.5422239 0.873517
vt 0.5606637 0.8776091
vt 0.5530093 0.8890175
vt 0.559164 0.8857051
vt 0.5422239 0.873517
vt 0.5362027 0.8762512
vt 0.5479914 0.8928337
vt 0.5305705 0.8991668
vt 0.5237402 0.9027032
vt 0.5227226 0.8966771
vt 0.5239774 0.8901248
vt 0.5196065 0.8950066
vt 0.5230685 0.8900104
vt 0.5214151 0.9101827
vt 0.5311458 0.9064087
vt 0.5152873 0.9015719
vt 0.5468712 0.8930438
vt 0.559164 0.8857051
vt 0.5523227 0.889816
vt 0.5240442 0.8895255
vt 0.5230685 0.8900104
vt 0.5125505 0.9075603
vt 0.5152873 0.9015719
vt 0.5214151 0.9101827
vt 0.5125505 0.9075603
vt 0.5411555 0.8891716
vt 0.5523227 0.889816
vt 0.5441474 0.8875345
vt 0.5468712 0.8930438
vt 0.5441065 0.895251
vt 0.5347171 0.8840323
vt 0.5394272 0.8801963
vt 0.5411555 0.8891716
vt 0.536003 0.8762503
vt 0.5320668 0.8833563
vt 0.5325924 0.8782187
vt 0.5231917 0.893994
vt 0.5259464 0.9015783
vt 0.5202035 0.8974572
vt 0.5200646 0.9046797
vt 0.5204747 0.9100168
vt 0.5288353 0.9071255
vt 0.5157896 0.9048809
vt 0.5240442 0.8895255
vt 0.5204747 0.9100168
vt 0.5134302 0.9070752
vt 0.5411555 0.8891716
vt 0.5311458 0.9064087
vt 0.5214151 0.9101827
vt 0.5204747 0.9100168
vt 0.5479914 0.8928337
vt 0.5468712 0.8930438
vt 0.5441065 0.895251
vt 0.5530093 0.8890175
vt 0.5214151 0.9101827
vt 0.5125505 0.9075603
vt 0.5394272 0.8801963
vt 0.5409268 0.8721005
vt 0.5214151 0.9101827
vt 0.5204747 0.9100168
vt 0.5134302 0.9070752
vt 0.5175256 0.9003896
vt 0.5134302 0.9070752
vt 0.5157896 0.9048809
vt 0.5125505 0.9075603
vt 0.5196065 0.8950066
vt 0.5152873 0.9015719
vt 0.5240442 0.8895255
vt 0.5157896 0.9048809
vt 0.5202035 0.8974572
vt 0.5175256 0.9003896
vt 0.5196065 0.8950066
vt 0.5230685 0.8900104
vn -0.4714531 -0.6735098 -0.5693123
vn -0.7711923 -0.5101413 -0.3808128
vn -0.4714531 -0.6735098 -0.5693123
vn 0.2413222 -0.6817631 -0.6906248
vn 0.2413222 -0.6817631 -0.6906248
vn 0.8208179 -0.30344 -0.4839236
vn 0.8208179 -0.30344 -0.4839236
vn 0.9643109 0.2509851 0.084327
vn -0.4714531 -0.6735098 -0.5693123
vn -0.7711923 -0.5101413 -0.3808128
vn -0.7711923 -0.5101413 -0.3808128
vn 0.9643109 0.2509851 0.084327
vn 0.8208179 -0.30344 -0.4839236
vn 0.9643109 0.2509851 0.084327
vn 0.5005727 0.5183547 0.6933509
vn 0.9643109 0.2509851 0.084327
vn 0.5005727 0.5183547 0.6933509
vn 0.9643109 0.2509851 0.084327
vn -0.1812137 0.4213044 0.8886305
vn -0.1812137 0.4213044 0.8886305
vn -0.7785445 0.1487199 0.6097137
vn -0.7785445 0.1487199 0.6097137
vn -0.9507883 -0.03113609 0.308273
vn -0.9507883 -0.03113609 0.308273
vn 0.1965608 -0.56027 0.8046499
vn 0.1490144 -0.6681927 0.7289124
vn 0.1965608 -0.56027 0.8046499
vn 0.1490144 -0.6681927 0.7289124
vn 0.06774718 -0.4816263 0.8737541
vn 0.06774718 -0.4816263 0.8737541
vn -0.01071565 -0.5904707 0.8069879
vn -0.01071565 -0.5904707 0.8069879
vn 0.1111613 -0.6714784 0.732639
vn 0.07114187 -0.6468691 0.7592754
vn 0.07114187 -0.6468691 0.7592754
vn 0.1116233 -0.5844583 0.8037093
vn 0.1111613 -0.6714784 0.732639
vn 0.1111613 -0.6714784 0.732639
vn 0.1827799 -0.6103373 0.7707658
vn 0.1827799 -0.6103373 0.7707658
vn 0.1116233 -0.5844583 0.8037093
vn 0.07114187 -0.6468691 0.7592754
vn -0.5003664 -0.6304125 -0.5934758
vn -0.9593525 -0.2555241 -0.1197925
vn -0.4980293 -0.6517736 -0.5719773
vn -0.5003664 -0.6304125 -0.5934758
vn -0.9019774 -0.4215794 -0.09331528
vn -0.6629596 -0.3515504 -0.6609817
vn -0.9000793 -0.4248941 -0.09655256
vn -0.8626333 -0.4609485 -0.2083035
vn -0.4934691 -0.2813992 -0.822984
vn 0.1152358 -0.0201316 -0.9931341
vn -0.0334848 0.3141257 -0.9487907
vn -0.6629596 -0.3515504 -0.6609817
vn 0.7553442 0.3610913 -0.5468714
vn 0.8666539 -0.08659501 -0.4913373
vn 0.2397324 -0.5477902 -0.8015324
vn 0.2371734 -0.6845303 -0.6893236
vn -0.4980293 -0.6517736 -0.5719773
vn -0.5003664 -0.6304125 -0.5934758
vn 0.8584757 -0.2964331 -0.4185056
vn 0.9353433 0.3479381 0.06381119
vn 0.9571727 0.2813393 0.06832685
vn -0.5003664 -0.6304125 -0.5934758
vn -0.6629596 -0.3515504 -0.6609817
vn 0.8878677 0.4562404 0.05946057
vn 0.5920364 0.6167601 -0.5187483
vn 0.3399191 0.780862 -0.5241274
vn -0.00870616 0.2540646 -0.9671481
vn -0.4934691 -0.2813992 -0.822984
vn 0.02495319 0.2342474 -0.9718568
vn -0.1634394 -0.57032 -0.8049985
vn 0.4244498 0.895619 0.1330749
vn 0.7880613 0.61048 0.07920545
vn 0.1153561 0.8549762 -0.5056766
vn 0.5235489 0.5771452 0.6267375
vn 0.9571727 0.2813393 0.06832685
vn 0.4666716 0.7070998 0.5312508
vn -0.8626333 -0.4609485 -0.2083035
vn -0.1634394 -0.57032 -0.8049985
vn 0.09995107 0.9829768 0.1541634
vn 0.1153561 0.8549762 -0.5056766
vn 0.4244498 0.895619 0.1330749
vn 0.09995107 0.9829768 0.1541634
vn -0.09942506 0.2858791 0.9530938
vn 0.4666716 0.7070998 0.5312508
vn -0.2262895 0.7115562 0.6651923
vn 0.5235489 0.5771452 0.6267375
vn 0.6706629 0.309817 0.6739621
vn -0.814267 0.1265804 0.5665215
vn -0.8201995 0.3615139 0.443374
vn -0.09942506 0.2858791 0.9530938
vn -0.9019774 -0.4215794 -0.09331528
vn -0.7591313 -0.3304027 0.5608509
vn -0.9000793 -0.4248941 -0.09655256
vn -0.7990577 -0.4150847 0.4349843
vn -0.1560737 -0.2450983 0.956853
vn -0.7595568 -0.3714519 0.5339448
vn -0.1121223 0.1465664 0.9828259
vn 0.2652508 0.6346775 0.7258282
vn 0.6454242 0.3517421 0.6780156
vn -0.3439113 0.04403895 0.9379689
vn -0.8626333 -0.4609485 -0.2083035
vn 0.2652508 0.6346775 0.7258282
vn 0.008027107 0.7175468 0.6964641
vn -0.09942506 0.2858791 0.9530938
vn 0.7880613 0.61048 0.07920545
vn 0.4244498 0.895619 0.1330749
vn 0.2652508 0.6346775 0.7258282
vn 0.8878677 0.4562404 0.05946057
vn 0.5235489 0.5771452 0.6267375
vn 0.6706629 0.309817 0.6739621
vn 0.9353433 0.3479381 0.06381119
vn 0.4244498 0.895619 0.1330749
vn 0.09995107 0.9829768 0.1541634
vn -0.8201995 0.3615139 0.443374
vn -0.9593525 -0.2555241 -0.1197925
vn 0.4244498 0.895619 0.1330749
vn 0.2652508 0.6346775 0.7258282
vn 0.008027107 0.7175468 0.6964641
vn -0.9716079 -0.2217968 -0.08236702
vn -0.9716079 -0.2217968 -0.08236702
vn -0.9716079 -0.2217968 -0.08236702
vn -0.9716079 -0.2217968 -0.08236702
vn -0.9758077 -0.2108249 -0.05789829
vn -0.9758077 -0.2108249 -0.05789829
vn -0.9878523 -0.1431865 -0.06037709
vn -0.9878523 -0.1431865 -0.06037709
vn -0.9878523 -0.1431865 -0.06037709
vn -0.9878523 -0.1431865 -0.06037709
vn -0.9874429 -0.1440129 -0.064936
vn -0.9874429 -0.1440129 -0.064936
g left_arm_0
f 3/3/3 2/2/2 1/1/1
f 3/3/3 1/1/1 4/4/4
f 5/5/5 3/3/3 4/4/4
f 5/5/5 4/4/4 6/6/6
f 7/7/7 5/5/5 6/6/6
f 7/7/7 6/6/6 8/8/8
f 11/11/11 10/10/10 9/9/9
f 14/14/14 13/13/13 12/12/12
f 17/17/17 16/16/16 15/15/15
f 16/16/16 18/18/18 15/15/15
f 17/17/17 15/15/15 19/19/19
f 20/20/20 17/17/17 19/19/19
f 20/20/20 19/19/19 21/21/21
f 22/22/22 20/20/20 21/21/21
f 22/22/22 21/21/21 23/23/23
f 24/24/24 22/22/22 23/23/23
f 27/27/27 26/26/26 25/25/25
f 26/26/26 28/28/28 25/25/25
f 27/27/27 25/25/25 29/29/29
f 30/30/30 27/27/27 29/29/29
f 30/30/30 29/29/29 31/31/31
f 32/32/32 30/30/30 31/31/31
f 32/32/32 31/31/31 33/33/33
f 26/26/26 34/34/34 28/28/28
f 34/34/34 35/35/35 28/28/28
f 34/34/34 36/36/36 35/35/35
f 38/38/38 32/32/32 37/37/37
f 38/38/38 37/37/37 39/39/39
f 40/40/40 38/38/38 39/39/39
f 36/36/36 40/40/40 41/41/41
f 40/40/40 39/39/39 41/41/41
f 36/36/36 41/41/41 42/42/42
f 45/45/45 44/44/44 43/43/43
f 44/44/44 47/47/47 46/46/46
f 43/43/43 47/47/47 48/48/48
f 47/47/47 49/49/49 48/48/48
f 48/48/48 49/49/49 50/50/50
f 51/51/51 48/48/48 50/50/50
f 53/53/53 52/52/52 51/51/51
f 52/52/52 54/54/54 51/51/51
f 55/55/55 52/52/52 53/53/53
f 55/55/55 56/56/56 52/52/52
f 56/56/56 57/57/57 52/52/52
f 58/58/58 57/57/57 56/56/56
f 58/58/58 59/59/59 57/57/57
f 59/59/59 60/60/60 57/57/57
f 61/61/61 58/58/58 56/56/56
f 61/61/61 56/56/56 62/62/62
f 62/62/62 56/56/56 55/55/55
f 63/63/63 61/61/61 62/62/62
f 57/57/57 64/64/64 52/52/52
f 60/60/60 65/65/65 52/52/52
f 66/66/66 62/62/62 55/55/55
f 67/67/67 55/55/55 53/53/53
f 66/66/66 55/55/55 67/67/67
f 67/67/67 53/53/53 68/68/68
f 53/53/53 69/69/69 68/68/68
f 69/69/69 53/53/53 70/70/70
f 71/71/71 69/69/69 70/70/70
f 68/68/68 69/69/69 71/71/71
f 72/72/72 71/71/71 70/70/70
f 67/67/67 68/68/68 73/73/73
f 74/74/74 67/67/67 73/73/73
f 74/74/74 66/66/66 67/67/67
f 75/75/75 68/68/68 71/71/71
f 77/77/77 62/62/62 76/76/76
f 78/78/78 77/77/77 76/76/76
f 80/80/80 70/70/70 79/79/79
f 82/82/82 81/81/81 68/68/68
f 84/84/84 83/83/83 68/68/68
f 87/87/87 86/86/86 85/85/85
f 86/86/86 88/88/88 85/85/85
f 89/89/89 85/85/85 88/88/88
f 91/91/91 87/87/87 90/90/90
f 87/87/87 92/92/92 90/90/90
f 91/91/91 90/90/90 93/93/93
f 94/94/94 90/90/90 85/85/85
f 93/93/93 90/90/90 95/95/95
f 90/90/90 94/94/94 95/95/95
f 96/96/96 94/94/94 85/85/85
f 97/97/97 96/96/96 85/85/85
f 96/96/96 97/97/97 98/98/98
f 98/98/98 97/97/97 99/99/99
f 99/99/99 97/97/97 100/100/100
f 97/97/97 101/101/101 100/100/100
f 102/102/102 98/98/98 99/99/99
f 98/98/98 103/103/103 96/96/96
f 96/96/96 103/103/103 94/94/94
f 103/103/103 95/95/95 94/94/94
f 102/102/102 99/99/99 104/104/104
f 105/105/105 102/102/102 104/104/104
f 97/97/97 106/106/106 101/101/101
f 106/106/106 89/89/89 101/101/101
f 101/101/101 89/89/89 107/107/107
f 101/101/101 107/107/107 108/108/108
f 109/109/109 101/101/101 108/108/108
f 89/89/89 110/110/110 107/107/107
f 112/112/112 111/111/111 110/110/110
f 111/111/111 113/113/113 110/110/110
f 115/115/115 105/105/105 114/114/114
f 117/117/117 116/116/116 93/93/93
f 120/120/120 119/119/119 118/118/118
f 123/123/123 122/122/122 121/121/121
f 122/122/122 124/124/124 121/121/121
f 121/121/121 124/124/124 125/125/125
f 124/124/124 126/126/126 125/125/125
f 129/129/129 128/128/128 127/127/127
f 128/128/128 130/130/130 127/127/127
f 130/130/130 131/131/131 127/127/127
f 131/131/131 132/132/132 127/127/127
