g polySurface27
v 24.12432 -16.5793 11.99545
v 24.12432 -2.334827 0.02421188
v 24.12432 -16.83382 -12.09921
v 24.12432 -2.334827 11.99545
v 24.12432 26.38534 0.02421951
v 24.12432 12.02913 24.01967
v 24.12432 26.41885 12.04622
v 12.294 -2.328327 0.002262115
v 24.12432 -16.83382 -12.09921
v 24.12432 -2.334827 0.02421188
v 12.33555 -16.83381 -12.09922
v 12.33554 26.41885 12.04623
v 24.12432 12.02913 24.01967
v 12.33555 12.02914 24.01967
v 24.12432 26.41885 12.04622
v 24.12432 26.38534 0.02421951
v 12.33554 36.08267 12.03715
v 12.33554 36.04918 0.0151329
v 24.12432 26.41885 12.04622
v 12.294 -2.328327 0.002262115
v 24.12432 -2.334827 0.02421188
v 24.12432 26.38534 0.02421951
v 12.33554 36.04918 0.0151329
v 12.33555 12.02914 24.01967
v 12.294 -2.328327 0.002262115
v 12.33554 26.41885 12.04623
v 12.33554 36.04918 0.0151329
v 12.33554 26.41885 12.04623
v 12.294 -2.328327 0.002262115
v 12.33554 36.08267 12.03715
v 12.33554 26.41885 12.04623
v 12.33554 36.08267 12.03715
v 24.12432 26.41885 12.04622
v 24.12432 12.02913 24.01967
v 24.12432 -2.334827 11.99545
v 12.33555 12.02914 24.01967
v 0.2524505 11.96821 23.98033
v 0.2265439 -2.334835 11.99546
v 24.12432 -16.5793 11.99545
v 0.2265439 -2.334835 11.99546
v 24.12432 -2.334827 11.99545
v 0.2265444 -16.5793 11.99544
v 0.2265439 -2.334835 11.99546
v 0.2524503 11.96821 11.98033
v 0.2524505 11.96821 23.98033
v -24.01889 -2.059597 -12.06204
v -24.0189 -2.334827 -0.1061668
v -24.01889 -13.83107 12.03263
v -24.01889 -31.14007 -12.06202
v -24.01889 -31.02033 12.27394
v -12.04535 -2.32832 -0.09296799
v -24.01889 -13.83107 12.03263
v -24.0189 -2.334827 -0.1061668
v -12.23012 -13.83107 12.03263
v -12.23012 -13.83107 12.03263
v -24.01889 -31.02033 12.27394
v -24.01889 -13.83107 12.03263
v -12.23012 -16.79414 12.082
v -12.23012 -31.02033 12.27394
v -24.01889 -2.059597 -12.06204
v -12.23012 -31.14007 -12.06203
v -12.23012 -16.5793 -12.06204
v -24.01889 -31.14007 -12.06202
v -12.23012 -16.5793 -12.06204
v 0.3249575 -2.059589 -12.06204
v -24.01889 -2.059597 -12.06204
v 0.3249575 -16.5793 -12.06205
v -24.01889 -31.14007 -12.06202
v -12.23012 -36.08267 -12.06203
v -12.23012 -31.14007 -12.06203
v -24.01889 -36.08065 -12.06202
v -24.01889 -36.08065 -12.06202
v -24.01889 -31.02033 12.27394
v -24.01889 -36.08065 12.35582
v -24.01889 -31.14007 -12.06202
v -12.23012 -31.02033 12.27394
v -24.01889 -36.08065 12.35582
v -24.01889 -31.02033 12.27394
v -12.23012 -36.0228 12.31488
v 0.2524506 12.07817 -12.01967
v 0.2524505 -2.321827 0.07113266
v 0.2524503 0.6781731 -24.01967
v 0.2524507 12.07817 -0.01967239
v 12.25245 12.07817 -0.01967239
v 12.25245 0.6781654 -24.01967
v 12.25245 -2.321827 0.07114029
v 12.25245 12.07818 -12.01968
v 0.2524503 0.6781731 -24.01967
v 12.25245 12.07818 -12.01968
v 0.2524506 12.07817 -12.01967
v 12.25245 0.6781654 -24.01967
v 0.2524506 12.07817 -12.01967
v 12.25245 12.07817 -0.01967239
v 0.2524507 12.07817 -0.01967239
v 12.25245 12.07818 -12.01968
v 0.2524576 -16.73623 -24.01967
v 12.25245 0.6781654 -24.01967
v 0.2524503 0.6781731 -24.01967
v 12.25245 -16.72184 -24.01966
v 0.2976481 -7.12183 -12.01967
v 0.2524503 0.6781731 -24.01967
v 0.2524505 -2.321827 0.07113266
v 0.2524576 -16.73623 -24.01967
v 12.25245 0.6781654 -24.01967
v 12.33555 -16.83381 -12.09922
v 12.25245 -2.321827 0.07114029
v 12.25245 -16.72184 -24.01966
v 0.2826343 12.07817 12.0023
v 0.2265439 -2.334835 11.99546
v 0.2826344 0.6781654 24.00229
v -12.20935 12.13137 -0.000995636
v -11.71737 0.6781654 24.0023
v -12.04535 -2.32832 -0.09296799
v -11.71737 12.07817 12.00231
v 0.2826344 0.6781654 24.00229
v -11.71737 12.07817 12.00231
v 0.2826343 12.07817 12.0023
v -11.71737 0.6781654 24.0023
v 0.282634 -16.72183 24.00229
v -11.71737 0.6781654 24.0023
v 0.2826344 0.6781654 24.00229
v -11.71737 -16.72183 24.00229
v 0.2265444 -16.5793 11.99544
v 0.2826344 0.6781654 24.00229
v 0.2265439 -2.334835 11.99546
v 0.282634 -16.72183 24.00229
v -11.71737 0.6781654 24.0023
v -12.23012 -13.83107 12.03263
v -12.04535 -2.32832 -0.09296799
v -11.71737 -16.72183 24.00229
v -11.74754 -7.12183 -12.01967
v 0.2976479 -16.73623 -12.01967
v -11.74754 -16.73623 -12.01967
v 0.2976481 -7.12183 -12.01967
v -11.74754 -7.12183 -12.01967
v -11.74754 -16.73623 -12.01967
v -11.74754 -16.73622 -24.01967
v 0.2976481 -16.73623 -24.01967
v -11.74754 -7.12183 -12.01967
v -11.74754 -16.73622 -24.01967
v 0.2976481 -7.12183 -12.01967
v 12.38718 21.67817 11.98033
v 0.2524503 11.96821 11.98033
v 12.38718 11.9682 11.98034
v 0.2524507 21.67817 11.98033
v 0.2524503 11.96821 11.98033
v 0.2524507 21.67817 11.98033
v 0.2524505 11.96821 23.98033
v 0.2524505 11.96821 23.98033
v 12.38718 21.67817 11.98033
v 12.38718 11.96822 23.98033
v 0.2524507 21.67817 11.98033
v -12.12433 -26.32182 -12.01967
v -12.12433 -35.96866 -24.01967
v -12.12433 -35.96866 -12.01966
v -12.12433 -26.32183 -24.01968
v -12.12433 -26.32182 -12.01967
v -12.12433 -35.96866 -12.01966
v -24.12432 -35.96866 -12.01967
v -12.12433 -35.96866 -24.01967
v -12.12433 -26.32183 -24.01968
v -24.12432 -35.96866 -24.01967
v -24.12432 -35.96866 -24.01967
v -12.12433 -26.32182 -12.01967
v -24.12432 -35.96866 -12.01967
v -12.12433 -26.32183 -24.01968
v -11.74755 -26.32183 11.98033
v -24.03393 -35.96866 11.98033
v -11.74755 -35.96866 11.98033
v -24.03393 -26.32183 11.98033
v -11.74755 -26.32183 11.98033
v -11.74755 -35.96866 11.98033
v -11.74755 -35.96867 23.98033
v -24.03393 -35.96866 11.98033
v -24.03393 -26.32183 11.98033
v -24.03393 -35.96866 23.98033
v -24.03393 -35.96866 23.98033
v -11.74755 -26.32183 11.98033
v -11.74755 -35.96867 23.98033
v -24.03393 -26.32183 11.98033
v -24.01889 -2.059597 -12.06204
v -12.04535 -2.32832 -0.09296799
v -24.0189 -2.334827 -0.1061668
v 0.3249575 -2.059589 -12.06204
v -12.04535 -2.32832 -0.09296799
v -24.01889 -2.059597 -12.06204
v 0.2524505 -2.321827 0.07113266
v 12.25245 12.07817 -0.01967239
v 0.2524503 11.96821 11.98033
v 0.2524507 12.07817 -0.01967239
v 12.25245 11.9682 11.98034
v -12.20935 12.13137 -0.000995636
v -11.71737 12.07817 12.00231
v 0.2524507 12.07817 -0.01967239
v -12.04535 -2.32832 -0.09296799
v 0.2524507 12.07817 -0.01967239
v -12.20935 12.13137 -0.000995636
v 0.2524505 -2.321827 0.07113266
v 0.2976479 -16.73623 -12.01967
v -11.74754 -16.73622 -24.01967
v -11.74754 -16.73623 -12.01967
v 0.2976481 -16.73623 -24.01967
v 12.33555 -16.83381 -12.09922
v 24.12432 -16.5793 11.99545
v 24.12432 -16.83382 -12.09921
v 0.2265444 -16.5793 11.99544
v 0.2976479 -16.73623 -12.01967
v 0.2265444 -16.5793 11.99544
v 12.25245 -16.72184 -24.01966
v 0.2976479 -16.73623 -12.01967
v 12.33555 -16.83381 -12.09922
v 0.2524576 -16.73623 -24.01967
v -12.12433 -35.96866 -24.01967
v -24.12432 -35.96866 -12.01967
v -12.12433 -35.96866 -12.01966
v -24.12432 -35.96866 -24.01967
v -24.03393 -35.96866 11.98033
v -11.74755 -35.96867 23.98033
v -11.74755 -35.96866 11.98033
v -24.03393 -35.96866 23.98033
v -12.23012 -13.83107 12.03263
v -12.23012 -31.02033 12.27394
v -12.23012 -16.79414 12.082
v -12.23012 -13.83107 12.03263
v -11.71737 -16.72183 24.00229
v -12.23012 -16.79414 12.082
v -11.71737 -16.72183 24.00229
v 0.2265444 -16.5793 11.99544
v -12.23012 -16.79414 12.082
v 0.282634 -16.72183 24.00229
v 0.2265444 -16.5793 11.99544
v -12.23012 -16.5793 -12.06204
v 0.2265444 -16.5793 -12.06097
v -12.23012 -31.02033 12.27394
v -12.23012 -16.5793 -12.06204
v -12.23012 -31.14007 -12.06203
v -12.23012 -16.79414 12.082
v -12.23012 -31.02033 12.27394
v -12.23012 -36.08267 -12.06203
v -12.23012 -36.0228 12.31488
v -12.23012 -31.14007 -12.06203
v -12.23012 -36.0228 12.31488
v -24.01889 -36.08065 -12.06202
v -24.01889 -36.08065 12.35582
v -12.23012 -36.08267 -12.06203
vt 0.1086004 0.8947852
vt 0.1086004 0.9040514
vt 0.1086004 0.8955963
vt 0.1086004 0.9040514
vt 0.1086004 0.9237602
vt 0.1066832 0.9138049
vt 0.1086004 0.923782
vt 0.1009181 0.9133949
vt 0.1086004 0.8955963
vt 0.1086004 0.9040514
vt 0.1009317 0.8955963
vt 0.1009317 0.922756
vt 0.1066832 0.9138049
vt 0.1009317 0.9144155
vt 0.1086004 0.923782
vt 0.1086004 0.9237602
vt 0.1009317 0.9290424
vt 0.1009317 0.9290206
vt 0.1086004 0.923782
vt 0.1009181 0.9133949
vt 0.1086004 0.9040514
vt 0.1086004 0.9237602
vt 0.1009317 0.9290206
vt 0.1009317 0.9144155
vt 0.1009181 0.9133949
vt 0.1009317 0.922756
vt 0.1009317 0.9290206
vt 0.1009317 0.922756
vt 0.1009181 0.9133949
vt 0.1009317 0.9290424
vt 0.1009317 0.922756
vt 0.1009317 0.9290424
vt 0.1086004 0.923782
vt 0.1066832 0.9138049
vt 0.1086004 0.9040514
vt 0.1009317 0.9144155
vt 0.09305458 0.9127611
vt 0.09305458 0.9040512
vt 0.1086004 0.8947852
vt 0.09305458 0.9040512
vt 0.1086004 0.9040514
vt 0.09305458 0.8947852
vt 0.09305458 0.9040512
vt 0.09305458 0.9128416
vt 0.09305458 0.9127611
vt 0.081117 0.9018691
vt 0.07728264 0.9040514
vt 0.07728264 0.8965729
vt 0.07728264 0.8853132
vt 0.07728264 0.8853911
vt 0.08507158 0.9040555
vt 0.07728264 0.8965729
vt 0.07728264 0.9040514
vt 0.08495139 0.8965729
vt 0.08495139 0.8965729
vt 0.07728264 0.8853911
vt 0.07728264 0.8965729
vt 0.08495139 0.8946454
vt 0.08495139 0.8853911
vt 0.081117 0.9018691
vt 0.08495139 0.8853132
vt 0.08495139 0.8947852
vt 0.07728264 0.8853132
vt 0.08495139 0.8947852
vt 0.09282844 0.9042304
vt 0.081117 0.9018691
vt 0.09282844 0.8947852
vt 0.2984955 0.8298847
vt 0.3113868 0.8244798
vt 0.3113868 0.8298847
vt 0.2984955 0.8244821
vt 0.2984955 0.8244821
vt 0.2984955 0.8300157
vt 0.2984955 0.8244821
vt 0.2984955 0.8298847
vt 0.3113868 0.8300157
vt 0.2984955 0.8244821
vt 0.2984955 0.8300157
vt 0.3113868 0.8245453
vt 0.09307145 0.9134272
vt 0.09307145 0.9040598
vt 0.09307145 0.9050356
vt 0.09307145 0.9134272
vt 0.1008776 0.9134272
vt 0.1008776 0.9050356
vt 0.1008776 0.9040598
vt 0.1008776 0.9134272
vt 0.09307145 0.9050356
vt 0.1008776 0.9134272
vt 0.09307145 0.9134272
vt 0.1008776 0.9050356
vt 0.09307145 0.9134272
vt 0.1008776 0.9134272
vt 0.09307145 0.9134272
vt 0.1008776 0.9134272
vt 0.09307145 0.8946925
vt 0.1008776 0.9050356
vt 0.09307145 0.9050356
vt 0.1008776 0.8946924
vt 0.09307145 0.8946925
vt 0.09307145 0.9050356
vt 0.09307145 0.9040598
vt 0.09307145 0.8946925
vt 0.1008776 0.9050356
vt 0.1009317 0.8955963
vt 0.1008776 0.9040598
vt 0.1008776 0.8946924
vt 0.09309109 0.9134272
vt 0.09305458 0.9040512
vt 0.09309109 0.9050356
vt 0.08528493 0.9134272
vt 0.08528493 0.9050356
vt 0.08507158 0.9040555
vt 0.08528493 0.9134272
vt 0.09309109 0.9050356
vt 0.08528493 0.9134272
vt 0.09309109 0.9134272
vt 0.08528493 0.9050356
vt 0.09309109 0.8946925
vt 0.08528493 0.9050356
vt 0.09309109 0.9050356
vt 0.08528493 0.8946925
vt 0.09305458 0.8947852
vt 0.09309109 0.9050356
vt 0.09305458 0.9040512
vt 0.09309109 0.8946925
vt 0.08528493 0.9050356
vt 0.08495139 0.8965729
vt 0.08507158 0.9040555
vt 0.08528493 0.8946925
vt 0.2326198 0.9064847
vt 0.2574674 0.8865767
vt 0.2326198 0.8865767
vt 0.2574674 0.9064847
vt 0.2326198 0.9064847
vt 0.2326198 0.8865767
vt 0.2326198 0.8896976
vt 0.2574674 0.8896976
vt 0.2326198 0.9064847
vt 0.2326198 0.8896976
vt 0.2574674 0.9064847
vt 0.2631677 0.9100317
vt 0.2308189 0.8838563
vt 0.2631677 0.8838563
vt 0.2308189 0.9100317
vt 0.2308189 0.8838563
vt 0.2308189 0.9100317
vt 0.2308189 0.8880481
vt 0.2308189 0.8880481
vt 0.2631677 0.9100317
vt 0.2631677 0.8880481
vt 0.2308189 0.9100317
vt 0.2631677 0.9099466
vt 0.2631677 0.8839413
vt 0.2631677 0.8839413
vt 0.2631677 0.9099466
vt 0.2631677 0.9099466
vt 0.2631677 0.8839413
vt 0.2308189 0.8880481
vt 0.2631677 0.8839413
vt 0.2631677 0.9099466
vt 0.2308189 0.8880481
vt 0.2308189 0.8880481
vt 0.2631677 0.9099466
vt 0.2308189 0.8880481
vt 0.2631677 0.9099466
vt 0.2631677 0.9099466
vt 0.2308189 0.8839413
vt 0.2631677 0.8839413
vt 0.2308189 0.9099466
vt 0.2631677 0.9099466
vt 0.2631677 0.8839413
vt 0.2631677 0.8880481
vt 0.2308189 0.8839413
vt 0.2308189 0.9099466
vt 0.2308189 0.8880481
vt 0.2308189 0.8880481
vt 0.2631677 0.9099466
vt 0.2631677 0.8880481
vt 0.2308189 0.9099466
vt 0.081117 0.9018691
vt 0.08507158 0.9040555
vt 0.07728264 0.9040514
vt 0.09282844 0.9042304
vt 0.08507158 0.9040555
vt 0.081117 0.9018691
vt 0.09307145 0.9040598
vt 0.1008776 0.9134272
vt 0.09307145 0.9133556
vt 0.09307145 0.9134272
vt 0.1008776 0.9133556
vt 0.08528493 0.9134272
vt 0.08528493 0.9134272
vt 0.09307145 0.9134272
vt 0.08507158 0.9040555
vt 0.09307145 0.9134272
vt 0.08528493 0.9134272
vt 0.09307145 0.9040598
vt 0.2574674 0.8865767
vt 0.2326198 0.8896976
vt 0.2326198 0.8865767
vt 0.2574674 0.8896976
vt 0.1009317 0.8955963
vt 0.1086004 0.8947852
vt 0.1086004 0.8955963
vt 0.09305458 0.8947852
vt 0.09325077 0.8946196
vt 0.09305458 0.8947852
vt 0.1008776 0.8946924
vt 0.09325077 0.8946196
vt 0.1009317 0.8955963
vt 0.09307145 0.8946925
vt 0.2631677 0.8839413
vt 0.2308189 0.8880481
vt 0.2631677 0.8839413
vt 0.2308189 0.8880481
vt 0.2308189 0.8839413
vt 0.2631677 0.8880481
vt 0.2631677 0.8839413
vt 0.2308189 0.8880481
vt 0.08495139 0.8965729
vt 0.08495139 0.8853911
vt 0.08495139 0.8946454
vt 0.08495139 0.8965729
vt 0.08528493 0.8946925
vt 0.08495139 0.8946454
vt 0.08528493 0.8946925
vt 0.09305458 0.8947852
vt 0.08495139 0.8946454
vt 0.09309109 0.8946925
vt 0.09305458 0.8947852
vt 0.08495139 0.8947852
vt 0.09305458 0.8947852
vt 0.08495139 0.8853911
vt 0.08495139 0.8947852
vt 0.08495139 0.8853132
vt 0.08495139 0.8946454
vt 0.3113868 0.8300157
vt 0.3113868 0.8244798
vt 0.3113868 0.8245453
vt 0.3113868 0.8298847
vt 0.3113868 0.8245453
vt 0.2984955 0.8244821
vt 0.2984955 0.8244821
vt 0.3113868 0.8244798
vn 1 0 0
vn 1 0 0
vn 1 0 0
vn 1 0 0
vn 1 0 0
vn 1 0 0
vn 1 0 0
vn 0.0008398725 0.7252192 -0.6885176
vn 0.0008398725 0.7252192 -0.6885176
vn 0.0008398725 0.7252192 -0.6885176
vn 0.0008398725 0.7252192 -0.6885176
vn 0 0.7297913 0.68367
vn 0 0.6396176 0.7686933
vn 0 0.6396175 0.7686933
vn 0 0.7297913 0.68367
vn 0.4833665 0.8754147 -0.002437718
vn 0.4833665 0.8754147 -0.002437718
vn 0.4833665 0.8754147 -0.002437718
vn 0.4833665 0.8754147 -0.002437718
vn 0.000929427 0.000381768 -0.9999995
vn 0.000929427 0.000381768 -0.9999995
vn 0.000929427 0.000381768 -0.9999995
vn -0.0003918953 -0.001418335 -0.9999989
vn -0.9999989 0.000961325 0.001155312
vn -1 0 0
vn -1 0 0
vn -1 0 0
vn -1 0 0
vn -1 0 0
vn -1 0 0
vn 0.0003912822 0.001415962 0.9999989
vn 0.0003912822 0.001415962 0.9999989
vn 0.0003912822 0.001415962 0.9999989
vn 0 -0.6418915 0.7667955
vn 0 -0.6418915 0.7667955
vn 0 -0.6418915 0.7667955
vn 0.000249081 -0.6420146 0.7666923
vn 0.000249081 -0.6420147 0.7666923
vn 0 0 1
vn 0 0 1
vn 0 0 1
vn 0 0 1
vn -0.9999983 0.001811245 0
vn -0.9999983 0.001811245 0
vn -0.9999983 0.001811245 0
vn -1 0 0
vn -1 0 0
vn -1 0 0
vn -1 0 0
vn -1 0 0
vn -0.0005808658 0.7257804 0.6879261
vn -0.0005808658 0.7257804 0.6879261
vn -0.0005808658 0.7257804 0.6879261
vn -0.0005808658 0.7257804 0.6879261
vn -0.0005623241 0.01442301 0.9998958
vn -0.0005623241 0.01442301 0.9998958
vn -0.0005623241 0.01442301 0.9998958
vn -0.0005623241 0.01442301 0.9998958
vn 0 0.01349081 0.999909
vn 0 0 -1
vn 0 0 -1
vn 0 0 -1
vn 0 0 -1
vn 0 0 -1
vn 0 0 -1
vn 0 0 -1
vn 0 0 -1
vn 0 0 -1
vn 0 0 -1
vn 0 0 -1
vn 0 0 -1
vn -1 0 0
vn -1 0 0
vn -1 0 0
vn -1 0 0
vn 0.001706947 0.01220424 0.9999241
vn 0.001706947 0.01220424 0.9999241
vn 0.001706947 0.01220424 0.9999241
vn 0.001706947 0.01220424 0.9999241
vn -1 0 0
vn -1 0 0
vn -1 0 0
vn -1 0 0
vn 1 0 0
vn 1 0 0
vn 1 0 0
vn 1 0 0
vn 0 0.7249994 -0.6887496
vn 0 0.7249994 -0.6887496
vn 0 0.7249994 -0.6887496
vn 0 0.7249994 -0.6887496
vn 0 1 0
vn 0 1 0
vn 0 1 0
vn 0 1 0
vn 0 0 -1
vn 0 0 -1
vn 0 0 -1
vn 0 0 -1
vn -1 0 0
vn -1 0 0
vn -1 0 0
vn -1 0 0
vn 0.99999 0.003840159 -0.00229547
vn 0.99999 0.003840159 -0.00229547
vn 0.99999 0.003840159 -0.00229547
vn 0.99999 0.003840159 -0.00229547
vn 0.9999815 -0.003889365 -0.004667244
vn 0.9999857 -0.003889838 -0.003695367
vn 0.9999815 -0.003889365 -0.004667244
vn -0.9996505 0.02266877 0.01360122
vn -0.9996505 0.02266877 0.01360122
vn -0.9996505 0.02266877 0.01360122
vn -1 0 0
vn 0 0.7249995 0.6887494
vn 0 0.7249995 0.6887494
vn 0 0.7249995 0.6887494
vn 0 0.7249995 0.6887494
vn 0 0 1
vn 0 0 1
vn 0 0 1
vn 0 0 1
vn 0.9999892 0 -0.004671452
vn 0.9999892 0 -0.004671452
vn 0.9999892 0 -0.004671461
vn 0.9999892 0 -0.004671452
vn -0.9995168 0.01873853 0.02479919
vn -0.9995168 0.01873853 0.02479919
vn -0.9995168 0.01873853 0.02479919
vn -0.9995168 0.01873853 0.02479919
vn 0 0 1
vn 0 0 1
vn 0 0 1
vn 0 0 1
vn -1 0 0
vn -1 0 0
vn -1 0 0
vn 0 0.876216 -0.4819187
vn 0 0.876216 -0.4819187
vn 0 0.876216 -0.4819187
vn 0 0.876216 -0.4819187
vn 0 0 -1
vn 0 0 -1
vn 0 0 -1
vn 0 0 -1
vn -1 0 0
vn -1 0 0
vn -1 0 0
vn 0 0.8762161 0.4819184
vn 0 0.8762161 0.4819184
vn 0 0.8762161 0.4819184
vn 0 0.8762161 0.4819184
vn 1 0 0
vn 1 0 0
vn 1 0 0
vn 1 0 0
vn 0 0 1
vn 0 0 1
vn 0 0 1
vn 0 0 -1
vn 0 0 -1
vn 0 0 -1
vn -0.48192 0.8762153 0
vn -0.48192 0.8762153 0
vn -0.48192 0.8762153 0
vn -0.4819195 0.8762155 0
vn 0 0 -1
vn 0 0 -1
vn 0 0 -1
vn 0 0 -1
vn 1 0 0
vn 1 0 0
vn 1 0 0
vn -1 0 0
vn -1 0 0
vn -1 0 0
vn 0 0.876216 0.4819187
vn 0 0.876216 0.4819187
vn 0 0.876216 0.4819187
vn 0 0.8762156 0.4819192
vn -0.0002867581 0.9997415 0.02273279
vn -0.0002867581 0.9997415 0.02273279
vn -0.0002867581 0.9997415 0.02273279
vn -0.0004140935 0.9997571 0.02203413
vn -0.0004140935 0.9997571 0.02203413
vn -0.0004140935 0.9997571 0.02203413
vn -0.0004140935 0.9997571 0.02203413
vn 0 0.999958 0.009161665
vn 0 0.999958 0.009161665
vn 0 0.999958 0.009161665
vn 0 0.999958 0.009161665
vn 0.004601001 0.9999789 0.004582284
vn 0.004601001 0.9999789 0.004582284
vn 0.004601001 0.9999789 0.004582284
vn 0.005856253 8.85219E-05 -0.9999828
vn 0.005856253 8.85219E-05 -0.9999828
vn 0.005856253 8.85219E-05 -0.9999828
vn 0.005856253 8.85219E-05 -0.9999828
vn 0 -1 0
vn 0 -1 0
vn 0 -1 0
vn 0 -1 0
vn 0 -0.9999442 0.01056283
vn 0 -0.9999442 0.01056283
vn 0 -0.9999442 0.01056283
vn 0 -0.9999442 0.01056283
vn 0 -0.9999442 0.01056239
vn 0 -0.9999442 0.01056239
vn 0 -0.9999559 -0.009392879
vn 0 -0.9999559 -0.009392879
vn 0 -0.9999559 -0.009392879
vn 0 -0.9999559 -0.009392879
vn 0 -1 0
vn 0 -1 0
vn 0 -1 0
vn 0 -1 0
vn 0 -1 0
vn 0 -1 0
vn 0 -1 0
vn 0 -1 0
vn 1 0 -8.039575E-05
vn 1 0 -8.039575E-05
vn 1 0 -8.039575E-05
vn -0.999076 0.0007155349 0.04297115
vn -0.999076 0.0007155349 0.04297115
vn -0.999076 0.0007155349 0.04297115
vn 0.008772855 -0.9999566 -0.003142005
vn 0.008772855 -0.9999566 -0.003142005
vn 0.008772855 -0.9999566 -0.003142005
vn 0.008772855 -0.9999566 -0.003142005
vn 0.008607642 -0.999953 -0.004457143
vn 0.008607642 -0.999953 -0.004457143
vn 0.008607642 -0.999953 -0.004457143
vn 1 0 0
vn 1 0 0
vn 1 0 0
vn 1 0 0
vn 1 0 0
vn 1 0 0
vn 1 0 0
vn 1 0 0
vn 0.002369811 -0.9999964 0.001226799
vn 0.002369811 -0.9999964 0.001226799
vn 0.002369811 -0.9999964 0.001226799
vn 0.002369811 -0.9999964 0.001226799
g polySurface27_0
f 3/3/3 2/2/2 1/1/1
f 2/2/2 4/4/4 1/1/1
f 2/2/2 5/5/5 4/4/4
f 5/5/5 6/6/6 4/4/4
f 5/5/5 7/7/7 6/6/6
f 10/10/10 9/9/9 8/8/8
f 9/9/9 11/11/11 8/8/8
f 14/14/14 13/13/13 12/12/12
f 13/13/13 15/15/15 12/12/12
f 18/18/18 17/17/17 16/16/16
f 17/17/17 19/19/19 16/16/16
f 22/22/22 21/21/21 20/20/20
f 20/20/20 23/23/23 22/22/22
f 26/26/26 25/25/25 24/24/24
f 29/29/29 28/28/28 27/27/27
f 28/28/28 30/30/30 27/27/27
f 33/33/33 32/32/32 31/31/31
f 36/36/36 35/35/35 34/34/34
f 36/36/36 37/37/37 35/35/35
f 37/37/37 38/38/38 35/35/35
f 41/41/41 40/40/40 39/39/39
f 40/40/40 42/42/42 39/39/39
f 45/45/45 44/44/44 43/43/43
f 48/48/48 47/47/47 46/46/46
f 48/48/48 46/46/46 49/49/49
f 50/50/50 48/48/48 49/49/49
f 53/53/53 52/52/52 51/51/51
f 52/52/52 54/54/54 51/51/51
f 57/57/57 56/56/56 55/55/55
f 56/56/56 58/58/58 55/55/55
f 56/56/56 59/59/59 58/58/58
f 62/62/62 61/61/61 60/60/60
f 61/61/61 63/63/63 60/60/60
f 66/66/66 65/65/65 64/64/64
f 65/65/65 67/67/67 64/64/64
f 70/70/70 69/69/69 68/68/68
f 69/69/69 71/71/71 68/68/68
f 74/74/74 73/73/73 72/72/72
f 73/73/73 75/75/75 72/72/72
f 78/78/78 77/77/77 76/76/76
f 77/77/77 79/79/79 76/76/76
f 82/82/82 81/81/81 80/80/80
f 81/81/81 83/83/83 80/80/80
f 86/86/86 85/85/85 84/84/84
f 85/85/85 87/87/87 84/84/84
f 90/90/90 89/89/89 88/88/88
f 89/89/89 91/91/91 88/88/88
f 94/94/94 93/93/93 92/92/92
f 93/93/93 95/95/95 92/92/92
f 98/98/98 97/97/97 96/96/96
f 97/97/97 99/99/99 96/96/96
f 102/102/102 101/101/101 100/100/100
f 101/101/101 103/103/103 100/100/100
f 106/106/106 105/105/105 104/104/104
f 105/105/105 107/107/107 104/104/104
f 110/110/110 109/109/109 108/108/108
f 113/113/113 112/112/112 111/111/111
f 112/112/112 114/114/114 111/111/111
f 117/117/117 116/116/116 115/115/115
f 116/116/116 118/118/118 115/115/115
f 121/121/121 120/120/120 119/119/119
f 120/120/120 122/122/122 119/119/119
f 125/125/125 124/124/124 123/123/123
f 124/124/124 126/126/126 123/123/123
f 129/129/129 128/128/128 127/127/127
f 128/128/128 130/130/130 127/127/127
f 133/133/133 132/132/132 131/131/131
f 131/131/131 132/132/132 134/134/134
f 137/137/137 136/136/136 135/135/135
f 140/140/140 139/139/139 138/138/138
f 138/138/138 139/139/139 141/141/141
f 144/144/144 143/143/143 142/142/142
f 142/142/142 143/143/143 145/145/145
f 148/148/148 147/147/147 146/146/146
f 151/151/151 150/150/150 149/149/149
f 149/149/149 150/150/150 152/152/152
f 155/155/155 154/154/154 153/153/153
f 153/153/153 154/154/154 156/156/156
f 159/159/159 158/158/158 157/157/157
f 162/162/162 161/161/161 160/160/160
f 165/165/165 164/164/164 163/163/163
f 163/163/163 164/164/164 166/166/166
f 169/169/169 168/168/168 167/167/167
f 167/167/167 168/168/168 170/170/170
f 173/173/173 172/172/172 171/171/171
f 176/176/176 175/175/175 174/174/174
f 179/179/179 178/178/178 177/177/177
f 177/177/177 178/178/178 180/180/180
f 183/183/183 182/182/182 181/181/181
f 186/186/186 185/185/185 184/184/184
f 185/185/185 187/187/187 184/184/184
f 190/190/190 189/189/189 188/188/188
f 189/189/189 191/191/191 188/188/188
f 193/193/193 189/189/189 192/192/192
f 189/189/189 194/194/194 192/192/192
f 197/197/197 196/196/196 195/195/195
f 196/196/196 198/198/198 195/195/195
f 201/201/201 200/200/200 199/199/199
f 200/200/200 202/202/202 199/199/199
f 205/205/205 204/204/204 203/203/203
f 204/204/204 206/206/206 203/203/203
f 208/208/208 207/207/207 203/203/203
f 211/211/211 210/210/210 209/209/209
f 210/210/210 212/212/212 209/209/209
f 215/215/215 214/214/214 213/213/213
f 214/214/214 216/216/216 213/213/213
f 219/219/219 218/218/218 217/217/217
f 218/218/218 220/220/220 217/217/217
f 223/223/223 222/222/222 221/221/221
f 226/226/226 225/225/225 224/224/224
f 229/229/229 228/228/228 227/227/227
f 228/228/228 230/230/230 227/227/227
f 229/229/229 232/232/232 231/231/231
f 232/232/232 233/233/233 231/231/231
f 236/236/236 235/235/235 234/234/234
f 235/235/235 237/237/237 234/234/234
f 240/240/240 239/239/239 238/238/238
f 239/239/239 241/241/241 238/238/238
f 244/244/244 243/243/243 242/242/242
f 243/243/243 245/245/245 242/242/242
