g polySurface59
v -23.66276 14.44887 -26.59475
v 0.3561764 -14.41656 -26.5139
v -11.65934 14.44887 -26.59682
v -23.66469 -14.38384 -26.55433
v 0.3561764 -14.41656 -26.5139
v -11.72341 14.3287 -14.58628
v -11.65934 14.44887 -26.59682
v -11.72341 14.3287 -2.652865
v 0.3561764 -14.41656 -2.438457
v -23.66276 14.44887 -26.59475
v -23.63684 -14.49363 21.48104
v -23.66469 -14.38384 -26.55433
v -23.6483 14.38916 -14.65776
v -23.63365 14.3287 -2.568851
v -23.66661 -28.77709 -26.5139
v 0.3561764 -33.55113 -26.5139
v 0.3561764 -28.77709 -26.5139
v -23.67182 -33.55113 -26.5139
v 0.3561764 -33.55113 -26.5139
v 0.356184 -28.77709 21.43449
v 0.3561764 -28.77709 -26.5139
v 0.3561764 -33.55113 21.43449
v -23.66469 -14.38384 -26.55433
v 0.3561764 -28.77709 -26.5139
v 0.3561764 -14.41656 -26.5139
v -23.66661 -28.77709 -26.5139
v 0.3561764 -14.41656 -2.438457
v 0.3561764 -14.41656 -26.5139
v 0.3561764 -28.77709 -26.5139
v 0.356184 -28.77709 21.43449
v 0.3561764 -14.41656 21.43449
v -11.92579 -14.49363 -2.573672
v 0.3561764 -14.41656 21.43449
v -11.81977 -14.49363 21.48104
v 0.3561764 -14.41656 -2.438457
v -23.58333 33.55113 -14.62414
v -11.72341 14.3287 -14.58628
v -11.78748 33.55113 -14.60389
v -23.6483 14.38916 -14.65776
v -11.72341 14.3287 -2.652865
v -11.78748 33.55113 -14.60389
v -11.72341 14.3287 -14.58628
v -11.78748 33.55113 21.57448
v -11.81977 -14.49363 21.48104
v -11.92579 -14.49363 -2.573672
v -11.78748 33.55113 -14.60389
v -23.57626 33.55113 21.57448
v -23.58333 33.55113 -14.62414
v -11.78748 33.55113 21.57448
v -23.6483 14.38916 -14.65776
v -23.66276 14.44887 -26.59475
v -23.65935 24.04887 -14.59681
v -11.65934 14.44887 -26.59682
v -11.65934 14.39825 -14.59682
v -11.65934 24.04887 -14.59682
v -11.65934 14.44887 -26.59682
v -23.65935 24.04887 -14.59681
v -23.66276 14.44887 -26.59475
v -11.65934 24.04887 -14.59682
v -23.67182 -33.55113 -26.5139
v 0.3561764 -33.55113 21.43449
v 0.3561764 -33.55113 -26.5139
v -23.67703 -33.55113 21.43449
v -23.67703 -28.77709 21.43449
v -23.67182 -14.41656 21.43449
v -11.81977 -14.49363 21.48104
v 0.356184 -28.77709 21.43449
v 0.3561764 -14.41656 21.43449
v 0.3561764 -33.55113 21.43449
v -23.67703 -28.77709 21.43449
v 0.356184 -28.77709 21.43449
v -23.67703 -33.55113 21.43449
v -23.67703 -28.77709 21.43449
v -23.67182 -33.55113 -26.5139
v -23.66661 -28.77709 -26.5139
v -23.67703 -33.55113 21.43449
v -23.67703 -28.77709 21.43449
v -23.66469 -14.38384 -26.55433
v -23.63684 -14.49363 21.48104
v -23.66661 -28.77709 -26.5139
v -23.67182 -14.41656 21.43449
v -11.78748 33.55113 21.57448
v -23.57626 33.55113 21.57448
v -23.60455 33.55113 21.57448
v -11.81977 -14.49363 21.48104
v -23.57626 33.55113 21.57448
v -11.78748 33.55113 21.57448
v -23.63684 -14.49363 21.48104
v -23.57626 33.55113 21.57448
v -23.58333 33.55113 -14.62414
v -23.60455 33.55113 21.57448
v -23.63365 14.3287 -2.568851
v -23.63684 -14.49363 21.48104
v -23.63365 14.3287 -2.568851
v -23.57626 33.55113 21.57448
v -23.63365 14.3287 -2.568851
v -23.6483 14.38916 -14.65776
v -23.58333 33.55113 -14.62414
v 0.4752483 -3.930141 13.29893
v -2.749441 -3.930141 5.416433
v 2.231115 -3.930141 11.95161
v -4.505306 -3.930141 6.763758
v 5.081308 -4.942436 22.35062
v 3.026476 -3.589563 9.594195
v 9.766581 -4.942438 18.75549
v -1.788157 -3.589563 13.28859
v 10.24894 -6.711401 26.59682
v 12.65794 -6.71162 24.74834
v 7.005136 -6.053349 5.157905
v -1.397371 -6.053349 1.934115
v 7.198034 -6.053349 2.953105
v -1.590265 -6.053349 4.138915
v 16.79055 -7.065643 7.877191
v 5.997305 -5.71277 0.7740583
v 17.30527 -7.065645 1.994012
v 5.468382 -5.71277 6.819677
v 23.41238 -8.834608 6.935907
v 23.67703 -8.834827 3.910985
v 4.100767 -2.268955 -4.724183
v -3.802425 -2.268955 -0.418067
v 2.535784 -2.268955 -6.28917
v -2.23744 -2.268955 1.146916
v 12.4738 -3.28125 -10.47233
v 0.09472466 -1.928377 -6.77002
v 8.297876 -3.281252 -14.64825
v 4.38595 -1.928377 -2.478795
v 16.00917 -5.050215 -16.14998
v 13.86206 -5.050434 -18.2971
v -9.871868 -14.61838 2.994305
v -4.946045 2.529949 7.920128
v -4.946045 -14.61838 7.920128
v -9.871868 2.529949 2.994305
v -0.02022362 2.529949 2.994306
v -0.02022362 -14.61838 2.994306
v -4.946045 2.529949 -1.931519
v -4.946045 -14.61838 -1.931519
v -9.871868 2.529949 2.994305
v -0.02022362 2.529949 2.994306
v -4.946045 2.529949 7.920128
v -4.946045 2.529949 -1.931519
vt 0.08787063 0.9103637
vt 0.1112564 0.8837661
vt 0.09956519 0.9103637
vt 0.08787063 0.8823047
vt 0.1112564 0.8837661
vt 0.09956519 0.9103637
vt 0.09956519 0.9103637
vt 0.09956519 0.9103637
vt 0.1112564 0.8837661
vt 0.08787063 0.9103637
vt 0.08788683 0.8822016
vt 0.08787063 0.8823047
vt 0.08788472 0.9103055
vt 0.08789897 0.9102466
vt 0.3117512 0.9064901
vt 0.3207308 0.9047057
vt 0.3207308 0.9064901
vt 0.3117493 0.9047057
vt 0.3207308 0.9047057
vt 0.3207308 0.9064901
vt 0.3207308 0.9064901
vt 0.3207308 0.9047057
vt 0.2892935 0.8333381
vt 0.3133965 0.8189296
vt 0.3133965 0.8333381
vt 0.2892935 0.8189296
vt 0.3133965 0.8333381
vt 0.3133965 0.8333381
vt 0.3133965 0.8189296
vt 0.3133965 0.8189296
vt 0.3133965 0.8333381
vt 0.3010735 0.8332608
vt 0.3133965 0.8333381
vt 0.3011799 0.8332608
vt 0.3133965 0.8333381
vt 0.08793938 0.9267027
vt 0.09944035 0.9101294
vt 0.09944035 0.9267027
vt 0.08788472 0.9103055
vt 0.09944035 0.9101294
vt 0.09944035 0.9267027
vt 0.09944035 0.9101294
vt 0.09944035 0.918416
vt 0.09940888 0.8821659
vt 0.09930559 0.8821659
vt 0.09944035 0.9267027
vt 0.08795491 0.9289744
vt 0.08793938 0.9267027
vt 0.09944035 0.918416
vt 0.2193384 0.8788684
vt 0.2193384 0.8848872
vt 0.2193384 0.916949
vt 0.2666895 0.8848872
vt 0.2666895 0.8788684
vt 0.2666895 0.916949
vt 0.2666895 0.8848872
vt 0.2193384 0.916949
vt 0.2193384 0.8848872
vt 0.2666895 0.916949
vt 0.3117493 0.9047057
vt 0.3207308 0.9047057
vt 0.3207308 0.9047057
vt 0.3117474 0.9047057
vt 0.289283 0.8189296
vt 0.2892882 0.8333381
vt 0.3011799 0.8332608
vt 0.3133965 0.8189296
vt 0.3133965 0.8333381
vt 0.3207308 0.9047057
vt 0.3117474 0.9064901
vt 0.3207308 0.9064901
vt 0.3117474 0.9047057
vt 0.3117474 0.9064901
vt 0.3117493 0.9047057
vt 0.3117512 0.9064901
vt 0.3117474 0.9047057
vt 0.289283 0.8189296
vt 0.2892935 0.8333381
vt 0.2893047 0.8333342
vt 0.2892935 0.8189296
vt 0.2892882 0.8333381
vt 0.09944035 0.918416
vt 0.08792734 0.9101294
vt 0.08792734 0.9267027
vt 0.09940888 0.8821659
vt 0.08792734 0.9101294
vt 0.09944035 0.918416
vt 0.08788683 0.8822016
vt 0.08792734 0.9101294
vt 0.08793938 0.9267027
vt 0.08792734 0.9267027
vt 0.08789897 0.9102466
vt 0.08788683 0.8822016
vt 0.08789897 0.9102466
vt 0.08792734 0.9101294
vt 0.08789897 0.9102466
vt 0.08788472 0.9103055
vt 0.08793938 0.9267027
vt 0.3104104 0.8834081
vt 0.3210769 0.9118537
vt 0.3185261 0.8826981
vt 0.3129612 0.9125637
vt 0.2975459 0.8952731
vt 0.3111104 0.9158846
vt 0.3087807 0.8942902
vt 0.2995653 0.9168946
vt 0.2993434 0.8826277
vt 0.3051199 0.8821223
vt 0.3104104 0.8834081
vt 0.3210769 0.9118537
vt 0.3185261 0.8826981
vt 0.3129612 0.9125637
vt 0.2975459 0.8952731
vt 0.3111104 0.9158846
vt 0.3087807 0.8942902
vt 0.2995653 0.9168946
vt 0.2993434 0.8826277
vt 0.3051199 0.8821223
vt 0.3104104 0.8834081
vt 0.3210769 0.9118537
vt 0.3185261 0.8826981
vt 0.3129612 0.9125637
vt 0.2975459 0.8952731
vt 0.3111104 0.9158846
vt 0.3087807 0.8942902
vt 0.2995653 0.9168946
vt 0.2993434 0.8826277
vt 0.3051199 0.8821223
vt 0.3189415 0.9187781
vt 0.306263 0.9060996
vt 0.306263 0.9060996
vt 0.3189415 0.9187781
vt 0.3189415 0.8934211
vt 0.3189415 0.8934211
vt 0.3316199 0.9060996
vt 0.3316199 0.9060996
vt 0.3189415 0.9187781
vt 0.3189415 0.8934211
vt 0.306263 0.9060996
vt 0.3316199 0.9060996
vn -0.0001147528 -2.688374E-05 -1
vn -0.0001286737 -4.03256E-05 -1
vn -0.0001739129 -8.06512E-05 -1
vn -8.691111E-05 0 -1
vn 0.9067212 0.4217307 0
vn 0.906684 0.4217133 0.009055693
vn 0.9067212 0.4217307 0
vn 0.9067212 0.4217307 0
vn 0.9067212 0.4217307 0
vn -1 0 0
vn -1 0 0
vn -1 0 0
vn -0.9999998 0.0002510512 0.0006070613
vn -1 0 0
vn 0 0 -1
vn 0 0 -1
vn 0 0 -1
vn 0 0 -1
vn 1 0 0
vn 1 0 0
vn 1 0 0
vn 1 0 0
vn 0 0 -1
vn 0 0 -1
vn 0 0 -1
vn 0 0 -1
vn 1 0 0
vn 1 0 0
vn 1 0 0
vn 1 0 0
vn 1 0 0
vn -0.006302197 0.9999802 1.39021E-05
vn -0.006302197 0.9999802 1.39021E-05
vn -0.006302197 0.9999802 1.39021E-05
vn -0.006302197 0.9999802 1.39021E-05
vn 0 0 -1
vn 0 0 -1
vn 0 0 -1
vn 0 0 -1
vn 0.9999944 0.003297291 0.0006643256
vn 0.9999944 0.003297291 0.0006643256
vn 1 0 0
vn 0.9999968 0.002193889 0.001328731
vn 0.9999913 -0.00408012 -0.000879898
vn 0.9999913 -0.00408012 -0.000879898
vn 0 1 0
vn 0 1 0
vn 0 1 0
vn 0 1 0
vn -1 0 0
vn -1 0 0
vn -1 0 0
vn 1 0 0
vn 1 0 0
vn 1 0 0
vn 0 0.8762158 -0.481919
vn 0 0.8762158 -0.481919
vn 0 0.8762158 -0.481919
vn 0 0.8762158 -0.481919
vn 0 -1 0
vn 0 -1 0
vn 0 -1 0
vn 0 -1 0
vn -0.003927939 0 0.9999924
vn -0.003927939 0 0.9999924
vn -0.003927939 0 0.9999924
vn 0.001290246 -0.002159401 0.9999969
vn 0.001290246 -0.002159401 0.9999969
vn 0 0 1
vn 0 0 1
vn 0 0 1
vn 0 0 1
vn -0.9999999 0.0005458055 -0.000162866
vn -0.9999999 0.0005458055 -0.000162866
vn -0.9999999 0.0005458055 -0.000162866
vn -0.9999999 0.0005458055 -0.000162866
vn -0.9999998 0.0007623456 1.116622E-05
vn -0.9999998 0.0007623456 1.116622E-05
vn -0.9999998 0.0007623456 1.116622E-05
vn -0.9999998 0.0007623456 1.116622E-05
vn -0.9999998 0.0003625242 -0.0006849025
vn 0 0 1
vn 0 0 1
vn 0 0 1
vn 0 -0.001622252 0.9999987
vn 0 -0.001622252 0.9999987
vn 0 -0.001622252 0.9999987
vn 0 -0.001622252 0.9999987
vn -0.9999994 0.0009948913 0.0006068164
vn -0.9999994 0.0009948913 0.0006068164
vn -0.9999994 0.0009948913 0.0006068164
vn -0.9999994 0.0009948913 0.0006068164
vn -0.999999 0.0009404524 0.0009945858
vn -0.999999 0.0009404524 0.0009945858
vn -0.999999 0.0009404524 0.0009945858
vn -0.9999956 0.002994088 2.831513E-05
vn -0.9999956 0.002994088 2.831513E-05
vn -0.9999956 0.002994088 2.831513E-05
vn 0 1 0
vn 0 1 0
vn 0 1 0
vn 0 1 0
vn 0.09624572 0.9874243 0.125419
vn 0.07191912 0.992997 0.09372648
vn 0.09625111 0.9874229 0.125426
vn 0.07191912 0.992997 0.09372648
vn 0.1595532 0.9650505 0.2078951
vn 0.1595532 0.9650505 0.2078952
vn 0 1 0
vn 0 1 0
vn 0 1 0
vn 0 1 0
vn 0.1574914 0.9874243 0.01377149
vn 0.1176904 0.992997 0.01029583
vn 0.1575002 0.9874229 0.01377226
vn 0.1176904 0.992997 0.01029583
vn 0.2610695 0.9650504 0.0228164
vn 0.2610695 0.9650504 0.0228164
vn 0 1 0
vn 0 1 0
vn 0 1 0
vn 0 1 0
vn 0.1117835 0.9874243 -0.1117929
vn 0.08353748 0.992997 -0.0835376
vn 0.1117898 0.9874229 -0.1117991
vn 0.08353748 0.992997 -0.08353759
vn 0.1852906 0.9650505 -0.1853242
vn 0.1852906 0.9650505 -0.1853242
vn -1 0 0
vn 0 0 1
vn 0 0 1
vn -1 0 0
vn 1 0 0
vn 1 0 0
vn 0 0 -1
vn 0 0 -1
vn 0 1 0
vn 0 1 0
vn 0 1 0
vn 0 1 0
g polySurface59_0
f 3/3/3 2/2/2 1/1/1
f 2/2/2 4/4/4 1/1/1
f 7/7/7 6/6/6 5/5/5
f 6/6/6 8/8/8 5/5/5
f 8/8/8 9/9/9 5/5/5
f 12/12/12 11/11/11 10/10/10
f 11/11/11 13/13/13 10/10/10
f 11/11/11 14/14/14 13/13/13
f 17/17/17 16/16/16 15/15/15
f 16/16/16 18/18/18 15/15/15
f 21/21/21 20/20/20 19/19/19
f 20/20/20 22/22/22 19/19/19
f 25/25/25 24/24/24 23/23/23
f 24/24/24 26/26/26 23/23/23
f 29/29/29 28/28/28 27/27/27
f 29/29/29 27/27/27 30/30/30
f 27/27/27 31/31/31 30/30/30
f 34/34/34 33/33/33 32/32/32
f 33/33/33 35/35/35 32/32/32
f 38/38/38 37/37/37 36/36/36
f 37/37/37 39/39/39 36/36/36
f 42/42/42 41/41/41 40/40/40
f 40/40/40 41/41/41 43/43/43
f 40/40/40 43/43/43 44/44/44
f 45/45/45 40/40/40 44/44/44
f 48/48/48 47/47/47 46/46/46
f 47/47/47 49/49/49 46/46/46
f 52/52/52 51/51/51 50/50/50
f 55/55/55 54/54/54 53/53/53
f 58/58/58 57/57/57 56/56/56
f 57/57/57 59/59/59 56/56/56
f 62/62/62 61/61/61 60/60/60
f 61/61/61 63/63/63 60/60/60
f 66/66/66 65/65/65 64/64/64
f 66/66/66 64/64/64 67/67/67
f 68/68/68 66/66/66 67/67/67
f 71/71/71 70/70/70 69/69/69
f 70/70/70 72/72/72 69/69/69
f 75/75/75 74/74/74 73/73/73
f 74/74/74 76/76/76 73/73/73
f 79/79/79 78/78/78 77/77/77
f 78/78/78 80/80/80 77/77/77
f 79/79/79 77/77/77 81/81/81
f 84/84/84 83/83/83 82/82/82
f 87/87/87 86/86/86 85/85/85
f 86/86/86 88/88/88 85/85/85
f 91/91/91 90/90/90 89/89/89
f 90/90/90 92/92/92 89/89/89
f 95/95/95 94/94/94 93/93/93
f 98/98/98 97/97/97 96/96/96
f 101/101/101 100/100/100 99/99/99
f 100/100/100 102/102/102 99/99/99
f 105/105/105 104/104/104 103/103/103
f 104/104/104 106/106/106 103/103/103
f 105/105/105 103/103/103 107/107/107
f 108/108/108 105/105/105 107/107/107
f 111/111/111 110/110/110 109/109/109
f 110/110/110 112/112/112 109/109/109
f 115/115/115 114/114/114 113/113/113
f 114/114/114 116/116/116 113/113/113
f 115/115/115 113/113/113 117/117/117
f 118/118/118 115/115/115 117/117/117
f 121/121/121 120/120/120 119/119/119
f 120/120/120 122/122/122 119/119/119
f 125/125/125 124/124/124 123/123/123
f 124/124/124 126/126/126 123/123/123
f 125/125/125 123/123/123 127/127/127
f 128/128/128 125/125/125 127/127/127
f 131/131/131 130/130/130 129/129/129
f 130/130/130 132/132/132 129/129/129
f 133/133/133 130/130/130 131/131/131
f 134/134/134 133/133/133 131/131/131
f 135/135/135 133/133/133 134/134/134
f 136/136/136 135/135/135 134/134/134
f 129/129/129 132/132/132 136/136/136
f 132/132/132 135/135/135 136/136/136
f 139/139/139 138/138/138 137/137/137
f 138/138/138 140/140/140 137/137/137
