g polySurface41
v -3.077082 57.45883 -30.16448
v 3.077078 57.45883 -57.4566
v 3.077078 57.45883 -30.22386
v -3.077082 57.45883 -57.4566
v -3.077082 57.45883 -57.4566
v 3.077078 -57.45883 -57.4566
v 3.077078 57.45883 -57.4566
v -3.077082 -57.45883 -57.4566
v -3.077082 -57.45883 -57.4566
v 3.077082 -57.45883 57.4566
v 3.077078 -57.45883 -57.4566
v -3.077082 -57.45883 57.4566
v -3.077082 28.6471 -1.810297
v -3.077082 -19.90808 0.7515469
v -3.077082 22.24739 -17.50334
v -3.077082 57.45883 -57.4566
v -3.077082 -57.45883 -57.4566
v -3.077082 -26.38057 26.22124
v -3.077082 -57.45883 57.4566
v -3.077082 36.88214 -29.86455
v -3.077082 57.45883 -30.16448
v 3.077078 -57.45883 -57.4566
v 3.077082 -57.45883 57.4566
v 3.077078 -19.90808 0.751543
v 3.077078 57.45883 -57.4566
v 3.077078 -26.38057 26.22124
v 3.077078 22.24739 -17.50334
v 3.077078 36.88214 -29.86455
v 3.077078 57.45883 -30.22386
v 3.077078 28.6471 -1.810297
v -3.077082 57.45883 -30.16448
v 3.077078 36.88214 -29.86455
v -3.077082 36.88214 -29.86455
v 3.077078 57.45883 -30.22386
v -3.077082 36.88214 -29.86455
v 3.077078 22.24739 -17.50334
v -3.077082 22.24739 -17.50334
v 3.077078 36.88214 -29.86455
v -3.077082 22.24739 -17.50334
v 3.077078 28.6471 -1.810297
v -3.077082 28.6471 -1.810297
v 3.077078 22.24739 -17.50334
v -3.077082 28.6471 -1.810297
v 3.077078 -19.90808 0.751543
v -3.077082 -19.90808 0.7515469
v 3.077078 28.6471 -1.810297
v -3.077082 -19.90808 0.7515469
v 3.077078 -26.38057 26.22124
v -3.077082 -26.38057 26.22124
v 3.077078 -19.90808 0.751543
v -3.077082 -26.38057 26.22124
v 3.077082 -57.45883 57.4566
v -3.077082 -57.45883 57.4566
v 3.077078 -26.38057 26.22124
vt 0.773092 0.2451581
vt 0.7521051 0.3196216
vt 0.7521051 0.2454821
vt 0.773092 0.3196216
vt 0.381151 0.2030526
vt 0.6946942 0.2240396
vt 0.381151 0.2240395
vt 0.6946942 0.2030525
vt 0.7763855 0.3182927
vt 0.7973725 0.004764704
vt 0.7973725 0.3182927
vt 0.7763857 0.004764704
vt 0.7821307 0.1670092
vt 0.8841074 0.1600253
vt 0.7955716 0.2097911
vt 0.7216196 0.3187103
vt 0.9629724 0.3187102
vt 0.8977011 0.09059066
vt 0.9629724 0.005437911
vt 0.7648352 0.2434898
vt 0.7216196 0.2443074
vt 0.9629724 0.3187102
vt 0.9629724 0.005437911
vt 0.8841074 0.1600253
vt 0.7216196 0.3187103
vt 0.8977011 0.09059066
vt 0.7955716 0.2097911
vt 0.7648352 0.2434898
vt 0.7216196 0.2443074
vt 0.7821307 0.1670092
vt 0.626278 0.8014129
vt 0.5456828 0.7773082
vt 0.5456827 0.8014128
vt 0.626278 0.7773082
vt 0.5456827 0.8014128
vt 0.4883609 0.7773081
vt 0.488361 0.8014129
vt 0.5456828 0.7773082
vt 0.5610753 0.7970973
vt 0.4996084 0.7729924
vt 0.4996083 0.7970972
vt 0.5610753 0.7729925
vt 0.6714933 0.8042595
vt 0.4813112 0.7801547
vt 0.4813112 0.8042595
vt 0.6714934 0.7801547
vt 0.6974286 0.8063716
vt 0.5976683 0.7822669
vt 0.5976683 0.8063716
vt 0.6974286 0.7822668
vt 0.5976683 0.8063716
vt 0.4753249 0.7822669
vt 0.4753248 0.8063716
vt 0.5976683 0.7822669
vn 0 1 0
vn 0 1 0
vn 0 1 0
vn 0 1 0
vn 0 0 -1
vn 0 0 -1
vn 0 0 -1
vn 0 0 -1
vn 0 -1 0
vn 0 -1 0
vn 0 -1 0
vn 0 -1 0
vn -1 0 0
vn -1 0 0
vn -1 0 0
vn -1 0 0
vn -1 0 0
vn -1 0 0
vn -1 0 0
vn -1 0 0
vn -1 0 0
vn 1 0 0
vn 1 0 0
vn 1 0 0
vn 1 0 0
vn 1 0 0
vn 1 0 0
vn 1 0 0
vn 1 0 0
vn 1 0 0
vn 0.004824021 0.01601669 0.99986
vn 0.004824021 0.01601669 0.99986
vn 0.004824021 0.01601669 0.99986
vn 0.004824021 0.01601669 0.99986
vn 0 0.6452711 0.7639536
vn 0 0.6452711 0.7639536
vn 0 0.6452711 0.7639536
vn 0 0.6452711 0.7639536
vn 0 0.9259636 -0.3776129
vn 0 0.9259636 -0.3776129
vn 0 0.9259636 -0.3776129
vn 0 0.9259636 -0.3776129
vn 0 0.05268814 0.998611
vn 0 0.05268814 0.998611
vn 0 0.05268814 0.998611
vn 0 0.05268814 0.998611
vn 0 0.9691945 0.2462967
vn 0 0.9691945 0.2462967
vn 0 0.9691945 0.2462967
vn 0 0.9691945 0.2462967
vn 0 0.7088872 0.7053218
vn 0 0.7088872 0.7053218
vn 0 0.7088872 0.7053218
vn 0 0.7088872 0.7053218
g polySurface41_0
f 3/3/3 2/2/2 1/1/1
f 2/2/2 4/4/4 1/1/1
f 7/7/7 6/6/6 5/5/5
f 6/6/6 8/8/8 5/5/5
f 11/11/11 10/10/10 9/9/9
f 10/10/10 12/12/12 9/9/9
f 15/15/15 14/14/14 13/13/13
f 14/14/14 15/15/15 16/16/16
f 14/14/14 16/16/16 17/17/17
f 18/18/18 14/14/14 17/17/17
f 17/17/17 19/19/19 18/18/18
f 15/15/15 20/20/20 16/16/16
f 20/20/20 21/21/21 16/16/16
f 24/24/24 23/23/23 22/22/22
f 22/22/22 25/25/25 24/24/24
f 24/24/24 26/26/26 23/23/23
f 25/25/25 27/27/27 24/24/24
f 25/25/25 28/28/28 27/27/27
f 25/25/25 29/29/29 28/28/28
f 24/24/24 27/27/27 30/30/30
f 33/33/33 32/32/32 31/31/31
f 32/32/32 34/34/34 31/31/31
f 37/37/37 36/36/36 35/35/35
f 36/36/36 38/38/38 35/35/35
f 41/41/41 40/40/40 39/39/39
f 40/40/40 42/42/42 39/39/39
f 45/45/45 44/44/44 43/43/43
f 44/44/44 46/46/46 43/43/43
f 49/49/49 48/48/48 47/47/47
f 48/48/48 50/50/50 47/47/47
f 53/53/53 52/52/52 51/51/51
f 52/52/52 54/54/54 51/51/51
