g polySurface3
v -1.932257 -3.826195 -14.19587
v -14.50086 -1.96608 -24.44679
v -14.57388 -3.864799 -23.81896
v -1.216425 -1.924597 -14.42737
v -14.93592 8.391685 -22.01453
v -22.77467 -7.672318 -10.4267
v -21.04659 -7.873587 7.301384
v -43.61727 -4.28455 -6.657394
v -38.10674 -4.365229 7.463722
v -38.85588 -2.483913 7.727612
v -25.64532 1.036356 16.26047
v -25.49489 -4.366537 15.56145
v -32.49865 -4.048012 -24.38803
v -6.111626 -4.161863 7.159397
v -14.57388 -3.864799 -23.81896
v -33.16822 2.562895 -24.99361
v -14.50086 -1.96608 -24.44679
v -31.06509 9.245518 -22.51659
v -14.93592 8.391685 -22.01453
v -15.77012 15.54771 -13.4894
v -32.49865 -4.048012 -24.38803
v -42.93664 3.031784 -6.347374
v -43.61727 -4.28455 -6.657394
v -33.16822 2.562895 -24.99361
v -38.85588 -2.483913 7.727612
v -31.06509 9.245518 -22.51659
v -36.30192 4.226582 6.900415
v -25.37796 5.981939 13.9844
v -25.64532 1.036356 16.26047
v -22.30368 17.48235 4.788778
v -15.77012 15.54771 -13.4894
v -25.49489 -4.366537 15.56145
v -5.236206 2.110298 7.524574
v -6.111626 -4.161863 7.159397
v -25.64532 1.036356 16.26047
v -1.216425 -1.924597 -14.42737
v -1.932257 -3.826195 -14.19587
v -8.698368 8.759418 6.512793
v -25.37796 5.981939 13.9844
v -3.884304 1.612423 -13.50726
v -14.93592 8.391685 -22.01453
v -15.77012 15.54771 -13.4894
v -22.30368 17.48235 4.788778
vt 1.008442 0.7361235
vt 1.016884 0.6108211
vt 1.031338 0.6160966
vt 0.9944885 0.7306207
vt 0.9288939 0.6048402
vt 0.7822859 0.8429577
vt 0.804932 0.9213844
vt 0.5561224 0.9497685
vt 0.6675266 0.9708469
vt 0.6661627 0.9560708
vt 0.7690541 0.922913
vt 0.7818939 0.9613307
vt 0.4458704 0.8380821
vt 0.9252254 0.878091
vt 0.4088559 0.7025031
vt 0.4887405 0.8136173
vt 0.42382 0.6978626
vt 0.5280283 0.7911907
vt 0.5095367 0.6837999
vt 0.6013911 0.6877114
vt 0.4458704 0.8380821
vt 0.5806028 0.9026576
vt 0.5561224 0.9497685
vt 0.4887405 0.8136173
vt 0.6661627 0.9560708
vt 0.5280283 0.7911907
vt 0.6745423 0.9080428
vt 0.7578446 0.8877091
vt 0.7690541 0.922913
vt 0.7332388 0.7732635
vt 0.6013911 0.6877114
vt 0.7818939 0.9613307
vt 0.8904919 0.840661
vt 0.9252254 0.878091
vt 0.7690541 0.922913
vt 0.9944885 0.7306207
vt 1.008442 0.7361235
vt 0.8510003 0.8105759
vt 0.7578446 0.8877091
vt 0.9659398 0.718549
vt 0.9288939 0.6048402
vt 0.8427069 0.6436419
vt 0.7332388 0.7732635
vn 0.9079887 -0.2840981 -0.3079689
vn 0.3620844 0.03564572 -0.9314635
vn 0.3152927 -0.2295077 -0.9208239
vn 0.9235859 0.09803474 -0.3706458
vn 0.4010776 0.5269595 -0.7492999
vn 0.003347397 -0.9937736 -0.1113683
vn 0.01894468 -0.9781763 0.2069112
vn -0.9948773 -0.02674329 -0.09748791
vn -0.7765157 -0.1125283 0.6199683
vn -0.7687171 0.1292293 0.6263976
vn -0.09803474 0.1136321 0.9886743
vn -0.06684029 -0.1593201 0.9849617
vn -0.495765 -0.08913237 -0.8638707
vn 0.7754119 -0.1749173 0.6067457
vn 0.3152927 -0.2295077 -0.9208239
vn -0.4723691 0.1526252 -0.8680858
vn 0.3620844 0.03564572 -0.9314635
vn -0.3241951 0.6907308 -0.6463656
vn 0.4010776 0.5269595 -0.7492999
vn 0.2918968 0.8856965 -0.3610235
vn -0.495765 -0.08913237 -0.8638707
vn -0.8856965 0.4567719 -0.08307304
vn -0.9948773 -0.02674329 -0.09748791
vn -0.4723691 0.1526252 -0.8680858
vn -0.7687171 0.1292293 0.6263976
vn -0.3241951 0.6907308 -0.6463656
vn -0.6595362 0.5269595 0.5360276
vn -0.1214306 0.5191609 0.8460063
vn -0.09803474 0.1136321 0.9886743
vn -0.1604239 0.9012938 0.40241
vn 0.2918968 0.8856965 -0.3610235
vn -0.06684029 -0.1593201 0.9849617
vn 0.7754119 0.1682224 0.6086358
vn 0.7754119 -0.1749173 0.6067457
vn -0.09803474 0.1136321 0.9886743
vn 0.9235859 0.09803474 -0.3706458
vn 0.9079887 -0.2840981 -0.3079689
vn 0.6116407 0.6205431 0.4907361
vn -0.1214306 0.5191609 0.8460063
vn 0.7754119 0.5737513 -0.2637153
vn 0.4010776 0.5269595 -0.7492999
vn 0.2918968 0.8856965 -0.3610235
vn -0.1604239 0.9012938 0.40241
g polySurface3_0
f 3/3/3 2/2/2 1/1/1
f 2/2/2 4/4/4 1/1/1
f 2/2/2 5/5/5 4/4/4
f 3/3/3 1/1/1 6/6/6
f 6/6/6 1/1/1 7/7/7
f 6/6/6 7/7/7 8/8/8
f 7/7/7 9/9/9 8/8/8
f 9/9/9 10/10/10 8/8/8
f 11/11/11 10/10/10 9/9/9
f 12/12/12 11/11/11 9/9/9
f 7/7/7 12/12/12 9/9/9
f 6/6/6 8/8/8 13/13/13
f 3/3/3 6/6/6 13/13/13
f 1/1/1 14/14/14 7/7/7
f 7/7/7 14/14/14 12/12/12
f 13/13/13 16/16/16 15/15/15
f 16/16/16 17/17/17 15/15/15
f 16/16/16 18/18/18 17/17/17
f 18/18/18 19/19/19 17/17/17
f 18/18/18 20/20/20 19/19/19
f 23/23/23 22/22/22 21/21/21
f 22/22/22 24/24/24 21/21/21
f 25/25/25 22/22/22 23/23/23
f 22/22/22 26/26/26 24/24/24
f 25/25/25 27/27/27 22/22/22
f 28/28/28 27/27/27 25/25/25
f 29/29/29 28/28/28 25/25/25
f 22/22/22 30/30/30 26/26/26
f 27/27/27 30/30/30 22/22/22
f 28/28/28 30/30/30 27/27/27
f 30/30/30 31/31/31 26/26/26
f 34/34/34 33/33/33 32/32/32
f 33/33/33 35/35/35 32/32/32
f 36/36/36 33/33/33 34/34/34
f 37/37/37 36/36/36 34/34/34
f 33/33/33 38/38/38 35/35/35
f 38/38/38 39/39/39 35/35/35
f 36/36/36 40/40/40 33/33/33
f 40/40/40 38/38/38 33/33/33
f 41/41/41 40/40/40 36/36/36
f 41/41/41 42/42/42 40/40/40
f 40/40/40 42/42/42 38/38/38
f 38/38/38 43/43/43 39/39/39
f 42/42/42 43/43/43 38/38/38
