g polySurface11
v 3.448406 -4.201328 -42.55452
v -9.178234 -1.764565 -20.22315
v -7.956146 -4.269508 -20.18824
v 2.658169 -1.693092 -43.71755
v 29.28614 -4.266354 -47.55172
v 29.35185 -1.755993 -49.12663
v 0.7442055 -7.656803 -19.48264
v 5.143768 -7.74947 0.01873016
v -1.617382 -4.334259 10.34263
v 6.925762 -7.274204 -36.31747
v 42.86572 -4.200298 6.817467
v 28.88894 -8.320766 -6.705173
v 20.78903 -4.25428 17.46059
v 20.59155 -1.75222 19.15438
v -2.593086 -1.831783 11.49112
v 43.37212 4.007641 8.233322
v 25.41899 -7.539856 -38.2634
v 51.6787 -4.203865 -15.35155
v 36.48539 -7.946533 -16.58385
v 17.0491 -7.865871 -18.16021
v -7.956146 -4.269508 -20.18824
v -2.593086 -1.831783 11.49112
v -1.617382 -4.334259 10.34263
v -9.178234 -1.764565 -20.22315
v 0.4392509 7.039772 7.787621
v -5.393932 12.01982 -19.56166
v 2.658169 -1.693092 -43.71755
v 5.024353 7.157749 -39.12079
v 29.35185 -1.755993 -49.12663
v 28.64537 7.087238 -43.04872
v 52.7684 -1.696384 -15.19852
v 51.6787 -4.203865 -15.35155
v 42.86572 -4.200298 6.817467
v 43.37212 4.007641 8.233322
v 29.28614 -4.266354 -47.55172
v 48.38434 7.157063 -15.32617
v 40.53699 12.87275 4.05394
v 5.131557 18.78392 -18.5199
v 11.51875 18.36002 -27.16161
v -2.593086 -1.831783 11.49112
v 20.82874 7.120502 13.4935
v 20.59155 -1.75222 19.15438
v 0.4392509 7.039772 7.787621
v 40.53699 12.87275 4.05394
v 43.37212 4.007641 8.233322
v 31.31863 18.18725 -8.097363
v 9.195026 14.16335 -2.743565
v -5.393932 12.01982 -19.56166
v 5.131557 18.78392 -18.5199
v 36.98782 9.387436 -16.19329
v 48.38434 7.157063 -15.32617
v 27.29858 9.290241 -26.96029
v 28.64537 7.087238 -43.04872
v 11.51875 18.36002 -27.16161
v 5.024353 7.157749 -39.12079
vt 0.9780656 0.3575338
vt 0.9613443 0.5842314
vt 0.977657 0.5877572
vt 0.9621463 0.3676271
vt 0.7903943 0.2283491
vt 0.7877764 0.2476428
vt 0.9125728 0.5561306
vt 0.8135014 0.6401604
vt 0.8265152 0.7215422
vt 0.9301414 0.3931553
vt 0.5381836 0.5507889
vt 0.6748438 0.5215835
vt 0.6343648 0.7083921
vt 0.643308 0.6948639
vt 0.8220663 0.7038979
vt 0.5881203 0.5349302
vt 0.7904548 0.3132112
vt 0.5315254 0.3709562
vt 0.6451844 0.4261892
vt 0.790591 0.4968573
vt 0.977657 0.5877572
vt 0.8220663 0.7038979
vt 0.8265152 0.7215422
vt 0.9613443 0.5842314
vt 0.7942833 0.6482109
vt 0.8921593 0.5317827
vt 0.9621463 0.3676271
vt 0.8930823 0.4124491
vt 0.7877764 0.2476428
vt 0.7904699 0.332853
vt 0.5476111 0.3816699
vt 0.5315254 0.3709562
vt 0.5381836 0.5507889
vt 0.5881203 0.5349302
vt 0.7903943 0.2283491
vt 0.6249222 0.4143103
vt 0.6278276 0.5197524
vt 0.8388026 0.5084183
vt 0.8305858 0.4507793
vt 0.8220663 0.7038979
vt 0.6822889 0.6228945
vt 0.643308 0.6948639
vt 0.7942833 0.6482109
vt 0.6278276 0.5197524
vt 0.5881203 0.5349302
vt 0.6870404 0.4908043
vt 0.7791207 0.5740927
vt 0.8921593 0.5317827
vt 0.8388026 0.5084183
vt 0.6813961 0.4391425
vt 0.6249222 0.4143103
vt 0.7553478 0.4127215
vt 0.7904699 0.332853
vt 0.8305858 0.4507793
vt 0.8930823 0.4124491
vn -0.5285714 -0.5084918 -0.6797414
vn -0.988622 -0.07183355 -0.1321607
vn -0.8794575 -0.4539095 -0.1432503
vn -0.5987486 -0.02504873 -0.8005452
vn 0.3447449 -0.4928968 -0.7988765
vn 0.3993272 0.02953357 -0.9163327
vn -0.1852118 -0.9826986 0
vn -0.08384208 -0.996479 0
vn -0.6299385 -0.5318841 0.5659299
vn -0.1153057 -0.9841372 -0.1348275
vn 0.7190233 -0.2433779 0.6509782
vn 0.05616486 -0.9984215 0
vn 0.09522593 -0.4383145 0.8937631
vn 0.05623859 0.05292588 0.9970136
vn -0.7391031 -0.06403607 0.6705415
vn 0.7268208 0.138698 0.672677
vn 0.04844117 -0.9919347 -0.117128
vn 0.9529474 -0.2979601 -0.05577692
vn 0.1264158 -0.9919347 -0.009196684
vn -0.006141126 -0.9997322 -0.02231183
vn -0.8794575 -0.4539095 -0.1432503
vn -0.7391031 -0.06403607 0.6705415
vn -0.6299385 -0.5318841 0.5659299
vn -0.988622 -0.07183355 -0.1321607
vn -0.4661917 0.7235082 0.5091181
vn -0.7469005 0.653331 -0.1236861
vn -0.5987486 -0.02504873 -0.8005452
vn -0.3414323 0.7157107 -0.6092473
vn 0.3993272 0.02953357 -0.9163327
vn 0.2589728 0.8014829 -0.5390347
vn 0.9919347 0.0841158 -0.09481598
vn 0.9529474 -0.2979601 -0.05577692
vn 0.7190233 -0.2433779 0.6509782
vn 0.7268208 0.138698 0.672677
vn 0.3447449 -0.4928968 -0.7988765
vn 0.6098588 0.7702929 -0.1863359
vn 0.4539095 0.8170778 0.3554575
vn -0.2166727 0.9730272 0.07919005
vn 0.1498082 0.9496347 -0.2752297
vn -0.7391031 -0.06403607 0.6705415
vn -0.03733104 0.7469005 0.663887
vn 0.05623859 0.05292588 0.9970136
vn -0.4661917 0.7235082 0.5091181
vn 0.4539095 0.8170778 0.3554575
vn 0.7268208 0.138698 0.672677
vn 0.1420107 0.9808245 0.1334773
vn -0.0841158 0.9496347 0.3018582
vn -0.7469005 0.653331 -0.1236861
vn -0.2166727 0.9730272 0.07919005
vn 0.3993272 0.8560651 -0.328162
vn 0.6098588 0.7702929 -0.1863359
vn 0.2667702 0.8950525 -0.3573718
vn 0.2589728 0.8014829 -0.5390347
vn 0.1498082 0.9496347 -0.2752297
vn -0.3414323 0.7157107 -0.6092473
g polySurface11_0
f 3/3/3 2/2/2 1/1/1
f 2/2/2 4/4/4 1/1/1
f 1/1/1 4/4/4 5/5/5
f 4/4/4 6/6/6 5/5/5
f 3/3/3 1/1/1 7/7/7
f 3/3/3 7/7/7 8/8/8
f 9/9/9 3/3/3 8/8/8
f 1/1/1 10/10/10 7/7/7
f 1/1/1 5/5/5 10/10/10
f 11/11/11 9/9/9 8/8/8
f 8/8/8 12/12/12 11/11/11
f 11/11/11 13/13/13 9/9/9
f 13/13/13 14/14/14 9/9/9
f 14/14/14 15/15/15 9/9/9
f 11/11/11 16/16/16 13/13/13
f 16/16/16 14/14/14 13/13/13
f 5/5/5 17/17/17 10/10/10
f 17/17/17 5/5/5 18/18/18
f 19/19/19 17/17/17 18/18/18
f 12/12/12 19/19/19 11/11/11
f 19/19/19 18/18/18 11/11/11
f 20/20/20 19/19/19 12/12/12
f 19/19/19 20/20/20 17/17/17
f 10/10/10 17/17/17 20/20/20
f 7/7/7 10/10/10 20/20/20
f 8/8/8 7/7/7 20/20/20
f 8/8/8 20/20/20 12/12/12
f 23/23/23 22/22/22 21/21/21
f 22/22/22 24/24/24 21/21/21
f 22/22/22 25/25/25 24/24/24
f 25/25/25 26/26/26 24/24/24
f 24/24/24 26/26/26 27/27/27
f 26/26/26 28/28/28 27/27/27
f 27/27/27 28/28/28 29/29/29
f 28/28/28 30/30/30 29/29/29
f 29/29/29 30/30/30 31/31/31
f 29/29/29 31/31/31 32/32/32
f 32/32/32 31/31/31 33/33/33
f 31/31/31 34/34/34 33/33/33
f 35/35/35 29/29/29 32/32/32
f 31/31/31 36/36/36 34/34/34
f 30/30/30 36/36/36 31/31/31
f 36/36/36 37/37/37 34/34/34
f 26/26/26 38/38/38 28/28/28
f 38/38/38 39/39/39 28/28/28
f 42/42/42 41/41/41 40/40/40
f 41/41/41 43/43/43 40/40/40
f 44/44/44 41/41/41 42/42/42
f 45/45/45 44/44/44 42/42/42
f 41/41/41 46/46/46 43/43/43
f 44/44/44 46/46/46 41/41/41
f 46/46/46 47/47/47 43/43/43
f 43/43/43 47/47/47 48/48/48
f 47/47/47 49/49/49 48/48/48
f 50/50/50 46/46/46 44/44/44
f 51/51/51 50/50/50 44/44/44
f 52/52/52 50/50/50 51/51/51
f 53/53/53 52/52/52 51/51/51
f 54/54/54 52/52/52 53/53/53
f 47/47/47 54/54/54 49/49/49
f 46/46/46 54/54/54 47/47/47
f 50/50/50 54/54/54 46/46/46
f 52/52/52 54/54/54 50/50/50
f 55/55/55 54/54/54 53/53/53
