g polySurface1
v -52.51873 -4.123891 46.94667
v -34.76653 -1.456666 35.60206
v -35.55799 -4.139857 35.09677
v -52.47743 -1.439153 48.10021
v -27.26477 -1.606063 10.00068
v -28.34305 -4.283715 10.45261
v -41.1668 -1.692899 -4.53795
v -41.88111 -4.354585 -3.379108
v -73.242 -4.369247 40.58371
v -73.98425 -1.687604 41.69856
v -31.19934 7.836628 11.51599
v -37.71471 13.2101 33.64304
v -54.29023 -7.54543 9.42199
v -53.04512 -7.398559 37.64294
v -62.0674 -4.439791 -4.190525
v -77.05691 -6.919007 8.517711
v -41.88111 -4.354585 -3.379108
v -62.14797 4.305119 -5.417548
v -62.0674 -4.439791 -4.190525
v -41.1668 -1.692899 -4.53795
v -77.87085 -1.819568 7.975271
v -77.05691 -6.919007 8.517711
v -61.99434 13.78202 -1.289919
v -43.81561 7.772031 -0.5180917
v -27.26477 -1.606063 10.00068
v -31.19934 7.836628 11.51599
v -75.01667 7.651715 9.765994
v -77.05691 -6.919007 8.517711
v -73.98425 -1.687604 41.69856
v -73.242 -4.369247 40.58371
v -77.87085 -1.819568 7.975271
v -71.40257 7.741239 37.55383
v -75.01667 7.651715 9.765994
v -52.71155 7.977879 43.835
v -52.47743 -1.439153 48.10021
v -37.71471 13.2101 33.64304
v -34.76653 -1.456666 35.60206
v -43.52904 17.86599 22.29388
v -58.70948 14.97198 29.49554
v -31.19934 7.836628 11.51599
v -63.65122 14.81672 12.9557
v -43.81561 7.772031 -0.5180917
v -61.99434 13.78202 -1.289919
v -75.01667 7.651715 9.765994
v -63.65122 14.81672 12.9557
vt 0.8412549 0.2856694
vt 0.9710025 0.2415778
vt 0.9662973 0.224068
vt 0.8544612 0.3010644
vt 1.129965 0.2366823
vt 1.133507 0.2173539
vt 1.232465 0.2864095
vt 1.244307 0.2720084
vt 0.7668808 0.4035535
vt 0.7856064 0.4070428
vt 1.115098 0.293314
vt 0.9924774 0.3289468
vt 1.270011 0.3747724
vt 0.8737473 0.3073556
vt 1.345009 0.3686292
vt 1.389788 0.5128943
vt 1.244307 0.2720084
vt 1.291655 0.397294
vt 1.345009 0.3686292
vt 1.232465 0.2864095
vt 1.369645 0.5213214
vt 1.389788 0.5128943
vt 1.24455 0.4264029
vt 1.19809 0.3389387
vt 1.129965 0.2366823
vt 1.115098 0.293314
vt 1.292585 0.5335972
vt 0.770222 0.6242757
vt 0.7856064 0.4070428
vt 0.7668808 0.4035535
vt 0.7892014 0.6282091
vt 0.840483 0.4301882
vt 0.8641783 0.6060681
vt 0.8953913 0.3435911
vt 0.8544612 0.3010644
vt 0.9924774 0.3289468
vt 0.9710025 0.2415778
vt 1.046307 0.3987108
vt 0.9325467 0.4339101
vt 1.115098 0.293314
vt 1.18407 0.4976155
vt 1.19809 0.3389387
vt 1.24455 0.4264029
vt 1.292585 0.5335972
vt 0.9583143 0.5525239
vn 0.1572925 -0.4059334 0.900265
vn 0.817745 -0.03297198 0.5746354
vn 0.7711248 -0.3437732 0.5358978
vn 0.1572925 -0.009661913 0.9875048
vn 0.9809157 -0.01743191 -0.1936508
vn 0.8876753 -0.4214735 -0.1854527
vn 0.4292435 0.05249828 -0.9016618
vn 0.3748533 -0.3360032 -0.8640526
vn -0.7051808 -0.4059334 0.5813244
vn -0.7751111 -0.001891851 0.631822
vn 0.6934246 0.6818708 -0.2328403
vn 0.6234943 0.6585607 0.4213701
vn 0.03297198 -0.9964557 -0.07738757
vn 0.0562821 -0.9964557 0.06251621
vn -0.3166793 -0.2039127 -0.9263551
vn -0.8838915 -0.2660729 -0.3846309
vn 0.3748533 -0.3360032 -0.8640526
vn -0.3166793 0.09911853 -0.9433397
vn -0.3166793 -0.2039127 -0.9263551
vn 0.4292435 0.05249828 -0.9016618
vn -0.9305118 0.03695828 -0.3643925
vn -0.8838915 -0.2660729 -0.3846309
vn -0.223439 0.8061913 -0.5478418
vn 0.3748533 0.744031 -0.5530849
vn 0.9809157 -0.01743191 -0.1936508
vn 0.6934246 0.6818708 -0.2328403
vn -0.736261 0.6507906 -0.1854492
vn -0.8838915 -0.2660729 -0.3846309
vn -0.7751111 -0.001891851 0.631822
vn -0.7051808 -0.4059334 0.5813244
vn -0.9305118 0.03695828 -0.3643925
vn -0.5497803 0.6974109 0.4597387
vn -0.736261 0.6507906 -0.1854492
vn 0.01743191 0.6896408 0.7239417
vn 0.1572925 -0.009661913 0.9875048
vn 0.6234943 0.6585607 0.4213701
vn 0.817745 -0.03297198 0.5746354
vn 0.1806026 0.9771319 0.1122317
vn -0.215669 0.9305118 0.2960317
vn 0.6934246 0.6818708 -0.2328403
vn -0.1457387 0.984902 -0.09342583
vn 0.3748533 0.744031 -0.5530849
vn -0.223439 0.8061913 -0.5478418
vn -0.736261 0.6507906 -0.1854492
vn -0.1457387 0.984902 -0.09342583
g polySurface1_0
f 3/3/3 2/2/2 1/1/1
f 2/2/2 4/4/4 1/1/1
f 5/5/5 2/2/2 3/3/3
f 6/6/6 5/5/5 3/3/3
f 7/7/7 5/5/5 6/6/6
f 8/8/8 7/7/7 6/6/6
f 1/1/1 4/4/4 9/9/9
f 4/4/4 10/10/10 9/9/9
f 5/5/5 11/11/11 2/2/2
f 11/11/11 12/12/12 2/2/2
f 13/13/13 6/6/6 3/3/3
f 14/14/14 13/13/13 3/3/3
f 14/14/14 3/3/3 1/1/1
f 9/9/9 14/14/14 1/1/1
f 14/14/14 9/9/9 13/13/13
f 13/13/13 15/15/15 6/6/6
f 15/15/15 8/8/8 6/6/6
f 9/9/9 16/16/16 13/13/13
f 13/13/13 16/16/16 15/15/15
f 19/19/19 18/18/18 17/17/17
f 18/18/18 20/20/20 17/17/17
f 21/21/21 18/18/18 19/19/19
f 22/22/22 21/21/21 19/19/19
f 18/18/18 23/23/23 20/20/20
f 23/23/23 24/24/24 20/20/20
f 20/20/20 24/24/24 25/25/25
f 24/24/24 26/26/26 25/25/25
f 21/21/21 27/27/27 18/18/18
f 27/27/27 23/23/23 18/18/18
f 30/30/30 29/29/29 28/28/28
f 29/29/29 31/31/31 28/28/28
f 29/29/29 32/32/32 31/31/31
f 32/32/32 33/33/33 31/31/31
f 34/34/34 32/32/32 29/29/29
f 35/35/35 34/34/34 29/29/29
f 36/36/36 34/34/34 35/35/35
f 37/37/37 36/36/36 35/35/35
f 36/36/36 38/38/38 34/34/34
f 38/38/38 39/39/39 34/34/34
f 32/32/32 39/39/39 33/33/33
f 34/34/34 39/39/39 32/32/32
f 40/40/40 38/38/38 36/36/36
f 41/41/41 38/38/38 40/40/40
f 42/42/42 41/41/41 40/40/40
f 43/43/43 41/41/41 42/42/42
f 44/44/44 41/41/41 43/43/43
f 39/39/39 45/45/45 33/33/33
f 45/45/45 39/39/39 38/38/38
