g polySurface8
v 18.97602 -3.597954 16.72065
v 25.70224 -1.18515 34.1881
v 26.29109 -3.567436 33.5807
v 17.9575 -1.21685 16.55254
v 46.68459 4.737389 45.22585
v 46.46941 -3.582222 44.23
v 71.9091 5.586624 31.78667
v 72.57038 -3.602531 32.47813
v 77.87085 -1.292686 15.20086
v 27.85608 11.8597 31.96676
v 46.0118 13.12521 41.54015
v 74.20921 7.110161 14.60473
v 66.92759 9.240753 1.283302
v 69.03928 3.044212 -0.8848572
v 35.10341 20.94144 23.77933
v 56.30106 23.59983 8.898193
v 72.57038 -3.602531 32.47813
v 77.87085 -1.292686 15.20086
v 76.84071 -3.660057 15.04578
v 69.03928 3.044212 -0.8848572
v 68.43822 -3.753265 -0.2593765
v 68.38023 -7.607208 9.566521
v 52.87256 -7.866646 3.664993
v 48.95582 -10.11451 19.47836
v 67.81673 -7.836594 22.61595
v 57.18281 -7.652519 34.17823
v 39.02215 -7.601334 34.82402
v 30.72906 -7.935791 23.40614
v 36.43701 -8.184669 11.52231
v 18.97602 -3.597954 16.72065
v 39.83416 -3.795998 -2.614189
v 26.29109 -3.567436 33.5807
v 46.46941 -3.582222 44.23
v 68.43822 -3.753265 -0.2593765
v 38.98775 4.074585 -3.471169
v 39.83416 -3.795998 -2.614189
v 69.03928 3.044212 -0.8848572
v 17.9575 -1.21685 16.55254
v 18.97602 -3.597954 16.72065
v 42.1088 12.47238 -0.4898224
v 66.92759 9.240753 1.283302
v 21.6546 3.267143 17.12084
v 27.85608 11.8597 31.96676
v 35.10341 20.94144 23.77933
v 56.30106 23.59983 8.898193
vt 0.01733636 0.6745065
vt 0.04434749 0.5911794
vt 0.03346759 0.5862299
vt 0.0305703 0.6712319
vt 0.1261806 0.5385002
vt 0.1070012 0.5016805
vt 0.2339233 0.528571
vt 0.2440035 0.4861982
vt 0.3121349 0.5386813
vt 0.09106617 0.6134976
vt 0.1401691 0.5693442
vt 0.2912503 0.5735543
vt 0.3318123 0.6374001
vt 0.3627166 0.6166211
vt 0.1287007 0.6386526
vt 0.2357794 0.6875141
vt 0.2440035 0.4861982
vt 0.3121349 0.5386813
vt 0.3204646 0.5296121
vt 0.3627166 0.6166211
vt 0.3872077 0.5881312
vt 0.3198006 0.5664469
vt 0.2205988 0.6671727
vt 0.1645244 0.6009879
vt 0.2507336 0.5328112
vt 0.1730653 0.5176307
vt 0.09005514 0.5559442
vt 0.06817462 0.6213443
vt 0.0935862 0.6846922
vt 0.01733636 0.6745065
vt 0.09016076 0.7889491
vt 0.03346759 0.5862299
vt 0.1070012 0.5016805
vt 0.2173092 0.8644444
vt 0.1144406 0.760429
vt 0.09016076 0.7889491
vt 0.2377713 0.8356678
vt 0.0305703 0.6712319
vt 0.01733636 0.6745065
vt 0.1454506 0.7348363
vt 0.2463273 0.8006137
vt 0.05438235 0.6667954
vt 0.09106617 0.6134976
vt 0.1287007 0.6386526
vt 0.2357794 0.6875141
vn -0.9151953 -0.3253988 -0.2377669
vn -0.7368599 0.02351832 0.6756362
vn -0.6825839 -0.2633691 0.6817008
vn -0.9772251 0.08554804 -0.1941976
vn -0.008010864 0.1320703 0.991208
vn 0.007496536 -0.1005411 0.9949046
vn 0.7208382 0.4577262 0.5204604
vn 0.7751142 -0.02300394 0.6314023
vn 0.9891192 0.1471168 0
vn -0.6903377 0.5352634 0.4867515
vn -0.02351832 0.6515691 0.7582246
vn 0.8216364 0.5662782 -0.06513478
vn 0.5114879 0.519756 -0.6842762
vn 0.565764 0.1165628 -0.8162869
vn -0.4034503 0.8841805 0.2354839
vn 0.3253988 0.899688 -0.2909933
vn 0.7751142 -0.02300394 0.6314023
vn 0.9891192 0.1471168 0
vn 0.9933332 -0.1152781 0
vn 0.565764 0.1165628 -0.8162869
vn 0.534749 -0.1703245 -0.8276672
vn 0.224107 -0.9745645 0
vn 0.03075767 -0.9612033 -0.2741208
vn 0.01524892 -0.9998838 0
vn 0.3091043 -0.9510281 0
vn 0.1470634 -0.9534496 0.2632607
vn -0.1320703 -0.9534496 0.2710927
vn -0.2406223 -0.968957 -0.05677359
vn -0.1785926 -0.968957 -0.1709591
vn -0.9151953 -0.3253988 -0.2377669
vn -0.302652 -0.1703245 -0.9377587
vn -0.6825839 -0.2633691 0.6817008
vn 0.007496536 -0.1005411 0.9949046
vn 0.534749 -0.1703245 -0.8276672
vn -0.3181595 0.1475778 -0.9364803
vn -0.302652 -0.1703245 -0.9377587
vn 0.565764 0.1165628 -0.8162869
vn -0.9772251 0.08554804 -0.1941976
vn -0.9151953 -0.3253988 -0.2377669
vn -0.2561297 0.5740319 -0.7777435
vn 0.5114879 0.519756 -0.6842762
vn -0.7756286 0.5817857 -0.2447973
vn -0.6903377 0.5352634 0.4867515
vn -0.4034503 0.8841805 0.2354839
vn 0.3253988 0.899688 -0.2909933
g polySurface8_0
f 3/3/3 2/2/2 1/1/1
f 2/2/2 4/4/4 1/1/1
f 5/5/5 2/2/2 3/3/3
f 6/6/6 5/5/5 3/3/3
f 7/7/7 5/5/5 6/6/6
f 8/8/8 7/7/7 6/6/6
f 9/9/9 7/7/7 8/8/8
f 2/2/2 10/10/10 4/4/4
f 5/5/5 11/11/11 2/2/2
f 11/11/11 10/10/10 2/2/2
f 7/7/7 11/11/11 5/5/5
f 9/9/9 12/12/12 7/7/7
f 13/13/13 12/12/12 9/9/9
f 14/14/14 13/13/13 9/9/9
f 11/11/11 15/15/15 10/10/10
f 7/7/7 16/16/16 11/11/11
f 16/16/16 15/15/15 11/11/11
f 12/12/12 16/16/16 7/7/7
f 13/13/13 16/16/16 12/12/12
f 19/19/19 18/18/18 17/17/17
f 20/20/20 18/18/18 19/19/19
f 21/21/21 20/20/20 19/19/19
f 22/22/22 21/21/21 19/19/19
f 22/22/22 23/23/23 21/21/21
f 22/22/22 24/24/24 23/23/23
f 25/25/25 24/24/24 22/22/22
f 25/25/25 22/22/22 19/19/19
f 25/25/25 19/19/19 17/17/17
f 26/26/26 24/24/24 25/25/25
f 26/26/26 25/25/25 17/17/17
f 27/27/27 24/24/24 26/26/26
f 28/28/28 24/24/24 27/27/27
f 29/29/29 24/24/24 28/28/28
f 23/23/23 24/24/24 29/29/29
f 30/30/30 29/29/29 28/28/28
f 30/30/30 31/31/31 29/29/29
f 23/23/23 29/29/29 31/31/31
f 23/23/23 31/31/31 21/21/21
f 27/27/27 32/32/32 28/28/28
f 32/32/32 30/30/30 28/28/28
f 26/26/26 17/17/17 33/33/33
f 27/27/27 26/26/26 33/33/33
f 27/27/27 33/33/33 32/32/32
f 36/36/36 35/35/35 34/34/34
f 35/35/35 37/37/37 34/34/34
f 38/38/38 35/35/35 36/36/36
f 39/39/39 38/38/38 36/36/36
f 35/35/35 40/40/40 37/37/37
f 40/40/40 41/41/41 37/37/37
f 38/38/38 42/42/42 35/35/35
f 42/42/42 40/40/40 35/35/35
f 43/43/43 42/42/42 38/38/38
f 43/43/43 44/44/44 42/42/42
f 42/42/42 44/44/44 40/40/40
f 40/40/40 45/45/45 41/41/41
f 44/44/44 45/45/45 40/40/40
