g polySurface7
v -36.47145 -0.7430515 -15.65559
v -45.95966 1.212873 -22.73387
v -45.78922 -2.367105 -22.06613
v -36.31541 4.641443 -16.30816
v -33.67271 0.4963531 -3.736654
v -33.10599 4.208326 -3.85393
v -52.73874 7.738914 -17.60304
v -38.87374 9.364819 -15.36279
v -36.51514 9.661629 -4.382132
v -45.78922 -2.367105 -22.06613
v -52.73874 7.738914 -17.60304
v -58.06244 -3.101503 -13.47729
v -45.95966 1.212873 -22.73387
v -56.84769 1.93078 0.9609089
v -56.10467 -1.649738 0.7192688
v -55.53917 7.83893 -0.8611736
v -48.0975 12.05784 -8.750598
v -46.79815 6.301559 4.23152
v -36.51514 9.661629 -4.382132
v -38.87374 9.364819 -15.36279
v -52.73874 7.738914 -17.60304
v -56.10467 -1.649738 0.7192688
v -46.79815 6.301559 4.23152
v -45.65868 -0.1870327 4.182205
v -56.84769 1.93078 0.9609089
v -33.10599 4.208326 -3.85393
v -33.67271 0.4963531 -3.736654
v -55.53917 7.83893 -0.8611736
v -36.51514 9.661629 -4.382132
v -45.86758 -3.387911 -8.606971
v -58.06244 -3.101503 -13.47729
v -45.78922 -2.367105 -22.06613
v -36.47145 -0.7430515 -15.65559
vt 0.9858741 0.1319147
vt 1.004259 0.2197107
vt 1.017694 0.2120225
vt 0.9625697 0.1477939
vt 0.925861 0.07962073
vt 0.9212589 0.09139287
vt 0.916881 0.2590105
vt 0.9325514 0.1668598
vt 0.9008703 0.123306
vt 0.6938679 0.2918827
vt 0.7824838 0.2415069
vt 0.7094532 0.1748652
vt 0.7092986 0.2972351
vt 0.7766132 0.1095848
vt 0.7682907 0.09895735
vt 0.8077683 0.1365323
vt 0.8578348 0.1912627
vt 0.8399058 0.0970469
vt 0.9008703 0.123306
vt 0.9325514 0.1668598
vt 0.916881 0.2590105
vt 0.7682907 0.09895735
vt 0.8399058 0.0970469
vt 0.8371446 0.0588764
vt 0.7766132 0.1095848
vt 0.9212589 0.09139287
vt 0.925861 0.07962073
vt 0.8077683 0.1365323
vt 0.9008703 0.123306
vt 0.817661 0.127243
vt 0.7094532 0.1748652
vt 1.017694 0.2120225
vt 0.9858741 0.1319147
vn 0.833793 -0.2034832 -0.5132093
vn 0.07119602 0.1311257 -0.9888059
vn -0.00661999 -0.1801384 -0.983619
vn 0.7637586 0.2167233 -0.6080328
vn 0.9271722 -0.07119602 0.3678081
vn 0.9038274 0.2478497 0.3488073
vn -0.6058034 0.6213666 -0.4968962
vn 0.3279889 0.847033 -0.4182803
vn 0.4758393 0.847033 0.2368798
vn -0.00661999 -0.1801384 -0.983619
vn -0.6058034 0.6213666 -0.4968962
vn -0.8625963 0.1855968 -0.4706182
vn 0.07119602 0.1311257 -0.9888059
vn -0.8236883 0.2478497 0.510008
vn -0.7769986 0.1778153 0.6038666
vn -0.6213666 0.7147458 0.3210016
vn -0.08443606 0.9948835 0.05547367
vn 0.06341439 0.535769 0.8419799
vn 0.4758393 0.847033 0.2368798
vn 0.3279889 0.847033 -0.4182803
vn -0.6058034 0.6213666 -0.4968962
vn -0.7769986 0.1778153 0.6038666
vn 0.06341439 0.535769 0.8419799
vn 0.149012 -0.04006958 0.9880232
vn -0.8236883 0.2478497 0.510008
vn 0.9038274 0.2478497 0.3488073
vn 0.9271722 -0.07119602 0.3678081
vn -0.6213666 0.7147458 0.3210016
vn 0.4758393 0.847033 0.2368798
vn 0.1256672 -0.9894251 0.07242793
vn -0.8625963 0.1855968 -0.4706182
vn -0.00661999 -0.1801384 -0.983619
vn 0.833793 -0.2034832 -0.5132093
g polySurface7_0
f 3/3/3 2/2/2 1/1/1
f 2/2/2 4/4/4 1/1/1
f 1/1/1 4/4/4 5/5/5
f 4/4/4 6/6/6 5/5/5
f 2/2/2 7/7/7 4/4/4
f 7/7/7 8/8/8 4/4/4
f 4/4/4 8/8/8 6/6/6
f 8/8/8 9/9/9 6/6/6
f 12/12/12 11/11/11 10/10/10
f 11/11/11 13/13/13 10/10/10
f 14/14/14 11/11/11 12/12/12
f 15/15/15 14/14/14 12/12/12
f 14/14/14 16/16/16 11/11/11
f 16/16/16 17/17/17 11/11/11
f 18/18/18 17/17/17 16/16/16
f 19/19/19 17/17/17 18/18/18
f 20/20/20 17/17/17 19/19/19
f 21/21/21 17/17/17 20/20/20
f 24/24/24 23/23/23 22/22/22
f 23/23/23 25/25/25 22/22/22
f 26/26/26 23/23/23 24/24/24
f 27/27/27 26/26/26 24/24/24
f 23/23/23 28/28/28 25/25/25
f 26/26/26 29/29/29 23/23/23
f 30/30/30 27/27/27 24/24/24
f 30/30/30 24/24/24 22/22/22
f 30/30/30 22/22/22 31/31/31
f 30/30/30 31/31/31 32/32/32
f 33/33/33 27/27/27 30/30/30
f 33/33/33 30/30/30 32/32/32
