g polySurface4
v -46.05836 -5.767771 -13.52601
v -52.84171 -3.293217 -19.43896
v -52.88151 -4.274374 -19.03029
v -45.62392 -2.201761 -13.78428
v -44.50371 -5.757117 -4.279387
v -43.92638 -3.227648 -4.219773
v -57.71664 0.7726555 -15.54042
v -47.22221 0.7088909 -12.91146
v -46.02578 0.2354279 -4.46191
v -52.88151 -4.274374 -19.03029
v -57.71664 0.7726555 -15.54042
v -62.70218 -5.820099 -13.33072
v -52.84171 -3.293217 -19.43896
v -62.33681 -3.207359 -2.15797
v -61.89297 -5.730248 -2.40144
v -60.75906 0.2681732 -3.064161
v -54.55907 -1.446524 1.201702
v -54.3442 2.612534 -8.294576
v -46.02578 0.2354279 -4.46191
v -47.22221 0.7088909 -12.91146
v -57.71664 0.7726555 -15.54042
v -61.89297 -5.730248 -2.40144
v -54.55907 -1.446524 1.201702
v -54.06548 -4.173555 0.9348907
v -62.33681 -3.207359 -2.15797
v -43.92638 -3.227648 -4.219773
v -44.50371 -5.757117 -4.279387
v -46.02578 0.2354279 -4.46191
v -52.23477 -7.196305 -3.444561
v -53.425 -7.242054 -13.43953
v -62.70218 -5.820099 -13.33072
v -52.88151 -4.274374 -19.03029
v -46.05836 -5.767771 -13.52601
vt 0.9858741 0.1319147
vt 1.004259 0.2197107
vt 1.017694 0.2120225
vt 0.9625697 0.1477939
vt 0.925861 0.07962073
vt 0.9212589 0.09139287
vt 0.916881 0.2590105
vt 0.9325514 0.1668598
vt 0.9008703 0.123306
vt 0.6938679 0.2918827
vt 0.7824838 0.2415069
vt 0.7094532 0.1748652
vt 0.7092986 0.2972351
vt 0.7766132 0.1095848
vt 0.7682907 0.09895735
vt 0.8077683 0.1365323
vt 0.8399058 0.0970469
vt 0.8578348 0.1912627
vt 0.9008703 0.123306
vt 0.9325514 0.1668598
vt 0.916881 0.2590105
vt 0.7682907 0.09895735
vt 0.8399058 0.0970469
vt 0.8371446 0.0588764
vt 0.7766132 0.1095848
vt 0.9212589 0.09139287
vt 0.925861 0.07962073
vt 0.9008703 0.123306
vt 0.855816 0.08821393
vt 0.8635274 0.1509265
vt 0.7094532 0.1748652
vt 1.017694 0.2120225
vt 0.9858741 0.1319147
vn 0.831359 -0.3149086 -0.4579026
vn 0.1684525 0.2477912 -0.9540563
vn 0.06053746 -0.1222032 -0.9906572
vn 0.831359 0.2169583 -0.511636
vn 0.8699 -0.260951 0.4185433
vn 0.8930247 0.1475843 0.4251185
vn -0.4250801 0.8027827 -0.4181471
vn 0.3765743 0.887573 -0.2653413
vn 0.4613646 0.8336155 0.3036903
vn 0.06053746 -0.1222032 -0.9906572
vn -0.4250801 0.8027827 -0.4181471
vn -0.7719498 0.4019555 -0.4924686
vn 0.1684525 0.2477912 -0.9540563
vn -0.8027827 0.3711226 0.4666991
vn -0.7873662 0.2709157 0.5537682
vn -0.4790376 0.8259072 0.2973217
vn 0.04512101 0.5484115 0.8349903
vn 0.01428819 0.995488 0.09380498
vn 0.4613646 0.8336155 0.3036903
vn 0.3765743 0.887573 -0.2653413
vn -0.4250801 0.8027827 -0.4181471
vn -0.7873662 0.2709157 0.5537682
vn 0.04512101 0.5484115 0.8349903
vn 0.05282927 -0.1684525 0.984293
vn -0.8027827 0.3711226 0.4666991
vn 0.8930247 0.1475843 0.4251185
vn 0.8699 -0.260951 0.4185433
vn 0.4613646 0.8336155 0.3036903
vn 0.05282927 -0.9546904 0.2928742
vn 0.02199638 -0.9701068 -0.2416794
vn -0.7719498 0.4019555 -0.4924686
vn 0.06053746 -0.1222032 -0.9906572
vn 0.831359 -0.3149086 -0.4579026
g polySurface4_0
f 3/3/3 2/2/2 1/1/1
f 2/2/2 4/4/4 1/1/1
f 1/1/1 4/4/4 5/5/5
f 4/4/4 6/6/6 5/5/5
f 2/2/2 7/7/7 4/4/4
f 7/7/7 8/8/8 4/4/4
f 4/4/4 8/8/8 6/6/6
f 8/8/8 9/9/9 6/6/6
f 12/12/12 11/11/11 10/10/10
f 11/11/11 13/13/13 10/10/10
f 14/14/14 11/11/11 12/12/12
f 15/15/15 14/14/14 12/12/12
f 14/14/14 16/16/16 11/11/11
f 17/17/17 16/16/16 14/14/14
f 16/16/16 18/18/18 11/11/11
f 17/17/17 18/18/18 16/16/16
f 19/19/19 18/18/18 17/17/17
f 20/20/20 18/18/18 19/19/19
f 21/21/21 18/18/18 20/20/20
f 24/24/24 23/23/23 22/22/22
f 23/23/23 25/25/25 22/22/22
f 26/26/26 23/23/23 24/24/24
f 27/27/27 26/26/26 24/24/24
f 26/26/26 28/28/28 23/23/23
f 29/29/29 24/24/24 22/22/22
f 29/29/29 27/27/27 24/24/24
f 29/29/29 22/22/22 30/30/30
f 22/22/22 31/31/31 30/30/30
f 31/31/31 32/32/32 30/30/30
f 30/30/30 32/32/32 33/33/33
f 27/27/27 29/29/29 33/33/33
f 29/29/29 30/30/30 33/33/33
