g polySurface55
v 69.2594 57.24228 -3.379311
v 69.2594 22.98353 -57.45661
v 69.2594 22.98353 57.45661
v 69.2594 137.9012 57.45661
v 69.2594 101.135 15.95457
v 69.2594 93.64507 -4.852745
v 69.2594 137.9012 26.3585
v 63.10524 22.98353 57.4566
v 63.10524 22.98353 -57.45662
v 63.10524 57.24228 -3.379326
v 63.10524 137.9012 57.4566
v 63.10524 101.135 15.95456
v 63.10524 93.64507 -4.85276
v 63.10524 137.9012 26.35849
v 69.2594 137.9012 26.3585
v 63.10524 137.9012 57.4566
v 63.10524 137.9012 26.35849
v 69.2594 137.9012 57.45661
v 69.2594 137.9012 26.3585
v 63.10524 101.135 15.95456
v 69.2594 101.135 15.95457
v 63.10524 137.9012 26.35849
v 69.2594 101.135 15.95457
v 63.10524 93.64507 -4.85276
v 69.2594 93.64507 -4.852745
v 63.10524 101.135 15.95456
v 69.2594 93.64507 -4.852745
v 63.10524 57.24228 -3.379326
v 69.2594 57.24228 -3.379311
v 63.10524 93.64507 -4.85276
v 69.2594 57.24228 -3.379311
v 63.10524 22.98353 -57.45662
v 69.2594 22.98353 -57.45661
v 63.10524 57.24228 -3.379326
v -57.45661 11.18295 -57.4566
v 57.45883 11.18295 57.45662
v 57.45882 11.18295 -57.4566
v -57.4566 11.18295 57.45662
v -57.45661 17.33711 -57.45661
v 57.45883 17.33712 57.4566
v -57.4566 17.33711 57.4566
v 57.45882 17.33712 -57.45661
v 57.45882 11.18295 -57.4566
v -57.45661 17.33711 -57.45661
v -57.45661 11.18295 -57.4566
v 57.45882 17.33712 -57.45661
v -57.45661 11.18295 -57.4566
v -57.4566 17.33711 57.4566
v -57.4566 11.18295 57.45662
v -57.45661 17.33711 -57.45661
v 80.44235 0.0005569458 57.45716
v 80.44235 22.98463 -57.45661
v 80.44235 0 -57.45661
v 80.44235 22.98463 57.4566
v 57.45661 0 -57.45661
v 80.44235 0.0005569458 57.45716
v 80.44235 0 -57.45661
v 57.45661 0.001113892 57.45771
v 57.4566 22.98463 -57.45661
v 80.44235 22.98463 57.4566
v 57.45716 22.98463 57.4566
v 80.44235 22.98463 -57.45661
v 57.45661 0.001113892 57.45771
v 57.4566 22.98463 -57.45661
v 57.45716 22.98463 57.4566
v 57.45661 0 -57.45661
v 80.44235 22.98463 -57.45661
v 57.45661 0 -57.45661
v 80.44235 0 -57.45661
v 57.4566 22.98463 -57.45661
v 57.45771 22.98464 80.44235
v -80.44235 -1.278977E-13 80.44235
v -57.4566 22.98353 80.44235
v 80.44235 0 80.44235
v -57.4566 22.98353 57.45661
v 57.45771 22.98464 80.44235
v -57.4566 22.98353 80.44235
v 57.45716 22.98463 57.4566
v -80.44235 -1.278977E-13 57.45661
v 80.44235 0 80.44235
v 80.44235 0.0005569458 57.45716
v -80.44235 -1.278977E-13 80.44235
v 57.45716 22.98463 57.4566
v -80.44235 -1.278977E-13 57.45661
v 80.44235 0.0005569458 57.45716
v -57.4566 22.98353 57.45661
v -80.44235 -1.278977E-13 57.45661
v -57.4566 22.98353 80.44235
v -80.44235 -1.278977E-13 80.44235
v -57.4566 22.98353 57.45661
v 57.45882 137.899 80.44235
v 80.44235 0 80.44235
v 57.45771 22.98464 80.44235
v 80.44235 160.8847 80.44235
v 57.45716 22.98463 57.4566
v 57.45882 137.899 80.44235
v 57.45771 22.98464 80.44235
v 57.45882 137.899 57.45661
v 80.44235 0.0005569458 57.45716
v 80.44235 160.8847 80.44235
v 80.44235 160.8847 57.45661
v 80.44235 0 80.44235
v 57.45882 137.899 57.45661
v 80.44235 0.0005569458 57.45716
v 80.44235 160.8847 57.45661
v 57.45716 22.98463 57.4566
v 80.44235 160.8847 80.44235
v 57.45882 137.899 57.45661
v 80.44235 160.8847 57.45661
v 57.45882 137.899 80.44235
vt 0.8910214 0.1528615
vt 0.9629724 0.005437911
vt 0.9629724 0.3187102
vt 0.7216196 0.3187103
vt 0.7988368 0.2055689
vt 0.8145674 0.1488447
vt 0.7216196 0.2339317
vt 0.9629724 0.3187102
vt 0.9629724 0.005437911
vt 0.8910214 0.1528615
vt 0.7216196 0.3187103
vt 0.7988368 0.2055689
vt 0.8145674 0.1488447
vt 0.7216196 0.2339317
vt 0.773092 0.2347739
vt 0.7521051 0.3196216
vt 0.7521051 0.2336494
vt 0.773092 0.3196216
vt 0.4213283 0.7770082
vt 0.5988853 0.8067288
vt 0.5988854 0.7770082
vt 0.4213283 0.8067288
vt 0.4504279 0.775387
vt 0.550914 0.8051076
vt 0.5509139 0.775387
vt 0.4504281 0.8051077
vt 0.4366058 0.7746117
vt 0.6124078 0.8043324
vt 0.6124079 0.7746117
vt 0.4366058 0.8043324
vt 0.3997669 0.7709968
vt 0.6609254 0.8007174
vt 0.6609253 0.7709968
vt 0.399767 0.8007174
vt 0.7216196 0.005437911
vt 0.9629724 0.3187102
vt 0.9629724 0.005437911
vt 0.7216196 0.3187103
vt 0.7216196 0.005437911
vt 0.9629724 0.3187102
vt 0.7216196 0.3187103
vt 0.9629724 0.005437911
vt 0.6946942 0.1990234
vt 0.381151 0.1780366
vt 0.381151 0.1990234
vt 0.6946941 0.1780365
vt 0.7730921 0.006093739
vt 0.7521051 0.3196216
vt 0.773092 0.3196216
vt 0.7521052 0.00609365
vt 0.2697642 0.7525883
vt 0.7993479 0.8045838
vt 0.7993479 0.7525883
vt 0.2697642 0.8045837
vt 0.6947463 0.7076161
vt 0.3081212 0.6632559
vt 0.6947463 0.6632559
vt 0.3081212 0.7076161
vt 0.7993479 0.7492014
vt 0.2697642 0.8045837
vt 0.2697642 0.7492012
vt 0.7993479 0.8045838
vt 0.2697642 0.7525883
vt 0.7993479 0.8045838
vt 0.2697642 0.8045837
vt 0.7993479 0.7525883
vt 0.4246613 0.7582355
vt 0.5019826 0.8355605
vt 0.5019826 0.7582355
vt 0.4246613 0.8355605
vt 0.3454076 0.7525883
vt 0.7993479 0.8045838
vt 0.7241345 0.7525883
vt 0.2697642 0.8045837
vt 0.6947463 0.7076161
vt 0.3081212 0.6632559
vt 0.6947463 0.6632559
vt 0.3081212 0.7076161
vt 0.7993479 0.7492014
vt 0.2697642 0.8045837
vt 0.2697642 0.7492012
vt 0.7993479 0.8045838
vt 0.3454076 0.7525883
vt 0.7993479 0.8045838
vt 0.2697642 0.8045837
vt 0.7241345 0.7525883
vt 0.3310445 0.7581514
vt 0.3949659 0.8220729
vt 0.3949659 0.7581514
vt 0.3310445 0.8220729
vt 0.3454076 0.7525883
vt 0.7993479 0.8045838
vt 0.7241345 0.7525883
vt 0.2697642 0.8045837
vt 0.6947463 0.7076161
vt 0.3081212 0.6632559
vt 0.6947463 0.6632559
vt 0.3081212 0.7076161
vt 0.7993479 0.7492014
vt 0.2697642 0.8045837
vt 0.2697642 0.7492012
vt 0.7993479 0.8045838
vt 0.3454076 0.7525883
vt 0.7993479 0.8045838
vt 0.2697642 0.8045837
vt 0.7241345 0.7525883
vt 0.4853438 0.8202672
vt 0.4214224 0.7563457
vt 0.4214224 0.8202672
vt 0.4853438 0.7563457
vn 1 0 0
vn 1 0 0
vn 1 0 0
vn 1 0 0
vn 1 0 0
vn 1 0 0
vn 1 0 0
vn -1 0 0
vn -1 0 0
vn -1 0 0
vn -1 0 0
vn -1 0 0
vn -1 0 0
vn -1 0 0
vn 0 1 0
vn 0 1 0
vn 0 1 0
vn 0 1 0
vn 0 0.2722836 -0.962217
vn 0 0.2722836 -0.962217
vn 0 0.2722836 -0.962217
vn 0 0.2722836 -0.962217
vn 0 0.9408979 -0.3386903
vn 0 0.9408979 -0.3386903
vn 0 0.9408979 -0.3386903
vn 0 0.9408979 -0.3386903
vn 0 -0.04044275 -0.9991818
vn 0 -0.04044275 -0.9991818
vn 0 -0.04044275 -0.9991818
vn 0 -0.04044275 -0.9991818
vn 0 0.8447499 -0.5351613
vn 0 0.8447499 -0.5351613
vn 0 0.8447499 -0.5351613
vn 0 0.8447499 -0.5351613
vn 0 -1 0
vn 0 -1 0
vn 0 -1 0
vn 0 -1 0
vn 0 1 0
vn 0 1 0
vn 0 1 0
vn 0 1 0
vn 0 0 -1
vn 0 0 -1
vn 0 0 -1
vn 0 0 -1
vn -1 0 0
vn -1 0 0
vn -1 0 0
vn -1 0 0
vn 1 0 0
vn 1 0 0
vn 1 0 0
vn 1 0 0
vn -1.211494E-05 -1 0
vn -1.211494E-05 -1 0
vn -1.211494E-05 -1 0
vn -1.211494E-05 -1 0
vn 0 1 0
vn 0 1 0
vn 0 1 0
vn 0 1 0
vn -1 1.18318E-05 0
vn -1 1.18318E-05 0
vn -1 1.18318E-05 0
vn -1 1.18318E-05 0
vn 0 0 -1
vn 0 0 -1
vn 0 0 -1
vn 0 0 -1
vn 0 0 1
vn 0 0 1
vn 0 0 1
vn 0 0 1
vn 0 1 0
vn 0 1 0
vn 0 1 0
vn 0 1 0
vn 0 -1 -1.211517E-05
vn 0 -1 -1.211517E-05
vn 0 -1 -1.211517E-05
vn 0 -1 -1.211517E-05
vn 0 -1.211607E-05 -1
vn 0 -1.211607E-05 -1
vn 0 -1.211607E-05 -1
vn 0 -1.211607E-05 -1
vn -0.7070727 0.7071409 0
vn -0.7070727 0.7071409 0
vn -0.7070727 0.7071409 0
vn -0.7070727 0.7071409 0
vn 0 0 1
vn 0 0 1
vn 0 0 1
vn 0 0 1
vn -1 1.209872E-05 1.203204E-05
vn -1 1.209872E-05 1.203204E-05
vn -1 1.209872E-05 1.203204E-05
vn -1 1.209872E-05 1.203204E-05
vn 1 0 0
vn 1 0 0
vn 1 0 0
vn 1 0 0
vn 1.23244E-05 0 -1
vn 1.23244E-05 0 -1
vn 1.23244E-05 0 -1
vn 1.23244E-05 0 -1
vn -0.707141 0.7070725 0
vn -0.707141 0.7070725 0
vn -0.707141 0.7070725 0
vn -0.707141 0.7070725 0
g polySurface55_0
f 3/3/3 2/2/2 1/1/1
f 1/1/1 4/4/4 3/3/3
f 1/1/1 5/5/5 4/4/4
f 1/1/1 6/6/6 5/5/5
f 5/5/5 7/7/7 4/4/4
f 10/10/10 9/9/9 8/8/8
f 8/8/8 11/11/11 10/10/10
f 11/11/11 12/12/12 10/10/10
f 12/12/12 13/13/13 10/10/10
f 11/11/11 14/14/14 12/12/12
f 17/17/17 16/16/16 15/15/15
f 16/16/16 18/18/18 15/15/15
f 21/21/21 20/20/20 19/19/19
f 20/20/20 22/22/22 19/19/19
f 25/25/25 24/24/24 23/23/23
f 24/24/24 26/26/26 23/23/23
f 29/29/29 28/28/28 27/27/27
f 28/28/28 30/30/30 27/27/27
f 33/33/33 32/32/32 31/31/31
f 32/32/32 34/34/34 31/31/31
f 37/37/37 36/36/36 35/35/35
f 36/36/36 38/38/38 35/35/35
f 41/41/41 40/40/40 39/39/39
f 40/40/40 42/42/42 39/39/39
f 45/45/45 44/44/44 43/43/43
f 44/44/44 46/46/46 43/43/43
f 49/49/49 48/48/48 47/47/47
f 48/48/48 50/50/50 47/47/47
f 53/53/53 52/52/52 51/51/51
f 52/52/52 54/54/54 51/51/51
f 57/57/57 56/56/56 55/55/55
f 56/56/56 58/58/58 55/55/55
f 61/61/61 60/60/60 59/59/59
f 60/60/60 62/62/62 59/59/59
f 65/65/65 64/64/64 63/63/63
f 64/64/64 66/66/66 63/63/63
f 69/69/69 68/68/68 67/67/67
f 68/68/68 70/70/70 67/67/67
f 73/73/73 72/72/72 71/71/71
f 72/72/72 74/74/74 71/71/71
f 77/77/77 76/76/76 75/75/75
f 76/76/76 78/78/78 75/75/75
f 81/81/81 80/80/80 79/79/79
f 80/80/80 82/82/82 79/79/79
f 85/85/85 84/84/84 83/83/83
f 84/84/84 86/86/86 83/83/83
f 89/89/89 88/88/88 87/87/87
f 88/88/88 90/90/90 87/87/87
f 93/93/93 92/92/92 91/91/91
f 92/92/92 94/94/94 91/91/91
f 97/97/97 96/96/96 95/95/95
f 96/96/96 98/98/98 95/95/95
f 101/101/101 100/100/100 99/99/99
f 100/100/100 102/102/102 99/99/99
f 105/105/105 104/104/104 103/103/103
f 104/104/104 106/106/106 103/103/103
f 109/109/109 108/108/108 107/107/107
f 108/108/108 110/110/110 107/107/107
