g polySurface12
v -4.541321 -4.036301 -32.82018
v -11.32472 -3.105789 -38.73318
v -11.36449 -4.087101 -38.32444
v -4.106979 -2.014252 -33.07835
v -2.986645 -4.025898 -23.57365
v -2.409332 -3.040531 -23.51399
v -12.00929 -6.245491 -27.4526
v -12.54855 -3.987156 -18.35933
v -21.18514 -4.089329 -32.62492
v -20.37594 -3.999958 -21.69566
v -20.81983 -3.02116 -21.45217
v -11.36449 -4.087101 -38.32444
v -16.1999 0.9596786 -34.8344
v -21.18514 -4.089329 -32.62492
v -11.32472 -3.105789 -38.73318
v -20.81983 -3.02116 -21.45217
v -19.24212 0.4545403 -22.35817
v -13.04214 -1.260025 -18.09241
v -20.37594 -3.999958 -21.69566
v -12.54855 -3.987156 -18.35933
v -2.409332 -3.040531 -23.51399
v -2.986645 -4.025898 -23.57365
v -4.508923 0.4224815 -23.75605
v -4.106979 -2.014252 -33.07835
v -16.1999 0.9596786 -34.8344
v -11.32472 -3.105789 -38.73318
v -5.705433 0.8962517 -32.20544
v -2.409332 -3.040531 -23.51399
v -4.508923 0.4224815 -23.75605
v -12.82751 2.799271 -27.58849
v -13.04214 -1.260025 -18.09241
v -19.24212 0.4545403 -22.35817
v -16.1999 0.9596786 -34.8344
vt 0.9858741 0.1319147
vt 1.004259 0.2197107
vt 1.017694 0.2120225
vt 0.9625697 0.1477939
vt 0.925861 0.07962073
vt 0.9212589 0.09139287
vt 0.9193794 0.1286352
vt 0.8371446 0.0588764
vt 0.7094532 0.1748652
vt 0.7682907 0.09895735
vt 0.7766132 0.1095848
vt 0.6938679 0.2918827
vt 0.7824838 0.2415069
vt 0.7094532 0.1748652
vt 0.7092986 0.2972351
vt 0.7766132 0.1095848
vt 0.8077683 0.1365323
vt 0.8399058 0.0970469
vt 0.7682907 0.09895735
vt 0.8371446 0.0588764
vt 0.9212589 0.09139287
vt 0.925861 0.07962073
vt 0.9008703 0.123306
vt 0.9625697 0.1477939
vt 0.916881 0.2590105
vt 1.004259 0.2197107
vt 0.9325514 0.1668598
vt 0.9212589 0.09139287
vt 0.9008703 0.123306
vt 0.8578348 0.1912627
vt 0.8399058 0.0970469
vt 0.8077683 0.1365323
vt 0.7824838 0.2415069
vn 0.827625 -0.3190323 -0.4617956
vn 0.1781912 0.2443319 -0.9531788
vn 0.06864822 -0.1312442 -0.9889704
vn 0.827625 0.2130339 -0.5192816
vn 0.8745721 -0.2720853 0.4013642
vn 0.8902211 0.1347889 0.4351302
vn 0.02951979 -0.9995642 0
vn 0.06082374 -0.1781912 0.9821142
vn -0.7685737 0.3929974 -0.5048242
vn -0.7763981 0.2678054 0.570514
vn -0.7920472 0.3616995 0.4917669
vn 0.06864822 -0.1312442 -0.9889704
vn -0.4164711 0.7920472 -0.4463329
vn -0.7685737 0.3929974 -0.5048242
vn 0.1781912 0.2443319 -0.9531788
vn -0.7920472 0.3616995 0.4917669
vn -0.4712425 0.8233452 0.3162801
vn 0.0529992 0.5416631 0.8389232
vn -0.7763981 0.2678054 0.570514
vn 0.06082374 -0.1781912 0.9821142
vn 0.8902211 0.1347889 0.4351302
vn 0.8745721 -0.2720853 0.4013642
vn 0.4598734 0.8311697 0.3125276
vn 0.827625 0.2130339 -0.5192816
vn -0.4164711 0.7920472 -0.4463329
vn 0.1781912 0.2443319 -0.9531788
vn 0.3816283 0.8781167 -0.288567
vn 0.8902211 0.1347889 0.4351302
vn 0.4598734 0.8311697 0.3125276
vn 0.02170122 0.9954843 0.09241263
vn 0.0529992 0.5416631 0.8389232
vn -0.4712425 0.8233452 0.3162801
vn -0.4164711 0.7920472 -0.4463329
g polySurface12_0
f 3/3/3 2/2/2 1/1/1
f 2/2/2 4/4/4 1/1/1
f 1/1/1 4/4/4 5/5/5
f 4/4/4 6/6/6 5/5/5
f 7/7/7 3/3/3 1/1/1
f 7/7/7 1/1/1 5/5/5
f 7/7/7 5/5/5 8/8/8
f 3/3/3 7/7/7 9/9/9
f 7/7/7 10/10/10 9/9/9
f 7/7/7 8/8/8 10/10/10
f 10/10/10 11/11/11 9/9/9
f 14/14/14 13/13/13 12/12/12
f 13/13/13 15/15/15 12/12/12
f 16/16/16 13/13/13 14/14/14
f 16/16/16 17/17/17 13/13/13
f 18/18/18 17/17/17 16/16/16
f 18/18/18 16/16/16 19/19/19
f 20/20/20 18/18/18 19/19/19
f 21/21/21 18/18/18 20/20/20
f 22/22/22 21/21/21 20/20/20
f 21/21/21 23/23/23 18/18/18
f 26/26/26 25/25/25 24/24/24
f 25/25/25 27/27/27 24/24/24
f 24/24/24 27/27/27 28/28/28
f 27/27/27 29/29/29 28/28/28
f 25/25/25 30/30/30 27/27/27
f 27/27/27 30/30/30 29/29/29
f 29/29/29 30/30/30 31/31/31
f 31/31/31 30/30/30 32/32/32
f 32/32/32 30/30/30 33/33/33
