g polySurface8
v -24.00637 -18.37915 -24.09266
v -24.00637 -3.953056 -12.11921
v -24.00637 -3.986565 -0.0972023
v -24.00637 -32.70673 -12.06845
v -24.00637 -32.70673 -0.01838303
v -12.2176 -18.37916 -24.09266
v -24.00637 -18.37915 -24.09266
v -0.1086038 -18.37915 -24.09266
v -12.2176 -3.953056 -12.11921
v -24.00637 -18.37915 -24.09266
v -12.2176 -18.37916 -24.09266
v -24.00637 -3.953056 -12.11921
v -24.00637 -0.8319931 -0.08812332
v -12.2176 5.710762 -12.11013
v -12.2176 5.677254 -0.08812332
v -24.00637 -0.7985001 -12.11013
v -12.2176 -3.986565 -0.0972023
v -24.00637 -32.70673 -0.01838303
v -24.00637 -3.986565 -0.0972023
v -0.1086039 -32.70673 0.06044388
v -12.2176 5.677254 -0.08812332
v -24.00637 -0.8319931 -0.08812332
v -0.1086038 -18.37915 -24.09266
v -24.00637 -32.70673 -12.06845
v -0.1086039 -32.70673 -12.06843
v -24.00637 -18.37915 -24.09266
v -12.2176 5.677254 -0.08812332
v -12.2176 -3.953056 -12.11921
v -12.2176 -3.986565 -0.0972023
v -12.2176 5.710762 -12.11013
v -12.2176 -3.953056 -12.11921
v -24.00637 -0.7985001 -12.11013
v -24.00637 -3.953056 -12.11921
v -12.2176 5.710762 -12.11013
v -24.00637 -3.986565 -0.0972023
v -24.00637 -0.7985001 -12.11013
v -24.00637 -0.8319931 -0.08812332
v -24.00637 -3.953056 -12.11921
v 8.801085 -8.75322 -8.45422
v 0.1302909 6.18766 -12.04577
v 0.1302892 -8.75322 -12.04578
v 8.801088 6.18766 -8.45422
v -8.540513 6.187645 -8.45422
v -8.540513 -8.753235 -8.45422
v -12.13207 6.187645 0.2165871
v -12.13206 -8.753227 0.2165871
v -8.540508 6.187645 8.887379
v -8.540509 -8.753227 8.887379
v 0.1302922 6.18766 12.47893
v 0.1302912 -8.753212 12.47894
v 8.801087 6.18766 8.887379
v 8.801086 -8.75322 8.887379
v 12.39265 6.18766 0.2165871
v 12.39265 -8.75322 0.2165871
v 0.1302757 32.7067 0.2165871
v 17.01323 32.70672 -16.66638
v 24.00637 32.70672 0.2165871
v 0.1302655 32.70673 -23.6595
v 17.01323 32.70673 17.09954
v 0.1302907 32.70669 24.09266
v -23.7458 32.70667 0.2165871
v -16.75267 32.70669 -16.66635
v -16.75268 32.70669 17.09951
v 0.1302922 6.18766 12.47893
v 14.86365 17.26466 14.94996
v 8.801087 6.18766 8.887379
v 0.1302922 17.26464 21.0527
v 20.96641 17.26466 0.2165909
v 12.39265 6.18766 0.2165871
v -8.540508 6.187645 8.887379
v -14.60309 17.26463 14.94993
v -12.13207 6.187645 0.2165871
v -20.70584 17.26463 0.2165871
v 14.86365 17.26466 -14.51679
v 8.801088 6.18766 -8.45422
v 0.130279 17.26466 -20.61954
v 0.1302909 6.18766 -12.04577
v -14.60309 17.26463 -14.51677
v -8.540513 6.187645 -8.45422
v 17.01323 32.70672 -16.66638
v 24.00637 32.70672 0.2165871
v 17.01323 32.70673 17.09954
v 0.1302907 32.70669 24.09266
v -16.75268 32.70669 17.09951
v -23.7458 32.70667 0.2165871
v -16.75267 32.70669 -16.66635
v 0.1302655 32.70673 -23.6595
v 12.26498 -8.65818 11.86072
v -12.19782 -8.658173 -11.91291
v 12.26498 -8.658173 -11.91291
v -12.19782 -8.65818 11.86072
v -12.19782 -13.54657 -11.91291
v 12.26498 -8.658173 -11.91291
v -12.19782 -8.658173 -11.91291
v 12.26498 -13.54657 -11.91291
v -12.19782 -13.54657 11.86073
v -12.19782 -8.658173 -11.91291
v -12.19782 -8.65818 11.86072
v -12.19782 -13.54657 -11.91291
v 12.26498 -8.65818 11.86072
v -12.19782 -13.54657 11.86073
v -12.19782 -8.65818 11.86072
v 12.26498 -13.54657 11.86073
v 12.26498 -8.658173 -11.91291
v 12.26498 -13.54657 11.86073
v 12.26498 -8.65818 11.86072
v 12.26498 -13.54657 -11.91291
v -12.19782 -13.54657 -11.91291
v 12.26498 -18.3774 -11.91291
v 12.26498 -13.54657 -11.91291
v -12.19782 -18.3774 -11.91291
v 12.26498 -13.54657 -11.91291
v 12.26498 -18.3774 11.86073
v 12.26498 -13.54657 11.86073
v 12.26498 -18.3774 -11.91291
v 12.26498 -13.54657 11.86073
v -12.19782 -18.3774 11.86073
v -12.19782 -13.54657 11.86073
v 12.26498 -18.3774 11.86073
v -12.19782 -13.54657 11.86073
v -12.19782 -18.3774 -11.91291
v -12.19782 -13.54657 -11.91291
v -12.19782 -18.3774 11.86073
v -12.22837 -8.693741 -11.89139
v -0.08240139 -18.32481 -12.02609
v -12.22837 -18.32481 -12.02609
v -0.08240175 -8.693733 -11.89139
v -12.22837 -8.693741 -11.89139
v -12.22837 -18.32481 -12.02609
v -12.2176 -18.37916 -24.09266
v -0.08240139 -18.32481 -12.02609
v -0.08240175 -8.693733 -11.89139
v -0.1086038 -18.37915 -24.09266
v -0.1086038 -18.37915 -24.09266
v -12.22837 -8.693741 -11.89139
v -12.2176 -18.37916 -24.09266
v -0.08240175 -8.693733 -11.89139
v -12.19782 -18.3774 -11.91291
v 12.26498 -18.3774 11.86073
v 12.26498 -18.3774 -11.91291
v -12.19782 -18.3774 11.86073
v -24.00637 -32.70673 -12.06845
v -0.1086039 -32.70673 0.06044388
v -0.1086039 -32.70673 -12.06843
v -24.00637 -32.70673 -0.01838303
v -0.1086039 -32.70673 0.06044388
v -0.1086038 -18.37915 -24.09266
v -0.1086039 -32.70673 -12.06843
v -0.1086039 -18.24379 0.06044388
v -0.1086039 -32.70673 0.06044388
v -12.2176 -3.986565 -0.0972023
v -0.1086039 -18.24379 0.06044388
v -12.2176 -18.37916 -24.09266
v -12.2176 -3.986565 -0.0972023
v -12.2176 -3.953056 -12.11921
v -12.2176 -18.37916 -24.09266
v -0.1086039 -18.24379 0.06044388
v -12.2176 -3.986565 -0.0972023
vt 0.08669679 0.8989377
vt 0.08669679 0.908078
vt 0.08669679 0.9080569
vt 0.08669679 0.8900302
vt 0.08669679 0.8900302
vt 0.09409623 0.9000498
vt 0.08669679 0.8989377
vt 0.09979656 0.8984544
vt 0.09409623 0.908078
vt 0.08669679 0.8989377
vt 0.09409623 0.9000498
vt 0.08669679 0.908078
vt 0.08669679 0.910037
vt 0.09409623 0.9141436
vt 0.09409623 0.9141226
vt 0.08669679 0.910058
vt 0.09409623 0.9080569
vt 0.08669679 0.8900302
vt 0.08669679 0.9080569
vt 0.09790297 0.8900312
vt 0.09409623 0.9141226
vt 0.08669679 0.910037
vt 0.09979656 0.8984544
vt 0.08669679 0.8900302
vt 0.09789646 0.8900302
vt 0.08669679 0.8989377
vt 0.09409623 0.9141226
vt 0.09409623 0.908078
vt 0.09409623 0.9080569
vt 0.09409623 0.9141436
vt 0.09409623 0.908078
vt 0.08669679 0.910058
vt 0.08669679 0.908078
vt 0.09409623 0.9141436
vt 0.08669679 0.9080569
vt 0.08669679 0.910058
vt 0.08669679 0.910037
vt 0.08669679 0.908078
vt 0.2489947 0.8867917
vt 0.2425148 0.8979573
vt 0.2425148 0.8867917
vt 0.2489947 0.8979573
vt 0.236035 0.8979573
vt 0.236035 0.8867917
vt 0.233351 0.8979573
vt 0.233351 0.8867917
vt 0.236035 0.8979573
vt 0.236035 0.8867917
vt 0.2425148 0.8979573
vt 0.2425148 0.8867917
vt 0.2489947 0.8979573
vt 0.2489947 0.8867917
vt 0.2516788 0.8979573
vt 0.2516788 0.8867917
vt 0.2425148 0.9133673
vt 0.2533217 0.9133673
vt 0.2577981 0.9133673
vt 0.2425148 0.9133673
vt 0.2533217 0.9133673
vt 0.2425148 0.9133673
vt 0.2272317 0.9133673
vt 0.231708 0.9133673
vt 0.231708 0.9133673
vt 0.2425148 0.8979573
vt 0.2535254 0.9062353
vt 0.2489947 0.8979573
vt 0.2425148 0.9062353
vt 0.2580861 0.9062353
vt 0.2516788 0.8979573
vt 0.236035 0.8979573
vt 0.2315043 0.9062353
vt 0.233351 0.8979573
vt 0.2269436 0.9062353
vt 0.2535254 0.9062353
vt 0.2489947 0.8979573
vt 0.2425148 0.9062353
vt 0.2425148 0.8979573
vt 0.2315043 0.9062353
vt 0.236035 0.8979573
vt 0.2533217 0.9133673
vt 0.2577981 0.9133673
vt 0.2533217 0.9133673
vt 0.2425148 0.9133673
vt 0.231708 0.9133673
vt 0.2272317 0.9133673
vt 0.231708 0.9133673
vt 0.2425148 0.9133673
vt 0.08029532 0.9015
vt 0.08942533 0.8832406
vt 0.08029532 0.8832406
vt 0.08942533 0.9015
vt 0.1121867 0.8999308
vt 0.1176648 0.9090605
vt 0.1176648 0.8999308
vt 0.1121867 0.9090605
vt 0.1153671 0.8884066
vt 0.1047018 0.8992294
vt 0.1153671 0.8992294
vt 0.1047018 0.8884066
vt 0.1120961 0.9015
vt 0.1066184 0.9106296
vt 0.1120961 0.9106296
vt 0.1066184 0.9015
vt 0.09421641 0.8992143
vt 0.08354253 0.888422
vt 0.08354253 0.8992143
vt 0.09421641 0.888422
vt 0.299253 0.8375694
vt 0.3348828 0.8303976
vt 0.3348828 0.8375694
vt 0.299253 0.8303976
vt 0.3348828 0.8375694
vt 0.3348828 0.8303976
vt 0.3348828 0.8375694
vt 0.3348828 0.8303976
vt 0.3348828 0.8375694
vt 0.299253 0.8303976
vt 0.299253 0.8375694
vt 0.3348828 0.8303976
vt 0.299253 0.8375694
vt 0.299253 0.8303976
vt 0.299253 0.8375694
vt 0.299253 0.8303976
vt 0.2308189 0.9099253
vt 0.2631677 0.8839626
vt 0.2308189 0.8839626
vt 0.2631677 0.9099253
vt 0.2308189 0.9099253
vt 0.2308189 0.8839626
vt 0.2308189 0.8880481
vt 0.2631677 0.8839626
vt 0.2631677 0.9099253
vt 0.2631677 0.8880481
vt 0.2631677 0.8880481
vt 0.2308189 0.9099253
vt 0.2308189 0.8880481
vt 0.2631677 0.9099253
vt 0.299253 0.8303976
vt 0.3348828 0.8303976
vt 0.3348828 0.8303976
vt 0.299253 0.8303976
vt 0.08669679 0.8900302
vt 0.09790297 0.8900312
vt 0.09789646 0.8900302
vt 0.08669679 0.8900302
vt 0.09790297 0.8900312
vt 0.09979656 0.8984544
vt 0.09789646 0.8900302
vt 0.1016967 0.8991081
vt 0.09790297 0.8900312
vt 0.09410925 0.8991102
vt 0.1016967 0.8991081
vt 0.09409623 0.9000498
vt 0.09410925 0.8991102
vt 0.09409623 0.908078
vt 0.09409623 0.9000498
vt 0.1016967 0.8991081
vt 0.09410925 0.8991102
vn -1 0 0
vn -1 0 0
vn -1 0 0
vn -1 0 0
vn -1 0 0
vn 0 -0.5983605 0.801227
vn 0 1 0
vn 0 0 -1
vn 0 0.6386626 -0.7694868
vn 0 0.6386626 -0.7694868
vn 0 0.6386627 -0.7694868
vn 0 0.6386626 -0.7694868
vn -0.4833664 0.8754147 0.002439173
vn -0.4833665 0.8754147 0.002439173
vn -0.4833665 0.8754147 0.002439174
vn -0.4833665 0.8754147 0.002439173
vn -0.00220885 0.003651031 0.9999909
vn -0.00220885 0.00365103 0.9999909
vn -0.00220885 0.00365103 0.9999909
vn -0.00220885 0.00365103 0.9999909
vn 0.0003910796 -0.001416554 0.9999989
vn 0.0003910796 -0.001416555 0.9999989
vn 0 -0.6946881 -0.7193111
vn 0 -0.6428487 -0.7659932
vn 0 -0.6946881 -0.7193111
vn 0 -0.6428487 -0.7659932
vn 1 0 0
vn 1 0 0
vn 1 0 0
vn 1 0 0
vn -0.0003906763 0.001415961 -0.9999989
vn -0.0003906763 0.001415961 -0.9999989
vn -0.0003906763 0.001415961 -0.9999989
vn -0.0003906763 0.001415961 -0.9999989
vn -1 0 0
vn -1 0 0
vn -1 0 0
vn -1 0 0
vn 0.7071066 0 -0.7071068
vn 0 0 -1
vn 0 0 -1
vn 0.7071066 0 -0.7071068
vn -0.7071068 0 -0.7071066
vn -0.7071068 0 -0.7071066
vn -1 0 0
vn -1 0 0
vn -0.7071068 0 0.7071067
vn -0.7071068 0 0.7071067
vn 0 0 1
vn 0 0 1
vn 0.7071066 0 0.7071069
vn 0.7071066 0 0.7071069
vn 1 0 0
vn 1 0 0
vn 0 1 0
vn 0 1 0
vn 0 1 0
vn 0 1 0
vn 0 1 0
vn 0 1 0
vn 0 1 0
vn 0 1 0
vn 0 1 0
vn 0 -0.7140322 0.7001129
vn 0.577904 -0.5762407 0.5779045
vn 0.4950538 -0.7140325 0.4950547
vn 0 -0.5762405 0.8172801
vn 0.8172802 -0.5762404 0
vn 0.7001127 -0.7140324 0
vn -0.4950542 -0.7140329 0.495054
vn -0.5779042 -0.5762411 0.577904
vn -0.7001124 -0.7140326 0
vn -0.8172799 -0.576241 0
vn 0.5779042 -0.5762405 -0.5779045
vn 0.4950545 -0.7140321 -0.4950547
vn 0 -0.5762402 -0.8172804
vn 0 -0.7140318 -0.7001133
vn -0.5779043 -0.5762408 -0.5779041
vn -0.4950539 -0.7140328 -0.4950542
vn 0.7049317 -0.07836948 -0.7049323
vn 0.9969243 -0.0783695 0
vn 0.704932 -0.07836957 0.704932
vn 0 -0.07836942 0.9969243
vn -0.704932 -0.07836939 0.704932
vn -0.9969243 -0.07836971 0
vn -0.704932 -0.07836998 -0.704932
vn 0 -0.07836971 -0.9969243
vn 0 1 0
vn 0 1 0
vn 0 1 0
vn 0 1 0
vn 0 0 -1
vn 0 0 -1
vn 0 0 -1
vn 0 0 -1
vn -1 0 0
vn -1 0 0
vn -1 0 0
vn -1 0 0
vn 0 0 1
vn 0 0 1
vn 0 0 1
vn 0 0 1
vn 1 0 0
vn 1 0 0
vn 1 0 0
vn 1 0 0
vn 0 0 -1
vn 0 0 -1
vn 0 0 -1
vn 0 0 -1
vn 1 0 0
vn 1 0 0
vn 1 0 0
vn 1 0 0
vn 0 0 1
vn 0 0 1
vn 0 0 1
vn 0 0 1
vn -1 0 0
vn -1 0 0
vn -1 0 0
vn -1 0 0
vn 0 0 1
vn 0 0 1
vn 0 0 1
vn 0 0 1
vn -1 0 0
vn -1 0 0
vn -1 0 0
vn 1 0 0
vn 1 0 0
vn 1 0 0
vn 0 0.8762156 -0.4819193
vn 0 0.8762156 -0.4819193
vn 0 0.8762156 -0.4819193
vn 0 0.8762156 -0.4819192
vn 0 -1 0
vn 0 -1 0
vn 0 -1 0
vn 0 -1 0
vn 0 -1 0
vn 0 -1 0
vn 0.0001376642 -1 0.0001347323
vn 0 -1 0
vn 1 0 0
vn 1 0 0
vn 1 0 0
vn 1 0 0
vn -0.01301783 0 0.9999152
vn -0.01301783 0 0.9999152
vn -0.01301784 0 0.9999152
vn 1 0 0
vn 1 0 0
vn 1 0 0
vn 0.7128353 0.6014389 -0.3607453
vn 0.7128353 0.6014389 -0.3607453
vn 0.7128353 0.6014389 -0.3607453
g polySurface8_0
f 3/3/3 2/2/2 1/1/1
f 3/3/3 1/1/1 4/4/4
f 5/5/5 3/3/3 4/4/4
f 8/8/8 7/7/7 6/6/6
f 11/11/11 10/10/10 9/9/9
f 10/10/10 12/12/12 9/9/9
f 15/15/15 14/14/14 13/13/13
f 14/14/14 16/16/16 13/13/13
f 19/19/19 18/18/18 17/17/17
f 18/18/18 20/20/20 17/17/17
f 17/17/17 21/21/21 19/19/19
f 21/21/21 22/22/22 19/19/19
f 25/25/25 24/24/24 23/23/23
f 24/24/24 26/26/26 23/23/23
f 29/29/29 28/28/28 27/27/27
f 28/28/28 30/30/30 27/27/27
f 33/33/33 32/32/32 31/31/31
f 32/32/32 34/34/34 31/31/31
f 37/37/37 36/36/36 35/35/35
f 36/36/36 38/38/38 35/35/35
f 41/41/41 40/40/40 39/39/39
f 40/40/40 42/42/42 39/39/39
f 43/43/43 40/40/40 41/41/41
f 44/44/44 43/43/43 41/41/41
f 45/45/45 43/43/43 44/44/44
f 46/46/46 45/45/45 44/44/44
f 47/47/47 45/45/45 46/46/46
f 48/48/48 47/47/47 46/46/46
f 49/49/49 47/47/47 48/48/48
f 50/50/50 49/49/49 48/48/48
f 51/51/51 49/49/49 50/50/50
f 52/52/52 51/51/51 50/50/50
f 53/53/53 51/51/51 52/52/52
f 54/54/54 53/53/53 52/52/52
f 39/39/39 42/42/42 54/54/54
f 42/42/42 53/53/53 54/54/54
f 57/57/57 56/56/56 55/55/55
f 56/56/56 58/58/58 55/55/55
f 59/59/59 57/57/57 55/55/55
f 60/60/60 59/59/59 55/55/55
f 55/55/55 58/58/58 61/61/61
f 60/60/60 55/55/55 61/61/61
f 58/58/58 62/62/62 61/61/61
f 63/63/63 60/60/60 61/61/61
f 66/66/66 65/65/65 64/64/64
f 65/65/65 67/67/67 64/64/64
f 68/68/68 65/65/65 66/66/66
f 69/69/69 68/68/68 66/66/66
f 64/64/64 67/67/67 70/70/70
f 67/67/67 71/71/71 70/70/70
f 70/70/70 71/71/71 72/72/72
f 71/71/71 73/73/73 72/72/72
f 74/74/74 68/68/68 69/69/69
f 75/75/75 74/74/74 69/69/69
f 76/76/76 74/74/74 75/75/75
f 77/77/77 76/76/76 75/75/75
f 78/78/78 76/76/76 77/77/77
f 79/79/79 78/78/78 77/77/77
f 72/72/72 73/73/73 79/79/79
f 73/73/73 78/78/78 79/79/79
f 74/74/74 80/80/80 68/68/68
f 80/80/80 81/81/81 68/68/68
f 68/68/68 81/81/81 65/65/65
f 81/81/81 82/82/82 65/65/65
f 65/65/65 82/82/82 67/67/67
f 82/82/82 83/83/83 67/67/67
f 67/67/67 83/83/83 71/71/71
f 83/83/83 84/84/84 71/71/71
f 71/71/71 84/84/84 73/73/73
f 84/84/84 85/85/85 73/73/73
f 73/73/73 85/85/85 78/78/78
f 85/85/85 86/86/86 78/78/78
f 78/78/78 86/86/86 76/76/76
f 86/86/86 87/87/87 76/76/76
f 76/76/76 87/87/87 74/74/74
f 87/87/87 80/80/80 74/74/74
f 90/90/90 89/89/89 88/88/88
f 89/89/89 91/91/91 88/88/88
f 94/94/94 93/93/93 92/92/92
f 93/93/93 95/95/95 92/92/92
f 98/98/98 97/97/97 96/96/96
f 97/97/97 99/99/99 96/96/96
f 102/102/102 101/101/101 100/100/100
f 101/101/101 103/103/103 100/100/100
f 106/106/106 105/105/105 104/104/104
f 105/105/105 107/107/107 104/104/104
f 110/110/110 109/109/109 108/108/108
f 109/109/109 111/111/111 108/108/108
f 114/114/114 113/113/113 112/112/112
f 113/113/113 115/115/115 112/112/112
f 118/118/118 117/117/117 116/116/116
f 117/117/117 119/119/119 116/116/116
f 122/122/122 121/121/121 120/120/120
f 121/121/121 123/123/123 120/120/120
f 126/126/126 125/125/125 124/124/124
f 124/124/124 125/125/125 127/127/127
f 130/130/130 129/129/129 128/128/128
f 133/133/133 132/132/132 131/131/131
f 136/136/136 135/135/135 134/134/134
f 134/134/134 135/135/135 137/137/137
f 140/140/140 139/139/139 138/138/138
f 139/139/139 141/141/141 138/138/138
f 144/144/144 143/143/143 142/142/142
f 143/143/143 145/145/145 142/142/142
f 148/148/148 147/147/147 146/146/146
f 147/147/147 149/149/149 146/146/146
f 152/152/152 151/151/151 150/150/150
f 155/155/155 154/154/154 153/153/153
f 158/158/158 157/157/157 156/156/156
