g polySurface5
v -23.23776 -0.2479277 -44.13312
v -22.49875 2.820257 -20.34267
v -21.53696 -0.2091359 -20.82451
v -24.38968 2.779941 -44.76259
v -1.948273 10.35144 1.716141
v -1.788483 -0.2280365 0.430603
v -18.98071 19.40841 -22.10457
v -1.208221 21.0176 -2.99028
v -6.843933 30.95688 -28.88882
v -1.788483 -0.2280365 0.430603
v 33.97168 11.43139 -3.823257
v 34.47519 -0.2537873 -2.715637
v -1.948273 10.35144 1.716141
v 48.09195 2.683453 -21.22792
v 46.92038 -0.3269083 -21.84668
v 44.24564 8.198423 -44.24393
v 43.26144 -0.4455348 -43.7455
v -1.208221 21.0176 -2.99028
v 43.94714 13.36879 -23.48096
v 40.8006 16.07804 -42.52809
v 24.84811 34.33737 -37.8499
v -6.843933 30.95688 -28.88882
v 43.26144 -0.4455348 -43.7455
v 9.260681 9.508538 -59.96667
v 9.916748 -0.4998799 -58.58263
v 44.24564 8.198423 -44.24393
v -24.38968 2.779941 -44.76259
v -23.23776 -0.2479277 -44.13312
v 11.7551 20.18752 -55.07762
v 40.8006 16.07804 -42.52809
v -20.19067 8.481856 -42.52802
v -18.98071 19.40841 -22.10457
v -6.843933 30.95688 -28.88882
v 24.84811 34.33737 -37.8499
vt 0.4557629 0.9897571
vt 0.3262561 0.8707006
vt 0.3080978 0.886422
vt 0.4608369 0.9628239
vt 0.2985668 0.6772625
vt 0.2152714 0.6814908
vt 0.4060607 0.8041306
vt 0.3665524 0.677516
vt 0.4834615 0.756446
vt 0.2152714 0.6814908
vt 0.3705204 0.47227
vt 0.3015932 0.4184634
vt 0.2985668 0.6772625
vt 0.4544178 0.3379681
vt 0.4448316 0.3152058
vt 0.6389573 0.3108668
vt 0.6074847 0.2423411
vt 0.3665524 0.677516
vt 0.5005933 0.4052827
vt 0.651062 0.3846209
vt 0.6622032 0.6018437
vt 0.4834615 0.756446
vt 0.969749 0.7835765
vt 0.6938108 0.8843044
vt 0.7255687 0.9524871
vt 0.9343311 0.7221194
vt 0.4608369 0.9628239
vt 0.4557629 0.9897571
vt 0.6730099 0.8063413
vt 0.877514 0.6772168
vt 0.472672 0.9156253
vt 0.4060607 0.8041306
vt 0.4834615 0.756446
vt 0.6622032 0.6018437
vn -0.8035859 -0.3152586 -0.5048383
vn -0.9244909 0.03208176 0.3798518
vn -0.8794058 -0.2525912 0.4035382
vn -0.8603871 0.09872057 -0.4999882
vn -0.3452863 0.145219 0.927194
vn -0.3309437 -0.08518504 0.9397977
vn -0.8123036 0.5467287 0.2031025
vn -0.2784095 0.6670244 0.691062
vn -0.4380486 0.8989509 0.0008232244
vn -0.3309437 -0.08518504 0.9397977
vn 0.4982379 0.4691635 0.7291396
vn 0.5048513 -0.01170962 0.8631268
vn -0.3452863 0.145219 0.927194
vn 0.9636441 0.1612567 0.2130405
vn 0.9690804 -0.1060248 0.2228045
vn 0.7935212 0.1246587 -0.5956379
vn 0.7728686 -0.1555062 -0.615217
vn -0.2784095 0.6670244 0.691062
vn 0.7964952 0.5765969 0.1820204
vn 0.6957785 0.5341524 -0.4801807
vn 0.3799567 0.9148447 -0.1367191
vn -0.4380486 0.8989509 0.0008232244
vn 0.7728686 -0.1555062 -0.615217
vn -0.007454079 0.1561669 -0.9877025
vn 0.01212665 -0.1588222 -0.9872327
vn 0.7935212 0.1246587 -0.5956379
vn -0.8603871 0.09872057 -0.4999882
vn -0.8035859 -0.3152586 -0.5048383
vn -0.004679881 0.5881426 -0.8087437
vn 0.6957785 0.5341524 -0.4801807
vn -0.6792228 0.5923157 -0.4333803
vn -0.8123036 0.5467287 0.2031025
vn -0.4380486 0.8989509 0.0008232244
vn 0.3799567 0.9148447 -0.1367191
g polySurface5_0
f 3/3/3 2/2/2 1/1/1
f 2/2/2 4/4/4 1/1/1
f 5/5/5 2/2/2 3/3/3
f 6/6/6 5/5/5 3/3/3
f 2/2/2 7/7/7 4/4/4
f 5/5/5 8/8/8 2/2/2
f 8/8/8 7/7/7 2/2/2
f 8/8/8 9/9/9 7/7/7
f 12/12/12 11/11/11 10/10/10
f 11/11/11 13/13/13 10/10/10
f 14/14/14 11/11/11 12/12/12
f 15/15/15 14/14/14 12/12/12
f 16/16/16 14/14/14 15/15/15
f 17/17/17 16/16/16 15/15/15
f 11/11/11 18/18/18 13/13/13
f 14/14/14 19/19/19 11/11/11
f 16/16/16 20/20/20 14/14/14
f 20/20/20 19/19/19 14/14/14
f 11/11/11 21/21/21 18/18/18
f 19/19/19 21/21/21 11/11/11
f 20/20/20 21/21/21 19/19/19
f 21/21/21 22/22/22 18/18/18
f 25/25/25 24/24/24 23/23/23
f 24/24/24 26/26/26 23/23/23
f 27/27/27 24/24/24 25/25/25
f 28/28/28 27/27/27 25/25/25
f 24/24/24 29/29/29 26/26/26
f 29/29/29 30/30/30 26/26/26
f 27/27/27 31/31/31 24/24/24
f 31/31/31 29/29/29 24/24/24
f 32/32/32 31/31/31 27/27/27
f 32/32/32 33/33/33 31/31/31
f 31/31/31 33/33/33 29/29/29
f 29/29/29 34/34/34 30/30/30
f 33/33/33 34/34/34 29/29/29
