g polySurface44
v -13.37486 -3.968994 0.5244808
v -5.492363 -3.968994 -2.700209
v -12.02754 -3.968994 2.280348
v -6.839687 -3.968994 -4.456074
v -22.42655 -4.981289 5.130541
v -9.670125 -3.628416 3.075708
v -18.83142 -4.981291 9.815813
v -13.36452 -3.628416 -1.738924
v -26.67275 -6.750254 10.29817
v -24.82426 -6.750473 12.70717
v -5.233834 -6.092201 7.054369
v -2.010046 -6.092201 -1.348139
v -3.029035 -6.092201 7.247267
v -4.214845 -6.092201 -1.541033
v -7.95312 -7.104496 16.83978
v -0.849988 -5.751623 6.046537
v -2.069942 -7.104498 17.3545
v -6.895607 -5.751623 5.517614
v -7.011837 -8.873461 23.46161
v -3.986915 -8.87368 23.72626
v 4.648253 -2.307808 4.15
v 0.3421373 -2.307808 -3.753193
v 6.213241 -2.307808 2.585016
v -1.222846 -2.307808 -2.188208
v 10.3964 -3.320102 12.52304
v 6.694091 -1.96723 0.1439571
v 14.57232 -3.320104 8.347109
v 2.402865 -1.96723 4.435183
v 16.07405 -5.089067 16.0584
v 18.22117 -5.089287 13.91129
v -3.070235 -14.65723 -9.822636
v -7.996058 2.491097 -4.896812
v -7.996058 -14.65723 -4.896812
v -3.070235 2.491097 -9.822636
v -3.070235 2.491097 0.02900887
v -3.070235 -14.65723 0.02900887
v 1.855589 2.491097 -4.896812
v 1.855589 -14.65724 -4.896812
v -3.070235 2.491097 -9.822636
v -3.070235 2.491097 0.02900887
v -7.996058 2.491097 -4.896812
v 1.855589 2.491097 -4.896812
v 26.65618 14.41002 -23.72626
v 26.66498 -14.4227 0.2799931
v 26.65722 14.41002 -11.72455
v 26.66394 -14.4227 -23.7106
v 26.66498 -14.4227 0.2799931
v 2.740311 14.16967 -11.86838
v 26.65722 14.41002 -11.72455
v 2.653585 -14.4227 0.2799931
v 2.691236 14.35293 -23.6829
v -21.37225 -14.49588 -23.64918
v 2.669676 -14.44011 -23.69599
v -21.32755 28.92652 -23.5432
v 2.691236 14.35293 -23.6829
v 14.52909 28.84883 -23.60012
v 2.581764 28.86186 -23.59057
v 26.65618 14.41002 -23.72626
v 26.65618 14.41002 -23.72626
v 14.52908 28.84883 -11.86838
v 14.52909 28.84883 -23.60012
v 26.65722 14.41002 -11.72455
v 26.67275 -28.81594 0.2845402
v 2.653585 -14.4227 0.2799931
v 26.66498 -14.4227 0.2799931
v -21.39706 -28.81594 0.2845402
v -21.39706 -14.45541 0.2845402
v -21.39706 -33.58998 0.2845402
v 26.67275 -28.81594 0.2845402
v 26.67275 -33.58998 0.2845402
v -21.39706 -28.81594 0.2845402
v 26.67275 -28.81594 0.2845402
v 26.66394 -14.4227 -23.7106
v 26.67275 -28.81594 -23.69324
v 26.66498 -14.4227 0.2799931
v 26.67275 -33.58998 0.2845402
v 26.67275 -28.81594 -23.69324
v 26.67275 -33.58998 -23.69324
v 26.67275 -28.81594 0.2845402
v 14.52908 33.51228 -11.80631
v 14.52908 28.84883 -11.86838
v 2.74031 28.84883 -11.86838
v -21.32755 33.51228 -11.80631
v -21.32755 28.84883 -11.86838
v 26.65722 14.41002 -11.72455
v 2.740311 14.16967 -11.86838
v -21.32755 28.84883 -11.86838
v 2.69513 -14.53248 -11.86246
v -21.3635 -14.53238 -11.84054
v 2.740311 14.16967 -11.86838
v 2.74031 28.84883 -11.86838
v 14.52908 33.51228 -23.55325
v -21.32755 33.51228 -11.80631
v -21.32755 33.58998 -23.51694
v 14.52908 33.51228 -11.80631
v 14.52908 28.84883 -11.86838
v 14.52908 33.51228 -23.55325
v 14.52909 28.84883 -23.60012
v 14.52908 33.51228 -11.80631
v -21.3635 -14.53238 -11.84054
v -21.32755 28.92652 -23.5432
v -21.32755 28.84883 -11.86838
v -21.37225 -14.49588 -23.64918
v -21.32755 28.84883 -11.86838
v -21.32755 33.58998 -23.51694
v -21.32755 33.51228 -11.80631
v -21.32755 28.92652 -23.5432
v 2.653585 -14.4227 0.2799931
v 2.69513 -14.53248 -11.86246
v 2.740311 14.16967 -11.86838
v -21.39706 -14.45541 0.2845402
v 2.69513 -14.53248 -11.86246
v 2.653585 -14.4227 0.2799931
v -21.3635 -14.53238 -11.84054
v 2.581764 28.86186 -23.59057
v 14.52909 28.84883 -23.60012
v 14.52908 33.51228 -23.55325
v -21.32755 28.92652 -23.5432
v -21.32755 33.58998 -23.51694
v 2.669676 -14.44011 -23.69599
v -21.38332 -28.81594 -23.69324
v 26.67275 -28.81594 -23.69324
v -21.37225 -14.49588 -23.64918
v 26.66394 -14.4227 -23.7106
v 26.67275 -28.81594 -23.69324
v -21.38332 -33.58998 -23.69324
v 26.67275 -33.58998 -23.69324
v -21.38332 -28.81594 -23.69324
v -21.37225 -14.49588 -23.64918
v -21.39706 -28.81594 0.2845402
v -21.38332 -28.81594 -23.69324
v -21.3635 -14.53238 -11.84054
v -21.38332 -28.81594 -23.69324
v -21.39706 -33.58998 0.2845402
v -21.38332 -33.58998 -23.69324
v -21.39706 -28.81594 0.2845402
v -21.39706 -28.81594 0.2845402
v -21.3635 -14.53238 -11.84054
v -21.39706 -14.45541 0.2845402
v 26.65618 14.41002 -23.72626
v 2.669676 -14.44011 -23.69599
v 26.66394 -14.4227 -23.7106
v 2.691236 14.35293 -23.6829
v 2.581764 28.86186 -23.59057
v -21.32755 28.92652 -23.5432
v 2.691236 14.35293 -23.6829
v 26.67275 -33.58998 -23.69324
v -21.38332 -33.58998 -23.69324
v 26.67275 -33.58998 0.2845402
v -21.39706 -33.58998 0.2845402
vt 0.3104104 0.8834081
vt 0.3210769 0.9118537
vt 0.3185261 0.8826981
vt 0.3129612 0.9125637
vt 0.2975459 0.8952731
vt 0.3111104 0.9158846
vt 0.3087807 0.8942902
vt 0.2995653 0.9168946
vt 0.2993434 0.8826277
vt 0.3051199 0.8821223
vt 0.3104104 0.8834081
vt 0.3210769 0.9118537
vt 0.3185261 0.8826981
vt 0.3129612 0.9125637
vt 0.2975459 0.8952731
vt 0.3111104 0.9158846
vt 0.3087807 0.8942902
vt 0.2995653 0.9168946
vt 0.2993434 0.8826277
vt 0.3051199 0.8821223
vt 0.3104104 0.8834081
vt 0.3210769 0.9118537
vt 0.3185261 0.8826981
vt 0.3129612 0.9125637
vt 0.2975459 0.8952731
vt 0.3111104 0.9158846
vt 0.3087807 0.8942902
vt 0.2995653 0.9168946
vt 0.2993434 0.8826277
vt 0.3051199 0.8821223
vt 0.3189415 0.9187781
vt 0.306263 0.9060996
vt 0.306263 0.9060996
vt 0.3189415 0.9187781
vt 0.3189415 0.8934211
vt 0.3189415 0.8934211
vt 0.3316199 0.9060996
vt 0.3316199 0.9060996
vt 0.3189415 0.9187781
vt 0.3189415 0.8934211
vt 0.306263 0.9060996
vt 0.3316199 0.9060996
vt 0.1132344 0.9028674
vt 0.1132351 0.8983774
vt 0.1132345 0.9028674
vt 0.1132355 0.8981411
vt 0.1132351 0.8983774
vt 0.1095078 0.9025962
vt 0.1132345 0.9028674
vt 0.1094946 0.8983774
vt 0.3149489 0.8358788
vt 0.2963544 0.8212345
vt 0.3149379 0.8212628
vt 0.2963771 0.8395313
vt 0.0854706 0.8901505
vt 0.0950086 0.913575
vt 0.0852937 0.9135961
vt 0.1146053 0.8902428
vt 0.1132344 0.9028674
vt 0.1113447 0.9048836
vt 0.1113447 0.9048836
vt 0.1132345 0.9028674
vt 0.3146459 0.8139653
vt 0.3085505 0.8212717
vt 0.3207393 0.8212717
vt 0.2963418 0.8139653
vt 0.2963418 0.821255
vt 0.2996019 0.8900321
vt 0.3215893 0.8929432
vt 0.3215893 0.8900321
vt 0.2996019 0.8929432
vt 0.3146459 0.8139653
vt 0.3207388 0.8212717
vt 0.3207432 0.8139653
vt 0.3207393 0.8212717
vt 0.3215893 0.8900321
vt 0.3289135 0.8929432
vt 0.3289135 0.8900321
vt 0.3215893 0.8929432
vt 0.1104262 0.9056102
vt 0.1113447 0.9048836
vt 0.1095078 0.9048836
vt 0.1057576 0.9056102
vt 0.1057576 0.9048836
vt 0.1132345 0.9028674
vt 0.1095078 0.9025962
vt 0.2963771 0.8395116
vt 0.3085716 0.8212159
vt 0.2963588 0.821216
vt 0.3085946 0.8357859
vt 0.3085946 0.8432373
vt 0.1113447 0.9056102
vt 0.1057576 0.9056102
vt 0.1057576 0.9056222
vt 0.1104262 0.9056102
vt 0.1113447 0.9048836
vt 0.1113447 0.9056102
vt 0.1113447 0.9048836
vt 0.1104262 0.9056102
vt 0.2963588 0.821216
vt 0.2963771 0.8395313
vt 0.2963771 0.8395116
vt 0.2963544 0.8212345
vt 0.1057576 0.9048836
vt 0.1057576 0.9056222
vt 0.1057576 0.9056102
vt 0.1057576 0.9048956
vt 0.1094946 0.8983774
vt 0.1095008 0.898124
vt 0.1095078 0.9025962
vt 0.2963418 0.821255
vt 0.3085716 0.8212159
vt 0.3085505 0.8212717
vt 0.2963588 0.821216
vt 0.1104079 0.9048856
vt 0.1113447 0.9048836
vt 0.1113447 0.9056102
vt 0.1057576 0.9048956
vt 0.1057576 0.9056222
vt 0.3149379 0.8212628
vt 0.2963488 0.8139653
vt 0.3207432 0.8139653
vt 0.2963544 0.8212345
vt 0.3207388 0.8212717
vt 0.3289135 0.8929432
vt 0.2996103 0.8900321
vt 0.3289135 0.8900321
vt 0.2996103 0.8929432
vt 0.2963544 0.8212345
vt 0.2963418 0.8139653
vt 0.2963488 0.8139653
vt 0.2963588 0.821216
vt 0.2996103 0.8929432
vt 0.2996019 0.8900321
vt 0.2996103 0.8900321
vt 0.2996019 0.8929432
vt 0.2963418 0.8139653
vt 0.2963588 0.821216
vt 0.2963418 0.821255
vt 0.1132344 0.9028674
vt 0.1114549 0.8981384
vt 0.1132355 0.8981411
vt 0.1114583 0.9026248
vt 0.311527 0.843244
vt 0.2963771 0.8395313
vt 0.3149489 0.8358788
vt 0.3289135 0.8900321
vt 0.2996103 0.8900321
vt 0.3215893 0.8900321
vt 0.2996019 0.8900321
vn 0 1 0
vn 0 1 0
vn 0 1 0
vn 0 1 0
vn -0.1254191 0.9874243 0.0962458
vn -0.09372658 0.992997 0.07191905
vn -0.1254262 0.9874229 0.09625119
vn -0.09372658 0.992997 0.07191905
vn -0.2078954 0.9650503 0.1595536
vn -0.2078954 0.9650503 0.1595536
vn 0 1 0
vn 0 1 0
vn 0 1 0
vn 0 1 0
vn -0.01377205 0.9874243 0.1574915
vn -0.0102965 0.992997 0.1176904
vn -0.01377282 0.9874228 0.1575003
vn -0.0102965 0.992997 0.1176904
vn -0.02281664 0.9650503 0.2610695
vn -0.02281664 0.9650503 0.2610695
vn 0 1 0
vn 0 1 0
vn 0 1 0
vn 0 1 0
vn 0.111793 0.9874243 0.1117833
vn 0.08353772 0.992997 0.08353709
vn 0.1117992 0.9874229 0.1117895
vn 0.08353771 0.992997 0.08353709
vn 0.1853242 0.9650504 0.1852908
vn 0.1853242 0.9650504 0.1852908
vn 0 0 -1
vn -1 0 0
vn -1 0 0
vn 0 0 -1
vn 0 0 1
vn 0 0 1
vn 1 0 0
vn 1 0 0
vn 0 1 0
vn 0 1 0
vn 0 1 0
vn 0 1 0
vn 1 -2.679139E-05 -0.0001152112
vn 1 0 -8.641454E-05
vn 1 -8.037416E-05 -0.0001728044
vn 1 0 -8.641445E-05
vn 0 0.4217308 0.9067211
vn 0 0.4217308 0.9067211
vn -0.004850264 0.4254317 0.9049776
vn 0 0.4217308 0.9067211
vn -0.003879936 0.002067734 -0.9999903
vn 0 0 -1
vn -0.003879936 0.002067734 -0.9999903
vn 0 0 -1
vn -0.001481779 0.006920426 -0.999975
vn 0 0 -1
vn -0.001134816 0.00848494 -0.9999634
vn 0 0 -1
vn 0.6887495 0.7249994 0
vn 0.6887495 0.7249994 0
vn 0.6887495 0.7249994 0
vn 0.6887495 0.7249994 0
vn 0 0 1
vn 4.731032E-05 0.0002370241 1
vn 0 0 1
vn 9.462065E-05 0.0001581279 1
vn 9.462065E-05 0.0001581279 1
vn 0 0 1
vn 0 0 1
vn 0 0 1
vn 0 0 1
vn 1 0 0
vn 0.9999999 0.0005755819 -2.163085E-05
vn 0.9999999 0.0005755819 -2.163085E-05
vn 1 0 0
vn 1 0 0
vn 1 0 0
vn 1 0 0
vn 1 0 0
vn 0 0 1
vn 0 0 1
vn 0 0 1
vn 0 0 1
vn 0 0 1
vn 0 0 1
vn 0 0 1
vn 0 0 1
vn 0 0 1
vn 0 0 1
vn 0 0 1
vn 0 0 1
vn 0.001085121 0.9999939 0.003311545
vn 0.001085121 0.9999939 0.003311545
vn 0.001085121 0.9999939 0.003311545
vn 0.001085121 0.9999939 0.003311545
vn 1 0 0
vn 1 0 0
vn 1 0 0
vn 1 0 0
vn -0.9999989 0.001405206 0.0003746955
vn -0.9999998 0.0007025587 0.0001873885
vn -0.9999998 0.0007025587 0.0001873885
vn -0.9999989 0.001405206 0.0003746955
vn -1 0 0
vn -1 0 0
vn -1 0 0
vn -1 0 0
vn -0.9999926 0.001573418 -0.003530632
vn -0.9999926 0.001573418 -0.003530632
vn -0.9999926 0.001573418 -0.003530632
vn -0.0006822053 0.9999702 -0.007697658
vn -0.0006822053 0.9999702 -0.007697658
vn -0.0006822053 0.9999702 -0.007697658
vn -0.0006822053 0.9999702 -0.007697658
vn -0.001134816 0.00848494 -0.9999634
vn 0 0 -1
vn -0.0007878511 0.01004943 -0.9999492
vn -0.002639994 0.005877254 -0.9999793
vn -0.001379845 0.008596444 -0.9999621
vn -0.0006499097 0.0008963235 -0.9999994
vn -0.0006499097 0.0008963235 -0.9999994
vn -0.0006499097 0.0008963235 -0.9999994
vn -0.0006499097 0.0008963235 -0.9999994
vn -0.0006080379 -0.001206274 -0.9999992
vn 0 0 -1
vn 0 0 -1
vn 0 0 -1
vn 0 0 -1
vn -0.9999989 0.001502344 -0.0001380553
vn -0.9999996 0.0007513054 -0.0003555741
vn -0.9999996 0.0007513054 -0.0003555741
vn -0.9999989 0.001502344 -0.0001380553
vn -0.9999996 0.0007513054 -0.0003555741
vn -0.9999999 0 -0.0005730927
vn -0.9999999 0 -0.0005730927
vn -0.9999996 0.0007513054 -0.0003555741
vn -0.9999962 0 -0.002768182
vn -0.9999962 0 -0.002768182
vn -0.9999962 0 -0.002768182
vn 0 0 -1
vn -0.001208782 -4.432794E-05 -0.9999993
vn 0 0 -1
vn -0.001208782 -4.432794E-05 -0.9999993
vn -0.002639994 0.005877254 -0.9999793
vn -0.002639994 0.005877254 -0.9999793
vn -0.003900119 0.00315801 -0.9999875
vn 0 -1 0
vn 0 -1 0
vn 0 -1 0
vn 0 -1 0
g polySurface44_0
f 3/3/3 2/2/2 1/1/1
f 2/2/2 4/4/4 1/1/1
f 7/7/7 6/6/6 5/5/5
f 6/6/6 8/8/8 5/5/5
f 7/7/7 5/5/5 9/9/9
f 10/10/10 7/7/7 9/9/9
f 13/13/13 12/12/12 11/11/11
f 12/12/12 14/14/14 11/11/11
f 17/17/17 16/16/16 15/15/15
f 16/16/16 18/18/18 15/15/15
f 17/17/17 15/15/15 19/19/19
f 20/20/20 17/17/17 19/19/19
f 23/23/23 22/22/22 21/21/21
f 22/22/22 24/24/24 21/21/21
f 27/27/27 26/26/26 25/25/25
f 26/26/26 28/28/28 25/25/25
f 27/27/27 25/25/25 29/29/29
f 30/30/30 27/27/27 29/29/29
f 33/33/33 32/32/32 31/31/31
f 32/32/32 34/34/34 31/31/31
f 35/35/35 32/32/32 33/33/33
f 36/36/36 35/35/35 33/33/33
f 37/37/37 35/35/35 36/36/36
f 38/38/38 37/37/37 36/36/36
f 31/31/31 34/34/34 38/38/38
f 34/34/34 37/37/37 38/38/38
f 41/41/41 40/40/40 39/39/39
f 40/40/40 42/42/42 39/39/39
f 45/45/45 44/44/44 43/43/43
f 44/44/44 46/46/46 43/43/43
f 49/49/49 48/48/48 47/47/47
f 48/48/48 50/50/50 47/47/47
f 53/53/53 52/52/52 51/51/51
f 52/52/52 54/54/54 51/51/51
f 57/57/57 56/56/56 55/55/55
f 56/56/56 58/58/58 55/55/55
f 61/61/61 60/60/60 59/59/59
f 60/60/60 62/62/62 59/59/59
f 65/65/65 64/64/64 63/63/63
f 63/63/63 64/64/64 66/66/66
f 64/64/64 67/67/67 66/66/66
f 70/70/70 69/69/69 68/68/68
f 69/69/69 71/71/71 68/68/68
f 74/74/74 73/73/73 72/72/72
f 73/73/73 75/75/75 72/72/72
f 78/78/78 77/77/77 76/76/76
f 77/77/77 79/79/79 76/76/76
f 82/82/82 81/81/81 80/80/80
f 82/82/82 80/80/80 83/83/83
f 84/84/84 82/82/82 83/83/83
f 85/85/85 81/81/81 82/82/82
f 86/86/86 85/85/85 82/82/82
f 89/89/89 88/88/88 87/87/87
f 88/88/88 90/90/90 87/87/87
f 90/90/90 91/91/91 87/87/87
f 94/94/94 93/93/93 92/92/92
f 93/93/93 95/95/95 92/92/92
f 98/98/98 97/97/97 96/96/96
f 97/97/97 99/99/99 96/96/96
f 102/102/102 101/101/101 100/100/100
f 101/101/101 103/103/103 100/100/100
f 106/106/106 105/105/105 104/104/104
f 105/105/105 107/107/107 104/104/104
f 110/110/110 109/109/109 108/108/108
f 113/113/113 112/112/112 111/111/111
f 112/112/112 114/114/114 111/111/111
f 117/117/117 116/116/116 115/115/115
f 117/117/117 115/115/115 118/118/118
f 119/119/119 117/117/117 118/118/118
f 122/122/122 121/121/121 120/120/120
f 121/121/121 123/123/123 120/120/120
f 122/122/122 120/120/120 124/124/124
f 127/127/127 126/126/126 125/125/125
f 126/126/126 128/128/128 125/125/125
f 131/131/131 130/130/130 129/129/129
f 130/130/130 132/132/132 129/129/129
f 135/135/135 134/134/134 133/133/133
f 134/134/134 136/136/136 133/133/133
f 139/139/139 138/138/138 137/137/137
f 142/142/142 141/141/141 140/140/140
f 141/141/141 143/143/143 140/140/140
f 146/146/146 145/145/145 144/144/144
f 149/149/149 148/148/148 147/147/147
f 149/149/149 150/150/150 148/148/148
