g polySurface56
v -57.45735 137.9005 57.45698
v -57.4566 160.8847 -57.45661
v -57.4566 137.9001 -57.45661
v -57.4566 160.8847 57.4566
v -80.44234 137.9001 -57.45661
v -57.45735 137.9005 57.45698
v -57.4566 137.9001 -57.45661
v -80.44235 137.9012 57.45771
v -80.44235 160.8847 -57.45661
v -57.4566 160.8847 57.4566
v -80.44235 160.8847 57.4566
v -57.4566 160.8847 -57.45661
v -80.44235 137.9012 57.45771
v -80.44235 160.8847 -57.45661
v -80.44235 160.8847 57.4566
v -80.44234 137.9001 -57.45661
v -57.4566 160.8847 -57.45661
v -80.44234 137.9001 -57.45661
v -57.4566 137.9001 -57.45661
v -80.44235 160.8847 -57.45661
v -65.55469 31.29139 63.49881
v 65.65736 129.7004 63.49881
v 49.25586 146.1019 63.49881
v -49.15319 14.88989 63.49881
v -65.55469 31.29139 74.78477
v 65.65736 129.7004 74.78477
v -49.15319 14.88989 74.78477
v 49.25586 146.1019 74.78477
v -65.55469 31.29139 63.49881
v 49.25586 146.1019 74.78477
v -65.55469 31.29139 74.78477
v 49.25586 146.1019 63.49881
v 65.65736 129.7004 63.49881
v -49.15319 14.88989 74.78477
v 65.65736 129.7004 74.78477
v -49.15319 14.88989 63.49881
v 65.65736 129.7004 74.78477
v 49.25586 146.1019 63.49881
v 65.65736 129.7004 63.49881
v 49.25586 146.1019 74.78477
v 57.4566 137.9012 57.4566
v -80.44235 160.8847 57.4566
v -57.45735 137.9005 57.45698
v 80.44235 160.8847 57.4566
v -57.45772 137.9001 80.44235
v 57.4566 137.9012 57.4566
v -57.45735 137.9005 57.45698
v 57.4566 137.9012 80.44234
v -80.44235 160.8847 80.44235
v 80.44235 160.8847 57.4566
v 80.44235 160.8847 80.44234
v -80.44235 160.8847 57.4566
v 57.4566 137.9012 80.44234
v -80.44235 160.8847 80.44235
v 80.44235 160.8847 80.44234
v -57.45772 137.9001 80.44235
v 80.44235 160.8847 57.4566
v 57.4566 137.9012 80.44234
v 80.44235 160.8847 80.44234
v 57.4566 137.9012 57.4566
v -57.45772 137.9001 80.44235
v -80.44235 0 80.44235
v -80.44235 160.8847 80.44235
v -57.45882 22.98574 80.44235
v -57.45882 22.98574 57.45661
v -57.45772 137.9001 80.44235
v -57.45735 137.9005 57.45698
v -57.45882 22.98574 80.44235
v -80.44235 0 57.45661
v -80.44235 160.8847 80.44235
v -80.44235 0 80.44235
v -80.44235 160.8847 57.4566
v -57.45735 137.9005 57.45698
v -80.44235 0 57.45661
v -57.45882 22.98574 57.45661
v -80.44235 160.8847 57.4566
v -80.44235 0 57.45661
v -57.45882 22.98574 80.44235
v -57.45882 22.98574 57.45661
v -80.44235 0 80.44235
vt 0.2697642 0.7525883
vt 0.7993479 0.8045838
vt 0.7993479 0.7525883
vt 0.2697642 0.8045837
vt 0.6947463 0.7076161
vt 0.3081212 0.6632559
vt 0.6947463 0.6632559
vt 0.3081212 0.7076161
vt 0.7993479 0.7492014
vt 0.2697642 0.8045837
vt 0.2697642 0.7492012
vt 0.7993479 0.8045838
vt 0.2697642 0.7525883
vt 0.7993479 0.8045838
vt 0.2697642 0.8045837
vt 0.7993479 0.7525883
vt 0.3608368 0.7505185
vt 0.438158 0.8278435
vt 0.438158 0.7505185
vt 0.3608368 0.8278435
vt 0.2784132 0.7489725
vt 0.7973063 0.8139102
vt 0.7973063 0.7464498
vt 0.2784132 0.816433
vt 0.2784132 0.7489725
vt 0.7973063 0.8139102
vt 0.2784132 0.816433
vt 0.7973063 0.7464498
vt 0.3070327 0.9481932
vt 0.7849941 0.981416
vt 0.3070327 0.981416
vt 0.7849941 0.9481933
vt 0.7857898 0.9780267
vt 0.3078283 0.9448041
vt 0.7857897 0.944804
vt 0.3078282 0.9780267
vt 0.4947852 0.4150815
vt 0.5635705 0.4624131
vt 0.4947852 0.462413
vt 0.5635705 0.4150815
vt 0.3454076 0.7525883
vt 0.7993479 0.8045838
vt 0.7241345 0.7525883
vt 0.2697642 0.8045837
vt 0.6947463 0.7076161
vt 0.3081212 0.6632559
vt 0.6947463 0.6632559
vt 0.3081212 0.7076161
vt 0.7993479 0.7492014
vt 0.2697642 0.8045837
vt 0.2697642 0.7492012
vt 0.7993479 0.8045838
vt 0.3454076 0.7525883
vt 0.7993479 0.8045838
vt 0.2697642 0.8045837
vt 0.7241345 0.7525883
vt 0.4853438 0.8202672
vt 0.4214224 0.7563457
vt 0.4214224 0.8202672
vt 0.4853438 0.7563457
vt 0.3454076 0.7525883
vt 0.7993479 0.8045838
vt 0.2697642 0.8045837
vt 0.7241345 0.7525883
vt 0.6947463 0.7076161
vt 0.3081212 0.6632559
vt 0.3081212 0.7076161
vt 0.6947463 0.6632559
vt 0.7993479 0.7492014
vt 0.2697642 0.8045837
vt 0.7993479 0.8045838
vt 0.2697642 0.7492012
vt 0.3454076 0.7525883
vt 0.7993479 0.8045838
vt 0.7241345 0.7525883
vt 0.2697642 0.8045837
vt 0.3310445 0.7581514
vt 0.3949659 0.8220729
vt 0.3310445 0.8220729
vt 0.3949659 0.7581514
vn 1 -1.645515E-05 0
vn 1 -1.645515E-05 0
vn 1 -1.645515E-05 0
vn 1 -1.645515E-05 0
vn -1.593224E-05 -1 0
vn -1.593224E-05 -1 0
vn -1.593224E-05 -1 0
vn -1.593224E-05 -1 0
vn 0 1 0
vn 0 1 0
vn 0 1 0
vn 0 1 0
vn -1 0 0
vn -1 0 0
vn -1 0 0
vn -1 0 0
vn 0 0 -1
vn 0 0 -1
vn 0 0 -1
vn 0 0 -1
vn 0 0 -1
vn 0 0 -1
vn 0 0 -1
vn 0 0 -1
vn 0 0 1
vn 0 0 1
vn 0 0 1
vn 0 0 1
vn -0.7071067 0.7071068 0
vn -0.7071067 0.7071068 0
vn -0.7071067 0.7071068 0
vn -0.7071067 0.7071068 0
vn 0.7071068 -0.7071066 0
vn 0.7071068 -0.7071066 0
vn 0.7071068 -0.7071066 0
vn 0.7071068 -0.7071066 0
vn 0.7071064 0.7071071 0
vn 0.7071064 0.7071071 0
vn 0.7071064 0.7071071 0
vn 0.7071064 0.7071071 0
vn 0 0 -1
vn 0 0 -1
vn 0 0 -1
vn 0 0 -1
vn 0 -1 0
vn 0 -1 0
vn 0 -1 0
vn 0 -1 0
vn 0 1 0
vn 0 1 0
vn 0 1 0
vn 0 1 0
vn 0 0 1
vn 0 0 1
vn 0 0 1
vn 0 0 1
vn 0.7070724 -0.7071411 0
vn 0.7070724 -0.7071411 0
vn 0.7070724 -0.7071411 0
vn 0.7070724 -0.7071411 0
vn 0 0 1
vn 0 0 1
vn 0 0 1
vn 0 0 1
vn 1 -1.123017E-05 0
vn 1 -1.123017E-05 0
vn 1 -1.123017E-05 0
vn 1 -1.123017E-05 0
vn -1 0 0
vn -1 0 0
vn -1 0 0
vn -1 0 0
vn 0 0 -1
vn 0 0 -1
vn 0 0 -1
vn 0 0 -1
vn 0.7071409 -0.7070726 0
vn 0.7071409 -0.7070726 0
vn 0.7071409 -0.7070726 0
vn 0.7071409 -0.7070726 0
g polySurface56_0
f 3/3/3 2/2/2 1/1/1
f 2/2/2 4/4/4 1/1/1
f 7/7/7 6/6/6 5/5/5
f 6/6/6 8/8/8 5/5/5
f 11/11/11 10/10/10 9/9/9
f 10/10/10 12/12/12 9/9/9
f 15/15/15 14/14/14 13/13/13
f 14/14/14 16/16/16 13/13/13
f 19/19/19 18/18/18 17/17/17
f 18/18/18 20/20/20 17/17/17
f 23/23/23 22/22/22 21/21/21
f 22/22/22 24/24/24 21/21/21
f 27/27/27 26/26/26 25/25/25
f 26/26/26 28/28/28 25/25/25
f 31/31/31 30/30/30 29/29/29
f 30/30/30 32/32/32 29/29/29
f 35/35/35 34/34/34 33/33/33
f 34/34/34 36/36/36 33/33/33
f 39/39/39 38/38/38 37/37/37
f 38/38/38 40/40/40 37/37/37
f 43/43/43 42/42/42 41/41/41
f 42/42/42 44/44/44 41/41/41
f 47/47/47 46/46/46 45/45/45
f 46/46/46 48/48/48 45/45/45
f 51/51/51 50/50/50 49/49/49
f 50/50/50 52/52/52 49/49/49
f 55/55/55 54/54/54 53/53/53
f 54/54/54 56/56/56 53/53/53
f 59/59/59 58/58/58 57/57/57
f 58/58/58 60/60/60 57/57/57
f 63/63/63 62/62/62 61/61/61
f 62/62/62 64/64/64 61/61/61
f 67/67/67 66/66/66 65/65/65
f 66/66/66 68/68/68 65/65/65
f 71/71/71 70/70/70 69/69/69
f 70/70/70 72/72/72 69/69/69
f 75/75/75 74/74/74 73/73/73
f 74/74/74 76/76/76 73/73/73
f 79/79/79 78/78/78 77/77/77
f 78/78/78 80/80/80 77/77/77
