g polySurface16
v 6.000002 -4.720596 -12
v 18 -14.36743 -12
v 6.000002 -14.36743 -12
v 18 -4.720596 -11.99999
v 6.000002 -4.720596 -12
v 6.000002 -14.36743 -12
v 6.000001 -14.35329 -24.00001
v 18 -14.36743 -12
v 18 -4.720596 -11.99999
v 18 -14.36742 -24.00001
v 18 -14.36742 -24.00001
v 6.000002 -4.720596 -12
v 6.000001 -14.35329 -24.00001
v 18 -4.720596 -11.99999
v 6 -4.720596 11.99999
v 6 -14.36743 23.99999
v 6 -14.36743 11.99999
v 5.999997 -4.720596 24
v 6 -4.720596 11.99999
v 6 -14.36743 11.99999
v 17.87187 -14.47941 12.01511
v 6 -14.36743 23.99999
v 5.999997 -4.720596 24
v 17.87186 -14.41833 23.91824
v 17.87186 -14.41833 23.91824
v 6 -4.720596 11.99999
v 17.87187 -14.47941 12.01511
v 5.999997 -4.720596 24
v 6.000002 14.4794 11.99999
v -6.000001 4.865005 11.99999
v 6.000002 4.865013 11.99999
v -6.000001 14.47942 11.99999
v 6.000002 14.4794 11.99999
v 6.000002 4.865013 11.99999
v 6.000002 4.879402 23.99999
v -6.000001 4.865005 11.99999
v -6.000001 14.47942 11.99999
v -6.000001 4.904205 23.99999
v -6.000001 4.904205 23.99999
v 6.000002 14.4794 11.99999
v 6.000002 4.879402 23.99999
v -6.000001 14.47942 11.99999
v 6.083093 -9.55291 -12.33116
v 17.87187 -14.47942 -12.40272
v 17.87187 -9.55291 -12.33117
v 6.002905 -14.47942 -12.40272
v 17.87187 -9.55294 12.01511
v 6.002905 -14.47942 12.01511
v 6.083092 -9.55294 12.01511
v 17.87187 -14.47941 12.01511
v 17.87187 -14.47941 12.01511
v 17.87187 -9.55291 -12.33117
v 17.87187 -14.47942 -12.40272
v 17.87187 -9.55294 12.01511
v 6.142674 7.770149 -12.07954
v 17.87187 -9.55291 -12.33117
v 17.87187 7.770149 -12.07954
v 6.083093 -9.55291 -12.33116
v 17.87187 -9.55294 12.01511
v 17.87187 7.770149 -12.07954
v 17.87187 -9.55291 -12.33117
v 17.87187 5.021919 12.01511
v 17.87187 5.021919 12.01511
v 6.083092 -9.55294 12.01511
v 6.057863 5.021919 12.01511
v 17.87187 -9.55294 12.01511
v -18 -14.35329 -24.00001
v 6.000002 -14.35329 24
v 6.000001 -14.35329 -24.00001
v -18 -14.35329 24
v -18 -9.520592 -24.00001
v 6.000002 4.879402 -24.00001
v -18 4.879395 -24.00001
v 6.000002 -9.520592 -24.00001
v -18 -9.520592 24
v -18 4.879395 -24.00001
v -18 4.879402 24
v -18 -9.520592 -24.00001
v 6.000002 4.879402 23.99999
v -18 -9.520592 24
v -18 4.879402 24
v 6.000002 -9.520592 24
v 6.000002 4.879402 -24.00001
v 6.000002 -9.520592 24
v 6.000002 4.879402 23.99999
v 6.000002 -9.520592 -24.00001
v -18 -9.520592 -24.00001
v 6.000001 -14.35329 -24.00001
v 6.000002 -9.520592 -24.00001
v -18 -14.35329 -24.00001
v 6.000002 -9.520592 -24.00001
v 6.000002 -14.35329 24
v 6.000002 -9.520592 24
v 6.000001 -14.35329 -24.00001
v 6.000002 -9.520592 24
v -18 -14.35329 24
v -18 -9.520592 24
v 6.000002 -14.35329 24
v -18 -9.520592 24
v -18 -14.35329 -24.00001
v -18 -9.520592 -24.00001
v -18 -14.35329 24
v 17.87187 -14.47942 -12.40272
v 6.002905 -14.47942 12.01511
v 17.87187 -14.47941 12.01511
v 6.002905 -14.47942 -12.40272
v 18 -14.36743 -12
v 6.000001 -14.35329 -24.00001
v 6.000002 -14.36743 -12
v 18 -14.36742 -24.00001
v 6 -14.36743 23.99999
v 17.87187 -14.47941 12.01511
v 6 -14.36743 11.99999
v 17.87186 -14.41833 23.91824
v 17.87187 5.021919 12.01511
v 6.142674 7.770149 -12.07954
v 17.87187 7.770149 -12.07954
v 6.057863 5.021919 12.01511
v -18 4.879395 -24.00001
v 6.000002 4.879402 23.99999
v -18 4.879402 24
v 6.000002 4.879402 -24.00001
vt 0.2308189 0.9099466
vt 0.2631677 0.8839413
vt 0.2308189 0.8839413
vt 0.2631677 0.9099466
vt 0.2308189 0.9099466
vt 0.2308189 0.8839413
vt 0.2308189 0.8880481
vt 0.2631677 0.8839413
vt 0.2631677 0.9099466
vt 0.2631677 0.8880481
vt 0.2631677 0.8880481
vt 0.2308189 0.9099466
vt 0.2308189 0.8880481
vt 0.2631677 0.9099466
vt 0.2308189 0.9099466
vt 0.2308189 0.8839413
vt 0.2308189 0.8839413
vt 0.2308189 0.9099466
vt 0.2308189 0.9099466
vt 0.2308189 0.8839413
vt 0.2631677 0.8880481
vt 0.2308189 0.8839413
vt 0.2308189 0.9099466
vt 0.2631677 0.8880481
vt 0.2631677 0.8880481
vt 0.2308189 0.9099466
vt 0.2631677 0.8880481
vt 0.2308189 0.9099466
vt 0.2666112 0.9168684
vt 0.2267612 0.8849406
vt 0.2666112 0.8849406
vt 0.2267612 0.9168684
vt 0.2666112 0.9168684
vt 0.2666112 0.8849406
vt 0.2666112 0.8899458
vt 0.2267612 0.8849406
vt 0.2267612 0.9168684
vt 0.2267612 0.8899458
vt 0.2267612 0.8899458
vt 0.2666112 0.9168684
vt 0.2666112 0.8899458
vt 0.2267612 0.9168684
vt 0.2987797 0.8360565
vt 0.330423 0.8228328
vt 0.330423 0.8360565
vt 0.2987445 0.8228328
vt 0.330423 0.8360564
vt 0.2987445 0.8228328
vt 0.2987797 0.8360564
vt 0.330423 0.8228328
vt 0.330423 0.8228328
vt 0.330423 0.8360565
vt 0.330423 0.8228328
vt 0.330423 0.8360564
vt 0.09731261 0.9088776
vt 0.1085172 0.8923292
vt 0.1085172 0.9088776
vt 0.09725569 0.8923292
vt 0.1085172 0.8923292
vt 0.1085172 0.9088776
vt 0.1085172 0.8923292
vt 0.1085172 0.9062523
vt 0.1085172 0.9062523
vt 0.09725569 0.8923292
vt 0.09723158 0.9062523
vt 0.1085172 0.8923292
vt 0.302527 0.830328
vt 0.3266404 0.830328
vt 0.3266404 0.830328
vt 0.302527 0.830328
vt 0.1121867 0.8999308
vt 0.1176648 0.9090605
vt 0.1176648 0.8999308
vt 0.1121867 0.9090605
vt 0.1153671 0.8884066
vt 0.1047018 0.8992294
vt 0.1153671 0.8992294
vt 0.1047018 0.8884066
vt 0.1120961 0.9015
vt 0.1066184 0.9106296
vt 0.1120961 0.9106296
vt 0.1066184 0.9015
vt 0.09421641 0.8992143
vt 0.08354253 0.888422
vt 0.08354253 0.8992143
vt 0.09421641 0.888422
vt 0.302527 0.8351836
vt 0.3266404 0.830328
vt 0.3266404 0.8351836
vt 0.302527 0.830328
vt 0.3266404 0.8351836
vt 0.3266404 0.830328
vt 0.3266404 0.8351836
vt 0.3266404 0.830328
vt 0.3266404 0.8351836
vt 0.302527 0.830328
vt 0.302527 0.8351836
vt 0.3266404 0.830328
vt 0.302527 0.8351836
vt 0.302527 0.830328
vt 0.302527 0.8351836
vt 0.302527 0.830328
vt 0.330423 0.8228328
vt 0.2987445 0.8228328
vt 0.330423 0.8228328
vt 0.2987445 0.8228328
vt 0.2631677 0.8839413
vt 0.2308189 0.8880481
vt 0.2308189 0.8839413
vt 0.2631677 0.8880481
vt 0.2308189 0.8839413
vt 0.2631677 0.8880481
vt 0.2308189 0.8839413
vt 0.2631677 0.8880481
vt 0.1085172 0.9062523
vt 0.09731261 0.9088776
vt 0.1085172 0.9088776
vt 0.09723158 0.9062523
vt 0.1047018 0.8992294
vt 0.08354253 0.8992143
vt 0.1120961 0.9106296
vt 0.1176648 0.9090605
vn 0 0 1
vn 0 0 1
vn 0 0 1
vn 0 0 1
vn -1 0 0
vn -1 0 0
vn -1 0 0
vn 1 0 0
vn 1 0 0
vn 1 0 0
vn 0 0.8762159 -0.4819188
vn 0 0.8762159 -0.4819188
vn 0 0.8762161 -0.4819183
vn 0 0.8762156 -0.4819193
vn -1 0 0
vn -1 0 0
vn -1 0 0
vn -1 0 0
vn 0 0 -1
vn 0 0 -1
vn 0 0 -1
vn 0 0 1
vn 0 0 1
vn 0 0 1
vn 0.4819187 0.876216 0
vn 0.4819187 0.876216 0
vn 0.4819188 0.8762159 0
vn 0.4819185 0.876216 0
vn 0 0 -1
vn 0 0 -1
vn 0 0 -1
vn 0 0 -1
vn 1 0 0
vn 1 0 0
vn 1 0 0
vn -1 0 0
vn -1 0 0
vn -1 0 0
vn 0 0.8762155 0.4819194
vn 0 0.8762155 0.4819194
vn 0 0.8762158 0.4819189
vn 0 0.8762153 0.4819199
vn 0 0.01452387 -0.9998945
vn 0 0.01452351 -0.9998945
vn 0 0.01452387 -0.9998945
vn 0 0.01452351 -0.9998945
vn 0 0 1
vn 0 0 1
vn 0 0 1
vn 0 0 1
vn 1 0 0
vn 1 0 0
vn 1 0 0
vn 1 0 0
vn 0 0.01452422 -0.9998945
vn 0 0.01452387 -0.9998945
vn 0 0.01452422 -0.9998945
vn 0 0.01452387 -0.9998945
vn 1 0 0
vn 1 0 0
vn 1 0 0
vn 1 0 0
vn 0 0 1
vn 0 0 1
vn 0 0 1
vn 0 0 1
vn 0 -1 0
vn 0 -1 0
vn 0 -1 0
vn 0 -1 0
vn 0 0 -1
vn 0 0 -1
vn 0 0 -1
vn 0 0 -1
vn -1 0 0
vn -1 0 0
vn -1 0 0
vn -1 0 0
vn 0 0 1
vn 0 0 1
vn 0 0 1
vn 0 0 1
vn 1 0 0
vn 1 0 0
vn 1 0 0
vn 1 0 0
vn 0 0 -1
vn 0 0 -1
vn 0 0 -1
vn 0 0 -1
vn 1 0 0
vn 1 0 0
vn 1 0 0
vn 1 0 0
vn 0 0 1
vn 0 0 1
vn 0 0 1
vn 0 0 1
vn -1 0 0
vn -1 0 0
vn -1 0 0
vn -1 0 0
vn 0 -1 0
vn 0 -1 0
vn 0 -1 0
vn 0 -1 0
vn 0 -1 0
vn 0 -1 0
vn 0 -1 0
vn 0 -1 0
vn 0 -1 0
vn 0 -1 0
vn 0 -1 0
vn 0 -1 0
vn 0 0.993558 0.113325
vn 0 0.993558 0.113325
vn 0 0.993558 0.113325
vn 0 0.993558 0.113325
vn 0 1 0
vn 0 1 0
vn 0 1 0
vn 0 1 0
g polySurface16_0
f 3/3/3 2/2/2 1/1/1
f 1/1/1 2/2/2 4/4/4
f 7/7/7 6/6/6 5/5/5
f 10/10/10 9/9/9 8/8/8
f 13/13/13 12/12/12 11/11/11
f 11/11/11 12/12/12 14/14/14
f 17/17/17 16/16/16 15/15/15
f 15/15/15 16/16/16 18/18/18
f 21/21/21 20/20/20 19/19/19
f 24/24/24 23/23/23 22/22/22
f 27/27/27 26/26/26 25/25/25
f 25/25/25 26/26/26 28/28/28
f 31/31/31 30/30/30 29/29/29
f 29/29/29 30/30/30 32/32/32
f 35/35/35 34/34/34 33/33/33
f 38/38/38 37/37/37 36/36/36
f 41/41/41 40/40/40 39/39/39
f 39/39/39 40/40/40 42/42/42
f 45/45/45 44/44/44 43/43/43
f 44/44/44 46/46/46 43/43/43
f 49/49/49 48/48/48 47/47/47
f 48/48/48 50/50/50 47/47/47
f 53/53/53 52/52/52 51/51/51
f 52/52/52 54/54/54 51/51/51
f 57/57/57 56/56/56 55/55/55
f 56/56/56 58/58/58 55/55/55
f 61/61/61 60/60/60 59/59/59
f 60/60/60 62/62/62 59/59/59
f 65/65/65 64/64/64 63/63/63
f 64/64/64 66/66/66 63/63/63
f 69/69/69 68/68/68 67/67/67
f 68/68/68 70/70/70 67/67/67
f 73/73/73 72/72/72 71/71/71
f 72/72/72 74/74/74 71/71/71
f 77/77/77 76/76/76 75/75/75
f 76/76/76 78/78/78 75/75/75
f 81/81/81 80/80/80 79/79/79
f 80/80/80 82/82/82 79/79/79
f 85/85/85 84/84/84 83/83/83
f 84/84/84 86/86/86 83/83/83
f 89/89/89 88/88/88 87/87/87
f 88/88/88 90/90/90 87/87/87
f 93/93/93 92/92/92 91/91/91
f 92/92/92 94/94/94 91/91/91
f 97/97/97 96/96/96 95/95/95
f 96/96/96 98/98/98 95/95/95
f 101/101/101 100/100/100 99/99/99
f 100/100/100 102/102/102 99/99/99
f 105/105/105 104/104/104 103/103/103
f 104/104/104 106/106/106 103/103/103
f 109/109/109 108/108/108 107/107/107
f 108/108/108 110/110/110 107/107/107
f 113/113/113 112/112/112 111/111/111
f 112/112/112 114/114/114 111/111/111
f 117/117/117 116/116/116 115/115/115
f 116/116/116 118/118/118 115/115/115
f 121/121/121 120/120/120 119/119/119
f 120/120/120 122/122/122 119/119/119
