g polySurface42
v -57.4566 57.45883 3.07708
v 57.4566 -57.45883 3.07708
v -57.4566 -57.45883 3.07708
v 57.4566 57.45883 3.07708
v -57.4566 57.45883 -3.07708
v 57.4566 -57.45883 -3.07708
v 57.4566 57.45883 -3.07708
v -57.4566 -57.45883 -3.07708
v -57.4566 -57.45883 3.07708
v -57.4566 57.45883 -3.07708
v -57.4566 57.45883 3.07708
v -57.4566 -57.45883 -3.07708
v -57.4566 57.45883 3.07708
v 57.4566 57.45883 -3.07708
v 57.4566 57.45883 3.07708
v -57.4566 57.45883 -3.07708
v 57.4566 57.45883 3.07708
v 57.4566 -57.45883 -3.07708
v 57.4566 -57.45883 3.07708
v 57.4566 57.45883 -3.07708
v 57.4566 -57.45883 3.07708
v -57.4566 -57.45883 -3.07708
v -57.4566 -57.45883 3.07708
v 57.4566 -57.45883 -3.07708
vt 0.7216196 0.005437911
vt 0.9629724 0.3187102
vt 0.9629724 0.005437911
vt 0.7216196 0.3187103
vt 0.7216196 0.005437911
vt 0.9629724 0.3187102
vt 0.7216196 0.3187103
vt 0.9629724 0.005437911
vt 0.6946942 0.1990234
vt 0.381151 0.1780366
vt 0.381151 0.1990234
vt 0.6946941 0.1780365
vt 0.7730921 0.006093739
vt 0.7521051 0.3196216
vt 0.773092 0.3196216
vt 0.7521052 0.00609365
vt 0.381151 0.2030526
vt 0.6946942 0.2240396
vt 0.6946942 0.2030525
vt 0.381151 0.2240395
vt 0.7763855 0.3182927
vt 0.7973725 0.004764704
vt 0.7763857 0.004764704
vt 0.7973725 0.3182927
vn 0 0 1
vn 0 0 1
vn 0 0 1
vn 0 0 1
vn 0 0 -1
vn 0 0 -1
vn 0 0 -1
vn 0 0 -1
vn -1 0 0
vn -1 0 0
vn -1 0 0
vn -1 0 0
vn 0 1 0
vn 0 1 0
vn 0 1 0
vn 0 1 0
vn 1 0 0
vn 1 0 0
vn 1 0 0
vn 1 0 0
vn 0 -1 0
vn 0 -1 0
vn 0 -1 0
vn 0 -1 0
g polySurface42_0
f 3/3/3 2/2/2 1/1/1
f 2/2/2 4/4/4 1/1/1
f 7/7/7 6/6/6 5/5/5
f 6/6/6 8/8/8 5/5/5
f 11/11/11 10/10/10 9/9/9
f 10/10/10 12/12/12 9/9/9
f 15/15/15 14/14/14 13/13/13
f 14/14/14 16/16/16 13/13/13
f 19/19/19 18/18/18 17/17/17
f 18/18/18 20/20/20 17/17/17
f 23/23/23 22/22/22 21/21/21
f 22/22/22 24/24/24 21/21/21
