g polySurface5
v 4.540248 -4.119329 9.823247
v -4.574782 -2.484288 1.864877
v -4.631708 -4.187154 2.422374
v 5.128191 -0.6118245 9.463756
v 6.548789 -4.119937 22.35652
v 7.328056 -2.411674 22.42927
v -11.21147 4.568851 7.196459
v 2.954806 4.438025 10.65801
v 4.487611 3.599546 22.11431
v -4.631708 -4.187154 2.422374
v -11.21147 4.568851 7.196459
v -17.97108 -4.185974 10.25725
v -4.574782 -2.484288 1.864877
v -17.59158 -2.353249 25.41452
v -16.98773 -4.051397 25.08183
v -15.45214 3.675447 24.16083
v -6.725941 7.742307 16.99191
v -16.98773 -4.051397 25.08183
v -7.108695 0.6839514 29.89136
v -6.435846 -4.047181 29.53015
v -17.59158 -2.353249 25.41452
v 7.328056 -2.411674 22.42927
v 6.548789 -4.119937 22.35652
v -15.45214 3.675447 24.16083
v 4.487611 3.599546 22.11431
v -6.725941 7.742307 16.99191
v 2.954806 4.438025 10.65801
v -11.21147 4.568851 7.196459
v 4.540248 -4.119329 9.823247
v -6.435846 -4.047181 29.53015
v 6.548789 -4.119937 22.35652
v -5.600833 -7.518271 17.01103
v -5.235696 -7.579164 10.01171
v -4.631708 -4.187154 2.422374
v -16.98773 -4.051397 25.08183
v -17.97108 -4.185974 10.25725
vt 0.9858741 0.1319147
vt 1.004259 0.2197107
vt 1.017694 0.2120225
vt 0.9625697 0.1477939
vt 0.925861 0.07962073
vt 0.9212589 0.09139287
vt 0.916881 0.2590105
vt 0.9325514 0.1668598
vt 0.9008703 0.123306
vt 0.6938679 0.2918827
vt 0.7824838 0.2415069
vt 0.7094532 0.1748652
vt 0.7092986 0.2972351
vt 0.7766132 0.1095848
vt 0.7682907 0.09895735
vt 0.8077683 0.1365323
vt 0.8578348 0.1912627
vt 0.7682907 0.09895735
vt 0.8399058 0.0970469
vt 0.8371446 0.0588764
vt 0.7766132 0.1095848
vt 0.9212589 0.09139287
vt 0.925861 0.07962073
vt 0.8077683 0.1365323
vt 0.9008703 0.123306
vt 0.8578348 0.1912627
vt 0.9325514 0.1668598
vt 0.916881 0.2590105
vt 0.9858741 0.1319147
vt 0.8371446 0.0588764
vt 0.925861 0.07962073
vt 0.8833746 0.1163913
vt 0.8658401 0.1505629
vt 1.017694 0.2120225
vt 0.7682907 0.09895735
vt 0.7094532 0.1748652
vn 0.8378122 -0.2561657 -0.4821306
vn 0.1708575 0.193641 -0.9660801
vn 0.06228352 -0.1010599 -0.9929289
vn 0.8300569 0.1703752 -0.5310159
vn 0.8843439 -0.2096339 0.4171204
vn 0.8920992 0.1083328 0.4386605
vn -0.4883419 0.7132452 -0.5027957
vn 0.4500479 0.8218192 -0.3493853
vn 0.535356 0.7597769 0.3689621
vn 0.06228352 -0.1010599 -0.9929289
vn -0.4883419 0.7132452 -0.5027957
vn -0.7907981 0.3177256 -0.5231527
vn 0.1708575 0.193641 -0.9660801
vn -0.8218192 0.2944598 0.4877567
vn -0.7907981 0.2169068 0.5723546
vn -0.5581395 0.7520216 0.3506334
vn 0.02350706 0.9846802 0.1727779
vn -0.7907981 0.2169068 0.5723546
vn 0.05452818 0.4495655 0.8915815
vn 0.06228352 -0.1398364 0.9882138
vn -0.8218192 0.2944598 0.4877567
vn 0.8920992 0.1083328 0.4386605
vn 0.8843439 -0.2096339 0.4171204
vn -0.5581395 0.7520216 0.3506334
vn 0.535356 0.7597769 0.3689621
vn 0.02350706 0.9846802 0.1727779
vn 0.4500479 0.8218192 -0.3493853
vn -0.4883419 0.7132452 -0.5027957
vn 0.8378122 -0.2561657 -0.4821306
vn 0.06228352 -0.1398364 0.9882138
vn 0.8843439 -0.2096339 0.4171204
vn 0.05452818 -0.992918 0.1055493
vn 0.03901762 -0.9851627 -0.1671292
vn 0.06228352 -0.1010599 -0.9929289
vn -0.7907981 0.2169068 0.5723546
vn -0.7907981 0.3177256 -0.5231527
g polySurface5_0
f 3/3/3 2/2/2 1/1/1
f 2/2/2 4/4/4 1/1/1
f 1/1/1 4/4/4 5/5/5
f 4/4/4 6/6/6 5/5/5
f 2/2/2 7/7/7 4/4/4
f 7/7/7 8/8/8 4/4/4
f 4/4/4 8/8/8 6/6/6
f 8/8/8 9/9/9 6/6/6
f 12/12/12 11/11/11 10/10/10
f 11/11/11 13/13/13 10/10/10
f 14/14/14 11/11/11 12/12/12
f 15/15/15 14/14/14 12/12/12
f 14/14/14 16/16/16 11/11/11
f 16/16/16 17/17/17 11/11/11
f 20/20/20 19/19/19 18/18/18
f 19/19/19 21/21/21 18/18/18
f 22/22/22 19/19/19 20/20/20
f 23/23/23 22/22/22 20/20/20
f 19/19/19 24/24/24 21/21/21
f 22/22/22 25/25/25 19/19/19
f 19/19/19 26/26/26 24/24/24
f 25/25/25 26/26/26 19/19/19
f 27/27/27 26/26/26 25/25/25
f 28/28/28 26/26/26 27/27/27
f 31/31/31 30/30/30 29/29/29
f 30/30/30 32/32/32 29/29/29
f 33/33/33 29/29/29 32/32/32
f 34/34/34 29/29/29 33/33/33
f 35/35/35 32/32/32 30/30/30
f 33/33/33 32/32/32 35/35/35
f 36/36/36 33/33/33 35/35/35
f 34/34/34 33/33/33 36/36/36
