g Post_Y
v -0.4163057 33.58997 -2.880143
v -3.195382 92.08343 -0.1439095
v -3.195385 33.58997 -0.1439095
v -0.4163012 92.08343 -2.880143
v -3.195385 33.58997 -0.1439095
v -0.4163021 92.08343 2.592331
v -0.4163057 33.58997 2.592331
v -3.195382 92.08343 -0.1439095
v -0.4163057 33.58997 2.592331
v 2.362776 92.08343 -0.1439095
v 2.362776 33.58997 -0.1439095
v -0.4163021 92.08343 2.592331
v 2.362776 33.58997 -0.1439095
v -0.4163012 92.08343 -2.880143
v -0.4163057 33.58997 -2.880143
v 2.362776 92.08343 -0.1439095
v -3.195385 33.58997 -0.1439095
v -0.4162976 33.58997 -6.318509
v -0.4163057 33.58997 -2.880143
v -6.687582 33.58997 -0.1439095
v -0.4163057 33.58997 2.592331
v -0.4162993 33.58997 6.030696
v 2.362776 33.58997 -0.1439095
v 5.854983 33.58997 -0.1439524
v -6.687582 33.58997 -0.1439095
v -0.4162977 5.107992 -12.6148
v -0.4162976 33.58997 -6.318509
v -13.08244 5.107992 -0.1439095
v -0.4162993 33.58997 6.030696
v -13.08244 5.107992 -0.1439095
v -6.687582 33.58997 -0.1439095
v -0.4163022 5.107992 12.32694
v 5.854983 33.58997 -0.1439524
v 12.24984 5.107992 -0.1439524
v -0.4162976 33.58997 -6.318509
v 12.24984 5.107992 -0.1439524
v 5.854983 33.58997 -0.1439524
v -0.4162977 5.107992 -12.6148
v -0.4163012 92.08343 -2.880143
v -5.186296 92.08343 -0.1439095
v -3.195382 92.08343 -0.1439095
v -0.4163012 92.08343 -4.840367
v -0.4163021 92.08343 4.552555
v -0.4163021 92.08343 2.592331
v 4.353694 92.08343 -0.1439095
v 2.362776 92.08343 -0.1439095
v -0.4163012 92.08343 -4.840367
v -5.186296 104.1722 -0.1439095
v -5.186296 92.08343 -0.1439095
v -0.4163012 104.1722 -4.840367
v -5.186296 92.08343 -0.1439095
v -0.4163021 104.1722 4.552555
v -0.4163021 92.08343 4.552555
v -5.186296 104.1722 -0.1439095
v -0.4163021 92.08343 4.552555
v 4.353694 104.1722 -0.1439095
v 4.353694 92.08343 -0.1439095
v -0.4163021 104.1722 4.552555
v 4.353694 92.08343 -0.1439095
v -0.4163012 104.1722 -4.840367
v -0.4163012 92.08343 -4.840367
v 4.353694 104.1722 -0.1439095
v 4.353694 104.1722 -0.1439095
v -0.4163021 104.1722 4.552555
v -5.186296 104.1722 -0.1439095
v -0.4163012 104.1722 -4.840367
v 23.51139 110.3988 -2.436165
v -24.32273 107.9052 -0.0394392
v 23.51139 107.9052 -0.0394392
v -24.32273 110.3988 -2.436165
v 23.51139 107.9052 -0.0394392
v -24.32273 110.3988 2.357286
v 23.51139 110.3988 2.357286
v -24.32273 107.9052 -0.0394392
v 23.51139 110.3988 2.357286
v -24.32273 112.8924 -0.0394392
v 23.51139 112.8924 -0.0394392
v -24.32273 110.3988 2.357286
v 23.51139 112.8924 -0.0394392
v -24.32273 110.3988 -2.436165
v 23.51139 110.3988 -2.436165
v -24.32273 112.8924 -0.0394392
v 23.51139 110.3988 -2.436165
v 23.51139 107.9052 -0.0394392
v 23.51139 112.8924 -0.0394392
v 23.51139 110.3988 2.357286
v -24.32273 112.8924 -0.0394392
v -24.32273 110.3988 2.357286
v -24.32273 107.9052 -0.0394392
v -24.32273 110.3988 -2.436165
v -2.705357 112.6713 -3.833356
v 2.031496 112.7121 3.798065
v -2.705357 112.7121 3.798065
v 2.031496 112.6713 -3.833356
v -2.705357 109.4008 4.403837
v 2.031496 109.4008 4.403837
v -2.705357 104.1275 2.343521
v 2.031496 104.1275 2.343521
v 2.031496 109.3764 -4.569812
v -2.705357 109.3764 -4.569812
v 2.031496 104.1002 -2.518172
v -2.705357 104.1002 -2.518172
v -2.705357 104.1002 -2.518172
v -2.705357 109.4008 4.403837
v -2.705357 104.1275 2.343521
v -2.705357 109.3764 -4.569812
v -2.705357 112.7121 3.798065
v -2.705357 112.6713 -3.833356
v 2.031496 104.1275 2.343521
v 2.031496 109.3764 -4.569812
v 2.031496 104.1002 -2.518172
v 2.031496 109.4008 4.403837
v 2.031496 112.6713 -3.833356
v 2.031496 112.7121 3.798065
v 4.746235 81.50227 8.497739
v 5.452312 93.27596 11.81847
v 1.158979 86.4397 8.497739
v 11.9343 81.50227 11.81847
v -6.3429 93.27596 11.81847
v -2.049563 86.4397 8.497739
v -5.636821 81.50226 8.497739
v -12.82489 81.50226 11.81847
v -2.049563 76.56483 8.497739
v -6.3429 69.72856 11.81847
v 5.452318 69.72856 11.81847
v 1.158979 76.56483 8.497739
v 11.92562 81.50227 13.31014
v 5.452312 93.27596 11.81847
v 11.9343 81.50227 11.81847
v 5.448176 93.26771 13.31014
v 5.452318 69.72856 11.81847
v 5.448176 69.73683 13.31014
v -6.3429 69.72856 11.81847
v 5.448176 69.73683 13.31014
v 5.452318 69.72856 11.81847
v -6.338766 69.73682 13.31014
v -12.82489 81.50226 11.81847
v -6.338766 69.73682 13.31014
v -6.3429 69.72856 11.81847
v -12.81621 81.50226 13.31014
v -6.3429 93.27596 11.81847
v -6.338766 93.2677 13.31014
v 5.452312 93.27596 11.81847
v -6.338766 93.2677 13.31014
v -6.3429 93.27596 11.81847
v 5.448176 93.26771 13.31014
v 11.92562 81.50227 13.31014
v 2.000941 86.3858 10.15157
v 5.448176 93.26771 13.31014
v 4.689562 81.50227 10.15157
v -2.891529 86.3858 10.15157
v -6.338766 93.2677 13.31014
v -12.81621 81.50226 13.31014
v -5.580152 81.50226 10.15157
v -6.338766 69.73682 13.31014
v -2.891524 76.61873 10.15157
v 2.000941 76.61873 10.15157
v 5.448176 69.73683 13.31014
v 4.689562 81.50227 10.15157
v 2.000941 86.3858 13.23698
v 2.000941 86.3858 10.15157
v 4.689562 81.50227 13.23698
v -2.891529 86.3858 13.23698
v -2.891529 86.3858 10.15157
v 2.000941 76.61873 13.23698
v 2.000941 76.61873 10.15157
v -2.891529 86.3858 13.23698
v -5.580152 81.50226 10.15157
v -2.891529 86.3858 10.15157
v -5.580152 81.50226 13.23698
v -2.891524 76.61873 10.15157
v -2.891524 76.61873 13.23698
v 2.000941 76.61873 13.23698
v 2.000941 76.61873 10.15157
v 4.689562 81.50227 13.23698
v -0.4452932 81.50226 13.23698
v 2.000941 86.3858 13.23698
v -2.891529 86.3858 13.23698
v -5.580152 81.50226 13.23698
v -2.891524 76.61873 13.23698
v 2.000941 76.61873 13.23698
v -6.393784 75.64513 2.42534
v 5.670921 75.64513 8.407559
v 5.670921 75.64513 2.42534
v -6.393784 75.64513 8.407559
v 5.670921 87.60495 8.407559
v -6.393784 75.64513 8.407559
v -6.393784 87.60495 8.407559
v 5.670921 75.64513 8.407559
v -6.393784 87.60495 8.407559
v 5.670921 87.60863 2.42534
v 5.670921 87.60495 8.407559
v -6.393784 87.60863 2.42534
v 5.670921 87.60863 2.42534
v 5.670921 75.64513 8.407559
v 5.670921 87.60495 8.407559
v 5.670921 75.64513 2.42534
v -6.393784 87.60495 8.407559
v -6.393784 75.64513 2.42534
v -6.393784 87.60863 2.42534
v -6.393784 75.64513 8.407559
v -6.393784 87.60863 2.42534
v 5.670921 75.64513 2.42534
v 5.670921 87.60863 2.42534
v -6.393784 75.64513 2.42534
v -24.38831 4.8 23.90443
v -24.38831 0 -24.09556
v -24.38831 4.8 -24.09556
v -24.38831 0 23.90443
v -24.38831 4.8 -24.09556
v 23.61169 0 -24.09556
v 23.61169 4.8 -24.09556
v -24.38831 0 -24.09556
v 23.61169 0 -24.09556
v 23.61169 4.8 23.90443
v 23.61169 4.8 -24.09556
v 23.61169 0 23.90443
v 23.61169 0 23.90443
v -24.38831 4.8 23.90443
v 23.61169 4.8 23.90443
v -24.38831 0 23.90443
v -24.38831 4.8 -24.09556
v 23.61169 4.8 23.90443
v -24.38831 4.8 23.90443
v 23.61169 4.8 -24.09556
vt 0.225531 0.8125229
vt 0.2237171 0.8507025
vt 0.2237171 0.8125229
vt 0.225531 0.8507025
vt 0.2237171 0.8125229
vt 0.225531 0.8507025
vt 0.225531 0.8125229
vt 0.2237171 0.8507025
vt 0.225531 0.8125229
vt 0.227345 0.8507025
vt 0.227345 0.8125229
vt 0.225531 0.8507025
vt 0.227345 0.8125229
vt 0.225531 0.8507025
vt 0.225531 0.8125229
vt 0.227345 0.8507025
vt 0.3158305 0.8554034
vt 0.318255 0.8554034
vt 0.3182549 0.8554034
vt 0.312784 0.8554034
vt 0.3182549 0.8554034
vt 0.3182549 0.8554034
vt 0.3206794 0.8554034
vt 0.3237261 0.8554034
vt 0.312784 0.8554034
vt 0.318255 0.8305558
vt 0.318255 0.8554034
vt 0.3072051 0.8305558
vt 0.3182549 0.8554034
vt 0.3072051 0.8305558
vt 0.312784 0.8554034
vt 0.318255 0.8305558
vt 0.3237261 0.8554034
vt 0.3293049 0.8305558
vt 0.318255 0.8554034
vt 0.3293049 0.8305558
vt 0.3237261 0.8554034
vt 0.318255 0.8305558
vt 0.3078752 0.9609582
vt 0.2951111 0.9609582
vt 0.3004386 0.9609582
vt 0.3078753 0.9609582
vt 0.3078753 0.9609582
vt 0.3078752 0.9609582
vt 0.3206395 0.9609582
vt 0.3153119 0.9609582
vt 0.3078753 0.9609582
vt 0.2951111 0.993307
vt 0.2951111 0.9609582
vt 0.3078753 0.993307
vt 0.2951111 0.9609582
vt 0.3078753 0.993307
vt 0.3078753 0.9609582
vt 0.2951111 0.993307
vt 0.3078753 0.9609582
vt 0.3206395 0.993307
vt 0.3206395 0.9609582
vt 0.3078753 0.993307
vt 0.3206395 0.9609582
vt 0.3078753 0.993307
vt 0.3078753 0.9609582
vt 0.3206395 0.993307
vt 0.3206395 0.993307
vt 0.3078753 0.993307
vt 0.2951111 0.993307
vt 0.3078753 0.993307
vt 0.185497 0.9023246
vt 0.1531481 0.9006383
vt 0.185497 0.9006383
vt 0.1531481 0.9023246
vt 0.185497 0.9006383
vt 0.1531481 0.9023246
vt 0.185497 0.9023246
vt 0.1531481 0.9006383
vt 0.185497 0.9023246
vt 0.1531481 0.9040111
vt 0.185497 0.9040111
vt 0.1531481 0.9023246
vt 0.185497 0.9040111
vt 0.1531481 0.9023246
vt 0.185497 0.9023246
vt 0.1531481 0.9040111
vt 0.185497 0.9023246
vt 0.185497 0.9006383
vt 0.185497 0.9040111
vt 0.185497 0.9023246
vt 0.1531481 0.9040111
vt 0.1531481 0.9023246
vt 0.1531481 0.9006383
vt 0.1531481 0.9023246
vt 0.300701 0.9857235
vt 0.3102421 0.9858059
vt 0.300701 0.9858059
vt 0.3102421 0.9857235
vt 0.300701 0.979136
vt 0.3102421 0.979136
vt 0.300701 0.9685144
vt 0.3102421 0.9685144
vt 0.3102421 0.979087
vt 0.300701 0.979087
vt 0.3102421 0.9684594
vt 0.300701 0.9684594
vt 0.300701 0.9684594
vt 0.300701 0.979136
vt 0.300701 0.9685144
vt 0.300701 0.979087
vt 0.300701 0.9858059
vt 0.300701 0.9857235
vt 0.3102421 0.9685144
vt 0.3102421 0.979087
vt 0.3102421 0.9684594
vt 0.3102421 0.979136
vt 0.3102421 0.9857235
vt 0.3102421 0.9858059
vt 0.2527887 0.9725505
vt 0.2504434 0.9927645
vt 0.2466298 0.9810275
vt 0.2651297 0.9725505
vt 0.2373075 0.9927645
vt 0.2411211 0.9810275
vt 0.2349621 0.9725505
vt 0.2226211 0.9725505
vt 0.2411211 0.9640734
vt 0.2373075 0.9523364
vt 0.2504434 0.9523364
vt 0.2466298 0.9640734
vt 0.2651148 0.9725505
vt 0.2504434 0.9927645
vt 0.2651297 0.9725505
vt 0.2504389 0.9927503
vt 0.2504434 0.9523364
vt 0.2504389 0.9523505
vt 0.2373075 0.9523364
vt 0.2504389 0.9523505
vt 0.2504434 0.9523364
vt 0.2373121 0.9523505
vt 0.2226211 0.9725505
vt 0.2373121 0.9523505
vt 0.2373075 0.9523364
vt 0.222636 0.9725505
vt 0.2373075 0.9927645
vt 0.2373121 0.9927503
vt 0.2504434 0.9927645
vt 0.2373121 0.9927503
vt 0.2373075 0.9927645
vt 0.2504389 0.9927503
vt 0.2651148 0.9725505
vt 0.2465998 0.9809349
vt 0.2504389 0.9927503
vt 0.2526914 0.9725505
vt 0.2411511 0.9809349
vt 0.2373121 0.9927503
vt 0.222636 0.9725505
vt 0.2350595 0.9725505
vt 0.2373121 0.9523505
vt 0.2411511 0.9641659
vt 0.2465998 0.9641659
vt 0.2504389 0.9523505
vt 0.2526914 0.9725505
vt 0.2465998 0.9809349
vt 0.2465998 0.9809349
vt 0.2526914 0.9725505
vt 0.2411511 0.9809349
vt 0.2411511 0.9809349
vt 0.2465998 0.9641659
vt 0.2465998 0.9641659
vt 0.2411511 0.9809349
vt 0.2350595 0.9725505
vt 0.2411511 0.9809349
vt 0.2350595 0.9725505
vt 0.2411511 0.9641659
vt 0.2411511 0.9641659
vt 0.2465998 0.9641659
vt 0.2465998 0.9641659
vt 0.2526914 0.9725505
vt 0.2438754 0.9725505
vt 0.2465998 0.9809349
vt 0.2411511 0.9809349
vt 0.2350595 0.9725505
vt 0.2411511 0.9641659
vt 0.2465998 0.9641659
vt 0.3181821 0.8219162
vt 0.3053122 0.8219162
vt 0.3181821 0.8219162
vt 0.3053122 0.8219162
vt 0.3053122 0.854265
vt 0.3053122 0.8219162
vt 0.3053122 0.854265
vt 0.3053122 0.8219162
vt 0.3053122 0.854265
vt 0.3181821 0.8460797
vt 0.3053122 0.854265
vt 0.3181821 0.8460797
vt 0.3181821 0.8460797
vt 0.3053122 0.8219162
vt 0.3053122 0.854265
vt 0.3181821 0.8219162
vt 0.3053122 0.854265
vt 0.3181821 0.8219162
vt 0.3181821 0.8460797
vt 0.3053122 0.8219162
vt 0.3181821 0.8460797
vt 0.3181821 0.8219162
vt 0.3181821 0.8460797
vt 0.3181821 0.8219162
vt 0.5504291 0.8031808
vt 0.5504291 0.9985766
vt 0.5504291 0.9985766
vt 0.5504291 0.8031808
vt 0.5504291 0.9985766
vt 0.745824 0.9985766
vt 0.745824 0.9985766
vt 0.5504291 0.9985766
vt 0.745824 0.9985766
vt 0.745824 0.8031808
vt 0.745824 0.9985766
vt 0.745824 0.8031808
vt 0.745824 0.8031808
vt 0.5504291 0.8031808
vt 0.745824 0.8031808
vt 0.5504291 0.8031808
vt 0.5504291 0.9985766
vt 0.745824 0.8031808
vt 0.5504291 0.8031808
vt 0.745824 0.9985766
vn 0 0 -1
vn -1 0 0
vn -1 0 0
vn 0 0 -1
vn -1 0 0
vn 0 0 1
vn 0 0 1
vn -1 0 0
vn 0 0 1
vn 1 0 0
vn 1 0 0
vn 0 0 1
vn 1 0 0
vn 0 0 -1
vn 0 0 -1
vn 1 0 0
vn 0 1 0
vn 0 1 0
vn 0 1 0
vn 0 1 0
vn 0 1 0
vn 0 1 0
vn 0 1 0
vn 0 1 0
vn -0.9757094 0.2190691 0
vn 0 0.2158506 -0.9764264
vn 0 0.2158506 -0.9764264
vn -0.9757094 0.2190691 0
vn 0 0.2158501 0.9764265
vn -0.9757094 0.2190691 0
vn -0.9757094 0.2190691 0
vn 0 0.2158501 0.9764265
vn 0.9757094 0.2190691 0
vn 0.9757094 0.2190691 0
vn 0 0.2158506 -0.9764264
vn 0.9757094 0.2190691 0
vn 0.9757094 0.2190691 0
vn 0 0.2158506 -0.9764264
vn 0 -1 0
vn 0 -1 0
vn 0 -1 0
vn 0 -1 0
vn 0 -1 0
vn 0 -1 0
vn 0 -1 0
vn 0 -1 0
vn 0 0 -1
vn -1 0 0
vn -1 0 0
vn 0 0 -1
vn -1 0 0
vn 0 0 1
vn 0 0 1
vn -1 0 0
vn 0 0 1
vn 1 0 0
vn 1 0 0
vn 0 0 1
vn 1 0 0
vn 0 0 -1
vn 0 0 -1
vn 1 0 0
vn 0 1 0
vn 0 1 0
vn 0 1 0
vn 0 1 0
vn 0 -0.4999995 -0.8660257
vn 0 -1 0
vn 0 -1 0
vn 0 -0.4999995 -0.8660257
vn 0 -1 0
vn 0 -0.4999995 0.8660257
vn 0 -0.4999995 0.8660257
vn 0 -1 0
vn 0 0.4999982 0.8660264
vn 0 1 0
vn 0 1 0
vn 0 0.4999982 0.8660264
vn 0 1 0
vn 0 0.4999995 -0.8660257
vn 0 0.4999995 -0.8660257
vn 0 1 0
vn 1 0 0
vn 1 0 0
vn 1 0 0
vn 1 0 0
vn -1 0 0
vn -1 0 0
vn -1 0 0
vn -1 0 0
vn 0 0.8203786 -0.5718208
vn 0 0.8128722 0.5824421
vn 0 0.8128722 0.5824421
vn 0 0.8203786 -0.5718208
vn 0 -0.4369431 0.8994892
vn 0 -0.4369431 0.8994892
vn 0 0.04563216 0.9989583
vn 0 0.04563216 0.9989583
vn 0 -0.425087 -0.9051526
vn 0 -0.425087 -0.9051526
vn 0 0.002770566 -0.9999962
vn 0 0.002770566 -0.9999962
vn -1 0 0
vn -1 0 0
vn -1 0 0
vn -1 0 0
vn -1 0 0
vn -1 0 0
vn 1 0 0
vn 1 0 0
vn 1 0 0
vn 1 0 0
vn 1 0 0
vn 1 0 0
vn 0.4193872 0 -0.9078075
vn 0.1295978 0.3988616 -0.9078072
vn 0.1295978 0.3988616 -0.9078072
vn 0.4193872 0 -0.9078075
vn -0.1295982 0.3988613 -0.9078072
vn -0.1295982 0.3988613 -0.9078072
vn -0.4193879 0 -0.9078071
vn -0.4193879 0 -0.9078071
vn -0.1295976 -0.3988614 -0.9078072
vn -0.1295976 -0.3988614 -0.9078072
vn 0.1295981 -0.3988615 -0.9078072
vn 0.1295981 -0.3988615 -0.9078072
vn 0.9999831 0 0.00582149
vn 0.3090115 0.9510405 0.005818093
vn 0.9999831 0 0.00582149
vn 0.3090115 0.9510405 0.005818093
vn 0.309012 -0.9510404 0.005816145
vn 0.309012 -0.9510404 0.005816145
vn -0.3090114 -0.9510406 0.005816735
vn 0.309012 -0.9510404 0.005816145
vn 0.309012 -0.9510404 0.005816145
vn -0.3090114 -0.9510406 0.005816735
vn -0.9999831 0 0.005819646
vn -0.3090114 -0.9510406 0.005816735
vn -0.3090114 -0.9510406 0.005816735
vn -0.9999831 0 0.005819646
vn -0.3090124 0.9510403 0.005816512
vn -0.3090124 0.9510403 0.005816512
vn 0.3090115 0.9510405 0.005818093
vn -0.3090124 0.9510403 0.005816512
vn -0.3090124 0.9510403 0.005816512
vn 0.3090115 0.9510405 0.005818093
vn -0.4000525 0 0.9164922
vn -0.123623 -0.3804725 0.9164922
vn -0.123623 -0.3804725 0.9164922
vn -0.4000525 0 0.9164922
vn 0.1236232 -0.3804723 0.9164923
vn 0.1236232 -0.3804723 0.9164923
vn 0.4000526 0 0.9164922
vn 0.4000526 0 0.9164922
vn 0.123623 0.3804726 0.9164922
vn 0.123623 0.3804726 0.9164922
vn -0.1236233 0.3804726 0.9164922
vn -0.1236233 0.3804726 0.9164922
vn 1 0 0
vn 0.3090169 0.9510565 0
vn 0.3090169 0.9510565 0
vn 1 0 0
vn -0.3090178 0.9510562 0
vn -0.3090178 0.9510562 0
vn 0.3090169 -0.9510565 0
vn 0.3090169 -0.9510565 0
vn -0.3090178 0.9510562 0
vn -1 0 0
vn -0.3090178 0.9510562 0
vn -1 0 0
vn -0.3090166 -0.9510567 0
vn -0.3090166 -0.9510567 0
vn 0.3090169 -0.9510565 0
vn 0.3090169 -0.9510565 0
vn 0 0 1
vn 0 0 1
vn 0 0 1
vn 0 0 1
vn 0 0 1
vn 0 0 1
vn 0 0 1
vn 0 -1 0
vn 0 -1 0
vn 0 -1 0
vn 0 -1 0
vn 0 0 1
vn 0 0 1
vn 0 0 1
vn 0 0 1
vn 0 1 0
vn 0 1 0
vn 0 1 0
vn 0 1 0
vn 1 0 0
vn 1 0 0
vn 1 0 0
vn 1 0 0
vn -1 0 0
vn -1 0 0
vn -0.9966956 0 -0.08122774
vn -1 0 0
vn 0 0 -1
vn 0 0 -1
vn 0 0 -1
vn 0 0 -1
vn -1 0 0
vn -1 0 0
vn -1 0 0
vn -1 0 0
vn 0 0 -1
vn 0 0 -1
vn 0 0 -1
vn 0 0 -1
vn 1 0 0
vn 1 0 0
vn 1 0 0
vn 1 0 0
vn 0 0 1
vn 0 0 1
vn 0 0 1
vn 0 0 1
vn 0 1 0
vn 0 1 0
vn 0 1 0
vn 0 1 0
g Post_Y_0
f 3/3/3 2/2/2 1/1/1
f 2/2/2 4/4/4 1/1/1
f 7/7/7 6/6/6 5/5/5
f 6/6/6 8/8/8 5/5/5
f 11/11/11 10/10/10 9/9/9
f 10/10/10 12/12/12 9/9/9
f 15/15/15 14/14/14 13/13/13
f 14/14/14 16/16/16 13/13/13
f 19/19/19 18/18/18 17/17/17
f 18/18/18 20/20/20 17/17/17
f 17/17/17 20/20/20 21/21/21
f 20/20/20 22/22/22 21/21/21
f 21/21/21 22/22/22 23/23/23
f 22/22/22 24/24/24 23/23/23
f 23/23/23 24/24/24 19/19/19
f 24/24/24 18/18/18 19/19/19
f 27/27/27 26/26/26 25/25/25
f 26/26/26 28/28/28 25/25/25
f 31/31/31 30/30/30 29/29/29
f 30/30/30 32/32/32 29/29/29
f 29/29/29 32/32/32 33/33/33
f 32/32/32 34/34/34 33/33/33
f 37/37/37 36/36/36 35/35/35
f 36/36/36 38/38/38 35/35/35
f 41/41/41 40/40/40 39/39/39
f 40/40/40 42/42/42 39/39/39
f 43/43/43 40/40/40 41/41/41
f 44/44/44 43/43/43 41/41/41
f 45/45/45 43/43/43 44/44/44
f 46/46/46 45/45/45 44/44/44
f 39/39/39 42/42/42 46/46/46
f 42/42/42 45/45/45 46/46/46
f 49/49/49 48/48/48 47/47/47
f 48/48/48 50/50/50 47/47/47
f 53/53/53 52/52/52 51/51/51
f 52/52/52 54/54/54 51/51/51
f 57/57/57 56/56/56 55/55/55
f 56/56/56 58/58/58 55/55/55
f 61/61/61 60/60/60 59/59/59
f 60/60/60 62/62/62 59/59/59
f 65/65/65 64/64/64 63/63/63
f 65/65/65 63/63/63 66/66/66
f 69/69/69 68/68/68 67/67/67
f 68/68/68 70/70/70 67/67/67
f 73/73/73 72/72/72 71/71/71
f 72/72/72 74/74/74 71/71/71
f 77/77/77 76/76/76 75/75/75
f 76/76/76 78/78/78 75/75/75
f 81/81/81 80/80/80 79/79/79
f 80/80/80 82/82/82 79/79/79
f 85/85/85 84/84/84 83/83/83
f 85/85/85 86/86/86 84/84/84
f 89/89/89 88/88/88 87/87/87
f 89/89/89 87/87/87 90/90/90
f 93/93/93 92/92/92 91/91/91
f 92/92/92 94/94/94 91/91/91
f 92/92/92 93/93/93 95/95/95
f 96/96/96 92/92/92 95/95/95
f 96/96/96 95/95/95 97/97/97
f 98/98/98 96/96/96 97/97/97
f 91/91/91 94/94/94 99/99/99
f 100/100/100 91/91/91 99/99/99
f 100/100/100 99/99/99 101/101/101
f 102/102/102 100/100/100 101/101/101
f 105/105/105 104/104/104 103/103/103
f 104/104/104 106/106/106 103/103/103
f 104/104/104 107/107/107 106/106/106
f 107/107/107 108/108/108 106/106/106
f 111/111/111 110/110/110 109/109/109
f 110/110/110 112/112/112 109/109/109
f 110/110/110 113/113/113 112/112/112
f 113/113/113 114/114/114 112/112/112
f 117/117/117 116/116/116 115/115/115
f 116/116/116 118/118/118 115/115/115
f 119/119/119 116/116/116 117/117/117
f 120/120/120 119/119/119 117/117/117
f 120/120/120 121/121/121 119/119/119
f 121/121/121 122/122/122 119/119/119
f 121/121/121 123/123/123 122/122/122
f 123/123/123 124/124/124 122/122/122
f 125/125/125 124/124/124 123/123/123
f 115/115/115 118/118/118 125/125/125
f 126/126/126 125/125/125 123/123/123
f 126/126/126 115/115/115 125/125/125
f 129/129/129 128/128/128 127/127/127
f 128/128/128 130/130/130 127/127/127
f 129/129/129 127/127/127 131/131/131
f 127/127/127 132/132/132 131/131/131
f 135/135/135 134/134/134 133/133/133
f 134/134/134 136/136/136 133/133/133
f 139/139/139 138/138/138 137/137/137
f 138/138/138 140/140/140 137/137/137
f 137/137/137 140/140/140 141/141/141
f 140/140/140 142/142/142 141/141/141
f 145/145/145 144/144/144 143/143/143
f 144/144/144 146/146/146 143/143/143
f 149/149/149 148/148/148 147/147/147
f 148/148/148 150/150/150 147/147/147
f 151/151/151 148/148/148 149/149/149
f 152/152/152 151/151/151 149/149/149
f 152/152/152 153/153/153 151/151/151
f 153/153/153 154/154/154 151/151/151
f 153/153/153 155/155/155 154/154/154
f 155/155/155 156/156/156 154/154/154
f 157/157/157 156/156/156 155/155/155
f 147/147/147 150/150/150 157/157/157
f 158/158/158 157/157/157 155/155/155
f 158/158/158 147/147/147 157/157/157
f 161/161/161 160/160/160 159/159/159
f 160/160/160 162/162/162 159/159/159
f 163/163/163 160/160/160 161/161/161
f 164/164/164 163/163/163 161/161/161
f 159/159/159 162/162/162 165/165/165
f 166/166/166 159/159/159 165/165/165
f 169/169/169 168/168/168 167/167/167
f 168/168/168 170/170/170 167/167/167
f 168/168/168 171/171/171 170/170/170
f 171/171/171 172/172/172 170/170/170
f 173/173/173 172/172/172 171/171/171
f 174/174/174 173/173/173 171/171/171
f 177/177/177 176/176/176 175/175/175
f 178/178/178 176/176/176 177/177/177
f 178/178/178 179/179/179 176/176/176
f 179/179/179 180/180/180 176/176/176
f 181/181/181 176/176/176 180/180/180
f 181/181/181 175/175/175 176/176/176
f 184/184/184 183/183/183 182/182/182
f 183/183/183 185/185/185 182/182/182
f 188/188/188 187/187/187 186/186/186
f 187/187/187 189/189/189 186/186/186
f 192/192/192 191/191/191 190/190/190
f 191/191/191 193/193/193 190/190/190
f 196/196/196 195/195/195 194/194/194
f 195/195/195 197/197/197 194/194/194
f 200/200/200 199/199/199 198/198/198
f 199/199/199 201/201/201 198/198/198
f 204/204/204 203/203/203 202/202/202
f 203/203/203 205/205/205 202/202/202
f 208/208/208 207/207/207 206/206/206
f 207/207/207 209/209/209 206/206/206
f 212/212/212 211/211/211 210/210/210
f 211/211/211 213/213/213 210/210/210
f 216/216/216 215/215/215 214/214/214
f 215/215/215 217/217/217 214/214/214
f 220/220/220 219/219/219 218/218/218
f 219/219/219 221/221/221 218/218/218
f 224/224/224 223/223/223 222/222/222
f 223/223/223 225/225/225 222/222/222
