g right_hand
v -43.12489 74.55135 33.49271
v -47.85029 74.80296 31.94889
v -46.00099 77.89473 32.76598
v -46.76279 72.30138 33.23
v -39.90319 80.38345 32.24926
v -44.62199 81.53654 31.65322
v -39.80129 85.59307 29.13872
v -43.99219 84.85354 29.66167
v -42.20979 90.34807 26.3484
v -46.04209 88.13712 27.74239
v -49.58139 89.23488 27.15646
v -48.05379 93.1756 24.77529
v -53.96089 93.31151 24.80944
v -52.57869 89.54733 27.02848
v -56.04769 88.62079 27.64902
v -59.04079 91.36371 26.0708
v -58.32979 84.86117 29.93689
v -62.73439 86.37144 29.12167
v -63.25589 81.32651 32.14207
v -59.02939 81.86302 31.73948
v -59.13309 78.93174 33.18747
v -61.71519 78.22318 33.38092
v -56.38909 78.17712 10.14624
v -52.57869 89.54733 27.02848
v -52.91439 79.27832 9.818619
v -56.04769 88.62079 27.64902
v -58.66039 74.7505 12.99244
v -58.32979 84.86117 29.93689
v -49.58139 89.23488 27.15646
v -49.91279 79.09846 10.16875
v -46.04209 88.13712 27.74239
v -46.36479 78.26598 11.19918
v -43.99219 84.85354 29.66167
v -44.28559 75.88018 14.62304
v -59.33569 72.49448 16.03843
v -59.02939 81.86302 31.73948
v -59.39619 70.88383 19.69983
v -59.13309 78.93174 33.18747
v -61.95909 70.76552 20.88246
v -59.13309 78.93174 33.18747
v -59.39619 70.88383 19.69983
v -61.71519 78.22318 33.38092
v -63.06968 76.11531 11.93332
v -63.25589 81.32651 32.14207
v -63.55079 72.3085 17.02883
v -62.73439 86.37144 29.12167
v -59.38199 80.9275 8.580498
v -59.04079 91.36371 26.0708
v -54.29949 82.95763 7.457298
v -53.96089 93.31151 24.80944
v -48.39169 82.84082 7.455086
v -48.05379 93.1756 24.77529
v -42.55039 79.93073 8.889809
v -42.20979 90.34807 26.3484
v -40.10789 76.21665 13.42462
v -39.80129 85.59307 29.13872
v -40.15659 72.63051 19.25611
v -39.90319 80.38345 32.24926
v -43.27439 69.98033 25.83192
v -43.12489 74.55135 33.49271
v -46.83149 70.19942 29.70725
v -46.76279 72.30138 33.23
v -47.92419 72.54041 28.15694
v -46.76279 72.30138 33.23
v -46.83149 70.19942 29.70725
v -47.85029 74.80296 31.94889
v -44.86699 74.0416 19.09224
v -46.00099 77.89473 32.76598
v -46.17239 72.65273 23.98084
v -44.62199 81.53654 31.65322
v -44.28559 75.88018 14.62304
v -43.99219 84.85354 29.66167
v -47.85029 74.80296 31.94889
v -47.92419 72.54041 28.15694
v -61.71519 78.22318 33.38092
v -61.95909 70.76552 20.88246
v -54.29949 82.95763 7.457298
v -56.38909 78.17712 10.14624
v -52.91439 79.27832 9.818619
v -59.38199 80.9275 8.580498
v -63.06968 76.11531 11.93332
v -58.66039 74.7505 12.99244
v -59.33569 72.49448 16.03843
v -63.55079 72.3085 17.02883
v -59.39619 70.88383 19.69983
v -61.95909 70.76552 20.88246
v -48.39169 82.84082 7.455086
v -49.91279 79.09846 10.16875
v -46.36479 78.26598 11.19918
v -42.55039 79.93073 8.889809
v -44.28559 75.88018 14.62304
v -40.10789 76.21665 13.42462
v -40.15659 72.63051 19.25611
v -44.86699 74.0416 19.09224
v -46.17239 72.65273 23.98084
v -43.27439 69.98033 25.83192
v -47.92419 72.54041 28.15694
v -46.83149 70.19942 29.70725
vt 0.4916173 0.9097439
vt 0.4923411 0.9155834
vt 0.4947779 0.9125628
vt 0.4909831 0.9144503
vt 0.4940335 0.9052517
vt 0.4962506 0.9105887
vt 0.4956042 0.9050539
vt 0.4970278 0.9098217
vt 0.498024 0.9077123
vt 0.4988514 0.9120961
vt 0.5005864 0.9160955
vt 0.5012026 0.9142997
vt 0.5035737 0.9210013
vt 0.5018648 0.919492
vt 0.5029459 0.9234435
vt 0.5049742 0.9267969
vt 0.5026834 0.9260926
vt 0.5048871 0.9310674
vt 0.5035328 0.9317387
vt 0.5020322 0.9269338
vt 0.5009184 0.9271958
vt 0.5014883 0.9302278
vt 0.4804065 0.9316785
vt 0.5018648 0.919492
vt 0.4797023 0.9275894
vt 0.5029459 0.9234435
vt 0.4808628 0.9340652
vt 0.5026834 0.9260926
vt 0.5005864 0.9160955
vt 0.47871 0.9240883
vt 0.4988514 0.9120961
vt 0.4775476 0.9198798
vt 0.4970278 0.9098217
vt 0.4776617 0.9168974
vt 0.4818129 0.9343212
vt 0.5020322 0.9269338
vt 0.4835494 0.9335418
vt 0.5009184 0.9271958
vt 0.4853932 0.9361085
vt 0.5009184 0.9271958
vt 0.4835494 0.9335418
vt 0.5014883 0.9302278
vt 0.4827523 0.9391546
vt 0.5035328 0.9317387
vt 0.4840702 0.9388496
vt 0.5048871 0.9310674
vt 0.4824509 0.9350262
vt 0.5049742 0.9267969
vt 0.4812281 0.9291657
vt 0.5035737 0.9210013
vt 0.4788981 0.922449
vt 0.5012026 0.9142997
vt 0.4755415 0.9159267
vt 0.498024 0.9077123
vt 0.4753681 0.9124475
vt 0.4956042 0.9050539
vt 0.4773014 0.9113649
vt 0.4940335 0.9052517
vt 0.4817521 0.9133483
vt 0.4916173 0.9097439
vt 0.4864466 0.9161077
vt 0.4909831 0.9144503
vt 0.4874582 0.9173675
vt 0.4909831 0.9144503
vt 0.4864466 0.9161077
vt 0.4923411 0.9155834
vt 0.4800749 0.9164987
vt 0.4947779 0.9125628
vt 0.4834647 0.9166963
vt 0.4962506 0.9105887
vt 0.4776617 0.9168974
vt 0.4970278 0.9098217
vt 0.4923411 0.9155834
vt 0.4874582 0.9173675
vt 0.5014883 0.9302278
vt 0.4853932 0.9361085
vt 0.4812281 0.9291657
vt 0.4804065 0.9316785
vt 0.4797023 0.9275894
vt 0.4824509 0.9350262
vt 0.4827523 0.9391546
vt 0.4808628 0.9340652
vt 0.4818129 0.9343212
vt 0.4840702 0.9388496
vt 0.4835494 0.9335418
vt 0.4853932 0.9361085
vt 0.4788981 0.922449
vt 0.47871 0.9240883
vt 0.4775476 0.9198798
vt 0.4755415 0.9159267
vt 0.4776617 0.9168974
vt 0.4753681 0.9124475
vt 0.4773014 0.9113649
vt 0.4800749 0.9164987
vt 0.4834647 0.9166963
vt 0.4817521 0.9133483
vt 0.4874582 0.9173675
vt 0.4864466 0.9161077
vn -0.1633992 0.1873941 0.968599
vn -0.3025589 0.1196524 0.9455906
vn -0.1633992 0.1873941 0.968599
vn -0.3025589 0.1196524 0.9455906
vn -0.001768486 0.385406 0.9227453
vn -0.001768486 0.385406 0.9227453
vn 0.01673901 0.5123349 0.8586226
vn 0.01673901 0.5123349 0.8586226
vn 0.01674715 0.5123292 0.8586258
vn 0.01674715 0.5123292 0.8586258
vn 0.01675247 0.5123266 0.8586273
vn 0.01675247 0.5123266 0.8586273
vn 0.01675372 0.5123265 0.8586273
vn 0.01675372 0.5123265 0.8586273
vn 0.01675727 0.5123277 0.8586265
vn 0.01675727 0.5123277 0.8586265
vn 0.0167552 0.5123279 0.8586264
vn 0.0167552 0.5123279 0.8586264
vn 0.01107498 0.4608727 0.8873972
vn 0.01107498 0.4608727 0.8873972
vn 0.005358195 0.407802 0.9130547
vn 0.005358195 0.407802 0.9130547
vn 0.6452477 -0.6615307 0.382142
vn 0.09964827 -0.855324 0.5084202
vn 0.09964827 -0.855324 0.5084202
vn 0.6452477 -0.6615307 0.382142
vn 0.9433127 -0.2927962 0.156306
vn 0.9433127 -0.2927962 0.156306
vn -0.2223909 -0.8353239 0.5027685
vn -0.2223909 -0.8353239 0.5027685
vn -0.6494884 -0.6473231 0.3989206
vn -0.6494884 -0.6473231 0.3989206
vn -0.8801261 -0.3999294 0.255802
vn -0.8801261 -0.3999294 0.255802
vn 0.9933767 -0.1061596 0.04396511
vn 0.9933767 -0.1061596 0.04396511
vn 0.9993956 -0.03474106 0.001234223
vn 0.9993956 -0.03474106 0.001234223
vn 0.2646003 -0.8304015 0.4903264
vn 0.2646003 -0.8304015 0.4903264
vn 0.2646003 -0.8304015 0.4903264
vn 0.2646003 -0.8304015 0.4903264
vn -0.9472479 0.2830232 -0.1503968
vn -0.9845454 -0.1412699 0.1035042
vn -0.9845454 -0.1412699 0.1035042
vn -0.9472479 0.2830232 -0.1503968
vn -0.6577042 0.6524491 -0.3764777
vn -0.6577042 0.6524491 -0.3764777
vn -0.2042253 0.8423938 -0.498663
vn -0.2042253 0.8423938 -0.498663
vn 0.2581047 0.8274236 -0.4987506
vn 0.2581047 0.8274236 -0.4987506
vn 0.7392681 0.5718441 -0.355636
vn 0.7392681 0.5718441 -0.355636
vn 0.9804083 0.1601469 -0.1146839
vn 0.9804083 0.1601469 -0.1146839
vn 0.9648255 -0.233611 0.1205721
vn 0.9648255 -0.233611 0.1205721
vn 0.6881365 -0.6289194 0.3618405
vn 0.6881365 -0.6289194 0.3618405
vn 0.4452523 -0.7727237 0.4523808
vn 0.4452523 -0.7727237 0.4523808
vn -0.9319124 -0.3031715 0.1990634
vn -0.9319124 -0.3031715 0.1990634
vn -0.9319124 -0.3031715 0.1990634
vn -0.9319124 -0.3031715 0.1990634
vn -0.966934 0.2268607 -0.1165026
vn -0.8692044 0.4318857 -0.2407455
vn -0.8692044 0.4318857 -0.2407455
vn -0.966934 0.2268607 -0.1165026
vn -0.9868677 0.1464568 -0.06813744
vn -0.9868677 0.1464568 -0.06813744
vn -0.7770775 0.5470528 -0.3112616
vn -0.7770775 0.5470528 -0.3112616
vn -0.9050622 -0.3572029 0.2307999
vn -0.9050622 -0.3572029 0.2307999
vn 0.02539064 -0.533807 -0.845225
vn 0.0002335403 -0.5439754 -0.8391012
vn 0.02539064 -0.533807 -0.845225
vn 0.0002335403 -0.5439754 -0.8391012
vn -0.07086258 -0.6950713 -0.71544
vn -0.07086258 -0.6950713 -0.71544
vn -0.09137305 -0.8656054 -0.4923193
vn -0.09137305 -0.8656054 -0.4923193
vn -0.07782577 -0.9248621 -0.3722542
vn -0.07782577 -0.9248621 -0.3722542
vn -0.02270158 -0.6073886 -0.7940804
vn -0.02270158 -0.6073886 -0.7940804
vn -0.05755777 -0.7326592 -0.6781575
vn -0.05755777 -0.7326592 -0.6781575
vn -0.1079544 -0.8414881 -0.5293805
vn -0.1079544 -0.8414881 -0.5293805
vn -0.249682 -0.8580747 -0.4487392
vn -0.249682 -0.8580747 -0.4487392
vn -0.4653708 -0.787174 -0.4047061
vn -0.4653708 -0.787174 -0.4047061
vn -0.5840058 -0.71966 -0.3755351
vn -0.5840058 -0.71966 -0.3755351
g right_hand_0
f 3/3/3 2/2/2 1/1/1
f 2/2/2 4/4/4 1/1/1
f 1/1/1 5/5/5 3/3/3
f 5/5/5 6/6/6 3/3/3
f 5/5/5 7/7/7 6/6/6
f 7/7/7 8/8/8 6/6/6
f 7/7/7 9/9/9 8/8/8
f 9/9/9 10/10/10 8/8/8
f 10/10/10 9/9/9 11/11/11
f 9/9/9 12/12/12 11/11/11
f 12/12/12 13/13/13 11/11/11
f 13/13/13 14/14/14 11/11/11
f 14/14/14 13/13/13 15/15/15
f 13/13/13 16/16/16 15/15/15
f 15/15/15 16/16/16 17/17/17
f 16/16/16 18/18/18 17/17/17
f 17/17/17 18/18/18 19/19/19
f 20/20/20 17/17/17 19/19/19
f 20/20/20 19/19/19 21/21/21
f 19/19/19 22/22/22 21/21/21
f 25/25/25 24/24/24 23/23/23
f 24/24/24 26/26/26 23/23/23
f 23/23/23 26/26/26 27/27/27
f 26/26/26 28/28/28 27/27/27
f 29/29/29 24/24/24 25/25/25
f 30/30/30 29/29/29 25/25/25
f 31/31/31 29/29/29 30/30/30
f 32/32/32 31/31/31 30/30/30
f 33/33/33 31/31/31 32/32/32
f 34/34/34 33/33/33 32/32/32
f 27/27/27 28/28/28 35/35/35
f 28/28/28 36/36/36 35/35/35
f 35/35/35 36/36/36 37/37/37
f 36/36/36 38/38/38 37/37/37
f 41/41/41 40/40/40 39/39/39
f 40/40/40 42/42/42 39/39/39
f 45/45/45 44/44/44 43/43/43
f 44/44/44 46/46/46 43/43/43
f 43/43/43 46/46/46 47/47/47
f 46/46/46 48/48/48 47/47/47
f 47/47/47 48/48/48 49/49/49
f 48/48/48 50/50/50 49/49/49
f 49/49/49 50/50/50 51/51/51
f 50/50/50 52/52/52 51/51/51
f 51/51/51 52/52/52 53/53/53
f 52/52/52 54/54/54 53/53/53
f 53/53/53 54/54/54 55/55/55
f 54/54/54 56/56/56 55/55/55
f 55/55/55 56/56/56 57/57/57
f 56/56/56 58/58/58 57/57/57
f 57/57/57 58/58/58 59/59/59
f 58/58/58 60/60/60 59/59/59
f 59/59/59 60/60/60 61/61/61
f 60/60/60 62/62/62 61/61/61
f 65/65/65 64/64/64 63/63/63
f 64/64/64 66/66/66 63/63/63
f 69/69/69 68/68/68 67/67/67
f 68/68/68 70/70/70 67/67/67
f 67/67/67 70/70/70 71/71/71
f 70/70/70 72/72/72 71/71/71
f 73/73/73 68/68/68 69/69/69
f 74/74/74 73/73/73 69/69/69
f 76/76/76 75/75/75 45/45/45
f 75/75/75 44/44/44 45/45/45
f 79/79/79 78/78/78 77/77/77
f 78/78/78 80/80/80 77/77/77
f 80/80/80 78/78/78 81/81/81
f 78/78/78 82/82/82 81/81/81
f 82/82/82 83/83/83 81/81/81
f 83/83/83 84/84/84 81/81/81
f 83/83/83 85/85/85 84/84/84
f 85/85/85 86/86/86 84/84/84
f 77/77/77 87/87/87 79/79/79
f 87/87/87 88/88/88 79/79/79
f 88/88/88 87/87/87 89/89/89
f 87/87/87 90/90/90 89/89/89
f 89/89/89 90/90/90 91/91/91
f 90/90/90 92/92/92 91/91/91
f 92/92/92 93/93/93 91/91/91
f 93/93/93 94/94/94 91/91/91
f 94/94/94 93/93/93 95/95/95
f 93/93/93 96/96/96 95/95/95
f 95/95/95 96/96/96 97/97/97
f 96/96/96 98/98/98 97/97/97
