g right_arm
v -41.91982 81.68819 4.078767
v -41.96733 77.92957 12.93346
v -39.06124 84.11196 7.72395
v -41.91982 81.68819 4.078767
v -44.61314 76.23915 10.21895
v -41.96733 77.92957 12.93346
v -46.85594 82.15952 2.31828
v -49.43975 77.03501 8.85532
v -50.9524 85.27742 3.48629
v -53.60011 79.85356 9.641096
v -51.78084 89.19504 6.890874
v -51.78084 89.19504 6.890874
v -54.66119 83.04125 12.11613
v -53.60011 79.85356 9.641096
v -48.88057 91.60315 10.52897
v -54.66119 83.04125 12.11613
v -51.78084 89.19504 6.890874
v -52.00682 84.72819 14.82912
v -43.96973 91.10115 12.27429
v -47.19589 83.92688 16.19096
v -39.91558 87.99911 11.11192
v -43.04335 81.10961 15.40562
v -39.06124 84.11196 7.72395
v -41.96733 77.92957 12.93346
v -39.41022 79.42497 3.827417
v -39.06124 84.11196 7.72395
v -35.07756 83.43797 8.733119
v -41.91982 81.68819 4.078767
v -39.91558 87.99911 11.11192
v -36.44406 89.50467 13.14173
v -43.96973 91.10115 12.27429
v -42.62481 94.13673 14.50859
v -48.88057 91.60315 10.52897
v -50.07322 94.67344 12.05796
v -51.78084 89.19504 6.890874
v -54.48041 90.73872 7.191971
v -50.9524 85.27742 3.48629
v -53.2177 84.60058 2.74254
v -46.85594 82.15952 2.31828
v -46.96003 79.88791 1.334189
v -39.41022 79.42497 3.827417
v -34.1987 93.4185 -11.52314
v -35.07756 83.43797 8.733119
v -30.57819 95.36734 -4.459801
v -39.41022 79.42497 3.827417
v -41.11409 94.84219 -15.97724
v -39.41022 79.42497 3.827417
v -46.96003 79.88791 1.334189
v -47.25561 97.47133 -13.22571
v -53.2177 84.60058 2.74254
v -37.23928 101.3593 -20.18776
v -29.82984 99.53761 -15.54639
v -47.25561 97.47133 -13.22571
v -43.11374 104.3344 -16.95304
v -25.38907 115.6059 -12.12674
v -30.14737 117.9676 -16.16483
v -26.7844 122.5533 -14.83723
v -23.58648 122.4221 -14.54191
v -24.63842 115.7585 -11.62187
v -30.15245 126.4859 -12.48233
v -34.26585 120.8189 -13.43103
v -31.8922 130.8486 -2.536961
v -38.22187 124.003 -4.092972
v -37.16227 122.8868 5.155022
v -31.54703 129.0878 4.368969
v -22.86304 128.7664 -11.01985
v -23.72267 131.9809 -1.147868
v -24.69463 129.4099 4.932334
v -46.05994 106.6301 -7.500031
v -48.92035 100.978 -6.844286
v -53.2177 84.60058 2.74254
v -47.25561 97.47133 -13.22571
v -54.48041 90.73872 7.191971
v -45.89332 103.4087 1.721375
v -45.89332 103.4087 1.721375
v -50.07322 94.67344 12.05796
v -54.48041 90.73872 7.191971
v -39.67859 101.7295 5.01721
v -50.07322 94.67344 12.05796
v -42.62481 94.13673 14.50859
v -32.92059 99.66832 3.128761
v -36.44406 89.50467 13.14173
v -44.3945 107.4976 0.5438568
v -46.05994 106.6301 -7.500031
v -48.92035 100.978 -6.844286
v -38.22187 124.003 -4.092972
v -37.16227 122.8868 5.155022
v -32.72546 118.1222 9.455974
v -31.54703 129.0878 4.368969
v -29.32784 123.2777 9.267242
v -26.37935 118.0843 6.055831
v -25.98906 125.6102 8.226513
v -27.30524 113.8821 5.99765
v -25.70962 112.8111 -4.190147
v -25.98906 125.6102 8.226513
v -24.69463 129.4099 4.932334
v -30.15827 101.4646 1.984031
v -25.38907 115.6059 -12.12674
v -29.82984 99.53761 -15.54639
v -30.57819 95.36734 -4.459801
v -28.12074 99.76323 -6.757865
v -34.1987 93.4185 -11.52314
v -32.92059 99.66832 3.128761
v -36.44406 89.50467 13.14173
v -35.07756 83.43797 8.733119
v -30.15827 101.4646 1.984031
v -32.92059 99.66832 3.128761
v -25.70962 112.8111 -4.190147
v -24.63842 115.7585 -11.62187
v -25.70962 112.8111 -4.190147
v -28.12074 99.76323 -6.757865
v -23.72267 131.9809 -1.147868
v -25.98906 125.6102 8.226513
v -24.69463 129.4099 4.932334
v -24.6378 123.7694 -2.520786
v -23.58648 122.4221 -14.54191
v -22.86304 128.7664 -11.01985
v -25.70962 112.8111 -4.190147
v -24.6378 123.7694 -2.520786
v -26.37935 118.0843 6.055831
v -25.98906 125.6102 8.226513
v -24.63842 115.7585 -11.62187
vt 0.4746113 0.907165
vt 0.4883402 0.9021894
vt 0.4892575 0.9020022
vt 0.4746113 0.907165
vt 0.4772518 0.9075389
vt 0.4883402 0.9021894
vt 0.4678296 0.9212147
vt 0.4720042 0.9216617
vt 0.4729596 0.9359072
vt 0.4757122 0.9362803
vt 0.4869815 0.9425962
vt 0.4869815 0.9425962
vt 0.4861817 0.9428233
vt 0.4757122 0.9362803
vt 0.5016295 0.9373735
vt 0.4861817 0.9428233
vt 0.4869815 0.9425962
vt 0.4972647 0.9374557
vt 0.5083234 0.9233248
vt 0.5024654 0.9233247
vt 0.5031947 0.9086918
vt 0.4987574 0.9087204
vt 0.4892575 0.9020022
vt 0.4883402 0.9021894
vt 0.5585961 0.8802552
vt 0.5527648 0.8828459
vt 0.5543904 0.886929
vt 0.5554664 0.87844
vt 0.5474433 0.8837436
vt 0.5463586 0.8881952
vt 0.5426009 0.8806158
vt 0.5391878 0.8833569
vt 0.5410638 0.8752831
vt 0.5370156 0.8752262
vt 0.5437489 0.870863
vt 0.5411443 0.8685335
vt 0.5490905 0.869951
vt 0.549199 0.8672141
vt 0.5539504 0.873092
vt 0.5564494 0.8720723
vt 0.5585961 0.8802552
vt 0.5524639 0.8866598
vt 0.5543904 0.886929
vt 0.5493883 0.8925236
vt 0.5585961 0.8802552
vt 0.5500038 0.879094
vt 0.5585961 0.8802552
vt 0.5564494 0.8720723
vt 0.5439683 0.874227
vt 0.549199 0.8672141
vt 0.5469629 0.8845002
vt 0.5500379 0.8924311
vt 0.5439683 0.874227
vt 0.5404849 0.8801642
vt 0.536561 0.9037675
vt 0.5338448 0.8989214
vt 0.5307347 0.9044136
vt 0.5321773 0.9076531
vt 0.5365613 0.9047165
vt 0.5246159 0.9030931
vt 0.5282987 0.8965403
vt 0.5157242 0.9054037
vt 0.5198038 0.8959935
vt 0.5175235 0.8987781
vt 0.5146759 0.9067385
vt 0.5251704 0.9116029
vt 0.517714 0.9144023
vt 0.5171847 0.9139394
vt 0.5334923 0.8800264
vt 0.53751 0.8750414
vt 0.549199 0.8672141
vt 0.5439683 0.874227
vt 0.5411443 0.8685335
vt 0.533172 0.8807316
vt 0.533172 0.8807316
vt 0.5370156 0.8752262
vt 0.5411443 0.8685335
vt 0.5360129 0.887253
vt 0.5370156 0.8752262
vt 0.5391878 0.8833569
vt 0.5414649 0.8931873
vt 0.5463586 0.8881952
vt 0.5302731 0.8838323
vt 0.5334923 0.8800264
vt 0.53751 0.8750414
vt 0.5198038 0.8959935
vt 0.5175235 0.8987781
vt 0.522094 0.9023227
vt 0.5146759 0.9067385
vt 0.5189637 0.9078597
vt 0.5264075 0.9080498
vt 0.5187851 0.911967
vt 0.5298564 0.9053255
vt 0.535795 0.9041306
vt 0.5187851 0.911967
vt 0.5171847 0.9139394
vt 0.5414402 0.8964553
vt 0.536561 0.9037675
vt 0.5500379 0.8924311
vt 0.5493883 0.8925236
vt 0.5472577 0.8960706
vt 0.5524639 0.8866598
vt 0.5414649 0.8931873
vt 0.5463586 0.8881952
vt 0.5543904 0.886929
vt 0.5414402 0.8964553
vt 0.5414649 0.8931873
vt 0.535795 0.9041306
vt 0.5365613 0.9047165
vt 0.535795 0.9041306
vt 0.5472577 0.8960706
vt 0.517714 0.9144023
vt 0.5187851 0.911967
vt 0.5171847 0.9139394
vt 0.5254469 0.9101046
vt 0.5321773 0.9076531
vt 0.5251704 0.9116029
vt 0.535795 0.9041306
vt 0.5254469 0.9101046
vt 0.5264075 0.9080498
vt 0.5187851 0.911967
vt 0.5365613 0.9047165
vn 0.4576046 -0.7544855 -0.4704781
vn 0.7503564 -0.6099225 -0.2548719
vn 0.7503564 -0.6099225 -0.2548719
vn 0.4576046 -0.7544855 -0.4704781
vn 0.4576046 -0.7544855 -0.4704781
vn 0.7503564 -0.6099225 -0.2548719
vn -0.2343692 -0.6974168 -0.6772597
vn -0.2343692 -0.6974168 -0.6772597
vn -0.7890373 -0.2486618 -0.5617717
vn -0.7890373 -0.2486618 -0.5617717
vn -0.9341545 0.3541634 -0.04385877
vn -0.9341545 0.3541634 -0.04385877
vn -0.9341545 0.3541634 -0.04385877
vn -0.7890373 -0.2486618 -0.5617717
vn -0.5139549 0.6116086 0.6014858
vn -0.9341545 0.3541634 -0.04385877
vn -0.9341545 0.3541634 -0.04385877
vn -0.5139549 0.6116086 0.6014858
vn 0.1266584 0.457186 0.8803061
vn 0.1266584 0.457186 0.8803061
vn 0.7151368 0.1081633 0.690565
vn 0.7151368 0.1081633 0.690565
vn 0.8991446 -0.1064149 0.4245169
vn 0.8991446 -0.1064149 0.4245169
vn -0.3377434 -0.4967382 0.7994877
vn -0.290984 -0.6086533 0.7381527
vn -0.290984 -0.6086533 0.7381527
vn -0.3377434 -0.4967382 0.7994877
vn -0.2204665 -0.5879509 0.7782727
vn -0.2204665 -0.5879509 0.7782727
vn -0.2632409 -0.5181444 0.8137755
vn -0.2632409 -0.5181444 0.8137755
vn -0.3325557 -0.5389712 0.7738972
vn -0.3325557 -0.5389712 0.7738972
vn -0.2632398 -0.6085688 0.7485645
vn -0.2632398 -0.6085688 0.7485645
vn -0.1436937 -0.536567 0.8315336
vn -0.1436937 -0.536567 0.8315336
vn -0.2162599 -0.4228863 0.8799993
vn -0.2162599 -0.4228863 0.8799993
vn -0.3377434 -0.4967382 0.7994877
vn 0.5506335 -0.6936102 -0.4644434
vn 0.9475503 -0.3175285 0.03638935
vn 0.8924518 -0.4450584 0.07384297
vn 0.5281257 -0.7138866 -0.4598361
vn -0.1552535 -0.6024287 -0.7829278
vn 0.5281257 -0.7138866 -0.4598361
vn -0.1858739 -0.7084736 -0.6808202
vn -0.791861 -0.08983525 -0.6040577
vn -0.8110225 -0.2611083 -0.5235121
vn 0.01425879 -0.1546855 -0.9878609
vn 0.7464265 -0.4221062 -0.5144646
vn -0.791861 -0.08983525 -0.6040577
vn -0.6735824 0.2674944 -0.6890091
vn 0.6550465 -0.4014371 -0.6401268
vn 0.1133863 0.1298583 -0.985028
vn 0.06720621 0.2303611 -0.9707817
vn 0.3768248 -0.06150486 -0.9242404
vn 0.4993468 -0.6799673 -0.5369332
vn -0.2714734 0.6637133 -0.6969842
vn -0.5292228 0.4857972 -0.6956467
vn -0.4610041 0.8829429 -0.08880953
vn -0.8122569 0.5662743 -0.1399001
vn -0.7467987 0.418882 0.5165555
vn -0.3927378 0.7282944 0.5615553
vn -0.04964216 0.7552018 -0.6536101
vn -0.1414403 0.9894111 -0.03256269
vn -0.1358179 0.8203634 0.5554795
vn -0.8963274 0.4249984 -0.1263866
vn -0.919498 0.3804893 -0.09874853
vn -0.8110225 -0.2611083 -0.5235121
vn -0.791861 -0.08983525 -0.6040577
vn -0.9304175 0.3560257 -0.08700024
vn -0.6067471 0.6172776 0.5008256
vn -0.6067471 0.6172776 0.5008256
vn -0.5005284 0.7602757 0.4140679
vn -0.9304175 0.3560257 -0.08700024
vn -0.01502625 0.3175198 0.9481325
vn -0.5005284 0.7602757 0.4140679
vn 0.1791214 0.7167078 0.6739773
vn 0.7352178 0.06568401 0.674641
vn 0.781653 0.3051315 0.5439792
vn -0.771733 0.3473119 0.5327314
vn -0.8963274 0.4249984 -0.1263866
vn -0.919498 0.3804893 -0.09874853
vn -0.8122569 0.5662743 -0.1399001
vn -0.7467987 0.418882 0.5165555
vn 0.02797105 -0.06023318 0.9977924
vn -0.3927378 0.7282944 0.5615553
vn -0.04555162 0.3094764 0.9498155
vn 0.6871993 -0.2181542 0.6929401
vn 0.1920398 0.2184279 0.9567707
vn 0.7481138 -0.2644034 0.6086186
vn 0.9027871 -0.430066 -0.004321178
vn 0.1920398 0.2184279 0.9567707
vn -0.1358179 0.8203634 0.5554795
vn 0.6655188 -0.2675729 0.6967708
vn 0.6550465 -0.4014371 -0.6401268
vn 0.7464265 -0.4221062 -0.5144646
vn 0.8924518 -0.4450584 0.07384297
vn 0.913093 -0.3994471 0.08187358
vn 0.5506335 -0.6936102 -0.4644434
vn 0.7352178 0.06568401 0.674641
vn 0.781653 0.3051315 0.5439792
vn 0.9475503 -0.3175285 0.03638935
vn 0.6655188 -0.2675729 0.6967708
vn 0.7352178 0.06568401 0.674641
vn 0.9027871 -0.430066 -0.004321178
vn 0.4993468 -0.6799673 -0.5369332
vn 0.9027871 -0.430066 -0.004321178
vn 0.913093 -0.3994471 0.08187358
vn 0.9788278 -0.159554 0.1282135
vn 0.9788278 -0.159554 0.1282135
vn 0.9788278 -0.159554 0.1282135
vn 0.9788278 -0.159554 0.1282135
vn 0.9817738 -0.1498368 0.1169157
vn 0.9817738 -0.1498368 0.1169157
vn 0.9858592 -0.1050979 0.1305217
vn 0.9858592 -0.1050979 0.1305217
vn 0.9858592 -0.1050979 0.1305217
vn 0.9858592 -0.1050979 0.1305217
vn 0.9887798 -0.112163 0.09866092
g right_arm_0
f 3/3/3 2/2/2 1/1/1
f 6/6/6 5/5/5 4/4/4
f 4/4/4 5/5/5 7/7/7
f 5/5/5 8/8/8 7/7/7
f 7/7/7 8/8/8 9/9/9
f 8/8/8 10/10/10 9/9/9
f 9/9/9 10/10/10 11/11/11
f 14/14/14 13/13/13 12/12/12
f 17/17/17 16/16/16 15/15/15
f 16/16/16 18/18/18 15/15/15
f 15/15/15 18/18/18 19/19/19
f 18/18/18 20/20/20 19/19/19
f 19/19/19 20/20/20 21/21/21
f 20/20/20 22/22/22 21/21/21
f 21/21/21 22/22/22 23/23/23
f 22/22/22 24/24/24 23/23/23
f 27/27/27 26/26/26 25/25/25
f 26/26/26 28/28/28 25/25/25
f 29/29/29 26/26/26 27/27/27
f 30/30/30 29/29/29 27/27/27
f 31/31/31 29/29/29 30/30/30
f 32/32/32 31/31/31 30/30/30
f 33/33/33 31/31/31 32/32/32
f 34/34/34 33/33/33 32/32/32
f 35/35/35 33/33/33 34/34/34
f 36/36/36 35/35/35 34/34/34
f 37/37/37 35/35/35 36/36/36
f 38/38/38 37/37/37 36/36/36
f 39/39/39 37/37/37 38/38/38
f 28/28/28 39/39/39 40/40/40
f 40/40/40 39/39/39 38/38/38
f 41/41/41 28/28/28 40/40/40
f 44/44/44 43/43/43 42/42/42
f 43/43/43 45/45/45 42/42/42
f 42/42/42 47/47/47 46/46/46
f 47/47/47 48/48/48 46/46/46
f 46/46/46 48/48/48 49/49/49
f 48/48/48 50/50/50 49/49/49
f 42/42/42 46/46/46 51/51/51
f 52/52/52 42/42/42 51/51/51
f 46/46/46 53/53/53 51/51/51
f 53/53/53 54/54/54 51/51/51
f 52/52/52 51/51/51 55/55/55
f 51/51/51 56/56/56 55/55/55
f 51/51/51 54/54/54 56/56/56
f 56/56/56 57/57/57 55/55/55
f 57/57/57 58/58/58 55/55/55
f 58/58/58 59/59/59 55/55/55
f 57/57/57 56/56/56 60/60/60
f 57/57/57 60/60/60 58/58/58
f 56/56/56 61/61/61 60/60/60
f 54/54/54 61/61/61 56/56/56
f 60/60/60 61/61/61 62/62/62
f 61/61/61 63/63/63 62/62/62
f 63/63/63 64/64/64 62/62/62
f 64/64/64 65/65/65 62/62/62
f 60/60/60 66/66/66 58/58/58
f 62/62/62 67/67/67 60/60/60
f 67/67/67 66/66/66 60/60/60
f 65/65/65 68/68/68 62/62/62
f 68/68/68 67/67/67 62/62/62
f 54/54/54 69/69/69 61/61/61
f 69/69/69 63/63/63 61/61/61
f 70/70/70 69/69/69 54/54/54
f 72/72/72 71/71/71 70/70/70
f 71/71/71 73/73/73 70/70/70
f 70/70/70 73/73/73 74/74/74
f 72/72/72 70/70/70 54/54/54
f 77/77/77 76/76/76 75/75/75
f 75/75/75 79/79/79 78/78/78
f 79/79/79 80/80/80 78/78/78
f 78/78/78 80/80/80 81/81/81
f 80/80/80 82/82/82 81/81/81
f 78/78/78 83/83/83 75/75/75
f 75/75/75 83/83/83 84/84/84
f 85/85/85 75/75/75 84/84/84
f 84/84/84 83/83/83 86/86/86
f 83/83/83 87/87/87 86/86/86
f 83/83/83 78/78/78 87/87/87
f 78/78/78 88/88/88 87/87/87
f 87/87/87 88/88/88 89/89/89
f 88/88/88 90/90/90 89/89/89
f 90/90/90 88/88/88 91/91/91
f 92/92/92 90/90/90 91/91/91
f 88/88/88 93/93/93 91/91/91
f 93/93/93 88/88/88 78/78/78
f 94/94/94 91/91/91 93/93/93
f 90/90/90 95/95/95 89/89/89
f 95/95/95 96/96/96 89/89/89
f 94/94/94 93/93/93 97/97/97
f 99/99/99 98/98/98 94/94/94
f 101/101/101 100/100/100 99/99/99
f 100/100/100 102/102/102 99/99/99
f 103/103/103 100/100/100 101/101/101
f 103/103/103 104/104/104 100/100/100
f 104/104/104 105/105/105 100/100/100
f 106/106/106 103/103/103 101/101/101
f 101/101/101 94/94/94 106/106/106
f 106/106/106 93/93/93 78/78/78
f 107/107/107 106/106/106 78/78/78
f 98/98/98 109/109/109 108/108/108
f 111/111/111 52/52/52 110/110/110
f 114/114/114 113/113/113 112/112/112
f 113/113/113 115/115/115 112/112/112
f 115/115/115 116/116/116 112/112/112
f 116/116/116 117/117/117 112/112/112
f 119/119/119 118/118/118 116/116/116
f 120/120/120 118/118/118 119/119/119
f 121/121/121 120/120/120 119/119/119
f 118/118/118 122/122/122 116/116/116
