g right_hand
v -41.47985 71.17988 32.04887
v -46.25243 72.13268 31.00446
v -43.8772 74.91485 31.51872
v -41.47985 71.17988 32.04887
v -45.42375 69.51482 32.2462
v -56.57409 77.97488 33.28797
v -60.37494 80.96004 32.60413
v -56.1856 80.83044 31.74046
v -55.24035 83.65408 29.77547
v -59.42711 85.81284 29.37951
v -55.37448 90.12309 25.79186
v -52.67799 86.97741 27.13597
v -50.22648 91.24151 23.93778
v -49.19741 87.34648 26.12261
v -46.28644 86.57694 25.94411
v -44.44799 90.19417 23.28543
v -38.96431 86.52441 24.32664
v -42.91217 84.95554 26.18972
v -41.18701 81.42713 27.99025
v -37.01499 81.50158 27.00397
v -42.09143 78.28088 30.14628
v -37.56576 76.42278 30.27939
v -43.8772 74.91485 31.51872
v -41.47985 71.17988 32.04887
v -56.57409 77.97488 33.28797
v -59.19701 77.67702 33.77608
v -56.51164 76.42177 10.12374
v -49.19741 87.34648 26.12261
v -52.96694 76.96738 9.395093
v -52.67799 86.97741 27.13597
v -58.95181 73.43504 13.30593
v -55.24035 83.65408 29.77547
v -46.28644 86.57694 25.94411
v -50.00734 76.33186 9.432534
v -42.91217 84.95554 26.18972
v -46.53566 74.97857 10.11017
v -41.18701 81.42713 27.99025
v -44.481 72.35758 13.3731
v -59.62465 71.36146 16.47947
v -56.1856 80.83044 31.74046
v -59.52832 69.84069 20.17835
v -56.1856 80.83044 31.74046
v -59.62465 71.36146 16.47947
v -56.57409 77.97488 33.28797
v -61.93467 70.13943 21.62793
v -56.57409 77.97488 33.28797
v -59.52832 69.84069 20.17835
v -59.19701 77.67702 33.77608
v -63.19193 75.44676 12.67291
v -60.37494 80.96004 32.60413
v -63.68533 71.84537 17.91448
v -59.42711 85.81284 29.37951
v -59.20544 79.575 8.79176
v -55.37448 90.12309 25.79186
v -54.02729 80.77665 7.071983
v -50.22648 91.24151 23.93778
v -48.24171 79.7486 6.45067
v -44.44799 90.19417 23.28543
v -42.78835 75.9954 7.357368
v -38.96431 86.52441 24.32664
v -40.45695 72.02465 11.73029
v -37.01499 81.50158 27.00397
v -40.41164 68.58671 17.6504
v -37.56576 76.42278 30.27939
v -46.19533 67.39033 28.82218
v -41.47985 71.17988 32.04887
v -43.15786 66.55987 24.60279
v -45.42375 69.51482 32.2462
v -37.56576 76.42278 30.27939
v -40.41164 68.58671 17.6504
v -41.47985 71.17988 32.04887
v -47.0829 69.84586 27.31877
v -45.42375 69.51482 32.2462
v -46.19533 67.39033 28.82218
v -46.25243 72.13268 31.00446
v -44.84266 70.70557 17.93734
v -43.8772 74.91485 31.51872
v -45.80146 69.61665 22.97981
v -42.09143 78.28088 30.14628
v -44.481 72.35758 13.3731
v -41.18701 81.42713 27.99025
v -46.25243 72.13268 31.00446
v -47.0829 69.84586 27.31877
v -43.8772 74.91485 31.51872
v -63.68533 71.84537 17.91448
v -59.19701 77.67702 33.77608
v -61.93467 70.13943 21.62793
v -60.37494 80.96004 32.60413
v -54.02729 80.77665 7.071983
v -56.51164 76.42177 10.12374
v -52.96694 76.96738 9.395093
v -54.02729 80.77665 7.071983
v -59.20544 79.575 8.79176
v -63.19193 75.44676 12.67291
v -58.95181 73.43504 13.30593
v -52.96694 76.96738 9.395093
v -48.24171 79.7486 6.45067
v -50.00734 76.33186 9.432534
v -46.53566 74.97857 10.11017
v -42.78835 75.9954 7.357368
v -48.24171 79.7486 6.45067
v -47.0829 69.84586 27.31877
v -43.15786 66.55987 24.60279
v -45.80146 69.61665 22.97981
v -40.41164 68.58671 17.6504
v -44.84266 70.70557 17.93734
v -44.481 72.35758 13.3731
v -47.0829 69.84586 27.31877
v -46.19533 67.39033 28.82218
v -44.481 72.35758 13.3731
v -40.45695 72.02465 11.73029
v -42.78835 75.9954 7.357368
v -46.53566 74.97857 10.11017
v -63.68533 71.84537 17.91448
v -59.52832 69.84069 20.17835
v -59.62465 71.36146 16.47947
v -61.93467 70.13943 21.62793
v -63.19193 75.44676 12.67291
v -58.95181 73.43504 13.30593
v -63.68533 71.84537 17.91448
vt 0.4916173 0.9097439
vt 0.4923411 0.9155834
vt 0.4947779 0.9125628
vt 0.4916173 0.9097439
vt 0.4909831 0.9144503
vt 0.5009184 0.9271958
vt 0.5035328 0.9317387
vt 0.5020322 0.9269338
vt 0.5026834 0.9260926
vt 0.5048871 0.9310674
vt 0.5049742 0.9267969
vt 0.5029459 0.9234435
vt 0.5035737 0.9210013
vt 0.5018648 0.919492
vt 0.5005864 0.9160955
vt 0.5012026 0.9142997
vt 0.498024 0.9077123
vt 0.4988514 0.9120961
vt 0.4970278 0.9098217
vt 0.4956042 0.9050539
vt 0.4962506 0.9105887
vt 0.4940335 0.9052517
vt 0.4947779 0.9125628
vt 0.4916173 0.9097439
vt 0.5009184 0.9271958
vt 0.5014883 0.9302278
vt 0.4804065 0.9316785
vt 0.5018648 0.919492
vt 0.4797023 0.9275894
vt 0.5029459 0.9234435
vt 0.4808628 0.9340652
vt 0.5026834 0.9260926
vt 0.5005864 0.9160955
vt 0.47871 0.9240883
vt 0.4988514 0.9120961
vt 0.4775476 0.9198798
vt 0.4970278 0.9098217
vt 0.4776617 0.9168974
vt 0.4818129 0.9343212
vt 0.5020322 0.9269338
vt 0.4835494 0.9335418
vt 0.5020322 0.9269338
vt 0.4818129 0.9343212
vt 0.5009184 0.9271958
vt 0.4853932 0.9361085
vt 0.5009184 0.9271958
vt 0.4835494 0.9335418
vt 0.5014883 0.9302278
vt 0.4827523 0.9391546
vt 0.5035328 0.9317387
vt 0.4840702 0.9388496
vt 0.5048871 0.9310674
vt 0.4824509 0.9350262
vt 0.5049742 0.9267969
vt 0.4812281 0.9291657
vt 0.5035737 0.9210013
vt 0.4788981 0.922449
vt 0.5012026 0.9142997
vt 0.4755415 0.9159267
vt 0.498024 0.9077123
vt 0.4753681 0.9124475
vt 0.4956042 0.9050539
vt 0.4773014 0.9113649
vt 0.4940335 0.9052517
vt 0.4864466 0.9161077
vt 0.4916173 0.9097439
vt 0.4817521 0.9133483
vt 0.4909831 0.9144503
vt 0.4940335 0.9052517
vt 0.4773014 0.9113649
vt 0.4916173 0.9097439
vt 0.4874582 0.9173675
vt 0.4909831 0.9144503
vt 0.4864466 0.9161077
vt 0.4923411 0.9155834
vt 0.4800749 0.9164987
vt 0.4947779 0.9125628
vt 0.4834647 0.9166963
vt 0.4962506 0.9105887
vt 0.4776617 0.9168974
vt 0.4970278 0.9098217
vt 0.4923411 0.9155834
vt 0.4874582 0.9173675
vt 0.4947779 0.9125628
vt 0.4840702 0.9388496
vt 0.5014883 0.9302278
vt 0.4853932 0.9361085
vt 0.5035328 0.9317387
vt 0.4812281 0.9291657
vt 0.4804065 0.9316785
vt 0.4797023 0.9275894
vt 0.4812281 0.9291657
vt 0.4824509 0.9350262
vt 0.4827523 0.9391546
vt 0.4808628 0.9340652
vt 0.4797023 0.9275894
vt 0.4788981 0.922449
vt 0.47871 0.9240883
vt 0.4775476 0.9198798
vt 0.4755415 0.9159267
vt 0.4788981 0.922449
vt 0.4874582 0.9173675
vt 0.4817521 0.9133483
vt 0.4834647 0.9166963
vt 0.4773014 0.9113649
vt 0.4800749 0.9164987
vt 0.4776617 0.9168974
vt 0.4874582 0.9173675
vt 0.4864466 0.9161077
vt 0.4776617 0.9168974
vt 0.4753681 0.9124475
vt 0.4755415 0.9159267
vt 0.4775476 0.9198798
vt 0.4840702 0.9388496
vt 0.4835494 0.9335418
vt 0.4818129 0.9343212
vt 0.4853932 0.9361085
vt 0.4827523 0.9391546
vt 0.4808628 0.9340652
vt 0.4840702 0.9388496
vn -0.02619801 0.2264937 0.9736603
vn -0.1756988 0.1806884 0.9677197
vn -0.02619801 0.2264937 0.9736603
vn -0.02619801 0.2264937 0.9736603
vn -0.1756988 0.1806884 0.9677197
vn 0.1669619 0.4172314 0.8933318
vn 0.1778274 0.4683464 0.8654647
vn 0.1778274 0.4683464 0.8654647
vn 0.1880718 0.5178192 0.834561
vn 0.1880718 0.5178192 0.834561
vn 0.1880741 0.5178182 0.8345612
vn 0.1880741 0.5178182 0.8345612
vn 0.1880709 0.517818 0.8345621
vn 0.1880709 0.517818 0.8345621
vn 0.1880699 0.5178183 0.8345621
vn 0.1880699 0.5178183 0.8345621
vn 0.1880651 0.5178212 0.8345615
vn 0.1880651 0.5178212 0.8345615
vn 0.188058 0.5178292 0.8345581
vn 0.188058 0.5178292 0.8345581
vn 0.1576216 0.3963692 0.9044594
vn 0.1576216 0.3963692 0.9044594
vn -0.02619801 0.2264937 0.9736603
vn -0.02619801 0.2264937 0.9736603
vn 0.1669619 0.4172314 0.8933318
vn 0.1669619 0.4172314 0.8933318
vn 0.5752291 -0.7468086 0.3337491
vn 0.02364864 -0.8518616 0.5232328
vn 0.02364864 -0.8518616 0.5232328
vn 0.5752291 -0.7468086 0.3337491
vn 0.8993127 -0.4323569 0.06560706
vn 0.8993127 -0.4323569 0.06560706
vn -0.290289 -0.7824507 0.5509113
vn -0.290289 -0.7824507 0.5509113
vn -0.6926677 -0.5324861 0.4864874
vn -0.6926677 -0.5324861 0.4864874
vn -0.8973318 -0.2548513 0.360342
vn -0.8973318 -0.2548513 0.360342
vn 0.9645396 -0.2575918 -0.05752924
vn 0.9645396 -0.2575918 -0.05752924
vn 0.9766209 -0.1886829 -0.1030074
vn 0.9645396 -0.2575918 -0.05752924
vn 0.9645396 -0.2575918 -0.05752924
vn 0.9766209 -0.1886829 -0.1030074
vn 0.1874942 -0.8530244 0.487027
vn 0.1874942 -0.8530244 0.487027
vn 0.1874942 -0.8530244 0.487027
vn 0.1874942 -0.8530244 0.487027
vn -0.9040157 0.423409 -0.05899452
vn -0.9772979 0.01425965 0.2113895
vn -0.9772979 0.01425965 0.2113895
vn -0.9040157 0.423409 -0.05899452
vn -0.5882257 0.7398547 -0.3265049
vn -0.5882257 0.7398547 -0.3265049
vn -0.127277 0.855406 -0.5020768
vn -0.127277 0.855406 -0.5020768
vn 0.3246126 0.7691969 -0.5504206
vn 0.3246126 0.7691969 -0.5504206
vn 0.7741385 0.4447763 -0.4504262
vn 0.7741385 0.4447763 -0.4504262
vn 0.9748768 0.004841019 -0.2226922
vn 0.9748768 0.004841019 -0.2226922
vn 0.9255221 -0.3778097 0.02585614
vn 0.9255221 -0.3778097 0.02585614
vn 0.3695655 -0.8245857 0.4283453
vn 0.6200917 -0.7215561 0.307966
vn 0.6200917 -0.7215561 0.307966
vn 0.3695655 -0.8245857 0.4283453
vn 0.9255221 -0.3778097 0.02585614
vn 0.9255221 -0.3778097 0.02585614
vn 0.6200917 -0.7215561 0.307966
vn -0.9397209 -0.1522148 0.306195
vn -0.9397209 -0.1522148 0.306195
vn -0.9397209 -0.1522148 0.306195
vn -0.9397209 -0.1522148 0.306195
vn -0.9281735 0.3715341 -0.02136478
vn -0.8146328 0.5569019 -0.1619683
vn -0.8146328 0.5569019 -0.1619683
vn -0.9281735 0.3715341 -0.02136478
vn -0.9546714 0.2959923 0.03147969
vn -0.9546714 0.2959923 0.03147969
vn -0.714361 0.6552642 -0.2455956
vn -0.714361 0.6552642 -0.2455956
vn -0.8146328 0.5569019 -0.1619683
vn -0.9772979 0.01425965 0.2113895
vn -0.9180758 -0.2092094 0.336702
vn -0.9180758 -0.2092094 0.336702
vn -0.9772979 0.01425965 0.2113895
vn -0.1484654 -0.5453255 -0.8249717
vn -0.1740527 -0.5513819 -0.8158944
vn -0.1484654 -0.5453255 -0.8249717
vn -0.1484654 -0.5453255 -0.8249717
vn -0.1740527 -0.5513819 -0.8158944
vn -0.2533089 -0.6875998 -0.6804711
vn -0.2533089 -0.6875998 -0.6804711
vn -0.1484654 -0.5453255 -0.8249717
vn -0.2012861 -0.6097326 -0.7666225
vn -0.2012861 -0.6097326 -0.7666225
vn -0.2418686 -0.7261662 -0.6435698
vn -0.2418686 -0.7261662 -0.6435698
vn -0.2012861 -0.6097326 -0.7666225
vn -0.7239742 -0.6269591 -0.2877216
vn -0.6208682 -0.7124656 -0.3269792
vn -0.6208682 -0.7124656 -0.3269792
vn -0.4245595 -0.8165581 -0.3911293
vn -0.4245595 -0.8165581 -0.3911293
vn -0.2916305 -0.8234102 -0.4867724
vn -0.7239742 -0.6269591 -0.2877216
vn -0.7239742 -0.6269591 -0.2877216
vn -0.2916305 -0.8234102 -0.4867724
vn -0.2916305 -0.8234102 -0.4867724
vn -0.2418686 -0.7261662 -0.6435698
vn -0.2418686 -0.7261662 -0.6435698
vn -0.2749509 -0.8491783 -0.4508862
vn -0.2575125 -0.9078086 -0.3310149
vn -0.2749509 -0.8491783 -0.4508862
vn -0.2575125 -0.9078086 -0.3310149
vn -0.2533089 -0.6875998 -0.6804711
vn -0.2533089 -0.6875998 -0.6804711
vn -0.2749509 -0.8491783 -0.4508862
g right_hand_0
f 3/3/3 2/2/2 1/1/1
f 2/2/2 5/5/5 4/4/4
f 8/8/8 7/7/7 6/6/6
f 8/8/8 9/9/9 7/7/7
f 9/9/9 10/10/10 7/7/7
f 11/11/11 10/10/10 9/9/9
f 12/12/12 11/11/11 9/9/9
f 13/13/13 11/11/11 12/12/12
f 14/14/14 13/13/13 12/12/12
f 13/13/13 14/14/14 15/15/15
f 16/16/16 13/13/13 15/15/15
f 17/17/17 16/16/16 15/15/15
f 18/18/18 17/17/17 15/15/15
f 17/17/17 18/18/18 19/19/19
f 20/20/20 17/17/17 19/19/19
f 20/20/20 19/19/19 21/21/21
f 22/22/22 20/20/20 21/21/21
f 22/22/22 21/21/21 23/23/23
f 24/24/24 22/22/22 23/23/23
f 7/7/7 26/26/26 25/25/25
f 29/29/29 28/28/28 27/27/27
f 28/28/28 30/30/30 27/27/27
f 27/27/27 30/30/30 31/31/31
f 30/30/30 32/32/32 31/31/31
f 33/33/33 28/28/28 29/29/29
f 34/34/34 33/33/33 29/29/29
f 35/35/35 33/33/33 34/34/34
f 36/36/36 35/35/35 34/34/34
f 37/37/37 35/35/35 36/36/36
f 38/38/38 37/37/37 36/36/36
f 31/31/31 32/32/32 39/39/39
f 32/32/32 40/40/40 39/39/39
f 43/43/43 42/42/42 41/41/41
f 42/42/42 44/44/44 41/41/41
f 47/47/47 46/46/46 45/45/45
f 46/46/46 48/48/48 45/45/45
f 51/51/51 50/50/50 49/49/49
f 50/50/50 52/52/52 49/49/49
f 49/49/49 52/52/52 53/53/53
f 52/52/52 54/54/54 53/53/53
f 53/53/53 54/54/54 55/55/55
f 54/54/54 56/56/56 55/55/55
f 55/55/55 56/56/56 57/57/57
f 56/56/56 58/58/58 57/57/57
f 57/57/57 58/58/58 59/59/59
f 58/58/58 60/60/60 59/59/59
f 59/59/59 60/60/60 61/61/61
f 60/60/60 62/62/62 61/61/61
f 61/61/61 62/62/62 63/63/63
f 62/62/62 64/64/64 63/63/63
f 67/67/67 66/66/66 65/65/65
f 66/66/66 68/68/68 65/65/65
f 70/70/70 69/69/69 67/67/67
f 69/69/69 71/71/71 67/67/67
f 74/74/74 73/73/73 72/72/72
f 73/73/73 75/75/75 72/72/72
f 78/78/78 77/77/77 76/76/76
f 77/77/77 79/79/79 76/76/76
f 76/76/76 79/79/79 80/80/80
f 79/79/79 81/81/81 80/80/80
f 83/83/83 82/82/82 78/78/78
f 82/82/82 84/84/84 78/78/78
f 87/87/87 86/86/86 85/85/85
f 86/86/86 88/88/88 85/85/85
f 91/91/91 90/90/90 89/89/89
f 90/90/90 93/93/93 92/92/92
f 93/93/93 90/90/90 94/94/94
f 90/90/90 95/95/95 94/94/94
f 89/89/89 97/97/97 96/96/96
f 97/97/97 98/98/98 96/96/96
f 98/98/98 97/97/97 99/99/99
f 101/101/101 100/100/100 99/99/99
f 104/104/104 103/103/103 102/102/102
f 105/105/105 103/103/103 104/104/104
f 106/106/106 105/105/105 104/104/104
f 105/105/105 106/106/106 107/107/107
f 103/103/103 109/109/109 108/108/108
f 111/111/111 105/105/105 110/110/110
f 112/112/112 111/111/111 110/110/110
f 113/113/113 112/112/112 110/110/110
f 116/116/116 115/115/115 114/114/114
f 115/115/115 117/117/117 114/114/114
f 119/119/119 116/116/116 118/118/118
f 116/116/116 120/120/120 118/118/118
