g stud
v 0.4160051 0.00100606 -0.2401807
v 0.2401807 0.3290201 -0.4160051
v 0.2401807 0.00100606 -0.4160051
v 0.4160051 0.3290201 -0.2401807
v 7.267409E-08 0.3290201 -0.4803613
v 7.267409E-08 0.00100606 -0.4803613
v -0.2401806 0.3290201 -0.4160051
v -0.2401806 0.00100606 -0.4160051
v -0.416005 0.3290201 -0.2401807
v -0.416005 0.00100606 -0.2401807
v -0.4803614 0.3290201 -2.084837E-09
v -0.4803614 0.00100606 -2.084837E-09
v -0.416005 0.3290201 0.2401806
v -0.416005 0.00100606 0.2401806
v -0.2401806 0.3290201 0.4160051
v -0.2401806 0.00100606 0.4160051
v 7.267409E-08 0.3290201 0.4803613
v 7.267409E-08 0.00100606 0.4803613
v 0.2401807 0.3290201 0.4160051
v 0.2401807 0.00100606 0.4160051
v 0.4160051 0.3290201 0.2401806
v 0.4160051 0.00100606 0.2401806
v 0.4803613 0.3290201 -2.084837E-09
v 0.4803613 0.00100606 -2.084837E-09
v 0.4160051 0.3290201 -0.2401807
v 0.3042289 0.3290201 -0.5269398
v 0.2401807 0.3290201 -0.4160051
v 0.5269399 0.3290201 -0.3042289
v 7.267409E-08 0.3290201 -0.6084576
v 7.267409E-08 0.3290201 -0.4803613
v -0.3042288 0.3290201 -0.5269398
v -0.2401806 0.3290201 -0.4160051
v -0.5269396 0.3290201 -0.3042289
v -0.416005 0.3290201 -0.2401807
v -0.6084577 0.3290201 -2.787501E-09
v -0.4803614 0.3290201 -2.084837E-09
v -0.5269396 0.3290201 0.3042288
v -0.416005 0.3290201 0.2401806
v -0.3042288 0.3290201 0.5269397
v -0.2401806 0.3290201 0.4160051
v 7.267409E-08 0.3290201 0.6084576
v 7.267409E-08 0.3290201 0.4803613
v 0.3042289 0.3290201 0.5269397
v 0.2401807 0.3290201 0.4160051
v 0.5269399 0.3290201 0.3042288
v 0.4160051 0.3290201 0.2401806
v 0.6084577 0.3290201 -2.787501E-09
v 0.4803613 0.3290201 -2.084837E-09
v 0.5269399 0.3290201 -0.3042289
v 0.3042289 0.4771085 -0.5269398
v 0.3042289 0.3290201 -0.5269398
v 0.5269399 0.4771085 -0.3042289
v 7.267409E-08 0.4771085 -0.6084576
v 7.267409E-08 0.3290201 -0.6084576
v -0.3042288 0.4771085 -0.5269398
v -0.3042288 0.3290201 -0.5269398
v -0.5269396 0.4771085 -0.3042289
v -0.5269396 0.3290201 -0.3042289
v -0.6084577 0.4771085 -2.787501E-09
v -0.6084577 0.3290201 -2.787501E-09
v -0.5269396 0.4771085 0.3042288
v -0.5269396 0.3290201 0.3042288
v -0.3042288 0.4771085 0.5269397
v -0.3042288 0.3290201 0.5269397
v 7.267409E-08 0.4771085 0.6084576
v 7.267409E-08 0.3290201 0.6084576
v 0.3042289 0.4771085 0.5269397
v 0.3042289 0.3290201 0.5269397
v 0.5269399 0.4771085 0.3042288
v 0.5269399 0.3290201 0.3042288
v 0.6084577 0.4771085 -2.787501E-09
v 0.6084577 0.3290201 -2.787501E-09
v 0.5269399 0.4771085 -0.3042289
v 0.1846861 0.4771085 -0.3198856
v 0.3042289 0.4771085 -0.5269398
v 0.3198856 0.4771085 -0.184686
v 7.267409E-08 0.4771085 -0.369372
v 7.267409E-08 0.4771085 -0.6084576
v -0.184686 0.4771085 -0.3198856
v -0.3042288 0.4771085 -0.5269398
v -0.3198855 0.4771085 -0.184686
v -0.5269396 0.4771085 -0.3042289
v -0.369372 0.4771085 -1.733505E-09
v -0.6084577 0.4771085 -2.787501E-09
v -0.3198855 0.4771085 0.184686
v -0.5269396 0.4771085 0.3042288
v -0.184686 0.4771085 0.3198855
v -0.3042288 0.4771085 0.5269397
v 7.267409E-08 0.4771085 0.369372
v 7.267409E-08 0.4771085 0.6084576
v 0.1846861 0.4771085 0.3198855
v 0.3042289 0.4771085 0.5269397
v 0.3198856 0.4771085 0.184686
v 0.5269399 0.4771085 0.3042288
v 0.369372 0.4771085 -1.733505E-09
v 0.6084577 0.4771085 -2.787501E-09
v 0.3198856 0.4771085 -0.184686
v 0.1846861 0.7550642 -0.3198856
v 0.1846861 0.4771085 -0.3198856
v 0.3198856 0.7550642 -0.184686
v 7.267409E-08 0.7550642 -0.369372
v 7.267409E-08 0.4771085 -0.369372
v -0.184686 0.7550642 -0.3198856
v -0.184686 0.4771085 -0.3198856
v -0.3198855 0.7550642 -0.184686
v -0.3198855 0.4771085 -0.184686
v -0.369372 0.7550642 -1.733505E-09
v -0.369372 0.4771085 -1.733505E-09
v -0.3198855 0.7550642 0.184686
v -0.3198855 0.4771085 0.184686
v -0.184686 0.7550642 0.3198855
v -0.184686 0.4771085 0.3198855
v 7.267409E-08 0.7550642 0.369372
v 7.267409E-08 0.4771085 0.369372
v 0.1846861 0.7550642 0.3198855
v 0.1846861 0.4771085 0.3198855
v 0.3198856 0.7550642 0.184686
v 0.3198856 0.4771085 0.184686
v 0.369372 0.7550642 -1.733505E-09
v 0.369372 0.4771085 -1.733505E-09
v 0.1846861 0.7550642 -0.3198856
v 7.267409E-08 0.7550642 -1.21205E-08
v 7.267409E-08 0.7550642 -0.369372
v 0.3198856 0.7550642 -0.184686
v -0.184686 0.7550642 -0.3198856
v -0.3198855 0.7550642 -0.184686
v -0.369372 0.7550642 -1.733505E-09
v -0.3198855 0.7550642 0.184686
v 7.267409E-08 0.7550642 0.369372
v 0.3198856 0.7550642 0.184686
v 0.1846861 0.7550642 0.3198855
v -0.184686 0.7550642 0.3198855
v 0.369372 0.7550642 -1.733505E-09
v 0.2401807 0.00100606 -0.4160051
v 7.267409E-08 0.00100606 -0.4803613
v -1.719854E-08 0.00100606 -2.084837E-09
v -0.2401806 0.00100606 -0.4160051
v -0.416005 0.00100606 -0.2401807
v -0.4803614 0.00100606 -2.084837E-09
v -0.416005 0.00100606 0.2401806
v -0.2401806 0.00100606 0.4160051
v 7.267409E-08 0.00100606 0.4803613
v 0.2401807 0.00100606 0.4160051
v 0.4160051 0.00100606 0.2401806
v 0.4803613 0.00100606 -2.084837E-09
v 0.4160051 0.00100606 -0.2401807
vt 0.414549 0.6899651
vt 0.3445327 0.8290291
vt 0.3445327 0.8290291
vt 0.414549 0.6899651
vt 0.2488888 0.87993
vt 0.2488888 0.87993
vt 0.1532448 0.8290291
vt 0.1532448 0.8290291
vt 0.08322851 0.6899651
vt 0.08322851 0.6899651
vt 0.05760071 0.5
vt 0.05760071 0.5
vt 0.08322851 0.310035
vt 0.08322851 0.310035
vt 0.1532448 0.1709709
vt 0.1532448 0.1709709
vt 0.2488888 0.12007
vt 0.2488888 0.12007
vt 0.3445327 0.1709709
vt 0.3445327 0.1709709
vt 0.414549 0.310035
vt 0.414549 0.310035
vt 0.4401767 0.5
vt 0.4401767 0.5
vt 0.414549 0.6899651
vt 0.3700378 0.9167701
vt 0.3445327 0.8290291
vt 0.4587252 0.7406225
vt 0.2488888 0.9812447
vt 0.2488888 0.87993
vt 0.1277397 0.9167701
vt 0.1532448 0.8290291
vt 0.0390525 0.7406225
vt 0.08322851 0.6899651
vt 0.006590633 0.5
vt 0.05760071 0.5
vt 0.0390525 0.2593777
vt 0.08322851 0.310035
vt 0.1277397 0.08322987
vt 0.1532448 0.1709709
vt 0.2488888 0.01875532
vt 0.2488888 0.12007
vt 0.3700378 0.08322987
vt 0.3445327 0.1709709
vt 0.4587252 0.2593777
vt 0.414549 0.310035
vt 0.4911869 0.5
vt 0.4401767 0.5
vt 0.4587252 0.7406225
vt 0.3700378 0.9167701
vt 0.3700378 0.9167701
vt 0.4587252 0.7406225
vt 0.2488888 0.9812447
vt 0.2488888 0.9812447
vt 0.1277397 0.9167701
vt 0.1277397 0.9167701
vt 0.0390525 0.7406225
vt 0.0390525 0.7406225
vt 0.006590633 0.5
vt 0.006590633 0.5
vt 0.0390525 0.2593777
vt 0.0390525 0.2593777
vt 0.1277397 0.08322987
vt 0.1277397 0.08322987
vt 0.2488888 0.01875532
vt 0.2488888 0.01875532
vt 0.3700378 0.08322987
vt 0.3700378 0.08322987
vt 0.4587252 0.2593777
vt 0.4587252 0.2593777
vt 0.4911869 0.5
vt 0.4911869 0.5
vt 0.4587252 0.7406225
vt 0.3224339 0.7530057
vt 0.3700378 0.9167701
vt 0.3762725 0.6460729
vt 0.2488888 0.7921457
vt 0.2488888 0.9812447
vt 0.1753437 0.7530057
vt 0.1277397 0.9167701
vt 0.121505 0.6460729
vt 0.0390525 0.7406225
vt 0.1017986 0.5
vt 0.006590633 0.5
vt 0.121505 0.3539271
vt 0.0390525 0.2593777
vt 0.1753437 0.2469944
vt 0.1277397 0.08322987
vt 0.2488888 0.2078542
vt 0.2488888 0.01875532
vt 0.3224339 0.2469944
vt 0.3700378 0.08322987
vt 0.3762725 0.3539271
vt 0.4587252 0.2593777
vt 0.3959789 0.5
vt 0.4911869 0.5
vt 0.3762725 0.6460729
vt 0.3224339 0.7530057
vt 0.3224339 0.7530057
vt 0.3762725 0.6460729
vt 0.2488888 0.7921457
vt 0.2488888 0.7921457
vt 0.1753437 0.7530057
vt 0.1753437 0.7530057
vt 0.121505 0.6460729
vt 0.121505 0.6460729
vt 0.1017986 0.5
vt 0.1017986 0.5
vt 0.121505 0.3539271
vt 0.121505 0.3539271
vt 0.1753437 0.2469944
vt 0.1753437 0.2469944
vt 0.2488888 0.2078542
vt 0.2488888 0.2078542
vt 0.3224339 0.2469944
vt 0.3224339 0.2469944
vt 0.3762725 0.3539271
vt 0.3762725 0.3539271
vt 0.3959789 0.5
vt 0.3959789 0.5
vt 0.3224339 0.7530057
vt 0.2488888 0.5
vt 0.2488888 0.7921457
vt 0.3762725 0.6460729
vt 0.1753437 0.7530057
vt 0.121505 0.6460729
vt 0.1017986 0.5
vt 0.121505 0.3539271
vt 0.2488888 0.2078542
vt 0.3762725 0.3539271
vt 0.3224339 0.2469944
vt 0.1753437 0.2469944
vt 0.3959789 0.5
vt 0.3445327 0.8290291
vt 0.2488888 0.87993
vt 0.2488887 0.5
vt 0.1532448 0.8290291
vt 0.08322851 0.6899651
vt 0.05760071 0.5
vt 0.08322851 0.310035
vt 0.1532448 0.1709709
vt 0.2488888 0.12007
vt 0.3445327 0.1709709
vt 0.414549 0.310035
vt 0.4401767 0.5
vt 0.414549 0.6899651
vn 0.8660254 0 -0.5000001
vn 0.4999999 0 -0.8660255
vn 0.4999999 0 -0.8660255
vn 0.8660254 0 -0.5000001
vn 0 0 -1
vn 0 0 -1
vn -0.5 0 -0.8660254
vn -0.5 0 -0.8660254
vn -0.8660253 0 -0.5000002
vn -0.8660253 0 -0.5000002
vn -1 0 0
vn -1 0 0
vn -0.8660253 0 0.5000002
vn -0.8660253 0 0.5000002
vn -0.5000001 0 0.8660253
vn -0.5000001 0 0.8660253
vn 0 0 1
vn 0 0 1
vn 0.5000001 0 0.8660253
vn 0.5000001 0 0.8660253
vn 0.8660254 0 0.5
vn 0.8660254 0 0.5
vn 1 0 0
vn 1 0 0
vn 0 -1 0
vn 0 -1 0
vn 0 -1 0
vn 0 -1 0
vn 0 -1 0
vn 0 -1 0
vn 0 -1 0
vn 0 -1 0
vn 0 -1 0
vn 0 -1 0
vn 0 -1 0
vn 0 -1 0
vn 0 -1 0
vn 0 -1 0
vn 0 -1 0
vn 0 -1 0
vn 0 -1 0
vn 0 -1 0
vn 0 -1 0
vn 0 -1 0
vn 0 -1 0
vn 0 -1 0
vn 0 -1 0
vn 0 -1 0
vn 0.8660253 0 -0.5000001
vn 0.5 0 -0.8660254
vn 0.5 0 -0.8660254
vn 0.8660253 0 -0.5000001
vn 0 0 -1
vn 0 0 -1
vn -0.5000001 0 -0.8660253
vn -0.5000001 0 -0.8660253
vn -0.8660253 0 -0.5000002
vn -0.8660253 0 -0.5000002
vn -1 0 0
vn -1 0 0
vn -0.8660253 0 0.5000002
vn -0.8660253 0 0.5000002
vn -0.5000002 0 0.8660253
vn -0.5000002 0 0.8660253
vn 0 0 1
vn 0 0 1
vn 0.5000001 0 0.8660253
vn 0.5000001 0 0.8660253
vn 0.8660253 0 0.5000001
vn 0.8660253 0 0.5000001
vn 1 0 0
vn 1 0 0
vn 0 1 0
vn 0 1 0
vn 0 1 0
vn 0 1 0
vn 0 1 0
vn 0 1 0
vn 0 1 0
vn 0 1 0
vn 0 1 0
vn 0 1 0
vn 0 1 0
vn 0 1 0
vn 0 1 0
vn 0 1 0
vn 0 1 0
vn 0 1 0
vn 0 1 0
vn 0 1 0
vn 0 1 0
vn 0 1 0
vn 0 1 0
vn 0 1 0
vn 0 1 0
vn 0 1 0
vn 0.8660254 0 -0.5
vn 0.5 0 -0.8660254
vn 0.5 0 -0.8660254
vn 0.8660254 0 -0.5
vn 0 0 -1
vn 0 0 -1
vn -0.5000001 0 -0.8660253
vn -0.5000001 0 -0.8660253
vn -0.8660253 0 -0.5000002
vn -0.8660253 0 -0.5000002
vn -1 0 0
vn -1 0 0
vn -0.8660253 0 0.5000002
vn -0.8660253 0 0.5000002
vn -0.5000001 0 0.8660253
vn -0.5000001 0 0.8660253
vn 0 0 1
vn 0 0 1
vn 0.5000001 0 0.8660254
vn 0.5000001 0 0.8660254
vn 0.8660254 0 0.5
vn 0.8660254 0 0.5
vn 1 0 0
vn 1 0 0
vn 0 1 0
vn 0 1 0
vn 0 1 0
vn 0 1 0
vn 0 1 0
vn 0 1 0
vn 0 1 0
vn 0 1 0
vn 0 1 0
vn 0 1 0
vn 0 1 0
vn 0 1 0
vn 0 1 0
vn 0 -1 0
vn 0 -1 0
vn 0 -1 0
vn 0 -1 0
vn 0 -1 0
vn 0 -1 0
vn 0 -1 0
vn 0 -1 0
vn 0 -1 0
vn 0 -1 0
vn 0 -1 0
vn 0 -1 0
vn 0 -1 0
g stud_0
f 3/3/3 2/2/2 1/1/1
f 2/2/2 4/4/4 1/1/1
f 5/5/5 2/2/2 3/3/3
f 6/6/6 5/5/5 3/3/3
f 7/7/7 5/5/5 6/6/6
f 8/8/8 7/7/7 6/6/6
f 9/9/9 7/7/7 8/8/8
f 10/10/10 9/9/9 8/8/8
f 11/11/11 9/9/9 10/10/10
f 12/12/12 11/11/11 10/10/10
f 13/13/13 11/11/11 12/12/12
f 14/14/14 13/13/13 12/12/12
f 15/15/15 13/13/13 14/14/14
f 16/16/16 15/15/15 14/14/14
f 17/17/17 15/15/15 16/16/16
f 18/18/18 17/17/17 16/16/16
f 19/19/19 17/17/17 18/18/18
f 20/20/20 19/19/19 18/18/18
f 21/21/21 19/19/19 20/20/20
f 22/22/22 21/21/21 20/20/20
f 23/23/23 21/21/21 22/22/22
f 24/24/24 23/23/23 22/22/22
f 4/4/4 23/23/23 24/24/24
f 1/1/1 4/4/4 24/24/24
f 27/27/27 26/26/26 25/25/25
f 26/26/26 28/28/28 25/25/25
f 29/29/29 26/26/26 27/27/27
f 30/30/30 29/29/29 27/27/27
f 31/31/31 29/29/29 30/30/30
f 32/32/32 31/31/31 30/30/30
f 33/33/33 31/31/31 32/32/32
f 34/34/34 33/33/33 32/32/32
f 35/35/35 33/33/33 34/34/34
f 36/36/36 35/35/35 34/34/34
f 37/37/37 35/35/35 36/36/36
f 38/38/38 37/37/37 36/36/36
f 39/39/39 37/37/37 38/38/38
f 40/40/40 39/39/39 38/38/38
f 41/41/41 39/39/39 40/40/40
f 42/42/42 41/41/41 40/40/40
f 43/43/43 41/41/41 42/42/42
f 44/44/44 43/43/43 42/42/42
f 45/45/45 43/43/43 44/44/44
f 46/46/46 45/45/45 44/44/44
f 47/47/47 45/45/45 46/46/46
f 48/48/48 47/47/47 46/46/46
f 28/28/28 47/47/47 48/48/48
f 25/25/25 28/28/28 48/48/48
f 51/51/51 50/50/50 49/49/49
f 50/50/50 52/52/52 49/49/49
f 53/53/53 50/50/50 51/51/51
f 54/54/54 53/53/53 51/51/51
f 55/55/55 53/53/53 54/54/54
f 56/56/56 55/55/55 54/54/54
f 57/57/57 55/55/55 56/56/56
f 58/58/58 57/57/57 56/56/56
f 59/59/59 57/57/57 58/58/58
f 60/60/60 59/59/59 58/58/58
f 61/61/61 59/59/59 60/60/60
f 62/62/62 61/61/61 60/60/60
f 63/63/63 61/61/61 62/62/62
f 64/64/64 63/63/63 62/62/62
f 65/65/65 63/63/63 64/64/64
f 66/66/66 65/65/65 64/64/64
f 67/67/67 65/65/65 66/66/66
f 68/68/68 67/67/67 66/66/66
f 69/69/69 67/67/67 68/68/68
f 70/70/70 69/69/69 68/68/68
f 71/71/71 69/69/69 70/70/70
f 72/72/72 71/71/71 70/70/70
f 52/52/52 71/71/71 72/72/72
f 49/49/49 52/52/52 72/72/72
f 75/75/75 74/74/74 73/73/73
f 74/74/74 76/76/76 73/73/73
f 77/77/77 74/74/74 75/75/75
f 78/78/78 77/77/77 75/75/75
f 79/79/79 77/77/77 78/78/78
f 80/80/80 79/79/79 78/78/78
f 81/81/81 79/79/79 80/80/80
f 82/82/82 81/81/81 80/80/80
f 83/83/83 81/81/81 82/82/82
f 84/84/84 83/83/83 82/82/82
f 85/85/85 83/83/83 84/84/84
f 86/86/86 85/85/85 84/84/84
f 87/87/87 85/85/85 86/86/86
f 88/88/88 87/87/87 86/86/86
f 89/89/89 87/87/87 88/88/88
f 90/90/90 89/89/89 88/88/88
f 91/91/91 89/89/89 90/90/90
f 92/92/92 91/91/91 90/90/90
f 93/93/93 91/91/91 92/92/92
f 94/94/94 93/93/93 92/92/92
f 95/95/95 93/93/93 94/94/94
f 96/96/96 95/95/95 94/94/94
f 76/76/76 95/95/95 96/96/96
f 73/73/73 76/76/76 96/96/96
f 99/99/99 98/98/98 97/97/97
f 98/98/98 100/100/100 97/97/97
f 101/101/101 98/98/98 99/99/99
f 102/102/102 101/101/101 99/99/99
f 103/103/103 101/101/101 102/102/102
f 104/104/104 103/103/103 102/102/102
f 105/105/105 103/103/103 104/104/104
f 106/106/106 105/105/105 104/104/104
f 107/107/107 105/105/105 106/106/106
f 108/108/108 107/107/107 106/106/106
f 109/109/109 107/107/107 108/108/108
f 110/110/110 109/109/109 108/108/108
f 111/111/111 109/109/109 110/110/110
f 112/112/112 111/111/111 110/110/110
f 113/113/113 111/111/111 112/112/112
f 114/114/114 113/113/113 112/112/112
f 115/115/115 113/113/113 114/114/114
f 116/116/116 115/115/115 114/114/114
f 117/117/117 115/115/115 116/116/116
f 118/118/118 117/117/117 116/116/116
f 119/119/119 117/117/117 118/118/118
f 120/120/120 119/119/119 118/118/118
f 100/100/100 119/119/119 120/120/120
f 97/97/97 100/100/100 120/120/120
f 123/123/123 122/122/122 121/121/121
f 122/122/122 124/124/124 121/121/121
f 123/123/123 125/125/125 122/122/122
f 125/125/125 126/126/126 122/122/122
f 126/126/126 127/127/127 122/122/122
f 127/127/127 128/128/128 122/122/122
f 122/122/122 128/128/128 129/129/129
f 122/122/122 129/129/129 130/130/130
f 129/129/129 131/131/131 130/130/130
f 128/128/128 132/132/132 129/129/129
f 124/124/124 122/122/122 133/133/133
f 122/122/122 130/130/130 133/133/133
f 136/136/136 135/135/135 134/134/134
f 136/136/136 137/137/137 135/135/135
f 136/136/136 138/138/138 137/137/137
f 136/136/136 139/139/139 138/138/138
f 136/136/136 140/140/140 139/139/139
f 136/136/136 141/141/141 140/140/140
f 136/136/136 142/142/142 141/141/141
f 143/143/143 142/142/142 136/136/136
f 144/144/144 143/143/143 136/136/136
f 145/145/145 144/144/144 136/136/136
f 145/145/145 136/136/136 146/146/146
f 136/136/136 134/134/134 146/146/146
