g Swamp_Straight1b_Collisions
v 69163.87 620.8438 170489.9
v 69111.72 581.7344 169730
v 69450.95 578.8047 170346.2
v 68859.49 623.5 169930.6
v 69703.17 575.875 171090.6
v 69391.62 618.1797 171172.8
v 68259.79 937.1875 171427.5
v 68285.87 968.3203 172066.8
v 69459.73 607.0078 171931.9
v 69123.7 612.3281 174095.5
v 67824.52 904.9922 173218.9
v 68352.65 589.1797 175302.6
v 68887.96 596.8984 175338.3
v 67468.52 591.5781 175631.8
v 69090.7 594.7656 175954.8
v 66900.48 606.7422 176471.2
v 69119.97 592.375 176513.2
v 68879.98 589.1797 177236.1
v 67470.39 585.1875 177379.8
v 67891.3 585.4531 177716.6
v 68425.55 587.0547 177627.2
v 67206.19 904.9922 174177.5
v 66520.55 904.9922 174445.7
v 69776.34 572.4219 172127.2
v 69739.36 604.3438 172669.4
v 69960.98 572.4219 171871.5
v 70697.45 575.875 170980.2
v 70773.27 572.4219 171948.9
v 71040.93 621.375 171781.1
v 71014.05 616.3203 170945.4
v 71462.11 860.8281 171759
v 71720.98 816.3984 170867.1
v 70905.24 619.2422 170098.2
v 71794.95 829.4375 169970.5
v 71480.2 895.4141 169100.8
v 70722.98 621.6406 169248.4
v 70588.89 578.5391 170149
v 70428.19 580.6641 169315.2
v 63563.01 1183.828 204246.7
v 67637.2 985.875 200339
v 67065.7 1183.828 204246.7
v 63563.01 1183.828 204246.7
v 67884.64 993.3281 198661.2
v 67637.2 985.875 200339
v 68919.36 994.125 198819.8
v 68370.2 1099.219 195631.3
v 67065.7 1183.828 204246.7
v 68647.98 985.875 200486.7
v 68078.34 1183.297 204384.8
v 68370.2 1099.219 195631.3
v 69455.47 1104.805 195783.8
v 68443.91 762.3828 191863.9
v 70568.94 762.3828 192135.5
v 65546.5 728.0625 189871.1
v 73160.11 726.4688 190692.2
v 68443.91 762.3828 191863.9
v 70568.94 762.3828 192135.5
v 68370.2 1099.219 195631.3
v 69455.47 1104.805 195783.8
v 67884.64 993.3281 198661.2
v 68919.36 994.125 198819.8
v 73097.85 932.3984 200357.6
v 73160.11 726.4688 190692.2
v 71726.57 1171.852 204395.4
v 68647.98 985.875 200486.7
v 67637.2 985.875 200339
v 63563.01 1183.828 204246.7
v 65546.5 728.0625 189871.1
v 71726.57 1171.852 204395.4
v 68078.34 1183.297 204384.8
v 68153.1 937.9844 170969
v 67675.52 1168.133 170821.4
v 67762.52 1166.266 171132.1
v 70298.88 724.0703 188967.8
v 70893.53 778.8828 191118.1
v 69589.3 775.9531 190799.1
v 71645.42 722.2109 189179.6
v 71645.42 722.2109 189179.6
v 70758.11 585.9844 185056.5
v 72134.18 576.1406 185127.2
v 70298.88 724.0703 188967.8
v 68221.21 1013.016 189062.5
v 69561.09 561.7734 190193.8
v 68365.41 576.6797 190290.7
v 69424.88 997.3203 188958.3
v 67985.48 852.5781 187079.6
v 69193.93 837.6797 187002.7
v 67777.69 752.2734 182839.6
v 69193.93 837.6797 187002.7
v 67985.48 852.5781 187079.6
v 68985.61 736.5781 182988.6
v 68956.07 329.2422 176992.7
v 69641.45 406.9297 179152.8
v 68452.95 407.7266 178952.8
v 70121.42 328.1719 177308.8
v 69383.63 529.3203 181169.6
v 68197.27 526.125 180944.8
v 67914.18 673.2578 182181.1
v 69240.76 609.1328 181875.4
v 68985.61 736.5781 182988.6
v 67777.69 752.2734 182839.6
v 72134.18 576.1406 185127.2
v 70559.63 394.4219 179264.3
v 71937.82 382.1875 179150.4
v 70758.11 585.9844 185056.5
v 70121.42 328.1719 177308.8
v 71438.7 297.3125 177075.2
v 69685.08 219.3516 171789
v 70312.98 257.1328 175171.2
v 69578.66 259.5313 175139.5
v 70323.09 213.2344 171801.5
v 70121.42 328.1719 177308.8
v 68956.07 329.2422 176992.7
v 70917.48 253.6797 175176.8
v 71438.7 297.3125 177075.2
v 70814.52 207.1172 171813.5
v 68266.45 576.9453 177328.2
v 68956.07 329.2422 176992.7
v 68452.95 407.7266 178952.8
v 71480.2 895.4141 169100.8
v 72370.17 1336.281 169970.5
v 71794.95 829.4375 169970.5
v 71889.13 1263.914 168995.7
v 69455.47 1104.805 195783.8
v 70568.94 762.3828 192135.5
v 73160.11 726.4688 190692.2
v 65546.5 728.0625 189871.1
v 68443.91 762.3828 191863.9
v 68370.2 1099.219 195631.3
v 68078.34 1183.297 204384.8
v 66683.38 1173.453 205639.8
v 67065.7 1183.828 204246.7
v 68041.88 1172.922 205825
vt -15.43929 1.359396
vt -14.74867 1.055485
vt -15.45088 1.07807
vt -14.70666 1.342936
vt -16.06942 0.9999752
vt -16.12893 1.368004
vt -16.20507 3.088047
vt -17.36795 3.210533
vt -16.97619 1.405754
vt -19.34649 1.120049
vt -19.55124 3.378399
vt -21.92929 0.9939632
vt -21.35457 0.3456535
vt -23.36688 0.9939632
vt -21.82009 -0.4274693
vt -24.71169 0.993948
vt -22.4599 -1.148975
vt -23.62283 -1.285622
vt -25.36494 -0.1616135
vt -25.29014 -1.046049
vt -24.57755 -1.582991
vt -21.8028 3.176088
vt -22.79746 3.485233
vt -16.93658 0.9999752
vt -18.15296 1.002319
vt -16.85197 0.5472946
vt -16.06942 -1.144409E-05
vt -16.79493 0.06347656
vt -16.69799 -0.1951942
vt -16.06445 -0.2029781
vt -16.6564 -0.5174503
vt -16.07211 -0.6615868
vt -15.50407 -0.2120457
vt -15.53156 -0.7951641
vt -14.96003 -0.7317715
vt -14.93297 -0.2059631
vt -15.49099 0.1053009
vt -14.89342 0.06477547
vt 0.1251526 0.2228203
vt 2.251308 -1.144409E-05
vt 0.08073425 0.002262115
vt 0.1251526 0.2228203
vt 1.953493 -0.07025337
vt 2.251308 -1.144409E-05
vt 0.594923 0.953228
vt 1.422077 -0.195612
vt 3.126968 -1.144409E-05
vt 0.5794659 0.8535786
vt 3.418856 0.9999752
vt 1.422077 -0.195612
vt 0.622963 1.134083
vt 0.6693764 -0.3731594
vt 0.6628609 1.391371
vt 0.09143448 -0.5094986
vt 0.6874428 1.549864
vt 0.6693764 -0.3731594
vt 0.6628609 1.391371
vt 1.422077 -0.195612
vt 0.622963 1.134083
vt 1.953493 -0.07025337
vt 0.594923 0.953228
vt 0.5660591 1.010368
vt 0.6874428 1.549864
vt 0.5068951 0.7474575
vt 0.5794659 0.8535786
vt 2.251308 -1.144409E-05
vt 0.1251526 0.2228203
vt 0.09143448 -0.5094986
vt 0.5068951 0.7474575
vt 0.5300522 0.9120731
vt -15.4042 2.983084
vt -14.70841 3.303192
vt -15.35224 3.891401
vt -1.144409E-05 -1.144409E-05
vt 0.9999752 0.4205685
vt 0.9894981 -1.144409E-05
vt 0.002401352 0.4324398
vt 0.9740829 0.2044621
vt 0.0003643036 0.0004634857
vt -1.144409E-05 0.2066383
vt 0.9470196 0.00440979
vt 0.6055393 -1.144409E-05
vt 0.9999752 0.4205685
vt 0.9894981 -1.144409E-05
vt 0.6128769 0.4251728
vt -1.144409E-05 -1.144409E-05
vt 0.002401352 0.4324398
vt -1.144409E-05 -1.144409E-05
vt 0.9736919 0.2342167
vt 0.9892616 0.03779411
vt 0.03882599 0.2000523
vt -1.144409E-05 0.00123024
vt 0.333643 0.1422844
vt 0.3356514 0.0006160736
vt 0.01859856 0.1465244
vt 0.6731281 0.1851807
vt 0.6687202 0.04262161
vt 0.8849125 0.04845238
vt 0.7944431 0.191473
vt 0.9870434 0.1965103
vt 0.9982872 0.0537262
vt 0.9898472 0.2031631
vt 0.4899445 0.1245518
vt 0.5095863 0.3366985
vt 0.9455261 0.001382828
vt -1.144409E-05 0.1292686
vt 0.008205414 0.3436031
vt -1.144409E-05 0.1671715
vt 0.476162 0.2691498
vt 0.4709015 0.1647587
vt 0.0005741119 0.2720375
vt 0.9515953 0.241806
vt 0.919384 0.0005054474
vt 0.481226 0.368227
vt 0.9491673 0.4834442
vt 0.001132965 0.3723984
vt 0.1053715 -1.144409E-05
vt -1.144409E-05 0.431757
vt 0.9999752 -1.144409E-05
vt -1.144409E-05 -1.144409E-05
vt 0.9999752 0.9999752
vt 0.9999752 -1.144409E-05
vt -1.144409E-05 0.9999752
vt 0.622963 1.134083
vt 0.6628609 1.391371
vt 0.6874428 1.549864
vt 0.09143448 -0.5094986
vt 0.6693764 -0.3731594
vt 1.422077 -0.195612
vt -1.144409E-05 -1.144409E-05
vt 0.9999752 0.9999752
vt 0.9999752 -1.144409E-05
vt -1.144409E-05 0.9999752
vn 0.2206623 0.9713404 -0.08835158
vn 0.06020036 0.9942635 -0.0884079
vn 0.04873881 0.9942635 -0.09520796
vn 0.2206623 0.9656096 -0.1375006
vn 0.07166192 0.9942635 -0.07940165
vn 0.1977391 0.9770712 -0.07893788
vn 0.2722393 0.9598788 -0.06721985
vn 0.255047 0.9656096 0.0504905
vn 0.2034699 0.9770712 0.06270518
vn 0.09458506 0.9942635 0.04993676
vn 0.1576236 0.9770712 0.1431318
vn 0.08312351 0.9942635 0.06730935
vn -0.008569032 0.9942635 -0.1066143
vn 0.03154644 0.9942635 0.1022002
vn 0.002892554 0.9999943 -0.001760523
vn 0.008623332 0.9942635 0.1066098
vn 0.008623332 0.9942635 0.1066098
vn 0.002892554 0.9942635 0.1069191
vn 0.002892554 0.9942635 0.1069191
vn 0.002892554 0.9999943 0.001760523
vn 0.002892554 0.9942635 0.1069191
vn 0.1117774 0.9770712 0.1812119
vn 0.08312351 0.9770712 0.1960165
vn 0.04300803 0.9942635 -0.09793022
vn -0.140377 0.9828019 -0.1199779
vn 0.002892554 0.9942635 0.1069191
vn -0.06014603 0.9942635 0.08844498
vn -0.08306921 0.9942635 0.06737618
vn -0.2664542 0.9598788 0.08737779
vn -0.2378003 0.9656096 -0.1051155
vn -0.3868006 0.9140326 -0.1221874
vn -0.2607234 0.9598788 -0.1032279
vn -0.1976848 0.9770712 0.07907367
vn -0.3696083 0.9140326 0.1671353
vn -0.45557 0.8624555 0.2205141
vn -0.2263387 0.9713404 0.07258494
vn -0.06014603 0.9942635 0.08844498
vn -0.08306921 0.9942635 0.06737618
vn 0.03154644 0.9942635 -0.1022002
vn 0.01435411 0.9942635 -0.1059905
vn 0.008623332 0.9942635 -0.1066098
vn 0.03154644 0.9942635 -0.1022002
vn 0.03154644 0.9942635 0.1022002
vn 0.01435411 0.9942635 -0.1059905
vn -0.002838224 0.9942635 0.1069205
vn 0.02008489 0.9942635 -0.1050554
vn 0.008623332 0.9942635 -0.1066098
vn -0.002838224 0.9942635 -0.1069205
vn 0.002892554 0.9942635 -0.1069191
vn 0.02008489 0.9942635 -0.1050554
vn 0.008623332 0.9942635 -0.1066098
vn 0.02008489 0.9942635 -0.1050554
vn -0.002838224 0.9942635 -0.1069205
vn 0.002892554 0.9942635 -0.1069191
vn 0.008623332 0.9942635 -0.1066098
vn 0.02008489 0.9942635 -0.1050554
vn -0.002838224 0.9942635 -0.1069205
vn 0.02008489 0.9942635 -0.1050554
vn 0.008623332 0.9942635 -0.1066098
vn 0.03154644 0.9942635 0.1022002
vn -0.002838224 0.9942635 0.1069205
vn 0.03727725 0.9942635 -0.1002518
vn 0.008623332 0.9942635 -0.1066098
vn -0.002838224 0.9942635 -0.1069205
vn -0.002838224 0.9942635 -0.1069205
vn 0.01435411 0.9942635 -0.1059905
vn 0.03154644 0.9942635 -0.1022002
vn 0.002892554 0.9942635 -0.1069191
vn -0.002838224 0.9942635 -0.1069205
vn 0.002892554 0.9942635 -0.1069191
vn 0.3753934 0.9254941 0.05040366
vn 0.3925857 0.9140326 -0.1020829
vn 0.4613551 0.8739171 -0.153037
vn 0.008623332 0.9942635 -0.1066098
vn 0.008623332 0.9942635 -0.1066098
vn 0.008623332 0.9942635 -0.1066098
vn 0.008623332 0.9942635 -0.1066098
vn 0.008623332 0.9942635 -0.1066098
vn 0.008623332 0.9942635 -0.1066098
vn 0.008623332 0.9942635 -0.1066098
vn 0.008623332 0.9942635 -0.1066098
vn 0.03154644 0.9770712 0.210563
vn 0.04300803 0.9426864 0.3308966
vn 0.04300803 0.9426864 0.3308966
vn 0.02008489 0.9942635 0.1050554
vn 0.008623332 0.9942635 -0.1066098
vn 0.01435411 0.9942635 -0.1059905
vn 0.02008489 0.9942635 -0.1050554
vn 0.01435411 0.9942635 -0.1059905
vn 0.008623332 0.9942635 -0.1066098
vn 0.02581567 0.9942635 -0.103796
vn 0.1003158 0.9942635 -0.03710455
vn 0.01435411 0.9942635 -0.1059905
vn 0.1003158 0.9942635 -0.03710455
vn 0.01435411 0.9942635 -0.1059905
vn 0.02008489 0.9942635 -0.1050554
vn 0.01435411 0.9942635 -0.1059905
vn 0.02581567 0.9885327 -0.1487842
vn 0.02581567 0.9885327 -0.1487842
vn 0.02581567 0.9942635 -0.103796
vn 0.02008489 0.9942635 -0.1050554
vn 0.008623332 0.9942635 -0.1066098
vn 0.008623332 0.9942635 -0.1066098
vn 0.01435411 0.9942635 -0.1059905
vn 0.008623332 0.9942635 -0.1066098
vn 0.01435411 0.9942635 -0.1059905
vn 0.02008489 0.9942635 -0.1050554
vn 0.008623332 0.9942635 -0.1066098
vn 0.008623332 0.9942635 -0.1066098
vn 0.008623332 0.9942635 -0.1066098
vn 0.01435411 0.9942635 -0.1059905
vn 0.01435411 0.9942635 -0.1059905
vn 0.1003158 0.9942635 -0.03710455
vn 0.01435411 0.9942635 -0.1059905
vn 0.02008489 0.9942635 -0.1050554
vn 0.01435411 0.9942635 -0.1059905
vn 0.3696626 0.9254941 0.08252423
vn 0.1003158 0.9942635 -0.03710455
vn 0.1003158 0.9942635 -0.03710455
vn -0.45557 0.8624555 0.2205141
vn -0.6217626 0.7306476 0.2820733
vn -0.3696083 0.9140326 0.1671353
vn -0.6103011 0.7478399 0.2612813
vn 0.008623332 0.9942635 -0.1066098
vn -0.002838224 0.9942635 -0.1069205
vn 0.008623332 0.9942635 -0.1066098
vn 0.002892554 0.9942635 -0.1069191
vn 0.02008489 0.9942635 -0.1050554
vn 0.02008489 0.9942635 -0.1050554
vn 0.002892554 0.9942635 -0.1069191
vn 0.002892554 0.9942635 0.1069191
vn 0.008623332 0.9942635 -0.1066098
vn 0.002892554 0.9942635 0.1069191
g Swamp_Straight1b_Collisions_0
f 3/3/3 2/2/2 1/1/1
f 2/2/2 4/4/4 1/1/1
f 5/5/5 3/3/3 1/1/1
f 6/6/6 5/5/5 1/1/1
f 6/6/6 1/1/1 7/7/7
f 6/6/6 7/7/7 8/8/8
f 9/9/9 6/6/6 8/8/8
f 10/10/10 9/9/9 8/8/8
f 11/11/11 10/10/10 8/8/8
f 12/12/12 10/10/10 11/11/11
f 13/13/13 10/10/10 12/12/12
f 13/13/13 12/12/12 14/14/14
f 15/15/15 13/13/13 14/14/14
f 15/15/15 14/14/14 16/16/16
f 17/17/17 15/15/15 16/16/16
f 18/18/18 17/17/17 16/16/16
f 19/19/19 18/18/18 16/16/16
f 19/19/19 20/20/20 18/18/18
f 20/20/20 21/21/21 18/18/18
f 22/22/22 12/12/12 11/11/11
f 14/14/14 12/12/12 22/22/22
f 23/23/23 14/14/14 22/22/22
f 24/24/24 9/9/9 10/10/10
f 25/25/25 24/24/24 10/10/10
f 5/5/5 6/6/6 24/24/24
f 6/6/6 9/9/9 24/24/24
f 5/5/5 24/24/24 26/26/26
f 5/5/5 26/26/26 27/27/27
f 26/26/26 28/28/28 27/27/27
f 28/28/28 29/29/29 27/27/27
f 29/29/29 30/30/30 27/27/27
f 29/29/29 31/31/31 30/30/30
f 31/31/31 32/32/32 30/30/30
f 30/30/30 32/32/32 33/33/33
f 32/32/32 34/34/34 33/33/33
f 33/33/33 34/34/34 35/35/35
f 36/36/36 33/33/33 35/35/35
f 5/5/5 27/27/27 3/3/3
f 27/27/27 37/37/37 3/3/3
f 27/27/27 30/30/30 37/37/37
f 30/30/30 33/33/33 37/37/37
f 3/3/3 37/37/37 2/2/2
f 37/37/37 38/38/38 2/2/2
f 37/37/37 33/33/33 38/38/38
f 33/33/33 36/36/36 38/38/38
f 41/41/41 40/40/40 39/39/39
f 44/44/44 43/43/43 42/42/42
f 45/45/45 43/43/43 44/44/44
f 43/43/43 46/46/46 42/42/42
f 48/48/48 44/44/44 47/47/47
f 49/49/49 48/48/48 47/47/47
f 51/51/51 50/50/50 43/43/43
f 53/53/53 52/52/52 50/50/50
f 55/55/55 54/54/54 52/52/52
f 57/57/57 55/55/55 56/56/56
f 59/59/59 57/57/57 58/58/58
f 61/61/61 59/59/59 60/60/60
f 59/59/59 61/61/61 62/62/62
f 63/63/63 59/59/59 62/62/62
f 62/62/62 61/61/61 64/64/64
f 61/61/61 65/65/65 64/64/64
f 65/65/65 61/61/61 66/66/66
f 58/58/58 68/68/68 67/67/67
f 65/65/65 70/70/70 69/69/69
f 1/1/1 71/71/71 7/7/7
f 72/72/72 71/71/71 1/1/1
f 4/4/4 72/72/72 1/1/1
f 72/72/72 73/73/73 71/71/71
f 76/76/76 75/75/75 74/74/74
f 75/75/75 77/77/77 74/74/74
f 80/80/80 79/79/79 78/78/78
f 79/79/79 81/81/81 78/78/78
f 84/84/84 83/83/83 82/82/82
f 83/83/83 85/85/85 82/82/82
f 82/82/82 85/85/85 86/86/86
f 85/85/85 87/87/87 86/86/86
f 90/90/90 89/89/89 88/88/88
f 89/89/89 91/91/91 88/88/88
f 94/94/94 93/93/93 92/92/92
f 93/93/93 95/95/95 92/92/92
f 96/96/96 93/93/93 94/94/94
f 97/97/97 96/96/96 94/94/94
f 96/96/96 97/97/97 98/98/98
f 98/98/98 99/99/99 96/96/96
f 98/98/98 100/100/100 99/99/99
f 98/98/98 101/101/101 100/100/100
f 104/104/104 103/103/103 102/102/102
f 103/103/103 105/105/105 102/102/102
f 103/103/103 104/104/104 106/106/106
f 104/104/104 107/107/107 106/106/106
f 110/110/110 109/109/109 108/108/108
f 109/109/109 111/111/111 108/108/108
f 110/110/110 112/112/112 109/109/109
f 110/110/110 113/113/113 112/112/112
f 109/109/109 112/112/112 114/114/114
f 109/109/109 114/114/114 111/111/111
f 112/112/112 115/115/115 114/114/114
f 114/114/114 116/116/116 111/111/111
f 119/119/119 118/118/118 117/117/117
f 122/122/122 121/121/121 120/120/120
f 121/121/121 123/123/123 120/120/120
f 126/126/126 125/125/125 124/124/124
f 129/129/129 128/128/128 127/127/127
f 132/132/132 131/131/131 130/130/130
f 131/131/131 133/133/133 130/130/130
