g Swamp_Straight5_Collisions
v -54074.47 -150.8619 184765.9
v -51772.82 -147.503 188097
v -52860.25 -147.503 188438.4
v -52973.82 -150.8619 184429.4
v -51349.4 -106.5672 190025.6
v -52423.18 -106.1473 190371.8
v -52415.83 -141.4151 190712.5
v -51086.78 -173.9539 190332.1
v -51621.46 -136.7967 192152.4
v -50585.26 -136.7967 191648
v -50634.18 -221.8174 193982.3
v -51621.46 -136.7967 192152.4
v -49621.91 -220.3479 193440.5
v -48960.42 -215.7295 195319.6
v -50022.45 -209.2217 195737.8
v -48960.42 -215.7295 195319.6
v -49358.23 -25.32521 197612
v -50022.45 -209.2217 195737.8
v -48299.36 -32.04289 197176.6
v -48299.36 -32.04289 197176.6
v -48340.51 14.56102 199255.9
v -49358.23 -25.32521 197612
v -47341.25 14.56102 198708
v -46424.71 114.6965 200454.2
v -47409.9 115.3262 201003.4
v -46424.71 114.6965 200454.2
v -45834.18 219.0304 202283.5
v -47409.9 115.3262 201003.4
v -45235.68 213.7822 201689
v -45235.68 213.7822 201689
v -44524.45 354.4337 203940.9
v -45834.18 219.0304 202283.5
v -43508.82 350.8649 203326
v -42747.41 397.4688 205253.6
v -43854.98 391.8008 205578.3
v -42043.1 664.2867 207149.8
v -43320.51 656.5193 207451.9
v -51086.78 -173.9539 190332.1
v -50585.26 -136.7967 191648
v -51621.46 -136.7967 192152.4
v -47905.33 139.4679 219902.9
v -48158.92 131.9105 219696.6
v -46457.88 147.2352 218230.4
v -39554.2 593.751 212455.8
v -39732.85 640.3549 214443.6
v -39555.04 508.3105 212471.7
v -39730.96 726.4252 214434.3
v -39480.3 396.4192 211081.6
v -39480.94 310.3489 211095
v -40906.34 679.6114 215786
v -40853.65 762.9526 215820.3
v -40906.34 679.6114 215786
v -41668.8 664.7065 216692.1
v -41650.75 753.086 216728
v -43583.55 517.7573 218066.3
v -43581.24 602.568 218061.5
v -43583.55 517.7573 218066.3
v -44816.24 262.6954 218081.2
v -44813.93 344.777 218076.4
v -46457.88 147.2352 218230.4
v -46457.04 233.3055 218225.2
v -45529.16 57.38625 203651.2
v -44557.4 102.3107 205583.8
v -45801.02 117.4255 205116.5
v -45071.93 87.19594 204298.8
v -46936.09 -47.3676 201708.3
v -46568.3 54.44725 203689.2
v -45955.52 -57.86397 201390.1
v -45801.02 117.4255 205116.5
v -46831.55 113.2269 205073.5
v -45557.5 284.9477 207103.5
v -46560.32 285.1576 207348
v -47900.5 285.1576 207274.5
v -48272.28 93.28383 205699
v -44922.68 143.6665 208943
v -44614.92 108.3986 206893.1
v -45795.35 142.8267 209492.4
v -43990.6 141.987 211071.9
v -44978.1 143.6665 211384.3
v -44899.16 145.3459 212020.4
v -45992.47 83.41725 211997.3
v -47231.46 91.81435 210368.9
v -44978.1 143.6665 211384.3
v -44026.29 93.49376 209047.2
v -44922.68 143.6665 208943
v -43990.6 141.987 211071.9
v -43877.66 144.0863 211869.8
v -45011.48 147.865 213302.6
v -43877.66 144.0863 211869.8
v -43990.39 147.4451 213453.5
v -44391.14 148.4948 214890.1
v -45360.17 148.9146 214589
v -44825.69 149.1246 216384.1
v -45820.96 149.1246 215824.5
v -46707.69 148.4948 217989.7
v -47226.42 148.4948 217494.9
v -46859.47 129.8112 215603
v -47695.82 144.2962 217109.2
v -43877.66 144.0863 211869.8
v -42864.97 144.926 212573.5
v -44557.4 102.3107 205583.8
v -45557.5 284.9477 207103.5
v -45801.02 117.4255 205116.5
v -44557.4 102.3107 205583.8
v -44614.92 108.3986 206893.1
v -45557.5 284.9477 207103.5
v -44026.29 93.49376 209047.2
v -44922.68 143.6665 208943
v -44677.48 111.9674 208329.6
v -43877.66 144.0863 211869.8
v -42422.65 140.9374 210608
v -42864.97 144.926 212573.5
v -43877.66 144.0863 211869.8
v -43990.6 141.987 211071.9
v -42422.65 140.9374 210608
v -43990.39 147.4451 213453.5
v -42864.97 144.926 212573.5
v -43611.05 147.0253 213758.4
v -44391.14 148.4948 214890.1
v -47482.54 65.15355 203884
v -46831.55 113.2269 205073.5
v -48272.28 93.28383 205699
v -47482.54 65.15355 203884
v -46831.55 113.2269 205073.5
v -47231.46 91.81435 210368.9
v -44978.1 143.6665 211384.3
v -45992.47 83.41725 211997.3
v -45011.48 147.865 213302.6
v -45992.47 83.41725 211997.3
v -44899.16 145.3459 212020.4
v -45011.48 147.865 213302.6
v -46008.21 93.91362 212909.2
v -46362.15 118.4751 214737
v -45820.96 149.1246 215824.5
v -46859.47 129.8112 215603
v -45360.17 148.9146 214589
v -46501.12 -131.1287 199607.4
v -46936.09 -47.3676 201708.3
v -47432.99 -121.6819 199938.2
v -45955.52 -57.86397 201390.1
v -40918.52 115.7461 208575
v -41421.51 140.9374 210523.8
v -41688.74 139.6778 208353.8
v -40411.34 232.4658 210842.9
v -43320.51 656.5193 207451.9
v -43078.67 139.6778 208761.7
v -42043.1 664.2867 207149.8
v -41421.51 140.9374 210523.8
v -41388.34 198.2476 213387
v -41961.65 144.926 213011.4
v -40411.34 232.4658 210842.9
v -42340.99 248.0004 214787.2
v -42782.46 147.0253 214318
v -43036.48 218.4007 215460.5
v -43652.82 148.4948 215488.4
v -44825.69 149.1246 216384.1
v -44324.59 191.1101 216755.3
v -46707.69 148.4948 217989.7
v -44816.24 262.6954 218081.2
v -46457.88 147.2352 218230.4
v -42864.97 144.926 212573.5
v -42422.65 140.9374 210608
v -43611.05 147.0253 213758.4
v -44391.14 148.4948 214890.1
v -41729.26 364.5102 215265
v -42408.16 396.6291 215975.4
v -43902.01 311.8184 217350.2
v -40906.34 679.6114 215786
v -39732.85 640.3549 214443.6
v -40713.21 401.2475 213828.3
v -39480.94 310.3489 211095
v -41668.8 664.7065 216692.1
v -43583.55 517.7573 218066.3
v -39480.94 310.3489 211095
v -39266.81 239.8132 210043.5
v -40918.52 115.7461 208575
v -39266.81 239.8132 210043.5
v -42422.65 140.9374 210608
v -44026.29 93.49376 209047.2
v -43078.67 139.6778 208761.7
v -42422.65 140.9374 210608
v -43990.6 141.987 211071.9
v -44026.29 93.49376 209047.2
v -41421.51 140.9374 210523.8
v -43078.67 139.6778 208761.7
v -41421.51 140.9374 210523.8
v -43078.67 139.6778 208761.7
v -41688.74 139.6778 208353.8
v -47525.57 -38.55064 201977.2
v -46568.3 54.44725 203689.2
v -47482.54 65.15355 203884
v -47525.57 -38.55064 201977.2
v -46568.3 54.44725 203689.2
v -39480.94 310.3489 211095
v -39555.04 508.3105 212471.7
v -39732.85 640.3549 214443.6
v -48158.92 131.9105 219696.6
v -46707.69 148.4948 217989.7
v -46457.88 147.2352 218230.4
v -47226.42 148.4948 217494.9
v -49119.55 143.0367 218791
v -47695.82 144.2962 217109.2
v -45011.89 87.19594 201824.6
v -45529.16 57.38625 203651.2
v -45955.52 -57.86397 201390.1
v -45071.93 87.19594 204298.8
v -46936.09 -47.3676 201708.3
v -47847.6 -38.55064 200991.8
v -47432.99 -121.6819 199938.2
v -47525.57 -38.55064 201977.2
v -45360.17 148.9146 214589
v -46008.21 93.91362 212909.2
v -45011.48 147.865 213302.6
v -46362.15 118.4751 214737
v -44614.92 108.3986 206893.1
v -44677.48 111.9674 208329.6
v -44922.68 143.6665 208943
vt -1.239777E-05 -1.239777E-05
vt 0.2272806 0.4820757
vt 0.02103424 0.4840403
vt 0.2090893 -1.239777E-05
vt 0.2058907 0.9639616
vt 0.002497673 0.9678984
vt 0.005923271 0.9999924
vt 0.2126904 0.9681082
vt 0.0591135 0.9999924
vt 0.004227638 0.001918793
vt 0.5145969 0.2117834
vt -1.239777E-05 0.2136641
vt 0.5078726 0.0009527206
vt 0.995451 0.07591152
vt 0.9693594 0.2831326
vt -1.239777E-05 -1.239777E-05
vt 0.9999924 0.4205914
vt 0.002363205 0.4324446
vt 0.9895325 -1.239777E-05
vt 0.05028152 0.004025459
vt 0.4989328 0.2188606
vt 0.004654884 0.2136393
vt 0.5048084 0.006527901
vt 0.9999924 0.04675579
vt 0.9962568 0.256218
vt 0.1175165 0.001255035
vt 0.9631224 0.4072094
vt -1.239777E-05 0.4196758
vt 0.976285 0.0006170273
vt -1.239777E-05 -1.239777E-05
vt 0.3623133 0.1475286
vt 0.0006513596 0.1419716
vt 0.3621454 0.00274086
vt 0.6891613 0.1119175
vt 0.6412935 0.244935
vt 0.9999924 0.2409563
vt 0.9492283 0.3709764
vt 0.2126904 0.9681082
vt 0.5146055 -1.239777E-05
vt 0.0591135 0.9999924
vt 0.1914177 0.2093325
vt 0.2951708 0.0009870529
vt 0.1246185 0.9999924
vt -0.9522834 -0.08756256
vt -1.864528 -0.1555872
vt -0.9699464 -0.1555872
vt -1.850827 -0.0861187
vt -0.3388567 -0.1174822
vt -0.3322248 -0.1527748
vt -2.662164 -0.1555872
vt -2.648548 -0.08726883
vt -2.662164 -0.1555872
vt -3.134933 -0.1555872
vt -3.123651 -0.08434772
vt -4.149134 -0.1555872
vt -4.137356 -0.09557152
vt -4.149134 -0.1555872
vt -4.777579 -0.1555872
vt -4.774607 -0.1101122
vt -5.571815 -0.1555872
vt -5.558216 -0.1070223
vt 6.487528 0.9999924
vt -1.239777E-05 -1.239777E-05
vt 0.9999924 -1.239777E-05
vt -1.239777E-05 0.9999924
vt 8.67069 -1.239777E-05
vt 6.48391 -1.239777E-05
vt 8.280065 0.9999924
vt 5.085624 0.9999924
vt 5.085624 -1.239777E-05
vt 3.419086 0.9999924
vt 3.497629 -1.239777E-05
vt 3.63832 -0.8723297
vt 4.984549 -0.8000669
vt 0.87992 0.9999924
vt 0.6919575 1.230526
vt 0.87992 -1.239777E-05
vt -1.144351 1.496805
vt -1.222936 -1.239777E-05
vt -1.923888 -1.239777E-05
vt -1.778228 -1.127041
vt 0.751544 -1.027284
vt -1.239777E-05 -1.239777E-05
vt 0.4191046 1.619917
vt 0.9999924 0.9999924
vt -1.144351 1.496805
vt -1.923888 0.9999924
vt -3.676256 -1.239777E-05
vt -1.923888 0.9999924
vt -3.325784 0.9999924
vt -4.727688 0.9999924
vt -4.727688 -1.239777E-05
vt -6.129583 0.9999924
vt -6.129583 -1.239777E-05
vt -8.933383 0.9999924
vt -8.93476 -1.239777E-05
vt -6.464307 -0.9255629
vt -8.869934 -0.5302696
vt -1.923888 0.9999924
vt 0.8833532 0.9999924
vt -1.239777E-05 0.9999924
vt 3.419086 0.9999924
vt 5.085624 0.9999924
vt -1.239777E-05 0.9999924
vt 0.6919575 1.230526
vt 3.419086 0.9999924
vt 0.4191046 1.619917
vt 0.9999924 0.9999924
vt -1.239777E-05 0.9999924
vt -1.923888 0.9999924
vt -1.416842 0.9999924
vt 0.8833532 0.9999924
vt -1.923888 0.9999924
vt -1.144351 1.496805
vt -1.416842 0.9999924
vt -3.325784 0.9999924
vt 0.8833532 0.9999924
vt 2.416822 0.9999924
vt 3.953205 0.9999924
vt 6.017252 -0.4244099
vt -1.239777E-05 -1.239777E-05
vt 0.9999924 -1.239777E-05
vt 6.017252 -0.4244099
vt -1.239777E-05 -1.239777E-05
vt 0.751544 -1.027284
vt -1.239777E-05 -1.239777E-05
vt 0.9999924 -1.239777E-05
vt -3.676256 -1.239777E-05
vt 0.9999924 0.9999924
vt -1.239777E-05 0.9999924
vt -3.676256 -1.239777E-05
vt 0.9999924 -1.239777E-05
vt -5.283911 -0.8847208
vt -1.239777E-05 -1.239777E-05
vt 0.9999924 -1.239777E-05
vt -4.727688 -1.239777E-05
vt -1.241665 -0.3667622
vt 8.67069 -1.239777E-05
vt -0.8703661 -1.328511
vt 8.280065 0.9999924
vt -0.9287024 0.08018494
vt -1.416842 -1.239777E-05
vt 0.9999924 0.9999924
vt -1.15079 -0.7774506
vt -1.239777E-05 -1.239777E-05
vt -1.239777E-05 0.9999924
vt 0.9999924 -1.239777E-05
vt -1.416842 -1.239777E-05
vt 0.9620724 -0.6397228
vt 0.8833532 -1.239777E-05
vt -1.15079 -0.7774506
vt 2.545937 -0.6088133
vt 2.416822 -1.239777E-05
vt 3.491938 -0.4668293
vt 3.953205 -1.239777E-05
vt 5.345539 0.09937572
vt 5.237949 -0.4873295
vt 7.784604 0.0002307892
vt 6.226529 -0.9168396
vt 7.743276 -0.338026
vt 0.8833532 0.9999924
vt -1.416842 0.9999924
vt 2.416822 0.9999924
vt 3.953205 0.9999924
vt 2.561073 -1.33359
vt 3.469271 -1.260612
vt 5.306436 -1.167731
vt 2.489263 -2.093617
vt 0.9792576 -2.192106
vt 1.006701 -1.354695
vt -0.6993942 -1.071576
vt 3.549023 -2.07226
vt 5.438144 -1.711177
vt -0.6993942 -1.071576
vt -1.571964 -1.336385
vt -0.9287024 0.08018494
vt -1.571964 -1.336385
vt -1.416842 0.9999924
vt 0.9999924 0.9999924
vt -1.239777E-05 0.9999924
vt -1.416842 0.9999924
vt -1.144351 1.496805
vt 0.9999924 0.9999924
vt -1.416842 -1.239777E-05
vt 0.9999924 0.9999924
vt -1.416842 -1.239777E-05
vt 0.9999924 0.9999924
vt -1.239777E-05 0.9999924
vt 8.520185 -0.6245623
vt -1.239777E-05 -1.239777E-05
vt 0.9999924 -1.239777E-05
vt 8.520185 -0.6245623
vt -1.239777E-05 -1.239777E-05
vt -0.6993942 -1.071576
vt -0.3182974 -1.492607
vt 0.9792576 -2.192106
vt 0.1105156 -1.239777E-05
vt 0.1535559 0.9910269
vt -1.239777E-05 0.9881058
vt 0.4709015 0.9953499
vt 0.5563793 -1.239777E-05
vt 0.6156387 0.9999924
vt -1.239777E-05 0.9999924
vt 0.9999924 -1.239777E-05
vt 0.9999924 0.9999924
vt -1.239777E-05 -1.239777E-05
vt -1.239777E-05 -1.239777E-05
vt 0.9999924 0.9999924
vt -1.239777E-05 0.9999924
vt 0.9999924 -1.239777E-05
vt -1.239777E-05 -1.239777E-05
vt 0.9999924 0.9999924
vt -1.239777E-05 0.9999924
vt 0.9999924 -1.239777E-05
vt 0.6919575 1.230526
vt 1.450952 1.48339
vt 0.87992 0.9999924
vn 0.003905207 0.9954083 -0.0956402
vn -0.0006788075 0.9954083 -0.09571745
vn -0.0006788075 0.9954083 -0.09571745
vn 0.003905207 0.9954083 -0.0956402
vn 0.02682523 0.9954083 0.09188417
vn 0.01765722 0.9954083 0.09407718
vn 0.04516127 0.9954083 0.08439641
vn 0.02682523 0.9954083 0.09188417
vn 0.01307322 0.9954083 -0.0948231
vn 0.008489206 0.9954083 0.09534278
vn 0.01307322 0.9954083 0.0948231
vn 0.01307322 0.9954083 -0.0948231
vn 0.008489206 0.9954083 0.09534278
vn -0.01443082 0.9954083 -0.09462583
vn -0.009846821 0.9954083 -0.09521203
vn -0.01443082 0.9954083 -0.09462583
vn -0.01901484 0.9954083 -0.09381229
vn -0.009846821 0.9954083 -0.09521203
vn -0.01443082 0.9954083 -0.09462583
vn -0.01443082 0.9954083 -0.09462583
vn -0.01443082 0.9954083 -0.09462583
vn -0.01901484 0.9954083 -0.09381229
vn -0.01443082 0.9954083 -0.09462583
vn -0.02359883 0.9954083 -0.09276541
vn -0.02359883 0.9954083 -0.09276541
vn -0.02359883 0.9954083 -0.09276541
vn -0.03276685 0.9954083 -0.08993691
vn -0.02359883 0.9954083 -0.09276541
vn -0.03276685 0.9954083 -0.08993691
vn -0.03276685 0.9954083 -0.08993691
vn -0.01901484 0.9954083 -0.09381229
vn -0.03276685 0.9954083 -0.08993691
vn -0.01443082 0.9954083 -0.09462583
vn -0.01901484 0.9954083 -0.09381229
vn -0.02818285 0.9954083 -0.09147686
vn 0.003905207 0.9954083 0.0956402
vn 0.05432928 0.9770724 0.2058591
vn 0.02682523 0.9954083 0.09188417
vn 0.008489206 0.9954083 0.09534278
vn 0.01307322 0.9954083 -0.0948231
vn -0.01901484 0.9954083 -0.09381229
vn -0.005262807 0.9954083 0.09557505
vn -0.02818285 0.9954083 0.09147686
vn -0.9954083 0.0006788075 -0.09571753
vn -0.9587363 0.09694296 -0.2672579
vn -0.9908243 0.106111 -0.08371116
vn -0.8624722 0.2023751 -0.4638815
vn -0.9954083 -0.003905207 -0.09564024
vn -0.9679043 0.2161271 -0.1282586
vn -0.6974479 0.3994874 -0.594959
vn -0.6424398 0.5278396 -0.5555686
vn -0.4911675 0.7524559 -0.4388217
vn -0.4499115 0.77996 -0.4350196
vn -0.6195198 0.2573832 -0.7415856
vn -0.3811514 0.5599276 -0.7356662
vn -0.1932071 -0.05432928 -0.9796527
vn -0.3994874 0.110695 -0.910031
vn -0.02818285 -0.05891329 -0.9978652
vn -0.05568689 -0.0634973 -0.9964271
vn -0.08319092 -0.05891329 -0.9947907
vn -0.08319092 -0.0634973 -0.9945086
vn -0.04193486 0.9954083 -0.08604529
vn 0.04057726 0.9954083 -0.08669364
vn 0.01307322 0.9954083 -0.0948231
vn -0.08319092 0.9954083 0.04734503
vn 0.008489206 0.9954083 -0.09534278
vn -0.0006788075 0.9954083 -0.09571745
vn -0.04651888 0.9954083 -0.08365585
vn 0.01307322 0.9954083 -0.0948231
vn -0.009846821 0.9954083 -0.09521203
vn 0.07266531 0.9954083 -0.0623061
vn 0.008489206 0.9954083 0.09534278
vn -0.01901484 0.9954083 -0.09381229
vn -0.04193486 0.9954083 -0.08604529
vn 0.07266531 0.9954083 0.0623061
vn 0.1689295 0.9816563 0.08839543
vn 0.003905207 0.9954083 0.0956402
vn 0.008489206 0.9954083 -0.09534278
vn -0.02359883 0.9954083 0.09276541
vn -0.01901484 0.9954083 -0.09381229
vn -0.04651888 0.9954083 0.08365585
vn -0.01443082 0.9954083 0.09462583
vn -0.02359883 0.9954083 0.09276541
vn 0.01765722 0.9954083 -0.09407718
vn 0.07266531 0.9954083 0.0623061
vn 0.008489206 0.9954083 -0.09534278
vn 0.003905207 0.9954083 -0.0956402
vn -0.01901484 0.9954083 -0.09381229
vn 0.003905207 0.9954083 -0.0956402
vn 0.003905207 0.9954083 -0.0956402
vn 0.003905207 0.9999924 0
vn -0.01443082 0.9954083 -0.09462583
vn -0.02818285 0.9954083 -0.09147686
vn -0.009846821 0.9954083 -0.09521203
vn -0.02359883 0.9954083 -0.09276541
vn -0.0006788075 0.9954083 -0.09571745
vn -0.009846821 0.9954083 -0.09521203
vn -0.0006788075 0.9954083 -0.09571745
vn 0.003905207 0.9954083 -0.0956402
vn 0.003905207 0.9954083 -0.0956402
vn 0.04057726 0.9954083 -0.08669364
vn 0.07266531 0.9954083 -0.0623061
vn 0.01307322 0.9954083 -0.0948231
vn 0.04057726 0.9954083 -0.08669364
vn 0.1689295 0.9816563 0.08839543
vn 0.07266531 0.9954083 -0.0623061
vn 0.01765722 0.9954083 -0.09407718
vn 0.07266531 0.9954083 0.0623061
vn 0.1001694 0.9908243 -0.09073693
vn 0.003905207 0.9954083 -0.0956402
vn -0.005262807 0.9954083 -0.09557505
vn 0.003905207 0.9954083 -0.0956402
vn 0.003905207 0.9954083 -0.0956402
vn 0.008489206 0.9954083 -0.09534278
vn -0.005262807 0.9954083 -0.09557505
vn 0.003905207 0.9954083 -0.0956402
vn 0.003905207 0.9954083 -0.0956402
vn 0.003905207 0.9954083 -0.0956402
vn 0.003905207 0.9999924 0
vn -0.005262807 0.9954083 -0.09557505
vn -0.009846821 0.9954083 -0.09521203
vn -0.04193486 0.9954083 -0.08604529
vn -0.005262807 0.9954083 -0.09557505
vn -0.009846821 0.9954083 -0.09521203
vn -0.01443082 0.9954083 0.09462583
vn -0.02359883 0.9954083 0.09276541
vn -0.04651888 0.9954083 0.08365585
vn -0.01901484 0.9954083 -0.09381229
vn -0.04651888 0.9954083 0.08365585
vn -0.01901484 0.9954083 -0.09381229
vn -0.01901484 0.9954083 -0.09381229
vn -0.04193486 0.9954083 -0.08604529
vn -0.02359883 0.9954083 -0.09276541
vn -0.009846821 0.9954083 -0.09521203
vn -0.009846821 0.9954083 -0.09521203
vn -0.01443082 0.9954083 -0.09462583
vn -0.0006788075 0.9954083 -0.09571745
vn 0.008489206 0.9954083 -0.09534278
vn 0.02682523 0.9954083 -0.09188417
vn -0.04651888 0.9954083 -0.08365585
vn -0.02359883 0.9954083 -0.09276541
vn -0.02359883 0.9954083 -0.09276541
vn 0.05891329 0.9770724 0.2045944
vn -0.06485491 0.9954083 -0.07039976
vn 0.05432928 0.9770724 0.2058591
vn 0.01765722 0.9954083 0.09407718
vn 0.003905207 0.9954083 0.0956402
vn -0.02359883 0.9954083 -0.09276541
vn -0.110695 0.9908243 -0.077548
vn -0.04193486 0.9954083 -0.08604529
vn -0.06485491 0.9954083 -0.07039976
vn -0.124447 0.9862404 -0.1088248
vn -0.07402292 0.9954083 -0.06068699
vn -0.119863 0.9862404 -0.1138541
vn -0.04651888 0.9954083 -0.08365585
vn -0.02818285 0.9954083 -0.09147686
vn -0.08319092 0.9908243 -0.1065192
vn -0.02359883 0.9954083 -0.09276541
vn -0.110695 0.9862404 -0.1227865
vn -0.02818285 0.9954083 0.09147686
vn 0.003905207 0.9954083 -0.0956402
vn -0.005262807 0.9954083 -0.09557505
vn 0.003905207 0.9954083 -0.0956402
vn 0.003905207 0.9999924 0
vn -0.1657031 0.9724883 -0.1637347
vn -0.1794551 0.9679043 -0.1759461
vn -0.1702871 0.9724883 -0.1589618
vn -0.3903194 0.8487201 -0.3568263
vn -0.3949034 0.9037282 -0.1653075
vn -0.1748711 0.9770724 -0.1214484
vn -0.3032233 0.9449843 -0.1227204
vn -0.4499115 0.77996 -0.4350196
vn -0.3490633 0.8441361 -0.4069262
vn -0.129031 0.9862404 -0.1033485
vn -0.04651888 0.9954083 -0.08365585
vn -0.02359883 0.9954083 -0.09276541
vn -0.04651888 0.9954083 -0.08365585
vn -0.005262807 0.9954083 -0.09557505
vn 0.01765722 0.9954083 -0.09407718
vn 0.01765722 0.9954083 0.09407718
vn -0.005262807 0.9954083 -0.09557505
vn 0.008489206 0.9954083 -0.09534278
vn 0.01765722 0.9954083 -0.09407718
vn -0.02359883 0.9954083 -0.09276541
vn 0.01765722 0.9954083 0.09407718
vn -0.02359883 0.9954083 -0.09276541
vn 0.01765722 0.9954083 0.09407718
vn 0.05891329 0.9770724 0.2045944
vn 0.003905207 0.9954083 -0.0956402
vn -0.0006788075 0.9954083 -0.09571745
vn -0.005262807 0.9954083 -0.09557505
vn 0.003905207 0.9954083 -0.0956402
vn -0.0006788075 0.9954083 -0.09571745
vn -0.6836959 0.7157839 -0.1421739
vn -0.9908243 0.106111 -0.08371116
vn -0.761624 0.5920157 -0.2635266
vn -0.005262807 0.9954083 0.09557505
vn -0.02359883 0.9954083 -0.09276541
vn -0.02818285 0.9954083 0.09147686
vn -0.0006788075 0.9954083 -0.09571745
vn -0.0006788075 0.9954083 0.09571745
vn -0.0006788075 0.9954083 -0.09571745
vn -0.101527 0.9908243 -0.08921528
vn -0.04193486 0.9954083 -0.08604529
vn -0.04651888 0.9954083 -0.08365585
vn -0.08319092 0.9954083 0.04734503
vn 0.008489206 0.9954083 -0.09534278
vn 0.03599325 0.9954083 -0.08869498
vn 0.02682523 0.9954083 -0.09188417
vn 0.003905207 0.9954083 -0.0956402
vn -0.01443082 0.9954083 -0.09462583
vn -0.04193486 0.9954083 -0.08604529
vn -0.01901484 0.9954083 -0.09381229
vn -0.02359883 0.9954083 -0.09276541
vn 0.1689295 0.9816563 0.08839543
vn 0.1001694 0.9908243 -0.09073693
vn 0.07266531 0.9954083 0.0623061
g Swamp_Straight5_Collisions_0
f 3/3/3 2/2/2 1/1/1
f 2/2/2 4/4/4 1/1/1
f 5/5/5 2/2/2 3/3/3
f 6/6/6 5/5/5 3/3/3
f 6/6/6 7/7/7 5/5/5
f 7/7/7 8/8/8 5/5/5
f 7/7/7 9/9/9 8/8/8
f 12/12/12 11/11/11 10/10/10
f 11/11/11 13/13/13 10/10/10
f 14/14/14 13/13/13 11/11/11
f 15/15/15 14/14/14 11/11/11
f 18/18/18 17/17/17 16/16/16
f 17/17/17 19/19/19 16/16/16
f 22/22/22 21/21/21 20/20/20
f 21/21/21 23/23/23 20/20/20
f 24/24/24 23/23/23 21/21/21
f 25/25/25 24/24/24 21/21/21
f 28/28/28 27/27/27 26/26/26
f 27/27/27 29/29/29 26/26/26
f 32/32/32 31/31/31 30/30/30
f 31/31/31 33/33/33 30/30/30
f 34/34/34 33/33/33 31/31/31
f 35/35/35 34/34/34 31/31/31
f 36/36/36 34/34/34 35/35/35
f 37/37/37 36/36/36 35/35/35
f 40/40/40 39/39/39 38/38/38
f 43/43/43 42/42/42 41/41/41
f 46/46/46 45/45/45 44/44/44
f 45/45/45 47/47/47 44/44/44
f 44/44/44 48/48/48 46/46/46
f 48/48/48 49/49/49 46/46/46
f 45/45/45 50/50/50 47/47/47
f 52/52/52 51/51/51 47/47/47
f 51/51/51 52/52/52 53/53/53
f 54/54/54 51/51/51 53/53/53
f 53/53/53 55/55/55 54/54/54
f 57/57/57 56/56/56 54/54/54
f 56/56/56 57/57/57 58/58/58
f 59/59/59 56/56/56 58/58/58
f 58/58/58 60/60/60 59/59/59
f 60/60/60 61/61/61 59/59/59
f 64/64/64 63/63/63 62/62/62
f 63/63/63 65/65/65 62/62/62
f 67/67/67 62/62/62 66/66/66
f 62/62/62 68/68/68 66/66/66
f 69/69/69 62/62/62 67/67/67
f 70/70/70 69/69/69 67/67/67
f 71/71/71 69/69/69 70/70/70
f 72/72/72 71/71/71 70/70/70
f 72/72/72 70/70/70 73/73/73
f 70/70/70 74/74/74 73/73/73
f 75/75/75 71/71/71 72/72/72
f 71/71/71 75/75/75 76/76/76
f 77/77/77 75/75/75 72/72/72
f 78/78/78 75/75/75 77/77/77
f 79/79/79 78/78/78 77/77/77
f 79/79/79 80/80/80 78/78/78
f 81/81/81 80/80/80 79/79/79
f 77/77/77 72/72/72 82/82/82
f 72/72/72 73/73/73 82/82/82
f 83/83/83 77/77/77 82/82/82
f 85/85/85 78/78/78 84/84/84
f 80/80/80 87/87/87 86/86/86
f 89/89/89 80/80/80 88/88/88
f 90/90/90 89/89/89 88/88/88
f 91/91/91 90/90/90 88/88/88
f 92/92/92 91/91/91 88/88/88
f 93/93/93 91/91/91 92/92/92
f 94/94/94 93/93/93 92/92/92
f 95/95/95 93/93/93 94/94/94
f 96/96/96 95/95/95 94/94/94
f 96/96/96 94/94/94 97/97/97
f 98/98/98 96/96/96 97/97/97
f 100/100/100 99/99/99 90/90/90
f 103/103/103 102/102/102 101/101/101
f 106/106/106 105/105/105 104/104/104
f 109/109/109 108/108/108 107/107/107
f 112/112/112 111/111/111 110/110/110
f 115/115/115 114/114/114 113/113/113
f 118/118/118 117/117/117 116/116/116
f 116/116/116 119/119/119 118/118/118
f 122/122/122 121/121/121 120/120/120
f 124/124/124 67/67/67 123/123/123
f 127/127/127 126/126/126 125/125/125
f 130/130/130 129/129/129 128/128/128
f 129/129/129 132/132/132 131/131/131
f 135/135/135 134/134/134 133/133/133
f 134/134/134 136/136/136 133/133/133
f 139/139/139 138/138/138 137/137/137
f 138/138/138 140/140/140 137/137/137
f 143/143/143 142/142/142 141/141/141
f 142/142/142 144/144/144 141/141/141
f 146/146/146 143/143/143 145/145/145
f 143/143/143 147/147/147 145/145/145
f 150/150/150 149/149/149 148/148/148
f 149/149/149 151/151/151 148/148/148
f 149/149/149 150/150/150 152/152/152
f 150/150/150 153/153/153 152/152/152
f 154/154/154 152/152/152 153/153/153
f 155/155/155 154/154/154 153/153/153
f 154/154/154 155/155/155 156/156/156
f 157/157/157 154/154/154 156/156/156
f 157/157/157 156/156/156 158/158/158
f 158/158/158 159/159/159 157/157/157
f 158/158/158 160/160/160 159/159/159
f 150/150/150 148/148/148 161/161/161
f 148/148/148 162/162/162 161/161/161
f 153/153/153 150/150/150 163/163/163
f 150/150/150 161/161/161 163/163/163
f 155/155/155 153/153/153 163/163/163
f 164/164/164 155/155/155 163/163/163
f 155/155/155 164/164/164 156/156/156
f 165/165/165 152/152/152 154/154/154
f 166/166/166 165/165/165 154/154/154
f 166/166/166 154/154/154 167/167/167
f 154/154/154 157/157/157 167/167/167
f 167/167/167 157/157/157 159/159/159
f 168/168/168 165/165/165 166/166/166
f 165/165/165 168/168/168 169/169/169
f 170/170/170 165/165/165 169/169/169
f 170/170/170 169/169/169 171/171/171
f 172/172/172 168/168/168 166/166/166
f 166/166/166 167/167/167 172/172/172
f 167/167/167 173/173/173 172/172/172
f 173/173/173 167/167/167 159/159/159
f 152/152/152 165/165/165 170/170/170
f 149/149/149 152/152/152 170/170/170
f 149/149/149 170/170/170 171/171/171
f 151/151/151 149/149/149 174/174/174
f 174/174/174 175/175/175 151/151/151
f 177/177/177 176/176/176 151/151/151
f 180/180/180 179/179/179 178/178/178
f 183/183/183 182/182/182 181/181/181
f 185/185/185 181/181/181 184/184/184
f 188/188/188 187/187/187 186/186/186
f 191/191/191 190/190/190 189/189/189
f 193/193/193 66/66/66 192/192/192
f 196/196/196 195/195/195 194/194/194
f 199/199/199 198/198/198 197/197/197
f 198/198/198 200/200/200 197/197/197
f 200/200/200 201/201/201 197/197/197
f 202/202/202 201/201/201 200/200/200
f 205/205/205 204/204/204 203/203/203
f 204/204/204 206/206/206 203/203/203
f 209/209/209 208/208/208 207/207/207
f 208/208/208 210/210/210 207/207/207
f 213/213/213 212/212/212 211/211/211
f 212/212/212 214/214/214 211/211/211
f 217/217/217 216/216/216 215/215/215
