g GP_Global_Stud_Gold
v 1.192093E-07 0.0752788 0.02496303
v 0.04424825 0.06090187 0.07488934
v 1.192093E-07 0.0752788 0.07488934
v 0.04424825 0.06090187 0.02496303
v 0.07159488 0.02326242 0.02496303
v 0.07159488 0.02326242 0.07488934
v 0.07159488 -0.02326289 0.02496303
v 0.07159488 -0.02326289 0.07488934
v 0.04424825 -0.06090235 0.02496303
v 0.04424825 -0.06090235 0.07488934
v 1.192093E-07 -0.07527903 0.02496303
v 1.192093E-07 -0.07527903 0.07488934
v -0.04424778 -0.06090235 0.02496303
v 1.192093E-07 -0.07527903 0.07488934
v 1.192093E-07 -0.07527903 0.02496303
v -0.04424778 -0.06090235 0.07488934
v -0.07159441 -0.02326289 0.02496303
v -0.07159441 -0.02326289 0.07488934
v -0.07159441 0.02326242 0.02496303
v -0.07159441 0.02326242 0.07488934
v -0.04424778 0.06090187 0.02496303
v -0.04424778 0.06090187 0.07488934
v 1.192093E-07 0.0752788 0.02496303
v 1.192093E-07 0.0752788 0.07488934
v 0.07345162 0.1010967 -0.01248217
v 1.192093E-07 0.1249629 0.02496303
v 1.192093E-07 0.1249629 -0.01248217
v 0.07345162 0.1010967 0.02496303
v 0.1188472 0.03861538 -0.01248217
v 0.1188472 0.03861538 0.02496303
v 0.1188472 -0.03861608 -0.01248217
v 0.1188472 -0.03861608 0.02496303
v 0.07345162 -0.1010976 -0.01248217
v 0.07345162 -0.1010976 0.02496303
v 1.192093E-07 -0.1249629 -0.01248217
v 1.192093E-07 -0.1249629 0.02496303
v -0.07345114 -0.1010974 -0.01248217
v 1.192093E-07 -0.1249629 0.02496303
v 1.192093E-07 -0.1249629 -0.01248217
v -0.07345114 -0.1010974 0.02496303
v -0.1188467 -0.03861608 -0.01248217
v -0.1188467 -0.03861608 0.02496303
v -0.1188467 0.03861538 -0.01248217
v -0.1188467 0.03861538 0.02496303
v -0.07345114 0.1010969 -0.01248217
v -0.07345114 0.1010969 0.02496303
v 1.192093E-07 0.1249629 -0.01248217
v 1.192093E-07 0.1249629 0.02496303
v 0.05929231 0.08160814 -0.07488957
v 1.192093E-07 0.1008736 -0.01248217
v 1.192093E-07 0.1008736 -0.07488957
v 0.05929231 0.08160814 -0.01248217
v 0.0959369 0.03117152 -0.07488957
v 0.0959369 0.03117152 -0.01248217
v 0.0959369 -0.031172 -0.07488957
v 0.0959369 -0.031172 -0.01248217
v 0.05929231 -0.08160861 -0.07488957
v 0.05929231 -0.08160861 -0.01248217
v 1.192093E-07 -0.100874 -0.07488957
v 1.192093E-07 -0.100874 -0.01248217
v -0.05929207 -0.08160861 -0.07488957
v 1.192093E-07 -0.100874 -0.01248217
v 1.192093E-07 -0.100874 -0.07488957
v -0.05929207 -0.08160861 -0.01248217
v -0.09593619 -0.031172 -0.07488957
v -0.09593619 -0.031172 -0.01248217
v -0.09593619 0.03117152 -0.07488957
v -0.09593619 0.03117152 -0.01248217
v -0.05929183 0.08160814 -0.07488957
v -0.05929183 0.08160814 -0.01248217
v 1.192093E-07 0.1008736 -0.07488957
v 1.192093E-07 0.1008736 -0.01248217
v 0.04329462 0.05958953 -0.07488957
v 1.192093E-07 0.1008736 -0.07488957
v 1.192093E-07 0.07365683 -0.07488957
v 0.05929231 0.08160814 -0.07488957
v 0.0700523 0.02276094 -0.07488957
v 0.0959369 0.03117152 -0.07488957
v 0.0700523 -0.02276164 -0.07488957
v 0.0959369 -0.031172 -0.07488957
v 0.04329462 -0.05959 -0.07488957
v 0.05929231 -0.08160861 -0.07488957
v 1.192093E-07 -0.07365731 -0.07488957
v 1.192093E-07 -0.100874 -0.07488957
v -0.04329439 -0.05959 -0.07488957
v -0.05929207 -0.08160861 -0.07488957
v -0.07005183 -0.02276164 -0.07488957
v -0.09593619 -0.031172 -0.07488957
v -0.07005183 0.02276094 -0.07488957
v -0.09593619 0.03117152 -0.07488957
v -0.04329439 0.05958953 -0.07488957
v -0.05929183 0.08160814 -0.07488957
v 0.04329462 0.05958953 -0.029556
v 1.192093E-07 0.07365683 -0.07488957
v 1.192093E-07 0.07365683 -0.029556
v 0.04329462 0.05958953 -0.07488957
v 0.0700523 0.02276094 -0.029556
v 0.0700523 0.02276094 -0.07488957
v 0.0700523 -0.02276164 -0.029556
v 0.0700523 -0.02276164 -0.07488957
v 0.04329462 -0.05959 -0.029556
v 0.04329462 -0.05959 -0.07488957
v 1.192093E-07 -0.07365731 -0.029556
v 1.192093E-07 -0.07365731 -0.07488957
v -0.04329439 -0.05959 -0.029556
v 1.192093E-07 -0.07365731 -0.07488957
v 1.192093E-07 -0.07365731 -0.029556
v -0.04329439 -0.05959 -0.07488957
v -0.07005183 -0.02276164 -0.029556
v -0.07005183 -0.02276164 -0.07488957
v -0.07005183 0.02276094 -0.029556
v -0.07005183 0.02276094 -0.07488957
v -0.04329439 0.05958953 -0.029556
v -0.04329439 0.05958953 -0.07488957
v 1.192093E-07 0.07365683 -0.029556
v 1.192093E-07 0.07365683 -0.07488957
v 0.02659142 0.03659896 -0.029556
v 1.192093E-07 0.07365683 -0.029556
v 1.192093E-07 0.04523931 -0.029556
v 0.04329462 0.05958953 -0.029556
v 0.04302552 0.01397971 -0.029556
v 0.0700523 0.02276094 -0.029556
v 0.04302552 -0.01398019 -0.029556
v 0.0700523 -0.02276164 -0.029556
v 0.02659142 -0.03659966 -0.029556
v 0.04329462 -0.05959 -0.029556
v 1.192093E-07 -0.04523978 -0.029556
v 1.192093E-07 -0.07365731 -0.029556
v -0.02659095 -0.03659966 -0.029556
v -0.04329439 -0.05959 -0.029556
v -0.04302505 -0.01398019 -0.029556
v -0.07005183 -0.02276164 -0.029556
v -0.04302505 0.01397971 -0.029556
v -0.07005183 0.02276094 -0.029556
v -0.02659095 0.03659896 -0.029556
v -0.04329439 0.05958953 -0.029556
v 0.02659142 0.03659896 -0.005906381
v 1.192093E-07 0.04523931 -0.029556
v 1.192093E-07 0.04523931 -0.005906381
v 0.02659142 0.03659896 -0.029556
v 0.04302552 0.01397971 -0.005906381
v 0.04302552 0.01397971 -0.029556
v 0.04302552 -0.01398019 -0.005906381
v 0.04302552 -0.01398019 -0.029556
v 0.02659142 -0.03659966 -0.005906381
v 0.02659142 -0.03659966 -0.029556
v 1.192093E-07 -0.04523978 -0.005906381
v 1.192093E-07 -0.04523978 -0.029556
v -0.02659095 -0.03659966 -0.005906381
v 1.192093E-07 -0.04523978 -0.029556
v 1.192093E-07 -0.04523978 -0.005906381
v -0.02659095 -0.03659966 -0.029556
v -0.04302505 -0.01398019 -0.005906381
v -0.04302505 -0.01398019 -0.029556
v -0.04302505 0.01397971 -0.005906381
v -0.04302505 0.01397971 -0.029556
v -0.02659095 0.03659896 -0.005906381
v -0.02659095 0.03659896 -0.029556
v 1.192093E-07 0.04523931 -0.005906381
v 1.192093E-07 0.04523931 -0.029556
v 1.192093E-07 0.1249629 0.02496303
v 1.192093E-07 -1.192093E-07 0.02712367
v -0.07345114 0.1010969 0.02496303
v -0.1188467 0.03861538 0.02496303
v -0.1188467 -0.03861608 0.02496303
v -0.07345114 -0.1010974 0.02496303
v 1.192093E-07 -0.1249629 0.02496303
v 0.07345162 -0.1010976 0.02496303
v 0.1188472 -0.03861608 0.02496303
v 0.1188472 0.03861538 0.02496303
v 0.07345162 0.1010967 0.02496303
v 1.192093E-07 0.1249629 -0.01248217
v 0.07345162 -0.1010976 -0.01248217
v 0.07345162 0.1010967 -0.01248217
v 1.192093E-07 -0.1249629 -0.01248217
v -0.07345114 -0.1010974 -0.01248217
v -0.07345114 0.1010969 -0.01248217
v 0.1188472 0.03861538 -0.01248217
v 0.1188472 -0.03861608 -0.01248217
v -0.1188467 -0.03861608 -0.01248217
v -0.1188467 0.03861538 -0.01248217
v 1.192093E-07 0.0752788 0.07488934
v 0.04424825 0.06090187 0.07488934
v -0.04424778 0.06090187 0.07488934
v -0.07159441 0.02326242 0.07488934
v 0.07159488 0.02326242 0.07488934
v -0.07159441 -0.02326289 0.07488934
v 0.07159488 -0.02326289 0.07488934
v -0.04424778 -0.06090235 0.07488934
v 0.04424825 -0.06090235 0.07488934
v 1.192093E-07 -0.07527903 0.07488934
vt 0.9572559 0.1111967
vt 0.9572559 0.1111967
vt 0.9572559 0.1111967
vt 0.9572559 0.1111967
vt 0.9572559 0.1111967
vt 0.9572559 0.1111967
vt 0.9572559 0.1111967
vt 0.9572559 0.1111967
vt 0.9572559 0.1111967
vt 0.9572559 0.1111967
vt 0.9572559 0.1111967
vt 0.9572559 0.1111967
vt 0.9572559 0.1111967
vt 0.9572559 0.1111967
vt 0.9572559 0.1111967
vt 0.9572559 0.1111967
vt 0.9572559 0.1111967
vt 0.9572559 0.1111967
vt 0.9572559 0.1111967
vt 0.9572559 0.1111967
vt 0.9572559 0.1111967
vt 0.9572559 0.1111967
vt 0.9572559 0.1111967
vt 0.9572559 0.1111967
vt 0.9572559 0.1111967
vt 0.9572559 0.1111967
vt 0.9572559 0.1111967
vt 0.9572559 0.1111967
vt 0.9572559 0.1111967
vt 0.9572559 0.1111967
vt 0.9572559 0.1111967
vt 0.9572559 0.1111967
vt 0.9572559 0.1111967
vt 0.9572559 0.1111967
vt 0.9572559 0.1111967
vt 0.9572559 0.1111967
vt 0.9572559 0.1111967
vt 0.9572559 0.1111967
vt 0.9572559 0.1111967
vt 0.9572559 0.1111967
vt 0.9572559 0.1111967
vt 0.9572559 0.1111967
vt 0.9572559 0.1111967
vt 0.9572559 0.1111967
vt 0.9572559 0.1111967
vt 0.9572559 0.1111967
vt 0.9572559 0.1111967
vt 0.9572559 0.1111967
vt 0.9572559 0.1111967
vt 0.9572559 0.1111967
vt 0.9572559 0.1111967
vt 0.9572559 0.1111967
vt 0.9572559 0.1111967
vt 0.9572559 0.1111967
vt 0.9572559 0.1111967
vt 0.9572559 0.1111967
vt 0.9572559 0.1111967
vt 0.9572559 0.1111967
vt 0.9572559 0.1111967
vt 0.9572559 0.1111967
vt 0.9572559 0.1111967
vt 0.9572559 0.1111967
vt 0.9572559 0.1111967
vt 0.9572559 0.1111967
vt 0.9572559 0.1111967
vt 0.9572559 0.1111967
vt 0.9572559 0.1111967
vt 0.9572559 0.1111967
vt 0.9572559 0.1111967
vt 0.9572559 0.1111967
vt 0.9572559 0.1111967
vt 0.9572559 0.1111967
vt 0.9572559 0.1111967
vt 0.9572559 0.1111967
vt 0.9572559 0.1111967
vt 0.9572559 0.1111967
vt 0.9572559 0.1111967
vt 0.9572559 0.1111967
vt 0.9572559 0.1111967
vt 0.9572559 0.1111967
vt 0.9572559 0.1111967
vt 0.9572559 0.1111967
vt 0.9572559 0.1111967
vt 0.9572559 0.1111967
vt 0.9572559 0.1111967
vt 0.9572559 0.1111967
vt 0.9572559 0.1111967
vt 0.9572559 0.1111967
vt 0.9572559 0.1111967
vt 0.9572559 0.1111967
vt 0.9572559 0.1111967
vt 0.9572559 0.1111967
vt 0.9572559 0.1111967
vt 0.9572559 0.1111967
vt 0.9572559 0.1111967
vt 0.9572559 0.1111967
vt 0.9572559 0.1111967
vt 0.9572559 0.1111967
vt 0.9572559 0.1111967
vt 0.9572559 0.1111967
vt 0.9572559 0.1111967
vt 0.9572559 0.1111967
vt 0.9572559 0.1111967
vt 0.9572559 0.1111967
vt 0.9572559 0.1111967
vt 0.9572559 0.1111967
vt 0.9572559 0.1111967
vt 0.9572559 0.1111967
vt 0.9572559 0.1111967
vt 0.9572559 0.1111967
vt 0.9572559 0.1111967
vt 0.9572559 0.1111967
vt 0.9572559 0.1111967
vt 0.9572559 0.1111967
vt 0.9572559 0.1111967
vt 0.9572559 0.1111967
vt 0.9572559 0.1111967
vt 0.9572559 0.1111967
vt 0.9572559 0.1111967
vt 0.9572559 0.1111967
vt 0.9572559 0.1111967
vt 0.9572559 0.1111967
vt 0.9572559 0.1111967
vt 0.9572559 0.1111967
vt 0.9572559 0.1111967
vt 0.9572559 0.1111967
vt 0.9572559 0.1111967
vt 0.9572559 0.1111967
vt 0.9572559 0.1111967
vt 0.9572559 0.1111967
vt 0.9572559 0.1111967
vt 0.9572559 0.1111967
vt 0.9572559 0.1111967
vt 0.9572559 0.1111967
vt 0.9572559 0.1111967
vt 0.9572559 0.1111967
vt 0.9572559 0.1111967
vt 0.9572559 0.1111967
vt 0.9572559 0.1111967
vt 0.9572559 0.1111967
vt 0.9572559 0.1111967
vt 0.9572559 0.1111967
vt 0.9572559 0.1111967
vt 0.9572559 0.1111967
vt 0.9572559 0.1111967
vt 0.9572559 0.1111967
vt 0.9572559 0.1111967
vt 0.9572559 0.1111967
vt 0.9572559 0.1111967
vt 0.9572559 0.1111967
vt 0.9572559 0.1111967
vt 0.9572559 0.1111967
vt 0.9572559 0.1111967
vt 0.9572559 0.1111967
vt 0.9572559 0.1111967
vt 0.9572559 0.1111967
vt 0.9572559 0.1111967
vt 0.9572559 0.1111967
vt 0.9572559 0.1111967
vt 0.9572559 0.1111967
vt 0.9572559 0.1111967
vt 0.9572559 0.1111967
vt 0.9572559 0.1111967
vt 0.9572559 0.1111967
vt 0.9572559 0.1111967
vt 0.9572559 0.1111967
vt 0.9572559 0.1111967
vt 0.9572559 0.1111967
vt 0.9572559 0.1111967
vt 0.9572559 0.1111967
vt 0.9572559 0.1111967
vt 0.9572559 0.1111967
vt 0.9572559 0.1111967
vt 0.9572559 0.1111967
vt 0.9572559 0.1111967
vt 0.9572559 0.1111967
vt 0.9572559 0.1111967
vt 0.9572559 0.1111967
vt 0.9572559 0.1111967
vt 0.9572559 0.1111967
vt 0.9572559 0.1111967
vt 0.9572559 0.1111967
vt 0.9572559 0.1111967
vt 0.9572559 0.1111967
vt 0.9572559 0.1111967
vt 0.9572559 0.1111967
vt 0.9572559 0.1111967
vt 0.9572559 0.1111967
vt 0.9572559 0.1111967
vt 0.9572559 0.1111967
vt 0.9572559 0.1111967
vn 0.003921568 0.9999923 -0.000345267
vn 0.5981219 0.8014051 0
vn 0.003921568 0.9999923 -0.000345267
vn 0.5981219 0.8014051 0
vn 0.9539937 0.2998266 0
vn 0.9539937 0.2998266 0
vn 0.9510053 -0.3091746 0
vn 0.9510053 -0.3091746 0
vn 0.5893314 -0.8078914 0
vn 0.5893314 -0.8078914 0
vn 0.003921568 -0.9999924 0
vn 0.003921568 -0.9999924 0
vn -0.5764661 -0.8117585 -0.09346091
vn 0.003921568 -0.9999924 0
vn 0.003921568 -0.9999924 0
vn -0.5764661 -0.8117585 -0.09346091
vn -0.9450908 -0.3176447 -0.07684591
vn -0.9450908 -0.3176447 -0.07684591
vn -0.9450908 0.3019584 -0.1249981
vn -0.9450908 0.3019584 -0.1249981
vn -0.5843092 0.8039154 -0.1109181
vn -0.5843092 0.8039154 -0.1109181
vn 0.003921568 0.9999923 -0.000345267
vn 0.003921568 0.9999923 -0.000345267
vn 0.5981219 0.8014051 0
vn 0.003921568 0.9999923 -0.000345267
vn 0.003921568 0.9999923 -0.000345267
vn 0.5981219 0.8014051 0
vn 0.9539937 0.2998266 0
vn 0.9539937 0.2998266 0
vn 0.9510053 -0.3091746 0
vn 0.9510053 -0.3091746 0
vn 0.5893314 -0.8078914 0
vn 0.5893314 -0.8078914 0
vn 0.003921568 -0.9999924 0
vn 0.003921568 -0.9999924 0
vn -0.5764661 -0.8117585 -0.09346091
vn 0.003921568 -0.9999924 0
vn 0.003921568 -0.9999924 0
vn -0.5764661 -0.8117585 -0.09346091
vn -0.9450908 -0.3176447 -0.07684591
vn -0.9450908 -0.3176447 -0.07684591
vn -0.9450908 0.3019584 -0.1249981
vn -0.9450908 0.3019584 -0.1249981
vn -0.5843092 0.8039154 -0.1109181
vn -0.5843092 0.8039154 -0.1109181
vn 0.003921568 0.9999923 -0.000345267
vn 0.003921568 0.9999923 -0.000345267
vn 0.5981219 0.8014051 0
vn 0.003921568 0.9999923 -0.000345267
vn 0.003921568 0.9999923 -0.000345267
vn 0.5981219 0.8014051 0
vn 0.9539937 0.2998266 0
vn 0.9539937 0.2998266 0
vn 0.9510053 -0.3091746 0
vn 0.9510053 -0.3091746 0
vn 0.5893314 -0.8078914 0
vn 0.5893314 -0.8078914 0
vn 0.003921568 -0.9999924 0
vn 0.003921568 -0.9999924 0
vn -0.5764661 -0.8117585 -0.09346091
vn 0.003921568 -0.9999924 0
vn 0.003921568 -0.9999924 0
vn -0.5764661 -0.8117585 -0.09346091
vn -0.9450908 -0.3176447 -0.07684591
vn -0.9450908 -0.3176447 -0.07684591
vn -0.9450908 0.3019584 -0.1249981
vn -0.9450908 0.3019584 -0.1249981
vn -0.5843092 0.8039154 -0.1109181
vn -0.5843092 0.8039154 -0.1109181
vn 0.003921568 0.9999923 -0.000345267
vn 0.003921568 0.9999923 -0.000345267
vn 0.01176465 -0.01176465 -0.9998616
vn 0.01176465 -0.01176465 -0.9998616
vn 0.01176465 -0.01176465 -0.9998616
vn 0.01176465 -0.01176465 -0.9998616
vn 0.01176465 -0.01176465 -0.9998616
vn 0.01176465 -0.01176465 -0.9998616
vn 0.01176465 -0.01176465 -0.9998616
vn 0.01176465 -0.01176465 -0.9998616
vn 0.01176465 -0.01176465 -0.9998616
vn 0.01176465 -0.01176465 -0.9998616
vn 0.01176465 -0.01176465 -0.9998616
vn 0.01176465 -0.01176465 -0.9998616
vn 0.01176465 -0.01176465 -0.9998616
vn 0.01176465 -0.01176465 -0.9998616
vn 0.01176465 -0.01176465 -0.9998616
vn 0.01176465 -0.01176465 -0.9998616
vn 0.01176465 -0.01176465 -0.9998616
vn 0.01176465 -0.01176465 -0.9998616
vn 0.01176465 -0.01176465 -0.9998616
vn 0.01176465 -0.01176465 -0.9998616
vn -0.5764661 -0.8117585 -0.09346091
vn 0.003921568 -0.9999924 0
vn 0.003921568 -0.9999924 0
vn -0.5764661 -0.8117585 -0.09346091
vn -0.9450908 -0.3176447 -0.07684591
vn -0.9450908 -0.3176447 -0.07684591
vn -0.9450908 0.3019584 -0.1249981
vn -0.9450908 0.3019584 -0.1249981
vn -0.5843092 0.8039154 -0.1109181
vn -0.5843092 0.8039154 -0.1109181
vn 0.003921568 0.9999923 -0.000345267
vn 0.003921568 0.9999923 -0.000345267
vn 0.5981219 0.8014051 0
vn 0.003921568 0.9999923 -0.000345267
vn 0.003921568 0.9999923 -0.000345267
vn 0.5981219 0.8014051 0
vn 0.9539937 0.2998266 0
vn 0.9539937 0.2998266 0
vn 0.9510053 -0.3091746 0
vn 0.9510053 -0.3091746 0
vn 0.5893314 -0.8078914 0
vn 0.5893314 -0.8078914 0
vn 0.003921568 -0.9999924 0
vn 0.003921568 -0.9999924 0
vn 0.01176465 -0.01176465 -0.9998616
vn 0.01176465 -0.01176465 -0.9998616
vn 0.01176465 -0.01176465 -0.9998616
vn 0.01176465 -0.01176465 -0.9998616
vn 0.01176465 -0.01176465 -0.9998616
vn 0.01176465 -0.01176465 -0.9998616
vn 0.01176465 -0.01176465 -0.9998616
vn 0.01176465 -0.01176465 -0.9998616
vn 0.01176465 -0.01176465 -0.9998616
vn 0.01176465 -0.01176465 -0.9998616
vn 0.01176465 -0.01176465 -0.9998616
vn 0.01176465 -0.01176465 -0.9998616
vn 0.01176465 -0.01176465 -0.9998616
vn 0.01176465 -0.01176465 -0.9998616
vn 0.01176465 -0.01176465 -0.9998616
vn 0.01176465 -0.01176465 -0.9998616
vn 0.01176465 -0.01176465 -0.9998616
vn 0.01176465 -0.01176465 -0.9998616
vn 0.01176465 -0.01176465 -0.9998616
vn 0.01176465 -0.01176465 -0.9998616
vn -0.5764661 -0.8117585 -0.09346091
vn 0.003921568 -0.9999924 0
vn 0.003921568 -0.9999924 0
vn -0.5764661 -0.8117585 -0.09346091
vn -0.9450908 -0.3176447 -0.07684591
vn -0.9450908 -0.3176447 -0.07684591
vn -0.9450908 0.3019584 -0.1249981
vn -0.9450908 0.3019584 -0.1249981
vn -0.5843092 0.8039154 -0.1109181
vn -0.5843092 0.8039154 -0.1109181
vn 0.003921568 0.9999923 -0.000345267
vn 0.003921568 0.9999923 -0.000345267
vn 0.5981219 0.8014051 0
vn 0.003921568 0.9999923 -0.000345267
vn 0.003921568 0.9999923 -0.000345267
vn 0.5981219 0.8014051 0
vn 0.9539937 0.2998266 0
vn 0.9539937 0.2998266 0
vn 0.9510053 -0.3091746 0
vn 0.9510053 -0.3091746 0
vn 0.5893314 -0.8078914 0
vn 0.5893314 -0.8078914 0
vn 0.003921568 -0.9999924 0
vn 0.003921568 -0.9999924 0
vn 0.01176465 0.01176453 0.9998616
vn 0.01176465 -0.01176465 0.9998616
vn -0.003921509 0.01176453 0.9999231
vn -0.01176453 0.003921509 0.9999231
vn -0.01176453 -0.01960772 0.9997385
vn -0.003921509 -0.0274508 0.9996155
vn 0.01176465 -0.0274508 0.9995539
vn 0.01960772 -0.0274508 0.9994308
vn 0.0274508 -0.01960772 0.9994308
vn 0.0274508 0.003921509 0.9996155
vn 0.01960772 0.01176453 0.9997385
vn 0.01176465 -0.01176465 -0.9998616
vn 0.01176465 -0.01176465 -0.9998616
vn 0.01176465 -0.01176465 -0.9998616
vn 0.01176465 -0.01176465 -0.9998616
vn 0.01176465 -0.01176465 -0.9998616
vn 0.01176465 -0.01176465 -0.9998616
vn 0.01176465 -0.01176465 -0.9998616
vn 0.01176465 -0.01176465 -0.9998616
vn 0.01176465 -0.01176465 -0.9998616
vn 0.01176465 -0.01176465 -0.9998616
vn 0.01176465 -0.01176465 0.9998616
vn 0.01176465 -0.01176465 0.9998616
vn 0.01176465 -0.01176465 0.9998616
vn 0.01176465 -0.01176465 0.9998616
vn 0.01176465 -0.01176465 0.9998616
vn 0.01176465 -0.01176465 0.9998616
vn 0.01176465 -0.01176465 0.9998616
vn 0.01176465 -0.01176465 0.9998616
vn 0.01176465 -0.01176465 0.9998616
vn 0.01176465 -0.01176465 0.9998616
g GP_Global_Stud_Gold_0
f 3/3/3 2/2/2 1/1/1
f 4/4/4 1/1/1 2/2/2
f 4/4/4 2/2/2 5/5/5
f 6/6/6 5/5/5 2/2/2
f 5/5/5 6/6/6 7/7/7
f 8/8/8 7/7/7 6/6/6
f 7/7/7 8/8/8 9/9/9
f 10/10/10 9/9/9 8/8/8
f 9/9/9 10/10/10 11/11/11
f 12/12/12 11/11/11 10/10/10
f 15/15/15 14/14/14 13/13/13
f 16/16/16 13/13/13 14/14/14
f 13/13/13 16/16/16 17/17/17
f 18/18/18 17/17/17 16/16/16
f 17/17/17 18/18/18 19/19/19
f 20/20/20 19/19/19 18/18/18
f 19/19/19 20/20/20 21/21/21
f 22/22/22 21/21/21 20/20/20
f 21/21/21 22/22/22 23/23/23
f 24/24/24 23/23/23 22/22/22
f 27/27/27 26/26/26 25/25/25
f 28/28/28 25/25/25 26/26/26
f 25/25/25 28/28/28 29/29/29
f 30/30/30 29/29/29 28/28/28
f 29/29/29 30/30/30 31/31/31
f 32/32/32 31/31/31 30/30/30
f 31/31/31 32/32/32 33/33/33
f 34/34/34 33/33/33 32/32/32
f 33/33/33 34/34/34 35/35/35
f 36/36/36 35/35/35 34/34/34
f 39/39/39 38/38/38 37/37/37
f 40/40/40 37/37/37 38/38/38
f 37/37/37 40/40/40 41/41/41
f 42/42/42 41/41/41 40/40/40
f 41/41/41 42/42/42 43/43/43
f 44/44/44 43/43/43 42/42/42
f 43/43/43 44/44/44 45/45/45
f 46/46/46 45/45/45 44/44/44
f 45/45/45 46/46/46 47/47/47
f 48/48/48 47/47/47 46/46/46
f 51/51/51 50/50/50 49/49/49
f 52/52/52 49/49/49 50/50/50
f 49/49/49 52/52/52 53/53/53
f 54/54/54 53/53/53 52/52/52
f 53/53/53 54/54/54 55/55/55
f 56/56/56 55/55/55 54/54/54
f 55/55/55 56/56/56 57/57/57
f 58/58/58 57/57/57 56/56/56
f 57/57/57 58/58/58 59/59/59
f 60/60/60 59/59/59 58/58/58
f 63/63/63 62/62/62 61/61/61
f 64/64/64 61/61/61 62/62/62
f 61/61/61 64/64/64 65/65/65
f 66/66/66 65/65/65 64/64/64
f 65/65/65 66/66/66 67/67/67
f 68/68/68 67/67/67 66/66/66
f 67/67/67 68/68/68 69/69/69
f 70/70/70 69/69/69 68/68/68
f 69/69/69 70/70/70 71/71/71
f 72/72/72 71/71/71 70/70/70
f 75/75/75 74/74/74 73/73/73
f 76/76/76 73/73/73 74/74/74
f 73/73/73 76/76/76 77/77/77
f 78/78/78 77/77/77 76/76/76
f 77/77/77 78/78/78 79/79/79
f 80/80/80 79/79/79 78/78/78
f 79/79/79 80/80/80 81/81/81
f 82/82/82 81/81/81 80/80/80
f 81/81/81 82/82/82 83/83/83
f 84/84/84 83/83/83 82/82/82
f 83/83/83 84/84/84 85/85/85
f 86/86/86 85/85/85 84/84/84
f 85/85/85 86/86/86 87/87/87
f 88/88/88 87/87/87 86/86/86
f 87/87/87 88/88/88 89/89/89
f 90/90/90 89/89/89 88/88/88
f 89/89/89 90/90/90 91/91/91
f 92/92/92 91/91/91 90/90/90
f 91/91/91 92/92/92 75/75/75
f 74/74/74 75/75/75 92/92/92
f 95/95/95 94/94/94 93/93/93
f 96/96/96 93/93/93 94/94/94
f 93/93/93 96/96/96 97/97/97
f 98/98/98 97/97/97 96/96/96
f 97/97/97 98/98/98 99/99/99
f 100/100/100 99/99/99 98/98/98
f 99/99/99 100/100/100 101/101/101
f 102/102/102 101/101/101 100/100/100
f 101/101/101 102/102/102 103/103/103
f 104/104/104 103/103/103 102/102/102
f 107/107/107 106/106/106 105/105/105
f 108/108/108 105/105/105 106/106/106
f 105/105/105 108/108/108 109/109/109
f 110/110/110 109/109/109 108/108/108
f 109/109/109 110/110/110 111/111/111
f 112/112/112 111/111/111 110/110/110
f 111/111/111 112/112/112 113/113/113
f 114/114/114 113/113/113 112/112/112
f 113/113/113 114/114/114 115/115/115
f 116/116/116 115/115/115 114/114/114
f 119/119/119 118/118/118 117/117/117
f 120/120/120 117/117/117 118/118/118
f 117/117/117 120/120/120 121/121/121
f 122/122/122 121/121/121 120/120/120
f 121/121/121 122/122/122 123/123/123
f 124/124/124 123/123/123 122/122/122
f 123/123/123 124/124/124 125/125/125
f 126/126/126 125/125/125 124/124/124
f 125/125/125 126/126/126 127/127/127
f 128/128/128 127/127/127 126/126/126
f 127/127/127 128/128/128 129/129/129
f 130/130/130 129/129/129 128/128/128
f 129/129/129 130/130/130 131/131/131
f 132/132/132 131/131/131 130/130/130
f 131/131/131 132/132/132 133/133/133
f 134/134/134 133/133/133 132/132/132
f 133/133/133 134/134/134 135/135/135
f 136/136/136 135/135/135 134/134/134
f 135/135/135 136/136/136 119/119/119
f 118/118/118 119/119/119 136/136/136
f 139/139/139 138/138/138 137/137/137
f 140/140/140 137/137/137 138/138/138
f 137/137/137 140/140/140 141/141/141
f 142/142/142 141/141/141 140/140/140
f 141/141/141 142/142/142 143/143/143
f 144/144/144 143/143/143 142/142/142
f 143/143/143 144/144/144 145/145/145
f 146/146/146 145/145/145 144/144/144
f 145/145/145 146/146/146 147/147/147
f 148/148/148 147/147/147 146/146/146
f 151/151/151 150/150/150 149/149/149
f 152/152/152 149/149/149 150/150/150
f 149/149/149 152/152/152 153/153/153
f 154/154/154 153/153/153 152/152/152
f 153/153/153 154/154/154 155/155/155
f 156/156/156 155/155/155 154/154/154
f 155/155/155 156/156/156 157/157/157
f 158/158/158 157/157/157 156/156/156
f 157/157/157 158/158/158 159/159/159
f 160/160/160 159/159/159 158/158/158
f 163/163/163 162/162/162 161/161/161
f 164/164/164 162/162/162 163/163/163
f 164/164/164 165/165/165 162/162/162
f 166/166/166 162/162/162 165/165/165
f 167/167/167 162/162/162 166/166/166
f 168/168/168 162/162/162 167/167/167
f 169/169/169 162/162/162 168/168/168
f 169/169/169 170/170/170 162/162/162
f 171/171/171 162/162/162 170/170/170
f 161/161/161 162/162/162 171/171/171
f 174/174/174 173/173/173 172/172/172
f 175/175/175 172/172/172 173/173/173
f 175/175/175 176/176/176 172/172/172
f 177/177/177 172/172/172 176/176/176
f 174/174/174 178/178/178 173/173/173
f 179/179/179 173/173/173 178/178/178
f 176/176/176 180/180/180 177/177/177
f 181/181/181 177/177/177 180/180/180
f 184/184/184 183/183/183 182/182/182
f 184/184/184 185/185/185 183/183/183
f 186/186/186 183/183/183 185/185/185
f 185/185/185 187/187/187 186/186/186
f 188/188/188 186/186/186 187/187/187
f 187/187/187 189/189/189 188/188/188
f 190/190/190 188/188/188 189/189/189
f 191/191/191 190/190/190 189/189/189
