<?xml version="1.0" encoding="UTF-8" standalone="no"?>
<svg xmlns:xlink="http://www.w3.org/1999/xlink" height="49.0px" width="104.0px" xmlns="http://www.w3.org/2000/svg">
  <g transform="matrix(1.0, 0.0, 0.0, 1.0, 232.95, 23.5)">
    <path d="M-184.45 -23.0 L-184.45 25.0 -232.45 25.0 -232.45 -23.0 -184.45 -23.0 M-129.45 -23.0 L-129.45 25.0 -177.45 25.0 -177.45 -23.0 -129.45 -23.0 M-146.95 1.0 L-157.45 -9.5 -157.45 11.5 -146.95 1.0 M-204.45 11.75 L-204.45 -9.25 -214.95 1.25 -204.45 11.75" fill="#ffffff" fill-rule="evenodd" stroke="none"/>
    <path d="M-204.45 11.75 L-214.95 1.25 -204.45 -9.25 -204.45 11.75 M-146.95 1.0 L-157.45 11.5 -157.45 -9.5 -146.95 1.0" fill="#333333" fill-rule="evenodd" stroke="none"/>
    <path d="M-184.45 -23.0 L-184.45 25.0 -232.45 25.0 -232.45 -23.0 -184.45 -23.0 M-129.45 -23.0 L-129.45 25.0 -177.45 25.0 -177.45 -23.0 -129.45 -23.0" fill="none" stroke="#666666" stroke-linecap="butt" stroke-linejoin="miter-clip" stroke-miterlimit="3.0" stroke-width="1.0"/>
  </g>
</svg>
