<?xml version="1.0" encoding="UTF-8" standalone="no"?>
<svg xmlns:xlink="http://www.w3.org/1999/xlink" height="495.2px" width="495.2px" xmlns="http://www.w3.org/2000/svg">
  <g transform="matrix(1.0, 0.0, 0.0, 1.0, 247.6, 247.6)">
    <path d="M-174.8 -175.35 L0.3 -0.25 0.4 -0.1 0.25 -0.15 -207.2 -136.4 Q-193.5 -156.7 -175.1 -175.1 L-174.8 -175.35" fill="url(#gradient0)" fill-rule="evenodd" stroke="none"/>
    <path d="M12.6 -247.3 Q30.8 -246.5 48.0 -243.3 L0.5 -0.25 0.5 -247.6 12.6 -247.3" fill="url(#gradient1)" fill-rule="evenodd" stroke="none"/>
    <path d="M209.35 -133.1 Q219.45 -117.65 226.9 -101.0 L229.6 -94.8 0.7 -0.15 205.9 -138.25 209.35 -133.1" fill="url(#gradient2)" fill-rule="evenodd" stroke="none"/>
    <path d="M247.6 0.0 L247.55 6.3 Q247.1 26.9 243.65 46.3 L243.45 47.55 0.7 0.05 0.5 -0.05 0.55 -0.05 0.65 -0.1 247.6 -0.1 247.6 0.0" fill="url(#gradient3)" fill-rule="evenodd" stroke="none"/>
    <path d="M0.8 0.25 L175.35 174.8 175.05 175.05 Q163.6 186.5 151.45 196.15 145.2 201.1 138.8 205.55 L0.6 0.1 0.8 0.25" fill="url(#gradient4)" fill-rule="evenodd" stroke="none"/>
    <path d="M0.5 0.25 L0.5 247.6 0.0 247.6 Q-24.45 247.6 -47.2 243.5 L0.45 0.0 0.5 0.25" fill="url(#gradient5)" fill-rule="evenodd" stroke="none"/>
    <path d="M0.4 -0.05 L-242.85 50.35 Q-247.6 26.15 -247.6 0.0 L-247.6 -0.1 0.2 -0.1 0.4 -0.05" fill="url(#gradient6)" fill-rule="evenodd" stroke="none"/>
    <path d="M-229.45 95.05 L0.3 0.05 -205.65 138.65 Q-220.0 117.85 -229.45 95.05" fill="url(#gradient7)" fill-rule="evenodd" stroke="none"/>
  </g>
  <defs>
    <linearGradient gradientTransform="matrix(-0.1095, -0.1044, 0.0213, -0.0223, -102.6, -71.6)" gradientUnits="userSpaceOnUse" id="gradient0" spreadMethod="pad" x1="-819.2" x2="819.2">
      <stop offset="0.0" stop-color="#ffffff"/>
      <stop offset="1.0" stop-color="#ffffff" stop-opacity="0.0"/>
    </linearGradient>
    <linearGradient gradientTransform="matrix(0.0092, -0.1507, 0.0291, 0.0018, 16.7, -123.2)" gradientUnits="userSpaceOnUse" id="gradient1" spreadMethod="pad" x1="-819.2" x2="819.2">
      <stop offset="0.0" stop-color="#ffffff"/>
      <stop offset="1.0" stop-color="#ffffff" stop-opacity="0.0"/>
    </linearGradient>
    <linearGradient gradientTransform="matrix(0.133, -0.0717, 0.0143, 0.0266, 109.9, -58.45)" gradientUnits="userSpaceOnUse" id="gradient2" spreadMethod="pad" x1="-819.2" x2="819.2">
      <stop offset="0.0" stop-color="#ffffff"/>
      <stop offset="1.0" stop-color="#ffffff" stop-opacity="0.0"/>
    </linearGradient>
    <linearGradient gradientTransform="matrix(0.1507, 0.0066, -0.0013, 0.0291, 123.35, 18.35)" gradientUnits="userSpaceOnUse" id="gradient3" spreadMethod="pad" x1="-819.2" x2="819.2">
      <stop offset="0.0" stop-color="#ffffff"/>
      <stop offset="1.0" stop-color="#ffffff" stop-opacity="0.0"/>
    </linearGradient>
    <linearGradient gradientTransform="matrix(0.0885, 0.1225, -0.0236, 0.017, 85.65, 91.35)" gradientUnits="userSpaceOnUse" id="gradient4" spreadMethod="pad" x1="-819.2" x2="819.2">
      <stop offset="0.0" stop-color="#ffffff"/>
      <stop offset="1.0" stop-color="#ffffff" stop-opacity="0.0"/>
    </linearGradient>
    <linearGradient gradientTransform="matrix(-0.0237, 0.1495, -0.0288, -0.0046, -4.15, 124.85)" gradientUnits="userSpaceOnUse" id="gradient5" spreadMethod="pad" x1="-819.2" x2="819.2">
      <stop offset="0.0" stop-color="#ffffff"/>
      <stop offset="1.0" stop-color="#ffffff" stop-opacity="0.0"/>
    </linearGradient>
    <linearGradient gradientTransform="matrix(-0.1496, 0.0244, -0.005, -0.0304, -124.5, 5.4)" gradientUnits="userSpaceOnUse" id="gradient6" spreadMethod="pad" x1="-819.2" x2="819.2">
      <stop offset="0.0" stop-color="#ffffff"/>
      <stop offset="1.0" stop-color="#ffffff" stop-opacity="0.0"/>
    </linearGradient>
    <linearGradient gradientTransform="matrix(-0.1266, 0.0833, -0.0166, -0.0252, -115.55, 49.8)" gradientUnits="userSpaceOnUse" id="gradient7" spreadMethod="pad" x1="-819.2" x2="819.2">
      <stop offset="0.0" stop-color="#ffffff"/>
      <stop offset="1.0" stop-color="#ffffff" stop-opacity="0.0"/>
    </linearGradient>
  </defs>
</svg>
