<?xml version="1.0" encoding="UTF-8" standalone="no"?>
<svg xmlns:xlink="http://www.w3.org/1999/xlink" height="484.35px" width="496.5px" xmlns="http://www.w3.org/2000/svg">
  <g transform="matrix(1.0, 0.0, 0.0, 1.0, 248.25, 242.15)">
    <path d="M129.0 -216.0 Q144.65 -206.6 158.25 -195.6 L0.55 -4.6 118.55 -222.0 129.0 -216.0" fill="url(#gradient0)" fill-rule="evenodd" stroke="none"/>
    <path d="M0.35 -4.5 L-237.45 -76.25 Q-230.05 -99.75 -217.6 -122.75 L-217.55 -122.85 0.25 -4.65 0.35 -4.5" fill="url(#gradient1)" fill-rule="evenodd" stroke="none"/>
    <path d="M0.6 -4.45 L217.65 113.35 217.6 113.45 214.55 119.0 Q204.3 136.9 192.05 152.3 L191.25 153.3 0.6 -4.25 0.45 -4.45 0.5 -4.45 0.6 -4.45" fill="url(#gradient2)" fill-rule="evenodd" stroke="none"/>
    <path d="M0.25 -4.7 L-117.05 -223.4 Q-95.3 -234.65 -70.35 -242.1 L-70.0 -242.15 0.35 -4.7 0.4 -4.55 0.25 -4.7" fill="url(#gradient3)" fill-rule="evenodd" stroke="none"/>
    <path d="M247.5 -21.8 Q248.95 -3.35 247.6 14.85 L247.0 21.6 0.65 -4.45 246.9 -27.95 247.5 -21.8" fill="url(#gradient4)" fill-rule="evenodd" stroke="none"/>
    <path d="M70.35 232.7 Q54.85 237.3 39.55 240.0 L23.95 242.2 0.5 -4.25 0.6 -4.05 70.7 232.65 70.35 232.7" fill="url(#gradient5)" fill-rule="evenodd" stroke="none"/>
    <path d="M0.35 -4.2 L-117.65 213.2 -118.1 212.95 Q-139.6 201.3 -157.65 186.85 L0.4 -4.45 0.35 -4.2" fill="url(#gradient6)" fill-rule="evenodd" stroke="none"/>
    <path d="M-247.0 -30.55 L0.25 -4.45 -246.9 19.1 Q-249.55 -6.0 -247.0 -30.55" fill="url(#gradient7)" fill-rule="evenodd" stroke="none"/>
  </g>
  <defs>
    <linearGradient gradientTransform="matrix(0.08, -0.128, 0.0247, 0.0154, 73.45, -105.0)" gradientUnits="userSpaceOnUse" id="gradient0" spreadMethod="pad" x1="-819.2" x2="819.2">
      <stop offset="0.0" stop-color="#ffffff"/>
      <stop offset="1.0" stop-color="#ffffff" stop-opacity="0.0"/>
    </linearGradient>
    <linearGradient gradientTransform="matrix(-0.1431, -0.0499, 0.0102, -0.0291, -112.0, -59.3)" gradientUnits="userSpaceOnUse" id="gradient1" spreadMethod="pad" x1="-819.2" x2="819.2">
      <stop offset="0.0" stop-color="#ffffff"/>
      <stop offset="1.0" stop-color="#ffffff" stop-opacity="0.0"/>
    </linearGradient>
    <linearGradient gradientTransform="matrix(0.1293, 0.0777, -0.015, 0.025, 99.65, 70.35)" gradientUnits="userSpaceOnUse" id="gradient2" spreadMethod="pad" x1="-819.2" x2="819.2">
      <stop offset="0.0" stop-color="#ffffff"/>
      <stop offset="1.0" stop-color="#ffffff" stop-opacity="0.0"/>
    </linearGradient>
    <linearGradient gradientTransform="matrix(-0.0465, -0.144, 0.0294, -0.0095, -56.0, -116.55)" gradientUnits="userSpaceOnUse" id="gradient3" spreadMethod="pad" x1="-819.2" x2="819.2">
      <stop offset="0.0" stop-color="#ffffff"/>
      <stop offset="1.0" stop-color="#ffffff" stop-opacity="0.0"/>
    </linearGradient>
    <linearGradient gradientTransform="matrix(0.1511, 5.0E-4, -1.0E-4, 0.0302, 124.5, -3.55)" gradientUnits="userSpaceOnUse" id="gradient4" spreadMethod="pad" x1="-819.2" x2="819.2">
      <stop offset="0.0" stop-color="#ffffff"/>
      <stop offset="1.0" stop-color="#ffffff" stop-opacity="0.0"/>
    </linearGradient>
    <linearGradient gradientTransform="matrix(0.0193, 0.1498, -0.0288, 0.0037, 31.7, 116.5)" gradientUnits="userSpaceOnUse" id="gradient5" spreadMethod="pad" x1="-819.2" x2="819.2">
      <stop offset="0.0" stop-color="#ffffff"/>
      <stop offset="1.0" stop-color="#ffffff" stop-opacity="0.0"/>
    </linearGradient>
    <linearGradient gradientTransform="matrix(-0.0921, 0.1201, -0.0231, -0.0177, -63.2, 103.1)" gradientUnits="userSpaceOnUse" id="gradient6" spreadMethod="pad" x1="-819.2" x2="819.2">
      <stop offset="0.0" stop-color="#ffffff"/>
      <stop offset="1.0" stop-color="#ffffff" stop-opacity="0.0"/>
    </linearGradient>
    <linearGradient gradientTransform="matrix(-0.151, 0.0128, -0.0025, -0.0301, -125.3, -16.0)" gradientUnits="userSpaceOnUse" id="gradient7" spreadMethod="pad" x1="-819.2" x2="819.2">
      <stop offset="0.0" stop-color="#ffffff"/>
      <stop offset="1.0" stop-color="#ffffff" stop-opacity="0.0"/>
    </linearGradient>
  </defs>
</svg>
