<?xml version="1.0" encoding="UTF-8" standalone="no"?>
<svg xmlns:xlink="http://www.w3.org/1999/xlink" height="111.9px" width="192.3px" xmlns="http://www.w3.org/2000/svg">
  <g transform="matrix(1.0, 0.0, 0.0, 1.0, 97.8, 44.6)">
    <path d="M89.2 48.9 L-4.3 48.9 -4.3 -44.6 89.2 -44.6 89.2 48.9" fill="#ffffff" fill-rule="evenodd" stroke="none"/>
    <path d="M89.2 48.9 L-4.3 48.9 -4.3 -44.6 89.2 -44.6 89.2 48.9" fill="#ffffff" fill-rule="evenodd" stroke="none"/>
    <path d="M-4.3 48.9 L-97.8 48.9 -97.8 -44.6 -4.3 -44.6 -4.3 48.9" fill="#000000" fill-rule="evenodd" stroke="none"/>
    <path d="M-40.8 -10.75 Q-44.3 -12.85 -48.4 -12.85 -54.65 -12.85 -59.05 -8.45 -63.45 -4.05 -63.45 2.15 -63.45 8.4 -59.05 12.8 -54.65 17.2 -48.4 17.2 -44.3 17.2 -40.8 15.1 -37.35 13.05 -35.4 9.6 L-12.2 22.85 Q-17.65 32.45 -27.2 38.1 -36.95 43.9 -48.4 43.9 -56.9 43.9 -64.7 40.6 -72.15 37.45 -77.95 31.65 -83.75 25.9 -86.9 18.4 -90.15 10.65 -90.15 2.15 -90.15 -6.35 -86.9 -14.1 -83.7 -21.6 -77.95 -27.35 -72.15 -33.15 -64.7 -36.3 -56.9 -39.6 -48.4 -39.6 -36.95 -39.6 -27.2 -33.8 -17.7 -28.15 -12.2 -18.55 L-35.4 -5.3 Q-37.35 -8.75 -40.8 -10.75" fill="#ffffff" fill-rule="evenodd" stroke="none"/>
    <path d="M82.55 -37.9 L82.55 42.25 55.8 42.25 29.1 8.85 29.1 42.25 2.4 42.25 2.4 -37.9 29.1 -37.9 55.8 -4.55 55.8 -37.9 82.55 -37.9" fill="#000000" fill-rule="evenodd" stroke="none"/>
    <path d="M40.15 55.6 L41.1 60.6 43.0 56.0 44.9 60.6 45.85 55.6 49.7 55.6 47.5 67.05 44.35 67.05 43.0 63.95 41.65 67.05 38.45 67.05 36.3 55.6 40.15 55.6" fill="#ffffff" fill-rule="evenodd" stroke="none"/>
    <path d="M35.35 55.6 L35.35 58.95 31.8 58.95 31.8 67.05 27.5 67.05 27.5 58.95 23.9 58.95 23.9 55.6 35.35 55.6" fill="#ffffff" fill-rule="evenodd" stroke="none"/>
    <path d="M60.15 57.1 Q61.9 58.85 61.9 61.3 61.9 63.8 60.15 65.55 58.4 67.3 55.95 67.3 53.45 67.3 51.7 65.55 50.0 63.8 50.0 61.3 50.0 58.85 51.7 57.1 53.45 55.35 55.95 55.35 58.4 55.35 60.15 57.1 M58.1 61.3 Q58.1 60.45 57.45 59.8 56.8 59.15 55.95 59.15 55.05 59.15 54.4 59.8 53.8 60.45 53.8 61.3 53.8 62.2 54.4 62.85 55.05 63.45 55.95 63.45 56.8 63.45 57.45 62.85 58.1 62.2 58.1 61.3" fill="#ffffff" fill-rule="evenodd" stroke="none"/>
    <path d="M-0.4 55.6 L3.4 55.6 7.2 60.35 7.2 55.6 11.05 55.6 11.05 67.05 7.2 67.05 3.4 62.25 3.4 67.05 -0.4 67.05 -0.4 55.6" fill="#ffffff" fill-rule="evenodd" stroke="none"/>
    <path d="M22.65 55.6 L22.65 58.95 16.45 58.95 16.45 59.95 21.7 59.95 21.7 62.8 16.45 62.8 16.45 63.95 22.65 63.95 22.65 67.05 12.65 67.05 12.65 55.6 22.65 55.6" fill="#ffffff" fill-rule="evenodd" stroke="none"/>
    <path d="M72.85 56.85 Q74.0 58.0 74.0 59.65 74.0 60.8 73.35 61.75 72.75 62.7 71.75 63.25 L74.0 67.05 69.75 67.05 68.05 63.7 66.85 63.7 66.85 67.05 63.05 67.05 63.05 55.6 69.7 55.6 Q71.6 55.6 72.85 56.85 M66.85 60.85 L69.25 60.85 Q69.65 60.85 69.9 60.55 L70.2 59.9 69.9 59.2 Q69.65 58.95 69.25 58.95 L66.85 58.95 66.85 60.85" fill="#ffffff" fill-rule="evenodd" stroke="none"/>
    <path d="M79.0 55.6 L79.0 59.35 81.85 55.6 86.75 55.6 82.3 61.1 86.75 67.05 81.85 67.05 79.0 62.8 79.0 67.05 75.2 67.05 75.2 55.6 79.0 55.6" fill="#ffffff" fill-rule="evenodd" stroke="none"/>
    <path d="M-74.55 67.05 L-75.1 65.15 -78.75 65.15 -79.3 67.05 -83.4 67.05 -79.8 55.6 -74.1 55.6 -70.5 67.05 -74.55 67.05 M-77.95 62.3 L-75.95 62.3 -76.95 58.75 -77.95 62.3" fill="#ffffff" fill-rule="evenodd" stroke="none"/>
    <path d="M-45.95 55.6 L-45.95 58.95 -49.55 58.95 -49.55 67.05 -53.85 67.05 -53.85 58.95 -57.4 58.95 -57.4 55.6 -45.95 55.6" fill="#ffffff" fill-rule="evenodd" stroke="none"/>
    <path d="M-85.75 56.15 Q-84.4 57.0 -83.6 58.35 L-86.7 60.15 -87.55 59.25 Q-88.1 58.95 -88.75 58.95 -89.75 58.95 -90.45 59.65 -91.1 60.35 -91.1 61.3 -91.1 62.3 -90.45 63.0 -89.75 63.65 -88.75 63.65 L-87.55 63.35 -86.7 62.5 -83.6 64.25 Q-84.4 65.65 -85.75 66.45 -87.15 67.3 -88.75 67.3 -91.25 67.3 -93.0 65.55 -94.75 63.8 -94.75 61.3 -94.75 58.85 -93.0 57.1 -91.25 55.35 -88.75 55.35 -87.15 55.35 -85.75 56.15" fill="#ffffff" fill-rule="evenodd" stroke="none"/>
    <path d="M-39.5 55.35 Q-37.05 55.35 -35.3 57.1 -33.55 58.85 -33.55 61.3 -33.55 63.8 -35.3 65.55 -37.05 67.3 -39.5 67.3 -42.0 67.3 -43.7 65.55 -45.5 63.8 -45.5 61.3 -45.5 58.85 -43.7 57.1 -42.0 55.35 -39.5 55.35 M-37.35 61.3 Q-37.35 60.45 -38.0 59.8 -38.65 59.2 -39.5 59.2 -40.4 59.2 -41.05 59.8 -41.65 60.45 -41.65 61.3 -41.65 62.2 -41.05 62.85 -40.4 63.45 -39.5 63.45 -38.65 63.45 -38.0 62.85 -37.35 62.2 -37.35 61.3" fill="#ffffff" fill-rule="evenodd" stroke="none"/>
    <path d="M-26.65 55.35 Q-24.15 55.35 -22.4 57.1 -20.65 58.85 -20.65 61.3 -20.65 63.8 -22.4 65.55 -24.15 67.3 -26.65 67.3 -29.1 67.3 -30.85 65.55 -32.6 63.8 -32.6 61.3 -32.6 58.85 -30.85 57.1 -29.1 55.35 -26.65 55.35 M-24.5 61.3 Q-24.5 60.45 -25.1 59.8 -25.75 59.2 -26.65 59.2 -27.5 59.2 -28.15 59.8 -28.8 60.45 -28.8 61.3 -28.8 62.2 -28.15 62.85 -27.5 63.45 -26.65 63.45 -25.75 63.45 -25.1 62.85 -24.5 62.2 -24.5 61.3" fill="#ffffff" fill-rule="evenodd" stroke="none"/>
    <path d="M-19.55 55.6 L-15.7 55.6 -11.9 60.35 -11.9 55.6 -8.1 55.6 -8.1 67.05 -11.9 67.05 -15.7 62.3 -15.7 67.05 -19.55 67.05 -19.55 55.6" fill="#ffffff" fill-rule="evenodd" stroke="none"/>
    <path d="M-65.55 58.95 L-65.55 60.85 -63.2 60.85 Q-62.8 60.85 -62.5 60.55 L-62.25 59.9 Q-62.25 59.5 -62.5 59.2 -62.8 58.95 -63.2 58.95 L-65.55 58.95 M-58.4 59.65 Q-58.4 60.8 -59.05 61.8 -59.65 62.7 -60.7 63.25 L-58.4 67.05 -62.65 67.05 -64.35 63.7 -65.55 63.7 -65.55 67.05 -69.4 67.05 -69.4 55.6 -62.7 55.6 Q-60.8 55.6 -59.55 56.85 -58.4 58.0 -58.4 59.65" fill="#ffffff" fill-rule="evenodd" stroke="none"/>
    <path d="M91.05 63.9 L91.05 64.5 90.1 64.5 90.1 67.1 89.45 67.1 89.45 64.5 88.5 64.5 88.5 63.9 91.05 63.9" fill="#ffffff" fill-rule="evenodd" stroke="none"/>
    <path d="M94.5 63.9 L94.5 67.1 93.9 67.1 93.9 64.45 93.3 67.1 92.65 67.1 92.05 64.45 92.05 67.1 91.45 67.1 91.45 63.9 92.4 63.9 92.95 66.4 93.55 63.9 94.5 63.9" fill="#ffffff" fill-rule="evenodd" stroke="none"/>
  </g>
</svg>
