<?xml version="1.0" encoding="UTF-8" standalone="no"?>
<svg xmlns:xlink="http://www.w3.org/1999/xlink" height="44.0px" width="326.35px" xmlns="http://www.w3.org/2000/svg">
  <g transform="matrix(1.0, 0.0, 0.0, 1.0, 0.0, 0.0)">
    <path d="M319.9 37.55 Q313.65 43.75 304.35 44.0 L22.0 44.0 Q12.65 43.75 6.45 37.55 0.25 31.35 0.0 22.0 0.25 12.65 6.45 6.45 12.65 0.25 22.0 0.0 L304.35 0.0 Q313.65 0.25 319.9 6.45 326.1 12.65 326.35 22.0 326.1 31.35 319.9 37.55" fill="#ffffff" fill-rule="evenodd" stroke="none"/>
    <path d="M304.35 38.0 L22.0 38.0 Q15.2 37.85 10.7 33.3 6.15 28.8 6.0 22.0 6.15 15.2 10.7 10.7 15.2 6.15 22.0 6.0 L304.35 6.0 Q311.15 6.15 315.65 10.7 320.15 15.2 320.35 22.0 320.15 28.8 315.65 33.3 311.15 37.85 304.35 38.0" fill="#6e6e6e" fill-rule="evenodd" stroke="none"/>
  </g>
</svg>
