<?xml version="1.0" encoding="UTF-8" standalone="no"?>
<svg xmlns:xlink="http://www.w3.org/1999/xlink" height="80.0px" width="422.95px" xmlns="http://www.w3.org/2000/svg">
  <g transform="matrix(1.0, 0.0, 0.0, 1.0, 40.15, -44.0)">
    <path d="M-14.15 44.0 L18.85 124.0 -7.15 124.0 -40.15 44.0 -14.15 44.0" fill="#000000" fill-rule="evenodd" stroke="none"/>
    <path d="M37.8 44.0 L70.8 124.0 44.8 124.0 11.8 44.0 37.8 44.0" fill="#000000" fill-rule="evenodd" stroke="none"/>
    <path d="M96.8 124.0 L63.8 44.0 89.8 44.0 122.8 124.0 96.8 124.0" fill="#000000" fill-rule="evenodd" stroke="none"/>
    <path d="M141.8 44.0 L174.8 124.0 148.8 124.0 115.8 44.0 141.8 44.0" fill="#000000" fill-rule="evenodd" stroke="none"/>
    <path d="M193.8 44.0 L226.8 124.0 200.8 124.0 167.8 44.0 193.8 44.0" fill="#000000" fill-rule="evenodd" stroke="none"/>
    <path d="M252.8 124.0 L219.8 44.0 245.8 44.0 278.8 124.0 252.8 124.0" fill="#000000" fill-rule="evenodd" stroke="none"/>
    <path d="M297.8 44.0 L330.8 124.0 304.8 124.0 271.8 44.0 297.8 44.0" fill="#000000" fill-rule="evenodd" stroke="none"/>
    <path d="M356.8 124.0 L323.8 44.0 349.8 44.0 382.8 124.0 356.8 124.0" fill="#000000" fill-rule="evenodd" stroke="none"/>
  </g>
</svg>
