<?xml version="1.0" encoding="UTF-8" standalone="no"?>
<svg xmlns:xlink="http://www.w3.org/1999/xlink" height="99.0px" width="326.35px" xmlns="http://www.w3.org/2000/svg">
  <g transform="matrix(1.0, 0.0, 0.0, 1.0, -137.0, -135.0)">
    <path d="M160.65 207.0 Q154.75 211.45 148.5 218.25 147.95 218.15 147.45 216.05 146.95 213.95 147.0 212.15 147.55 205.95 152.25 202.25 156.95 198.6 164.15 198.15 167.35 198.0 170.8 198.0 174.25 198.05 174.6 198.55 166.6 202.5 160.65 207.0" fill="url(#gradient0)" fill-rule="evenodd" stroke="none"/>
    <path d="M457.35 212.0 Q457.15 205.2 452.65 200.7 448.15 196.15 441.35 196.0 L159.0 196.0 Q152.2 196.15 147.7 200.7 143.15 205.2 143.0 212.0 143.15 218.8 147.7 223.3 152.2 227.85 159.0 228.0 L441.35 228.0 Q448.15 227.85 452.65 223.3 457.15 218.8 457.35 212.0 M441.35 190.0 Q450.65 190.25 456.9 196.45 463.1 202.65 463.35 212.0 463.1 221.35 456.9 227.55 450.65 233.75 441.35 234.0 L159.0 234.0 Q149.65 233.75 143.45 227.55 137.25 221.35 137.0 212.0 137.25 202.65 143.45 196.45 149.65 190.25 159.0 190.0 L441.35 190.0" fill="#ffffff" fill-rule="evenodd" stroke="none"/>
    <path d="M383.85 135.85 Q384.15 136.15 384.15 137.35 L384.15 140.7 383.9 142.15 382.6 142.45 380.7 142.45 380.7 167.25 Q380.7 168.45 380.35 168.75 L378.7 169.0 374.05 169.0 Q372.8 169.0 371.9 167.85 L370.95 166.6 358.6 150.35 358.6 162.15 360.0 162.15 361.35 162.45 361.6 163.9 361.6 167.25 Q361.6 168.45 361.3 168.75 L359.8 169.0 347.9 169.0 346.4 168.75 Q346.15 168.45 346.15 167.25 L346.15 163.9 Q346.15 162.75 346.4 162.45 346.65 162.15 347.7 162.15 L349.55 162.15 349.55 142.45 347.7 142.45 346.4 142.15 Q346.15 141.9 346.15 140.7 L346.15 137.35 Q346.15 136.15 346.45 135.85 L347.95 135.6 356.0 135.6 357.05 135.75 357.55 136.0 358.05 136.5 371.7 154.65 371.7 142.45 370.3 142.45 368.95 142.15 Q368.7 141.9 368.7 140.7 L368.7 137.35 Q368.7 136.15 368.95 135.85 L370.5 135.6 382.35 135.6 383.85 135.85 M402.05 135.0 Q405.2 135.0 407.15 135.65 409.3 136.25 412.3 138.05 L412.3 137.35 Q412.3 136.15 412.6 135.85 L414.15 135.6 417.75 135.6 419.3 135.85 Q419.6 136.15 419.6 137.35 L419.6 144.85 Q419.6 146.0 419.3 146.25 L417.75 146.55 411.0 146.55 Q409.75 146.55 409.25 146.0 406.7 143.2 402.4 143.2 398.05 143.2 395.15 145.8 392.3 148.3 392.3 152.25 392.3 156.15 395.2 158.75 398.15 161.4 402.4 161.4 407.8 161.4 410.5 157.1 L401.9 157.1 400.35 156.8 Q400.05 156.55 400.05 155.4 L400.05 152.0 Q400.05 150.8 400.35 150.5 L401.9 150.25 418.6 150.25 420.2 150.5 420.45 152.0 420.45 167.3 420.2 168.75 418.65 169.0 415.0 169.0 413.45 168.75 Q413.15 168.45 413.15 167.3 L413.15 165.55 Q409.45 169.6 402.15 169.6 394.3 169.6 388.75 164.55 383.3 159.55 383.3 152.3 383.3 145.05 388.75 140.05 394.3 135.0 402.05 135.0 M341.25 135.85 Q341.55 136.15 341.55 137.35 L341.55 140.7 Q341.55 141.9 341.25 142.15 L339.7 142.45 338.05 142.45 338.05 162.15 339.7 162.15 341.25 162.45 Q341.55 162.75 341.55 163.9 L341.55 167.25 Q341.55 168.45 341.25 168.75 L339.7 169.0 327.3 169.0 325.75 168.75 Q325.45 168.45 325.45 167.25 L325.45 163.9 Q325.45 162.75 325.75 162.45 326.05 162.15 327.3 162.15 L328.95 162.15 328.95 142.45 327.3 142.45 325.75 142.15 Q325.45 141.9 325.45 140.7 L325.45 137.35 Q325.45 136.15 325.75 135.85 L327.3 135.6 339.7 135.6 341.25 135.85 M222.95 145.9 Q219.95 148.5 219.95 152.3 219.95 156.0 222.95 158.7 225.9 161.4 230.1 161.4 234.35 161.4 237.25 158.65 240.15 155.95 240.15 152.2 240.15 148.5 237.25 145.9 234.3 143.2 230.1 143.2 225.9 143.2 222.95 145.9 M230.1 135.0 Q237.95 135.0 243.6 140.05 249.2 145.05 249.2 152.2 249.2 159.4 243.6 164.5 238.0 169.6 230.05 169.6 222.2 169.6 216.55 164.55 210.95 159.5 210.95 152.35 210.95 145.15 216.55 140.1 222.2 135.0 230.1 135.0 M181.15 140.7 L181.15 137.35 Q181.15 136.15 181.45 135.85 L183.0 135.6 195.2 135.6 196.75 135.85 Q197.05 136.15 197.05 137.35 L197.05 140.7 Q197.05 141.9 196.75 142.15 L195.2 142.45 193.6 142.45 193.6 162.15 200.25 162.15 200.25 160.05 Q200.25 158.65 200.55 158.4 200.9 158.05 202.2 158.05 L207.35 158.05 Q208.7 158.05 209.0 158.35 209.3 158.6 209.3 159.8 L209.3 167.25 Q209.3 168.45 209.0 168.75 L207.4 169.0 183.0 169.0 181.45 168.75 Q181.15 168.45 181.15 167.25 L181.15 163.9 Q181.15 162.75 181.45 162.45 181.75 162.15 183.0 162.15 L184.6 162.15 184.6 142.45 183.0 142.45 181.45 142.15 Q181.15 141.9 181.15 140.7 M291.0 135.6 L307.65 135.6 Q315.2 135.6 319.9 140.2 324.6 144.8 324.6 152.25 324.6 159.6 319.8 164.3 315.0 169.0 307.55 169.0 L291.0 169.0 289.45 168.75 Q289.15 168.45 289.15 167.25 L289.15 163.9 Q289.15 162.75 289.45 162.45 289.75 162.15 291.0 162.15 L292.6 162.15 292.6 142.45 291.0 142.45 289.45 142.15 Q289.15 141.9 289.15 140.7 L289.15 137.35 Q289.15 136.15 289.45 135.85 L291.0 135.6 M306.7 142.45 L301.6 142.45 301.6 162.15 306.7 162.15 Q310.9 162.15 313.25 159.6 315.55 157.0 315.55 152.3 315.55 147.55 313.25 145.0 310.9 142.45 306.7 142.45 M259.3 142.45 L257.75 142.15 Q257.4 141.9 257.4 140.7 L257.4 137.35 Q257.4 136.15 257.75 135.85 L259.3 135.6 269.9 135.6 270.7 135.65 Q270.95 135.65 271.3 135.95 L272.0 136.9 283.25 162.15 284.9 162.15 Q286.15 162.15 286.45 162.45 286.75 162.75 286.75 163.9 L286.75 167.3 Q286.75 168.45 286.45 168.75 L284.9 169.0 271.9 169.0 270.35 168.75 Q270.0 168.45 270.0 167.3 L270.0 164.85 Q270.0 163.7 270.35 163.4 L271.9 163.15 273.5 163.15 272.4 160.6 262.15 160.6 261.2 163.15 262.75 163.15 264.35 163.4 Q264.65 163.7 264.65 164.85 L264.65 167.3 Q264.65 168.45 264.35 168.75 L262.75 169.0 250.4 169.0 248.8 168.75 Q248.45 168.45 248.45 167.3 L248.45 163.9 Q248.45 162.75 248.8 162.45 249.05 162.15 250.4 162.15 L252.0 162.15 260.95 142.45 259.3 142.45 M270.2 153.75 L267.3 145.25 264.35 153.75 270.2 153.75" fill="#ffffff" fill-rule="evenodd" stroke="none"/>
  </g>
  <defs>
    <radialGradient cx="0" cy="0" fx="473.6" fy="0" gradientTransform="matrix(-0.0091, -0.011, 0.0146, -0.0121, 156.15, 205.1)" gradientUnits="userSpaceOnUse" id="gradient0" r="819.2" spreadMethod="pad">
      <stop offset="0.0" stop-color="#ffffff" stop-opacity="0.67058825"/>
      <stop offset="1.0" stop-color="#ffffff" stop-opacity="0.0"/>
    </radialGradient>
  </defs>
</svg>
