<?xml version="1.0" encoding="UTF-8" standalone="no"?>
<svg xmlns:xlink="http://www.w3.org/1999/xlink" height="44.0px" width="326.35px" xmlns="http://www.w3.org/2000/svg">
  <g transform="matrix(1.0, 0.0, 0.0, 1.0, 163.15, 22.0)">
    <path d="M141.2 -22.0 Q150.5 -21.75 156.75 -15.55 162.95 -9.35 163.2 0.0 162.95 9.35 156.75 15.55 150.5 21.75 141.2 22.0 L-141.15 22.0 Q-150.5 21.75 -156.7 15.55 -162.9 9.35 -163.15 0.0 -162.9 -9.35 -156.7 -15.55 -150.5 -21.75 -141.15 -22.0 L141.2 -22.0 M152.5 -11.3 Q148.0 -15.85 141.2 -16.0 L-141.15 -16.0 Q-147.95 -15.85 -152.45 -11.3 -157.0 -6.8 -157.15 0.0 -157.0 6.8 -152.45 11.3 -147.95 15.85 -141.15 16.0 L141.2 16.0 Q148.0 15.85 152.5 11.3 157.0 6.8 157.2 0.0 157.0 -6.8 152.5 -11.3" fill="#ffffff" fill-rule="evenodd" stroke="none"/>
  </g>
</svg>
