<?xml version="1.0" encoding="UTF-8" standalone="no"?>
<svg xmlns:xlink="http://www.w3.org/1999/xlink" height="34.6px" width="239.3px" xmlns="http://www.w3.org/2000/svg">
  <g transform="matrix(1.0, 0.0, 0.0, 1.0, 119.65, 17.3)">
    <path d="M83.05 -16.45 Q83.35 -16.15 83.35 -14.95 L83.35 -11.6 83.1 -10.15 Q82.85 -9.85 81.8 -9.85 L79.9 -9.85 79.9 14.95 Q79.9 16.15 79.55 16.45 L77.9 16.7 73.25 16.7 Q72.0 16.7 71.1 15.55 L70.15 14.3 57.8 -1.95 57.8 9.85 59.2 9.85 Q60.3 9.85 60.55 10.15 L60.8 11.6 60.8 14.95 Q60.8 16.15 60.5 16.45 L59.0 16.7 47.1 16.7 45.6 16.45 Q45.35 16.15 45.35 14.95 L45.35 11.6 Q45.35 10.45 45.6 10.15 45.85 9.85 46.9 9.85 L48.75 9.85 48.75 -9.85 46.9 -9.85 Q45.85 -9.85 45.6 -10.15 45.35 -10.4 45.35 -11.6 L45.35 -14.95 Q45.35 -16.15 45.65 -16.45 L47.15 -16.7 55.2 -16.7 56.25 -16.55 56.75 -16.3 57.25 -15.8 70.9 2.35 70.9 -9.85 69.5 -9.85 Q68.4 -9.85 68.15 -10.15 67.9 -10.4 67.9 -11.6 L67.9 -14.95 Q67.9 -16.15 68.15 -16.45 L69.7 -16.7 81.55 -16.7 83.05 -16.45 M101.25 -17.3 L106.35 -16.65 Q108.5 -16.05 111.5 -14.25 L111.5 -14.95 Q111.5 -16.15 111.8 -16.45 L113.35 -16.7 116.95 -16.7 118.5 -16.45 Q118.8 -16.15 118.8 -14.95 L118.8 -7.45 Q118.8 -6.3 118.5 -6.05 118.2 -5.75 116.95 -5.75 L110.2 -5.75 Q108.95 -5.75 108.45 -6.3 105.9 -9.1 101.6 -9.1 97.25 -9.1 94.35 -6.5 91.5 -4.0 91.5 -0.05 91.5 3.85 94.4 6.45 97.35 9.1 101.6 9.1 107.0 9.1 109.7 4.8 L101.1 4.8 99.55 4.5 Q99.25 4.25 99.25 3.1 L99.25 -0.3 Q99.25 -1.5 99.55 -1.8 L101.1 -2.05 117.8 -2.05 119.4 -1.8 119.65 -0.3 119.65 15.0 119.4 16.45 117.85 16.7 114.2 16.7 112.65 16.45 Q112.35 16.15 112.35 15.0 L112.35 13.25 Q108.65 17.3 101.35 17.3 93.5 17.3 87.95 12.25 82.5 7.25 82.5 0.0 82.5 -7.25 87.95 -12.25 93.5 -17.3 101.25 -17.3 M40.45 -16.45 Q40.75 -16.15 40.75 -14.95 L40.75 -11.6 Q40.75 -10.4 40.45 -10.15 L38.9 -9.85 37.25 -9.85 37.25 9.85 38.9 9.85 40.45 10.15 Q40.75 10.45 40.75 11.6 L40.75 14.95 Q40.75 16.15 40.45 16.45 L38.9 16.7 26.5 16.7 24.95 16.45 Q24.65 16.15 24.65 14.95 L24.65 11.6 Q24.65 10.45 24.95 10.15 25.25 9.85 26.5 9.85 L28.15 9.85 28.15 -9.85 26.5 -9.85 Q25.25 -9.85 24.95 -10.15 24.65 -10.4 24.65 -11.6 L24.65 -14.95 Q24.65 -16.15 24.95 -16.45 L26.5 -16.7 38.9 -16.7 40.45 -16.45 M-77.85 -6.4 Q-80.85 -3.8 -80.85 0.0 -80.85 3.7 -77.85 6.4 -74.9 9.1 -70.7 9.1 -66.45 9.1 -63.55 6.35 -60.65 3.65 -60.65 -0.1 -60.65 -3.8 -63.55 -6.4 -66.5 -9.1 -70.7 -9.1 -74.9 -9.1 -77.85 -6.4 M-70.7 -17.3 Q-62.85 -17.3 -57.2 -12.25 -51.6 -7.25 -51.6 -0.1 -51.6 7.1 -57.2 12.2 -62.8 17.3 -70.75 17.3 -78.6 17.3 -84.25 12.25 -89.85 7.2 -89.85 0.05 -89.85 -7.15 -84.25 -12.2 -78.6 -17.3 -70.7 -17.3 M-119.65 -11.6 L-119.65 -14.95 Q-119.65 -16.15 -119.35 -16.45 L-117.8 -16.7 -105.6 -16.7 -104.05 -16.45 Q-103.75 -16.15 -103.75 -14.95 L-103.75 -11.6 Q-103.75 -10.4 -104.05 -10.15 -104.35 -9.85 -105.6 -9.85 L-107.2 -9.85 -107.2 9.85 -100.55 9.85 -100.55 7.75 Q-100.55 6.35 -100.25 6.1 -99.9 5.75 -98.6 5.75 L-93.45 5.75 -91.8 6.05 Q-91.5 6.3 -91.5 7.5 L-91.5 14.95 Q-91.5 16.15 -91.8 16.45 L-93.4 16.7 -117.8 16.7 -119.35 16.45 Q-119.65 16.15 -119.65 14.95 L-119.65 11.6 Q-119.65 10.45 -119.35 10.15 -119.05 9.85 -117.8 9.85 L-116.2 9.85 -116.2 -9.85 -117.8 -9.85 Q-119.05 -9.85 -119.35 -10.15 -119.65 -10.4 -119.65 -11.6 M-9.8 -16.7 L6.85 -16.7 Q14.4 -16.7 19.1 -12.1 23.8 -7.5 23.8 -0.05 23.8 7.3 19.0 12.0 14.2 16.7 6.75 16.7 L-9.8 16.7 -11.35 16.45 Q-11.65 16.15 -11.65 14.95 L-11.65 11.6 Q-11.65 10.45 -11.35 10.15 -11.05 9.85 -9.8 9.85 L-8.2 9.85 -8.2 -9.85 -9.8 -9.85 Q-11.05 -9.85 -11.35 -10.15 -11.65 -10.4 -11.65 -11.6 L-11.65 -14.95 Q-11.65 -16.15 -11.35 -16.45 L-9.8 -16.7 M5.9 -9.85 L0.8 -9.85 0.8 9.85 5.9 9.85 Q10.1 9.85 12.45 7.3 14.75 4.7 14.75 0.0 14.75 -4.75 12.45 -7.3 10.1 -9.85 5.9 -9.85 M-41.5 -9.85 L-43.05 -10.15 Q-43.4 -10.4 -43.4 -11.6 L-43.4 -14.95 Q-43.4 -16.15 -43.05 -16.45 L-41.5 -16.7 -30.9 -16.7 -30.1 -16.65 -29.5 -16.35 Q-29.1 -16.05 -28.8 -15.4 L-17.55 9.85 -15.9 9.85 Q-14.65 9.85 -14.35 10.15 -14.05 10.45 -14.05 11.6 L-14.05 15.0 Q-14.05 16.15 -14.35 16.45 L-15.9 16.7 -28.9 16.7 -30.45 16.45 Q-30.8 16.15 -30.8 15.0 L-30.8 12.55 Q-30.8 11.4 -30.45 11.1 L-28.9 10.85 -27.3 10.85 -28.4 8.3 -38.65 8.3 -39.6 10.85 -38.05 10.85 -36.45 11.1 Q-36.15 11.4 -36.15 12.55 L-36.15 15.0 Q-36.15 16.15 -36.45 16.45 L-38.05 16.7 -50.4 16.7 -52.0 16.45 Q-52.35 16.15 -52.35 15.0 L-52.35 11.6 Q-52.35 10.45 -52.0 10.15 -51.75 9.85 -50.4 9.85 L-48.8 9.85 -39.85 -9.85 -41.5 -9.85 M-30.6 1.45 L-33.5 -7.05 -36.45 1.45 -30.6 1.45" fill="#ffffff" fill-rule="evenodd" stroke="none"/>
  </g>
</svg>
