<?xml version="1.0" encoding="UTF-8" standalone="no"?>
<svg xmlns:xlink="http://www.w3.org/1999/xlink" height="952.3px" width="952.3px" xmlns="http://www.w3.org/2000/svg">
  <g transform="matrix(1.0, 0.0, 0.0, 1.0, 476.15, 476.15)">
    <path d="M0.05 -476.15 L0.05 -0.5 86.55 -468.95 Q133.7 -460.85 177.1 -443.6 L0.2 -0.05 261.2 -399.15 Q300.85 -372.55 336.7 -336.7 L336.75 -336.65 0.2 -0.05 0.05 -0.05 0.05 -0.5 -0.05 -0.05 -0.45 -0.45 -0.25 -0.1 -1.5 -0.6 -0.5 -0.05 -1.1 -0.05 -0.35 0.25 -0.15 0.3 -261.0 399.3 Q-300.75 372.65 -336.6 336.8 L-0.15 0.3 -0.25 0.3 -392.7 270.55 Q-420.3 231.55 -438.75 188.8 L-0.25 0.3 -466.85 97.95 Q-476.15 50.9 -476.15 0.0 L-476.15 -0.05 -1.1 -0.05 -469.0 -86.3 Q-460.9 -133.5 -443.65 -176.9 L-1.5 -0.6 -399.3 -260.95 Q-372.65 -300.75 -336.7 -336.7 L-0.45 -0.45 -270.5 -392.75 Q-231.45 -420.35 -188.65 -438.8 L-0.15 -0.25 -97.7 -466.9 Q-50.75 -476.15 0.0 -476.15 L0.05 -476.15 M0.4 -0.05 L392.95 -270.2 Q420.4 -231.3 438.85 -188.6 L0.45 -0.05 0.4 -0.05 M476.15 -0.05 L1.35 -0.05 467.0 -97.35 Q476.15 -50.6 476.15 -0.05 M443.65 177.0 L1.15 0.5 468.95 86.8 Q460.85 133.75 443.65 177.0 M336.7 336.75 L1.05 1.05 399.05 261.4 Q372.45 300.95 336.7 336.7 L336.7 336.75 M0.25 0.6 L270.35 392.9 Q231.35 420.4 188.65 438.85 L0.25 0.6 M0.05 476.15 L0.05 0.4 97.55 466.95 Q50.7 476.15 0.05 476.15 M-176.8 443.7 L-0.05 0.5 -86.55 469.0 Q-133.6 460.9 -176.8 443.7" fill="#0099ff" fill-opacity="0.9882353" fill-rule="evenodd" stroke="none"/>
  </g>
</svg>
