<?xml version="1.0" encoding="UTF-8" standalone="no"?>
<svg xmlns:xlink="http://www.w3.org/1999/xlink" height="28.9px" width="229.7px" xmlns="http://www.w3.org/2000/svg">
  <g transform="matrix(1.0, 0.0, 0.0, 1.0, 114.85, 14.0)">
    <path d="M15.4 -4.85 L15.4 -4.75 15.4 4.6 15.4 5.65 Q15.65 8.2 19.25 8.5 L22.85 8.25 22.85 5.55 22.85 4.65 19.65 4.9 19.55 0.8 19.5 -0.1 22.7 -0.5 28.6 -0.1 28.6 12.7 Q24.05 13.95 19.25 14.0 9.45 13.55 9.25 5.95 L9.25 -5.65 Q9.3 -13.65 19.25 -14.0 L27.95 -13.15 27.85 -12.25 27.2 -7.8 23.05 -8.25 19.25 -8.45 Q15.05 -8.2 15.4 -4.85 M41.3 1.35 L41.3 0.85 Q41.35 -0.7 40.7 -1.3 40.0 -1.95 37.75 -1.9 L32.35 -1.3 31.75 -4.85 31.6 -5.7 Q34.85 -6.65 38.75 -6.7 43.75 -6.8 45.55 -5.0 47.25 -3.25 47.15 0.9 L47.15 1.8 47.15 13.55 42.3 13.55 41.9 12.3 Q38.35 14.1 36.25 14.0 31.2 13.55 31.05 8.55 L31.05 7.95 Q30.95 2.15 37.0 2.35 L41.3 2.35 41.3 1.75 41.3 1.35 M50.0 13.55 L50.0 -6.3 54.4 -6.3 55.0 -4.8 Q59.05 -6.65 62.9 -6.7 65.5 -6.7 66.55 -4.8 70.15 -6.6 74.5 -6.7 79.25 -6.45 79.05 -0.45 L79.05 -0.35 79.05 0.55 79.05 13.55 73.2 13.55 73.2 1.3 73.2 0.45 Q73.2 -1.0 71.75 -1.0 69.75 -0.8 67.5 0.45 L67.5 1.35 67.5 13.55 61.6 13.55 61.6 1.35 61.6 1.2 61.6 0.45 Q61.65 -1.0 60.15 -1.0 58.15 -0.8 55.9 0.45 L55.9 1.35 55.9 13.55 50.0 13.55 M81.45 7.0 L81.45 6.85 81.45 5.9 81.45 2.15 81.45 1.5 81.45 1.25 Q81.35 -2.05 83.2 -4.35 85.1 -6.65 89.95 -6.7 94.8 -6.6 96.45 -4.2 98.1 -1.85 98.0 1.55 L98.0 2.45 98.0 5.7 87.3 5.7 87.3 6.3 87.3 7.0 Q87.5 9.35 90.9 9.15 94.0 9.1 96.95 8.3 L97.8 12.7 97.65 12.75 Q94.7 13.85 90.3 14.0 81.7 13.65 81.45 7.0 M100.75 0.4 L100.75 0.2 100.75 0.15 100.75 -0.75 Q100.65 -3.9 102.3 -5.3 103.9 -6.75 108.35 -6.7 L111.25 -6.55 114.4 -6.05 114.3 -5.15 113.85 -1.5 108.4 -2.05 Q106.05 -2.05 106.25 -0.7 L106.3 -0.25 Q106.35 0.25 106.65 0.5 L108.8 1.2 Q112.9 2.05 113.95 3.4 114.95 4.7 114.85 7.4 L114.85 7.6 114.85 7.65 Q114.9 10.75 113.3 12.35 111.65 13.95 107.45 14.0 L103.8 13.65 100.45 12.85 100.25 12.8 101.2 8.45 Q103.75 9.25 107.2 9.35 109.1 9.4 109.3 8.2 L109.25 7.65 Q109.35 6.75 108.8 6.35 108.3 5.95 106.0 5.45 102.5 4.6 101.6 3.3 100.8 2.25 100.75 0.4 M92.45 0.55 L92.45 0.45 Q92.75 -1.9 90.0 -2.1 87.1 -1.9 87.3 0.45 L87.3 0.8 87.3 1.3 92.45 1.3 92.45 0.55 M41.3 7.35 L41.3 6.45 38.45 6.45 Q36.6 6.3 36.7 7.85 L36.75 8.35 Q36.85 9.45 38.3 9.4 40.0 9.35 41.3 8.75 L41.3 7.35" fill="url(#gradient0)" fill-rule="evenodd" stroke="none"/>
    <path d="M-87.05 13.35 L-87.05 -6.5 -82.15 -6.5 -81.75 -4.55 -78.45 -6.15 Q-76.2 -7.1 -74.5 -7.25 L-74.55 -6.35 -74.95 -1.9 -78.25 -0.6 Q-80.1 0.25 -81.15 1.25 L-81.15 2.15 -81.15 13.35 -87.05 13.35 M-114.55 13.35 L-114.85 13.35 -106.55 -13.8 -98.4 -13.8 -90.1 13.35 -90.35 13.35 -96.45 13.35 -97.95 8.05 -107.0 8.05 -108.5 13.35 -114.55 13.35 M-72.35 13.35 L-72.35 -6.5 -67.95 -6.5 -67.35 -5.0 Q-63.3 -6.85 -59.4 -6.9 -56.85 -6.9 -55.8 -5.0 -52.2 -6.8 -47.85 -6.9 -43.05 -6.65 -43.25 -0.55 L-43.25 0.35 -43.25 13.35 -49.15 13.35 -49.15 1.15 -49.15 1.0 -49.15 0.25 Q-49.1 -1.2 -50.6 -1.2 -52.6 -1.0 -54.85 0.25 L-54.85 1.15 -54.85 13.35 -60.75 13.35 -60.75 1.15 -60.75 1.0 -60.75 0.25 Q-60.7 -1.2 -62.2 -1.2 -64.15 -1.0 -66.45 0.25 L-66.45 1.15 -66.45 13.35 -72.35 13.35 M-40.9 6.65 L-40.9 5.75 -40.9 2.05 -40.9 1.2 -40.9 1.15 Q-41.05 -2.05 -39.05 -4.45 -37.1 -6.8 -31.95 -6.9 -26.75 -6.8 -24.75 -4.45 -22.85 -2.05 -22.95 1.15 L-22.95 1.45 -22.95 2.05 -22.95 6.4 Q-23.05 9.15 -24.75 11.3 -26.75 13.65 -31.95 13.8 -37.15 13.65 -39.05 11.3 -40.75 9.25 -40.9 6.65 M-8.6 -6.35 L-9.0 -1.9 -12.3 -0.6 Q-14.15 0.25 -15.2 1.25 L-15.2 2.15 -15.2 13.35 -21.1 13.35 -21.1 -6.5 -16.2 -6.5 -15.75 -4.55 Q-14.7 -5.25 -12.45 -6.15 -10.2 -7.1 -8.55 -7.25 L-8.6 -6.35 M-28.8 1.75 L-28.8 0.95 Q-28.8 -1.9 -31.95 -2.0 -35.1 -1.9 -35.0 0.95 L-35.0 1.5 -35.0 1.85 -35.0 6.25 Q-34.9 8.75 -31.95 8.85 -28.85 8.75 -28.8 6.05 L-28.8 1.75 M-99.65 2.95 L-99.4 2.95 -102.5 -8.4 -105.65 2.95 -105.4 2.95 -99.65 2.95" fill="url(#gradient1)" fill-rule="evenodd" stroke="none"/>
    <path d="M15.4 4.6 L15.4 5.5 15.4 5.65 15.4 4.6 M22.85 5.55 L19.65 5.8 19.5 0.8 19.55 0.8 19.65 4.9 22.85 4.65 22.85 5.55 M28.6 12.7 L28.6 13.6 Q24.05 14.85 19.25 14.9 9.3 14.45 9.25 6.6 L9.25 5.95 Q9.45 13.55 19.25 14.0 24.05 13.95 28.6 12.7 M27.85 -12.25 L27.95 -12.25 27.2 -6.9 23.05 -7.35 19.25 -7.55 Q15.65 -7.35 15.4 -4.85 15.05 -8.2 19.25 -8.45 L23.05 -8.25 27.2 -7.8 27.85 -12.25 M31.75 -4.85 L32.35 -1.3 37.75 -1.9 Q40.0 -1.95 40.7 -1.3 41.35 -0.7 41.3 0.85 L41.3 1.35 Q41.25 0.1 40.7 -0.4 40.0 -1.05 37.75 -1.0 L32.35 -0.4 31.6 -4.8 31.75 -4.85 M31.05 8.55 Q31.2 13.55 36.25 14.0 38.35 14.1 41.9 12.3 L42.3 13.55 47.15 13.55 47.15 14.45 42.3 14.45 41.9 13.2 Q38.35 15.0 36.25 14.9 30.9 14.4 31.05 8.85 L31.05 8.55 M79.05 13.55 L79.05 14.45 73.2 14.45 73.2 13.55 79.05 13.55 M73.2 1.3 Q73.15 -0.1 71.75 -0.1 69.75 0.1 67.5 1.35 L67.5 0.45 Q69.75 -0.8 71.75 -1.0 73.2 -1.0 73.2 0.45 L73.2 1.3 M67.5 13.55 L67.5 14.45 61.6 14.45 61.6 13.55 67.5 13.55 M61.6 1.2 Q61.55 -0.1 60.15 -0.1 58.15 0.1 55.9 1.35 L55.9 0.45 Q58.15 -0.8 60.15 -1.0 61.65 -1.0 61.6 0.45 L61.6 1.2 M55.9 13.55 L55.9 14.45 50.0 14.45 50.0 13.55 55.9 13.55 M98.0 5.7 L98.0 6.6 87.3 6.6 87.3 7.0 87.3 6.3 87.3 5.7 98.0 5.7 M97.65 12.75 L97.8 13.6 Q94.8 14.75 90.3 14.9 81.15 14.5 81.45 7.0 81.7 13.65 90.3 14.0 94.7 13.85 97.65 12.75 M114.3 -5.15 L114.4 -5.15 113.85 -0.6 108.4 -1.15 Q106.5 -1.15 106.3 -0.25 L106.25 -0.7 Q106.05 -2.05 108.4 -2.05 L113.85 -1.5 114.3 -5.15 M114.85 7.65 L114.85 8.55 Q114.9 11.65 113.3 13.25 111.65 14.85 107.45 14.9 L103.8 14.55 100.25 13.7 100.45 12.85 103.8 13.65 107.45 14.0 Q111.65 13.95 113.3 12.35 114.9 10.75 114.85 7.65 M109.3 8.2 Q109.25 7.55 108.8 7.25 108.3 6.85 106.0 6.35 102.5 5.5 101.6 4.2 100.65 2.9 100.75 0.4 100.8 2.25 101.6 3.3 102.5 4.6 106.0 5.45 108.3 5.95 108.8 6.35 109.35 6.75 109.25 7.65 L109.3 8.2 M87.3 0.8 L87.3 0.45 Q87.1 -1.9 90.0 -2.1 92.75 -1.9 92.45 0.45 L92.45 0.55 Q92.25 -1.05 90.0 -1.2 87.45 -1.05 87.3 0.8 M36.75 8.35 L36.7 7.85 Q36.6 6.3 38.45 6.45 L41.3 6.45 41.3 7.35 38.45 7.35 Q36.9 7.2 36.75 8.35 M-74.55 -6.35 L-74.5 -6.35 -74.95 -1.0 -78.25 0.3 Q-80.1 1.15 -81.15 2.15 L-81.15 1.25 Q-80.1 0.25 -78.25 -0.6 L-74.95 -1.9 -74.55 -6.35 M-81.15 13.35 L-81.15 14.25 -87.05 14.25 -87.05 13.35 -81.15 13.35 M-90.35 13.35 L-90.1 14.25 -96.45 14.25 -97.95 8.95 -107.0 8.95 -108.5 14.25 -114.85 14.25 -114.55 13.35 -108.5 13.35 -107.0 8.05 -97.95 8.05 -96.45 13.35 -90.35 13.35 M-43.25 13.35 L-43.25 14.25 -49.15 14.25 -49.15 13.35 -43.25 13.35 M-49.15 1.0 Q-49.2 -0.3 -50.6 -0.3 -52.6 -0.1 -54.85 1.15 L-54.85 0.25 Q-52.6 -1.0 -50.6 -1.2 -49.1 -1.2 -49.15 0.25 L-49.15 1.0 M-54.85 13.35 L-54.85 14.25 -60.75 14.25 -60.75 13.35 -54.85 13.35 M-60.75 1.0 Q-60.8 -0.3 -62.2 -0.3 -64.15 -0.1 -66.45 1.15 L-66.45 0.25 Q-64.15 -1.0 -62.2 -1.2 -60.7 -1.2 -60.75 0.25 L-60.75 1.0 M-66.45 13.35 L-66.45 14.25 -72.35 14.25 -72.35 13.35 -66.45 13.35 M-22.95 6.4 L-22.95 6.65 Q-22.85 9.8 -24.75 12.2 -26.75 14.55 -31.95 14.7 -37.15 14.55 -39.05 12.2 -41.05 9.8 -40.9 6.65 -40.75 9.25 -39.05 11.3 -37.15 13.65 -31.95 13.8 -26.75 13.65 -24.75 11.3 -23.05 9.15 -22.95 6.4 M-15.2 2.15 L-15.2 1.25 Q-14.15 0.25 -12.3 -0.6 L-9.0 -1.9 -8.6 -6.35 -8.55 -6.35 -9.0 -1.0 -12.3 0.3 Q-14.15 1.15 -15.2 2.15 M-21.1 13.35 L-15.2 13.35 -15.2 14.25 -21.1 14.25 -21.1 13.35 M-35.0 1.5 L-35.0 0.95 Q-35.1 -1.9 -31.95 -2.0 -28.8 -1.9 -28.8 0.95 L-28.8 1.75 Q-28.85 -1.0 -31.95 -1.1 -34.9 -1.0 -35.0 1.5 M-105.4 2.95 L-105.65 2.95 -102.5 -8.4 -99.4 2.95 -99.65 2.95 -102.5 -7.5 -105.4 2.95" fill="#ffffff" fill-rule="evenodd" stroke="none"/>
  </g>
  <defs>
    <linearGradient gradientTransform="matrix(0.0, 0.0172, -1.0, 0.0, 159.65, 0.0)" gradientUnits="userSpaceOnUse" id="gradient0" spreadMethod="pad" x1="-819.2" x2="819.2">
      <stop offset="0.0" stop-color="#ffffff"/>
      <stop offset="1.0" stop-color="#bbbbbb"/>
    </linearGradient>
    <linearGradient gradientTransform="matrix(0.0, 0.0172, -1.0, 0.0, 152.25, -0.2)" gradientUnits="userSpaceOnUse" id="gradient1" spreadMethod="pad" x1="-819.2" x2="819.2">
      <stop offset="0.0" stop-color="#ffffff"/>
      <stop offset="1.0" stop-color="#bbbbbb"/>
    </linearGradient>
  </defs>
</svg>
