<?xml version="1.0" encoding="UTF-8" standalone="no"?>
<svg xmlns:xlink="http://www.w3.org/1999/xlink" height="289.75px" width="65.4px" xmlns="http://www.w3.org/2000/svg">
  <g transform="matrix(1.0, 0.0, 0.0, 1.0, 32.7, 244.15)">
    <path d="M10.6 -8.35 L8.45 -8.6 6.7 -8.6 6.7 -228.0 -0.05 -238.35 -0.05 -243.65 10.6 -228.8 10.6 -8.35" fill="#d5d5d5" fill-rule="evenodd" stroke="none"/>
    <path d="M6.7 -8.6 L8.45 -8.6 10.6 -8.35 26.0 -6.45 26.25 -6.8 Q27.4 -8.0 28.9 -8.1 30.4 -8.0 31.55 -6.8 32.7 -5.65 32.7 -4.1 L32.7 -3.85 32.7 -3.75 Q32.55 -2.35 31.55 -1.25 30.4 -0.2 28.9 -0.2 27.4 -0.2 26.25 -1.25 L26.25 -1.4 26.0 -1.6 7.3 0.85 -7.3 0.85 -26.0 -1.6 -26.25 -1.4 -26.25 -1.25 Q-27.3 -0.2 -28.9 -0.2 -30.4 -0.2 -31.65 -1.25 -32.55 -2.35 -32.7 -3.75 L-32.7 -4.1 Q-32.7 -5.65 -31.65 -6.8 -30.4 -8.0 -28.9 -8.1 -27.3 -8.0 -26.25 -6.8 L-26.0 -6.45 -10.6 -8.3 -8.45 -8.6 -7.4 -8.6 -0.05 -8.6 6.7 -8.6 M28.9 -6.05 Q28.35 -6.0 27.9 -5.6 L27.45 -5.0 26.65 -4.55 25.75 -4.45 8.4 -6.6 -8.45 -6.6 -25.75 -4.45 -26.65 -4.55 Q-27.1 -4.7 -27.4 -5.0 L-27.9 -5.6 Q-28.3 -6.0 -28.85 -6.05 -29.6 -5.95 -30.2 -5.4 -30.7 -4.85 -30.7 -4.1 L-30.7 -3.95 -30.15 -2.6 Q-29.6 -2.2 -28.9 -2.2 -28.35 -2.2 -27.95 -2.45 L-27.65 -2.65 -27.35 -3.05 -26.85 -3.4 -25.75 -3.55 -7.25 -1.15 7.25 -1.15 25.75 -3.55 Q26.5 -3.7 27.1 -3.25 L27.7 -2.8 28.0 -2.45 Q28.4 -2.2 28.9 -2.2 29.6 -2.2 30.15 -2.65 30.6 -3.25 30.7 -3.95 L30.7 -4.1 Q30.7 -4.85 30.15 -5.35 L30.1 -5.4 Q29.55 -6.0 28.9 -6.05" fill="url(#gradient0)" fill-rule="evenodd" stroke="none"/>
    <path d="M28.9 -6.05 Q29.55 -6.0 30.1 -5.4 L30.15 -5.35 Q30.7 -4.85 30.7 -4.1 L30.7 -3.95 Q30.6 -3.25 30.15 -2.65 29.6 -2.2 28.9 -2.2 28.4 -2.2 28.0 -2.45 L27.7 -2.8 27.1 -3.25 Q26.5 -3.7 25.75 -3.55 L7.25 -1.15 -7.25 -1.15 -25.75 -3.55 -26.85 -3.4 -27.35 -3.05 -27.65 -2.65 -27.95 -2.45 Q-28.35 -2.2 -28.9 -2.2 -29.6 -2.2 -30.15 -2.6 L-30.7 -3.95 -30.7 -4.1 Q-30.7 -4.85 -30.2 -5.4 -29.6 -5.95 -28.85 -6.05 -28.3 -6.0 -27.9 -5.6 L-27.4 -5.0 Q-27.1 -4.7 -26.65 -4.55 L-25.75 -4.45 -8.45 -6.6 8.4 -6.6 25.75 -4.45 26.65 -4.55 27.45 -5.0 27.9 -5.6 Q28.35 -6.0 28.9 -6.05" fill="#b7b7b7" fill-rule="evenodd" stroke="none"/>
    <path d="M-32.7 -3.75 Q-32.55 -2.35 -31.65 -1.25 -30.4 -0.2 -28.9 -0.2 -27.3 -0.2 -26.25 -1.25 L-26.25 -1.4 -26.0 -1.6 -7.3 0.85 7.3 0.85 26.0 -1.6 26.25 -1.4 26.25 -1.25 Q27.4 -0.2 28.9 -0.2 30.4 -0.2 31.55 -1.25 32.55 -2.35 32.7 -3.75 L32.7 -3.5 32.7 -3.4 32.7 -3.15 32.7 -3.05 32.7 -2.8 32.7 -2.7 32.7 -2.45 32.7 -2.35 32.7 -2.1 32.7 -2.0 32.7 -1.75 32.7 -1.6 32.7 -1.4 32.7 -1.25 32.7 -1.05 32.7 -0.9 Q32.7 0.75 31.55 1.95 30.4 3.0 28.9 3.0 27.4 3.0 26.25 1.95 L26.25 1.8 26.0 1.55 7.3 4.05 6.4 4.05 -6.35 4.05 -7.3 4.05 -26.0 1.55 -26.25 1.8 -26.25 1.95 Q-27.3 3.0 -28.9 3.0 -30.4 3.0 -31.65 1.95 -32.7 0.75 -32.7 -0.9 L-32.7 -1.25 -32.7 -1.6 -32.7 -2.0 -32.7 -2.35 -32.7 -2.7 -32.7 -3.05 -32.7 -3.4 -32.7 -3.75" fill="#535353" fill-rule="evenodd" stroke="none"/>
    <path d="M-0.05 -238.35 L6.7 -228.0 6.7 -8.6 -0.05 -8.6 -0.05 -238.35" fill="#b3b3b3" fill-rule="evenodd" stroke="none"/>
    <path d="M-0.05 -243.65 L-0.05 -238.35 -7.4 -227.75 -7.4 -8.6 -8.45 -8.6 -10.6 -8.3 -10.6 -228.8 -0.05 -243.65" fill="#fbfbfb" fill-rule="evenodd" stroke="none"/>
    <path d="M-0.05 -8.6 L-7.4 -8.6 -7.4 -227.75 -0.05 -238.35 -0.05 -8.6" fill="#ebebeb" fill-rule="evenodd" stroke="none"/>
    <path d="M6.4 4.05 L6.35 5.2 -6.3 5.2 -6.35 4.05 6.4 4.05 M6.1 10.05 L6.0 11.85 -5.9 12.3 -6.0 10.45 6.1 10.05 M5.65 19.55 L5.55 20.95 -5.5 20.95 -5.6 19.3 5.65 19.55 M5.25 27.9 L5.2 29.1 -5.1 29.6 -5.2 27.65 5.25 27.9" fill="#404040" fill-rule="evenodd" stroke="none"/>
    <path d="M6.35 5.2 L6.1 10.05 -6.0 10.45 -6.3 5.2 6.35 5.2 M6.0 11.85 L5.65 19.55 -5.6 19.3 -5.9 12.3 6.0 11.85 M5.55 20.95 L5.25 27.9 -5.2 27.65 -5.5 20.95 5.55 20.95 M5.2 29.1 L5.1 30.6 5.05 31.4 Q4.85 33.1 3.6 34.35 2.1 35.8 -0.05 35.8 -2.1 35.8 -3.55 34.35 -4.75 33.1 -5.0 31.5 L-5.05 30.6 -5.1 29.6 5.2 29.1" fill="#515151" fill-rule="evenodd" stroke="none"/>
    <path d="M5.1 30.6 L6.9 31.8 Q9.8 34.15 9.8 37.55 9.8 40.9 6.9 43.25 4.15 45.6 0.05 45.6 -4.05 45.6 -6.9 43.25 -9.65 40.9 -9.75 37.55 -9.65 34.15 -6.9 31.8 L-5.05 30.6 -5.0 31.5 Q-4.75 33.1 -3.55 34.35 -2.1 35.8 -0.05 35.8 2.1 35.8 3.6 34.35 4.85 33.1 5.05 31.4 L5.1 30.6 M5.05 35.8 L5.0 35.8 Q2.9 37.8 -0.05 37.8 -2.95 37.8 -4.95 35.8 L-5.0 35.75 -6.25 34.0 Q-7.65 35.5 -7.75 37.5 L-7.75 37.6 Q-7.6 40.0 -5.6 41.7 L-5.6 41.75 Q-3.25 43.6 0.05 43.6 3.35 43.6 5.6 41.75 L5.65 41.7 Q7.75 40.0 7.8 37.55 7.8 35.5 6.35 34.0 L5.05 35.8" fill="url(#gradient1)" fill-rule="evenodd" stroke="none"/>
    <path d="M5.05 35.8 L6.35 34.0 Q7.8 35.5 7.8 37.55 7.75 40.0 5.65 41.7 L5.6 41.75 Q3.35 43.6 0.05 43.6 -3.25 43.6 -5.6 41.75 L-5.6 41.7 Q-7.6 40.0 -7.75 37.6 L-7.75 37.5 Q-7.65 35.5 -6.25 34.0 L-5.0 35.75 -4.95 35.8 Q-2.95 37.8 -0.05 37.8 2.9 37.8 5.0 35.8 L5.05 35.8" fill="#646464" fill-rule="evenodd" stroke="none"/>
    <path d="M10.6 -8.35 L10.6 -228.8 -0.05 -243.65 -10.6 -228.8 -10.6 -8.3" fill="none" stroke="#5c5c5c" stroke-linecap="round" stroke-linejoin="round" stroke-width="1.0"/>
  </g>
  <defs>
    <linearGradient gradientTransform="matrix(0.0, 0.0067, -0.0058, 0.0, 0.2, -6.0)" gradientUnits="userSpaceOnUse" id="gradient0" spreadMethod="pad" x1="-819.2" x2="819.2">
      <stop offset="0.0" stop-color="#acacac"/>
      <stop offset="1.0" stop-color="#5f5f5f"/>
    </linearGradient>
    <radialGradient cx="0" cy="0" gradientTransform="matrix(-0.0147, 0.0, 0.0, -0.0164, 0.25, 31.6)" gradientUnits="userSpaceOnUse" id="gradient1" r="819.2" spreadMethod="pad">
      <stop offset="0.2980392156862745" stop-color="#c6c6c6"/>
      <stop offset="1.0" stop-color="#595959"/>
    </radialGradient>
  </defs>
</svg>
