<?xml version="1.0" encoding="UTF-8" standalone="no"?>
<svg xmlns:xlink="http://www.w3.org/1999/xlink" height="35.7px" width="47.6px" xmlns="http://www.w3.org/2000/svg">
  <g transform="matrix(1.0, 0.0, 0.0, 1.0, 20.3, 18.85)">
    <path d="M19.5 -0.5 L19.7 -0.25 19.6 -0.45 19.5 -0.5 M27.0 2.5 Q25.95 3.5 24.5 3.15 20.4 2.5 16.8 0.25 L12.9 -2.4 Q9.6 -4.9 5.55 -5.95 1.1 -7.3 -3.15 -5.65 L-7.6 -3.85 -9.75 -2.65 Q-13.7 0.1 -17.05 3.55 -18.35 4.85 -18.95 6.7 L-20.0 10.6 Q-20.5 7.35 -20.1 4.05 L-19.25 -2.5 Q-18.55 -8.0 -14.85 -12.35 -12.55 -15.05 -9.3 -16.65 -7.4 -17.7 -5.3 -18.3 L-2.95 -18.85 Q0.2 -16.55 3.85 -14.95 7.7 -13.4 10.95 -10.85 14.7 -7.85 17.3 -3.95 L18.05 -3.45 21.9 -2.9 22.6 -3.45 23.85 -3.4 25.05 -3.55 26.5 -4.0 27.05 -2.0 Q27.55 0.25 27.0 2.5" fill="#015291" fill-rule="evenodd" stroke="none"/>
    <path d="M-9.75 -2.65 L-7.6 -3.85 -3.15 -5.65 Q1.1 -7.3 5.55 -5.95 9.6 -4.9 12.9 -2.4 L16.8 0.25 Q20.4 2.5 24.5 3.15 25.95 3.5 27.0 2.5 L25.5 6.55 Q24.95 7.15 24.25 7.15 L11.5 7.8 Q9.15 8.2 6.8 9.2 4.2 10.45 2.25 12.25 0.0 14.3 -1.55 16.85 -2.85 14.5 -4.65 12.65 L-7.15 9.85 Q-7.7 9.15 -7.85 8.35 L-8.9 2.0 -9.75 -2.65" fill="#00223e" fill-rule="evenodd" stroke="none"/>
  </g>
</svg>
