<?xml version="1.0" encoding="UTF-8" standalone="no"?>
<svg xmlns:xlink="http://www.w3.org/1999/xlink" height="342.0px" width="342.0px" xmlns="http://www.w3.org/2000/svg">
  <g transform="matrix(1.0, 0.0, 0.0, 1.0, 171.0, 171.0)">
    <path d="M0.0 -171.0 L42.6 -102.7 120.9 -120.9 102.7 -42.55 171.0 0.0 102.7 42.6 120.9 120.9 42.6 102.7 0.0 171.0 -42.55 102.7 -120.9 120.9 -102.7 42.6 -171.0 0.0 -102.7 -42.55 -120.9 -120.9 -42.55 -102.7 0.0 -171.0 M31.15 -100.05 L31.25 -100.05 Q16.55 -104.55 0.0 -104.55 -16.55 -104.55 -31.25 -100.05 L-31.15 -100.05 -34.6 -98.95 -47.65 -93.35 -48.75 -92.8 -48.7 -92.8 Q-62.25 -85.65 -73.95 -73.95 -85.65 -62.25 -92.8 -48.7 L-92.8 -48.75 -93.1 -48.15 -98.95 -34.6 -100.05 -31.15 -100.05 -31.25 Q-104.55 -16.55 -104.55 0.0 -104.55 16.55 -100.05 31.25 L-100.05 31.15 -98.9 34.75 Q-97.1 40.0 -94.7 45.0 L-93.3 47.8 -92.8 48.75 Q-85.65 62.25 -73.95 73.95 -62.25 85.65 -48.7 92.85 L-48.75 92.8 -47.65 93.4 -44.35 95.05 Q-39.6 97.25 -34.6 99.0 L-31.15 100.05 -31.25 100.1 Q-16.55 104.55 0.0 104.55 16.55 104.55 31.25 100.1 L31.15 100.05 34.65 98.95 47.7 93.4 48.75 92.8 48.75 92.85 Q62.25 85.65 73.95 73.95 85.6 62.3 92.85 48.75 L92.8 48.75 93.4 47.65 99.0 34.6 100.05 31.15 100.1 31.25 Q104.55 16.55 104.55 0.0 104.55 -16.55 100.1 -31.25 L100.05 -31.15 98.95 -34.6 Q97.25 -39.65 95.0 -44.45 L93.4 -47.65 92.8 -48.75 92.85 -48.7 Q85.65 -62.25 73.95 -73.95 62.25 -85.65 48.75 -92.85 L48.75 -92.8 47.75 -93.35 47.4 -93.5 Q41.55 -96.5 35.4 -98.7 L31.15 -100.05" fill="url(#gradient0)" fill-rule="evenodd" stroke="none"/>
  </g>
  <defs>
    <radialGradient cx="0" cy="0" gradientTransform="matrix(0.2087, 0.0, 0.0, 0.2087, 0.0, 0.0)" gradientUnits="userSpaceOnUse" id="gradient0" r="819.2" spreadMethod="pad">
      <stop offset="0.5215686274509804" stop-color="#ffcd09"/>
      <stop offset="1.0" stop-color="#ff6600"/>
    </radialGradient>
  </defs>
</svg>
