<?xml version="1.0" encoding="UTF-8" standalone="no"?>
<svg xmlns:xlink="http://www.w3.org/1999/xlink" height="14.95px" width="14.95px" xmlns="http://www.w3.org/2000/svg">
  <g transform="matrix(1.0, 0.0, 0.0, 1.0, 7.45, 7.5)">
    <path d="M5.25 -5.3 Q7.5 -3.15 7.5 0.0 7.5 3.05 5.25 5.25 3.15 7.45 0.0 7.45 -3.05 7.45 -5.3 5.25 -7.45 3.05 -7.45 0.0 -7.45 -3.15 -5.3 -5.3 -3.05 -7.5 0.0 -7.5 3.15 -7.5 5.25 -5.3" fill="#333333" fill-rule="evenodd" stroke="none"/>
    <path d="M-0.15 -5.2 Q2.1 -5.2 3.6 -3.65 5.2 -2.1 5.2 0.15 5.2 2.35 3.6 3.9 2.1 5.5 -0.15 5.5 -2.35 5.5 -3.95 3.9 -5.5 2.35 -5.5 0.15 -5.5 -2.1 -3.95 -3.65 -2.35 -5.2 -0.15 -5.2" fill="#ffffff" fill-rule="evenodd" stroke="none"/>
  </g>
</svg>
