<?xml version="1.0" encoding="UTF-8" standalone="no"?>
<svg xmlns:xlink="http://www.w3.org/1999/xlink" height="49.1px" width="51.3px" xmlns="http://www.w3.org/2000/svg">
  <g transform="matrix(1.0, 0.0, 0.0, 1.0, 19.3, 24.0)">
    <path d="M6.4 2.05 Q10.95 2.05 15.25 0.75 18.7 -0.15 22.25 -0.45 24.6 -0.95 26.9 -0.4 29.5 0.25 32.0 1.5 L25.85 8.2 21.85 11.25 Q20.95 11.8 19.9 11.85 L17.0 12.25 Q12.05 12.25 9.5 8.25 8.25 6.3 7.3 4.2 L6.4 2.05 M-8.75 24.55 L-9.4 25.0 Q-12.7 23.75 -15.3 21.8 -17.2 20.45 -18.5 18.5 L-13.3 18.35 Q-12.05 17.95 -11.1 17.3 -8.9 19.35 -8.35 22.55 L-8.4 23.6 -8.75 24.55 M-9.9 -19.0 L-8.5 -24.0 -7.8 -23.35 -6.1 -22.15 Q-3.95 -20.7 -2.0 -18.95 1.35 -16.05 2.7 -11.9 L4.15 -7.4 2.4 -8.75 Q-1.2 -11.45 -5.5 -13.15 -8.6 -14.45 -12.0 -15.5 L-9.9 -19.0" fill="#015291" fill-rule="evenodd" stroke="none"/>
    <path d="M25.85 8.2 L22.2 13.0 16.6 19.1 Q13.6 22.0 9.8 23.5 L6.25 24.55 0.0 25.1 -8.75 24.55 -8.4 23.6 -8.35 22.55 Q-8.9 19.35 -11.1 17.3 L-12.95 15.9 -15.7 13.8 Q-16.95 12.85 -17.65 11.45 -19.1 8.65 -19.25 5.6 L-19.15 1.55 Q-18.8 -2.45 -18.05 -6.35 L-17.65 -8.6 Q-17.25 -11.0 -15.9 -12.95 -13.45 -16.55 -9.9 -19.0 L-12.0 -15.5 Q-8.6 -14.45 -5.5 -13.15 -1.2 -11.45 2.4 -8.75 L4.15 -7.4 6.4 2.05 7.3 4.2 Q8.25 6.3 9.5 8.25 12.05 12.25 17.0 12.25 L19.9 11.85 Q20.95 11.8 21.85 11.25 L25.85 8.2" fill="#00223e" fill-rule="evenodd" stroke="none"/>
  </g>
</svg>
