<?xml version="1.0" encoding="UTF-8" standalone="no"?>
<svg xmlns:xlink="http://www.w3.org/1999/xlink" height="56.45px" width="62.15px" xmlns="http://www.w3.org/2000/svg">
  <g transform="matrix(1.0, 0.0, 0.0, 1.0, 31.05, 28.25)">
    <path d="M12.2 -12.55 L14.5 -10.75 13.05 -7.1 15.75 -5.1 15.2 4.35 12.5 6.35 Q11.3 10.2 10.35 14.4 7.75 16.15 5.1 18.35 L4.25 17.75 3.6 18.15 Q4.7 22.5 2.9 26.5 L0.15 25.7 -0.15 23.35 -0.15 22.4 -0.2 21.55 -0.15 21.3 Q-0.15 21.0 -0.45 20.8 L-0.55 20.3 -0.65 20.6 -1.2 20.4 -1.2 21.4 -1.2 21.75 -1.2 23.0 -1.3 25.7 -1.5 26.3 Q-1.95 27.35 -2.85 28.1 L-5.35 28.2 -5.1 19.55 -6.55 19.85 -5.8 26.1 -6.1 26.4 -9.75 26.0 -9.65 17.95 -11.2 17.85 Q-14.45 16.25 -16.25 15.35 L-19.5 15.8 Q-22.05 14.2 -23.2 11.55 L-23.0 10.2 -22.1 8.15 Q-21.2 6.6 -21.2 6.2 -21.2 5.3 -22.1 2.6 -23.0 -0.15 -23.0 -1.1 L-22.5 -3.75 Q-21.95 -5.5 -21.2 -6.45 L-18.35 -6.65 Q-17.65 -6.65 -17.45 -6.9 L-17.35 -7.1 -17.25 -7.6 -17.25 -8.0 -17.25 -8.05 -17.25 -8.4 -17.25 -9.4 -17.15 -9.55 -16.5 -10.05 -14.55 -11.85 Q-13.45 -12.55 -10.85 -13.3 -8.85 -13.95 -8.85 -14.35 L-9.3 -14.75 -9.95 -14.9 -10.95 -14.7 Q-11.85 -15.2 -12.05 -16.35 L-12.2 -18.2 -12.55 -19.35 -12.45 -20.35 -12.35 -21.3 Q-9.3 -23.9 -5.35 -25.55 L-3.35 -26.05 Q1.6 -25.7 3.2 -21.2 L3.7 -19.3 Q3.95 -18.15 4.5 -17.1 L3.0 -16.4 3.35 -15.9 4.5 -15.9 5.15 -16.1 5.4 -15.75 Q5.5 -15.25 6.0 -15.05 L6.75 -15.05 Q7.6 -15.25 8.35 -15.75 L12.9 -13.9 12.3 -13.0 12.2 -12.55 M15.4 -14.35 L15.25 -14.2 Q15.7 -15.45 16.45 -16.55 L16.7 -16.85 18.15 -18.45 Q24.25 -23.95 31.1 -28.25 29.45 -23.1 25.8 -19.0 L24.8 -17.9 27.0 -19.35 27.6 -19.0 25.85 -17.3 Q22.85 -15.65 22.85 -14.0 22.85 -13.15 23.15 -12.5 23.55 -11.7 24.5 -11.0 24.1 -9.85 22.75 -9.5 L21.75 -9.15 21.2 -9.25 21.05 -9.75 21.2 -10.15 21.95 -12.75 21.65 -14.05 Q21.2 -15.0 19.95 -15.1 L16.6 -14.95 16.35 -14.85 15.4 -14.35 M5.7 -1.85 L4.25 -1.05 Q0.4 1.8 -0.55 6.4 -1.2 7.65 -1.2 8.65 L-0.9 9.75 -0.1 10.2 0.25 10.2 0.4 10.55 Q5.0 10.35 8.9 8.0 11.0 4.5 9.85 0.55 9.0 -2.85 5.7 -1.85 M19.15 -1.15 L19.95 -1.65 20.55 -1.55 21.4 -1.2 19.5 0.35 18.7 0.45 Q18.5 0.45 18.5 -0.3 L19.15 -1.15 M20.6 5.1 Q19.05 5.4 18.6 5.65 L16.95 5.5 16.75 5.25 16.7 4.35 Q16.7 3.5 18.15 2.35 L19.3 2.45 20.95 4.15 20.6 5.1 M1.0 16.75 L1.0 14.75 -2.0 13.05 Q-2.05 13.95 -1.75 14.85 -1.3 16.3 -0.15 17.25 L-0.1 17.3 1.0 16.75 M-22.65 -14.7 Q-21.8 -13.95 -21.8 -12.9 -21.8 -11.8 -22.65 -11.05 -23.55 -10.3 -24.8 -10.3 -26.05 -10.3 -26.9 -11.05 -27.8 -11.8 -27.8 -12.9 -27.8 -13.95 -26.9 -14.7 -26.05 -15.45 -24.8 -15.45 -23.55 -15.45 -22.65 -14.7 M-14.55 -19.15 L-14.3 -19.2 -13.9 -18.95 -13.6 -17.7 Q-12.9 -15.05 -12.9 -14.3 -12.9 -13.85 -14.6 -13.05 L-16.15 -12.4 -16.2 -12.45 -17.25 -12.75 -16.8 -16.25 -14.55 -19.15 M-4.85 6.55 Q-5.25 5.3 -6.75 5.3 L-7.05 5.3 -13.65 2.8 Q-13.95 2.25 -14.4 2.55 L-15.4 2.2 -15.1 3.65 Q-15.45 4.35 -15.45 5.3 L-15.4 6.3 -14.9 8.3 Q-13.7 11.05 -10.3 11.05 -4.8 11.05 -4.8 7.85 -4.65 7.15 -4.85 6.55 M-13.35 17.1 Q-13.2 18.15 -13.5 19.1 -13.9 20.3 -14.8 20.75 L-16.0 20.65 -16.2 20.3 -16.25 19.3 Q-16.25 18.5 -15.95 18.15 L-14.35 17.0 -13.35 17.1 M-15.65 15.3 L-15.65 15.25 -15.7 15.25 -15.65 15.3 M-28.0 0.45 L-27.1 0.9 Q-26.15 2.6 -27.15 4.35 L-27.45 4.35 -30.5 4.75 -31.05 4.5 -31.05 1.15 -30.3 0.45 Q-29.7 -0.1 -29.25 -0.1 -28.7 -0.1 -28.0 0.45 M-2.2 15.45 L-4.5 15.3 -5.0 16.45 Q-5.3 17.4 -4.9 18.2 L-3.7 18.45 Q-2.8 17.9 -2.4 16.95 -2.05 16.25 -2.2 15.45" fill="#8d070b" fill-rule="evenodd" stroke="none"/>
  </g>
</svg>
