<?xml version="1.0" encoding="UTF-8" standalone="no"?>
<svg xmlns:xlink="http://www.w3.org/1999/xlink" height="44.4px" width="48.25px" xmlns="http://www.w3.org/2000/svg">
  <g transform="matrix(1.0, 0.0, 0.0, 1.0, 24.15, 22.2)">
    <path d="M19.65 -14.6 Q21.4 -10.85 22.55 -12.05 21.85 -15.6 20.85 -16.8 L19.65 -18.05 Q18.9 -18.45 19.65 -14.6 M1.95 -21.05 Q2.3 -21.05 2.55 -20.7 L2.8 -19.9 2.55 -19.05 Q2.3 -18.75 1.95 -18.75 1.6 -18.75 1.35 -19.05 1.1 -19.4 1.1 -19.9 L1.35 -20.7 Q1.6 -21.05 1.95 -21.05 M3.9 -17.2 L3.7 -17.7 4.05 -18.85 7.2 -21.85 Q17.65 -23.7 22.7 -15.3 25.2 -11.25 23.2 -7.6 L23.6 -3.3 21.35 -2.0 19.45 -5.15 18.75 -4.8 19.4 -0.2 17.3 0.45 17.0 -0.7 16.9 -1.25 16.7 -2.2 16.35 -3.05 16.3 -3.1 15.5 -2.85 15.55 -2.55 15.9 -0.4 15.75 0.45 14.45 1.35 14.1 0.95 13.8 0.5 13.6 0.0 13.5 -0.6 13.35 -2.9 10.95 -3.3 10.2 10.8 11.6 11.0 12.25 8.05 15.2 8.6 15.35 9.0 15.2 9.5 14.8 11.1 14.85 11.45 15.05 11.55 15.4 11.7 Q15.75 11.7 15.9 11.0 L15.95 10.15 16.2 9.35 17.3 8.75 18.05 8.95 18.0 9.05 17.95 9.85 17.55 11.55 Q17.55 11.95 17.85 12.05 18.2 11.85 18.55 10.35 L18.95 9.2 19.35 9.7 20.6 9.85 Q20.1 10.75 19.5 12.8 L16.35 16.35 6.5 16.2 2.2 13.25 4.25 11.5 5.1 11.2 Q6.0 11.0 6.25 10.45 L6.65 9.45 7.75 7.55 8.4 5.45 8.35 4.75 8.25 4.75 8.25 3.7 8.3 3.6 8.3 2.95 5.4 -6.05 3.65 -10.55 3.0 -12.3 3.1 -12.3 Q4.15 -13.85 4.15 -15.5 L3.9 -17.2 M2.4 -17.4 Q2.75 -17.05 3.05 -17.05 L3.3 -14.65 2.8 -13.4 2.4 -13.2 2.3 -13.3 1.15 -16.2 2.4 -17.4 M1.4 -13.05 L1.9 -12.6 2.05 -12.45 2.1 -12.4 2.85 -10.8 3.2 -9.75 3.95 -7.5 Q4.05 -7.05 4.5 -6.35 L5.05 -5.25 7.55 2.6 Q7.55 3.5 7.9 3.65 L7.85 4.75 7.7 4.85 7.8 5.35 7.75 5.65 7.05 7.25 5.35 10.35 3.4 10.85 Q1.95 11.25 1.75 11.75 L1.35 11.9 -0.9 13.1 -0.8 13.3 -0.8 14.0 -0.3 17.2 -0.25 18.25 Q-0.65 19.1 -1.7 19.05 L-2.35 18.0 -3.0 17.3 -3.25 15.5 -3.8 15.55 -4.0 15.45 Q-4.7 15.3 -4.7 15.95 L-4.7 16.0 -4.9 15.85 -4.1 21.05 -7.7 20.7 -7.7 19.4 -7.7 17.25 -7.55 16.05 Q-7.55 15.45 -8.55 15.5 L-8.55 15.65 -8.95 21.8 -11.6 21.3 -11.6 15.7 -11.6 15.65 -11.6 15.3 -12.45 15.3 -12.45 16.65 -12.3 17.5 -12.05 21.55 -12.9 22.2 -15.05 22.15 Q-15.5 14.55 -19.1 7.9 -20.05 6.2 -21.25 4.7 L-21.35 3.65 -21.05 1.65 -20.3 -0.35 -20.8 -0.95 -18.65 -3.85 Q-19.5 -8.85 -16.45 -12.8 -12.2 -18.3 -5.15 -19.35 L-3.95 -14.25 1.2 -13.25 1.4 -13.05 M7.6 -11.45 L9.1 -10.0 15.75 -10.9 Q16.85 -14.65 14.85 -18.15 9.2 -17.85 8.35 -12.85 L8.3 -12.05 7.6 -11.45 M21.8 -9.0 L21.45 -9.75 20.5 -10.35 20.45 -9.95 20.65 -9.25 Q20.95 -8.55 21.4 -8.55 L21.75 -8.6 21.8 -9.0 M19.65 -8.75 Q19.65 -9.65 19.0 -9.3 18.3 -8.95 18.3 -7.95 L18.45 -7.55 Q18.6 -7.2 18.8 -7.2 L19.35 -7.85 19.65 -8.75 M18.5 4.5 L19.15 5.25 17.8 6.55 13.8 6.25 15.75 3.05 Q17.45 3.2 18.5 4.5 M4.3 4.75 L1.1 -4.05 Q-4.0 -1.35 -6.15 4.1 L-5.05 4.55 -5.55 6.0 Q-3.8 9.6 0.55 8.65 3.2 8.1 4.05 5.5 L4.3 4.75 M2.0 20.75 Q1.05 20.7 0.65 19.7 L0.4 18.95 1.8 17.7 2.55 20.65 2.0 20.75 M-1.0 -20.75 L0.15 -20.4 -0.8 -16.15 -2.45 -16.15 -3.4 -20.15 -1.0 -20.75 M-6.45 11.65 L-6.9 10.95 Q-7.3 10.1 -7.8 10.5 L-7.55 11.35 -8.95 13.25 -8.85 13.5 -8.55 13.55 Q-6.45 12.45 -6.45 11.65 M-9.1 11.3 Q-9.1 10.3 -10.05 10.7 -11.05 11.15 -11.05 11.75 L-10.85 12.15 -10.4 12.45 -10.0 12.45 -9.3 11.8 -9.1 11.3 M-13.95 4.55 L-13.8 3.2 -16.25 1.15 -18.8 1.15 -19.45 4.3 -19.05 4.8 -19.05 5.2 -19.05 5.3 -19.2 5.45 Q-18.95 6.8 -18.05 8.05 -17.25 9.15 -15.85 9.35 L-14.0 9.55 -12.65 5.9 -13.95 4.55 M-17.65 18.45 L-17.45 18.45 -17.75 20.6 -18.0 20.6 -18.25 20.7 -18.45 20.5 -18.5 19.5 -18.5 19.4 -17.75 18.4 -17.65 18.45 M-24.15 17.9 L-24.05 16.95 -20.3 13.6 -17.85 13.7 Q-18.15 18.5 -23.15 18.2 L-24.15 17.9" fill="#8d070b" fill-rule="evenodd" stroke="none"/>
  </g>
</svg>
