<?xml version="1.0" encoding="UTF-8" standalone="no"?>
<svg xmlns:xlink="http://www.w3.org/1999/xlink" height="35.65px" width="41.65px" xmlns="http://www.w3.org/2000/svg">
  <g transform="matrix(1.0, 0.0, 0.0, 1.0, -262.35, -8.2)">
    <path d="M300.05 16.75 L300.25 16.8 301.85 17.2 302.4 17.3 304.0 17.4 303.95 17.65 Q303.55 19.65 303.5 21.7 303.5 23.5 303.0 25.1 299.95 23.55 296.8 22.45 L298.7 19.05 298.8 18.8 300.05 16.75 M298.9 32.0 Q298.05 33.15 297.35 34.5 L295.9 36.95 294.9 37.05 Q294.0 36.65 293.0 36.5 L291.8 36.2 290.4 35.9 Q292.35 33.15 293.7 30.1 L293.85 29.75 295.5 30.35 Q297.35 30.95 298.85 31.95 L298.9 32.0 M284.9 32.55 L283.65 31.7 283.25 31.45 278.3 30.5 279.65 27.1 Q280.0 26.05 280.5 25.1 L274.95 24.45 277.75 18.6 277.95 18.15 281.05 18.1 283.9 18.2 284.2 18.25 Q286.3 14.5 288.65 11.15 L290.25 11.5 291.45 11.8 Q293.7 12.25 295.65 13.2 L292.2 19.55 293.8 20.05 293.95 20.25 294.1 20.5 290.25 27.25 290.1 27.1 Q289.95 26.75 289.3 26.6 L288.35 26.45 292.2 19.55 289.75 18.8 289.3 18.75 288.45 18.75 Q287.2 18.2 286.2 18.35 L284.9 18.25 284.7 18.25 284.2 18.25 284.1 18.45 280.5 25.1 282.15 25.3 283.35 25.55 286.35 26.1 287.1 26.2 288.35 26.45 287.7 27.55 284.9 32.55 M296.6 22.4 L296.8 22.45 Q295.5 25.0 294.6 27.75 L293.85 29.75 292.55 29.05 292.35 28.95 293.2 27.85 293.7 26.95 296.6 22.4 M291.4 27.75 L291.9 26.95 Q292.35 26.35 293.05 26.2 L292.05 28.75 291.5 28.35 291.45 27.9 291.4 27.75" fill="#ffffff" fill-rule="evenodd" stroke="none"/>
    <path d="M303.0 25.1 Q302.2 28.1 300.05 30.55 L298.9 32.0 298.85 31.95 Q297.35 30.95 295.5 30.35 L293.85 29.75 294.6 27.75 Q295.5 25.0 296.8 22.45 L296.6 22.4 298.5 19.25 298.7 19.05 296.8 22.45 Q299.95 23.55 303.0 25.1 M290.4 35.9 L288.85 35.5 Q288.45 35.4 288.65 34.85 288.85 34.35 288.2 34.1 L287.75 33.85 287.4 33.6 Q288.3 31.8 289.55 30.2 L291.4 27.75 291.45 27.9 291.5 28.35 292.05 28.75 292.35 28.95 292.55 29.05 293.85 29.75 293.7 30.1 Q292.35 33.15 290.4 35.9 M286.5 33.1 L286.15 33.0 285.7 32.85 284.9 32.55 287.7 27.55 288.35 26.45 287.1 26.2 286.35 26.1 283.35 25.55 282.15 25.3 280.5 25.1 284.1 18.45 284.2 18.25 284.7 18.25 284.9 18.25 286.2 18.35 Q287.2 18.2 288.45 18.75 L289.3 18.75 289.75 18.8 292.2 19.55 288.35 26.45 289.3 26.6 Q289.95 26.75 290.1 27.1 L290.25 27.25 289.2 28.8 286.5 33.1 M278.3 30.5 L278.1 30.45 276.85 30.25 273.75 30.1 272.0 30.15 273.35 27.5 274.95 24.45 280.5 25.1 Q280.0 26.05 279.65 27.1 L278.3 30.5 M281.0 11.35 L282.05 11.1 286.3 10.8 288.65 11.15 Q286.3 14.5 284.2 18.25 L283.9 18.2 281.05 18.1 277.95 18.15 281.0 11.35 M295.65 13.2 L297.0 14.05 297.1 14.4 Q297.0 14.75 297.05 15.05 L296.85 15.35 294.1 20.5 293.95 20.25 293.8 20.05 292.2 19.55 295.65 13.2" fill="#000000" fill-rule="evenodd" stroke="none"/>
    <path d="M287.4 33.6 Q287.0 33.3 286.5 33.1 L289.2 28.8 290.25 27.25 290.4 27.25 Q291.2 27.35 291.4 27.75 L289.55 30.2 Q288.3 31.8 287.4 33.6 M297.05 15.05 Q297.05 15.85 298.0 16.15 L300.05 16.75 298.8 18.8 298.7 19.05 298.5 19.25 296.6 22.4 296.25 22.25 295.1 21.8 294.75 21.45 294.1 20.5 296.85 15.35 297.05 15.05" fill="#333333" fill-rule="evenodd" stroke="none"/>
    <path d="M294.1 20.5 L294.75 21.45 295.1 21.8 296.25 22.25 296.6 22.4 293.7 26.95 293.2 27.85 292.35 28.95 292.05 28.75 293.05 26.2 Q292.35 26.35 291.9 26.95 L291.4 27.75 Q291.2 27.35 290.4 27.25 L290.25 27.25 294.1 20.5" fill="#cccccc" fill-rule="evenodd" stroke="none"/>
    <path d="M276.65 11.15 L276.95 10.4 277.15 10.0 277.75 9.4 Q278.9 8.7 279.9 9.0 280.9 9.25 280.6 10.2 L280.2 11.1 280.15 11.25 276.4 18.25 275.65 19.6 275.6 19.6 268.3 32.8 268.0 33.0 267.2 32.45 267.3 31.75 268.3 29.7 269.5 26.8 273.95 16.6 276.4 11.7 276.65 11.15" fill="#cc0000" fill-rule="evenodd" stroke="none"/>
    <path d="M272.0 30.15 L270.35 33.45 271.85 30.15 272.1 29.5 274.65 24.35 276.3 20.75 Q276.6 19.75 275.65 19.6 L276.4 18.25 280.15 11.25 280.2 11.1 280.6 10.2 Q280.9 9.25 279.9 9.0 278.9 8.7 277.75 9.4 L277.15 10.0 Q277.8 8.1 279.85 8.2 281.95 8.3 281.45 10.1 L281.0 11.35 277.95 18.15 277.75 18.6 274.95 24.45 273.35 27.5 272.0 30.15 M269.05 36.1 L266.95 40.65 Q265.1 44.15 264.15 43.85 263.15 43.6 263.2 43.2 263.3 42.65 263.0 42.25 262.2 41.35 262.4 40.6 L266.0 33.05 270.8 23.1 272.7 18.65 Q273.8 15.8 274.65 14.2 L275.95 12.15 276.65 11.15 276.4 11.7 273.95 16.6 269.5 26.8 268.3 29.7 267.3 31.75 267.2 32.45 268.0 33.0 268.3 32.8 Q267.0 35.5 266.7 36.55 L266.55 37.45 267.3 38.0 Q268.15 37.65 269.05 36.1 M264.3 42.35 L265.0 42.55 265.95 42.0 266.5 41.3 Q266.7 40.65 265.95 40.05 265.1 39.55 264.2 40.05 263.5 40.45 263.45 40.8 L263.55 41.3 264.3 42.35" fill="#cc6600" fill-rule="evenodd" stroke="none"/>
    <path d="M270.35 33.45 L269.9 34.45 269.05 36.0 269.05 36.1 Q268.15 37.65 267.3 38.0 L266.55 37.45 266.7 36.55 Q267.0 35.5 268.3 32.8 L275.6 19.6 275.65 19.6 Q276.6 19.75 276.3 20.75 L274.65 24.35 272.1 29.5 271.85 30.15 270.35 33.45 M264.3 42.35 L263.55 41.3 263.45 40.8 Q263.5 40.45 264.2 40.05 265.1 39.55 265.95 40.05 266.7 40.65 266.5 41.3 L265.95 42.0 265.0 42.55 264.3 42.35" fill="#ffcc66" fill-rule="evenodd" stroke="none"/>
  </g>
</svg>
