<?xml version="1.0" encoding="UTF-8" standalone="no"?>
<svg xmlns:xlink="http://www.w3.org/1999/xlink" height="67.0px" width="78.75px" xmlns="http://www.w3.org/2000/svg">
  <g transform="matrix(1.0, 0.0, 0.0, 1.0, 41.45, 31.9)">
    <path d="M10.25 -19.6 Q12.55 -17.0 13.45 -13.4 16.9 -6.45 14.25 0.75 L16.9 2.95 14.85 9.95 2.65 11.45 3.95 19.45 0.45 19.35 -0.35 15.15 -1.25 15.55 -1.5 19.5 1.55 20.7 0.85 23.65 5.2 21.5 4.75 12.3 9.2 11.8 7.35 26.65 Q5.5 27.65 4.95 29.8 L4.45 31.8 -8.3 31.55 -15.5 22.25 Q-15.9 16.85 -17.95 12.05 L-11.25 12.35 -11.25 13.45 -13.2 13.25 -13.3 22.25 -9.65 24.4 -10.45 20.35 -9.4 19.55 -9.55 11.75 -17.1 11.2 Q-19.2 10.9 -20.5 9.05 -19.95 8.0 -21.15 7.75 -22.35 7.5 -22.75 7.05 -23.2 6.55 -23.0 4.9 -22.85 -0.8 -20.9 -1.95 -21.25 -3.35 -21.1 -4.65 -20.1 -12.55 -15.4 -19.1 L-13.15 -18.7 -12.55 -17.7 Q-10.2 -14.45 -6.2 -13.3 L-11.25 -18.75 -9.8 -25.8 -3.65 -25.7 Q1.4 -20.85 8.75 -20.65 9.65 -20.35 10.25 -19.6 M19.45 -4.3 L17.9 -6.5 23.7 -8.55 23.5 -4.0 19.45 -4.3 M12.1 -2.0 L8.35 -6.2 Q2.15 -5.75 -1.65 -0.6 L1.15 5.65 2.9 5.55 2.85 6.4 2.25 7.0 Q5.65 8.2 8.7 6.3 13.6 3.25 12.1 -2.0 M35.9 -31.9 L32.8 -28.6 37.25 -30.7 37.3 -29.9 17.6 -8.95 14.0 -17.9 35.9 -31.9 M29.25 20.3 Q26.1 20.35 23.35 21.45 22.9 21.65 22.7 22.1 L22.4 22.35 Q21.0 22.75 21.75 24.05 L22.25 24.9 Q23.3 26.85 24.6 28.6 25.35 29.6 26.4 30.0 L27.1 30.45 Q23.9 29.45 20.3 28.7 L17.85 28.35 12.95 28.15 12.3 28.3 12.15 26.75 12.1 26.45 Q11.8 25.0 10.15 24.95 L9.35 24.95 9.35 24.6 9.5 23.1 9.6 22.15 Q9.65 21.65 10.45 21.7 L14.75 21.7 15.4 21.6 Q16.65 21.25 17.0 20.0 L17.3 19.45 Q17.5 19.2 18.1 19.1 L18.25 18.8 Q18.6 17.5 18.45 16.0 20.05 17.8 22.85 18.65 L29.25 20.3 M22.45 9.55 Q21.35 10.25 19.7 10.55 L19.4 10.75 18.1 10.8 Q17.5 10.25 16.6 10.0 L16.0 8.9 Q18.05 7.65 20.35 7.45 20.65 7.4 20.95 7.7 L22.3 9.1 22.45 9.55 M10.7 13.25 L16.15 13.25 16.15 19.3 10.7 19.3 10.7 13.25 M18.85 30.55 L19.7 30.85 20.6 31.05 21.1 31.25 21.3 31.7 Q21.5 33.4 21.05 34.8 20.85 35.3 20.05 34.95 L18.7 34.25 Q17.1 33.35 16.1 32.3 L16.3 31.7 Q16.7 30.9 16.6 29.85 17.8 29.95 18.85 30.55 M-14.45 -4.1 L-19.9 -1.2 -20.8 1.3 -19.75 3.65 Q-18.95 5.35 -17.35 6.0 -13.4 7.75 -9.1 6.3 L-8.45 4.4 Q-7.45 0.85 -9.3 -2.55 L-11.25 -3.75 -12.85 -3.15 -14.45 -4.1 M-26.35 -10.4 Q-24.05 -9.25 -24.2 -6.8 L-24.3 -5.75 Q-24.5 -4.15 -25.85 -3.25 L-27.05 -3.5 -29.8 -11.55 -26.35 -10.4 M-33.6 -27.25 L-33.35 -27.9 Q-24.75 -22.65 -18.85 -14.65 L-22.0 -10.15 -29.35 -14.6 -29.8 -11.85 -36.95 -28.85 Q-37.5 -30.2 -37.05 -31.55 L-33.6 -27.25 M-5.35 9.75 L-6.0 11.6 -4.4 13.05 -3.3 9.35 -5.35 9.75 M-1.85 10.65 Q-2.3 10.65 -2.6 11.1 -2.95 11.55 -2.95 12.2 -2.95 12.85 -2.6 13.3 -2.3 13.75 -1.85 13.75 -1.4 13.75 -1.05 13.3 -0.75 12.85 -0.75 12.2 -0.75 11.55 -1.05 11.1 -1.4 10.65 -1.85 10.65 M-32.3 21.5 Q-31.75 20.8 -33.35 22.55 L-32.95 22.15 -32.3 21.5 M-32.15 24.65 L-30.4 22.8 -33.85 23.1 Q-30.1 17.35 -31.25 14.35 -27.4 16.45 -23.85 14.0 L-22.5 10.8 Q-20.15 11.35 -19.85 13.5 -19.25 17.9 -24.85 17.1 L-25.55 19.2 Q-18.45 20.8 -18.75 27.65 L-20.55 28.95 -24.0 27.25 Q-26.05 29.45 -29.1 30.2 L-32.05 27.85 Q-35.0 28.15 -36.75 30.55 L-37.75 30.8 Q-39.9 31.1 -41.45 29.85 L-41.05 28.9 Q-40.4 27.7 -34.15 25.4 L-32.15 24.65 M-24.4 2.35 Q-23.95 2.8 -23.95 3.45 -23.95 4.1 -24.4 4.6 -24.9 5.05 -25.55 5.05 -26.2 5.05 -26.65 4.6 -27.15 4.1 -27.15 3.45 -27.15 2.8 -26.65 2.35 -26.2 1.85 -25.55 1.85 -24.9 1.85 -24.4 2.35 M-1.8 19.7 L-2.85 20.6 -3.0 22.9 -1.45 23.15 -1.8 19.7 M-5.65 19.85 L-7.15 20.0 -7.25 23.25 -5.4 22.1 -5.0 15.15 -5.8 15.5 -5.65 19.85 M-18.2 14.2 L-17.35 14.25 Q-16.4 18.7 -17.6 19.8 L-18.2 20.35 Q-20.7 20.3 -21.3 18.05 L-18.2 14.2" fill="#8d070b" fill-rule="evenodd" stroke="none"/>
  </g>
</svg>
