<?xml version="1.0" encoding="UTF-8" standalone="no"?>
<svg xmlns:xlink="http://www.w3.org/1999/xlink" height="37.25px" width="49.9px" xmlns="http://www.w3.org/2000/svg">
  <g transform="matrix(1.0, 0.0, 0.0, 1.0, 19.0, 14.7)">
    <path d="M-9.45 8.15 Q-12.9 6.7 -16.5 5.95 L-19.0 5.5 Q-17.2 4.15 -16.6 2.05 -15.8 -0.65 -16.45 -3.45 L-17.35 -7.45 Q-18.05 -10.75 -15.85 -13.15 L-14.45 -13.7 -9.0 -14.7 -7.75 -14.45 -7.4 -14.0 Q-1.65 -12.1 3.35 -8.8 6.7 -6.6 9.15 -3.35 11.95 0.2 13.25 4.5 L13.8 4.55 13.85 4.55 Q14.8 4.45 15.1 5.05 L15.15 5.35 15.6 5.2 18.5 4.05 Q19.95 3.1 21.55 2.7 L26.7 1.9 27.25 2.05 27.6 2.5 27.95 2.6 30.05 3.35 30.55 3.6 30.9 4.05 26.1 4.4 Q25.7 4.55 25.45 4.9 24.15 6.5 23.1 8.3 L19.8 13.5 18.45 14.55 16.7 15.15 Q12.45 17.3 7.6 17.0 5.15 16.65 2.9 15.55 L-2.2 12.8 -9.45 8.15" fill="#015291" fill-rule="evenodd" stroke="none"/>
    <path d="M16.7 15.15 Q16.05 16.85 14.4 17.8 L10.65 19.7 7.0 21.25 3.8 22.25 2.0 22.55 -4.7 22.05 -15.5 19.5 -14.05 18.0 -11.75 15.7 -10.5 14.2 -10.15 13.45 Q-9.55 10.8 -9.45 8.15 L-2.2 12.8 2.9 15.55 Q5.15 16.65 7.6 17.0 12.45 17.3 16.7 15.15" fill="#00223e" fill-rule="evenodd" stroke="none"/>
  </g>
</svg>
