<?xml version="1.0" encoding="UTF-8" standalone="no"?>
<svg xmlns:xlink="http://www.w3.org/1999/xlink" height="33.65px" width="20.95px" xmlns="http://www.w3.org/2000/svg">
  <g transform="matrix(1.0, 0.0, 0.0, 1.0, 10.0, 21.1)">
    <path d="M1.25 -19.7 Q4.15 -19.7 6.2 -17.7 8.2 -15.65 8.2 -12.75 L8.2 -9.45 10.8 -7.05 10.95 -7.05 10.95 12.55 -8.6 12.55 -8.6 12.5 Q-8.9 12.5 -9.3 11.95 L-9.85 11.05 -9.6 10.8 -9.05 11.0 -8.6 11.1 -8.6 -7.05 -5.7 -7.05 -5.7 -12.75 Q-5.7 -15.6 -3.7 -17.7 -1.6 -19.7 1.25 -19.7 M3.95 -15.45 Q2.8 -16.6 1.25 -16.6 -0.3 -16.6 -1.45 -15.5 L-1.5 -15.45 Q-2.6 -14.3 -2.6 -12.75 L-2.6 -7.05 5.1 -7.05 5.1 -12.75 Q5.1 -14.3 3.95 -15.45 M9.2 -7.45 L8.9 -7.95 Q8.55 -8.4 9.1 -7.05 L9.2 -7.45" fill="#000000" fill-opacity="0.70980394" fill-rule="evenodd" stroke="none"/>
    <path d="M6.85 -14.1 L6.85 -8.4 9.6 -8.4 9.6 11.2 -10.0 11.2 -10.0 -8.4 -7.1 -8.4 -7.1 -14.1 Q-7.1 -16.95 -5.05 -19.05 -3.0 -21.1 -0.1 -21.1 2.8 -21.1 4.8 -19.05 6.85 -17.0 6.85 -14.1 M2.6 -16.8 Q1.45 -17.95 -0.1 -17.95 -1.7 -17.95 -2.8 -16.85 L-2.85 -16.8 Q-3.95 -15.7 -3.95 -14.1 L-3.95 -8.4 3.7 -8.4 3.7 -14.1 Q3.7 -15.7 2.6 -16.8" fill="url(#gradient0)" fill-rule="evenodd" stroke="none"/>
  </g>
  <defs>
    <linearGradient gradientTransform="matrix(-0.0178, -0.0076, 0.0076, -0.0179, 6.4, -0.65)" gradientUnits="userSpaceOnUse" id="gradient0" spreadMethod="pad" x1="-819.2" x2="819.2">
      <stop offset="0.0" stop-color="#333333"/>
      <stop offset="0.9411764705882353" stop-color="#cccccc"/>
      <stop offset="1.0" stop-color="#ffffff"/>
    </linearGradient>
  </defs>
</svg>
