<?xml version="1.0" encoding="UTF-8" standalone="no"?>
<svg xmlns:xlink="http://www.w3.org/1999/xlink" height="72.75px" width="140.15px" xmlns="http://www.w3.org/2000/svg">
  <g transform="matrix(1.0, 0.0, 0.0, 1.0, 70.05, 36.35)">
    <path d="M22.9 -26.2 Q20.7 -27.1 24.1 -25.95 L42.1 -19.15 Q50.45 -15.8 57.9 -10.6 61.2 -8.25 63.45 -4.8 67.15 0.65 65.85 7.1 65.45 8.7 64.55 10.15 L62.1 13.75 Q60.6 15.95 58.3 17.1 55.25 18.5 47.45 17.75 39.75 16.85 32.25 13.65 24.7 10.35 9.7 2.35 L-18.8 12.1 -29.5 -8.5 Q-13.1 -22.35 5.8 -32.1 L22.9 -26.2 M8.15 -28.1 L4.95 -28.75 Q1.35 -26.95 -2.45 -24.55 L-9.8 -19.75 Q-12.45 -18.15 -20.35 -12.6 -28.35 -7.1 -27.85 -6.8 -27.4 -6.6 -26.55 -4.9 L-24.55 -0.35 -21.45 -2.3 -22.95 -4.8 Q-24.3 -6.9 -23.75 -6.9 -23.15 -6.8 -10.1 -14.45 3.0 -22.05 6.3 -24.35 L11.4 -23.65 16.55 -22.55 Q45.0 -10.75 51.15 -4.3 52.7 -2.6 54.25 0.8 55.75 4.05 58.25 6.5 L60.9 7.35 Q63.6 7.65 64.35 6.55 64.65 6.15 65.0 3.85 65.75 -0.7 63.45 -4.35 59.65 -10.0 48.15 -14.3 48.0 -14.65 43.45 -16.2 L39.2 -17.95 37.7 -18.75 36.4 -19.3 Q36.25 -19.5 33.35 -20.5 L30.25 -21.85 8.4 -28.3 8.15 -28.1" fill="#faa710" fill-rule="evenodd" stroke="none"/>
    <path d="M22.9 -26.2 L5.8 -32.1 Q-13.1 -22.35 -29.5 -8.5 L-18.8 12.1 9.7 2.35 Q24.7 10.35 32.25 13.65 39.75 16.85 47.45 17.75 55.25 18.5 58.3 17.1 60.6 15.95 62.1 13.75 L64.55 10.15 Q65.45 8.7 65.85 7.1 67.15 0.65 63.45 -4.8 61.2 -8.25 57.9 -10.6 50.45 -15.8 42.1 -19.15 L24.1 -25.95 Q20.7 -27.1 22.9 -26.2 M62.1 -14.6 Q64.7 -12.9 66.3 -10.15 69.3 -5.05 69.85 0.6 71.3 11.6 63.95 18.45 61.15 20.95 57.75 22.3 54.35 23.65 50.55 22.75 44.15 21.85 37.95 20.05 29.15 16.75 20.8 12.2 L10.95 6.65 -17.9 17.1 -20.1 18.5 -22.1 14.45 -22.2 14.5 -25.4 16.6 -25.8 19.15 Q-26.1 20.45 -26.55 21.6 -27.55 24.55 -29.35 27.0 -31.9 30.55 -35.95 33.05 -43.9 37.9 -52.9 35.7 -57.85 34.55 -61.45 31.7 L-62.45 30.5 -60.55 27.95 -60.05 27.35 -59.9 27.15 -58.8 25.7 -56.55 27.05 -56.35 27.15 -54.85 27.75 -53.25 28.05 Q-50.55 28.45 -47.9 27.5 -43.45 25.9 -41.45 21.65 -39.45 17.35 -41.05 12.9 -42.6 8.5 -46.9 6.5 -50.9 4.6 -55.15 5.95 L-55.55 6.1 Q-60.0 7.7 -62.0 11.9 L-62.3 12.55 Q-63.25 15.0 -63.15 17.45 L-65.0 17.75 -65.15 17.85 -65.45 17.9 -68.15 18.45 -69.3 18.7 -69.4 18.6 -70.05 14.75 Q-70.2 11.75 -69.4 8.65 -67.35 -0.35 -59.4 -5.2 -51.4 -10.05 -42.4 -7.9 L-42.4 -7.85 -41.8 -7.75 Q-37.35 -6.55 -33.9 -3.9 L-32.4 -4.75 -34.5 -9.1 -31.6 -11.75 Q-14.85 -26.95 5.45 -36.35 26.4 -31.35 46.85 -22.85 54.75 -19.35 62.1 -14.6 M-43.5 -5.0 Q-51.4 -6.9 -58.35 -2.65 -65.3 1.55 -67.1 9.5 L-67.45 11.1 -67.6 13.3 -67.6 16.25 -65.2 15.8 -65.1 15.85 -64.6 12.0 -64.5 11.75 -64.1 10.95 -63.2 9.2 Q-60.65 4.95 -55.75 3.2 L-55.3 3.0 Q-50.05 1.35 -44.95 3.65 -39.65 6.2 -37.7 11.7 -35.75 17.2 -38.2 22.55 -40.75 27.75 -46.25 29.75 -49.55 30.9 -52.9 30.5 L-54.9 30.05 Q-55.8 29.8 -56.75 29.35 L-57.0 29.3 -57.15 29.2 -57.3 29.1 -58.05 28.8 Q-58.1 28.75 -58.25 28.65 L-58.65 28.35 -59.75 29.85 -59.2 30.25 Q-56.3 32.2 -52.65 33.1 L-52.6 33.15 Q-44.8 35.0 -37.85 30.75 -33.1 27.85 -30.7 23.2 -29.65 21.15 -29.05 18.65 L-29.05 18.6 -28.55 15.9 -28.5 13.45 -25.0 11.05 -24.9 11.05 -25.85 8.95 -28.45 2.8 -29.35 1.05 -29.7 0.0 -29.75 0.0 -32.95 1.65 Q-36.0 -2.15 -40.45 -4.0 L-43.5 -5.0" fill="#000000" fill-rule="evenodd" stroke="none"/>
    <path d="M8.15 -28.1 L8.4 -28.3 30.25 -21.85 33.35 -20.5 Q36.25 -19.5 36.4 -19.3 L37.7 -18.75 39.2 -17.95 43.45 -16.2 Q48.0 -14.65 48.15 -14.3 59.65 -10.0 63.45 -4.35 65.75 -0.7 65.0 3.85 64.65 6.15 64.35 6.55 63.6 7.65 60.9 7.35 L58.25 6.5 Q55.75 4.05 54.25 0.8 52.7 -2.6 51.15 -4.3 45.0 -10.75 16.55 -22.55 L11.4 -23.65 6.3 -24.35 Q3.0 -22.05 -10.1 -14.45 -23.15 -6.8 -23.75 -6.9 -24.3 -6.9 -22.95 -4.8 L-21.45 -2.3 -24.55 -0.35 -26.55 -4.9 Q-27.4 -6.6 -27.85 -6.8 -28.35 -7.1 -20.35 -12.6 -12.45 -18.15 -9.8 -19.75 L-2.45 -24.55 Q1.35 -26.95 4.95 -28.75 L8.15 -28.1" fill="#ffdc70" fill-rule="evenodd" stroke="none"/>
    <path d="M-43.5 -5.0 L-40.45 -4.0 Q-36.0 -2.15 -32.95 1.65 L-29.75 0.0 -29.7 0.0 -29.35 1.05 -28.45 2.8 -25.85 8.95 -24.9 11.05 -25.0 11.05 -28.5 13.45 -28.55 15.9 -29.05 18.6 -29.05 18.65 Q-29.65 21.15 -30.7 23.2 -33.1 27.85 -37.85 30.75 -44.8 35.0 -52.6 33.15 L-52.65 33.1 Q-56.3 32.2 -59.2 30.25 L-59.75 29.85 -58.65 28.35 -58.25 28.65 Q-58.1 28.75 -58.05 28.8 L-57.3 29.1 -57.15 29.2 -57.0 29.3 -56.75 29.35 Q-55.8 29.8 -54.9 30.05 L-52.9 30.5 Q-49.55 30.9 -46.25 29.75 -40.75 27.75 -38.2 22.55 -35.75 17.2 -37.7 11.7 -39.65 6.2 -44.95 3.65 -50.05 1.35 -55.3 3.0 L-55.75 3.2 Q-60.65 4.95 -63.2 9.2 L-64.1 10.95 -64.5 11.75 -64.6 12.0 -65.1 15.85 -65.2 15.8 -67.6 16.25 -67.6 13.3 -67.45 11.1 -67.1 9.5 Q-65.3 1.55 -58.35 -2.65 -51.4 -6.9 -43.5 -5.0" fill="#cccccc" fill-rule="evenodd" stroke="none"/>
  </g>
</svg>
