<?xml version="1.0" encoding="UTF-8" standalone="no"?>
<svg xmlns:xlink="http://www.w3.org/1999/xlink" height="70.2px" width="94.15px" xmlns="http://www.w3.org/2000/svg">
  <g transform="matrix(1.0, 0.0, 0.0, 1.0, 5.85, 8.8)">
    <path d="M20.85 -7.6 Q32.35 -9.65 44.0 -8.15 54.55 -6.95 64.7 -4.0 77.05 -0.35 84.15 10.2 91.25 20.7 86.2 32.6 81.1 44.5 75.4 49.85 70.25 54.65 68.25 55.1 L67.1 55.7 67.5 56.7 Q52.3 58.85 36.95 59.1 L15.55 59.85 -5.85 61.4 Q1.65 60.4 8.7 58.0 14.7 56.0 20.4 53.25 32.3 47.55 41.8 38.5 46.05 34.5 49.05 29.45 51.2 25.85 50.0 21.85 47.9 14.8 42.85 9.35 40.5 6.75 37.85 4.5 L38.3 3.35 37.75 2.75 37.1 2.25 35.75 1.3 34.2 0.55 32.45 -0.05 32.0 -0.6 32.95 -1.65 29.25 -3.7 31.3 -4.5 20.85 -7.6" fill="#ffffff" fill-rule="evenodd" stroke="none"/>
  </g>
</svg>
