<?xml version="1.0" encoding="UTF-8" standalone="no"?>
<svg xmlns:xlink="http://www.w3.org/1999/xlink" height="77.05px" width="81.9px" xmlns="http://www.w3.org/2000/svg">
  <g transform="matrix(1.0, 0.0, 0.0, 1.0, -9.2, 15.05)">
    <path d="M57.55 -13.95 L58.2 -14.8 58.75 -15.05 63.05 -14.95 63.2 -14.85 Q63.6 -14.05 64.05 -13.6 64.1 -13.3 63.65 -13.35 62.85 -13.45 62.3 -12.9 L61.0 -11.95 57.1 -8.95 56.5 -8.55 56.05 -8.1 55.55 -7.6 55.7 -10.55 55.9 -10.75 57.05 -12.0 57.1 -12.4 Q56.9 -13.4 57.55 -13.95 M79.4 -1.35 Q79.8 -1.0 80.4 -0.95 L80.45 -0.7 Q80.7 0.5 81.25 1.55 L80.65 1.6 79.45 1.7 79.35 1.9 Q79.05 2.6 79.1 3.35 79.1 4.1 78.4 4.05 L75.3 4.1 75.1 4.15 74.7 4.35 Q74.8 3.05 75.9 2.1 L76.9 1.1 77.85 -0.05 79.3 -1.4 79.4 -1.35 M81.4 31.75 L83.55 32.95 Q85.25 34.0 85.35 35.9 L85.45 36.7 Q85.5 37.1 85.75 37.15 L86.8 36.8 87.9 35.8 Q89.75 33.85 91.1 31.6 L91.05 31.8 88.65 38.6 87.9 40.4 87.9 40.5 87.7 40.2 86.95 39.65 86.65 39.5 85.55 39.4 84.95 39.5 Q83.15 39.55 82.75 41.25 L82.45 42.25 Q81.6 44.25 82.05 46.35 L82.2 47.2 Q82.3 48.6 83.3 49.25 L83.05 49.35 82.8 49.55 82.05 50.2 81.2 50.8 Q80.2 51.25 79.35 52.05 L79.2 52.2 79.15 51.7 79.2 50.65 79.3 49.85 79.75 48.4 80.1 47.2 Q81.25 43.15 80.2 39.0 79.55 36.65 77.9 34.95 74.35 31.25 69.15 31.85 L67.15 32.0 Q64.9 32.2 63.65 34.1 62.15 36.55 62.35 39.4 62.55 41.45 63.3 43.25 63.8 44.45 64.75 45.25 65.1 45.6 64.25 45.55 64.0 45.5 64.3 45.95 L64.55 46.4 64.55 46.55 64.65 47.0 65.15 47.75 Q65.55 48.35 65.1 48.4 L64.75 48.15 Q63.95 47.1 62.65 46.7 L61.15 46.3 59.55 46.1 57.15 46.4 Q56.3 46.7 55.6 47.3 54.65 48.2 54.75 49.45 L55.0 50.35 56.0 51.25 Q60.1 53.15 64.45 54.3 65.1 54.45 65.3 54.75 L65.25 54.9 Q64.9 55.2 64.9 55.55 L65.3 55.55 67.55 55.55 67.15 56.05 66.9 56.4 Q66.85 57.35 67.95 57.25 L71.85 57.0 71.8 57.15 70.85 57.65 67.95 58.8 65.5 59.5 60.35 60.45 58.35 60.75 56.9 61.0 55.1 60.85 54.85 60.8 50.55 60.9 50.2 60.8 Q49.5 60.45 49.3 59.45 L49.05 58.9 Q48.7 58.45 48.15 58.15 L43.85 56.15 42.2 56.05 Q39.0 56.9 36.25 58.65 36.65 59.25 37.25 59.45 L37.8 59.75 Q39.05 60.65 39.5 61.9 L36.65 62.0 33.2 61.65 32.55 61.5 33.95 60.85 34.1 60.65 Q34.25 59.7 33.85 58.85 L33.7 58.6 33.2 58.4 32.85 58.15 32.5 57.65 Q32.0 56.55 33.15 55.8 L33.75 55.35 Q33.9 55.15 34.0 55.15 L39.5 54.95 41.95 55.1 Q45.4 55.5 47.25 52.7 L48.2 51.35 Q48.85 50.45 48.9 49.45 L48.85 48.65 Q48.5 47.35 48.5 45.95 L48.7 45.0 48.9 44.75 Q47.15 43.95 45.5 42.8 44.35 42.05 43.75 40.85 L42.3 38.5 41.25 37.05 40.35 35.9 39.45 35.0 38.35 34.2 Q36.3 32.85 33.8 33.2 L32.55 33.4 Q31.15 33.8 30.2 34.8 30.0 35.0 29.95 35.3 L29.9 39.2 29.95 39.75 28.95 38.35 28.8 38.0 28.65 37.8 27.65 36.95 Q29.25 35.2 29.55 32.85 L29.7 32.45 Q30.05 32.0 30.75 31.75 L31.1 31.75 34.8 31.85 Q37.0 31.85 38.9 31.05 L39.3 31.0 40.7 31.2 40.75 31.4 Q40.95 32.95 41.7 34.3 L41.85 34.65 42.3 35.55 44.0 39.4 44.7 41.2 44.8 41.45 Q46.3 43.3 48.5 43.25 L50.0 42.95 49.95 42.9 49.75 41.85 49.3 39.0 49.2 38.4 49.05 36.75 48.75 35.5 48.2 34.25 48.2 33.95 Q49.05 32.7 50.35 31.8 L54.8 28.9 Q58.35 26.8 62.4 26.75 L65.45 26.9 Q72.25 27.7 78.6 30.4 L81.4 31.75 M9.55 41.4 L11.25 38.8 Q12.05 40.8 12.35 42.85 L12.4 43.1 Q12.5 43.7 11.95 44.2 L11.45 44.7 10.25 46.2 9.35 45.25 Q9.2 45.05 9.2 44.7 L9.4 41.9 9.55 41.4 M21.5 53.7 L21.3 54.0 19.5 55.0 19.0 54.6 18.7 54.3 Q18.45 54.0 18.55 53.55 L19.05 52.75 Q19.9 51.65 21.1 51.25 21.6 52.5 21.5 53.7" fill="#00ccff" fill-rule="evenodd" stroke="none"/>
  </g>
</svg>
