<?xml version="1.0" encoding="UTF-8" standalone="no"?>
<svg xmlns:xlink="http://www.w3.org/1999/xlink" height="69.5px" width="94.1px" xmlns="http://www.w3.org/2000/svg">
  <g transform="matrix(1.0, 0.0, 0.0, 1.0, 3.95, 8.7)">
    <path d="M26.0 -8.3 L34.15 -8.7 Q47.25 -8.7 59.25 -5.9 71.2 -3.1 78.2 2.45 85.2 8.0 87.95 14.35 90.65 20.65 90.05 27.65 89.45 34.65 83.85 41.9 78.3 49.1 67.95 55.05 L61.6 55.85 67.5 56.7 55.25 58.9 Q42.3 60.8 28.4 60.8 L14.8 60.5 -3.95 60.1 Q4.1 60.1 16.25 55.85 28.4 51.6 36.65 44.85 44.85 38.05 47.6 33.55 50.35 29.05 50.85 24.55 51.3 20.1 49.95 17.15 48.6 14.25 47.1 11.85 45.55 9.45 37.85 4.5 L36.25 3.7 42.65 3.8 32.3 -0.6 32.1 -0.7 34.8 -1.45 29.25 -3.7 33.15 -4.7 20.85 -7.6 26.0 -8.3" fill="#ffffff" fill-rule="evenodd" stroke="none"/>
  </g>
</svg>
