<?xml version="1.0" encoding="UTF-8" standalone="no"?>
<svg xmlns:xlink="http://www.w3.org/1999/xlink" height="68.6px" width="94.15px" xmlns="http://www.w3.org/2000/svg">
  <g transform="matrix(1.0, 0.0, 0.0, 1.0, 4.15, 7.8)">
    <path d="M37.0 -7.8 Q46.85 -8.0 58.6 -5.05 70.35 -2.1 77.3 3.35 84.25 8.8 87.35 14.75 90.4 20.65 89.95 28.7 89.45 36.75 83.85 43.95 78.3 51.1 67.75 55.05 L61.35 55.85 67.3 56.7 55.05 58.9 Q42.05 60.8 28.2 60.8 L14.6 60.5 -4.15 60.1 Q3.9 60.1 16.85 56.05 29.8 52.05 37.25 45.05 44.65 38.05 47.4 33.55 50.15 29.05 51.1 24.3 52.0 19.55 51.35 16.85 50.7 14.2 49.1 11.5 47.5 8.8 37.65 4.5 L36.05 3.7 42.45 3.8 32.75 0.8 35.6 -0.8 29.65 -3.3 33.55 -3.9 Q31.0 -6.15 23.35 -6.3 27.15 -7.65 37.0 -7.8" fill="#ffffff" fill-rule="evenodd" stroke="none"/>
  </g>
</svg>
