<?xml version="1.0" encoding="UTF-8" standalone="no"?>
<svg xmlns:xlink="http://www.w3.org/1999/xlink" height="52.6px" width="76.85px" xmlns="http://www.w3.org/2000/svg">
  <g transform="matrix(1.0, 0.0, 0.0, 1.0, -11.9, -8.5)">
    <path d="M81.6 11.55 L81.3 11.85 80.2 12.7 79.85 12.85 78.8 13.2 78.2 13.4 77.1 14.6 76.75 14.7 75.5 14.7 75.3 14.9 Q74.75 17.3 76.15 19.15 L77.4 20.95 77.9 21.65 78.4 21.95 79.0 22.05 80.85 22.3 81.05 22.35 81.4 22.5 81.9 22.8 82.5 23.6 82.65 24.05 82.75 24.45 83.05 25.5 83.15 26.1 83.25 26.7 83.4 27.0 Q83.65 27.2 83.7 27.75 L83.8 28.0 84.0 28.75 Q83.85 29.95 84.95 30.6 L86.25 31.75 86.45 32.1 87.0 33.85 87.4 35.5 87.8 37.75 87.9 38.1 88.0 38.8 87.65 40.05 Q87.35 40.7 87.35 41.55 L87.1 39.0 87.05 38.4 86.9 37.15 86.85 35.7 86.65 34.25 86.3 33.5 85.6 32.6 85.0 32.0 83.75 30.55 Q83.05 29.9 82.85 28.75 L82.6 26.1 82.4 25.5 82.15 25.05 Q81.7 23.8 80.45 23.25 L79.85 22.95 79.35 22.75 78.0 22.0 77.55 21.65 77.05 21.3 Q76.65 20.95 76.15 20.75 L73.05 20.45 72.65 20.5 71.2 20.65 70.2 20.65 Q68.05 20.65 66.15 21.45 63.35 22.65 61.35 25.05 60.05 26.65 59.8 28.55 L59.7 29.15 Q59.5 31.4 60.4 33.25 L60.85 33.7 Q61.65 34.1 61.6 34.9 L61.7 35.5 62.25 37.95 Q62.5 39.45 61.4 39.85 L61.25 39.9 61.4 39.4 61.15 39.3 60.35 39.4 60.25 39.65 Q60.1 40.8 58.95 40.55 57.4 40.2 56.1 39.4 L55.9 39.3 54.05 39.15 Q52.15 39.1 51.2 40.85 L50.15 42.9 Q48.75 45.55 49.3 48.4 L49.45 49.0 Q50.95 52.45 53.85 54.75 L54.5 55.1 Q56.2 55.75 58.15 55.6 L58.55 55.6 58.5 55.7 58.15 55.8 56.75 56.25 56.3 56.3 Q55.75 56.35 55.7 56.8 55.7 57.35 56.35 57.75 L56.9 58.05 58.9 58.8 58.5 59.25 57.1 60.2 55.9 60.4 52.45 60.75 50.15 61.05 49.55 61.1 Q49.6 60.85 49.95 60.75 L50.55 60.6 51.45 60.15 52.1 59.2 Q52.9 57.35 51.55 55.8 L51.25 55.35 Q50.8 54.45 49.75 54.55 L49.15 54.65 Q48.55 54.8 48.35 55.2 L47.3 57.2 47.2 57.6 Q47.2 58.6 46.7 59.1 L45.5 60.15 Q44.4 60.85 43.0 60.6 L42.85 60.45 41.85 58.6 Q41.0 57.4 39.9 57.05 L37.7 56.1 37.25 55.95 35.0 55.8 33.6 55.55 33.35 55.45 Q32.1 55.15 31.3 56.0 L31.1 56.15 30.1 57.0 30.0 57.2 Q30.05 57.65 30.55 57.8 L30.85 57.9 31.95 58.0 Q32.8 57.85 33.15 58.25 32.05 58.3 31.15 58.9 L30.65 59.15 Q30.15 59.3 30.55 59.85 31.2 60.55 32.55 61.1 L31.55 61.1 24.35 61.1 Q25.1 60.1 26.4 59.6 L26.6 59.45 27.85 57.6 28.05 57.45 29.35 56.45 29.6 56.15 30.3 55.55 Q32.85 54.55 35.85 54.8 L37.0 55.1 Q38.95 56.0 40.7 57.25 41.65 57.95 42.6 58.05 L44.0 57.8 Q44.85 57.25 45.35 56.35 L45.9 54.75 46.0 54.3 Q46.1 53.65 46.7 53.7 L48.7 53.3 47.65 52.4 47.35 52.2 45.85 51.5 Q43.8 50.65 43.3 48.0 L43.15 47.0 Q43.05 44.95 43.55 43.05 L43.7 42.7 Q44.3 41.45 45.5 40.5 L45.9 40.2 45.9 38.4 Q46.15 36.5 44.45 35.7 L43.8 35.35 Q41.8 34.2 40.3 36.1 39.4 37.2 39.4 38.6 L39.35 40.0 38.7 42.9 Q38.1 44.85 35.85 44.6 L34.8 44.4 33.95 44.15 Q32.0 43.35 31.55 41.25 L31.25 39.85 Q31.0 38.8 30.25 38.0 28.65 36.25 26.45 35.45 L24.95 35.0 23.15 34.75 Q20.3 34.6 18.0 36.25 L16.4 37.4 Q15.55 38.05 14.95 38.95 14.75 39.2 14.7 39.6 14.55 43.3 16.4 46.35 L16.8 47.4 Q17.25 49.45 18.75 51.15 L20.4 53.0 20.95 53.7 Q21.6 54.65 22.75 54.65 L23.15 54.65 24.35 54.75 Q24.0 55.2 23.15 55.15 L21.65 54.85 21.3 54.75 Q20.95 54.75 20.9 54.35 L20.65 54.0 19.5 53.05 19.0 52.55 18.5 52.05 17.05 50.8 Q16.55 50.45 15.95 50.45 15.15 50.45 15.25 49.85 15.35 48.45 14.85 47.15 L14.5 46.15 13.15 41.0 Q12.7 39.2 11.9 37.95 L13.3 38.15 Q13.75 38.2 13.9 37.8 L14.1 37.5 Q14.95 36.9 15.95 36.7 L16.35 36.5 18.0 35.45 18.9 35.0 20.05 34.45 20.95 33.95 21.45 33.6 23.3 32.6 23.9 32.2 Q24.15 31.95 24.45 32.4 L24.8 32.6 26.25 32.95 26.8 33.1 Q27.85 33.3 28.7 34.0 L29.3 34.3 Q30.85 34.9 32.3 35.8 L33.0 36.3 34.5 37.3 34.5 37.5 Q33.9 38.9 33.65 40.4 33.45 41.65 34.15 42.35 L34.45 42.6 35.25 43.25 Q35.8 43.6 36.65 43.7 37.55 43.75 37.8 43.25 L37.95 42.9 38.0 42.65 38.6 41.4 38.75 41.05 38.8 40.8 Q39.2 39.4 39.15 37.75 L39.25 35.9 39.4 34.3 39.55 33.9 Q39.95 33.35 40.75 33.35 L41.15 33.3 Q42.75 32.55 44.65 32.75 L45.05 32.85 Q46.8 33.5 47.15 34.9 47.45 35.8 47.3 36.95 47.2 38.1 47.45 39.1 48.35 38.5 49.35 38.05 51.2 37.1 53.25 37.15 L54.05 37.25 54.85 37.3 Q56.25 37.15 57.1 37.95 57.85 38.7 58.9 38.15 59.65 37.75 59.65 36.75 L59.65 36.55 59.5 35.1 Q58.95 33.25 56.75 32.2 L55.85 31.65 Q54.95 30.95 54.1 29.35 L52.9 26.7 Q52.4 25.45 52.35 24.05 52.35 23.25 52.65 22.65 53.25 21.6 54.5 20.8 L57.55 18.55 Q58.7 17.7 60.0 17.15 62.15 16.25 64.65 15.8 L65.45 15.55 Q66.95 14.9 68.55 14.6 L69.15 14.5 71.45 14.0 73.7 13.8 74.0 13.7 75.1 13.65 75.5 13.75 76.75 13.75 76.95 13.65 77.35 13.6 78.2 13.4 78.3 13.3 78.75 12.95 79.45 12.45 Q80.3 11.8 81.25 11.6 L81.6 11.55 Q82.5 10.55 83.7 9.9 83.8 9.8 83.95 9.8 84.9 9.35 85.15 8.5 85.6 8.4 85.8 8.9 L86.2 9.7 86.3 9.95 86.45 10.25 86.95 10.75 88.5 12.75 Q88.9 13.4 88.6 13.4 L88.35 13.1 Q87.8 12.65 87.2 12.35 L86.95 12.25 84.75 11.4 84.3 11.25 81.6 11.55 M84.85 55.0 L85.1 55.55 85.15 55.95 84.85 55.65 84.35 55.15 83.65 54.65 82.75 54.25 Q81.25 53.7 79.6 53.85 L78.25 53.95 Q78.8 53.95 79.15 54.35 L79.65 55.15 80.0 56.15 79.85 55.95 Q78.9 54.95 77.55 54.9 L76.95 54.75 74.1 54.55 Q72.15 54.8 70.85 53.65 72.95 52.05 74.2 49.6 L74.4 49.35 74.9 49.25 Q79.1 49.25 82.25 51.95 83.8 53.3 84.85 55.0" fill="#00ccff" fill-rule="evenodd" stroke="none"/>
  </g>
</svg>
