<?xml version="1.0" encoding="UTF-8" standalone="no"?>
<svg xmlns:xlink="http://www.w3.org/1999/xlink" height="68.75px" width="92.8px" xmlns="http://www.w3.org/2000/svg">
  <g transform="matrix(1.0, 0.0, 0.0, 1.0, -0.55, 6.6)">
    <path d="M69.4 -6.45 Q73.05 -4.85 76.35 -2.75 75.1 -2.75 74.05 -2.2 73.65 -2.05 73.6 -2.35 L73.45 -2.75 Q72.35 -4.6 70.2 -4.7 L69.8 -4.75 68.55 -4.8 Q67.75 -4.8 67.45 -4.0 L67.35 -3.8 Q66.15 -2.3 66.3 -0.3 66.4 0.85 65.5 0.25 64.65 -0.3 63.25 -0.2 L63.2 -0.2 63.4 -0.75 63.4 -1.3 Q63.25 -2.05 63.85 -2.05 L64.3 -2.35 Q64.5 -2.95 65.0 -3.45 L66.1 -4.6 68.2 -6.35 69.4 -6.45 M90.45 24.25 L93.1 24.25 93.35 24.2 Q92.15 28.7 91.4 33.3 L91.3 34.5 91.15 35.0 90.95 35.2 90.5 35.7 87.95 39.35 87.7 39.65 Q87.3 39.05 86.55 38.85 85.4 38.55 85.0 39.65 L84.3 40.6 Q82.05 42.5 82.2 45.55 L82.1 48.2 81.9 48.45 Q80.8 49.1 79.85 50.8 L78.55 52.7 Q77.15 54.4 75.4 55.7 L73.25 57.35 Q71.0 59.25 68.15 59.05 L68.1 58.7 68.7 57.6 Q69.3 56.55 70.0 56.0 L68.4 56.25 67.95 56.3 65.15 56.5 67.0 55.0 68.15 53.95 Q69.4 52.85 69.6 51.05 L68.85 51.15 68.6 51.2 67.35 50.9 66.9 50.85 67.45 50.35 67.7 50.05 Q67.8 49.6 67.35 49.35 67.15 49.25 67.2 48.85 67.3 48.1 67.7 47.35 L68.05 46.35 68.15 44.95 Q67.8 36.25 73.2 29.5 74.3 28.15 75.55 26.95 78.25 24.4 81.85 24.35 L82.45 24.5 82.7 24.6 Q83.5 24.8 83.95 24.3 84.65 23.7 85.55 23.5 86.25 23.35 86.45 23.8 86.8 24.7 87.8 24.6 L89.65 24.35 90.45 24.25 M72.65 8.65 Q73.15 8.1 74.2 8.5 L74.5 8.9 Q74.75 9.8 74.5 10.7 L74.3 10.75 Q72.65 10.95 72.2 9.95 72.15 9.8 72.0 9.8 72.2 9.15 72.65 8.65 M28.85 49.0 Q29.65 48.15 30.1 49.45 L30.3 49.8 Q30.8 50.5 31.55 50.6 L32.55 50.7 Q33.5 50.7 34.0 51.25 L34.2 51.45 35.15 52.55 35.6 52.85 Q36.2 52.75 36.25 53.1 35.85 53.65 35.2 53.55 34.5 53.4 34.5 52.7 L34.4 52.5 34.2 52.3 Q33.1 52.3 32.35 51.7 L32.1 51.45 Q31.9 50.5 30.95 50.7 L30.5 50.8 30.15 50.95 Q28.05 52.25 27.75 54.75 L27.55 56.4 Q27.4 57.55 28.0 58.1 L28.15 58.45 Q28.25 59.65 28.9 60.7 L29.35 61.2 30.3 61.8 30.5 61.9 29.7 62.15 26.35 61.8 26.35 61.75 26.1 61.25 Q25.55 59.95 26.0 58.65 L26.15 58.2 26.3 57.85 26.7 56.6 26.7 56.4 26.8 52.7 26.75 52.35 25.8 51.05 28.25 49.4 28.85 49.0 M0.75 42.3 Q0.5 40.95 0.6 39.75 0.55 41.35 1.25 42.85 L2.15 44.25 3.6 45.6 Q6.4 47.55 9.85 47.8 L12.25 48.1 Q13.1 48.2 13.8 48.6 L15.4 48.65 15.95 48.45 Q17.4 48.25 17.55 49.85 17.65 50.85 18.2 51.25 L18.25 51.1 18.55 50.6 19.15 49.7 20.1 48.3 Q21.15 46.55 22.8 45.55 L22.3 46.55 Q21.5 47.75 21.5 49.25 L21.4 49.55 21.15 49.9 19.25 51.9 18.75 52.55 17.8 53.55 17.75 52.75 17.65 52.5 Q17.5 51.9 16.95 51.35 L16.7 51.0 15.75 50.3 14.35 49.9 13.55 49.75 12.65 49.5 12.35 49.35 11.7 49.1 9.85 48.75 9.4 48.65 8.85 48.55 6.75 48.35 3.7 48.4 3.35 48.3 3.0 48.05 1.85 46.55 1.55 45.95 0.9 43.05 0.75 42.3 M16.25 30.4 L16.3 30.8 16.5 31.4 Q16.9 32.4 18.0 32.5 18.5 32.55 18.8 32.2 L19.1 31.95 20.25 31.2 21.75 30.05 22.95 29.45 26.4 28.8 Q27.1 28.8 27.65 29.15 L28.2 29.65 Q29.6 31.1 30.65 33.3 31.55 35.2 31.85 37.35 31.9 37.95 31.55 37.95 L31.3 37.6 Q29.55 35.35 28.85 32.45 L28.2 30.85 27.8 30.6 22.75 31.0 21.9 31.1 Q21.15 31.1 20.6 31.55 L19.75 32.35 18.7 33.35 18.6 33.3 18.25 33.2 17.4 33.4 Q16.35 34.05 15.95 33.25 15.6 32.55 15.7 31.6 L16.2 29.15 16.25 30.4 M53.2 5.75 L53.8 5.25 53.6 6.25 Q53.45 6.85 52.8 6.95 L52.4 7.0 Q51.3 7.05 50.75 7.9 L51.2 8.15 51.8 8.3 51.35 8.65 Q50.2 8.95 49.55 9.9 L48.95 10.75 Q47.55 12.65 47.15 14.85 46.55 18.0 47.35 21.2 47.85 23.3 49.25 24.95 L51.95 27.8 53.1 28.9 53.95 29.65 55.1 30.75 Q56.1 31.75 55.25 32.25 L55.0 32.5 54.45 33.05 Q53.6 33.6 54.05 34.25 L54.25 34.45 Q55.05 34.7 55.25 35.35 L55.35 35.7 Q56.0 36.9 56.25 38.4 L56.2 38.95 55.95 39.65 Q55.45 41.0 54.05 41.05 L50.35 40.95 50.15 40.95 48.35 40.4 48.15 40.35 Q45.5 41.1 43.75 43.45 L43.3 44.15 43.3 44.45 Q43.65 45.05 43.6 45.75 L43.7 48.2 43.75 48.45 44.25 48.9 44.9 49.35 Q45.45 50.0 45.3 50.85 L45.35 51.2 45.6 51.55 46.1 52.0 Q47.5 53.05 49.1 53.55 L50.2 53.8 Q51.55 54.0 52.2 54.75 51.5 55.15 51.05 56.0 L50.7 56.8 Q50.3 57.8 50.7 58.85 L50.85 59.2 Q51.55 60.05 52.6 60.35 L53.45 60.5 Q54.05 60.5 54.05 60.9 L49.75 60.9 48.9 61.0 48.95 60.3 49.0 59.9 Q49.5 58.65 48.5 57.6 L48.1 57.4 46.8 57.1 46.25 56.4 46.05 56.2 45.75 55.9 44.75 55.0 42.75 53.35 42.45 53.05 41.95 52.6 39.5 50.9 39.0 50.4 Q38.4 49.7 37.45 49.9 L37.05 49.65 37.05 46.55 37.15 46.25 37.4 45.75 Q37.55 44.75 38.15 43.95 L38.8 43.0 Q39.85 41.2 41.5 39.95 41.85 39.7 42.25 39.55 L44.0 38.4 44.25 38.25 45.45 38.1 Q46.7 38.0 47.75 38.5 L48.0 38.7 48.55 38.95 49.1 39.1 51.4 39.6 52.0 39.5 Q53.25 39.2 53.0 37.75 52.8 36.7 52.9 35.5 L52.9 32.85 52.9 32.4 Q52.75 31.4 52.15 30.6 L50.95 29.0 50.75 28.8 Q49.45 28.1 48.3 27.1 46.9 25.9 45.05 25.8 44.3 25.75 44.0 26.1 L43.8 26.25 43.1 26.15 42.1 23.45 Q41.6 22.0 39.9 22.2 39.45 22.25 39.45 21.8 38.85 15.45 40.05 9.1 L40.4 7.3 40.6 6.2 40.8 4.2 Q40.85 3.15 41.6 2.4 L42.1 1.9 42.4 1.7 43.6 1.8 43.75 1.95 44.55 3.6 44.95 4.35 Q46.45 6.8 49.35 6.65 L51.4 6.3 53.2 5.75" fill="#00ccff" fill-rule="evenodd" stroke="none"/>
  </g>
</svg>
