<?xml version="1.0" encoding="UTF-8" standalone="no"?>
<svg xmlns:xlink="http://www.w3.org/1999/xlink" height="61.0px" width="93.75px" xmlns="http://www.w3.org/2000/svg">
  <g transform="matrix(1.0, 0.0, 0.0, 1.0, 1.65, -0.95)">
    <path d="M83.25 5.7 Q84.25 6.6 85.55 6.65 L85.9 6.55 86.4 6.4 86.7 6.5 Q87.05 7.05 87.8 6.95 88.05 6.9 88.25 7.25 L89.75 9.95 Q90.65 11.7 91.1 13.6 91.9 16.95 91.9 20.35 L92.0 20.75 92.1 21.0 92.0 20.95 Q91.9 20.3 91.3 20.35 90.95 21.1 91.05 22.0 L91.05 22.2 89.25 22.4 88.85 22.5 Q81.95 25.6 78.85 32.45 L78.7 33.05 Q78.8 34.3 79.2 35.5 79.55 36.5 79.35 37.55 79.15 38.6 79.8 39.2 L80.25 39.5 Q80.95 39.8 80.9 40.85 80.9 42.95 81.95 44.9 82.6 46.15 83.9 46.65 84.75 46.9 85.15 47.4 L85.0 47.45 83.8 48.8 83.9 48.4 83.35 48.9 81.6 50.6 81.05 50.9 Q79.35 50.95 77.95 52.05 L77.25 52.6 77.35 52.5 77.4 52.3 77.65 51.95 78.1 51.25 78.35 50.65 Q78.75 48.45 78.55 46.15 78.2 42.35 76.8 38.75 L75.15 34.05 74.65 32.9 Q73.8 31.5 73.7 29.8 72.6 30.25 71.6 30.75 70.25 31.5 68.9 32.35 L66.7 34.1 66.4 34.55 Q65.7 36.35 66.0 38.35 L66.95 42.65 67.25 43.7 Q67.5 44.9 68.5 45.1 68.0 45.1 67.75 45.35 L69.55 46.0 Q70.5 46.3 70.85 46.75 L70.9 47.0 70.85 47.2 70.55 47.75 Q69.7 49.6 67.75 49.35 65.85 49.1 64.45 50.25 L64.0 50.75 63.2 52.3 62.95 52.65 Q62.45 53.15 62.65 53.95 63.0 55.25 64.05 56.2 L64.5 56.5 64.85 56.7 Q65.3 56.9 65.3 57.6 65.3 58.5 66.3 58.35 67.6 58.2 67.75 59.05 67.15 59.6 66.1 59.65 L65.1 59.75 60.6 60.45 55.4 60.6 55.4 60.5 55.35 60.05 55.25 59.25 Q55.05 57.6 53.4 57.3 L51.2 57.0 47.95 57.25 47.5 57.3 45.8 57.55 45.6 57.6 45.45 57.65 44.85 57.75 Q43.3 57.95 43.4 59.45 L43.5 60.25 Q43.85 61.15 43.45 61.55 42.95 62.0 41.95 61.95 41.75 61.9 41.7 61.85 L41.5 61.1 41.4 60.65 Q41.2 59.85 40.35 59.25 L39.8 58.8 Q38.1 57.05 36.0 56.0 L33.6 55.0 32.95 54.8 31.55 54.7 Q27.95 54.45 24.75 56.0 L24.55 53.75 Q24.4 52.4 23.75 51.3 L23.6 51.05 23.65 50.7 Q24.5 49.1 25.8 47.55 L27.5 45.6 Q29.85 43.1 29.7 39.8 L29.6 39.25 Q29.5 39.0 29.55 38.6 L29.65 38.35 29.6 38.0 29.1 37.15 28.35 36.25 Q27.8 35.75 27.85 35.1 L28.05 35.05 32.75 33.45 31.7 34.45 Q31.05 35.3 31.35 36.55 32.25 40.15 35.25 42.45 L35.5 42.75 35.5 42.9 Q35.25 43.55 35.3 44.3 35.4 45.75 34.15 46.3 L33.45 46.65 Q33.25 46.75 33.3 46.95 L33.6 48.0 Q33.95 49.4 33.8 50.85 L33.9 52.3 Q34.05 53.0 34.6 53.3 L40.35 56.0 41.6 56.35 47.15 56.6 47.65 56.15 Q48.55 55.4 48.8 54.55 L48.95 54.35 Q49.9 53.65 50.05 52.3 L50.15 51.9 50.55 50.05 Q50.75 48.95 51.6 48.65 52.25 48.4 52.45 48.0 L52.95 46.75 53.1 46.4 53.15 46.15 Q53.15 45.45 53.45 45.15 54.65 43.7 54.9 41.85 L55.1 40.4 54.4 37.6 54.0 35.9 Q53.7 34.15 52.6 33.25 L52.45 33.05 Q52.4 32.85 52.5 32.7 L52.8 32.4 Q54.2 31.05 55.25 29.35 L59.2 31.55 60.6 31.95 63.4 31.8 63.8 31.55 Q64.6 30.7 65.9 30.15 L66.1 29.95 Q66.25 29.25 66.75 28.8 L71.45 24.65 71.55 24.45 71.55 24.25 71.45 14.85 71.5 13.85 71.8 11.75 71.75 11.4 Q71.2 10.35 70.25 9.45 L69.95 9.3 67.95 9.0 Q67.75 9.0 67.65 8.85 L67.45 8.5 67.4 8.25 Q66.7 6.0 66.7 3.6 L66.8 3.25 67.15 3.15 Q72.05 2.1 77.15 2.4 L78.4 2.45 Q79.3 2.5 79.65 3.15 L80.15 4.4 Q80.25 4.95 80.85 4.95 L82.45 5.3 83.25 5.7 M46.3 5.85 L46.15 6.1 Q44.9 8.35 44.15 10.7 L44.0 10.95 41.95 12.55 Q40.7 13.65 39.8 14.9 L39.05 15.55 38.7 15.65 38.45 15.6 Q38.55 14.3 38.8 13.0 L38.9 12.75 Q41.25 9.75 44.2 7.25 L45.45 6.25 Q45.85 5.9 46.3 5.85 M54.2 47.35 L53.3 48.25 53.0 48.6 51.65 50.9 Q51.3 51.45 51.1 52.05 L50.4 53.95 Q49.85 55.3 50.65 56.15 L50.7 56.25 51.6 56.25 Q53.15 56.45 54.5 55.85 L55.15 55.45 Q55.95 54.75 55.5 53.75 L55.25 53.5 Q54.7 53.45 54.65 53.1 L55.0 53.05 56.1 52.75 56.35 52.8 Q56.7 53.45 57.55 53.5 L57.85 53.4 Q58.45 53.05 58.9 52.85 60.2 52.4 61.35 51.65 L61.7 51.25 Q61.95 50.35 62.7 49.7 L62.95 49.05 62.95 48.8 Q62.95 48.1 62.4 48.05 L61.15 47.6 60.75 47.45 60.4 47.3 Q58.8 46.85 57.3 45.9 L57.3 46.75 56.5 46.5 Q55.55 46.1 54.7 46.85 L54.2 47.35 M37.3 5.65 L37.05 6.45 36.75 7.1 36.6 7.45 Q36.35 8.1 36.25 9.1 L35.9 10.75 35.8 11.15 35.75 13.2 35.65 17.1 Q35.65 17.75 35.95 18.35 L36.0 18.95 Q35.95 20.3 36.55 21.45 L36.65 21.8 Q36.7 22.8 37.25 23.25 L37.7 23.55 38.1 23.65 Q39.45 23.8 40.55 24.45 L40.35 24.5 Q39.25 25.2 37.85 25.25 L37.05 25.3 37.0 25.1 36.65 24.5 Q35.75 23.3 35.8 21.4 35.85 17.5 35.15 13.6 L34.45 8.9 Q34.3 7.85 34.85 7.0 L35.8 5.2 Q36.6 3.35 37.65 1.7 38.0 1.15 38.75 0.95 L39.1 1.15 Q39.6 1.75 40.35 1.75 L39.35 2.65 Q39.1 2.75 38.9 2.95 37.75 3.95 37.4 5.4 L37.3 5.65 M8.8 47.9 Q9.9 47.9 10.7 48.55 L11.05 48.8 11.9 49.4 11.25 49.35 10.65 49.25 6.75 49.1 5.75 49.25 2.45 49.15 2.05 49.1 0.4 49.05 Q-0.65 49.1 -1.15 48.35 L-1.25 48.2 -1.65 45.15 -1.3 45.6 -0.4 46.95 -0.2 47.2 0.7 48.1 1.05 48.2 4.9 48.1 5.1 48.1 8.8 47.9 M15.85 52.6 L15.85 52.5 15.75 52.1 14.15 50.25 Q14.65 50.15 15.0 50.6 15.75 51.6 17.0 51.55 18.05 51.55 18.85 50.85 18.6 51.9 17.75 52.65 L16.6 52.8 15.85 52.6" fill="#00ccff" fill-rule="evenodd" stroke="none"/>
  </g>
</svg>
