<?xml version="1.0" encoding="UTF-8" standalone="no"?>
<svg xmlns:xlink="http://www.w3.org/1999/xlink" height="77.3px" width="76.8px" xmlns="http://www.w3.org/2000/svg">
  <g transform="matrix(1.0, 0.0, 0.0, 1.0, -11.4, 14.05)">
    <path d="M59.55 -9.1 L59.65 -10.75 59.8 -10.9 60.55 -11.4 Q61.45 -12.15 62.6 -12.45 L64.2 -13.1 Q65.2 -13.6 66.05 -14.05 L66.5 -13.8 Q68.05 -12.6 70.0 -12.5 L70.6 -12.45 Q71.3 -12.35 71.2 -11.75 L70.3 -7.85 Q69.75 -5.9 69.8 -3.8 L62.6 -4.4 62.15 -4.55 61.4 -4.8 Q60.5 -4.95 60.65 -4.0 60.7 -3.55 60.45 -3.45 L60.2 -3.15 Q59.05 0.85 59.3 5.0 L59.4 7.05 Q59.45 8.55 60.0 9.9 L60.0 10.0 59.55 9.75 58.55 9.0 58.45 8.8 58.35 8.5 59.45 -6.25 59.55 -9.1 M79.6 -0.5 L80.65 0.5 Q81.7 1.95 83.05 3.2 L84.2 4.1 84.4 4.3 84.55 4.6 Q84.7 8.4 83.85 11.95 83.7 12.6 82.75 12.35 82.4 12.3 82.15 11.9 L81.55 11.05 81.05 10.5 80.15 10.45 79.8 10.55 Q77.15 10.6 74.6 9.7 L73.95 9.05 72.25 7.65 Q72.4 7.2 73.0 6.9 L73.9 6.25 74.75 5.5 75.1 5.45 Q75.8 5.6 76.05 5.05 L76.7 3.95 78.85 0.55 79.45 -0.3 79.6 -0.5 M81.55 19.65 L81.25 19.75 Q80.25 19.95 79.95 19.35 L79.9 19.3 79.85 19.15 79.85 18.95 Q80.15 17.25 81.6 18.05 L81.8 18.35 Q82.0 19.15 81.55 19.65 M81.05 34.25 L81.25 34.45 Q82.55 34.75 83.35 35.45 L83.6 35.8 Q83.95 36.55 84.75 36.95 L85.1 37.2 Q85.4 37.6 86.15 37.5 86.8 37.4 87.0 37.75 L87.15 37.85 88.2 37.75 88.05 38.4 87.85 38.8 87.7 39.05 Q87.35 39.35 87.4 40.0 87.45 40.8 87.15 41.4 85.8 43.6 84.95 45.75 L84.95 45.55 84.85 41.2 Q84.75 40.4 84.1 40.2 83.7 40.7 83.35 41.65 82.5 44.05 82.25 46.55 82.15 47.55 82.55 48.35 L82.9 48.65 Q83.4 48.7 83.3 49.25 81.8 50.45 79.8 51.05 L79.6 51.1 78.75 51.3 78.7 51.3 78.9 51.0 80.35 47.75 Q80.95 45.4 81.05 42.9 81.2 39.45 79.9 36.5 79.15 34.75 78.0 34.05 L77.8 33.85 76.6 32.15 76.35 32.0 Q73.5 31.5 70.6 31.95 L69.6 32.05 66.35 32.3 66.1 32.35 Q65.1 32.5 64.6 33.4 63.7 35.15 63.75 37.35 L63.75 39.2 Q63.45 42.75 64.75 45.95 65.3 47.35 65.9 48.2 65.6 48.8 65.2 48.5 L64.9 48.45 64.65 48.55 Q64.15 48.7 63.75 48.35 L63.25 48.15 60.35 48.0 60.0 48.05 Q59.55 48.2 59.5 48.6 L59.35 48.85 Q59.0 49.45 59.1 50.25 L59.25 51.25 59.3 51.5 Q59.8 52.5 60.6 53.5 L63.4 55.85 Q65.15 56.9 66.65 57.5 L66.5 57.6 66.3 57.8 65.05 58.2 64.7 58.3 63.45 58.6 60.6 59.1 54.25 59.45 53.9 59.55 52.6 59.45 52.95 59.2 53.95 57.8 54.05 57.65 Q52.35 57.7 51.2 58.25 50.85 56.6 49.9 56.05 L49.35 55.85 Q45.15 55.3 40.95 55.85 L39.35 56.25 39.15 56.4 38.7 57.6 Q37.55 59.95 39.25 62.0 L39.55 62.55 39.7 62.95 37.65 63.25 35.6 63.15 Q36.75 62.45 36.35 60.95 L36.05 60.25 Q35.45 59.2 34.35 58.25 L34.0 58.0 Q33.6 57.8 33.8 57.0 34.1 55.55 35.25 54.4 L36.15 53.45 37.25 52.65 38.1 52.55 38.9 52.85 Q40.0 53.5 41.35 53.4 L44.65 53.25 46.25 53.1 46.9 53.0 47.25 52.95 47.25 53.1 Q47.1 53.7 47.5 53.75 L49.95 53.55 49.95 53.35 49.7 52.95 49.4 52.6 50.55 52.2 51.8 51.8 52.0 51.85 52.8 53.1 Q53.2 54.25 54.7 54.05 L55.75 53.35 56.4 52.1 56.4 51.85 56.55 51.4 56.25 50.95 55.7 50.6 53.85 49.65 Q52.8 49.0 52.0 47.8 L52.6 47.8 53.65 47.8 53.45 47.55 53.35 47.2 Q53.45 46.6 54.25 46.4 L55.7 45.85 Q54.8 44.85 54.25 43.5 L53.45 40.85 53.25 40.4 Q52.15 39.15 50.55 38.65 L47.5 38.3 Q45.9 38.4 44.9 39.45 44.65 39.7 44.65 40.2 44.85 44.25 46.35 47.95 L47.1 49.4 49.4 52.6 47.25 52.95 47.25 52.5 Q47.0 50.15 45.95 47.95 L45.6 47.2 43.8 42.25 42.95 40.0 42.8 39.6 42.25 38.35 Q42.05 37.9 41.35 37.75 L42.3 36.85 Q43.3 36.0 43.95 34.85 L45.85 31.85 47.05 33.1 Q48.45 34.5 50.35 34.85 L51.2 35.0 52.0 35.2 55.6 36.1 55.7 36.35 Q55.65 38.6 56.55 40.6 56.95 41.4 57.75 41.55 L57.8 40.65 57.9 39.0 58.0 37.55 58.1 36.55 58.25 35.55 58.45 33.65 58.45 33.45 59.1 29.8 59.4 28.8 Q60.8 24.7 62.85 20.75 L63.75 19.2 64.55 17.85 Q65.2 16.8 66.3 16.7 L67.95 16.9 69.55 17.75 69.8 17.8 Q70.85 17.8 71.2 18.75 L72.0 20.4 73.1 21.35 74.35 22.35 74.7 22.55 Q75.4 22.55 75.3 23.25 75.1 25.0 75.7 26.5 L76.0 27.1 76.95 28.8 Q77.35 29.75 78.05 30.35 79.05 31.2 79.45 32.4 L79.6 32.65 81.05 34.25 M62.2 11.25 L62.45 11.5 59.55 11.95 Q60.5 11.65 60.55 10.7 L60.95 10.5 Q61.4 10.1 61.75 10.6 L62.2 11.25 M19.55 36.75 L19.6 37.15 Q20.0 39.25 21.25 41.05 L21.5 41.45 Q18.35 43.25 15.6 45.35 L15.15 45.75 Q14.75 46.2 14.65 46.8 L14.7 47.0 16.1 48.3 16.45 48.55 16.75 48.9 14.1 47.65 13.5 47.45 Q12.9 47.4 12.55 46.85 L12.35 46.5 Q11.2 45.55 11.45 43.9 L11.8 41.7 12.55 39.4 Q13.2 37.9 14.3 36.7 L14.95 35.95 Q15.3 35.6 15.75 35.7 L18.85 35.95 Q19.55 35.9 19.55 36.75 M24.35 49.0 Q24.55 48.75 24.7 49.6 L25.25 51.05 Q25.9 52.15 26.9 53.05 26.15 54.5 26.0 56.2 22.85 55.0 19.45 54.75 L19.25 54.75 20.95 52.0 21.1 51.5 21.05 51.25 23.8 49.3 Q24.05 49.1 24.35 49.0" fill="#00ccff" fill-rule="evenodd" stroke="none"/>
  </g>
</svg>
