<?xml version="1.0" encoding="UTF-8" standalone="no"?>
<svg xmlns:xlink="http://www.w3.org/1999/xlink" height="95.65px" width="80.8px" xmlns="http://www.w3.org/2000/svg">
  <g transform="matrix(1.0, 0.0, 0.0, 1.0, 31.35, 61.4)">
    <path d="M49.25 -21.7 L41.5 -20.15 Q46.55 -13.2 47.7 -5.05 47.95 -3.35 46.75 -2.25 L38.5 4.75 Q35.75 6.85 35.75 10.25 35.7 18.0 32.8 25.0 L3.25 34.25 -8.1 16.05 -16.85 14.45 -23.85 6.0 Q-21.7 1.05 -26.7 -2.75 L-28.35 -4.45 Q-20.15 -25.85 -7.2 -45.05 -5.2 -48.0 -1.65 -48.65 13.75 -51.25 29.45 -50.3 L35.6 -35.8 44.9 -34.65 Q50.05 -29.7 49.4 -22.5 L49.25 -21.7" fill="#ffffff" fill-rule="evenodd" stroke="none"/>
    <path d="M14.4 -16.45 L14.9 -16.95 Q17.1 -24.2 14.0 -32.0 5.0 -28.45 1.0 -20.4 -2.8 -12.85 5.15 -13.05 9.3 -16.05 14.4 -16.45 M29.3 -47.7 L30.0 -47.75 Q34.1 -47.75 37.05 -43.45 L31.5 -30.75 Q30.0 -27.35 31.05 -23.75 L34.0 -12.35 Q34.35 -10.75 35.05 -9.45 38.55 -3.2 37.0 3.0 L40.8 2.9 42.45 9.6 33.9 22.0 Q35.25 18.3 34.9 14.2 34.15 5.05 27.1 -0.95 15.3 -10.9 0.2 -7.15 -9.5 -4.85 -10.0 -15.0 -21.1 -12.85 -31.1 -7.35 -31.65 -13.15 -31.0 -19.0 -30.35 -17.95 -29.35 -17.35 -26.1 -15.3 -22.8 -17.55 -10.15 -22.85 0.0 -33.0 L-1.7 -34.25 Q-3.0 -35.6 -2.25 -37.25 1.15 -45.1 0.4 -53.35 -5.9 -56.3 -13.0 -55.9 -17.05 -55.5 -19.75 -52.4 -25.2 -46.25 -16.0 -42.95 L-17.5 -41.1 Q-18.45 -39.9 -18.1 -38.45 -17.15 -34.55 -19.0 -31.5 L-17.3 -31.35 -17.0 -31.1 -16.35 -30.5 -17.65 -27.75 -19.25 -27.9 -21.6 -28.1 Q-21.95 -31.1 -21.75 -34.0 -21.25 -40.85 -25.3 -46.2 -28.8 -50.7 -26.35 -55.6 -22.95 -62.35 -14.75 -61.25 6.0 -58.75 10.25 -37.0 10.45 -35.85 11.65 -35.25 24.5 -36.25 28.0 -48.95 L29.3 -47.7" fill="#00ccff" fill-rule="evenodd" stroke="none"/>
  </g>
</svg>
