<?xml version="1.0" encoding="UTF-8" standalone="no"?>
<svg xmlns:xlink="http://www.w3.org/1999/xlink" height="144.35px" width="130.1px" xmlns="http://www.w3.org/2000/svg">
  <g transform="matrix(1.0, 0.0, 0.0, 1.0, 55.7, 98.35)">
    <path d="M49.0 -74.95 Q43.3 -59.05 45.5 -42.55 L46.0 -40.4 Q48.4 -33.55 42.3 -31.85 35.05 -29.9 36.2 -22.45 L47.0 -16.0 42.2 -9.3 43.4 -6.5 Q38.75 0.3 38.85 8.5 39.05 27.65 51.45 42.05 L55.0 46.0 45.15 38.35 Q43.45 36.95 41.35 36.5 L33.4 34.8 32.6 35.7 30.85 33.4 Q23.45 31.35 16.3 34.65 12.9 36.25 10.0 39.0 L8.6 36.7 Q-4.85 33.25 -19.0 35.0 L-15.05 25.0 -26.35 21.5 -28.0 19.05 Q-28.75 17.45 -28.9 15.35 -29.05 13.25 -28.85 11.2 -33.25 7.3 -36.0 2.1 -37.55 -0.9 -38.5 -4.0 L-33.05 -8.4 -31.35 -12.65 -25.9 -27.3 Q-24.7 -30.4 -24.15 -33.7 -22.6 -43.4 -23.7 -53.15 -18.65 -52.05 -13.65 -52.95 -9.0 -53.7 -5.2 -56.1 -1.45 -53.6 3.1 -53.65 8.2 -53.7 13.25 -55.1 30.75 -61.15 45.45 -72.55 L49.0 -74.95 M68.0 -39.95 L74.4 -16.75 55.4 -7.2 51.1 -13.3 49.05 -13.85 45.8 -25.0 Q54.15 -33.4 64.95 -38.55 L68.0 -39.95 M-28.45 -58.6 L-35.8 -42.85 -39.8 -46.05 -38.0 -72.95 -28.45 -58.6 M-55.0 -38.95 L-35.95 -32.9 -37.0 -21.0 -55.7 -29.1 -55.0 -38.95" fill="#ffffff" fill-rule="evenodd" stroke="none"/>
    <path d="M7.2 -96.45 L7.35 -95.75 Q6.55 -84.15 16.4 -78.3 L19.0 -76.95 Q9.7 -66.2 8.0 -52.25 L6.7 -51.3 6.0 -51.45 Q4.55 -50.3 4.3 -48.5 L4.0 -45.95 Q19.75 -44.75 33.1 -37.75 33.5 -37.5 33.4 -36.85 31.0 -22.7 32.5 -8.95 32.7 -7.3 34.05 -5.95 35.95 -4.1 37.4 -1.75 28.2 7.55 28.9 19.75 29.3 26.3 34.95 29.45 36.15 30.15 36.7 31.4 35.6 33.2 34.9 35.15 34.15 37.35 32.35 39.05 29.5 32.4 22.7 29.7 21.35 29.1 20.65 27.6 17.0 20.2 21.25 13.05 22.65 10.7 24.85 8.9 31.85 3.1 26.05 -2.2 24.8 -3.4 23.05 -3.55 L20.35 -4.15 19.5 -3.5 Q9.85 -2.7 2.1 -9.45 -1.75 -12.8 -6.75 -13.35 L-16.95 -12.95 Q-27.0 -10.3 -31.65 -2.05 -32.55 -0.45 -34.25 0.1 -39.25 1.9 -42.95 -1.75 L-46.0 2.0 Q-42.0 4.35 -37.45 4.7 L-34.35 4.8 Q-34.55 5.65 -35.5 6.15 L-36.6 6.6 -38.05 7.0 -39.0 7.0 Q-42.55 4.65 -46.8 5.0 L-51.0 6.0 -43.6 -8.45 -42.55 -9.5 Q-38.25 -6.8 -33.3 -8.9 -20.7 -14.45 -8.75 -21.5 -5.2 -23.55 -4.1 -27.5 -3.75 -28.85 -2.65 -29.7 0.55 -32.1 0.95 -35.85 -8.15 -38.65 -11.25 -46.55 -11.65 -47.6 -10.6 -48.45 -7.0 -51.4 -3.0 -53.8 1.05 -56.2 2.5 -60.75 4.05 -65.75 3.95 -71.0 L3.55 -87.9 Q-13.15 -88.2 -22.3 -73.25 -24.2 -70.1 -21.9 -66.85 -17.15 -60.2 -17.0 -51.95 L-19.85 -54.1 -20.85 -54.6 -22.0 -53.95 Q-20.05 -58.25 -22.55 -62.45 -24.55 -65.75 -27.8 -67.85 -28.85 -68.55 -30.0 -68.95 -16.45 -85.0 0.5 -97.95 L1.5 -98.35 Q3.0 -97.15 4.95 -97.05 L6.75 -96.75 7.2 -96.45 M22.65 -35.0 L22.0 -36.95 Q15.95 -29.65 8.0 -25.0 L9.4 -24.15 8.85 -14.2 Q8.75 -12.9 8.0 -12.0 11.05 -11.8 13.85 -10.65 16.95 -9.25 20.5 -8.5 L23.85 -15.15 Q24.8 -17.25 25.1 -19.35 26.35 -27.3 22.65 -35.0" fill="#00ccff" fill-rule="evenodd" stroke="none"/>
  </g>
</svg>
