<?xml version="1.0" encoding="UTF-8" standalone="no"?>
<svg xmlns:xlink="http://www.w3.org/1999/xlink" height="72.85px" width="137.95px" xmlns="http://www.w3.org/2000/svg">
  <g transform="matrix(1.0, 0.0, 0.0, 1.0, 68.95, 36.4)">
    <path d="M23.05 -2.1 L23.15 -2.1 26.85 -3.0 28.15 -5.25 29.65 -7.3 Q31.6 -9.75 34.1 -11.45 37.7 -13.95 42.35 -14.9 51.45 -16.8 59.2 -11.7 63.45 -8.95 65.9 -5.0 L66.45 -3.6 63.8 -1.8 63.15 -1.4 62.95 -1.25 61.4 -0.3 59.75 -2.3 59.6 -2.45 58.35 -3.5 56.95 -4.35 Q54.55 -5.65 51.7 -5.65 47.0 -5.65 43.7 -2.3 40.35 1.05 40.35 5.75 40.35 10.45 43.7 13.8 46.85 16.95 51.3 17.1 L51.7 17.1 Q56.45 17.1 59.75 13.8 L60.25 13.25 Q61.95 11.3 62.7 8.95 L64.55 9.25 64.75 9.25 65.0 9.3 67.75 9.7 68.95 9.85 69.0 9.95 68.3 13.85 Q67.4 16.7 65.65 19.35 60.65 27.1 51.5 29.0 42.35 30.9 34.6 25.8 L34.6 25.75 34.1 25.45 Q30.3 22.8 28.0 19.2 L26.3 19.45 26.75 24.25 23.15 25.8 Q2.25 34.45 -20.05 36.45 L-26.65 32.0 -31.7 28.4 -39.9 22.2 Q-47.35 16.3 -54.45 9.8 -60.7 3.8 -66.05 -3.15 -67.9 -5.6 -68.45 -8.75 -69.6 -14.55 -68.2 -20.05 -65.8 -30.9 -56.65 -34.85 -53.15 -36.3 -49.45 -36.4 -45.85 -36.5 -42.55 -34.4 -36.8 -31.35 -31.6 -27.6 -26.95 -23.7 -22.65 -19.3 L-18.1 -14.4 -15.25 -11.15 -10.85 -6.05 -10.7 -5.85 19.95 -5.95 22.5 -6.55 23.05 -2.1 M34.1 -7.4 Q32.4 -5.8 31.0 -3.7 L31.0 -3.65 29.65 -1.25 28.75 1.05 24.65 2.1 24.55 2.1 24.7 4.4 25.1 11.05 25.3 13.0 25.35 14.1 25.4 14.1 28.95 13.65 Q30.55 18.25 34.1 21.5 35.25 22.55 36.65 23.45 43.45 27.9 51.4 26.25 59.35 24.6 63.7 17.8 L64.6 16.4 65.5 14.4 66.5 11.6 64.1 11.2 64.0 11.15 62.25 14.6 62.05 14.8 61.4 15.4 59.95 16.7 Q56.15 19.9 50.95 19.9 L50.45 19.9 Q44.9 19.7 40.95 15.8 36.8 11.6 36.8 5.75 36.8 -0.05 40.95 -4.25 45.1 -8.3 50.95 -8.3 54.45 -8.3 57.45 -6.75 L59.2 -5.7 60.7 -4.45 60.9 -4.25 61.0 -4.15 61.1 -4.0 61.7 -3.45 61.85 -3.25 62.15 -2.85 63.65 -3.9 63.3 -4.45 Q61.25 -7.25 58.1 -9.3 L58.05 -9.35 Q51.35 -13.75 43.4 -12.1 37.9 -10.95 34.1 -7.4 M19.15 -0.95 L-10.95 -1.4 -12.2 -2.8 -16.7 -7.65 -24.2 -15.55 -28.4 -19.65 Q-34.35 -25.2 -41.35 -28.65 -48.4 -32.0 -51.75 -31.65 -54.3 -31.35 -56.45 -29.8 L-59.95 -27.25 Q-61.3 -26.2 -62.25 -24.8 -65.6 -19.2 -64.0 -12.8 -63.05 -8.8 -60.7 -5.5 -55.45 1.95 -48.7 7.9 L-37.85 17.3 -34.1 20.4 Q-31.25 22.6 -33.05 21.0 L-18.9 32.35 Q2.15 29.5 22.3 22.0 L19.15 -0.95" fill="#000000" fill-rule="evenodd" stroke="none"/>
    <path d="M34.1 -7.4 Q37.9 -10.95 43.4 -12.1 51.35 -13.75 58.05 -9.35 L58.1 -9.3 Q61.25 -7.25 63.3 -4.45 L63.65 -3.9 62.15 -2.85 61.85 -3.25 61.7 -3.45 61.1 -4.0 61.0 -4.15 60.9 -4.25 60.7 -4.45 59.2 -5.7 57.45 -6.75 Q54.45 -8.3 50.95 -8.3 45.1 -8.3 40.95 -4.25 36.8 -0.05 36.8 5.75 36.8 11.6 40.95 15.8 44.9 19.7 50.45 19.9 L50.95 19.9 Q56.15 19.9 59.95 16.7 L61.4 15.4 62.05 14.8 62.25 14.6 64.0 11.15 64.1 11.2 66.5 11.6 65.5 14.4 64.6 16.4 63.7 17.8 Q59.35 24.6 51.4 26.25 43.45 27.9 36.65 23.45 35.25 22.55 34.1 21.5 30.55 18.25 28.95 13.65 L25.4 14.1 25.35 14.1 25.3 13.0 25.1 11.05 24.7 4.4 24.55 2.1 24.65 2.1 28.75 1.05 29.65 -1.25 31.0 -3.65 31.0 -3.7 Q32.4 -5.8 34.1 -7.4" fill="#cccccc" fill-rule="evenodd" stroke="none"/>
    <path d="M21.3 19.9 Q20.9 19.55 20.7 17.65 L20.35 12.7 16.75 13.45 17.35 16.35 Q17.9 18.8 17.4 18.55 16.9 18.3 2.0 21.05 -12.9 23.85 -16.8 24.9 L-21.35 22.5 -22.45 21.85 -25.8 19.75 -27.45 18.25 -35.2 10.95 Q-49.4 -2.8 -52.2 -9.1 -53.1 -11.2 -53.45 -15.0 -53.75 -18.55 -55.25 -21.7 L-57.5 -23.4 Q-59.9 -24.55 -61.0 -23.8 L-62.5 -21.5 Q-64.75 -17.45 -63.8 -13.25 -62.15 -6.6 -52.8 1.3 L-49.0 4.65 -45.6 7.75 -44.45 9.0 -43.4 9.95 -40.95 12.15 -38.45 14.45 -20.1 27.85 -19.75 27.8 -17.0 29.45 -8.6 28.0 -0.05 26.0 12.25 22.8 Q21.65 20.3 21.3 19.9 M19.15 -0.95 L22.3 22.0 Q2.15 29.5 -18.9 32.35 L-33.05 21.0 Q-31.25 22.6 -34.1 20.4 L-37.85 17.3 -48.7 7.9 Q-55.45 1.95 -60.7 -5.5 -63.05 -8.8 -64.0 -12.8 -65.6 -19.2 -62.25 -24.8 -61.3 -26.2 -59.95 -27.25 L-56.45 -29.8 Q-54.3 -31.35 -51.75 -31.65 -48.4 -32.0 -41.35 -28.65 -34.35 -25.2 -28.4 -19.65 L-24.2 -15.55 -16.7 -7.65 -12.2 -2.8 -10.95 -1.4 19.15 -0.95" fill="#faa710" fill-rule="evenodd" stroke="none"/>
    <path d="M21.3 19.9 Q21.65 20.3 12.25 22.8 L-0.05 26.0 -8.6 28.0 -17.0 29.45 -19.75 27.8 -20.1 27.85 -38.45 14.45 -40.95 12.15 -43.4 9.95 -44.45 9.0 -45.6 7.75 -49.0 4.65 -52.8 1.3 Q-62.15 -6.6 -63.8 -13.25 -64.75 -17.45 -62.5 -21.5 L-61.0 -23.8 Q-59.9 -24.55 -57.5 -23.4 L-55.25 -21.7 Q-53.75 -18.55 -53.45 -15.0 -53.1 -11.2 -52.2 -9.1 -49.4 -2.8 -35.2 10.95 L-27.45 18.25 -25.8 19.75 -22.45 21.85 -21.35 22.5 -16.8 24.9 Q-12.9 23.85 2.0 21.05 16.9 18.3 17.4 18.55 17.9 18.8 17.35 16.35 L16.75 13.45 20.35 12.7 20.7 17.65 Q20.9 19.55 21.3 19.9" fill="#ffdc70" fill-rule="evenodd" stroke="none"/>
  </g>
</svg>
