<?xml version="1.0" encoding="UTF-8" standalone="no"?>
<svg xmlns:xlink="http://www.w3.org/1999/xlink" height="138.65px" width="136.3px" xmlns="http://www.w3.org/2000/svg">
  <g transform="matrix(1.0, 0.0, 0.0, 1.0, 57.9, 90.95)">
    <path d="M60.0 -83.95 L57.8 -80.45 Q46.45 -66.4 42.25 -49.05 L41.65 -45.9 45.0 -41.95 27.1 -27.85 25.9 -16.0 Q27.5 -14.2 29.8 -13.75 37.3 -11.95 45.0 -12.0 L37.6 -4.4 Q37.05 -3.75 36.85 -2.9 L34.15 9.4 Q42.8 29.65 55.4 47.7 49.5 41.4 41.7 37.6 L32.95 33.2 Q30.65 33.45 28.4 34.45 24.9 36.05 21.9 38.45 L19.0 41.0 18.0 32.0 12.0 36.0 11.6 31.4 Q-0.85 30.7 -13.15 33.75 L-20.85 35.8 Q-18.5 32.0 -16.9 27.95 -14.85 22.75 -14.3 17.1 L-25.3 11.7 -24.05 10.25 -24.45 9.3 Q-23.5 8.5 -23.05 7.35 -22.1 4.6 -23.7 1.9 L-24.55 0.75 -26.35 -1.35 Q-29.25 -4.45 -33.05 -6.1 L-19.15 -14.05 -18.8 -21.0 -16.85 -22.85 Q-17.25 -32.95 -20.2 -42.75 -21.95 -48.55 -24.0 -53.95 -17.9 -50.05 -10.75 -50.05 L-4.25 -50.5 -0.65 -50.3 1.15 -50.0 Q3.1 -45.7 8.0 -45.75 10.4 -45.75 12.4 -46.8 34.25 -57.5 50.05 -75.95 54.25 -80.8 60.0 -83.95 M70.25 -29.2 L71.8 -27.6 65.75 -21.35 77.0 -24.8 78.4 -18.15 58.0 -8.25 56.65 -12.15 53.0 -13.0 49.05 -24.25 Q52.2 -27.45 55.8 -30.2 59.3 -32.9 63.05 -34.9 68.7 -37.9 74.45 -40.7 L75.3 -34.05 70.25 -29.2 M-33.15 -62.9 L-34.8 -53.6 Q-35.6 -49.0 -38.45 -45.5 -41.9 -50.9 -40.4 -58.0 -38.95 -64.95 -38.0 -71.95 L-33.15 -62.9 M-57.85 -40.45 L-40.65 -33.3 -42.85 -22.25 -57.9 -31.2 -57.85 -40.45" fill="#ffffff" fill-rule="evenodd" stroke="none"/>
    <path d="M16.25 -65.2 Q11.9 -61.3 13.15 -56.05 13.45 -54.8 14.25 -54.05 24.05 -44.9 16.6 -33.1 14.9 -30.4 14.85 -26.95 14.75 -22.7 15.65 -18.55 25.5 -12.8 36.85 -12.45 42.55 -3.3 41.5 6.5 41.4 7.45 40.25 7.85 35.95 9.1 32.55 12.45 21.65 10.85 21.9 20.55 22.0 24.75 26.15 25.1 31.25 25.65 35.4 29.0 34.85 34.6 36.0 40.0 33.15 40.65 30.65 39.05 L32.2 37.45 Q29.7 33.9 25.45 31.55 L24.9 31.2 Q14.6 34.8 11.25 24.9 9.9 20.9 10.95 16.8 11.3 15.5 12.25 14.35 21.5 3.9 34.0 6.45 34.55 6.55 35.05 6.0 37.25 3.8 35.95 0.8 37.5 -5.1 30.45 -6.8 26.65 -7.6 22.85 -6.15 L20.1 -6.3 Q13.5 -14.1 3.05 -16.3 L-7.6 -15.95 Q-11.55 -14.85 -13.55 -10.85 -16.65 -4.5 -23.05 -1.7 -26.45 -0.2 -28.6 -3.55 L-30.65 -7.5 Q-35.95 -10.05 -37.6 -3.65 -39.0 1.6 -35.6 4.6 L-34.0 6.0 Q-38.5 6.55 -40.7 3.55 -42.0 1.85 -41.45 -0.35 -39.95 -6.25 -40.0 -12.4 -32.05 -14.45 -26.0 -21.0 -27.25 -12.8 -20.25 -11.3 -19.05 -11.2 -17.8 -11.8 -7.05 -17.1 -3.25 -27.35 1.4 -39.95 13.8 -47.5 8.9 -53.35 2.95 -50.1 L-2.95 -50.4 Q7.1 -52.8 4.15 -61.75 L3.55 -62.3 Q-2.35 -63.4 -7.05 -67.05 -11.7 -70.55 -15.7 -74.85 L-20.0 -78.95 Q-23.55 -67.5 -24.3 -55.4 -28.0 -55.15 -27.0 -59.2 L-26.05 -62.45 Q-23.2 -72.2 -29.35 -79.95 -22.4 -87.35 -12.0 -90.95 -10.55 -84.2 -8.45 -77.05 -7.55 -73.95 -4.4 -72.8 L16.0 -65.95 16.25 -65.2 M8.8 -34.1 L6.6 -32.45 Q5.05 -31.55 4.4 -29.85 3.45 -27.3 4.0 -24.8 5.2 -19.1 12.0 -21.0 11.5 -28.4 8.8 -34.1" fill="#00ccff" fill-rule="evenodd" stroke="none"/>
  </g>
</svg>
