<?xml version="1.0" encoding="UTF-8" standalone="no"?>
<svg xmlns:xlink="http://www.w3.org/1999/xlink" height="172.55px" width="140.0px" xmlns="http://www.w3.org/2000/svg">
  <g transform="matrix(1.0, 0.0, 0.0, 1.0, 58.0, 123.55)">
    <path d="M50.45 -71.25 Q42.3 -58.05 36.65 -43.35 L38.0 -40.95 19.6 -28.0 15.0 -8.0 36.0 -7.0 29.9 4.75 30.3 6.15 28.6 9.2 39.45 30.3 Q42.25 35.85 46.8 39.9 L48.0 41.0 17.05 34.85 14.0 20.0 11.0 22.2 10.05 21.1 9.8 21.2 Q8.2 22.35 6.75 24.2 3.15 28.85 -2.35 30.3 -5.1 30.9 -8.05 30.3 L-14.05 28.45 -8.6 14.5 -19.15 8.4 -16.6 5.9 -16.55 4.95 Q-16.65 3.45 -17.1 2.05 -17.55 0.45 -18.35 -0.95 -18.75 -1.7 -19.3 -2.3 -20.75 -3.95 -22.7 -4.95 L-25.0 -6.0 -15.3 -10.3 -14.3 -11.7 -16.0 -47.95 Q-13.95 -45.05 -11.1 -42.8 -5.85 -38.45 0.9 -37.3 2.85 -37.1 4.6 -38.0 13.05 -42.2 21.7 -45.55 L23.1 -45.1 61.2 -86.75 Q55.4 -79.35 50.45 -71.25 M74.8 -34.55 L58.3 -16.2 62.4 -15.55 77.5 -25.15 82.0 -20.0 68.35 -11.05 67.2 -14.1 61.15 -12.15 58.3 -16.2 54.0 -22.0 56.05 -22.0 54.75 -25.75 72.15 -38.1 74.8 -34.55 M-39.2 -52.95 L-41.0 -52.45 -41.0 -70.95 -38.6 -69.7 -37.7 -68.85 Q-34.85 -65.65 -36.8 -61.9 L-39.2 -52.95 M-54.05 -30.45 L-58.0 -40.95 -50.15 -36.75 -51.55 -30.95 -54.05 -30.45" fill="#ffffff" fill-rule="evenodd" stroke="none"/>
    <path d="M10.0 -117.95 Q9.7 -111.55 12.45 -105.7 13.6 -103.25 13.0 -99.95 L10.0 -100.95 Q7.05 -109.5 2.5 -117.3 -14.1 -108.4 -20.75 -89.95 L-17.35 -87.65 Q-35.25 -66.95 -30.9 -40.2 -29.35 -30.7 -25.55 -21.9 -38.2 -44.25 -31.6 -70.1 -28.2 -83.25 -22.0 -95.2 -15.2 -108.4 -4.1 -118.25 -0.55 -121.45 4.0 -122.95 L4.1 -123.55 Q4.25 -121.6 5.3 -120.15 5.9 -119.3 6.7 -118.9 L7.75 -118.35 10.0 -117.95 M48.5 -62.0 L48.55 -60.65 40.2 -51.8 40.25 -52.75 Q41.1 -59.1 44.55 -64.6 L48.5 -62.0 M61.6 -31.5 Q60.9 -19.85 56.25 -9.35 51.65 1.1 47.5 11.65 L39.85 31.1 30.2 24.2 Q28.15 22.65 25.6 22.3 13.25 20.6 2.15 26.25 -12.7 33.65 -19.0 49.0 L-19.6 48.45 -19.85 48.2 -20.0 47.9 -21.25 44.55 Q-12.95 34.75 -5.7 24.25 L-0.15 15.95 Q11.35 20.45 23.3 17.2 L34.2 14.15 34.3 14.85 34.7 17.05 34.9 17.55 35.6 18.45 36.5 19.1 Q42.55 15.85 45.6 9.8 50.45 0.3 53.9 -9.75 57.05 -19.0 56.8 -28.6 56.7 -31.3 54.25 -32.25 L46.45 -34.8 Q52.35 -36.25 58.05 -38.3 L62.0 -39.95 61.6 -31.5 M-19.0 -25.0 L-19.7 -19.2 -24.45 -21.4 -19.0 -25.0 M-35.0 10.0 Q-32.85 14.15 -33.5 18.9 L-34.0 22.0 -39.85 20.7 -39.1 16.45 Q-38.25 13.85 -36.55 11.85 L-35.0 10.0" fill="#00ccff" fill-rule="evenodd" stroke="none"/>
  </g>
</svg>
