<?xml version="1.0" encoding="UTF-8" standalone="no"?>
<svg xmlns:xlink="http://www.w3.org/1999/xlink" height="106.95px" width="122.45px" xmlns="http://www.w3.org/2000/svg">
  <g transform="matrix(1.0, 0.0, 0.0, 1.0, 41.0, 72.95)">
    <path d="M39.2 -59.2 L32.65 -41.4 30.0 -40.3 29.05 -39.9 Q26.2 -38.8 23.7 -40.4 L36.0 -61.95 39.2 -59.2 M18.0 -39.95 L22.2 -36.2 Q13.55 -24.85 7.35 -12.2 5.95 -9.3 5.95 -5.8 14.8 5.65 29.2 7.9 31.9 20.4 38.8 31.3 L21.0 34.0 Q20.25 23.35 16.35 13.45 15.9 12.25 14.85 11.45 L12.05 15.2 Q3.15 20.25 -5.5 25.75 -7.2 26.75 -9.25 26.05 L-12.0 25.0 4.45 6.8 3.55 3.85 -14.95 4.95 -24.0 -4.0 -14.05 -6.2 Q-13.45 -13.8 -13.4 -21.1 -13.4 -22.05 -14.0 -23.0 L-8.15 -22.55 -8.95 -36.2 9.0 -36.95 8.7 -31.35 11.15 -31.15 Q16.25 -33.05 17.65 -38.3 L18.0 -39.95 M75.0 -41.95 L76.5 -37.5 69.7 -28.55 64.0 -34.0 75.0 -41.95 M80.55 -23.25 L81.45 -21.05 75.1 -16.5 71.0 -20.0 73.7 -21.9 80.55 -23.25 M-34.45 -67.75 L-41.0 -62.5 -41.0 -72.95 -35.1 -70.65 -34.45 -67.75" fill="#ffffff" fill-rule="evenodd" stroke="none"/>
    <path d="M0.95 -43.15 Q-6.85 -39.45 -14.1 -34.55 L-15.0 -29.0 -14.25 -29.1 Q-8.65 -30.8 -3.3 -33.5 L-0.6 -34.65 -0.3 -35.15 Q18.25 -45.35 40.0 -40.4 42.55 -39.95 43.7 -38.2 45.4 -35.5 44.0 -32.75 43.35 -31.55 42.0 -31.0 L42.45 -32.35 40.05 -32.8 Q29.85 -34.35 19.6 -33.35 7.2 -32.65 -4.45 -28.7 -13.05 -25.85 -21.3 -21.75 L-22.35 -21.85 -23.0 -23.0 -14.1 -34.55 Q-9.25 -42.6 -1.1 -46.6 1.4 -47.85 4.0 -48.95 4.55 -44.85 0.95 -43.15 M7.8 -0.05 L6.9 3.95 6.5 3.5 Q-6.15 3.0 -17.45 8.2 -20.0 9.4 -21.6 11.95 -17.55 1.35 -5.45 -1.0 -1.05 -1.9 3.3 -3.05 L12.0 -5.0 10.6 -4.0 Q8.4 -2.45 7.8 -0.05 M36.6 9.55 L31.1 15.95 27.0 16.0 37.0 2.0 37.7 5.95 Q38.1 8.0 36.6 9.55" fill="#00ccff" fill-rule="evenodd" stroke="none"/>
  </g>
</svg>
