<?xml version="1.0" encoding="UTF-8" standalone="no"?>
<svg xmlns:xlink="http://www.w3.org/1999/xlink" height="81.65px" width="91.35px" xmlns="http://www.w3.org/2000/svg">
  <g transform="matrix(1.0, 0.0, 0.0, 1.0, 11.55, 59.25)">
    <path d="M29.0 -54.45 L32.15 -59.25 34.9 -58.5 32.7 -52.85 29.0 -54.45 M1.9 -7.2 L-11.55 -9.7 -10.75 -18.9 -3.0 -19.8 5.6 -12.15 1.9 -7.2 M10.1 -28.6 L9.15 -25.9 5.65 -23.15 1.3 -27.95 7.75 -31.95 10.1 -28.6 M79.55 -40.05 L79.8 -37.35 Q77.65 -34.7 74.35 -34.8 71.55 -35.25 70.05 -37.55 L76.0 -41.1 79.55 -40.05 M31.7 21.45 L22.25 22.4 21.8 20.7 21.35 18.95 Q20.65 15.55 21.3 12.2 L22.0 8.85 25.05 8.45 26.6 9.6 31.7 21.45 M5.35 18.7 L3.15 20.4 -1.35 18.45 Q-4.3 17.25 -4.4 14.3 L5.75 3.2 11.4 8.5 11.05 10.0 Q9.75 15.45 5.35 18.7" fill="#ffffff" fill-rule="evenodd" stroke="none"/>
  </g>
</svg>
