<?xml version="1.0" encoding="UTF-8" standalone="no"?>
<svg xmlns:xlink="http://www.w3.org/1999/xlink" height="164.6px" width="146.0px" xmlns="http://www.w3.org/2000/svg">
  <g transform="matrix(1.0, 0.0, 0.0, 1.0, 48.05, 99.15)">
    <path d="M66.55 -49.75 L65.75 -49.75 65.25 -49.75 65.0 -49.75 63.75 -49.25 63.25 -48.75 60.45 -47.85 Q58.65 -52.75 55.35 -57.8 49.95 -66.1 46.15 -75.2 44.35 -79.65 43.7 -84.15 L63.65 -94.25 85.6 -60.25 82.2 -58.1 Q79.55 -56.95 76.8 -55.45 L68.75 -51.0 66.55 -49.75 M84.7 -57.75 L86.15 -58.3 87.45 -53.35 Q88.2 -53.55 88.6 -52.5 93.35 -38.35 93.35 -34.65 93.35 -33.35 91.85 -32.7 88.55 -31.35 86.25 -29.75 84.5 -29.3 83.85 -28.75 L82.0 -27.4 79.25 -24.8 78.8 -25.0 78.6 -25.55 Q78.6 -26.3 81.75 -28.6 L77.35 -35.4 75.4 -38.4 70.0 -37.05 68.85 -37.2 72.55 -34.4 79.2 -29.3 Q74.2 -23.5 64.75 -11.45 L60.55 -6.05 60.2 -5.15 59.35 -2.75 58.6 1.1 Q58.0 3.6 57.35 9.15 L56.15 17.1 Q55.75 20.15 55.75 22.6 57.65 32.6 58.8 37.6 L30.3 57.35 29.3 29.65 28.8 45.3 29.0 46.55 29.35 48.9 28.65 49.25 28.5 53.25 28.3 51.95 28.35 55.5 28.25 57.15 Q28.05 58.35 27.25 58.35 26.15 58.35 25.7 54.85 L25.65 57.55 25.6 57.5 25.4 57.4 25.05 57.5 24.4 57.8 23.45 58.15 22.5 58.45 21.65 58.65 Q21.35 58.75 20.9 59.0 L19.85 59.35 18.2 59.85 16.5 60.15 14.9 60.3 13.35 60.45 10.65 60.85 7.7 61.0 5.9 61.05 5.0 61.15 3.4 61.2 0.7 61.1 -1.75 61.1 -4.05 60.95 -6.4 60.8 -8.75 60.5 -11.15 60.3 -12.5 60.2 -14.85 59.7 -16.85 59.3 -19.15 58.85 -21.2 58.5 -23.2 58.0 -25.25 57.35 -26.35 57.15 -28.35 56.55 -30.55 55.7 -31.85 55.25 -34.15 54.4 -36.25 53.55 -38.0 52.8 -39.85 51.95 -41.75 51.15 -43.0 50.5 -42.95 49.85 -43.05 49.45 -42.4 43.6 -42.2 42.95 Q-37.6 44.85 -32.45 46.35 -23.8 48.95 -14.7 50.5 -5.3 52.15 4.25 52.25 L16.55 51.5 7.05 51.9 Q-3.05 51.9 -13.0 50.3 -22.6 48.8 -31.75 46.3 -37.2 44.8 -42.05 42.95 L-36.3 21.75 -36.7 21.65 -29.1 -7.8 -27.55 -7.4 -26.25 -11.0 -23.0 -18.75 -20.0 -25.25 -18.25 -28.4 -16.4 -31.8 Q-9.65 -46.25 0.0 -58.25 1.65 -60.5 4.5 -63.15 L1.3 -62.15 2.05 -63.05 7.15 -65.6 9.25 -67.7 Q10.7 -68.6 12.2 -68.2 L24.9 -74.6 Q25.9 -71.2 27.4 -67.85 29.1 -65.1 31.3 -62.5 37.8 -55.05 45.5 -48.9 49.8 -45.5 52.9 -41.85 L54.35 -42.9 54.6 -43.35 55.45 -43.9 57.0 -44.8 57.45 -44.6 58.1 -44.2 56.2 -42.5 Q52.85 -39.45 52.85 -38.8 L52.9 -38.35 52.9 -38.4 53.1 -38.15 53.6 -38.05 Q54.95 -38.05 56.85 -39.95 58.9 -42.1 60.1 -43.05 L63.9 -40.7 Q64.9 -41.45 67.8 -42.4 L70.3 -43.15 71.6 -43.7 67.7 -48.45 69.5 -49.25 Q70.7 -49.65 71.65 -50.5 L72.65 -51.5 76.9 -53.75 81.9 -56.2 Q83.7 -57.1 84.7 -57.75 M34.05 -4.25 Q48.9 -33.55 51.25 -33.5 L51.65 -34.85 50.6 -35.3 Q40.6 -22.45 36.5 -13.55 L32.4 -4.7 32.25 -4.75 32.1 -3.95 32.0 -3.7 31.7 -2.65 28.55 10.75 27.05 17.0 Q26.7 22.4 27.4 24.55 L27.8 25.5 Q28.15 26.1 29.0 26.3 L29.2 17.0 29.9 12.85 Q30.1 11.5 30.9 9.35 L31.95 6.3 33.1 -0.5 33.9 -3.6 34.05 -4.25 M88.7 -48.7 L89.6 -45.15 89.75 -45.4 88.8 -48.35 88.7 -48.7 M23.4 24.75 L22.9 24.55 15.95 25.75 23.4 24.75 M28.3 51.4 L28.25 50.8 28.15 49.45 27.85 49.55 28.3 51.4" fill="#015291" fill-rule="evenodd" stroke="none"/>
    <path d="M34.05 -4.25 L33.9 -3.6 33.1 -0.5 31.95 6.3 30.9 9.35 Q30.1 11.5 29.9 12.85 L29.2 17.0 29.0 26.3 Q28.15 26.1 27.8 25.5 L27.4 24.55 Q26.7 22.4 27.05 17.0 L28.55 10.75 31.7 -2.65 32.0 -3.7 32.1 -3.95 32.25 -4.75 32.4 -4.7 36.5 -13.55 Q40.6 -22.45 50.6 -35.3 L51.65 -34.85 51.25 -33.5 Q48.9 -33.55 34.05 -4.25" fill="#0099df" fill-rule="evenodd" stroke="none"/>
    <path d="M66.55 -49.75 L68.75 -51.0 76.8 -55.45 Q79.55 -56.95 82.2 -58.1 L85.75 -59.5 85.85 -58.9 Q85.85 -58.5 84.7 -57.75 83.7 -57.1 81.9 -56.2 L76.9 -53.75 72.65 -51.5 71.65 -50.5 Q70.7 -49.65 69.5 -49.25 L67.7 -48.45 Q66.4 -47.8 65.05 -46.8 62.45 -44.7 60.75 -43.55 L60.1 -43.05 Q58.9 -42.1 56.85 -39.95 54.95 -38.05 53.6 -38.05 L53.1 -38.15 52.9 -38.4 52.9 -38.35 52.85 -38.8 Q52.85 -39.45 56.2 -42.5 L58.1 -44.2 59.65 -45.5 64.35 -48.45 66.55 -49.75" fill="#ffdc70" fill-rule="evenodd" stroke="none"/>
    <path d="M17.85 -69.95 Q17.75 -67.85 18.6 -65.9 23.6 -55.0 33.1 -47.25 40.35 -41.35 49.2 -38.85 L50.6 -38.5 50.55 -38.4 52.9 -37.95 54.95 -38.0 Q57.6 -39.35 59.95 -41.0 L62.0 -41.9 62.35 -42.05 62.1 -41.9 Q79.9 -49.35 88.7 -55.35 L90.45 -56.4 88.85 -54.7 Q82.35 -47.3 73.25 -44.1 L63.05 -39.75 Q58.7 -37.5 54.2 -35.65 53.2 -35.25 52.1 -35.2 L49.75 -35.4 50.0 -35.75 51.15 -37.1 50.7 -36.65 50.3 -36.35 50.05 -36.2 49.6 -35.45 47.7 -35.75 47.65 -35.75 47.05 -35.9 46.4 -36.1 46.45 -36.1 44.55 -36.8 Q33.75 -41.0 26.0 -49.35 18.15 -57.9 14.45 -68.65 L17.85 -69.95" fill="#020001" fill-rule="evenodd" stroke="none"/>
    <path d="M17.85 -69.95 L18.3 -70.25 18.2 -70.6 18.1 -71.65 Q18.1 -72.1 20.15 -74.4 L22.6 -77.0 25.65 -79.3 29.25 -81.65 32.5 -83.4 Q35.0 -84.75 36.5 -85.3 L39.25 -87.05 Q40.8 -87.9 43.4 -88.3 L43.4 -88.85 63.8 -95.15 86.45 -60.05 86.5 -60.0 82.25 -57.65 Q80.25 -57.3 75.95 -54.95 71.75 -52.7 66.9 -49.5 L64.15 -47.95 63.1 -47.3 Q60.5 -45.55 57.35 -42.5 L53.6 -38.85 52.9 -37.95 50.55 -38.4 50.6 -38.5 49.2 -38.85 Q40.35 -41.35 33.1 -47.25 23.6 -55.0 18.6 -65.9 17.75 -67.85 17.85 -69.95 M87.5 -58.4 L87.4 -58.7 87.75 -58.2 88.7 -55.35 Q79.9 -49.35 62.1 -41.9 L62.35 -42.05 62.0 -41.9 59.95 -41.0 Q57.6 -39.35 54.95 -38.0 L55.25 -38.35 59.35 -41.85 63.85 -45.75 68.1 -48.0 68.15 -47.9 69.2 -48.6 71.25 -49.65 Q74.85 -51.45 74.85 -51.9 L74.85 -52.0 75.0 -52.15 75.35 -52.05 75.9 -52.55 76.25 -52.55 76.8 -53.05 77.05 -53.05 77.55 -53.5 77.95 -53.45 87.5 -58.4 M49.75 -35.4 L49.4 -34.95 49.4 -35.1 49.6 -35.45 50.05 -36.2 50.3 -36.35 50.7 -36.65 51.15 -37.1 50.0 -35.75 49.75 -35.4" fill="#faa710" fill-rule="evenodd" stroke="none"/>
    <path d="M52.9 -37.95 L53.6 -38.85 57.35 -42.5 Q60.5 -45.55 63.1 -47.3 L64.15 -47.95 66.9 -49.5 Q71.75 -52.7 75.95 -54.95 80.25 -57.3 82.25 -57.65 L86.5 -60.0 86.45 -60.05 86.8 -60.25 87.5 -58.4 77.95 -53.45 77.55 -53.5 77.05 -53.05 76.8 -53.05 76.25 -52.55 75.9 -52.55 75.35 -52.05 75.0 -52.15 74.85 -52.0 74.85 -51.9 Q74.85 -51.45 71.25 -49.65 L69.2 -48.6 68.15 -47.9 68.1 -48.0 63.85 -45.75 59.35 -41.85 55.25 -38.35 54.95 -38.0 52.9 -37.95" fill="#ffdc70" fill-rule="evenodd" stroke="none"/>
    <path d="M63.05 -39.75 L63.35 -39.8 64.25 -39.55 64.35 -38.6 51.9 -31.45 51.5 -31.4 50.85 -30.6 50.7 -30.2 50.25 -29.95 49.75 -29.0 Q48.8 -27.4 49.55 -25.7 50.25 -24.4 51.45 -23.55 52.3 -23.0 53.4 -22.55 54.9 -21.6 56.65 -20.8 L59.6 -19.55 62.3 -17.75 69.85 -23.25 70.05 -23.7 70.45 -24.0 73.5 -28.7 74.9 -28.85 Q75.95 -27.55 75.5 -26.05 75.05 -24.75 74.35 -23.8 L73.5 -22.55 71.4 -20.2 68.65 -17.85 67.1 -16.7 64.95 -15.4 63.1 -14.75 Q61.85 -14.7 60.35 -15.45 L56.3 -17.85 54.0 -19.1 52.0 -20.4 50.8 -21.2 Q48.95 -22.3 47.85 -23.85 46.85 -25.35 46.65 -27.0 L47.95 -31.1 52.1 -35.2 Q53.2 -35.25 54.2 -35.65 58.7 -37.5 63.05 -39.75 M34.2 -4.15 L34.4 -4.15 35.25 -3.95 35.5 -3.9 36.0 -3.75 Q36.45 -2.55 37.65 -1.5 38.65 -0.55 39.8 -0.15 L43.35 0.15 44.7 -0.45 45.15 -1.1 45.45 -1.25 49.45 -0.1 50.55 0.55 51.4 0.45 53.95 1.15 53.65 1.55 53.4 1.6 53.4 1.9 53.1 2.15 52.75 2.65 51.4 3.05 Q49.65 2.9 48.15 1.8 L46.8 0.95 Q46.65 0.95 46.65 1.1 45.55 1.35 44.8 1.7 L43.55 2.2 40.0 1.6 Q37.85 1.1 36.3 -0.75 L34.2 -4.15 M42.75 23.55 L46.05 20.9 Q46.7 20.6 47.3 20.45 L49.5 20.65 51.7 20.6 52.0 20.15 52.0 19.6 52.2 19.4 52.5 17.8 52.7 17.6 53.1 17.0 53.65 16.25 53.7 17.0 53.95 18.4 53.75 18.6 53.6 21.25 53.5 21.45 53.5 21.5 53.0 22.75 46.5 22.95 45.75 23.45 45.7 23.7 45.1 23.9 44.8 24.5 44.35 24.95 44.15 25.1 Q43.8 25.1 43.55 25.35 L40.1 25.6 38.85 25.35 Q37.1 24.8 35.5 23.85 33.6 22.85 32.45 21.5 L32.55 21.0 33.15 20.45 34.15 21.1 35.85 22.15 37.15 22.9 39.95 23.45 42.75 23.55 M52.85 4.45 L53.0 6.15 52.8 8.75 52.6 8.95 52.45 9.55 51.15 10.9 51.1 11.15 49.15 12.0 41.8 12.15 Q40.85 11.8 40.0 11.05 39.0 10.1 38.9 9.0 38.7 8.1 38.9 7.15 L39.5 4.65 40.55 4.7 40.4 8.45 Q40.6 9.1 41.3 9.55 42.1 10.0 43.05 10.1 L46.5 10.05 49.1 9.5 49.1 9.45 49.5 9.3 50.2 8.75 Q50.75 8.35 50.85 7.65 L50.85 4.9 51.25 3.85 51.75 3.1 52.35 3.4 52.85 4.45 M55.8 -6.75 L56.15 -6.85 57.4 -7.85 58.4 -6.05 56.95 -4.05 56.55 -4.0 55.25 -3.15 52.35 -5.05 53.45 -5.1 55.8 -6.75 M46.75 -9.35 L48.6 -9.45 Q49.6 -8.75 49.95 -7.5 L50.35 -6.4 46.1 -9.2 46.75 -9.35 M51.9 -13.8 L52.4 -14.8 53.55 -15.85 54.9 -15.75 51.5 -10.35 51.35 -9.95 50.6 -9.55 Q50.2 -9.65 50.25 -10.1 L50.6 -11.1 Q51.05 -12.65 51.9 -13.8" fill="#003348" fill-rule="evenodd" stroke="none"/>
    <path d="M-34.3 3.75 L-33.45 1.75 -33.8 1.65 -30.25 2.15 -26.95 2.55 -22.95 2.75 Q-20.4 2.95 -17.85 2.75 L-12.7 2.7 -7.55 2.3 -2.65 1.85 2.85 1.3 7.5 0.55 8.6 0.35 14.5 -0.75 17.65 -1.55 19.5 -2.0 21.35 -2.6 29.15 -3.2 Q37.25 -4.65 41.55 -11.4 L41.9 -11.95 42.2 -11.75 43.25 -11.05 44.15 -10.5 Q33.1 -1.95 31.1 -1.5 L28.7 -1.0 28.75 -1.2 21.4 -0.35 19.5 0.25 17.55 0.65 13.9 1.3 13.8 1.35 10.2 2.0 9.8 2.1 7.5 2.5 6.45 2.65 2.45 3.15 -1.45 3.6 -1.85 3.65 -5.3 3.95 -9.3 4.4 -13.4 4.65 -15.55 4.75 -19.5 4.9 -21.55 5.05 -19.05 4.75 -22.35 5.0 -23.2 5.0 -26.85 4.8 -28.9 4.6 -31.05 4.35 -34.3 3.75 M47.75 -16.55 L49.65 -18.05 52.25 -20.2 52.4 -20.25 52.75 -20.7 52.85 -20.7 53.9 -21.1 54.3 -21.5 54.6 -21.6 54.95 -22.0 55.3 -22.05 55.8 -22.45 56.9 -21.6 56.15 -20.65 55.3 -19.85 47.75 -16.55 M56.5 -16.35 L57.4 -15.0 56.2 -14.45 55.4 -13.65 53.7 -12.55 52.7 -11.9 49.85 -10.2 47.2 -8.9 46.95 -8.8 46.8 -8.7 45.9 -9.3 45.4 -9.6 46.65 -10.2 47.0 -10.6 48.2 -11.1 48.7 -11.6 51.2 -13.0 51.55 -13.1 52.45 -14.0 54.9 -15.45 55.75 -15.65 56.5 -16.35 M50.0 -8.9 Q51.8 -10.2 46.1 -1.0 45.3 -0.15 44.65 1.05 L42.9 3.3 41.0 5.6 38.95 7.65 37.95 8.3 35.5 10.25 32.8 11.65 32.6 11.7 32.55 11.7 30.4 12.15 23.75 13.5 17.15 15.05 13.5 15.85 9.6 16.5 7.5 16.8 5.6 16.95 1.8 17.25 -1.85 17.45 -5.55 17.65 -6.45 17.8 -8.45 17.75 -12.1 17.85 -15.75 17.85 -19.2 17.75 -22.65 17.65 -26.25 17.55 -29.75 17.35 -33.15 16.95 Q-34.9 16.55 -36.45 15.65 L-36.95 15.35 -36.55 12.6 -36.55 13.85 -34.3 14.6 -30.95 15.3 -29.95 15.5 -26.4 15.85 -22.65 16.0 -18.65 16.0 -14.6 16.0 -10.6 15.9 -6.55 15.8 -4.2 15.7 -1.9 15.6 1.95 15.25 6.05 14.9 7.5 14.75 9.95 14.45 13.85 13.95 17.65 13.05 22.4 11.9 27.95 10.6 27.35 10.75 Q25.4 10.65 27.0 10.6 L27.0 10.65 27.25 10.6 27.45 10.55 29.5 10.05 29.55 10.0 30.0 9.95 30.55 9.9 31.55 9.55 33.0 9.2 Q33.1 9.05 33.3 9.05 L34.6 8.35 37.05 6.85 39.0 5.1 39.3 4.75 39.7 4.05 41.85 2.15 43.0 0.7 43.3 0.55 50.0 -8.9 M35.15 -1.75 L35.1 -1.75 35.15 -1.75 M35.25 -1.8 L35.75 -2.0 35.25 -1.8 M44.25 -10.45 L44.5 -10.25 45.0 -9.9 45.05 -9.9 45.15 -9.8 44.85 -9.5 45.05 -9.9 44.05 -8.8 43.9 -8.75 Q43.1 -8.3 44.25 -10.45 M75.65 -38.05 L74.6 -39.6 87.65 -51.95 88.95 -50.65 75.65 -38.05 M91.75 -47.15 L93.0 -45.95 80.25 -35.1 77.45 -35.25 77.35 -35.4 76.55 -36.7 79.65 -36.75 82.25 -38.5 82.3 -38.6 90.55 -46.05 91.75 -47.15 M71.35 -35.4 L72.55 -34.4 72.7 -34.3 67.1 -32.9 66.25 -33.25 68.45 -37.6 70.0 -36.4 69.15 -34.75 71.35 -35.4 M78.3 -30.0 L77.7 -29.7 78.65 -25.35 81.15 -27.85 82.05 -27.15 77.3 -22.6 76.3 -30.85 76.8 -31.1 78.3 -30.0 M57.1 1.9 L58.9 2.65 58.7 3.35 58.5 3.45 57.25 9.7 57.1 9.95 56.25 14.8 56.1 15.0 55.85 16.35 55.2 15.35 Q54.25 14.1 53.65 12.55 52.95 11.05 52.6 9.65 52.25 8.6 52.05 7.55 L53.8 -4.05 52.3 -5.1 52.85 -6.35 57.35 -14.1 58.05 -14.25 65.8 -13.0 65.05 -11.35 63.75 -9.0 62.9 -7.25 62.6 -6.85 61.85 -5.15 61.2 -3.45 61.0 -2.95 61.0 -2.85 61.65 -3.15 62.0 -3.3 62.0 -3.25 62.1 -2.9 59.55 -2.1 59.55 -2.15 59.65 -2.2 63.0 -11.85 61.6 -11.9 57.8 -12.6 56.8 -9.75 56.7 -9.5 56.9 -9.8 57.3 -10.6 57.0 -9.85 56.1 -7.75 55.4 -5.75 56.1 -7.5 55.8 -4.8 55.1 -3.3 55.55 -3.0 55.0 1.45 55.05 1.45 Q53.55 7.65 55.05 13.05 L57.15 3.85 57.3 3.7 57.05 1.95 57.1 1.9 M54.45 -3.6 Q53.25 -0.55 54.5 -3.55 L54.45 -3.6 M89.2 -31.05 L87.3 -31.15 86.1 -30.75 85.2 -30.75 82.9 -30.1 82.6 -29.85 81.65 -29.65 81.15 -29.55 80.15 -31.0 96.0 -33.35 97.8 -32.35 83.7 -25.75 83.05 -26.7 93.35 -31.85 89.2 -31.05" fill="#000000" fill-rule="evenodd" stroke="none"/>
    <path d="M-34.3 3.75 L-31.05 4.35 -28.9 4.6 -26.85 4.8 -23.2 5.0 -22.35 5.0 -19.05 4.75 -21.55 5.05 -19.5 4.9 -15.55 4.75 -13.4 4.65 -9.3 4.4 -5.3 3.95 -1.85 3.65 -1.45 3.6 2.45 3.15 6.45 2.65 7.5 2.5 9.8 2.1 10.2 2.0 13.8 1.35 13.9 1.3 17.55 0.65 19.5 0.25 21.4 -0.35 28.75 -1.2 28.7 -1.0 31.1 -1.5 Q33.1 -1.95 44.15 -10.5 L43.25 -11.05 42.2 -11.75 50.3 -15.95 51.25 -16.7 51.35 -17.6 46.45 -15.8 46.6 -16.05 47.75 -16.55 55.3 -19.85 56.15 -20.65 56.5 -16.35 55.75 -15.65 54.9 -15.45 52.45 -14.0 Q52.85 -14.45 52.55 -14.4 L52.05 -14.2 Q51.65 -14.1 51.45 -13.8 L50.75 -13.65 47.8 -12.1 47.5 -11.65 47.1 -11.6 46.65 -11.1 44.5 -10.25 44.25 -10.45 44.35 -10.65 44.2 -10.45 38.35 -3.15 38.5 -3.1 38.6 -3.15 Q39.3 -3.7 44.05 -8.8 L45.05 -9.9 45.0 -9.9 45.05 -9.95 45.05 -9.9 44.85 -9.5 45.9 -9.3 46.8 -8.7 46.95 -8.8 47.2 -8.9 Q48.6 -8.35 48.1 -7.45 L43.1 -0.75 42.75 -0.7 40.85 1.4 40.8 1.65 38.35 3.9 37.6 4.35 37.5 4.7 36.75 4.95 36.05 5.7 35.65 5.85 34.55 6.8 Q35.95 7.1 36.6 6.5 36.85 6.25 37.1 6.1 L38.4 5.2 39.7 4.05 39.3 4.75 39.0 5.1 37.05 6.85 34.6 8.35 33.3 9.05 Q33.1 9.05 33.0 9.2 L31.55 9.55 30.55 9.9 30.0 9.95 30.3 9.55 30.15 9.1 30.35 8.6 30.35 -0.1 29.7 0.45 Q29.35 1.2 29.35 2.15 L29.2 5.25 28.9 6.95 28.8 8.9 Q28.75 9.4 29.05 9.95 L29.5 10.05 27.45 10.55 27.25 10.6 27.0 10.65 27.0 10.6 Q25.4 10.65 27.35 10.75 L27.95 10.6 22.4 11.9 17.65 13.05 13.85 13.95 9.95 14.45 7.5 14.75 6.05 14.9 1.95 15.25 -1.9 15.6 -4.2 15.7 -6.55 15.8 -10.6 15.9 -14.6 16.0 -18.65 16.0 -22.65 16.0 -26.4 15.85 -29.95 15.5 -30.95 15.3 -34.3 14.6 -36.55 13.85 -36.2 12.25 -36.0 12.0 -36.0 11.1 -35.75 10.9 -35.75 10.0 -35.6 9.7 -35.6 8.9 -35.3 7.85 -35.15 7.55 -35.1 6.7 -34.9 5.6 -34.6 5.4 -34.65 4.5 -34.45 4.3 -34.45 3.7 -34.3 3.75 M39.4 -13.55 L39.2 -13.65 40.3 -13.9 39.4 -13.55 M35.25 -1.8 L35.75 -2.0 35.25 -1.8 M35.15 -1.75 L35.1 -1.75 35.15 -1.75 M38.5 -3.1 L38.0 -2.65 37.45 -2.45 37.3 -2.2 34.15 -1.05 33.9 -0.85 32.55 -0.45 32.1 -0.1 36.9 -1.4 38.5 -3.1 M88.95 -50.65 L91.75 -47.15 90.55 -46.05 84.4 -40.9 83.85 -40.7 82.8 -39.8 82.5 -39.65 81.95 -39.0 Q81.85 -38.8 82.25 -38.5 L79.65 -36.75 76.55 -36.7 75.65 -38.05 88.95 -50.65 M78.2 -38.2 L88.25 -49.2 77.35 -38.5 78.2 -38.2 M71.35 -35.4 L69.15 -34.75 70.0 -36.4 71.35 -35.4 M81.15 -27.85 L78.65 -25.35 77.7 -29.7 78.3 -30.0 81.15 -27.85 M57.1 1.9 L57.05 1.95 57.3 3.7 57.15 3.85 55.05 13.05 Q53.55 7.65 55.05 1.45 L55.5 1.6 56.3 3.0 56.2 1.75 55.9 1.7 56.1 1.55 57.1 1.9 M55.55 -3.0 L55.1 -3.3 55.8 -4.8 58.4 -10.95 57.0 -9.85 57.3 -10.6 56.9 -9.8 56.8 -9.75 57.8 -12.6 61.6 -11.9 63.0 -11.85 59.65 -2.2 59.55 -2.15 59.55 -2.1 58.25 -1.75 61.9 -10.35 Q62.2 -10.7 61.95 -10.8 L61.35 -10.9 57.15 -2.2 57.15 -1.95 55.55 -3.0 M81.65 -29.65 Q81.65 -29.3 82.0 -29.25 L82.45 -29.25 84.4 -29.55 87.5 -29.95 89.2 -31.05 93.35 -31.85 83.05 -26.7 81.15 -29.55 81.65 -29.65 M21.3 1.75 L21.1 1.0 18.05 1.35 7.5 3.7 3.4 4.55 -5.4 5.1 Q-17.55 5.65 -29.0 5.15 L-28.8 5.7 -12.5 6.4 7.5 5.1 11.3 4.55 14.25 3.85 14.7 3.6 14.75 3.45 19.5 2.35 19.85 2.25 21.3 1.75 M19.5 11.2 L18.95 10.95 7.5 12.6 Q-15.15 15.3 -34.5 12.95 -15.95 17.1 7.5 13.95 L17.8 12.25 19.5 11.25 19.55 11.2 19.5 11.2" fill="#003348" fill-rule="evenodd" stroke="none"/>
    <path d="M42.2 -11.75 L41.9 -11.95 41.55 -11.4 41.4 -11.35 39.95 -13.2 39.4 -13.55 40.3 -13.9 40.85 -13.85 46.45 -15.8 51.35 -17.6 51.25 -16.7 50.3 -15.95 42.2 -11.75 M48.1 -7.45 Q44.2 -1.6 50.0 -8.9 L43.3 0.55 43.0 0.7 41.85 2.15 39.7 4.05 38.4 5.2 37.1 6.1 Q36.85 6.25 36.6 6.5 35.95 7.1 34.55 6.8 L35.65 5.85 36.05 5.7 36.75 4.95 37.5 4.7 37.6 4.35 38.35 3.9 40.8 1.65 40.85 1.4 42.75 -0.7 43.1 -0.75 48.1 -7.45 M38.5 -3.1 L36.9 -1.4 32.1 -0.1 32.55 -0.45 33.9 -0.85 34.15 -1.05 37.3 -2.2 37.45 -2.45 38.0 -2.65 38.5 -3.1 M44.5 -10.25 L46.65 -11.1 47.1 -11.6 47.5 -11.65 47.8 -12.1 50.75 -13.65 51.45 -13.8 Q51.65 -14.1 52.05 -14.2 L52.55 -14.4 Q52.85 -14.45 52.45 -14.0 L51.55 -13.1 51.2 -13.0 48.7 -11.6 48.2 -11.1 47.0 -10.6 46.65 -10.2 45.4 -9.6 45.15 -9.8 45.05 -9.9 45.05 -9.95 45.0 -9.9 44.5 -10.25 M78.2 -38.2 L77.35 -38.5 88.25 -49.2 78.2 -38.2 M82.25 -38.5 Q81.85 -38.8 81.95 -39.0 L82.5 -39.65 82.8 -39.8 83.85 -40.7 84.4 -40.9 90.55 -46.05 82.3 -38.6 82.25 -38.5 M58.25 -1.75 L57.7 -1.6 57.3 -1.8 57.15 -1.95 57.15 -2.2 61.35 -10.9 61.95 -10.8 Q62.2 -10.7 61.9 -10.35 L58.25 -1.75 M81.65 -29.65 L82.6 -29.85 82.9 -30.1 85.2 -30.75 86.1 -30.75 87.3 -31.15 89.2 -31.05 87.5 -29.95 84.4 -29.55 82.45 -29.25 82.0 -29.25 Q81.65 -29.3 81.65 -29.65 M56.1 1.55 L55.9 1.7 56.2 1.75 56.3 3.0 55.5 1.6 55.75 1.6 55.6 1.35 56.1 1.55 M29.5 10.05 L29.05 9.95 Q28.75 9.4 28.8 8.9 L28.9 6.95 29.2 5.25 29.35 2.15 Q29.35 1.2 29.7 0.45 L30.35 -0.1 30.35 8.6 30.15 9.1 30.3 9.55 30.0 9.95 29.55 10.0 29.5 10.05 M21.3 1.75 L19.85 2.25 19.5 2.35 14.75 3.45 14.7 3.6 14.25 3.85 11.3 4.55 7.5 5.1 -12.5 6.4 -28.8 5.7 -29.0 5.15 Q-17.55 5.65 -5.4 5.1 L3.4 4.55 7.5 3.7 18.05 1.35 21.1 1.0 21.3 1.75 M19.5 11.2 L19.55 11.2 19.5 11.25 17.8 12.25 7.5 13.95 Q-15.95 17.1 -34.5 12.95 -15.15 15.3 7.5 12.6 L18.95 10.95 19.5 11.2" fill="#005391" fill-rule="evenodd" stroke="none"/>
    <path d="M57.1 29.65 L59.4 38.15 56.95 38.8 55.05 30.25 55.95 29.65 57.1 29.65 M53.9 31.5 L56.8 40.4 55.8 40.65 53.05 31.65 53.9 31.5 M51.4 33.35 L53.85 42.75 52.6 42.7 50.75 33.55 51.4 33.35 M50.6 38.45 L51.65 43.9 Q50.05 45.6 47.95 46.05 L46.75 40.1 48.95 39.75 49.4 39.05 50.6 38.45 M42.0 40.35 L42.6 50.25 41.3 50.55 40.9 40.7 42.0 40.35 M46.3 47.9 L44.45 37.7 45.6 37.45 47.4 47.5 46.3 47.9 M39.7 48.95 Q39.75 51.5 39.3 52.25 L38.05 53.2 Q37.05 53.85 35.95 54.15 35.1 43.5 36.35 43.1 37.4 42.65 38.0 42.55 L39.4 42.25 39.7 48.95 M34.3 45.55 L34.7 56.15 32.9 56.75 33.05 45.9 34.3 45.55 M28.35 51.8 L28.4 52.1 28.65 54.3 28.5 53.45 28.35 51.8 M25.5 51.0 L25.7 52.75 25.85 53.55 26.35 57.5 26.5 58.95 25.0 59.3 23.9 50.45 22.25 50.8 22.45 51.4 Q22.85 52.7 22.9 54.1 L23.0 57.5 23.1 59.3 17.25 61.35 Q16.2 57.25 16.35 52.85 L16.4 52.0 16.5 51.55 16.75 51.5 16.1 51.55 17.05 51.25 17.1 51.45 20.0 50.95 20.0 50.9 25.6 49.35 25.9 50.05 25.3 50.2 25.35 50.4 25.5 51.0 M13.75 51.85 L15.2 61.7 13.75 62.1 12.0 52.2 12.8 51.95 13.75 51.85 M4.7 53.0 L3.65 62.05 1.7 62.45 -0.9 62.6 -1.4 52.25 3.25 52.4 4.25 52.65 4.7 53.0 M7.55 52.05 L7.55 52.25 7.65 53.9 7.75 55.75 7.95 60.35 8.15 62.65 6.6 63.15 6.15 52.4 7.55 52.05 M-37.35 44.6 L-37.25 43.9 -36.15 43.8 -36.15 43.9 -36.05 44.65 -36.05 45.05 -37.35 44.6 M-36.5 45.1 Q-36.8 49.25 -37.4 53.65 L-38.85 54.05 -39.05 53.5 -37.75 44.65 -36.5 45.1 M-32.45 46.35 L-29.5 47.2 -29.15 47.45 -28.6 48.1 Q-28.15 49.35 -28.3 50.75 L-28.6 56.6 -30.0 57.05 -35.0 55.0 Q-35.45 54.6 -35.4 53.95 L-35.0 46.2 -34.0 45.9 -32.45 46.35 M-33.4 45.85 L-32.65 45.6 Q-30.5 46.0 -28.65 47.1 L-31.75 46.3 -33.4 45.85 M-25.6 48.25 L-25.55 58.5 -26.5 58.7 Q-27.05 55.55 -27.05 52.45 L-27.05 48.4 -26.1 48.1 -25.6 48.25 M-24.5 48.15 L-25.05 48.0 -24.5 47.85 -24.5 48.15 M-3.45 51.95 L-3.25 53.1 -3.15 62.3 -4.55 62.7 -4.85 52.2 -3.5 51.85 -3.45 51.95 M-8.9 50.9 L-10.25 50.75 -8.9 50.3 -8.9 50.9 M-13.4 50.75 L-13.7 60.5 -15.5 60.8 -16.15 60.9 -18.05 60.65 -18.7 59.1 -18.9 57.45 -18.85 51.95 -18.85 51.3 -18.8 49.75 -14.7 50.5 -13.4 50.75 M-11.6 49.85 L-11.6 50.55 -13.0 50.3 -17.35 49.6 -17.35 49.55 -12.25 49.0 -11.6 49.85 M-12.1 50.95 L-10.85 51.1 -10.65 61.4 -12.1 61.9 -12.3 51.0 -12.1 50.95 M-19.45 51.7 L-19.45 51.75 -19.5 51.95 Q-20.45 56.45 -19.2 60.55 L-20.8 61.1 Q-21.6 55.35 -20.7 49.7 L-19.55 49.35 -19.45 49.65 Q-19.2 50.65 -19.45 51.7" fill="#003348" fill-rule="evenodd" stroke="none"/>
    <path d="M74.35 -39.95 L73.8 -40.75 74.6 -41.6 75.6 -41.95 76.05 -41.8 79.95 -39.8 80.55 -39.65 83.45 -38.55 84.55 -37.85 Q85.1 -37.45 84.65 -37.15 L81.15 -34.2 77.05 -35.85 75.85 -37.8 78.85 -36.8 79.2 -36.9 81.55 -36.45 82.2 -36.5 83.05 -37.4 81.65 -37.75 81.3 -38.05 80.8 -38.2 80.35 -38.55 78.5 -39.2 76.0 -40.4 75.4 -40.55 75.0 -40.45 74.55 -40.25 74.35 -39.95 M70.3 -36.25 L72.15 -34.75 70.85 -34.9 70.65 -34.7 65.95 -35.4 67.25 -38.4 68.05 -37.85 67.6 -36.25 68.35 -36.1 68.6 -36.25 70.3 -36.25 M81.15 -29.5 L80.4 -30.65 80.6 -31.7 84.55 -32.1 86.05 -31.95 86.0 -30.15 85.75 -29.0 85.35 -28.05 84.55 -26.2 84.1 -25.15 83.25 -26.4 85.0 -31.0 82.6 -31.05 81.45 -30.75 81.15 -29.5 M78.3 -29.95 L78.7 -26.15 79.5 -25.9 81.35 -26.65 81.45 -27.65 82.7 -26.75 82.55 -25.85 Q82.45 -25.35 82.05 -25.3 L80.6 -24.8 79.9 -24.65 78.9 -24.5 78.2 -24.2 77.2 -24.75 77.95 -25.7 77.2 -30.85 78.3 -29.95 M52.05 -16.5 L50.95 -19.75 47.75 -18.65 50.35 -9.15 51.4 -10.05 Q52.15 -10.35 52.65 -10.95 53.0 -11.15 52.95 -11.8 L52.9 -13.2 52.05 -16.5 M46.3 -19.8 L50.55 -21.0 51.45 -20.85 54.3 -11.65 Q54.5 -11.3 54.6 -11.9 L56.3 -12.05 56.5 -12.2 65.65 -11.1 63.45 -5.25 61.35 -5.3 60.95 -5.2 58.4 -5.45 56.95 -5.45 56.55 -5.6 55.05 -5.8 54.4 -5.75 53.3 -6.15 51.9 -7.0 53.2 -9.6 51.95 -8.55 51.65 -8.35 51.25 -8.25 50.8 -7.8 50.3 -7.6 49.55 -7.7 46.3 -19.8 M60.1 -6.55 L60.35 -6.65 62.85 -6.7 64.3 -10.35 63.25 -10.35 62.75 -10.55 55.95 -11.15 55.3 -10.5 53.5 -7.65 55.25 -7.0 60.1 -6.55 M58.15 28.75 L58.25 29.65 51.6 35.05 48.85 44.55 44.6 40.0 44.35 40.1 Q34.55 47.1 30.65 49.4 L29.15 50.3 29.15 51.0 28.25 51.1 28.25 50.8 28.15 49.4 26.85 49.8 25.4 50.15 25.4 50.2 25.45 50.35 25.45 50.45 25.1 50.5 21.65 51.25 19.5 51.7 14.55 52.55 Q5.25 53.85 -3.2 52.8 L-17.7 50.55 -26.0 48.9 Q-36.75 46.2 -44.6 42.45 L-42.95 35.65 -41.35 36.2 -41.45 35.85 -40.75 33.85 -39.65 30.75 -38.35 27.7 -38.6 26.8 -37.05 21.6 -37.4 21.5 -37.3 21.15 Q-29.15 23.0 -10.8 25.05 L5.85 26.05 7.5 26.05 14.8 25.4 19.5 24.65 22.7 24.15 26.85 23.45 28.25 23.2 39.95 19.45 39.85 19.15 40.35 17.0 42.35 11.45 Q42.25 11.05 42.5 11.3 L43.0 10.75 48.1 8.45 51.9 10.55 52.2 11.0 52.85 16.6 52.75 16.65 57.55 16.5 57.5 17.0 57.55 17.4 52.6 17.8 52.4 17.0 51.8 11.9 48.0 9.65 42.95 12.15 42.7 12.4 41.2 17.0 40.45 20.9 27.85 25.3 27.8 25.1 26.8 25.25 26.8 25.4 26.6 25.45 26.45 25.45 26.2 25.45 23.15 26.15 22.9 26.2 21.7 26.4 10.5 27.2 9.3 27.2 4.9 27.3 Q-10.9 27.4 -35.0 23.05 L-35.9 26.6 -23.8 27.95 4.15 30.0 10.3 30.0 10.5 30.0 17.0 29.4 23.15 28.25 26.3 27.45 26.6 27.4 26.65 27.4 26.9 27.3 28.2 27.1 29.0 26.95 40.85 22.2 41.95 17.0 42.95 14.15 Q42.8 13.9 43.0 13.9 L47.8 11.4 47.8 11.35 47.95 11.4 51.4 13.05 51.55 13.3 51.95 17.0 52.5 19.15 57.5 18.55 57.6 19.5 Q56.55 19.6 56.1 20.05 L56.3 20.5 Q56.8 21.8 56.25 22.75 L57.65 22.55 57.65 23.45 Q56.5 24.1 55.8 25.2 L56.05 27.3 56.5 27.45 56.55 27.35 56.3 27.0 Q55.65 25.6 56.55 24.55 L56.95 25.8 Q57.05 26.55 56.55 27.25 L57.45 26.8 57.95 26.55 58.2 27.65 51.2 32.75 48.7 41.05 45.0 36.7 28.9 45.85 28.9 45.95 28.55 46.05 28.15 46.1 28.05 46.15 27.85 46.15 27.65 46.2 27.6 46.2 23.15 46.85 21.0 47.25 16.25 47.55 -2.0 46.45 -8.5 45.55 Q-23.85 43.25 -41.75 38.2 L-41.95 41.25 Q-30.35 45.15 -20.15 47.35 L-13.3 48.6 5.95 50.6 Q11.75 50.85 17.35 50.55 L23.15 49.85 26.4 49.05 28.05 48.55 29.25 48.1 29.0 48.35 29.25 48.2 29.3 48.5 44.8 38.5 48.7 43.05 51.45 34.0 58.15 28.75 M47.6 13.65 L47.8 13.65 49.85 14.3 50.15 17.0 51.95 23.85 50.45 31.4 49.75 32.1 49.8 33.6 49.15 35.75 49.05 35.9 48.4 37.85 46.45 35.55 46.3 34.1 45.65 34.4 42.4 27.55 44.25 17.0 45.0 14.75 47.6 13.65 M49.5 17.0 L49.4 16.3 49.25 17.0 49.0 19.6 49.05 19.9 49.0 20.7 50.25 24.45 51.35 23.55 49.5 17.0 M45.65 17.0 L46.45 21.45 47.3 22.95 47.1 17.0 47.3 15.45 45.6 16.25 45.65 17.0 M47.65 15.5 L47.55 17.0 47.8 22.3 47.95 22.8 48.6 20.75 48.95 17.0 49.25 15.75 47.65 15.5 M43.4 14.9 L42.7 17.0 41.45 23.55 35.5 26.05 35.75 26.95 Q36.15 29.4 35.9 31.65 35.7 32.15 35.65 32.95 L34.3 33.85 35.85 33.7 Q36.4 35.75 36.2 37.8 L36.1 39.6 44.95 35.2 45.1 35.25 48.65 39.2 Q50.05 33.8 51.0 31.6 L55.6 28.3 55.6 26.85 Q55.35 25.65 55.6 24.95 55.7 24.2 56.0 23.75 L55.6 23.95 Q54.6 21.8 55.2 20.0 L54.4 20.0 52.25 20.35 51.4 17.0 51.0 14.1 47.85 12.5 43.4 14.9 M49.15 33.55 L49.0 33.55 48.1 32.95 47.25 34.95 48.3 36.1 49.0 33.8 49.15 33.55 M44.85 28.0 L43.75 28.1 45.85 32.4 46.25 32.3 46.15 29.7 44.85 28.0 M48.85 28.35 L48.25 30.45 48.3 31.7 49.25 32.2 49.05 28.7 48.85 28.35 M49.65 27.95 L49.8 30.35 50.05 30.15 51.15 24.85 50.25 25.8 49.65 27.95 M47.7 30.7 L46.95 29.25 46.7 29.9 47.0 33.6 47.85 31.85 47.7 30.7 M47.55 28.6 L48.0 29.75 48.05 29.25 Q48.0 28.75 48.25 28.35 L47.55 28.6 M48.25 26.45 Q48.4 25.7 48.95 25.2 L49.4 25.35 49.4 26.1 49.8 24.85 48.85 22.25 47.75 25.0 46.3 23.0 45.35 26.55 46.2 27.75 46.05 26.65 Q46.05 26.2 46.4 26.2 46.45 26.1 46.6 26.3 L47.0 26.65 47.35 26.85 47.5 27.0 Q47.4 26.75 47.55 26.95 47.4 27.05 47.9 27.15 48.0 26.65 48.25 26.45 M56.7 25.35 L56.55 25.2 56.3 25.15 Q56.05 26.0 56.4 26.8 L56.45 26.8 56.75 25.9 56.75 25.5 56.7 25.35 M57.5 26.15 L57.65 25.35 57.4 24.5 Q56.95 25.3 57.35 26.35 L57.5 26.15 M57.65 24.25 L57.7 24.45 Q58.0 25.9 57.45 26.8 L57.1 26.3 Q56.5 24.5 57.65 24.25 M55.7 22.8 L56.2 22.75 55.95 22.25 Q55.5 21.1 55.95 20.1 55.15 20.95 55.7 22.8 M56.35 21.1 L56.15 20.5 Q56.0 20.65 56.0 20.9 55.75 21.45 56.05 22.25 56.5 21.85 56.35 21.1 M56.95 19.75 L57.3 20.1 Q57.7 21.35 57.1 22.3 L57.05 22.1 Q56.4 20.9 56.95 19.75 M56.9 20.45 L56.95 20.8 57.0 21.8 Q57.6 20.55 56.9 20.45 M45.95 21.5 L45.1 17.05 43.3 26.7 44.85 26.55 45.95 21.5 M27.2 23.6 L27.4 23.65 27.4 23.55 27.2 23.6 M27.4 23.5 L27.4 23.45 28.25 23.2 28.05 23.25 27.0 23.55 27.4 23.5 M28.05 23.8 L28.25 23.75 Q37.05 21.55 31.15 23.0 L27.9 23.8 28.05 23.8 M27.8 35.45 L27.8 35.55 31.35 34.5 31.4 34.4 32.8 33.7 34.35 32.15 Q35.0 31.45 35.05 30.9 L34.95 28.15 Q33.9 27.25 32.6 27.35 32.0 27.55 31.55 27.9 L31.35 28.0 30.15 28.45 28.8 29.05 28.4 29.15 Q27.95 29.25 27.6 29.5 L27.6 29.35 27.05 29.25 26.85 29.3 26.4 29.4 23.15 30.0 14.2 31.15 10.75 31.45 10.5 31.5 3.6 31.65 -27.4 29.6 -37.1 28.15 -37.85 29.55 -38.4 30.8 -38.65 31.5 -24.65 34.35 -11.6 36.1 0.4 37.35 4.05 37.65 10.5 37.8 10.65 37.8 12.9 37.75 20.7 37.1 23.15 36.55 26.65 35.65 27.1 35.5 27.4 35.45 27.5 35.4 27.5 35.5 27.8 35.45 M28.05 37.1 L27.65 37.15 27.6 36.95 26.95 37.1 26.7 37.15 23.15 37.8 19.75 38.35 13.35 39.1 10.5 39.2 9.7 39.2 1.9 38.95 -1.35 38.75 -12.8 37.5 -25.25 35.5 -39.1 32.9 -39.55 34.15 -40.4 36.45 -40.55 36.5 -40.45 36.55 Q-30.9 38.5 -20.9 41.05 -14.4 42.7 -5.9 43.9 L1.5 44.8 15.65 45.55 21.75 45.3 23.15 45.15 27.2 44.65 27.45 44.6 27.65 44.55 27.75 44.5 28.55 44.1 28.55 44.05 30.2 43.35 30.8 43.0 33.15 41.9 Q34.6 41.3 35.25 40.05 35.5 38.35 35.15 36.9 L34.65 35.35 33.4 34.9 28.4 36.9 28.45 37.05 28.25 37.1 28.3 37.05 28.05 37.1 M30.8 32.55 Q31.55 31.1 30.6 29.65 L29.95 29.85 Q29.75 30.0 29.7 30.3 29.35 31.4 29.7 32.65 30.35 33.2 30.8 32.55 M33.55 36.05 L34.05 36.2 Q35.2 37.55 34.8 39.1 34.35 40.5 32.75 40.95 L32.3 39.45 Q31.85 37.8 32.65 36.4 L33.55 36.05 M34.1 30.35 Q34.5 29.15 33.55 28.55 L33.35 28.6 32.8 29.1 32.8 31.5 33.45 31.65 34.1 30.35 M32.4 30.2 Q32.15 28.85 32.9 27.95 L33.75 27.65 34.1 28.0 Q34.75 29.05 34.5 30.25 34.2 31.55 33.1 32.6 L32.8 32.3 32.4 30.2 M31.5 29.9 L31.6 30.7 31.45 31.9 31.2 32.4 30.3 33.3 29.65 33.65 29.1 32.8 28.9 31.65 Q28.75 29.85 30.3 28.75 30.65 28.75 30.9 29.05 L31.3 29.4 31.5 29.9 M29.75 41.1 L30.05 41.75 30.75 41.1 30.95 40.9 31.2 40.25 31.25 39.15 31.0 38.3 30.4 38.2 29.95 38.45 Q29.35 39.7 29.75 41.1 M29.45 41.05 L29.35 40.55 Q28.75 38.45 30.75 37.25 L31.35 37.6 Q32.05 39.15 31.6 40.85 L30.85 42.0 30.15 42.65 29.45 41.05 M33.2 39.9 L34.05 39.05 34.1 38.45 Q34.15 37.45 33.5 36.65 32.6 38.2 33.2 39.9 M29.35 48.7 L29.35 48.85 29.45 48.8 Q29.85 48.6 29.35 48.7" fill="#000000" fill-rule="evenodd" stroke="none"/>
    <path d="M75.85 -37.8 L74.35 -39.95 74.55 -40.25 75.0 -40.45 75.4 -40.55 76.0 -40.4 78.5 -39.2 80.35 -38.55 80.8 -38.2 81.3 -38.05 81.65 -37.75 83.05 -37.4 82.2 -36.5 81.55 -36.45 79.2 -36.9 78.85 -36.8 75.85 -37.8 M70.3 -36.25 L68.6 -36.25 68.35 -36.1 67.6 -36.25 68.05 -37.85 70.3 -36.25 M81.15 -29.5 L81.45 -30.75 82.6 -31.05 85.0 -31.0 83.25 -26.4 81.15 -29.5 M81.45 -27.65 L81.35 -26.65 79.5 -25.9 78.7 -26.15 78.3 -29.95 81.45 -27.65 M52.05 -16.5 L52.9 -13.2 52.95 -11.8 Q53.0 -11.15 52.65 -10.95 52.15 -10.35 51.4 -10.05 L50.35 -9.15 47.75 -18.65 50.95 -19.75 52.05 -16.5 M60.1 -6.55 L55.25 -7.0 53.5 -7.65 55.3 -10.5 55.95 -11.15 62.75 -10.55 63.25 -10.35 64.3 -10.35 62.85 -6.7 60.35 -6.65 60.1 -6.55 M47.6 13.65 L45.0 14.75 44.25 17.0 42.4 27.55 45.65 34.4 46.3 34.1 46.45 35.55 48.4 37.85 49.05 35.9 49.15 35.75 49.8 33.6 49.75 32.1 50.45 31.4 51.95 23.85 50.15 17.0 49.85 14.3 47.8 13.65 47.6 13.65 M43.4 14.9 L47.85 12.5 51.0 14.1 51.4 17.0 52.25 20.35 54.4 20.0 55.2 20.0 Q54.6 21.8 55.6 23.95 L56.0 23.75 Q55.7 24.2 55.6 24.95 55.35 25.65 55.6 26.85 L55.6 28.3 51.0 31.6 Q50.05 33.8 48.65 39.2 L45.1 35.25 44.95 35.2 36.1 39.6 36.2 37.8 Q36.4 35.75 35.85 33.7 L34.3 33.85 35.65 32.95 Q35.7 32.15 35.9 31.65 36.15 29.4 35.75 26.95 L35.5 26.05 41.45 23.55 42.7 17.0 43.4 14.9" fill="#003348" fill-rule="evenodd" stroke="none"/>
    <path d="M57.55 17.4 L57.5 18.55 52.5 19.15 51.95 17.0 51.55 13.3 51.4 13.05 47.95 11.4 47.8 11.35 47.8 11.4 43.0 13.9 Q42.8 13.9 42.95 14.15 L41.95 17.0 40.85 22.2 29.0 26.95 28.2 27.1 28.2 26.7 28.05 26.0 27.85 25.3 40.45 20.9 41.2 17.0 42.7 12.4 42.95 12.15 48.0 9.65 51.8 11.9 52.4 17.0 52.6 17.8 57.55 17.4 M57.6 19.5 L57.65 22.55 56.25 22.75 Q56.8 21.8 56.3 20.5 L56.1 20.05 Q56.55 19.6 57.6 19.5 M57.65 23.45 L57.95 26.55 57.45 26.8 56.55 27.25 Q57.05 26.55 56.95 25.8 L56.55 24.55 Q55.65 25.6 56.3 27.0 L56.55 27.35 56.5 27.45 56.05 27.3 55.8 25.2 Q56.5 24.1 57.65 23.45 M58.2 27.65 L58.15 28.75 51.45 34.0 48.7 43.05 44.8 38.5 29.3 48.5 29.25 48.2 29.0 48.35 29.25 48.1 28.05 48.55 26.4 49.05 23.15 49.85 17.35 50.55 Q11.75 50.85 5.95 50.6 L-13.3 48.6 -20.15 47.35 Q-30.35 45.15 -41.95 41.25 L-41.75 38.2 Q-23.85 43.25 -8.5 45.55 L-2.0 46.45 16.25 47.55 21.0 47.25 23.15 46.85 27.6 46.2 27.65 46.2 27.85 46.15 28.05 46.15 28.15 46.1 28.55 46.05 28.9 45.95 28.9 45.85 45.0 36.7 48.7 41.05 51.2 32.75 58.2 27.65 M26.9 27.3 L26.65 27.4 26.6 27.4 26.3 27.45 23.15 28.25 17.0 29.4 10.5 30.0 10.3 30.0 4.15 30.0 -23.8 27.95 -35.9 26.6 -35.0 23.05 Q-10.9 27.4 4.9 27.3 L9.3 27.2 10.5 27.2 21.7 26.4 22.9 26.2 23.15 26.15 26.2 25.45 26.45 25.45 26.6 25.45 26.8 25.4 26.9 27.3 M47.65 15.5 L49.25 15.75 48.95 17.0 48.6 20.75 47.95 22.8 47.8 22.3 47.55 17.0 47.65 15.5 M45.65 17.0 L45.6 16.25 47.3 15.45 47.1 17.0 47.3 22.95 46.45 21.45 45.65 17.0 M49.5 17.0 L51.35 23.55 50.25 24.45 49.0 20.7 49.05 19.9 49.0 19.6 49.25 17.0 49.4 16.3 49.5 17.0 M45.95 21.5 L44.85 26.55 43.3 26.7 45.1 17.05 45.95 21.5 M56.9 20.45 Q57.6 20.55 57.0 21.8 L56.95 20.8 56.9 20.45 M56.95 19.75 Q56.4 20.9 57.05 22.1 L57.1 22.3 Q57.7 21.35 57.3 20.1 L56.95 19.75 M56.35 21.1 Q56.5 21.85 56.05 22.25 55.75 21.45 56.0 20.9 56.0 20.65 56.15 20.5 L56.35 21.1 M55.7 22.8 Q55.15 20.95 55.95 20.1 55.5 21.1 55.95 22.25 L56.2 22.75 55.7 22.8 M57.65 24.25 Q56.5 24.5 57.1 26.3 L57.45 26.8 Q58.0 25.9 57.7 24.45 L57.65 24.25 M57.5 26.15 L57.35 26.35 Q56.95 25.3 57.4 24.5 L57.65 25.35 57.5 26.15 M56.7 25.35 L56.75 25.5 56.75 25.9 56.45 26.8 56.4 26.8 Q56.05 26.0 56.3 25.15 L56.55 25.2 56.7 25.35 M48.25 26.45 Q48.0 26.65 47.9 27.15 47.4 27.05 47.55 26.95 47.4 26.75 47.5 27.0 L47.35 26.85 47.0 26.65 46.6 26.3 Q46.45 26.1 46.4 26.2 46.05 26.2 46.05 26.65 L46.2 27.75 45.35 26.55 46.3 23.0 47.75 25.0 48.85 22.25 49.8 24.85 49.4 26.1 49.4 25.35 48.95 25.2 Q48.4 25.7 48.25 26.45 M47.55 28.6 L48.25 28.35 Q48.0 28.75 48.05 29.25 L48.0 29.75 47.55 28.6 M47.7 30.7 L47.85 31.85 47.0 33.6 46.7 29.9 46.95 29.25 47.7 30.7 M49.65 27.95 L50.25 25.8 51.15 24.85 50.05 30.15 49.8 30.35 49.65 27.95 M48.85 28.35 L49.05 28.7 49.25 32.2 48.3 31.7 48.25 30.45 48.85 28.35 M44.85 28.0 L46.15 29.7 46.25 32.3 45.85 32.4 43.75 28.1 44.85 28.0 M49.15 33.55 L49.0 33.8 48.3 36.1 47.25 34.95 48.1 32.95 49.0 33.55 49.15 33.55 M27.5 35.4 L27.4 35.45 27.1 35.5 26.65 35.65 23.15 36.55 20.7 37.1 12.9 37.75 10.65 37.8 10.5 37.8 4.05 37.65 0.4 37.35 -11.6 36.1 -24.65 34.35 -38.65 31.5 -38.4 30.8 -37.85 29.55 -37.1 28.15 -27.4 29.6 3.6 31.65 10.5 31.5 10.75 31.45 14.2 31.15 23.15 30.0 26.4 29.4 26.85 29.3 27.05 29.25 27.6 29.35 27.6 29.5 Q27.95 29.25 28.4 29.15 L28.8 29.05 30.15 28.45 31.35 28.0 31.55 27.9 Q32.0 27.55 32.6 27.35 33.9 27.25 34.95 28.15 L35.05 30.9 Q35.0 31.45 34.35 32.15 L32.8 33.7 31.4 34.4 31.35 34.5 27.8 35.55 27.8 35.45 28.6 35.3 28.5 32.65 Q28.15 30.9 28.35 30.1 L28.1 29.4 27.6 29.5 27.1 29.5 27.35 33.5 27.5 35.4 M28.25 37.1 L28.45 37.05 28.4 36.9 33.4 34.9 34.65 35.35 35.15 36.9 Q35.5 38.35 35.25 40.05 34.6 41.3 33.15 41.9 L30.8 43.0 30.2 43.35 28.55 44.05 28.55 44.1 27.75 44.5 27.65 44.55 27.45 44.6 27.2 44.65 23.15 45.15 21.75 45.3 15.65 45.55 1.5 44.8 -5.9 43.9 Q-14.4 42.7 -20.9 41.05 -30.9 38.5 -40.45 36.55 L-40.55 36.5 -40.4 36.45 -39.55 34.15 -39.1 32.9 -25.25 35.5 -12.8 37.5 -1.35 38.75 1.9 38.95 9.7 39.2 10.5 39.2 13.35 39.1 19.75 38.35 23.15 37.8 26.7 37.15 26.95 37.1 27.6 36.95 27.65 37.15 28.05 37.1 27.65 37.2 28.45 43.35 28.6 40.85 28.45 37.5 28.25 37.1 M31.5 29.9 L31.3 29.4 30.9 29.05 Q30.65 28.75 30.3 28.75 28.75 29.85 28.9 31.65 L29.1 32.8 29.65 33.65 30.3 33.3 31.2 32.4 31.45 31.9 31.6 30.7 31.5 29.9 M32.4 30.2 L32.8 32.3 33.1 32.6 Q34.2 31.55 34.5 30.25 34.75 29.05 34.1 28.0 L33.75 27.65 32.9 27.95 Q32.15 28.85 32.4 30.2 M34.1 30.35 L33.45 31.65 32.8 31.5 32.8 29.1 33.35 28.6 33.55 28.55 Q34.5 29.15 34.1 30.35 M33.55 36.05 L32.65 36.4 Q31.85 37.8 32.3 39.45 L32.75 40.95 Q34.35 40.5 34.8 39.1 35.2 37.55 34.05 36.2 L33.55 36.05 M30.8 32.55 Q30.35 33.2 29.7 32.65 29.35 31.4 29.7 30.3 29.75 30.0 29.95 29.85 L30.6 29.65 Q31.55 31.1 30.8 32.55 M29.45 41.05 L30.15 42.65 30.85 42.0 31.6 40.85 Q32.05 39.15 31.35 37.6 L30.75 37.25 Q28.75 38.45 29.35 40.55 L29.45 41.05 M29.75 41.1 Q29.35 39.7 29.95 38.45 L30.4 38.2 31.0 38.3 31.25 39.15 31.2 40.25 30.95 40.9 30.75 41.1 30.05 41.75 29.75 41.1 M28.9 46.0 L28.95 46.05 29.0 45.95 28.9 46.0 M29.35 48.7 Q29.85 48.6 29.45 48.8 L29.35 48.85 29.35 48.7 M33.2 39.9 Q32.6 38.2 33.5 36.65 34.15 37.45 34.1 38.45 L34.05 39.05 33.2 39.9" fill="#edaa51" fill-rule="evenodd" stroke="none"/>
    <path d="M28.2 27.1 L26.9 27.3 26.8 25.4 26.8 25.25 27.8 25.1 27.85 25.3 28.05 26.0 28.2 26.7 28.2 27.1 M27.8 35.45 L27.5 35.5 27.5 35.4 27.35 33.5 27.1 29.5 27.6 29.5 28.1 29.4 28.35 30.1 Q28.15 30.9 28.5 32.65 L28.6 35.3 27.8 35.45 M28.25 37.1 L28.45 37.5 28.6 40.85 28.45 43.35 27.65 37.2 28.05 37.1 28.3 37.05 28.25 37.1 M28.9 46.0 L29.0 45.95 28.95 46.05 28.9 46.0" fill="#fde871" fill-rule="evenodd" stroke="none"/>
    <path d="M45.2 -13.15 Q44.85 -13.35 44.9 -13.7 44.9 -14.2 45.2 -14.6 L45.95 -15.15 46.65 -15.1 46.95 -14.45 46.65 -13.65 45.85 -13.05 45.2 -13.15" fill="#faa710" fill-rule="evenodd" stroke="none"/>
    <path d="M45.2 -13.15 L45.85 -13.05 46.65 -13.65 46.95 -14.45 46.65 -15.1 45.95 -15.15 45.2 -14.6 Q44.9 -14.2 44.9 -13.7 44.85 -13.35 45.2 -13.15 M43.9 -13.5 Q43.9 -14.3 44.45 -15.1 45.0 -15.85 45.8 -16.1 L47.15 -15.95 Q47.65 -15.65 47.65 -14.8 47.65 -14.05 47.05 -13.25 46.5 -12.45 45.7 -12.2 L44.35 -12.3 Q43.85 -12.7 43.9 -13.5" fill="#000000" fill-rule="evenodd" stroke="none"/>
    <path d="M46.95 -10.55 Q46.85 -9.7 46.35 -8.95 45.7 -8.15 44.95 -7.95 L43.6 -8.1 Q43.05 -8.45 43.1 -9.2 43.1 -10.1 43.7 -10.85 44.3 -11.6 45.05 -11.8 L46.35 -11.7 Q46.9 -11.35 46.95 -10.55 M45.9 -10.8 L45.2 -10.9 Q44.75 -10.7 44.45 -10.35 44.1 -9.9 44.15 -9.5 44.1 -9.1 44.4 -8.85 L45.1 -8.75 45.85 -9.35 Q46.2 -9.75 46.15 -10.15 L45.9 -10.8" fill="#000000" fill-rule="evenodd" stroke="none"/>
    <path d="M45.9 -10.8 L46.15 -10.15 Q46.2 -9.75 45.85 -9.35 L45.1 -8.75 44.4 -8.85 Q44.1 -9.1 44.15 -9.5 44.1 -9.9 44.45 -10.35 44.75 -10.7 45.2 -10.9 L45.9 -10.8" fill="#faa710" fill-rule="evenodd" stroke="none"/>
    <path d="M55.0 -2.7 L54.0 -3.05 53.6 -3.6 Q53.65 -3.95 54.05 -4.1 L55.05 -4.15 56.1 -3.8 56.4 -3.3 Q56.4 -3.0 56.05 -2.8 L55.0 -2.7" fill="#faa710" fill-rule="evenodd" stroke="none"/>
    <path d="M55.0 -2.7 L56.05 -2.8 Q56.4 -3.0 56.4 -3.3 L56.1 -3.8 55.05 -4.15 54.05 -4.1 Q53.65 -3.95 53.6 -3.6 L54.0 -3.05 55.0 -2.7 M53.25 -4.55 L55.05 -4.7 Q56.2 -4.55 56.95 -4.0 L57.7 -2.95 Q57.65 -2.4 56.95 -2.05 L55.05 -1.9 Q53.95 -2.05 53.25 -2.55 52.45 -3.1 52.5 -3.65 52.5 -4.2 53.25 -4.55" fill="#000000" fill-rule="evenodd" stroke="none"/>
    <path d="M59.5 -3.75 Q58.85 -3.75 58.5 -4.2 58.1 -4.4 58.05 -4.75 58.05 -5.05 58.5 -5.25 L59.45 -5.25 Q60.1 -5.25 60.5 -4.9 60.9 -4.7 60.95 -4.3 L60.45 -3.9 59.5 -3.75" fill="#faa710" fill-rule="evenodd" stroke="none"/>
    <path d="M59.5 -3.75 L60.45 -3.9 60.95 -4.3 Q60.9 -4.7 60.5 -4.9 60.1 -5.25 59.45 -5.25 L58.5 -5.25 Q58.05 -5.05 58.05 -4.75 58.1 -4.4 58.5 -4.2 58.85 -3.75 59.5 -3.75 M57.65 -3.65 Q56.95 -4.2 56.95 -4.7 56.95 -5.35 57.7 -5.65 L59.55 -5.8 Q60.65 -5.65 61.35 -5.15 62.15 -4.65 62.15 -4.0 62.2 -3.5 61.3 -3.15 L59.55 -3.05 Q58.5 -3.15 57.65 -3.65" fill="#000000" fill-rule="evenodd" stroke="none"/>
    <path d="M20.15 32.05 Q20.6 31.35 21.45 31.05 L23.05 31.1 Q23.9 31.45 24.15 32.2 24.5 32.95 24.05 33.7 L22.8 34.65 21.15 34.6 Q20.4 34.25 20.05 33.5 19.8 32.75 20.15 32.05 M23.05 32.6 L22.55 32.15 Q22.15 32.0 21.75 32.15 L21.2 32.6 Q20.95 32.9 21.1 33.25 21.2 33.6 21.65 33.7 L22.35 33.7 Q22.75 33.6 23.0 33.25 L23.05 32.6" fill="#000000" fill-rule="evenodd" stroke="none"/>
    <path d="M19.7 40.85 Q20.05 40.15 20.9 39.85 L22.6 39.95 Q23.35 40.25 23.65 41.0 23.95 41.8 23.5 42.45 L22.25 43.45 20.6 43.4 Q19.85 43.1 19.55 42.3 19.25 41.55 19.7 40.85 M20.65 41.4 Q20.45 41.75 20.55 42.05 L21.1 42.5 21.85 42.55 22.45 42.1 Q22.7 41.8 22.5 41.4 22.4 41.1 22.0 40.95 21.6 40.8 21.2 40.95 20.8 41.05 20.65 41.4" fill="#000000" fill-rule="evenodd" stroke="none"/>
    <path d="M10.6 35.25 L9.35 36.25 7.7 36.15 Q6.95 35.85 6.65 35.1 6.35 34.35 6.8 33.65 7.15 32.95 8.0 32.7 8.85 32.4 9.7 32.7 10.45 33.05 10.75 33.8 11.05 34.55 10.6 35.25 M8.3 33.75 L7.75 34.15 Q7.55 34.5 7.65 34.85 L8.2 35.3 8.95 35.4 9.55 34.85 9.6 34.25 9.1 33.7 8.3 33.75" fill="#000000" fill-rule="evenodd" stroke="none"/>
    <path d="M6.6 41.4 Q7.05 40.7 7.9 40.45 L9.5 40.5 Q10.3 40.85 10.6 41.55 10.85 42.3 10.5 43.05 L9.25 44.0 7.6 43.95 Q6.75 43.65 6.5 42.9 6.2 42.15 6.6 41.4 M7.5 42.6 L8.0 43.05 8.75 43.1 Q9.15 43.0 9.35 42.65 9.6 42.35 9.45 42.0 9.35 41.65 8.9 41.5 L8.15 41.55 Q7.75 41.65 7.55 41.95 L7.5 42.6" fill="#000000" fill-rule="evenodd" stroke="none"/>
    <path d="M-1.5 33.75 Q-1.35 34.4 -1.8 34.95 -2.25 35.55 -3.05 35.75 L-4.45 35.55 Q-5.1 35.2 -5.3 34.5 -5.45 33.8 -4.95 33.2 -4.55 32.6 -3.8 32.5 L-2.3 32.7 Q-1.65 32.95 -1.5 33.75 M-4.25 33.7 L-4.35 34.4 -4.0 34.75 -3.25 34.95 -2.75 34.55 Q-2.5 34.3 -2.6 34.05 -2.65 33.65 -3.0 33.45 -3.3 33.3 -3.65 33.45 -4.05 33.5 -4.25 33.7" fill="#000000" fill-rule="evenodd" stroke="none"/>
    <path d="M-3.35 40.05 Q-2.7 40.35 -2.5 41.15 -2.35 41.8 -2.85 42.35 -3.25 42.95 -4.0 43.1 L-5.5 42.9 Q-6.15 42.55 -6.3 41.9 -6.5 41.15 -6.0 40.6 -5.6 40.05 -4.8 39.85 L-3.35 40.05 M-3.75 41.9 Q-3.45 41.65 -3.55 41.4 L-4.0 40.8 -4.65 40.8 -5.2 41.1 -5.4 41.75 -5.0 42.2 -4.3 42.3 -3.75 41.9" fill="#000000" fill-rule="evenodd" stroke="none"/>
    <path d="M-15.65 33.55 L-15.45 32.95 Q-15.5 32.6 -15.8 32.4 L-16.55 32.3 -17.1 32.6 -17.3 33.15 Q-17.3 33.55 -16.9 33.7 L-16.3 33.85 -15.65 33.55 M-17.8 32.05 Q-17.35 31.45 -16.55 31.3 L-15.1 31.6 Q-14.55 32.0 -14.4 32.75 -14.35 33.4 -14.8 34.05 -15.25 34.65 -16.05 34.7 L-17.5 34.4 Q-18.15 34.0 -18.2 33.3 -18.3 32.55 -17.8 32.05" fill="#000000" fill-rule="evenodd" stroke="none"/>
    <path d="M-16.35 38.75 Q-16.3 39.5 -16.8 40.1 -17.25 40.65 -18.05 40.75 L-19.45 40.5 Q-20.15 40.05 -20.2 39.35 -20.3 38.65 -19.8 38.15 -19.35 37.5 -18.55 37.4 -17.75 37.3 -17.1 37.75 -16.5 38.15 -16.35 38.75 M-17.45 39.0 L-17.8 38.5 -18.5 38.4 Q-18.85 38.45 -19.05 38.7 L-19.25 39.35 -18.9 39.75 -18.25 39.95 -17.65 39.55 -17.45 39.0" fill="#000000" fill-rule="evenodd" stroke="none"/>
    <path d="M-27.75 30.1 Q-27.25 30.5 -27.1 31.2 -27.05 31.85 -27.45 32.45 -27.95 33.1 -28.7 33.2 L-30.2 32.9 Q-30.85 32.4 -30.9 31.75 -31.0 31.0 -30.5 30.55 -30.0 29.95 -29.2 29.8 -28.4 29.7 -27.75 30.1 M-29.25 30.8 Q-29.6 30.85 -29.75 31.05 L-30.0 31.65 -29.6 32.2 -29.0 32.4 -28.35 32.0 -28.15 31.45 Q-28.2 31.15 -28.5 30.9 L-29.25 30.8" fill="#000000" fill-rule="evenodd" stroke="none"/>
    <path d="M-28.25 36.3 Q-28.2 37.05 -28.7 37.6 -29.25 38.2 -30.0 38.25 L-31.4 38.05 -32.2 36.9 Q-32.25 36.2 -31.7 35.65 -31.25 35.05 -30.45 34.95 -29.7 34.85 -29.05 35.25 -28.4 35.6 -28.25 36.3 M-29.4 36.55 L-29.7 36.0 -30.4 35.95 Q-30.75 36.0 -30.95 36.2 L-31.2 36.85 -30.85 37.25 -30.15 37.45 -29.55 37.05 Q-29.35 36.9 -29.4 36.55" fill="#000000" fill-rule="evenodd" stroke="none"/>
    <path d="M67.55 -16.05 Q72.75 -22.45 81.5 -27.7 L91.45 -33.5 91.7 -33.75 92.1 -33.85 92.1 -33.8 92.55 -34.05 92.5 -34.15 87.65 -53.3 74.65 -48.7 87.35 -57.25 63.65 -94.25 Q15.35 -77.25 -7.15 -45.0 -32.1 -6.55 -42.95 49.8 L-42.95 49.85 -43.0 50.5 -41.75 51.15 -39.85 51.95 -38.0 52.8 -36.25 53.55 -34.15 54.4 -31.85 55.25 -30.55 55.7 -28.35 56.55 -26.35 57.15 -25.25 57.35 -23.2 58.0 -21.2 58.5 -19.15 58.85 -16.85 59.3 -14.85 59.7 -12.5 60.2 -11.15 60.3 -8.75 60.5 -6.4 60.8 -4.05 60.95 -1.75 61.1 0.7 61.1 3.4 61.2 5.0 61.15 5.9 61.05 7.7 61.0 10.65 60.85 13.35 60.45 14.9 60.3 16.5 60.15 18.2 59.85 19.85 59.35 20.9 59.0 Q21.35 58.75 21.65 58.65 L22.5 58.45 23.45 58.15 24.4 57.8 27.4 56.95 26.6 33.2 31.15 54.0 58.75 34.75 Q56.05 27.3 56.0 17.65 55.9 7.95 56.15 5.8 56.4 3.6 58.75 -4.65 62.35 -9.65 67.55 -16.05 M96.2 -39.1 L97.95 -32.15 94.9 -31.25 Q74.6 -21.0 61.95 -2.45 57.7 14.65 63.2 37.15 56.65 42.45 47.15 48.5 37.55 54.55 31.3 60.25 20.8 64.15 2.8 65.3 L-9.0 64.6 Q-19.05 63.4 -26.8 61.25 L-38.6 57.85 Q-42.65 56.6 -48.05 53.85 -44.15 32.75 -39.4 11.95 -33.0 -7.5 -29.1 -16.5 -25.2 -25.5 -13.6 -46.4 -11.85 -50.5 1.25 -62.75 35.4 -91.65 64.15 -99.15 66.95 -96.2 77.35 -80.25 85.3 -68.0 91.75 -56.4 93.6 -48.3 94.2 -46.45 L95.15 -42.75 96.2 -39.1" fill="#000000" fill-rule="evenodd" stroke="none"/>
    <path d="M81.3 -28.45 L83.8 -35.9 81.5 -34.95 83.1 -36.8 82.3 -36.9 82.0 -36.8 81.2 -37.0 80.85 -36.85 79.2 -37.2 78.85 -37.05 74.0 -37.55 73.6 -37.45 72.75 -37.7 72.4 -37.5 71.05 -37.6 69.95 -35.4 69.35 -37.15 63.85 -32.85 63.95 -31.8 62.8 -32.15 61.25 -31.05 61.0 -30.65 59.25 -29.25 58.8 -29.15 58.15 -28.6 59.75 -27.8 57.15 -27.45 56.95 -23.2 58.9 -23.25 56.75 -22.1 55.65 -16.45 58.4 -17.9 56.55 -15.8 58.6 -15.6 59.0 -15.8 59.95 -15.5 61.5 -15.6 62.55 -15.4 64.15 -16.95 63.55 -15.65 63.45 -15.3 64.85 -15.3 67.0 -14.95 67.45 -14.85 Q67.7 -14.95 67.8 -15.15 L67.8 -15.3 68.85 -16.8 68.7 -15.1 71.0 -16.85 72.6 -17.95 72.85 -19.35 73.95 -18.95 74.55 -19.35 74.55 -20.95 76.0 -20.4 77.3 -21.5 77.75 -21.55 78.9 -22.6 77.95 -23.5 79.55 -23.7 79.65 -23.75 81.3 -28.45 M68.7 -37.95 L68.9 -38.35 70.35 -39.45 86.05 -38.4 80.95 -22.4 78.65 -21.0 78.4 -20.6 75.85 -19.0 78.5 -15.05 Q77.9 -14.7 77.3 -14.4 L71.65 -16.1 69.95 -14.8 67.55 -9.5 66.55 -9.25 65.9 -13.25 61.9 -13.7 61.55 -13.6 59.75 -13.95 59.45 -13.75 58.7 -14.0 58.35 -13.85 56.9 -14.25 50.8 -11.65 50.35 -12.6 51.7 -14.05 53.15 -16.05 53.25 -16.15 53.55 -16.45 54.05 -17.25 54.4 -18.3 54.8 -21.55 55.1 -24.7 55.05 -25.7 54.35 -25.85 53.8 -26.2 53.1 -26.3 52.5 -26.7 51.8 -26.75 49.1 -28.0 49.55 -29.25 57.9 -30.05 59.4 -31.15 58.5 -39.65 59.7 -40.7 64.15 -34.7 67.1 -36.9 67.4 -37.35 68.7 -37.95 M77.2 -25.75 L78.85 -32.75 76.9 -33.2 76.5 -33.05 73.95 -33.55 72.65 -33.65 72.4 -33.55 71.4 -33.8 71.1 -33.6 69.7 -33.7 66.25 -31.0 64.75 -30.1 64.45 -29.7 63.9 -29.5 63.65 -29.1 62.5 -28.2 62.1 -28.2 61.9 -27.8 61.35 -27.55 60.75 -19.3 64.6 -18.45 64.95 -18.5 65.85 -18.2 66.2 -18.3 69.05 -18.1 75.7 -23.0 76.1 -23.1 76.4 -23.7 76.85 -24.4 77.2 -25.75 M61.5 -32.7 L63.0 -34.0 59.6 -39.2 60.55 -32.05 61.5 -32.7 M65.25 -28.5 Q65.9 -28.9 66.5 -29.65 L69.4 -31.3 73.5 -32.1 73.85 -32.25 75.8 -31.65 76.8 -30.4 Q77.25 -29.55 77.15 -28.6 77.0 -27.6 76.35 -26.55 L75.2 -24.65 73.85 -23.15 72.45 -22.0 71.15 -21.2 68.35 -19.9 Q67.1 -19.35 65.75 -19.3 L65.15 -19.35 Q64.1 -19.55 63.0 -20.3 61.95 -21.3 62.1 -22.6 62.2 -24.5 63.35 -26.25 L64.65 -27.9 65.25 -28.5 M74.45 -25.8 L74.9 -26.55 Q75.5 -27.5 75.35 -28.5 75.3 -29.65 74.45 -30.4 L72.3 -30.95 71.7 -31.0 70.6 -30.7 68.2 -29.65 66.0 -28.0 64.95 -26.7 Q63.8 -25.3 63.55 -23.45 63.45 -22.6 63.9 -21.8 L65.0 -21.0 66.5 -20.75 69.2 -21.25 70.95 -22.1 73.25 -24.0 74.1 -25.25 74.3 -25.55 74.3 -25.6 74.45 -25.8 M55.15 -27.05 L55.05 -27.95 56.3 -28.85 50.45 -28.55 55.15 -27.05 M75.1 -34.3 L75.5 -34.4 80.25 -34.05 77.5 -23.3 74.65 -21.1 74.25 -21.0 68.7 -17.0 65.6 -17.4 65.3 -17.35 59.05 -18.25 60.05 -27.65 70.0 -34.9 72.55 -34.5 73.75 -34.45 74.1 -34.6 75.1 -34.3 M53.65 -14.2 L53.8 -15.4 51.2 -12.55 55.25 -14.15 53.65 -14.2 M72.5 -16.6 L77.4 -15.2 74.65 -18.05 72.5 -16.6 M67.6 -13.05 L67.4 -12.9 Q65.55 -13.7 67.2 -10.15 L68.8 -13.8 67.6 -13.05" fill="#000000" fill-rule="evenodd" stroke="none"/>
    <path d="M64.85 -15.3 L63.45 -15.3 63.55 -15.65 64.15 -16.95 62.55 -15.4 61.5 -15.6 59.95 -15.5 59.0 -15.8 58.6 -15.6 56.55 -15.8 58.4 -17.9 55.65 -16.45 56.75 -22.1 58.9 -23.25 56.95 -23.2 57.15 -27.45 59.75 -27.8 58.15 -28.6 58.8 -29.15 59.25 -29.25 61.0 -30.65 61.25 -31.05 62.8 -32.15 63.95 -31.8 63.85 -32.85 69.35 -37.15 69.95 -35.4 71.05 -37.6 72.4 -37.5 72.75 -37.7 73.6 -37.45 74.0 -37.55 78.85 -37.05 79.2 -37.2 80.85 -36.85 81.2 -37.0 82.0 -36.8 82.3 -36.9 83.1 -36.8 81.5 -34.95 83.8 -35.9 81.3 -28.45 83.35 -35.45 79.55 -23.7 77.95 -23.5 78.9 -22.6 75.85 -20.6 77.3 -21.5 76.0 -20.4 74.55 -20.95 74.55 -19.35 73.95 -18.95 72.85 -19.35 72.6 -17.95 71.45 -17.55 68.9 -15.55 71.0 -16.85 68.7 -15.1 68.85 -16.8 67.8 -15.3 66.95 -15.55 63.55 -15.65 64.85 -15.3 M76.4 -23.7 L76.1 -23.1 75.7 -23.0 69.05 -18.1 66.2 -18.3 65.85 -18.2 64.95 -18.5 64.6 -18.45 60.75 -19.3 61.35 -27.55 61.9 -27.8 62.1 -28.2 62.5 -28.2 63.65 -29.1 63.9 -29.5 64.45 -29.7 64.75 -30.1 66.25 -31.0 69.7 -33.7 71.1 -33.6 71.4 -33.8 72.4 -33.55 72.65 -33.65 73.95 -33.55 76.5 -33.05 76.9 -33.2 78.85 -32.75 77.2 -25.75 78.6 -32.65 76.3 -24.0 75.05 -23.1 74.75 -23.05 70.9 -19.9 70.5 -19.8 69.05 -18.7 66.3 -18.7 67.0 -18.45 67.35 -18.55 68.7 -18.15 76.4 -23.7 M61.5 -32.7 L60.55 -32.05 59.6 -39.2 63.0 -34.0 61.5 -32.7 M65.25 -28.5 L64.65 -27.9 63.35 -26.25 Q62.2 -24.5 62.1 -22.6 61.95 -21.3 63.0 -20.3 64.1 -19.55 65.15 -19.35 L65.75 -19.3 Q67.1 -19.35 68.35 -19.9 L71.15 -21.2 72.45 -22.0 73.85 -23.15 75.2 -24.65 76.35 -26.55 Q77.0 -27.6 77.15 -28.6 77.25 -29.55 76.8 -30.4 L75.8 -31.65 73.85 -32.25 73.5 -32.1 69.4 -31.3 66.5 -29.65 Q65.9 -28.9 65.25 -28.5 M75.1 -34.3 L74.1 -34.6 73.75 -34.45 72.55 -34.5 70.0 -34.9 60.05 -27.65 59.05 -18.25 65.3 -17.35 65.6 -17.4 68.7 -17.0 74.25 -21.0 74.65 -21.1 77.5 -23.3 80.25 -34.05 75.5 -34.4 75.1 -34.3 M55.15 -27.05 L50.45 -28.55 56.3 -28.85 55.05 -27.95 55.15 -27.05 M53.65 -14.2 L55.25 -14.15 51.2 -12.55 53.8 -15.4 53.65 -14.2 M60.5 -15.75 L61.5 -15.6 62.8 -15.8 61.85 -16.25 58.35 -16.4 57.8 -16.2 60.1 -15.7 60.5 -15.75 M72.5 -16.6 L74.65 -18.05 77.4 -15.2 72.5 -16.6 M67.6 -13.05 L68.8 -13.8 67.2 -10.15 Q65.55 -13.7 67.4 -12.9 L67.6 -13.05" fill="#edaa51" fill-rule="evenodd" stroke="none"/>
    <path d="M67.4 -26.5 L70.9 -29.05 73.2 -29.95 71.0 -29.95 69.95 -29.75 67.25 -28.1 66.95 -28.05 66.55 -27.7 66.15 -27.3 64.85 -25.5 Q63.75 -23.95 64.25 -22.25 L66.05 -21.35 66.8 -21.5 66.4 -22.55 65.85 -22.9 65.8 -24.75 Q65.9 -25.35 65.45 -24.85 L65.4 -25.55 65.95 -26.15 67.35 -26.65 66.0 -25.7 67.05 -25.65 67.4 -26.5 M74.1 -25.25 L73.25 -24.0 70.95 -22.1 69.2 -21.25 66.5 -20.75 65.0 -21.0 63.9 -21.8 Q63.45 -22.6 63.55 -23.45 63.8 -25.3 64.95 -26.7 L66.0 -28.0 68.2 -29.65 70.6 -30.7 71.7 -31.0 72.3 -30.95 74.45 -30.4 Q75.3 -29.65 75.35 -28.5 75.5 -27.5 74.9 -26.55 L74.45 -25.8 74.5 -26.05 74.45 -26.45 74.15 -26.3 73.75 -25.9 73.5 -25.3 73.5 -24.95 73.85 -25.05 74.1 -25.25 M70.6 -23.9 L71.35 -24.75 71.15 -25.05 70.05 -23.9 70.6 -23.9 M71.75 -23.35 L73.2 -25.9 70.7 -23.25 71.75 -23.35" fill="#0099df" fill-rule="evenodd" stroke="none"/>
    <path d="M67.35 -26.65 L65.95 -26.15 65.4 -25.55 65.45 -24.85 Q65.9 -25.35 65.8 -24.75 L65.85 -22.9 66.4 -22.55 66.8 -21.5 66.05 -21.35 64.25 -22.25 Q63.75 -23.95 64.85 -25.5 L66.15 -27.3 66.55 -27.7 66.95 -28.05 67.25 -28.1 69.95 -29.75 71.0 -29.95 73.2 -29.95 70.9 -29.05 67.4 -26.5 67.35 -26.65" fill="#004990" fill-rule="evenodd" stroke="none"/>
    <path d="M67.4 -26.5 L67.05 -25.65 66.0 -25.7 67.35 -26.65 67.4 -26.5 M74.1 -25.25 L73.85 -25.05 73.5 -24.95 73.5 -25.3 73.75 -25.9 74.15 -26.3 74.45 -26.45 74.5 -26.05 74.45 -25.8 74.3 -25.6 74.3 -25.55 74.1 -25.25 M70.6 -23.9 L70.05 -23.9 71.15 -25.05 71.35 -24.75 70.6 -23.9 M71.75 -23.35 L70.7 -23.25 73.2 -25.9 71.75 -23.35" fill="#fbfffe" fill-rule="evenodd" stroke="none"/>
    <path d="M81.3 -28.45 L79.65 -23.75 79.55 -23.7 83.35 -35.45 81.3 -28.45 M78.9 -22.6 L77.75 -21.55 77.3 -21.5 75.85 -20.6 78.9 -22.6 M72.6 -17.95 L71.0 -16.85 68.9 -15.55 71.45 -17.55 72.6 -17.95 M67.8 -15.3 L67.8 -15.15 Q67.7 -14.95 67.45 -14.85 L67.0 -14.95 64.85 -15.3 63.55 -15.65 66.95 -15.55 67.8 -15.3 M77.2 -25.75 L76.85 -24.4 76.4 -23.7 68.7 -18.15 67.35 -18.55 67.0 -18.45 66.3 -18.7 69.05 -18.7 70.5 -19.8 70.9 -19.9 74.75 -23.05 75.05 -23.1 76.3 -24.0 78.6 -32.65 77.2 -25.75 M60.5 -15.75 L60.1 -15.7 57.8 -16.2 58.35 -16.4 61.85 -16.25 62.8 -15.8 61.5 -15.6 60.5 -15.75" fill="#fde871" fill-rule="evenodd" stroke="none"/>
  </g>
</svg>
