<?xml version="1.0" encoding="UTF-8" standalone="no"?>
<svg xmlns:xlink="http://www.w3.org/1999/xlink" height="98.5px" width="85.75px" xmlns="http://www.w3.org/2000/svg">
  <g transform="matrix(1.0, 0.0, 0.0, 1.0, 43.6, 49.2)">
    <path d="M13.15 -22.2 L13.4 -22.15 13.55 -21.3 13.55 -19.95 10.55 -16.85 6.65 -17.05 Q3.95 -16.8 2.5 -14.75 1.65 -13.5 1.15 -12.15 -0.7 -7.0 -6.15 -7.5 -10.4 -8.2 -14.25 -6.25 -15.3 -5.65 -16.0 -4.7 -18.35 -1.35 -21.4 1.2 -23.0 1.5 -24.25 0.45 -24.65 0.15 -24.6 -0.55 L-22.5 -0.75 Q-21.1 -2.25 -20.15 -4.0 -18.35 -7.4 -14.9 -8.65 -10.2 -10.25 -4.9 -9.55 -3.2 -10.5 -2.55 -12.05 -0.6 -16.45 3.4 -19.0 L4.3 -18.9 Q9.35 -17.85 11.65 -22.25 L13.15 -22.2" fill="#edaa51" fill-rule="evenodd" stroke="none"/>
    <path d="M13.55 -21.3 L13.4 -22.15 13.15 -22.2 Q9.3 -30.2 2.25 -35.6 -5.7 -41.7 -15.55 -43.7 L-26.05 -43.4 Q-30.4 -42.3 -33.45 -38.95 -40.2 -31.4 -39.4 -20.95 -38.65 -11.05 -30.0 -5.75 -27.8 -4.4 -26.25 -2.2 -24.75 0.05 -24.0 2.6 -21.0 4.8 -19.0 2.05 L-18.0 0.5 Q-15.85 -3.15 -11.75 -4.85 -9.1 -6.0 -6.2 -5.45 -2.65 -5.5 -0.35 -8.3 1.3 -10.35 2.65 -12.8 L6.4 -14.8 11.25 -14.7 Q12.55 -15.1 13.25 -16.4 L14.6 -18.95 13.55 -21.3 M2.7 -7.55 Q0.9 -4.25 -2.45 -3.0 -5.25 -1.85 -8.45 -2.0 -13.65 -2.3 -15.95 2.6 -16.5 3.85 -17.2 4.75 -17.9 5.7 -19.05 6.1 L-22.35 6.5 Q-15.5 25.6 -21.75 44.8 8.75 45.65 38.65 45.5 L37.75 21.2 23.0 19.7 Q23.25 2.45 16.7 -13.55 13.85 -10.6 9.15 -10.95 6.95 -11.1 4.8 -10.9 3.6 -9.3 2.7 -7.55 M24.35 -5.85 L25.6 7.05 26.45 16.25 41.6 17.75 42.15 48.7 Q17.0 49.55 -9.95 49.15 L-26.15 49.15 Q-24.4 35.95 -23.7 23.9 -23.15 15.05 -26.75 7.2 -30.55 -1.05 -37.0 -7.35 L-38.45 -8.85 Q-42.25 -12.65 -43.2 -18.3 -44.25 -24.75 -42.45 -31.0 -41.05 -35.85 -38.4 -40.15 L-36.25 -43.4 -35.5 -44.15 -34.15 -45.35 Q-25.95 -50.5 -16.2 -48.75 -10.85 -47.85 -5.8 -45.7 2.45 -42.25 9.0 -36.3 15.15 -30.7 19.05 -23.35 23.4 -15.1 24.35 -5.85" fill="#000000" fill-rule="evenodd" stroke="none"/>
    <path d="M13.15 -22.2 L11.65 -22.25 Q9.35 -17.85 4.3 -18.9 L3.4 -19.0 Q-0.6 -16.45 -2.55 -12.05 -3.2 -10.5 -4.9 -9.55 -10.2 -10.25 -14.9 -8.65 -18.35 -7.4 -20.15 -4.0 -21.1 -2.25 -22.5 -0.75 L-24.6 -0.55 Q-24.65 0.15 -24.25 0.45 -23.0 1.5 -21.4 1.2 -18.35 -1.35 -16.0 -4.7 -15.3 -5.65 -14.25 -6.25 -10.4 -8.2 -6.15 -7.5 -0.7 -7.0 1.15 -12.15 1.65 -13.5 2.5 -14.75 3.95 -16.8 6.65 -17.05 L10.55 -16.85 13.55 -19.95 13.55 -21.3 14.6 -18.95 13.25 -16.4 Q12.55 -15.1 11.25 -14.7 L6.4 -14.8 2.65 -12.8 Q1.3 -10.35 -0.35 -8.3 -2.65 -5.5 -6.2 -5.45 -9.1 -6.0 -11.75 -4.85 -15.85 -3.15 -18.0 0.5 L-19.0 2.05 Q-21.0 4.8 -24.0 2.6 -24.75 0.05 -26.25 -2.2 -27.8 -4.4 -30.0 -5.75 -38.65 -11.05 -39.4 -20.95 -40.2 -31.4 -33.45 -38.95 -30.4 -42.3 -26.05 -43.4 L-15.55 -43.7 Q-5.7 -41.7 2.25 -35.6 9.3 -30.2 13.15 -22.2" fill="#015291" fill-rule="evenodd" stroke="none"/>
    <path d="M2.7 -7.55 Q3.6 -9.3 4.8 -10.9 6.95 -11.1 9.15 -10.95 13.85 -10.6 16.7 -13.55 23.25 2.45 23.0 19.7 L37.75 21.2 38.65 45.5 Q8.75 45.65 -21.75 44.8 -15.5 25.6 -22.35 6.5 L-19.05 6.1 Q-17.9 5.7 -17.2 4.75 -16.5 3.85 -15.95 2.6 -13.65 -2.3 -8.45 -2.0 -5.25 -1.85 -2.45 -3.0 0.9 -4.25 2.7 -7.55 M-16.95 6.15 L-18.3 7.55 Q-18.7 11.55 -17.6 15.4 -14.9 24.8 -17.55 34.2 -18.75 38.5 -18.7 42.8 L-0.55 43.5 -0.4 41.95 -1.3 41.15 -13.3 40.05 -11.95 25.4 Q-11.5 20.55 -11.95 16.45 -12.1 15.0 -12.55 13.75 -13.2 12.0 -13.25 10.25 L-11.95 10.05 -11.95 6.3 -16.95 6.15" fill="#faa710" fill-rule="evenodd" stroke="none"/>
    <path d="M-16.95 6.15 L-11.95 6.3 -11.95 10.05 -13.25 10.25 Q-13.2 12.0 -12.55 13.75 -12.1 15.0 -11.95 16.45 -11.5 20.55 -11.95 25.4 L-13.3 40.05 -1.3 41.15 -0.4 41.95 -0.55 43.5 -18.7 42.8 Q-18.75 38.5 -17.55 34.2 -14.9 24.8 -17.6 15.4 -18.7 11.55 -18.3 7.55 L-16.95 6.15" fill="#ffdc70" fill-rule="evenodd" stroke="none"/>
  </g>
</svg>
