<?xml version="1.0" encoding="UTF-8" standalone="no"?>
<svg xmlns:xlink="http://www.w3.org/1999/xlink" height="51.7px" width="81.25px" xmlns="http://www.w3.org/2000/svg">
  <g transform="matrix(1.0, 0.0, 0.0, 1.0, 40.6, 25.85)">
    <path d="M-32.55 -25.4 Q-36.0 -17.55 -36.7 -10.7 -38.2 2.85 -29.1 12.3 -15.0 27.0 -1.05 14.4 9.7 4.55 14.65 -10.7 15.95 -14.8 16.85 -19.25 L20.35 -18.8 Q19.8 -14.6 18.8 -10.7 16.65 -2.3 12.3 4.65 L12.45 4.65 12.2 7.7 11.95 10.3 12.15 15.15 12.2 15.15 12.2 15.65 14.25 15.75 14.25 15.25 14.75 15.25 Q22.6 12.35 25.9 8.75 26.75 7.9 30.5 1.5 32.3 -1.5 33.9 -5.05 L35.0 -7.6 35.25 -8.2 35.7 -9.45 Q36.45 -11.8 36.6 -13.5 L37.2 -16.7 40.65 -16.25 39.4 -10.7 Q34.4 7.8 21.85 17.65 15.8 22.3 7.75 25.85 L-16.95 24.3 -18.15 24.05 -17.4 24.05 Q-30.9 20.0 -36.5 7.95 -41.45 -2.7 -40.45 -10.7 L-40.05 -12.8 Q-38.3 -20.3 -35.9 -25.85 L-32.55 -25.4 M-5.85 22.0 L8.8 21.2 11.4 19.75 11.2 19.75 8.2 19.65 8.2 16.25 Q9.55 14.45 9.7 10.7 L9.8 8.25 Q4.6 15.1 -3.05 20.45 -4.35 21.4 -5.85 22.0" fill="#000000" fill-rule="evenodd" stroke="none"/>
    <path d="M16.85 -19.25 Q15.95 -14.8 14.65 -10.7 9.7 4.55 -1.05 14.4 -15.0 27.0 -29.1 12.3 -38.2 2.85 -36.7 -10.7 -36.0 -17.55 -32.55 -25.4 L16.85 -19.25" fill="#03163a" fill-rule="evenodd" stroke="none"/>
    <path d="M37.2 -16.7 L36.6 -13.5 36.65 -14.35 36.5 -16.15 35.25 -16.25 33.8 -11.65 32.5 -7.5 30.6 -3.3 29.0 -0.25 26.7 4.15 Q25.65 6.2 24.4 7.65 23.15 9.1 18.55 11.55 15.65 13.1 14.25 14.15 L14.25 11.65 Q13.3 8.65 15.35 5.05 L18.75 -1.1 20.75 -8.0 Q22.4 -14.15 22.4 -15.2 L22.25 -17.65 21.25 -17.75 Q20.25 -10.6 17.65 -2.5 17.1 -0.95 13.9 4.35 11.75 7.85 12.2 11.15 L12.2 15.15 12.15 15.15 11.95 10.3 12.2 7.7 12.45 4.65 12.3 4.65 Q16.65 -2.3 18.8 -10.7 19.8 -14.6 20.35 -18.8 L37.2 -16.7 M-5.85 22.0 Q-4.35 21.4 -3.05 20.45 4.6 15.1 9.8 8.25 L9.7 10.7 Q9.55 14.45 8.2 16.25 L8.2 19.65 11.2 19.75 11.4 19.75 8.8 21.2 -5.85 22.0" fill="#015291" fill-rule="evenodd" stroke="none"/>
    <path d="M36.6 -13.5 Q36.45 -11.8 35.7 -9.45 L35.25 -8.2 35.0 -7.6 33.9 -5.05 Q32.3 -1.5 30.5 1.5 26.75 7.9 25.9 8.75 22.6 12.35 14.75 15.25 L14.25 15.25 14.25 15.75 12.2 15.65 12.2 15.15 12.2 11.15 Q11.75 7.85 13.9 4.35 17.1 -0.95 17.65 -2.5 20.25 -10.6 21.25 -17.75 L22.25 -17.65 22.4 -15.2 Q22.4 -14.15 20.75 -8.0 L18.75 -1.1 15.35 5.05 Q13.3 8.65 14.25 11.65 L14.25 14.15 Q15.65 13.1 18.55 11.55 23.15 9.1 24.4 7.65 25.65 6.2 26.7 4.15 L29.0 -0.25 30.6 -3.3 32.5 -7.5 33.8 -11.65 35.25 -16.25 36.5 -16.15 36.65 -14.35 36.6 -13.5" fill="#0099df" fill-rule="evenodd" stroke="none"/>
    <path d="M22.05 5.65 Q21.9 6.35 21.3 6.7 L20.15 6.95 19.25 6.35 Q18.85 5.85 19.05 5.15 19.2 4.55 19.8 4.2 20.3 3.85 20.95 3.95 L21.9 4.55 Q22.2 5.05 22.05 5.65" fill="#faa710" fill-rule="evenodd" stroke="none"/>
    <path d="M22.05 5.65 Q22.2 5.05 21.9 4.55 L20.95 3.95 Q20.3 3.85 19.8 4.2 19.2 4.55 19.05 5.15 18.85 5.85 19.25 6.35 L20.15 6.95 21.3 6.7 Q21.9 6.35 22.05 5.65 M20.95 2.7 Q22.05 2.85 22.75 3.8 23.35 4.75 23.1 5.9 22.75 7.1 21.75 7.75 20.65 8.4 19.55 8.2 18.3 8.05 17.8 7.1 17.1 6.15 17.45 4.95 17.7 3.8 18.8 3.15 19.7 2.5 20.95 2.7" fill="#000000" fill-rule="evenodd" stroke="none"/>
  </g>
</svg>
