<?xml version="1.0" encoding="UTF-8" standalone="no"?>
<svg xmlns:xlink="http://www.w3.org/1999/xlink" height="137.05px" width="134.7px" xmlns="http://www.w3.org/2000/svg">
  <g transform="matrix(1.0, 0.0, 0.0, 1.0, 69.05, 75.1)">
    <path d="M38.1 -59.25 L35.05 -49.8 39.75 -58.15 60.2 -43.85 60.3 -43.75 60.1 -43.25 60.1 -43.3 59.85 -42.95 59.8 -42.65 57.85 -38.5 Q55.45 -33.4 48.35 -9.95 41.2 13.5 40.0 26.35 38.8 39.1 38.35 45.45 L1.8 56.3 8.7 30.15 -0.2 56.8 -0.4 56.6 -1.5 56.65 -2.5 56.65 -3.45 56.65 -4.35 56.6 -5.15 56.7 -6.25 56.7 -8.0 56.65 -9.7 56.35 -11.25 56.05 -12.8 55.7 -15.45 55.2 -18.3 54.45 -20.05 53.95 -20.95 53.75 -22.45 53.3 -25.0 52.35 -27.3 51.6 -29.45 50.75 -31.65 49.85 -33.8 48.85 -36.0 47.9 -37.25 47.35 -39.3 46.15 -41.1 45.15 -43.15 44.0 -45.0 43.05 -46.75 41.95 -48.5 40.7 Q-48.95 40.4 -49.45 40.15 L-51.15 38.95 -53.0 37.5 -54.1 36.65 -56.0 35.1 -57.75 33.65 -59.15 32.35 -60.7 31.0 -62.2 29.65 -63.2 28.65 -62.95 28.05 -62.95 27.65 -60.5 22.25 -0.65 -71.05 38.1 -59.25 M27.55 -27.3 L17.65 -1.25 12.55 11.85 Q8.35 21.95 8.4 25.05 L8.5 26.0 Q8.7 26.65 9.35 26.95 L13.5 13.95 Q13.9 12.75 14.95 10.6 L16.4 7.5 18.7 0.8 28.7 -25.9 28.65 -27.3 27.55 -27.3" fill="#015291" fill-rule="evenodd" stroke="none"/>
    <path d="M27.55 -27.3 L28.65 -27.3 28.7 -25.9 18.7 0.8 16.4 7.5 14.95 10.6 Q13.9 12.75 13.5 13.95 L9.35 26.95 Q8.7 26.65 8.5 26.0 L8.4 25.05 Q8.35 21.95 12.55 11.85 L17.65 -1.25 27.55 -27.3" fill="#0099df" fill-rule="evenodd" stroke="none"/>
    <path d="M30.6 -31.55 Q33.15 -34.55 35.1 -37.8 40.75 -47.1 43.6 -57.5 L44.25 -59.45 44.15 -57.1 Q43.95 -45.75 37.4 -36.4 L30.7 -29.05 Q29.95 -28.3 28.95 -27.8 24.75 -26.25 20.15 -26.25 8.55 -26.15 -1.7 -31.05 -12.2 -36.05 -19.6 -44.65 L-16.9 -47.15 Q-16.25 -45.15 -14.75 -43.65 -6.05 -35.35 5.65 -31.7 17.05 -28.15 28.75 -30.7 L30.6 -31.55" fill="#020001" fill-rule="evenodd" stroke="none"/>
    <path d="M40.75 -59.05 L40.45 -59.25 41.05 -59.05 43.6 -57.5 Q40.75 -47.1 35.1 -37.8 33.15 -34.55 30.6 -31.55 L33.9 -42.6 34.2 -42.75 34.2 -43.5 34.5 -43.65 34.6 -44.4 34.85 -44.6 34.9 -45.3 35.15 -45.5 35.25 -46.25 35.55 -46.4 35.65 -47.15 35.9 -47.35 36.0 -48.05 36.25 -48.25 36.3 -48.95 36.6 -49.15 40.75 -59.05 M-16.9 -47.15 L-1.1 -71.85 38.85 -59.7 38.9 -59.7 34.5 -48.25 34.25 -48.05 34.15 -47.35 33.9 -47.15 33.85 -46.4 33.55 -46.25 33.2 -44.6 32.95 -44.4 32.85 -43.65 32.55 -43.5 32.55 -42.75 32.25 -42.6 28.75 -30.7 Q17.05 -28.15 5.65 -31.7 -6.05 -35.35 -14.75 -43.65 -16.25 -45.15 -16.9 -47.15" fill="#faa710" fill-rule="evenodd" stroke="none"/>
    <path d="M40.75 -59.05 L36.6 -49.15 36.3 -48.95 36.25 -48.25 36.0 -48.05 35.9 -47.35 35.65 -47.15 35.55 -46.4 35.25 -46.25 35.15 -45.5 34.9 -45.3 34.85 -44.6 34.6 -44.4 34.5 -43.65 34.2 -43.5 34.2 -42.75 33.9 -42.6 30.6 -31.55 28.75 -30.7 32.25 -42.6 32.55 -42.75 32.55 -43.5 32.85 -43.65 32.95 -44.4 33.2 -44.6 33.55 -46.25 33.85 -46.4 33.9 -47.15 34.15 -47.35 34.25 -48.05 34.5 -48.25 38.9 -59.7 38.85 -59.7 39.0 -60.05 40.75 -59.05" fill="#ffdc70" fill-rule="evenodd" stroke="none"/>
    <path d="M37.4 -36.4 L37.65 -36.5 38.55 -36.65 38.9 -35.85 30.0 -24.15 29.7 -23.95 29.35 -22.9 29.35 -22.45 29.05 -22.05 28.9 -20.95 Q28.55 -19.05 29.8 -17.75 30.85 -16.75 32.2 -16.4 L34.4 -16.15 37.85 -15.8 41.0 -15.7 44.05 -15.0 48.6 -22.25 49.1 -23.25 49.1 -23.7 49.4 -24.15 50.55 -29.8 51.8 -30.5 Q53.2 -29.7 53.25 -28.1 L53.05 -25.45 52.65 -23.95 51.45 -20.9 49.75 -17.55 48.7 -15.85 47.3 -13.8 45.75 -12.45 43.0 -12.05 38.55 -12.8 36.05 -13.15 33.8 -13.6 32.4 -13.9 Q30.4 -14.25 28.9 -15.3 27.4 -16.4 26.75 -17.9 L26.55 -22.3 28.95 -27.8 Q29.95 -28.3 30.7 -29.05 L37.4 -36.4 M35.9 -7.3 L36.05 -8.45 36.7 -9.8 38.0 -10.3 36.7 -3.8 36.7 -3.35 36.15 -2.6 Q35.75 -2.65 35.7 -3.05 L35.6 -4.15 Q35.55 -5.8 35.9 -7.3 M21.85 -3.6 Q22.05 -1.75 23.5 -0.45 24.4 0.45 25.65 0.85 L29.45 1.0 30.6 0.55 31.1 0.25 31.8 -0.4 32.7 -1.0 34.35 -1.85 Q35.55 -1.5 36.2 -0.45 36.95 0.8 38.2 1.1 39.45 1.1 40.15 0.5 L41.8 -2.05 42.05 -2.25 42.85 -3.7 44.35 -2.3 43.75 0.15 43.45 0.35 42.15 2.15 41.8 2.3 41.65 2.65 41.25 2.85 40.65 3.45 Q40.1 4.0 38.85 3.95 36.6 3.9 34.95 2.65 34.25 2.05 33.4 1.75 L33.2 1.9 Q31.9 2.2 30.9 2.65 L29.35 3.15 25.55 2.75 Q23.25 2.2 21.9 0.35 L20.4 -3.05 20.35 -5.55 Q21.2 -6.15 21.4 -5.4 L21.7 -4.3 21.85 -3.6 M28.5 23.8 L30.05 23.5 Q31.5 23.5 32.7 24.0 L35.5 24.2 36.0 23.75 36.2 23.15 36.5 22.95 37.5 21.1 37.8 20.9 39.45 19.4 39.15 22.0 38.9 22.25 37.65 25.25 37.5 25.4 Q37.4 25.4 37.4 25.55 L37.1 25.95 36.25 26.85 28.25 26.05 27.25 26.45 27.05 26.75 26.35 26.95 25.75 27.55 25.15 27.9 24.85 28.0 24.15 28.15 20.3 27.9 19.05 27.5 Q17.45 26.7 16.15 25.5 14.7 24.25 13.9 22.75 L14.15 22.25 14.85 21.85 15.7 22.45 17.05 23.8 18.1 24.75 Q19.45 25.4 20.85 25.65 L23.85 26.15 28.5 23.8 M39.3 4.05 L40.05 4.35 Q40.5 4.9 40.5 5.65 L40.35 7.55 Q40.15 9.2 39.6 10.65 L39.3 10.85 39.05 11.55 37.15 13.0 37.0 13.25 34.45 14.15 25.7 13.9 23.9 12.65 Q23.0 11.7 23.05 10.5 23.05 9.5 23.4 8.5 L24.4 5.85 25.6 5.9 24.8 9.95 Q24.9 10.65 25.55 11.15 L27.45 11.7 31.5 11.8 34.8 11.35 34.8 11.25 35.3 11.15 36.3 10.6 Q37.1 10.05 37.35 9.2 37.75 7.85 37.8 6.15 L38.4 4.9 39.3 4.05" fill="#003348" fill-rule="evenodd" stroke="none"/>
    <path d="M46.85 -54.1 L44.6 -33.9 48.75 -37.5 49.55 -40.5 49.55 -40.6 51.05 -51.6 51.25 -53.25 52.95 -53.15 50.25 -36.6 43.35 -31.4 42.45 -31.4 45.0 -54.25 46.85 -54.1 M-40.3 -13.05 L-38.9 -14.7 -39.2 -14.9 -36.0 -13.3 -33.0 -11.9 -29.25 -10.45 Q-26.9 -9.45 -24.4 -8.85 L-19.45 -7.3 -14.45 -6.05 -9.7 -5.0 -4.25 -3.8 1.45 -2.9 7.4 -2.1 10.7 -1.85 14.6 -1.75 18.1 -2.2 21.35 -3.1 23.15 -3.9 23.3 -4.15 34.2 -13.65 34.4 -14.2 35.3 -15.0 35.5 -15.55 35.8 -15.7 35.95 -16.25 36.25 -16.45 36.55 -17.0 37.25 -16.8 37.5 -15.4 37.25 -16.8 37.85 -16.65 37.5 -15.4 37.0 -14.35 36.45 -13.85 30.3 -7.35 30.25 -7.05 25.9 -3.05 25.3 -2.85 24.2 -2.1 21.05 -0.7 Q19.45 -0.1 17.65 0.2 L13.85 0.45 9.9 0.2 6.2 -0.3 6.1 -0.3 2.5 -0.8 2.05 -0.85 -1.3 -1.35 -5.25 -2.15 -9.1 -2.95 -9.45 -3.0 -12.85 -3.8 -16.8 -4.65 -20.75 -5.7 -22.85 -6.25 Q-24.8 -6.7 -26.65 -7.3 L-28.65 -7.85 -26.15 -7.3 -29.35 -8.1 -30.2 -8.4 -33.6 -9.75 -35.45 -10.55 -37.4 -11.45 -40.3 -13.05 M39.25 -11.45 L40.45 -10.5 39.65 -9.55 39.1 -8.4 37.95 -6.75 37.25 -5.7 35.2 -3.0 33.05 -0.55 30.85 1.95 28.5 4.4 25.95 6.9 23.3 9.05 22.2 9.75 19.3 11.65 16.2 13.0 12.75 13.85 9.1 13.9 5.2 13.75 1.3 13.35 -2.65 12.75 -6.6 11.95 -10.25 11.05 -13.8 10.1 -17.35 9.15 -18.25 9.0 -20.15 8.3 -23.65 7.25 -27.1 6.15 -30.35 4.95 -33.65 3.8 -37.0 2.6 -40.25 1.3 Q-41.9 0.75 -43.35 -0.15 -44.9 -1.05 -46.1 -2.4 L-46.45 -2.85 -45.25 -5.35 -45.65 -4.15 -43.75 -2.75 -40.75 -1.05 -39.9 -0.55 -36.65 0.9 -33.1 2.2 -29.3 3.5 -25.45 4.75 -21.65 5.9 -17.75 7.05 -15.5 7.7 -13.25 8.3 -9.45 9.2 -5.45 10.15 -1.65 10.95 2.2 11.7 6.1 12.0 10.05 11.9 13.6 11.2 14.05 11.15 14.55 11.1 15.6 10.8 Q17.25 10.5 18.7 9.7 L21.45 8.15 23.85 6.35 24.25 6.0 24.8 5.25 27.5 3.2 29.0 1.6 29.35 1.4 32.3 -1.75 32.5 -2.3 33.45 -3.2 33.75 -3.9 35.5 -6.25 35.8 -6.4 36.3 -7.65 38.1 -9.95 38.8 -10.5 39.25 -11.45 39.65 -9.55 39.25 -11.45 M63.4 -45.45 L65.4 -45.85 56.05 -25.45 52.4 -33.0 63.4 -45.45 M59.65 -39.3 L58.15 -38.15 57.5 -37.1 56.8 -36.5 55.5 -34.5 55.4 -34.15 54.85 -33.4 54.05 -32.45 56.35 -28.65 62.35 -42.6 59.65 -39.3 M48.65 -9.95 L48.3 -7.3 48.05 -5.2 47.95 -4.7 47.85 -2.75 47.8 -0.9 48.0 0.7 48.65 2.2 48.7 2.3 49.5 3.0 48.9 4.15 48.6 4.35 45.7 11.9 45.4 12.2 43.25 18.0 42.95 18.25 42.35 19.8 41.65 18.55 Q40.7 16.95 40.1 15.15 L39.25 11.7 38.85 8.3 38.75 5.0 39.1 1.7 39.1 1.55 39.25 -0.45 40.8 -9.6 41.3 -10.05 48.85 -11.85 48.65 -9.95 M41.85 9.15 L41.9 15.8 46.25 5.35 46.55 4.85 46.75 4.6 46.65 -9.7 45.4 -9.15 44.95 -9.15 41.65 -8.35 41.75 -3.45 41.8 6.5 41.8 10.0 41.85 9.15" fill="#000000" fill-rule="evenodd" stroke="none"/>
    <path d="M46.85 -54.1 L51.25 -53.25 51.05 -51.6 49.65 -43.7 49.4 -43.2 49.15 -41.85 49.0 -41.55 49.0 -40.7 49.55 -40.5 48.75 -37.5 44.6 -33.9 46.85 -54.1 M-40.3 -13.05 L-37.4 -11.45 -35.45 -10.55 -33.6 -9.75 -30.2 -8.4 -29.35 -8.1 -26.15 -7.3 -28.65 -7.85 -26.65 -7.3 Q-24.8 -6.7 -22.85 -6.25 L-20.75 -5.7 -16.8 -4.65 -12.85 -3.8 -9.45 -3.0 -9.1 -2.95 -5.25 -2.15 -1.3 -1.35 2.05 -0.85 2.5 -0.8 6.1 -0.3 6.2 -0.3 9.9 0.2 13.85 0.45 17.65 0.2 Q19.45 -0.1 21.05 -0.7 L24.2 -2.1 25.3 -2.85 24.1 -1.7 23.4 -1.5 23.2 -1.2 19.8 0.1 19.6 0.35 18.1 0.85 17.6 1.2 22.65 -0.3 23.2 -0.85 26.7 -2.9 33.75 -8.65 34.3 -9.75 34.1 -10.65 30.25 -7.05 30.3 -7.35 36.45 -13.85 37.0 -14.35 37.5 -15.4 39.25 -11.45 38.8 -10.5 38.1 -9.95 36.3 -7.65 Q36.5 -8.25 36.3 -8.05 L35.9 -7.7 35.45 -7.1 Q35.35 -6.8 34.9 -6.65 L32.75 -4.0 32.6 -3.45 32.3 -3.25 32.05 -2.7 29.35 0.0 28.95 0.1 26.45 2.4 26.3 2.7 23.3 5.1 22.5 5.6 22.3 5.9 21.5 6.2 20.6 7.0 20.2 7.1 18.95 8.1 Q20.3 8.5 21.05 7.8 21.35 7.55 21.75 7.4 L23.1 6.5 24.8 5.25 24.25 6.0 23.85 6.35 21.45 8.15 18.7 9.7 Q17.25 10.5 15.6 10.8 L14.55 11.1 14.05 11.15 14.3 10.75 14.3 10.3 14.6 9.8 15.95 1.25 15.15 1.8 Q14.8 2.6 14.6 3.5 L13.95 6.55 13.45 8.15 13.05 10.1 13.2 11.1 13.6 11.2 10.05 11.9 6.1 12.0 2.2 11.7 -1.65 10.95 -5.45 10.15 -9.45 9.2 -13.25 8.3 -15.5 7.7 -17.75 7.05 -21.65 5.9 -25.45 4.75 -29.3 3.5 -33.1 2.2 -36.65 0.9 -39.9 -0.55 -40.75 -1.05 -43.75 -2.75 -45.65 -4.15 -44.8 -5.6 -44.55 -5.75 -44.25 -6.6 -43.95 -6.75 -43.7 -7.6 -43.4 -7.8 -43.15 -8.6 -42.6 -9.5 -42.3 -9.7 -42.0 -10.5 -41.45 -11.45 -41.15 -11.6 -40.9 -12.45 -40.65 -12.6 -40.45 -13.15 -40.3 -13.05 M54.85 -33.4 Q55.0 -33.1 55.35 -33.3 L55.7 -33.6 56.95 -35.05 59.05 -37.35 59.65 -39.3 62.35 -42.6 56.35 -28.65 54.05 -32.45 54.85 -33.4 M46.7 -37.65 L47.25 -52.55 45.8 -37.35 46.7 -37.65 M46.05 -8.25 L45.45 -8.05 44.55 1.8 45.55 3.9 46.2 -7.85 Q46.3 -8.25 46.05 -8.25 M41.75 -3.45 L41.65 -8.35 44.95 -9.15 45.4 -9.15 46.65 -9.7 46.75 4.6 46.55 4.85 46.25 5.35 41.9 15.8 41.85 9.15 42.8 -7.0 41.75 -5.3 41.75 -3.45 M11.6 2.4 L13.1 2.4 13.15 1.65 10.15 1.0 -4.8 -0.55 -13.3 -2.75 Q-25.05 -6.0 -35.75 -10.05 L-35.75 -9.5 -20.45 -3.75 Q-10.95 -0.35 2.75 1.95 L5.75 2.2 6.25 2.1 6.35 2.0 11.6 2.4 M8.0 10.4 Q-21.35 6.0 -43.4 -4.35 -23.6 7.5 6.5 11.3 L8.5 10.85 8.0 10.4" fill="#003348" fill-rule="evenodd" stroke="none"/>
    <path d="M49.55 -40.5 L49.0 -40.7 49.0 -41.55 49.15 -41.85 49.4 -43.2 49.65 -43.7 51.05 -51.6 49.55 -40.6 49.55 -40.5 M25.3 -2.85 L25.9 -3.05 30.25 -7.05 34.1 -10.65 34.3 -9.75 33.75 -8.65 26.7 -2.9 23.2 -0.85 22.65 -0.3 17.6 1.2 18.1 0.85 19.6 0.35 19.8 0.1 23.2 -1.2 23.4 -1.5 24.1 -1.7 25.3 -2.85 M36.3 -7.65 L35.8 -6.4 35.5 -6.25 33.75 -3.9 33.45 -3.2 32.5 -2.3 32.3 -1.75 29.35 1.4 29.0 1.6 27.5 3.2 24.8 5.25 23.1 6.5 21.75 7.4 Q21.35 7.55 21.05 7.8 20.3 8.5 18.95 8.1 L20.2 7.1 20.6 7.0 21.5 6.2 22.3 5.9 22.5 5.6 23.3 5.1 26.3 2.7 26.45 2.4 28.95 0.1 29.35 0.0 32.05 -2.7 32.3 -3.25 32.6 -3.45 32.75 -4.0 34.9 -6.65 Q35.35 -6.8 35.45 -7.1 L35.9 -7.7 36.3 -8.05 Q36.5 -8.25 36.3 -7.65 M14.05 11.15 L13.6 11.2 13.2 11.1 13.05 10.1 13.45 8.15 13.95 6.55 14.6 3.5 Q14.8 2.6 15.15 1.8 L15.95 1.25 14.6 9.8 14.3 10.3 14.3 10.75 14.05 11.15 M54.85 -33.4 L55.4 -34.15 55.5 -34.5 56.8 -36.5 57.5 -37.1 58.15 -38.15 59.65 -39.3 59.05 -37.35 56.95 -35.05 55.7 -33.6 55.35 -33.3 Q55.0 -33.1 54.85 -33.4 M46.7 -37.65 L45.8 -37.35 47.25 -52.55 46.7 -37.65 M46.05 -8.25 Q46.3 -8.25 46.2 -7.85 L45.55 3.9 44.55 1.8 45.45 -8.05 46.05 -8.25 M41.85 9.15 L41.8 10.0 41.8 6.5 41.85 9.15 M11.6 2.4 L6.35 2.0 6.25 2.1 5.75 2.2 2.75 1.95 Q-10.95 -0.35 -20.45 -3.75 L-35.75 -9.5 -35.75 -10.05 Q-25.05 -6.0 -13.3 -2.75 L-4.8 -0.55 10.15 1.0 13.15 1.65 13.1 2.4 11.6 2.4 M8.0 10.4 L8.5 10.85 6.5 11.3 Q-23.6 7.5 -43.4 -4.35 -21.35 6.0 8.0 10.4" fill="#005391" fill-rule="evenodd" stroke="none"/>
    <path d="M37.5 -15.4 L37.25 -16.8 M37.5 -15.4 L39.25 -11.45 39.65 -9.55" fill="none" stroke="#0000ff" stroke-linecap="round" stroke-linejoin="round" stroke-width="1.0"/>
    <path d="M12.95 44.6 L14.35 44.7 12.65 51.4 Q11.95 53.95 11.25 54.5 10.6 55.0 9.8 55.05 L7.6 55.25 Q9.9 44.8 11.15 44.7 L12.95 44.6 M17.65 43.5 L15.1 53.7 13.7 53.6 16.4 43.45 17.65 43.5 M1.75 49.1 L1.65 50.9 0.15 58.35 -1.35 58.25 0.45 49.0 1.75 49.1 M8.6 46.45 L5.85 56.75 4.15 56.65 7.35 46.45 8.6 46.45 M34.25 37.05 L34.75 48.0 33.35 47.95 33.15 37.0 34.25 37.05 M37.65 35.4 L39.15 35.7 39.05 46.25 35.55 46.25 36.15 35.95 37.65 35.4 M26.15 44.1 L27.7 43.85 27.15 50.15 Q24.7 51.5 22.15 51.2 L22.8 44.5 25.4 44.8 26.15 44.1 M29.6 38.5 L30.5 38.55 30.15 49.65 28.7 49.15 29.6 38.5 M22.35 41.35 L21.1 52.55 19.7 52.5 21.1 41.35 22.35 41.35 M-35.25 36.5 L-34.95 37.45 -38.45 47.3 -40.3 47.0 -40.95 46.9 -42.7 46.05 -42.8 44.4 -42.5 42.8 -39.95 35.4 -35.25 36.5 M-32.7 38.7 L-35.9 49.1 -37.4 49.1 -34.2 38.7 -32.7 38.7 M-26.1 42.25 L-26.25 43.55 -29.05 52.3 -30.45 52.25 -27.5 42.15 -26.1 42.25 M-6.95 48.0 L-1.4 48.2 Q-1.1 50.4 -1.75 52.65 L-3.15 57.65 -9.35 57.8 Q-9.05 53.1 -7.25 48.65 L-6.95 48.0 M-9.7 47.4 L-11.4 57.45 -12.9 57.35 -11.45 47.4 -9.7 47.4 M-15.7 45.9 L-16.65 49.5 -17.9 53.9 -18.4 56.15 -20.05 56.15 -17.1 45.8 -15.7 45.9 M-18.7 45.9 L-22.5 54.15 -24.5 53.95 -27.0 53.25 -24.2 43.3 Q-22.0 43.95 -19.85 44.9 -19.35 45.05 -19.0 45.4 L-18.7 45.9 M-55.05 24.4 L-55.2 25.15 Q-56.8 29.2 -58.85 33.35 L-60.35 33.3 -60.4 32.75 -56.1 24.1 -55.05 24.3 -55.05 24.4 M-40.6 34.85 Q-40.6 36.15 -41.3 37.35 -43.65 41.3 -43.75 45.65 L-45.4 45.65 Q-44.4 39.95 -41.8 34.85 L-40.6 34.85 M-45.9 31.65 L-49.1 41.7 -50.1 41.6 Q-49.65 38.4 -48.7 35.5 L-47.4 31.65 -45.9 31.65 M-48.8 30.85 Q-48.75 32.15 -49.3 33.45 L-51.4 38.95 -52.9 38.95 -57.0 35.4 Q-57.3 34.9 -57.05 34.3 L-54.25 27.05 -52.5 27.05 Q-50.4 28.25 -49.1 30.05 -48.8 30.4 -48.8 30.85" fill="#003348" fill-rule="evenodd" stroke="none"/>
    <path d="M32.25 -13.6 L33.15 -13.8 38.8 -6.15 Q39.1 -5.85 39.0 -6.5 L40.45 -7.25 40.65 -7.45 49.3 -9.95 49.2 -3.55 47.3 -2.75 47.05 -2.5 44.55 -1.75 43.3 -1.15 42.85 -1.15 41.45 -0.8 40.9 -0.5 39.7 -0.45 38.2 -0.7 38.5 -3.75 37.7 -2.2 37.45 -1.9 37.15 -1.7 36.9 -1.1 36.5 -0.75 35.8 -0.45 28.85 -10.85 32.25 -13.6 M40.1 -5.4 L39.4 -1.95 41.25 -2.0 45.75 -3.4 46.0 -3.65 48.2 -4.7 48.35 -8.75 47.35 -8.35 46.85 -8.35 40.5 -6.25 40.1 -5.4 M36.7 -3.45 L37.55 -4.75 Q37.75 -5.2 37.55 -5.75 L37.0 -7.1 35.1 -9.9 33.05 -12.55 30.5 -10.3 36.05 -2.25 36.7 -3.45 M51.75 -41.5 Q52.4 -41.55 52.25 -41.0 L51.45 -36.5 46.1 -34.75 45.95 -34.5 41.55 -33.4 41.7 -37.95 42.25 -38.85 42.7 -39.05 46.95 -40.0 47.5 -40.3 50.45 -41.3 51.75 -41.5 M58.45 -31.0 L56.5 -36.55 54.65 -35.05 53.95 -34.05 56.2 -29.4 56.95 -29.45 58.45 -31.0 M50.8 -38.9 L50.9 -40.2 49.6 -39.55 49.15 -39.55 48.65 -39.3 48.05 -39.3 46.25 -38.6 43.55 -37.95 43.05 -37.65 42.75 -37.3 42.6 -36.85 42.65 -34.8 43.4 -35.0 43.65 -35.25 48.05 -37.0 48.25 -37.3 50.35 -38.45 50.8 -38.9 M57.85 -36.55 L58.35 -35.5 58.7 -34.5 59.3 -32.6 59.75 -30.6 Q59.8 -30.1 59.5 -29.95 L58.3 -28.85 57.75 -28.4 Q57.4 -28.05 56.9 -27.9 L56.3 -27.3 55.3 -27.5 55.6 -28.7 52.7 -34.25 55.45 -37.1 56.7 -37.9 57.85 -36.55 M44.0 22.65 L43.75 23.8 41.45 24.25 41.6 24.85 Q41.85 26.4 40.7 27.45 L42.7 27.5 42.35 28.55 Q40.45 29.1 39.05 30.25 L38.55 32.75 39.1 32.95 39.25 32.9 39.1 32.5 Q38.7 30.75 40.35 29.6 L40.35 31.15 Q40.35 32.1 39.35 32.85 L40.85 32.4 41.6 32.25 41.35 33.55 30.5 37.8 24.65 46.1 21.95 40.5 3.05 45.5 3.05 45.3 3.0 45.3 3.05 46.05 1.65 45.85 1.35 45.8 -4.9 44.8 -9.25 43.7 Q-15.5 41.75 -25.25 37.1 -40.7 29.75 -58.3 17.3 L-59.5 20.1 Q-50.25 27.35 -41.8 32.55 -34.05 37.3 -19.4 43.45 -14.3 45.45 -9.2 46.9 -4.1 48.15 -0.65 48.15 L2.2 48.15 1.9 48.3 2.4 48.15 3.35 48.15 Q3.95 48.1 2.85 48.05 L21.2 42.25 21.25 42.4 24.05 48.2 30.35 39.2 40.95 34.9 40.75 36.0 30.15 40.4 23.7 49.9 20.5 43.85 20.2 43.85 Q5.6 49.1 2.75 49.5 L2.6 50.15 -2.05 49.55 -9.2 48.6 Q-18.4 46.9 -26.1 43.25 -38.0 37.55 -46.55 32.4 -55.95 26.5 -62.2 20.5 L-58.65 14.55 -57.3 15.55 -57.3 15.15 -56.05 13.45 -54.1 10.85 -52.0 8.3 -51.9 7.4 -48.65 2.55 Q-41.5 6.85 -24.7 14.55 -16.05 18.45 -9.15 20.7 -4.5 22.15 -0.5 22.85 L7.55 24.2 7.6 23.95 8.65 24.2 8.7 24.0 22.05 21.45 22.1 21.2 26.45 13.15 Q26.4 12.8 26.65 13.0 L27.3 12.5 33.75 10.1 38.1 12.7 38.45 13.2 38.35 19.85 38.2 19.9 44.75 20.2 44.45 21.3 37.6 21.2 37.8 14.25 33.4 11.4 27.0 14.05 26.7 14.25 22.15 23.0 8.6 25.85 8.6 25.65 7.55 25.65 7.3 25.6 7.3 25.85 7.2 25.85 3.35 25.4 Q-0.2 24.95 -9.1 22.25 L-13.1 21.0 Q-27.25 16.35 -47.55 4.95 L-49.4 8.05 -39.0 12.95 Q-26.45 18.85 -14.65 23.3 L-9.05 25.2 Q-1.15 27.5 6.7 27.65 L6.95 27.65 6.95 27.5 7.05 27.5 7.05 27.6 8.35 27.6 9.15 27.6 22.2 24.45 26.65 16.1 Q26.55 15.9 26.75 15.9 L32.9 13.4 32.9 13.3 32.95 13.35 33.05 13.35 33.05 13.4 36.8 15.35 37.1 15.6 37.15 15.85 37.0 22.65 44.0 22.65 M33.85 18.4 L32.0 18.0 29.95 25.55 30.0 26.05 31.55 23.95 31.8 23.35 31.85 23.0 33.85 18.4 M28.1 24.45 L28.6 19.5 23.35 29.6 25.1 29.7 28.1 24.45 M29.3 18.65 L28.75 24.45 29.2 26.2 31.45 17.9 29.3 18.65 M41.95 29.5 L41.95 29.7 Q41.9 31.6 40.85 32.4 L40.45 31.8 Q40.35 29.6 41.95 29.5 M41.65 30.75 L41.45 29.75 Q40.65 30.65 40.8 31.85 L41.05 31.65 41.65 30.75 M41.3 24.8 L41.0 25.2 Q40.4 25.9 40.55 26.85 41.4 26.45 41.45 25.5 L41.3 24.8 M42.45 24.85 Q42.3 25.0 42.3 25.25 L42.05 26.45 Q43.35 25.15 42.45 24.85 M42.8 24.0 L43.15 24.45 Q43.2 26.1 42.0 27.05 L41.9 26.85 Q41.6 25.3 42.8 24.0 M32.4 15.95 L34.9 16.8 34.55 27.95 30.0 36.1 28.95 36.7 28.5 38.35 27.0 40.55 26.85 40.7 25.45 42.6 23.95 39.65 24.25 37.95 23.45 38.15 22.15 30.3 28.9 17.0 32.15 15.95 32.4 15.95 M33.95 19.05 L32.35 22.8 32.35 23.1 32.0 23.95 32.3 28.35 33.95 27.5 33.95 19.05 M39.15 23.95 L36.2 24.0 36.35 16.7 32.65 14.65 27.1 17.0 22.4 26.0 15.45 27.7 15.45 28.65 Q15.15 31.1 14.15 33.25 L13.55 34.55 11.95 35.2 13.55 35.3 Q13.5 37.5 12.7 39.45 L11.95 41.2 22.4 38.85 22.6 38.9 25.2 44.1 Q28.75 38.75 30.6 36.5 L37.7 33.8 38.1 32.1 Q38.35 30.7 38.85 29.9 L39.85 28.6 39.25 28.65 Q38.8 26.1 40.2 24.05 L39.15 23.95 M14.3 29.6 Q13.6 28.7 12.3 28.55 L9.8 29.2 8.35 29.55 8.0 29.6 7.2 29.75 7.25 29.6 6.6 29.5 6.6 29.6 6.15 29.55 Q-1.4 28.75 -9.15 26.75 -12.5 25.85 -15.65 24.75 -28.85 20.1 -42.8 13.45 L-51.0 9.15 -52.1 10.3 -53.0 11.25 -53.4 11.85 -41.8 18.8 Q-36.4 21.85 -30.65 24.4 L-20.25 29.2 -11.25 32.75 -9.15 33.35 -2.0 35.1 4.2 35.5 5.25 35.5 5.25 35.4 5.4 35.4 5.7 35.5 5.7 35.6 5.75 35.55 9.05 35.15 10.65 34.75 12.55 33.5 13.6 32.4 14.3 29.6 M12.6 29.9 L12.0 30.25 11.25 32.55 11.85 32.8 12.8 31.65 Q13.6 30.65 12.85 29.85 L12.6 29.9 M13.3 29.0 L13.6 29.35 Q13.85 30.55 13.25 31.7 12.6 32.95 11.25 33.65 L11.1 33.3 Q11.1 32.25 11.25 31.2 11.5 29.95 12.4 29.1 L13.3 29.0 M3.05 43.75 L5.6 43.3 8.6 42.7 Q10.15 42.5 11.1 41.4 11.8 39.85 11.9 38.25 L11.9 36.7 10.8 35.95 5.8 36.85 5.8 37.0 5.65 37.0 5.65 36.95 5.45 36.95 4.8 36.9 4.8 37.0 4.8 37.05 4.6 37.05 3.65 37.0 -3.25 36.0 -9.2 34.8 -12.55 33.8 Q-17.4 32.05 -22.25 30.0 L-32.1 25.35 -42.7 19.7 -54.3 13.05 -55.05 14.1 Q-55.8 14.85 -56.55 16.05 L-56.7 16.05 -56.65 16.1 Q-48.7 20.85 -40.55 26.3 -33.05 31.3 -21.65 36.65 -14.95 39.75 -9.15 41.65 L-3.65 43.2 1.45 44.2 3.75 43.85 3.05 43.8 3.05 43.75 M10.25 29.85 Q10.75 30.55 10.45 31.6 10.05 33.15 8.5 33.9 L7.8 34.05 7.6 33.1 7.75 32.05 Q8.15 30.3 9.8 29.55 L10.25 29.85 M9.8 30.35 L9.15 30.45 8.8 30.85 Q8.2 31.9 8.1 33.1 8.6 33.8 9.15 33.2 10.25 31.95 9.8 30.35 M7.2 38.55 L6.75 38.65 Q5.65 39.95 5.85 41.8 7.9 41.0 7.7 38.8 L7.2 38.55 M7.75 37.7 L8.2 38.1 Q8.35 39.8 7.45 41.3 6.85 42.25 5.7 42.7 L5.6 40.5 Q5.7 38.45 7.75 37.7 M8.5 40.1 Q8.6 38.45 9.75 37.25 L10.7 37.15 11.1 37.4 Q11.75 38.95 10.9 40.3 10.15 41.7 8.55 41.7 L8.5 40.1 M39.9 27.4 L40.65 27.45 40.4 26.8 Q40.25 25.4 41.25 24.35 39.9 25.2 39.9 27.4 M27.55 38.4 L27.8 38.15 27.55 38.05 26.75 37.25 25.05 39.15 25.9 40.7 27.55 38.4 M26.7 33.0 L26.1 33.65 25.2 37.7 26.8 35.95 27.0 34.7 26.7 33.0 M29.25 32.8 L29.2 32.3 27.75 34.5 27.35 35.9 28.35 36.7 29.25 32.8 M27.9 33.15 Q28.05 32.7 28.55 32.25 L27.55 32.45 27.7 33.7 27.9 33.15 M23.45 31.1 L24.3 36.15 24.8 36.1 25.6 33.3 24.7 31.2 23.45 31.1 M31.55 28.75 L31.25 25.65 29.05 28.45 28.05 26.15 25.75 29.85 26.3 31.2 26.45 30.0 Q26.65 29.55 27.05 29.6 L27.25 29.75 27.6 30.15 27.9 30.4 28.05 30.6 Q28.0 30.4 28.15 30.6 27.9 30.75 28.45 30.85 L29.1 30.2 Q29.65 29.5 30.4 28.95 L30.9 29.2 30.65 30.0 31.55 28.75 M33.2 28.95 L31.85 29.85 30.25 32.1 29.65 34.75 29.95 34.65 33.2 28.95 M40.15 30.35 L39.8 30.25 Q39.2 31.2 39.3 32.25 L39.35 32.25 40.1 31.2 40.3 30.8 40.25 30.55 40.15 30.35 M10.45 39.6 Q10.85 38.65 10.4 37.7 9.15 39.0 9.2 40.75 L10.2 40.15 10.45 39.6" fill="#000000" fill-rule="evenodd" stroke="none"/>
    <path d="M36.7 -3.45 L36.05 -2.25 30.5 -10.3 33.05 -12.55 35.1 -9.9 37.0 -7.1 37.55 -5.75 Q37.75 -5.2 37.55 -4.75 L36.7 -3.45 M40.1 -5.4 L40.5 -6.25 46.85 -8.35 47.35 -8.35 48.35 -8.75 48.2 -4.7 46.0 -3.65 45.75 -3.4 41.25 -2.0 39.4 -1.95 40.1 -5.4 M50.8 -38.9 L50.35 -38.45 48.25 -37.3 48.05 -37.0 43.65 -35.25 43.4 -35.0 42.65 -34.8 42.6 -36.85 42.75 -37.3 43.05 -37.65 43.55 -37.95 46.25 -38.6 48.05 -39.3 48.65 -39.3 49.15 -39.55 49.6 -39.55 50.9 -40.2 50.8 -38.9 M58.45 -31.0 L56.95 -29.45 56.2 -29.4 53.95 -34.05 54.65 -35.05 56.5 -36.55 58.45 -31.0 M32.4 15.95 L32.15 15.95 28.9 17.0 22.15 30.3 23.45 38.15 24.25 37.95 23.95 39.65 25.45 42.6 26.85 40.7 27.0 40.55 28.5 38.35 28.95 36.7 30.0 36.1 34.55 27.95 34.9 16.8 32.4 15.95 M39.15 23.95 L40.2 24.05 Q38.8 26.1 39.25 28.65 L39.85 28.6 38.85 29.9 Q38.35 30.7 38.1 32.1 L37.7 33.8 30.6 36.5 Q28.75 38.75 25.2 44.1 L22.6 38.9 22.4 38.85 11.95 41.2 12.7 39.45 Q13.5 37.5 13.55 35.3 L11.95 35.2 13.55 34.55 14.15 33.25 Q15.15 31.1 15.45 28.65 L15.45 27.7 22.4 26.0 27.1 17.0 32.65 14.65 36.35 16.7 36.2 24.0 39.15 23.95" fill="#003348" fill-rule="evenodd" stroke="none"/>
    <path d="M44.45 21.3 L44.0 22.65 37.0 22.65 37.15 15.85 37.1 15.6 36.8 15.35 33.05 13.4 33.05 13.35 32.95 13.35 32.9 13.3 32.9 13.4 26.75 15.9 Q26.55 15.9 26.65 16.1 L22.2 24.45 9.15 27.6 8.35 27.6 8.45 27.2 8.6 26.6 8.6 25.85 22.15 23.0 26.7 14.25 27.0 14.05 33.4 11.4 37.8 14.25 37.6 21.2 44.45 21.3 M43.75 23.8 L42.7 27.5 40.7 27.45 Q41.85 26.4 41.6 24.85 L41.45 24.25 43.75 23.8 M42.35 28.55 L41.6 32.25 40.85 32.4 39.35 32.85 Q40.35 32.1 40.35 31.15 L40.35 29.6 Q38.7 30.75 39.1 32.5 L39.25 32.9 39.1 32.95 38.55 32.75 39.05 30.25 Q40.45 29.1 42.35 28.55 M41.35 33.55 L40.95 34.9 30.35 39.2 24.05 48.2 21.25 42.4 21.2 42.25 2.85 48.05 Q3.95 48.1 3.35 48.15 L2.4 48.15 1.9 48.3 2.2 48.15 -0.65 48.15 Q-4.1 48.15 -9.2 46.9 -14.3 45.45 -19.4 43.45 -34.05 37.3 -41.8 32.55 -50.25 27.35 -59.5 20.1 L-58.3 17.3 Q-40.7 29.75 -25.25 37.1 -15.5 41.75 -9.25 43.7 L-4.9 44.8 1.35 45.8 1.65 45.85 3.05 46.05 3.05 46.15 Q3.05 46.0 3.8 45.4 L3.05 45.5 21.95 40.5 24.65 46.1 30.5 37.8 41.35 33.55 M42.8 24.0 Q41.6 25.3 41.9 26.85 L42.0 27.05 Q43.2 26.1 43.15 24.45 L42.8 24.0 M42.45 24.85 Q43.35 25.15 42.05 26.45 L42.3 25.25 Q42.3 25.0 42.45 24.85 M41.3 24.8 L41.45 25.5 Q41.4 26.45 40.55 26.85 40.4 25.9 41.0 25.2 L41.3 24.8 M41.65 30.75 L41.05 31.65 40.8 31.85 Q40.65 30.65 41.45 29.75 L41.65 30.75 M41.95 29.5 Q40.35 29.6 40.45 31.8 L40.85 32.4 Q41.9 31.6 41.95 29.7 L41.95 29.5 M29.3 18.65 L31.45 17.9 29.2 26.2 28.75 24.45 29.3 18.65 M28.1 24.45 L25.1 29.7 23.35 29.6 28.6 19.5 28.1 24.45 M33.85 18.4 L31.85 23.0 31.8 23.35 31.55 23.95 30.0 26.05 29.95 25.55 32.0 18.0 33.85 18.4 M33.95 19.05 L33.95 27.5 32.3 28.35 32.0 23.95 32.35 23.1 32.35 22.8 33.95 19.05 M13.3 29.0 L12.4 29.1 Q11.5 29.95 11.25 31.2 11.1 32.25 11.1 33.3 L11.25 33.65 Q12.6 32.95 13.25 31.7 13.85 30.55 13.6 29.35 L13.3 29.0 M12.6 29.9 L12.85 29.85 Q13.6 30.65 12.8 31.65 L11.85 32.8 11.25 32.55 12.0 30.25 12.6 29.9 M14.3 29.6 L13.6 32.4 12.55 33.5 10.65 34.75 9.05 35.15 5.75 35.55 5.7 35.6 5.7 35.5 5.4 35.4 5.25 35.4 5.25 35.5 4.2 35.5 -2.0 35.1 -9.15 33.35 -11.25 32.75 -20.25 29.2 -30.65 24.4 Q-36.4 21.85 -41.8 18.8 L-53.4 11.85 -53.0 11.25 -52.1 10.3 -51.0 9.15 -42.8 13.45 Q-28.85 20.1 -15.65 24.75 -12.5 25.85 -9.15 26.75 -1.4 28.75 6.15 29.55 L6.6 29.6 6.6 29.5 7.25 29.6 7.2 29.75 8.0 29.6 8.35 29.55 9.8 29.2 12.3 28.55 Q13.6 28.7 14.3 29.6 M5.65 37.0 L5.8 37.0 5.8 36.85 10.8 35.95 11.9 36.7 11.9 38.25 Q11.8 39.85 11.1 41.4 10.15 42.5 8.6 42.7 L5.6 43.3 3.05 43.75 3.85 43.55 4.9 40.65 5.7 37.5 5.65 37.0 M4.8 37.05 L3.1 43.65 3.05 43.75 3.05 43.8 3.75 43.85 1.45 44.2 -3.65 43.2 -9.15 41.65 Q-14.95 39.75 -21.65 36.65 -33.05 31.3 -40.55 26.3 -48.7 20.85 -56.65 16.1 L-56.7 16.05 -56.55 16.05 Q-55.8 14.85 -55.05 14.1 L-54.3 13.05 -42.7 19.7 -32.1 25.35 -22.25 30.0 Q-17.4 32.05 -12.55 33.8 L-9.2 34.8 -3.25 36.0 3.65 37.0 4.6 37.05 4.8 37.05 M10.25 29.85 L9.8 29.55 Q8.15 30.3 7.75 32.05 L7.6 33.1 7.8 34.05 8.5 33.9 Q10.05 33.15 10.45 31.6 10.75 30.55 10.25 29.85 M7.55 25.65 L7.4 25.65 7.0 26.9 7.05 27.5 6.95 27.5 6.95 27.65 6.7 27.65 Q-1.15 27.5 -9.05 25.2 L-14.65 23.3 Q-26.45 18.85 -39.0 12.95 L-49.4 8.05 -47.55 4.95 Q-27.25 16.35 -13.1 21.0 L-9.1 22.25 Q-0.2 24.95 3.35 25.4 L7.2 25.85 7.3 25.85 7.3 25.6 7.55 25.65 M5.4 35.4 L6.4 35.4 7.1 32.85 Q7.25 31.15 7.7 30.45 L7.65 29.8 6.55 29.75 5.35 35.05 5.4 35.4 M9.8 30.35 Q10.25 31.95 9.15 33.2 8.6 33.8 8.1 33.1 8.2 31.9 8.8 30.85 L9.15 30.45 9.8 30.35 M4.8 37.0 L4.8 36.9 5.45 36.95 4.8 37.0 M8.5 40.1 L8.55 41.7 Q10.15 41.7 10.9 40.3 11.75 38.95 11.1 37.4 L10.7 37.15 9.75 37.25 Q8.6 38.45 8.5 40.1 M7.75 37.7 Q5.7 38.45 5.6 40.5 L5.7 42.7 Q6.85 42.25 7.45 41.3 8.35 39.8 8.2 38.1 L7.75 37.7 M7.2 38.55 L7.7 38.8 Q7.9 41.0 5.85 41.8 5.65 39.95 6.75 38.65 L7.2 38.55 M10.45 39.6 L10.2 40.15 9.2 40.75 Q9.15 39.0 10.4 37.7 10.85 38.65 10.45 39.6 M40.15 30.35 L40.25 30.55 40.3 30.8 40.1 31.2 39.35 32.25 39.3 32.25 Q39.2 31.2 39.8 30.25 L40.15 30.35 M33.2 28.95 L29.95 34.65 29.65 34.75 30.25 32.1 31.85 29.85 33.2 28.95 M31.55 28.75 L30.65 30.0 30.9 29.2 30.4 28.95 Q29.65 29.5 29.1 30.2 L28.45 30.85 Q27.9 30.75 28.15 30.6 28.0 30.4 28.05 30.6 L27.9 30.4 27.6 30.15 27.25 29.75 27.05 29.6 Q26.65 29.55 26.45 30.0 L26.3 31.2 25.75 29.85 28.05 26.15 29.05 28.45 31.25 25.65 31.55 28.75 M23.45 31.1 L24.7 31.2 25.6 33.3 24.8 36.1 24.3 36.15 23.45 31.1 M27.9 33.15 L27.7 33.7 27.55 32.45 28.55 32.25 Q28.05 32.7 27.9 33.15 M29.25 32.8 L28.35 36.7 27.35 35.9 27.75 34.5 29.2 32.3 29.25 32.8 M26.7 33.0 L27.0 34.7 26.8 35.95 25.2 37.7 26.1 33.65 26.7 33.0 M27.55 38.4 L25.9 40.7 25.05 39.15 26.75 37.25 27.55 38.05 27.8 38.15 27.55 38.4 M39.9 27.4 Q39.9 25.2 41.25 24.35 40.25 25.4 40.4 26.8 L40.65 27.45 39.9 27.4" fill="#edaa51" fill-rule="evenodd" stroke="none"/>
    <path d="M8.6 25.85 L8.6 26.6 8.45 27.2 8.35 27.6 7.05 27.6 7.05 27.5 7.0 26.9 7.4 25.65 7.55 25.65 8.6 25.65 8.6 25.85 M5.65 37.0 L5.7 37.5 4.9 40.65 3.85 43.55 3.05 43.75 3.1 43.65 4.8 37.05 4.8 37.0 5.45 36.95 5.65 36.95 5.65 37.0 M5.4 35.4 L5.35 35.05 6.55 29.75 7.65 29.8 7.7 30.45 Q7.25 31.15 7.1 32.85 L6.4 35.4 5.4 35.4 M3.05 46.05 L3.0 45.3 3.05 45.3 3.05 45.5 3.8 45.4 Q3.05 46.0 3.05 46.15 L3.05 46.05" fill="#fde871" fill-rule="evenodd" stroke="none"/>
    <path d="M29.6 -4.45 Q29.45 -4.9 29.6 -5.45 L30.1 -6.2 Q30.4 -6.5 30.75 -6.45 L31.2 -5.95 31.2 -5.05 30.7 -4.2 30.05 -4.0 Q29.7 -4.05 29.6 -4.45" fill="#faa710" fill-rule="evenodd" stroke="none"/>
    <path d="M28.75 -5.6 Q29.0 -6.55 29.65 -7.1 30.3 -7.7 30.9 -7.5 31.5 -7.35 31.75 -6.55 32.0 -5.8 31.75 -4.85 31.5 -3.85 30.85 -3.3 30.2 -2.75 29.6 -2.9 29.0 -3.1 28.75 -3.85 28.5 -4.6 28.75 -5.6 M29.6 -4.45 Q29.7 -4.05 30.05 -4.0 L30.7 -4.2 31.2 -5.05 31.2 -5.95 30.75 -6.45 Q30.4 -6.5 30.1 -6.2 L29.6 -5.45 Q29.45 -4.9 29.6 -4.45" fill="#000000" fill-rule="evenodd" stroke="none"/>
    <path d="M30.35 -0.1 Q30.2 -0.5 30.35 -1.05 L30.85 -1.85 Q31.15 -2.15 31.5 -2.05 31.8 -2.0 31.95 -1.55 L31.95 -0.65 31.45 0.2 30.8 0.4 30.35 -0.1" fill="#faa710" fill-rule="evenodd" stroke="none"/>
    <path d="M30.35 -0.1 L30.8 0.4 31.45 0.2 31.95 -0.65 31.95 -1.55 Q31.8 -2.0 31.5 -2.05 31.15 -2.15 30.85 -1.85 L30.35 -1.05 Q30.2 -0.5 30.35 -0.1 M31.6 -3.1 Q32.2 -2.95 32.5 -2.2 32.75 -1.4 32.5 -0.45 32.2 0.55 31.6 1.05 30.95 1.6 30.35 1.45 29.7 1.3 29.5 0.55 29.2 -0.25 29.5 -1.25 29.75 -2.2 30.4 -2.7 30.95 -3.25 31.6 -3.1" fill="#000000" fill-rule="evenodd" stroke="none"/>
    <path d="M43.1 0.7 Q43.5 0.85 43.55 1.1 L43.4 1.7 Q43.1 2.05 42.5 2.2 L41.45 2.25 40.9 1.85 Q40.85 1.55 41.15 1.2 41.45 0.85 42.05 0.75 L43.1 0.7" fill="#faa710" fill-rule="evenodd" stroke="none"/>
    <path d="M43.8 0.2 Q44.65 0.4 44.85 0.95 45.0 1.5 44.5 2.05 43.9 2.7 42.8 2.95 L40.95 3.0 Q40.05 2.8 39.9 2.25 39.7 1.7 40.25 1.1 40.85 0.5 41.85 0.25 L43.8 0.2 M43.1 0.7 L42.05 0.75 Q41.45 0.85 41.15 1.2 40.85 1.55 40.9 1.85 L41.45 2.25 42.5 2.2 Q43.1 2.05 43.4 1.7 L43.55 1.1 Q43.5 0.85 43.1 0.7" fill="#000000" fill-rule="evenodd" stroke="none"/>
    <path d="M44.6 -0.95 Q44.5 -1.25 44.8 -1.6 L45.7 -2.0 46.7 -2.05 Q47.2 -2.0 47.35 -1.65 47.4 -1.35 47.05 -1.05 L46.2 -0.55 45.15 -0.6 Q44.75 -0.65 44.6 -0.95" fill="#faa710" fill-rule="evenodd" stroke="none"/>
    <path d="M44.6 -0.95 Q44.75 -0.65 45.15 -0.6 L46.2 -0.55 47.05 -1.05 Q47.4 -1.35 47.35 -1.65 47.2 -2.0 46.7 -2.05 L45.7 -2.0 44.8 -1.6 Q44.5 -1.25 44.6 -0.95 M43.6 -0.5 Q43.4 -1.1 43.95 -1.65 44.55 -2.25 45.6 -2.55 L47.45 -2.6 Q48.35 -2.4 48.55 -1.8 48.75 -1.3 48.1 -0.65 47.55 -0.15 46.5 0.1 L44.6 0.25 Q43.75 0.0 43.6 -0.5" fill="#000000" fill-rule="evenodd" stroke="none"/>
    <path d="M2.0 30.2 Q2.65 30.75 2.65 31.55 2.7 32.35 2.1 32.9 1.5 33.45 0.65 33.45 -0.2 33.45 -0.8 32.9 -1.4 32.35 -1.45 31.55 -1.45 30.75 -0.9 30.2 -0.3 29.65 0.55 29.65 1.4 29.65 2.0 30.2 M1.2 31.0 L0.5 30.75 Q0.1 30.75 -0.15 31.0 L-0.45 31.6 -0.1 32.2 0.55 32.45 1.25 32.2 1.5 31.6 1.2 31.0" fill="#000000" fill-rule="evenodd" stroke="none"/>
    <path d="M-0.6 39.75 Q-0.55 40.55 -1.15 41.1 -1.75 41.65 -2.6 41.65 -3.45 41.65 -4.05 41.1 -4.65 40.55 -4.7 39.75 -4.7 38.95 -4.1 38.4 -3.55 37.85 -2.7 37.85 -1.85 37.85 -1.2 38.4 -0.6 38.95 -0.6 39.75 M-2.05 39.2 Q-2.35 38.95 -2.75 38.95 -3.15 38.95 -3.4 39.2 L-3.7 39.8 -3.35 40.4 Q-3.1 40.7 -2.7 40.7 L-2.0 40.4 Q-1.7 40.2 -1.75 39.8 -1.75 39.45 -2.05 39.2" fill="#000000" fill-rule="evenodd" stroke="none"/>
    <path d="M-10.5 27.65 Q-9.9 28.2 -9.9 29.0 -9.85 29.8 -10.45 30.35 -11.05 30.9 -11.9 30.9 -12.75 30.9 -13.35 30.35 -13.95 29.8 -14.0 29.0 -14.0 28.2 -13.4 27.65 -12.85 27.1 -12.0 27.1 -11.15 27.1 -10.5 27.65 M-13.0 29.05 L-12.65 29.65 -12.0 29.95 -11.3 29.65 Q-11.0 29.45 -11.05 29.05 -11.05 28.7 -11.35 28.45 L-12.05 28.2 -12.7 28.45 -13.0 29.05" fill="#000000" fill-rule="evenodd" stroke="none"/>
    <path d="M-15.25 37.0 L-14.6 37.25 -13.9 37.0 Q-13.6 36.75 -13.6 36.4 -13.6 36.05 -13.95 35.75 L-14.65 35.55 -15.3 35.75 -15.55 36.4 -15.25 37.0 M-16.0 35.0 Q-15.4 34.45 -14.55 34.45 -13.7 34.45 -13.1 35.0 -12.5 35.55 -12.45 36.35 -12.45 37.15 -13.0 37.7 -13.6 38.25 -14.45 38.25 -15.3 38.25 -15.9 37.7 -16.55 37.15 -16.55 36.35 -16.6 35.55 -16.0 35.0" fill="#000000" fill-rule="evenodd" stroke="none"/>
    <path d="M-21.25 24.0 Q-20.75 24.5 -20.85 25.25 -20.9 25.95 -21.5 26.35 L-22.85 26.7 Q-23.6 26.6 -24.05 26.05 -24.55 25.55 -24.5 24.85 -24.4 24.1 -23.8 23.7 -23.25 23.25 -22.5 23.35 -21.75 23.4 -21.25 24.0 M-23.3 24.4 L-23.6 25.0 -23.4 25.5 -22.8 25.85 -22.2 25.65 Q-21.9 25.5 -21.9 25.2 -21.85 24.85 -22.1 24.55 -22.3 24.3 -22.65 24.3 L-23.3 24.4" fill="#000000" fill-rule="evenodd" stroke="none"/>
    <path d="M-25.7 30.05 Q-24.95 30.15 -24.5 30.7 -24.0 31.2 -24.05 31.95 -24.15 32.65 -24.75 33.05 -25.3 33.5 -26.05 33.4 -26.85 33.35 -27.3 32.75 -27.8 32.25 -27.7 31.55 -27.65 30.8 -27.05 30.4 -26.5 30.0 -25.7 30.05 M-26.85 31.7 L-26.65 32.25 Q-26.4 32.5 -26.05 32.55 -25.7 32.6 -25.45 32.35 L-25.1 31.9 Q-25.05 31.55 -25.3 31.25 -25.55 31.05 -25.9 31.0 L-26.5 31.15 -26.85 31.7" fill="#000000" fill-rule="evenodd" stroke="none"/>
    <path d="M-32.85 21.5 Q-33.45 21.95 -34.2 21.8 L-35.4 21.05 Q-35.85 20.45 -35.7 19.8 -35.55 19.05 -34.95 18.75 -34.35 18.3 -33.6 18.4 -32.85 18.55 -32.35 19.15 -32.0 19.7 -32.1 20.4 -32.25 21.05 -32.85 21.5 M-33.25 19.7 Q-33.55 19.4 -33.9 19.35 L-34.45 19.45 -34.85 19.95 Q-34.95 20.3 -34.65 20.55 L-34.15 20.9 -33.45 20.8 -33.1 20.3 Q-33.05 19.95 -33.25 19.7" fill="#000000" fill-rule="evenodd" stroke="none"/>
    <path d="M-38.15 24.65 L-38.5 25.2 -38.35 25.7 -37.8 26.1 -37.15 25.9 -36.8 25.45 -36.95 24.85 -37.55 24.55 -38.15 24.65 M-37.3 23.6 Q-36.55 23.75 -36.1 24.35 -35.65 24.9 -35.75 25.55 -35.9 26.25 -36.55 26.7 L-37.9 26.9 Q-38.65 26.8 -39.05 26.25 -39.55 25.65 -39.4 24.95 -39.25 24.2 -38.65 23.9 -38.05 23.45 -37.3 23.6" fill="#000000" fill-rule="evenodd" stroke="none"/>
    <path d="M-44.15 14.4 Q-44.45 14.1 -44.8 14.1 L-45.35 14.2 -45.75 14.65 -45.55 15.3 -45.05 15.65 -44.35 15.5 -44.0 15.05 -44.15 14.4 M-43.25 13.9 Q-42.9 14.4 -43.0 15.15 -43.15 15.8 -43.7 16.2 -44.35 16.65 -45.05 16.5 -45.8 16.35 -46.3 15.8 -46.75 15.15 -46.6 14.5 -46.45 13.75 -45.85 13.45 -45.2 13.05 -44.45 13.15 -43.7 13.3 -43.25 13.9" fill="#000000" fill-rule="evenodd" stroke="none"/>
    <path d="M-47.2 17.65 Q-46.5 17.8 -46.0 18.35 -45.55 18.9 -45.65 19.65 -45.8 20.35 -46.45 20.75 L-47.8 20.95 Q-48.55 20.85 -49.0 20.3 -49.45 19.7 -49.35 19.0 -49.2 18.3 -48.55 17.95 -47.95 17.5 -47.2 17.65 M-46.75 19.5 L-46.85 18.9 -47.45 18.6 -48.05 18.7 -48.45 19.25 -48.25 19.75 -47.7 20.15 Q-47.35 20.15 -47.05 19.95 L-46.75 19.5" fill="#000000" fill-rule="evenodd" stroke="none"/>
    <path d="M59.85 -49.95 L65.65 -45.8 63.95 -43.15 Q45.85 -0.85 41.85 49.1 34.0 52.1 23.05 54.9 12.05 57.65 -0.4 61.95 -6.85 61.55 -24.3 57.0 -26.15 56.9 -35.3 52.65 -44.5 48.35 -51.15 43.9 L-61.3 37.0 Q-64.8 34.55 -69.05 30.25 -38.95 -24.55 -3.4 -75.1 0.65 -74.65 18.85 -69.2 L42.45 -62.0 45.4 -59.75 Q48.55 -57.4 50.25 -56.4 L53.55 -54.3 56.65 -52.1 59.85 -49.95 M35.05 -49.8 L38.1 -59.25 -0.65 -71.05 -62.95 28.0 -62.95 28.05 -63.2 28.65 -62.2 29.65 -60.7 31.0 -59.15 32.35 -57.75 33.65 -56.0 35.1 -54.1 36.65 -53.0 37.5 -51.15 38.95 -49.45 40.15 Q-48.95 40.4 -48.5 40.7 L-46.75 41.95 -45.0 43.05 -43.15 44.0 -41.1 45.15 -39.3 46.15 -37.25 47.35 -36.0 47.9 -33.8 48.85 -31.65 49.85 -29.45 50.75 -27.3 51.6 -25.0 52.35 -22.45 53.3 -20.95 53.75 -20.05 53.95 -18.3 54.45 -15.45 55.2 -12.8 55.7 -11.25 56.05 -9.7 56.35 -8.0 56.65 -6.25 56.7 -5.15 56.7 -4.35 56.6 -3.45 56.65 -2.5 56.65 -1.5 56.65 -0.4 56.6 -0.2 56.8 8.7 30.15 1.8 56.3 38.35 45.45 Q38.8 39.1 40.0 26.35 41.2 13.5 48.35 -9.95 55.45 -33.4 57.85 -38.5 L59.8 -42.65 59.85 -42.95 60.1 -43.3 60.1 -43.25 60.3 -43.75 60.2 -43.85 39.75 -58.15 35.05 -49.8" fill="#000000" fill-rule="evenodd" stroke="none"/>
    <path d="M28.15 -28.1 L28.6 -29.6 35.55 -26.9 36.95 -30.3 36.95 -30.85 37.7 -32.05 37.7 -32.5 38.35 -34.2 52.15 -41.6 56.3 -25.35 55.1 -22.9 55.1 -22.45 53.8 -19.7 58.15 -17.8 57.45 -16.6 51.75 -15.05 51.0 -13.05 51.75 -7.3 51.05 -6.55 48.4 -9.6 44.75 -7.9 44.5 -7.6 42.8 -6.95 42.65 -6.65 41.9 -6.45 41.65 -6.15 40.2 -5.7 36.4 -0.3 35.5 -0.85 35.9 -2.75 36.1 -5.25 36.1 -5.35 36.2 -5.75 36.2 -6.7 35.95 -7.85 34.55 -10.8 33.15 -13.6 32.55 -14.45 31.9 -14.2 31.25 -14.2 30.65 -13.95 29.9 -13.95 29.25 -13.6 26.3 -13.25 26.05 -14.55 32.7 -19.65 33.4 -21.4 28.15 -28.1 M53.4 -30.65 L51.6 -38.3 50.15 -36.25 50.55 -38.7 49.8 -38.35 49.6 -38.1 48.8 -37.85 48.6 -37.6 47.0 -37.0 46.8 -36.65 Q44.6 -35.55 42.4 -34.5 L42.15 -34.2 41.3 -33.95 41.05 -33.65 39.85 -33.0 40.1 -30.55 38.7 -31.75 36.25 -25.15 36.95 -24.35 35.75 -24.0 35.05 -22.25 35.05 -21.8 34.3 -19.65 34.0 -19.35 33.7 -18.55 35.45 -18.7 33.45 -17.0 35.5 -13.3 37.15 -14.4 35.95 -12.3 38.0 -6.95 39.6 -9.6 39.1 -6.85 40.95 -7.75 41.15 -8.1 42.15 -8.35 43.4 -9.3 44.4 -9.65 44.95 -11.85 45.1 -10.45 45.2 -10.05 46.4 -10.8 48.4 -11.6 48.8 -11.8 49.0 -12.25 48.95 -12.35 49.0 -14.2 49.75 -12.65 50.85 -15.35 51.6 -17.15 51.05 -18.45 52.2 -18.7 52.55 -19.35 51.65 -20.75 53.15 -21.0 53.7 -22.6 54.05 -22.9 54.45 -24.4 53.2 -24.7 54.45 -25.65 54.5 -25.8 53.4 -30.65 M34.95 -25.7 L29.35 -28.3 33.9 -22.75 34.15 -23.35 34.4 -23.8 34.95 -25.7 M40.2 -23.85 L41.8 -26.8 44.9 -29.6 45.1 -29.95 47.05 -30.45 48.6 -29.95 49.85 -28.6 Q50.25 -27.65 50.25 -26.45 L50.25 -24.2 49.9 -22.2 49.3 -20.5 48.65 -19.15 46.95 -16.55 45.05 -14.65 44.5 -14.35 42.25 -14.05 Q40.75 -14.35 40.2 -15.55 39.3 -17.2 39.35 -19.3 L39.55 -21.4 39.75 -22.2 40.2 -23.85 M51.35 -26.2 L49.05 -33.0 47.15 -32.35 46.9 -32.05 44.45 -31.1 43.35 -30.5 43.15 -30.25 42.25 -29.95 42.05 -29.6 40.8 -29.0 39.25 -24.85 38.5 -23.3 38.45 -22.8 38.1 -22.35 38.1 -21.9 37.55 -20.5 37.3 -20.3 37.3 -19.85 37.0 -19.35 40.8 -12.0 44.5 -13.3 44.8 -13.55 45.7 -13.8 45.95 -14.1 48.5 -15.35 51.55 -23.1 51.85 -23.35 51.75 -24.0 51.75 -24.85 51.35 -26.2 M32.0 -15.65 L31.4 -16.4 32.0 -17.8 27.15 -14.45 32.0 -15.65 M37.0 -5.05 L36.25 -1.25 38.85 -4.7 37.45 -3.95 37.0 -5.05 M39.95 -10.25 L35.8 -18.75 40.4 -30.15 42.8 -31.15 43.85 -31.75 44.05 -32.05 45.05 -32.35 45.35 -32.65 49.6 -34.85 52.95 -24.25 51.65 -20.9 51.35 -20.6 48.75 -14.25 45.95 -13.0 45.7 -12.75 39.95 -10.25 M49.0 -24.55 L49.0 -25.65 Q49.0 -26.8 48.35 -27.55 47.7 -28.5 46.6 -28.7 L44.45 -28.05 43.95 -27.75 43.15 -26.9 41.65 -24.75 40.65 -22.2 40.45 -20.5 Q40.2 -18.7 41.0 -17.0 41.35 -16.25 42.15 -15.8 L43.5 -15.7 Q44.3 -15.8 44.95 -16.3 L46.95 -18.15 48.0 -19.8 48.95 -22.6 49.0 -24.15 49.0 -24.5 49.0 -24.55 M52.2 -15.95 L57.15 -17.35 53.3 -18.3 52.2 -15.95 M49.95 -10.35 L49.85 -10.1 Q47.8 -9.8 51.1 -7.65 L50.5 -11.6 49.95 -10.35" fill="#000000" fill-rule="evenodd" stroke="none"/>
    <path d="M46.4 -10.8 L45.2 -10.05 45.1 -10.45 44.95 -11.85 44.4 -9.65 43.4 -9.3 42.15 -8.35 41.15 -8.1 40.95 -7.75 39.1 -6.85 39.6 -9.6 38.0 -6.95 35.95 -12.3 37.15 -14.4 35.5 -13.3 33.45 -17.0 35.45 -18.7 33.7 -18.55 34.0 -19.35 34.3 -19.65 35.05 -21.8 35.05 -22.25 35.75 -24.0 36.95 -24.35 36.25 -25.15 38.7 -31.75 40.1 -30.55 39.85 -33.0 41.05 -33.65 41.3 -33.95 42.15 -34.2 42.4 -34.5 Q44.6 -35.55 46.8 -36.65 L47.0 -37.0 48.6 -37.6 48.8 -37.85 49.6 -38.1 49.8 -38.35 50.55 -38.7 50.15 -36.25 51.6 -38.3 53.4 -30.65 51.45 -37.7 54.45 -25.65 53.2 -24.7 54.45 -24.4 52.95 -21.1 53.7 -22.6 53.15 -21.0 51.65 -20.75 52.55 -19.35 52.2 -18.7 51.05 -18.45 51.6 -17.15 50.8 -16.2 49.7 -13.15 50.85 -15.35 49.75 -12.65 49.0 -14.2 48.95 -12.35 48.05 -12.15 45.1 -10.45 46.4 -10.8 M34.95 -25.7 L34.4 -23.8 34.15 -23.35 33.9 -22.75 29.35 -28.3 34.95 -25.7 M40.2 -23.85 L39.75 -22.2 39.55 -21.4 39.35 -19.3 Q39.3 -17.2 40.2 -15.55 40.75 -14.35 42.25 -14.05 L44.5 -14.35 45.05 -14.65 46.95 -16.55 48.65 -19.15 49.3 -20.5 49.9 -22.2 50.25 -24.2 50.25 -26.45 Q50.25 -27.65 49.85 -28.6 L48.6 -29.95 47.05 -30.45 45.1 -29.95 44.9 -29.6 41.8 -26.8 40.2 -23.85 M51.75 -24.0 L51.85 -23.35 51.55 -23.1 48.5 -15.35 45.95 -14.1 45.7 -13.8 44.8 -13.55 44.5 -13.3 40.8 -12.0 37.0 -19.35 37.3 -19.85 37.3 -20.3 37.55 -20.5 38.1 -21.9 38.1 -22.35 38.45 -22.8 38.5 -23.3 39.25 -24.85 40.8 -29.0 42.05 -29.6 42.25 -29.95 43.15 -30.25 43.35 -30.5 44.45 -31.1 46.9 -32.05 47.15 -32.35 49.05 -33.0 51.35 -26.2 48.9 -32.8 51.55 -24.25 50.95 -22.8 50.7 -22.6 49.1 -17.9 48.8 -17.6 48.15 -15.9 45.85 -14.4 46.6 -14.6 46.8 -14.85 48.15 -15.25 51.75 -24.0 M32.0 -15.65 L27.15 -14.45 32.0 -17.8 31.4 -16.4 32.0 -15.65 M39.95 -7.85 L42.15 -8.6 42.45 -8.9 43.4 -9.3 44.4 -10.1 43.35 -10.0 40.3 -8.3 39.95 -7.85 M37.0 -5.05 L37.45 -3.95 38.85 -4.7 36.25 -1.25 37.0 -5.05 M39.95 -10.25 L45.7 -12.75 45.95 -13.0 48.75 -14.25 51.35 -20.6 51.65 -20.9 52.95 -24.25 49.6 -34.85 45.35 -32.65 45.05 -32.35 44.05 -32.05 43.85 -31.75 42.8 -31.15 40.4 -30.15 35.8 -18.75 39.95 -10.25 M52.2 -15.95 L53.3 -18.3 57.15 -17.35 52.2 -15.95 M49.95 -10.35 L50.5 -11.6 51.1 -7.65 Q47.8 -9.8 49.85 -10.1 L49.95 -10.35" fill="#edaa51" fill-rule="evenodd" stroke="none"/>
    <path d="M53.4 -30.65 L54.5 -25.8 54.45 -25.65 51.45 -37.7 53.4 -30.65 M54.45 -24.4 L54.05 -22.9 53.7 -22.6 52.95 -21.1 54.45 -24.4 M51.6 -17.15 L50.85 -15.35 49.7 -13.15 50.8 -16.2 51.6 -17.15 M48.95 -12.35 L49.0 -12.25 48.8 -11.8 48.4 -11.6 46.4 -10.8 45.1 -10.45 48.05 -12.15 48.95 -12.35 M51.35 -26.2 L51.75 -24.85 51.75 -24.0 48.15 -15.25 46.8 -14.85 46.6 -14.6 45.85 -14.4 48.15 -15.9 48.8 -17.6 49.1 -17.9 50.7 -22.6 50.95 -22.8 51.55 -24.25 48.9 -32.8 51.35 -26.2 M39.95 -7.85 L40.3 -8.3 43.35 -10.0 44.4 -10.1 43.4 -9.3 42.45 -8.9 42.15 -8.6 39.95 -7.85" fill="#fde871" fill-rule="evenodd" stroke="none"/>
    <path d="M42.65 -21.65 L44.3 -25.65 45.75 -27.6 43.9 -26.5 43.1 -25.75 41.7 -22.95 41.45 -22.75 41.3 -22.2 41.15 -21.7 41.0 -19.45 Q40.9 -17.55 42.25 -16.4 L44.25 -16.6 44.75 -17.1 43.85 -17.75 43.25 -17.8 42.2 -19.3 Q42.0 -19.9 41.85 -19.2 L41.45 -19.8 41.6 -20.6 42.5 -21.75 41.9 -20.25 42.8 -20.7 42.65 -21.65 M49.0 -24.15 L48.95 -22.6 48.0 -19.8 46.95 -18.15 44.95 -16.3 Q44.3 -15.8 43.5 -15.7 L42.15 -15.8 Q41.35 -16.25 41.0 -17.0 40.2 -18.7 40.45 -20.5 L40.65 -22.2 41.65 -24.75 43.15 -26.9 43.95 -27.75 44.45 -28.05 46.6 -28.7 Q47.7 -28.5 48.35 -27.55 49.0 -26.8 49.0 -25.65 L49.0 -24.55 48.9 -25.05 48.65 -25.35 48.45 -25.05 48.35 -24.5 48.45 -23.85 48.65 -23.55 48.9 -23.85 49.0 -24.15 M46.6 -22.4 L46.3 -20.85 46.75 -21.15 46.95 -22.25 Q46.75 -22.5 46.6 -22.4 M48.0 -21.25 L47.9 -24.2 47.15 -20.6 48.0 -21.25" fill="#0099df" fill-rule="evenodd" stroke="none"/>
    <path d="M42.5 -21.75 L41.6 -20.6 41.45 -19.8 41.85 -19.2 Q42.0 -19.9 42.2 -19.3 L43.25 -17.8 43.85 -17.75 44.75 -17.1 44.25 -16.6 42.25 -16.4 Q40.9 -17.55 41.0 -19.45 L41.15 -21.7 41.3 -22.2 41.45 -22.75 41.7 -22.95 43.1 -25.75 43.9 -26.5 45.75 -27.6 44.3 -25.65 42.65 -21.65 42.5 -21.75" fill="#004990" fill-rule="evenodd" stroke="none"/>
    <path d="M42.65 -21.65 L42.8 -20.7 41.9 -20.25 42.5 -21.75 42.65 -21.65 M49.0 -24.15 L48.9 -23.85 48.65 -23.55 48.45 -23.85 48.35 -24.5 48.45 -25.05 48.65 -25.35 48.9 -25.05 49.0 -24.55 49.0 -24.5 49.0 -24.15 M48.0 -21.25 L47.15 -20.6 47.9 -24.2 48.0 -21.25 M46.6 -22.4 Q46.75 -22.5 46.95 -22.25 L46.75 -21.15 46.3 -20.85 46.6 -22.4" fill="#fbfffe" fill-rule="evenodd" stroke="none"/>
  </g>
</svg>
