<?xml version="1.0" encoding="UTF-8" standalone="no"?>
<svg xmlns:xlink="http://www.w3.org/1999/xlink" height="113.9px" width="133.9px" xmlns="http://www.w3.org/2000/svg">
  <g transform="matrix(1.0, 0.0, 0.0, 1.0, 172.3, 16.1)">
    <path d="M-116.25 33.05 L-116.75 33.8 -118.25 33.65 Q-119.75 33.5 -120.9 32.65 L-127.5 27.05 Q-134.3 20.4 -143.8 19.65 -154.0 18.7 -162.1 24.5 L-166.35 24.65 Q-165.65 23.3 -164.65 22.35 -158.5 16.8 -149.95 16.75 -140.45 16.7 -132.7 21.9 -128.85 24.4 -125.3 27.3 -121.15 30.7 -116.25 33.05 M-126.55 31.35 L-124.4 32.3 Q-125.3 32.95 -126.5 33.3 -133.3 34.85 -139.45 37.95 -143.4 39.9 -147.6 41.05 -154.6 43.0 -160.05 38.15 L-160.5 37.4 -159.9 36.5 Q-155.0 42.05 -147.85 40.15 -146.05 39.6 -144.45 38.7 -135.95 33.8 -126.55 31.35" fill="#83291d" fill-rule="evenodd" stroke="none"/>
    <path d="M-162.1 24.5 Q-154.0 18.7 -143.8 19.65 -134.3 20.4 -127.5 27.05 L-120.9 32.65 Q-119.75 33.5 -118.25 33.65 L-116.75 33.8 -116.25 33.05 -114.3 33.25 -114.85 35.4 -119.35 34.9 -118.6 35.6 Q-126.9 33.95 -134.5 38.6 -136.65 39.85 -139.0 40.75 -146.6 43.5 -154.65 42.4 -156.6 42.0 -158.1 40.6 L-160.05 38.15 Q-154.6 43.0 -147.6 41.05 -143.4 39.9 -139.45 37.95 -133.3 34.85 -126.5 33.3 -125.3 32.95 -124.4 32.3 L-126.55 31.35 -125.05 31.35 Q-128.75 27.45 -133.3 25.05 -135.4 23.95 -137.6 23.65 -145.55 22.7 -153.0 25.95 L-154.3 25.25 -157.1 27.75 -162.1 24.5" fill="#f36034" fill-rule="evenodd" stroke="none"/>
    <path d="M-45.75 -2.5 Q-44.2 -1.55 -43.6 -0.2 -43.2 0.7 -43.25 1.8 -42.65 4.15 -42.65 7.85 -42.65 8.4 -42.95 9.0 L-43.3 10.05 Q-43.3 10.25 -46.8 11.75 L-51.5 13.8 Q-54.5 15.1 -57.75 17.85 L-59.35 19.2 -59.3 18.8 Q-59.05 16.1 -58.2 13.4 -57.55 11.35 -56.55 9.45 -54.8 6.2 -52.45 3.35 L-51.35 2.05 -49.4 0.15 -48.35 -0.75 -47.45 -1.5 Q-46.7 -2.2 -45.75 -2.5" fill="#e6a45b" fill-rule="evenodd" stroke="none"/>
    <path d="M-48.85 -3.6 Q-47.3 -3.45 -45.9 -2.6 L-45.75 -2.5 Q-46.7 -2.2 -47.45 -1.5 L-48.35 -0.75 -49.4 0.15 -51.35 2.05 -52.45 3.35 Q-54.8 6.2 -56.55 9.45 -57.55 11.35 -58.2 13.4 -59.05 16.1 -59.3 18.8 L-59.35 19.2 -61.45 21.05 Q-61.1 17.3 -59.95 14.0 L-59.0 11.6 -57.65 8.55 -57.5 8.25 -56.75 6.45 Q-55.65 3.95 -54.2 2.2 L-53.3 1.05 -53.0 0.6 -52.75 0.25 -50.35 -2.15 -50.1 -2.45 -48.85 -3.6" fill="#999999" fill-rule="evenodd" stroke="none"/>
    <path d="M-96.6 45.55 L-100.7 45.75 Q-107.1 45.75 -110.65 43.05 L-112.95 40.3 Q-113.4 38.55 -114.35 36.9 -114.95 35.85 -114.95 34.2 -114.95 32.35 -112.0 29.0 L-107.7 24.4 Q-104.45 20.65 -96.1 14.65 -88.75 9.35 -79.6 4.9 -73.3 1.8 -68.7 0.25 -63.45 -1.55 -57.45 -2.55 L-59.95 1.85 -60.75 2.9 -61.05 3.35 -65.0 4.95 Q-68.6 6.5 -71.8 8.55 L-76.2 11.4 -79.2 13.4 -80.25 14.15 -81.15 14.85 -84.0 17.4 -84.85 18.1 -85.35 18.5 -86.65 19.75 -86.95 20.05 -88.05 20.95 -91.15 23.45 Q-91.85 23.95 -92.4 24.4 L-92.55 24.6 -93.25 25.35 -93.75 25.65 -94.2 26.0 Q-95.7 27.2 -96.9 28.75 L-97.15 29.05 -97.65 29.55 Q-99.1 30.55 -99.8 32.0 L-99.95 32.4 -100.4 34.6 -100.55 35.4 -100.5 37.6 -100.45 38.4 -100.05 40.4 Q-99.65 42.35 -98.35 43.95 L-96.6 45.55" fill="#c74a0e" fill-rule="evenodd" stroke="none"/>
    <path d="M-57.45 -2.55 L-52.6 -3.25 -48.85 -3.6 -50.1 -2.45 -50.35 -2.15 -52.75 0.25 -53.0 0.6 -53.3 1.05 -54.2 2.2 Q-55.65 3.95 -56.75 6.45 L-57.5 8.25 -57.65 8.55 -59.0 11.6 -59.95 14.0 Q-61.1 17.3 -61.45 21.05 L-68.75 27.65 -73.5 32.65 Q-76.3 35.85 -77.25 37.95 -78.75 41.1 -82.0 42.35 -86.4 44.0 -92.25 44.95 L-96.6 45.55 -98.35 43.95 Q-99.65 42.35 -100.05 40.4 L-100.45 38.4 -100.5 37.6 -100.55 35.4 -100.4 34.6 -99.95 32.4 -99.8 32.0 Q-99.1 30.55 -97.65 29.55 L-97.15 29.05 -96.9 28.75 Q-95.7 27.2 -94.2 26.0 L-93.75 25.65 -93.25 25.35 -92.55 24.6 -92.4 24.4 Q-91.85 23.95 -91.15 23.45 L-88.05 20.95 -86.95 20.05 -86.65 19.75 -85.35 18.5 -84.85 18.1 -84.0 17.4 -81.15 14.85 -80.25 14.15 -79.2 13.4 -76.2 11.4 -71.8 8.55 Q-68.6 6.5 -65.0 4.95 L-61.05 3.35 -60.75 2.9 -59.95 1.85 -57.45 -2.55" fill="#ffec00" fill-rule="evenodd" stroke="none"/>
    <path d="M-89.5 86.0 Q-88.8 81.75 -89.55 77.2 L-88.0 76.65 Q-83.45 75.2 -80.3 77.1 -80.15 77.5 -80.3 77.85 L-81.15 79.8 -81.6 79.6 Q-82.3 79.45 -83.0 78.95 L-85.0 77.85 -85.7 77.6 -85.9 77.7 -86.55 78.25 -87.0 78.45 -87.2 78.35 Q-87.35 77.6 -88.2 77.8 L-88.25 79.4 -88.4 82.0 -88.5 82.3 -88.65 82.5 -89.05 83.2 -89.1 83.8 -89.05 84.0 -88.95 84.6 -88.85 84.8 -88.55 85.75 -88.0 87.6 -87.85 88.6 -87.7 89.6 Q-87.55 90.4 -87.55 91.35 L-89.0 93.5 Q-88.55 91.35 -88.75 89.0 -88.8 87.85 -89.1 86.8 -89.2 86.4 -89.45 86.05 L-89.5 86.0 M-159.35 74.4 L-156.1 72.8 -153.8 73.4 -153.2 75.35 -154.95 76.35 -156.8 77.25 -157.45 77.65 Q-158.9 76.2 -159.35 74.4 M-163.85 85.5 L-166.45 89.4 -167.85 90.35 -168.35 90.7 -169.2 91.8 -169.9 93.15 -170.1 93.65 -171.05 95.15 -171.05 95.2 -171.75 94.9 Q-170.9 93.85 -170.3 92.45 -168.9 89.0 -168.35 85.2 L-168.25 84.6 -167.9 82.1 -166.9 80.8 -167.25 83.0 Q-167.7 86.2 -168.4 89.2 L-167.0 88.0 -165.0 86.4 -163.85 85.5" fill="#666666" fill-rule="evenodd" stroke="none"/>
    <path d="M-89.5 86.0 L-89.45 86.05 Q-89.2 86.4 -89.1 86.8 -88.8 87.85 -88.75 89.0 -88.55 91.35 -89.0 93.5 L-92.2 97.8 -93.6 96.2 Q-90.4 91.35 -89.5 86.0 M-87.55 91.35 Q-87.55 90.4 -87.7 89.6 L-87.85 88.6 -88.0 87.6 -88.55 85.75 -88.85 84.8 -88.95 84.6 -89.05 84.0 -89.1 83.8 -89.05 83.2 -88.65 82.5 -88.5 82.3 -88.4 82.0 -88.25 79.4 -88.2 77.8 Q-87.35 77.6 -87.2 78.35 L-87.0 78.45 -86.55 78.25 -85.9 77.7 -85.7 77.6 -85.0 77.85 -83.0 78.95 Q-82.3 79.45 -81.6 79.6 L-81.15 79.8 Q-83.9 85.7 -87.55 91.35 M-159.35 74.4 Q-158.9 76.2 -157.45 77.65 L-158.3 78.15 -159.65 79.3 -159.75 80.0 -160.05 80.25 -163.85 85.5 -165.0 86.4 -167.0 88.0 -168.4 89.2 Q-167.7 86.2 -167.25 83.0 L-166.9 80.8 Q-163.75 76.9 -159.35 74.4 M-166.45 89.4 L-168.75 93.05 -169.15 93.5 -170.1 94.9 -170.35 95.2 -170.75 95.3 -171.05 95.2 -171.05 95.15 -170.1 93.65 -169.9 93.15 -169.2 91.8 -168.35 90.7 -167.85 90.35 -166.45 89.4 M-171.75 94.9 L-172.2 94.7 Q-172.65 90.35 -170.5 86.25 -169.35 84.0 -167.9 82.1 L-168.25 84.6 -168.35 85.2 Q-168.9 89.0 -170.3 92.45 -170.9 93.85 -171.75 94.9" fill="#cccccc" fill-rule="evenodd" stroke="none"/>
    <path d="M-89.7 28.0 L-68.8 30.0 -68.2 30.7 -80.85 37.9 -38.4 47.25 -41.65 60.45 -78.4 82.15 -82.3 77.75 -78.6 74.6 Q-74.75 71.5 -70.7 69.1 -66.4 66.5 -61.7 64.8 L-63.15 63.95 -76.4 66.6 -75.55 64.45 -67.2 61.05 -67.55 59.5 -61.4 58.85 Q-66.65 58.4 -71.75 59.5 -85.4 62.15 -98.8 65.8 L-97.6 64.15 -100.2 64.8 -99.1 61.85 -107.75 63.65 -109.9 69.25 -110.75 69.1 -112.9 70.65 -112.6 69.0 Q-120.7 74.2 -130.15 76.9 -132.65 77.7 -135.0 76.6 L-133.65 74.8 -134.4 74.0 Q-130.4 70.95 -126.2 68.5 -123.85 67.1 -123.35 64.55 -127.05 68.05 -131.7 70.6 -139.4 74.7 -147.95 76.9 L-153.2 77.6 -157.6 73.05 Q-155.05 68.9 -151.5 65.55 -143.5 58.0 -132.9 54.8 L-131.75 49.9 Q-131.4 48.25 -130.4 47.0 L-127.7 44.2 Q-119.45 36.9 -108.65 38.25 L-107.8 39.0 -105.3 39.05 -104.1 37.45 Q-102.8 35.9 -101.2 34.75 -98.15 32.7 -96.8 29.3 L-89.7 28.0" fill="#274fab" fill-rule="evenodd" stroke="none"/>
    <path d="M-89.7 28.0 L-96.8 29.3 Q-98.15 32.7 -101.2 34.75 -102.8 35.9 -104.1 37.45 L-105.3 39.05 -107.8 39.0 -108.65 38.25 Q-119.45 36.9 -127.7 44.2 L-130.4 47.0 Q-131.4 48.25 -131.75 49.9 L-132.9 54.8 Q-143.5 58.0 -151.5 65.55 -155.05 68.9 -157.6 73.05 L-158.0 72.65 -157.6 71.7 -159.55 66.0 -156.8 64.15 Q-155.45 63.25 -154.55 61.9 L-153.95 61.0 -153.35 60.05 -154.85 56.15 -147.65 51.15 Q-138.5 45.05 -128.35 41.1 -125.6 40.05 -123.3 38.4 -119.45 35.7 -114.75 35.15 -111.85 35.1 -109.1 35.8 L-106.05 36.6 -97.1 27.7 -89.7 28.0 M-147.95 76.9 Q-139.4 74.7 -131.7 70.6 -127.05 68.05 -123.35 64.55 -123.85 67.1 -126.2 68.5 -130.4 70.95 -134.4 74.0 L-133.65 74.8 -135.0 76.6 Q-132.65 77.7 -130.15 76.9 -120.7 74.2 -112.6 69.0 L-112.9 70.65 Q-120.55 75.55 -129.3 78.1 -136.95 80.25 -144.75 79.8 L-146.45 76.7 -147.95 76.9 M-109.9 69.25 L-107.75 63.65 -99.1 61.85 -100.2 64.8 -97.6 64.15 -98.8 65.8 Q-85.4 62.15 -71.75 59.5 -66.65 58.4 -61.4 58.85 L-67.55 59.5 -67.2 61.05 -75.55 64.45 -76.4 66.6 -63.15 63.95 -61.7 64.8 Q-66.4 66.5 -70.7 69.1 -74.75 71.5 -78.6 74.6 L-82.3 77.75 -86.2 75.3 -85.5 73.95 -92.45 71.4 -95.3 73.4 -109.9 69.25" fill="#130d33" fill-rule="evenodd" stroke="none"/>
    <path d="M-75.85 36.2 L-77.3 37.8 -74.85 38.85 Q-80.85 41.85 -87.3 44.45 L-92.0 45.45 -96.9 45.85 Q-106.9 45.65 -114.45 39.3 L-116.35 37.7 -115.75 36.1 -118.65 36.65 -119.3 34.95 -116.0 33.9 Q-113.75 35.8 -110.3 36.9 -102.7 39.25 -94.9 40.05 L-86.4 40.6 -89.15 38.4 Q-88.5 37.1 -87.1 36.95 L-75.85 36.2" fill="#f36034" fill-rule="evenodd" stroke="none"/>
    <path d="M-116.35 37.7 L-121.4 38.4 -122.0 37.4 -121.4 34.0 -115.45 30.85 -114.1 32.7 -74.2 35.0 -75.85 36.2 -87.1 36.95 Q-88.5 37.1 -89.15 38.4 L-86.4 40.6 -94.9 40.05 Q-102.7 39.25 -110.3 36.9 -113.75 35.8 -116.0 33.9 L-119.3 34.95 -118.65 36.65 -115.75 36.1 -116.35 37.7" fill="#83291d" fill-rule="evenodd" stroke="none"/>
    <path d="M-99.1 21.55 L-100.0 23.0 -100.6 23.0 Q-108.2 15.35 -109.65 4.6 -110.45 -1.25 -109.25 -7.0 -108.4 -10.85 -104.95 -13.1 -106.9 -8.75 -107.15 -3.8 L-107.2 -1.25 Q-106.7 7.8 -102.75 15.8 -101.25 18.85 -99.1 21.55" fill="#999999" fill-rule="evenodd" stroke="none"/>
    <path d="M-104.95 -13.1 Q-95.85 -17.65 -85.9 -15.3 -80.35 -13.95 -75.2 -11.6 L-58.3 -3.7 -75.65 -9.05 Q-82.85 -11.1 -90.3 -9.85 -99.95 -8.0 -107.2 -1.25 L-107.15 -3.8 Q-106.9 -8.75 -104.95 -13.1" fill="#c74a0e" fill-rule="evenodd" stroke="none"/>
    <path d="M-58.3 -3.7 L-51.4 -2.4 Q-54.05 0.65 -57.7 1.85 -62.65 3.4 -67.85 4.2 L-79.15 6.4 Q-82.0 6.95 -84.3 8.35 -92.85 13.8 -99.1 21.55 -101.25 18.85 -102.75 15.8 -106.7 7.8 -107.2 -1.25 -99.95 -8.0 -90.3 -9.85 -82.85 -11.1 -75.65 -9.05 L-58.3 -3.7" fill="#ffec00" fill-rule="evenodd" stroke="none"/>
  </g>
</svg>
