<?xml version="1.0" encoding="UTF-8" standalone="no"?>
<svg xmlns:xlink="http://www.w3.org/1999/xlink" height="55.25px" width="55.25px" xmlns="http://www.w3.org/2000/svg">
  <g transform="matrix(1.0, 0.0, 0.0, 1.0, 27.6, 27.6)">
    <path d="M-23.35 14.8 Q-27.6 8.3 -27.6 0.0 -27.6 -11.4 -19.5 -19.55 -11.4 -27.6 0.05 -27.6 11.45 -27.6 19.55 -19.55 27.65 -11.4 27.65 0.0 27.65 7.5 24.2 13.55 L23.0 12.9 Q20.2 11.55 17.2 10.75 13.95 9.85 10.6 9.45 L4.0 8.7 -2.2 8.55 -6.0 8.85 -9.4 9.25 Q-11.65 9.5 -13.8 10.15 -17.0 11.15 -20.0 12.55 -21.9 13.45 -23.35 14.8" fill="#da5736" fill-rule="evenodd" stroke="none"/>
    <path d="M24.2 13.55 Q22.35 16.7 19.55 19.5 11.45 27.65 0.05 27.65 -11.4 27.65 -19.5 19.5 -21.75 17.3 -23.35 14.8 -21.9 13.45 -20.0 12.55 -17.0 11.15 -13.8 10.15 -11.65 9.5 -9.4 9.25 L-6.0 8.85 -2.2 8.55 4.0 8.7 10.6 9.45 Q13.95 9.85 17.2 10.75 20.2 11.55 23.0 12.9 L24.2 13.55" fill="#e6a45b" fill-rule="evenodd" stroke="none"/>
  </g>
</svg>
