<?xml version="1.0" encoding="UTF-8" standalone="no"?>
<svg xmlns:xlink="http://www.w3.org/1999/xlink" height="62.85px" width="87.8px" xmlns="http://www.w3.org/2000/svg">
  <g transform="matrix(1.0, 0.0, 0.0, 1.0, 72.3, 43.9)">
    <path d="M-48.1 -35.8 L-47.15 -38.6 Q-45.25 -42.15 -41.5 -42.65 L-39.2 -42.85 Q-36.5 -43.5 -34.7 -41.3 -31.75 -37.55 -33.45 -32.7 L-34.8 -37.35 -36.65 -37.9 -37.85 -39.8 -39.9 -38.15 -48.1 -35.8" fill="#666666" fill-rule="evenodd" stroke="none"/>
    <path d="M-48.1 -35.8 L-39.9 -38.15 -37.85 -39.8 -36.65 -37.9 -34.8 -37.35 -33.45 -32.7 Q-31.75 -37.55 -34.7 -41.3 -36.5 -43.5 -39.2 -42.85 L-41.5 -42.65 Q-45.25 -42.15 -47.15 -38.6 L-48.1 -35.8 M-47.65 -28.35 Q-50.6 -31.05 -50.6 -34.8 -50.6 -38.55 -47.65 -41.2 -44.75 -43.9 -40.65 -43.9 -36.55 -43.9 -33.6 -41.2 -30.7 -38.55 -30.7 -34.8 -30.7 -31.05 -33.6 -28.35 -36.55 -25.7 -40.65 -25.7 -44.75 -25.7 -47.65 -28.35" fill="#000000" fill-rule="evenodd" stroke="none"/>
    <path d="M13.65 -15.6 Q15.5 -11.85 15.5 -7.6 15.45 -2.7 12.85 1.55 13.9 8.3 9.45 13.55 5.2 18.5 -1.15 18.95 1.4 17.9 3.55 16.0 8.65 11.45 9.05 4.7 L7.5 6.15 Q-4.1 15.05 -18.45 11.05 L-13.5 10.7 Q-8.15 9.65 -3.75 6.5 -18.15 4.2 -32.4 5.8 L-30.6 4.5 Q-24.3 0.05 -16.8 -1.15 -29.4 -1.9 -40.3 4.15 L-41.0 4.0 -31.95 -3.5 Q-48.7 -4.95 -63.75 2.6 L-51.35 -5.35 Q-61.4 -9.5 -72.3 -10.1 -61.15 -14.6 -49.2 -12.8 -51.3 -14.45 -52.8 -16.5 -54.3 -18.45 -54.4 -20.95 L-53.1 -19.75 Q-49.8 -17.0 -45.5 -16.6 -40.95 -31.75 -25.5 -35.45 3.0 -42.2 13.65 -15.6 M-32.55 -26.6 L-33.8 -27.35 -33.7 -28.95 -30.2 -32.0 Q-35.7 -29.85 -39.75 -25.65 L-38.0 -25.65 -37.35 -24.4 -37.6 -22.95 -39.6 -20.8 -36.0 -22.35 -34.7 -21.45 -35.4 -17.9 -34.8 -17.1 -35.5 -15.65 -34.9 -15.65 -35.3 -14.6 -34.75 -13.65 -23.45 -19.2 -24.0 -19.2 -20.6 -21.2 Q-25.9 -20.0 -31.0 -21.45 L-32.1 -22.95 -31.85 -24.55 -33.1 -25.45 -32.55 -26.6 M-25.2 -7.0 L-22.25 -7.0 -23.8 -5.6 -10.6 -6.9 -7.5 -4.45 -7.7 -3.25 -13.9 0.3 -14.4 1.2 -13.6 3.05 Q-3.0 5.95 6.4 1.05 L8.6 -0.2 Q1.55 0.85 -3.05 -4.2 L-4.2 -5.6 -2.8 -6.0 -7.2 -7.6 -3.2 -8.4 Q-8.75 -10.6 -14.8 -9.9 L-15.2 -10.2 -15.25 -11.1 -17.2 -12.0 -15.4 -13.0 -18.0 -13.0 -13.8 -14.4 Q-23.0 -15.15 -30.55 -9.65 -26.5 -10.6 -22.85 -9.2 L-25.2 -7.0" fill="#000000" fill-rule="evenodd" stroke="none"/>
    <path d="M-25.2 -7.0 L-22.85 -9.2 Q-26.5 -10.6 -30.55 -9.65 -23.0 -15.15 -13.8 -14.4 L-18.0 -13.0 -15.4 -13.0 -17.2 -12.0 -15.25 -11.1 -15.2 -10.2 -14.8 -9.9 Q-8.75 -10.6 -3.2 -8.4 L-7.2 -7.6 -2.8 -6.0 -4.2 -5.6 -3.05 -4.2 Q1.55 0.85 8.6 -0.2 L6.4 1.05 Q-3.0 5.95 -13.6 3.05 L-14.4 1.2 -13.9 0.3 -7.7 -3.25 -7.5 -4.45 -10.6 -6.9 -23.8 -5.6 -22.25 -7.0 -25.2 -7.0 M-32.55 -26.6 L-33.1 -25.45 -31.85 -24.55 -32.1 -22.95 -31.0 -21.45 Q-25.9 -20.0 -20.6 -21.2 L-24.0 -19.2 -23.45 -19.2 -34.75 -13.65 -35.3 -14.6 -34.9 -15.65 -35.5 -15.65 -34.8 -17.1 -35.4 -17.9 -34.7 -21.45 -36.0 -22.35 -39.6 -20.8 -37.6 -22.95 -37.35 -24.4 -38.0 -25.65 -39.75 -25.65 Q-35.7 -29.85 -30.2 -32.0 L-33.7 -28.95 -33.8 -27.35 -32.55 -26.6" fill="#666666" fill-rule="evenodd" stroke="none"/>
  </g>
</svg>
