<?xml version="1.0" encoding="UTF-8" standalone="no"?>
<svg xmlns:xlink="http://www.w3.org/1999/xlink" height="164.15px" width="385.15px" xmlns="http://www.w3.org/2000/svg">
  <g transform="matrix(1.0, 0.0, 0.0, 1.0, 210.75, 27.5)">
    <path d="M33.5 -24.95 L36.2 -25.15 Q40.45 -25.15 42.9 -24.05 L41.05 -19.2 43.2 -21.7 45.45 -16.65 Q41.0 -13.55 36.15 -13.05 38.2 -9.7 43.8 -8.85 L42.75 -3.3 Q36.85 -6.65 34.85 -12.9 L34.6 -12.9 Q33.7 -7.3 29.95 -2.55 31.2 -6.5 31.2 -10.2 L31.1 -13.1 Q28.8 -13.55 27.55 -14.55 L30.9 -14.2 31.05 -14.2 Q30.5 -20.05 27.85 -24.2 L32.8 -26.85 33.5 -24.95 M8.2 -25.3 L9.15 -20.2 Q7.3 -21.35 5.2 -21.35 3.95 -21.35 3.2 -20.5 2.4 -19.7 2.4 -18.6 L2.55 -17.75 Q3.95 -18.5 5.6 -18.5 8.25 -18.5 9.45 -15.85 8.0 -16.95 5.7 -16.95 3.9 -16.95 2.55 -15.6 1.2 -14.25 1.2 -12.3 1.2 -9.85 2.85 -8.6 5.3 -11.3 8.65 -13.25 12.3 -15.35 15.7 -15.7 L14.55 -8.95 Q12.9 -10.0 10.95 -10.3 L12.05 -4.45 Q9.5 -2.7 6.0 -2.7 2.4 -2.7 0.2 -4.8 -1.95 -7.0 -1.95 -10.6 -1.95 -14.5 1.15 -16.85 0.05 -18.35 0.05 -19.95 0.05 -22.45 1.6 -24.0 3.2 -25.6 5.9 -25.6 L8.2 -25.3 M5.8 -7.65 Q8.65 -7.65 10.1 -10.35 L9.55 -10.35 Q6.65 -10.35 4.05 -7.95 L5.8 -7.65 M34.8 -15.0 Q37.65 -16.05 39.9 -18.05 37.8 -22.05 33.85 -23.85 34.9 -20.15 34.9 -16.35 L34.8 -15.0 M53.05 -17.25 Q51.55 -17.6 49.85 -18.25 48.15 -19.0 47.2 -19.85 L50.15 -24.5 Q51.45 -23.1 52.25 -21.15 53.05 -19.15 53.05 -17.25 M57.6 -7.15 Q57.6 -5.75 58.5 -5.0 59.35 -4.15 60.8 -4.15 61.85 -4.15 63.0 -4.7 L63.05 -6.3 Q63.05 -8.8 61.9 -11.5 60.0 -11.0 58.8 -9.8 57.6 -8.6 57.6 -7.15 M56.65 -4.3 Q55.1 -5.9 55.1 -8.15 55.1 -12.25 58.1 -14.5 60.75 -16.45 64.85 -16.45 L67.6 -11.65 64.9 -11.9 63.3 -11.75 Q66.75 -7.05 66.75 -2.1 66.75 -0.05 66.3 1.85 L60.0 4.6 Q62.05 1.65 62.8 -3.05 L60.25 -2.7 Q58.25 -2.7 56.65 -4.3 M53.05 -3.7 L47.2 -2.55 Q50.05 -9.15 50.05 -16.7 53.05 -11.15 53.05 -3.7 M80.5 -14.9 Q82.0 -13.25 82.0 -10.75 82.0 -8.7 81.35 -6.25 80.7 -3.8 79.8 -2.35 L74.9 -4.8 Q78.15 -7.55 78.15 -11.6 78.15 -14.3 75.45 -14.3 74.45 -14.3 73.25 -13.7 73.0 -11.15 73.0 -8.3 73.0 -4.25 73.9 -1.25 71.1 -4.55 70.05 -11.3 L68.45 -9.55 Q69.05 -11.1 69.9 -12.3 69.55 -14.95 69.55 -18.35 69.55 -21.2 70.0 -23.0 L75.65 -24.35 Q74.1 -19.45 73.5 -15.7 75.05 -16.45 76.6 -16.45 79.05 -16.45 80.5 -14.9 M96.35 -16.65 L95.05 -12.1 91.55 -12.75 Q90.75 -7.3 86.75 -0.65 87.85 -5.05 87.85 -9.65 L87.65 -12.75 83.3 -11.75 Q85.15 -13.45 87.4 -14.6 86.85 -18.25 85.6 -21.2 L90.9 -22.45 Q91.8 -19.65 91.8 -16.2 L96.35 -16.65 M-143.25 -25.8 Q-141.15 -21.35 -140.2 -15.55 -138.6 -21.2 -135.55 -25.8 L-128.95 -23.55 Q-131.05 -22.5 -133.1 -20.85 -129.35 -13.15 -128.55 -4.8 L-135.35 -1.85 Q-133.55 -7.9 -133.55 -15.15 -133.55 -16.95 -133.9 -20.2 -137.45 -17.15 -139.9 -13.35 -139.65 -11.6 -139.65 -9.85 -139.65 -6.5 -140.25 -4.05 -141.25 -9.35 -143.1 -13.4 -144.9 -17.3 -147.95 -21.05 L-148.0 -18.95 Q-148.0 -11.9 -144.55 -4.4 L-150.7 -2.1 -151.05 -7.05 Q-151.05 -9.55 -150.5 -13.65 -149.85 -18.35 -148.8 -22.15 L-150.65 -24.2 -147.95 -24.8 -146.75 -27.5 -147.4 -24.9 -143.25 -25.8 M-121.7 -5.4 Q-120.75 -4.45 -119.4 -4.45 L-120.2 -5.95 Q-117.45 -8.25 -117.45 -12.0 L-117.45 -12.75 Q-119.95 -12.55 -121.4 -11.0 -122.65 -9.65 -122.65 -7.6 -122.65 -6.4 -121.7 -5.4 M-125.95 -10.3 Q-125.95 -13.65 -123.5 -16.9 L-117.65 -14.05 Q-118.25 -17.25 -120.5 -19.4 -117.65 -17.75 -116.0 -15.0 -114.35 -12.25 -114.35 -9.25 -114.35 -4.6 -117.6 -1.05 L-118.5 -2.7 -119.25 -2.7 Q-122.0 -2.7 -124.0 -5.0 -125.95 -7.3 -125.95 -10.3 M-105.25 -2.65 Q-108.15 -4.35 -110.2 -8.0 -112.2 -11.75 -112.2 -15.2 L-107.2 -16.75 -107.7 -12.2 Q-107.7 -7.95 -106.2 -4.5 -103.4 -8.0 -103.4 -11.75 -103.4 -14.15 -103.95 -16.1 L-98.95 -14.8 Q-99.4 -11.55 -101.35 -8.4 -103.2 -5.45 -105.8 -3.55 L-105.25 -2.65 M-87.1 -15.65 Q-86.0 -14.9 -85.5 -13.65 -86.65 -12.1 -88.3 -11.1 -90.1 -9.95 -91.75 -9.95 L-93.5 -12.25 -93.75 -10.95 Q-93.75 -9.25 -92.45 -8.25 -91.2 -7.25 -89.35 -7.25 -87.0 -7.25 -85.5 -8.4 L-87.1 -3.25 Q-88.6 -2.7 -90.0 -2.7 -93.35 -2.7 -95.2 -4.75 -96.8 -6.5 -96.8 -9.3 -96.8 -11.95 -95.0 -14.05 L-97.15 -16.75 -94.25 -14.75 Q-92.2 -16.45 -89.75 -16.45 -88.25 -16.45 -87.1 -15.65 M-87.65 -13.95 Q-88.45 -15.05 -89.75 -15.05 -91.35 -15.05 -92.45 -13.85 -90.8 -13.1 -89.75 -13.1 -88.5 -13.1 -87.65 -13.95 M-68.6 -17.65 Q-69.25 -14.6 -69.25 -10.2 L-68.8 -5.4 -68.35 -5.4 Q-65.4 -5.4 -62.4 -6.65 -59.45 -7.9 -57.15 -10.05 L-58.45 -3.2 -63.5 -2.7 Q-66.15 -2.7 -68.55 -3.35 L-68.05 -0.8 -70.0 -3.85 Q-72.05 -4.7 -73.85 -5.9 L-70.8 -5.45 Q-73.25 -11.05 -73.25 -16.35 -73.25 -21.95 -71.15 -26.85 L-65.9 -24.2 Q-67.85 -21.2 -68.6 -17.65 M-45.45 -15.65 Q-44.35 -14.9 -43.9 -13.65 -45.05 -12.1 -46.65 -11.1 -48.5 -9.95 -50.15 -9.95 L-51.85 -12.25 -52.1 -10.95 Q-52.1 -9.25 -50.85 -8.25 -49.6 -7.25 -47.75 -7.25 -45.35 -7.25 -43.9 -8.4 L-45.45 -3.25 Q-46.95 -2.7 -48.35 -2.7 -51.7 -2.7 -53.55 -4.75 -55.2 -6.5 -55.2 -9.3 -55.2 -11.95 -53.35 -14.05 L-55.55 -16.75 -52.6 -14.75 Q-50.55 -16.45 -48.1 -16.45 -46.6 -16.45 -45.45 -15.65 M-46.05 -13.95 Q-46.8 -15.05 -48.1 -15.05 -49.75 -15.05 -50.85 -13.85 -49.2 -13.1 -48.1 -13.1 -46.85 -13.1 -46.05 -13.95 M-40.75 -13.95 Q-40.35 -17.9 -37.75 -20.75 -35.15 -23.7 -31.95 -23.7 -28.9 -23.7 -27.55 -21.0 -28.85 -22.05 -31.0 -22.05 -33.1 -22.05 -34.8 -20.25 -36.45 -18.5 -36.8 -16.0 L-34.25 -16.45 -31.75 -16.0 -33.2 -11.6 Q-34.95 -12.65 -36.8 -12.95 -36.25 -7.95 -32.85 -4.5 L-38.0 -2.25 Q-40.7 -6.35 -40.75 -12.75 L-42.65 -12.1 -40.75 -13.95 M-24.6 -21.2 L-19.3 -22.45 Q-18.4 -19.65 -18.4 -16.2 L-13.85 -16.65 -15.15 -12.1 -18.65 -12.75 Q-19.45 -7.3 -23.45 -0.65 -22.35 -5.05 -22.35 -9.65 L-22.55 -12.75 -26.9 -11.75 Q-25.05 -13.45 -22.8 -14.6 -23.35 -18.25 -24.6 -21.2" fill="#ffffff" fill-rule="evenodd" stroke="none"/>
    <path d="M168.2 94.4 L174.4 88.2 174.4 136.65 126.05 136.65 132.25 130.45 168.2 130.45 168.2 94.4 M-156.6 88.2 L-156.6 136.65 -204.95 136.65 -198.75 130.45 -162.8 130.45 -162.8 94.4 -156.6 88.2" fill="#ffffff" fill-rule="evenodd" stroke="none"/>
    <path d="M174.4 88.2 L168.2 94.4 132.25 94.4 132.25 130.45 126.05 136.65 126.05 88.2 174.4 88.2 M-156.6 88.2 L-162.8 94.4 -198.75 94.4 -198.75 130.45 -204.95 136.65 -204.95 88.2 -156.6 88.2" fill="#cccccc" fill-rule="evenodd" stroke="none"/>
    <path d="M-151.05 77.05 L-166.35 77.05 -166.35 73.85 -195.45 73.85 -195.45 77.05 -210.75 77.05 -210.75 23.35 -195.45 23.35 -195.45 24.8 -166.35 24.8 -166.35 23.35 -151.05 23.35 -151.05 77.05" fill="#666666" fill-opacity="0.0" fill-rule="evenodd" stroke="none"/>
  </g>
</svg>
