<?xml version="1.0" encoding="UTF-8" standalone="no"?>
<svg xmlns:xlink="http://www.w3.org/1999/xlink" height="59.45px" width="104.6px" xmlns="http://www.w3.org/2000/svg">
  <g transform="matrix(1.0, 0.0, 0.0, 1.0, 34.5, 36.35)">
    <path d="M22.9 -26.2 Q20.7 -27.1 24.1 -25.95 L42.1 -19.15 Q50.45 -15.8 57.9 -10.6 61.2 -8.25 63.45 -4.8 67.15 0.65 65.85 7.1 65.45 8.7 64.55 10.15 L62.1 13.75 Q60.6 15.95 58.3 17.1 55.25 18.5 47.45 17.75 39.75 16.85 32.25 13.65 24.7 10.35 9.7 2.35 L-18.8 12.1 -29.5 -8.5 Q-13.1 -22.35 5.8 -32.1 L22.9 -26.2 M8.4 -28.3 L8.15 -28.1 4.95 -28.75 Q1.35 -26.95 -2.45 -24.55 L-9.8 -19.75 Q-12.45 -18.15 -20.35 -12.6 -28.35 -7.1 -27.85 -6.8 -27.4 -6.6 -26.55 -4.9 L-24.55 -0.35 -21.45 -2.3 -22.95 -4.8 Q-24.3 -6.9 -23.75 -6.9 -23.15 -6.8 -10.1 -14.45 3.0 -22.05 6.3 -24.35 L11.4 -23.65 16.55 -22.55 Q45.0 -10.75 51.15 -4.3 52.7 -2.6 54.25 0.8 55.75 4.05 58.25 6.5 L60.9 7.35 Q63.6 7.65 64.35 6.55 64.65 6.15 65.0 3.85 65.75 -0.7 63.45 -4.35 59.65 -10.0 48.15 -14.3 48.0 -14.65 43.45 -16.2 L39.2 -17.95 37.7 -18.75 36.4 -19.3 Q36.25 -19.5 33.35 -20.5 L30.25 -21.85 8.4 -28.3" fill="#faa710" fill-rule="evenodd" stroke="none"/>
    <path d="M22.9 -26.2 L5.8 -32.1 Q-13.1 -22.35 -29.5 -8.5 L-18.8 12.1 9.7 2.35 Q24.7 10.35 32.25 13.65 39.75 16.85 47.45 17.75 55.25 18.5 58.3 17.1 60.6 15.95 62.1 13.75 L64.55 10.15 Q65.45 8.7 65.85 7.1 67.15 0.65 63.45 -4.8 61.2 -8.25 57.9 -10.6 50.45 -15.8 42.1 -19.15 L24.1 -25.95 Q20.7 -27.1 22.9 -26.2 M-29.7 0.0 L-34.5 -9.1 -31.6 -11.75 Q-14.85 -26.95 5.45 -36.35 26.4 -31.35 46.85 -22.85 54.75 -19.35 62.1 -14.6 64.7 -12.9 66.3 -10.15 69.3 -5.05 69.85 0.6 71.3 11.6 63.95 18.45 61.15 20.95 57.75 22.3 54.35 23.65 50.55 22.75 44.15 21.85 37.95 20.05 29.15 16.75 20.8 12.2 L10.95 6.65 -17.9 17.1 -19.85 17.95 -28.8 1.7 -29.7 0.0" fill="#000000" fill-rule="evenodd" stroke="none"/>
    <path d="M8.4 -28.3 L30.25 -21.85 33.35 -20.5 Q36.25 -19.5 36.4 -19.3 L37.7 -18.75 39.2 -17.95 43.45 -16.2 Q48.0 -14.65 48.15 -14.3 59.65 -10.0 63.45 -4.35 65.75 -0.7 65.0 3.85 64.65 6.15 64.35 6.55 63.6 7.65 60.9 7.35 L58.25 6.5 Q55.75 4.05 54.25 0.8 52.7 -2.6 51.15 -4.3 45.0 -10.75 16.55 -22.55 L11.4 -23.65 6.3 -24.35 Q3.0 -22.05 -10.1 -14.45 -23.15 -6.8 -23.75 -6.9 -24.3 -6.9 -22.95 -4.8 L-21.45 -2.3 -24.55 -0.35 -26.55 -4.9 Q-27.4 -6.6 -27.85 -6.8 -28.35 -7.1 -20.35 -12.6 -12.45 -18.15 -9.8 -19.75 L-2.45 -24.55 Q1.35 -26.95 4.95 -28.75 L8.15 -28.1 8.4 -28.3" fill="#ffdc70" fill-rule="evenodd" stroke="none"/>
    <path d="M-29.7 0.0 L-28.8 1.7 -29.75 0.0 -29.7 0.0" fill="#cccccc" fill-rule="evenodd" stroke="none"/>
  </g>
</svg>
