<?xml version="1.0" encoding="UTF-8" standalone="no"?>
<svg xmlns:xlink="http://www.w3.org/1999/xlink" height="136.05px" width="124.1px" xmlns="http://www.w3.org/2000/svg">
  <g transform="matrix(1.0, 0.0, 0.0, 1.0, 166.85, 15.55)">
    <path d="M-119.5 44.2 L-120.65 44.15 Q-121.7 40.75 -124.1 38.3 -124.7 37.6 -125.4 37.05 L-125.0 32.75 Q-121.6 35.8 -120.6 40.15 L-119.5 44.2 M-137.3 11.9 Q-132.05 14.9 -128.65 19.85 -128.0 20.75 -127.85 21.9 -126.8 30.05 -127.25 38.2 -127.35 40.1 -126.45 41.55 -123.05 46.85 -116.9 45.8 L-113.45 44.8 -116.1 46.3 -113.45 46.1 Q-112.25 45.55 -111.5 44.35 L-112.5 44.4 -109.45 41.85 -107.3 41.25 -107.85 42.75 -109.45 44.0 Q-110.4 48.55 -114.95 49.5 -118.5 50.15 -119.6 46.8 -125.75 46.0 -128.45 40.2 -129.45 38.05 -129.55 35.4 L-133.4 35.15 Q-135.35 35.5 -136.5 37.0 L-137.65 36.1 -141.85 35.75 -142.2 35.15 -142.8 35.15 -144.15 34.1 Q-142.1 31.05 -138.45 30.9 L-132.8 30.65 -130.0 30.8 Q-130.3 22.65 -136.75 17.95 L-135.8 17.2 Q-137.55 15.45 -140.05 15.25 L-141.7 15.35 -137.3 11.9" fill="#f36034" fill-rule="evenodd" stroke="none"/>
    <path d="M-119.5 44.2 L-117.15 44.2 Q-113.05 43.9 -109.45 41.85 L-112.5 44.4 -113.45 44.8 -116.9 45.8 Q-123.05 46.85 -126.45 41.55 -127.35 40.1 -127.25 38.2 -126.8 30.05 -127.85 21.9 -128.0 20.75 -128.65 19.85 -132.05 14.9 -137.3 11.9 L-137.15 11.3 -137.65 9.9 Q-134.8 9.85 -132.45 11.55 -127.95 14.75 -125.65 19.9 -125.05 21.25 -124.85 22.75 -124.2 27.9 -125.0 32.75 L-125.4 37.05 Q-125.4 40.0 -124.0 42.1 -122.6 44.15 -120.65 44.15 L-119.5 44.2" fill="#83291d" fill-rule="evenodd" stroke="none"/>
    <path d="M-49.55 32.05 L-49.75 32.4 -49.75 32.9 -50.4 32.7 -50.6 32.7 -51.8 32.5 -52.0 32.45 -52.3 32.3 Q-52.65 32.05 -53.05 31.85 L-54.6 31.7 -54.8 31.7 -57.4 31.8 -57.8 31.85 -59.6 32.0 -59.95 32.1 -60.2 32.2 -62.2 31.9 -64.4 31.9 -65.0 31.95 -65.8 32.0 Q-69.65 32.15 -73.25 33.3 L-74.35 33.7 -77.85 34.9 Q-79.6 35.6 -81.25 36.55 L-86.4 39.35 -86.95 39.7 Q-88.3 40.7 -89.6 41.2 L-90.0 41.4 Q-91.85 42.45 -94.0 42.6 L-94.3 42.7 -95.25 43.55 -95.75 44.05 -97.6 46.0 -98.85 47.35 -99.1 47.85 -99.3 48.15 -99.6 49.4 -99.55 51.0 -98.9 55.8 -98.85 56.0 -98.35 58.0 -98.1 59.2 -97.15 62.95 -100.5 61.05 Q-101.9 60.2 -103.15 58.7 L-104.95 56.25 Q-106.3 54.35 -107.45 51.55 -108.8 48.4 -108.8 46.65 -108.8 44.95 -107.85 43.5 -107.0 42.2 -105.55 41.35 -100.1 37.6 -97.75 36.6 L-94.3 34.8 Q-91.85 33.5 -89.8 32.8 L-83.05 30.5 -70.2 28.9 -70.2 28.8 -64.2 28.8 Q-54.95 28.95 -49.55 32.05" fill="#c74a0e" fill-rule="evenodd" stroke="none"/>
    <path d="M-65.25 47.35 L-64.55 45.65 -63.95 44.15 Q-63.3 42.35 -62.25 40.75 -60.55 38.1 -57.8 36.8 L-56.8 36.5 -54.2 36.15 -50.2 36.25 -46.6 36.8 -44.45 37.1 Q-43.85 38.45 -43.8 39.85 -43.25 40.7 -43.25 41.5 -43.25 43.25 -45.7 44.6 L-55.4 45.75 -63.1 46.85 -65.25 47.35" fill="#e6a45b" fill-rule="evenodd" stroke="none"/>
    <path d="M-67.6 48.15 L-66.45 44.4 Q-65.2 40.95 -63.0 38.2 L-62.8 38.0 -60.65 36.15 -60.05 35.7 Q-58.6 34.9 -56.6 34.55 L-56.2 34.5 -54.2 34.15 -54.15 34.15 -53.8 34.1 -48.6 34.0 -47.6 34.1 -46.65 34.2 Q-45.2 35.6 -44.45 37.1 L-46.6 36.8 -50.2 36.25 -54.2 36.15 -56.8 36.5 -57.8 36.8 Q-60.55 38.1 -62.25 40.75 -63.3 42.35 -63.95 44.15 L-64.55 45.65 -65.25 47.35 -67.6 48.15" fill="#999999" fill-rule="evenodd" stroke="none"/>
    <path d="M-97.15 62.95 L-98.1 59.2 -98.35 58.0 -98.85 56.0 -98.9 55.8 -99.55 51.0 -99.6 49.4 -99.3 48.15 -99.1 47.85 -98.85 47.35 -97.6 46.0 -95.75 44.05 -95.25 43.55 -94.3 42.7 -94.0 42.6 Q-91.85 42.45 -90.0 41.4 L-89.6 41.2 Q-88.3 40.7 -86.95 39.7 L-86.4 39.35 -81.25 36.55 Q-79.6 35.6 -77.85 34.9 L-74.35 33.7 -73.25 33.3 Q-69.65 32.15 -65.8 32.0 L-65.0 31.95 -64.4 31.9 -62.2 31.9 -60.2 32.2 -59.95 32.1 -59.6 32.0 -57.8 31.85 -57.4 31.8 -54.8 31.7 -54.6 31.7 -53.05 31.85 Q-52.65 32.05 -52.3 32.3 L-52.0 32.45 -51.8 32.5 -50.6 32.7 -50.4 32.7 -49.75 32.9 -49.75 32.4 -49.55 32.05 -47.95 33.1 -46.65 34.2 -47.6 34.1 -48.6 34.0 -53.8 34.1 -54.15 34.15 -54.2 34.15 -56.2 34.5 -56.6 34.55 Q-58.6 34.9 -60.05 35.7 L-60.65 36.15 -62.8 38.0 -63.0 38.2 Q-65.2 40.95 -66.45 44.4 L-67.6 48.15 -69.8 49.15 -74.5 51.65 -75.45 52.5 Q-79.0 55.85 -81.85 61.7 -83.55 65.2 -87.0 65.2 L-88.4 64.95 -92.4 64.4 Q-94.9 64.2 -96.2 63.45 L-97.15 62.95" fill="#ffec00" fill-rule="evenodd" stroke="none"/>
    <path d="M-145.0 50.05 L-146.15 50.25 -147.6 48.2 -147.7 48.0 Q-147.65 47.05 -148.6 47.2 L-148.8 47.15 Q-148.95 46.45 -149.8 46.5 L-151.8 46.8 -154.0 47.2 -155.2 47.35 -158.8 47.8 -159.8 47.7 -162.6 47.6 Q-163.65 47.65 -164.15 47.15 L-164.45 46.85 -164.75 46.55 -165.35 45.75 -165.65 45.25 -166.15 44.55 -166.4 44.2 -165.6 43.8 -162.6 45.75 Q-158.8 45.35 -155.4 43.8 -152.9 42.7 -150.5 42.1 -149.1 41.75 -147.9 42.5 L-146.8 43.45 Q-147.35 45.3 -146.6 46.9 L-145.0 50.05 M-45.15 102.35 L-44.85 101.9 -43.6 99.7 -43.05 100.0 -42.75 100.9 Q-43.3 105.5 -45.4 109.4 L-45.6 109.8 -46.4 109.8 -46.75 109.7 Q-47.15 109.55 -46.95 108.8 L-46.9 108.6 -46.55 106.6 -46.45 106.2 -46.3 105.6 -45.85 104.0 -45.55 103.2 -45.15 102.35 M-59.1 110.35 L-57.25 111.1 -55.25 111.05 Q-54.25 110.85 -53.35 110.3 L-50.8 108.45 Q-48.55 106.6 -46.75 104.5 L-46.8 104.6 -47.05 105.6 -47.45 107.6 -47.75 109.4 -47.85 110.0 -48.0 110.4 -49.25 112.2 -49.4 112.4 -50.8 114.0 -54.05 116.7 -54.4 116.85 -54.55 117.0 Q-54.8 117.55 -55.6 117.85 L-56.0 117.95 Q-56.7 118.0 -56.9 117.25 L-57.2 116.85 -57.5 116.55 -57.55 116.2 -57.3 115.4 -57.25 115.2 Q-57.05 114.65 -57.6 114.7 L-57.8 114.6 -58.65 113.6 -58.8 113.4 Q-59.35 112.8 -60.0 112.4 L-60.4 112.2 -59.1 110.35" fill="#cccccc" fill-rule="evenodd" stroke="none"/>
    <path d="M-166.4 44.2 L-166.15 44.55 -165.65 45.25 -165.35 45.75 -164.75 46.55 -164.45 46.85 -164.15 47.15 Q-163.65 47.65 -162.6 47.6 L-159.8 47.7 -158.8 47.8 -155.2 47.35 -154.0 47.2 -151.8 46.8 -149.8 46.5 Q-148.95 46.45 -148.8 47.15 L-148.6 47.2 Q-147.65 47.05 -147.7 48.0 L-147.6 48.2 -146.15 50.25 -145.0 50.05 -143.75 52.25 -143.2 53.0 -146.25 53.65 Q-146.8 51.4 -148.65 49.45 -149.3 48.8 -150.45 48.65 L-153.2 48.8 -159.8 49.55 -161.95 49.2 Q-164.7 48.9 -166.15 46.7 L-166.65 45.65 -166.85 44.4 -166.4 44.2 M-45.15 102.35 L-45.55 103.2 -45.85 104.0 -46.3 105.6 -46.45 106.2 -46.55 106.6 -46.9 108.6 -46.95 108.8 Q-47.15 109.55 -46.75 109.7 L-46.4 109.8 -45.6 109.8 -46.6 111.1 -53.15 118.85 Q-54.6 120.75 -57.0 120.45 -58.3 119.5 -58.9 118.2 L-60.45 115.0 Q-61.15 113.6 -62.0 112.3 -62.7 111.35 -63.55 111.0 L-61.4 108.85 -60.95 109.1 -60.1 109.75 -59.1 110.35 -60.4 112.2 -60.0 112.4 Q-59.35 112.8 -58.8 113.4 L-58.65 113.6 -57.8 114.6 -57.6 114.7 Q-57.05 114.65 -57.25 115.2 L-57.3 115.4 -57.55 116.2 -57.5 116.55 -57.2 116.85 -56.9 117.25 Q-56.7 118.0 -56.0 117.95 L-55.6 117.85 Q-54.8 117.55 -54.55 117.0 L-54.4 116.85 -54.05 116.7 -50.8 114.0 -49.4 112.4 -49.25 112.2 -48.0 110.4 -47.85 110.0 -47.75 109.4 -47.45 107.6 -47.05 105.6 -46.8 104.6 -46.75 104.5 -46.75 104.45 -45.15 102.35" fill="#666666" fill-rule="evenodd" stroke="none"/>
    <path d="M-89.8 46.75 L-95.7 46.45 -98.15 52.25 -99.45 52.3 Q-101.7 52.1 -103.5 50.8 -105.35 49.4 -106.25 47.4 -116.6 51.4 -124.8 58.95 L-123.45 65.6 -124.9 65.0 -126.0 65.25 -126.25 66.6 -125.95 67.3 -130.4 66.4 -130.75 66.45 -130.85 66.6 -133.8 65.9 -135.0 64.6 -137.65 66.95 -137.35 68.0 -135.85 68.3 -133.8 66.1 -133.95 67.0 -133.2 68.0 -132.05 68.05 -132.1 71.75 -135.8 70.6 -135.7 72.0 -137.95 73.55 -138.05 69.8 -138.8 70.2 -140.05 69.35 Q-143.8 66.6 -145.2 62.1 L-145.65 60.55 -147.1 60.6 -147.95 63.25 -149.8 64.25 -150.1 64.6 Q-151.65 67.6 -152.15 70.75 L-152.45 72.9 -153.15 59.95 -147.65 56.75 -147.85 53.15 Q-140.95 48.8 -132.7 48.65 L-133.8 51.15 -128.2 50.6 -127.8 52.35 -124.1 51.05 -123.5 51.35 -117.8 49.7 -114.85 48.1 Q-111.8 45.9 -108.6 43.95 -107.5 43.35 -106.45 44.2 L-99.6 50.0 -97.35 43.75 -96.45 43.75 Q-92.9 44.6 -89.8 46.75 M-140.75 85.5 Q-131.35 84.4 -122.15 81.7 -118.9 80.85 -115.9 79.05 -112.9 77.2 -109.65 75.85 L-106.3 74.7 -105.6 73.6 -96.8 79.4 -98.55 78.7 -100.35 78.25 -102.15 78.05 -105.05 78.35 -104.45 79.4 -104.5 80.55 -111.3 84.15 -109.35 85.75 Q-107.5 87.15 -105.2 87.8 L-99.95 88.25 -110.5 91.5 -112.65 92.35 -113.5 92.1 Q-114.25 88.6 -117.5 87.3 -121.2 85.75 -125.25 85.7 L-140.75 85.5 M-93.85 105.55 Q-93.65 98.65 -97.7 93.05 L-98.95 91.4 -97.6 88.2 -91.45 92.35 Q-91.5 97.65 -86.85 100.65 -85.15 101.8 -83.0 102.2 L-83.3 99.7 -82.4 99.2 -84.2 94.2 -65.65 107.9 -61.35 105.2 Q-65.3 95.8 -75.2 92.8 -65.6 94.95 -57.95 101.15 -58.05 102.25 -57.45 103.3 L-56.1 104.45 Q-55.35 104.9 -54.3 104.9 L-57.55 105.7 Q-58.3 107.9 -60.0 109.3 L-61.2 110.25 -62.65 111.2 -64.1 112.0 Q-66.6 110.65 -69.15 111.7 L-70.0 112.1 -70.9 112.55 -73.4 114.05 -82.4 107.2 -91.2 110.2 -93.85 105.55" fill="#130d33" fill-rule="evenodd" stroke="none"/>
    <path d="M-89.8 46.75 L-79.15 53.2 Q-80.25 56.8 -83.35 59.4 -85.8 61.55 -84.95 64.7 -82.7 72.6 -75.5 76.75 -71.55 79.05 -67.0 79.55 -60.4 79.55 -55.55 83.8 L-57.5 87.85 -52.0 91.1 -53.45 94.6 -53.15 95.95 Q-51.95 100.65 -54.3 104.9 -55.35 104.9 -56.1 104.45 L-57.45 103.3 Q-58.05 102.25 -57.95 101.15 -65.6 94.95 -75.2 92.8 -65.3 95.8 -61.35 105.2 L-65.65 107.9 -84.2 94.2 -82.4 99.2 -83.3 99.7 -83.0 102.2 Q-85.15 101.8 -86.85 100.65 -91.5 97.65 -91.45 92.35 L-97.6 88.2 -98.95 91.4 -97.7 93.05 Q-93.65 98.65 -93.85 105.55 L-96.35 101.85 Q-101.85 94.5 -110.5 91.5 L-99.95 88.25 -105.2 87.8 Q-107.5 87.15 -109.35 85.75 L-111.3 84.15 -104.5 80.55 -104.45 79.4 -105.05 78.35 -102.15 78.05 -100.35 78.25 -98.55 78.7 -96.8 79.4 -105.6 73.6 -106.3 74.7 -109.65 75.85 Q-112.9 77.2 -115.9 79.05 -118.9 80.85 -122.15 81.7 -131.35 84.4 -140.75 85.5 -146.0 85.2 -149.8 81.65 -153.45 78.1 -152.45 72.9 L-152.15 70.75 Q-151.65 67.6 -150.1 64.6 L-149.8 64.25 -147.95 63.25 -147.1 60.6 -145.65 60.55 -145.2 62.1 Q-143.8 66.6 -140.05 69.35 L-138.8 70.2 -138.05 69.8 -137.95 73.55 -135.7 72.0 -135.8 70.6 -132.1 71.75 -132.05 68.05 -133.2 68.0 -133.95 67.0 -133.8 66.1 -135.85 68.3 -137.35 68.0 -137.65 66.95 -135.0 64.6 -133.8 65.9 -130.85 66.6 -130.75 66.45 -130.4 66.4 -125.95 67.3 -126.25 66.6 -126.0 65.25 -124.9 65.0 -123.45 65.6 -124.8 58.95 Q-116.6 51.4 -106.25 47.4 -105.35 49.4 -103.5 50.8 -101.7 52.1 -99.45 52.3 L-98.15 52.25 -95.7 46.45 -89.8 46.75" fill="#274fab" fill-rule="evenodd" stroke="none"/>
    <path d="M-107.3 47.65 L-106.8 46.6 -108.2 46.95 -110.0 46.4 -107.65 43.4 -105.85 44.6 -106.2 45.6 -104.8 45.7 Q-100.45 52.1 -96.4 58.75 L-94.05 61.8 Q-91.4 64.6 -87.65 65.7 L-93.35 60.4 -83.65 63.85 -83.95 64.95 -82.1 70.2 Q-91.15 70.05 -97.5 63.45 -104.05 56.6 -107.3 47.65" fill="#f36034" fill-rule="evenodd" stroke="none"/>
    <path d="M-107.3 47.65 L-110.2 47.8 -110.75 43.15 -108.2 41.2 Q-106.0 40.75 -105.1 42.6 L-104.15 44.0 Q-98.8 49.95 -93.05 55.5 -88.95 59.5 -83.4 60.45 L-82.9 61.6 -83.65 63.85 -93.35 60.4 -87.65 65.7 Q-91.4 64.6 -94.05 61.8 L-96.4 58.75 Q-100.45 52.1 -104.8 45.7 L-106.2 45.6 -105.85 44.6 -107.65 43.4 -110.0 46.4 -108.2 46.95 -106.8 46.6 -107.3 47.65" fill="#83291d" fill-rule="evenodd" stroke="none"/>
    <path d="M-67.45 -10.7 L-59.45 -10.2 -57.45 -9.5 Q-59.55 -1.25 -59.45 7.35 -59.3 16.8 -54.85 25.1 -52.6 29.2 -49.1 32.3 -52.45 31.1 -55.15 29.1 -57.95 27.05 -59.8 24.25 -64.7 16.65 -65.9 7.6 -67.15 -1.5 -67.45 -10.7" fill="#c74a0e" fill-rule="evenodd" stroke="none"/>
    <path d="M-88.85 11.0 Q-91.25 4.05 -87.35 -2.2 -82.2 -10.4 -73.2 -13.8 -64.9 -16.9 -56.85 -14.5 L-57.45 -9.5 -59.45 -10.2 -67.45 -10.7 Q-74.8 -10.25 -80.3 -5.35 -87.5 1.25 -88.85 11.0" fill="#999999" fill-rule="evenodd" stroke="none"/>
    <path d="M-88.85 11.0 Q-87.5 1.25 -80.3 -5.35 -74.8 -10.25 -67.45 -10.7 -67.15 -1.5 -65.9 7.6 -64.7 16.65 -59.8 24.25 -57.95 27.05 -55.15 29.1 -52.45 31.1 -49.1 32.3 -48.5 32.75 -49.4 33.1 L-52.6 33.2 Q-56.25 32.85 -59.8 31.9 -64.55 30.7 -69.0 28.65 -75.9 25.35 -81.9 20.6 -84.7 18.3 -86.45 15.25 L-88.85 11.0" fill="#ffec00" fill-rule="evenodd" stroke="none"/>
  </g>
</svg>
