<?xml version="1.0" encoding="UTF-8" standalone="no"?>
<svg xmlns:xlink="http://www.w3.org/1999/xlink" height="80.45px" width="70.5px" xmlns="http://www.w3.org/2000/svg">
  <g transform="matrix(1.0, 0.0, 0.0, 1.0, 60.15, 26.5)">
    <path d="M-32.65 -25.05 L-32.0 -24.85 -30.95 -25.2 -30.2 -24.95 -28.95 -25.95 Q-27.35 -25.7 -25.85 -24.85 -24.55 -24.05 -23.75 -22.75 -20.7 -17.7 -21.3 -11.8 L-22.45 -16.0 Q-22.95 -18.4 -25.65 -18.7 L-27.35 -21.3 -29.05 -19.05 Q-33.45 -18.45 -36.9 -15.9 -37.1 -21.7 -32.65 -25.05" fill="#666666" fill-rule="evenodd" stroke="none"/>
    <path d="M-32.65 -25.05 Q-37.1 -21.7 -36.9 -15.9 -33.45 -18.45 -29.05 -19.05 L-27.35 -21.3 -25.65 -18.7 Q-22.95 -18.4 -22.45 -16.0 L-21.3 -11.8 Q-20.7 -17.7 -23.75 -22.75 -24.55 -24.05 -25.85 -24.85 -27.35 -25.7 -28.95 -25.95 L-30.2 -24.95 -30.95 -25.2 -32.0 -24.85 -32.65 -25.05 M-37.6 -23.0 Q-33.4 -28.15 -27.1 -25.7 -23.2 -24.25 -21.05 -20.6 -17.85 -15.1 -19.55 -8.95 -20.95 -3.95 -26.0 -2.75 -30.35 -1.95 -33.75 -5.0 -41.35 -11.75 -38.2 -21.4 L-37.6 -23.0" fill="#000000" fill-rule="evenodd" stroke="none"/>
    <path d="M-56.05 -11.7 Q-55.9 -6.6 -54.4 -1.65 -52.05 6.0 -45.6 10.5 L-51.5 0.1 -44.5 4.85 -40.95 1.2 Q-38.2 -1.4 -35.0 -2.85 L-32.75 -3.75 Q-28.6 -5.1 -24.05 -5.2 -16.55 -5.3 -9.7 -2.05 1.5 3.4 7.4 14.3 12.2 23.3 9.15 33.15 6.25 42.45 -1.8 48.1 L3.5 48.25 Q7.1 47.4 9.05 44.5 8.7 47.3 6.95 49.4 3.95 53.1 -0.6 53.9 -4.95 54.45 -7.15 50.6 L-6.2 48.0 Q-9.8 49.85 -13.85 48.95 -17.1 48.4 -19.5 46.1 -26.1 39.7 -27.2 30.5 L-40.45 29.15 -27.6 27.5 Q-28.65 26.95 -29.7 26.55 -38.25 22.35 -47.9 21.8 L-48.3 20.35 Q-53.2 17.15 -56.45 12.3 -60.25 6.65 -60.15 0.5 L-53.2 12.3 -55.3 7.05 Q-58.65 -2.2 -56.05 -11.7 M-23.8 -0.8 L-22.6 -1.4 -23.0 -2.0 -16.4 -3.0 Q-25.5 -5.05 -34.0 -1.2 L-28.2 -1.0 -30.1 0.9 -27.6 4.6 -31.0 6.2 -25.55 8.7 -29.2 11.8 -27.6 11.8 -31.6 15.8 Q-23.8 17.15 -16.05 15.6 L-16.9 14.8 -16.0 14.0 -16.8 13.4 -15.4 12.8 -17.75 11.9 -18.1 11.2 -16.6 10.4 -21.9 8.35 -22.4 7.4 -21.75 6.7 -25.2 3.8 -24.65 2.8 -25.65 2.1 -23.8 1.7 -22.8 0.4 -23.8 -0.8 M-16.6 23.2 Q-12.8 24.3 -10.9 27.65 L-10.55 28.6 -9.8 29.25 -10.15 30.45 -16.2 30.8 -9.2 33.8 -11.6 34.2 Q-10.8 34.65 -10.6 35.5 L-10.1 38.0 -12.2 40.15 -14.2 40.6 Q-9.05 45.15 -2.95 42.45 L-1.2 41.6 -1.75 40.6 -1.0 39.2 -4.3 39.15 -4.2 36.75 -0.9 34.85 -2.8 34.2 0.2 33.2 Q-4.55 33.4 -6.75 29.05 L-6.6 28.4 -4.8 27.2 -6.55 25.75 -4.35 24.85 -4.9 24.15 -3.3 23.55 Q-12.5 19.0 -22.6 20.6 L-14.8 23.2 -16.6 23.2 M-24.9 31.35 L-24.25 32.35 Q-22.95 34.6 -20.75 35.8 -19.1 36.8 -17.1 36.8 -20.35 33.0 -24.9 31.35" fill="#000000" fill-rule="evenodd" stroke="none"/>
    <path d="M-23.8 -0.8 L-22.8 0.4 -23.8 1.7 -25.65 2.1 -24.65 2.8 -25.2 3.8 -21.75 6.7 -22.4 7.4 -21.9 8.35 -16.6 10.4 -18.1 11.2 -17.75 11.9 -15.4 12.8 -16.8 13.4 -16.0 14.0 -16.9 14.8 -16.05 15.6 Q-23.8 17.15 -31.6 15.8 L-27.6 11.8 -29.2 11.8 -25.55 8.7 -31.0 6.2 -27.6 4.6 -30.1 0.9 -28.2 -1.0 -34.0 -1.2 Q-25.5 -5.05 -16.4 -3.0 L-23.0 -2.0 -22.6 -1.4 -23.8 -0.8 M-16.6 23.2 L-14.8 23.2 -22.6 20.6 Q-12.5 19.0 -3.3 23.55 L-4.9 24.15 -4.35 24.85 -6.55 25.75 -4.8 27.2 -6.6 28.4 -6.75 29.05 Q-4.55 33.4 0.2 33.2 L-2.8 34.2 -0.9 34.85 -4.2 36.75 -4.3 39.15 -1.0 39.2 -1.75 40.6 -1.2 41.6 -2.95 42.45 Q-9.05 45.15 -14.2 40.6 L-12.2 40.15 -10.1 38.0 -10.6 35.5 Q-10.8 34.65 -11.6 34.2 L-9.2 33.8 -16.2 30.8 -10.15 30.45 -9.8 29.25 -10.55 28.6 -10.9 27.65 Q-12.8 24.3 -16.6 23.2" fill="#666666" fill-rule="evenodd" stroke="none"/>
  </g>
</svg>
