<?xml version="1.0" encoding="UTF-8" standalone="no"?>
<svg xmlns:xlink="http://www.w3.org/1999/xlink" height="124.5px" width="144.8px" xmlns="http://www.w3.org/2000/svg">
  <g transform="matrix(1.0, 0.0, 0.0, 1.0, -29.15, 46.1)">
    <path d="M39.05 -37.75 L36.5 -36.5 Q37.7 -38.1 39.7 -39.5 40.9 -42.1 42.55 -44.2 42.15 -42.95 41.9 -40.75 46.4 -43.1 51.25 -43.1 L52.1 -38.6 54.05 -42.95 Q52.9 -36.2 51.15 -31.45 49.3 -26.75 45.8 -21.5 L44.7 -23.65 39.85 -21.2 Q37.9 -25.95 37.9 -31.15 37.9 -34.5 39.05 -37.75 M80.2 -44.2 Q77.4 -39.5 77.4 -33.15 77.4 -26.35 82.0 -22.65 84.6 -29.0 84.6 -36.85 84.6 -40.7 83.2 -45.15 88.3 -36.15 88.3 -23.4 L83.1 -21.85 Q84.25 -21.15 85.35 -20.6 83.6 -21.1 82.4 -21.65 L81.4 -21.35 81.55 -21.65 81.7 -21.95 Q72.75 -26.2 72.75 -37.6 72.75 -39.4 73.3 -41.7 L80.2 -44.2 M66.35 -44.2 Q69.95 -40.3 69.95 -36.45 69.95 -31.3 65.9 -26.1 L67.25 -25.7 64.4 -21.35 Q60.65 -22.35 58.3 -25.15 56.0 -27.95 56.0 -31.7 56.0 -37.6 62.5 -40.7 L61.25 -41.95 66.35 -44.2 M66.7 -32.35 Q66.7 -36.35 63.2 -40.05 61.35 -39.2 60.35 -37.45 59.35 -35.75 59.35 -33.6 59.35 -28.75 65.05 -26.45 66.7 -29.75 66.7 -32.35 M41.7 -38.55 L41.7 -37.75 41.65 -36.95 Q41.65 -30.6 43.25 -26.75 47.9 -31.0 51.35 -37.1 48.4 -38.85 44.75 -38.85 L41.7 -38.55 M71.85 -12.5 Q73.95 -7.6 73.95 -2.05 73.95 2.25 72.25 6.25 L75.5 4.55 Q73.85 6.3 71.45 7.75 70.55 9.8 69.0 11.6 L69.6 8.9 Q65.5 11.0 59.9 11.5 L57.25 3.7 Q62.35 7.1 67.1 7.1 L69.9 6.85 69.95 4.05 Q69.95 -0.3 69.3 -3.3 68.55 -6.85 66.65 -9.8 L71.85 -12.5 M102.05 -32.75 L99.5 -28.75 95.15 -31.45 Q95.65 -28.05 97.05 -25.35 L99.15 -25.2 Q100.9 -25.2 103.25 -26.4 103.2 -30.0 102.05 -32.75 M108.1 -25.95 L103.25 -22.75 103.25 -25.25 Q100.15 -21.85 96.75 -20.6 L96.75 -23.1 93.0 -21.2 Q91.05 -25.95 91.05 -31.15 91.05 -38.3 95.7 -44.2 95.1 -42.05 94.95 -39.7 97.75 -42.7 101.1 -44.1 L103.2 -39.35 105.15 -42.3 Q104.3 -37.3 102.45 -33.6 106.65 -30.45 108.1 -25.95 M114.4 -28.45 Q114.4 -26.25 114.8 -23.9 L115.25 -23.9 Q118.0 -23.9 120.9 -25.1 123.65 -26.25 125.85 -28.3 L124.6 -21.8 119.8 -21.35 115.1 -21.95 115.55 -19.55 Q114.65 -20.7 113.7 -22.45 111.75 -23.25 110.05 -24.4 L112.95 -23.95 Q110.65 -29.25 110.65 -34.25 110.65 -39.6 112.6 -44.2 L117.55 -41.7 Q115.75 -38.85 115.0 -35.5 114.4 -32.6 114.4 -28.45 M94.8 -37.5 L94.8 -36.95 Q94.8 -34.45 95.05 -32.45 99.5 -34.65 102.8 -38.85 L101.1 -38.9 Q97.65 -38.9 94.8 -37.5 M96.25 -0.05 Q93.7 5.0 93.65 11.75 91.55 7.15 91.55 2.65 91.55 -0.65 92.4 -2.95 L95.7 -1.8 97.4 -2.2 Q99.75 -2.2 101.15 0.0 103.0 -2.2 105.55 -2.2 107.8 -2.2 109.05 -0.75 110.25 0.6 110.25 2.65 110.25 7.15 105.55 11.95 106.95 8.5 106.95 5.0 106.95 3.2 105.95 2.05 104.95 0.95 103.15 0.95 L101.75 1.2 Q102.65 3.6 102.65 6.8 102.65 9.1 102.0 11.55 L97.15 10.3 Q98.95 7.1 98.95 2.8 98.95 1.65 98.45 0.8 97.85 -0.1 96.8 -0.1 L96.25 -0.05 M115.95 -0.4 Q117.85 -2.2 119.75 -2.2 124.5 -2.2 124.5 2.6 124.5 5.05 121.85 7.7 119.3 10.45 116.3 11.35 116.95 14.3 118.1 16.65 L112.9 18.7 112.65 17.4 Q112.3 15.2 112.3 12.1 112.3 7.4 113.55 3.0 114.85 -1.45 116.85 -3.8 L115.95 -0.4 M142.25 -37.05 Q138.35 -39.4 134.5 -39.4 L134.2 -39.4 133.95 -35.7 133.95 -34.25 134.9 -34.2 Q137.6 -34.2 139.45 -34.85 L141.3 -30.6 Q137.45 -30.6 134.1 -31.75 134.4 -28.05 135.6 -24.45 140.8 -25.0 144.2 -27.7 L142.95 -21.35 Q139.25 -21.7 136.0 -23.25 L137.4 -19.95 130.6 -24.0 Q130.6 -28.7 131.15 -33.0 128.95 -34.1 127.2 -35.75 129.35 -34.85 131.4 -34.55 131.8 -36.85 132.5 -39.3 L129.2 -38.75 Q130.85 -40.45 133.25 -41.45 134.1 -43.75 135.6 -46.1 L134.6 -41.95 139.5 -42.7 142.85 -42.35 142.25 -37.05 M173.95 72.45 L167.75 66.25 167.75 30.3 131.7 30.3 125.5 24.1 173.95 24.1 173.95 72.45 M115.55 3.75 Q115.55 7.05 115.95 9.9 117.7 8.95 118.85 7.2 120.1 5.5 120.1 3.75 120.1 2.55 119.35 1.75 118.6 0.95 117.5 0.95 116.5 0.95 115.7 1.65 L115.55 3.75 M85.0 11.6 L84.8 10.7 Q83.55 11.5 82.25 11.5 79.5 11.5 78.0 9.85 76.55 8.15 76.55 5.2 76.55 1.25 78.35 -2.45 L82.85 0.15 Q81.4 1.45 80.55 3.7 79.8 5.65 79.8 7.55 79.8 8.5 80.55 9.25 81.25 9.95 82.25 9.95 83.3 9.95 84.4 8.75 84.1 7.2 84.1 5.65 84.1 0.05 85.65 -4.25 86.35 4.55 89.6 10.1 L85.0 11.6" fill="#ffffff" fill-rule="evenodd" stroke="none"/>
    <path d="M167.75 66.25 L173.95 72.45 125.5 72.45 125.5 24.1 131.7 30.3 131.7 66.25 167.75 66.25" fill="#cccccc" fill-rule="evenodd" stroke="none"/>
    <path d="M81.4 34.0 L81.4 63.1 82.85 63.1 82.85 78.4 29.15 78.4 29.15 63.1 32.35 63.1 32.35 34.0 29.15 34.0 29.15 18.7 82.85 18.7 82.85 34.0 81.4 34.0" fill="#666666" fill-opacity="0.0" fill-rule="evenodd" stroke="none"/>
  </g>
</svg>
