<?xml version="1.0" encoding="UTF-8" standalone="no"?>
<svg xmlns:xlink="http://www.w3.org/1999/xlink" height="82.2px" width="58.2px" xmlns="http://www.w3.org/2000/svg">
  <g transform="matrix(1.0, 0.0, 0.0, 1.0, 67.6, -35.85)">
    <path d="M-67.6 72.9 L-67.6 64.9 -38.55 35.85 -9.5 64.9 -9.5 72.9 -38.55 43.85 -67.6 72.9 M-67.6 87.9 L-67.6 79.9 -38.55 50.85 -9.5 79.9 -9.5 87.9 -38.55 58.85 -67.6 87.9" fill="#ffffff" fill-rule="evenodd" stroke="none"/>
    <path d="M-38.55 65.85 L-9.5 94.9 -9.5 102.9 -38.55 73.85 -67.6 102.9 -67.6 94.9 -38.55 65.85" fill="#ffffff" fill-opacity="0.8" fill-rule="evenodd" stroke="none"/>
    <path d="M-9.4 110.05 L-9.4 118.05 -38.45 89.0 -67.5 118.05 -67.5 110.05 -38.45 81.0 -9.4 110.05" fill="#ffffff" fill-opacity="0.4" fill-rule="evenodd" stroke="none"/>
  </g>
</svg>
