<?xml version="1.0" encoding="UTF-8" standalone="no"?>
<svg xmlns:xlink="http://www.w3.org/1999/xlink" height="25.3px" width="242.3px" xmlns="http://www.w3.org/2000/svg">
  <g transform="matrix(1.0, 0.0, 0.0, 1.0, 115.4, 25.15)">
    <path d="M5.5 -12.9 Q3.05 -10.3 2.45 -6.85 2.1 -4.7 3.8 -3.55 L6.5 -4.0 8.25 -17.15 12.05 -3.15 2.7 -2.15 Q-0.9 -5.25 -0.45 -10.3 -0.25 -12.95 1.1 -15.4 L5.5 -12.9 M19.25 -3.15 L14.8 -1.65 15.45 -17.15 16.05 -12.35 21.25 -15.1 Q22.75 -15.0 23.95 -14.2 25.45 -13.1 25.55 -11.4 26.0 -5.5 21.6 -1.65 22.3 -3.05 22.6 -4.9 22.95 -6.9 22.25 -8.9 21.4 -11.45 18.8 -11.7 17.6 -11.65 16.3 -11.1 L19.25 -3.15 M36.1 -13.85 L41.5 -15.45 42.6 -10.1 35.95 -12.35 31.4 -1.65 Q32.55 -5.45 32.45 -9.45 L32.3 -12.15 Q32.15 -15.25 31.2 -17.95 L30.5 -19.9 28.15 -20.05 28.45 -20.15 29.2 -20.45 29.6 -20.7 29.05 -22.6 34.15 -25.15 35.1 -22.4 44.6 -23.7 43.1 -17.55 35.75 -19.65 36.1 -13.85 M59.95 -15.55 L65.6 -12.8 62.8 -17.95 Q71.5 -11.35 66.85 -2.2 L65.65 -0.2 64.5 -1.8 Q59.0 -2.15 58.9 -7.6 58.85 -11.6 59.95 -15.55 M55.1 -2.9 L49.6 -1.65 51.1 -7.15 Q53.15 -15.5 51.35 -23.95 52.85 -20.6 53.5 -17.1 54.75 -10.1 55.1 -2.9 M65.45 -11.35 L61.0 -8.0 61.25 -5.35 63.9 -3.5 65.45 -11.35 M78.6 -1.65 L75.05 -4.05 70.5 -13.9 74.9 -15.45 76.0 -5.55 79.1 -16.85 80.4 -7.15 82.5 -6.35 83.3 -15.45 88.15 -13.95 83.65 -6.1 86.25 -5.85 84.75 -1.65 79.6 -6.5 78.6 -1.65 M96.4 -13.85 L94.75 -13.55 Q94.05 -13.25 94.05 -12.85 94.05 -12.45 94.75 -12.15 L96.4 -11.85 98.05 -12.15 Q98.75 -12.45 98.75 -12.85 L98.05 -13.55 96.4 -13.85 M99.05 -14.05 L100.75 -12.35 94.75 -8.8 92.8 -9.6 Q93.0 -7.9 94.5 -7.0 L95.4 -6.6 96.3 -6.25 Q98.15 -5.85 99.85 -6.7 L99.25 -2.3 Q94.65 -0.55 91.7 -4.25 88.35 -8.45 91.6 -12.8 L89.5 -15.4 93.35 -14.15 Q96.25 -15.95 99.05 -14.05 M108.45 -12.6 L114.1 -15.1 112.0 -9.95 107.95 -10.35 106.4 -0.25 102.55 -14.2 107.2 -15.05 108.45 -12.6 M115.15 -11.05 L125.5 -15.4 126.65 -11.05 120.05 -11.75 126.9 -5.1 123.1 -1.7 122.45 -4.35 117.05 -1.8 115.75 -6.85 121.9 -5.9 118.45 -11.55 115.15 -11.05 M-113.2 -13.9 L-101.95 -24.45 -98.8 -19.1 -112.3 -12.95 -98.8 -6.8 -101.95 -1.5 -113.2 -12.05 -115.4 -9.3 -113.65 -12.95 -115.4 -16.6 -113.2 -13.9 M-81.75 -23.95 Q-76.65 -15.4 -77.7 -5.3 L-78.0 -2.9 -83.5 -1.65 Q-79.75 -11.25 -81.3 -21.3 L-81.75 -23.95 M-92.8 -5.0 L-90.25 -3.5 -90.35 -5.5 -88.35 -11.5 Q-90.0 -11.35 -91.15 -10.4 -93.8 -8.1 -92.8 -5.0 M-89.65 -1.8 Q-96.25 -2.5 -96.2 -9.75 -96.15 -13.0 -94.2 -15.55 L-88.55 -12.8 -91.35 -17.95 Q-83.35 -12.35 -86.8 -3.45 -87.45 -1.75 -88.5 -0.2 L-89.65 -1.8 M-62.9 -13.55 L-63.6 -12.85 Q-63.6 -12.45 -62.9 -12.15 L-61.25 -11.85 Q-60.3 -11.85 -59.6 -12.15 -58.9 -12.45 -58.9 -12.85 -58.9 -13.25 -59.6 -13.55 L-61.25 -13.85 -62.9 -13.55 M-68.15 -15.4 L-65.3 -13.45 Q-62.1 -16.05 -58.65 -13.9 L-56.9 -12.35 -62.9 -8.8 -64.75 -10.4 Q-64.95 -8.25 -63.05 -7.15 L-62.25 -6.65 -61.35 -6.3 Q-59.55 -5.85 -57.8 -6.7 L-58.4 -2.3 Q-63.9 -0.35 -66.7 -5.35 -68.8 -9.1 -66.05 -12.8 L-68.15 -15.4 M-70.25 -2.9 L-75.75 -1.65 Q-71.6 -12.55 -74.0 -23.95 -68.9 -15.35 -69.95 -5.3 L-70.25 -2.9 M-54.8 -8.25 L-55.0 -12.45 -49.55 -16.85 -51.1 -14.7 -45.0 -14.95 -45.0 -10.2 -51.85 -12.65 -51.75 -9.75 -50.55 -8.1 -48.95 -6.65 -48.15 -6.3 -46.2 -6.5 -44.0 -7.3 -46.2 -2.05 -49.35 -1.75 Q-53.65 -2.35 -54.55 -6.5 L-54.8 -8.25 M-34.55 -14.85 L-30.1 -15.25 -32.1 -11.1 -34.8 -11.5 -39.4 0.15 -38.5 -11.5 -42.75 -10.55 -38.8 -13.3 -40.55 -19.7 -35.4 -20.9 -34.55 -14.85 M-3.45 -17.15 L-10.7 -18.45 -5.55 -7.75 -2.35 -9.1 -5.2 -6.65 -4.7 -1.15 -6.75 -5.55 -17.05 -1.8 -18.65 -8.35 -7.95 -7.2 -15.75 -18.1 -19.25 -16.75 -16.15 -19.35 -16.7 -22.35 -11.8 -24.95 -11.55 -22.0 -5.05 -23.75 -3.45 -17.15" fill="#ffffff" fill-rule="evenodd" stroke="none"/>
  </g>
</svg>
