<?xml version="1.0" encoding="UTF-8" standalone="no"?>
<svg xmlns:xlink="http://www.w3.org/1999/xlink" height="100.2px" width="32.05px" xmlns="http://www.w3.org/2000/svg">
  <g transform="matrix(1.0, 0.0, 0.0, 1.0, 14.65, 87.7)">
    <path d="M2.85 -87.45 L3.35 -87.55 Q4.0 -86.05 4.95 -84.5 L7.2 -79.9 8.1 -77.55 9.6 -73.25 9.4 -72.65 6.75 -71.7 Q6.65 -71.65 7.1 -69.05 L7.6 -65.15 8.0 -62.35 8.65 -55.9 Q9.2 -51.1 9.4 -44.75 L9.45 -40.3 9.4 -36.95 9.95 -35.8 9.5 -28.55 9.45 -27.9 7.35 -25.85 7.35 -25.8 9.55 -26.95 17.4 -23.25 13.1 -20.85 12.1 -13.95 6.0 -11.1 6.0 -5.65 4.0 -5.5 3.7 12.25 3.2 12.5 -1.1 12.5 -1.6 12.25 -1.9 -5.5 -3.75 -5.65 -3.7 -11.55 -9.15 -13.45 -9.7 -13.75 -10.45 -20.6 -14.65 -22.9 Q-12.65 -23.85 -7.15 -26.75 L-6.75 -26.6 -6.5 -26.5 -6.0 -26.25 -7.75 -28.15 -7.9 -36.15 -7.4 -37.1 -7.4 -37.15 -7.3 -40.3 Q-6.9 -56.1 -4.65 -71.45 L-7.25 -72.25 -7.9 -73.6 -5.35 -79.85 -3.35 -84.4 -1.95 -87.3 -1.05 -87.7 Q-0.35 -87.1 -0.35 -87.25 L-0.15 -87.3 2.3 -87.4 2.65 -87.2 2.85 -87.45 M2.05 -74.6 L2.05 -85.65 1.25 -86.25 -0.05 -85.95 0.05 -73.7 0.0 -48.0 0.0 -41.15 2.15 -41.1 2.15 -57.05 2.15 -59.1 2.05 -74.6 M7.45 -33.05 L7.35 -27.6 7.65 -27.95 7.75 -27.95 8.15 -28.5 8.25 -28.7 8.4 -28.95 8.45 -29.1 8.45 -31.9 8.45 -32.55 8.45 -34.05 8.45 -35.1 8.4 -35.95 8.3 -36.3 7.65 -37.6 7.2 -38.6 6.5 -40.05 6.35 -40.3 6.0 -41.05 7.95 -38.65 7.9 -39.6 7.9 -40.15 7.9 -40.3 7.8 -44.7 7.6 -47.05 7.25 -52.3 6.3 -61.55 5.45 -68.75 5.0 -71.55 4.9 -72.55 Q6.45 -72.75 7.8 -73.6 L6.35 -77.55 Q4.45 -82.8 3.35 -84.6 L3.0 -85.25 2.9 -85.5 2.85 -85.55 Q3.45 -63.55 2.9 -42.45 L3.0 -41.05 5.95 -40.6 5.95 -40.45 5.95 -40.3 6.1 -38.6 6.2 -36.0 6.3 -33.7 7.45 -33.05 M1.35 -40.0 L-2.45 -39.3 -2.65 -38.1 -2.7 -37.3 -2.75 -37.05 -2.8 -35.35 -2.7 -34.35 -2.7 -34.2 -2.45 -34.3 -2.3 -34.35 -2.25 -35.3 -2.3 -36.65 1.3 -37.3 4.85 -36.75 5.35 -34.2 5.2 -37.4 4.95 -39.7 1.35 -40.0 M-3.2 -24.75 L-2.9 -24.6 -2.75 -27.85 -2.65 -29.1 -2.25 -29.15 0.05 -29.4 2.6 -29.4 5.15 -29.05 5.2 -28.95 5.3 -27.85 5.45 -24.8 6.75 -25.5 6.65 -27.85 6.75 -30.0 6.55 -32.25 5.1 -32.9 3.55 -33.35 0.25 -33.45 -0.9 -33.4 -3.25 -32.65 -4.0 -32.25 -3.75 -27.2 -3.7 -25.0 -3.4 -24.85 -3.2 -24.75 M-0.3 -34.45 L4.15 -34.3 4.15 -35.7 4.05 -35.95 1.35 -36.2 -1.6 -35.95 -1.6 -34.3 -0.3 -34.45 M1.65 -22.85 L4.35 -24.25 4.3 -26.45 4.2 -27.95 -1.45 -28.15 -1.75 -24.0 1.0 -22.55 1.65 -22.85 M3.2 -18.9 L4.15 -17.05 14.75 -23.1 9.8 -25.55 1.95 -21.3 1.9 -19.0 2.35 -18.95 3.2 -18.9 M5.65 -14.25 L6.2 -12.95 10.45 -14.55 10.9 -19.7 8.9 -18.55 4.85 -16.2 5.65 -14.25 M-0.35 -18.95 L0.35 -19.0 0.3 -21.35 -7.3 -25.2 Q-8.3 -24.6 -12.0 -22.85 L-1.8 -17.4 -1.6 -17.85 -1.1 -18.9 -0.35 -18.95 M4.8 -13.05 L2.55 -17.55 -0.35 -17.6 -2.65 -12.9 -2.55 -7.0 0.95 -7.0 0.7 -7.05 4.65 -7.05 4.8 -13.05 M-4.45 -33.3 L-3.8 -33.75 -3.8 -35.35 Q-3.8 -37.85 -3.25 -40.3 L-3.2 -40.65 -0.75 -41.1 -0.75 -41.25 Q-1.4 -62.0 -0.8 -85.9 L-0.9 -85.8 -1.55 -84.6 Q-2.95 -82.2 -5.95 -73.6 -4.6 -72.75 -3.05 -72.55 L-3.4 -69.05 -3.8 -64.95 -5.3 -49.95 -5.6 -46.3 -5.6 -46.2 -5.85 -43.45 -5.95 -41.1 -6.0 -40.3 -6.05 -39.6 -6.1 -38.65 -4.2 -41.05 -4.55 -40.3 -4.65 -40.05 -5.35 -38.6 -5.85 -37.6 -6.5 -36.3 -6.55 -35.95 -6.6 -35.1 -6.6 -34.05 -6.6 -32.55 -6.6 -31.9 -6.6 -29.1 -6.55 -28.95 -6.4 -28.7 -6.3 -28.5 -5.85 -27.95 -5.75 -27.9 -5.65 -27.8 -5.2 -27.25 -5.0 -27.05 -4.75 -26.85 -4.75 -27.2 -5.0 -27.8 -4.85 -28.05 -4.9 -33.05 -4.45 -33.3 M-8.25 -19.4 L-8.85 -19.7 -8.3 -14.55 -4.1 -12.95 -4.05 -12.95 -3.95 -13.1 -3.7 -13.65 -2.45 -16.25 -6.2 -18.25 -8.25 -19.4 M1.05 11.0 L2.6 11.15 2.85 -5.45 -0.8 -5.45 -0.45 11.15 1.0 11.0 1.05 11.0" fill="#000000" fill-rule="evenodd" stroke="none"/>
    <path d="M6.1 -38.6 L5.95 -40.3 5.95 -40.45 5.95 -40.6 3.0 -41.05 2.9 -42.45 Q3.45 -63.55 2.85 -85.55 L2.9 -85.5 3.0 -85.25 3.35 -84.6 Q4.45 -82.8 6.35 -77.55 L7.8 -73.6 Q6.45 -72.75 4.9 -72.55 L5.0 -71.55 5.45 -68.75 6.3 -61.55 7.25 -52.3 7.6 -47.05 7.8 -44.7 7.9 -40.3 7.9 -40.15 7.9 -39.6 7.95 -38.65 6.0 -41.05 6.35 -40.3 6.5 -40.05 7.2 -38.6 7.65 -37.6 8.3 -36.3 8.4 -35.95 8.45 -35.1 8.45 -34.05 8.45 -32.55 8.45 -31.9 8.45 -29.1 8.4 -28.95 8.25 -28.7 8.15 -28.5 7.75 -27.95 7.65 -27.95 7.35 -27.6 7.45 -33.05 7.45 -33.15 Q7.6 -35.55 6.1 -38.6 M3.6 -79.8 L3.6 -78.7 3.6 -73.4 3.7 -67.75 3.9 -62.2 3.9 -55.85 3.55 -47.15 3.35 -41.7 5.35 -41.35 5.55 -48.3 5.15 -58.35 4.55 -67.05 4.45 -67.75 4.3 -69.6 4.25 -72.3 Q4.25 -74.25 4.85 -74.5 5.35 -74.85 5.15 -76.5 4.9 -78.2 3.5 -82.5 L3.6 -79.8 M0.85 -39.05 L0.65 -38.5 0.85 -38.0 Q1.0 -37.75 1.25 -37.75 L1.65 -38.0 1.85 -38.5 1.65 -39.05 1.25 -39.3 Q1.0 -39.3 0.85 -39.05 M1.35 -40.0 L4.95 -39.7 5.2 -37.4 5.35 -34.2 4.85 -36.75 1.3 -37.3 -2.3 -36.65 -2.25 -35.3 -2.3 -34.35 -2.45 -34.3 -2.7 -34.2 -2.7 -34.35 -2.8 -35.35 -2.75 -37.05 -2.7 -37.3 -2.65 -38.1 -2.45 -39.3 1.35 -40.0 M-3.4 -24.85 L-3.7 -25.0 -3.75 -27.2 -4.0 -32.25 -3.25 -32.65 -0.9 -33.4 0.25 -33.45 3.55 -33.35 5.1 -32.9 6.55 -32.25 6.75 -30.0 6.65 -27.85 6.75 -25.5 5.45 -24.8 5.3 -27.85 5.2 -28.95 5.15 -29.05 2.6 -29.4 0.05 -29.4 -2.25 -29.15 -2.65 -29.1 -2.75 -27.85 -2.9 -24.6 -3.2 -24.75 -3.05 -26.6 -2.95 -27.9 -3.0 -28.6 Q-3.1 -29.4 -2.6 -29.5 L-2.45 -29.5 -1.9 -29.6 -0.7 -29.8 -0.35 -29.85 0.85 -29.85 Q1.3 -29.8 1.3 -30.15 L1.3 -30.35 1.25 -30.75 1.25 -31.0 1.15 -32.05 1.05 -32.65 1.05 -32.75 -1.15 -32.7 -2.45 -32.45 -2.7 -32.45 -3.1 -32.15 -3.2 -31.55 -3.25 -31.35 -3.3 -30.85 -3.35 -30.25 -3.4 -28.5 -3.45 -25.9 -3.45 -25.55 -3.45 -25.2 -3.4 -24.85 M2.15 -32.75 L2.0 -32.75 1.85 -31.45 1.85 -31.1 Q1.75 -30.6 1.9 -30.15 L1.95 -30.1 2.0 -30.1 Q2.4 -29.9 2.6 -30.25 L2.7 -31.2 2.8 -32.15 Q2.85 -32.8 2.15 -32.75 M3.2 -18.9 L6.65 -21.8 8.8 -23.65 9.9 -24.8 9.85 -24.85 7.15 -23.55 2.7 -21.1 2.35 -20.2 2.35 -18.95 1.9 -19.0 1.95 -21.3 9.8 -25.55 14.75 -23.1 4.15 -17.05 3.2 -18.9 M8.9 -18.55 L10.9 -19.7 10.45 -14.55 6.2 -12.95 5.65 -14.25 7.95 -15.35 8.9 -18.55 M-1.6 -17.85 L-1.8 -17.4 -12.0 -22.85 Q-8.3 -24.6 -7.3 -25.2 L0.3 -21.35 0.35 -19.0 -0.35 -18.95 -0.65 -19.4 -3.25 -20.95 Q-4.75 -21.8 -6.6 -21.95 L-10.45 -22.6 -1.6 -17.85 M4.8 -13.05 L4.65 -7.05 0.7 -7.05 0.95 -7.0 -2.55 -7.0 -2.65 -12.9 -0.35 -17.6 2.55 -17.55 4.8 -13.05 M4.15 -12.1 L1.2 -7.5 2.25 -7.6 4.35 -10.4 4.15 -12.1 M3.5 -13.65 L3.2 -14.6 2.05 -17.2 -0.1 -16.95 -1.25 -14.45 -1.8 -11.75 -1.95 -8.6 -1.8 -7.5 -1.65 -7.45 -1.05 -7.4 -0.5 -7.65 -0.25 -7.75 3.5 -13.65 M2.25 -2.7 L2.25 -4.95 -0.6 -4.7 -0.1 10.5 0.55 5.9 0.95 3.95 1.9 -0.5 2.25 -2.7 M-5.0 -27.8 L-4.75 -27.2 -4.75 -26.85 -5.0 -27.05 -5.2 -27.25 -5.65 -27.8 -5.75 -27.9 -5.85 -27.95 -6.3 -28.5 -6.4 -28.7 -6.55 -28.95 -6.6 -29.1 -6.6 -31.9 -6.6 -32.55 -6.6 -34.05 -6.6 -35.1 -6.55 -35.95 -6.5 -36.3 -5.85 -37.6 -5.35 -38.6 -4.65 -40.05 -4.55 -40.3 -4.2 -41.05 -6.1 -38.65 -6.05 -39.6 -6.0 -40.3 -5.95 -41.1 -5.85 -43.45 -5.6 -46.2 -5.6 -46.3 -5.3 -49.95 -3.8 -64.95 -3.4 -69.05 -3.05 -72.55 Q-4.6 -72.75 -5.95 -73.6 -2.95 -82.2 -1.55 -84.6 L-0.9 -85.8 -0.8 -85.9 Q-1.4 -62.0 -0.75 -41.25 L-0.75 -41.1 -3.2 -40.65 -3.25 -40.3 Q-3.8 -37.85 -3.8 -35.35 L-3.8 -33.75 -4.45 -33.3 -4.25 -39.35 -5.4 -36.7 -5.9 -35.7 -5.9 -34.55 -5.95 -30.5 Q-5.95 -28.6 -5.0 -27.8 M-2.1 -73.05 Q-3.2 -65.75 -3.8 -57.75 L-4.9 -46.05 -5.55 -40.05 -3.8 -42.05 -1.6 -73.45 -1.9 -73.65 -2.7 -74.2 Q-3.45 -76.05 -1.55 -82.3 -4.0 -78.4 -4.9 -74.25 -4.0 -73.55 -2.1 -73.05 M-2.05 -39.35 L-2.25 -37.35 -0.1 -37.6 0.25 -39.45 -2.05 -39.35 M-3.95 -13.1 L-4.05 -12.95 -4.1 -12.95 -8.3 -14.55 -8.85 -19.7 -8.25 -19.4 -7.85 -14.85 -4.05 -13.1 -3.95 -13.1 M-6.2 -18.25 L-2.45 -16.25 -3.7 -13.65 -6.1 -14.6 -6.2 -18.25 M-9.7 -23.3 L-9.65 -23.2 -7.2 -23.1 -8.85 -23.9 -9.7 -23.3 M1.05 11.0 L1.0 11.0 -0.45 11.15 -0.8 -5.45 2.85 -5.45 2.6 11.15 1.05 11.0 M0.5 10.65 L1.7 10.6 1.95 7.55 1.95 2.25 1.0 6.65 0.6 8.75 0.5 10.65" fill="#ff9900" fill-rule="evenodd" stroke="none"/>
    <path d="M1.35 -36.2 L4.05 -35.95 4.15 -35.7 4.15 -34.3 -0.3 -34.45 -0.8 -34.85 -0.05 -35.65 0.5 -35.8 0.4 -35.45 0.5 -35.3 0.65 -35.2 0.9 -35.4 0.9 -35.7 Q0.85 -36.0 1.35 -36.2 M2.65 -35.65 L2.9 -35.55 2.95 -35.05 2.85 -35.05 2.7 -35.05 2.55 -35.2 2.55 -35.45 Q2.3 -34.95 2.8 -34.75 L3.2 -34.65 Q3.8 -35.35 2.9 -35.7 L2.65 -35.65 M2.05 -35.15 L1.95 -35.45 1.65 -35.65 1.35 -35.45 1.25 -35.15 1.35 -34.8 1.65 -34.7 1.95 -34.8 2.05 -35.15 M2.5 -26.55 L2.15 -26.75 Q1.95 -26.75 1.85 -26.55 L1.65 -26.25 1.85 -25.9 2.15 -25.8 2.5 -25.9 2.6 -26.25 2.5 -26.55 M3.0 -24.95 L2.9 -25.2 Q2.95 -24.3 2.15 -24.75 L2.35 -24.9 Q2.8 -25.15 2.4 -25.45 L2.25 -25.15 2.2 -25.0 2.2 -24.95 2.15 -24.75 Q1.95 -24.2 2.9 -24.6 3.2 -23.9 3.5 -24.3 3.9 -25.1 3.0 -24.95 M1.65 -22.85 L0.95 -23.2 1.2 -23.8 -0.15 -24.5 0.25 -25.25 1.3 -25.45 Q1.6 -25.65 1.15 -25.8 0.5 -26.05 1.55 -26.25 L1.95 -27.3 3.05 -27.05 3.55 -26.3 Q4.0 -25.75 4.3 -26.45 L4.35 -24.25 1.65 -22.85" fill="#66ff00" fill-rule="evenodd" stroke="none"/>
    <path d="M0.05 -73.7 L-0.05 -85.95 1.25 -86.25 2.05 -85.65 2.05 -74.6 1.85 -84.2 1.6 -64.4 1.55 -67.25 1.4 -74.95 1.35 -78.7 1.2 -82.6 0.95 -84.75 0.9 -84.75 0.5 -69.9 0.3 -84.25 0.05 -73.7 M2.15 -57.05 L2.15 -41.1 0.0 -41.15 0.0 -48.0 0.2 -42.7 0.6 -50.2 0.75 -42.45 1.0 -44.35 1.3 -47.8 1.4 -50.85 1.55 -55.4 1.75 -42.55 2.05 -47.05 2.05 -51.15 2.05 -55.0 2.15 -57.05" fill="#66ccff" fill-rule="evenodd" stroke="none"/>
    <path d="M6.1 -38.6 Q7.6 -35.55 7.45 -33.15 L7.45 -33.05 6.3 -33.7 6.2 -36.0 6.1 -38.6 M3.6 -79.8 L3.5 -82.5 Q4.9 -78.2 5.15 -76.5 5.35 -74.85 4.85 -74.5 4.25 -74.25 4.25 -72.3 L4.3 -69.6 4.45 -67.75 4.55 -67.05 5.15 -58.35 5.55 -48.3 5.35 -41.35 3.35 -41.7 3.55 -47.15 3.9 -55.85 3.9 -62.2 3.7 -67.75 3.6 -73.4 3.6 -78.7 3.6 -79.8 M0.85 -39.05 Q1.0 -39.3 1.25 -39.3 L1.65 -39.05 1.85 -38.5 1.65 -38.0 1.25 -37.75 Q1.0 -37.75 0.85 -38.0 L0.65 -38.5 0.85 -39.05 M-3.2 -24.75 L-3.4 -24.85 -3.45 -25.2 -3.45 -25.55 -3.45 -25.9 -3.4 -28.5 -3.35 -30.25 -3.3 -30.85 -3.25 -31.35 -3.2 -31.55 -3.1 -32.15 -2.7 -32.45 -2.45 -32.45 -1.15 -32.7 1.05 -32.75 1.05 -32.65 1.15 -32.05 1.25 -31.0 1.25 -30.75 1.3 -30.35 1.3 -30.15 Q1.3 -29.8 0.85 -29.85 L-0.35 -29.85 -0.7 -29.8 -1.9 -29.6 -2.45 -29.5 -2.6 -29.5 Q-3.1 -29.4 -3.0 -28.6 L-2.95 -27.9 -3.05 -26.6 -3.2 -24.75 M2.15 -32.75 Q2.85 -32.8 2.8 -32.15 L2.7 -31.2 2.6 -30.25 Q2.4 -29.9 2.0 -30.1 L1.95 -30.1 1.9 -30.15 Q1.75 -30.6 1.85 -31.1 L1.85 -31.45 2.0 -32.75 2.15 -32.75 M2.35 -18.95 L2.35 -20.2 2.7 -21.1 7.15 -23.55 9.85 -24.85 9.9 -24.8 8.8 -23.65 6.65 -21.8 3.2 -18.9 2.35 -18.95 M8.9 -18.55 L7.95 -15.35 5.65 -14.25 4.85 -16.2 8.9 -18.55 M-0.35 -18.95 L-1.1 -18.9 -1.6 -17.85 -10.45 -22.6 -6.6 -21.95 Q-4.75 -21.8 -3.25 -20.95 L-0.65 -19.4 -0.35 -18.95 M3.5 -13.65 L-0.25 -7.75 -0.5 -7.65 -1.05 -7.4 -1.65 -7.45 -1.8 -7.5 -1.95 -8.6 -1.8 -11.75 -1.25 -14.45 -0.1 -16.95 2.05 -17.2 3.2 -14.6 3.5 -13.65 M4.15 -12.1 L4.35 -10.4 2.25 -7.6 1.2 -7.5 4.15 -12.1 M2.25 -2.7 L1.9 -0.5 0.95 3.95 0.55 5.9 -0.1 10.5 -0.6 -4.7 2.25 -4.95 2.25 -2.7 M-5.0 -27.8 Q-5.95 -28.6 -5.95 -30.5 L-5.9 -34.55 -5.9 -35.7 -5.4 -36.7 -4.25 -39.35 -4.45 -33.3 -4.9 -33.05 -4.85 -28.05 -5.0 -27.8 M-2.1 -73.05 Q-4.0 -73.55 -4.9 -74.25 -4.0 -78.4 -1.55 -82.3 -3.45 -76.05 -2.7 -74.2 L-1.9 -73.65 -1.6 -73.45 -3.8 -42.05 -5.55 -40.05 -4.9 -46.05 -3.8 -57.75 Q-3.2 -65.75 -2.1 -73.05 M-2.05 -39.35 L0.25 -39.45 -0.1 -37.6 -2.25 -37.35 -2.05 -39.35 M-8.25 -19.4 L-6.2 -18.25 -6.1 -14.6 -3.7 -13.65 -3.95 -13.1 -4.05 -13.1 -7.85 -14.85 -8.25 -19.4 M-9.7 -23.3 L-8.85 -23.9 -7.2 -23.1 -9.65 -23.2 -9.7 -23.3 M0.5 10.65 L0.6 8.75 1.0 6.65 1.95 2.25 1.95 7.55 1.7 10.6 0.5 10.65" fill="#d22b00" fill-rule="evenodd" stroke="none"/>
    <path d="M1.35 -36.2 Q0.85 -36.0 0.9 -35.7 L0.9 -35.4 0.65 -35.2 0.5 -35.3 0.4 -35.45 0.5 -35.8 -0.05 -35.65 -0.8 -34.85 -0.3 -34.45 -1.6 -34.3 -1.6 -35.95 1.35 -36.2 M2.65 -35.65 L2.9 -35.7 Q3.8 -35.35 3.2 -34.65 L2.8 -34.75 Q2.3 -34.95 2.55 -35.45 L2.55 -35.2 2.7 -35.05 2.85 -35.05 2.95 -35.05 2.9 -35.55 2.65 -35.65 M2.9 -24.6 Q1.95 -24.2 2.15 -24.75 L2.2 -24.95 2.2 -25.0 2.25 -25.15 2.4 -25.45 Q2.8 -25.15 2.35 -24.9 L2.15 -24.75 Q2.95 -24.3 2.9 -25.2 L3.0 -24.95 2.9 -24.6 M4.3 -26.45 Q4.0 -25.75 3.55 -26.3 L3.05 -27.05 1.95 -27.3 1.55 -26.25 Q0.5 -26.05 1.15 -25.8 1.6 -25.65 1.3 -25.45 L0.25 -25.25 -0.15 -24.5 1.2 -23.8 0.95 -23.2 1.65 -22.85 1.0 -22.55 -1.75 -24.0 -1.45 -28.15 4.2 -27.95 4.3 -26.45" fill="#158c00" fill-rule="evenodd" stroke="none"/>
    <path d="M2.05 -35.15 L1.95 -34.8 1.65 -34.7 1.35 -34.8 1.25 -35.15 1.35 -35.45 1.65 -35.65 1.95 -35.45 2.05 -35.15 M2.5 -26.55 L2.6 -26.25 2.5 -25.9 2.15 -25.8 1.85 -25.9 1.65 -26.25 1.85 -26.55 Q1.95 -26.75 2.15 -26.75 L2.5 -26.55 M3.0 -24.95 Q3.9 -25.1 3.5 -24.3 3.2 -23.9 2.9 -24.6 L3.0 -24.95" fill="#eeffb3" fill-rule="evenodd" stroke="none"/>
    <path d="M0.5 -69.9 L0.9 -84.75 0.95 -84.75 1.2 -82.6 1.35 -78.7 1.4 -74.95 1.55 -67.25 1.6 -64.4 1.55 -55.4 1.4 -50.85 1.3 -47.8 1.0 -44.35 0.75 -42.45 0.6 -50.2 0.5 -69.9" fill="#f0faff" fill-rule="evenodd" stroke="none"/>
    <path d="M0.05 -73.7 L0.3 -84.25 0.5 -69.9 0.6 -50.2 0.2 -42.7 0.0 -48.0 0.05 -73.7 M1.6 -64.4 L1.85 -84.2 2.05 -74.6 2.15 -59.1 2.15 -57.05 2.05 -55.0 2.05 -51.15 2.05 -47.05 1.75 -42.55 1.55 -55.4 1.6 -64.4" fill="#0074f4" fill-rule="evenodd" stroke="none"/>
    <path d="M4.65 -80.95 L5.95 -77.85 6.95 -74.65 6.9 -74.4 6.5 -74.4 5.35 -73.9 5.1 -73.95 5.0 -74.25 Q5.0 -74.65 5.5 -74.9 L5.95 -75.25 5.8 -76.4 Q5.8 -76.85 5.2 -78.0 L4.95 -78.8 4.9 -79.2 4.95 -79.55 4.55 -80.95 4.65 -80.95 M4.55 -71.05 Q5.2 -68.6 5.55 -64.5 L6.0 -58.5 6.3 -52.25 6.45 -46.0 6.2 -41.55 6.1 -41.45 Q5.65 -41.45 5.65 -41.75 L5.65 -42.25 5.65 -48.95 5.55 -52.45 5.0 -61.2 4.8 -65.6 Q4.7 -65.7 4.55 -67.6 L4.3 -69.9 Q4.3 -70.9 4.55 -71.05 M4.35 -72.75 L4.65 -72.2 4.3 -72.05 4.2 -72.2 4.2 -72.75 4.35 -72.75 M3.55 -39.15 L3.6 -38.75 Q3.25 -39.8 3.55 -39.15 M4.3 -37.85 Q4.1 -37.95 3.85 -38.1 L4.35 -39.15 4.6 -39.1 Q5.95 -37.35 4.9 -34.85 L4.45 -37.4 4.3 -37.85 M7.0 -38.1 L8.4 -34.75 8.5 -32.1 8.4 -28.6 7.95 -28.5 7.6 -28.55 7.55 -28.85 7.85 -30.5 7.85 -32.1 7.8 -35.05 6.9 -38.1 7.0 -38.1 M6.3 -32.0 L6.45 -31.1 6.55 -29.4 Q6.45 -25.4 5.95 -25.4 5.3 -25.4 5.5 -26.2 L5.7 -29.35 5.5 -31.75 5.7 -32.2 Q6.0 -32.4 6.3 -32.0 M5.25 -31.25 L5.25 -30.05 5.0 -30.0 4.95 -30.0 Q4.85 -29.85 4.7 -29.85 4.55 -29.9 4.55 -30.25 L4.45 -30.45 4.5 -32.7 Q5.2 -32.8 5.25 -32.35 L5.25 -31.25 M13.45 -23.3 Q13.45 -23.15 11.75 -22.25 L8.95 -20.7 6.45 -19.2 4.35 -18.0 4.0 -18.15 Q4.5 -18.9 5.95 -19.7 L8.45 -21.15 10.15 -22.5 Q11.85 -23.65 12.4 -23.65 L13.2 -23.55 13.45 -23.3 M10.8 -23.75 L5.35 -20.2 6.15 -21.1 7.65 -22.0 Q9.95 -23.6 10.65 -23.8 L10.8 -23.75 M11.7 -23.95 L11.3 -23.65 10.95 -23.85 10.9 -24.15 11.6 -24.15 11.7 -23.95 M10.55 -18.4 L10.1 -15.6 Q10.05 -14.95 8.9 -14.35 L6.6 -13.35 Q6.3 -13.45 6.3 -13.75 6.3 -14.05 7.1 -14.55 L8.3 -15.0 Q9.0 -15.1 9.2 -15.7 L9.4 -16.5 9.6 -18.2 Q9.85 -18.95 10.2 -19.0 10.55 -19.05 10.55 -18.4 M0.0 -20.95 L0.1 -20.65 0.1 -19.4 -0.1 -19.3 Q-0.4 -19.7 -0.4 -20.8 L-3.65 -22.5 -5.85 -23.5 Q-7.2 -24.1 -7.05 -24.5 -5.7 -24.45 -2.75 -22.95 L0.05 -21.2 0.0 -20.95 M4.0 -13.45 L4.05 -12.95 Q4.05 -12.55 3.3 -11.4 L2.3 -9.9 1.55 -8.3 Q0.9 -7.35 -0.15 -7.2 L-0.3 -7.45 1.75 -10.6 2.7 -12.15 3.15 -13.1 Q3.5 -13.7 4.0 -13.45 M3.9 -9.35 L4.3 -9.3 4.35 -8.85 Q4.35 -7.15 3.3 -7.15 L2.8 -7.45 3.9 -9.35 M2.8 -4.95 L2.9 -3.45 2.6 7.1 Q2.6 10.0 2.25 10.85 1.9 10.8 1.9 10.3 L1.85 9.55 1.75 8.2 2.2 -1.8 2.3 -3.5 2.25 -4.4 Q2.25 -4.95 2.8 -4.95 M-1.35 -81.8 L-1.1 -78.7 -1.3 -77.05 -1.45 -75.5 -1.35 -75.25 -1.25 -75.05 -1.4 -74.5 -1.55 -74.3 -1.65 -74.55 -1.9 -74.9 -2.35 -75.2 -2.45 -75.35 -2.1 -77.0 -1.9 -78.6 -1.65 -79.35 -1.45 -80.2 -1.45 -81.8 -1.35 -81.8 M-2.1 -63.15 L-2.4 -51.1 -2.7 -42.25 -2.95 -42.1 Q-3.45 -42.55 -3.3 -43.75 L-3.3 -45.35 -2.95 -54.5 -2.3 -63.65 -2.15 -63.65 -2.1 -63.15 M-3.4 -16.5 L-2.75 -15.85 Q-2.75 -15.4 -3.65 -14.55 L-4.4 -16.7 -3.4 -16.5" fill="#ffd862" fill-rule="evenodd" stroke="none"/>
    <path d="M4.55 -5.35 L3.95 -5.7 3.95 -7.1 4.8 -6.65 5.65 -6.05 6.45 -5.25 6.45 -2.7 6.5 -2.45 6.45 -2.45 6.45 -2.4 6.3 -2.5 5.25 -4.1 5.0 -4.55 5.0 -4.65 4.7 -5.25 4.55 -5.35 M-1.35 -3.05 L-2.1 -2.6 -2.25 -1.7 -2.1 -1.35 -2.1 -1.0 -1.8 -1.0 -1.15 -0.55 Q0.0 0.15 1.35 0.15 L2.3 0.05 Q3.5 -0.25 4.5 -1.0 L4.85 -1.0 4.85 -1.4 5.2 -1.7 5.3 -1.85 7.45 -1.85 7.45 6.0 6.55 6.9 Q5.5 8.05 4.2 8.55 L4.05 8.65 1.75 9.0 -1.55 8.65 -1.95 8.55 Q-2.5 8.45 -3.05 7.9 L-3.75 7.2 -4.15 6.65 -4.45 6.0 -7.5 5.9 -7.5 -3.35 -6.05 -3.4 Q-6.0 -4.3 -5.5 -5.0 L-4.0 -6.25 -3.35 -6.55 -2.1 -6.85 Q-0.95 -6.65 -1.4 -5.6 L-2.25 -5.65 -3.75 -4.95 Q-5.05 -3.9 -5.05 -2.15 L-6.45 -2.1 -6.45 4.6 -3.4 4.75 Q-3.2 6.0 -2.4 6.75 L-1.8 7.1 0.35 7.8 2.4 7.65 Q4.05 7.55 5.2 6.3 6.05 5.9 6.15 4.95 L6.25 4.7 6.4 -0.9 5.5 -0.9 5.3 -0.6 5.3 -0.55 5.0 -0.15 4.3 0.4 3.1 1.05 -0.2 1.2 Q-2.0 0.8 -2.95 -0.9 L-3.15 -2.0 Q-2.9 -3.35 -1.45 -4.3 -1.1 -3.4 -1.25 -3.2 L-2.1 -3.2 -2.4 -2.45 -1.35 -3.05" fill="#000000" fill-rule="evenodd" stroke="none"/>
    <path d="M4.55 -5.35 L4.7 -5.25 5.0 -4.65 5.0 -4.55 5.0 -4.1 4.5 -4.05 4.25 -4.05 Q4.15 -4.1 3.95 -4.3 L3.95 -5.5 4.25 -5.5 4.55 -5.35 M5.3 -0.55 L5.3 -0.6 6.3 -0.7 6.1 4.5 6.25 4.7 6.15 4.95 Q6.05 5.9 5.2 6.3 L4.95 6.3 5.4 0.8 Q3.95 2.05 2.15 2.3 L-1.35 1.95 -1.95 1.7 Q-2.4 1.45 -2.4 0.85 L-1.55 1.05 -0.95 1.25 1.35 1.7 2.55 1.6 5.4 0.15 5.3 -0.55" fill="#ffffff" fill-rule="evenodd" stroke="none"/>
    <path d="M5.25 -4.1 L6.3 -2.5 5.3 -3.05 Q5.55 -2.65 5.95 -2.4 L6.35 -2.35 3.95 -2.05 3.95 -3.9 4.5 -4.05 5.0 -4.1 5.25 -4.1 M-1.35 -3.05 L-2.4 -2.45 -2.1 -3.2 -1.25 -3.2 -1.35 -3.05" fill="#3b3b3b" fill-rule="evenodd" stroke="none"/>
    <path d="M-1.45 -4.3 Q-2.9 -3.35 -3.15 -2.0 L-2.95 -0.9 Q-2.0 0.8 -0.2 1.2 L3.1 1.05 4.3 0.4 5.0 -0.15 5.3 -0.55 5.4 0.15 2.55 1.6 1.35 1.7 -0.95 1.25 -1.55 1.05 -2.4 0.85 Q-2.4 1.45 -1.95 1.7 L-1.35 1.95 2.15 2.3 Q3.95 2.05 5.4 0.8 L4.95 6.3 5.2 6.3 Q4.05 7.55 2.4 7.65 L0.35 7.8 -1.8 7.1 -2.4 6.75 Q-3.2 6.0 -3.4 4.75 L-6.45 4.6 -6.45 -2.1 -5.05 -2.15 Q-5.05 -3.9 -3.75 -4.95 L-2.25 -5.65 -1.4 -5.6 Q-1.15 -5.05 -1.45 -4.3 M5.3 -0.6 L5.5 -0.9 6.4 -0.9 6.25 4.7 6.1 4.5 6.3 -0.7 5.3 -0.6" fill="#cccccc" fill-rule="evenodd" stroke="none"/>
  </g>
</svg>
