<?xml version="1.0" encoding="UTF-8" standalone="no"?>
<svg xmlns:xlink="http://www.w3.org/1999/xlink" height="167.45px" width="166.05px" xmlns="http://www.w3.org/2000/svg">
  <g transform="matrix(1.0, 0.0, 0.0, 1.0, 66.45, 76.1)">
    <path d="M52.85 -56.2 Q49.8 -59.1 46.55 -61.25 43.5 -63.3 42.45 -63.35 41.9 -57.75 43.25 -52.85 L46.7 -38.65 Q38.6 -45.8 25.8 -51.8 13.25 -57.6 5.8 -57.85 L-2.35 -66.45 4.25 -66.15 10.65 -65.25 28.15 -65.85 Q45.25 -65.85 58.55 -61.75 66.65 -59.25 79.35 -52.75 87.25 -48.65 92.6 -34.3 94.5 -29.3 97.15 -18.45 L96.75 -17.15 Q94.45 -23.85 84.25 -33.3 80.55 -36.75 70.5 -44.7 L61.0 -50.9 52.85 -56.2 M47.15 -53.95 Q47.35 -54.5 59.35 -46.85 71.1 -39.35 75.85 -35.75 L80.3 -32.2 Q88.45 -25.2 95.7 -15.95 L96.55 -16.3 96.3 -14.2 96.15 -13.7 95.95 -12.85 94.55 -8.8 94.1 -7.4 Q93.25 -2.45 91.8 2.1 91.15 4.25 91.1 6.65 L90.8 11.2 Q90.7 11.65 90.05 11.75 88.6 11.15 86.75 10.65 L85.8 10.4 78.15 8.85 73.55 7.8 57.35 3.75 Q54.05 2.8 50.9 0.95 L50.2 0.6 42.1 -2.05 41.2 -2.4 37.9 -3.95 37.4 -4.1 36.8 -4.0 33.35 -1.1 32.65 -0.5 Q27.35 4.05 24.3 10.75 L23.7 12.05 Q22.7 13.9 22.0 15.75 18.6 25.1 17.2 34.75 L16.75 37.45 Q16.15 40.7 16.3 44.3 L16.3 50.65 16.25 55.2 16.4 59.25 Q16.45 61.3 16.8 63.3 L17.95 71.95 Q18.3 75.5 19.3 78.9 18.05 79.6 15.45 81.35 10.95 84.45 9.25 84.95 L2.45 86.8 -2.5 87.3 Q-9.3 87.3 -13.95 86.1 -16.1 85.55 -22.85 83.0 L-23.65 82.5 Q-14.85 79.95 -8.8 76.95 -3.75 74.3 0.85 69.65 L-0.85 67.8 -9.6 68.2 Q-25.85 68.2 -40.0 58.35 -54.6 48.1 -58.7 32.75 -55.35 36.3 -44.7 40.2 -32.7 44.6 -23.0 44.6 -22.45 44.6 -21.5 43.25 L-20.75 41.9 Q-32.2 38.35 -45.9 22.7 -51.85 15.95 -55.5 9.65 -59.25 3.0 -59.15 -1.0 -44.75 8.65 -34.2 8.65 L-29.0 8.1 Q-42.05 -4.1 -49.55 -14.7 -56.5 -24.45 -59.35 -33.65 -54.6 -31.8 -47.7 -30.25 -41.35 -28.8 -39.1 -28.8 L-22.75 -29.85 Q-2.15 -29.85 4.8 -24.1 L20.05 -8.9 20.4 -9.25 20.75 -10.3 Q20.75 -10.75 16.2 -16.65 11.4 -23.0 9.05 -24.95 7.95 -25.95 2.6 -29.2 -4.9 -31.55 -7.3 -32.0 -18.0 -33.95 -37.65 -34.05 L-46.15 -42.7 Q-48.5 -46.0 -49.75 -53.6 L-35.5 -52.45 -18.05 -51.6 -15.45 -51.95 -12.9 -52.35 Q5.3 -52.35 14.15 -49.95 22.95 -47.55 39.9 -38.1 41.6 -37.15 48.1 -29.25 L55.45 -20.25 Q58.3 -17.05 60.05 -15.7 60.7 -15.2 64.3 -12.75 64.35 -13.15 60.55 -17.95 56.45 -23.35 54.75 -27.5 53.5 -30.4 50.45 -41.55 L47.15 -53.95" fill="#e52211" fill-rule="evenodd" stroke="none"/>
    <path d="M-49.25 43.85 Q-43.25 47.35 -36.5 48.45 L-9.1 51.6 Q3.6 52.45 15.1 57.45 7.0 60.3 -1.25 62.6 -4.5 63.5 -7.9 63.4 -18.8 63.05 -29.4 61.1 L-25.8 61.1 Q-20.5 61.1 -15.45 59.4 L-16.95 59.1 -20.7 59.4 Q-29.35 58.35 -36.8 54.15 -43.9 50.15 -49.25 43.85 M-8.0 40.0 L-15.7 39.0 -23.6 37.2 Q-28.75 35.7 -33.2 32.95 L-24.95 34.0 -28.85 32.75 Q-34.8 30.75 -39.3 26.3 L-43.95 21.35 Q-48.1 16.55 -51.55 11.2 L-50.7 10.95 Q-46.9 14.3 -42.5 16.5 -37.2 18.95 -31.5 20.5 L-20.45 23.35 Q-13.7 25.15 -7.1 27.75 L-2.35 29.9 2.3 32.25 Q6.9 34.9 11.0 38.1 1.6 41.05 -8.0 40.0 M12.85 78.2 L11.8 81.9 Q6.75 85.45 1.0 86.5 -7.2 87.7 -14.9 85.35 -8.3 85.6 -1.95 82.45 4.15 79.4 9.55 75.0 6.65 77.2 3.2 78.2 -1.1 79.4 -5.25 78.3 L-0.2 76.35 Q7.35 73.2 12.95 66.95 L12.85 78.2 M26.4 -20.8 L40.6 -15.25 34.4 -20.6 Q28.65 -25.8 22.25 -29.95 13.25 -36.0 3.4 -40.2 -1.85 -42.45 -7.6 -43.55 -21.95 -46.65 -36.6 -48.7 L-31.2 -48.8 -20.35 -48.7 -7.3 -48.1 8.55 -45.95 Q17.0 -44.55 24.65 -41.15 31.65 -38.15 37.3 -32.8 49.65 -19.95 58.65 -4.2 53.2 -6.1 47.8 -8.15 35.85 -12.45 26.4 -20.8 M25.95 2.1 Q23.65 4.05 20.5 4.15 L14.55 3.75 Q11.35 3.8 8.45 2.65 -5.05 -2.65 -15.5 -13.35 L-3.0 -5.15 Q-6.9 -10.35 -12.55 -13.1 -15.0 -14.2 -17.4 -14.95 L-40.0 -20.9 Q-45.85 -22.15 -50.55 -25.95 -42.45 -24.25 -34.0 -24.95 -22.9 -26.35 -12.15 -24.9 -8.5 -24.25 -4.95 -22.75 6.8 -17.5 15.7 -7.85 8.7 -10.5 3.05 -15.2 6.95 -10.1 11.55 -5.65 17.7 0.3 25.95 2.1 M53.3 -47.8 L57.7 -42.2 64.55 -33.15 Q69.45 -26.45 73.3 -18.95 L78.6 -8.25 Q75.8 -9.5 73.15 -11.05 69.6 -13.25 66.6 -16.05 64.35 -18.0 62.45 -20.15 L60.05 -23.1 Q57.85 -26.25 56.45 -29.85 L63.9 -23.35 Q61.7 -26.95 59.8 -30.65 55.6 -38.7 53.3 -47.8 M71.6 -52.55 Q74.75 -50.85 77.65 -48.75 L83.3 -44.55 Q87.7 -41.0 90.95 -36.15 94.75 -30.35 95.45 -23.25 87.1 -29.75 79.9 -37.75 68.0 -51.1 52.55 -59.5 L62.85 -57.25 71.6 -52.55" fill="#f38f65" fill-rule="evenodd" stroke="none"/>
    <path d="M61.0 -50.9 L70.5 -44.7 Q80.55 -36.75 84.25 -33.3 94.45 -23.85 96.75 -17.15 L96.9 -16.5 95.7 -15.95 Q88.45 -25.2 80.3 -32.2 L75.85 -35.75 Q71.1 -39.35 59.35 -46.85 47.35 -54.5 47.15 -53.95 L50.45 -41.55 Q53.5 -30.4 54.75 -27.5 56.45 -23.35 60.55 -17.95 64.35 -13.15 64.3 -12.75 60.7 -15.2 60.05 -15.7 58.3 -17.05 55.45 -20.25 L48.1 -29.25 Q41.6 -37.15 39.9 -38.1 22.95 -47.55 14.15 -49.95 5.3 -52.35 -12.9 -52.35 L-15.45 -51.95 -18.05 -51.6 -35.5 -52.45 -49.75 -53.6 Q-48.5 -46.0 -46.15 -42.7 L-37.65 -34.05 Q-18.0 -33.95 -7.3 -32.0 -4.9 -31.55 2.6 -29.2 7.95 -25.95 9.05 -24.95 11.4 -23.0 16.2 -16.65 20.75 -10.75 20.75 -10.3 L20.4 -9.25 20.05 -8.9 4.8 -24.1 Q-2.15 -29.85 -22.75 -29.85 L-39.1 -28.8 Q-41.35 -28.8 -47.7 -30.25 -54.6 -31.8 -59.35 -33.65 -56.5 -24.45 -49.55 -14.7 -42.05 -4.1 -29.0 8.1 L-34.2 8.65 Q-44.75 8.65 -59.15 -1.0 -59.25 3.0 -55.5 9.65 -51.85 15.95 -45.9 22.7 -32.2 38.35 -20.75 41.9 L-21.5 43.25 Q-22.45 44.6 -23.0 44.6 -32.7 44.6 -44.7 40.2 -55.35 36.3 -58.7 32.75 -54.6 48.1 -40.0 58.35 -25.85 68.2 -9.6 68.2 L-0.85 67.8 0.85 69.65 Q-3.75 74.3 -8.8 76.95 -14.85 79.95 -23.65 82.5 L-22.85 83.0 Q-16.1 85.55 -13.95 86.1 -9.3 87.3 -2.5 87.3 L2.45 86.8 9.25 84.95 Q10.95 84.45 15.45 81.35 18.05 79.6 19.3 78.9 20.0 78.4 20.15 78.4 L20.3 78.4 21.05 81.5 20.4 82.25 Q16.95 85.9 11.25 87.95 1.7 91.35 -6.1 91.35 -15.1 91.35 -22.1 88.25 -29.6 85.0 -33.1 78.85 -25.25 78.55 -16.75 75.65 -11.75 73.9 -9.25 72.5 -17.95 72.75 -26.7 70.1 -36.25 67.2 -43.8 61.4 -53.95 53.6 -59.65 42.2 -64.65 32.25 -64.65 23.3 L-53.4 29.55 Q-44.25 34.55 -37.7 36.9 -46.8 28.6 -49.85 25.5 -54.95 20.35 -57.65 15.9 -62.9 7.0 -64.5 -12.1 -58.45 -5.8 -52.35 -1.95 -46.15 1.95 -42.9 1.5 -57.15 -16.15 -61.65 -25.1 -65.6 -33.0 -66.45 -44.05 -59.9 -40.3 -56.75 -38.95 -53.35 -37.45 -46.9 -35.5 L-48.3 -37.45 Q-50.9 -41.55 -51.8 -43.6 -52.7 -45.75 -56.0 -62.15 -45.65 -59.3 -40.5 -58.55 L-20.1 -57.3 -2.1 -58.0 -14.8 -76.1 Q-6.35 -71.6 7.8 -70.8 L33.95 -70.6 Q50.25 -70.45 60.45 -67.8 74.5 -64.1 83.95 -54.45 93.0 -47.85 97.1 -35.5 99.85 -27.2 99.55 -20.8 99.2 -18.2 97.45 -16.85 L97.15 -18.45 Q94.5 -29.3 92.6 -34.3 87.25 -48.65 79.35 -52.75 66.65 -59.25 58.55 -61.75 45.25 -65.85 28.15 -65.85 L10.65 -65.25 4.25 -66.15 -2.35 -66.45 5.8 -57.85 Q13.25 -57.6 25.8 -51.8 38.6 -45.8 46.7 -38.65 L43.25 -52.85 Q41.9 -57.75 42.45 -63.35 43.5 -63.3 46.55 -61.25 49.8 -59.1 52.85 -56.2 L61.0 -50.9" fill="#000000" fill-rule="evenodd" stroke="none"/>
  </g>
</svg>
