<?xml version="1.0" encoding="UTF-8" standalone="no"?>
<svg xmlns:xlink="http://www.w3.org/1999/xlink" height="149.0px" width="142.05px" xmlns="http://www.w3.org/2000/svg">
  <g transform="matrix(1.0, 0.0, 0.0, 1.0, 47.9, 113.6)">
    <path d="M76.95 -100.55 L78.7 -104.2 Q81.35 -90.7 78.9 -75.5 L76.2 -77.45 76.7 -80.9 Q77.85 -90.6 76.95 -100.55 M74.2 -49.55 Q68.4 -59.9 64.35 -71.15 L61.95 -78.35 67.45 -75.05 Q71.15 -72.7 74.15 -69.6 L69.65 -71.1 Q70.0 -68.95 70.5 -66.75 71.05 -64.45 72.0 -62.25 L74.7 -56.6 77.6 -66.8 79.3 -66.35 78.95 -65.1 Q78.55 -59.3 76.3 -53.75 L74.2 -49.55 M61.25 -57.05 L56.1 -62.85 Q42.4 -66.5 29.2 -71.85 23.75 -73.9 19.15 -77.6 L15.95 -79.9 Q11.5 -83.05 8.85 -87.45 12.75 -84.75 17.5 -83.6 23.1 -82.25 28.8 -81.7 37.4 -81.7 45.6 -78.95 L44.6 -80.75 51.35 -77.9 62.3 -56.65 61.25 -57.05 M41.85 -70.15 Q47.45 -68.35 53.3 -67.5 L47.0 -76.75 29.85 -80.35 21.55 -81.1 Q27.05 -76.5 33.6 -73.35 37.7 -71.4 41.85 -70.15 M0.85 -77.9 L3.15 -83.5 15.0 -70.0 14.35 -68.3 9.05 -69.5 2.9 -50.15 1.55 -44.95 Q0.4 -39.85 0.0 -34.35 -0.65 -26.25 -0.15 -18.3 0.2 -12.05 1.15 -6.2 L-0.1 -12.3 Q-1.6 -20.3 -1.7 -28.6 -1.8 -35.45 -1.2 -42.5 -0.55 -50.2 1.3 -57.9 3.15 -65.5 5.4 -73.1 L0.85 -77.9" fill="#d3400e" fill-rule="evenodd" stroke="none"/>
    <path d="M76.2 -77.45 L78.9 -75.5 Q81.35 -90.7 78.7 -104.2 L76.95 -100.55 68.45 -83.05 76.2 -77.45 M79.3 -66.35 L79.9 -68.55 Q67.45 -80.15 51.55 -86.6 L73.1 -47.8 73.9 -49.0 74.2 -49.55 76.3 -53.75 Q78.55 -59.3 78.95 -65.1 L79.3 -66.35 M61.25 -57.05 L62.3 -56.65 51.35 -77.9 44.6 -80.75 Q39.65 -82.4 34.25 -82.9 26.85 -83.85 19.8 -85.95 8.5 -89.2 0.4 -97.6 5.65 -85.3 14.95 -75.5 17.55 -72.7 21.25 -71.5 41.45 -65.0 61.25 -57.05 M43.95 -95.0 L64.75 -85.6 79.45 -113.6 Q84.65 -97.0 83.45 -79.35 L83.0 -70.9 Q85.25 -67.65 83.6 -63.7 L81.25 -57.45 78.9 -51.5 76.2 -45.95 74.0 -42.35 72.2 -43.45 71.25 -37.0 93.75 -29.9 94.15 -27.8 Q91.0 -20.95 89.75 -14.85 L89.25 -11.85 Q88.5 -6.0 85.85 2.9 L85.65 2.8 84.2 6.8 82.6 12.7 Q79.05 22.0 74.0 29.75 L72.9 31.45 Q72.25 32.3 71.75 33.2 70.9 34.7 69.45 35.4 59.35 30.85 48.9 27.2 L45.1 26.1 Q27.5 21.2 9.4 18.65 7.65 18.35 6.2 17.45 L5.95 17.45 Q1.4 17.45 0.5 13.35 L0.5 12.7 -6.55 -3.1 Q-15.85 -2.75 -24.05 -5.85 -30.1 -8.25 -34.05 -13.45 -41.8 -23.7 -43.7 -39.7 -40.65 -36.85 -32.8 -31.15 -42.3 -40.85 -45.95 -51.25 -49.75 -62.15 -46.15 -75.2 L-35.15 -66.6 Q-40.3 -76.85 -38.55 -93.2 -30.25 -86.6 -27.15 -82.0 -29.2 -86.15 -29.4 -90.7 L-29.8 -103.4 Q-29.85 -104.55 -29.25 -105.3 -24.3 -105.1 -20.25 -100.65 -17.9 -98.1 -15.05 -96.0 -7.9 -90.8 0.45 -87.7 L-4.7 -101.55 -1.8 -103.8 Q2.95 -100.05 11.45 -95.15 17.25 -91.7 23.6 -90.0 L48.65 -83.35 43.95 -95.0 M14.35 -68.3 L15.0 -70.0 3.15 -83.5 0.85 -77.9 -1.7 -70.85 -4.65 -60.6 -4.9 -59.4 -5.7 -55.75 -6.6 -51.4 -6.75 -50.25 Q-7.5 -45.8 -7.75 -41.4 L-7.95 -35.2 -7.95 -34.15 -7.7 -28.0 -7.05 -22.1 -6.8 -20.65 -6.05 -16.35 -4.9 -11.65 -2.8 -4.9 Q-1.2 -0.4 0.95 3.9 1.7 3.5 2.45 3.45 2.9 -21.6 7.65 -45.9 9.9 -57.15 14.1 -67.8 L14.35 -68.3 M45.7 -57.55 L18.05 -68.25 17.85 -67.6 16.25 -63.1 14.25 -58.15 Q9.3 -46.45 9.05 -36.5 L8.7 -33.45 8.65 -31.6 8.55 -26.4 8.75 -22.4 7.95 -23.95 6.4 8.0 7.05 9.75 Q8.0 12.05 8.9 13.5 L36.05 19.1 36.55 17.45 37.7 14.55 38.75 11.65 Q44.25 -4.25 52.8 -11.0 L57.55 -14.85 64.2 -20.65 Q67.05 -23.55 69.6 -26.75 L69.5 -26.8 Q70.4 -28.0 71.5 -30.1 L72.45 -33.5 68.3 -34.9 68.4 -37.95 68.6 -44.35 68.65 -46.55 68.45 -46.9 66.65 -49.4 45.7 -57.55 M29.35 -57.75 Q31.7 -58.65 35.0 -57.75 44.45 -54.2 52.95 -48.7 58.0 -46.4 61.0 -42.9 L65.65 -38.9 65.6 -35.8 65.55 -35.85 64.95 -35.3 64.5 -35.3 62.2 -35.3 61.2 -36.35 Q61.25 -34.85 60.45 -30.4 58.65 -25.05 52.8 -22.35 51.55 -21.75 50.05 -21.3 38.8 -17.75 31.65 -26.45 28.15 -30.75 27.35 -36.45 25.9 -46.75 33.3 -53.25 34.3 -54.45 31.35 -55.65 L27.65 -56.75 29.35 -57.75 M39.4 -26.1 Q44.95 -23.85 50.55 -26.15 42.25 -28.9 42.75 -35.5 43.25 -42.2 45.65 -43.8 L48.4 -45.45 Q45.05 -48.15 41.0 -49.55 L36.1 -50.95 Q26.95 -43.35 32.05 -32.85 34.4 -28.05 39.4 -26.1 M74.7 -27.55 Q77.2 -26.85 83.65 -22.5 L84.0 -22.25 85.25 -21.4 86.0 -20.9 90.1 -27.2 75.5 -32.25 74.9 -28.75 74.7 -27.55 M56.3 -37.9 Q54.25 -41.25 50.65 -42.8 45.95 -44.0 44.5 -36.65 44.9 -34.7 45.9 -32.9 46.55 -31.55 47.9 -30.6 49.95 -29.1 52.4 -29.4 L54.2 -29.9 Q55.0 -30.1 55.65 -30.6 L56.75 -31.7 56.7 -31.25 57.15 -34.75 Q57.15 -36.5 56.3 -37.9 M53.45 -39.9 L54.0 -38.9 Q54.4 -37.95 54.3 -36.95 L53.45 -32.85 Q52.3 -33.8 52.1 -35.25 51.7 -37.9 53.45 -39.9 M55.25 -6.65 L54.5 -7.5 54.35 -7.75 54.25 -7.55 53.8 -6.85 Q48.9 -1.6 46.2 3.15 42.05 10.2 41.35 18.2 L41.2 19.7 46.05 21.15 52.2 23.35 Q59.5 26.2 66.3 30.05 67.95 31.0 70.0 29.25 75.4 20.85 77.75 13.5 L78.05 12.5 78.2 12.5 80.55 2.9 Q75.9 -0.55 71.7 -0.55 67.05 -0.55 62.6 -2.0 L62.1 -2.1 Q59.65 -2.9 57.75 -4.3 L57.2 -4.7 56.45 -5.35 55.25 -6.65 M55.15 -8.6 L54.65 -8.25 54.45 -7.95 54.55 -7.95 63.6 -11.05 63.65 -9.05 60.65 -7.1 62.05 -5.85 62.55 -5.5 Q63.1 -5.1 63.75 -4.8 65.2 -4.05 66.95 -3.8 L68.0 -3.75 78.45 -2.95 81.45 -2.6 82.25 -4.0 83.6 -6.3 84.25 -9.2 84.85 -12.2 85.3 -14.85 85.55 -16.5 72.2 -25.65 Q71.75 -24.5 70.15 -22.6 67.6 -19.7 62.3 -14.85 L60.8 -13.5 56.55 -9.55 55.15 -8.6 M-2.35 -80.95 L-1.3 -83.8 Q-7.85 -85.55 -13.45 -89.55 -19.85 -94.0 -25.6 -99.5 -26.0 -90.75 -22.1 -83.0 -17.15 -73.2 -6.95 -69.0 L-5.25 -73.35 -2.35 -80.95 M-9.85 -56.75 L-9.05 -62.35 -8.65 -65.45 Q-23.9 -72.95 -35.6 -85.65 -34.2 -67.1 -18.25 -57.45 -14.55 -55.2 -10.25 -53.8 L-9.85 -56.75 M-10.85 -43.3 L-10.7 -50.5 Q-26.6 -51.55 -38.55 -62.3 L-42.4 -65.45 -42.75 -65.75 -44.65 -67.05 Q-44.55 -54.75 -38.65 -44.5 -36.5 -40.7 -33.15 -37.7 -23.75 -29.35 -11.15 -27.65 L-11.0 -35.5 -10.85 -43.3 M-10.5 -21.75 L-10.75 -23.2 Q-18.0 -21.9 -25.15 -23.7 -32.25 -25.6 -37.85 -30.3 -36.25 -23.65 -31.9 -18.75 -27.55 -13.85 -22.4 -10.7 -17.2 -7.55 -7.8 -7.4 L-8.4 -10.65 -10.5 -21.75" fill="#000000" fill-rule="evenodd" stroke="none"/>
    <path d="M76.95 -100.55 Q77.85 -90.6 76.7 -80.9 L76.2 -77.45 68.45 -83.05 76.95 -100.55 M79.3 -66.35 L77.6 -66.8 74.7 -56.6 72.0 -62.25 Q71.05 -64.45 70.5 -66.75 70.0 -68.95 69.65 -71.1 L74.15 -69.6 Q71.15 -72.7 67.45 -75.05 L61.95 -78.35 64.35 -71.15 Q68.4 -59.9 74.2 -49.55 L73.9 -49.0 73.1 -47.8 51.55 -86.6 Q67.45 -80.15 79.9 -68.55 L79.3 -66.35 M44.6 -80.75 L45.6 -78.95 Q37.4 -81.7 28.8 -81.7 23.1 -82.25 17.5 -83.6 12.75 -84.75 8.85 -87.45 11.5 -83.05 15.95 -79.9 L19.15 -77.6 Q23.75 -73.9 29.2 -71.85 42.4 -66.5 56.1 -62.85 L61.25 -57.05 Q41.45 -65.0 21.25 -71.5 17.55 -72.7 14.95 -75.5 5.65 -85.3 0.4 -97.6 8.5 -89.2 19.8 -85.95 26.85 -83.85 34.25 -82.9 39.65 -82.4 44.6 -80.75 M41.85 -70.15 Q37.7 -71.4 33.6 -73.35 27.05 -76.5 21.55 -81.1 L29.85 -80.35 47.0 -76.75 53.3 -67.5 Q47.45 -68.35 41.85 -70.15 M0.85 -77.9 L5.4 -73.1 Q3.15 -65.5 1.3 -57.9 -0.55 -50.2 -1.2 -42.5 -1.8 -35.45 -1.7 -28.6 -1.6 -20.3 -0.1 -12.3 L1.15 -6.2 Q0.2 -12.05 -0.15 -18.3 -0.65 -26.25 0.0 -34.35 0.4 -39.85 1.55 -44.95 L2.9 -50.15 9.05 -69.5 14.35 -68.3 14.1 -67.8 Q9.9 -57.15 7.65 -45.9 2.9 -21.6 2.45 3.45 1.7 3.5 0.95 3.9 -1.2 -0.4 -2.8 -4.9 L-4.9 -11.65 -6.05 -16.35 -6.8 -20.65 -7.05 -22.1 -7.7 -28.0 -7.95 -34.15 -7.95 -35.2 -7.75 -41.4 Q-7.5 -45.8 -6.75 -50.25 L-6.6 -51.4 -5.7 -55.75 -4.9 -59.4 -4.65 -60.6 -1.7 -70.85 0.85 -77.9 M53.45 -39.9 Q51.7 -37.9 52.1 -35.25 52.3 -33.8 53.45 -32.85 L54.3 -36.95 Q54.4 -37.95 54.0 -38.9 L53.45 -39.9 M56.3 -37.9 Q57.15 -36.5 57.15 -34.75 L56.7 -31.25 56.75 -31.7 55.65 -30.6 Q55.0 -30.1 54.2 -29.9 L52.4 -29.4 Q49.95 -29.1 47.9 -30.6 46.55 -31.55 45.9 -32.9 44.9 -34.7 44.5 -36.65 45.95 -44.0 50.65 -42.8 54.25 -41.25 56.3 -37.9" fill="#ffcc00" fill-rule="evenodd" stroke="none"/>
    <path d="M9.05 -36.5 Q9.3 -46.45 14.25 -58.15 L16.25 -63.1 17.85 -67.6 18.05 -68.25 45.7 -57.55 37.35 -59.55 52.95 -48.7 Q44.45 -54.2 35.0 -57.75 31.7 -58.65 29.35 -57.75 25.9 -61.05 22.0 -63.6 L21.15 -64.0 Q4.65 -41.9 18.6 -18.95 L24.7 -9.0 14.75 -20.1 Q8.9 -26.3 9.05 -36.35 L9.05 -36.5 M68.45 -46.9 L68.65 -46.55 68.6 -44.35 68.45 -46.9 M36.55 17.45 L36.05 19.1 8.9 13.5 Q8.0 12.05 7.05 9.75 L6.4 8.0 7.95 -23.95 8.75 -22.4 9.6 -19.55 Q10.05 -17.3 17.5 -12.0 24.95 -6.8 27.6 2.45 28.75 6.6 29.5 10.75 23.8 -3.05 12.2 -12.65 L11.05 -13.95 Q7.55 0.45 13.8 7.75 20.0 15.1 30.7 16.45 L36.55 17.45 M64.5 -35.3 L63.1 -29.6 62.7 -28.6 Q59.6 -20.5 52.8 -18.0 47.8 -16.15 40.65 -17.4 33.2 -18.8 28.35 -24.95 17.55 -38.7 28.6 -52.8 29.8 -54.35 31.35 -55.65 34.3 -54.45 33.3 -53.25 25.9 -46.75 27.35 -36.45 28.15 -30.75 31.65 -26.45 38.8 -17.75 50.05 -21.3 51.55 -21.75 52.8 -22.35 58.65 -25.05 60.45 -30.4 61.25 -34.85 61.2 -36.35 L62.2 -35.3 64.5 -35.3" fill="#ffdc70" fill-rule="evenodd" stroke="none"/>
    <path d="M9.05 -36.5 L9.05 -36.35 Q8.9 -26.3 14.75 -20.1 L24.7 -9.0 18.6 -18.95 Q4.65 -41.9 21.15 -64.0 L22.0 -63.6 Q25.9 -61.05 29.35 -57.75 L27.65 -56.75 31.35 -55.65 Q29.8 -54.35 28.6 -52.8 17.55 -38.7 28.35 -24.95 33.2 -18.8 40.65 -17.4 47.8 -16.15 52.8 -18.0 59.6 -20.5 62.7 -28.6 L63.1 -29.6 64.5 -35.3 64.95 -35.3 65.55 -35.85 65.6 -35.8 65.65 -38.9 61.0 -42.9 Q58.0 -46.4 52.95 -48.7 L37.35 -59.55 45.7 -57.55 66.65 -49.4 68.45 -46.9 68.6 -44.35 68.4 -37.95 68.3 -34.9 72.45 -33.5 71.5 -30.1 Q70.4 -28.0 69.5 -26.8 L69.6 -26.75 Q67.05 -23.55 64.2 -20.65 L57.55 -14.85 52.8 -11.0 Q44.25 -4.25 38.75 11.65 L37.7 14.55 36.55 17.45 30.7 16.45 Q20.0 15.1 13.8 7.75 7.55 0.45 11.05 -13.95 L12.2 -12.65 Q23.8 -3.05 29.5 10.75 28.75 6.6 27.6 2.45 24.95 -6.8 17.5 -12.0 10.05 -17.3 9.6 -19.55 L8.75 -22.4 8.55 -26.4 8.65 -31.6 8.7 -33.45 9.05 -36.5" fill="#faa710" fill-rule="evenodd" stroke="none"/>
    <path d="M39.4 -26.1 Q34.4 -28.05 32.05 -32.85 26.95 -43.35 36.1 -50.95 L41.0 -49.55 Q45.05 -48.15 48.4 -45.45 L45.65 -43.8 Q43.25 -42.2 42.75 -35.5 42.25 -28.9 50.55 -26.15 44.95 -23.85 39.4 -26.1 M53.8 -6.85 Q52.75 -4.65 52.9 -2.8 46.9 5.75 45.75 14.35 L45.2 17.35 49.7 19.05 53.25 20.55 Q61.15 24.0 68.65 28.6 72.95 21.45 75.6 13.6 L75.9 12.6 76.0 12.6 78.3 4.0 Q68.9 3.45 60.85 0.0 L56.3 -2.2 54.65 -3.2 54.4 -3.35 54.25 -3.5 Q53.75 -4.0 53.45 -4.85 L55.25 -6.65 56.45 -5.35 57.2 -4.7 57.75 -4.3 Q59.65 -2.9 62.1 -2.1 L62.6 -2.0 Q67.05 -0.55 71.7 -0.55 75.9 -0.55 80.55 2.9 L78.2 12.5 78.05 12.5 77.75 13.5 Q75.4 20.85 70.0 29.25 67.95 31.0 66.3 30.05 59.5 26.2 52.2 23.35 L46.05 21.15 41.2 19.7 41.35 18.2 Q42.05 10.2 46.2 3.15 48.9 -1.6 53.8 -6.85 M55.15 -8.6 L54.55 -7.95 54.45 -7.95 54.65 -8.25 55.15 -8.6 M62.05 -5.85 L64.3 -5.55 80.7 -4.45 82.25 -4.0 81.45 -2.6 78.45 -2.95 68.0 -3.75 66.95 -3.8 Q65.2 -4.05 63.75 -4.8 63.1 -5.1 62.55 -5.5 L62.05 -5.85 M84.85 -12.2 L84.75 -16.1 82.0 -17.6 79.7 -18.8 75.65 -20.4 72.85 -21.4 66.7 -14.85 63.2 -11.4 Q59.5 -11.35 56.55 -9.55 L60.8 -13.5 62.3 -14.85 Q67.6 -19.7 70.15 -22.6 71.75 -24.5 72.2 -25.65 L85.55 -16.5 85.3 -14.85 84.85 -12.2" fill="#ffffff" fill-rule="evenodd" stroke="none"/>
    <path d="M74.7 -27.55 L74.9 -28.75 75.5 -32.25 90.1 -27.2 86.0 -20.9 85.25 -21.4 84.0 -22.25 83.65 -22.5 Q77.2 -26.85 74.7 -27.55" fill="#333333" fill-rule="evenodd" stroke="none"/>
    <path d="M53.8 -6.85 L54.25 -7.55 54.35 -7.75 54.5 -7.5 55.25 -6.65 53.45 -4.85 Q53.75 -4.0 54.25 -3.5 L54.4 -3.35 54.65 -3.2 56.3 -2.2 60.85 0.0 Q68.9 3.45 78.3 4.0 L76.0 12.6 75.9 12.6 75.6 13.6 Q72.95 21.45 68.65 28.6 61.15 24.0 53.25 20.55 L49.7 19.05 45.2 17.35 45.75 14.35 Q46.9 5.75 52.9 -2.8 52.75 -4.65 53.8 -6.85 M54.55 -7.95 L55.15 -8.6 56.55 -9.55 Q59.5 -11.35 63.2 -11.4 L66.7 -14.85 72.85 -21.4 75.65 -20.4 79.7 -18.8 82.0 -17.6 84.75 -16.1 84.85 -12.2 84.25 -9.2 83.6 -6.3 82.25 -4.0 80.7 -4.45 64.3 -5.55 62.05 -5.85 60.65 -7.1 63.65 -9.05 63.6 -11.05 54.55 -7.95 M52.95 -1.95 L53.0 -2.25 52.85 -2.05 52.8 -1.85 52.95 -1.95" fill="#cccccc" fill-rule="evenodd" stroke="none"/>
    <path d="M-5.25 -73.35 L-6.95 -69.0 Q-17.15 -73.2 -22.1 -83.0 -26.0 -90.75 -25.6 -99.5 -19.85 -94.0 -13.45 -89.55 -7.85 -85.55 -1.3 -83.8 L-2.35 -80.95 Q-13.4 -86.6 -22.6 -94.95 L-24.8 -97.0 Q-21.1 -90.05 -15.6 -84.45 L-11.85 -80.85 -18.5 -85.3 Q-15.45 -81.15 -11.6 -77.85 -8.65 -75.35 -5.25 -73.35 M-9.05 -62.35 Q-21.6 -68.15 -31.15 -78.2 L-33.85 -81.15 Q-30.25 -70.4 -22.0 -62.55 -19.35 -60.1 -16.15 -58.0 L-21.05 -64.85 -18.3 -62.25 -14.25 -59.1 Q-12.1 -57.75 -9.85 -56.75 L-10.25 -53.8 Q-14.55 -55.2 -18.25 -57.45 -34.2 -67.1 -35.6 -85.65 -23.9 -72.95 -8.65 -65.45 L-9.05 -62.35 M-42.4 -65.45 L-38.55 -62.3 Q-26.6 -51.55 -10.7 -50.5 L-10.85 -43.3 Q-26.9 -49.75 -39.25 -62.2 L-42.4 -65.45 M-11.0 -35.5 L-11.15 -27.65 Q-23.75 -29.35 -33.15 -37.7 -36.5 -40.7 -38.65 -44.5 -44.55 -54.75 -44.65 -67.05 L-42.75 -65.75 Q-37.8 -44.75 -18.8 -34.9 L-16.3 -33.55 Q-21.2 -37.15 -25.2 -41.75 L-26.4 -43.35 Q-20.1 -38.6 -12.75 -36.0 L-11.0 -35.5 M-10.5 -21.75 Q-22.55 -20.45 -33.25 -26.1 L-36.15 -27.6 Q-32.45 -21.2 -26.7 -17.0 -22.7 -14.15 -17.85 -13.85 L-21.9 -12.6 Q-17.05 -10.65 -11.7 -10.65 L-8.4 -10.65 -7.8 -7.4 Q-17.2 -7.55 -22.4 -10.7 -27.55 -13.85 -31.9 -18.75 -36.25 -23.65 -37.85 -30.3 -32.25 -25.6 -25.15 -23.7 -18.0 -21.9 -10.75 -23.2 L-10.5 -21.75" fill="#e52211" fill-rule="evenodd" stroke="none"/>
    <path d="M-5.25 -73.35 Q-8.65 -75.35 -11.6 -77.85 -15.45 -81.15 -18.5 -85.3 L-11.85 -80.85 -15.6 -84.45 Q-21.1 -90.05 -24.8 -97.0 L-22.6 -94.95 Q-13.4 -86.6 -2.35 -80.95 L-5.25 -73.35 M-9.85 -56.75 Q-12.1 -57.75 -14.25 -59.1 L-18.3 -62.25 -21.05 -64.85 -16.15 -58.0 Q-19.35 -60.1 -22.0 -62.55 -30.25 -70.4 -33.85 -81.15 L-31.15 -78.2 Q-21.6 -68.15 -9.05 -62.35 L-9.85 -56.75 M-10.85 -43.3 L-11.0 -35.5 -12.75 -36.0 Q-20.1 -38.6 -26.4 -43.35 L-25.2 -41.75 Q-21.2 -37.15 -16.3 -33.55 L-18.8 -34.9 Q-37.8 -44.75 -42.75 -65.75 L-42.4 -65.45 -39.25 -62.2 Q-26.9 -49.75 -10.85 -43.3 M-8.4 -10.65 L-11.7 -10.65 Q-17.05 -10.65 -21.9 -12.6 L-17.85 -13.85 Q-22.7 -14.15 -26.7 -17.0 -32.45 -21.2 -36.15 -27.6 L-33.25 -26.1 Q-22.55 -20.45 -10.5 -21.75 L-8.4 -10.65" fill="#f17b49" fill-rule="evenodd" stroke="none"/>
  </g>
</svg>
