<?xml version="1.0" encoding="UTF-8" standalone="no"?>
<svg xmlns:xlink="http://www.w3.org/1999/xlink" height="55.2px" width="293.95px" xmlns="http://www.w3.org/2000/svg">
  <g transform="matrix(1.0, 0.0, 0.0, 1.0, 152.7, 38.75)">
    <path d="M-72.0 7.5 L-72.7 -2.05 -80.2 -3.65 -81.15 -5.85 -113.5 -7.55 Q-128.7 -8.85 -143.9 -11.5 L-144.85 -11.7 -150.2 -12.65 -152.7 -17.8 -150.2 -21.6 -144.95 -21.0 -144.85 -21.0 Q-129.3 -19.15 -113.5 -18.5 -97.5 -18.0 -81.15 -18.8 L-80.2 -21.0 -72.7 -22.6 -72.05 -30.75 -72.05 -20.95 -72.0 -5.8 -72.0 7.5" fill="#ffffff" fill-rule="evenodd" stroke="none"/>
    <path d="M-72.05 -30.75 L-71.65 -35.75 -67.15 -38.75 -67.15 -23.0 -61.1 -22.75 -60.6 -19.95 -34.75 -19.05 -16.2 -19.05 3.6 -19.4 4.6 -19.4 39.9 -20.9 42.85 -21.0 76.0 -23.8 85.6 -24.9 Q113.45 -27.7 141.25 -32.15 137.9 -27.55 134.1 -24.1 124.95 -15.6 113.8 -13.75 95.0 -11.0 76.05 -9.4 L75.95 -9.4 42.4 -6.3 39.9 -6.15 7.15 -4.55 4.65 -4.45 Q-5.75 -4.1 -16.2 -4.0 L-27.95 -4.0 Q-46.35 -3.85 -60.5 -4.35 L-60.95 -1.6 -67.15 -1.6 -67.15 16.45 -71.65 12.45 -72.0 7.5 -72.0 -5.8 -72.05 -20.95 -72.05 -30.75" fill="#333333" fill-rule="evenodd" stroke="none"/>
  </g>
</svg>
