<?xml version="1.0" encoding="UTF-8" standalone="no"?>
<svg xmlns:xlink="http://www.w3.org/1999/xlink" height="41.15px" width="118.55px" xmlns="http://www.w3.org/2000/svg">
  <g transform="matrix(1.0, 0.0, 0.0, 1.0, 57.8, 30.3)">
    <path d="M58.75 1.95 L37.75 3.05 38.7 3.1 28.3 3.7 17.85 4.2 7.35 4.65 -3.2 4.95 -18.5 5.35 -35.05 5.5 -39.45 5.15 Q-44.4 5.05 -48.6 2.35 -50.35 1.15 -51.6 -0.7 -54.55 -4.9 -52.7 -10.0 -49.35 -19.25 -40.5 -23.55 L-36.75 -24.7 -20.95 -26.2 -2.6 -26.6 11.5 -26.5 29.6 -25.8 41.4 -25.1 60.5 -24.0 59.0 -3.0 49.65 -2.15 Q36.4 -1.55 23.3 -1.7 L15.35 -1.75 7.25 -1.8 -1.75 -1.95 -20.7 -2.45 -30.7 -3.1 -34.0 -3.4 -37.45 -3.95 -37.9 -4.75 -38.75 -5.65 -39.4 -6.3 -40.0 -6.85 -40.65 -7.6 -41.55 -8.7 -42.65 -9.65 -45.0 -11.35 Q-48.25 -11.55 -50.55 -9.3 -53.05 -6.9 -52.15 -3.2 L-51.45 -1.55 Q-48.0 3.9 -41.35 3.85 L-26.5 3.6 -14.1 3.35 -2.4 3.0 9.2 2.7 28.85 1.95 38.85 1.25 48.85 0.55 58.85 -0.15 58.75 1.95" fill="#faa710" fill-rule="evenodd" stroke="none"/>
    <path d="M59.0 -3.0 L58.85 -0.15 48.85 0.55 38.85 1.25 28.85 1.95 9.2 2.7 -2.4 3.0 -14.1 3.35 -26.5 3.6 -41.35 3.85 Q-48.0 3.9 -51.45 -1.55 L-52.15 -3.2 Q-53.05 -6.9 -50.55 -9.3 -48.25 -11.55 -45.0 -11.35 L-42.65 -9.65 -41.55 -8.7 -40.65 -7.6 -40.0 -6.85 -39.4 -6.3 -38.75 -5.65 -37.9 -4.75 -37.45 -3.95 -34.0 -3.4 -30.7 -3.1 -20.7 -2.45 -1.75 -1.95 7.25 -1.8 15.35 -1.75 23.3 -1.7 Q36.4 -1.55 49.65 -2.15 L59.0 -3.0" fill="#ffdc70" fill-rule="evenodd" stroke="none"/>
    <path d="M58.75 1.95 L58.5 5.7 -13.0 10.35 Q-24.3 11.0 -35.55 10.8 -45.35 10.6 -53.75 4.75 -55.6 3.45 -56.5 1.3 -58.0 -2.05 -57.75 -5.75 -57.4 -11.15 -54.45 -15.8 L-51.8 -19.5 -48.8 -22.75 -45.4 -25.65 -43.55 -26.9 -41.6 -28.0 -39.35 -29.1 -39.25 -29.2 -38.8 -28.95 -29.7 -29.8 -12.1 -30.25 3.85 -30.2 18.15 -29.85 28.7 -29.25 39.2 -28.55 60.75 -26.8 60.5 -24.0 41.4 -25.1 29.6 -25.8 11.5 -26.5 -2.6 -26.6 -20.95 -26.2 -36.75 -24.7 -40.5 -23.55 Q-49.35 -19.25 -52.7 -10.0 -54.55 -4.9 -51.6 -0.7 -50.35 1.15 -48.6 2.35 -44.4 5.05 -39.45 5.15 L-35.05 5.5 -18.5 5.35 -3.2 4.95 7.35 4.65 17.85 4.2 28.3 3.7 38.7 3.1 37.75 3.05 58.75 1.95" fill="#000000" fill-rule="evenodd" stroke="none"/>
  </g>
</svg>
