<?xml version="1.0" encoding="UTF-8" standalone="no"?>
<svg xmlns:xlink="http://www.w3.org/1999/xlink" height="65.1px" width="126.85px" xmlns="http://www.w3.org/2000/svg">
  <g transform="matrix(1.0, 0.0, 0.0, 1.0, 123.4, 45.25)">
    <path d="M-90.1 -40.5 Q-85.5 -33.8 -83.35 -25.5 L-88.6 -22.45 -88.6 -27.5 -88.65 -30.6 Q-91.0 -27.45 -94.75 -25.95 L-95.6 -30.15 Q-96.95 -26.6 -98.0 -22.45 -98.4 -24.35 -98.4 -26.5 -98.4 -30.7 -96.7 -35.9 -95.15 -40.7 -92.55 -45.25 L-89.35 -41.35 -89.7 -40.95 -90.1 -40.5 M-93.9 -31.1 Q-91.1 -31.1 -88.75 -32.0 -89.15 -36.65 -90.65 -39.75 -93.2 -36.35 -95.25 -31.1 L-93.9 -31.1 M-57.9 -31.4 L-61.15 -32.0 Q-61.9 -26.95 -65.55 -20.85 -64.55 -24.9 -64.55 -29.1 L-64.7 -32.0 -68.75 -31.05 Q-67.05 -32.65 -65.0 -33.7 -65.5 -37.05 -66.65 -39.8 L-61.75 -40.95 Q-60.95 -38.35 -60.95 -35.15 L-56.7 -35.55 -57.9 -31.4 M-53.45 -28.8 Q-52.15 -29.95 -50.4 -30.55 L-47.2 -29.55 Q-47.25 -31.2 -47.6 -33.1 -50.65 -32.45 -52.7 -31.25 L-54.3 -34.95 -50.55 -35.4 -48.15 -35.2 -49.35 -37.85 Q-47.6 -36.65 -46.35 -34.8 L-43.15 -33.65 -45.45 -33.45 Q-43.6 -30.15 -43.6 -26.85 -43.6 -24.8 -43.95 -22.6 L-48.2 -23.8 Q-49.8 -22.7 -51.5 -22.7 -53.05 -22.7 -53.95 -23.6 -54.85 -24.45 -54.85 -25.95 -54.85 -27.45 -53.45 -28.8 M-42.85 -32.55 Q-41.5 -33.75 -39.75 -34.45 -38.4 -36.2 -36.55 -37.1 L-38.0 -35.0 -34.65 -35.4 -32.2 -35.25 -32.2 -30.7 Q-35.3 -32.8 -38.75 -33.05 L-38.95 -31.1 Q-38.95 -29.35 -37.65 -28.15 -36.35 -26.9 -34.1 -26.9 -32.85 -26.9 -31.25 -28.0 L-32.7 -23.2 Q-34.05 -22.7 -35.5 -22.7 -38.35 -22.7 -40.0 -24.35 -41.65 -26.1 -41.65 -28.85 -41.65 -31.1 -40.65 -33.1 L-42.85 -32.55 M-47.25 -28.1 Q-48.95 -28.05 -50.2 -27.35 -51.55 -26.6 -51.55 -25.6 -51.55 -24.5 -50.4 -24.5 -49.3 -24.5 -47.6 -25.75 L-47.25 -28.1 M-74.9 -40.95 Q-74.1 -38.35 -74.1 -35.15 L-71.25 -35.55 -69.85 -35.55 -71.05 -31.4 -71.25 -31.45 -74.3 -32.0 Q-75.05 -26.95 -78.75 -20.85 -77.7 -24.9 -77.7 -29.1 L-77.9 -32.0 -81.95 -31.05 Q-80.25 -32.65 -78.15 -33.7 -78.65 -37.05 -79.85 -39.8 L-74.9 -40.95 M-28.8 -41.45 L-23.55 -42.7 Q-25.6 -36.35 -26.0 -30.65 -22.6 -32.55 -21.05 -35.85 L-17.55 -33.2 Q-20.15 -30.95 -23.8 -29.95 -21.35 -26.9 -17.05 -26.9 -17.9 -24.4 -20.6 -22.55 -24.6 -25.8 -25.0 -29.65 L-26.05 -29.45 -26.05 -27.85 Q-26.05 -24.1 -25.2 -21.35 -27.1 -23.6 -28.15 -27.7 -29.25 -31.9 -29.25 -37.15 -29.25 -39.8 -28.8 -41.45" fill="#ffffff" fill-rule="evenodd" stroke="none"/>
    <path d="M-41.15 4.45 L-54.95 5.35 -64.8 5.65 -69.75 5.65 Q-77.5 5.75 -83.45 5.45 L-83.65 7.0 -86.25 7.0 -86.25 17.2 -88.15 14.95 -88.6 6.75 -91.75 5.85 -92.15 4.6 -105.8 3.65 Q-112.2 2.9 -118.6 1.4 L-119.0 1.3 -121.25 0.75 -122.3 -2.15 -121.25 -4.3 -119.05 -3.95 -119.0 -3.95 Q-112.45 -2.9 -105.8 -2.55 -99.05 -2.25 -92.15 -2.7 L-91.75 -3.95 -88.6 -4.85 -88.15 -12.3 -86.25 -14.0 -86.25 -5.1 -83.7 -4.95 -83.5 -3.35 -72.6 -2.85 -64.8 -2.85 -56.45 -3.05 -41.15 -3.9 -41.15 4.45" fill="#ffffff" fill-rule="evenodd" stroke="none"/>
    <path d="M-41.15 4.45 L-41.15 -3.9 -39.9 -3.95 -21.9 -6.15 Q-10.15 -7.75 1.55 -10.25 0.15 -7.65 -1.45 -5.7 -5.3 -0.9 -10.0 0.15 L-25.95 2.6 -40.1 4.35 -41.15 4.45" fill="#333333" fill-rule="evenodd" stroke="none"/>
    <path d="M-41.15 -3.9 L-56.45 -3.05 -64.8 -2.85 -72.6 -2.85 -83.5 -3.35 -83.7 -4.95 -86.25 -5.1 -86.25 -14.0 -88.15 -12.3 -88.6 -4.85 -91.75 -3.95 -92.15 -2.7 Q-99.05 -2.25 -105.8 -2.55 -112.45 -2.9 -119.0 -3.95 L-119.05 -3.95 -121.25 -4.3 -122.3 -2.15 -121.25 0.75 -119.0 1.3 -118.6 1.4 Q-112.2 2.9 -105.8 3.65 L-92.15 4.6 -91.75 5.85 -88.6 6.75 -88.15 14.95 -86.25 17.2 -86.25 7.0 -83.65 7.0 -83.45 5.45 Q-77.5 5.75 -69.75 5.65 L-64.8 5.65 -54.95 5.35 -41.15 4.45 -40.1 4.35 -25.95 2.6 -10.0 0.15 Q-5.3 -0.9 -1.45 -5.7 0.15 -7.65 1.55 -10.25 -10.15 -7.75 -21.9 -6.15 L-39.9 -3.95 -41.15 -3.9 Z" fill="none" stroke="#333333" stroke-linecap="butt" stroke-linejoin="miter-clip" stroke-miterlimit="3.0" stroke-width="2.0"/>
  </g>
</svg>
