<?xml version="1.0" encoding="UTF-8" standalone="no"?>
<svg xmlns:xlink="http://www.w3.org/1999/xlink" height="87.0px" width="209.55px" xmlns="http://www.w3.org/2000/svg">
  <g transform="matrix(1.0, 0.0, 0.0, 1.0, 105.0, 56.25)">
    <path d="M104.55 30.75 L-105.0 30.75 -105.0 -56.25 104.55 -56.25 104.55 30.75" fill="url(#gradient0)" fill-rule="evenodd" stroke="none"/>
    <path d="M30.3 -40.55 L28.65 -34.85 24.2 -35.65 Q23.2 -28.75 18.15 -20.35 19.55 -25.9 19.55 -31.7 L19.3 -35.65 Q16.5 -35.35 13.75 -34.35 16.1 -36.55 18.95 -38.0 18.25 -42.6 16.65 -46.35 L23.4 -47.95 Q24.5 -44.35 24.5 -40.0 L30.3 -40.55 M5.65 -34.45 Q10.0 -30.55 12.3 -26.4 L7.35 -22.9 Q6.0 -27.85 4.4 -31.0 2.85 -24.45 -2.05 -22.9 L-3.8 -29.45 Q-2.5 -28.8 -0.6 -28.8 0.65 -28.8 1.8 -29.75 2.95 -30.7 3.6 -32.4 0.8 -37.2 -3.8 -40.35 0.7 -38.5 4.65 -35.25 6.6 -39.7 10.45 -40.35 L12.45 -34.9 Q11.05 -35.8 9.2 -35.8 7.05 -35.8 5.65 -34.45 M-11.5 -40.35 Q-9.6 -40.35 -8.15 -39.3 -6.75 -38.35 -6.15 -36.75 -7.6 -34.8 -9.65 -33.55 -11.95 -32.1 -14.05 -32.1 L-16.25 -35.0 -16.55 -33.35 Q-16.55 -31.2 -14.95 -29.95 -13.35 -28.7 -11.0 -28.7 -8.0 -28.7 -6.15 -30.15 L-8.15 -23.6 Q-10.05 -22.9 -11.8 -22.9 -16.05 -22.9 -18.4 -25.5 -20.45 -27.75 -20.45 -31.3 -20.45 -34.65 -18.15 -37.3 L-20.9 -40.7 Q-19.3 -39.4 -17.2 -38.2 -14.6 -40.35 -11.5 -40.35 M-11.5 -36.1 Q-9.9 -36.1 -8.85 -37.15 -9.85 -38.55 -11.5 -38.55 -13.55 -38.55 -14.95 -37.05 -12.85 -36.1 -11.5 -36.1 M-23.1 -34.2 Q-23.1 -28.45 -28.65 -22.75 -27.3 -26.3 -27.3 -30.65 -27.3 -33.05 -28.55 -34.5 -29.85 -35.95 -32.15 -35.95 -33.95 -35.95 -35.55 -35.1 -34.3 -29.15 -31.7 -24.7 L-37.5 -22.75 Q-38.65 -25.7 -38.65 -30.35 -38.65 -37.55 -36.7 -43.0 -36.5 -40.0 -35.9 -36.75 -32.85 -40.35 -29.05 -40.35 -26.2 -40.35 -24.55 -38.55 -23.1 -36.8 -23.1 -34.2" fill="#ffffff" fill-opacity="0.9764706" fill-rule="evenodd" stroke="none"/>
  </g>
  <defs>
    <linearGradient gradientTransform="matrix(0.0398, 0.1134, -0.1198, 0.042, 15.05, 15.5)" gradientUnits="userSpaceOnUse" id="gradient0" spreadMethod="pad" x1="-819.2" x2="819.2">
      <stop offset="0.0" stop-color="#580000"/>
      <stop offset="1.0" stop-color="#e0aa4d" stop-opacity="0.0"/>
    </linearGradient>
  </defs>
</svg>
