<?xml version="1.0" encoding="UTF-8" standalone="no"?>
<svg xmlns:xlink="http://www.w3.org/1999/xlink" height="116.8px" width="48.1px" xmlns="http://www.w3.org/2000/svg">
  <g transform="matrix(1.0, 0.0, 0.0, 1.0, 79.25, 27.5)">
    <path d="M-59.95 89.15 L-63.7 89.3 Q-70.6 54.25 -76.15 18.8 -78.05 7.6 -79.1 -3.6 -79.95 -13.35 -75.05 -22.35 -74.0 -24.3 -71.95 -25.45 -68.75 -27.3 -65.05 -27.5 -59.65 -27.7 -54.7 -25.3 L-50.7 -23.1 -47.2 -20.45 -43.9 -17.35 -42.45 -15.7 -41.15 -13.85 -39.85 -11.75 -39.75 -11.65 -39.95 -11.15 -38.1 -2.2 -35.7 15.2 -34.05 31.1 Q-33.35 38.2 -32.8 45.35 L-32.25 55.85 -31.8 66.4 -31.15 87.95 -34.0 88.05 -34.95 68.95 -35.55 57.15 -36.85 39.1 Q-37.4 32.05 -38.3 25.05 L-40.7 6.9 Q-41.75 -1.1 -43.9 -8.65 -44.5 -10.55 -45.5 -12.3 -50.7 -20.6 -60.25 -22.9 -65.55 -24.2 -69.4 -20.85 -71.1 -19.35 -72.1 -17.5 -74.3 -13.05 -73.85 -8.1 L-73.75 -3.7 Q-72.95 4.4 -71.75 12.75 L-69.7 27.9 -68.25 38.35 -66.65 48.75 -65.05 59.1 -63.3 69.35 -63.35 68.4 -59.95 89.15" fill="#000000" fill-rule="evenodd" stroke="none"/>
    <path d="M-59.95 89.15 L-63.35 68.4 -63.3 69.35 -65.05 59.1 -66.65 48.75 -68.25 38.35 -69.7 27.9 -71.75 12.75 Q-72.95 4.4 -73.75 -3.7 L-73.85 -8.1 Q-74.3 -13.05 -72.1 -17.5 -71.1 -19.35 -69.4 -20.85 -65.55 -24.2 -60.25 -22.9 -50.7 -20.6 -45.5 -12.3 -44.5 -10.55 -43.9 -8.65 -41.75 -1.1 -40.7 6.9 L-38.3 25.05 Q-37.4 32.05 -36.85 39.1 L-35.55 57.15 -34.95 68.95 -34.0 88.05 -55.0 88.85 -56.85 79.65 Q-58.9 66.6 -60.2 53.5 L-61.0 45.6 -61.85 37.55 -62.7 28.6 -64.25 9.75 -64.7 -0.3 -64.75 -3.6 -64.6 -7.1 -63.9 -7.6 -63.1 -8.55 -62.5 -9.3 -62.05 -9.95 -61.35 -10.7 -60.35 -11.7 -59.5 -12.9 -58.1 -15.4 Q-58.25 -18.65 -60.75 -20.7 -63.4 -22.9 -66.95 -21.65 -67.85 -21.35 -68.55 -20.75 -73.6 -16.7 -72.85 -10.15 L-70.95 4.6 -69.35 16.9 -67.7 28.5 -66.15 40.0 -63.25 59.4 -61.45 69.3 -59.65 79.15 -57.85 89.05 -59.95 89.15" fill="#faa710" fill-rule="evenodd" stroke="none"/>
    <path d="M-55.0 88.85 L-57.85 89.05 -59.65 79.15 -61.45 69.3 -63.25 59.4 -66.15 40.0 -67.7 28.5 -69.35 16.9 -70.95 4.6 -72.85 -10.15 Q-73.6 -16.7 -68.55 -20.75 -67.85 -21.35 -66.95 -21.65 -63.4 -22.9 -60.75 -20.7 -58.25 -18.65 -58.1 -15.4 L-59.5 -12.9 -60.35 -11.7 -61.35 -10.7 -62.05 -9.95 -62.5 -9.3 -63.1 -8.55 -63.9 -7.6 -64.6 -7.1 -64.75 -3.6 -64.7 -0.3 -64.25 9.75 -62.7 28.6 -61.85 37.55 -61.0 45.6 -60.2 53.5 Q-58.9 66.6 -56.85 79.65 L-55.0 88.85" fill="#ffdc70" fill-rule="evenodd" stroke="none"/>
  </g>
</svg>
