<?xml version="1.0" encoding="UTF-8" standalone="no"?>
<svg xmlns:xlink="http://www.w3.org/1999/xlink" height="222.0px" width="245.9px" xmlns="http://www.w3.org/2000/svg">
  <g transform="matrix(1.0, 0.0, 0.0, 1.0, 114.25, 76.5)">
    <path d="M64.25 -30.65 Q61.65 -25.45 61.55 -18.55 59.4 -23.2 59.4 -27.85 59.4 -31.2 60.35 -33.6 L63.7 -32.4 65.4 -32.75 Q67.8 -32.75 69.25 -30.55 71.2 -32.75 73.8 -32.75 76.1 -32.75 77.35 -31.35 78.55 -29.95 78.55 -27.85 78.55 -23.2 73.8 -18.3 75.2 -21.85 75.2 -25.45 75.2 -27.3 74.2 -28.45 73.15 -29.55 71.3 -29.55 L69.9 -29.35 Q70.85 -26.9 70.85 -23.65 70.85 -21.25 70.15 -18.7 L65.2 -20.05 Q67.05 -23.3 67.05 -27.7 67.05 -28.9 66.55 -29.75 65.9 -30.7 64.8 -30.7 L64.25 -30.65 M41.4 -32.65 Q41.4 -28.25 39.7 -24.15 41.55 -24.85 43.0 -25.9 41.35 -24.1 38.95 -22.6 37.95 -20.55 36.4 -18.65 L37.0 -21.45 Q32.8 -19.3 27.05 -18.8 L24.35 -26.8 Q29.6 -23.3 34.4 -23.3 L37.3 -23.6 37.35 -26.4 Q37.35 -30.9 36.7 -34.0 35.9 -37.6 33.95 -40.65 L39.3 -43.3 Q41.4 -38.35 41.4 -32.65 M48.2 -21.1 Q48.9 -20.4 49.95 -20.4 51.05 -20.4 52.1 -21.6 L51.85 -24.75 Q51.85 -30.55 53.45 -34.9 54.1 -25.9 57.45 -20.25 L52.8 -18.65 52.5 -19.6 Q51.25 -18.8 49.95 -18.8 47.1 -18.8 45.6 -20.5 44.1 -22.2 44.1 -25.25 44.1 -29.25 45.95 -33.05 L50.55 -30.45 Q49.05 -29.05 48.2 -26.8 47.4 -24.8 47.4 -22.85 47.4 -21.85 48.2 -21.1 M30.85 4.3 Q31.75 1.75 33.35 -0.7 32.7 1.4 32.3 3.75 34.8 2.95 37.55 2.95 L41.15 3.35 40.5 9.0 Q36.3 6.45 32.2 6.45 L31.85 6.45 Q31.55 8.5 31.55 10.45 L31.6 12.05 32.6 12.05 37.5 11.4 39.5 15.9 Q35.3 15.9 31.75 14.65 32.05 18.65 33.35 22.55 38.95 21.95 42.55 19.0 L41.2 25.85 Q37.3 25.45 33.75 23.75 L35.3 27.4 28.0 22.95 Q28.0 17.95 28.6 13.35 26.2 12.15 24.35 10.45 26.65 11.35 28.85 11.7 29.25 9.2 30.05 6.6 L26.45 7.2 Q28.25 5.35 30.85 4.3 M44.85 19.9 Q44.85 14.1 46.4 9.75 L47.05 14.75 Q49.5 11.85 52.55 11.85 54.85 11.85 56.15 13.3 57.3 14.7 57.3 16.8 57.3 21.4 52.85 25.95 53.95 23.15 53.95 19.65 53.95 17.7 52.95 16.55 51.9 15.4 50.05 15.4 48.65 15.4 47.35 16.1 48.35 20.85 50.45 24.4 L45.8 25.95 Q44.85 23.6 44.85 19.9 M63.85 14.5 Q65.55 15.25 66.6 15.25 67.9 15.25 68.75 14.45 67.95 13.3 66.6 13.3 65.0 13.3 63.85 14.5 M59.1 11.6 L62.05 13.6 Q64.15 11.85 66.6 11.85 68.15 11.85 69.3 12.7 70.45 13.45 70.9 14.75 69.75 16.3 68.1 17.3 66.25 18.5 64.6 18.5 L62.8 16.15 62.55 17.5 Q62.55 19.2 63.85 20.2 65.15 21.2 67.0 21.2 69.4 21.2 70.9 20.05 L69.3 25.3 66.4 25.85 Q62.95 25.85 61.1 23.75 59.45 21.95 59.45 19.1 59.45 16.45 61.3 14.3 L59.1 11.6 M130.5 -31.35 Q131.65 -29.95 131.65 -27.85 131.65 -23.25 127.2 -18.65 128.3 -21.5 128.3 -25.0 128.3 -26.9 127.3 -28.1 126.25 -29.25 124.4 -29.25 122.95 -29.25 121.7 -28.55 122.7 -23.8 124.75 -20.25 L120.1 -18.65 Q119.2 -21.05 119.2 -24.75 119.2 -30.55 120.75 -34.9 120.9 -32.5 121.4 -29.9 123.85 -32.75 126.9 -32.75 129.2 -32.75 130.5 -31.35 M115.35 -31.3 Q117.05 -28.5 117.05 -25.45 117.05 -20.75 113.75 -17.1 L112.8 -18.85 112.05 -18.8 Q109.25 -18.8 107.25 -21.1 105.25 -23.5 105.25 -26.5 105.25 -29.95 107.8 -33.2 L113.7 -30.35 Q113.05 -33.6 110.8 -35.75 113.65 -34.05 115.35 -31.3 M109.6 -21.55 Q110.55 -20.6 111.9 -20.6 L111.1 -22.1 Q113.9 -24.45 113.9 -28.25 L113.9 -29.0 Q111.35 -28.8 109.9 -27.25 108.6 -25.85 108.6 -23.8 108.6 -22.55 109.6 -21.55 M88.35 -32.75 Q93.15 -32.75 93.15 -27.95 93.15 -25.4 90.5 -22.7 87.85 -19.9 84.75 -18.95 85.45 -15.9 86.6 -13.55 L81.35 -11.4 Q80.7 -14.0 80.7 -18.2 80.7 -22.95 81.95 -27.5 83.25 -32.05 85.35 -34.45 L84.45 -30.95 Q86.35 -32.75 88.35 -32.75 M84.15 -28.9 L84.05 -26.7 Q84.05 -23.35 84.45 -20.45 86.2 -21.4 87.4 -23.15 88.65 -24.9 88.65 -26.7 88.65 -27.95 87.9 -28.75 87.15 -29.55 86.0 -29.55 84.95 -29.55 84.15 -28.9 M97.1 3.75 Q98.4 5.15 99.2 7.15 100.0 9.15 100.0 11.05 98.5 10.75 96.8 10.05 95.05 9.3 94.05 8.4 L97.1 3.75 M77.85 14.0 Q75.25 19.2 75.15 26.1 73.0 21.45 73.0 16.8 73.0 13.45 73.9 11.05 L77.3 12.25 79.0 11.85 Q81.4 11.85 82.85 14.05 84.75 11.85 87.4 11.85 89.65 11.85 90.95 13.3 92.15 14.7 92.15 16.8 92.15 21.45 87.4 26.35 88.8 22.8 88.8 19.2 88.8 17.3 87.8 16.2 86.75 15.05 84.9 15.05 L83.5 15.3 Q84.4 17.75 84.4 21.0 84.4 23.4 83.75 25.95 L78.75 24.6 Q80.65 21.35 80.65 16.9 80.65 15.75 80.1 14.9 79.5 13.95 78.4 13.95 L77.85 14.0 M97.0 11.65 Q100.0 17.3 100.0 24.8 L94.05 25.95 Q97.0 19.3 97.0 11.65 M110.8 17.3 Q108.95 18.5 107.25 18.5 L105.5 16.15 Q105.25 16.8 105.25 17.5 105.25 19.2 106.55 20.2 107.8 21.2 109.7 21.2 112.1 21.2 113.6 20.05 L112.0 25.3 109.05 25.85 Q105.65 25.85 103.75 23.75 102.15 21.95 102.15 19.1 102.15 16.45 103.95 14.3 L101.75 11.6 104.75 13.6 Q106.8 11.85 109.3 11.85 110.8 11.85 112.0 12.7 113.1 13.45 113.6 14.75 112.4 16.3 110.8 17.3 M111.4 14.45 Q110.6 13.3 109.3 13.3 107.65 13.3 106.55 14.5 108.2 15.25 109.3 15.25 110.6 15.25 111.4 14.45 M126.9 16.15 Q125.05 15.4 121.5 15.4 L119.95 15.4 Q124.5 18.0 127.15 22.35 L123.15 25.95 122.5 23.15 Q119.55 25.35 116.85 25.85 L115.45 20.5 Q118.25 21.6 120.7 21.6 L121.9 21.55 Q120.55 18.1 118.25 15.6 L114.85 16.1 Q119.75 12.4 125.7 11.6 L126.9 16.15 M-60.0 -71.3 L-61.6 -68.1 Q-62.2 -66.35 -62.2 -65.25 L-62.2 -64.85 -61.4 -65.6 -59.6 -65.9 Q-60.9 -64.6 -62.0 -62.35 -63.2 -59.7 -63.95 -58.35 -66.65 -53.25 -72.05 -50.85 -72.9 -52.65 -75.2 -55.75 L-79.1 -61.05 Q-83.6 -67.7 -82.65 -71.9 L-81.85 -71.9 Q-77.05 -62.3 -72.05 -58.65 L-66.3 -65.55 Q-62.5 -70.1 -61.2 -72.1 -60.2 -71.9 -60.0 -71.3 M-49.8 -52.1 Q-50.4 -50.85 -50.4 -49.85 -50.4 -48.9 -53.5 -43.35 -56.75 -37.4 -58.4 -36.8 L-56.65 -39.65 Q-56.2 -40.45 -55.6 -42.25 L-55.4 -42.85 Q-57.75 -40.45 -61.2 -35.55 L-66.45 -27.8 Q-69.25 -29.35 -76.65 -36.25 -84.25 -43.4 -84.25 -44.85 -84.25 -49.65 -83.65 -55.05 L-79.15 -47.0 Q-74.3 -39.45 -70.85 -39.45 -69.7 -39.45 -65.85 -42.25 L-65.65 -42.5 Q-62.45 -46.25 -59.7 -47.1 L-49.6 -55.25 -49.4 -55.55 Q-49.2 -55.6 -49.2 -54.35 -49.2 -53.35 -49.8 -52.1 M-77.05 -76.5 Q-76.85 -76.15 -76.05 -75.9 L-75.05 -75.3 Q-75.05 -74.35 -75.65 -74.1 -77.2 -74.35 -77.65 -76.5 L-77.05 -76.5 M-63.4 -66.1 Q-65.1 -65.7 -67.35 -62.2 -70.25 -57.6 -71.05 -56.85 L-69.85 -55.65 Q-67.25 -56.5 -65.2 -60.45 -63.55 -63.75 -63.4 -66.1 M-73.25 -56.45 Q-72.55 -54.45 -71.25 -52.85 L-70.9 -52.95 -70.25 -53.45 -71.3 -54.75 -73.25 -56.45 M-63.6 -42.25 L-66.7 -39.5 Q-68.55 -37.75 -69.25 -35.6 L-69.25 -35.0 Q-68.45 -35.4 -66.4 -38.2 L-63.4 -42.45 -63.6 -42.25 M-72.65 -36.4 Q-71.25 -36.4 -69.45 -38.15 -69.9 -37.8 -70.05 -37.8 -75.6 -37.8 -79.4 -44.25 -80.55 -46.1 -81.8 -49.15 L-83.25 -52.45 Q-83.25 -49.45 -81.9 -46.3 L-81.65 -46.45 Q-80.95 -45.9 -77.55 -40.5 -74.9 -36.4 -72.65 -36.4 M-90.15 -33.6 Q-91.1 -29.85 -92.7 -28.8 L-88.3 -24.85 -88.55 -26.65 -88.85 -30.6 Q-88.85 -32.75 -87.45 -33.2 -87.05 -31.4 -87.05 -27.8 L-87.25 -23.95 -84.65 -22.0 -81.75 -19.75 -81.85 -22.0 -81.0 -25.75 -80.7 -26.9 -83.4 -30.55 Q-83.25 -28.15 -83.25 -23.6 L-83.65 -23.2 -84.05 -23.6 -84.05 -30.8 -83.6 -30.8 Q-85.95 -34.2 -87.55 -37.4 L-80.15 -29.0 -80.05 -30.0 -79.45 -30.0 -79.3 -29.75 -79.25 -28.5 -79.3 -27.95 -79.2 -27.85 -78.5 -27.0 -78.45 -28.4 -77.85 -28.4 -77.6 -25.95 -73.3 -21.5 -73.25 -21.6 -73.2 -21.4 -70.65 -19.2 -70.45 -19.8 -69.85 -19.8 -69.6 -18.35 -67.3 -16.7 -65.85 -18.2 -65.45 -17.05 -61.75 -20.65 -58.8 -25.4 -57.6 -25.6 -57.55 -24.6 -55.0 -27.05 -50.6 -37.0 -49.15 -36.5 -46.8 -36.4 -46.6 -35.6 Q-43.5 -39.15 -42.4 -41.45 L-41.8 -41.45 Q-40.45 -37.85 -40.55 -30.3 -40.6 -22.0 -40.0 -19.2 -42.2 -18.65 -50.5 -12.6 -56.4 -8.25 -59.3 -6.25 L-58.55 -5.1 Q-57.65 -3.85 -57.65 -2.2 -57.65 0.45 -58.15 1.9 L-59.15 3.9 Q-60.65 6.4 -60.45 12.95 L-60.55 13.5 -57.65 14.25 Q-52.2 15.75 -49.5 16.8 L-48.9 15.55 Q-48.25 11.7 -48.25 8.8 -48.25 6.4 -45.05 4.8 L-45.0 4.25 -44.6 4.25 -44.55 4.55 Q-42.6 3.6 -39.55 2.95 L-39.6 2.65 -39.2 2.65 -39.15 2.9 -38.95 2.85 -37.55 2.6 -38.0 0.1 -37.6 -0.05 -37.15 2.55 -35.95 2.35 -34.25 1.3 -34.8 1.85 -35.15 2.2 -34.8 2.15 -34.1 1.95 -34.15 1.2 -37.65 -0.55 Q-42.9 -3.15 -45.55 -3.9 L-44.1 -1.3 Q-43.15 0.65 -42.05 1.55 -41.8 1.05 -41.8 -1.0 L-41.4 -1.1 -40.85 -0.9 Q-40.7 -0.7 -40.7 0.1 -40.7 0.95 -41.0 1.6 L-41.5 2.65 Q-43.8 1.2 -45.05 -1.3 L-46.75 -5.4 Q-45.4 -5.35 -40.9 -3.25 L-34.35 0.1 -34.35 -0.15 -35.05 -2.6 -34.65 -2.7 -34.8 -3.7 -34.4 -3.8 -34.15 -2.8 -33.55 -2.9 -34.35 -4.7 Q-35.15 -7.05 -35.35 -9.55 L-34.9 -11.35 -35.35 -12.95 -34.95 -12.95 -34.55 -11.85 Q-33.95 -12.8 -32.75 -13.55 L-31.7 -14.15 -31.55 -14.55 -31.15 -14.55 -31.1 -14.4 Q-29.35 -15.2 -27.05 -15.45 L-21.4 -15.05 Q-18.8 -14.1 -18.8 -11.9 -18.8 -10.05 -21.3 -4.35 L-22.9 -0.7 -22.7 -0.7 Q-4.2 -0.7 -4.2 20.65 -4.2 21.85 -4.65 24.55 -4.35 27.1 -4.2 29.8 -4.2 35.15 -4.4 36.05 -4.75 37.65 -7.3 42.35 -7.9 44.95 -9.25 48.3 L-10.7 51.4 Q-12.3 55.45 -15.85 57.7 L-14.35 59.5 -14.55 59.9 Q-15.55 59.55 -16.6 57.85 -17.55 56.25 -20.3 55.7 L-20.3 55.3 Q-19.2 55.3 -18.0 55.9 -16.85 56.5 -16.25 56.5 -14.05 56.5 -12.65 54.25 L-14.35 55.85 Q-13.6 53.3 -10.6 47.5 L-10.0 43.95 Q-9.45 40.9 -8.6 39.7 L-8.8 40.9 -8.45 41.2 -8.3 39.5 Q-8.3 39.15 -8.45 38.8 -14.95 55.3 -26.45 55.3 -37.25 55.3 -42.55 43.75 L-44.4 39.05 -51.2 34.55 -50.9 37.55 -51.2 37.85 -51.85 33.75 -51.9 32.1 -53.35 31.7 Q-51.85 32.8 -51.85 34.85 -51.85 36.1 -53.7 38.5 -55.6 40.85 -55.6 42.75 L-54.95 43.7 Q-54.1 44.55 -53.7 45.75 L-53.9 46.25 -53.9 46.3 -46.35 51.35 Q-38.5 57.1 -36.95 61.2 -39.3 58.6 -44.9 54.1 -51.45 48.85 -56.15 46.3 L-55.25 48.95 Q-54.5 50.85 -54.5 51.55 -54.5 52.4 -54.65 52.45 L-54.95 52.6 -56.45 48.85 -56.55 50.0 Q-56.55 52.55 -53.45 59.4 L-52.15 62.15 -51.05 60.7 -50.9 61.5 -51.45 62.1 -51.85 62.8 -50.95 64.75 -46.85 68.75 -43.8 71.85 -42.25 71.4 -40.6 70.2 Q-38.7 68.65 -34.5 68.95 L-32.9 63.85 -34.35 63.65 -37.5 63.35 -37.0 63.4 -36.4 63.65 -37.5 63.45 -38.15 62.4 -35.55 62.65 -32.7 63.35 -32.5 62.7 -32.5 57.15 Q-31.15 59.1 -31.15 59.9 -31.15 61.65 -31.65 63.7 L-31.55 63.75 -31.7 63.8 -31.95 64.9 -31.95 64.95 -32.05 65.05 -33.2 68.4 -33.85 70.75 -34.85 69.9 -35.05 69.25 Q-37.35 69.2 -38.9 70.35 L-41.25 72.2 Q-40.2 72.75 -40.05 73.25 -38.7 72.9 -37.8 72.4 -36.55 71.7 -35.6 70.6 L-34.95 70.8 Q-34.35 71.0 -34.25 71.15 L-37.4 73.05 Q-39.3 74.0 -41.8 74.25 -41.1 75.25 -40.85 76.0 L-42.75 74.35 -44.15 74.4 -45.65 74.2 -46.0 74.0 -45.65 74.9 Q-46.6 74.45 -46.95 73.2 L-47.45 73.1 -46.65 75.3 -46.85 75.6 Q-48.25 74.65 -49.0 72.0 -49.55 69.1 -49.85 68.2 L-49.5 68.2 -51.2 66.45 -52.2 67.3 -51.1 70.8 -48.85 78.25 -48.75 78.55 -48.85 78.55 Q-48.1 81.3 -48.1 82.1 -48.1 83.4 -48.25 83.75 -48.65 84.9 -50.4 84.85 L-50.1 85.2 Q-49.85 85.5 -49.85 86.25 -49.85 87.15 -52.5 88.35 L-49.45 90.5 Q-47.65 90.5 -45.05 88.15 -42.15 85.6 -41.5 85.4 L-39.2 86.9 -37.55 88.2 -37.5 87.55 Q-37.5 86.85 -38.0 85.9 -38.6 84.85 -38.6 84.15 -38.6 83.6 -36.0 81.65 L-35.9 81.85 -35.9 82.75 Q-35.9 83.65 -36.25 83.75 L-38.0 83.9 -37.15 86.45 Q-36.7 87.9 -36.7 88.75 L-36.8 89.15 -36.95 89.25 -36.35 89.2 Q-31.3 89.2 -29.5 96.85 -28.9 99.7 -28.75 102.65 L-28.35 103.5 Q-27.7 104.1 -26.5 104.4 -27.25 103.1 -27.4 100.85 L-27.15 95.8 -26.55 95.8 -26.0 98.35 Q-25.65 97.4 -24.95 96.8 -23.65 95.7 -21.8 96.05 -20.95 96.2 -20.15 96.7 -25.05 97.0 -25.95 98.65 L-25.65 100.7 -25.05 104.65 -24.25 104.65 Q-19.65 104.65 -18.55 102.05 -18.2 101.2 -18.2 100.1 L-18.35 99.05 -18.35 98.45 Q-17.35 100.0 -17.35 102.1 -17.35 103.55 -18.7 104.85 -20.15 106.25 -21.95 106.25 -27.45 106.25 -28.75 105.0 L-28.65 112.25 Q-28.75 118.95 -29.95 122.45 -30.65 124.45 -36.0 126.05 -41.65 127.7 -42.8 129.7 -43.5 130.95 -43.45 133.6 L-43.4 138.7 -49.0 138.7 Q-50.3 137.4 -50.6 135.9 L-50.95 137.2 Q-51.2 138.1 -52.4 138.1 -56.25 138.1 -56.7 137.1 -56.5 136.1 -57.0 136.1 -57.95 136.1 -59.15 137.0 -60.45 137.9 -61.8 137.9 -63.8 136.05 -63.3 133.4 -62.4 130.45 -62.4 128.9 L-63.0 127.9 Q-65.9 128.9 -65.85 132.15 L-65.55 135.0 Q-65.4 136.7 -65.65 137.7 L-65.45 137.9 -66.85 138.1 -72.05 137.9 -72.05 132.5 Q-69.65 130.1 -69.65 123.75 -69.65 122.9 -76.95 119.25 -78.25 118.55 -79.35 118.0 -79.05 121.5 -79.05 126.5 L-79.15 135.2 Q-79.55 141.45 -81.25 143.7 L-82.45 143.9 Q-88.15 140.35 -88.5 138.6 -88.65 138.05 -88.25 136.9 -87.85 135.55 -87.85 134.5 L-89.05 129.15 -92.9 134.45 -92.9 134.5 -93.0 134.6 -98.9 142.5 Q-99.65 142.0 -99.9 139.8 L-100.0 136.1 Q-100.0 129.25 -99.15 126.2 -97.75 121.1 -93.05 116.4 L-93.45 116.55 -94.75 116.8 -94.7 117.05 -94.95 116.85 -95.7 116.85 Q-101.15 116.85 -103.8 113.7 -105.4 111.75 -105.4 110.05 -105.4 108.75 -104.8 107.2 L-105.0 105.45 -104.4 105.45 -104.2 105.7 -102.4 102.7 -102.6 102.25 -102.05 102.25 -101.35 101.25 -97.9 96.35 -98.5 94.2 -97.9 94.2 -97.35 95.35 -97.3 95.0 Q-97.3 94.55 -98.85 92.05 -100.4 89.55 -100.4 88.7 -100.4 86.05 -97.2 81.6 -95.5 79.25 -93.8 78.0 L-94.5 75.8 -93.9 75.8 -93.05 77.45 Q-91.35 76.45 -89.65 76.4 -83.35 76.2 -80.3 79.85 -81.4 79.8 -82.4 78.9 -84.1 77.4 -86.05 77.4 -89.75 77.4 -92.5 78.7 -90.9 82.5 -89.55 87.75 L-87.1 97.85 -86.25 96.35 -87.45 91.25 Q-88.8 84.7 -89.85 81.6 -89.65 81.2 -89.05 81.2 -87.4 85.1 -86.15 91.15 L-85.35 95.05 -84.85 94.5 Q-82.5 91.8 -76.75 87.8 L-78.2 87.75 -79.25 87.6 Q-79.5 84.45 -79.35 81.3 L-77.6 84.35 -76.75 85.3 -76.9 84.65 -76.95 83.25 -76.95 81.8 -77.25 81.9 Q-78.1 76.7 -79.35 75.7 -79.75 75.45 -80.15 75.55 L-80.45 75.65 Q-80.45 74.0 -77.0 71.3 -76.45 70.8 -75.9 70.45 L-78.15 66.25 Q-80.75 61.35 -80.75 59.9 -80.75 58.7 -79.7 56.1 -78.8 53.85 -79.15 52.45 L-78.5 52.5 -77.25 52.75 Q-76.1 52.75 -75.55 52.05 L-74.7 50.55 -74.2 49.8 Q-76.8 49.4 -77.65 46.95 -78.05 45.75 -78.05 42.3 L-77.95 42.05 -77.35 41.7 Q-76.35 43.25 -76.1 46.0 -75.5 47.95 -72.55 48.9 L-71.15 48.8 Q-70.2 48.0 -69.05 46.15 L-68.25 44.75 Q-69.25 44.8 -70.5 45.85 -72.1 47.15 -72.55 48.6 L-72.95 48.6 -73.05 48.4 -73.1 47.55 Q-73.1 46.15 -71.1 45.1 -69.75 44.35 -67.95 44.0 -67.6 43.05 -67.6 42.3 L-68.1 38.4 -68.65 34.45 -68.5 32.2 -66.4 32.05 -59.95 31.7 Q-59.4 31.15 -58.55 30.75 -55.95 29.6 -52.0 30.85 L-52.0 30.3 Q-52.0 22.9 -49.65 17.25 -51.95 16.5 -57.15 15.3 L-65.75 13.45 -65.65 14.25 -65.4 15.25 Q-65.4 15.7 -65.7 15.95 L-67.0 15.7 -68.1 15.4 -68.25 14.85 -67.45 13.5 Q-68.5 14.3 -68.55 14.9 -68.4 15.65 -68.65 16.1 L-68.9 16.35 Q-69.3 14.75 -69.3 13.05 L-69.2 12.15 -69.05 12.2 -66.25 12.3 -63.95 11.8 Q-63.85 11.05 -64.6 10.0 L-65.95 8.15 -65.85 8.15 -66.25 7.2 -66.5 5.35 -66.1 5.35 Q-65.7 6.0 -65.45 7.2 L-65.1 8.35 -63.65 9.85 -62.4 11.1 -62.45 10.3 -62.4 9.45 -63.8 9.4 -63.65 9.15 -63.55 8.95 -62.35 9.1 Q-62.0 7.2 -60.6 4.55 -58.7 0.95 -58.7 -2.35 -58.7 -4.35 -59.55 -6.1 L-61.6 -4.75 -59.75 -6.4 Q-60.55 -7.85 -61.95 -9.05 L-62.6 -9.55 -63.2 -9.15 -63.3 -10.05 Q-64.75 -10.95 -66.5 -11.55 L-67.25 -11.55 -67.25 -11.8 -68.4 -12.1 Q-68.75 -11.8 -69.25 -11.55 L-70.45 -11.8 -70.5 -12.45 -72.7 -12.6 -73.25 -11.55 -74.1 -12.65 -74.15 -12.65 Q-80.8 -12.65 -87.6 -10.35 L-89.15 -9.8 -89.15 -9.7 -89.4 -9.45 -89.45 -9.7 Q-93.7 -8.05 -93.7 -6.95 -93.7 -5.55 -92.4 -1.9 -90.85 2.15 -90.75 2.95 -90.5 4.2 -90.65 6.0 L-90.65 8.4 Q-90.35 10.45 -86.1 10.45 L-79.15 15.9 Q-72.9 20.95 -70.85 21.3 L-67.3 16.9 -66.6 17.55 -66.5 18.85 -66.5 20.1 -66.65 20.65 -67.05 20.65 -67.05 17.85 -69.7 21.35 Q-69.5 21.35 -69.4 21.45 L-69.2 21.75 -69.45 22.1 Q-69.65 22.4 -70.5 22.4 -74.95 28.4 -76.6 31.45 -80.9 39.3 -79.55 45.35 -80.55 44.5 -80.95 43.6 L-81.25 41.5 Q-81.25 37.1 -75.9 28.6 L-71.55 22.3 Q-73.75 21.75 -76.75 19.3 L-80.75 15.8 Q-84.6 13.05 -84.75 12.05 L-87.7 12.3 Q-90.25 12.3 -92.7 4.1 L-94.45 -2.3 Q-95.4 -5.7 -96.0 -6.75 -95.5 -8.05 -89.6 -10.65 L-89.65 -11.15 -89.85 -12.95 -82.5 -13.6 -78.25 -14.0 Q-79.65 -16.75 -81.1 -18.5 L-81.65 -18.4 -81.7 -19.25 -83.4 -20.65 -87.35 -22.9 -87.45 -22.4 -88.05 -22.4 -88.15 -23.45 -94.9 -27.8 -91.65 -34.0 -89.25 -39.05 -88.05 -37.9 Q-89.3 -37.0 -90.15 -33.6 M-79.95 -23.9 L-80.8 -19.0 -79.45 -17.85 -79.45 -18.4 -78.95 -22.9 -78.75 -24.5 -79.6 -25.65 -79.95 -23.9 M-88.45 -11.15 L-85.4 -12.3 -87.7 -12.25 -89.15 -12.15 -89.15 -10.85 -88.45 -11.15 M-77.45 -23.1 L-77.45 -23.0 -77.8 -19.85 Q-78.1 -17.85 -77.85 -16.6 L-77.95 -16.45 -77.25 -15.8 -77.65 -14.0 -77.55 -14.0 -77.55 -14.15 -76.95 -14.05 -77.05 -17.85 -76.95 -20.5 -76.65 -22.25 -77.45 -23.1 M-72.95 -18.0 L-73.45 -14.4 -72.0 -16.8 -71.55 -17.6 -72.9 -18.65 -72.95 -18.0 M-75.4 -13.65 L-74.6 -13.65 -74.85 -14.8 -75.25 -14.05 -75.4 -13.65 M-72.3 -13.6 L-70.6 -13.5 -70.65 -16.0 -70.85 -16.4 -72.3 -13.6 M-75.1 -18.05 L-74.3 -19.9 -76.2 -21.75 Q-75.85 -19.45 -75.85 -15.4 L-75.1 -18.05 M-67.45 -13.75 L-67.6 -13.2 -67.45 -13.15 -67.2 -13.05 -67.05 -13.65 -66.7 -15.1 -67.1 -15.2 -67.45 -13.75 M-68.1 -15.6 L-69.45 -16.25 -69.45 -13.4 -69.35 -13.4 -68.4 -15.2 -68.1 -15.6 M-64.7 -12.3 L-63.1 -11.8 -63.1 -11.85 -62.4 -14.6 -63.4 -14.9 -64.1 -14.8 -65.3 -12.45 -64.7 -12.3 M-67.85 -29.8 Q-63.9 -33.4 -59.65 -39.1 -55.15 -45.1 -52.8 -50.05 L-57.1 -47.3 -56.8 -47.25 -56.6 -47.4 Q-56.4 -47.3 -56.4 -46.05 -56.4 -45.25 -61.75 -37.85 -67.05 -30.6 -67.35 -30.6 L-68.85 -30.75 -67.85 -29.8 M-70.0 -1.25 Q-69.05 -0.15 -69.05 2.95 -69.05 4.4 -69.6 7.35 L-70.5 11.8 Q-71.1 12.05 -71.3 11.8 L-70.35 5.05 Q-69.9 1.25 -70.0 -1.1 L-70.0 -1.25 M-75.25 1.55 Q-75.1 4.8 -75.1 11.25 L-75.35 11.5 -75.65 11.25 -75.65 1.55 -75.25 1.55 M-73.6 1.55 L-73.5 11.25 -73.75 11.5 -74.0 11.25 -74.0 1.55 -73.6 1.55 M-72.55 3.15 Q-72.3 6.8 -72.55 10.45 L-72.95 10.45 -72.95 3.15 -72.55 3.15 M-67.15 1.55 L-66.8 5.85 -66.65 9.3 Q-66.65 10.2 -66.8 10.6 L-67.15 11.1 -67.6 11.1 -67.7 6.5 -67.6 1.55 -67.15 1.55 M-68.25 -0.05 L-68.0 5.0 -68.25 7.65 -68.65 10.85 -68.9 11.5 -69.2 10.65 -69.3 9.2 -69.05 5.15 -68.65 -0.05 -68.25 -0.05 M-64.3 12.65 L-61.8 13.25 -62.15 12.65 -63.0 12.45 -64.3 12.65 M-27.95 -12.55 Q-27.55 -11.05 -26.75 -3.0 L-26.15 -2.9 -25.1 -2.45 -26.65 -2.15 -26.45 -0.25 -24.7 -0.55 -24.6 -4.9 -24.2 -4.9 -24.0 -2.05 -22.65 -5.05 Q-20.15 -10.4 -20.15 -11.75 L-20.25 -12.6 Q-20.6 -13.45 -22.0 -14.15 L-29.95 -14.0 -30.9 -13.4 Q-29.9 -8.75 -29.15 -3.1 L-28.1 -3.1 -27.3 -3.1 Q-27.85 -8.75 -28.5 -12.4 L-27.95 -12.55 M-46.3 -34.8 L-44.95 -30.75 Q-43.65 -27.3 -44.2 -25.6 L-43.2 -27.6 -42.6 -27.6 -42.0 -26.4 Q-42.6 -24.5 -45.8 -21.7 -48.95 -19.0 -50.4 -19.0 -51.5 -19.0 -51.7 -17.95 -51.95 -16.6 -52.4 -16.2 L-53.4 -16.6 Q-53.85 -17.65 -52.7 -20.45 L-51.0 -24.4 -56.0 -13.8 -57.0 -13.8 -57.2 -13.6 Q-57.4 -13.75 -57.4 -15.0 -57.4 -16.0 -54.2 -23.4 L-54.2 -24.0 -57.35 -16.4 Q-58.7 -13.3 -60.7 -11.2 L-58.15 -10.65 Q-58.45 -10.25 -60.85 -9.85 -60.25 -8.05 -59.45 -6.6 L-51.55 -12.6 Q-44.15 -18.0 -41.8 -21.0 L-41.8 -38.4 -42.0 -38.85 -46.3 -34.8 M-57.6 -24.35 Q-57.75 -22.5 -58.6 -19.0 L-55.15 -26.7 -57.6 -24.35 M-59.6 -17.0 L-60.6 -14.2 -59.8 -15.8 Q-59.45 -16.85 -59.6 -17.2 L-59.6 -17.0 M-33.5 -11.35 L-33.75 -9.35 -33.7 -8.8 -33.05 -6.0 -32.7 -5.3 -30.9 -3.2 -31.7 -12.85 -33.5 -11.35 M-33.6 -1.25 L-32.85 -0.65 -32.9 -1.3 -33.6 -1.25 M-43.4 8.05 L-43.4 7.5 -43.0 7.5 -43.0 7.65 -41.45 6.3 -41.6 5.15 Q-43.1 5.85 -44.2 6.75 L-43.8 8.5 -43.4 8.05 M-38.9 5.2 L-41.0 6.95 -40.95 7.8 -39.0 5.45 -38.85 5.35 -38.9 5.2 M-39.2 4.15 L-41.25 5.0 -41.15 6.0 -39.1 4.45 -39.2 4.15 M-41.35 7.2 L-42.9 8.6 -42.7 10.6 -41.2 8.2 -41.35 7.2 M-40.8 8.8 L-40.1 14.1 Q-39.2 19.7 -37.5 24.3 L-38.0 24.4 Q-39.45 20.05 -40.4 14.2 L-41.1 9.2 -42.55 11.85 Q-41.75 17.3 -39.8 25.2 L-39.9 25.5 Q-40.8 23.15 -41.5 20.05 L-40.3 26.0 -41.1 26.0 Q-41.4 23.0 -43.3 14.45 L-43.4 14.0 Q-44.2 16.1 -44.65 18.65 -43.9 21.55 -42.85 23.9 -44.1 22.5 -44.9 20.05 L-45.2 22.05 Q-43.8 23.95 -41.5 25.75 -36.5 29.65 -31.55 29.65 -28.85 29.65 -28.2 28.65 L-27.55 28.1 -29.9 7.2 -30.35 2.5 -31.5 2.6 -30.9 7.6 Q-29.15 22.9 -27.95 28.2 L-28.9 28.3 Q-29.85 23.5 -31.7 7.6 L-32.35 2.75 -33.2 2.85 -31.95 12.15 -29.95 28.0 -30.5 28.2 -32.85 12.25 -33.95 2.95 -34.95 3.15 -36.85 4.5 -35.6 11.7 -33.2 23.75 -33.75 23.9 Q-34.75 19.5 -35.95 12.3 L-37.25 4.8 -38.35 5.8 Q-37.35 9.6 -36.6 14.65 L-34.8 26.8 -34.95 27.6 -35.35 27.6 -37.0 14.85 Q-37.75 9.95 -38.65 6.1 L-40.8 8.8 M-38.75 4.15 L-38.4 3.95 -38.8 4.05 -38.75 4.15 M-31.65 1.5 L-31.65 1.75 -30.45 1.55 -30.5 1.05 -31.65 1.5 M-30.65 -0.25 L-32.05 -1.0 -31.7 1.15 -30.5 0.75 -30.65 -0.25 M-32.5 1.85 L-32.5 1.8 -32.5 1.85 M-33.3 1.65 L-33.4 1.6 -33.4 1.75 -33.3 1.65 M-46.8 12.0 L-46.95 11.25 -47.15 12.55 -47.0 12.3 -46.8 12.0 M-47.25 17.85 L-47.05 17.95 -47.05 18.5 -45.7 21.3 -45.35 18.7 -45.65 17.5 -46.6 12.85 -47.25 13.85 -47.3 16.25 -47.3 17.55 -47.25 17.55 -47.25 17.85 M-47.2 22.8 L-46.0 24.85 -45.85 22.55 -47.15 20.95 -47.2 22.8 M-47.65 23.35 L-47.7 21.4 -48.35 23.05 Q-48.45 23.05 -48.75 23.3 L-49.55 23.75 -49.9 24.0 Q-50.25 24.15 -50.25 23.3 -50.25 22.0 -49.3 17.5 L-50.65 21.3 Q-51.6 25.05 -51.4 31.05 -49.9 31.6 -48.25 32.45 -48.25 32.85 -48.75 33.0 L-51.35 32.3 -51.3 33.45 -51.2 33.4 -44.9 37.3 Q-46.05 32.9 -46.05 28.4 L-46.05 25.4 -47.3 23.35 -47.65 23.35 M-43.4 9.9 L-43.4 9.15 -43.65 9.4 -43.2 11.65 -43.15 11.45 -43.4 9.9 M-46.2 11.25 L-44.45 9.2 -44.85 7.4 Q-45.75 8.2 -46.25 9.2 L-46.45 9.6 -46.2 11.25 M-43.0 12.85 L-42.5 15.15 -42.2 16.4 -42.9 12.7 -43.0 12.85 M-46.05 12.15 L-45.45 15.55 -45.05 17.3 -44.9 16.7 -43.7 12.8 -44.25 10.05 -46.05 12.15 M-45.05 26.0 Q-43.55 27.55 -40.8 28.6 -35.95 30.4 -20.2 32.25 L-20.3 31.8 -19.9 31.65 -19.6 32.3 -19.55 32.3 -21.0 18.9 -22.45 2.65 -22.0 2.65 Q-21.0 7.6 -20.15 18.55 -19.4 27.4 -18.55 32.45 L-18.45 32.45 -16.55 32.4 -17.4 20.75 Q-18.0 10.0 -19.35 4.25 L-19.15 4.15 -18.95 3.95 Q-16.9 9.7 -16.25 19.6 L-15.4 32.4 -14.2 32.45 Q-14.95 28.2 -15.7 20.2 -16.65 10.15 -16.65 7.3 L-16.55 6.2 -16.55 5.85 -16.15 5.85 -14.75 20.35 -13.5 32.45 -12.75 32.5 -10.65 32.7 -11.55 24.95 -11.7 24.0 -11.55 29.6 Q-11.55 30.9 -11.7 31.8 L-11.95 32.45 Q-13.05 28.6 -13.35 21.6 L-13.75 10.45 -13.85 10.2 -13.85 16.65 -14.15 16.9 -14.35 13.0 -14.35 11.0 Q-14.2 9.1 -13.45 8.4 -12.9 10.35 -12.5 13.35 L-12.35 9.5 -11.85 9.5 Q-10.9 17.2 -9.75 32.8 -8.3 33.0 -7.6 34.15 -6.55 30.8 -5.8 27.45 -5.9 22.4 -6.5 19.1 -8.05 9.4 -12.75 9.4 -11.75 7.55 -10.85 7.0 -11.55 6.0 -12.8 4.9 L-15.85 1.95 -23.65 2.05 -22.85 12.85 -21.2 30.6 -21.5 31.4 Q-22.35 28.8 -23.6 15.4 L-24.65 2.1 -26.25 2.15 -25.95 5.15 Q-24.45 21.25 -24.45 26.4 L-24.45 27.7 -23.75 27.8 Q-23.05 27.95 -23.0 28.2 L-26.75 29.95 -26.75 30.2 -27.25 30.3 -27.3 30.15 -30.3 30.45 Q-35.45 30.45 -40.65 27.0 L-45.3 23.1 -45.45 25.55 -45.05 26.0 M-45.5 26.15 L-45.55 28.35 Q-45.55 33.05 -44.25 37.7 L-43.05 38.5 Q-37.65 41.9 -34.55 41.9 L-29.95 41.7 -29.95 40.25 -29.55 40.25 -29.45 41.3 -28.55 40.1 Q-28.3 39.7 -27.55 39.7 L-25.1 39.3 -25.1 38.1 -24.7 38.1 -24.45 39.05 Q-22.85 38.4 -21.0 37.15 L-21.0 37.1 Q-21.55 36.35 -22.45 36.25 L-22.0 35.6 -21.6 35.15 Q-20.9 35.3 -20.25 36.6 L-17.6 34.35 Q-17.6 33.9 -18.3 33.55 L-18.4 33.55 -18.15 34.65 -19.2 34.75 -19.4 33.4 Q-36.05 31.45 -40.7 29.6 -43.35 28.6 -44.9 26.85 L-45.5 26.15 M-9.4 6.95 Q-7.5 7.95 -6.1 15.15 -5.35 18.5 -4.9 22.25 L-4.7 20.75 Q-4.7 4.5 -15.2 0.85 L-11.2 4.0 Q-9.5 5.35 -9.4 6.95 M-28.35 -1.95 L-29.05 -1.85 -29.0 -1.7 -27.95 -1.1 -28.4 -0.45 -28.85 -0.25 -28.8 0.25 -27.05 -0.15 -27.25 -2.1 -28.35 -1.95 M-25.95 -0.05 L-26.45 0.05 -26.35 1.15 -25.1 1.0 -25.1 0.95 -24.8 -0.15 -25.95 -0.05 M-22.7 0.75 L-21.8 0.6 -15.85 0.65 Q-19.05 -0.35 -23.2 -0.25 L-23.65 0.9 -22.7 0.75 M-27.05 0.15 L-28.75 0.55 -28.7 1.35 -27.0 1.2 -27.05 0.15 M-28.55 2.35 L-28.15 7.8 -26.85 27.8 -25.4 27.6 -25.25 27.6 -26.6 7.5 -26.9 2.2 -28.55 2.35 M-7.3 28.85 L-7.4 33.25 -7.7 33.55 Q-9.05 25.8 -9.7 19.3 L-9.15 19.15 Q-7.3 27.45 -7.3 28.85 M-5.8 30.2 L-7.15 35.15 -6.95 35.95 Q-6.7 37.55 -7.0 39.3 L-7.05 40.35 Q-6.15 38.5 -5.85 36.05 L-5.8 30.2 M-13.05 33.25 L-12.9 32.85 -13.4 32.9 -13.35 33.75 -13.05 33.25 M-14.15 36.25 L-14.25 35.45 Q-14.25 34.8 -13.8 34.3 L-14.1 32.9 -15.35 33.0 -15.15 35.55 -15.45 37.15 -16.0 37.3 -16.4 33.85 Q-17.15 35.05 -20.1 37.0 L-19.2 38.95 -19.2 38.8 Q-19.2 38.65 -16.65 37.05 L-17.25 38.15 -18.4 39.05 -18.8 39.45 -19.1 39.35 -19.5 39.6 Q-20.0 39.25 -20.7 37.65 L-20.8 37.45 -21.6 37.95 -24.3 39.5 -23.9 41.75 -23.5 43.8 Q-20.6 42.55 -17.4 40.4 -13.5 37.95 -10.45 35.35 L-10.5 34.65 -12.35 35.65 Q-13.1 36.1 -13.95 36.05 L-14.15 36.25 M-9.4 37.5 L-10.3 36.1 Q-12.35 38.3 -18.15 42.1 -20.85 43.95 -23.2 45.15 L-23.1 45.35 -23.4 45.2 Q-28.15 47.65 -31.3 47.65 L-40.15 41.9 -43.75 39.5 -42.7 42.3 Q-37.75 54.35 -26.55 54.35 -15.35 54.35 -8.95 37.9 L-9.4 37.5 M-8.9 41.45 L-9.25 44.15 -9.25 44.4 -8.6 42.1 -8.9 41.45 M-16.5 33.2 L-16.5 33.05 -16.75 33.05 -16.5 33.2 M-25.1 39.95 L-27.05 41.1 -26.65 41.9 Q-26.45 42.4 -26.2 43.6 L-26.75 43.75 Q-26.95 42.45 -27.5 41.4 L-29.2 42.45 -29.1 42.95 -28.6 45.4 -24.45 44.2 Q-24.95 43.35 -25.1 42.05 L-25.1 39.95 M-30.25 43.1 L-33.75 43.35 Q-33.4 44.8 -31.0 45.6 L-29.3 45.55 -29.5 44.45 -29.9 42.85 -30.25 43.1 M-54.7 33.4 L-59.8 33.55 -60.25 34.7 -60.75 38.35 -61.15 38.35 -61.4 34.95 -61.2 33.65 -62.5 33.65 -67.05 33.95 Q-65.95 41.5 -65.95 42.4 -65.95 42.9 -67.0 44.35 L-66.9 44.55 -66.9 45.5 -66.9 46.15 -63.25 45.55 -59.75 45.2 -60.4 44.35 -61.25 42.6 Q-61.25 41.15 -57.75 39.45 L-57.65 39.3 Q-60.05 39.05 -60.2 38.65 L-59.75 38.35 Q-56.4 38.5 -56.3 38.9 L-57.95 41.9 -58.05 43.4 -57.5 43.75 -57.5 42.85 Q-57.5 40.7 -55.6 37.9 L-53.7 34.8 Q-53.7 34.0 -54.15 33.65 L-54.7 33.4 M-59.35 45.7 L-63.0 45.6 Q-64.9 45.6 -66.85 47.0 L-69.45 49.4 Q-70.25 49.25 -70.4 48.85 L-68.75 47.05 Q-67.9 46.05 -67.7 45.3 L-68.65 46.45 -70.9 48.9 -70.8 49.15 Q-77.55 54.05 -77.95 54.65 L-77.9 56.0 Q-77.55 57.45 -77.55 59.25 L-77.55 59.9 Q-76.95 60.6 -76.95 61.35 -76.95 62.15 -77.55 62.3 L-78.35 62.55 Q-76.05 65.15 -70.2 70.65 L-70.25 70.35 -69.85 70.35 -69.65 71.15 -67.2 73.45 Q-61.7 79.0 -60.2 83.0 L-60.2 82.35 -59.9 79.7 -59.65 76.65 -59.1 76.65 -55.75 85.5 -56.3 85.65 Q-56.55 84.75 -57.55 82.35 L-57.8 81.9 -57.6 83.1 Q-57.25 85.05 -56.4 86.2 -57.75 85.75 -58.3 83.35 -58.65 81.55 -58.45 80.55 L-58.35 80.55 -58.85 79.35 Q-59.5 82.85 -59.5 88.6 L-59.75 88.9 -60.2 84.3 Q-62.6 80.65 -68.95 73.85 -67.9 77.05 -65.85 81.4 L-61.75 89.95 -60.7 89.7 Q-53.3 88.05 -50.5 86.05 L-51.05 85.2 Q-51.35 84.45 -51.6 84.05 L-48.9 83.9 Q-48.9 82.2 -49.5 79.15 L-49.7 77.85 -50.7 75.4 Q-51.05 74.9 -51.45 74.9 -51.85 74.9 -52.9 70.3 L-53.5 68.05 -53.85 68.2 Q-56.1 69.25 -56.8 69.0 L-54.85 68.35 -53.5 67.85 -54.45 64.15 -54.7 64.05 -56.75 64.15 -57.75 64.15 Q-57.75 65.35 -57.9 65.75 L-58.45 65.95 -58.55 65.7 -58.55 64.7 Q-58.55 62.95 -56.95 63.15 -56.1 63.25 -54.5 63.9 L-54.8 62.8 -54.8 60.5 -54.3 60.5 -53.1 64.5 -52.5 64.75 -52.65 64.3 -52.4 62.7 -52.75 62.05 -55.7 56.65 Q-58.45 50.8 -57.35 46.7 L-57.9 45.75 -59.15 45.7 -59.25 45.75 -59.35 45.7 M-58.35 45.0 L-58.35 44.95 -58.4 45.05 -58.35 45.0 M-48.1 46.95 L-47.2 47.75 Q-46.75 48.3 -46.75 48.6 L-49.45 47.25 Q-44.55 45.35 -37.5 51.6 -34.9 53.9 -32.95 56.5 L-32.85 56.7 -38.95 54.9 -38.8 54.25 Q-38.4 53.6 -38.4 52.85 -38.4 52.6 -42.05 49.9 -45.85 47.05 -46.85 46.85 L-48.1 46.95 M-51.7 66.75 L-52.7 65.75 -52.25 67.15 -51.7 66.75 M-45.7 71.7 L-45.55 71.95 -45.45 71.95 -45.7 71.7 M-46.35 71.8 L-46.7 71.05 -46.55 71.85 -46.35 71.8 M-43.6 73.8 L-46.15 73.4 -46.0 74.0 -43.6 73.8 M-47.2 72.0 L-47.15 70.9 -46.85 70.9 -47.1 70.45 -49.4 68.3 -48.1 71.6 -47.8 72.25 -47.2 72.0 M-48.5 93.2 L-49.15 92.2 Q-49.8 91.75 -50.4 91.6 L-49.75 92.8 Q-49.3 93.5 -48.5 93.7 L-48.15 93.55 -48.05 93.35 -48.35 93.0 -48.5 93.2 M-47.15 92.15 Q-45.15 89.75 -42.15 89.4 L-41.4 89.35 -44.1 89.65 Q-46.05 90.35 -47.45 91.7 L-47.15 92.15 M-53.35 88.95 Q-52.7 88.8 -52.5 88.4 L-57.55 90.15 -61.2 91.2 -60.6 92.5 -61.3 91.2 -67.3 92.9 -68.1 92.6 Q-67.3 91.3 -62.0 90.0 L-66.25 82.05 Q-68.6 77.1 -69.65 73.15 L-71.0 71.7 -71.1 71.95 -70.7 74.1 -70.4 74.1 -69.45 80.3 -68.65 84.7 -68.25 84.7 -68.1 84.6 -68.1 82.25 -68.65 79.45 -68.25 79.45 -67.25 82.85 Q-66.5 85.6 -66.5 86.15 -66.5 87.45 -66.65 86.75 L-66.85 86.75 -66.25 89.8 Q-65.95 89.7 -65.95 88.1 L-65.55 88.1 -65.45 88.35 -65.4 89.3 -65.45 90.25 -65.55 90.5 Q-66.9 90.15 -67.4 88.35 -67.65 86.55 -68.0 85.6 L-68.1 87.15 -68.15 87.5 -67.05 90.35 -69.6 85.5 -73.95 85.1 -75.65 84.85 -75.65 84.15 -70.0 84.55 -70.35 83.7 Q-71.9 79.75 -72.4 76.25 L-72.0 76.25 Q-71.7 78.2 -70.65 81.25 L-71.25 77.2 -71.55 73.15 -71.7 73.4 -72.5 73.3 -72.7 72.75 Q-75.4 77.15 -75.75 85.65 L-76.25 85.65 -74.65 86.2 -74.65 86.35 -74.45 86.2 -74.1 86.55 -73.65 87.4 Q-78.35 90.8 -81.8 95.85 L-84.25 100.05 -84.05 101.05 -84.75 101.2 Q-85.25 102.7 -85.25 103.9 -85.25 107.6 -82.4 110.55 -80.95 111.95 -76.1 115.2 -71.85 118.1 -70.1 120.4 -67.55 123.85 -68.05 128.5 L-68.05 128.9 -67.15 126.7 Q-66.45 125.3 -65.2 125.3 -59.3 125.3 -59.3 129.0 -59.35 130.95 -60.8 133.9 L-60.6 135.1 -60.0 135.3 Q-58.5 131.95 -58.2 127.9 L-55.8 128.4 -52.2 128.9 Q-51.0 128.9 -50.3 128.1 L-49.2 126.9 -47.4 127.1 Q-47.0 131.75 -48.0 135.5 L-47.6 136.1 -45.6 136.1 Q-45.85 132.2 -43.7 129.8 -41.8 127.7 -31.95 120.25 L-31.85 116.1 Q-34.8 118.45 -42.9 118.45 -45.45 118.45 -46.8 115.85 -47.6 114.25 -47.6 113.05 -47.6 106.1 -44.85 102.85 -42.5 99.95 -38.85 100.5 -35.45 101.05 -32.9 104.25 -31.9 105.45 -31.25 106.8 L-31.15 104.65 Q-31.15 98.5 -31.65 96.75 -33.0 91.65 -37.85 90.35 L-38.2 90.75 -39.5 92.6 Q-40.5 94.3 -43.75 94.45 L-46.8 94.75 -47.4 95.35 Q-48.8 96.7 -49.55 96.8 L-49.2 95.75 Q-51.9 93.5 -54.3 89.3 L-53.35 88.95 M-52.4 89.95 L-52.4 90.1 -51.3 92.1 -51.05 92.2 -51.7 91.0 -52.4 89.95 M-44.9 93.25 L-42.2 93.2 -39.95 91.15 -40.35 91.35 -44.9 93.25 M-44.1 106.45 Q-46.2 109.35 -46.2 114.35 -46.2 115.6 -46.0 115.85 L-45.8 115.85 Q-45.55 115.85 -45.55 116.2 L-44.4 116.45 Q-39.2 116.45 -35.55 114.05 -32.95 112.35 -32.95 111.55 -32.95 107.95 -35.05 105.7 -36.95 103.7 -39.6 103.8 -42.3 103.95 -44.1 106.45 M-24.15 99.05 Q-23.6 98.85 -22.85 99.55 -22.15 100.15 -22.15 100.65 L-21.6 99.25 Q-21.2 98.45 -19.95 97.85 -19.65 99.6 -21.95 102.25 L-23.35 102.05 -23.5 100.55 Q-23.75 99.45 -24.15 99.05 M-79.35 58.5 L-78.55 59.0 -78.75 57.6 -78.85 57.3 -79.35 58.45 -79.35 58.5 M-79.65 59.9 L-78.95 61.8 -78.35 61.1 -78.55 59.7 -79.55 58.9 -79.65 59.9 M-77.5 65.0 Q-75.95 68.25 -75.4 70.05 L-73.6 68.95 -77.55 64.85 -77.5 65.0 M-105.0 78.0 Q-105.6 79.85 -106.1 80.3 -106.5 80.7 -108.6 81.4 L-110.45 79.85 Q-110.85 79.45 -110.85 79.05 -110.85 74.4 -106.6 73.8 -104.95 73.6 -103.75 74.45 -102.4 75.45 -102.4 77.25 -102.4 79.95 -102.55 80.35 -103.15 81.8 -105.8 82.6 L-104.05 79.55 Q-103.6 78.45 -103.6 77.45 L-103.65 75.9 -103.8 75.4 -107.8 75.4 -109.2 76.75 Q-109.65 77.35 -109.65 78.65 L-109.6 79.9 -109.25 79.8 Q-108.6 79.6 -106.75 78.45 -105.45 77.65 -105.0 78.0 M-98.75 86.75 L-99.1 88.6 Q-99.1 89.3 -97.35 91.55 -95.7 93.75 -95.7 94.8 -95.7 95.9 -96.5 97.45 -95.2 100.65 -94.15 104.9 L-91.25 115.85 -91.45 116.0 -91.4 116.0 -91.1 116.1 -90.45 114.55 Q-89.55 112.6 -88.2 111.5 -87.45 110.9 -86.7 110.6 L-87.5 108.95 Q-88.45 106.8 -88.45 103.5 -88.45 101.9 -88.05 100.4 -89.05 97.25 -91.05 88.45 L-93.45 79.25 Q-95.6 80.55 -97.1 82.9 -98.15 84.6 -98.75 86.75 M-96.1 84.6 L-95.5 84.6 Q-93.2 94.15 -90.45 108.05 L-91.25 108.25 -94.25 98.2 Q-96.3 90.45 -96.3 87.5 L-96.15 85.6 -96.1 84.6 M-112.85 102.25 L-111.5 102.45 -108.45 101.95 Q-109.4 100.85 -110.25 98.45 L-111.05 95.6 -112.0 96.7 Q-113.05 98.55 -112.85 102.05 -112.7 102.05 -112.85 102.25 M-114.25 98.05 Q-114.25 96.2 -112.7 94.65 -111.3 93.2 -109.45 92.8 -107.4 92.4 -106.1 93.65 -104.6 95.1 -104.6 98.45 -104.45 99.45 -104.6 100.35 L-104.2 100.65 -104.4 101.25 -104.8 101.15 -105.05 101.8 Q-106.5 104.95 -111.65 103.85 L-111.3 104.85 -110.45 106.45 -111.05 106.85 Q-112.9 105.1 -113.65 102.55 -114.25 100.65 -114.25 98.05 M-108.4 94.9 L-110.15 95.1 -108.85 97.95 -107.55 101.65 Q-106.45 101.2 -106.2 100.85 L-106.2 100.2 -107.15 98.95 Q-108.4 96.85 -108.4 95.2 L-108.4 94.9 M-107.25 95.1 L-106.95 97.05 -106.2 98.6 -106.2 95.4 -107.25 95.1 M-103.15 107.15 Q-102.55 108.35 -102.15 110.25 L-101.55 113.3 -101.05 113.6 Q-98.95 115.1 -96.4 115.15 -97.55 113.35 -98.25 110.55 L-100.3 102.7 -101.5 104.3 -101.05 106.5 -101.75 104.6 -103.15 107.15 M-97.3 98.85 L-99.45 101.7 Q-98.15 104.25 -96.9 108.85 L-95.25 115.1 -93.3 114.65 Q-92.15 114.9 -92.05 115.95 L-91.85 116.0 Q-94.0 112.3 -95.7 105.4 L-97.3 98.85 M-71.8 70.9 L-73.35 69.25 Q-73.9 70.4 -75.7 72.3 L-78.55 75.3 Q-77.15 75.3 -76.55 76.1 -76.15 76.6 -76.15 77.1 L-76.15 77.25 -76.0 76.55 Q-74.7 71.5 -72.7 70.9 L-71.95 71.0 -71.8 71.05 -71.8 70.9 M-69.6 83.25 L-69.7 83.65 -69.3 84.65 -69.2 84.65 -69.75 81.7 -69.6 83.25 M-84.25 82.8 Q-83.4 83.65 -83.2 84.3 -83.05 84.8 -83.05 86.4 -83.05 88.2 -83.45 90.6 L-84.05 90.6 -84.35 86.75 Q-84.55 84.4 -85.05 83.0 L-84.25 82.8 M-72.0 105.45 Q-74.65 107.9 -74.65 110.05 -74.65 110.95 -74.25 111.2 -73.3 112.0 -68.85 113.45 L-61.4 113.45 -58.65 110.95 Q-57.8 110.15 -57.8 109.65 -57.8 104.5 -60.45 102.65 -62.65 101.05 -66.25 102.1 -69.45 103.05 -72.0 105.45 M-65.9 99.55 Q-61.45 98.45 -58.4 100.85 -55.0 103.5 -55.0 109.55 -55.0 111.95 -57.2 114.05 -59.95 116.65 -64.8 116.65 -71.65 116.65 -74.85 115.05 -76.85 114.05 -76.85 113.15 -76.85 108.1 -73.45 104.15 -70.3 100.55 -65.9 99.55 M-85.3 113.5 L-85.45 113.45 Q-88.85 112.4 -88.85 116.75 -88.85 120.4 -87.55 125.7 -86.25 131.0 -86.25 136.3 -86.25 136.75 -85.1 138.2 -83.8 139.85 -82.85 140.1 -81.85 136.1 -81.85 126.75 L-81.75 122.2 -81.85 116.85 -81.85 116.7 -84.45 115.25 -85.3 113.5 M-91.1 119.05 L-91.2 118.3 -91.3 118.45 -91.1 119.05 M-90.25 124.35 L-90.45 128.3 -91.25 128.5 -91.55 123.6 -92.05 119.4 Q-97.35 126.35 -97.9 130.9 L-97.9 136.9 -94.7 132.75 -94.65 132.65 -94.7 130.7 -94.5 123.9 -93.9 123.9 -93.45 129.25 -93.3 131.15 Q-91.2 128.9 -89.65 128.3 L-89.1 128.7 -89.55 126.8 -90.25 123.5 -90.25 124.35 M-68.45 129.5 L-68.45 129.7 -68.95 132.4 -69.65 135.1 -69.65 135.5 Q-67.85 134.6 -67.9 132.25 -67.9 131.55 -68.45 129.5 M-24.95 119.85 Q-28.55 122.7 -31.2 128.7 -33.8 135.55 -35.55 138.7 L-35.35 139.05 -35.15 139.7 -28.15 133.6 -28.75 132.9 -27.45 132.95 -26.5 132.0 Q-24.15 129.2 -24.15 124.5 -24.15 122.0 -24.95 119.85 M-18.8 123.25 Q-18.55 125.05 -18.55 131.75 -18.55 139.3 -19.55 142.7 -23.0 141.65 -25.1 138.35 L-26.75 135.75 Q-31.55 140.05 -36.35 145.5 -38.1 144.35 -39.0 142.85 L-40.8 140.3 -39.65 140.4 -38.35 140.9 Q-38.05 139.45 -35.45 133.75 -32.4 127.05 -29.65 122.55 -22.75 111.35 -21.6 120.3 -19.45 118.55 -18.8 123.25 M-21.35 124.7 Q-21.35 128.2 -22.0 130.05 -22.6 131.75 -24.3 133.55 L-24.6 133.8 Q-23.8 134.3 -23.3 135.05 -22.45 136.4 -21.15 140.3 L-20.55 140.3 -20.55 122.85 -21.4 122.65 -21.35 124.7 M-58.0 124.25 Q-58.2 124.1 -58.2 122.85 -58.2 122.05 -57.2 120.75 -55.85 118.95 -53.6 119.05 -53.3 119.4 -52.95 119.25 L-52.8 119.85 -50.6 119.85 -50.4 123.5 Q-50.8 124.1 -51.6 124.5 L-53.6 124.3 -53.6 122.1 -54.45 122.85 Q-56.15 124.1 -57.8 124.1 L-58.0 124.25 M-54.4 135.5 Q-53.1 134.9 -52.45 133.15 -52.0 132.0 -52.0 131.1 L-54.4 134.9 -54.4 135.5" fill="#ffffff" fill-rule="evenodd" stroke="none"/>
  </g>
</svg>
