<?xml version="1.0" encoding="UTF-8" standalone="no"?>
<svg xmlns:xlink="http://www.w3.org/1999/xlink" height="221.5px" width="245.75px" xmlns="http://www.w3.org/2000/svg">
  <g transform="matrix(1.0, 0.0, 0.0, 1.0, 114.25, 76.55)">
    <path d="M-58.0 124.25 L-58.15 122.9 Q-57.35 119.3 -53.6 119.05 L-52.8 119.85 -50.5 120.6 -50.9 124.05 -53.6 124.3 -53.6 122.1 -58.0 124.25 M-28.7 134.15 L-28.4 133.55 -28.5 133.15 -28.75 132.9 -27.05 132.65 -26.85 132.35 Q-22.5 126.75 -24.95 119.85 -29.8 124.2 -31.9 130.35 -32.4 131.85 -33.2 133.25 -34.95 136.4 -35.2 139.4 L-28.7 134.15 M-21.4 122.65 L-21.35 124.7 Q-21.15 127.9 -22.4 130.9 L-22.85 131.8 Q-23.5 132.9 -24.6 133.8 L-20.55 140.3 -21.4 122.65 M-68.45 129.5 L-69.65 135.5 -69.25 135.2 Q-66.95 132.75 -68.45 129.5 M-93.3 131.15 L-89.65 128.3 -90.25 124.35 -90.45 128.3 -92.05 119.4 Q-98.8 126.95 -97.9 136.9 L-94.65 132.65 -93.9 123.9 -93.3 131.15 M-84.45 115.25 L-85.3 113.5 -87.45 113.45 Q-87.9 113.85 -88.05 114.4 -89.5 120.0 -87.8 125.7 -86.6 129.65 -86.65 133.65 -86.8 137.8 -83.05 140.05 L-81.85 116.7 -84.45 115.25 M-76.85 113.15 L-76.75 111.95 Q-75.2 102.3 -65.9 99.55 -57.15 98.15 -55.3 106.75 -53.95 112.9 -59.65 115.4 -63.65 117.2 -68.0 116.6 -73.55 116.8 -76.85 113.15 M-92.9 103.3 Q-96.3 94.2 -96.1 84.6 L-91.25 108.25 -92.9 103.3 M-65.45 90.25 L-65.95 89.45 -65.45 88.35 -65.45 90.25 M-84.25 82.8 L-83.7 83.7 Q-82.1 87.75 -84.05 90.6 L-84.25 82.8 M-69.2 84.65 L-69.45 83.3 Q-69.85 80.65 -69.6 83.25 L-69.2 84.65 M-76.15 77.25 Q-75.55 72.15 -71.8 70.9 L-73.7 69.9 -77.9 75.4 -76.15 77.1 -76.15 77.25 M-101.5 104.3 L-101.05 106.5 -101.75 104.6 -103.15 107.15 -101.55 113.3 -96.4 115.15 -100.3 102.7 -101.5 104.3 M-97.3 98.85 L-99.45 101.7 -95.25 115.1 -92.15 115.5 -97.3 98.85 M-106.2 95.4 L-107.25 95.1 -106.2 98.6 -106.2 95.4 M-108.4 92.75 Q-107.15 92.8 -106.4 93.85 -103.9 97.15 -104.4 101.25 L-105.0 101.85 -106.15 102.9 Q-108.75 104.7 -111.65 104.05 L-110.45 106.45 -110.8 106.55 Q-114.5 103.15 -114.25 98.05 -113.25 93.2 -108.4 92.75 M-108.4 94.9 Q-110.25 94.5 -109.75 95.6 -108.95 97.5 -108.6 99.65 -108.2 102.65 -106.4 101.05 L-108.4 94.9 M-97.4 91.55 L-96.2 93.55 Q-95.25 95.45 -96.5 97.45 L-91.4 116.0 -86.7 110.6 -93.45 79.25 -98.75 86.75 -98.95 89.1 -97.4 91.55 M-111.55 96.1 L-112.85 102.25 -108.45 101.95 -111.55 96.1 M-110.55 77.05 Q-109.65 74.15 -106.6 73.8 -100.9 74.4 -102.7 80.7 L-105.8 82.6 -103.7 75.7 -108.25 75.85 -109.6 79.9 -105.0 78.0 -106.1 80.3 -109.25 80.95 -110.7 79.45 Q-110.95 78.2 -110.55 77.05 M-79.35 58.5 L-78.95 58.75 Q-78.55 56.2 -79.35 58.5 M-77.5 65.0 L-76.95 66.6 Q-76.15 70.0 -74.35 69.35 L-77.5 65.0 M-79.65 59.9 L-79.2 61.1 -78.8 61.6 -78.6 61.45 -78.35 61.1 -79.55 58.9 -79.65 59.9 M-24.15 99.05 L-22.3 100.15 -19.9 98.3 -21.95 102.25 Q-22.65 102.1 -23.05 101.7 L-23.5 100.55 -24.15 99.05 M-35.25 105.9 Q-39.8 101.65 -44.1 106.45 L-45.8 115.85 -45.25 116.4 Q-37.75 117.0 -33.0 111.75 -32.7 108.3 -35.25 105.9 M-39.95 91.15 L-44.9 93.25 -41.45 92.65 -39.95 91.15 M-58.8 104.5 Q-59.35 103.35 -60.55 102.85 -66.85 100.25 -72.0 105.45 L-74.4 111.1 Q-68.6 114.8 -61.4 113.45 L-57.85 109.95 Q-57.6 107.1 -58.8 104.5 M-46.8 94.75 L-49.55 96.8 -49.2 95.75 -53.35 88.95 -52.85 88.7 -52.7 88.55 -57.55 89.95 Q-60.9 90.3 -60.8 92.05 L-61.3 91.2 -67.85 92.3 -62.0 90.0 -71.1 71.95 -68.25 84.7 -68.25 79.45 -66.25 89.0 -68.0 86.2 -67.05 90.35 -69.6 85.5 -75.65 84.85 -70.35 83.7 -72.0 76.25 -70.65 81.25 -71.7 73.4 -72.1 73.45 -72.4 73.25 -72.7 72.75 -76.25 85.65 -73.8 87.05 Q-75.5 89.15 -77.95 91.35 -82.5 95.3 -84.1 100.7 L-84.75 101.2 -85.1 103.35 Q-85.4 105.95 -83.85 108.1 -79.9 113.4 -74.2 116.8 -67.45 120.95 -68.05 128.9 L-65.8 125.4 -62.65 125.7 Q-61.7 125.9 -61.0 126.5 -57.8 129.6 -60.8 133.9 L-60.0 135.3 -58.2 127.9 Q-54.95 128.9 -51.65 128.5 -50.2 128.35 -49.3 127.0 L-47.4 127.1 -47.6 136.1 -45.6 136.1 -45.1 133.55 Q-43.4 128.1 -38.2 125.1 -34.15 122.65 -31.9 119.45 L-31.85 116.1 Q-33.15 117.2 -34.75 117.6 L-40.85 118.85 Q-44.45 119.15 -46.1 116.35 -48.65 112.0 -47.25 106.95 -45.85 102.15 -41.25 100.95 -37.3 100.0 -34.5 103.1 -31.85 105.9 -31.15 106.0 L-31.15 104.65 Q-30.65 99.35 -32.8 94.6 -34.65 90.55 -38.2 90.75 -39.2 92.8 -41.15 93.6 -43.8 94.75 -46.8 94.75 M-49.15 68.95 L-47.2 72.0 -46.85 70.9 -49.15 68.95 M-37.75 63.1 L-37.95 62.85 -32.5 62.7 -32.5 57.15 Q-30.15 60.85 -31.85 64.95 -32.55 66.6 -32.9 68.5 -33.35 70.75 -34.55 70.2 -35.1 69.35 -35.95 69.3 L-34.35 68.75 -33.55 63.8 -37.0 63.4 -36.75 63.5 -37.45 63.3 -37.75 63.1 M-38.75 55.05 L-38.5 53.6 -46.1 47.45 Q-37.75 49.25 -32.85 56.7 L-38.75 55.05 M-51.7 66.75 L-52.2 66.2 Q-53.3 66.5 -51.7 66.75 M-46.85 48.25 L-49.45 47.25 -47.9 47.15 -46.85 48.25 M-61.15 38.35 L-61.2 33.65 -66.8 33.95 -66.7 34.85 Q-65.0 40.05 -67.0 44.35 L-66.9 46.15 -60.1 44.85 -61.2 42.3 -57.65 39.3 -60.2 38.65 -56.55 38.75 -56.8 40.25 Q-56.15 38.75 -54.95 37.45 -52.75 35.05 -54.7 33.4 L-59.8 33.55 -61.15 38.35 M-29.95 45.2 Q-29.3 44.75 -29.3 44.2 -29.3 43.65 -29.95 43.25 -30.6 42.8 -31.5 42.8 -32.45 42.8 -33.1 43.25 -33.75 43.65 -33.75 44.2 -33.75 44.75 -33.1 45.2 -32.45 45.6 -31.5 45.6 -30.6 45.6 -29.95 45.2 M-26.75 43.75 L-27.5 41.4 -29.1 42.95 -28.6 45.4 -24.45 44.2 -25.1 39.95 Q-26.1 40.5 -26.75 41.35 L-26.65 41.9 -26.75 43.75 M-21.85 35.4 Q-21.6 35.0 -21.2 35.3 L-21.0 35.65 Q-20.3 37.2 -19.05 36.25 -17.4 35.05 -18.0 33.8 L-18.55 34.75 -19.4 33.4 -23.35 32.95 -30.15 32.0 Q-39.2 31.85 -45.5 26.15 L-44.25 37.7 -40.4 39.9 Q-35.55 42.65 -29.95 41.7 L-29.55 40.25 Q-29.5 42.15 -28.55 40.1 L-25.1 39.3 -24.7 38.1 Q-23.65 39.7 -21.3 36.9 -21.1 36.65 -21.6 36.55 L-22.0 36.4 -22.3 36.15 -22.25 35.95 -21.85 35.4 M-10.75 34.8 L-14.15 36.25 -14.65 33.0 -16.0 37.3 -16.9 34.5 -19.8 37.7 -19.2 38.75 -16.85 37.5 -19.5 39.6 -20.8 37.45 -24.3 39.5 -23.5 43.8 -10.75 34.8 M-9.4 37.5 L-9.85 36.85 -15.2 40.6 Q-22.45 46.25 -31.3 47.65 L-43.75 39.5 Q-42.35 43.9 -39.8 47.55 -37.45 50.8 -33.9 52.35 -21.45 57.8 -13.35 46.65 -10.1 42.1 -9.4 37.5 M-64.3 12.65 Q-61.3 13.6 -62.5 12.6 L-64.3 12.65 M-5.9 25.05 Q-6.05 21.4 -6.35 17.95 -7.0 11.8 -11.8 9.75 L-9.1 33.0 -7.6 34.15 Q-5.8 29.8 -5.9 25.05 M-9.5 19.2 L-7.3 28.85 -7.7 33.55 -9.5 19.2 M-4.9 22.25 Q-4.65 19.6 -4.75 16.9 -5.15 8.95 -10.8 3.75 -13.35 1.35 -14.95 1.1 L-9.4 6.95 Q-5.05 13.65 -4.9 22.25 M-26.9 2.2 L-28.55 2.35 -27.25 21.65 Q-27.05 24.75 -26.2 27.6 L-25.4 27.6 -26.9 2.2 M-27.25 0.35 L-27.9 0.15 -28.5 0.35 -28.75 0.75 -28.5 1.2 -27.9 1.35 -27.25 1.2 -27.0 0.75 -27.25 0.35 M-26.2 0.95 L-25.6 1.15 Q-25.25 1.15 -25.0 0.95 L-24.75 0.5 Q-24.75 0.2 -25.0 0.05 -25.25 -0.15 -25.6 -0.15 L-26.2 0.05 -26.45 0.5 -26.2 0.95 M-23.25 0.7 L-22.7 0.75 -15.85 0.65 -23.2 -0.25 -23.25 0.7 M-27.25 -2.1 L-28.35 -1.95 -28.55 -0.35 -27.05 -0.15 -27.25 -2.1 M-45.3 23.1 L-45.05 26.0 Q-35.6 31.65 -23.95 31.45 -20.6 31.4 -19.6 32.3 L-22.45 2.65 -18.45 32.45 -16.55 32.4 -19.0 4.1 -15.4 32.4 -14.2 32.45 -16.55 6.0 -12.75 32.5 -10.65 32.7 -11.7 24.0 -11.75 32.2 -13.65 11.1 -13.45 8.4 -12.5 13.35 -11.9 9.7 -12.75 9.4 -10.85 7.0 -15.75 2.15 -23.65 2.05 -21.5 31.4 -24.65 2.1 -26.25 2.15 Q-25.25 11.05 -24.7 19.85 -24.55 22.0 -24.85 24.0 -25.4 27.3 -23.2 28.0 -24.35 29.15 -26.8 29.75 -37.15 31.85 -45.3 23.1 M-44.25 10.05 L-46.05 12.15 -44.9 16.7 -44.25 10.05 M-46.45 9.6 L-46.2 11.25 -44.45 9.2 -44.85 7.4 -46.45 9.6 M-47.15 20.95 L-47.2 22.8 -46.0 24.85 -45.85 22.55 -47.15 20.95 M-47.65 22.35 Q-47.65 20.7 -48.0 22.35 L-50.0 24.05 -49.3 17.5 -51.4 31.05 -48.45 32.95 -51.35 32.3 -51.2 33.4 -44.9 37.3 -46.05 25.4 -47.65 23.35 -47.65 22.35 M-47.25 13.85 L-47.25 17.85 -45.7 21.3 -46.6 12.85 -47.25 13.85 M-46.9 12.05 Q-47.15 10.8 -47.0 12.3 L-46.9 12.05 M-34.8 2.15 L-34.5 2.05 -34.8 1.9 -34.95 2.15 -34.8 2.15 M-37.15 2.55 L-35.15 1.7 -37.55 0.5 -37.15 2.55 M-32.5 1.85 L-32.5 1.8 -32.5 1.85 M-30.6 1.35 L-30.5 1.05 -31.65 1.75 -30.6 1.35 M-31.35 -0.5 L-31.7 -0.75 Q-31.9 0.05 -31.7 1.15 L-30.5 0.75 Q-30.6 0.25 -30.85 -0.15 -31.0 -0.4 -31.35 -0.5 M-41.35 7.2 L-42.9 8.6 -42.7 10.6 -41.35 7.2 M-38.65 6.1 L-40.8 8.8 -38.0 24.4 -41.1 9.2 -42.55 11.85 -39.9 25.5 -41.5 20.05 -41.1 26.0 -43.4 14.0 Q-45.65 18.35 -43.4 22.8 L-43.4 23.15 -44.9 20.05 -45.2 22.05 Q-40.4 28.35 -32.75 29.6 -29.65 30.25 -27.55 28.1 L-30.35 2.5 -31.5 2.6 -27.95 28.2 -33.2 2.85 -29.95 28.0 -33.95 2.95 -36.85 4.5 -33.75 23.9 -37.25 4.8 -38.35 5.8 -35.8 22.25 -38.65 6.1 M-39.2 4.15 L-41.25 5.0 -41.15 6.0 -39.2 4.15 M-44.2 6.75 L-43.6 8.25 -41.45 6.3 -41.6 5.15 -44.2 6.75 M-33.6 -1.25 L-33.5 -1.15 Q-32.1 -0.7 -33.6 -1.25 M-31.7 -12.85 L-33.5 -11.35 Q-34.5 -6.55 -30.9 -3.2 L-31.7 -12.85 M-55.15 -26.7 L-57.6 -24.35 -58.6 -19.0 -55.15 -26.7 M-42.05 -38.65 L-46.3 -34.8 -44.05 -26.0 -42.6 -27.6 -42.15 -25.9 Q-43.5 -23.5 -45.8 -21.7 L-46.5 -21.05 Q-48.6 -19.25 -51.3 -18.7 L-52.15 -16.4 -53.45 -16.8 -51.0 -24.4 -56.0 -13.8 -57.25 -13.7 -54.2 -24.0 -60.7 -11.2 -58.4 -10.4 -60.85 -9.85 -58.7 -7.15 -41.8 -21.0 -42.05 -38.65 M-20.25 -12.6 L-22.0 -14.15 -29.95 -14.0 -30.9 -13.4 -29.15 -3.1 -27.3 -3.1 -27.95 -12.55 -26.75 -3.0 -25.1 -2.45 -25.3 -2.35 -25.9 -2.1 Q-27.75 0.05 -24.7 -0.55 L-24.2 -4.9 -23.65 -2.65 -20.25 -12.6 M-70.0 -1.25 Q-67.75 5.7 -71.0 11.95 L-70.0 -1.25 M-70.6 -13.5 L-70.85 -16.4 -72.3 -13.6 -70.6 -13.5 M-65.35 -13.4 Q-65.35 -12.75 -64.9 -12.3 -64.45 -11.85 -63.85 -11.85 -63.25 -11.85 -62.8 -12.3 -62.4 -12.75 -62.4 -13.4 -62.4 -14.0 -62.8 -14.45 -63.25 -14.9 -63.85 -14.9 -64.45 -14.9 -64.9 -14.45 L-65.35 -13.4 M-67.45 -13.75 L-67.45 -13.2 -67.4 -13.1 Q-66.45 -16.4 -67.45 -13.75 M-69.2 -13.7 L-68.1 -15.6 -69.45 -16.25 -69.2 -13.7 M-75.4 -13.65 L-75.0 -13.7 Q-74.75 -15.5 -75.4 -13.65 M-75.7 -15.8 L-75.1 -18.05 -74.3 -19.9 -76.2 -21.75 -75.7 -15.8 M-71.55 -17.6 Q-72.25 -18.15 -72.95 -18.35 L-72.95 -18.0 -73.25 -14.6 -71.55 -17.6 M-76.65 -22.25 L-77.45 -23.0 -77.95 -16.45 -77.35 -15.85 -76.65 -22.25 M-89.15 -12.15 L-88.85 -11.05 -88.45 -11.15 -85.4 -12.3 -89.15 -12.15 M-79.35 -25.0 Q-79.8 -24.8 -79.95 -23.9 L-80.8 -19.0 Q-80.15 -18.65 -79.45 -18.4 L-78.75 -24.5 Q-79.15 -25.1 -79.35 -25.0 M-90.6 -37.0 Q-89.65 -39.95 -88.05 -37.9 L-92.7 -28.8 -88.4 -25.7 -88.05 -32.85 -87.25 -23.95 -81.75 -19.75 -80.7 -26.9 -83.4 -30.55 -83.65 -23.2 -83.6 -30.8 -87.55 -37.4 Q-84.35 -34.0 -81.45 -30.25 -80.35 -28.9 -79.35 -29.8 L-79.3 -27.95 -79.2 -27.85 -78.6 -27.95 Q-78.45 -28.1 -78.45 -28.4 L-77.6 -25.95 -70.65 -19.2 -70.5 -19.45 -70.4 -19.65 -69.85 -19.8 -69.6 -18.35 -67.3 -16.7 -65.85 -18.2 -65.65 -17.7 -65.45 -17.4 Q-65.15 -17.4 -64.8 -17.7 L-58.85 -25.2 -57.6 -25.6 -57.55 -24.6 -50.15 -36.85 -46.6 -35.6 -41.8 -41.45 -40.2 -19.05 -59.3 -6.25 Q-58.35 -5.05 -57.95 -3.7 -57.45 -1.85 -58.15 0.05 -60.6 6.6 -60.55 13.5 L-49.5 16.8 Q-48.25 13.85 -48.25 10.35 -48.2 6.4 -45.0 4.25 L-37.55 2.6 -37.6 0.45 -45.4 -3.65 -41.9 1.25 -41.9 0.7 Q-42.05 -0.65 -41.3 -0.9 L-40.85 -0.9 -41.5 2.65 -42.45 1.8 Q-46.25 -1.8 -46.3 -5.3 L-34.35 -0.15 -35.05 -2.6 -34.8 -2.7 Q-34.7 -3.0 -34.75 -3.3 L-34.8 -3.7 -33.55 -2.9 -34.95 -12.95 -34.55 -11.85 -31.55 -14.55 -30.15 -14.65 Q-24.65 -16.8 -19.95 -13.95 -18.85 -13.3 -19.1 -12.0 -20.15 -5.9 -22.7 -0.7 -19.5 -0.65 -16.4 0.35 -5.4 3.85 -4.65 15.7 L-3.85 29.8 Q-3.6 34.35 -5.5 38.35 -6.7 40.9 -7.4 43.8 -9.35 52.4 -15.85 57.7 L-14.55 59.9 -20.3 55.3 -19.2 55.65 Q-17.5 56.4 -15.7 56.5 -13.65 56.2 -12.65 54.25 L-14.1 55.2 -8.7 40.25 -8.7 40.9 -8.65 41.0 -8.55 41.1 -8.3 40.35 -8.4 39.55 Q-9.3 40.7 -10.1 42.7 -14.3 53.1 -25.05 55.05 -28.9 55.6 -32.45 53.85 -41.8 49.4 -44.4 39.05 L-51.2 34.55 -51.2 37.85 Q-51.65 36.45 -51.45 35.05 -51.1 32.05 -53.35 31.7 -52.65 32.3 -52.3 33.1 -51.5 34.8 -52.55 36.25 -54.95 39.3 -55.55 42.9 L-53.9 46.25 Q-43.3 51.75 -36.95 61.2 L-56.05 46.65 -54.55 52.4 -56.45 48.85 -52.15 62.15 -51.0 61.1 -51.0 61.55 -51.05 61.7 Q-52.9 63.6 -50.3 65.65 -49.2 66.55 -48.25 67.6 -45.85 70.6 -42.95 71.65 L-38.15 70.05 -39.65 70.8 Q-41.9 71.95 -40.2 73.0 L-34.65 70.9 Q-34.9 72.1 -37.4 73.05 L-39.45 73.2 Q-42.25 73.7 -41.2 75.25 L-42.75 74.35 -45.65 74.9 -47.45 73.1 -46.85 75.6 -49.5 68.2 -51.65 66.9 -48.45 84.3 -50.3 85.0 -50.0 86.75 -51.8 88.9 -49.5 90.5 -41.5 85.4 -37.5 87.95 -38.55 84.05 -35.9 82.1 -35.85 82.4 Q-35.75 83.05 -36.05 83.45 L-36.3 83.65 -37.1 83.8 -36.95 89.25 Q-33.3 89.05 -31.55 92.4 -28.85 97.55 -28.35 103.5 L-26.5 104.4 -26.55 95.8 -26.1 96.85 -25.55 97.5 -24.2 96.55 -20.15 96.7 -25.95 98.65 -25.05 104.65 -23.15 104.6 Q-21.3 104.6 -19.95 103.5 -17.6 101.6 -18.35 98.45 -17.5 99.7 -17.45 101.1 -17.4 101.95 -17.8 102.6 -21.6 108.8 -28.75 105.0 -28.2 112.8 -29.3 120.55 -29.4 121.25 -29.65 121.75 -27.25 117.7 -23.25 116.45 L-22.8 117.15 Q-22.1 120.0 -20.6 119.85 L-18.8 123.25 -19.55 142.7 Q-24.5 140.65 -26.75 135.75 L-37.15 144.95 -40.8 140.3 -38.8 140.8 Q-37.65 139.95 -36.75 137.6 -33.95 129.95 -30.0 122.45 L-31.3 123.6 Q-35.65 126.1 -40.4 128.0 -41.2 128.3 -41.65 128.95 -44.35 133.15 -43.4 138.6 L-49.55 138.05 -49.9 137.35 Q-50.4 135.8 -50.65 136.3 L-50.95 137.2 Q-51.15 137.85 -51.85 138.05 L-55.35 137.85 Q-56.85 137.7 -56.65 136.4 L-61.8 137.9 -62.5 136.85 Q-62.95 136.1 -62.85 135.35 -62.4 131.4 -63.0 127.9 L-63.65 128.2 Q-66.3 129.8 -65.8 132.95 -65.3 135.7 -65.55 138.0 L-72.05 137.9 -72.05 132.5 -69.85 123.4 -79.35 118.0 Q-78.95 123.05 -78.7 128.15 -78.25 136.35 -81.25 143.7 L-82.45 143.9 -88.5 138.35 -89.05 129.15 -99.2 142.2 Q-100.3 139.3 -100.4 136.1 -100.8 127.3 -95.85 120.2 L-93.45 116.55 -94.7 117.05 -99.3 116.3 Q-102.65 115.55 -104.2 112.6 -105.95 109.2 -105.0 105.45 L-97.9 96.35 -98.5 94.2 -97.3 94.9 -99.4 90.9 Q-99.9 90.1 -99.85 89.25 -99.45 82.4 -93.8 78.0 L-93.9 75.8 -93.05 77.45 Q-87.5 74.9 -82.05 78.4 -80.0 79.65 -80.8 79.8 L-81.3 79.5 Q-86.45 75.7 -92.5 78.7 L-87.1 97.85 -86.25 96.35 -89.55 81.3 -85.35 95.05 -76.75 87.8 -79.25 87.6 -78.95 81.95 -76.9 84.65 Q-76.9 81.95 -77.3 79.55 -77.85 76.15 -80.35 75.65 L-76.1 70.15 -79.3 64.05 -80.05 61.5 Q-80.6 56.65 -78.8 52.4 L-75.85 52.4 -74.2 49.8 Q-76.0 49.65 -76.95 48.0 -78.7 44.95 -77.65 41.85 -76.85 42.1 -76.55 43.55 L-75.9 45.95 Q-74.7 49.0 -71.5 48.85 L-78.0 54.9 -77.25 62.2 -77.7 62.3 Q-75.5 65.95 -71.5 69.25 -66.65 73.25 -62.15 80.05 -60.4 82.65 -60.2 82.35 L-59.65 76.65 -56.35 85.45 -57.8 81.9 -56.4 86.2 -58.65 79.8 -59.75 88.9 -60.2 84.3 -68.95 73.85 -61.75 89.95 -50.75 85.75 -51.3 83.9 Q-49.15 84.4 -48.9 83.0 L-50.7 75.4 -51.65 74.6 -53.85 68.2 -56.55 68.95 -53.5 67.85 -54.7 64.05 -56.75 64.15 Q-58.0 64.05 -57.9 65.55 L-58.15 63.5 -54.5 63.9 -54.3 60.5 -52.6 64.5 -52.4 62.7 Q-57.65 55.35 -57.35 46.7 L-57.9 45.75 -59.35 45.7 -63.0 45.65 Q-65.2 45.7 -66.55 47.25 -68.35 49.3 -70.25 49.05 L-67.7 45.3 -70.45 47.9 -68.25 44.75 -73.05 48.4 -72.9 46.9 -67.75 43.55 -68.3 32.2 -59.95 31.7 -52.0 30.3 -50.25 17.1 -65.05 13.65 -65.4 13.55 Q-65.65 14.05 -65.5 14.65 L-65.4 15.15 -65.4 15.25 -65.6 15.6 Q-66.15 16.25 -67.05 15.75 -67.55 15.5 -68.1 15.4 L-67.9 13.9 -68.65 16.1 -69.05 12.2 -63.95 11.45 -66.5 5.35 -63.0 9.6 -63.55 8.95 -62.8 8.8 Q-59.7 3.55 -58.95 -2.4 -58.5 -5.65 -60.2 -5.6 L-61.6 -4.75 -59.75 -6.4 -61.95 -9.05 -62.6 -9.55 -63.2 -9.15 -70.5 -12.45 -73.05 -11.9 -74.15 -12.65 Q-85.35 -12.95 -93.65 -7.15 L-90.5 8.9 -85.9 10.55 -70.85 21.3 -66.65 17.45 -66.65 20.65 -67.05 17.85 -69.45 22.1 -69.95 22.6 -71.5 23.9 Q-79.95 33.15 -79.55 45.35 -80.25 44.5 -80.45 43.55 -81.6 37.75 -78.3 32.6 -74.5 26.75 -72.1 22.15 L-84.8 12.15 -88.25 12.2 Q-90.05 11.15 -90.8 9.15 -93.85 1.0 -95.75 -7.1 L-89.65 -11.4 -89.7 -11.85 -89.75 -12.5 -78.25 -14.0 Q-80.15 -17.2 -81.85 -19.1 -84.9 -22.5 -88.05 -22.4 L-94.7 -28.15 -92.3 -32.75 Q-91.25 -34.8 -90.6 -37.0 M-69.8 -37.9 Q-72.0 -37.8 -73.7 -39.0 -80.65 -43.75 -83.15 -52.25 L-81.9 -46.3 Q-80.85 -46.1 -80.25 -44.7 -77.8 -38.85 -72.65 -36.4 L-69.8 -37.9 M-67.05 -30.8 L-68.85 -30.75 -67.85 -29.8 Q-59.65 -37.6 -53.9 -47.35 -52.25 -50.15 -53.6 -49.55 L-56.5 -47.25 Q-56.4 -46.65 -56.65 -46.15 -61.05 -38.0 -67.05 -30.8 M-73.25 -56.45 L-72.5 -54.5 Q-71.7 -52.1 -70.25 -53.45 L-73.25 -56.45 M-63.8 -65.9 L-67.35 -62.2 -70.75 -57.05 -69.15 -55.9 Q-66.45 -57.55 -65.0 -60.35 -63.2 -63.85 -63.8 -65.9 M-75.4 -76.15 Q-75.05 -75.8 -75.05 -75.3 -75.05 -74.75 -75.4 -74.4 -75.8 -74.05 -76.35 -74.05 -76.85 -74.05 -77.2 -74.4 -77.6 -74.75 -77.6 -75.3 -77.6 -75.8 -77.2 -76.15 -76.85 -76.55 -76.35 -76.55 -75.8 -76.55 -75.4 -76.15 M-62.05 -64.9 L-59.6 -65.9 -60.6 -64.25 Q-63.9 -55.3 -72.05 -50.85 L-73.35 -52.8 Q-78.55 -59.5 -82.15 -67.1 -83.7 -70.4 -81.85 -71.9 -78.35 -63.75 -71.8 -58.9 L-66.25 -65.55 Q-64.6 -67.5 -63.4 -69.6 -61.8 -72.55 -60.0 -71.3 L-62.05 -64.9 M-49.3 -55.45 L-49.8 -52.1 Q-52.0 -43.05 -58.4 -36.8 L-55.4 -42.85 -66.75 -27.95 -84.15 -44.35 -83.5 -54.85 Q-79.95 -46.65 -73.5 -40.6 -71.4 -38.6 -69.1 -40.25 -58.9 -47.75 -49.3 -55.45 M125.7 11.6 L126.9 16.15 121.5 15.4 120.7 15.4 122.1 16.9 Q125.25 19.1 127.15 22.35 L123.15 25.95 122.5 23.15 116.85 25.85 115.45 20.5 121.9 21.55 118.25 15.6 114.85 16.1 125.7 11.6 M110.7 13.6 Q110.0 13.25 109.0 13.25 108.0 13.25 107.25 13.6 106.55 13.85 106.55 14.25 106.55 14.65 107.25 15.0 L109.0 15.25 110.7 15.0 111.4 14.25 Q111.4 13.85 110.7 13.6 M109.3 11.85 Q112.4 12.05 113.6 14.75 110.4 16.65 107.25 18.5 L105.5 16.15 Q105.1 17.2 105.6 18.15 108.3 23.25 113.6 20.05 L112.0 25.3 109.05 25.85 Q107.15 25.95 105.6 24.8 99.6 20.5 103.95 14.3 L101.75 11.6 104.75 13.6 Q106.75 11.85 109.3 11.85 M94.05 25.95 L97.0 11.65 100.0 24.8 94.05 25.95 M79.4 14.2 L77.85 14.0 75.15 26.1 Q71.65 18.75 73.9 11.05 L77.3 12.25 78.15 12.0 Q81.15 11.55 82.85 14.05 85.55 11.1 89.35 12.45 90.75 12.95 91.15 14.2 93.35 21.2 87.4 26.35 88.4 23.75 88.75 21.05 89.55 14.65 83.5 15.3 L83.75 25.95 79.25 23.8 79.95 22.0 Q81.9 17.6 79.4 14.2 M97.1 3.75 L99.2 7.15 100.0 11.05 94.05 8.4 97.1 3.75 M88.1 -24.95 Q89.3 -30.6 84.15 -28.9 L84.45 -20.45 86.0 -21.65 Q87.65 -23.05 88.1 -24.95 M85.35 -34.45 L84.45 -30.95 Q87.0 -33.45 90.4 -32.25 93.3 -31.15 92.75 -28.0 91.55 -21.2 84.75 -18.95 L86.6 -13.55 81.35 -11.4 Q78.75 -23.9 85.35 -34.45 M112.55 -18.8 Q108.05 -18.7 106.2 -23.05 103.9 -28.5 107.8 -33.2 L113.7 -30.35 110.8 -35.75 Q114.45 -33.6 115.95 -29.8 118.8 -22.75 113.75 -17.1 L112.55 -18.8 M111.8 -22.7 L113.9 -28.25 Q114.15 -29.6 112.6 -29.1 110.6 -28.3 109.6 -26.35 107.15 -21.75 111.9 -20.6 L111.8 -22.7 M122.7 -31.1 Q126.65 -34.25 130.5 -31.35 131.4 -30.2 131.5 -28.8 131.8 -22.75 127.2 -18.65 128.4 -21.65 128.1 -24.95 127.5 -30.75 121.7 -28.55 L124.75 -20.25 120.1 -18.65 Q117.95 -26.8 120.75 -34.9 L121.4 -29.9 122.7 -31.1 M66.3 13.25 Q65.3 13.25 64.6 13.6 63.85 13.85 63.85 14.25 63.85 14.65 64.6 15.0 L66.3 15.25 68.0 15.0 68.75 14.25 Q68.75 13.85 68.0 13.6 67.3 13.25 66.3 13.25 M59.1 11.6 L62.05 13.6 Q65.0 11.0 68.7 12.5 70.25 13.1 70.9 14.75 L64.6 18.5 62.65 16.85 Q62.35 19.95 65.35 20.8 68.4 21.75 70.9 20.05 L69.3 25.3 66.4 25.85 Q64.1 25.95 62.35 24.45 57.25 20.05 61.3 14.3 L59.1 11.6 M46.4 9.75 L47.05 14.75 Q50.2 11.05 54.55 12.45 55.4 12.75 55.75 13.5 59.2 20.5 52.85 25.95 L53.35 24.55 Q54.95 20.3 52.95 16.55 L47.35 16.1 50.45 24.4 45.8 25.95 Q43.6 17.8 46.4 9.75 M26.45 7.2 L30.85 4.3 33.35 -0.7 32.3 3.75 41.15 3.35 40.5 9.0 31.85 6.45 31.55 10.45 31.5 11.4 Q31.4 12.35 32.6 12.05 35.1 12.1 37.5 11.4 L39.5 15.9 31.75 14.65 33.35 22.55 42.55 19.0 41.2 25.85 33.75 23.75 35.3 27.4 28.0 22.95 28.6 13.35 24.35 10.45 28.85 11.7 30.05 6.6 26.45 7.2 M50.55 -30.45 L49.25 -28.75 Q47.2 -25.85 47.55 -22.35 47.6 -21.65 48.2 -21.1 48.7 -20.45 49.45 -20.45 L50.45 -20.55 Q51.05 -20.75 51.55 -21.15 L52.1 -21.6 53.45 -34.9 57.45 -20.25 52.7 -18.95 52.6 -19.25 Q50.7 -18.45 48.65 -18.85 47.45 -18.9 46.65 -19.85 41.85 -25.7 45.95 -33.05 L50.55 -30.45 M39.3 -43.3 Q40.4 -40.75 40.95 -38.15 42.5 -30.9 39.7 -24.15 L43.0 -25.9 38.95 -22.6 36.6 -19.25 37.0 -21.45 27.05 -18.8 24.35 -26.8 Q28.4 -23.95 33.2 -23.35 L37.3 -23.6 37.2 -30.55 Q36.85 -36.0 33.95 -40.65 L39.3 -43.3 M60.35 -33.6 L63.7 -32.4 Q67.15 -33.55 69.25 -30.55 72.05 -33.6 75.85 -32.4 77.15 -31.9 77.6 -30.5 79.75 -23.4 73.8 -18.3 75.2 -21.7 75.05 -25.45 74.8 -30.25 69.9 -29.35 L70.15 -18.7 65.65 -20.85 Q68.55 -25.95 65.8 -30.45 L64.25 -30.65 61.55 -18.55 Q58.1 -25.9 60.35 -33.6" fill="#ffffff" fill-rule="evenodd" stroke="none"/>
  </g>
</svg>
