<?xml version="1.0" encoding="UTF-8" standalone="no"?>
<svg xmlns:xlink="http://www.w3.org/1999/xlink" height="68.6px" width="119.25px" xmlns="http://www.w3.org/2000/svg">
  <g transform="matrix(1.0, 0.0, 0.0, 1.0, 169.85, 78.05)">
    <path d="M-157.4 -74.65 L-155.8 -78.05 Q-121.6 -67.7 -87.7 -55.95 -76.9 -52.3 -66.5 -48.0 -57.5 -44.2 -51.85 -35.6 -50.65 -33.8 -50.6 -31.4 -50.45 -27.75 -52.0 -24.4 -54.4 -19.5 -58.8 -16.25 -60.65 -15.0 -62.65 -13.75 -64.6 -12.75 -66.65 -11.9 -68.75 -11.1 -70.95 -10.45 L-73.05 -10.0 -75.25 -9.7 -77.8 -9.55 Q-77.85 -9.4 -77.9 -9.5 L-78.25 -9.85 -87.0 -12.45 -103.5 -18.5 -118.3 -24.5 -131.5 -30.1 -141.0 -34.55 -150.5 -39.1 -169.85 -48.65 -168.65 -51.2 -151.3 -43.1 -140.6 -38.1 -124.05 -30.75 Q-117.6 -27.9 -110.95 -25.4 L-93.85 -19.05 Q-86.3 -16.2 -78.6 -14.55 L-74.65 -14.2 Q-64.85 -14.9 -58.35 -22.3 -54.7 -26.35 -55.85 -31.3 -56.35 -33.5 -57.55 -35.3 -60.45 -39.3 -65.0 -41.25 -67.0 -42.45 -68.95 -43.2 -76.5 -46.3 -84.4 -49.2 L-98.75 -54.5 -108.65 -58.1 -118.6 -61.6 -128.5 -65.05 -138.3 -68.3 -137.5 -67.95 -157.4 -74.65" fill="#000000" fill-rule="evenodd" stroke="none"/>
    <path d="M-157.4 -74.65 L-137.5 -67.95 -138.3 -68.3 -128.5 -65.05 -118.6 -61.6 -108.65 -58.1 -98.75 -54.5 -84.4 -49.2 Q-76.5 -46.3 -68.95 -43.2 -67.0 -42.45 -65.0 -41.25 -60.45 -39.3 -57.55 -35.3 -56.35 -33.5 -55.85 -31.3 -54.7 -26.35 -58.35 -22.3 -64.85 -14.9 -74.65 -14.2 L-78.6 -14.55 Q-86.3 -16.2 -93.85 -19.05 L-110.95 -25.4 Q-117.6 -27.9 -124.05 -30.75 L-140.6 -38.1 -151.3 -43.1 -168.65 -51.2 -159.45 -70.15 -150.45 -67.45 Q-138.0 -63.15 -125.8 -58.15 L-118.45 -55.1 -110.95 -52.1 -102.65 -48.65 -85.25 -41.15 -76.2 -36.8 -73.25 -35.3 -70.25 -33.55 -70.15 -32.7 -69.65 -31.55 -69.3 -30.7 -68.9 -30.0 -68.6 -28.95 -68.15 -27.65 -67.5 -26.35 -65.95 -23.9 Q-63.05 -22.5 -60.05 -23.8 -56.85 -25.05 -56.3 -28.8 -56.15 -29.7 -56.35 -30.6 -57.55 -37.0 -63.7 -39.4 L-77.6 -44.65 -89.2 -49.0 -100.2 -53.0 -111.1 -57.05 Q-120.4 -60.25 -129.6 -63.6 L-139.2 -66.65 -148.75 -69.7 -158.3 -72.75 -157.4 -74.65" fill="#faa710" fill-rule="evenodd" stroke="none"/>
    <path d="M-159.45 -70.15 L-158.3 -72.75 -148.75 -69.7 -139.2 -66.65 -129.6 -63.6 Q-120.4 -60.25 -111.1 -57.05 L-100.2 -53.0 -89.2 -49.0 -77.6 -44.65 -63.7 -39.4 Q-57.55 -37.0 -56.35 -30.6 -56.15 -29.7 -56.3 -28.8 -56.85 -25.05 -60.05 -23.8 -63.05 -22.5 -65.95 -23.9 L-67.5 -26.35 -68.15 -27.65 -68.6 -28.95 -68.9 -30.0 -69.3 -30.7 -69.65 -31.55 -70.15 -32.7 -70.25 -33.55 -73.25 -35.3 -76.2 -36.8 -85.25 -41.15 -102.65 -48.65 -110.95 -52.1 -118.45 -55.1 -125.8 -58.15 Q-138.0 -63.15 -150.45 -67.45 L-159.45 -70.15" fill="#ffdc70" fill-rule="evenodd" stroke="none"/>
  </g>
</svg>
