<?xml version="1.0" encoding="UTF-8" standalone="no"?>
<svg xmlns:xlink="http://www.w3.org/1999/xlink" height="104.9px" width="1224.55px" xmlns="http://www.w3.org/2000/svg">
  <g transform="matrix(1.0, 0.0, 0.0, 1.0, 612.25, 46.5)">
    <path d="M612.3 1.45 L612.3 58.4 604.7 58.4 597.75 51.45 588.75 51.45 595.7 58.4 574.7 58.4 567.75 51.45 558.75 51.45 565.7 58.4 544.7 58.4 537.75 51.45 528.75 51.45 535.7 58.4 514.7 58.4 507.75 51.45 498.75 51.45 505.7 58.4 484.7 58.4 477.75 51.45 468.75 51.45 475.7 58.4 454.7 58.4 447.75 51.45 438.75 51.45 445.7 58.4 424.7 58.4 417.75 51.45 408.75 51.45 415.7 58.4 394.7 58.4 387.75 51.45 378.75 51.45 385.7 58.4 364.7 58.4 357.75 51.45 348.75 51.45 355.7 58.4 334.7 58.4 327.75 51.45 318.75 51.45 325.7 58.4 304.7 58.4 297.75 51.45 288.75 51.45 295.7 58.4 274.7 58.4 267.75 51.45 258.75 51.45 265.7 58.4 244.7 58.4 237.75 51.45 228.75 51.45 235.7 58.4 214.7 58.4 207.75 51.45 198.75 51.45 205.7 58.4 184.7 58.4 177.75 51.45 168.75 51.45 175.7 58.4 154.7 58.4 147.75 51.45 138.75 51.45 145.7 58.4 124.7 58.4 117.75 51.45 108.75 51.45 115.7 58.4 94.7 58.4 87.75 51.45 78.75 51.45 85.7 58.4 64.7 58.4 57.75 51.45 48.75 51.45 55.7 58.4 34.7 58.4 27.75 51.45 18.75 51.45 25.7 58.4 4.7 58.4 -2.25 51.45 -11.25 51.45 -4.3 58.4 -25.3 58.4 -32.25 51.45 -41.25 51.45 -34.3 58.4 -55.3 58.4 -62.25 51.45 -71.25 51.45 -64.3 58.4 -85.3 58.4 -92.25 51.45 -101.25 51.45 -94.3 58.4 -115.3 58.4 -122.25 51.45 -131.25 51.45 -124.3 58.4 -145.3 58.4 -152.25 51.45 -161.25 51.45 -154.3 58.4 -175.3 58.4 -182.25 51.45 -191.25 51.45 -184.3 58.4 -205.3 58.4 -212.25 51.45 -221.25 51.45 -214.3 58.4 -235.3 58.4 -242.25 51.45 -251.25 51.45 -244.3 58.4 -265.3 58.4 -272.25 51.45 -281.25 51.45 -274.3 58.4 -295.3 58.4 -302.25 51.45 -311.25 51.45 -304.3 58.4 -325.3 58.4 -332.25 51.45 -341.25 51.45 -334.3 58.4 -355.3 58.4 -362.25 51.45 -371.25 51.45 -364.3 58.4 -385.3 58.4 -392.25 51.45 -401.25 51.45 -394.3 58.4 -415.3 58.4 -422.25 51.45 -431.25 51.45 -424.3 58.4 -445.3 58.4 -452.25 51.45 -461.25 51.45 -454.3 58.4 -475.3 58.4 -482.25 51.45 -491.25 51.45 -484.3 58.4 -505.3 58.4 -512.25 51.45 -521.25 51.45 -514.3 58.4 -535.3 58.4 -542.25 51.45 -551.25 51.45 -544.3 58.4 -565.3 58.4 -572.25 51.45 -581.25 51.45 -574.3 58.4 -595.3 58.4 -602.25 51.45 -612.25 51.45 -612.25 1.45 612.3 1.45" fill="url(#gradient0)" fill-rule="evenodd" stroke="none"/>
    <path d="M-612.25 1.45 L-612.25 -39.55 -602.25 -39.55 -595.3 -46.5 -574.3 -46.5 -581.25 -39.55 -572.25 -39.55 -565.3 -46.5 -544.3 -46.5 -551.25 -39.55 -542.25 -39.55 -535.3 -46.5 -514.3 -46.5 -521.25 -39.55 -512.25 -39.55 -505.3 -46.5 -484.3 -46.5 -491.25 -39.55 -482.25 -39.55 -475.3 -46.5 -454.3 -46.5 -461.25 -39.55 -452.25 -39.55 -445.3 -46.5 -424.3 -46.5 -431.25 -39.55 -422.25 -39.55 -415.3 -46.5 -394.3 -46.5 -401.25 -39.55 -392.25 -39.55 -385.3 -46.5 -364.3 -46.5 -371.25 -39.55 -362.25 -39.55 -355.3 -46.5 -334.3 -46.5 -341.25 -39.55 -332.25 -39.55 -325.3 -46.5 -304.3 -46.5 -311.25 -39.55 -302.25 -39.55 -295.3 -46.5 -274.3 -46.5 -281.25 -39.55 -272.25 -39.55 -265.3 -46.5 -244.3 -46.5 -251.25 -39.55 -242.25 -39.55 -235.3 -46.5 -214.3 -46.5 -221.25 -39.55 -212.25 -39.55 -205.3 -46.5 -184.3 -46.5 -191.25 -39.55 -182.25 -39.55 -175.3 -46.5 -154.3 -46.5 -161.25 -39.55 -152.25 -39.55 -145.3 -46.5 -124.3 -46.5 -131.25 -39.55 -122.25 -39.55 -115.3 -46.5 -94.3 -46.5 -101.25 -39.55 -92.25 -39.55 -85.3 -46.5 -64.3 -46.5 -71.25 -39.55 -62.25 -39.55 -55.3 -46.5 -34.3 -46.5 -41.25 -39.55 -32.25 -39.55 -25.3 -46.5 -4.3 -46.5 -11.25 -39.55 -2.25 -39.55 4.7 -46.5 25.7 -46.5 18.75 -39.55 27.75 -39.55 34.7 -46.5 55.7 -46.5 48.75 -39.55 57.75 -39.55 64.7 -46.5 85.7 -46.5 78.75 -39.55 87.75 -39.55 94.7 -46.5 115.7 -46.5 108.75 -39.55 117.75 -39.55 124.7 -46.5 145.7 -46.5 138.75 -39.55 147.75 -39.55 154.7 -46.5 175.7 -46.5 168.75 -39.55 177.75 -39.55 184.7 -46.5 205.7 -46.5 198.75 -39.55 207.75 -39.55 214.7 -46.5 235.7 -46.5 228.75 -39.55 237.75 -39.55 244.7 -46.5 265.7 -46.5 258.75 -39.55 267.75 -39.55 274.7 -46.5 295.7 -46.5 288.75 -39.55 297.75 -39.55 304.7 -46.5 325.7 -46.5 318.75 -39.55 327.75 -39.55 334.7 -46.5 355.7 -46.5 348.75 -39.55 357.75 -39.55 364.7 -46.5 385.7 -46.5 378.75 -39.55 387.75 -39.55 394.7 -46.5 415.7 -46.5 408.75 -39.55 417.75 -39.55 424.7 -46.5 445.7 -46.5 438.75 -39.55 447.75 -39.55 454.7 -46.5 475.7 -46.5 468.75 -39.55 477.75 -39.55 484.7 -46.5 505.7 -46.5 498.75 -39.55 507.75 -39.55 514.7 -46.5 535.7 -46.5 528.75 -39.55 537.75 -39.55 544.7 -46.5 565.7 -46.5 558.75 -39.55 567.75 -39.55 574.7 -46.5 595.7 -46.5 588.75 -39.55 597.75 -39.55 604.7 -46.5 612.3 -46.5 612.3 1.45 -612.25 1.45" fill="url(#gradient1)" fill-rule="evenodd" stroke="none"/>
  </g>
  <defs>
    <radialGradient cx="0" cy="0" gradientTransform="matrix(1.2536, 0.0, 0.0, 1.2536, -414.05, 35.7)" gradientUnits="userSpaceOnUse" id="gradient0" r="819.2" spreadMethod="pad">
      <stop offset="0.0" stop-color="#580000"/>
      <stop offset="1.0" stop-color="#e0aa4d" stop-opacity="0.0"/>
    </radialGradient>
    <radialGradient cx="0" cy="0" gradientTransform="matrix(1.3828, 0.0, 0.0, 1.3828, -519.95, -10.7)" gradientUnits="userSpaceOnUse" id="gradient1" r="819.2" spreadMethod="pad">
      <stop offset="0.0" stop-color="#580000"/>
      <stop offset="1.0" stop-color="#e0aa4d" stop-opacity="0.0"/>
    </radialGradient>
  </defs>
</svg>
