<?xml version="1.0" encoding="UTF-8" standalone="no"?>
<svg xmlns:xlink="http://www.w3.org/1999/xlink" height="533.2px" width="919.15px" xmlns="http://www.w3.org/2000/svg">
  <g transform="matrix(1.0, 0.0, 0.0, 1.0, 457.1, 258.1)">
    <path d="M462.05 -134.1 L462.05 270.1 443.95 252.0 420.85 275.1 397.75 252.0 374.65 275.1 351.55 252.0 328.45 275.1 305.35 252.0 282.25 275.1 259.15 252.0 236.1 275.1 236.0 275.1 212.9 252.0 189.8 275.1 166.7 252.0 143.6 275.1 120.5 252.0 97.4 275.1 74.3 252.0 51.2 275.1 28.1 252.0 5.0 275.1 -18.1 252.0 -41.2 275.1 -64.3 252.0 -87.35 275.1 -87.45 275.1 -110.55 252.0 -133.65 275.1 -156.75 252.0 -179.85 275.1 -202.95 252.0 -226.05 275.1 -249.15 252.0 -272.25 275.1 -295.35 252.0 -318.45 275.1 -341.55 252.0 -364.65 275.1 -387.75 252.0 -410.85 275.1 -434.0 252.0 -457.1 275.1 -457.1 -134.1 462.05 -134.1" fill="url(#gradient0)" fill-rule="evenodd" stroke="none"/>
    <path d="M-457.1 -134.1 L-457.1 -258.1 462.05 -258.1 462.05 -134.1 -457.1 -134.1" fill="url(#gradient1)" fill-rule="evenodd" stroke="none"/>
  </g>
  <defs>
    <linearGradient gradientTransform="matrix(0.0, 0.3822, -0.561, 0.0, 17.25, 334.1)" gradientUnits="userSpaceOnUse" id="gradient0" spreadMethod="pad" x1="-819.2" x2="819.2">
      <stop offset="0.0" stop-color="#000000"/>
      <stop offset="1.0" stop-color="#ff0000"/>
    </linearGradient>
    <linearGradient gradientTransform="matrix(0.0, 0.6492, -0.561, 0.0, 17.25, 683.2)" gradientUnits="userSpaceOnUse" id="gradient1" spreadMethod="pad" x1="-819.2" x2="819.2">
      <stop offset="0.0" stop-color="#000000"/>
      <stop offset="1.0" stop-color="#ff0000"/>
    </linearGradient>
  </defs>
</svg>
