<?xml version="1.0" encoding="UTF-8" standalone="no"?>
<svg xmlns:xlink="http://www.w3.org/1999/xlink" height="73.5px" width="117.9px" xmlns="http://www.w3.org/2000/svg">
  <g transform="matrix(1.0, 0.0, 0.0, 1.0, 159.1, 81.15)">
    <path d="M-144.95 -77.9 L-125.5 -69.85 -126.35 -70.35 -116.7 -66.4 -107.1 -62.35 Q-102.3 -60.2 -97.4 -58.25 L-87.8 -53.95 -73.8 -47.7 Q-66.05 -44.35 -58.75 -40.75 -56.85 -39.85 -54.95 -38.55 -50.5 -36.35 -47.85 -32.1 -46.85 -30.25 -46.45 -28.05 -45.6 -23.0 -49.55 -19.2 -56.5 -12.25 -66.3 -12.25 L-70.25 -12.8 Q-77.8 -14.9 -85.15 -18.25 L-101.85 -25.75 Q-108.25 -28.65 -114.55 -31.9 L-130.6 -40.3 -140.95 -46.0 -157.7 -55.25 -147.3 -73.5 -138.55 -70.25 Q-126.35 -65.15 -114.5 -59.35 L-107.4 -55.85 -100.1 -52.35 -92.0 -48.35 -75.2 -39.8 -66.4 -34.85 -63.6 -33.15 -60.65 -31.2 -60.65 -30.35 -60.25 -29.15 -59.9 -28.25 -59.6 -27.5 -59.3 -26.5 -59.0 -25.15 -58.45 -23.8 -57.05 -21.3 Q-54.2 -19.75 -51.15 -20.75 -47.9 -21.85 -47.05 -25.55 -46.85 -26.45 -47.0 -27.4 -47.75 -33.8 -53.7 -36.6 L-67.25 -42.75 -78.55 -47.85 -89.35 -52.55 -99.9 -57.3 -117.9 -65.05 -127.3 -68.7 -136.6 -72.35 -146.0 -76.05 -144.95 -77.9" fill="#faa710" fill-rule="evenodd" stroke="none"/>
    <path d="M-146.0 -76.05 L-136.6 -72.35 -127.3 -68.7 -117.9 -65.05 -99.9 -57.3 -89.35 -52.55 -78.55 -47.85 -67.25 -42.75 -53.7 -36.6 Q-47.75 -33.8 -47.0 -27.4 -46.85 -26.45 -47.05 -25.55 -47.9 -21.85 -51.15 -20.75 -54.2 -19.75 -57.05 -21.3 L-58.45 -23.8 -59.0 -25.15 -59.3 -26.5 -59.6 -27.5 -59.9 -28.25 -60.25 -29.15 -60.65 -30.35 -60.65 -31.2 -63.6 -33.15 -66.4 -34.85 -75.2 -39.8 -92.0 -48.35 -100.1 -52.35 -107.4 -55.85 -114.5 -59.35 Q-126.35 -65.15 -138.55 -70.25 L-147.3 -73.5 -146.0 -76.05" fill="#ffdc70" fill-rule="evenodd" stroke="none"/>
    <path d="M-157.7 -55.25 L-140.95 -46.0 -130.6 -40.3 -114.55 -31.9 Q-108.25 -28.65 -101.85 -25.75 L-85.15 -18.25 Q-77.8 -14.9 -70.25 -12.8 L-66.3 -12.25 Q-56.5 -12.25 -49.55 -19.2 -45.6 -23.0 -46.45 -28.05 -46.85 -30.25 -47.85 -32.1 -50.5 -36.35 -54.95 -38.55 -56.85 -39.85 -58.75 -40.75 -66.05 -44.35 -73.8 -47.7 L-87.8 -53.95 -97.4 -58.25 Q-102.3 -60.2 -107.1 -62.35 L-116.7 -66.4 -126.35 -70.35 -125.5 -69.85 -144.95 -77.9 -143.15 -81.15 Q-109.7 -68.6 -76.65 -54.65 -66.1 -50.35 -56.05 -45.35 -47.3 -41.0 -42.2 -32.05 -41.1 -30.15 -41.2 -27.8 -41.35 -24.1 -43.05 -20.85 -45.75 -16.15 -50.4 -13.2 -52.3 -12.0 -54.35 -10.95 -56.35 -10.1 -58.45 -9.4 L-62.85 -8.2 -65.0 -7.85 -67.25 -7.7 -69.75 -7.7 -69.9 -7.65 -70.2 -8.1 Q-74.5 -9.6 -78.8 -11.25 L-94.85 -18.35 -109.25 -25.3 Q-115.65 -28.45 -122.0 -31.75 L-131.25 -36.8 -140.4 -42.0 -159.1 -52.8 -157.7 -55.25" fill="#000000" fill-rule="evenodd" stroke="none"/>
  </g>
</svg>
