<?xml version="1.0" encoding="UTF-8" standalone="no"?>
<svg xmlns:xlink="http://www.w3.org/1999/xlink" height="64.05px" width="112.35px" xmlns="http://www.w3.org/2000/svg">
  <g transform="matrix(1.0, 0.0, 0.0, 1.0, 57.9, 26.6)">
    <path d="M-16.45 -13.15 Q-23.35 -13.35 -30.55 -12.85 L-43.65 -11.6 Q-51.0 -10.7 -57.9 -8.4 -57.1 -12.55 -52.85 -13.75 -47.0 -15.45 -40.55 -15.8 -30.75 -16.35 -20.65 -15.85 L-16.45 -15.75 -16.45 -13.15" fill="#cccccc" fill-rule="evenodd" stroke="none"/>
    <path d="M-16.45 -15.75 L-16.45 -17.0 -14.9 -16.65 -15.2 -18.55 -13.65 -18.05 -13.4 -16.7 -11.55 -16.45 -11.45 -15.35 -3.7 -14.2 -3.5 -12.3 -11.6 -12.9 -11.6 -12.35 -11.55 -12.35 -11.6 -12.3 -13.05 -12.2 -13.0 -11.2 -14.45 -10.8 -14.5 -12.3 -16.8 -12.2 -16.45 -13.15 -16.45 -15.75" fill="#000000" fill-rule="evenodd" stroke="none"/>
    <path d="M-3.3 -9.75 L-4.75 -10.35 -4.65 -12.15 -4.65 -12.5 Q-4.6 -12.8 -5.0 -13.05 L-5.1 -13.2 -6.05 -13.4 Q-6.75 -13.2 -6.6 -14.05 L-6.6 -14.6 Q-6.65 -15.65 -7.7 -15.75 -8.7 -16.0 -9.0 -15.45 L-9.35 -14.75 -9.5 -14.75 -10.2 -14.75 -10.6 -16.35 Q-10.8 -16.55 -10.4 -16.6 L-8.25 -16.7 -8.2 -16.55 -7.95 -15.95 -7.55 -15.75 -6.2 -15.95 Q-5.5 -15.95 -5.4 -15.25 L-5.3 -14.6 -5.05 -13.1 -4.75 -13.05 -1.75 -12.85 -2.1 -12.4 -2.25 -12.05 -3.3 -9.75" fill="#da5736" fill-rule="evenodd" stroke="none"/>
    <path d="M-4.75 -10.35 Q-5.3 -10.55 -5.75 -10.85 L-6.5 -11.1 -10.2 -11.35 -10.55 -11.25 Q-11.25 -10.85 -11.5 -11.8 L-11.6 -12.3 Q-11.8 -13.2 -10.95 -13.1 L-10.55 -13.2 -10.2 -13.45 Q-9.95 -13.65 -10.0 -14.05 L-10.2 -14.75 -9.5 -14.75 -9.35 -14.75 -9.0 -15.45 Q-8.7 -16.0 -7.7 -15.75 -6.65 -15.65 -6.6 -14.6 L-6.6 -14.05 Q-6.75 -13.2 -6.05 -13.4 L-5.1 -13.2 -5.0 -13.05 Q-4.6 -12.8 -4.65 -12.5 L-4.65 -12.15 -4.75 -10.35" fill="#e6a45b" fill-rule="evenodd" stroke="none"/>
    <path d="M-1.15 -21.4 L-0.8 -22.4 -0.55 -23.05 0.3 -24.3 0.4 -24.4 Q0.75 -24.5 0.95 -24.7 2.35 -25.65 4.05 -26.15 L5.7 -26.45 7.3 -26.6 9.4 -26.35 10.1 -26.15 Q11.65 -25.75 12.7 -24.4 L13.3 -23.95 13.8 -23.1 15.55 -20.15 17.35 -17.3 17.75 -16.45 17.95 -16.2 18.85 -14.9 18.95 -14.6 19.2 -14.4 19.4 -14.35 19.3 -12.7 19.4 -10.3 Q19.6 -7.85 20.35 -5.7 L13.6 -5.1 11.85 -6.35 10.9 -6.9 9.8 -7.4 6.55 -8.65 5.8 -8.85 5.35 -8.15 4.6 -7.65 3.4 -6.8 1.95 -6.3 -1.1 -6.3 -1.5 -6.8 -2.35 -7.9 -3.5 -9.1 -3.45 -9.5 -3.3 -9.75 -2.25 -12.05 -2.1 -12.4 -1.75 -12.85 -0.9 -13.8 -0.4 -14.5 2.65 -15.4 Q3.6 -15.95 4.4 -16.6 L6.8 -18.5 8.1 -19.25 5.55 -20.55 2.8 -21.1 -0.1 -21.25 -1.15 -21.4 M20.85 -4.1 L21.25 -2.75 Q21.75 -1.35 22.75 -0.9 L22.75 -0.85 22.85 -1.3 23.1 -1.7 23.6 -1.65 23.8 -1.45 23.9 -1.45 25.75 -1.0 28.55 -2.4 31.45 -3.65 33.5 -4.9 33.45 -4.75 32.7 -3.45 32.15 -2.15 Q31.45 -0.75 31.1 0.75 L31.25 1.2 32.55 4.0 34.75 4.4 36.05 4.6 36.2 4.9 36.45 5.65 36.45 6.0 36.55 7.95 36.15 7.95 Q35.95 8.5 35.9 9.0 L35.35 10.85 34.85 11.8 34.55 11.8 34.9 10.35 34.75 10.35 33.05 9.5 29.3 8.9 28.7 8.25 Q27.5 8.4 26.75 9.15 L26.7 9.25 25.8 9.15 Q23.95 9.05 22.45 8.35 22.0 8.25 21.65 7.9 L22.0 7.05 22.2 6.15 22.25 4.75 Q22.2 0.5 20.55 -3.45 L19.95 -4.35 20.85 -4.1 M28.0 -5.85 L29.65 -6.35 30.95 -6.6 33.8 -7.05 34.3 -7.0 34.2 -6.65 33.1 -6.2 31.55 -5.4 30.0 -4.5 27.3 -3.95 26.3 -5.05 28.0 -5.85" fill="#f3e634" fill-rule="evenodd" stroke="none"/>
    <path d="M20.35 -5.7 L20.5 -5.3 20.85 -4.1 19.95 -4.35 20.55 -3.45 Q22.2 0.5 22.25 4.75 L22.2 6.15 22.0 7.05 21.65 7.9 Q22.0 8.25 22.45 8.35 23.95 9.05 25.8 9.15 L26.7 9.25 Q25.7 10.45 25.4 12.1 24.0 11.8 22.85 11.1 20.9 10.05 19.1 9.25 L18.2 8.55 17.95 8.6 17.45 6.6 Q18.75 4.5 19.25 2.05 L19.5 -1.05 19.5 -2.7 18.45 -4.0 17.45 -4.4 13.6 -3.45 11.2 -2.75 8.9 -2.75 Q6.6 -3.4 4.5 -4.6 2.35 -4.9 0.85 -3.8 L-0.9 -2.6 Q-2.35 -3.1 -2.75 -4.4 -3.3 -5.95 -3.5 -7.5 L-3.5 -9.1 -2.35 -7.9 -1.5 -6.8 -1.1 -6.3 1.95 -6.3 3.4 -6.8 4.6 -7.65 5.35 -8.15 5.8 -8.85 6.55 -8.65 9.8 -7.4 10.9 -6.9 11.85 -6.35 13.6 -5.1 20.35 -5.7 M-0.4 -14.5 Q-0.25 -15.75 -0.4 -17.15 -0.4 -18.35 -0.65 -19.45 L-1.15 -21.4 -0.1 -21.25 2.8 -21.1 5.55 -20.55 8.1 -19.25 6.8 -18.5 4.4 -16.6 Q3.6 -15.95 2.65 -15.4 L-0.4 -14.5" fill="#c74a0e" fill-rule="evenodd" stroke="none"/>
    <path d="M36.55 7.95 L36.7 7.65 36.8 7.35 37.6 7.65 39.8 8.75 Q41.35 9.3 42.8 10.0 L46.0 11.55 48.6 13.3 50.2 14.75 46.95 13.45 Q46.1 13.15 46.45 13.45 L46.9 13.8 48.65 15.75 50.9 17.65 51.05 17.75 53.05 20.7 54.45 23.25 53.8 29.8 49.9 31.4 Q49.8 31.25 49.6 31.25 49.05 30.95 48.65 30.65 L48.35 30.55 48.3 30.55 Q47.4 29.8 46.3 29.7 L43.25 30.4 Q43.0 29.45 42.45 28.85 L42.55 28.85 42.85 28.5 Q43.5 28.6 43.65 27.6 L42.45 27.15 Q40.5 26.85 38.85 25.25 L35.2 25.1 Q35.05 24.4 34.65 24.4 31.15 24.15 27.8 25.45 26.85 24.7 26.8 23.15 L32.4 22.75 33.4 23.65 30.65 20.85 30.45 20.7 26.55 22.15 Q25.2 22.65 24.4 23.65 25.95 24.15 27.0 25.5 L24.15 25.45 Q23.9 25.5 23.75 25.75 23.35 26.05 23.25 26.5 L22.8 26.65 21.75 26.7 Q20.45 27.85 18.6 28.4 16.6 28.95 15.35 30.55 15.0 30.65 14.7 30.9 12.55 32.0 10.4 32.55 L9.65 32.65 8.9 31.85 7.5 30.2 6.0 28.95 6.0 28.7 5.75 28.0 5.75 27.75 6.3 27.35 Q5.25 25.65 6.25 24.0 7.55 21.75 9.4 20.2 L12.85 16.9 13.55 16.3 13.65 16.2 13.7 16.2 13.7 16.0 13.2 16.15 Q12.25 16.35 12.6 15.25 L13.0 13.05 17.75 10.25 18.25 10.2 18.7 10.35 Q19.95 11.45 21.15 12.1 L21.35 12.3 Q23.35 13.65 25.65 14.8 L27.4 14.8 35.55 14.75 36.1 13.8 Q37.0 11.45 37.3 9.35 L37.45 7.65 36.95 7.95 35.35 10.85 35.9 9.0 Q35.95 8.5 36.15 7.95 L36.55 7.95 M33.05 9.5 L34.75 10.35 34.9 10.35 34.55 11.8 32.3 11.85 29.65 12.05 27.35 12.3 27.4 12.2 28.2 10.55 29.1 9.3 29.25 9.3 33.05 9.5" fill="#274fab" fill-rule="evenodd" stroke="none"/>
    <path d="M50.2 14.75 L50.6 15.45 50.9 17.65 48.65 15.75 46.9 13.8 46.45 13.45 Q46.1 13.15 46.95 13.45 L50.2 14.75 M43.25 30.4 L39.35 31.45 39.15 31.05 38.9 29.9 38.5 28.1 36.6 27.85 36.55 27.85 36.55 27.6 36.45 27.05 Q36.6 26.5 36.0 26.35 L35.75 26.1 Q34.0 25.25 31.9 24.9 L31.7 24.95 26.65 26.65 Q24.7 27.15 22.6 28.0 L22.3 28.15 Q21.65 30.2 20.0 31.6 L19.8 31.6 Q18.75 31.05 17.6 30.65 L15.35 30.55 Q16.6 28.95 18.6 28.4 20.45 27.85 21.75 26.7 L22.8 26.65 23.25 26.5 Q23.35 26.05 23.75 25.75 23.9 25.5 24.15 25.45 L27.0 25.5 Q25.95 24.15 24.4 23.65 25.2 22.65 26.55 22.15 L30.45 20.7 30.65 20.85 33.4 23.65 32.4 22.75 26.8 23.15 Q26.85 24.7 27.8 25.45 31.15 24.15 34.65 24.4 35.05 24.4 35.2 25.1 L38.85 25.25 Q40.5 26.85 42.45 27.15 L43.65 27.6 Q43.5 28.6 42.85 28.5 L42.55 28.85 42.45 28.85 Q43.0 29.45 43.25 30.4 M6.0 28.95 L4.35 28.15 4.55 27.65 4.65 26.15 Q4.55 24.5 4.05 22.65 L3.2 21.2 Q3.4 20.35 3.75 19.85 L6.85 16.2 9.55 13.45 Q10.9 12.05 12.6 10.9 L15.5 9.15 17.4 8.65 17.35 8.75 17.35 9.5 19.7 11.0 21.15 12.1 Q19.95 11.45 18.7 10.35 L18.25 10.2 17.75 10.25 13.0 13.05 12.6 15.25 Q12.25 16.35 13.2 16.15 L13.7 16.0 13.7 16.2 13.65 16.2 13.55 16.3 12.85 16.9 9.4 20.2 Q7.55 21.75 6.25 24.0 5.25 25.65 6.3 27.35 L5.75 27.75 5.75 28.0 6.0 28.7 6.0 28.95 M17.75 8.6 L17.95 8.6 18.2 8.55 19.1 9.25 17.75 8.6 M26.7 9.25 L26.75 9.15 Q27.5 8.4 28.7 8.25 L29.3 8.9 33.05 9.5 29.25 9.3 29.1 9.3 28.2 10.55 27.4 12.2 27.35 12.3 25.4 12.1 Q25.7 10.45 26.7 9.25" fill="#130d33" fill-rule="evenodd" stroke="none"/>
    <path d="M17.4 8.65 L17.5 8.5 17.75 8.6 19.1 9.25 Q20.9 10.05 22.85 11.1 24.0 11.8 25.4 12.1 L27.35 12.3 29.65 12.05 32.3 11.85 34.55 11.8 34.85 11.8 35.35 10.85 36.95 7.95 37.45 7.65 37.3 9.35 35.65 11.4 35.35 11.95 35.0 12.3 34.95 12.4 34.85 12.4 34.55 12.4 34.4 12.45 32.15 12.55 29.7 12.75 27.1 12.85 26.45 12.85 25.3 13.05 25.25 13.05 25.2 13.05 25.05 13.05 24.35 12.9 24.0 12.75 23.3 12.3 21.35 11.1 21.05 10.9 20.75 10.7 20.55 10.5 20.35 10.35 20.35 10.55 20.75 11.2 20.95 11.45 21.3 12.2 21.35 12.3 21.15 12.1 19.7 11.0 17.35 9.5 17.35 8.75 17.4 8.65 M27.4 14.8 L27.0 14.5 26.45 14.3 26.2 14.2 25.55 13.8 Q25.35 13.8 25.3 13.65 L25.15 13.45 25.9 13.6 26.8 13.65 27.0 13.65 28.25 13.65 33.95 13.65 35.15 13.8 36.1 13.8 35.55 14.75 27.4 14.8" fill="#83291d" fill-rule="evenodd" stroke="none"/>
    <path d="M21.35 12.3 L21.3 12.2 20.95 11.45 20.75 11.2 20.35 10.55 20.35 10.35 20.55 10.5 20.75 10.7 21.05 10.9 21.35 11.1 23.3 12.3 24.0 12.75 24.35 12.9 25.05 13.05 25.2 13.05 25.25 13.05 25.3 13.05 26.45 12.85 27.1 12.85 29.7 12.75 32.15 12.55 34.4 12.45 34.55 12.4 34.85 12.4 34.95 12.4 35.0 12.3 35.35 11.95 35.65 11.4 37.3 9.35 Q37.0 11.45 36.1 13.8 L35.15 13.8 33.95 13.65 28.25 13.65 27.0 13.65 26.8 13.65 25.9 13.6 25.15 13.45 25.3 13.65 Q25.35 13.8 25.55 13.8 L26.2 14.2 26.45 14.3 27.0 14.5 27.4 14.8 25.65 14.8 Q23.35 13.65 21.35 12.3" fill="#f36034" fill-rule="evenodd" stroke="none"/>
    <path d="M5.1 29.1 L5.25 29.0 5.8 28.85 5.95 28.9 7.45 30.25 8.85 31.8 Q8.15 32.35 7.6 33.05 L6.65 31.7 5.1 29.1 M5.85 34.8 L5.4 35.3 4.0 34.6 3.1 34.35 2.65 34.2 2.65 34.0 2.4 33.75 2.05 33.5 2.25 33.2 Q3.05 31.65 3.35 29.8 3.7 29.6 4.2 29.45 L4.05 29.9 3.95 30.5 3.75 31.2 3.3 32.85 3.2 33.3 3.1 33.4 3.0 33.5 4.6 34.2 5.85 34.8" fill="#666666" fill-rule="evenodd" stroke="none"/>
    <path d="M7.6 33.05 L7.3 33.3 6.1 34.55 5.85 34.8 4.6 34.2 3.0 33.5 3.1 33.4 3.2 33.3 3.3 32.85 3.75 31.2 3.95 30.5 4.05 29.9 4.2 29.45 5.1 29.1 6.65 31.7 7.6 33.05 M5.4 35.3 L4.1 36.75 Q3.9 36.9 3.75 37.0 L3.45 37.45 2.95 36.45 2.5 35.65 2.4 35.6 Q2.15 35.5 2.3 35.05 L2.4 34.8 2.65 34.2 3.1 34.35 4.0 34.6 5.4 35.3 M2.05 33.5 L1.9 33.4 1.45 32.95 1.25 32.85 1.05 32.45 1.05 32.0 0.95 30.95 1.2 30.75 3.35 29.8 Q3.05 31.65 2.25 33.2 L2.05 33.5" fill="#cccccc" fill-rule="evenodd" stroke="none"/>
    <path d="M41.75 32.0 L41.75 31.1 41.75 30.85 46.25 29.7 Q47.4 29.8 48.25 30.5 L48.35 30.6 48.45 30.75 43.95 31.0 Q43.6 31.0 43.6 31.2 L43.7 31.2 43.8 31.3 44.4 32.35 44.55 32.5 45.0 32.8 45.1 32.7 45.7 32.45 45.8 32.35 48.6 31.45 48.8 32.05 47.1 32.85 46.1 33.55 45.75 34.1 45.65 34.25 45.75 35.25 45.65 35.25 45.5 35.15 45.5 34.95 45.4 34.8 45.15 34.35 Q44.8 34.8 44.9 35.4 L44.9 35.6 44.8 35.65 44.7 35.6 44.45 34.1 44.35 33.5 44.35 33.3 44.2 33.2 43.25 32.25 43.0 32.15 41.75 32.0" fill="#666666" fill-rule="evenodd" stroke="none"/>
    <path d="M48.45 30.75 L48.45 30.95 48.6 31.45 45.8 32.35 45.7 32.45 45.1 32.7 45.0 32.8 44.55 32.5 44.4 32.35 43.8 31.3 43.7 31.2 43.6 31.2 Q43.6 31.0 43.95 31.0 L48.45 30.75 M48.8 32.05 L49.2 33.75 49.0 34.1 Q48.65 34.1 48.5 34.25 L47.15 35.05 46.55 35.25 45.75 35.25 45.65 34.25 45.75 34.1 46.1 33.55 47.1 32.85 48.8 32.05 M44.8 35.65 L44.45 35.65 42.35 35.6 42.25 35.5 Q41.9 34.7 41.8 33.75 L41.75 32.0 43.0 32.15 43.25 32.25 44.2 33.2 44.35 33.3 44.35 33.5 44.45 34.1 44.7 35.6 44.8 35.65" fill="#cccccc" fill-rule="evenodd" stroke="none"/>
  </g>
</svg>
