<?xml version="1.0" encoding="UTF-8" standalone="no"?>
<svg xmlns:xlink="http://www.w3.org/1999/xlink" height="69.05px" width="197.15px" xmlns="http://www.w3.org/2000/svg">
  <g transform="matrix(1.0, 0.0, 0.0, 1.0, 185.15, -66.6)">
    <path d="M12.0 78.0 Q8.95 80.05 5.05 80.4 L-6.0 80.95 Q-20.5 81.0 -35.0 80.5 -41.2 80.3 -45.0 82.0 -43.45 84.95 -40.0 86.0 -37.65 86.75 -38.0 89.0 -42.05 91.25 -44.95 88.95 -45.5 88.5 -46.1 88.4 L-49.9 87.6 -51.0 87.5 -52.1 87.65 -55.0 88.15 -66.0 88.8 -76.45 89.95 Q-76.1 93.4 -79.0 93.5 L-80.05 93.6 -86.0 94.05 -106.0 92.8 Q-111.55 92.05 -114.05 95.0 L-110.05 95.95 Q-107.1 96.55 -106.0 98.15 L-108.05 98.5 Q-111.9 98.45 -113.05 101.0 -110.25 101.2 -108.05 102.05 -104.7 103.35 -101.0 103.7 L-58.95 107.75 Q-56.5 108.0 -54.05 107.75 -48.95 107.2 -45.0 109.05 L-42.95 109.75 -41.3 110.45 Q-40.5 111.0 -40.75 111.75 -41.35 113.65 -43.0 116.0 -42.5 116.5 -41.0 117.0 -40.95 118.8 -39.9 121.6 -37.8 122.05 -36.3 123.35 -35.5 124.0 -35.8 124.7 -36.75 127.0 -34.95 128.95 -34.5 129.5 -34.35 130.1 -33.8 132.7 -36.0 132.9 L-38.95 133.25 Q-47.2 134.75 -56.0 134.4 -80.15 133.35 -104.05 135.05 -115.5 135.85 -127.05 135.6 L-131.0 135.65 Q-133.6 135.75 -134.95 133.9 -137.45 130.5 -132.0 129.3 L-129.1 128.75 -103.05 125.2 Q-98.8 124.75 -97.05 122.0 -107.9 119.15 -120.05 119.8 L-127.0 120.35 Q-132.6 120.95 -135.05 118.0 L-133.05 117.0 Q-130.65 115.75 -130.05 114.0 L-138.0 113.65 -141.05 113.45 -159.05 112.55 -162.05 112.55 Q-170.1 112.8 -177.1 111.2 L-178.75 110.55 Q-181.25 108.8 -185.15 107.8 L-183.95 107.3 Q-183.05 107.0 -182.45 106.5 -179.6 104.25 -175.05 104.9 -171.1 105.45 -169.2 103.85 -167.35 102.3 -168.25 102.4 L-170.0 101.8 -173.1 101.35 -179.0 100.6 Q-181.4 100.25 -180.6 98.15 -179.85 96.2 -177.9 95.3 -174.2 93.7 -170.05 93.2 L-167.15 92.65 Q-165.2 92.1 -163.05 92.1 L-136.05 92.0 -133.15 91.65 -131.95 91.3 Q-131.05 91.0 -130.75 90.55 -130.05 89.5 -130.05 88.0 L-130.05 87.0 Q-130.05 86.0 -129.65 85.8 L-124.9 83.25 Q-121.6 81.4 -124.15 78.05 L-125.15 77.35 -128.0 76.7 Q-130.35 76.15 -131.35 75.35 -133.4 73.75 -130.8 71.25 L-129.3 69.75 Q-128.05 68.5 -126.05 68.4 L-110.05 67.6 -107.05 67.4 Q-98.5 67.0 -90.0 67.45 -89.0 67.5 -88.75 68.25 L-88.2 69.6 Q-88.0 70.0 -87.05 70.15 -85.0 70.5 -83.25 71.45 -81.7 72.2 -79.0 72.05 -78.0 72.0 -77.3 71.55 L-75.7 70.4 -71.15 66.6 -62.0 67.3 Q-56.0 67.0 -50.05 67.45 -49.0 67.5 -48.65 68.3 -47.1 71.5 -42.0 71.85 L-38.05 72.25 -26.0 72.85 Q-12.15 72.55 1.0 75.1 L4.95 75.4 Q10.1 75.05 12.0 78.0" fill="#ff0000" fill-rule="evenodd" stroke="none"/>
  </g>
</svg>
