<?xml version="1.0" encoding="UTF-8" standalone="no"?>
<svg xmlns:xlink="http://www.w3.org/1999/xlink" height="94.65px" width="129.35px" xmlns="http://www.w3.org/2000/svg">
  <g transform="matrix(1.0, 0.0, 0.0, 1.0, 64.75, 53.05)">
    <path d="M29.3 -28.35 Q29.05 -29.3 29.75 -29.4 L30.65 -29.45 36.3 -30.1 39.9 -30.5 41.2 -30.5 41.0 -30.45 40.35 -30.45 38.65 -30.15 38.15 -29.95 36.8 -29.7 33.15 -28.85 Q31.65 -28.55 30.5 -27.85 L30.4 -27.75 30.35 -27.6 29.3 -28.35 M-62.95 12.55 L-63.85 10.25 Q-65.4 3.8 -64.3 -3.1 -63.1 -10.15 -61.5 -17.2 -59.8 -24.75 -54.0 -30.25 -49.25 -34.6 -43.35 -37.2 -36.1 -40.45 -28.55 -42.15 -20.65 -43.75 -12.75 -43.6 L-14.35 -38.55 Q-21.1 -37.1 -27.15 -34.15 L-9.3 -30.35 Q-4.6 -29.6 -0.1 -27.95 L-2.65 -25.85 Q-6.15 -22.65 -8.6 -18.6 L-13.9 -18.05 -30.1 -17.3 Q-28.05 -15.0 -25.25 -14.15 -18.35 -12.8 -11.15 -12.35 L-12.4 -10.3 Q-15.8 -4.55 -18.0 1.85 L-18.4 1.8 Q-26.45 2.1 -33.9 5.3 L-48.35 11.6 Q-55.4 14.65 -62.95 12.55 M30.5 -6.7 L30.4 -4.95 Q30.35 -4.45 30.85 -4.3 L29.7 -3.7 29.15 -3.45 Q25.9 -1.2 23.3 1.6 24.05 4.25 25.4 6.8 28.1 6.85 30.55 6.0 L30.7 7.85 30.55 6.0 Q32.6 5.25 34.5 3.85 34.3 0.2 32.85 -3.25 L31.45 -4.05 31.4 -4.1 32.35 -3.65 32.85 -8.1 34.65 -9.05 Q34.45 -4.3 35.4 0.35 36.7 2.0 38.45 3.05 40.95 4.65 44.2 3.85 L42.95 5.65 38.85 5.85 38.9 8.95 Q38.8 6.85 37.65 4.85 L31.65 6.1 31.0 7.1 30.7 7.85 Q30.2 9.15 29.85 10.5 L31.05 11.4 31.2 13.2 31.05 11.4 32.25 12.05 Q35.65 13.8 38.5 11.65 L36.7 14.3 36.5 14.6 Q33.65 14.35 31.2 13.2 29.85 12.6 28.65 11.7 L28.5 11.45 Q28.8 9.3 29.75 7.8 27.35 8.75 24.8 8.6 L22.45 5.3 21.65 6.4 Q18.6 8.1 15.15 9.05 L14.05 8.95 Q9.55 5.85 7.15 0.7 6.6 -0.75 7.4 -1.9 8.4 -3.3 9.85 -4.3 11.5 -5.3 13.1 -5.75 L15.05 -5.95 18.75 -5.75 19.05 -6.2 Q19.2 -7.15 17.45 -7.15 13.0 -7.5 9.0 -9.45 7.15 -15.2 8.15 -21.2 L8.3 -21.45 9.6 -21.95 9.15 -21.4 9.95 -12.85 10.45 -10.15 Q13.4 -8.4 16.95 -8.4 L19.85 -8.45 20.75 -8.85 24.2 -16.85 24.6 -17.95 Q25.05 -17.05 24.55 -15.85 23.65 -13.85 23.25 -11.45 L24.45 -11.8 22.85 -9.25 Q22.3 -8.0 22.5 -6.65 22.9 -3.85 23.85 -0.9 L26.7 -2.75 Q28.4 -3.8 29.6 -5.3 L30.5 -6.7 M32.05 23.25 L32.15 23.3 32.8 23.95 32.9 24.35 Q32.95 25.0 32.5 25.25 L32.3 25.35 30.95 25.15 30.65 25.05 30.55 24.9 Q30.6 23.7 31.75 23.25 L32.05 23.25 32.15 24.4 32.9 24.35 32.15 24.4 32.05 23.25 M29.6 -5.3 L29.7 -3.7 29.6 -5.3 M8.4 -2.05 L8.2 -0.9 9.6 1.75 Q11.5 5.7 15.15 7.35 16.45 6.8 17.8 6.4 20.15 5.5 21.7 3.55 L21.75 2.95 Q22.05 -1.1 20.55 -5.05 L13.2 -5.45 Q10.55 -4.6 8.75 -2.55 L8.4 -2.05 M-15.55 -1.65 L-14.85 -4.15 -14.25 -5.45 Q-13.95 -5.75 -13.4 -5.65 L-12.7 -5.35 -7.35 -2.6 -6.05 -1.95 -3.4 -0.4 -3.3 -0.2 Q-3.4 0.35 -4.1 0.8 L-5.0 1.8 -6.35 1.4 -7.0 1.1 -8.3 0.65 -8.65 0.65 Q-9.5 0.45 -10.15 0.1 L-10.4 0.05 -13.8 -0.85 -14.05 -0.95 -14.2 -0.95 -15.45 -1.15 Q-15.65 -1.15 -15.55 -1.65 M-1.95 -0.3 Q-0.95 -0.4 -0.65 0.3 L-0.45 0.65 Q-0.3 1.05 -0.45 1.15 L-0.75 1.3 Q-1.4 1.8 -2.25 1.85 L-2.9 1.95 -3.2 1.5 -3.25 1.35 Q-3.25 0.0 -2.1 -0.35 L-1.95 -0.3 M24.15 18.5 Q25.45 18.45 26.1 19.3 L26.25 19.55 Q26.35 20.55 25.4 20.8 L25.0 20.85 Q23.8 20.95 23.7 19.9 L23.6 19.7 23.65 19.6 23.5 19.3 23.45 19.2 Q23.4 18.7 23.85 18.5 L24.15 18.5 M22.15 17.9 L22.65 18.85 22.65 18.95 Q22.0 19.1 21.2 18.5 L20.95 18.15 19.65 17.45 19.4 17.35 16.65 15.35 16.35 15.2 14.85 14.55 14.15 14.15 11.15 11.9 10.7 11.5 8.5 9.3 9.05 9.05 Q10.45 8.7 11.75 9.6 12.2 10.05 12.9 10.3 L13.75 10.7 Q16.25 12.2 19.1 12.15 20.0 12.1 20.15 13.05 20.05 13.45 20.25 13.75 L21.15 15.35 21.2 15.45 21.7 16.9 22.15 17.9 M29.45 19.95 L30.45 20.05 30.6 20.2 Q30.95 21.15 30.9 22.25 30.9 23.8 30.0 24.35 L29.45 24.6 28.4 24.75 28.05 24.85 27.2 24.1 Q26.4 23.35 26.35 22.45 L26.45 22.2 Q26.85 21.3 27.75 20.9 L28.0 20.7 28.25 20.4 Q28.7 19.85 29.45 19.95 M3.25 2.45 L3.75 3.1 3.95 3.5 4.3 4.4 4.0 4.4 3.0 4.2 2.8 4.2 2.45 4.1 Q2.1 3.75 1.55 3.45 L0.7 2.85 0.0 2.45 Q-0.15 1.45 0.85 1.3 L2.0 1.3 Q2.65 1.35 2.85 1.8 L3.25 2.45" fill="#380e12" fill-rule="evenodd" stroke="none"/>
    <path d="M10.7 -38.7 L13.3 -37.5 16.45 -36.05 Q22.2 -33.15 27.45 -29.6 L29.3 -28.35 30.35 -27.6 33.4 -25.4 37.3 -22.1 39.8 -19.4 41.05 -17.85 Q45.05 -13.0 48.65 -7.95 L49.05 -7.4 51.95 -3.25 53.7 -0.65 57.8 5.8 Q62.35 13.4 64.1 21.65 L64.6 24.7 61.8 27.85 Q57.4 32.65 51.9 35.5 45.55 30.8 37.6 30.6 L36.0 30.45 35.15 30.3 Q29.3 29.65 24.9 25.5 L17.6 19.45 10.05 13.6 Q6.9 11.15 4.1 8.2 2.25 6.25 -0.5 5.55 -8.85 3.05 -18.0 1.85 -15.8 -4.55 -12.4 -10.3 L-11.15 -12.35 Q-18.35 -12.8 -25.25 -14.15 -28.05 -15.0 -30.1 -17.3 L-13.9 -18.05 -8.6 -18.6 Q-6.15 -22.65 -2.65 -25.85 L-0.1 -27.95 Q-4.6 -29.6 -9.3 -30.35 L-27.15 -34.15 Q-21.1 -37.1 -14.35 -38.55 L-12.75 -43.6 -4.55 -42.9 -3.85 -42.85 -1.55 -42.3 Q4.8 -41.05 10.7 -38.7 M28.95 -12.5 L27.45 -29.6 28.95 -12.5 27.1 -14.55 24.45 -11.8 23.25 -11.45 Q23.65 -13.85 24.55 -15.85 25.05 -17.05 24.6 -17.95 25.3 -21.1 23.0 -23.5 22.0 -24.35 20.75 -24.9 17.1 -24.95 13.55 -23.7 L12.0 -23.05 11.7 -23.0 9.55 -22.05 9.6 -21.95 8.3 -21.45 8.15 -21.2 Q7.15 -15.2 9.0 -9.45 13.0 -7.5 17.45 -7.15 19.2 -7.15 19.05 -6.2 L18.75 -5.75 15.05 -5.95 13.1 -5.75 Q11.5 -5.3 9.85 -4.3 8.4 -3.3 7.4 -1.9 6.6 -0.75 7.15 0.7 9.55 5.85 14.05 8.95 L15.15 9.05 Q18.6 8.1 21.65 6.4 L22.45 5.3 24.8 8.6 Q27.35 8.75 29.75 7.8 28.8 9.3 28.5 11.45 L28.65 11.7 Q29.85 12.6 31.2 13.2 33.65 14.35 36.5 14.6 L36.7 14.3 38.5 11.65 38.6 11.55 38.8 10.6 38.85 9.8 38.9 8.95 38.85 5.85 42.95 5.65 44.2 3.85 44.5 3.7 45.45 1.1 Q45.85 -0.35 45.7 -1.95 45.5 -4.5 44.6 -6.6 43.7 -8.65 41.35 -9.6 37.95 -11.05 34.65 -9.2 L34.65 -9.05 32.85 -8.1 32.35 -3.65 31.4 -4.1 30.85 -4.3 Q30.35 -4.45 30.4 -4.95 L30.5 -6.7 31.3 -8.4 30.5 -10.3 28.95 -12.5 M32.05 23.25 L31.2 13.2 32.05 23.25 31.75 23.25 Q30.6 23.7 30.55 24.9 L30.65 25.05 30.95 25.15 32.3 25.35 32.5 25.25 Q32.95 25.0 32.9 24.35 L32.8 23.95 32.15 23.3 32.05 23.25 M64.1 21.65 L32.9 24.35 64.1 21.65 M-1.95 -0.3 L-2.1 -0.35 Q-3.25 0.0 -3.25 1.35 L-3.2 1.5 -2.9 1.95 -2.25 1.85 Q-1.4 1.8 -0.75 1.3 L-0.45 1.15 Q-0.3 1.05 -0.45 0.65 L-0.65 0.3 Q-0.95 -0.4 -1.95 -0.3 M-15.55 -1.65 Q-15.65 -1.15 -15.45 -1.15 L-14.2 -0.95 -14.05 -0.95 -13.8 -0.85 -10.4 0.05 -10.15 0.1 Q-9.5 0.45 -8.65 0.65 L-8.3 0.65 -7.0 1.1 -6.35 1.4 -5.0 1.8 -4.1 0.8 Q-3.4 0.35 -3.3 -0.2 L-3.4 -0.4 -6.05 -1.95 -7.35 -2.6 -12.7 -5.35 -13.4 -5.65 Q-13.95 -5.75 -14.25 -5.45 L-14.85 -4.15 -15.55 -1.65 M29.45 19.95 Q28.7 19.85 28.25 20.4 L28.0 20.7 27.75 20.9 Q26.85 21.3 26.45 22.2 L26.35 22.45 Q26.4 23.35 27.2 24.1 L28.05 24.85 28.4 24.75 29.45 24.6 30.0 24.35 Q30.9 23.8 30.9 22.25 30.95 21.15 30.6 20.2 L30.45 20.05 29.45 19.95 M22.15 17.9 L21.7 16.9 21.2 15.45 21.15 15.35 20.25 13.75 Q20.05 13.45 20.15 13.05 20.0 12.1 19.1 12.15 16.25 12.2 13.75 10.7 L12.9 10.3 Q12.2 10.05 11.75 9.6 10.45 8.7 9.05 9.05 L8.5 9.3 10.7 11.5 11.15 11.9 14.15 14.15 14.85 14.55 16.35 15.2 16.65 15.35 19.4 17.35 19.65 17.45 20.95 18.15 21.2 18.5 Q22.0 19.1 22.65 18.95 L22.65 18.85 22.15 17.9 M24.15 18.5 L23.85 18.5 Q23.4 18.7 23.45 19.2 L23.5 19.3 23.65 19.6 23.6 19.7 23.7 19.9 Q23.8 20.95 25.0 20.85 L25.4 20.8 Q26.35 20.55 26.25 19.55 L26.1 19.3 Q25.45 18.45 24.15 18.5 M3.25 2.45 L2.85 1.8 Q2.65 1.35 2.0 1.3 L0.85 1.3 Q-0.15 1.45 0.0 2.45 L0.7 2.85 1.55 3.45 Q2.1 3.75 2.45 4.1 L2.8 4.2 3.0 4.2 4.0 4.4 4.3 4.4 3.95 3.5 3.75 3.1 3.25 2.45" fill="#73263e" fill-rule="evenodd" stroke="none"/>
    <path d="M10.7 -38.7 L11.2 -39.25 Q11.65 -39.95 11.2 -40.55 L11.0 -40.85 9.05 -43.95 8.9 -44.1 7.95 -44.3 7.65 -44.3 6.75 -44.25 0.5 -44.55 0.8 -44.85 0.95 -45.2 1.3 -45.4 1.75 -45.45 4.4 -45.6 4.95 -45.6 5.5 -45.6 7.5 -45.75 9.05 -45.7 Q9.5 -45.7 9.6 -45.4 L10.0 -44.8 Q10.1 -44.65 10.3 -44.55 11.3 -44.05 11.85 -43.15 L12.05 -42.4 Q12.3 -41.95 12.7 -41.8 L13.05 -45.95 12.95 -46.4 12.35 -46.9 11.2 -47.65 10.7 -47.75 10.55 -47.75 10.2 -47.65 9.2 -47.55 8.05 -47.35 7.6 -47.15 6.8 -47.0 Q6.65 -46.9 6.55 -46.9 5.55 -46.35 4.4 -46.65 L4.55 -46.7 5.45 -47.45 6.5 -47.8 7.05 -47.85 9.25 -48.35 10.5 -48.75 12.0 -48.95 12.25 -48.85 13.3 -47.95 13.6 -47.95 Q13.95 -48.0 14.2 -48.65 L14.9 -50.05 13.45 -50.1 13.15 -50.2 11.95 -50.45 Q12.9 -51.1 14.1 -50.8 L14.65 -50.65 15.55 -50.75 15.9 -51.05 17.0 -51.35 17.2 -51.45 Q17.85 -52.15 17.0 -52.0 L16.55 -52.0 14.25 -51.55 12.7 -51.25 9.2 -50.1 Q7.75 -49.75 6.65 -49.2 L4.1 -47.95 3.7 -47.8 2.35 -46.95 1.35 -46.25 Q1.2 -46.0 0.9 -45.9 -0.5 -45.1 -1.4 -43.85 L-1.55 -42.45 -1.55 -42.3 -3.85 -42.85 -3.75 -43.15 -3.6 -43.7 Q-3.0 -45.05 -1.55 -45.7 -0.25 -46.15 1.05 -46.9 L5.85 -49.1 9.1 -50.45 14.55 -51.9 20.4 -52.85 20.95 -52.95 21.6 -53.05 17.75 -50.6 16.05 -49.15 15.55 -48.9 Q15.0 -48.7 14.95 -48.15 L14.75 -47.5 14.6 -46.15 14.3 -43.4 14.2 -41.45 13.55 -38.2 13.3 -37.5 10.7 -38.7 M45.0 -30.65 L46.7 -30.65 47.75 -30.5 48.8 -30.45 48.65 -30.3 Q45.8 -28.75 43.7 -26.35 L42.95 -25.3 40.9 -21.85 40.1 -20.1 39.8 -19.4 37.3 -22.1 37.7 -22.6 Q38.3 -23.3 38.45 -24.15 38.5 -25.05 37.6 -25.35 L37.1 -25.65 Q36.85 -25.75 36.7 -25.9 L35.85 -26.3 35.15 -26.45 Q34.2 -26.55 34.4 -27.3 L34.6 -27.35 Q34.8 -27.2 35.2 -27.15 L36.35 -27.1 37.05 -26.9 39.8 -25.35 40.15 -24.9 Q40.4 -24.6 40.75 -24.65 L41.3 -25.6 42.0 -26.55 42.0 -26.85 39.7 -28.05 39.2 -28.2 Q38.6 -28.2 38.35 -28.55 L38.85 -29.0 39.55 -28.95 39.75 -28.95 Q40.7 -29.0 41.6 -28.45 L42.15 -28.0 43.2 -27.3 43.4 -27.3 43.7 -27.45 44.1 -27.9 Q44.6 -28.6 44.15 -29.0 43.55 -29.4 43.4 -30.15 L44.5 -30.05 45.2 -29.65 46.0 -29.5 45.75 -30.25 45.45 -30.4 45.25 -30.5 45.0 -30.65 M48.65 -7.95 L52.9 -8.25 54.9 -8.05 59.15 -7.95 59.75 -7.75 59.95 -7.7 60.0 -7.65 Q58.8 -7.35 57.65 -6.65 55.25 -4.75 54.15 -2.1 L53.7 -0.65 51.95 -3.25 52.9 -4.15 Q53.35 -4.45 53.1 -4.6 L52.95 -4.8 Q52.3 -5.75 51.8 -6.85 L52.6 -6.8 52.85 -6.7 54.0 -5.15 54.25 -4.9 54.35 -4.9 54.75 -5.0 Q55.05 -5.35 54.9 -5.85 L54.95 -6.0 54.85 -6.3 Q54.45 -6.65 54.25 -7.2 54.15 -7.4 54.3 -7.5 55.1 -8.05 55.2 -6.95 55.15 -6.65 55.7 -6.65 L55.95 -6.75 56.0 -6.9 55.9 -7.25 Q56.1 -7.95 55.6 -7.95 L53.7 -7.85 49.95 -7.65 49.5 -7.65 Q49.1 -7.75 49.05 -7.4 L48.65 -7.95" fill="#000000" fill-rule="evenodd" stroke="none"/>
    <path d="M-1.55 -42.3 L-1.55 -42.45 -1.4 -43.85 Q-0.5 -45.1 0.9 -45.9 1.2 -46.0 1.35 -46.25 L2.35 -46.95 3.7 -47.8 4.1 -47.95 6.65 -49.2 Q7.75 -49.75 9.2 -50.1 L12.7 -51.25 14.25 -51.55 16.55 -52.0 17.0 -52.0 Q17.85 -52.15 17.2 -51.45 L17.0 -51.35 15.9 -51.05 15.55 -50.75 14.65 -50.65 14.1 -50.8 Q12.9 -51.1 11.95 -50.45 L13.15 -50.2 13.45 -50.1 14.9 -50.05 14.2 -48.65 Q13.95 -48.0 13.6 -47.95 L13.3 -47.95 12.25 -48.85 12.0 -48.95 10.5 -48.75 9.25 -48.35 7.05 -47.85 6.5 -47.8 5.45 -47.45 4.55 -46.7 4.4 -46.65 Q5.55 -46.35 6.55 -46.9 6.65 -46.9 6.8 -47.0 L7.6 -47.15 8.05 -47.35 9.2 -47.55 10.2 -47.65 10.55 -47.75 10.7 -47.75 11.2 -47.65 12.35 -46.9 12.95 -46.4 13.05 -45.95 12.7 -41.8 Q12.3 -41.95 12.05 -42.4 L11.85 -43.15 Q11.3 -44.05 10.3 -44.55 10.1 -44.65 10.0 -44.8 L9.6 -45.4 Q9.5 -45.7 9.05 -45.7 L7.5 -45.75 5.5 -45.6 4.95 -45.6 4.4 -45.6 1.75 -45.45 1.3 -45.4 0.95 -45.2 0.8 -44.85 0.5 -44.55 6.75 -44.25 7.65 -44.3 7.95 -44.3 8.9 -44.1 9.05 -43.95 11.0 -40.85 11.2 -40.55 Q11.65 -39.95 11.2 -39.25 L10.7 -38.7 Q4.8 -41.05 -1.55 -42.3 M41.2 -30.5 L41.3 -30.5 41.4 -30.55 41.75 -30.65 44.6 -30.7 44.8 -30.65 44.95 -30.65 44.95 -30.7 45.0 -30.65 45.25 -30.5 45.45 -30.4 45.75 -30.25 46.0 -29.5 45.2 -29.65 44.5 -30.05 43.4 -30.15 Q43.55 -29.4 44.15 -29.0 44.6 -28.6 44.1 -27.9 L43.7 -27.45 43.4 -27.3 43.2 -27.3 42.15 -28.0 41.6 -28.45 Q40.7 -29.0 39.75 -28.95 L39.55 -28.95 38.85 -29.0 38.35 -28.55 Q38.6 -28.2 39.2 -28.2 L39.7 -28.05 42.0 -26.85 42.0 -26.55 41.3 -25.6 40.75 -24.65 Q40.4 -24.6 40.15 -24.9 L39.8 -25.35 37.05 -26.9 36.35 -27.1 35.2 -27.15 Q34.8 -27.2 34.6 -27.35 L34.4 -27.3 Q34.2 -26.55 35.15 -26.45 L35.85 -26.3 36.7 -25.9 Q36.85 -25.75 37.1 -25.65 L37.6 -25.35 Q38.5 -25.05 38.45 -24.15 38.3 -23.3 37.7 -22.6 L37.3 -22.1 33.4 -25.4 30.35 -27.6 30.4 -27.75 30.5 -27.85 Q31.65 -28.55 33.15 -28.85 L36.8 -29.7 38.15 -29.95 38.65 -30.15 40.35 -30.45 41.0 -30.45 41.2 -30.5 M49.05 -7.4 Q49.1 -7.75 49.5 -7.65 L49.95 -7.65 53.7 -7.85 55.6 -7.95 Q56.1 -7.95 55.9 -7.25 L56.0 -6.9 55.95 -6.75 55.7 -6.65 Q55.15 -6.65 55.2 -6.95 55.1 -8.05 54.3 -7.5 54.15 -7.4 54.25 -7.2 54.45 -6.65 54.85 -6.3 L54.95 -6.0 54.9 -5.85 Q55.05 -5.35 54.75 -5.0 L54.35 -4.9 54.25 -4.9 54.0 -5.15 52.85 -6.7 52.6 -6.8 51.8 -6.85 Q52.3 -5.75 52.95 -4.8 L53.1 -4.6 Q53.35 -4.45 52.9 -4.15 L51.95 -3.25 49.05 -7.4" fill="#860003" fill-rule="evenodd" stroke="none"/>
    <path d="M28.95 -12.5 L30.5 -10.3 31.3 -8.4 30.5 -6.7 29.6 -5.3 28.95 -12.5 29.6 -5.3 Q28.4 -3.8 26.7 -2.75 L23.85 -0.9 Q22.9 -3.85 22.5 -6.65 22.3 -8.0 22.85 -9.25 L24.45 -11.8 27.1 -14.55 28.95 -12.5 M30.85 -4.3 L31.4 -4.1 31.45 -4.05 32.85 -3.25 Q34.3 0.2 34.5 3.85 32.6 5.25 30.55 6.0 28.1 6.85 25.4 6.8 24.05 4.25 23.3 1.6 25.9 -1.2 29.15 -3.45 L29.7 -3.7 30.55 6.0 29.7 -3.7 30.85 -4.3 M34.65 -9.05 L34.65 -9.2 Q37.95 -11.05 41.35 -9.6 43.7 -8.65 44.6 -6.6 45.5 -4.5 45.7 -1.95 45.85 -0.35 45.45 1.1 L44.5 3.7 44.2 3.85 Q40.95 4.65 38.45 3.05 36.7 2.0 35.4 0.35 34.45 -4.3 34.65 -9.05 M38.9 8.95 L38.85 9.8 38.8 10.6 38.6 11.55 38.5 11.65 Q35.65 13.8 32.25 12.05 L31.05 11.4 29.85 10.5 Q30.2 9.15 30.7 7.85 L31.0 7.1 31.65 6.1 37.65 4.85 Q38.8 6.85 38.9 8.95 M9.6 -21.95 L9.55 -22.05 11.7 -23.0 12.0 -23.05 13.55 -23.7 Q17.1 -24.95 20.75 -24.9 22.0 -24.35 23.0 -23.5 25.3 -21.1 24.6 -17.95 L24.2 -16.85 20.75 -8.85 19.85 -8.45 16.95 -8.4 Q13.4 -8.4 10.45 -10.15 L9.95 -12.85 9.15 -21.4 9.6 -21.95 M8.4 -2.05 L8.75 -2.55 Q10.55 -4.6 13.2 -5.45 L20.55 -5.05 Q22.05 -1.1 21.75 2.95 L21.7 3.55 Q20.15 5.5 17.8 6.4 16.45 6.8 15.15 7.35 11.5 5.7 9.6 1.75 L8.2 -0.9 8.4 -2.05 M30.7 7.85 L31.05 11.4 30.7 7.85" fill="#e0bcd8" fill-rule="evenodd" stroke="none"/>
    <path d="M51.9 35.5 Q47.2 37.65 42.85 40.2 L41.3 41.15 38.0 41.45 Q42.55 38.95 46.1 33.95 L46.35 33.6 43.25 32.4 39.05 35.8 41.4 33.8 41.45 32.8 40.45 32.7 Q37.85 36.6 33.55 38.65 L32.5 39.25 Q29.65 40.75 26.55 39.35 25.55 38.9 24.5 38.7 L25.15 37.85 26.55 37.65 33.15 33.6 39.45 32.15 29.35 30.65 27.25 29.9 26.85 30.9 26.2 30.15 Q24.75 33.25 21.45 34.35 L21.7 35.3 20.5 36.0 10.7 34.75 11.5 33.45 12.35 33.1 13.1 31.1 16.45 32.65 24.85 28.4 16.2 21.05 Q12.25 22.3 9.9 25.2 L5.4 31.25 Q4.7 32.1 4.2 32.05 L4.15 32.05 12.1 21.55 11.35 21.5 Q5.85 25.75 2.95 32.2 L2.95 32.25 Q-1.8 35.25 -7.4 34.95 L-9.1 34.85 -5.6 30.0 -4.45 29.9 -3.1 28.15 0.4 27.8 -0.45 26.6 0.05 24.8 2.2 26.1 Q2.2 26.7 2.5 26.5 L2.75 26.45 Q6.85 21.25 12.7 18.5 L1.4 9.05 -4.0 17.45 Q-3.95 17.1 -4.15 16.9 -4.3 16.55 -4.65 16.55 L-5.2 16.85 -5.4 17.4 -5.25 18.2 -4.8 18.5 -4.65 18.5 -14.3 33.75 -14.95 33.7 -6.2 19.2 -15.75 33.85 Q-16.5 33.85 -17.15 34.15 -27.4 37.45 -38.45 36.35 L-37.35 34.65 -26.9 31.8 -27.2 30.05 -24.05 29.05 -22.8 30.15 Q-17.7 28.55 -14.15 24.25 L-2.7 11.35 -2.85 10.15 -0.7 8.1 -15.25 4.45 -17.85 6.95 -17.85 6.1 -21.5 13.15 -18.4 1.8 -18.0 1.85 Q-8.85 3.05 -0.5 5.55 2.25 6.25 4.1 8.2 6.9 11.15 10.05 13.6 L17.6 19.45 24.9 25.5 Q29.3 29.65 35.15 30.3 L33.1 30.25 36.0 30.45 37.6 30.6 Q45.55 30.8 51.9 35.5 M-43.65 32.85 L-45.45 32.0 -29.75 25.8 -30.3 22.55 -32.8 19.45 -23.1 14.95 -26.7 17.15 -23.05 15.95 -29.45 19.75 Q-28.2 21.1 -27.55 23.25 -27.1 24.7 -28.0 25.95 -28.9 27.25 -30.5 27.9 L-43.65 32.85 M-0.1 6.55 L-9.3 4.05 -11.7 3.8 -0.15 7.35 -0.1 6.55 M-1.7 10.3 L-2.3 10.2 -2.35 11.2 -1.75 11.3 -1.7 10.3 M-3.2 15.2 L-3.05 13.25 -3.9 13.2 -4.1 15.15 -3.2 15.2 M-30.35 20.1 L-30.2 21.4 -29.85 21.35 -29.55 20.45 -30.35 20.1 M-28.55 24.25 Q-29.5 25.85 -28.15 25.55 L-27.85 23.5 Q-28.2 22.4 -29.35 22.5 L-28.55 24.25 M0.7 7.6 L1.1 7.8 1.6 7.7 1.75 7.15 1.6 6.8 Q1.4 6.5 1.2 6.55 0.95 6.5 0.75 6.7 0.45 6.85 0.45 7.05 L0.7 7.6 M13.15 20.3 L14.35 20.1 Q14.35 18.35 13.5 19.65 L13.15 20.3 M31.2 30.5 L29.3 30.35 29.35 30.65 31.4 30.65 Q31.4 30.25 31.2 30.5 M28.8 29.35 L15.7 19.3 24.65 27.35 28.8 29.35" fill="#f5da69" fill-rule="evenodd" stroke="none"/>
    <path d="M38.0 41.45 L33.7 39.6 39.05 35.8 43.25 32.4 46.35 33.6 46.1 33.95 Q42.55 38.95 38.0 41.45 M24.5 38.7 Q22.8 38.55 21.65 37.75 20.5 36.95 20.5 36.0 L21.7 35.3 22.25 34.95 26.85 31.0 26.85 30.9 27.25 29.9 29.35 30.65 39.45 32.15 33.15 33.6 26.55 37.65 25.15 37.85 24.5 38.7 M10.7 34.75 L4.65 34.0 4.2 32.05 Q4.7 32.1 5.4 31.25 L9.9 25.2 Q12.25 22.3 16.2 21.05 L24.85 28.4 16.45 32.65 13.1 31.1 12.35 33.1 11.5 33.45 10.7 34.75 M-9.1 34.85 Q-12.25 35.55 -14.3 33.95 L-14.3 33.75 -4.65 18.5 -4.2 18.25 -4.0 17.55 -4.0 17.45 1.4 9.05 12.7 18.5 Q6.85 21.25 2.75 26.45 L2.5 26.5 Q2.2 26.7 2.2 26.1 L0.05 24.8 -0.45 26.6 0.4 27.8 -3.1 28.15 -4.45 29.9 -5.6 30.0 -9.1 34.85 M-38.45 36.35 Q-40.7 36.15 -42.2 35.15 -43.8 34.2 -43.65 32.85 L-30.5 27.9 Q-28.9 27.25 -28.0 25.95 -27.1 24.7 -27.55 23.25 -28.2 21.1 -29.45 19.75 L-23.05 15.95 Q-19.3 12.45 -17.85 7.15 L-17.85 6.95 -15.25 4.45 -0.7 8.1 -2.85 10.15 -2.7 11.35 -14.15 24.25 Q-17.7 28.55 -22.8 30.15 L-24.05 29.05 -27.2 30.05 -26.9 31.8 -37.35 34.65 -38.45 36.35 M-45.45 32.0 L-46.7 31.85 -48.2 31.6 Q-60.25 25.85 -62.95 12.55 -55.4 14.65 -48.35 11.6 L-33.9 5.3 Q-26.45 2.1 -18.4 1.8 L-21.5 13.15 -23.1 14.95 -32.8 19.45 -30.3 22.55 -29.75 25.8 -45.45 32.0" fill="#f79f1e" fill-rule="evenodd" stroke="none"/>
    <path d="M33.7 39.6 L33.35 39.9 32.5 39.25 33.55 38.65 Q37.85 36.6 40.45 32.7 L41.45 32.8 41.4 33.8 39.05 35.8 33.7 39.6 M4.15 32.05 L3.5 32.65 2.95 32.25 2.95 32.2 Q5.85 25.75 11.35 21.5 L12.1 21.55 4.15 32.05 M-14.95 33.7 Q-15.05 33.8 -15.15 33.6 L-15.75 33.85 -6.2 19.2 -14.95 33.7 M35.15 30.3 L36.0 30.45 33.1 30.25 35.15 30.3 M-1.7 10.3 L-1.75 11.3 -2.35 11.2 -2.3 10.2 -1.7 10.3 M-0.1 6.55 L-0.15 7.35 -11.7 3.8 -9.3 4.05 -0.1 6.55 M-17.85 6.95 L-17.85 7.15 Q-19.3 12.45 -23.05 15.95 L-26.7 17.15 -23.1 14.95 -21.5 13.15 -17.85 6.1 -17.85 6.95 M-4.65 18.5 L-4.8 18.5 -5.25 18.2 -5.4 17.4 -5.2 16.85 -4.65 16.55 Q-4.3 16.55 -4.15 16.9 -3.95 17.1 -4.0 17.45 L-4.0 17.55 -4.2 18.25 -4.65 18.5 M-3.2 15.2 L-4.1 15.15 -3.9 13.2 -3.05 13.25 -3.2 15.2 M-28.55 24.25 L-29.35 22.5 Q-28.2 22.4 -27.85 23.5 L-28.15 25.55 Q-29.5 25.85 -28.55 24.25 M-30.35 20.1 L-29.55 20.45 -29.85 21.35 -30.2 21.4 -30.35 20.1 M13.15 20.3 L13.5 19.65 Q14.35 18.35 14.35 20.1 L13.15 20.3 M0.7 7.6 L0.45 7.05 Q0.45 6.85 0.75 6.7 0.95 6.5 1.2 6.55 1.4 6.5 1.6 6.8 L1.75 7.15 1.6 7.7 1.1 7.8 0.7 7.6 M31.2 30.5 Q31.4 30.25 31.4 30.65 L29.35 30.65 29.3 30.35 31.2 30.5 M26.85 30.9 L26.85 31.0 22.25 34.95 21.7 35.3 21.45 34.35 Q24.75 33.25 26.2 30.15 L26.85 30.9 M28.8 29.35 L24.65 27.35 15.7 19.3 28.8 29.35" fill="#fefac0" fill-rule="evenodd" stroke="none"/>
  </g>
</svg>
