<?xml version="1.0" encoding="UTF-8" standalone="no"?>
<svg xmlns:xlink="http://www.w3.org/1999/xlink" height="113.65px" width="125.05px" xmlns="http://www.w3.org/2000/svg">
  <g transform="matrix(1.0, 0.0, 0.0, 1.0, 158.95, 25.55)">
    <path d="M-68.3 -22.7 L-69.15 -21.15 Q-71.2 -16.3 -74.05 -12.1 L-74.25 -11.4 -76.1 -11.35 -74.05 -15.3 Q-79.15 -10.8 -82.65 -4.9 L-85.35 -1.2 -73.8 -5.7 -73.75 -5.75 -71.75 -7.4 -71.5 -7.5 -67.2 -9.55 -62.0 -12.3 Q-57.25 -14.5 -52.8 -17.45 -50.45 -18.85 -48.45 -20.45 L-47.55 -21.0 -46.05 -15.3 Q-45.35 -9.05 -45.65 -2.45 L-54.9 7.05 Q-58.25 10.85 -68.45 15.75 -82.1 12.95 -90.05 16.0 -101.05 20.2 -110.95 27.1 L-119.2 33.3 -119.75 33.5 -123.95 35.15 -125.55 35.4 -126.2 35.75 -125.85 36.75 Q-125.35 37.9 -127.3 38.6 L-129.5 39.25 -129.35 39.65 Q-130.0 40.0 -129.6 41.15 -128.95 43.15 -127.55 42.7 L-127.45 42.65 -127.0 43.85 -126.45 44.65 Q-125.75 45.3 -124.95 45.0 -124.15 44.75 -124.55 43.6 L-124.65 43.35 Q-121.95 44.55 -119.1 45.45 L-119.0 45.5 -115.75 47.45 Q-113.75 46.7 -110.15 48.2 L-109.0 48.7 Q-104.45 50.8 -103.15 50.3 L-102.5 49.7 -99.15 50.45 Q-96.15 48.1 -92.8 46.45 L-92.25 46.7 Q-93.7 47.25 -93.35 48.25 L-92.4 48.65 -90.65 48.7 Q-89.65 48.35 -89.6 47.7 L-87.65 48.3 -87.8 49.0 -87.4 50.9 -86.25 53.6 -86.4 53.55 -86.65 53.45 Q-88.85 52.55 -91.15 52.15 L-92.1 51.95 -92.3 53.35 -92.8 53.5 -93.2 54.2 -92.1 54.65 -91.0 59.35 -91.0 59.4 -87.95 58.55 -87.95 57.95 -87.95 57.75 -87.9 57.4 -88.4 55.95 -88.45 55.8 -87.65 56.75 -87.7 58.0 -87.35 59.45 -88.6 60.2 -91.65 61.95 -92.7 62.35 -94.15 60.65 -95.05 59.7 -95.65 58.95 -95.9 58.6 -96.1 58.2 -96.7 56.95 -97.25 55.25 -98.5 57.35 -100.9 56.65 Q-101.4 56.7 -101.55 57.0 L-101.25 57.1 -97.95 59.35 -100.3 58.3 -101.9 58.7 -101.8 58.75 Q-100.5 59.95 -99.7 61.3 L-99.3 62.05 -98.0 64.85 -97.6 65.35 -97.5 65.6 -95.7 63.05 -96.8 60.45 -95.25 62.35 -94.85 63.35 -95.4 64.1 -96.5 65.7 -97.55 67.4 -98.3 68.9 -99.15 70.4 -100.2 71.45 -100.7 70.75 -103.2 67.05 Q-105.85 64.4 -106.1 60.25 L-106.1 59.95 -106.85 61.9 -108.85 62.55 -106.0 64.9 Q-104.75 66.2 -103.3 68.7 L-101.9 71.9 -101.8 72.5 -101.7 73.2 -104.65 76.9 -109.9 79.65 -110.25 78.8 -115.45 69.25 -114.8 66.4 -115.4 65.3 -117.95 68.5 -120.65 68.35 -120.85 68.5 -119.95 69.35 -117.05 69.55 -116.3 69.95 Q-111.4 77.25 -111.0 79.3 -112.05 78.25 -116.2 82.5 L-112.3 79.4 -114.1 81.25 -116.25 83.05 -116.4 82.95 -120.75 82.25 Q-123.55 82.0 -126.65 76.1 L-126.45 74.55 Q-126.25 76.6 -124.4 78.25 -121.55 81.4 -118.35 81.45 -122.6 76.9 -126.1 72.1 -126.45 72.9 -126.4 73.65 L-127.1 72.85 -128.1 75.3 -129.4 75.3 -130.95 75.3 Q-131.15 75.15 -131.35 75.15 L-130.6 75.8 Q-125.3 78.35 -122.9 83.6 L-122.4 84.35 -123.05 85.2 -123.7 86.15 -124.35 87.2 -124.85 88.05 -125.1 88.1 -130.6 87.5 -132.5 87.45 -134.65 85.5 -134.85 85.35 -137.4 80.75 Q-139.95 78.25 -139.55 77.2 L-139.2 76.5 -138.9 76.15 -138.25 76.25 -137.85 76.25 -136.55 76.6 Q-138.45 73.25 -138.45 69.45 L-138.35 65.3 -137.9 59.85 -137.85 59.7 -137.7 57.95 -137.2 55.45 -136.1 51.7 -134.95 49.55 -134.25 48.65 -138.65 46.45 -145.9 52.85 -149.55 56.8 -152.55 60.2 -154.65 62.4 Q-155.5 63.3 -156.7 63.7 -157.25 64.3 -157.85 64.45 L-158.9 63.6 -158.9 62.65 -157.05 55.65 -155.1 50.6 -151.15 41.2 -148.2 35.0 -146.35 32.0 -139.75 30.15 -140.3 27.9 -140.3 27.65 -136.65 23.95 -134.2 21.25 Q-132.15 19.0 -130.2 16.35 L-128.0 13.8 -127.75 13.5 -125.85 11.6 Q-124.35 10.15 -122.6 9.2 -121.85 8.65 -120.8 8.4 L-119.1 7.8 -117.25 7.1 -108.4 4.2 Q-105.6 3.2 -103.4 0.75 L-99.2 -4.1 -97.0 -6.3 -94.8 -8.3 -91.0 -10.3 -85.45 -13.6 -80.6 -16.5 -78.45 -18.0 Q-77.45 -18.75 -76.55 -19.65 -75.4 -20.25 -74.45 -21.0 L-73.4 -22.15 -70.85 -24.3 -69.3 -25.55 -68.3 -22.7 M-51.05 -6.95 Q-53.05 -4.5 -55.35 -2.2 -59.9 2.1 -61.55 8.15 L-58.9 6.8 Q-55.7 5.55 -54.0 2.95 L-53.3 2.7 Q-51.55 -1.8 -51.05 -6.95 M-49.05 -3.8 L-47.3 -3.7 -46.75 -6.5 -48.2 -5.25 -49.05 -3.8 M-34.9 18.25 L-36.0 22.95 Q-36.55 25.95 -37.4 29.0 -39.45 37.7 -43.9 44.8 L-44.25 45.4 Q-53.3 43.85 -62.2 46.6 L-66.0 44.0 Q-64.95 43.45 -64.45 42.55 L-64.35 41.9 Q-62.6 41.3 -60.7 41.05 -56.0 40.15 -53.6 35.95 -51.35 32.5 -48.35 29.4 -51.45 30.7 -54.45 32.25 -59.85 35.1 -64.7 38.9 L-65.2 40.65 -66.25 40.55 -66.3 40.45 -66.75 40.55 -67.55 40.9 -68.15 41.25 -68.25 41.25 -69.55 42.05 -69.5 42.95 -69.45 43.05 -69.4 43.75 -68.8 44.1 -67.85 44.45 -68.1 44.55 -71.3 46.25 Q-72.1 45.65 -73.0 45.3 L-73.25 46.75 -72.85 47.2 -74.55 48.2 -74.75 47.8 -74.75 47.7 -73.85 47.25 -73.95 47.05 -74.75 45.5 -75.05 45.6 -75.4 45.25 -75.2 45.15 -75.1 45.1 -74.9 45.05 -74.85 45.2 -73.85 44.9 Q-72.7 42.9 -72.9 42.45 L-72.95 42.3 Q-72.75 41.9 -73.1 40.75 -73.7 39.2 -74.8 38.2 -77.0 36.2 -79.45 39.0 L-79.4 39.15 Q-81.1 39.6 -80.25 41.95 L-79.4 43.7 -81.7 44.65 Q-81.95 45.45 -81.65 47.35 L-81.6 47.5 -82.25 47.25 Q-83.0 46.35 -84.7 46.6 L-88.75 46.5 -89.8 45.55 -90.1 45.3 -90.05 45.25 Q-87.2 44.15 -85.25 42.6 L-84.1 41.55 Q-81.85 39.35 -79.4 34.8 -77.15 30.3 -76.25 26.85 -75.45 23.45 -72.9 19.7 -70.35 16.2 -65.7 17.1 L-59.85 16.8 -60.25 16.95 -59.4 17.3 -54.15 18.8 -49.85 19.85 -42.5 20.35 -38.35 20.0 -35.15 18.55 -34.9 18.25 M-73.55 38.7 L-73.0 39.85 -71.25 39.2 Q-70.65 39.0 -71.05 39.1 L-71.85 36.9 Q-73.5 37.4 -73.75 37.85 L-73.55 38.7 M-76.35 36.0 L-76.8 34.9 -78.0 35.2 -77.95 36.15 -76.35 36.0 M-43.8 33.05 L-45.45 34.2 Q-51.8 35.65 -56.3 40.45 L-50.9 40.4 -43.8 33.05 M-91.0 6.45 Q-93.85 4.3 -96.7 3.7 -101.7 4.4 -105.35 7.6 L-112.8 14.8 Q-110.2 10.8 -109.25 8.65 L-109.45 8.4 -111.2 6.9 -111.2 6.85 -111.8 7.1 Q-117.1 7.7 -122.5 11.95 L-121.3 12.4 Q-121.05 18.75 -123.65 25.05 L-123.15 26.15 Q-118.2 23.65 -115.15 17.95 L-116.1 23.15 -115.65 23.65 -115.15 25.1 -111.65 25.3 -105.4 21.75 -98.35 17.05 Q-95.45 14.7 -92.5 12.65 -89.7 10.9 -88.75 8.1 L-88.85 7.9 -91.0 6.45 M-123.5 30.75 L-124.05 32.0 -123.5 32.55 -121.75 33.6 -117.15 28.45 -115.55 26.55 -116.15 25.95 -116.75 26.2 Q-117.0 25.8 -117.4 25.5 L-118.65 24.65 -121.25 26.35 Q-123.5 27.75 -123.5 30.75 M-111.75 48.8 L-114.4 48.65 -113.95 50.05 -113.8 50.15 -113.25 50.85 Q-112.5 51.4 -111.6 51.25 L-109.1 51.2 Q-108.2 50.9 -108.45 50.3 -110.4 49.2 -111.75 48.8 M-131.7 20.6 L-131.75 20.55 -131.75 20.9 -130.25 21.75 -127.55 21.95 Q-126.2 21.5 -125.0 18.65 -123.85 15.95 -124.4 14.45 -124.55 13.9 -124.9 13.8 L-125.05 13.85 -124.85 14.45 -125.2 13.9 -126.95 13.65 -127.55 13.75 Q-130.0 16.2 -131.35 19.2 -131.7 19.8 -131.7 20.6 M-125.25 24.85 L-124.9 23.5 -125.4 22.75 -124.85 23.5 -125.25 24.85 -126.1 25.65 -126.4 25.6 -126.1 25.55 -125.25 24.85 M-126.0 22.05 L-126.2 21.8 -129.0 23.6 -128.65 25.05 -128.9 25.0 -129.05 25.05 -128.55 25.65 -128.45 25.9 -126.1 26.25 -125.6 26.1 Q-124.95 25.9 -124.55 24.8 -124.1 23.9 -124.25 23.55 L-125.05 22.5 Q-125.75 21.65 -126.1 21.8 L-126.0 22.05 M-145.4 35.8 L-144.85 35.3 -144.7 35.3 -144.6 35.4 -145.4 35.8 M-144.05 35.8 Q-140.25 38.6 -139.5 44.8 L-139.6 45.75 -138.55 46.0 -137.0 46.2 Q-136.4 46.05 -136.0 44.25 -135.6 42.7 -135.65 41.35 L-135.75 38.85 -136.4 36.95 Q-138.4 31.25 -140.7 31.5 L-140.5 32.0 -141.1 31.4 -146.0 33.1 Q-147.35 35.15 -147.9 37.6 L-147.85 38.5 -147.55 38.1 -146.5 38.35 -145.7 37.5 -144.05 35.8 M-142.5 48.9 L-142.7 48.65 Q-144.95 49.6 -149.95 55.05 -155.1 60.3 -154.75 61.15 L-154.55 61.45 -154.1 61.45 Q-153.5 61.2 -142.5 48.9 M-126.5 36.95 L-129.65 35.55 Q-132.8 34.45 -132.2 36.15 -131.9 37.05 -131.05 37.75 -129.65 39.0 -127.75 38.3 -126.8 38.0 -126.55 37.75 -126.3 37.45 -126.5 36.95 M-131.2 34.35 L-130.85 32.9 -136.0 31.55 -139.3 28.2 -139.1 30.8 -136.3 34.4 -135.9 34.8 -135.6 37.85 Q-135.4 39.85 -134.65 40.55 L-134.25 40.15 -134.2 40.0 -134.0 38.3 -133.95 38.45 -134.0 37.65 -134.25 36.8 -134.6 34.25 -131.2 34.35 M-135.35 42.15 L-135.1 42.75 Q-134.8 43.2 -134.15 43.0 -133.55 42.8 -133.9 41.9 -134.2 41.05 -134.95 41.0 -135.75 41.1 -135.35 42.15 M-132.25 38.55 Q-133.45 38.25 -132.95 39.65 L-132.3 40.55 Q-131.65 41.35 -131.05 41.1 -130.4 40.9 -130.6 40.25 -131.05 38.9 -132.25 38.55 M-140.2 47.6 Q-139.5 47.3 -139.75 46.55 -139.9 46.1 -140.95 46.25 L-141.05 46.85 -141.0 47.6 -140.2 47.6 M-122.35 47.9 L-122.3 48.05 -120.75 50.15 -119.55 51.55 Q-117.25 53.8 -115.8 53.55 L-115.0 53.45 -114.35 52.4 -113.4 52.45 -113.0 52.2 -113.9 51.2 -113.8 51.0 -115.0 50.0 Q-118.3 47.05 -120.9 45.45 -124.7 43.2 -123.75 45.95 L-122.35 47.9 M-129.15 77.0 L-130.25 77.3 -126.4 85.15 -126.7 86.15 -126.45 86.95 -123.4 84.5 -123.6 83.95 -123.7 83.8 Q-125.25 79.3 -129.15 77.0 M-123.85 71.2 L-122.85 72.25 Q-122.0 71.55 -122.6 70.05 -123.75 70.1 -123.85 71.2 M-137.75 76.55 L-138.1 76.55 Q-139.1 77.05 -138.55 78.7 L-137.85 80.1 -137.5 80.0 -136.75 79.6 Q-136.2 78.9 -136.65 77.7 -137.05 76.45 -137.75 76.55 M-132.5 79.05 Q-132.2 77.65 -132.6 76.65 -132.6 76.55 -132.7 76.6 L-134.7 79.15 -133.6 82.3 -129.75 83.6 Q-130.4 81.4 -132.5 79.05 M-127.85 85.45 Q-127.55 85.3 -127.8 85.2 L-130.5 84.15 -133.3 83.3 -133.4 83.75 -130.35 84.85 -127.85 85.45 M-94.4 53.25 Q-95.8 53.75 -95.75 55.1 L-95.35 56.45 -95.1 57.05 -94.85 57.7 -94.45 58.35 -94.15 59.1 -92.75 60.5 -92.65 60.3 -92.05 59.8 Q-91.9 59.65 -91.75 59.6 L-91.4 59.55 -91.45 59.5 -93.15 57.8 -93.8 56.6 -94.1 56.05 -94.3 55.35 -94.3 54.4 -94.15 53.55 -94.4 53.25 M-99.45 68.85 L-98.3 66.45 -105.1 61.0 -101.85 67.65 Q-101.45 68.65 -100.1 68.85 L-99.45 68.85 M-108.0 52.6 L-107.55 52.2 -107.9 51.4 Q-108.15 51.2 -108.45 51.25 -108.9 51.5 -108.65 52.05 L-108.0 52.6 M-110.8 52.9 L-111.0 52.25 -111.25 51.65 Q-112.55 51.75 -112.7 52.25 L-112.5 52.8 Q-112.1 53.8 -111.55 53.8 L-110.8 52.9 M-114.85 65.2 Q-114.15 72.85 -107.5 75.35 L-107.05 75.55 -106.25 75.65 -106.2 74.95 -107.7 73.65 Q-111.65 69.95 -114.15 64.65 L-114.85 65.2 M-121.4 70.35 L-121.3 71.2 Q-116.85 74.4 -114.35 79.5 L-114.3 79.65 -113.45 79.7 -112.7 78.8 -113.0 78.0 Q-114.75 73.4 -117.6 69.7 L-120.9 70.0 Q-121.25 69.95 -121.4 70.35 M-108.95 65.2 L-107.9 64.2 -108.55 63.5 -110.25 63.8 Q-109.9 64.9 -108.95 65.2 M-102.7 72.7 L-102.65 72.5 -105.95 65.8 -107.35 66.9 -106.15 68.9 Q-104.2 71.6 -105.6 74.3 L-104.95 75.15 -104.65 74.7 -103.85 74.4 -102.7 72.7" fill="#73263e" fill-rule="evenodd" stroke="none"/>
    <path d="M-73.8 -5.7 L-85.35 -1.2 -82.65 -4.9 Q-79.15 -10.8 -74.05 -15.3 L-76.1 -11.35 -74.25 -11.4 -74.05 -12.1 Q-71.2 -16.3 -69.15 -21.15 L-68.3 -22.7 -67.55 -20.85 -68.3 -18.6 -69.9 -13.85 -71.3 -9.85 Q-72.0 -8.4 -72.95 -7.1 L-73.8 -5.7 M-157.85 64.45 Q-157.25 64.3 -156.7 63.7 -155.5 63.3 -154.65 62.4 L-152.55 60.2 -149.55 56.8 -145.9 52.85 -138.65 46.45 -134.25 48.65 -134.95 49.55 -136.1 51.7 -137.2 55.45 -137.7 57.95 -137.85 59.7 -137.9 59.85 -138.35 65.3 -138.45 69.45 Q-138.45 73.25 -136.55 76.6 L-137.85 76.25 -138.25 76.25 -138.9 76.15 -139.2 76.5 -139.55 77.2 Q-139.95 78.25 -137.4 80.75 L-157.85 64.45 M-126.4 73.65 Q-126.45 72.9 -126.1 72.1 -122.6 76.9 -118.35 81.45 -121.55 81.4 -124.4 78.25 -126.25 76.6 -126.45 74.55 L-126.4 73.65 M-86.25 53.6 L-87.4 50.9 -87.8 49.0 -87.65 48.3 -85.8 48.8 Q-86.55 49.55 -86.05 50.9 L-85.05 53.85 -85.95 54.2 -86.0 54.25 -86.25 53.6 M-89.6 47.7 Q-89.65 48.35 -90.65 48.7 L-92.4 48.65 -93.35 48.25 Q-93.7 47.25 -92.25 46.7 L-89.6 47.7 M-92.8 46.45 Q-96.15 48.1 -99.15 50.45 L-102.5 49.7 -103.15 50.3 Q-104.45 50.8 -109.0 48.7 L-110.15 48.2 Q-113.75 46.7 -115.75 47.45 L-119.0 45.5 -119.1 45.45 Q-121.95 44.55 -124.65 43.35 L-124.55 43.6 Q-124.15 44.75 -124.95 45.0 -125.75 45.3 -126.45 44.65 L-127.0 43.85 -127.45 42.65 -127.55 42.7 Q-128.95 43.15 -129.6 41.15 -130.0 40.0 -129.35 39.65 L-129.5 39.25 -127.3 38.6 Q-125.35 37.9 -125.85 36.75 L-126.2 35.75 -125.55 35.4 -123.95 35.15 -119.75 33.5 -119.2 33.3 -110.95 27.1 Q-101.05 20.2 -90.05 16.0 -82.1 12.95 -68.45 15.75 -58.25 10.85 -54.9 7.05 L-45.65 -2.45 Q-45.35 -9.05 -46.05 -15.3 L-42.6 -1.7 -42.9 -1.6 -45.2 0.6 -49.1 4.4 -53.25 9.0 Q-55.75 11.75 -57.8 14.95 -58.35 15.8 -59.25 16.35 L-59.85 16.8 -65.7 17.1 Q-70.35 16.2 -72.9 19.7 -75.45 23.45 -76.25 26.85 -77.15 30.3 -79.4 34.8 -81.85 39.35 -84.1 41.55 L-85.25 42.6 Q-87.2 44.15 -90.05 45.25 L-90.1 45.3 -91.0 44.25 Q-86.6 41.6 -84.75 39.75 -85.05 39.45 -87.0 39.25 L-84.6 37.1 Q-82.25 34.9 -83.0 32.15 -83.4 33.9 -84.65 35.35 -85.25 36.15 -86.3 36.6 L-86.7 35.25 Q-85.8 32.55 -85.4 29.65 -85.95 27.1 -88.15 27.1 -91.2 26.75 -93.8 27.1 L-93.5 25.35 Q-90.75 23.6 -87.25 23.6 L-86.0 23.6 -85.1 23.25 -90.6 21.5 Q-96.5 24.15 -101.9 27.25 -104.65 29.05 -107.1 30.95 L-108.5 32.1 -109.95 34.1 Q-111.7 37.2 -114.0 39.75 -115.15 40.8 -116.75 41.25 L-117.25 41.55 -117.6 43.05 Q-112.0 45.4 -106.05 46.75 L-102.9 47.45 Q-102.05 47.7 -101.1 47.45 L-99.45 46.85 Q-100.3 45.7 -99.1 45.25 L-97.2 44.1 Q-95.45 45.35 -92.8 46.45 M-51.05 -6.95 Q-51.55 -1.8 -53.3 2.7 L-54.0 2.95 Q-55.7 5.55 -58.9 6.8 L-61.55 8.15 Q-59.9 2.1 -55.35 -2.2 -53.05 -4.5 -51.05 -6.95 M-49.05 -3.8 L-48.2 -5.25 -46.75 -6.5 -47.3 -3.7 -49.05 -3.8 M-34.9 18.25 L-33.9 17.45 -33.9 18.2 -34.0 23.25 Q-34.25 25.85 -34.8 28.45 -35.45 32.05 -36.75 34.9 L-38.4 38.95 -39.95 42.8 -41.35 46.7 -42.2 48.6 -42.6 48.5 -43.45 48.5 -47.5 48.4 -52.5 49.05 -57.15 49.35 -62.2 46.6 Q-53.3 43.85 -44.25 45.4 L-43.9 44.8 Q-39.45 37.7 -37.4 29.0 -36.55 25.95 -36.0 22.95 L-34.9 18.25 M-71.3 46.25 L-72.85 47.2 -73.25 46.75 -73.0 45.3 Q-72.1 45.65 -71.3 46.25 M-74.75 47.7 L-75.15 47.65 Q-75.05 47.3 -75.2 47.05 L-75.75 47.95 Q-76.15 48.65 -76.5 48.75 -78.5 49.5 -79.4 48.3 -79.9 47.75 -80.05 46.85 -80.55 47.25 -80.55 47.95 L-81.6 47.5 -81.65 47.35 Q-81.95 45.45 -81.7 44.65 L-79.4 43.7 -80.25 41.95 Q-81.1 39.6 -79.4 39.15 L-79.45 39.0 Q-77.0 36.2 -74.8 38.2 -73.7 39.2 -73.1 40.75 -72.75 41.9 -72.95 42.3 L-72.9 42.45 Q-72.7 42.9 -73.85 44.9 L-74.85 45.2 -74.9 45.05 -75.1 45.1 -75.2 45.15 -75.4 45.25 -77.35 45.6 -78.1 45.65 Q-79.1 46.0 -78.95 47.15 L-77.9 47.85 Q-77.1 47.55 -76.85 46.85 -76.7 46.2 -76.4 46.1 L-75.05 45.6 -74.75 45.5 -73.95 47.05 -73.85 47.25 -74.75 47.7 M-80.55 51.05 L-82.15 51.55 Q-83.0 51.05 -83.45 50.15 L-83.75 49.3 -82.75 49.5 Q-82.1 49.8 -80.55 51.05 M-84.7 46.6 Q-83.0 46.35 -82.25 47.25 L-84.7 46.6 M-76.35 36.0 L-77.95 36.15 -78.0 35.2 -76.8 34.9 -76.35 36.0 M-73.55 38.7 L-73.75 37.85 Q-73.5 37.4 -71.85 36.9 L-71.05 39.1 Q-70.65 39.0 -71.25 39.2 L-73.0 39.85 -73.55 38.7 M-64.35 41.9 L-65.35 42.25 -65.7 42.3 -65.2 40.65 -64.7 38.9 Q-59.85 35.1 -54.45 32.25 -51.45 30.7 -48.35 29.4 -51.35 32.5 -53.6 35.95 -56.0 40.15 -60.7 41.05 -62.6 41.3 -64.35 41.9 M-43.8 33.05 L-50.9 40.4 -56.3 40.45 Q-51.8 35.65 -45.45 34.2 L-43.8 33.05 M-115.65 23.65 L-115.1 24.5 Q-111.6 24.6 -108.6 22.2 L-105.15 20.1 Q-101.85 17.7 -98.25 15.75 -95.35 14.05 -92.65 11.7 -91.25 10.5 -90.15 8.8 -90.2 7.65 -90.7 6.9 L-91.0 6.45 -88.85 7.9 -88.75 8.1 Q-89.7 10.9 -92.5 12.65 -95.45 14.7 -98.35 17.05 L-105.4 21.75 -111.65 25.3 -115.15 25.1 -115.65 23.65 M-112.8 14.8 L-113.45 15.5 -113.6 15.75 -115.15 17.95 Q-118.2 23.65 -123.15 26.15 L-123.65 25.05 Q-117.95 21.25 -114.6 14.85 -112.85 11.55 -110.8 8.55 -111.15 7.8 -111.4 7.9 L-111.8 7.1 -111.2 6.85 -111.2 6.9 -109.45 8.4 -109.25 8.65 Q-110.2 10.8 -112.8 14.8 M-116.75 26.2 L-116.15 25.95 -115.55 26.55 -117.15 28.45 -121.75 33.6 -123.5 32.55 -124.05 32.0 -123.5 30.75 -123.45 30.85 -121.75 32.25 -116.75 26.2 M-111.75 48.8 Q-110.4 49.2 -108.45 50.3 -108.2 50.9 -109.1 51.2 L-111.6 51.25 Q-112.5 51.4 -113.25 50.85 L-113.8 50.15 -113.95 50.05 -114.4 48.65 -111.75 48.8 M-95.35 27.2 L-95.45 28.2 -96.95 28.4 -98.1 28.45 -95.35 27.2 M-87.55 33.05 L-87.6 33.4 Q-87.8 34.5 -88.5 35.3 -88.35 35.75 -88.7 36.2 L-89.75 36.9 -92.4 38.45 Q-92.45 38.65 -92.65 38.55 L-92.55 38.15 Q-91.25 36.85 -90.3 35.3 L-88.5 32.3 -87.8 32.55 -87.55 33.05 M-124.85 14.45 L-125.05 13.85 -124.9 13.8 Q-124.55 13.9 -124.4 14.45 -123.85 15.95 -125.0 18.65 -126.2 21.5 -127.55 21.95 L-130.25 21.75 -131.75 20.9 -131.75 20.55 -131.7 20.6 Q-131.15 20.55 -129.3 21.4 L-127.4 20.75 Q-125.4 18.45 -124.9 17.25 L-124.7 15.8 -124.7 15.1 -124.8 14.6 -124.85 14.45 M-125.25 24.85 L-124.85 23.5 -125.4 22.75 -125.95 22.2 -126.0 22.05 -126.1 21.8 Q-125.75 21.65 -125.05 22.5 L-124.25 23.55 Q-124.1 23.9 -124.55 24.8 -124.95 25.9 -125.6 26.1 L-126.1 26.25 -128.45 25.9 -128.55 25.65 -129.05 25.05 -128.9 25.0 -128.65 25.05 -128.2 25.3 -128.15 25.25 -126.65 25.5 -126.5 25.55 -126.4 25.6 -126.1 25.65 -125.25 24.85 M-145.4 35.8 L-144.6 35.4 -144.7 35.3 -145.2 34.85 -144.05 35.8 -145.7 37.5 -146.5 38.35 -147.55 38.1 -145.4 35.8 M-139.5 44.8 L-139.45 44.8 -137.35 45.4 -136.7 41.35 Q-136.5 39.15 -137.3 37.1 -137.8 35.7 -138.85 34.45 L-140.5 32.0 -140.7 31.5 Q-138.4 31.25 -136.4 36.95 L-135.75 38.85 -135.65 41.35 Q-135.6 42.7 -136.0 44.25 -136.4 46.05 -137.0 46.2 L-138.55 46.0 -139.6 45.75 -139.5 44.8 M-131.2 34.35 L-134.6 34.25 -134.25 36.8 -134.0 37.65 -133.95 38.45 -134.0 38.3 -134.2 40.0 -134.25 40.15 -134.65 40.55 Q-135.4 39.85 -135.6 37.85 L-135.9 34.8 -136.3 34.4 -139.1 30.8 -139.3 28.2 -136.0 31.55 -130.85 32.9 -131.2 34.35 M-126.5 36.95 Q-126.3 37.45 -126.55 37.75 -126.8 38.0 -127.75 38.3 -129.65 39.0 -131.05 37.75 -131.9 37.05 -132.2 36.15 -132.8 34.45 -129.65 35.55 L-126.5 36.95 M-132.25 38.55 Q-131.05 38.9 -130.6 40.25 -130.4 40.9 -131.05 41.1 -131.65 41.35 -132.3 40.55 L-132.95 39.65 Q-133.45 38.25 -132.25 38.55 M-135.35 42.15 Q-135.75 41.1 -134.95 41.0 -134.2 41.05 -133.9 41.9 -133.55 42.8 -134.15 43.0 -134.8 43.2 -135.1 42.75 L-135.35 42.15 M-122.35 47.9 L-123.75 45.95 Q-124.7 43.2 -120.9 45.45 -118.3 47.05 -115.0 50.0 L-113.8 51.0 -113.9 51.2 -113.0 52.2 -113.4 52.45 -114.35 52.4 -115.0 53.45 -115.8 53.55 Q-117.25 53.8 -119.55 51.55 L-120.75 50.15 -122.3 48.05 -122.35 47.9 M-139.4 51.85 L-139.95 50.25 -140.2 50.2 -142.35 52.85 -143.95 55.65 Q-145.35 58.2 -145.85 61.0 -146.2 62.65 -145.8 64.2 -144.9 66.95 -143.5 69.7 L-142.65 68.75 -142.85 66.05 -142.8 64.1 -142.6 62.95 -142.4 61.75 -142.25 61.35 -141.8 59.4 -141.2 57.35 -139.4 51.85 M-127.85 85.45 L-130.35 84.85 -133.4 83.75 -133.3 83.3 -130.5 84.15 -127.8 85.2 Q-127.55 85.3 -127.85 85.45 M-132.5 79.05 Q-130.4 81.4 -129.75 83.6 L-133.6 82.3 -134.7 79.15 -132.7 76.6 Q-132.6 76.55 -132.6 76.65 -132.2 77.65 -132.5 79.05 M-137.75 76.55 Q-137.05 76.45 -136.65 77.7 -136.2 78.9 -136.75 79.6 L-137.5 80.0 -137.85 80.1 -138.55 78.7 Q-139.1 77.05 -138.1 76.55 L-137.75 76.55 M-94.4 53.25 L-94.15 53.55 -94.3 54.4 -94.3 55.35 -94.1 56.05 -93.8 56.6 -93.15 57.8 -91.45 59.5 -91.4 59.55 -91.75 59.6 Q-91.9 59.65 -92.05 59.8 L-92.65 60.3 -92.75 60.5 -94.15 59.1 -94.45 58.35 -94.85 57.7 -95.1 57.05 -95.35 56.45 -95.75 55.1 Q-95.8 53.75 -94.4 53.25 M-99.45 68.85 L-100.1 68.85 Q-101.45 68.65 -101.85 67.65 L-105.1 61.0 -98.3 66.45 -99.45 68.85 M-110.8 52.9 L-111.55 53.8 Q-112.1 53.8 -112.5 52.8 L-112.7 52.25 Q-112.55 51.75 -111.25 51.65 L-111.0 52.25 -110.8 52.9 M-108.0 52.6 L-108.65 52.05 Q-108.9 51.5 -108.45 51.25 -108.15 51.2 -107.9 51.4 L-107.55 52.2 -108.0 52.6 M-114.85 65.2 L-114.15 64.65 Q-111.65 69.95 -107.7 73.65 L-106.2 74.95 -106.25 75.65 -107.05 75.55 -107.5 75.35 Q-114.15 72.85 -114.85 65.2" fill="#380e12" fill-rule="evenodd" stroke="none"/>
    <path d="M-96.8 60.45 L-95.7 63.05 -97.5 65.6 -97.6 65.35 -98.0 64.85 -99.3 62.05 -99.7 61.3 Q-100.5 59.95 -101.8 58.75 L-101.9 58.7 -100.3 58.3 -97.95 59.35 -96.8 60.45 M-88.45 55.8 L-88.4 55.95 -87.9 57.4 -87.95 57.75 -87.95 57.95 -87.95 58.55 -91.0 59.4 -91.0 59.35 -92.1 54.65 -93.2 54.2 -92.8 53.5 -92.3 53.35 -91.85 53.35 Q-90.4 53.25 -89.4 54.4 L-88.95 54.95 -88.45 55.8 M-91.0 6.45 L-90.7 6.9 Q-90.2 7.65 -90.15 8.8 -91.25 10.5 -92.65 11.7 -95.35 14.05 -98.25 15.75 -101.85 17.7 -105.15 20.1 L-108.6 22.2 Q-111.6 24.6 -115.1 24.5 L-115.65 23.65 -116.1 23.15 -115.15 17.95 -113.6 15.75 -113.45 15.5 -112.8 14.8 -105.35 7.6 Q-101.7 4.4 -96.7 3.7 -93.85 4.3 -91.0 6.45 M-111.8 7.1 L-111.4 7.9 Q-111.15 7.8 -110.8 8.55 -112.85 11.55 -114.6 14.85 -117.95 21.25 -123.65 25.05 -121.05 18.75 -121.3 12.4 L-122.5 11.95 Q-117.1 7.7 -111.8 7.1 M-123.5 30.75 Q-123.5 27.75 -121.25 26.35 L-118.65 24.65 -117.4 25.5 Q-117.0 25.8 -116.75 26.2 L-121.75 32.25 -123.45 30.85 -123.5 30.75 M-131.7 20.6 Q-131.7 19.8 -131.35 19.2 -130.0 16.2 -127.55 13.75 L-126.95 13.65 -125.2 13.9 -124.85 14.45 -124.8 14.6 -124.7 15.1 -124.7 15.8 -124.9 17.25 Q-125.4 18.45 -127.4 20.75 L-129.3 21.4 Q-131.15 20.55 -131.7 20.6 M-125.4 22.75 L-124.9 23.5 -125.25 24.85 -126.1 25.55 -126.4 25.6 -126.5 25.55 -126.65 25.5 -128.15 25.25 -128.2 25.3 -128.65 25.05 -129.0 23.6 -126.2 21.8 -126.0 22.05 -125.95 22.2 -125.4 22.75 M-144.7 35.3 L-144.85 35.3 -145.4 35.8 -147.55 38.1 -147.85 38.5 -147.9 37.6 Q-147.35 35.15 -146.0 33.1 L-141.1 31.4 -140.5 32.0 -138.85 34.45 Q-137.8 35.7 -137.3 37.1 -136.5 39.15 -136.7 41.35 L-137.35 45.4 -139.45 44.8 -139.5 44.8 Q-140.25 38.6 -144.05 35.8 L-145.2 34.85 -144.7 35.3 M-142.5 48.9 Q-153.5 61.2 -154.1 61.45 L-154.55 61.45 -154.75 61.15 Q-155.1 60.3 -149.95 55.05 -144.95 49.6 -142.7 48.65 L-142.5 48.9 M-140.2 47.6 L-141.0 47.6 -141.05 46.85 -140.95 46.25 Q-139.9 46.1 -139.75 46.55 -139.5 47.3 -140.2 47.6 M-123.85 71.2 Q-123.75 70.1 -122.6 70.05 -122.0 71.55 -122.85 72.25 L-123.85 71.2 M-129.15 77.0 Q-125.25 79.3 -123.7 83.8 L-123.6 83.95 -123.4 84.5 -126.45 86.95 -126.7 86.15 -126.4 85.15 -130.25 77.3 -129.15 77.0 M-121.4 70.35 Q-121.25 69.95 -120.9 70.0 L-117.6 69.7 Q-114.75 73.4 -113.0 78.0 L-112.7 78.8 -113.45 79.7 -114.3 79.65 -114.35 79.5 Q-116.85 74.4 -121.3 71.2 L-121.4 70.35 M-108.95 65.2 Q-109.9 64.9 -110.25 63.8 L-108.55 63.5 -107.9 64.2 -108.95 65.2 M-102.7 72.7 L-103.85 74.4 -104.65 74.7 -104.95 75.15 -105.6 74.3 Q-104.2 71.6 -106.15 68.9 L-107.35 66.9 -105.95 65.8 -102.65 72.5 -102.7 72.7" fill="#e0bcd8" fill-rule="evenodd" stroke="none"/>
    <path d="M-122.9 83.6 Q-125.3 78.35 -130.6 75.8 L-131.35 75.15 Q-131.15 75.15 -130.95 75.3 L-129.4 75.3 -128.1 75.3 -127.1 72.85 -126.4 73.65 -126.45 74.55 -126.65 76.1 Q-123.55 82.0 -120.75 82.25 L-122.9 83.6 M-111.0 79.3 Q-111.4 77.25 -116.3 69.95 L-117.05 69.55 -119.95 69.35 -120.85 68.5 -120.65 68.35 -117.95 68.5 -115.4 65.3 -114.8 66.4 -115.45 69.25 -110.25 78.8 -111.0 79.3 M-101.9 71.9 L-103.3 68.7 Q-104.75 66.2 -106.0 64.9 L-108.85 62.55 -106.85 61.9 -106.1 59.95 -106.1 60.25 Q-105.85 64.4 -103.2 67.05 L-100.7 70.75 -101.9 71.9 M-95.25 62.35 L-96.8 60.45 -97.95 59.35 -101.25 57.1 -101.55 57.0 Q-101.4 56.7 -100.9 56.65 L-98.5 57.35 -97.25 55.25 -96.7 56.95 -96.1 58.2 -95.9 58.6 -95.65 58.95 -95.05 59.7 -94.15 60.65 -93.7 61.3 -95.25 62.35 M-87.65 56.75 L-88.45 55.8 -88.95 54.95 -89.4 54.4 Q-90.4 53.25 -91.85 53.35 L-92.3 53.35 -92.1 51.95 -91.15 52.15 Q-88.85 52.55 -86.65 53.45 L-86.4 53.55 -86.25 53.6 -86.0 54.25 -85.95 54.2 -85.8 54.8 -85.55 55.8 -87.25 56.7 -87.4 56.75 -87.65 56.75 M-97.2 44.1 L-99.1 45.25 Q-100.3 45.7 -99.45 46.85 L-101.1 47.45 Q-102.05 47.7 -102.9 47.45 L-106.05 46.75 Q-112.0 45.4 -117.6 43.05 L-117.25 41.55 -116.75 41.25 Q-115.15 40.8 -114.0 39.75 -111.7 37.2 -109.95 34.1 L-108.5 32.1 -107.1 30.95 Q-104.65 29.05 -101.9 27.25 -96.5 24.15 -90.6 21.5 L-85.1 23.25 -86.0 23.6 -87.25 23.6 Q-90.75 23.6 -93.5 25.35 L-93.8 27.1 Q-91.2 26.75 -88.15 27.1 -85.95 27.1 -85.4 29.65 -85.8 32.55 -86.7 35.25 L-86.3 36.6 Q-85.25 36.15 -84.65 35.35 -83.4 33.9 -83.0 32.15 -82.25 34.9 -84.6 37.1 L-87.0 39.25 -90.7 38.95 -98.0 38.75 -98.25 38.75 Q-100.05 31.05 -106.65 36.05 -113.4 41.45 -105.8 45.6 -101.35 45.25 -99.4 42.1 L-97.2 44.1 M-87.55 33.05 L-87.8 32.55 -88.5 32.3 -90.3 35.3 Q-91.25 36.85 -92.55 38.15 L-92.65 38.55 Q-92.45 38.65 -92.4 38.45 L-89.75 36.9 -88.7 36.2 Q-88.35 35.75 -88.5 35.3 -87.8 34.5 -87.6 33.4 L-87.55 33.05 M-95.35 27.2 L-98.1 28.45 -96.95 28.4 -95.45 28.2 -95.35 27.2 M-139.4 51.85 L-141.2 57.35 -141.8 59.4 -142.25 61.35 -142.4 61.75 -142.6 62.95 -142.8 64.1 -142.85 66.05 -142.65 68.75 -143.5 69.7 Q-144.9 66.95 -145.8 64.2 -146.2 62.65 -145.85 61.0 -145.35 58.2 -143.95 55.65 L-142.35 52.85 -140.2 50.2 -139.95 50.25 -139.4 51.85" fill="#000000" fill-rule="evenodd" stroke="none"/>
    <path d="M-69.45 43.05 L-69.5 42.95 -69.55 42.05 -68.25 41.25 -68.15 41.25 -66.75 40.55 -66.3 40.45 -66.25 40.55 -66.1 41.1 Q-69.1 42.25 -68.9 42.8 L-68.15 43.25 -67.5 43.45 -67.45 43.6 -67.2 43.75 -67.15 43.9 -68.05 44.25 -69.15 43.65 -69.45 43.05" fill="#f79f1e" fill-rule="evenodd" stroke="none"/>
    <path d="M-66.0 44.0 L-66.25 43.75 -65.7 43.55 Q-65.15 43.4 -65.05 43.05 L-65.35 42.25 -64.35 41.9 -64.45 42.55 Q-64.95 43.45 -66.0 44.0 M-67.05 43.85 L-67.15 43.9 -67.85 44.45 -68.8 44.1 -69.4 43.75 -69.45 43.05 -69.15 43.65 -68.05 44.25 -67.15 43.9 -67.2 43.75 -67.05 43.85 M-65.2 40.65 L-65.7 42.3 -67.75 42.65 -67.5 43.45 -68.15 43.25 -68.9 42.8 Q-69.1 42.25 -66.1 41.1 L-66.25 40.55 -65.2 40.65 M-68.15 41.25 L-67.55 40.9 -66.75 40.55 -68.15 41.25" fill="#f5da69" fill-rule="evenodd" stroke="none"/>
    <path d="M-66.25 43.75 L-66.7 43.5 -67.05 43.85 -67.2 43.75 -67.45 43.6 -67.5 43.45 -67.75 42.65 -65.7 42.3 -65.35 42.25 -65.05 43.05 Q-65.15 43.4 -65.7 43.55 L-66.25 43.75" fill="#fefac0" fill-rule="evenodd" stroke="none"/>
    <path d="M-87.65 48.3 L-89.6 47.7 -92.25 46.7 -92.8 46.45 Q-95.45 45.35 -97.2 44.1 L-99.4 42.1 Q-101.35 45.25 -105.8 45.6 -113.4 41.45 -106.65 36.05 -100.05 31.05 -98.25 38.75 L-98.0 38.75 -90.7 38.95 -87.0 39.25 Q-85.05 39.45 -84.75 39.75 -86.6 41.6 -91.0 44.25 L-90.1 45.3 -89.8 45.55 -88.75 46.5 -84.7 46.6 -82.25 47.25 -81.6 47.5 -80.55 47.95 Q-79.05 48.65 -77.45 49.65 -71.75 53.4 -71.75 56.85 -71.75 58.1 -72.75 59.5 -73.75 60.85 -73.75 62.1 -73.75 63.35 -72.75 65.3 -71.75 67.25 -71.75 68.5 -71.75 70.2 -72.4 71.5 L-74.0 73.75 -75.75 74.0 Q-76.0 73.2 -75.7 71.75 -75.25 69.85 -75.25 68.75 -75.25 67.5 -76.25 64.8 -77.25 62.1 -77.25 60.85 -77.25 60.35 -74.5 57.5 L-74.25 56.6 Q-78.35 52.85 -80.55 51.05 -82.1 49.8 -82.75 49.5 L-83.75 49.3 -85.8 48.8 -87.65 48.3" fill="#ff0000" fill-rule="evenodd" stroke="none"/>
  </g>
</svg>
