<?xml version="1.0" encoding="UTF-8" standalone="no"?>
<svg xmlns:xlink="http://www.w3.org/1999/xlink" height="64.2px" width="28.45px" xmlns="http://www.w3.org/2000/svg">
  <g transform="matrix(1.0, 0.0, 0.0, 1.0, 11.6, 37.9)">
    <path d="M3.6 -37.45 L3.35 -36.75 4.75 -36.2 5.9 -35.35 6.4 -34.85 4.3 -32.85 3.9 -31.2 4.2 -30.65 4.5 -30.3 4.95 -29.85 5.5 -29.6 5.45 -29.1 6.3 -28.8 Q1.95 -21.05 -1.4 -12.9 L-3.2 -11.95 -3.45 -10.85 -2.05 -9.4 -2.35 -9.05 -4.75 -8.8 -4.75 -7.65 -1.15 -7.65 -1.55 -6.5 -6.3 -5.4 Q-7.75 -7.85 -8.4 -14.4 -9.05 -21.0 -5.9 -32.9 -4.0 -34.25 -2.25 -35.7 L3.6 -37.45" fill="#e0bcd8" fill-rule="evenodd" stroke="none"/>
    <path d="M-5.9 -32.9 Q-9.05 -21.0 -8.4 -14.4 -7.75 -7.85 -6.3 -5.4 L-1.55 -6.5 -1.15 -7.65 -4.75 -7.65 -4.75 -8.8 -2.35 -9.05 -2.05 -9.4 -3.45 -10.85 -3.2 -11.95 -1.4 -12.9 Q1.95 -21.05 6.3 -28.8 L5.45 -29.1 5.5 -29.6 4.95 -29.85 4.5 -30.3 4.2 -30.65 3.9 -31.2 4.3 -32.85 6.4 -34.85 5.9 -35.35 4.75 -36.2 3.35 -36.75 3.6 -37.45 Q5.9 -38.65 9.5 -36.65 L10.75 -35.95 Q11.95 -35.35 12.7 -34.2 15.4 -30.4 14.4 -25.85 L12.7 -17.6 Q12.0 -14.05 11.45 -10.4 L10.6 -4.2 Q10.25 -0.9 12.65 1.45 L14.15 2.95 Q15.6 4.45 14.45 6.15 13.1 8.2 13.9 10.5 15.4 14.75 16.4 19.2 16.6 20.05 15.85 20.5 L14.6 14.3 Q11.15 15.4 8.2 17.5 L8.45 17.75 Q10.3 20.4 11.55 23.55 L8.6 23.65 7.25 19.5 Q7.0 18.8 6.3 18.55 L3.45 18.5 3.75 15.5 Q4.25 11.2 4.25 6.9 4.25 6.05 3.6 5.5 L-1.1 1.75 -6.75 -2.35 Q-8.85 -3.85 -10.3 -6.2 L-11.3 -8.3 Q-11.65 -9.3 -11.6 -10.35 L-10.85 -17.15 Q-10.25 -21.15 -8.15 -29.0 L-7.6 -31.55 -5.9 -32.9 M10.25 -22.95 L8.95 -23.25 Q5.5 -13.5 6.0 -3.2 6.0 -2.7 6.55 -2.3 L7.7 -1.6 7.9 -1.1 Q10.55 2.35 10.1 7.05 L12.9 6.55 Q13.0 1.6 8.3 -1.6 9.7 -11.85 12.15 -21.9 12.8 -24.55 13.0 -27.3 L9.55 -25.3 11.2 -23.75 10.25 -22.95 M2.85 -10.55 Q1.5 -9.65 1.45 -8.05 L3.15 -7.55 4.6 -10.6 3.55 -10.85 2.85 -10.55 M-1.6 -2.7 Q-0.15 1.3 4.15 3.7 L5.8 4.85 Q4.6 10.85 5.6 16.65 L7.0 17.1 Q7.65 10.8 7.1 4.85 7.0 3.6 5.8 2.6 L-1.4 -3.3 -1.6 -2.7" fill="#73263e" fill-rule="evenodd" stroke="none"/>
    <path d="M-1.6 -2.7 L-1.4 -3.3 5.8 2.6 Q7.0 3.6 7.1 4.85 7.65 10.8 7.0 17.1 L5.6 16.65 Q4.6 10.85 5.8 4.85 L4.15 3.7 Q-0.15 1.3 -1.6 -2.7 M2.85 -10.55 L3.55 -10.85 4.6 -10.6 3.15 -7.55 1.45 -8.05 Q1.5 -9.65 2.85 -10.55 M10.25 -22.95 L11.2 -23.75 9.55 -25.3 13.0 -27.3 Q12.8 -24.55 12.15 -21.9 9.7 -11.85 8.3 -1.6 13.0 1.6 12.9 6.55 L10.1 7.05 Q10.55 2.35 7.9 -1.1 L7.7 -1.6 6.55 -2.3 Q6.0 -2.7 6.0 -3.2 5.5 -13.5 8.95 -23.25 L10.25 -22.95" fill="#380e12" fill-rule="evenodd" stroke="none"/>
    <path d="M3.45 18.5 L6.3 18.55 Q7.0 18.8 7.25 19.5 L8.6 23.65 7.65 23.8 8.75 24.2 9.05 25.1 6.2 22.4 4.15 20.35 Q3.35 19.55 3.45 18.5 M11.55 23.55 Q10.3 20.4 8.45 17.75 L8.2 17.5 Q11.15 15.4 14.6 14.3 L15.85 20.5 16.85 26.15 16.7 26.25 Q13.7 26.55 12.65 23.8 L11.55 23.55" fill="#cccccc" fill-rule="evenodd" stroke="none"/>
  </g>
</svg>
