<?xml version="1.0" encoding="UTF-8" standalone="no"?>
<svg xmlns:xlink="http://www.w3.org/1999/xlink" height="91.0px" width="274.65px" xmlns="http://www.w3.org/2000/svg">
  <g transform="matrix(1.0, 0.0, 0.0, 1.0, 146.75, -19.75)">
    <path d="M-82.2 44.45 Q-81.9 47.35 -79.4 46.9 L-78.85 46.8 Q-78.2 44.0 -78.4 41.25 L-72.75 42.4 -70.7 42.45 -67.15 42.25 -64.75 48.2 -63.0 51.25 -60.7 54.05 Q-60.35 56.85 -60.4 59.25 -60.8 65.1 -61.6 70.9 L-62.4 76.25 -63.6 84.4 -65.2 94.1 Q-65.85 98.45 -67.25 102.65 -67.9 105.0 -68.7 107.2 L-76.85 110.75 -83.5 109.65 Q-88.7 108.95 -94.3 109.4 L-101.55 109.1 -104.05 108.85 -106.95 103.55 -106.5 102.95 -105.0 100.85 -104.55 101.0 -105.75 102.65 -104.95 102.3 -105.6 103.25 -104.75 105.2 -103.4 106.95 -101.35 108.1 Q-98.9 108.95 -96.2 109.05 -98.8 107.7 -101.2 106.15 L-101.2 105.75 -104.05 102.25 -101.6 103.65 Q-100.35 104.35 -99.25 105.35 L-97.6 106.45 Q-96.9 106.95 -96.0 107.25 L-95.75 108.1 -95.2 107.75 -95.6 107.3 -98.85 104.75 -101.65 102.6 -96.55 105.65 -96.25 105.05 -104.3 99.75 -104.15 98.3 -103.75 97.8 -101.95 96.4 Q-101.2 96.0 -100.6 95.45 L-99.5 94.25 -99.85 95.6 Q-99.0 95.55 -98.3 95.15 L-97.6 94.7 Q-97.15 94.3 -96.65 94.2 L-96.0 94.25 -97.05 94.6 -97.3 94.95 -97.15 95.2 -95.85 96.45 -94.85 96.05 -95.8 94.3 Q-94.9 94.6 -94.1 95.05 -93.4 95.45 -92.8 95.95 L-92.8 96.65 -90.8 95.8 -94.95 93.1 -91.8 93.9 -91.4 93.75 -89.4 95.45 -89.7 94.4 Q-90.95 93.5 -92.25 92.55 L-93.5 90.7 -92.65 91.2 -89.1 93.35 Q-87.25 91.85 -85.5 88.8 -83.7 83.15 -83.95 82.95 L-85.35 81.75 Q-86.05 81.0 -86.9 80.4 L-88.6 79.15 -90.35 78.05 -88.9 69.5 -89.2 69.3 -89.4 69.15 -89.6 68.8 -89.5 68.8 -90.05 68.4 -89.3 68.6 -88.35 68.55 -89.7 67.0 Q-89.7 64.1 -89.4 64.1 L-88.2 63.85 -86.8 63.75 -85.55 63.75 -84.35 64.0 -83.3 64.4 -82.05 65.0 -81.9 64.95 -82.95 63.6 -83.35 63.45 -83.5 63.4 -85.1 62.05 -86.75 60.25 -86.15 60.45 -82.7 62.6 -81.85 59.85 -82.5 58.9 -80.7 58.6 -80.15 59.7 -79.6 59.45 -79.95 58.55 -80.75 58.5 -82.3 57.2 -81.7 56.2 -82.3 54.25 -83.95 54.65 -83.7 53.55 -83.35 53.55 -81.85 54.0 -81.05 53.65 -81.35 52.9 -84.75 51.4 Q-86.4 49.65 -88.6 48.55 L-92.7 46.6 -92.05 44.05 -90.3 44.8 -88.65 44.25 -85.9 48.05 Q-86.9 47.45 -87.85 47.0 L-90.8 45.85 -89.05 47.35 Q-86.35 49.45 -83.15 50.75 L-83.45 49.85 -79.0 51.1 -80.5 49.85 Q-83.1 47.55 -86.0 45.65 L-88.5 44.05 -88.9 43.4 -88.8 43.3 -87.9 43.0 -88.15 42.5 -88.85 42.15 -88.95 40.15 -87.35 41.35 -82.2 44.45 M-82.2 39.95 Q-80.75 41.75 -81.85 43.85 L-82.2 44.25 -84.2 41.3 -82.7 41.6 -83.3 40.7 -84.0 40.45 -85.05 40.55 -86.65 38.9 -82.2 39.95 M-98.3 95.15 L-99.9 96.4 -103.0 98.5 -102.75 98.9 -101.55 100.0 -93.5 105.55 -92.1 105.3 -91.7 104.9 -93.65 103.2 -93.4 102.1 -95.35 99.8 -97.55 97.6 -97.55 96.5 -97.6 95.6 -98.3 95.15 M-63.65 60.1 L-65.6 56.15 Q-66.9 53.45 -67.85 50.4 L-69.2 49.8 -73.8 47.2 -75.4 46.1 -76.65 47.0 -74.55 49.5 -73.3 49.7 -71.75 52.15 -71.7 52.6 -71.7 53.35 -71.85 53.6 -71.8 54.0 -70.8 57.0 -71.35 57.85 -65.2 75.45 -64.3 76.05 -63.9 75.35 -63.65 76.05 -63.1 75.75 -62.7 71.85 -62.05 67.95 Q-61.25 64.7 -61.25 61.6 L-61.85 61.05 Q-62.75 60.45 -63.15 59.0 L-63.8 59.15 -63.65 60.1 M-61.95 62.5 L-62.85 61.05 -61.95 62.0 -61.95 62.5 M-68.95 46.05 L-70.95 43.8 -71.7 44.05 Q-72.85 44.55 -73.35 45.8 L-73.05 46.2 Q-71.7 47.9 -69.6 48.4 L-68.6 46.7 -67.8 46.55 -67.55 47.0 -67.05 48.9 -66.55 48.6 -67.6 45.75 -68.95 46.05 M-64.0 51.55 L-64.6 50.5 -66.25 50.55 -66.7 50.85 -65.65 53.6 -64.65 53.2 -64.0 52.2 -64.0 51.55 M-81.0 62.15 L-79.9 61.9 -80.55 59.75 -81.65 60.55 -81.7 61.1 -81.55 61.75 -81.0 62.15 M-71.7 59.35 L-71.95 58.65 -72.55 58.9 -72.45 59.7 -71.7 59.35 M-73.55 55.1 L-75.55 54.9 Q-75.55 56.3 -74.45 57.3 L-73.6 56.9 -73.15 56.05 -73.55 55.1 M-74.4 50.5 L-75.1 50.85 -74.4 52.8 -73.8 52.5 -74.4 50.5 M-63.8 53.3 L-64.55 53.55 -63.75 56.85 -63.15 56.55 -63.8 53.3 M-85.95 64.75 Q-86.85 64.7 -87.7 65.3 L-88.6 66.25 -88.35 66.55 Q-88.25 68.15 -87.15 68.9 L-85.75 69.45 Q-82.75 70.0 -80.75 72.3 L-79.35 71.6 -80.65 70.0 -82.95 67.85 -84.0 67.0 -85.85 64.8 -85.25 65.25 Q-83.85 66.6 -81.95 66.9 L-82.2 66.15 -82.25 65.9 -82.2 65.75 -82.1 65.55 -82.2 65.2 -82.6 65.05 Q-84.9 63.8 -87.45 63.95 L-87.1 64.6 -86.35 64.7 -85.95 64.75 M-79.75 70.4 L-78.9 68.95 -79.65 67.9 Q-80.0 67.3 -80.5 66.95 -81.5 66.2 -81.9 67.1 L-82.05 67.5 Q-82.05 68.1 -81.6 68.4 L-79.75 70.4 M-67.3 71.75 L-68.1 71.9 -65.95 76.6 -65.4 76.25 -67.3 71.75 M-80.3 78.8 L-81.0 76.7 -82.4 78.8 -82.25 79.3 -81.95 79.9 -81.65 80.4 -81.4 80.55 -80.3 78.8 M-76.3 96.6 L-78.3 97.45 -78.0 98.5 -77.35 98.2 -77.1 97.65 -75.2 96.9 -75.45 96.4 -76.3 96.6 M-80.65 75.7 L-79.75 75.6 -80.2 73.9 -81.55 74.45 -80.65 75.7 M-74.05 98.85 L-74.75 97.5 -77.5 98.65 -77.35 99.3 Q-77.05 100.4 -76.4 100.95 L-75.65 100.75 Q-74.7 100.55 -73.75 99.4 L-72.3 99.95 -71.4 99.5 -71.6 99.0 -73.05 98.75 -73.9 95.9 -69.95 93.4 -70.2 92.7 -70.95 92.4 -73.55 93.5 -73.75 94.9 -74.75 95.3 -74.05 98.85 M-73.05 95.9 L-72.4 98.6 -71.0 98.8 -69.35 98.8 -68.7 101.25 -67.7 100.4 Q-66.5 98.9 -66.0 96.95 L-67.7 93.0 -69.6 93.7 Q-71.4 94.35 -73.05 95.9 M-65.8 90.05 Q-65.7 89.55 -65.75 89.05 L-65.7 88.15 -65.85 87.9 -67.3 87.4 -69.6 86.9 -66.4 88.7 -66.05 92.0 -65.4 91.65 -65.8 90.05 M-67.15 88.85 L-68.0 88.65 Q-69.9 88.5 -70.55 90.7 -69.3 91.7 -67.7 92.2 L-66.75 91.2 -67.15 88.85 M-84.55 45.3 Q-83.8 45.9 -82.8 46.0 L-83.0 45.35 -85.2 43.8 -86.75 43.5 -84.55 45.3 M-84.1 55.35 L-83.3 56.65 -85.85 56.05 -85.6 55.9 -85.6 55.75 -85.5 55.4 -85.5 55.0 -85.1 54.15 -86.8 52.95 Q-89.0 51.35 -91.45 51.9 L-89.4 54.05 -86.85 56.2 -87.95 56.4 -86.6 57.35 -87.7 57.7 -87.15 59.85 -88.55 58.8 -88.9 57.85 -89.9 56.25 Q-90.7 55.15 -91.8 54.45 L-95.55 51.6 -95.65 51.25 -94.6 49.8 -92.1 51.05 -93.5 49.7 -86.05 51.2 -87.5 51.45 -84.6 53.25 -84.9 54.95 -84.65 55.7 -84.1 55.35 M-91.45 51.9 Q-92.45 50.85 -93.75 50.75 L-94.9 50.9 -91.2 52.65 -91.45 51.9 M-86.9 70.65 Q-87.65 70.45 -88.5 71.15 L-88.7 72.85 -88.35 73.6 -87.5 73.25 -87.2 71.6 Q-84.65 72.75 -83.05 75.3 L-82.3 75.05 -82.55 73.8 -81.9 74.25 -81.1 73.95 Q-81.3 73.4 -81.65 73.05 -82.45 71.65 -84.1 71.45 L-86.9 70.65 M-86.75 74.2 L-87.9 73.8 -88.4 74.9 -88.9 76.85 -89.5 77.45 Q-88.7 79.1 -87.2 79.75 -84.6 80.9 -82.3 82.35 L-81.65 81.65 -81.9 80.3 -82.8 80.75 -86.05 76.7 Q-86.9 75.65 -86.75 74.2 M-91.7 98.4 L-92.3 97.25 -93.05 97.35 -92.4 98.55 -91.7 98.4 M-89.2 102.4 L-89.1 101.15 -90.55 101.95 -91.6 101.85 -92.85 102.5 -92.75 103.1 -91.8 104.0 Q-90.25 103.8 -89.2 102.4 M-84.75 102.6 L-85.2 101.95 -86.9 101.6 -87.25 102.45 Q-87.1 103.5 -87.9 104.4 -89.1 105.65 -90.7 106.35 L-90.8 106.85 -89.0 107.0 Q-83.75 107.8 -78.8 109.45 L-76.85 109.35 -73.9 107.8 -73.0 107.8 -72.25 107.55 -70.35 106.85 Q-69.4 105.9 -69.15 104.65 -68.9 103.85 -68.35 103.65 L-69.05 102.15 -69.4 100.3 -77.4 101.5 -78.55 100.3 Q-81.65 101.95 -84.75 102.6" fill="#f5da69" fill-rule="evenodd" stroke="none"/>
    <path d="M-88.85 42.15 L-88.15 42.5 -87.9 43.0 -88.8 43.3 -88.85 42.15 M-83.95 54.65 L-82.3 54.25 -81.7 56.2 -82.3 57.2 -83.3 56.65 -84.1 55.35 -83.95 54.65 M-82.5 58.9 L-81.85 59.85 -82.7 62.6 -86.15 60.45 -86.75 60.25 -87.15 59.85 -87.7 57.7 -86.6 57.35 -82.5 58.9 M-98.3 95.15 L-97.6 95.6 -97.55 96.5 -97.55 97.6 -95.35 99.8 -93.4 102.1 -93.65 103.2 -91.7 104.9 -92.1 105.3 -93.5 105.55 -101.55 100.0 -102.75 98.9 -103.0 98.5 -99.9 96.4 -98.3 95.15 M-104.05 102.25 L-101.2 105.75 -101.2 106.15 Q-98.8 107.7 -96.2 109.05 -98.9 108.95 -101.35 108.1 L-103.4 106.95 -104.75 105.2 -105.6 103.25 -104.95 102.3 -104.05 102.25 M-63.9 75.35 L-64.3 76.05 -65.2 75.45 -71.35 57.85 -70.8 57.0 -71.8 54.0 -71.85 53.6 -71.7 53.35 -71.7 52.6 -71.75 52.15 -73.3 49.7 -74.55 49.5 -76.65 47.0 -75.4 46.1 -73.8 47.2 -69.2 49.8 -67.85 50.4 Q-66.9 53.45 -65.6 56.15 L-63.65 60.1 -62.85 61.05 -61.95 62.5 -64.2 74.55 -63.9 75.35 M-68.6 46.7 L-69.6 48.4 Q-71.7 47.9 -73.05 46.2 L-73.35 45.8 Q-72.85 44.55 -71.7 44.05 L-70.95 43.8 -68.95 46.05 -68.6 46.7 M-64.0 51.55 L-64.0 52.2 -64.65 53.2 -65.65 53.6 -66.7 50.85 -66.25 50.55 -64.6 50.5 -64.0 51.55 M-85.85 64.8 L-84.0 67.0 -82.95 67.85 -80.65 70.0 -79.35 71.6 -80.75 72.3 Q-82.75 70.0 -85.75 69.45 L-87.15 68.9 Q-88.25 68.15 -88.35 66.55 L-88.6 66.25 -87.7 65.3 Q-86.85 64.7 -85.95 64.75 L-85.85 64.8 M-79.75 70.4 L-81.6 68.4 Q-82.05 68.1 -82.05 67.5 L-81.9 67.1 Q-81.5 66.2 -80.5 66.95 -80.0 67.3 -79.65 67.9 L-78.9 68.95 -79.75 70.4 M-80.3 78.8 L-81.4 80.55 -81.65 80.4 -81.95 79.9 -82.25 79.3 -82.4 78.8 -81.0 76.7 -80.3 78.8 M-73.05 95.9 Q-71.4 94.35 -69.6 93.7 L-67.7 93.0 -66.0 96.95 Q-66.5 98.9 -67.7 100.4 L-68.7 101.25 -69.35 98.8 -71.0 98.8 -72.4 98.6 -73.05 95.9 M-73.75 99.4 Q-74.7 100.55 -75.65 100.75 L-76.4 100.95 Q-77.05 100.4 -77.35 99.3 L-77.5 98.65 -74.75 97.5 -74.05 98.85 -73.75 99.4 M-67.15 88.85 L-66.75 91.2 -67.7 92.2 Q-69.3 91.7 -70.55 90.7 -69.9 88.5 -68.0 88.65 L-67.15 88.85 M-91.45 51.9 Q-89.0 51.35 -86.8 52.95 L-85.1 54.15 -85.5 55.0 -85.5 55.4 -85.6 55.75 -85.6 55.9 -85.85 56.05 -86.85 56.2 -89.4 54.05 -91.45 51.9 M-86.75 74.2 Q-86.9 75.65 -86.05 76.7 L-82.8 80.75 -81.9 80.3 -81.65 81.65 -82.3 82.35 Q-84.6 80.9 -87.2 79.75 -88.7 79.1 -89.5 77.45 L-88.9 76.85 -88.4 74.9 -87.9 73.8 -86.75 74.2 M-84.75 102.6 Q-81.65 101.95 -78.55 100.3 L-77.4 101.5 -69.4 100.3 -69.05 102.15 -68.35 103.65 Q-68.9 103.85 -69.15 104.65 -69.4 105.9 -70.35 106.85 L-72.25 107.55 -73.0 107.8 -73.9 107.8 -76.85 109.35 -78.8 109.45 Q-83.75 107.8 -89.0 107.0 L-90.8 106.85 -90.7 106.35 Q-89.1 105.65 -87.9 104.4 -87.1 103.5 -87.25 102.45 L-86.9 101.6 -85.2 101.95 -84.75 102.6 M-89.2 102.4 Q-90.25 103.8 -91.8 104.0 L-92.75 103.1 -92.85 102.5 -91.6 101.85 -90.55 101.95 -89.1 101.15 -89.2 102.4" fill="#f79f1e" fill-rule="evenodd" stroke="none"/>
    <path d="M-78.4 41.25 Q-78.2 44.0 -78.85 46.8 L-79.4 46.9 Q-81.9 47.35 -82.2 44.45 L-82.2 44.25 -81.85 43.85 Q-80.75 41.75 -82.2 39.95 L-78.4 41.25 M-88.9 43.4 L-88.5 44.05 -88.65 44.25 -90.3 44.8 -88.9 43.4" fill="#73263e" fill-rule="evenodd" stroke="none"/>
    <path d="M-83.45 49.85 L-83.15 50.75 Q-86.35 49.45 -89.05 47.35 L-90.8 45.85 -87.85 47.0 Q-86.9 47.45 -85.9 48.05 L-83.45 49.85 M-84.75 51.4 L-81.35 52.9 -81.05 53.65 -81.85 54.0 -83.35 53.55 -83.7 53.55 -83.95 54.65 -84.1 55.35 -84.65 55.7 -84.9 54.95 -84.6 53.25 -87.5 51.45 -86.05 51.2 -84.75 51.4 M-82.3 57.2 L-80.75 58.5 -79.95 58.55 -79.6 59.45 -80.15 59.7 -80.7 58.6 -82.5 58.9 -86.6 57.35 -87.95 56.4 -86.85 56.2 -85.85 56.05 -83.3 56.65 -82.3 57.2 M-93.5 90.7 L-92.25 92.55 Q-90.95 93.5 -89.7 94.4 L-89.4 95.45 -91.4 93.75 -91.8 93.9 -94.95 93.1 -90.8 95.8 -92.8 96.65 -92.8 95.95 Q-93.4 95.45 -94.1 95.05 -94.9 94.6 -95.8 94.3 L-94.85 96.05 -95.85 96.45 -97.15 95.2 -97.3 94.95 -97.05 94.6 -96.0 94.25 -96.65 94.2 Q-97.15 94.3 -97.6 94.7 L-98.3 95.15 Q-99.0 95.55 -99.85 95.6 L-99.5 94.25 -100.6 95.45 -99.9 94.15 -99.95 93.5 -97.2 89.15 -93.5 90.7 M-101.65 102.6 L-98.85 104.75 -95.6 107.3 -95.2 107.75 -95.75 108.1 -96.0 107.25 Q-96.9 106.95 -97.6 106.45 L-99.25 105.35 Q-100.35 104.35 -101.6 103.65 L-104.05 102.25 -104.95 102.3 -105.75 102.65 -104.55 101.0 Q-103.3 100.6 -102.4 101.7 L-101.65 102.6 M-63.65 60.1 L-63.8 59.15 -63.15 59.0 Q-62.75 60.45 -61.85 61.05 L-61.25 61.6 Q-61.25 64.7 -62.05 67.95 L-62.7 71.85 -63.1 75.75 -63.65 76.05 -63.9 75.35 -64.2 74.55 -61.95 62.5 -61.95 62.0 -62.85 61.05 -63.65 60.1 M-68.95 46.05 L-67.6 45.75 -66.55 48.6 -67.05 48.9 -67.55 47.0 -67.8 46.55 -68.6 46.7 -68.95 46.05 M-63.8 53.3 L-63.15 56.55 -63.75 56.85 -64.55 53.55 -63.8 53.3 M-74.4 50.5 L-73.8 52.5 -74.4 52.8 -75.1 50.85 -74.4 50.5 M-73.55 55.1 L-73.15 56.05 -73.6 56.9 -74.45 57.3 Q-75.55 56.3 -75.55 54.9 L-73.55 55.1 M-71.7 59.35 L-72.45 59.7 -72.55 58.9 -71.95 58.65 -71.7 59.35 M-81.0 62.15 L-81.55 61.75 -81.7 61.1 -81.65 60.55 -80.55 59.75 -79.9 61.9 -81.0 62.15 M-85.95 64.75 L-86.35 64.7 -87.1 64.6 -87.45 63.95 Q-84.9 63.8 -82.6 65.05 L-82.2 65.2 -82.1 65.55 -82.2 65.75 -82.25 65.9 -82.2 66.15 -81.95 66.9 Q-83.85 66.6 -85.25 65.25 L-85.85 64.8 -85.95 64.75 M-67.3 71.75 L-65.4 76.25 -65.95 76.6 -68.1 71.9 -67.3 71.75 M-80.65 75.7 L-81.55 74.45 -80.2 73.9 -79.75 75.6 -80.65 75.7 M-76.3 96.6 L-75.45 96.4 -75.2 96.9 -77.1 97.65 -77.35 98.2 -78.0 98.5 -78.3 97.45 -76.3 96.6 M-74.05 98.85 L-74.75 95.3 -73.75 94.9 -73.55 93.5 -70.95 92.4 -70.2 92.7 -69.95 93.4 -73.9 95.9 -73.05 98.75 -71.6 99.0 -71.4 99.5 -72.3 99.95 -73.75 99.4 -74.05 98.85 M-65.8 90.05 L-65.4 91.65 -66.05 92.0 -66.4 88.7 -69.6 86.9 -67.3 87.4 -65.85 87.9 -65.7 88.15 -65.75 89.05 Q-65.7 89.55 -65.8 90.05 M-84.2 41.3 L-85.05 40.55 -84.0 40.45 -83.3 40.7 -82.7 41.6 -84.2 41.3 M-84.55 45.3 L-86.75 43.5 -85.2 43.8 -83.0 45.35 -82.8 46.0 Q-83.8 45.9 -84.55 45.3 M-91.45 51.9 L-91.2 52.65 -94.9 50.9 -93.75 50.75 Q-92.45 50.85 -91.45 51.9 M-86.9 70.65 L-84.1 71.45 Q-82.45 71.65 -81.65 73.05 -81.3 73.4 -81.1 73.95 L-81.9 74.25 -82.55 73.8 -82.3 75.05 -83.05 75.3 Q-84.65 72.75 -87.2 71.6 L-87.5 73.25 -88.35 73.6 -88.7 72.85 -88.5 71.15 Q-87.65 70.45 -86.9 70.65 M-91.7 98.4 L-92.4 98.55 -93.05 97.35 -92.3 97.25 -91.7 98.4" fill="#fefac0" fill-rule="evenodd" stroke="none"/>
    <path d="M-82.2 44.25 L-82.2 44.45 -87.35 41.35 -88.95 40.15 -88.6 39.65 Q-87.75 38.75 -86.65 38.9 L-85.05 40.55 -84.2 41.3 -82.2 44.25 M-88.5 44.05 L-86.0 45.65 Q-83.1 47.55 -80.5 49.85 L-79.0 51.1 -83.45 49.85 -85.9 48.05 -88.65 44.25 -88.5 44.05 M-92.7 46.6 L-88.6 48.55 Q-86.4 49.65 -84.75 51.4 L-86.05 51.2 -93.5 49.7 -92.1 51.05 -94.6 49.8 Q-95.25 48.3 -94.1 47.45 -92.95 46.6 -92.8 47.15 L-92.7 46.6" fill="#380e12" fill-rule="evenodd" stroke="none"/>
    <path d="M-83.5 63.4 L-83.35 63.45 -82.95 63.6 -81.9 64.95 -82.05 65.0 -83.3 64.4 -84.35 64.0 -85.55 63.75 -86.8 63.75 -88.2 63.85 -89.4 64.1 -88.65 63.15 -83.5 63.4 M-89.2 69.3 L-88.9 69.5 -90.35 78.05 -88.6 79.15 -86.9 80.4 Q-86.05 81.0 -85.35 81.75 L-83.95 82.95 Q-83.7 83.15 -85.5 88.8 -87.25 91.85 -89.1 93.35 L-92.65 91.2 -93.5 90.7 -97.2 89.15 -99.95 93.5 -99.9 94.15 -100.6 95.45 Q-101.2 96.0 -101.95 96.4 L-103.75 97.8 -104.15 98.3 -104.3 99.75 -96.25 105.05 -96.55 105.65 -101.65 102.6 -102.4 101.7 Q-103.3 100.6 -104.55 101.0 L-105.0 100.85 -106.5 102.95 -106.6 102.55 -104.45 98.7 -104.4 97.85 -104.1 97.2 -103.55 96.75 -103.25 96.5 -101.45 94.9 -101.3 94.7 Q-100.65 94.05 -100.4 93.2 -99.95 91.55 -99.1 90.25 L-97.75 87.7 Q-97.7 87.5 -96.2 87.7 -90.25 90.7 -88.85 91.45 -86.95 89.05 -85.85 86.15 L-84.8 83.05 -91.1 78.4 -89.2 69.3" fill="#a61602" fill-rule="evenodd" stroke="none"/>
    <path d="M-146.55 55.15 L-146.7 55.25 -146.75 55.25 -146.55 55.15" fill="#73263e" fill-rule="evenodd" stroke="none"/>
    <path d="M45.2 47.55 Q44.75 47.25 44.75 45.75 44.75 44.15 45.6 43.4 45.95 43.1 47.0 42.75 L51.5 43.0 52.15 43.45 52.25 45.25 52.2 47.1 52.0 48.0 51.0 48.25 46.25 48.0 45.2 47.55 M0.25 48.0 Q0.25 50.6 -0.95 52.05 L-5.5 57.0 -9.0 58.25 Q-10.4 58.05 -10.8 57.65 -11.25 57.15 -11.25 55.35 -11.25 51.9 -8.9 49.3 -6.1 46.1 -0.5 45.0 L0.15 45.85 0.25 48.0 M25.25 31.75 Q25.05 32.35 23.65 33.15 22.15 34.0 21.25 34.0 L21.0 34.2 Q20.75 34.05 20.75 32.5 20.75 30.95 21.1 30.8 L22.0 30.75 23.35 30.95 Q24.8 31.3 25.25 31.75 M38.5 44.0 Q40.55 45.0 41.65 47.7 L43.25 52.25 46.5 53.0 Q46.9 53.4 47.15 53.25 L47.25 54.85 47.0 56.8 46.0 57.25 Q42.0 56.75 38.2 59.4 34.1 62.25 32.0 62.25 L25.25 62.0 Q24.65 61.4 24.2 60.45 23.75 59.4 23.75 58.5 L21.25 58.0 20.3 55.75 Q19.75 54.3 19.75 52.75 19.75 50.15 25.15 46.8 31.45 42.9 38.5 44.0 M-23.2 47.15 L-23.25 45.0 Q-23.25 41.5 -19.65 35.55 -16.25 30.0 -12.75 27.0 -8.85 24.7 -6.0 28.4 -3.75 31.3 -3.75 34.25 -3.75 38.05 -8.1 42.3 -12.75 46.8 -19.0 48.25 L-22.75 48.0 -23.2 47.15 M-71.5 39.0 L-70.35 39.85 Q-69.75 40.45 -69.75 42.0 -69.75 43.3 -72.3 45.45 L-75.75 48.75 -75.75 50.25 Q-73.5 51.0 -72.75 51.75 -73.15 52.95 -74.0 53.25 L-78.75 53.0 Q-83.1 46.35 -87.75 46.0 L-90.25 44.5 -89.0 42.25 -87.75 40.0 -77.0 39.25 -77.0 38.75 -71.5 39.0 M-41.25 69.35 Q-41.25 66.5 -39.0 65.75 L-35.5 66.0 -34.85 66.45 -34.75 68.25 Q-34.75 70.75 -35.0 71.25 L-35.45 71.35 Q-36.05 71.55 -36.5 72.0 L-40.75 72.0 -41.2 71.35 -41.25 69.35 M-71.0 56.75 L-68.75 57.0 -68.75 63.0 -69.0 63.45 -70.0 64.25 -73.75 64.0 Q-74.0 63.65 -74.2 63.7 L-74.25 62.1 Q-74.25 61.1 -73.35 59.6 -72.45 58.0 -71.0 56.75 M-71.5 80.0 L-72.75 80.0 Q-73.25 79.25 -73.25 77.25 L-72.35 77.2 Q-71.55 77.3 -70.75 77.75 -70.75 79.25 -71.5 80.0 M-15.5 53.0 L-14.85 53.45 -14.75 55.25 Q-14.75 56.5 -19.5 60.0 L-22.75 60.0 -23.2 59.7 -23.25 58.1 Q-23.25 56.65 -22.3 55.7 L-20.75 54.0 -17.65 53.15 -15.5 53.0 M-116.95 29.65 Q-115.75 31.1 -115.75 32.5 L-112.5 33.0 -110.0 35.5 Q-107.6 37.7 -105.5 38.75 -102.95 36.3 -103.15 28.65 -103.3 21.0 -102.0 19.75 L-99.5 20.0 Q-98.3 23.6 -99.75 26.5 L-97.5 26.0 -96.85 26.25 -96.75 27.85 Q-96.75 29.1 -97.75 30.3 -98.75 31.5 -98.75 32.75 L-95.35 36.8 -91.75 41.0 -91.45 41.65 Q-91.45 42.25 -93.0 42.25 L-99.75 41.5 Q-100.05 40.75 -99.8 39.45 L-99.25 37.25 -99.5 36.5 -101.3 38.6 -101.75 41.0 Q-102.2 41.0 -102.8 41.45 L-104.0 42.25 -106.75 42.0 -109.2 40.2 Q-111.2 38.7 -111.75 38.5 L-116.65 44.4 Q-120.45 48.5 -125.0 51.0 L-125.3 51.25 Q-125.0 51.75 -124.85 52.8 L-124.75 54.0 -125.1 54.4 Q-125.65 54.85 -126.75 55.0 -127.0 54.65 -127.2 54.7 L-127.25 53.1 -127.2 51.5 -127.0 51.0 -126.15 51.0 -126.25 50.1 Q-126.25 49.4 -120.55 44.1 -114.65 38.6 -114.25 37.75 -115.75 37.0 -117.25 35.5 L-125.75 34.5 -130.95 34.95 Q-133.95 35.15 -138.75 35.0 -139.25 34.25 -139.25 32.0 -131.45 32.05 -127.3 30.35 -124.15 28.45 -122.75 28.0 L-118.5 28.0 -116.95 29.65 M-112.6 46.6 L-112.0 46.75 -109.5 47.0 -108.85 47.25 -108.75 48.85 Q-108.75 50.35 -109.35 51.3 L-110.5 53.0 -112.25 53.0 Q-112.25 52.4 -112.75 50.95 -113.25 49.5 -113.25 48.1 -113.25 46.55 -112.6 46.6" fill="#ff0000" fill-rule="evenodd" stroke="none"/>
    <path d="M-10.8 58.25 L-3.45 59.25 Q3.5 59.9 10.35 61.3 L23.9 63.85 Q32.55 65.6 40.95 68.5 50.25 71.7 58.25 77.55 L63.4 81.35 Q69.0 85.7 75.1 89.35 L86.35 95.85 Q88.55 97.05 91.0 97.85 99.55 100.65 108.55 100.75 118.55 100.9 127.9 97.7 123.5 101.2 118.1 103.4 L110.95 106.2 106.1 107.75 101.1 108.6 85.45 108.35 Q80.3 107.7 75.5 105.4 69.2 102.45 62.7 100.7 54.95 98.8 47.1 97.75 L42.55 97.65 Q26.6 98.45 11.15 102.85 L4.85 104.6 -9.25 107.35 -8.45 104.95 Q-2.65 80.5 -10.8 58.25 M36.25 77.25 L37.8 75.55 Q37.5 73.35 36.25 71.6 L35.1 70.45 Q30.85 67.75 26.2 70.65 L26.65 71.9 23.7 71.65 24.7 73.65 22.45 73.95 20.75 75.6 20.0 75.45 21.65 73.9 13.85 66.1 6.0 72.4 7.25 74.1 5.3 77.85 4.2 76.55 -4.3 84.65 Q-4.0 84.85 -3.65 85.1 L-4.05 85.45 -5.3 86.65 1.75 93.95 Q8.35 89.45 15.4 89.0 16.8 88.9 18.0 89.75 21.2 91.75 22.2 95.15 L30.2 89.15 30.6 89.8 32.05 91.3 Q33.55 92.7 35.45 93.25 L37.05 95.0 37.15 94.9 37.85 93.4 39.6 92.1 40.5 91.1 40.6 91.05 Q41.75 90.45 42.95 90.0 L46.7 95.65 48.2 93.6 48.3 93.5 Q50.05 92.95 51.2 91.45 L52.0 90.2 54.5 89.55 54.65 90.1 Q54.85 92.7 56.0 94.75 L56.9 96.05 60.8 96.45 60.95 96.05 61.15 96.1 63.9 94.85 64.3 87.85 58.85 90.15 58.7 90.15 60.3 88.1 59.1 84.45 58.8 84.4 57.85 80.2 54.9 81.75 54.7 85.05 53.45 85.8 52.85 86.15 Q52.7 84.45 51.7 82.65 L47.45 85.65 44.7 85.15 48.0 82.55 48.0 81.25 47.6 80.9 48.55 80.1 44.7 74.15 43.4 78.25 41.3 79.7 41.2 81.4 39.6 77.6 37.75 79.85 36.25 77.25" fill="#73263e" fill-rule="evenodd" stroke="none"/>
    <path d="M26.65 71.9 L26.2 70.65 Q30.85 67.75 35.1 70.45 L36.25 71.6 Q37.5 73.35 37.8 75.55 L36.25 77.25 32.85 80.85 Q28.6 78.25 27.0 73.0 L26.65 71.9 M37.75 79.85 L39.6 77.6 41.2 81.4 43.7 87.55 40.5 91.1 39.6 92.1 37.85 93.4 31.85 87.05 37.75 79.85 M43.4 78.25 L44.7 74.15 48.55 80.1 47.6 80.9 45.15 82.95 44.25 82.6 43.25 78.65 43.4 78.25 M47.45 85.65 L51.7 82.65 Q52.7 84.45 52.85 86.15 53.05 88.25 52.0 90.2 L51.2 91.45 Q50.05 92.95 48.3 93.5 L44.9 87.4 47.45 85.65 M54.7 85.05 L54.9 81.75 57.85 80.2 58.8 84.4 59.2 86.05 54.55 87.65 54.7 85.05 M58.85 90.15 L64.3 87.85 63.9 94.85 61.15 96.1 60.95 96.05 58.45 95.4 56.9 90.95 58.85 90.15 M-3.65 85.1 Q-4.0 84.85 -4.3 84.65 L4.2 76.55 5.3 77.85 12.1 85.9 Q10.15 88.35 7.45 89.75 L6.0 90.3 2.3 91.35 Q0.75 88.5 -1.8 86.45 L-3.0 85.55 -3.65 85.1 M7.25 74.1 L6.0 72.4 13.85 66.1 21.65 73.9 20.0 75.45 13.0 81.9 7.25 74.1 M31.6 84.0 L23.95 92.75 16.15 83.9 25.3 75.75 31.6 84.0" fill="#e0bcd8" fill-rule="evenodd" stroke="none"/>
    <path d="M36.25 77.25 L37.75 79.85 31.85 87.05 37.85 93.4 37.15 94.9 37.05 95.0 35.45 93.25 Q33.55 92.7 32.05 91.3 L30.6 89.8 30.2 89.15 22.2 95.15 Q21.2 91.75 18.0 89.75 16.8 88.9 15.4 89.0 8.35 89.45 1.75 93.95 L-5.3 86.65 -4.05 85.45 -3.65 85.1 -3.0 85.55 -1.8 86.45 Q0.75 88.5 2.3 91.35 L6.0 90.3 7.45 89.75 Q10.15 88.35 12.1 85.9 L5.3 77.85 7.25 74.1 13.0 81.9 20.0 75.45 20.75 75.6 22.45 73.95 24.7 73.65 23.7 71.65 26.65 71.9 27.0 73.0 Q28.6 78.25 32.85 80.85 L36.25 77.25 M41.2 81.4 L41.3 79.7 43.4 78.25 43.25 78.65 44.25 82.6 45.15 82.95 47.6 80.9 48.0 81.25 48.0 82.55 44.7 85.15 47.45 85.65 44.9 87.4 48.3 93.5 48.2 93.6 46.7 95.65 42.95 90.0 Q41.75 90.45 40.6 91.05 L40.5 91.1 43.7 87.55 41.2 81.4 M52.85 86.15 L53.45 85.8 54.7 85.05 54.55 87.65 59.2 86.05 58.8 84.4 59.1 84.45 60.3 88.1 58.7 90.15 58.85 90.15 56.9 90.95 58.45 95.4 60.95 96.05 60.8 96.45 56.9 96.05 56.0 94.75 Q54.85 92.7 54.65 90.1 L54.5 89.55 52.0 90.2 Q53.05 88.25 52.85 86.15 M31.6 84.0 L25.3 75.75 16.15 83.9 23.95 92.75 31.6 84.0" fill="#380e12" fill-rule="evenodd" stroke="none"/>
    <path d="M-9.25 107.35 L-11.2 109.6 Q-35.95 87.85 -18.55 61.25 L-10.8 58.25 Q-2.65 80.5 -8.45 104.95 L-9.25 107.35 M-13.2 75.5 Q-16.45 74.1 -16.45 82.1 L-16.45 85.9 Q-16.0 90.35 -13.85 90.35 L-11.85 90.0 -11.2 89.6 -10.5 85.85 Q-9.95 83.75 -9.95 82.45 -9.95 80.05 -10.95 78.0 -11.95 76.05 -13.2 75.5" fill="#ff0000" fill-rule="evenodd" stroke="none"/>
    <path d="M-13.2 75.5 Q-11.95 76.05 -10.95 78.0 -9.95 80.05 -9.95 82.45 -9.95 83.75 -10.5 85.85 L-11.2 89.6 -11.85 90.0 -13.85 90.35 Q-16.0 90.35 -16.45 85.9 L-16.45 82.1 Q-16.45 74.1 -13.2 75.5" fill="#ffffff" fill-rule="evenodd" stroke="none"/>
  </g>
</svg>
