<?xml version="1.0" encoding="UTF-8" standalone="no"?>
<svg xmlns:xlink="http://www.w3.org/1999/xlink" height="107.6px" width="475.1px" xmlns="http://www.w3.org/2000/svg">
  <g transform="matrix(1.0, 0.0, 0.0, 1.0, 261.05, -17.4)">
    <path d="M-149.1 83.75 L-152.0 84.25 -164.05 85.05 -167.95 85.45 -173.0 85.6 Q-177.15 85.0 -178.05 88.05 L-176.95 88.75 Q-174.9 89.5 -174.05 92.05 -178.05 93.95 -184.05 95.1 -194.3 97.1 -204.95 94.55 -210.95 93.1 -217.1 92.4 L-223.0 91.65 Q-226.45 91.2 -230.0 91.5 -233.25 91.75 -234.05 90.05 L-233.0 89.5 Q-229.4 89.0 -228.95 87.25 L-230.1 87.65 -236.05 88.15 Q-244.45 88.45 -252.0 86.85 L-255.1 86.3 Q-260.15 85.35 -261.05 81.05 -248.1 83.25 -235.1 80.85 -224.6 78.95 -214.05 78.15 -213.05 78.05 -212.4 78.5 -210.95 79.55 -209.05 79.45 L-193.1 77.8 -182.3 76.5 Q-182.5 77.75 -184.05 77.8 -186.25 77.85 -186.05 80.05 L-182.1 79.85 -171.05 79.1 -166.1 79.4 Q-160.8 80.2 -155.1 79.6 -149.0 79.0 -146.05 82.05 -146.75 83.2 -149.1 83.75 M203.0 114.5 L209.0 114.65 Q212.75 114.35 214.05 116.05 L212.3 117.3 Q210.2 119.4 207.1 118.75 L202.05 118.2 194.1 118.4 Q178.0 119.9 162.1 117.75 L159.0 117.3 157.15 116.95 157.85 116.65 Q155.45 116.6 157.15 116.95 L156.1 117.25 153.0 117.7 148.3 118.0 146.05 117.95 145.2 118.05 148.3 118.0 Q148.9 118.25 149.05 119.05 142.65 120.55 136.0 121.15 L127.05 122.25 116.95 123.6 Q91.95 126.3 67.0 123.85 L61.0 123.3 Q53.85 122.75 50.0 119.05 51.5 118.05 53.15 117.5 L55.95 116.75 62.05 115.9 60.0 115.5 Q56.15 115.4 55.0 113.05 56.3 110.95 60.0 109.95 61.5 109.55 62.75 108.7 L63.7 108.1 Q68.2 105.4 73.0 104.65 L84.0 104.2 Q91.95 103.5 99.0 105.0 L104.0 105.9 Q105.0 106.05 105.8 106.45 107.0 107.05 108.1 107.9 109.0 108.55 109.05 109.15 109.35 111.9 112.0 112.15 116.55 112.6 118.95 110.95 119.5 110.55 120.05 110.45 L130.0 109.05 Q141.35 107.5 153.05 107.6 164.85 107.7 176.1 109.9 L203.0 114.5" fill="#ff0000" fill-rule="evenodd" stroke="none"/>
    <path d="M157.5 71.65 Q156.7 73.75 155.35 75.75 L155.3 75.7 154.1 74.6 Q155.4 73.05 156.2 70.8 L157.5 71.65 M119.15 73.4 Q119.4 73.8 120.75 73.9 L124.7 72.05 126.9 70.65 126.5 70.3 Q124.9 70.05 122.15 71.2 119.4 72.35 119.15 73.4 M98.4 78.15 Q97.7 76.95 98.25 75.5 98.3 75.35 98.8 75.35 L109.3 75.0 111.75 74.7 112.8 74.35 Q115.3 73.05 116.0 75.8 L116.3 76.35 116.35 76.4 Q114.55 77.25 112.85 78.2 108.05 80.85 102.65 82.35 L100.6 82.8 100.0 81.85 102.25 81.9 103.9 81.5 105.5 80.8 106.1 80.35 Q106.4 80.1 106.4 79.3 L106.1 78.95 105.0 77.8 101.85 77.1 99.25 76.65 Q98.65 77.3 98.4 78.15 M118.4 75.5 Q117.8 73.95 116.8 72.85 120.45 71.6 123.8 69.85 125.55 68.95 127.3 68.7 L128.3 68.55 Q129.6 68.4 129.45 69.85 L129.2 72.35 Q123.55 73.3 118.4 75.5 M131.05 72.05 Q131.7 70.65 131.55 68.85 131.55 68.6 131.85 68.45 L134.8 66.85 Q136.75 65.8 139.8 65.65 L140.85 65.45 141.75 65.25 142.85 64.95 143.8 64.85 Q143.85 68.05 142.75 70.85 L142.7 71.0 131.05 72.05 M145.4 71.1 L145.75 70.3 Q146.65 68.7 147.1 66.8 147.3 65.85 147.9 65.55 L148.75 65.5 149.3 65.6 Q151.55 65.6 152.4 66.8 L153.1 67.95 153.25 68.85 Q153.2 70.25 153.5 71.45 L152.8 73.65 Q149.5 71.45 145.4 71.1 M81.9 84.65 L81.25 83.9 79.3 81.35 76.95 78.7 Q76.55 78.35 76.45 77.8 L75.5 75.2 75.3 74.35 76.3 74.35 90.3 75.25 91.8 75.4 Q94.1 75.6 94.6 76.9 L94.9 77.85 Q95.4 81.0 97.5 83.35 L97.3 83.35 Q89.6 84.65 81.9 84.65 M91.25 83.9 L92.9 82.6 Q92.9 81.85 92.6 81.6 L92.0 81.3 Q85.65 80.5 81.25 77.55 77.95 74.75 77.15 74.55 L77.15 75.3 Q77.15 77.1 78.9 80.05 80.2 82.3 81.9 84.3 L83.25 84.4 87.45 84.05 91.25 83.9 M139.4 67.65 L138.2 67.25 137.25 67.15 135.4 67.8 135.15 68.55 135.95 69.1 137.25 69.4 Q138.5 69.4 139.0 68.8 139.4 68.4 139.4 67.65 M-10.15 38.75 L-9.75 38.6 -8.7 38.7 -3.25 39.25 6.7 40.0 7.8 40.2 9.7 40.55 10.3 40.65 12.75 40.85 Q10.5 42.65 8.95 46.45 8.5 47.45 8.4 48.55 1.4 47.0 -5.7 47.1 L-14.9 47.15 -13.3 44.3 Q-12.25 42.65 -11.85 41.3 -11.55 40.2 -10.65 39.25 -10.9 40.7 -11.1 41.05 -12.85 43.95 -12.85 45.0 L-12.8 45.95 -12.6 46.3 -3.85 46.55 -3.6 46.8 2.95 46.8 3.35 46.75 3.4 46.05 Q3.4 45.25 3.2 45.2 L2.95 45.3 -1.75 44.35 -5.1 42.65 Q-6.6 41.8 -6.55 40.8 -6.55 39.8 -7.55 39.3 -9.35 38.45 -10.15 38.75 M10.25 49.0 L11.25 46.3 Q11.4 47.35 11.9 48.8 L14.75 49.45 17.2 49.9 17.9 49.3 16.45 47.8 Q16.45 47.2 16.95 47.05 17.4 46.95 17.4 46.3 17.4 45.5 17.05 45.0 L16.15 44.05 18.4 42.15 18.2 42.0 18.75 41.9 22.3 41.6 Q22.55 41.6 22.75 41.9 L24.3 43.35 Q23.05 44.6 22.25 46.35 20.95 49.25 20.35 52.45 16.1 50.65 11.65 49.35 L10.25 49.0 M21.9 53.1 L22.0 52.95 24.6 48.75 25.05 48.1 25.8 47.8 Q27.25 47.65 27.05 49.4 L27.3 49.85 Q28.25 51.05 27.45 52.9 L26.4 55.45 25.3 54.75 21.9 53.1 M29.3 66.8 Q29.9 66.3 30.85 66.15 L31.35 66.2 Q32.75 66.6 33.55 67.55 L33.8 68.35 33.95 74.4 Q32.05 72.75 30.7 70.55 29.55 68.7 29.3 66.8 M37.2 76.6 Q36.5 74.6 36.55 71.85 L36.45 70.8 Q35.8 68.1 38.75 68.95 L39.85 69.2 48.65 71.3 48.65 71.8 Q48.35 72.75 48.35 73.85 48.4 77.65 50.05 80.6 44.55 79.35 39.2 77.45 L37.2 76.6 M52.6 81.1 Q51.75 79.55 51.4 77.85 L51.2 76.9 51.0 75.85 Q50.9 74.5 50.5 73.75 50.3 73.35 50.45 72.9 50.65 72.1 51.5 71.8 L51.25 72.0 51.15 73.05 Q51.15 73.75 52.55 76.85 L53.9 79.8 Q53.9 80.6 54.15 80.85 L54.9 81.3 62.65 82.55 62.9 82.8 57.8 81.9 52.6 81.1 M51.85 71.7 L53.3 71.65 58.3 72.1 63.3 72.65 66.8 72.95 Q70.2 73.2 72.05 74.65 L72.25 75.35 Q72.1 78.55 73.45 81.3 L68.95 78.9 Q65.65 77.1 64.5 76.8 L58.65 75.4 56.5 74.8 Q55.7 74.4 54.05 73.2 L51.85 71.7 M73.85 82.0 L75.55 84.25 65.05 83.15 63.1 82.8 73.9 82.8 73.85 82.0 M0.9 42.65 L0.45 42.3 Q-0.4 42.15 -0.85 42.55 -0.85 43.25 0.2 43.4 0.55 43.3 0.9 42.65 M37.75 70.4 L37.65 73.4 Q37.65 75.65 38.4 76.8 L42.05 77.2 44.65 77.4 44.9 76.5 41.45 73.05 Q38.95 70.5 37.75 70.4 M71.9 75.75 L71.85 74.95 71.5 74.8 69.75 74.65 Q68.6 75.05 67.15 76.3 L67.9 77.8 70.0 77.8 Q71.45 77.4 71.8 76.65 L71.9 75.75 M-37.85 47.9 L-37.7 47.35 Q-36.7 44.25 -35.2 41.35 -34.65 40.2 -33.75 39.35 L-33.25 39.1 Q-28.0 38.85 -22.75 38.85 L-16.75 38.65 -15.7 38.45 Q-13.4 37.75 -13.4 39.35 -13.4 40.9 -14.15 42.4 L-16.55 47.15 -22.75 47.15 -34.7 47.55 -37.85 47.9 M-37.1 39.65 Q-38.6 39.4 -40.1 40.15 -40.8 40.5 -43.3 42.3 L-46.7 44.3 -46.6 44.1 -46.6 43.25 Q-46.6 42.45 -46.9 42.3 L-47.8 42.15 Q-49.35 43.4 -49.35 44.25 -49.35 45.5 -49.1 44.8 L-47.8 44.9 -47.5 44.8 Q-49.85 46.3 -49.85 46.8 -49.85 47.25 -48.3 48.4 L-43.5 47.7 Q-39.6 46.9 -39.6 45.5 -39.6 44.9 -40.05 45.05 -40.55 45.2 -40.55 44.55 L-39.25 42.85 Q-37.75 41.05 -37.1 39.65 M-30.95 41.8 L-32.55 39.8 Q-33.55 40.3 -34.75 42.6 -35.85 44.75 -35.85 45.75 -35.85 47.0 -35.6 46.3 L-34.1 46.8 -30.8 46.9 -22.6 46.4 Q-22.9 45.75 -24.05 45.35 L-28.6 44.55 -30.95 41.8 M-50.4 49.8 L-51.05 47.3 -51.35 45.35 Q-51.6 42.6 -50.45 40.5 -50.25 40.1 -49.7 40.0 -43.3 38.6 -36.25 38.85 -38.75 43.15 -39.45 48.1 L-41.75 48.35 Q-46.25 48.4 -50.4 49.8 M-27.8 42.65 L-28.2 42.7 -28.35 43.55 Q-28.35 44.8 -28.1 44.3 L-27.05 44.3 -26.1 43.15 -27.1 42.75 -27.8 42.65 M-0.65 39.95 L-1.05 39.8 -3.8 39.65 Q-4.85 40.2 -4.85 41.35 L-4.8 42.15 -4.6 42.3 -1.8 42.4 -0.95 41.9 Q-0.6 41.6 -0.6 40.75 L-0.65 39.95 M-56.6 52.95 L-56.65 52.8 Q-57.15 51.4 -58.15 49.8 -59.7 47.4 -61.25 45.85 L-61.55 45.3 -61.65 44.3 Q-60.05 43.2 -58.3 42.25 L-57.7 41.9 Q-55.8 40.4 -53.25 40.15 L-52.75 39.85 Q-53.95 45.5 -52.5 50.55 -54.7 51.5 -56.6 52.95 M-60.8 50.8 Q-62.7 49.4 -64.3 49.4 L-64.3 49.3 -64.35 50.15 -62.5 53.7 Q-60.7 56.7 -60.1 57.3 -59.65 56.85 -59.1 55.4 L-58.65 54.0 -58.25 54.65 Q-58.65 55.4 -58.7 56.35 L-59.0 60.9 Q-60.0 58.5 -61.5 56.2 L-61.9 55.4 -62.3 54.9 Q-66.6 51.95 -64.75 46.35 -62.9 47.95 -60.8 50.8 M-56.2 44.75 L-56.35 47.75 -56.1 51.3 -53.1 50.8 -53.6 46.0 -54.05 41.8 Q-55.8 43.25 -56.2 44.75 M-58.8 45.15 L-59.2 45.4 -59.35 46.5 -59.3 47.45 -59.1 47.8 -57.8 47.9 -57.1 47.15 Q-57.1 45.65 -57.55 45.3 L-58.8 45.15 M-63.3 74.5 L-62.9 71.85 Q-62.6 69.6 -63.55 67.75 L-63.75 66.85 Q-63.6 64.45 -64.2 62.35 L-64.6 60.35 -64.75 58.35 Q-61.8 58.3 -60.55 61.25 L-60.3 61.8 Q-61.1 60.8 -62.8 60.4 L-62.85 61.55 -62.3 64.55 Q-61.7 67.2 -61.6 68.3 -60.05 67.35 -59.7 66.45 L-59.6 64.6 Q-59.6 63.6 -59.75 62.95 L-59.2 64.05 -59.45 67.75 Q-59.55 69.0 -60.25 70.05 L-63.3 74.5 M-78.6 74.15 L-79.8 74.0 Q-80.35 74.0 -80.35 74.75 -80.35 76.0 -80.1 75.3 L-78.55 75.3 -78.1 74.9 -78.6 74.15 M-86.5 75.75 Q-81.9 74.25 -78.25 71.85 -77.4 72.25 -77.5 73.85 -77.9 78.3 -79.3 82.35 L-80.05 84.1 Q-87.45 86.0 -95.15 86.7 -94.0 85.8 -93.1 84.2 -91.95 82.2 -91.05 81.3 -90.1 80.35 -86.35 78.7 L-81.55 76.8 Q-81.1 76.4 -81.1 75.65 L-82.1 75.25 -82.8 75.15 -86.5 75.75 M-78.35 83.65 L-78.05 81.85 -77.8 80.85 Q-76.55 77.8 -76.5 74.35 L-76.5 73.35 Q-76.5 70.85 -74.85 70.1 L-73.65 69.5 Q-70.0 67.35 -67.7 65.45 -66.2 64.2 -65.7 66.35 -65.2 68.25 -65.05 70.35 L-65.0 72.35 -65.15 73.85 -65.65 77.65 -66.0 78.15 Q-69.6 80.85 -73.85 82.25 L-78.35 83.65 M-71.55 70.2 L-74.05 72.3 Q-75.85 73.9 -75.85 77.15 L-75.85 79.05 -76.5 79.7 Q-76.85 80.05 -76.85 80.8 L-76.8 81.7 -76.3 81.8 Q-68.1 73.05 -68.1 69.55 -68.1 68.75 -68.3 68.7 L-68.55 68.8 Q-69.95 69.0 -71.55 70.2 M-144.15 86.1 Q-144.0 83.95 -142.35 82.25 -139.4 79.15 -136.3 76.8 L-135.7 76.55 -134.15 76.05 -133.25 75.75 Q-127.3 74.4 -120.75 74.85 -122.05 80.3 -125.2 85.35 L-126.1 86.85 -144.15 86.1 M-124.8 86.9 Q-123.0 84.9 -121.9 82.75 L-119.55 78.45 Q-118.35 76.35 -117.1 75.55 L-116.25 75.35 -106.7 76.15 -104.25 76.35 -95.75 76.1 -95.25 75.85 Q-97.05 80.45 -99.8 84.8 L-101.05 86.95 -124.8 86.9 M-97.75 86.85 L-96.3 84.3 -95.7 82.85 Q-95.5 82.35 -95.45 81.85 L-94.95 79.75 -94.7 78.85 Q-94.6 77.0 -92.75 77.1 L-92.2 77.05 -91.25 76.9 Q-93.75 77.95 -94.45 79.8 L-95.3 83.1 -95.95 86.55 -95.5 86.75 -96.5 86.8 -97.75 86.85 M-142.95 84.15 L-142.7 85.05 -142.2 85.3 -131.95 85.4 -131.7 84.65 Q-131.9 84.45 -132.6 84.2 L-133.2 84.05 -133.35 84.0 Q-133.55 83.85 -133.55 83.1 -133.55 82.75 -132.6 81.6 L-131.7 80.3 Q-131.7 79.75 -130.7 78.65 -129.7 77.55 -129.7 76.75 L-129.75 75.95 -130.05 75.8 Q-133.55 75.65 -138.35 78.95 -142.95 82.1 -142.95 84.15 M-121.95 85.25 Q-121.95 86.0 -121.7 86.0 L-120.8 85.9 Q-111.25 80.65 -106.05 78.3 -105.7 77.9 -105.7 77.15 L-106.05 76.8 -109.95 76.75 -112.55 76.3 -117.3 76.15 -118.95 80.55 Q-119.4 81.85 -120.8 83.35 -121.95 84.65 -121.95 85.25 M-130.6 82.35 Q-130.95 82.6 -130.95 83.35 L-130.9 84.15 -130.7 84.3 -129.3 84.4 -128.7 83.8 Q-128.7 82.65 -129.05 82.3 L-130.3 82.15 -130.6 82.35 M-89.8 83.4 Q-89.35 83.25 -89.2 82.65 L-90.4 82.3 -90.95 82.3 -90.95 82.9 Q-90.7 83.3 -89.8 83.4 M-85.0 79.6 L-85.55 79.3 -86.8 79.15 -88.75 80.4 Q-89.45 80.9 -89.45 81.55 -89.45 82.8 -89.2 82.3 -88.55 82.4 -88.2 82.8 L-86.05 82.3 Q-84.7 80.85 -84.7 80.6 -84.7 79.85 -85.0 79.6 M-111.25 83.15 L-111.05 83.3 -110.05 83.3 Q-109.7 82.9 -109.7 82.15 L-110.05 81.8 -111.3 81.9 -111.35 81.65 -111.45 82.35 Q-111.45 83.1 -111.25 83.15 M-103.2 80.3 L-103.25 79.2 -103.55 78.8 -106.3 78.65 -107.45 80.15 -107.95 81.15 -107.7 82.05 -107.2 82.3 -104.8 82.4 Q-103.55 82.1 -103.25 81.45 L-103.2 80.3" fill="#ebc905" fill-rule="evenodd" stroke="none"/>
    <path d="M-49.45 37.3 L-41.3 35.9 -44.1 35.8 -46.2 33.65 -48.85 30.9 Q-47.05 28.35 -35.8 25.9 L-35.8 25.65 -34.05 25.75 -31.9 28.45 Q-30.1 30.8 -30.1 31.4 -30.1 33.45 -32.55 34.8 L-35.0 35.0 -34.6 35.1 -29.4 35.45 -29.85 34.15 Q-29.85 31.7 -25.35 31.4 -23.8 31.35 -22.55 32.55 -21.6 33.5 -21.6 34.1 -21.6 34.9 -22.05 35.2 L-22.8 35.4 -23.9 35.5 -24.65 35.55 -49.45 37.3" fill="#8d070b" fill-rule="evenodd" stroke="none"/>
    <path d="M-152.8 38.45 L-150.85 39.95 Q-149.45 41.0 -149.0 42.85 -148.2 46.1 -149.95 48.8 L-148.55 50.65 -147.75 52.35 -144.7 50.45 -140.2 50.55 Q-138.55 50.8 -137.1 51.8 -132.2 55.3 -134.65 60.9 -134.9 62.7 -133.3 63.5 -132.25 64.0 -132.4 65.25 -132.65 67.25 -134.45 68.6 -135.2 69.1 -136.05 69.25 -140.75 70.65 -145.75 70.35 L-145.55 72.6 Q-147.05 73.25 -146.85 74.85 L-146.7 76.4 -146.8 77.1 -147.2 77.45 Q-147.2 78.4 -147.7 79.05 -150.45 82.8 -154.45 85.4 L-158.35 85.05 Q-165.35 84.2 -171.4 80.95 -176.05 78.4 -177.45 73.3 -178.95 67.7 -177.25 62.2 -176.3 59.1 -175.85 56.15 -172.2 55.25 -171.5 51.55 -170.8 47.8 -168.5 45.1 -162.85 38.5 -154.0 38.4 L-152.8 38.45 M-154.55 47.8 L-155.8 47.65 Q-157.45 48.8 -157.45 50.05 L-157.2 51.35 -156.7 52.3 -155.05 52.3 Q-153.7 50.65 -153.7 49.65 -153.7 48.85 -154.0 48.4 L-154.55 47.8 M-158.25 49.4 L-158.2 48.65 Q-158.4 48.45 -158.9 48.25 L-159.3 48.15 -159.6 48.35 Q-159.95 48.6 -159.95 49.35 L-159.7 50.3 -158.8 50.4 -158.2 49.8 -158.25 49.4 M-158.05 42.3 L-159.8 42.15 Q-161.65 43.15 -162.15 44.0 -162.45 44.45 -162.45 45.55 L-162.35 46.85 -161.7 47.8 -159.8 47.9 Q-158.1 46.65 -157.8 45.85 L-157.7 44.0 -157.75 42.8 -158.05 42.3 M-136.35 60.7 L-136.55 60.8 -139.8 60.65 -144.4 64.95 Q-146.95 67.35 -146.95 67.75 -146.95 69.0 -146.7 68.3 L-145.55 68.3 Q-144.8 67.65 -139.9 64.95 -136.2 62.85 -136.2 61.55 -136.2 60.75 -136.35 60.7 M-139.4 57.95 L-139.8 58.15 -139.4 57.85 -139.4 57.95 M-136.8 55.05 L-137.55 53.8 Q-140.05 55.05 -142.1 57.05 -144.45 59.35 -144.45 61.05 -144.45 62.3 -144.2 61.8 -136.2 58.3 -136.2 56.6 -136.2 56.2 -136.8 55.05 M-150.7 57.2 Q-152.45 57.9 -153.55 59.1 -153.8 59.4 -154.2 59.55 L-155.3 59.45 -155.7 56.6 -161.1 55.0 -160.0 53.1 -160.05 51.35 Q-161.6 50.25 -163.3 51.7 -165.0 53.15 -165.15 55.3 L-164.6 56.55 Q-168.25 57.4 -169.7 61.0 -170.1 62.1 -170.0 63.35 -169.65 68.35 -166.25 71.9 L-163.8 73.35 Q-160.7 74.3 -158.2 71.85 L-157.75 71.6 -155.1 71.75 -154.75 71.35 Q-157.5 69.0 -155.95 65.6 -155.45 64.5 -154.5 63.7 L-151.85 62.95 -151.65 61.0 Q-149.1 59.85 -147.7 62.2 L-147.35 63.05 -147.05 63.8 -146.25 63.85 Q-143.95 59.95 -147.7 57.5 -149.1 56.6 -150.7 57.2 M-156.7 74.15 L-157.05 73.8 -160.6 75.35 Q-162.95 76.4 -164.5 76.4 L-165.65 75.3 -167.05 73.8 -170.7 74.3 -173.95 75.05 Q-173.25 77.1 -170.75 79.35 -168.0 81.8 -165.7 81.8 -165.15 81.8 -161.55 78.9 -157.75 75.85 -156.7 74.15 M-153.25 64.85 L-153.45 66.4 Q-153.45 67.95 -152.3 69.3 -147.7 65.05 -147.7 64.55 -147.7 63.75 -147.85 63.7 L-148.05 63.8 -151.8 63.15 Q-152.9 64.0 -153.25 64.85 M-175.45 71.15 Q-174.75 72.4 -173.8 72.4 -171.7 72.4 -170.35 71.4 -169.2 70.6 -169.2 69.75 L-169.25 68.95 -169.55 68.8 -175.3 68.65 -175.6 68.75 Q-175.95 68.9 -175.95 69.65 L-175.45 71.15" fill="#ff0000" fill-rule="evenodd" stroke="none"/>
    <path d="M166.0 65.8 Q164.7 65.85 162.9 67.15 L161.9 68.0 Q161.15 68.7 161.15 69.25 L161.2 69.9 159.95 69.75 159.65 70.55 158.75 72.3 Q158.3 73.1 158.2 73.45 L158.15 73.55 Q158.15 74.8 158.4 74.35 L158.4 74.3 Q159.95 73.8 160.8 72.45 L161.9 70.15 161.4 69.95 161.4 69.9 161.85 70.1 162.1 70.2 163.2 70.3 Q164.5 70.3 165.55 68.85 166.4 67.6 166.4 66.75 L166.35 65.95 166.0 65.8 M167.6 73.8 L168.75 73.9 169.75 73.8 170.15 73.65 170.35 73.3 170.4 72.55 Q170.4 71.75 170.2 71.7 L170.0 71.8 Q169.5 71.7 168.4 72.45 L167.15 73.4 167.6 73.8 M162.6 73.1 L162.3 73.3 Q160.15 74.9 160.15 77.1 160.15 78.4 160.4 78.8 L161.5 78.8 163.4 76.55 Q164.4 75.25 164.4 74.3 164.4 71.9 162.6 73.1 M-152.8 38.45 Q-151.05 38.65 -149.4 39.65 -144.65 42.25 -141.5 46.6 L-135.25 45.35 -134.7 46.15 -135.15 48.7 Q-130.6 49.95 -125.75 49.85 L-122.9 50.65 Q-113.25 53.1 -103.45 50.95 -104.8 44.05 -101.45 37.85 -98.5 32.3 -92.75 29.75 -85.6 26.4 -78.25 24.25 -68.35 21.45 -58.3 19.65 -45.55 17.35 -32.45 17.4 L-15.3 17.4 7.75 18.75 Q17.15 20.05 26.35 22.65 31.65 24.15 36.6 26.55 45.2 30.8 50.9 38.5 49.55 41.0 49.35 43.85 49.25 45.0 49.75 45.9 51.6 49.45 55.85 50.45 L69.65 53.65 86.0 56.45 Q95.2 58.0 103.95 55.0 L110.15 52.95 Q119.5 49.95 129.4 49.8 L143.05 49.5 Q150.35 49.15 157.45 50.65 167.4 52.75 174.1 60.25 176.15 62.5 177.15 65.25 L177.9 67.9 177.3 69.85 Q176.65 73.1 174.4 75.9 L173.65 76.7 Q172.55 77.85 171.8 79.35 L171.2 80.25 169.9 81.5 Q167.25 84.1 162.7 86.15 L162.05 86.6 Q160.95 87.65 159.35 88.0 158.8 88.1 158.35 88.45 155.75 90.55 150.85 91.55 L150.25 91.7 148.85 92.0 139.35 91.75 138.25 91.45 135.8 90.95 134.35 90.65 129.8 89.8 125.2 90.1 123.8 90.5 Q121.5 90.85 118.75 91.75 L116.35 92.65 Q111.9 93.05 108.45 96.0 L111.0 92.4 Q111.75 91.4 112.75 90.65 118.0 86.5 124.75 86.65 132.05 86.8 139.05 89.0 141.35 89.65 143.85 89.05 152.0 87.35 155.0 79.7 L155.65 76.9 Q155.75 76.15 155.35 75.75 156.7 73.75 157.5 71.65 L158.15 68.85 Q158.35 67.4 157.55 66.4 156.0 64.55 154.1 63.55 153.05 62.95 151.85 62.6 L151.55 62.5 148.8 62.1 146.05 61.95 Q139.15 61.65 132.35 63.05 125.7 64.45 119.55 66.85 L121.9 64.65 120.7 64.25 119.75 64.15 Q118.15 64.95 117.6 65.45 117.15 65.85 117.15 66.35 L117.2 67.15 117.4 67.3 118.35 67.3 117.35 67.7 Q116.45 68.1 115.75 68.75 113.95 70.15 111.7 70.8 L106.45 71.9 104.35 72.15 101.55 72.25 94.8 72.35 87.3 72.15 78.75 71.3 74.45 70.7 67.9 69.55 61.0 68.1 55.8 67.05 Q46.7 65.55 37.85 62.45 35.2 61.55 33.0 60.05 32.0 59.35 31.5 58.25 31.1 57.45 31.1 56.5 31.1 54.3 31.5 52.25 32.05 49.6 31.9 46.9 31.7 44.05 29.5 41.8 24.25 36.4 16.7 35.95 L6.2 35.05 Q-3.65 34.35 -13.3 34.7 L-15.75 35.15 -21.6 35.5 -23.55 35.55 -24.55 35.55 -24.65 35.55 -23.9 35.5 -22.8 35.4 -22.05 35.2 Q-21.6 34.9 -21.6 34.1 -21.6 33.5 -22.55 32.55 -23.8 31.35 -25.35 31.4 -29.85 31.7 -29.85 34.15 L-29.4 35.45 -34.6 35.1 -35.0 35.0 -32.55 34.8 Q-30.1 33.45 -30.1 31.4 -30.1 30.8 -31.9 28.45 L-34.05 25.75 -35.8 25.65 -35.8 25.9 Q-47.05 28.35 -48.85 30.9 L-46.2 33.65 -44.1 35.8 -41.3 35.9 -49.45 37.3 -54.6 38.1 -55.9 38.3 Q-63.0 39.55 -67.7 44.9 -68.65 45.9 -68.8 47.35 -68.85 48.0 -69.2 48.55 L-66.5 53.5 -65.65 55.0 -65.7 55.9 Q-66.05 60.6 -68.9 64.35 L-70.25 65.95 -73.95 68.9 -74.5 69.25 -75.6 69.65 -87.25 72.65 Q-93.3 74.15 -99.65 73.9 L-100.0 74.35 -113.7 73.65 -120.05 73.0 -121.3 72.8 -124.45 72.5 -125.4 72.35 -126.8 72.4 -132.5 73.1 -132.7 73.1 -137.75 73.4 Q-142.15 73.05 -145.0 76.15 -145.65 76.85 -145.8 77.85 -145.9 78.7 -146.3 79.65 -146.8 80.75 -147.65 81.7 -149.25 83.55 -149.05 85.8 L-154.45 85.4 Q-150.45 82.8 -147.7 79.05 -147.2 78.4 -147.2 77.45 L-146.8 77.1 -146.7 76.4 -146.85 74.85 Q-147.05 73.25 -145.55 72.6 L-145.75 70.35 Q-140.75 70.65 -136.05 69.25 -135.2 69.1 -134.45 68.6 -132.65 67.25 -132.4 65.25 -132.25 64.0 -133.3 63.5 -134.9 62.7 -134.65 60.9 -132.2 55.3 -137.1 51.8 -138.55 50.8 -140.2 50.55 L-144.7 50.45 -147.75 52.35 -148.55 50.65 -149.95 48.8 Q-148.2 46.1 -149.0 42.85 -149.45 41.0 -150.85 39.95 L-152.8 38.45 M118.15 60.55 Q118.15 61.35 118.5 61.85 L119.4 62.8 122.25 62.9 Q124.35 62.9 125.75 61.65 126.9 60.7 126.9 59.8 L126.85 58.7 126.5 58.3 122.25 57.65 Q121.1 58.2 120.1 58.8 118.15 59.95 118.15 60.55 M115.25 60.55 Q116.4 59.75 116.4 59.05 116.4 58.25 116.2 58.2 L116.0 58.3 Q109.65 57.7 109.65 60.15 109.65 60.9 109.9 61.05 L110.4 61.3 112.75 61.4 Q114.05 61.4 115.25 60.55 M164.0 79.8 L162.75 79.65 Q161.3 80.6 160.4 81.35 158.65 82.8 158.65 83.85 L158.7 84.65 158.9 84.8 160.25 84.9 Q163.2 83.35 163.9 82.55 164.4 82.05 164.4 80.9 L164.35 80.0 164.0 79.8 M167.9 78.3 L167.9 77.15 166.7 76.75 165.75 76.65 165.45 76.85 Q165.15 77.1 165.15 77.85 165.15 78.7 165.4 78.8 L166.25 78.9 Q167.45 78.3 167.9 78.3 M119.4 53.15 L119.0 52.8 109.9 54.85 Q103.65 56.2 103.65 58.35 L103.7 59.15 103.9 59.3 Q106.7 58.3 113.6 56.3 119.2 54.5 119.4 53.15 M116.4 63.8 L116.25 63.05 Q114.25 61.55 113.05 62.55 112.15 63.3 112.15 64.5 L112.2 65.45 112.4 65.8 113.75 65.9 Q115.65 64.75 116.4 63.8 M109.25 66.65 L107.9 67.7 Q107.15 68.35 107.15 68.75 107.15 70.0 107.4 69.3 L108.65 69.55 108.85 69.8 109.75 69.9 Q110.9 69.9 112.4 69.05 113.9 68.2 113.9 67.55 113.9 66.75 113.7 66.7 L113.5 66.8 109.25 66.65 M109.45 63.75 L108.75 63.65 Q107.85 64.05 107.15 64.9 L107.4 65.3 109.5 65.3 110.4 64.15 109.45 63.75 M82.4 68.9 Q82.15 68.35 81.0 67.8 L77.75 67.65 Q76.65 68.1 76.65 69.35 L76.7 70.15 76.9 70.3 79.25 70.4 Q80.5 70.4 81.25 69.9 L82.4 68.9 M88.0 58.7 L85.9 58.55 74.3 57.4 Q72.2 56.7 69.75 56.65 L69.3 56.7 Q69.15 56.75 69.15 57.55 69.15 58.8 69.4 58.3 L75.25 59.45 81.15 60.55 84.8 60.8 88.25 60.9 Q89.7 60.5 90.4 59.15 L88.0 58.7 M93.75 61.4 L94.5 61.2 94.6 61.1 95.45 61.3 97.05 60.65 98.9 59.65 97.95 59.25 97.25 59.15 Q96.0 59.6 94.8 60.75 L94.9 60.1 Q94.9 59.35 94.6 59.1 L94.0 58.8 92.25 58.65 90.25 59.75 Q89.15 60.45 89.15 61.05 89.15 62.3 89.4 61.8 L90.75 61.9 93.75 61.4 M152.25 59.9 Q153.95 59.9 156.65 61.45 160.0 63.3 160.0 65.65 L160.0 65.8 159.85 67.15 Q159.75 67.9 159.9 68.3 L160.75 68.15 161.2 66.3 Q162.4 61.1 162.4 60.3 162.4 58.35 157.65 57.45 152.6 56.55 150.15 59.4 150.4 59.8 152.25 59.9 M129.25 60.15 L127.4 60.8 Q126.65 61.45 126.65 61.9 126.9 62.3 129.25 62.4 129.95 62.1 130.9 60.65 L129.95 60.25 129.25 60.15 M158.8 75.9 L159.4 75.15 159.0 74.8 158.5 74.85 Q158.05 74.9 157.6 75.1 156.65 75.5 156.65 76.25 156.65 77.0 156.9 77.0 L157.75 76.9 158.8 75.9 M46.0 35.8 Q44.7 35.5 43.95 35.05 L42.75 34.4 42.65 35.15 Q42.85 35.9 44.15 37.4 L45.65 39.3 46.2 41.55 Q46.5 42.95 46.9 43.8 47.75 43.65 47.9 43.3 L47.3 39.55 Q46.9 37.55 46.0 35.8 M40.85 49.45 L40.5 49.3 38.75 49.15 Q37.8 49.45 36.7 51.95 35.65 54.3 35.65 55.55 35.65 56.8 35.9 56.3 L36.5 56.3 Q37.25 55.7 37.65 54.6 L38.15 53.3 40.25 51.3 40.9 50.25 40.85 49.45 M43.9 44.8 L43.85 43.75 43.75 43.65 Q41.65 43.05 39.8 44.45 38.15 45.7 38.15 47.0 L38.2 47.95 38.4 48.3 Q41.05 47.6 42.3 46.9 43.9 46.0 43.9 44.8 M9.2 22.15 L8.7 22.25 8.65 23.4 2.9 23.75 2.8 23.55 Q2.65 23.5 2.65 24.3 2.65 25.05 2.85 25.1 L3.4 25.25 21.25 31.9 Q25.05 33.35 28.0 36.85 L31.5 40.8 Q32.55 38.95 32.8 36.25 L32.9 32.15 32.65 30.45 32.4 29.15 32.3 27.35 Q32.05 26.65 31.0 25.75 L24.65 23.85 Q21.05 22.7 9.2 22.15 M34.25 30.15 L33.65 30.25 33.65 33.55 34.25 35.0 Q34.55 35.9 35.75 35.9 36.8 35.9 37.4 34.8 37.9 33.9 37.9 32.9 37.9 32.15 36.0 30.25 L34.25 30.15 M38.15 60.3 Q38.15 61.05 38.75 61.4 L41.3 62.05 41.4 62.1 41.9 62.8 43.25 62.9 Q43.75 62.65 45.5 62.3 46.95 61.8 46.95 60.7 L47.4 60.15 46.9 60.1 46.85 59.5 46.5 59.3 44.75 59.15 44.75 59.4 39.25 59.65 38.8 59.55 Q38.65 59.5 38.65 60.25 L38.65 60.45 38.15 60.3 M37.4 58.15 L36.15 58.0 Q35.65 58.0 35.65 58.75 35.65 60.0 35.9 59.3 L37.0 59.3 Q37.4 58.9 37.4 58.15 M38.4 57.05 L38.9 57.3 42.75 57.9 Q44.65 57.9 46.35 57.15 L49.5 55.8 50.25 54.95 50.4 53.75 50.1 52.35 49.5 51.3 43.3 51.55 Q38.15 52.7 38.15 56.15 38.15 56.9 38.4 57.05 M35.25 47.15 L34.15 48.5 Q33.65 49.4 33.65 50.0 L33.7 50.95 33.9 51.3 35.25 51.4 Q36.1 51.15 36.55 50.15 36.9 49.35 36.9 48.4 L36.85 47.5 36.5 47.3 35.25 47.15 M37.9 41.55 Q37.9 39.15 37.6 38.6 36.7 36.7 33.25 38.15 L33.15 39.35 Q33.15 41.2 34.9 46.3 L36.25 46.4 Q37.5 45.75 37.8 44.0 L37.9 41.55 M77.65 65.9 Q77.9 66.3 79.0 66.3 L79.9 65.15 Q78.4 65.05 77.65 65.9 M66.65 65.9 Q66.65 66.9 66.9 67.3 L71.55 67.7 75.25 67.9 Q75.4 68.35 75.4 67.1 75.4 65.7 73.75 65.9 L72.25 65.9 Q74.15 65.25 74.4 64.65 L72.95 64.25 71.75 64.15 71.3 64.2 Q71.15 64.25 71.15 65.05 71.15 65.85 71.4 65.9 L66.65 65.9 M61.5 65.4 L65.15 65.55 65.4 65.8 68.5 65.8 69.4 64.65 Q63.6 63.8 59.0 61.3 57.85 60.7 57.05 59.8 L55.9 58.5 Q54.8 57.5 51.4 58.8 L50.95 60.0 Q50.65 60.8 50.65 61.6 50.65 62.9 50.9 63.3 L54.25 64.1 57.65 65.05 61.5 65.4 M-22.85 29.75 Q-22.85 30.55 -22.5 30.85 L-21.6 31.25 -20.3 31.4 -18.05 30.75 -17.65 30.75 -17.6 30.05 -17.7 29.2 -17.85 29.25 Q-19.35 28.2 -20.8 27.75 -22.35 27.9 -22.7 28.6 L-22.85 29.75 M-22.6 27.4 Q-22.85 26.85 -23.55 26.25 L-26.5 26.35 -29.1 26.75 -29.65 27.0 Q-29.85 27.1 -29.85 27.85 L-29.4 29.15 -28.6 29.75 -26.3 29.9 Q-24.55 29.25 -22.6 27.4 M-18.3 34.1 L-17.35 34.3 Q-16.55 34.3 -15.6 33.55 -14.6 32.8 -14.6 32.05 -14.6 31.25 -14.8 31.2 L-15.05 31.25 -16.3 31.15 Q-18.0 31.3 -18.55 32.0 -18.85 32.4 -18.85 33.15 -18.85 34.4 -18.3 33.9 L-18.3 34.1 M-13.85 29.9 Q-13.85 30.5 -13.3 30.75 L-12.6 30.15 -13.45 29.9 -13.85 29.9 M-78.1 28.15 L-78.55 27.75 Q-79.75 27.75 -83.95 29.75 -88.45 31.9 -88.45 33.05 -88.45 34.3 -88.2 33.8 -86.3 33.0 -83.25 31.2 L-78.1 28.15 M-68.8 34.4 Q-67.55 34.4 -68.1 33.8 -68.55 30.6 -59.05 28.5 -47.65 25.95 -46.6 25.15 -59.05 24.15 -61.7 24.95 -63.7 26.4 -68.3 27.15 -69.9 27.4 -73.65 29.5 -77.35 31.55 -77.35 32.15 L-77.3 32.85 -79.3 32.65 Q-80.3 32.65 -81.6 33.25 -83.35 34.1 -83.35 35.35 L-83.3 36.15 -83.1 36.3 -77.8 36.4 Q-76.6 36.4 -74.1 34.4 L-75.05 33.3 -77.1 32.9 -77.1 32.8 Q-74.55 33.0 -71.65 33.75 L-68.8 34.4 M-48.6 19.15 Q-48.9 18.9 -49.6 18.75 L-50.3 18.65 -50.3 18.9 Q-57.9 20.5 -62.6 22.3 -64.9 23.15 -71.85 26.4 L-70.3 26.9 -58.4 22.95 Q-50.3 20.35 -48.6 19.15 M-73.25 48.1 L-71.8 49.4 Q-71.45 49.3 -71.1 48.65 L-72.1 47.7 -72.55 46.8 -78.85 46.65 Q-81.45 47.35 -82.85 48.4 L-78.3 48.9 Q-74.25 48.9 -73.25 48.1 M-77.3 40.05 L-80.7 39.05 Q-81.8 38.6 -82.55 39.3 -82.1 40.95 -79.25 43.0 -76.45 45.05 -74.8 45.05 L-73.8 44.85 -73.6 44.65 -73.55 43.35 Q-73.55 42.15 -74.2 41.55 -74.9 40.85 -77.3 40.05 M-71.8 38.05 Q-73.05 39.0 -73.05 41.1 L-72.8 43.65 Q-72.2 46.05 -70.55 46.05 L-69.4 45.75 -69.05 45.4 -69.05 39.05 Q-69.5 38.35 -70.3 38.05 L-71.8 38.05 M-49.8 36.9 L-48.35 35.85 -48.1 35.55 Q-48.1 35.1 -48.65 34.35 L-49.55 33.3 -50.8 33.15 -52.6 33.8 -53.5 34.65 Q-53.85 35.05 -53.85 35.85 L-53.8 36.65 -53.6 36.8 -49.8 36.9 M-69.1 52.8 L-70.55 51.3 Q-71.3 51.3 -71.35 51.8 L-69.8 53.4 -69.1 52.8 M-78.8 65.3 L-78.85 66.6 Q-78.85 67.25 -77.55 68.3 L-76.9 67.35 Q-76.6 66.85 -76.6 66.05 -76.6 65.25 -76.8 65.2 L-77.05 65.3 -78.3 65.25 -78.8 65.3 M-79.8 67.55 L-80.05 66.8 -81.3 66.65 -81.55 66.9 -81.85 67.3 -81.15 68.0 -80.3 68.9 -79.6 68.3 -79.8 67.55 M-76.55 63.8 L-76.1 63.4 -76.1 62.65 -77.1 62.25 -77.8 62.15 -78.2 62.2 -78.35 63.05 Q-78.35 64.3 -78.1 63.8 L-76.55 63.8 M-71.55 61.8 L-73.8 61.65 Q-74.05 61.9 -74.7 63.5 L-75.35 66.1 -75.3 67.1 -74.8 67.3 Q-73.4 67.15 -72.2 65.4 -71.1 63.8 -71.1 62.75 L-71.15 61.95 -71.55 61.8 M-92.3 39.9 L-91.3 38.15 Q-90.05 35.95 -90.05 34.8 -93.3 35.85 -94.1 38.45 -94.45 39.5 -94.45 43.25 L-94.2 48.3 -93.55 48.3 Q-92.6 46.9 -92.6 44.95 L-92.7 41.55 Q-92.6 40.45 -92.3 39.9 M-85.05 36.3 L-86.3 36.5 Q-86.95 36.75 -86.95 37.55 -86.95 38.8 -86.7 38.3 L-85.3 38.4 -84.7 37.8 Q-84.7 36.65 -85.05 36.3 M-88.2 29.05 Q-88.2 28.25 -88.35 28.2 L-88.55 28.25 Q-96.8 32.0 -100.35 38.7 -103.05 43.8 -102.95 50.3 L-101.8 50.4 Q-98.25 48.6 -97.35 45.25 -96.85 41.5 -96.2 39.9 -94.2 35.25 -91.0 31.75 L-88.2 29.05 M-126.0 55.6 Q-126.95 56.0 -126.95 56.75 L-126.7 57.5 -125.8 57.4 -124.2 55.65 -124.55 55.3 Q-125.25 55.25 -126.0 55.6 M-150.7 57.2 Q-149.1 56.6 -147.7 57.5 -143.95 59.95 -146.25 63.85 L-147.05 63.8 -147.35 63.05 -147.7 62.2 Q-149.1 59.85 -151.65 61.0 L-151.85 62.95 -154.5 63.7 Q-155.45 64.5 -155.95 65.6 -157.5 69.0 -154.75 71.35 L-155.1 71.75 -157.75 71.6 -158.2 71.85 Q-160.7 74.3 -163.8 73.35 L-166.25 71.9 Q-169.65 68.35 -170.0 63.35 -170.1 62.1 -169.7 61.0 -168.25 57.4 -164.6 56.55 L-165.15 55.3 Q-165.0 53.15 -163.3 51.7 -161.6 50.25 -160.05 51.35 L-160.0 53.1 -161.1 55.0 -155.7 56.6 -155.3 59.45 -154.2 59.55 Q-153.8 59.4 -153.55 59.1 -152.45 57.9 -150.7 57.2 M-161.7 59.3 L-162.2 59.85 -162.95 62.3 -163.75 64.85 Q-163.9 62.2 -163.4 59.8 -163.05 58.1 -164.2 57.95 L-165.75 58.75 Q-166.4 59.25 -166.5 60.35 L-166.5 60.85 -166.7 61.85 Q-167.9 64.8 -166.7 67.35 -165.65 69.6 -162.25 69.4 L-160.8 69.2 Q-159.85 69.0 -158.85 67.8 -156.8 65.35 -157.35 61.85 -157.85 58.9 -161.7 59.3 M-98.85 51.45 Q-99.45 51.9 -99.45 52.55 -99.45 53.8 -99.2 53.3 -97.9 53.1 -97.2 51.65 -98.15 50.95 -98.85 51.45 M-86.7 69.3 L-86.9 69.35 -86.95 70.05 Q-86.95 71.3 -86.7 70.8 L-84.8 70.9 -83.55 70.55 -82.3 70.4 -82.1 70.05 -82.1 69.25 -82.15 68.45 -82.55 68.3 -83.8 68.15 Q-85.3 68.9 -86.7 69.3 M-94.95 69.8 Q-94.2 71.4 -92.8 71.4 -90.3 71.4 -87.8 69.65 -85.7 68.15 -85.7 67.4 -85.7 66.4 -87.5 64.8 -89.3 63.2 -90.2 63.3 -91.4 63.4 -93.4 65.25 -95.45 67.15 -95.45 68.1 L-94.95 69.8 M-110.8 54.9 Q-110.35 54.75 -110.2 54.15 L-111.9 53.75 -120.3 53.65 -120.6 53.85 Q-120.95 54.1 -120.95 54.85 L-120.9 55.65 -120.7 55.8 -119.4 56.4 -118.1 56.8 Q-116.85 56.8 -117.2 56.4 -116.9 55.1 -114.45 54.9 L-110.8 54.9 M-105.7 55.8 L-103.8 55.9 -101.7 54.15 -103.15 53.75 -104.3 53.65 Q-105.95 53.4 -105.95 55.05 -105.95 56.3 -105.7 55.8" fill="#620000" fill-rule="evenodd" stroke="none"/>
    <path d="M162.6 73.1 Q164.4 71.9 164.4 74.3 164.4 75.25 163.4 76.55 L161.5 78.8 160.4 78.8 Q160.15 78.4 160.15 77.1 160.15 74.9 162.3 73.3 L162.6 73.1 M167.6 73.8 L167.15 73.4 168.4 72.45 Q169.5 71.7 170.0 71.8 L170.2 71.7 Q170.4 71.75 170.4 72.55 L170.35 73.3 170.15 73.65 169.75 73.8 168.75 73.9 167.6 73.8 M-149.05 85.8 Q-149.25 83.55 -147.65 81.7 -146.8 80.75 -146.3 79.65 -145.9 78.7 -145.8 77.85 -145.65 76.85 -145.0 76.15 -142.15 73.05 -137.75 73.4 L-132.7 73.1 -132.5 73.1 Q-142.3 75.4 -146.7 85.95 L-149.05 85.8 M-126.8 72.4 L-125.4 72.35 -124.45 72.5 -126.8 72.4 M-120.05 73.0 L-113.7 73.65 -100.0 74.35 -99.65 73.9 Q-93.3 74.15 -87.25 72.65 L-75.6 69.65 -74.5 69.25 Q-86.45 77.25 -102.65 75.3 L-103.0 74.9 -120.05 73.0 M-70.25 65.95 L-68.9 64.35 Q-66.05 60.6 -65.7 55.9 -65.55 57.35 -65.55 58.85 -65.55 60.45 -66.1 62.2 L-66.95 62.7 -70.25 65.95 M-66.5 53.5 L-69.2 48.55 Q-68.85 48.0 -68.8 47.35 -68.65 45.9 -67.7 44.9 -63.0 39.55 -55.9 38.3 -67.9 41.45 -66.5 53.5 M-21.6 35.5 L-15.75 35.15 -13.3 34.7 Q-3.65 34.35 6.2 35.05 L16.7 35.95 Q24.25 36.4 29.5 41.8 31.7 44.05 31.9 46.9 32.05 49.6 31.5 52.25 31.1 54.3 31.1 56.5 31.1 57.45 31.5 58.25 32.0 59.35 33.0 60.05 35.2 61.55 37.85 62.45 46.7 65.55 55.8 67.05 L61.0 68.1 67.9 69.55 74.45 70.7 Q62.9 70.55 51.4 68.85 L51.05 68.4 47.15 68.1 Q39.2 66.85 31.9 64.0 30.8 54.55 28.25 45.35 L28.05 43.95 28.25 42.4 Q27.2 41.1 25.6 40.7 2.6 35.3 -21.6 35.5 M106.45 71.9 L111.7 70.8 Q113.95 70.15 115.75 68.75 116.45 68.1 117.35 67.7 L118.35 67.3 117.4 67.3 117.2 67.15 117.15 66.35 Q117.15 65.85 117.6 65.45 118.15 64.95 119.75 64.15 L120.7 64.25 121.9 64.65 119.55 66.85 Q125.7 64.45 132.35 63.05 139.15 61.65 146.05 61.95 139.3 62.25 133.15 64.85 120.15 70.45 106.45 71.9 M151.55 62.5 L151.85 62.6 Q153.05 62.95 154.1 63.55 L151.55 62.5 M116.35 92.65 L118.75 91.75 Q121.5 90.85 123.8 90.5 L125.2 90.1 129.8 89.8 134.35 90.65 135.8 90.95 138.25 91.45 139.35 91.75 148.85 92.0 150.25 91.7 150.85 91.55 Q155.75 90.55 158.35 88.45 158.8 88.1 159.35 88.0 160.95 87.65 162.05 86.6 L162.7 86.15 Q167.25 84.1 169.9 81.5 L171.2 80.25 171.8 79.35 Q172.55 77.85 173.65 76.7 L174.4 75.9 Q176.65 73.1 177.3 69.85 L177.9 67.9 Q178.5 71.0 177.85 74.3 L176.25 80.7 Q175.0 84.85 172.1 88.15 168.2 92.45 162.6 93.7 155.05 95.5 147.35 95.05 L135.9 93.9 Q126.8 92.35 117.4 92.6 L116.35 92.65 M167.9 78.3 Q167.45 78.3 166.25 78.9 L165.4 78.8 Q165.15 78.7 165.15 77.85 165.15 77.1 165.45 76.85 L165.75 76.65 166.7 76.75 167.9 77.15 167.9 78.3 M164.0 79.8 L164.35 80.0 164.4 80.9 Q164.4 82.05 163.9 82.55 163.2 83.35 160.25 84.9 L158.9 84.8 158.7 84.65 158.65 83.85 Q158.65 82.8 160.4 81.35 161.3 80.6 162.75 79.65 L164.0 79.8 M115.25 60.55 Q114.05 61.4 112.75 61.4 L110.4 61.3 109.9 61.05 Q109.65 60.9 109.65 60.15 109.65 57.7 116.0 58.3 L116.2 58.2 Q116.4 58.25 116.4 59.05 116.4 59.75 115.25 60.55 M118.15 60.55 Q118.15 59.95 120.1 58.8 121.1 58.2 122.25 57.65 L126.5 58.3 126.85 58.7 126.9 59.8 Q126.9 60.7 125.75 61.65 124.35 62.9 122.25 62.9 L119.4 62.8 118.5 61.85 Q118.15 61.35 118.15 60.55 M109.45 63.75 L110.4 64.15 109.5 65.3 107.4 65.3 107.15 64.9 Q107.85 64.05 108.75 63.65 L109.45 63.75 M109.25 66.65 L113.5 66.8 113.7 66.7 Q113.9 66.75 113.9 67.55 113.9 68.2 112.4 69.05 110.9 69.9 109.75 69.9 L108.85 69.8 108.65 69.55 107.4 69.3 Q107.15 70.0 107.15 68.75 107.15 68.35 107.9 67.7 L109.25 66.65 M116.4 63.8 Q115.65 64.75 113.75 65.9 L112.4 65.8 112.2 65.45 112.15 64.5 Q112.15 63.3 113.05 62.55 114.25 61.55 116.25 63.05 L116.4 63.8 M129.25 60.15 L129.95 60.25 130.9 60.65 Q129.95 62.1 129.25 62.4 126.9 62.3 126.65 61.9 126.65 61.45 127.4 60.8 L129.25 60.15 M43.9 44.8 Q43.9 46.0 42.3 46.9 41.05 47.6 38.4 48.3 L38.2 47.95 38.15 47.0 Q38.15 45.7 39.8 44.45 41.65 43.05 43.75 43.65 L43.85 43.75 43.9 44.8 M40.85 49.45 L40.9 50.25 40.25 51.3 38.15 53.3 37.65 54.6 Q37.25 55.7 36.5 56.3 L35.9 56.3 Q35.65 56.8 35.65 55.55 35.65 54.3 36.7 51.95 37.8 49.45 38.75 49.15 L40.5 49.3 40.85 49.45 M37.9 41.55 L37.8 44.0 Q37.5 45.75 36.25 46.4 L34.9 46.3 Q33.15 41.2 33.15 39.35 L33.25 38.15 Q36.7 36.7 37.6 38.6 37.9 39.15 37.9 41.55 M35.25 47.15 L36.5 47.3 36.85 47.5 36.9 48.4 Q36.9 49.35 36.55 50.15 36.1 51.15 35.25 51.4 L33.9 51.3 33.7 50.95 33.65 50.0 Q33.65 49.4 34.15 48.5 L35.25 47.15 M38.4 57.05 Q38.15 56.9 38.15 56.15 38.15 52.7 43.3 51.55 L49.5 51.3 50.1 52.35 50.4 53.75 50.25 54.95 49.5 55.8 46.35 57.15 Q44.65 57.9 42.75 57.9 L38.9 57.3 38.4 57.05 M37.4 58.15 Q37.4 58.9 37.0 59.3 L35.9 59.3 Q35.65 60.0 35.65 58.75 35.65 58.0 36.15 58.0 L37.4 58.15 M38.15 60.3 L38.65 60.45 38.65 60.25 Q38.65 59.5 38.8 59.55 L39.25 59.65 44.75 59.4 44.75 59.15 46.5 59.3 46.85 59.5 46.9 60.1 47.4 60.15 46.95 60.7 Q46.95 61.8 45.5 62.3 43.75 62.65 43.25 62.9 L41.9 62.8 41.4 62.1 41.3 62.05 38.75 61.4 Q38.15 61.05 38.15 60.3 M-22.6 27.4 Q-24.55 29.25 -26.3 29.9 L-28.6 29.75 -29.4 29.15 -29.85 27.85 Q-29.85 27.1 -29.65 27.0 L-29.1 26.75 -26.5 26.35 -23.55 26.25 Q-22.85 26.85 -22.6 27.4 M-22.85 29.75 L-22.7 28.6 Q-22.35 27.9 -20.8 27.75 -19.35 28.2 -17.85 29.25 L-17.7 29.2 -17.6 30.05 -17.65 30.75 -18.05 30.75 -20.3 31.4 -21.6 31.25 -22.5 30.85 Q-22.85 30.55 -22.85 29.75 M-13.85 29.9 L-13.45 29.9 -12.6 30.15 -13.3 30.75 Q-13.85 30.5 -13.85 29.9 M-18.3 34.1 L-18.3 33.9 Q-18.85 34.4 -18.85 33.15 -18.85 32.4 -18.55 32.0 -18.0 31.3 -16.3 31.15 L-15.05 31.25 -14.8 31.2 Q-14.6 31.25 -14.6 32.05 -14.6 32.8 -15.6 33.55 -16.55 34.3 -17.35 34.3 L-18.3 34.1 M-71.8 38.05 L-70.3 38.05 Q-69.5 38.35 -69.05 39.05 L-69.05 45.4 -69.4 45.75 -70.55 46.05 Q-72.2 46.05 -72.8 43.65 L-73.05 41.1 Q-73.05 39.0 -71.8 38.05 M-77.3 40.05 Q-74.9 40.85 -74.2 41.55 -73.55 42.15 -73.55 43.35 L-73.6 44.65 -73.8 44.85 -74.8 45.05 Q-76.45 45.05 -79.25 43.0 -82.1 40.95 -82.55 39.3 -81.8 38.6 -80.7 39.05 L-77.3 40.05 M-73.25 48.1 Q-74.25 48.9 -78.3 48.9 L-82.85 48.4 Q-81.45 47.35 -78.85 46.65 L-72.55 46.8 -72.1 47.7 -71.1 48.65 Q-71.45 49.3 -71.8 49.4 L-73.25 48.1 M-49.8 36.9 L-53.6 36.8 -53.8 36.65 -53.85 35.85 Q-53.85 35.05 -53.5 34.65 L-52.6 33.8 -50.8 33.15 -49.55 33.3 -48.65 34.35 Q-48.1 35.1 -48.1 35.55 L-48.35 35.85 -49.8 36.9 M-69.1 52.8 L-69.8 53.4 -71.35 51.8 Q-71.3 51.3 -70.55 51.3 L-69.1 52.8 M-71.55 61.8 L-71.15 61.95 -71.1 62.75 Q-71.1 63.8 -72.2 65.4 -73.4 67.15 -74.8 67.3 L-75.3 67.1 -75.35 66.1 -74.7 63.5 Q-74.05 61.9 -73.8 61.65 L-71.55 61.8 M-76.55 63.8 L-78.1 63.8 Q-78.35 64.3 -78.35 63.05 L-78.2 62.2 -77.8 62.15 -77.1 62.25 -76.1 62.65 -76.1 63.4 -76.55 63.8 M-79.8 67.55 L-79.6 68.3 -80.3 68.9 -81.15 68.0 -81.85 67.3 -81.55 66.9 -81.3 66.65 -80.05 66.8 -79.8 67.55 M-78.8 65.3 L-78.3 65.25 -77.05 65.3 -76.8 65.2 Q-76.6 65.25 -76.6 66.05 -76.6 66.85 -76.9 67.35 L-77.55 68.3 Q-78.85 67.25 -78.85 66.6 L-78.8 65.3 M-94.95 69.8 L-95.45 68.1 Q-95.45 67.15 -93.4 65.25 -91.4 63.4 -90.2 63.3 -89.3 63.2 -87.5 64.8 -85.7 66.4 -85.7 67.4 -85.7 68.15 -87.8 69.65 -90.3 71.4 -92.8 71.4 -94.2 71.4 -94.95 69.8 M-86.7 69.3 Q-85.3 68.9 -83.8 68.15 L-82.55 68.3 -82.15 68.45 -82.1 69.25 -82.1 70.05 -82.3 70.4 -83.55 70.55 -84.8 70.9 -86.7 70.8 Q-86.95 71.3 -86.95 70.05 L-86.9 69.35 -86.7 69.3" fill="#950000" fill-rule="evenodd" stroke="none"/>
    <path d="M-132.5 73.1 L-126.8 72.4 -124.45 72.5 -121.3 72.8 -120.05 73.0 -103.0 74.9 -102.65 75.3 Q-86.45 77.25 -74.5 69.25 L-73.95 68.9 -70.25 65.95 -66.95 62.7 -66.1 62.2 Q-65.55 60.45 -65.55 58.85 -65.55 57.35 -65.7 55.9 L-65.65 55.0 -66.5 53.5 Q-67.9 41.45 -55.9 38.3 L-54.6 38.1 -49.45 37.3 -24.65 35.55 -24.55 35.55 -23.55 35.55 -21.6 35.5 Q2.6 35.3 25.6 40.7 27.2 41.1 28.25 42.4 L28.05 43.95 28.25 45.35 Q30.8 54.55 31.9 64.0 39.2 66.85 47.15 68.1 L51.05 68.4 51.4 68.85 Q62.9 70.55 74.45 70.7 L78.75 71.3 87.3 72.15 94.8 72.35 101.55 72.25 104.35 72.15 106.45 71.9 Q120.15 70.45 133.15 64.85 139.3 62.25 146.05 61.95 L151.55 62.5 154.1 63.55 Q156.0 64.55 157.55 66.4 158.35 67.4 158.15 68.85 L157.5 71.65 156.2 70.8 Q155.4 73.05 154.1 74.6 153.45 74.05 152.8 73.65 L153.5 71.45 Q153.2 70.25 153.25 68.85 L153.1 67.95 152.4 66.8 Q151.55 65.6 149.3 65.6 L148.75 65.5 147.9 65.55 Q147.3 65.85 147.1 66.8 146.65 68.7 145.75 70.3 L145.4 71.1 143.65 71.0 142.7 71.0 142.75 70.85 Q143.85 68.05 143.8 64.85 L142.85 64.95 141.75 65.25 140.85 65.45 139.8 65.65 Q136.75 65.8 134.8 66.85 L131.85 68.45 Q131.55 68.6 131.55 68.85 131.7 70.65 131.05 72.05 L130.6 72.1 129.2 72.35 129.45 69.85 Q129.6 68.4 128.3 68.55 L127.3 68.7 Q125.55 68.95 123.8 69.85 120.45 71.6 116.8 72.85 117.8 73.95 118.4 75.5 117.35 75.9 116.35 76.4 L116.3 76.35 116.0 75.8 Q115.3 73.05 112.8 74.35 L111.75 74.7 109.3 75.0 98.8 75.35 Q98.3 75.35 98.25 75.5 97.7 76.95 98.4 78.15 98.15 78.8 98.15 79.55 98.15 80.3 98.45 80.85 L98.9 81.8 100.0 81.85 100.6 82.8 97.5 83.35 Q95.4 81.0 94.9 77.85 L94.6 76.9 Q94.1 75.6 91.8 75.4 L90.3 75.25 76.3 74.35 75.3 74.35 75.5 75.2 76.45 77.8 Q76.55 78.35 76.95 78.7 L79.3 81.35 81.25 83.9 81.9 84.65 78.4 84.55 75.55 84.25 73.85 82.0 73.5 81.3 73.45 81.3 Q72.1 78.55 72.25 75.35 L72.05 74.65 Q70.2 73.2 66.8 72.95 L63.3 72.65 58.3 72.1 53.3 71.65 51.85 71.7 51.75 71.65 51.5 71.8 Q50.65 72.1 50.45 72.9 50.3 73.35 50.5 73.75 50.9 74.5 51.0 75.85 L51.2 76.9 51.4 77.85 Q51.75 79.55 52.6 81.1 L50.05 80.6 Q48.4 77.65 48.35 73.85 48.35 72.75 48.65 71.8 L48.65 71.3 39.85 69.2 38.75 68.95 Q35.8 68.1 36.45 70.8 L36.55 71.85 Q36.5 74.6 37.2 76.6 35.4 75.7 33.95 74.4 L33.8 68.35 33.55 67.55 Q32.75 66.6 31.35 66.2 L30.85 66.15 Q29.9 66.3 29.3 66.8 28.9 64.45 29.8 62.0 L29.9 61.75 29.9 60.5 Q29.0 57.3 26.4 55.45 L27.45 52.9 Q28.25 51.05 27.3 49.85 L27.05 49.4 Q27.25 47.65 25.8 47.8 L25.05 48.1 24.6 48.75 22.0 52.95 21.9 53.1 20.35 52.45 Q20.95 49.25 22.25 46.35 23.05 44.6 24.3 43.35 L22.75 41.9 Q22.55 41.6 22.3 41.6 L18.75 41.9 18.2 42.0 17.95 41.8 Q15.8 41.75 13.4 43.1 11.15 44.4 11.15 45.4 L11.25 46.3 10.25 49.0 8.4 48.55 Q8.5 47.45 8.95 46.45 10.5 42.65 12.75 40.85 L10.3 40.65 9.7 40.55 7.8 40.2 6.7 40.0 -3.25 39.25 -8.7 38.7 -9.75 38.6 -10.15 38.75 -10.65 39.2 -10.65 39.25 Q-11.55 40.2 -11.85 41.3 -12.25 42.65 -13.3 44.3 L-14.9 47.15 -16.55 47.15 -14.15 42.4 Q-13.4 40.9 -13.4 39.35 -13.4 37.75 -15.7 38.45 L-16.75 38.65 -22.75 38.85 Q-28.0 38.85 -33.25 39.1 L-33.75 39.35 Q-34.65 40.2 -35.2 41.35 -36.7 44.25 -37.7 47.35 L-37.85 47.9 -39.45 48.1 Q-38.75 43.15 -36.25 38.85 -43.3 38.6 -49.7 40.0 -50.25 40.1 -50.45 40.5 -51.6 42.6 -51.35 45.35 L-51.05 47.3 -50.4 49.8 -52.25 50.45 -52.5 50.55 Q-53.95 45.5 -52.75 39.85 L-53.25 40.15 Q-55.8 40.4 -57.7 41.9 L-58.3 42.25 Q-60.05 43.2 -61.65 44.3 L-61.55 45.3 -61.25 45.85 Q-59.7 47.4 -58.15 49.8 -57.15 51.4 -56.65 52.8 L-56.6 52.95 -57.05 53.3 Q-57.85 53.9 -58.25 54.65 L-58.65 54.0 -58.6 53.4 Q-58.6 52.65 -60.45 51.1 L-60.8 50.8 Q-62.9 47.95 -64.75 46.35 -66.6 51.95 -62.3 54.9 L-61.9 55.4 -61.5 56.2 Q-60.0 58.5 -59.0 60.9 L-59.2 64.05 -59.75 62.95 -60.1 62.1 -60.3 61.8 -60.55 61.25 Q-61.8 58.3 -64.75 58.35 L-64.6 60.35 -64.2 62.35 Q-63.6 64.45 -63.75 66.85 L-63.55 67.75 Q-62.6 69.6 -62.9 71.85 L-63.3 74.5 -65.65 77.65 -65.15 73.85 -65.0 72.35 -65.05 70.35 Q-65.2 68.25 -65.7 66.35 -66.2 64.2 -67.7 65.45 -70.0 67.35 -73.65 69.5 L-74.85 70.1 Q-76.5 70.85 -76.5 73.35 L-76.5 74.35 Q-76.55 77.8 -77.8 80.85 L-78.05 81.85 -78.35 83.65 -80.05 84.1 -79.3 82.35 Q-77.9 78.3 -77.5 73.85 -77.4 72.25 -78.25 71.85 -81.9 74.25 -86.5 75.75 L-88.85 76.2 Q-90.2 76.5 -91.25 76.9 L-92.2 77.05 -92.75 77.1 Q-94.6 77.0 -94.7 78.85 L-94.95 79.75 -95.45 81.85 Q-95.5 82.35 -95.7 82.85 L-96.3 84.3 -97.75 86.85 -101.05 86.95 -99.8 84.8 Q-97.05 80.45 -95.25 75.85 L-95.75 76.1 -104.25 76.35 -106.7 76.15 -116.25 75.35 -117.1 75.55 Q-118.35 76.35 -119.55 78.45 L-121.9 82.75 Q-123.0 84.9 -124.8 86.9 L-126.1 86.85 -125.2 85.35 Q-122.05 80.3 -120.75 74.85 -127.3 74.4 -133.25 75.75 L-134.15 76.05 -135.7 76.55 -136.3 76.8 Q-139.4 79.15 -142.35 82.25 -144.0 83.95 -144.15 86.1 L-146.7 85.95 Q-142.3 75.4 -132.5 73.1" fill="#d68b01" fill-rule="evenodd" stroke="none"/>
    <path d="M119.15 73.4 Q119.4 72.35 122.15 71.2 124.9 70.05 126.5 70.3 L126.9 70.65 124.7 72.05 120.75 73.9 Q119.4 73.8 119.15 73.4 M98.4 78.15 Q98.65 77.3 99.25 76.65 L101.85 77.1 105.0 77.8 106.1 78.95 106.4 79.3 Q106.4 80.1 106.1 80.35 L105.5 80.8 103.9 81.5 102.25 81.9 100.0 81.85 98.9 81.8 98.45 80.85 Q98.15 80.3 98.15 79.55 98.15 78.8 98.4 78.15 M91.25 83.9 L87.45 84.05 83.25 84.4 81.9 84.3 Q80.2 82.3 78.9 80.05 77.15 77.1 77.15 75.3 L77.15 74.55 Q77.95 74.75 81.25 77.55 85.65 80.5 92.0 81.3 L92.6 81.6 Q92.9 81.85 92.9 82.6 L91.25 83.9 M139.4 67.65 Q139.4 68.4 139.0 68.8 138.5 69.4 137.25 69.4 L135.95 69.1 135.15 68.55 135.4 67.8 137.25 67.15 138.2 67.25 139.4 67.65 M11.25 46.3 L11.15 45.4 Q11.15 44.4 13.4 43.1 15.8 41.75 17.95 41.8 L18.2 42.0 18.4 42.15 16.15 44.05 17.05 45.0 Q17.4 45.5 17.4 46.3 17.4 46.95 16.95 47.05 16.45 47.2 16.45 47.8 L17.9 49.3 17.2 49.9 14.75 49.45 11.9 48.8 Q11.4 47.35 11.25 46.3 M51.5 71.8 L51.75 71.65 51.85 71.7 54.05 73.2 Q55.7 74.4 56.5 74.8 L58.65 75.4 64.5 76.8 Q65.65 77.1 68.95 78.9 L73.45 81.3 73.5 81.3 73.85 82.0 73.9 82.8 63.1 82.8 62.9 82.8 62.65 82.55 54.9 81.3 54.15 80.85 Q53.9 80.6 53.9 79.8 L52.55 76.85 Q51.15 73.75 51.15 73.05 L51.25 72.0 51.5 71.8 M0.9 42.65 Q0.55 43.3 0.2 43.4 -0.85 43.25 -0.85 42.55 -0.4 42.15 0.45 42.3 L0.9 42.65 M-10.15 38.75 Q-9.35 38.45 -7.55 39.3 -6.55 39.8 -6.55 40.8 -6.6 41.8 -5.1 42.65 L-1.75 44.35 2.95 45.3 3.2 45.2 Q3.4 45.25 3.4 46.05 L3.35 46.75 2.95 46.8 -3.6 46.8 -3.85 46.55 -12.6 46.3 -12.8 45.95 -12.85 45.0 Q-12.85 43.95 -11.1 41.05 -10.9 40.7 -10.65 39.25 L-10.65 39.2 -10.15 38.75 M37.75 70.4 Q38.95 70.5 41.45 73.05 L44.9 76.5 44.65 77.4 42.05 77.2 38.4 76.8 Q37.65 75.65 37.65 73.4 L37.75 70.4 M71.9 75.75 L71.8 76.65 Q71.45 77.4 70.0 77.8 L67.9 77.8 67.15 76.3 Q68.6 75.05 69.75 74.65 L71.5 74.8 71.85 74.95 71.9 75.75 M-30.95 41.8 L-28.6 44.55 -24.05 45.35 Q-22.9 45.75 -22.6 46.4 L-30.8 46.9 -34.1 46.8 -35.6 46.3 Q-35.85 47.0 -35.85 45.75 -35.85 44.75 -34.75 42.6 -33.55 40.3 -32.55 39.8 L-30.95 41.8 M-37.1 39.65 Q-37.75 41.05 -39.25 42.85 L-40.55 44.55 Q-40.55 45.2 -40.05 45.05 -39.6 44.9 -39.6 45.5 -39.6 46.9 -43.5 47.7 L-48.3 48.4 Q-49.85 47.25 -49.85 46.8 -49.85 46.3 -47.5 44.8 L-47.8 44.9 -49.1 44.8 Q-49.35 45.5 -49.35 44.25 -49.35 43.4 -47.8 42.15 L-46.9 42.3 Q-46.6 42.45 -46.6 43.25 L-46.6 44.1 -46.7 44.3 -43.3 42.3 Q-40.8 40.5 -40.1 40.15 -38.6 39.4 -37.1 39.65 M-27.8 42.65 L-27.1 42.75 -26.1 43.15 -27.05 44.3 -28.1 44.3 Q-28.35 44.8 -28.35 43.55 L-28.2 42.7 -27.8 42.65 M-0.65 39.95 L-0.6 40.75 Q-0.6 41.6 -0.95 41.9 L-1.8 42.4 -4.6 42.3 -4.8 42.15 -4.85 41.35 Q-4.85 40.2 -3.8 39.65 L-1.05 39.8 -0.65 39.95 M-58.65 54.0 L-59.1 55.4 Q-59.65 56.85 -60.1 57.3 -60.7 56.7 -62.5 53.7 L-64.35 50.15 -64.3 49.3 -64.3 49.4 Q-62.7 49.4 -60.8 50.8 L-60.45 51.1 Q-58.6 52.65 -58.6 53.4 L-58.65 54.0 M-58.8 45.15 L-57.55 45.3 Q-57.1 45.65 -57.1 47.15 L-57.8 47.9 -59.1 47.8 -59.3 47.45 -59.35 46.5 -59.2 45.4 -58.8 45.15 M-56.2 44.75 Q-55.8 43.25 -54.05 41.8 L-53.6 46.0 -53.1 50.8 -56.1 51.3 -56.35 47.75 -56.2 44.75 M-59.75 62.95 Q-59.6 63.6 -59.6 64.6 L-59.7 66.45 Q-60.05 67.35 -61.6 68.3 -61.7 67.2 -62.3 64.55 L-62.85 61.55 -62.8 60.4 Q-61.1 60.8 -60.3 61.8 L-60.1 62.1 -59.75 62.95 M-78.6 74.15 L-78.1 74.9 -78.55 75.3 -80.1 75.3 Q-80.35 76.0 -80.35 74.75 -80.35 74.0 -79.8 74.0 L-78.6 74.15 M-71.55 70.2 Q-69.95 69.0 -68.55 68.8 L-68.3 68.7 Q-68.1 68.75 -68.1 69.55 -68.1 73.05 -76.3 81.8 L-76.8 81.7 -76.85 80.8 Q-76.85 80.05 -76.5 79.7 L-75.85 79.05 -75.85 77.15 Q-75.85 73.9 -74.05 72.3 L-71.55 70.2 M-91.25 76.9 Q-90.2 76.5 -88.85 76.2 L-86.5 75.75 -82.8 75.15 -82.1 75.25 -81.1 75.65 Q-81.1 76.4 -81.55 76.8 L-86.35 78.7 Q-90.1 80.35 -91.05 81.3 -91.95 82.2 -93.1 84.2 -94.0 85.8 -95.15 86.7 L-95.3 86.8 -95.5 86.75 -95.95 86.55 -95.3 83.1 -94.45 79.8 Q-93.75 77.95 -91.25 76.9 M-142.95 84.15 Q-142.95 82.1 -138.35 78.95 -133.55 75.65 -130.05 75.8 L-129.75 75.95 -129.7 76.75 Q-129.7 77.55 -130.7 78.65 -131.7 79.75 -131.7 80.3 L-132.6 81.6 Q-133.55 82.75 -133.55 83.1 -133.55 83.85 -133.35 84.0 L-133.2 84.05 -132.6 84.2 Q-131.9 84.45 -131.7 84.65 L-131.95 85.4 -142.2 85.3 -142.7 85.05 -142.95 84.15 M-130.6 82.35 L-130.3 82.15 -129.05 82.3 Q-128.7 82.65 -128.7 83.8 L-129.3 84.4 -130.7 84.3 -130.9 84.15 -130.95 83.35 Q-130.95 82.6 -130.6 82.35 M-121.95 85.25 Q-121.95 84.65 -120.8 83.35 -119.4 81.85 -118.95 80.55 L-117.3 76.15 -112.55 76.3 -109.95 76.75 -106.05 76.8 -105.7 77.15 Q-105.7 77.9 -106.05 78.3 -111.25 80.65 -120.8 85.9 L-121.7 86.0 Q-121.95 86.0 -121.95 85.25 M-103.2 80.3 L-103.25 81.45 Q-103.55 82.1 -104.8 82.4 L-107.2 82.3 -107.7 82.05 -107.95 81.15 -107.45 80.15 -106.3 78.65 -103.55 78.8 -103.25 79.2 -103.2 80.3 M-111.25 83.15 Q-111.45 83.1 -111.45 82.35 L-111.35 81.65 -111.3 81.9 -110.05 81.8 -109.7 82.15 Q-109.7 82.9 -110.05 83.3 L-111.05 83.3 -111.25 83.15 M-85.0 79.6 Q-84.7 79.85 -84.7 80.6 -84.7 80.85 -86.05 82.3 L-88.2 82.8 Q-88.55 82.4 -89.2 82.3 -89.45 82.8 -89.45 81.55 -89.45 80.9 -88.75 80.4 L-86.8 79.15 -85.55 79.3 -85.0 79.6 M-89.8 83.4 Q-90.7 83.3 -90.95 82.9 L-90.95 82.3 -90.4 82.3 -89.2 82.65 Q-89.35 83.25 -89.8 83.4" fill="#ffef80" fill-rule="evenodd" stroke="none"/>
    <path d="M166.0 65.8 L166.35 65.95 166.4 66.75 Q166.4 67.6 165.55 68.85 164.5 70.3 163.2 70.3 L162.1 70.2 161.85 70.1 161.4 69.9 161.4 69.95 161.9 70.15 160.8 72.45 Q159.95 73.8 158.4 74.3 L158.4 74.35 Q158.15 74.8 158.15 73.55 L158.2 73.45 Q158.3 73.1 158.75 72.3 L159.65 70.55 159.95 69.75 161.2 69.9 161.15 69.25 Q161.15 68.7 161.9 68.0 L162.9 67.15 Q164.7 65.85 166.0 65.8 M119.4 53.15 Q119.2 54.5 113.6 56.3 106.7 58.3 103.9 59.3 L103.7 59.15 103.65 58.35 Q103.65 56.2 109.9 54.85 L119.0 52.8 119.4 53.15 M93.75 61.4 L90.75 61.9 89.4 61.8 Q89.15 62.3 89.15 61.05 89.15 60.45 90.25 59.75 L92.25 58.65 94.0 58.8 94.6 59.1 Q94.9 59.35 94.9 60.1 L94.8 60.75 Q96.0 59.6 97.25 59.15 L97.95 59.25 98.9 59.65 97.05 60.65 95.45 61.3 94.6 61.1 94.5 61.2 93.75 61.4 M88.0 58.7 L90.4 59.15 Q89.7 60.5 88.25 60.9 L84.8 60.8 81.15 60.55 75.25 59.45 69.4 58.3 Q69.15 58.8 69.15 57.55 69.15 56.75 69.3 56.7 L69.75 56.65 Q72.2 56.7 74.3 57.4 L85.9 58.55 88.0 58.7 M82.4 68.9 L81.25 69.9 Q80.5 70.4 79.25 70.4 L76.9 70.3 76.7 70.15 76.65 69.35 Q76.65 68.1 77.75 67.65 L81.0 67.8 Q82.15 68.35 82.4 68.9 M152.25 59.9 Q150.4 59.8 150.15 59.4 152.6 56.55 157.65 57.45 162.4 58.35 162.4 60.3 162.4 61.1 161.2 66.3 L160.75 68.15 159.9 68.3 Q159.75 67.9 159.85 67.15 L160.0 65.8 160.0 65.65 Q160.0 63.3 156.65 61.45 153.95 59.9 152.25 59.9 M158.8 75.9 L157.75 76.9 156.9 77.0 Q156.65 77.0 156.65 76.25 156.65 75.5 157.6 75.1 158.05 74.9 158.5 74.85 L159.0 74.8 159.4 75.15 158.8 75.9 M46.0 35.8 Q46.9 37.55 47.3 39.55 L47.9 43.3 Q47.75 43.65 46.9 43.8 46.5 42.95 46.2 41.55 L45.65 39.3 44.15 37.4 Q42.85 35.9 42.65 35.15 L42.75 34.4 43.95 35.05 Q44.7 35.5 46.0 35.8 M9.2 22.15 Q21.05 22.7 24.65 23.85 L31.0 25.75 Q32.05 26.65 32.3 27.35 L32.4 29.15 32.65 30.45 32.9 32.15 32.8 36.25 Q32.55 38.95 31.5 40.8 L28.0 36.85 Q25.05 33.35 21.25 31.9 L3.4 25.25 2.85 25.1 Q2.65 25.05 2.65 24.3 2.65 23.5 2.8 23.55 L2.9 23.75 8.65 23.4 8.7 22.25 9.2 22.15 M34.25 30.15 L36.0 30.25 Q37.9 32.15 37.9 32.9 37.9 33.9 37.4 34.8 36.8 35.9 35.75 35.9 34.55 35.9 34.25 35.0 L33.65 33.55 33.65 30.25 34.25 30.15 M61.5 65.4 L57.65 65.05 54.25 64.1 50.9 63.3 Q50.65 62.9 50.65 61.6 50.65 60.8 50.95 60.0 L51.4 58.8 Q54.8 57.5 55.9 58.5 L57.05 59.8 Q57.85 60.7 59.0 61.3 63.6 63.8 69.4 64.65 L68.5 65.8 65.4 65.8 65.15 65.55 61.5 65.4 M66.65 65.9 L71.4 65.9 Q71.15 65.85 71.15 65.05 71.15 64.25 71.3 64.2 L71.75 64.15 72.95 64.25 74.4 64.65 Q74.15 65.25 72.25 65.9 L73.75 65.9 Q75.4 65.7 75.4 67.1 75.4 68.35 75.25 67.9 L71.55 67.7 66.9 67.3 Q66.65 66.9 66.65 65.9 M77.65 65.9 Q78.4 65.05 79.9 65.15 L79.0 66.3 Q77.9 66.3 77.65 65.9 M-48.6 19.15 Q-50.3 20.35 -58.4 22.95 L-70.3 26.9 -71.85 26.4 Q-64.9 23.15 -62.6 22.3 -57.9 20.5 -50.3 18.9 L-50.3 18.65 -49.6 18.75 Q-48.9 18.9 -48.6 19.15 M-68.8 34.4 L-71.65 33.75 Q-74.55 33.0 -77.1 32.8 L-77.1 32.9 -75.05 33.3 -74.1 34.4 Q-76.6 36.4 -77.8 36.4 L-83.1 36.3 -83.3 36.15 -83.35 35.35 Q-83.35 34.1 -81.6 33.25 -80.3 32.65 -79.3 32.65 L-77.3 32.85 -77.35 32.15 Q-77.35 31.55 -73.65 29.5 -69.9 27.4 -68.3 27.15 -63.7 26.4 -61.7 24.95 -59.05 24.15 -46.6 25.15 -47.65 25.95 -59.05 28.5 -68.55 30.6 -68.1 33.8 -67.55 34.4 -68.8 34.4 M-78.1 28.15 L-83.25 31.2 Q-86.3 33.0 -88.2 33.8 -88.45 34.3 -88.45 33.05 -88.45 31.9 -83.95 29.75 -79.75 27.75 -78.55 27.75 L-78.1 28.15 M-88.2 29.05 L-91.0 31.75 Q-94.2 35.25 -96.2 39.9 -96.85 41.5 -97.35 45.25 -98.25 48.6 -101.8 50.4 L-102.95 50.3 Q-103.05 43.8 -100.35 38.7 -96.8 32.0 -88.55 28.25 L-88.35 28.2 Q-88.2 28.25 -88.2 29.05 M-85.05 36.3 Q-84.7 36.65 -84.7 37.8 L-85.3 38.4 -86.7 38.3 Q-86.95 38.8 -86.95 37.55 -86.95 36.75 -86.3 36.5 L-85.05 36.3 M-92.3 39.9 Q-92.6 40.45 -92.7 41.55 L-92.6 44.95 Q-92.6 46.9 -93.55 48.3 L-94.2 48.3 -94.45 43.25 Q-94.45 39.5 -94.1 38.45 -93.3 35.85 -90.05 34.8 -90.05 35.95 -91.3 38.15 L-92.3 39.9 M-126.0 55.6 Q-125.25 55.25 -124.55 55.3 L-124.2 55.65 -125.8 57.4 -126.7 57.5 -126.95 56.75 Q-126.95 56.0 -126.0 55.6 M-98.85 51.45 Q-98.15 50.95 -97.2 51.65 -97.9 53.1 -99.2 53.3 -99.45 53.8 -99.45 52.55 -99.45 51.9 -98.85 51.45 M-105.7 55.8 Q-105.95 56.3 -105.95 55.05 -105.95 53.4 -104.3 53.65 L-103.15 53.75 -101.7 54.15 -103.8 55.9 -105.7 55.8 M-110.8 54.9 L-114.45 54.9 Q-116.9 55.1 -117.2 56.4 -116.85 56.8 -118.1 56.8 L-119.4 56.4 -120.7 55.8 -120.9 55.65 -120.95 54.85 Q-120.95 54.1 -120.6 53.85 L-120.3 53.65 -111.9 53.75 -110.2 54.15 Q-110.35 54.75 -110.8 54.9" fill="#2f0001" fill-rule="evenodd" stroke="none"/>
    <path d="M-158.05 42.3 L-157.75 42.8 -157.7 44.0 -157.8 45.85 Q-158.1 46.65 -159.8 47.9 L-161.7 47.8 -162.35 46.85 -162.45 45.55 Q-162.45 44.45 -162.15 44.0 -161.65 43.15 -159.8 42.15 L-158.05 42.3 M-158.25 49.4 L-158.2 49.8 -158.8 50.4 -159.7 50.3 -159.95 49.35 Q-159.95 48.6 -159.6 48.35 L-159.3 48.15 -158.9 48.25 Q-158.4 48.45 -158.2 48.65 L-158.25 49.4 M-154.55 47.8 L-154.0 48.4 Q-153.7 48.85 -153.7 49.65 -153.7 50.65 -155.05 52.3 L-156.7 52.3 -157.2 51.35 -157.45 50.05 Q-157.45 48.8 -155.8 47.65 L-154.55 47.8 M-136.8 55.05 Q-136.2 56.2 -136.2 56.6 -136.2 58.3 -144.2 61.8 -144.45 62.3 -144.45 61.05 -144.45 59.35 -142.1 57.05 -140.05 55.05 -137.55 53.8 L-136.8 55.05 M-139.4 57.95 L-139.4 57.85 -139.8 58.15 -139.4 57.95 M-136.35 60.7 Q-136.2 60.75 -136.2 61.55 -136.2 62.85 -139.9 64.95 -144.8 67.65 -145.55 68.3 L-146.7 68.3 Q-146.95 69.0 -146.95 67.75 -146.95 67.35 -144.4 64.95 L-139.8 60.65 -136.55 60.8 -136.35 60.7 M-153.25 64.85 Q-152.9 64.0 -151.8 63.15 L-148.05 63.8 -147.85 63.7 Q-147.7 63.75 -147.7 64.55 -147.7 65.05 -152.3 69.3 -153.45 67.95 -153.45 66.4 L-153.25 64.85 M-156.7 74.15 Q-157.75 75.85 -161.55 78.9 -165.15 81.8 -165.7 81.8 -168.0 81.8 -170.75 79.35 -173.25 77.1 -173.95 75.05 L-170.7 74.3 -167.05 73.8 -165.65 75.3 -164.5 76.4 Q-162.95 76.4 -160.6 75.35 L-157.05 73.8 -156.7 74.15 M-175.45 71.15 L-175.95 69.65 Q-175.95 68.9 -175.6 68.75 L-175.3 68.65 -169.55 68.8 -169.25 68.95 -169.2 69.75 Q-169.2 70.6 -170.35 71.4 -171.7 72.4 -173.8 72.4 -174.75 72.4 -175.45 71.15" fill="#ff9966" fill-rule="evenodd" stroke="none"/>
    <path d="M-161.7 59.3 Q-157.85 58.9 -157.35 61.85 -156.8 65.35 -158.85 67.8 -159.85 69.0 -160.8 69.2 L-162.25 69.4 Q-165.65 69.6 -166.7 67.35 -167.9 64.8 -166.7 61.85 L-166.5 60.85 -166.5 60.35 Q-166.4 59.25 -165.75 58.75 L-164.2 57.95 Q-163.05 58.1 -163.4 59.8 -163.9 62.2 -163.75 64.85 L-162.95 62.3 -162.2 59.85 -161.7 59.3" fill="#ffffff" fill-rule="evenodd" stroke="none"/>
    <path d="M146.05 61.95 L148.8 62.1 151.55 62.5 146.05 61.95" fill="#fbd600" fill-rule="evenodd" stroke="none"/>
    <path d="M-77.4 109.2 L-80.05 109.0 -75.4 107.15 -66.25 103.35 Q-49.6 95.4 -39.25 80.0 L-27.3 62.4 Q-24.8 58.75 -22.65 54.8 -17.25 44.95 -7.7 39.1 L-4.95 37.7 Q-0.9 35.6 3.45 34.3 L7.45 33.8 12.05 33.45 33.95 32.45 Q49.7 31.95 65.5 37.9 77.2 42.4 88.4 48.05 99.65 53.85 107.85 63.55 L107.5 64.2 111.2 68.25 Q112.6 69.85 113.55 71.75 118.25 80.55 113.45 89.0 111.55 77.85 105.15 68.55 99.15 59.7 90.35 53.3 82.0 47.2 72.1 45.0 61.3 42.65 50.4 44.3 39.75 45.9 31.55 52.35 26.45 56.55 23.75 62.4 20.75 68.9 20.05 76.2 L19.3 81.65 Q19.05 82.8 18.3 83.65 17.05 85.25 15.45 86.4 7.4 92.65 -1.6 97.0 -9.45 100.8 -17.9 103.05 -27.6 105.65 -37.6 107.15 -48.15 108.85 -58.7 109.2 -68.0 109.7 -77.4 109.2" fill="#8d070b" fill-rule="evenodd" stroke="none"/>
    <path d="M90.8 110.95 L79.25 111.35 Q78.25 111.45 77.45 111.85 L75.1 113.0 60.4 114.35 Q59.95 112.55 57.7 111.85 55.35 111.3 53.15 110.3 L54.6 114.95 52.1 115.3 50.25 112.6 45.0 115.3 Q35.2 115.35 25.7 113.25 L21.15 112.15 -1.9 111.4 -21.1 108.5 Q-16.85 106.1 -12.05 104.9 -1.55 102.3 7.75 96.65 15.85 91.9 20.15 83.55 20.75 82.35 21.5 81.3 24.8 77.1 26.6 72.25 L27.7 71.75 Q27.9 65.45 30.25 59.95 30.6 59.15 31.2 58.55 39.55 52.0 49.65 48.9 56.7 46.65 63.6 50.4 57.7 52.75 54.75 58.1 53.4 60.65 52.4 63.45 49.85 70.3 46.0 76.25 L44.7 77.7 Q42.45 79.2 43.1 81.7 L45.3 82.1 46.6 81.2 Q46.75 80.55 47.05 79.95 48.5 77.7 48.95 75.3 49.7 71.85 51.8 69.0 53.4 66.9 55.3 64.9 L56.8 63.05 Q59.6 59.25 63.35 56.7 64.9 55.6 66.5 55.15 L78.2 56.65 77.35 57.75 Q75.45 59.25 74.55 61.4 L72.05 67.65 Q70.3 72.15 68.8 76.7 66.0 85.1 62.65 93.2 62.0 94.75 60.95 96.1 58.7 98.75 57.95 101.6 L59.5 103.05 Q61.1 99.55 64.1 96.95 64.8 96.3 65.15 95.45 69.05 87.15 71.95 78.3 72.55 76.35 73.9 74.95 L81.0 67.3 Q82.15 68.65 81.95 70.3 81.8 71.95 82.8 73.6 84.1 75.85 85.85 77.45 78.0 88.35 77.0 102.05 L77.85 103.45 79.55 103.95 Q79.95 103.1 79.75 102.15 79.55 100.9 79.8 99.8 81.4 93.7 84.45 87.8 85.75 89.05 85.4 90.75 85.25 91.45 85.35 92.15 L84.35 92.9 84.35 98.5 82.7 101.35 Q81.45 103.55 81.45 104.35 81.45 104.85 82.45 106.75 83.6 108.95 84.65 109.85 L90.2 110.0 90.65 110.0 90.8 110.95" fill="#d75600" fill-rule="evenodd" stroke="none"/>
    <path d="M-77.4 109.2 Q-68.0 109.7 -58.7 109.2 -48.15 108.85 -37.6 107.15 -27.6 105.65 -17.9 103.05 -9.45 100.8 -1.6 97.0 7.4 92.65 15.45 86.4 17.05 85.25 18.3 83.65 19.05 82.8 19.3 81.65 L20.05 76.2 Q20.75 68.9 23.75 62.4 26.45 56.55 31.55 52.35 39.75 45.9 50.4 44.3 61.3 42.65 72.1 45.0 82.0 47.2 90.35 53.3 99.15 59.7 105.15 68.55 111.55 77.85 113.45 89.0 L112.4 91.15 110.65 95.05 Q109.3 98.0 108.45 101.25 107.4 105.55 108.95 109.55 L103.9 113.4 99.3 112.65 Q95.2 111.1 90.8 110.95 L90.65 110.0 Q93.95 109.6 96.25 103.45 L97.95 96.55 Q97.95 93.0 94.9 90.65 91.05 87.6 85.35 92.15 85.25 91.45 85.4 90.75 85.75 89.05 84.45 87.8 81.4 93.7 79.8 99.8 79.55 100.9 79.75 102.15 79.95 103.1 79.55 103.95 L77.85 103.45 77.0 102.05 Q78.0 88.35 85.85 77.45 84.1 75.85 82.8 73.6 81.8 71.95 81.95 70.3 82.15 68.65 81.0 67.3 L73.9 74.95 Q72.55 76.35 71.95 78.3 69.05 87.15 65.15 95.45 64.8 96.3 64.1 96.95 61.1 99.55 59.5 103.05 L57.95 101.6 Q58.7 98.75 60.95 96.1 62.0 94.75 62.65 93.2 66.0 85.1 68.8 76.7 70.3 72.15 72.05 67.65 L74.55 61.4 Q75.45 59.25 77.35 57.75 L78.2 56.65 66.5 55.15 Q64.9 55.6 63.35 56.7 59.6 59.25 56.8 63.05 L55.3 64.9 Q53.4 66.9 51.8 69.0 49.7 71.85 48.95 75.3 48.5 77.7 47.05 79.95 46.75 80.55 46.6 81.2 L45.3 82.1 43.1 81.7 Q42.45 79.2 44.7 77.7 L46.0 76.25 Q49.85 70.3 52.4 63.45 53.4 60.65 54.75 58.1 57.7 52.75 63.6 50.4 56.7 46.65 49.65 48.9 39.55 52.0 31.2 58.55 30.6 59.15 30.25 59.95 27.9 65.45 27.7 71.75 L26.6 72.25 Q24.8 77.1 21.5 81.3 20.75 82.35 20.15 83.55 15.85 91.9 7.75 96.65 -1.55 102.3 -12.05 104.9 -16.85 106.1 -21.1 108.5 L-1.9 111.4 Q-7.0 111.95 -12.25 111.55 -22.5 110.8 -32.55 111.6 L-40.1 112.5 Q-58.85 113.35 -77.4 109.2 M60.4 114.35 L54.6 114.95 53.15 110.3 Q55.35 111.3 57.7 111.85 59.95 112.55 60.4 114.35 M52.1 115.3 L45.0 115.3 50.25 112.6 52.1 115.3 M100.0 83.5 Q98.85 83.6 97.95 84.35 96.0 86.2 97.7 88.25 102.1 93.65 107.95 97.65 L109.5 93.65 Q109.0 92.45 109.8 91.2 110.2 90.5 109.95 89.95 108.5 86.4 108.7 82.55 L100.0 83.5 M106.65 104.95 Q106.65 103.5 104.45 101.7 L102.45 101.6 Q100.35 102.1 98.95 103.6 97.7 105.0 97.7 106.4 97.7 107.4 97.85 107.75 98.4 109.0 100.3 109.25 L104.75 109.4 Q106.25 108.05 106.55 107.15 L106.65 104.95" fill="#ebc905" fill-rule="evenodd" stroke="none"/>
    <path d="M100.0 83.5 L108.7 82.55 Q108.5 86.4 109.95 89.95 110.2 90.5 109.8 91.2 109.0 92.45 109.5 93.65 L107.95 97.65 Q102.1 93.65 97.7 88.25 96.0 86.2 97.95 84.35 98.85 83.6 100.0 83.5 M85.35 92.15 Q91.05 87.6 94.9 90.65 97.95 93.0 97.95 96.55 L96.25 103.45 Q93.95 109.6 90.65 110.0 L90.2 110.0 84.65 109.85 Q83.6 108.95 82.45 106.75 81.45 104.85 81.45 104.35 81.45 103.55 82.7 101.35 L84.35 98.5 84.35 92.9 85.35 92.15 M106.65 104.95 L106.55 107.15 Q106.25 108.05 104.75 109.4 L100.3 109.25 Q98.4 109.0 97.85 107.75 97.7 107.4 97.7 106.4 97.7 105.0 98.95 103.6 100.35 102.1 102.45 101.6 L104.45 101.7 Q106.65 103.5 106.65 104.95" fill="#ff0000" fill-rule="evenodd" stroke="none"/>
  </g>
</svg>
