<?xml version="1.0" encoding="UTF-8" standalone="no"?>
<svg xmlns:xlink="http://www.w3.org/1999/xlink" height="66.0px" width="54.15px" xmlns="http://www.w3.org/2000/svg">
  <g transform="matrix(1.0, 0.0, 0.0, 1.0, 58.15, 55.05)">
    <path d="M-48.15 -12.65 Q-47.6 -10.05 -46.4 -7.6 -45.25 -5.15 -43.8 -2.85 L-40.8 1.65 -39.7 3.15 -38.1 5.05 -36.25 6.65 -35.8 6.7 -35.8 6.75 -35.3 6.7 -35.35 4.95 -33.2 2.7 -32.35 1.8 -32.15 5.25 -32.0 6.25 -30.05 6.25 -29.6 5.2 -27.7 1.3 Q-27.1 2.05 -26.8 3.0 L-26.75 3.05 Q-26.2 4.45 -26.1 5.95 L-26.05 6.1 -25.45 4.75 -23.95 0.8 -23.15 -2.05 -22.65 -4.85 Q-22.25 -7.85 -22.35 -9.5 -22.55 -11.15 -22.9 -12.65 L-17.2 -12.65 -18.7 -8.55 -21.05 -2.05 -21.35 -1.25 -22.85 3.15 -24.75 10.35 -26.7 10.95 -27.5 10.4 Q-26.95 10.75 -27.9 9.25 L-34.2 10.2 Q-34.65 10.6 -34.55 10.75 L-34.95 10.85 -36.85 10.1 Q-37.6 8.9 -38.85 7.85 L-43.8 3.1 Q-47.5 -0.7 -49.2 -4.25 L-51.9 -9.6 -54.05 -12.65 -48.15 -12.65 M-33.55 3.75 Q-34.9 4.15 -35.2 5.5 L-35.1 6.55 Q-34.85 7.75 -34.0 7.75 -33.3 7.75 -33.05 7.0 L-32.8 5.7 -32.65 4.8 -32.75 4.0 Q-32.9 3.5 -33.55 3.75 M-29.15 5.25 L-29.15 5.45 -29.35 6.45 Q-29.4 7.6 -28.35 7.6 -27.5 7.6 -27.0 6.8 L-26.45 5.85 -26.45 5.8 -26.4 5.25 Q-26.35 5.0 -26.45 4.8 L-26.95 3.95 -27.25 3.75 -27.4 3.7 Q-28.65 3.15 -29.15 5.25" fill="#d68b01" fill-rule="evenodd" stroke="none"/>
    <path d="M-33.2 2.7 L-35.35 4.95 -35.3 6.7 -35.8 6.75 -35.8 6.7 -36.25 6.65 -38.1 5.05 -39.7 3.15 -40.8 1.65 -43.8 -2.85 Q-45.25 -5.15 -46.4 -7.6 -47.6 -10.05 -48.15 -12.65 L-40.55 -12.65 Q-43.4 -11.7 -43.2 -9.0 -43.05 -6.55 -41.8 -4.0 -40.85 -1.9 -39.35 0.1 L-39.3 0.15 -36.8 3.15 Q-36.75 2.0 -36.05 1.5 L-33.4 2.3 -33.45 2.25 -33.4 2.2 -33.35 2.3 -33.2 2.7 M-22.9 -12.65 Q-22.55 -11.15 -22.35 -9.5 -22.25 -7.85 -22.65 -4.85 L-23.15 -2.05 -23.95 0.8 -25.45 4.75 -26.05 6.1 -26.1 5.95 Q-26.2 4.45 -26.75 3.05 L-26.05 2.0 -26.2 1.5 -25.8 0.15 -25.25 -2.05 -24.95 -4.25 Q-24.7 -6.6 -25.55 -8.9 -26.4 -11.1 -29.05 -12.65 L-22.9 -12.65 M-29.6 5.2 L-30.05 6.25 -32.0 6.25 -32.15 5.25 -29.6 5.2" fill="#1c0000" fill-rule="evenodd" stroke="none"/>
    <path d="M-33.2 2.7 L-33.35 2.3 -33.4 2.2 -33.45 2.25 -33.4 2.3 -36.05 1.5 Q-36.75 2.0 -36.8 3.15 L-39.3 0.15 -39.35 0.1 Q-40.85 -1.9 -41.8 -4.0 -43.05 -6.55 -43.2 -9.0 -43.4 -11.7 -40.55 -12.65 L-29.05 -12.65 Q-26.4 -11.1 -25.55 -8.9 -24.7 -6.6 -24.95 -4.25 L-25.25 -2.05 -25.8 0.15 -26.2 1.5 -26.05 2.0 -26.75 3.05 -26.8 3.0 Q-27.1 2.05 -27.7 1.3 L-29.6 5.2 -32.15 5.25 -32.35 1.8 -33.2 2.7" fill="#360101" fill-rule="evenodd" stroke="none"/>
    <path d="M-29.15 5.25 Q-28.65 3.15 -27.4 3.7 L-27.25 3.75 -26.95 3.95 -26.45 4.8 Q-26.35 5.0 -26.4 5.25 L-26.45 5.8 -26.45 5.85 -27.0 6.8 Q-27.5 7.6 -28.35 7.6 -29.4 7.6 -29.35 6.45 L-29.15 5.45 -29.15 5.25 M-33.55 3.75 Q-32.9 3.5 -32.75 4.0 L-32.65 4.8 -32.8 5.7 -33.05 7.0 Q-33.3 7.75 -34.0 7.75 -34.85 7.75 -35.1 6.55 L-35.2 5.5 Q-34.9 4.15 -33.55 3.75" fill="#ebc905" fill-rule="evenodd" stroke="none"/>
    <path d="M-24.8 -41.45 L-23.15 -42.25 -24.05 -41.7 -24.8 -41.45" fill="#8d070b" fill-rule="evenodd" stroke="none"/>
    <path d="M-45.0 -47.8 L-45.1 -46.75 -45.1 -47.8 -45.0 -47.8 M-45.8 -45.6 L-45.0 -42.3 -45.7 -41.95 Q-46.5 -41.6 -47.15 -41.6 -48.15 -41.6 -49.65 -45.8 L-49.8 -46.8 Q-48.45 -46.45 -46.2 -46.85 L-45.8 -45.6" fill="#fbb3b5" fill-rule="evenodd" stroke="none"/>
    <path d="M-29.4 -24.45 Q-30.25 -20.2 -30.95 -19.4 -31.9 -18.25 -35.65 -18.25 -39.05 -18.25 -40.8 -21.55 -41.9 -23.6 -41.9 -25.05 -41.9 -26.65 -41.3 -27.65 L-39.3 -29.4 -29.4 -24.45 M-17.0 -27.7 Q-14.4 -27.65 -13.7 -26.0 -13.45 -25.45 -13.45 -24.05 -13.45 -22.15 -14.4 -20.6 -15.6 -18.65 -17.8 -18.65 -18.65 -18.65 -19.7 -21.15 L-20.65 -23.85 -20.5 -23.95 -17.0 -27.7 M-35.75 -26.0 Q-37.45 -26.0 -38.65 -25.1 -39.85 -24.2 -39.85 -22.9 -39.85 -21.6 -38.65 -20.7 -37.45 -19.8 -35.75 -19.8 -34.05 -19.8 -32.85 -20.7 -31.65 -21.6 -31.65 -22.9 -31.65 -24.2 -32.85 -25.1 -34.05 -26.0 -35.75 -26.0 M-16.85 -26.2 Q-17.85 -26.2 -18.55 -25.3 -19.25 -24.4 -19.25 -23.1 -19.25 -21.8 -18.55 -20.9 -17.85 -20.0 -16.85 -20.0 -15.85 -20.0 -15.15 -20.9 -14.45 -21.8 -14.45 -23.1 -14.45 -24.4 -15.15 -25.3 -15.85 -26.2 -16.85 -26.2 M-22.45 -11.15 L-20.15 -11.15 -21.3 -8.8 -22.45 -11.15 M-24.7 -9.35 L-25.45 -8.95 -26.2 -9.35 -26.5 -10.3 -26.2 -11.25 Q-25.9 -11.65 -25.45 -11.65 -25.0 -11.65 -24.7 -11.25 -24.4 -10.85 -24.4 -10.3 -24.4 -9.75 -24.7 -9.35" fill="#220d0d" fill-rule="evenodd" stroke="none"/>
    <path d="M-58.15 -27.0 L-55.1 -27.45 -55.1 -27.0 Q-56.4 -21.3 -53.75 -17.25 -51.25 -13.45 -47.15 -13.45 L-42.7 -12.8 -38.3 -12.15 -36.4 -12.4 -35.3 -12.65 Q-35.6 -11.9 -35.3 -11.2 L-34.9 -9.95 -35.0 -4.15 Q-35.15 -2.35 -35.6 -2.1 L-35.65 -2.15 -36.35 -8.7 -36.35 -7.85 -36.6 -9.25 -36.05 -9.25 -47.95 -10.25 Q-48.7 -10.3 -50.45 -11.05 -52.05 -11.7 -52.45 -12.0 L-54.9 -15.0 -57.65 -19.05 Q-58.15 -19.95 -58.15 -27.0 M-31.75 -5.0 L-32.65 -5.4 Q-31.65 -7.0 -30.2 -7.0 L-29.55 -6.9 -28.9 -6.2 Q-29.9 -5.45 -29.9 -1.15 L-30.6 -1.8 Q-31.35 -2.85 -31.75 -5.0 M-24.55 -5.45 L-24.1 -6.8 Q-23.7 -7.5 -23.1 -7.5 -22.5 -7.5 -22.05 -6.8 -21.65 -6.1 -21.65 -5.1 -21.65 -4.1 -22.05 -3.4 -22.5 -2.7 -23.1 -2.7 -23.6 -2.7 -23.95 -3.15 L-24.1 -3.4 Q-24.55 -4.1 -24.55 -5.1 L-24.55 -5.4 -24.55 -5.45 M-28.9 -14.8 L-28.05 -14.8 -22.15 -15.2 -19.15 -15.75 -19.4 -15.25 -19.9 -14.85 -19.5 -15.05 Q-20.45 -13.9 -21.7 -13.25 -22.8 -12.65 -23.85 -12.65 L-26.8 -13.1 -28.9 -14.8 M-26.0 -6.4 L-27.1 -2.35 -28.2 -6.4 -26.0 -6.4" fill="#ffef80" fill-rule="evenodd" stroke="none"/>
    <path d="M-58.15 -27.0 L-58.15 -30.2 Q-56.1 -29.1 -55.7 -29.1 -53.75 -29.1 -43.0 -31.35 L-31.9 -32.2 -20.3 -32.45 -15.55 -30.55 Q-15.05 -30.55 -14.1 -31.2 -13.15 -31.9 -12.65 -31.9 L-11.35 -31.75 -8.8 -32.2 -7.25 -31.85 -6.45 -31.55 Q-9.95 -25.8 -12.55 -20.45 -14.25 -16.9 -14.9 -16.3 L-17.15 -14.2 Q-17.65 -13.75 -18.1 -11.35 -18.55 -8.75 -18.85 -8.3 -19.45 -7.3 -20.0 -4.85 -20.85 -2.7 -23.65 -1.9 L-23.95 -3.15 Q-23.6 -2.7 -23.1 -2.7 -22.5 -2.7 -22.05 -3.4 -21.65 -4.1 -21.65 -5.1 -21.65 -6.1 -22.05 -6.8 -22.5 -7.5 -23.1 -7.5 -23.7 -7.5 -24.1 -6.8 L-24.55 -5.45 Q-24.9 -3.45 -26.2 -2.3 -26.85 -1.7 -27.45 -1.55 L-28.25 -4.75 -28.7 -0.45 -31.75 -1.1 -31.75 -5.0 Q-32.4 -4.35 -33.0 -1.25 L-35.6 -2.1 Q-35.15 -2.35 -35.0 -4.15 L-34.9 -9.95 -35.3 -11.2 Q-35.6 -11.9 -35.3 -12.65 L-36.4 -12.4 -38.3 -12.15 -42.7 -12.8 -47.15 -13.45 Q-51.25 -13.45 -53.75 -17.25 -56.4 -21.3 -55.1 -27.0 L-55.1 -27.45 -58.15 -27.0 M-31.75 -5.0 Q-31.35 -2.85 -30.6 -1.8 L-29.9 -1.15 Q-29.9 -5.45 -28.9 -6.2 L-29.55 -6.9 -30.2 -7.0 Q-31.65 -7.0 -32.65 -5.4 L-31.75 -5.0 M-29.4 -24.45 L-39.3 -29.4 -43.0 -31.1 Q-43.1 -26.95 -42.3 -23.55 -40.75 -16.95 -35.05 -16.95 -31.35 -16.95 -28.3 -19.45 -25.3 -22.0 -22.9 -22.0 -21.85 -22.0 -20.15 -19.4 -18.5 -16.85 -17.3 -16.85 -14.4 -16.85 -13.5 -19.2 -13.05 -20.4 -13.05 -23.1 -13.05 -25.55 -13.75 -26.85 -14.5 -28.2 -16.1 -28.85 L-17.0 -27.7 -20.5 -23.95 Q-20.35 -24.3 -21.65 -24.6 L-24.15 -24.9 -26.15 -24.4 -28.15 -23.95 -29.0 -24.1 -29.4 -24.45 M-57.65 -19.05 L-54.9 -15.0 -52.45 -12.0 Q-54.35 -13.45 -56.0 -15.95 L-57.65 -19.05 M-47.95 -10.25 L-36.05 -9.25 -36.6 -9.25 -45.75 -9.65 -47.95 -10.25 M-36.35 -7.85 L-36.35 -8.7 -35.65 -2.15 Q-35.95 -2.25 -36.1 -3.05 L-36.35 -7.75 -36.35 -7.85 M-28.9 -14.8 L-26.8 -13.1 -23.85 -12.65 Q-22.8 -12.65 -21.7 -13.25 -20.45 -13.9 -19.5 -15.05 L-19.9 -14.85 -19.4 -15.25 -19.15 -15.75 -22.15 -15.2 -28.05 -14.8 -28.9 -14.8 M-24.7 -9.35 Q-24.4 -9.75 -24.4 -10.3 -24.4 -10.85 -24.7 -11.25 -25.0 -11.65 -25.45 -11.65 -25.9 -11.65 -26.2 -11.25 L-26.5 -10.3 -26.2 -9.35 -25.45 -8.95 -24.7 -9.35 M-22.45 -11.15 L-21.3 -8.8 -20.15 -11.15 -22.45 -11.15 M-26.0 -6.4 L-28.2 -6.4 -27.1 -2.35 -26.0 -6.4" fill="#ebc905" fill-rule="evenodd" stroke="none"/>
    <path d="M-39.3 -29.4 L-41.3 -27.65 Q-41.9 -26.65 -41.9 -25.05 -41.9 -23.6 -40.8 -21.55 -39.05 -18.25 -35.65 -18.25 -31.9 -18.25 -30.95 -19.4 -30.25 -20.2 -29.4 -24.45 L-29.0 -24.1 -28.15 -23.95 -26.15 -24.4 -24.15 -24.9 -21.65 -24.6 Q-20.35 -24.3 -20.5 -23.95 L-20.65 -23.85 -19.7 -21.15 Q-18.65 -18.65 -17.8 -18.65 -15.6 -18.65 -14.4 -20.6 -13.45 -22.15 -13.45 -24.05 -13.45 -25.45 -13.7 -26.0 -14.4 -27.65 -17.0 -27.7 L-16.1 -28.85 Q-14.5 -28.2 -13.75 -26.85 -13.05 -25.55 -13.05 -23.1 -13.05 -20.4 -13.5 -19.2 -14.4 -16.85 -17.3 -16.85 -18.5 -16.85 -20.15 -19.4 -21.85 -22.0 -22.9 -22.0 -25.3 -22.0 -28.3 -19.45 -31.35 -16.95 -35.05 -16.95 -40.75 -16.95 -42.3 -23.55 -43.1 -26.95 -43.0 -31.1 L-39.3 -29.4" fill="#4f0404" fill-rule="evenodd" stroke="none"/>
    <path d="M-16.85 -26.2 Q-15.85 -26.2 -15.15 -25.3 -14.45 -24.4 -14.45 -23.1 -14.45 -21.8 -15.15 -20.9 -15.85 -20.0 -16.85 -20.0 -17.85 -20.0 -18.55 -20.9 -19.25 -21.8 -19.25 -23.1 -19.25 -24.4 -18.55 -25.3 -17.85 -26.2 -16.85 -26.2 M-35.75 -26.0 Q-34.05 -26.0 -32.85 -25.1 -31.65 -24.2 -31.65 -22.9 -31.65 -21.6 -32.85 -20.7 -34.05 -19.8 -35.75 -19.8 -37.45 -19.8 -38.65 -20.7 -39.85 -21.6 -39.85 -22.9 -39.85 -24.2 -38.65 -25.1 -37.45 -26.0 -35.75 -26.0" fill="#ffffff" fill-rule="evenodd" stroke="none"/>
    <path d="M-50.0 -32.2 Q-51.0 -36.1 -51.45 -39.7 -52.0 -43.75 -50.95 -47.1 -49.6 -51.15 -45.7 -53.0 -42.25 -54.65 -37.9 -55.05 -33.05 -55.2 -27.95 -53.5 -23.85 -52.05 -19.9 -49.7 L-17.6 -48.25 -16.75 -47.7 Q-13.0 -45.15 -10.0 -41.85 -6.15 -37.65 -4.0 -33.05 L-8.55 -30.4 -12.25 -28.05 -10.9 -30.1 -11.7 -29.55 -11.65 -30.4 -14.6 -28.7 -17.15 -27.2 -19.5 -25.55 Q-20.55 -24.8 -22.0 -24.5 L-23.8 -23.65 -23.6 -23.55 -21.9 -23.2 Q-25.45 -22.3 -28.35 -23.7 -27.9 -23.75 -28.3 -24.25 L-28.35 -24.45 Q-29.1 -25.2 -29.8 -24.65 -29.8 -24.2 -29.45 -24.0 L-31.05 -24.7 -30.15 -24.85 -30.75 -25.2 -32.1 -25.95 -35.3 -27.5 -37.2 -28.25 -40.8 -29.75 -43.2 -30.1 -48.15 -31.75 -50.0 -32.2 M-44.05 -51.05 L-44.25 -51.55 -45.2 -51.4 Q-46.6 -51.05 -47.25 -50.15 L-47.25 -50.05 -46.55 -49.2 -45.2 -47.45 -45.0 -47.35 -43.9 -47.35 Q-43.35 -47.35 -43.1 -47.75 L-42.75 -48.3 Q-42.5 -48.8 -42.85 -49.65 L-43.6 -50.95 -43.85 -51.05 -44.05 -51.05 M-39.5 -47.8 L-39.7 -48.2 Q-40.0 -48.8 -40.45 -49.1 L-41.5 -49.75 -41.9 -49.85 Q-42.5 -49.65 -42.45 -49.05 L-42.4 -48.65 -42.25 -47.95 -42.15 -47.5 -42.0 -47.15 -41.45 -45.95 -42.15 -46.05 -42.8 -46.75 -43.15 -47.25 -44.55 -47.05 -46.7 -47.2 -46.2 -46.25 -46.25 -45.7 -43.2 -42.15 -42.0 -41.05 -41.2 -41.5 -39.6 -41.9 -39.65 -42.35 -40.0 -43.15 -41.15 -45.5 -40.0 -44.15 Q-39.8 -44.45 -38.65 -44.55 L-38.85 -46.6 -39.0 -47.25 -39.5 -47.8 M-17.7 -44.45 L-17.85 -44.95 -18.35 -45.75 -20.3 -46.75 Q-21.35 -46.9 -21.6 -45.35 -21.8 -43.95 -21.2 -42.5 L-21.05 -42.2 -21.1 -42.1 Q-19.85 -40.65 -18.7 -41.4 L-17.1 -42.6 -16.8 -42.85 Q-16.1 -43.45 -17.7 -44.45 M-10.95 -31.05 L-11.0 -31.1 -11.0 -30.7 -10.7 -30.6 Q-10.15 -30.35 -10.3 -31.1 L-9.45 -31.6 -9.6 -31.8 Q-10.2 -31.75 -10.35 -31.15 L-10.95 -31.05 M-31.8 -35.3 L-31.95 -35.35 -32.05 -35.35 -31.4 -34.2 -30.9 -34.6 -30.8 -35.25 -30.85 -35.4 -32.05 -35.7 -31.8 -35.3 M-34.8 -32.95 L-35.1 -32.95 Q-36.05 -32.65 -35.25 -32.15 -35.2 -31.45 -34.4 -31.2 L-34.05 -31.2 Q-33.4 -31.4 -33.8 -31.95 L-34.0 -32.6 -34.35 -32.9 -31.85 -32.9 -32.0 -33.15 -33.6 -36.35 -35.85 -36.2 -36.3 -35.75 -35.05 -33.1 -34.8 -32.95 M-27.15 -26.95 L-27.5 -27.75 -28.4 -29.2 -30.35 -31.25 -31.75 -32.55 -32.85 -32.5 -34.3 -30.25 -33.4 -29.1 -33.15 -28.35 -30.4 -26.4 -27.75 -24.75 -26.7 -26.0 -27.15 -26.95 M-31.1 -33.55 L-30.75 -32.3 -30.2 -32.0 Q-29.3 -31.65 -29.25 -32.3 L-29.9 -33.55 -30.35 -33.65 -31.1 -33.55 M-26.2 -34.85 L-26.8 -35.95 -30.3 -36.5 -29.7 -35.1 -28.75 -32.7 -25.8 -33.4 -25.85 -33.85 -26.2 -34.85 M-27.8 -29.8 L-26.2 -27.7 -23.75 -28.05 -24.1 -29.95 -24.5 -30.4 -28.45 -32.5 -27.8 -29.8 M-25.6 -27.1 L-25.5 -26.1 -24.8 -25.3 -23.2 -25.2 -22.8 -25.75 -23.35 -26.1 -23.6 -26.75 -24.5 -27.45 -25.2 -27.35 -25.6 -27.1" fill="#8d070b" fill-rule="evenodd" stroke="none"/>
    <path d="M-28.35 -23.7 L-29.4 -24.0 -29.45 -24.0 Q-29.8 -24.2 -29.8 -24.65 -29.1 -25.2 -28.35 -24.45 L-28.3 -24.25 Q-27.9 -23.75 -28.35 -23.7 M-43.2 -30.1 L-40.8 -29.75 -37.2 -28.25 -35.3 -27.5 -32.1 -25.95 -30.75 -25.2 -33.95 -26.4 -37.65 -27.8 -40.55 -28.95 -43.2 -30.1 M-46.55 -49.2 L-47.25 -50.05 -47.25 -50.15 Q-46.6 -51.05 -45.2 -51.4 L-44.25 -51.55 -44.05 -51.05 -44.05 -50.8 -43.65 -50.05 -43.55 -49.85 -43.3 -49.25 -43.25 -49.2 -43.25 -49.15 -43.25 -49.1 -43.45 -48.55 Q-43.7 -48.05 -44.85 -47.95 L-45.95 -49.05 -46.8 -50.1 -46.85 -49.75 -46.55 -49.2 M-42.4 -48.65 L-42.45 -49.05 Q-42.5 -49.65 -41.9 -49.85 L-41.5 -49.75 -40.45 -49.1 Q-40.0 -48.8 -39.7 -48.2 L-39.5 -47.8 -39.5 -45.65 -40.25 -45.4 Q-41.6 -46.9 -42.25 -48.5 L-42.4 -48.65 M-21.05 -42.2 L-21.2 -42.5 Q-21.8 -43.95 -21.6 -45.35 -21.35 -46.9 -20.3 -46.75 L-18.35 -45.75 -17.85 -44.95 -17.7 -44.45 -17.75 -44.2 -17.8 -44.05 -18.35 -42.9 -19.7 -42.1 -21.05 -42.2 M-11.0 -30.7 L-11.0 -31.1 -10.95 -31.05 -11.0 -30.7 M-10.35 -31.15 Q-10.2 -31.75 -9.6 -31.8 L-9.45 -31.6 -10.3 -31.1 -10.35 -31.15 M-23.6 -23.55 L-23.8 -23.65 -22.0 -24.5 Q-20.55 -24.8 -19.5 -25.55 L-17.15 -27.2 -14.6 -28.7 -11.65 -30.4 -11.7 -29.55 -14.6 -27.55 -17.6 -25.7 -20.0 -24.4 Q-21.6 -23.4 -23.6 -23.55 M-31.8 -35.3 L-32.05 -35.7 -30.85 -35.4 -31.55 -35.05 -31.8 -35.3 M-35.25 -32.15 Q-36.05 -32.65 -35.1 -32.95 L-34.8 -32.95 -34.45 -32.9 -34.35 -32.9 -34.0 -32.6 -33.8 -31.95 -34.3 -31.8 -35.25 -32.15 M-35.05 -33.1 L-36.3 -35.75 -35.85 -36.2 -33.6 -36.35 -32.0 -33.15 -35.05 -33.1 M-33.4 -29.1 L-34.3 -30.25 -32.85 -32.5 -31.75 -32.55 -30.35 -31.25 -28.4 -29.2 -27.5 -27.75 -27.15 -26.95 -28.2 -26.0 Q-29.85 -26.65 -31.1 -27.55 L-33.4 -29.1 M-31.1 -33.55 L-30.35 -33.65 -29.9 -33.55 -29.25 -32.3 Q-29.3 -31.65 -30.2 -32.0 L-30.75 -32.3 -31.1 -33.55 M-29.7 -35.1 L-30.3 -36.5 -26.8 -35.95 -26.2 -34.85 -26.75 -33.8 -28.95 -33.6 -29.7 -35.1 M-27.8 -29.8 L-28.45 -32.5 -24.5 -30.4 -24.85 -28.75 -26.05 -28.7 -27.8 -29.8" fill="#fbb3b5" fill-rule="evenodd" stroke="none"/>
    <path d="M-12.25 -28.05 L-12.3 -28.0 -13.45 -27.1 -16.4 -25.55 -18.2 -24.7 Q-19.55 -24.05 -20.95 -23.6 L-21.9 -23.2 -23.6 -23.55 Q-21.6 -23.4 -20.0 -24.4 L-17.6 -25.7 -14.6 -27.55 -11.7 -29.55 -10.9 -30.1 -12.25 -28.05 M-31.05 -24.7 L-34.4 -25.8 -37.65 -27.2 -41.15 -28.65 -44.45 -29.95 -48.15 -31.25 -49.8 -31.65 -50.0 -31.7 -50.5 -32.1 -50.5 -32.25 -50.0 -32.2 -48.15 -31.75 -43.2 -30.1 -40.55 -28.95 -37.65 -27.8 -33.95 -26.4 -30.75 -25.2 -30.15 -24.85 -31.05 -24.7 M-44.05 -51.05 L-43.85 -51.05 -43.6 -50.95 -42.85 -49.65 Q-42.5 -48.8 -42.75 -48.3 L-43.1 -47.75 Q-43.35 -47.35 -43.9 -47.35 L-45.0 -47.35 -45.2 -47.45 -46.55 -49.2 -46.85 -49.75 -46.8 -50.1 -45.95 -49.05 -44.85 -47.95 Q-43.7 -48.05 -43.45 -48.55 L-43.25 -49.1 -43.25 -49.15 -43.25 -49.2 -43.3 -49.25 -43.3 -49.3 -43.55 -49.85 -43.65 -50.05 -44.05 -50.8 -44.05 -51.05 M-42.4 -48.65 L-42.25 -48.5 Q-41.6 -46.9 -40.25 -45.4 L-39.5 -45.65 -39.5 -47.8 -39.0 -47.25 -38.85 -46.6 -38.65 -44.55 Q-39.8 -44.45 -40.0 -44.15 L-41.15 -45.5 -40.0 -43.15 -39.65 -42.35 -39.6 -41.9 -41.2 -41.5 -42.0 -41.05 -43.2 -42.15 -46.25 -45.7 -46.2 -46.25 -42.15 -42.25 -41.35 -42.35 -40.25 -42.95 -42.15 -46.05 -41.45 -45.95 -42.0 -47.15 -42.25 -47.95 -42.4 -48.65 M-17.7 -44.45 Q-16.1 -43.45 -16.8 -42.85 L-17.1 -42.6 -18.7 -41.4 Q-19.85 -40.65 -21.1 -42.1 L-21.05 -42.2 -19.7 -42.1 -19.05 -42.35 -18.35 -42.9 -17.8 -44.05 -17.75 -44.2 -17.7 -44.45 M-10.95 -31.05 L-10.35 -31.15 -10.3 -31.1 Q-10.15 -30.35 -10.7 -30.6 L-11.0 -30.7 -10.95 -31.05 M-30.85 -35.4 L-30.8 -35.25 -30.9 -34.6 -31.4 -34.2 -32.05 -35.35 -31.95 -35.35 -31.8 -35.3 -31.55 -35.05 -30.85 -35.4 M-34.8 -32.95 L-35.05 -33.1 -32.0 -33.15 -31.85 -32.9 -34.35 -32.9 -34.45 -32.9 -34.8 -32.95 M-33.8 -31.95 Q-33.4 -31.4 -34.05 -31.2 L-34.4 -31.2 Q-35.2 -31.45 -35.25 -32.15 L-34.3 -31.8 -33.8 -31.95 M-27.15 -26.95 L-26.7 -26.0 -27.75 -24.75 -30.4 -26.4 -33.15 -28.35 -33.4 -29.1 -31.1 -27.55 Q-29.85 -26.65 -28.2 -26.0 L-27.15 -26.95 M-26.2 -34.85 L-25.85 -33.85 -25.8 -33.4 -28.75 -32.7 -29.7 -35.1 -28.95 -33.6 -26.75 -33.8 -26.2 -34.85 M-25.6 -27.1 L-25.2 -27.35 -24.5 -27.45 -23.6 -26.75 -23.35 -26.1 -22.8 -25.75 -23.2 -25.2 -24.8 -25.3 -25.5 -26.1 -25.6 -27.1 M-24.5 -30.4 L-24.1 -29.95 -23.75 -28.05 -26.2 -27.7 -27.8 -29.8 -26.05 -28.7 -24.85 -28.75 -24.5 -30.4" fill="#570406" fill-rule="evenodd" stroke="none"/>
  </g>
</svg>
