<?xml version="1.0" encoding="UTF-8" standalone="no"?>
<svg xmlns:xlink="http://www.w3.org/1999/xlink" height="60.6px" width="49.7px" xmlns="http://www.w3.org/2000/svg">
  <g transform="matrix(1.0, 0.0, 0.0, 1.0, 62.25, 55.05)">
    <path d="M-48.45 -12.55 L-41.35 -12.55 Q-44.2 -11.8 -44.5 -9.75 -44.8 -7.85 -44.2 -5.9 -43.7 -4.3 -42.6 -2.7 L-40.85 -0.4 Q-40.6 -1.3 -39.8 -1.7 L-39.15 -0.75 -40.75 0.95 -40.4 2.3 -40.95 2.25 -42.35 1.05 Q-43.3 0.05 -44.3 -1.55 L-46.25 -5.0 -47.8 -8.65 Q-48.45 -10.55 -48.45 -12.55 M-30.6 -12.55 L-24.85 -12.55 -24.95 -10.1 Q-25.15 -8.85 -26.1 -6.55 -27.05 -4.3 -28.35 -2.2 -29.7 -0.05 -31.7 2.2 L-31.9 1.75 Q-32.3 0.6 -33.05 -0.5 L-32.55 -1.55 -32.15 -1.25 -31.9 -1.0 -31.65 -0.65 -31.55 -0.4 -30.0 -2.7 Q-28.95 -4.45 -28.35 -6.1 -27.7 -7.9 -28.05 -9.65 -28.4 -11.35 -30.6 -12.55 M-37.65 1.2 L-35.3 1.15 -35.6 1.95 -37.4 1.95 -37.65 1.2" fill="#1c0000" fill-rule="evenodd" stroke="none"/>
    <path d="M-39.15 -0.75 L-39.8 -1.7 Q-40.6 -1.3 -40.85 -0.4 L-42.6 -2.7 Q-43.7 -4.3 -44.2 -5.9 -44.8 -7.85 -44.5 -9.75 -44.2 -11.8 -41.35 -12.55 L-30.6 -12.55 Q-28.4 -11.35 -28.05 -9.65 -27.7 -7.9 -28.35 -6.1 -28.95 -4.45 -30.0 -2.7 L-31.55 -0.4 -31.65 -0.65 -31.9 -1.0 -32.15 -1.25 -32.55 -1.55 -33.05 -0.5 -34.25 -1.85 -35.3 1.15 -37.65 1.2 -38.5 -1.45 -39.15 -0.75" fill="#360101" fill-rule="evenodd" stroke="none"/>
    <path d="M-48.45 -12.55 Q-48.45 -10.55 -47.8 -8.65 L-46.25 -5.0 -44.3 -1.55 Q-43.3 0.05 -42.35 1.05 L-40.95 2.25 -40.4 2.3 -40.75 0.95 -39.15 -0.75 -38.5 -1.45 -37.65 1.2 -37.4 1.95 -35.6 1.95 -35.3 1.15 -34.25 -1.85 -33.05 -0.5 Q-32.3 0.6 -31.9 1.75 L-31.7 2.2 Q-29.7 -0.05 -28.35 -2.2 -27.05 -4.3 -26.1 -6.55 -25.15 -8.85 -24.95 -10.1 L-24.85 -12.55 -19.55 -12.55 -21.75 -9.4 -25.55 -3.8 -27.8 -0.4 -30.95 5.1 -32.85 5.55 -34.05 5.0 -38.85 5.0 -40.7 5.55 -42.2 4.9 -43.35 2.8 Q-47.25 -4.25 -49.25 -6.75 L-52.25 -10.4 -53.95 -12.55 -48.45 -12.55 M-32.55 2.4 L-32.3 1.65 Q-32.3 0.5 -33.4 0.05 L-33.55 0.0 Q-34.8 -0.4 -34.85 1.2 L-34.85 1.35 -34.85 2.1 Q-34.65 3.0 -33.7 3.0 -32.9 3.0 -32.55 2.4 M-39.3 0.05 Q-40.45 0.35 -40.45 1.4 L-40.2 2.2 Q-39.75 3.1 -38.95 3.1 -38.3 3.1 -38.2 2.55 L-38.2 1.55 -38.25 0.85 -38.5 0.25 Q-38.75 -0.15 -39.3 0.05" fill="#d68b01" fill-rule="evenodd" stroke="none"/>
    <path d="M-32.55 2.4 Q-32.9 3.0 -33.7 3.0 -34.65 3.0 -34.85 2.1 L-34.85 1.35 -34.85 1.2 Q-34.8 -0.4 -33.55 0.0 L-33.4 0.05 Q-32.3 0.5 -32.3 1.65 L-32.55 2.4 M-39.3 0.05 Q-38.75 -0.15 -38.5 0.25 L-38.25 0.85 -38.2 1.55 -38.2 2.55 Q-38.3 3.1 -38.95 3.1 -39.75 3.1 -40.2 2.2 L-40.45 1.4 Q-40.45 0.35 -39.3 0.05" fill="#ebc905" fill-rule="evenodd" stroke="none"/>
    <path d="M-45.65 -50.7 L-46.35 -50.75 -49.05 -50.65 Q-50.3 -50.45 -50.65 -50.05 -51.05 -49.7 -48.85 -48.9 L-47.95 -47.15 -47.45 -46.95 Q-46.1 -46.95 -45.4 -47.9 -44.65 -48.95 -45.2 -50.8 L-45.65 -50.8 Q-45.2 -50.7 -45.65 -50.7 M-49.65 -45.8 Q-49.55 -44.2 -48.55 -42.15 L-47.5 -40.35 -45.75 -40.55 -44.75 -40.8 -44.65 -42.15 -44.75 -43.75 -44.25 -43.6 -43.1 -43.8 -42.75 -44.0 -42.05 -46.85 -42.2 -47.5 -42.35 -47.4 Q-42.4 -48.05 -42.95 -48.65 L-43.95 -49.55 Q-44.7 -49.0 -44.9 -48.3 L-45.0 -47.8 -45.1 -46.75 -45.05 -45.45 -45.7 -45.55 -46.2 -46.85 Q-48.45 -46.45 -49.8 -46.8 L-49.65 -45.8 M-42.95 -23.15 Q-42.1 -23.2 -41.95 -23.4 L-42.25 -23.7 Q-42.95 -23.15 -42.45 -23.7 -44.85 -26.25 -52.85 -29.2 L-53.0 -28.8 -55.6 -29.9 Q-58.0 -30.9 -58.95 -31.05 -59.1 -43.1 -51.1 -49.85 -45.0 -55.05 -37.9 -55.05 -28.3 -55.05 -21.45 -48.95 -14.25 -42.65 -12.65 -31.9 L-21.9 -27.05 -22.85 -26.65 Q-21.65 -27.65 -20.7 -28.8 L-24.85 -26.35 -29.15 -24.2 -25.15 -26.35 Q-22.7 -27.75 -21.2 -28.8 L-21.35 -29.15 Q-23.15 -28.3 -28.65 -25.25 -33.85 -22.55 -36.45 -22.3 -36.4 -22.0 -35.95 -21.95 L-36.05 -21.9 -34.4 -21.6 -40.85 -22.15 Q-40.5 -22.15 -40.25 -22.45 L-40.55 -22.4 Q-40.75 -22.15 -40.55 -22.7 L-40.35 -22.9 Q-40.65 -23.3 -41.75 -23.15 L-41.8 -22.8 -41.6 -22.4 -42.15 -22.65 -42.95 -23.15 M-43.25 -31.75 L-42.3 -31.65 Q-43.05 -30.5 -43.6 -27.75 -43.25 -26.5 -42.2 -25.15 -40.95 -23.6 -39.65 -23.2 L-38.9 -23.95 Q-38.15 -24.85 -38.2 -25.5 -37.95 -26.6 -38.4 -28.85 L-38.9 -30.65 Q-38.6 -30.65 -38.35 -30.95 -38.1 -31.25 -38.1 -31.7 L-38.35 -32.45 -38.95 -32.75 -39.55 -32.45 -39.75 -32.0 -39.85 -32.1 -40.6 -32.5 -40.65 -35.4 -43.9 -35.25 Q-43.9 -32.1 -43.65 -32.0 L-43.5 -31.8 -44.0 -31.55 -44.25 -31.0 -44.1 -30.3 -43.65 -29.9 -43.15 -30.05 Q-42.9 -30.3 -42.9 -30.75 -42.85 -31.35 -42.95 -31.4 L-43.0 -31.45 -42.95 -31.25 -43.25 -31.75 M-19.25 -30.05 L-19.75 -29.95 -20.4 -29.8 -20.55 -29.85 -20.7 -29.6 -20.55 -29.45 -20.5 -29.2 -20.1 -29.4 -19.65 -29.75 -19.7 -29.9 -19.25 -30.0 Q-18.55 -30.15 -18.8 -30.65 L-19.25 -30.05 M-21.85 -43.9 L-21.95 -45.75 Q-22.0 -46.3 -23.55 -46.3 -24.2 -46.2 -24.8 -45.55 -25.95 -44.3 -26.1 -41.55 L-26.2 -41.45 -25.65 -40.7 Q-25.35 -40.4 -24.7 -40.4 -23.35 -40.4 -22.5 -41.25 -21.55 -42.2 -21.85 -43.9 M-37.55 -34.1 L-37.65 -34.1 -37.65 -31.9 -37.55 -31.55 -34.25 -32.0 -34.05 -33.8 -34.15 -33.8 -34.3 -35.3 -37.6 -35.65 -37.55 -34.1 M-38.8 -34.35 L-38.55 -34.4 -39.25 -34.3 -39.55 -34.3 -40.0 -34.25 Q-40.0 -33.2 -39.6 -33.15 L-38.35 -34.2 -38.8 -34.35 M-36.1 -26.0 L-36.55 -25.35 -36.7 -24.45 -36.5 -23.8 -34.9 -23.7 Q-34.5 -24.05 -34.6 -24.35 L-34.85 -24.6 -35.0 -25.55 -35.45 -26.1 Q-34.9 -26.35 -34.5 -27.2 -34.1 -28.2 -34.2 -29.15 L-37.3 -31.35 -37.7 -28.5 Q-37.55 -27.15 -36.95 -26.5 -36.55 -26.1 -36.1 -26.0 M-24.2 -25.75 L-22.95 -26.55 -23.95 -25.9 -24.2 -25.75" fill="#8d070b" fill-rule="evenodd" stroke="none"/>
    <path d="M-59.0 -30.45 L-55.75 -29.3 -55.1 -27.45 -58.9 -26.95 -59.0 -30.45 M-21.9 -27.05 L-12.65 -31.9 -12.85 -28.6 -15.15 -28.35 -17.3 -28.05 Q-16.8 -28.05 -16.65 -28.7 L-16.5 -29.5 -15.2 -29.4 -15.2 -30.2 -14.6 -30.1 -13.85 -30.7 -15.2 -30.2 Q-18.15 -28.95 -21.4 -26.95 L-21.9 -27.05 M-44.1 -2.1 Q-43.65 -2.35 -43.5 -4.15 L-43.4 -9.95 Q-43.4 -10.45 -43.85 -10.65 -44.35 -10.85 -44.35 -11.35 -44.35 -12.35 -43.35 -13.65 L-47.15 -13.45 Q-50.4 -13.45 -52.7 -16.05 -54.9 -18.6 -55.4 -22.65 -54.7 -19.65 -52.5 -17.4 -50.2 -15.15 -47.8 -15.15 -43.75 -15.15 -41.35 -18.05 -39.0 -20.95 -36.85 -20.95 -34.7 -20.95 -32.65 -18.0 -30.6 -15.05 -28.1 -15.05 -22.4 -15.05 -20.0 -17.3 -19.0 -18.2 -18.05 -20.75 L-18.1 -20.4 -18.05 -19.8 -17.05 -20.2 -14.5 -21.65 Q-15.45 -19.55 -16.5 -17.55 -18.55 -13.7 -20.2 -12.2 -22.2 -10.4 -24.0 -10.5 -25.6 -10.6 -27.4 -8.55 L-28.45 -4.9 Q-29.1 -2.45 -32.15 -1.9 L-32.45 -3.2 Q-32.1 -2.7 -31.6 -2.7 -31.0 -2.7 -30.55 -3.4 -30.15 -4.1 -30.15 -5.1 -30.15 -6.1 -30.55 -6.8 -31.0 -7.5 -31.6 -7.5 -32.2 -7.5 -32.6 -6.8 L-33.05 -5.45 Q-33.4 -3.45 -34.7 -2.3 L-35.95 -1.55 -36.75 -4.75 -37.2 -0.45 -40.25 -1.1 -40.25 -5.0 Q-40.9 -4.35 -41.5 -1.25 L-44.1 -2.1 M-17.8 -21.8 L-17.6 -23.3 -17.7 -22.1 -17.8 -21.8 M-57.65 -19.05 L-54.0 -13.6 Q-51.85 -10.95 -49.75 -10.65 -53.0 -10.65 -55.3 -13.1 -57.65 -15.55 -57.65 -19.05 M-49.15 -10.55 Q-47.35 -10.55 -46.1 -10.0 -44.85 -9.5 -44.85 -8.75 -46.9 -10.0 -49.15 -10.55 M-44.85 -8.7 L-44.15 -2.15 Q-44.45 -2.25 -44.6 -3.2 L-44.85 -8.7 M-40.25 -5.0 Q-39.85 -2.85 -39.1 -1.8 L-38.4 -1.15 Q-38.4 -5.45 -37.4 -6.2 L-38.05 -6.9 -38.7 -7.0 Q-40.15 -7.0 -41.15 -5.4 L-40.25 -5.0 M-41.15 -11.9 L-40.9 -10.95 -40.35 -10.1 -40.05 -12.35 -41.15 -11.9 M-41.3 -4.35 L-41.3 -4.7 -41.45 -4.35 -41.3 -4.35 M-24.1 -14.95 Q-25.3 -14.7 -30.9 -14.8 L-28.8 -12.9 Q-26.85 -11.35 -25.7 -11.35 -23.5 -11.35 -21.1 -15.7 L-22.4 -14.8 -21.15 -15.75 -24.1 -14.95 M-37.1 -20.5 L-38.65 -20.05 Q-40.1 -19.1 -42.2 -14.95 L-39.8 -13.05 Q-38.7 -14.0 -37.7 -16.5 -36.6 -19.2 -37.1 -20.5 M-39.15 -10.05 L-39.1 -9.75 -38.4 -9.35 -37.7 -8.95 -37.0 -11.05 -38.6 -10.75 -39.15 -10.05 M-35.25 -11.2 L-34.05 -8.75 -32.85 -11.2 -35.25 -11.2 M-36.7 -5.6 L-36.0 -4.05 -35.1 -2.35 -34.75 -3.3 -34.5 -5.3 Q-34.55 -6.05 -35.35 -6.05 -36.15 -6.1 -36.7 -5.6" fill="#ebc905" fill-rule="evenodd" stroke="none"/>
    <path d="M-55.75 -29.3 L-52.05 -27.6 Q-53.5 -26.75 -54.1 -25.85 -54.65 -24.9 -54.65 -23.25 -54.65 -21.8 -53.55 -19.75 -51.8 -16.45 -48.4 -16.45 -44.65 -16.45 -43.7 -17.6 -43.0 -18.4 -42.15 -22.65 L-41.6 -22.4 -40.85 -22.15 -34.4 -21.6 -32.25 -22.05 Q-31.95 -19.75 -30.4 -18.1 -29.2 -16.85 -28.5 -16.85 -23.1 -16.85 -20.1 -19.65 -17.9 -21.7 -17.9 -23.7 -17.9 -25.0 -19.25 -25.45 L-23.95 -25.9 -22.95 -26.55 -22.85 -26.65 -21.9 -27.05 -21.4 -26.95 Q-19.85 -26.95 -18.7 -25.85 -17.6 -24.8 -17.6 -23.3 L-17.8 -21.8 -18.05 -20.75 Q-19.0 -18.2 -20.0 -17.3 -22.4 -15.05 -28.1 -15.05 -30.6 -15.05 -32.65 -18.0 -34.7 -20.95 -36.85 -20.95 -39.0 -20.95 -41.35 -18.05 -43.75 -15.15 -47.8 -15.15 -50.2 -15.15 -52.5 -17.4 -54.7 -19.65 -55.4 -22.65 L-55.1 -27.45 -55.75 -29.3" fill="#4f0404" fill-rule="evenodd" stroke="none"/>
    <path d="M-52.05 -27.6 Q-45.35 -24.5 -42.95 -23.15 L-42.15 -22.65 Q-43.0 -18.4 -43.7 -17.6 -44.65 -16.45 -48.4 -16.45 -51.8 -16.45 -53.55 -19.75 -54.65 -21.8 -54.65 -23.25 -54.65 -24.9 -54.1 -25.85 -53.5 -26.75 -52.05 -27.6 M-45.6 -23.3 Q-46.8 -24.2 -48.5 -24.2 -50.2 -24.2 -51.4 -23.3 -52.6 -22.4 -52.6 -21.1 -52.6 -19.8 -51.4 -18.9 -50.2 -18.0 -48.5 -18.0 -46.8 -18.0 -45.6 -18.9 -44.4 -19.8 -44.4 -21.1 -44.4 -22.4 -45.6 -23.3 M-24.2 -25.75 L-23.95 -25.9 -19.25 -25.45 Q-17.9 -25.0 -17.9 -23.7 -17.9 -21.7 -20.1 -19.65 -23.1 -16.85 -28.5 -16.85 -29.2 -16.85 -30.4 -18.1 -31.95 -19.75 -32.25 -22.05 L-24.2 -25.75 M-20.95 -21.25 Q-20.05 -22.5 -20.45 -23.4 -20.95 -24.35 -22.9 -24.35 -26.0 -24.35 -27.95 -23.25 -29.8 -22.2 -29.8 -20.7 -29.8 -20.1 -29.4 -19.4 -28.75 -18.2 -27.4 -18.2 -23.2 -18.2 -20.95 -21.25 M-35.25 -11.2 L-32.85 -11.2 -34.05 -8.75 -35.25 -11.2 M-39.15 -10.05 L-38.6 -10.75 -37.0 -11.05 -37.7 -8.95 -38.4 -9.35 -39.1 -9.75 -39.15 -10.05" fill="#220d0d" fill-rule="evenodd" stroke="none"/>
    <path d="M-58.9 -26.95 L-55.1 -27.45 -55.4 -22.65 Q-54.9 -18.6 -52.7 -16.05 -50.4 -13.45 -47.15 -13.45 L-43.35 -13.65 Q-44.35 -12.35 -44.35 -11.35 -44.35 -10.85 -43.85 -10.65 -43.4 -10.45 -43.4 -9.95 L-43.5 -4.15 Q-43.65 -2.35 -44.1 -2.1 L-44.15 -2.15 -44.85 -8.7 -44.85 -8.75 Q-44.85 -9.5 -46.1 -10.0 -47.35 -10.55 -49.15 -10.55 L-49.75 -10.65 Q-51.85 -10.95 -54.0 -13.6 L-57.65 -19.05 -59.75 -23.1 Q-60.2 -24.0 -60.2 -24.85 L-60.05 -25.55 -59.75 -25.55 -58.8 -25.55 -58.95 -25.65 -61.35 -26.25 -60.85 -26.25 Q-60.1 -26.25 -60.1 -26.6 L-60.5 -26.9 -58.9 -26.95 M-18.05 -20.75 L-17.8 -21.8 -17.7 -22.1 -17.6 -23.3 Q-17.6 -24.8 -18.7 -25.85 -19.85 -26.95 -21.4 -26.95 -18.15 -28.95 -15.2 -30.2 L-13.85 -30.7 -14.6 -30.1 -15.2 -30.2 -15.2 -29.4 -16.5 -29.5 -16.65 -28.7 Q-16.8 -28.05 -17.3 -28.05 L-15.15 -28.35 -12.85 -28.6 Q-13.15 -25.75 -13.95 -22.85 L-12.55 -22.95 -13.4 -22.2 -14.5 -21.65 -17.05 -20.2 -18.05 -19.8 -18.1 -20.4 -18.05 -20.75 M-40.25 -5.0 L-41.15 -5.4 Q-40.15 -7.0 -38.7 -7.0 L-38.05 -6.9 -37.4 -6.2 Q-38.4 -5.45 -38.4 -1.15 L-39.1 -1.8 Q-39.85 -2.85 -40.25 -5.0 M-33.05 -5.45 L-32.6 -6.8 Q-32.2 -7.5 -31.6 -7.5 -31.0 -7.5 -30.55 -6.8 -30.15 -6.1 -30.15 -5.1 -30.15 -4.1 -30.55 -3.4 -31.0 -2.7 -31.6 -2.7 -32.1 -2.7 -32.45 -3.2 L-32.6 -3.4 Q-33.05 -4.1 -33.05 -5.1 L-33.05 -5.4 -33.05 -5.45 M-41.15 -11.9 L-40.05 -12.35 -40.35 -10.1 -40.9 -10.95 -41.15 -11.9 M-41.3 -4.35 L-41.45 -4.35 -41.3 -4.7 -41.3 -4.35 M-24.1 -14.95 L-21.15 -15.75 -22.4 -14.8 -21.1 -15.7 Q-23.5 -11.35 -25.7 -11.35 -26.85 -11.35 -28.8 -12.9 L-30.9 -14.8 Q-25.3 -14.7 -24.1 -14.95 M-37.1 -20.5 Q-36.6 -19.2 -37.7 -16.5 -38.7 -14.0 -39.8 -13.05 L-42.2 -14.95 Q-40.1 -19.1 -38.65 -20.05 L-37.1 -20.5 M-36.7 -5.6 Q-36.15 -6.1 -35.35 -6.05 -34.55 -6.05 -34.5 -5.3 L-34.75 -3.3 -35.1 -2.35 -36.0 -4.05 -36.7 -5.6" fill="#ffef80" fill-rule="evenodd" stroke="none"/>
    <path d="M-48.85 -48.9 Q-51.05 -49.7 -50.65 -50.05 -50.3 -50.45 -49.05 -50.65 L-46.35 -50.75 -45.65 -50.7 -45.6 -48.8 Q-45.95 -48.15 -46.25 -47.95 -46.7 -47.55 -47.65 -47.55 L-48.75 -49.85 -48.85 -48.9 M-49.65 -45.8 L-49.8 -46.8 Q-48.45 -46.45 -46.2 -46.85 L-45.7 -45.55 -45.0 -42.3 -46.9 -42.25 Q-47.9 -42.9 -49.65 -45.8 M-44.9 -48.3 Q-44.7 -49.0 -43.95 -49.55 L-42.95 -48.65 Q-42.4 -48.05 -42.35 -47.4 -42.55 -45.4 -43.05 -44.75 -43.55 -44.15 -44.05 -44.6 -44.55 -45.1 -44.75 -46.35 L-44.9 -48.3 M-42.45 -23.7 Q-43.75 -24.05 -53.0 -28.8 L-52.85 -29.2 Q-44.85 -26.25 -42.45 -23.7 M-43.5 -31.8 L-43.25 -31.75 -42.95 -31.25 -43.0 -31.45 -42.95 -31.4 Q-42.85 -31.35 -42.9 -30.75 -43.6 -30.45 -44.25 -31.0 L-44.0 -31.55 -43.5 -31.8 M-42.3 -31.65 L-40.45 -31.45 Q-40.45 -31.85 -40.6 -32.05 L-41.9 -32.1 -43.65 -32.0 Q-43.9 -32.1 -43.9 -35.25 L-40.65 -35.4 -40.6 -32.5 -39.85 -32.1 -39.75 -32.0 -39.55 -32.45 -38.95 -32.75 -38.35 -32.45 -38.1 -31.7 Q-38.1 -31.25 -38.35 -30.95 -38.6 -30.65 -38.9 -30.65 L-38.4 -28.85 Q-37.95 -26.6 -38.2 -25.5 L-39.6 -24.5 -40.15 -24.65 -43.6 -27.75 Q-43.05 -30.5 -42.3 -31.65 M-35.95 -21.95 Q-36.4 -22.0 -36.45 -22.3 -33.85 -22.55 -28.65 -25.25 -23.15 -28.3 -21.35 -29.15 L-21.2 -28.8 Q-22.7 -27.75 -25.15 -26.35 L-29.15 -24.2 Q-33.65 -21.6 -35.95 -21.95 M-40.55 -22.7 L-41.8 -22.8 -41.75 -23.15 Q-40.65 -23.3 -40.35 -22.9 L-40.55 -22.7 M-19.75 -29.95 L-19.25 -30.05 -19.2 -30.1 -19.25 -30.0 -19.7 -29.9 -19.75 -29.95 M-20.55 -29.45 L-20.7 -29.6 -20.55 -29.85 -20.4 -29.8 -20.55 -29.45 M-26.1 -41.55 Q-25.95 -44.3 -24.8 -45.55 -24.2 -46.2 -23.55 -46.3 -22.0 -46.3 -21.95 -45.75 L-21.85 -43.9 -23.15 -42.25 -24.8 -41.45 -26.1 -41.55 M-37.55 -34.1 L-37.6 -35.65 -34.3 -35.3 -34.15 -33.8 Q-35.6 -32.45 -36.2 -32.45 L-37.35 -32.5 -37.55 -34.1 M-39.25 -34.3 L-38.55 -34.4 -38.8 -34.35 -38.95 -34.3 -39.25 -34.3 M-36.7 -24.45 L-36.55 -25.35 -36.1 -26.0 -35.65 -26.05 -35.45 -26.1 -35.0 -25.55 -34.85 -24.6 -36.2 -24.5 -36.7 -24.45 M-37.7 -28.5 L-37.3 -31.35 -34.2 -29.15 -34.85 -28.25 Q-35.65 -27.4 -36.4 -27.35 L-37.7 -28.5" fill="#fbb3b5" fill-rule="evenodd" stroke="none"/>
    <path d="M-45.6 -23.3 Q-44.4 -22.4 -44.4 -21.1 -44.4 -19.8 -45.6 -18.9 -46.8 -18.0 -48.5 -18.0 -50.2 -18.0 -51.4 -18.9 -52.6 -19.8 -52.6 -21.1 -52.6 -22.4 -51.4 -23.3 -50.2 -24.2 -48.5 -24.2 -46.8 -24.2 -45.6 -23.3 M-20.95 -21.25 Q-23.2 -18.2 -27.4 -18.2 -28.75 -18.2 -29.4 -19.4 -29.8 -20.1 -29.8 -20.7 -29.8 -22.2 -27.95 -23.25 -26.0 -24.35 -22.9 -24.35 -20.95 -24.35 -20.45 -23.4 -20.05 -22.5 -20.95 -21.25" fill="#ffffff" fill-rule="evenodd" stroke="none"/>
    <path d="M-45.65 -50.7 Q-45.2 -50.7 -45.65 -50.8 L-45.2 -50.8 Q-44.65 -48.95 -45.4 -47.9 -46.1 -46.95 -47.45 -46.95 L-47.95 -47.15 -48.85 -48.9 -48.75 -49.85 -47.65 -47.55 Q-46.7 -47.55 -46.25 -47.95 -45.95 -48.15 -45.6 -48.8 L-45.65 -50.7 M-42.35 -47.4 L-42.2 -47.5 -42.05 -46.85 -42.75 -44.0 -43.1 -43.8 -44.25 -43.6 -44.75 -43.75 -44.65 -42.15 -44.75 -40.8 -45.75 -40.55 -47.5 -40.35 -48.55 -42.15 Q-49.55 -44.2 -49.65 -45.8 -47.9 -42.9 -46.9 -42.25 L-45.0 -42.3 -45.7 -45.55 -45.05 -45.45 -45.1 -46.75 -45.0 -47.8 -44.9 -48.3 -44.75 -46.35 Q-44.55 -45.1 -44.05 -44.6 -43.55 -44.15 -43.05 -44.75 -42.55 -45.4 -42.35 -47.4 M-59.7 -31.25 L-59.8 -31.0 -60.1 -30.9 -60.35 -31.0 -60.5 -31.25 -60.35 -31.5 -60.1 -31.6 -59.8 -31.5 -59.7 -31.25 M-55.75 -29.3 L-59.0 -30.45 -58.95 -31.05 Q-58.0 -30.9 -55.6 -29.9 L-53.0 -28.8 Q-43.75 -24.05 -42.45 -23.7 -42.95 -23.15 -42.25 -23.7 L-41.95 -23.4 Q-42.1 -23.2 -42.95 -23.15 -45.35 -24.5 -52.05 -27.6 L-55.75 -29.3 M-43.25 -31.75 L-43.5 -31.8 -43.65 -32.0 -41.9 -32.1 -40.6 -32.05 Q-40.45 -31.85 -40.45 -31.45 L-42.3 -31.65 -43.25 -31.75 M-44.25 -31.0 Q-43.6 -30.45 -42.9 -30.75 -42.9 -30.3 -43.15 -30.05 L-43.65 -29.9 -44.1 -30.3 -44.25 -31.0 M-38.2 -25.5 Q-38.15 -24.85 -38.9 -23.95 L-39.65 -23.2 Q-40.95 -23.6 -42.2 -25.15 -43.25 -26.5 -43.6 -27.75 L-40.15 -24.65 -39.6 -24.5 -38.2 -25.5 M-61.65 -31.2 Q-62.05 -31.3 -62.25 -32.0 -62.15 -32.2 -61.3 -31.45 L-61.65 -31.2 M-40.55 -22.7 Q-40.75 -22.15 -40.55 -22.4 L-40.25 -22.45 Q-40.5 -22.15 -40.85 -22.15 L-41.6 -22.4 -41.8 -22.8 -40.55 -22.7 M-34.4 -21.6 L-36.05 -21.9 -35.95 -21.95 Q-33.65 -21.6 -29.15 -24.2 L-24.85 -26.35 -20.7 -28.8 Q-21.65 -27.65 -22.85 -26.65 L-22.95 -26.55 -24.2 -25.75 -32.25 -22.05 -34.4 -21.6 M-19.25 -30.05 L-18.8 -30.65 Q-18.55 -30.15 -19.25 -30.0 L-19.2 -30.1 -19.25 -30.05 M-19.7 -29.9 L-19.65 -29.75 -20.1 -29.4 -20.5 -29.2 -20.55 -29.45 -20.4 -29.8 -19.75 -29.95 -19.7 -29.9 M-26.1 -41.55 L-24.8 -41.45 -23.15 -42.25 -21.85 -43.9 Q-21.55 -42.2 -22.5 -41.25 -23.35 -40.4 -24.7 -40.4 -25.35 -40.4 -25.65 -40.7 L-26.2 -41.45 -26.1 -41.55 M-34.15 -33.8 L-34.05 -33.8 -34.25 -32.0 -37.55 -31.55 -37.65 -31.9 -37.65 -34.1 -37.55 -34.1 -37.35 -32.5 -36.2 -32.45 Q-35.6 -32.45 -34.15 -33.8 M-38.8 -34.35 L-38.35 -34.2 -39.6 -33.15 Q-40.0 -33.2 -40.0 -34.25 L-39.55 -34.3 -39.25 -34.3 -38.95 -34.3 -38.8 -34.35 M-36.7 -24.45 L-36.2 -24.5 -34.85 -24.6 -34.6 -24.35 Q-34.5 -24.05 -34.9 -23.7 L-36.5 -23.8 -36.7 -24.45 M-35.45 -26.1 L-35.65 -26.05 -36.1 -26.0 Q-36.55 -26.1 -36.95 -26.5 -37.55 -27.15 -37.7 -28.5 L-36.4 -27.35 Q-35.65 -27.4 -34.85 -28.25 L-34.2 -29.15 Q-34.1 -28.2 -34.5 -27.2 -34.9 -26.35 -35.45 -26.1" fill="#570406" fill-rule="evenodd" stroke="none"/>
  </g>
</svg>
