<?xml version="1.0" encoding="UTF-8" standalone="no"?>
<svg xmlns:xlink="http://www.w3.org/1999/xlink" height="66.0px" width="54.15px" xmlns="http://www.w3.org/2000/svg">
  <g transform="matrix(1.0, 0.0, 0.0, 1.0, 72.6, 55.35)">
    <path d="M-29.15 -12.95 L-23.6 -12.95 -25.65 -9.9 -28.15 -4.55 Q-29.75 -1.0 -33.25 2.8 L-37.9 7.55 Q-39.1 8.6 -39.8 9.8 L-41.55 10.55 -41.95 10.45 Q-41.85 10.3 -42.25 9.9 L-48.2 8.95 Q-49.1 10.45 -48.55 10.1 L-49.3 10.65 -51.15 10.05 -52.95 2.85 -54.35 -1.55 -54.65 -2.35 -56.85 -8.85 -58.25 -12.95 -52.9 -12.95 -53.4 -9.8 -53.15 -5.15 -52.65 -2.35 -51.9 0.5 -50.5 4.45 -49.95 5.8 -49.9 5.65 Q-49.8 4.15 -49.3 2.75 L-49.25 2.7 -48.4 1.0 -46.6 4.9 -46.15 5.95 -44.35 5.95 -44.2 4.95 -44.0 1.5 -43.2 2.4 -41.2 4.65 -41.25 6.4 -40.75 6.45 -40.75 6.4 -40.35 6.35 -38.6 4.75 -37.1 2.85 -36.05 1.35 -33.25 -3.15 Q-31.9 -5.45 -30.8 -7.9 -29.65 -10.35 -29.15 -12.95 M-43.6 5.4 L-43.35 6.7 Q-43.1 7.45 -42.45 7.45 -41.65 7.45 -41.45 6.25 L-41.35 5.2 Q-41.6 3.85 -42.9 3.45 -43.5 3.2 -43.65 3.7 L-43.75 4.5 -43.6 5.4 M-48.8 3.45 L-49.1 3.65 -49.55 4.5 -49.6 4.95 -49.55 5.5 -49.55 5.55 -49.05 6.5 Q-48.55 7.3 -47.75 7.3 -46.8 7.3 -46.85 6.15 L-47.0 5.15 -47.0 4.95 Q-47.5 2.85 -48.65 3.4 L-48.8 3.45" fill="#d68b01" fill-rule="evenodd" stroke="none"/>
    <path d="M-43.2 2.4 L-44.0 1.5 -44.2 4.95 -46.6 4.9 -48.4 1.0 -49.25 2.7 -49.3 2.75 -49.95 1.7 -49.8 1.2 -50.15 -0.15 -50.7 -2.35 -50.95 -4.55 Q-51.2 -6.9 -50.4 -9.2 -49.6 -11.4 -47.1 -12.95 L-36.3 -12.95 Q-33.6 -12.0 -33.8 -9.3 -33.95 -6.85 -35.15 -4.3 -36.0 -2.2 -37.45 -0.2 L-37.5 -0.15 -39.85 2.85 Q-39.85 1.7 -40.55 1.2 L-43.0 2.0 -43.0 1.9 -43.05 2.0 -43.2 2.4" fill="#360101" fill-rule="evenodd" stroke="none"/>
    <path d="M-29.15 -12.95 Q-29.65 -10.35 -30.8 -7.9 -31.9 -5.45 -33.25 -3.15 L-36.05 1.35 -37.1 2.85 -38.6 4.75 -40.35 6.35 -40.75 6.4 -40.75 6.45 -41.25 6.4 -41.2 4.65 -43.2 2.4 -43.05 2.0 -43.0 1.9 -43.0 2.0 -40.55 1.2 Q-39.85 1.7 -39.85 2.85 L-37.5 -0.15 -37.45 -0.2 Q-36.0 -2.2 -35.15 -4.3 -33.95 -6.85 -33.8 -9.3 -33.6 -12.0 -36.3 -12.95 L-29.15 -12.95 M-44.2 4.95 L-44.35 5.95 -46.15 5.95 -46.6 4.9 -44.2 4.95 M-49.3 2.75 Q-49.8 4.15 -49.9 5.65 L-49.95 5.8 -50.5 4.45 -51.9 0.5 -52.65 -2.35 -53.15 -5.15 -53.4 -9.8 -52.9 -12.95 -47.1 -12.95 Q-49.6 -11.4 -50.4 -9.2 -51.2 -6.9 -50.95 -4.55 L-50.7 -2.35 -50.15 -0.15 -49.8 1.2 -49.95 1.7 -49.3 2.75" fill="#1c0000" fill-rule="evenodd" stroke="none"/>
    <path d="M-48.8 3.45 L-48.65 3.4 Q-47.5 2.85 -47.0 4.95 L-47.0 5.15 -46.85 6.15 Q-46.8 7.3 -47.75 7.3 -48.55 7.3 -49.05 6.5 L-49.55 5.55 -49.55 5.5 -49.6 4.95 -49.55 4.5 -49.1 3.65 -48.8 3.45 M-43.6 5.4 L-43.75 4.5 -43.65 3.7 Q-43.5 3.2 -42.9 3.45 -41.6 3.85 -41.35 5.2 L-41.45 6.25 Q-41.65 7.45 -42.45 7.45 -43.1 7.45 -43.35 6.7 L-43.6 5.4" fill="#ebc905" fill-rule="evenodd" stroke="none"/>
    <path d="M-26.8 -47.1 L-26.95 -46.1 Q-28.7 -43.2 -29.7 -42.55 L-31.6 -42.6 -30.4 -47.15 Q-28.1 -46.75 -26.8 -47.1" fill="#fbb3b5" fill-rule="evenodd" stroke="none"/>
    <path d="M-52.55 -42.0 L-53.45 -42.55 -51.8 -41.75 -52.55 -42.0" fill="#8d070b" fill-rule="evenodd" stroke="none"/>
    <path d="M-37.3 -29.7 L-33.6 -31.4 Q-33.5 -27.3 -34.35 -23.9 -35.95 -17.25 -41.55 -17.25 -45.25 -17.25 -48.3 -19.75 -51.35 -22.3 -53.7 -22.3 -54.85 -22.3 -56.4 -19.7 -57.95 -17.15 -59.3 -17.15 -62.1 -17.15 -63.05 -19.5 -63.55 -20.75 -63.55 -23.4 -63.55 -25.85 -62.85 -27.15 -62.15 -28.5 -60.5 -29.15 L-59.6 -28.0 Q-62.25 -27.95 -62.95 -26.3 -63.15 -25.8 -63.15 -24.35 -63.2 -22.9 -62.7 -21.6 -61.7 -18.95 -58.8 -18.95 -58.35 -18.95 -57.5 -20.2 -56.45 -21.8 -55.95 -24.15 L-56.05 -24.3 Q-56.2 -24.6 -54.95 -24.9 L-52.45 -25.2 -50.45 -24.7 -48.45 -24.25 -47.6 -24.4 -47.2 -24.75 Q-46.3 -20.5 -45.65 -19.7 -44.65 -18.55 -40.95 -18.55 -37.45 -18.55 -35.75 -21.85 -34.7 -23.9 -34.7 -25.85 -34.7 -28.25 -37.3 -29.7" fill="#4f0404" fill-rule="evenodd" stroke="none"/>
    <path d="M-59.6 -28.0 L-60.5 -29.15 Q-62.15 -28.5 -62.85 -27.15 -63.55 -25.85 -63.55 -23.4 -63.55 -20.75 -63.05 -19.5 -62.1 -17.15 -59.3 -17.15 -57.95 -17.15 -56.4 -19.7 -54.85 -22.3 -53.7 -22.3 -51.35 -22.3 -48.3 -19.75 -45.25 -17.25 -41.55 -17.25 -35.95 -17.25 -34.35 -23.9 -33.5 -27.3 -33.6 -31.4 L-37.3 -29.7 -47.2 -24.75 -47.6 -24.4 -48.45 -24.25 -50.45 -24.7 -52.45 -25.2 -54.95 -24.9 Q-56.2 -24.6 -56.05 -24.3 L-58.75 -27.1 -59.6 -28.0 M-52.65 -3.4 L-52.95 -2.2 Q-55.8 -3.25 -56.5 -5.1 L-58.45 -9.8 -58.55 -11.85 Q-58.8 -14.0 -59.4 -14.5 L-63.0 -18.05 -65.0 -22.75 Q-66.95 -27.7 -70.15 -31.85 -68.75 -32.5 -67.75 -32.5 L-65.25 -32.05 -63.95 -32.2 Q-63.45 -32.2 -62.5 -31.5 -61.55 -30.85 -61.05 -30.85 -60.9 -30.85 -56.3 -32.75 L-44.7 -32.5 -33.5 -31.65 -20.9 -29.4 Q-20.65 -29.4 -18.45 -30.5 L-18.45 -27.3 -21.3 -27.85 -21.25 -26.8 -21.1 -25.05 Q-21.1 -16.65 -25.5 -14.95 L-27.0 -14.05 Q-28.8 -13.5 -33.25 -13.95 L-35.75 -13.2 Q-38.65 -12.45 -41.1 -12.45 L-40.75 -11.65 Q-41.7 -11.25 -41.7 -10.25 L-41.6 -2.75 Q-41.55 -2.4 -41.0 -2.4 L-43.6 -1.55 -44.0 -3.2 Q-44.45 -4.9 -44.85 -5.3 L-44.85 -1.4 -47.9 -0.75 -48.35 -5.05 -49.15 -1.85 -50.35 -2.6 Q-51.6 -3.7 -52.0 -5.5 -52.05 -6.45 -52.4 -7.1 -52.85 -7.8 -53.45 -7.8 -54.05 -7.8 -54.45 -7.1 -54.9 -6.4 -54.9 -5.4 -54.9 -4.4 -54.45 -3.7 -54.05 -3.0 -53.45 -3.0 -53.0 -3.0 -52.65 -3.4 M-18.95 -19.35 Q-19.1 -18.2 -20.4 -16.2 -22.0 -13.75 -24.15 -12.3 L-21.65 -15.35 Q-19.7 -17.9 -18.95 -19.35 M-28.75 -10.55 L-30.7 -9.95 -40.0 -9.55 -28.75 -10.55 M-40.25 -8.05 Q-40.3 -4.55 -40.5 -3.35 -40.65 -2.55 -40.95 -2.45 L-40.25 -9.0 -40.25 -8.05 M-47.7 -15.1 L-50.55 -15.1 -57.45 -16.05 Q-57.25 -15.25 -56.45 -15.1 L-57.0 -15.3 Q-56.1 -14.2 -54.9 -13.55 -53.8 -12.95 -52.8 -12.95 -49.45 -12.95 -48.55 -13.7 L-47.7 -15.1 M-54.15 -11.45 L-56.45 -11.45 -55.3 -9.1 -54.15 -11.45 M-52.2 -10.6 L-51.9 -9.65 Q-51.6 -9.25 -51.15 -9.25 -50.7 -9.25 -50.4 -9.65 -50.1 -10.05 -50.1 -10.6 -50.1 -11.15 -50.4 -11.55 -50.7 -11.95 -51.15 -11.95 -51.6 -11.95 -51.9 -11.55 L-52.2 -10.6 M-47.7 -6.5 Q-46.7 -5.75 -46.7 -1.45 L-46.0 -2.1 Q-45.25 -3.15 -44.85 -5.3 L-43.95 -5.7 Q-44.95 -7.3 -46.4 -7.3 L-47.05 -7.2 -47.7 -6.5 M-50.55 -6.7 L-50.25 -3.6 -50.0 -2.65 -48.7 -4.45 Q-48.4 -4.95 -49.05 -6.45 L-50.55 -6.7" fill="#ebc905" fill-rule="evenodd" stroke="none"/>
    <path d="M-37.3 -29.7 Q-34.7 -28.25 -34.7 -25.85 -34.7 -23.9 -35.75 -21.85 -37.45 -18.55 -40.95 -18.55 -44.65 -18.55 -45.65 -19.7 -46.3 -20.5 -47.2 -24.75 L-37.3 -29.7 M-56.05 -24.3 L-55.95 -24.15 Q-56.45 -21.8 -57.5 -20.2 -58.35 -18.95 -58.8 -18.95 -61.7 -18.95 -62.7 -21.6 -63.2 -22.9 -63.15 -24.35 -63.15 -25.8 -62.95 -26.3 -62.25 -27.95 -59.6 -28.0 L-58.75 -27.1 -56.05 -24.3 M-59.75 -26.5 Q-60.75 -26.5 -61.45 -25.6 -62.15 -24.7 -62.15 -23.4 -62.15 -22.1 -61.45 -21.2 -60.75 -20.3 -59.75 -20.3 -58.75 -20.3 -58.05 -21.2 -57.35 -22.1 -57.35 -23.4 -57.35 -24.7 -58.05 -25.6 -58.75 -26.5 -59.75 -26.5 M-43.7 -25.4 Q-44.9 -24.5 -44.9 -23.2 -44.9 -21.9 -43.7 -21.0 -42.5 -20.1 -40.8 -20.1 -39.1 -20.1 -37.9 -21.0 -36.7 -21.9 -36.7 -23.2 -36.7 -24.5 -37.9 -25.4 -39.1 -26.3 -40.8 -26.3 -42.5 -26.3 -43.7 -25.4 M-52.2 -10.6 L-51.9 -11.55 Q-51.6 -11.95 -51.15 -11.95 -50.7 -11.95 -50.4 -11.55 -50.1 -11.15 -50.1 -10.6 -50.1 -10.05 -50.4 -9.65 -50.7 -9.25 -51.15 -9.25 -51.6 -9.25 -51.9 -9.65 L-52.2 -10.6 M-54.15 -11.45 L-55.3 -9.1 -56.45 -11.45 -54.15 -11.45" fill="#220d0d" fill-rule="evenodd" stroke="none"/>
    <path d="M-18.45 -27.3 L-18.5 -23.65 Q-18.65 -19.9 -18.95 -19.35 -19.7 -17.9 -21.65 -15.35 L-24.15 -12.3 -26.15 -11.35 Q-27.9 -10.6 -28.65 -10.55 L-28.7 -10.55 -28.75 -10.55 -40.0 -9.55 -40.25 -8.05 -40.25 -9.0 -40.95 -2.45 -41.0 -2.4 Q-41.55 -2.4 -41.6 -2.75 L-41.7 -10.25 Q-41.7 -11.25 -40.75 -11.65 L-41.1 -12.45 Q-38.65 -12.45 -35.75 -13.2 L-33.25 -13.95 Q-28.8 -13.5 -27.0 -14.05 L-25.5 -14.95 Q-21.1 -16.65 -21.1 -25.05 L-21.25 -26.8 -21.3 -27.85 -18.45 -27.3 M-52.0 -5.5 L-52.0 -5.4 Q-52.0 -4.4 -52.4 -3.7 L-52.65 -3.4 Q-53.0 -3.0 -53.45 -3.0 -54.05 -3.0 -54.45 -3.7 -54.9 -4.4 -54.9 -5.4 -54.9 -6.4 -54.45 -7.1 -54.05 -7.8 -53.45 -7.8 -52.85 -7.8 -52.4 -7.1 -52.05 -6.45 -52.0 -5.5 M-47.7 -15.1 L-48.55 -13.7 Q-49.45 -12.95 -52.8 -12.95 -53.8 -12.95 -54.9 -13.55 -56.1 -14.2 -57.0 -15.3 L-56.45 -15.1 Q-57.25 -15.25 -57.45 -16.05 L-50.55 -15.1 -47.7 -15.1 M-50.55 -6.7 L-49.05 -6.45 Q-48.4 -4.95 -48.7 -4.45 L-50.0 -2.65 -50.25 -3.6 -50.55 -6.7 M-47.7 -6.5 L-47.05 -7.2 -46.4 -7.3 Q-44.95 -7.3 -43.95 -5.7 L-44.85 -5.3 Q-45.25 -3.15 -46.0 -2.1 L-46.7 -1.45 Q-46.7 -5.75 -47.7 -6.5" fill="#ffef80" fill-rule="evenodd" stroke="none"/>
    <path d="M-43.7 -25.4 Q-42.5 -26.3 -40.8 -26.3 -39.1 -26.3 -37.9 -25.4 -36.7 -24.5 -36.7 -23.2 -36.7 -21.9 -37.9 -21.0 -39.1 -20.1 -40.8 -20.1 -42.5 -20.1 -43.7 -21.0 -44.9 -21.9 -44.9 -23.2 -44.9 -24.5 -43.7 -25.4 M-59.75 -26.5 Q-58.75 -26.5 -58.05 -25.6 -57.35 -24.7 -57.35 -23.4 -57.35 -22.1 -58.05 -21.2 -58.75 -20.3 -59.75 -20.3 -60.75 -20.3 -61.45 -21.2 -62.15 -22.1 -62.15 -23.4 -62.15 -24.7 -61.45 -25.6 -60.75 -26.5 -59.75 -26.5" fill="#ffffff" fill-rule="evenodd" stroke="none"/>
    <path d="M-37.05 -48.2 L-37.1 -48.1 Q-37.1 -45.95 -36.35 -45.7 -35.15 -47.2 -34.2 -48.95 L-34.6 -47.45 -34.45 -46.35 -36.35 -43.25 -34.5 -43.15 Q-33.2 -43.8 -30.4 -46.55 -31.15 -44.85 -32.55 -43.1 -33.95 -41.35 -34.6 -41.35 -35.6 -41.35 -37.0 -42.2 L-35.45 -45.8 -36.6 -44.45 -37.95 -44.85 Q-37.7 -47.55 -37.05 -48.2 M-30.05 -49.5 Q-31.3 -47.65 -32.15 -47.65 L-33.5 -47.75 -33.7 -48.2 -33.9 -49.15 -33.6 -50.65 Q-33.15 -52.05 -32.55 -51.35 L-33.0 -50.15 -33.35 -49.45 -32.95 -48.7 Q-32.5 -48.25 -31.75 -48.25 -31.05 -48.25 -30.85 -48.6 L-29.8 -50.4 -29.7 -50.25 -30.05 -49.5 M-26.6 -32.5 L-26.1 -32.55 Q-31.25 -29.25 -45.55 -25.0 L-45.85 -25.5 -33.4 -30.4 -26.6 -32.5 M-54.7 -23.5 Q-56.15 -23.75 -59.3 -25.2 -62.9 -26.9 -64.35 -28.35 L-65.7 -30.4 -64.9 -29.85 Q-60.4 -26.7 -56.85 -25.05 -54.1 -23.8 -53.0 -23.85 L-54.7 -23.5 M-55.55 -42.5 L-55.5 -42.4 -56.25 -41.65 -57.3 -41.4 Q-57.55 -41.4 -58.45 -41.95 -59.55 -42.6 -59.95 -43.45 -59.9 -44.0 -58.9 -44.75 L-58.25 -43.2 -56.9 -42.4 -55.55 -42.5 M-52.1 -30.7 L-51.75 -29.05 -49.8 -29.55 -48.8 -30.1 -49.9 -29.1 Q-51.3 -28.15 -52.85 -28.35 L-52.1 -30.7 M-51.0 -27.4 L-51.1 -25.6 Q-53.45 -25.6 -53.8 -26.05 L-53.1 -26.75 -52.1 -27.75 -51.0 -27.4 M-45.2 -34.5 Q-46.35 -34.45 -45.85 -34.8 -44.9 -35.35 -45.75 -35.7 L-44.8 -35.6 Q-44.55 -35.65 -45.2 -34.5 M-43.2 -29.4 Q-43.55 -28.35 -48.85 -25.05 -49.9 -26.3 -49.45 -27.25 -47.6 -26.65 -45.65 -27.7 L-43.2 -29.4 M-41.35 -32.45 Q-41.45 -31.65 -42.55 -31.5 L-42.8 -31.35 -42.9 -31.85 Q-42.9 -32.85 -42.8 -32.25 L-41.35 -32.45 M-42.25 -33.2 L-44.6 -33.45 -41.55 -33.4 -41.8 -33.25 -42.25 -33.2 M-46.9 -35.4 Q-46.85 -34.45 -47.3 -33.7 -47.8 -33.0 -48.5 -32.9 -49.25 -32.85 -49.8 -33.45 -50.35 -34.1 -50.4 -35.15 -50.05 -34.5 -48.8 -34.15 L-47.65 -33.9 -46.9 -35.4 M-66.25 -31.45 L-65.65 -31.35 -65.6 -31.0 -66.25 -30.85 -66.3 -31.4 -66.25 -31.45" fill="#570406" fill-rule="evenodd" stroke="none"/>
    <path d="M-37.05 -48.2 Q-36.05 -50.15 -34.7 -50.15 -34.1 -50.15 -34.1 -49.95 L-34.1 -49.6 -34.2 -48.95 Q-35.15 -47.2 -36.35 -45.7 -37.1 -45.95 -37.1 -48.1 L-37.05 -48.2 M-32.55 -51.35 L-32.35 -51.85 -30.9 -51.35 -29.35 -50.45 -30.05 -49.5 -29.7 -50.25 -29.8 -50.4 -30.85 -48.6 Q-31.05 -48.25 -31.75 -48.25 -32.5 -48.25 -32.95 -48.7 L-33.35 -49.45 -33.0 -50.15 -32.55 -51.35 M-47.15 -24.3 L-48.25 -24.0 -48.45 -24.15 -48.3 -24.8 Q-48.15 -25.15 -47.5 -25.15 L-46.75 -25.05 -46.8 -24.95 -47.0 -24.45 -47.15 -24.3 M-64.9 -29.85 L-64.95 -30.7 -52.75 -23.85 -53.0 -23.85 Q-54.1 -23.8 -56.85 -25.05 -60.4 -26.7 -64.9 -29.85 M-58.9 -44.75 L-58.6 -45.6 Q-58.15 -46.35 -56.3 -47.05 -54.35 -45.75 -55.55 -42.5 L-56.9 -42.4 -58.25 -43.2 -58.9 -44.75 M-48.8 -30.1 L-49.8 -29.55 -51.75 -29.05 -52.1 -30.7 -48.15 -32.8 -48.8 -30.1 M-49.45 -27.25 Q-47.6 -30.9 -46.2 -32.15 L-46.4 -32.15 Q-46.8 -32.15 -47.05 -32.4 L-47.35 -33.05 -47.05 -33.65 Q-46.8 -33.95 -46.4 -33.95 -46.0 -33.95 -45.7 -33.65 L-45.45 -33.05 -45.55 -32.65 -44.85 -32.85 Q-44.05 -32.85 -43.3 -31.55 -42.55 -30.2 -43.2 -29.4 L-45.65 -27.7 Q-47.6 -26.65 -49.45 -27.25 M-41.8 -33.25 Q-41.3 -33.25 -40.95 -32.9 L-41.1 -32.85 -41.35 -32.45 -42.8 -32.25 -42.25 -33.2 -41.8 -33.25 M-44.6 -33.45 Q-43.55 -35.55 -42.0 -36.1 L-40.3 -36.05 -41.55 -33.4 -44.6 -33.45 M-50.4 -35.15 Q-49.6 -36.6 -46.3 -36.8 L-46.9 -35.4 -47.65 -33.9 -48.8 -34.15 Q-50.05 -34.5 -50.4 -35.15 M-66.3 -31.4 Q-67.15 -31.9 -67.0 -32.1 -66.3 -31.8 -66.25 -31.45 L-66.3 -31.4 M-45.85 -25.5 Q-43.9 -26.7 -39.1 -28.55 -34.45 -30.3 -33.4 -30.4 L-45.85 -25.5" fill="#fbb3b5" fill-rule="evenodd" stroke="none"/>
    <path d="M-34.2 -48.95 L-34.1 -49.6 -34.1 -49.95 Q-34.1 -50.15 -34.7 -50.15 -36.05 -50.15 -37.05 -48.2 -37.7 -47.55 -37.95 -44.85 L-36.6 -44.45 -35.45 -45.8 -37.0 -42.2 Q-35.6 -41.35 -34.6 -41.35 -33.95 -41.35 -32.55 -43.1 -31.15 -44.85 -30.4 -46.55 L-29.9 -47.5 Q-30.95 -47.3 -33.45 -47.55 -34.0 -47.55 -34.1 -47.2 -34.2 -46.6 -34.45 -46.35 L-34.6 -47.45 -34.2 -48.95 M-30.05 -49.5 L-29.35 -50.45 -30.9 -51.35 -32.35 -51.85 -32.55 -51.35 Q-33.15 -52.05 -33.6 -50.65 L-33.9 -49.15 -33.7 -48.2 -33.5 -47.75 -32.15 -47.65 Q-31.3 -47.65 -30.05 -49.5 M-64.35 -28.35 L-72.6 -33.35 Q-69.5 -41.75 -59.25 -48.5 -48.85 -55.35 -38.7 -55.35 -31.2 -55.35 -27.6 -50.85 -24.95 -47.55 -24.95 -42.9 -24.95 -38.85 -26.6 -32.5 L-33.4 -30.4 Q-34.45 -30.3 -39.1 -28.55 -43.9 -26.7 -45.85 -25.5 L-45.55 -25.0 -47.15 -24.3 -47.0 -24.45 -46.8 -24.95 -46.75 -25.05 -47.5 -25.15 Q-48.15 -25.15 -48.3 -24.8 L-48.45 -24.15 -48.25 -24.0 -51.45 -23.55 Q-54.15 -23.35 -54.7 -23.5 L-53.0 -23.85 -52.75 -23.85 -64.95 -30.7 -64.9 -29.85 -65.7 -30.4 -64.35 -28.35 M-58.9 -44.75 Q-59.9 -44.0 -59.95 -43.45 -59.55 -42.6 -58.45 -41.95 -57.55 -41.4 -57.3 -41.4 L-56.25 -41.65 -55.5 -42.4 -55.55 -42.5 Q-54.35 -45.75 -56.3 -47.05 -58.15 -46.35 -58.6 -45.6 L-58.9 -44.75 M-52.1 -30.7 L-52.85 -28.35 Q-51.3 -28.15 -49.9 -29.1 L-48.8 -30.1 -48.15 -32.8 -52.1 -30.7 M-45.2 -34.5 Q-44.55 -35.65 -44.8 -35.6 L-45.75 -35.7 Q-44.9 -35.35 -45.85 -34.8 -46.35 -34.45 -45.2 -34.5 M-51.0 -27.4 L-52.1 -27.75 -53.1 -26.75 -53.8 -26.05 Q-53.45 -25.6 -51.1 -25.6 L-51.0 -27.4 M-43.2 -29.4 Q-42.55 -30.2 -43.3 -31.55 -44.05 -32.85 -44.85 -32.85 L-45.55 -32.65 -45.45 -33.05 -45.7 -33.65 Q-46.0 -33.95 -46.4 -33.95 -46.8 -33.95 -47.05 -33.65 L-47.35 -33.05 -47.05 -32.4 Q-46.8 -32.15 -46.4 -32.15 L-46.2 -32.15 Q-47.6 -30.9 -49.45 -27.25 -49.9 -26.3 -48.85 -25.05 -43.55 -28.35 -43.2 -29.4 M-41.35 -32.45 L-41.1 -32.85 -40.95 -32.9 Q-41.3 -33.25 -41.8 -33.25 L-41.55 -33.4 -40.3 -36.05 -42.0 -36.1 Q-43.55 -35.55 -44.6 -33.45 L-42.25 -33.2 -42.8 -32.25 Q-42.9 -32.85 -42.9 -31.85 L-42.8 -31.35 -42.55 -31.5 Q-41.45 -31.65 -41.35 -32.45 M-46.9 -35.4 L-46.3 -36.8 Q-49.6 -36.6 -50.4 -35.15 -50.35 -34.1 -49.8 -33.45 -49.25 -32.85 -48.5 -32.9 -47.8 -33.0 -47.3 -33.7 -46.85 -34.45 -46.9 -35.4 M-66.3 -31.4 L-66.25 -30.85 -65.6 -31.0 -65.65 -31.35 -66.25 -31.45 Q-66.3 -31.8 -67.0 -32.1 -67.15 -31.9 -66.3 -31.4" fill="#8d070b" fill-rule="evenodd" stroke="none"/>
  </g>
</svg>
