<?xml version="1.0" encoding="UTF-8" standalone="no"?>
<svg xmlns:xlink="http://www.w3.org/1999/xlink" height="14.85px" width="22.35px" xmlns="http://www.w3.org/2000/svg">
  <g transform="matrix(1.0, 0.0, 0.0, 1.0, 58.4, -87.1)">
    <path d="M-36.95 95.15 Q-36.65 95.3 -36.65 96.25 -36.65 97.25 -40.15 99.05 -43.3 100.7 -44.3 100.7 L-48.25 100.55 Q-48.55 101.15 -48.55 99.7 -48.55 98.05 -46.85 96.55 -43.95 93.85 -37.65 94.75 L-36.95 95.15" fill="#fbb3b5" fill-rule="evenodd" stroke="none"/>
    <path d="M-36.15 87.7 L-36.05 89.0 Q-36.05 90.55 -36.35 90.9 -37.1 91.85 -40.85 93.15 -41.65 93.05 -41.85 92.75 -42.15 92.45 -42.15 91.45 L-41.25 89.45 Q-40.3 87.6 -39.65 87.1 L-36.5 87.2 -36.15 87.7" fill="#fbb3b5" fill-rule="evenodd" stroke="none"/>
    <path d="M-49.25 95.3 L-48.9 95.5 -48.85 96.35 Q-48.85 97.75 -51.0 99.5 -53.25 101.35 -55.9 101.85 L-58.1 101.7 Q-58.4 102.45 -58.4 101.0 -58.4 99.25 -55.9 97.8 -54.45 96.95 -50.7 95.2 L-49.25 95.3 M-52.15 98.4 L-50.3 96.75 Q-50.7 96.75 -52.15 98.2 L-52.15 98.4" fill="#ff0000" fill-rule="evenodd" stroke="none"/>
  </g>
</svg>
