<?xml version="1.0" encoding="UTF-8" standalone="no"?>
<svg xmlns:xlink="http://www.w3.org/1999/xlink" height="56.0px" width="659.05px" xmlns="http://www.w3.org/2000/svg">
  <g transform="matrix(1.0, 0.0, 0.0, 1.0, 327.5, 26.0)">
    <path d="M71.55 -22.0 L71.55 30.0 19.6 30.0 19.6 -22.0 71.55 -22.0 M160.0 -22.0 L160.0 4.0 175.55 4.0 175.55 30.0 128.8 30.0 128.8 -22.0 160.0 -22.0 M123.55 -22.0 L123.55 19.6 108.0 19.6 108.0 30.0 76.8 30.0 76.8 -22.0 123.55 -22.0 M227.55 -22.0 L227.55 30.0 180.8 30.0 180.8 -22.0 227.55 -22.0 M279.55 -22.0 L279.55 14.4 269.2 14.4 269.2 30.0 243.2 30.0 243.2 14.4 232.8 14.4 232.8 -22.0 279.55 -22.0 M331.55 -22.0 L331.55 30.0 284.8 30.0 284.8 -22.0 331.55 -22.0 M14.4 30.0 L-32.35 30.0 -32.35 -22.0 14.4 -22.0 14.4 30.0 M-276.75 -22.0 L-276.75 30.0 -323.5 30.0 -323.5 -22.0 -276.75 -22.0 M-167.6 -22.0 L-167.6 30.0 -219.55 30.0 -219.55 -22.0 -167.6 -22.0 M-224.8 -22.0 L-224.8 30.0 -271.55 30.0 -271.55 -22.0 -224.8 -22.0 M-37.6 -22.0 L-37.6 30.0 -84.35 30.0 -84.35 -22.0 -37.6 -22.0 M-115.6 -22.0 L-115.6 30.0 -162.35 30.0 -162.35 -22.0 -115.6 -22.0" fill="#333333" fill-rule="evenodd" stroke="none"/>
    <path d="M67.55 -26.0 L67.55 26.0 15.6 26.0 15.6 -26.0 67.55 -26.0 M20.8 -20.8 L20.8 20.8 31.15 20.8 31.15 5.2 36.35 5.2 36.35 20.8 46.8 20.8 46.8 5.2 52.0 5.2 52.0 20.8 62.35 20.8 62.35 -20.8 20.8 -20.8 M104.0 -10.4 L104.0 0.0 98.75 0.0 98.75 -10.4 104.0 -10.4 M156.0 -26.0 L156.0 0.0 171.55 0.0 171.55 26.0 124.8 26.0 124.8 -26.0 156.0 -26.0 M130.0 -20.8 L130.0 20.8 166.35 20.8 166.35 5.2 150.75 5.2 150.75 -20.8 130.0 -20.8 M78.0 -20.8 L78.0 20.8 98.75 20.8 98.75 10.4 114.35 10.4 114.35 -20.8 78.0 -20.8 M119.55 -26.0 L119.55 15.6 104.0 15.6 104.0 26.0 72.8 26.0 72.8 -26.0 119.55 -26.0 M202.75 -5.2 L202.75 -10.4 218.35 -10.4 218.35 -20.8 182.0 -20.8 182.0 20.8 218.35 20.8 218.35 10.4 202.75 10.4 202.75 5.2 218.35 5.2 218.35 -5.2 202.75 -5.2 M223.55 -26.0 L223.55 26.0 176.8 26.0 176.8 -26.0 223.55 -26.0 M322.35 -10.4 L322.35 -20.8 286.0 -20.8 286.0 20.8 322.35 20.8 322.35 10.4 306.75 10.4 306.75 5.2 322.35 5.2 322.35 -5.2 306.75 -5.2 306.75 -10.4 322.35 -10.4 M275.55 -26.0 L275.55 10.4 265.2 10.4 265.2 26.0 239.2 26.0 239.2 10.4 228.8 10.4 228.8 -26.0 275.55 -26.0 M234.0 -20.8 L234.0 5.2 244.4 5.2 244.4 20.8 260.0 20.8 260.0 5.2 270.35 5.2 270.35 -20.8 234.0 -20.8 M327.55 -26.0 L327.55 26.0 280.8 26.0 280.8 -26.0 327.55 -26.0 M10.4 26.0 L-36.35 26.0 -36.35 -26.0 10.4 -26.0 10.4 26.0 M5.2 -20.8 L-31.15 -20.8 -31.15 20.8 5.2 20.8 5.2 -20.8 M-285.95 -10.4 L-285.95 -20.8 -322.3 -20.8 -322.3 20.8 -285.95 20.8 -285.95 -5.2 -306.75 -5.2 -306.75 5.2 -296.35 5.2 -296.35 10.4 -311.95 10.4 -311.95 -10.4 -285.95 -10.4 M-249.6 -10.4 L-249.6 0.0 -254.8 0.0 -254.8 -10.4 -249.6 -10.4 M-171.6 -26.0 L-171.6 26.0 -223.55 26.0 -223.55 -26.0 -171.6 -26.0 M-218.35 -20.8 L-218.35 20.8 -208.0 20.8 -208.0 5.2 -202.8 5.2 -202.8 20.8 -192.35 20.8 -192.35 5.2 -187.15 5.2 -187.15 20.8 -176.8 20.8 -176.8 -20.8 -218.35 -20.8 M-270.35 -20.8 L-270.35 20.8 -254.8 20.8 -254.8 10.4 -249.6 10.4 -249.6 20.8 -234.0 20.8 -234.0 -20.8 -270.35 -20.8 M-228.8 -26.0 L-228.8 26.0 -275.55 26.0 -275.55 -26.0 -228.8 -26.0 M-140.4 -5.2 L-140.4 -10.4 -124.8 -10.4 -124.8 -20.8 -161.15 -20.8 -161.15 20.8 -124.8 20.8 -124.8 10.4 -140.4 10.4 -140.4 5.2 -124.8 5.2 -124.8 -5.2 -140.4 -5.2 M-46.8 -5.2 L-46.8 -20.8 -83.15 -20.8 -83.15 20.8 -46.8 20.8 -46.8 0.0 -62.4 0.0 -62.4 -5.2 -46.8 -5.2 M-15.6 -5.2 L-15.6 10.4 -20.8 10.4 -20.8 -5.2 -15.6 -5.2 M-41.6 -26.0 L-41.6 26.0 -88.35 26.0 -88.35 -26.0 -41.6 -26.0 M-119.6 -26.0 L-119.6 26.0 -166.35 26.0 -166.35 -26.0 -119.6 -26.0 M-280.75 -26.0 L-280.75 26.0 -327.5 26.0 -327.5 -26.0 -280.75 -26.0" fill="#cc0000" fill-rule="evenodd" stroke="none"/>
    <path d="M-27.85 20.8 L-31.15 20.8 -31.15 -20.8 5.2 -20.8 5.2 -16.75 -27.85 -16.75 -27.85 20.8 M23.7 20.8 L20.8 20.8 20.8 -20.8 62.35 -20.8 62.35 -17.25 23.7 -17.25 23.7 20.8 M39.7 20.8 L36.35 20.8 36.35 5.2 39.7 5.2 39.7 20.8 M114.35 -17.25 L82.25 -17.25 82.25 20.8 78.0 20.8 78.0 -20.8 114.35 -20.8 114.35 -17.25 M134.25 20.8 L130.0 20.8 130.0 -20.8 150.75 -20.8 150.75 -17.25 134.25 -17.25 134.25 20.8 M186.25 20.8 L182.0 20.8 182.0 -20.8 218.35 -20.8 218.35 -17.75 186.25 -17.75 186.25 20.8 M237.25 5.2 L234.0 5.2 234.0 -20.8 270.35 -20.8 270.35 -16.25 237.25 -16.25 237.25 5.2 M322.35 -17.75 L289.75 -17.75 289.75 20.8 286.0 20.8 286.0 -20.8 322.35 -20.8 322.35 -17.75 M-285.95 -17.25 L-318.4 -17.25 -318.4 18.75 -322.3 18.75 -322.3 -20.8 -285.95 -20.8 -285.95 -17.25 M-303.9 -5.2 L-303.9 5.2 -306.75 5.2 -306.75 -5.2 -303.9 -5.2 M-249.6 -10.4 L-246.9 -10.4 -246.9 -0.25 -249.6 -0.25 -249.6 -10.4 M-266.9 20.8 L-270.35 20.8 -270.35 -20.8 -234.0 -20.8 -234.0 -17.75 -266.9 -17.75 -266.9 20.8 M-246.4 20.8 L-249.6 20.8 -249.6 10.4 -246.4 10.4 -246.4 20.8 M-213.15 20.8 L-218.35 20.8 -218.35 -20.8 -176.8 -20.8 -176.8 -18.25 -213.15 -18.25 -213.15 20.8 M-124.8 -2.25 L-140.4 -2.25 -140.4 -5.2 -124.8 -5.2 -124.8 -2.25 M-124.8 -18.25 L-157.85 -18.25 -157.85 20.8 -161.15 20.8 -161.15 -20.8 -124.8 -20.8 -124.8 -18.25 M-124.8 12.75 L-140.4 12.75 -140.4 10.4 -124.8 10.4 -124.8 12.75 M-46.8 -16.25 L-79.35 -16.25 -79.35 20.8 -83.15 20.8 -83.15 -20.8 -46.8 -20.8 -46.8 -16.25 M-46.8 3.25 L-62.4 3.25 -62.4 0.0 -46.8 0.0 -46.8 3.25" fill="#ffffff" fill-rule="evenodd" stroke="none"/>
    <path d="M-27.85 20.8 L-27.85 -16.75 5.2 -16.75 5.2 20.8 -27.85 20.8 M23.7 20.8 L23.7 -17.25 62.35 -17.25 62.35 20.8 52.0 20.8 52.0 5.2 46.8 5.2 46.8 20.8 39.7 20.8 39.7 5.2 36.35 5.2 31.15 5.2 31.15 20.8 23.7 20.8 M82.25 20.8 L82.25 -17.25 114.35 -17.25 114.35 10.4 98.75 10.4 98.75 20.8 82.25 20.8 M104.0 -10.4 L98.75 -10.4 98.75 0.0 104.0 0.0 104.0 -10.4 M134.25 20.8 L134.25 -17.25 150.75 -17.25 150.75 5.2 166.35 5.2 166.35 20.8 134.25 20.8 M218.35 -17.75 L218.35 -10.4 202.75 -10.4 202.75 -5.2 218.35 -5.2 218.35 5.2 202.75 5.2 202.75 10.4 218.35 10.4 218.35 20.8 186.25 20.8 186.25 -17.75 218.35 -17.75 M237.25 5.2 L237.25 -16.25 270.35 -16.25 270.35 5.2 260.0 5.2 260.0 20.8 244.4 20.8 244.4 5.2 237.25 5.2 M322.35 -17.75 L322.35 -10.4 306.75 -10.4 306.75 -5.2 322.35 -5.2 322.35 5.2 306.75 5.2 306.75 10.4 322.35 10.4 322.35 20.8 289.75 20.8 289.75 -17.75 322.35 -17.75 M-322.3 18.75 L-318.4 18.75 -318.4 -17.25 -285.95 -17.25 -285.95 -10.4 -311.95 -10.4 -311.95 10.4 -296.35 10.4 -296.35 5.2 -303.9 5.2 -303.9 -5.2 -285.95 -5.2 -285.95 20.8 -322.3 20.8 -322.3 18.75 M-249.6 -0.25 L-246.9 -0.25 -246.9 -10.4 -249.6 -10.4 -254.8 -10.4 -254.8 0.0 -249.6 0.0 -249.6 -0.25 M-266.9 20.8 L-266.9 -17.75 -234.0 -17.75 -234.0 20.8 -246.4 20.8 -246.4 10.4 -249.6 10.4 -254.8 10.4 -254.8 20.8 -266.9 20.8 M-213.15 20.8 L-213.15 -18.25 -176.8 -18.25 -176.8 20.8 -187.15 20.8 -187.15 5.2 -192.35 5.2 -192.35 20.8 -202.8 20.8 -202.8 5.2 -208.0 5.2 -208.0 20.8 -213.15 20.8 M-140.4 -5.2 L-140.4 -2.25 -124.8 -2.25 -124.8 5.2 -140.4 5.2 -140.4 10.4 -140.4 12.75 -124.8 12.75 -124.8 20.8 -157.85 20.8 -157.85 -18.25 -124.8 -18.25 -124.8 -10.4 -140.4 -10.4 -140.4 -5.2 M-46.8 -16.25 L-46.8 -5.2 -62.4 -5.2 -62.4 0.0 -62.4 3.25 -46.8 3.25 -46.8 20.8 -79.35 20.8 -79.35 -16.25 -46.8 -16.25 M-15.6 -5.2 L-20.8 -5.2 -20.8 10.4 -15.6 10.4 -15.6 -5.2" fill="#ffcc00" fill-rule="evenodd" stroke="none"/>
  </g>
</svg>
