<?xml version="1.0" encoding="UTF-8" standalone="no"?>
<svg xmlns:xlink="http://www.w3.org/1999/xlink" height="52.0px" width="655.05px" xmlns="http://www.w3.org/2000/svg">
  <g transform="matrix(1.0, 0.0, 0.0, 1.0, 327.5, 26.0)">
    <path d="M20.8 -20.8 L20.8 20.8 31.15 20.8 31.15 5.2 36.35 5.2 36.35 20.8 46.8 20.8 46.8 5.2 52.0 5.2 52.0 20.8 62.35 20.8 62.35 -20.8 20.8 -20.8 M67.55 -26.0 L67.55 26.0 15.6 26.0 15.6 -26.0 67.55 -26.0 M104.0 -10.4 L104.0 0.0 98.75 0.0 98.75 -10.4 104.0 -10.4 M130.0 -20.8 L130.0 20.8 166.35 20.8 166.35 5.2 150.75 5.2 150.75 -20.8 130.0 -20.8 M156.0 -26.0 L156.0 0.0 171.55 0.0 171.55 26.0 124.8 26.0 124.8 -26.0 156.0 -26.0 M119.55 -26.0 L119.55 15.6 104.0 15.6 104.0 26.0 72.8 26.0 72.8 -26.0 119.55 -26.0 M78.0 -20.8 L78.0 20.8 98.75 20.8 98.75 10.4 114.35 10.4 114.35 -20.8 78.0 -20.8 M202.75 -5.2 L202.75 -10.4 218.35 -10.4 218.35 -20.8 182.0 -20.8 182.0 20.8 218.35 20.8 218.35 10.4 202.75 10.4 202.75 5.2 218.35 5.2 218.35 -5.2 202.75 -5.2 M223.55 -26.0 L223.55 26.0 176.8 26.0 176.8 -26.0 223.55 -26.0 M322.35 -10.4 L322.35 -20.8 286.0 -20.8 286.0 20.8 322.35 20.8 322.35 10.4 306.75 10.4 306.75 5.2 322.35 5.2 322.35 -5.2 306.75 -5.2 306.75 -10.4 322.35 -10.4 M234.0 -20.8 L234.0 5.2 244.4 5.2 244.4 20.8 260.0 20.8 260.0 5.2 270.35 5.2 270.35 -20.8 234.0 -20.8 M275.55 -26.0 L275.55 10.4 265.2 10.4 265.2 26.0 239.2 26.0 239.2 10.4 228.8 10.4 228.8 -26.0 275.55 -26.0 M327.55 -26.0 L327.55 26.0 280.8 26.0 280.8 -26.0 327.55 -26.0 M5.2 -20.8 L-31.15 -20.8 -31.15 20.8 5.2 20.8 5.2 -20.8 M10.4 26.0 L-36.35 26.0 -36.35 -26.0 10.4 -26.0 10.4 26.0 M-322.3 -20.8 L-322.3 20.8 -285.95 20.8 -285.95 -5.2 -306.75 -5.2 -306.75 5.2 -296.35 5.2 -296.35 10.4 -311.95 10.4 -311.95 -10.4 -285.95 -10.4 -285.95 -20.8 -322.3 -20.8 M-249.6 -10.4 L-249.6 0.0 -254.8 0.0 -254.8 -10.4 -249.6 -10.4 M-218.35 -20.8 L-218.35 20.8 -208.0 20.8 -208.0 5.2 -202.8 5.2 -202.8 20.8 -192.35 20.8 -192.35 5.2 -187.15 5.2 -187.15 20.8 -176.8 20.8 -176.8 -20.8 -218.35 -20.8 M-171.6 -26.0 L-171.6 26.0 -223.55 26.0 -223.55 -26.0 -171.6 -26.0 M-228.8 -26.0 L-228.8 26.0 -275.55 26.0 -275.55 -26.0 -228.8 -26.0 M-270.35 -20.8 L-270.35 20.8 -254.8 20.8 -254.8 10.4 -249.6 10.4 -249.6 20.8 -234.0 20.8 -234.0 -20.8 -270.35 -20.8 M-124.8 -10.4 L-124.8 -20.8 -161.15 -20.8 -161.15 20.8 -124.8 20.8 -124.8 10.4 -140.4 10.4 -140.4 5.2 -124.8 5.2 -124.8 -5.2 -140.4 -5.2 -140.4 -10.4 -124.8 -10.4 M-46.8 -5.2 L-46.8 -20.8 -83.15 -20.8 -83.15 20.8 -46.8 20.8 -46.8 0.0 -62.4 0.0 -62.4 -5.2 -46.8 -5.2 M-15.6 -5.2 L-15.6 10.4 -20.8 10.4 -20.8 -5.2 -15.6 -5.2 M-41.6 -26.0 L-41.6 26.0 -88.35 26.0 -88.35 -26.0 -41.6 -26.0 M-119.6 -26.0 L-119.6 26.0 -166.35 26.0 -166.35 -26.0 -119.6 -26.0 M-280.75 -26.0 L-280.75 26.0 -327.5 26.0 -327.5 -26.0 -280.75 -26.0" fill="#000000" fill-rule="evenodd" stroke="none"/>
  </g>
</svg>
