<?xml version="1.0" encoding="UTF-8" standalone="no"?>
<svg xmlns:xlink="http://www.w3.org/1999/xlink" height="56.0px" width="731.9px" xmlns="http://www.w3.org/2000/svg">
  <g transform="matrix(1.0, 0.0, 0.0, 1.0, 365.95, 28.0)">
    <path d="M6.55 18.8 L6.55 -18.75 39.6 -18.75 39.6 18.8 6.55 18.8 M18.8 -7.2 L13.6 -7.2 13.6 8.4 18.8 8.4 18.8 -7.2 M58.1 18.8 L58.1 -19.25 96.75 -19.25 96.75 18.8 86.4 18.8 86.4 3.2 81.2 3.2 81.2 18.8 74.1 18.8 74.1 3.2 70.75 3.2 65.55 3.2 65.55 18.8 58.1 18.8 M138.4 -12.4 L133.15 -12.4 133.15 -2.0 138.4 -2.0 138.4 -12.4 M116.65 18.8 L116.65 -19.25 148.75 -19.25 148.75 8.4 133.15 8.4 133.15 18.8 116.65 18.8 M168.65 18.8 L168.65 -19.25 185.15 -19.25 185.15 3.2 200.75 3.2 200.75 18.8 168.65 18.8 M252.75 -19.75 L252.75 -12.4 237.15 -12.4 237.15 -7.2 252.75 -7.2 252.75 3.2 237.15 3.2 237.15 8.4 252.75 8.4 252.75 18.8 220.65 18.8 220.65 -19.75 252.75 -19.75 M271.65 3.2 L271.65 -18.25 304.75 -18.25 304.75 3.2 294.4 3.2 294.4 18.8 278.8 18.8 278.8 3.2 271.65 3.2 M356.75 -19.75 L356.75 -12.4 341.15 -12.4 341.15 -7.2 356.75 -7.2 356.75 3.2 341.15 3.2 341.15 8.4 356.75 8.4 356.75 18.8 324.15 18.8 324.15 -19.75 356.75 -19.75 M-356.75 18.8 L-356.75 -18.8 -339.95 -18.8 -339.95 3.2 -335.95 3.2 -335.95 7.2 -324.4 7.2 -324.4 18.8 -356.75 18.8 M-270.4 -18.8 L-270.4 -12.4 -285.95 -12.4 -285.95 -7.2 -281.95 -7.2 -281.95 -3.2 -270.4 -3.2 -270.4 3.2 -285.95 3.2 -285.95 8.4 -281.95 8.4 -281.95 12.4 -270.4 12.4 -270.4 18.8 -302.75 18.8 -302.75 -18.8 -270.4 -18.8 M-248.75 -12.4 L-248.75 -18.8 -237.2 -18.8 -237.2 -12.4 -233.2 -12.4 -233.2 -8.4 -227.95 -8.4 -227.95 -18.8 -216.4 -18.8 -216.4 -12.4 -221.6 -12.4 -221.6 3.2 -226.8 3.2 -226.8 18.8 -238.35 18.8 -238.35 7.2 -242.35 7.2 -242.35 3.2 -243.55 3.2 -243.55 -8.4 -247.55 -8.4 -247.55 -12.4 -248.75 -12.4 M-162.4 -18.8 L-162.4 -12.4 -177.95 -12.4 -177.95 -7.2 -173.95 -7.2 -173.95 -3.2 -162.4 -3.2 -162.4 3.2 -177.95 3.2 -177.95 8.4 -173.95 8.4 -173.95 12.4 -162.4 12.4 -162.4 18.8 -194.75 18.8 -194.75 -18.8 -162.4 -18.8 M-140.75 18.8 L-140.75 -18.8 -123.95 -18.8 -123.95 3.2 -119.95 3.2 -119.95 7.2 -108.4 7.2 -108.4 18.8 -140.75 18.8 M-44.95 18.8 L-44.95 -18.25 -12.4 -18.25 -12.4 -7.2 -28.0 -7.2 -28.0 -2.0 -28.0 1.25 -12.4 1.25 -12.4 18.8 -44.95 18.8" fill="#ffcc00" fill-rule="evenodd" stroke="none"/>
    <path d="M6.55 18.8 L3.25 18.8 3.25 -22.8 39.6 -22.8 39.6 -18.75 6.55 -18.75 6.55 18.8 M58.1 18.8 L55.2 18.8 55.2 -22.8 96.75 -22.8 96.75 -19.25 58.1 -19.25 58.1 18.8 M74.1 18.8 L70.75 18.8 70.75 3.2 74.1 3.2 74.1 18.8 M116.65 18.8 L112.4 18.8 112.4 -22.8 148.75 -22.8 148.75 -19.25 116.65 -19.25 116.65 18.8 M168.65 18.8 L164.4 18.8 164.4 -22.8 185.15 -22.8 185.15 -19.25 168.65 -19.25 168.65 18.8 M252.75 -19.75 L220.65 -19.75 220.65 18.8 216.4 18.8 216.4 -22.8 252.75 -22.8 252.75 -19.75 M271.65 3.2 L268.4 3.2 268.4 -22.8 304.75 -22.8 304.75 -18.25 271.65 -18.25 271.65 3.2 M356.75 -19.75 L324.15 -19.75 324.15 18.8 320.4 18.8 320.4 -22.8 356.75 -22.8 356.75 -19.75 M-356.75 18.8 L-360.75 18.8 -360.75 -22.8 -339.95 -22.8 -339.95 -18.8 -356.75 -18.8 -356.75 18.8 M-335.95 3.2 L-324.4 3.2 -324.4 7.2 -335.95 7.2 -335.95 3.2 M-270.4 -18.8 L-302.75 -18.8 -302.75 18.8 -306.75 18.8 -306.75 -22.8 -270.4 -22.8 -270.4 -18.8 M-270.4 12.4 L-281.95 12.4 -281.95 8.4 -270.4 8.4 -270.4 12.4 M-270.4 -3.2 L-281.95 -3.2 -281.95 -7.2 -270.4 -7.2 -270.4 -3.2 M-248.75 -12.4 L-252.75 -12.4 -252.75 -22.8 -237.2 -22.8 -237.2 -18.8 -248.75 -18.8 -248.75 -12.4 M-233.2 -12.4 L-231.95 -12.4 -231.95 -22.8 -216.4 -22.8 -216.4 -18.8 -227.95 -18.8 -227.95 -8.4 -233.2 -8.4 -233.2 -12.4 M-238.35 18.8 L-242.35 18.8 -242.35 7.2 -238.35 7.2 -238.35 18.8 M-243.55 3.2 L-247.55 3.2 -247.55 -8.4 -243.55 -8.4 -243.55 3.2 M-173.95 -7.2 L-162.4 -7.2 -162.4 -3.2 -173.95 -3.2 -173.95 -7.2 M-173.95 8.4 L-162.4 8.4 -162.4 12.4 -173.95 12.4 -173.95 8.4 M-194.75 18.8 L-198.75 18.8 -198.75 -22.8 -162.4 -22.8 -162.4 -18.8 -194.75 -18.8 -194.75 18.8 M-123.95 -18.8 L-140.75 -18.8 -140.75 18.8 -144.75 18.8 -144.75 -22.8 -123.95 -22.8 -123.95 -18.8 M-108.4 7.2 L-119.95 7.2 -119.95 3.2 -108.4 3.2 -108.4 7.2 M-44.95 18.8 L-48.75 18.8 -48.75 -22.8 -12.4 -22.8 -12.4 -18.25 -44.95 -18.25 -44.95 18.8 M-28.0 -2.0 L-12.4 -2.0 -12.4 1.25 -28.0 1.25 -28.0 -2.0" fill="#ffffff" fill-rule="evenodd" stroke="none"/>
    <path d="M44.8 -24.0 L48.8 -24.0 48.8 28.0 2.05 28.0 2.05 24.0 44.8 24.0 44.8 -24.0 M101.95 -24.0 L105.95 -24.0 105.95 28.0 54.0 28.0 54.0 24.0 101.95 24.0 101.95 -24.0 M153.95 -24.0 L157.95 -24.0 157.95 17.6 142.4 17.6 142.4 28.0 111.2 28.0 111.2 24.0 138.4 24.0 138.4 13.6 153.95 13.6 153.95 -24.0 M194.4 -2.0 L190.4 -2.0 190.4 -24.0 194.4 -24.0 194.4 -2.0 M163.2 24.0 L205.95 24.0 205.95 2.0 209.95 2.0 209.95 28.0 163.2 28.0 163.2 24.0 M257.95 -24.0 L261.95 -24.0 261.95 28.0 215.2 28.0 215.2 24.0 257.95 24.0 257.95 -24.0 M309.95 -24.0 L313.95 -24.0 313.95 12.4 303.6 12.4 303.6 28.0 277.6 28.0 277.6 24.0 299.6 24.0 299.6 8.4 309.95 8.4 309.95 -24.0 M273.6 12.4 L267.2 12.4 267.2 8.4 273.6 8.4 273.6 12.4 M361.95 -24.0 L365.95 -24.0 365.95 28.0 319.2 28.0 319.2 24.0 361.95 24.0 361.95 -24.0 M-334.75 -24.5 L-331.25 -24.5 -331.25 -2.0 -334.75 -2.0 -334.75 -24.5 M-319.2 1.5 L-315.7 1.5 -315.7 27.5 -362.45 27.5 -362.45 24.0 -319.2 24.0 -319.2 1.5 M-252.75 -3.7 L-254.45 -3.7 -254.45 -7.2 -252.75 -7.2 -252.75 -3.7 M-211.2 -24.5 L-207.7 -24.5 -207.7 -3.7 -212.9 -3.7 -212.9 11.9 -218.1 11.9 -218.1 27.5 -244.05 27.5 -244.05 24.0 -221.6 24.0 -221.6 8.4 -216.4 8.4 -216.4 -7.2 -211.2 -7.2 -211.2 -24.5 M-247.55 11.9 L-249.25 11.9 -249.25 8.4 -247.55 8.4 -247.55 11.9 M-265.2 -24.5 L-261.7 -24.5 -261.7 27.5 -308.45 27.5 -308.45 24.0 -265.2 24.0 -265.2 -24.5 M-157.2 -24.5 L-153.7 -24.5 -153.7 27.5 -200.45 27.5 -200.45 24.0 -157.2 24.0 -157.2 -24.5 M-103.2 1.5 L-99.7 1.5 -99.7 27.5 -146.45 27.5 -146.45 24.0 -103.2 24.0 -103.2 1.5 M-118.75 -24.5 L-115.25 -24.5 -115.25 -2.0 -118.75 -2.0 -118.75 -24.5 M-7.2 -24.0 L-3.2 -24.0 -3.2 28.0 -49.95 28.0 -49.95 24.0 -7.2 24.0 -7.2 -24.0" fill="#333333" fill-rule="evenodd" stroke="none"/>
    <path d="M39.6 -18.75 L39.6 -22.8 3.25 -22.8 3.25 18.8 6.55 18.8 39.6 18.8 39.6 -18.75 M18.8 -7.2 L18.8 8.4 13.6 8.4 13.6 -7.2 18.8 -7.2 M2.05 24.0 L-1.95 24.0 -1.95 -28.0 44.8 -28.0 44.8 -24.0 44.8 24.0 2.05 24.0 M54.0 24.0 L50.0 24.0 50.0 -28.0 101.95 -28.0 101.95 -24.0 101.95 24.0 54.0 24.0 M96.75 -19.25 L96.75 -22.8 55.2 -22.8 55.2 18.8 58.1 18.8 65.55 18.8 65.55 3.2 70.75 3.2 70.75 18.8 74.1 18.8 81.2 18.8 81.2 3.2 86.4 3.2 86.4 18.8 96.75 18.8 96.75 -19.25 M138.4 -12.4 L138.4 -2.0 133.15 -2.0 133.15 -12.4 138.4 -12.4 M111.2 24.0 L107.2 24.0 107.2 -28.0 153.95 -28.0 153.95 -24.0 153.95 13.6 138.4 13.6 138.4 24.0 111.2 24.0 M148.75 -19.25 L148.75 -22.8 112.4 -22.8 112.4 18.8 116.65 18.8 133.15 18.8 133.15 8.4 148.75 8.4 148.75 -19.25 M185.15 -19.25 L185.15 -22.8 164.4 -22.8 164.4 18.8 168.65 18.8 200.75 18.8 200.75 3.2 185.15 3.2 185.15 -19.25 M190.4 -24.0 L190.4 -2.0 194.4 -2.0 205.95 -2.0 205.95 2.0 205.95 24.0 163.2 24.0 159.2 24.0 159.2 -28.0 190.4 -28.0 190.4 -24.0 M220.65 18.8 L252.75 18.8 252.75 8.4 237.15 8.4 237.15 3.2 252.75 3.2 252.75 -7.2 237.15 -7.2 237.15 -12.4 252.75 -12.4 252.75 -19.75 252.75 -22.8 216.4 -22.8 216.4 18.8 220.65 18.8 M215.2 24.0 L211.2 24.0 211.2 -28.0 257.95 -28.0 257.95 -24.0 257.95 24.0 215.2 24.0 M304.75 -18.25 L304.75 -22.8 268.4 -22.8 268.4 3.2 271.65 3.2 278.8 3.2 278.8 18.8 294.4 18.8 294.4 3.2 304.75 3.2 304.75 -18.25 M277.6 24.0 L273.6 24.0 273.6 12.4 273.6 8.4 267.2 8.4 263.2 8.4 263.2 -28.0 309.95 -28.0 309.95 -24.0 309.95 8.4 299.6 8.4 299.6 24.0 277.6 24.0 M324.15 18.8 L356.75 18.8 356.75 8.4 341.15 8.4 341.15 3.2 356.75 3.2 356.75 -7.2 341.15 -7.2 341.15 -12.4 356.75 -12.4 356.75 -19.75 356.75 -22.8 320.4 -22.8 320.4 18.8 324.15 18.8 M319.2 24.0 L315.2 24.0 315.2 -28.0 361.95 -28.0 361.95 -24.0 361.95 24.0 319.2 24.0 M-339.95 -18.8 L-339.95 -22.8 -360.75 -22.8 -360.75 18.8 -356.75 18.8 -324.4 18.8 -324.4 7.2 -324.4 3.2 -335.95 3.2 -339.95 3.2 -339.95 -18.8 M-362.45 24.0 L-365.95 24.0 -365.95 -28.0 -334.75 -28.0 -334.75 -24.5 -334.75 -2.0 -331.25 -2.0 -319.2 -2.0 -319.2 1.5 -319.2 24.0 -362.45 24.0 M-281.95 -7.2 L-285.95 -7.2 -285.95 -12.4 -270.4 -12.4 -270.4 -18.8 -270.4 -22.8 -306.75 -22.8 -306.75 18.8 -302.75 18.8 -270.4 18.8 -270.4 12.4 -270.4 8.4 -281.95 8.4 -285.95 8.4 -285.95 3.2 -270.4 3.2 -270.4 -3.2 -270.4 -7.2 -281.95 -7.2 M-237.2 -18.8 L-237.2 -22.8 -252.75 -22.8 -252.75 -12.4 -248.75 -12.4 -247.55 -12.4 -247.55 -8.4 -247.55 3.2 -243.55 3.2 -242.35 3.2 -242.35 7.2 -242.35 18.8 -238.35 18.8 -226.8 18.8 -226.8 3.2 -221.6 3.2 -221.6 -12.4 -216.4 -12.4 -216.4 -18.8 -216.4 -22.8 -231.95 -22.8 -231.95 -12.4 -233.2 -12.4 -237.2 -12.4 -237.2 -18.8 M-254.45 -7.2 L-257.95 -7.2 -257.95 -28.0 -211.2 -28.0 -211.2 -24.5 -211.2 -7.2 -216.4 -7.2 -216.4 8.4 -221.6 8.4 -221.6 24.0 -244.05 24.0 -247.55 24.0 -247.55 11.9 -247.55 8.4 -249.25 8.4 -252.75 8.4 -252.75 -3.7 -252.75 -7.2 -254.45 -7.2 M-308.45 24.0 L-311.95 24.0 -311.95 -28.0 -265.2 -28.0 -265.2 -24.5 -265.2 24.0 -308.45 24.0 M-173.95 -7.2 L-177.95 -7.2 -177.95 -12.4 -162.4 -12.4 -162.4 -18.8 -162.4 -22.8 -198.75 -22.8 -198.75 18.8 -194.75 18.8 -162.4 18.8 -162.4 12.4 -162.4 8.4 -173.95 8.4 -177.95 8.4 -177.95 3.2 -162.4 3.2 -162.4 -3.2 -162.4 -7.2 -173.95 -7.2 M-200.45 24.0 L-203.95 24.0 -203.95 -28.0 -157.2 -28.0 -157.2 -24.5 -157.2 24.0 -200.45 24.0 M-123.95 -18.8 L-123.95 -22.8 -144.75 -22.8 -144.75 18.8 -140.75 18.8 -108.4 18.8 -108.4 7.2 -108.4 3.2 -119.95 3.2 -123.95 3.2 -123.95 -18.8 M-115.25 -2.0 L-103.2 -2.0 -103.2 1.5 -103.2 24.0 -146.45 24.0 -149.95 24.0 -149.95 -28.0 -118.75 -28.0 -118.75 -24.5 -118.75 -2.0 -115.25 -2.0 M-12.4 -18.25 L-12.4 -22.8 -48.75 -22.8 -48.75 18.8 -44.95 18.8 -12.4 18.8 -12.4 1.25 -12.4 -2.0 -28.0 -2.0 -28.0 -7.2 -12.4 -7.2 -12.4 -18.25 M-49.95 24.0 L-53.95 24.0 -53.95 -28.0 -7.2 -28.0 -7.2 -24.0 -7.2 24.0 -49.95 24.0" fill="#cc0000" fill-rule="evenodd" stroke="none"/>
  </g>
</svg>
