<?xml version="1.0" encoding="UTF-8" standalone="no"?>
<svg xmlns:xlink="http://www.w3.org/1999/xlink" height="236.7px" width="139.85px" xmlns="http://www.w3.org/2000/svg">
  <g transform="matrix(1.0, 0.0, 0.0, 1.0, 69.35, 115.5)">
    <path d="M-29.7 100.55 L-30.25 102.25 -35.4 100.15 Q-33.85 92.15 -33.5 85.7 -33.2 79.25 -34.55 75.95 L-36.55 71.5 Q-43.5 58.75 -55.7 50.8 -57.95 49.3 -59.65 47.15 -61.45 44.95 -62.75 42.5 -57.3 27.35 -54.2 11.35 -51.9 -0.3 -52.15 -9.4 -52.45 -17.8 -55.1 -34.8 L-46.95 -36.15 Q-52.85 -77.75 -69.35 -107.85 -61.8 -111.05 -53.95 -113.1 -50.0 -114.15 -45.75 -114.0 -39.15 -103.95 -34.35 -93.05 -31.5 -86.6 -29.45 -79.7 L-38.5 -115.5 -18.5 -114.55 -15.0 -114.35 -7.2 -113.05 -0.5 -69.0 Q1.25 -79.4 1.3 -86.15 L1.5 -107.5 30.6 -92.4 24.7 -61.4 34.25 -88.75 38.25 -85.0 54.25 -64.6 51.35 -57.65 46.75 -47.25 59.3 -59.8 Q65.2 -46.4 68.15 -31.95 L68.9 -28.25 59.35 -19.3 69.25 -22.85 Q69.4 -17.05 69.1 -20.4 L69.45 -15.2 70.5 3.2 61.0 7.5 70.5 6.75 62.95 34.25 66.85 34.4 Q60.9 50.85 57.3 58.4 53.6 66.1 46.8 74.5 49.0 75.75 50.95 76.6 41.25 92.5 27.0 105.15 L8.4 121.2 -5.5 109.25 -5.5 108.2 Q0.8 111.8 -8.1 106.3 L-15.4 101.8 -13.5 98.25 -12.85 97.15 0.75 104.35 4.05 101.5 7.2 98.75 7.75 98.25 7.6 98.2 -9.2 88.2 -7.6 84.4 -4.3 85.25 10.35 88.85 14.05 89.2 15.4 87.9 16.6 86.5 18.5 84.0 21.75 76.5 -4.0 75.3 -2.3 69.9 25.0 63.25 30.0 45.5 27.35 47.3 Q15.8 54.85 1.95 55.1 L-0.8 55.15 -1.1 49.75 Q14.8 45.05 26.05 33.2 L27.5 31.55 Q28.25 30.6 29.75 29.3 L25.0 13.25 Q19.45 20.0 12.95 25.65 6.5 31.4 -0.75 36.25 L-2.7 36.55 -3.55 36.7 -4.45 32.3 Q6.3 19.85 14.95 5.9 L15.75 4.5 16.75 2.5 6.25 -10.75 Q3.8 -2.85 -0.1 5.05 -3.25 11.35 -7.5 17.15 L-9.2 19.45 -12.2 23.3 -13.75 24.95 -19.4 21.35 Q-9.5 5.6 -6.35 -12.55 -5.8 -15.75 -5.65 -19.0 L-5.65 -20.5 -22.5 -28.5 Q-22.15 -19.5 -23.65 -10.5 -24.9 -3.15 -27.4 3.7 L-28.4 6.45 Q-29.75 10.15 -31.55 13.7 L-32.25 15.05 -39.25 12.75 Q-29.05 -5.55 -35.55 -26.1 L-36.7 -31.9 -49.0 -29.5 -47.2 7.25 -47.3 8.2 Q-49.05 25.25 -55.0 41.25 -44.0 50.15 -35.7 61.85 -31.3 68.05 -29.25 75.35 L-28.55 78.1 Q-26.35 89.5 -29.7 100.55 M-48.35 -106.0 L-49.75 -108.3 -61.75 -104.5 Q-54.6 -87.25 -48.55 -69.2 -43.3 -53.4 -41.0 -36.8 L-36.4 -36.9 -31.75 -37.0 -28.75 -18.55 -27.5 -34.5 -23.85 -33.9 -20.35 -33.15 -13.65 -31.0 Q-6.8 -28.8 -0.5 -25.25 L-0.35 -21.85 -0.45 -18.6 -1.1 -11.95 Q-2.15 -3.95 -4.65 3.55 L5.8 -19.4 6.05 -18.8 7.0 -17.2 10.0 -13.55 Q16.15 -6.9 22.8 -0.85 L16.7 13.75 23.0 5.0 27.0 5.25 35.8 32.7 30.3 38.05 34.0 38.25 34.0 48.0 37.55 49.15 41.55 50.1 44.0 50.65 46.5 50.9 54.0 50.45 58.5 40.75 57.4 40.45 41.0 35.85 41.1 29.75 42.1 29.7 60.0 28.15 63.5 14.5 62.6 14.7 Q53.1 16.95 43.35 15.9 L40.55 15.5 40.2 7.85 40.9 7.65 63.75 0.0 63.6 -5.7 63.5 -10.65 63.45 -11.95 65.0 -11.25 65.5 -12.05 65.8 -13.3 Q65.8 -13.85 66.55 -15.15 L67.6 -17.05 65.85 -18.05 63.75 -18.25 Q63.5 -16.8 58.75 -15.25 L54.95 -13.7 Q51.95 -12.5 51.4 -12.5 49.9 -12.5 46.85 -10.5 43.95 -8.6 43.15 -7.2 L39.05 -5.85 38.5 -6.1 36.05 -12.15 Q42.75 -15.9 51.3 -21.65 59.3 -27.1 63.05 -30.5 60.6 -40.05 56.75 -50.25 L31.65 -25.55 30.9 -24.85 26.35 -31.3 27.25 -32.25 Q33.95 -39.35 39.3 -47.65 44.1 -55.2 47.55 -65.3 L36.25 -77.5 Q33.1 -66.7 28.5 -56.65 L20.2 -39.4 20.15 -39.35 19.95 -39.5 Q17.3 -40.35 15.65 -42.4 L14.05 -43.2 23.35 -86.0 23.85 -88.35 Q15.2 -93.05 6.6 -97.7 6.45 -94.9 6.55 -92.1 7.15 -75.55 3.55 -59.6 L1.3 -50.15 1.15 -49.45 -1.4 -50.3 -1.95 -50.45 -5.45 -51.3 Q-5.05 -59.35 -5.75 -67.15 -6.6 -76.3 -8.05 -85.4 -9.55 -95.05 -11.85 -104.5 L-12.9 -108.75 -19.1 -108.9 -27.3 -109.15 -31.5 -109.0 Q-25.8 -91.7 -24.0 -73.65 -22.95 -62.85 -23.4 -52.05 L-23.4 -52.0 -27.1 -52.05 -30.55 -52.05 -31.1 -57.25 Q-31.95 -65.1 -34.0 -72.75 -36.35 -81.45 -39.9 -90.0 -43.4 -98.35 -48.35 -106.0 M23.55 70.35 L24.0 70.35 23.9 70.25 23.55 70.35 M31.1 64.15 Q35.2 69.05 41.2 70.55 L42.55 70.7 Q46.05 67.95 47.8 64.15 L48.65 61.85 49.15 59.55 32.5 53.3 31.1 64.15 M12.2 94.65 Q14.5 95.35 16.55 96.55 19.15 98.15 21.5 100.25 L28.45 94.1 22.8 87.85 17.25 95.25 12.2 94.65 M33.5 87.25 L41.0 78.45 29.25 72.25 26.75 81.75 33.5 87.25 M11.9 101.7 L4.9 109.6 9.0 113.0 17.0 107.0 11.9 101.7" fill="#000000" fill-rule="evenodd" stroke="none"/>
    <path d="M-8.1 106.3 L-17.05 103.95 -15.4 101.8 -8.1 106.3 M-24.4 101.95 L-29.7 100.55 Q-26.35 89.5 -28.55 78.1 L-29.25 75.35 Q-31.3 68.05 -35.7 61.85 -44.0 50.15 -55.0 41.25 -49.05 25.25 -47.3 8.2 L-47.2 7.25 -49.0 -29.5 -36.7 -31.9 -35.55 -26.1 -37.8 -30.05 -44.95 -28.9 Q-42.5 -19.6 -42.2 -0.8 -41.9 18.0 -50.0 39.85 -39.5 46.45 -32.55 56.5 -18.4 77.0 -24.4 101.95 M-31.55 13.7 Q-29.75 10.15 -28.4 6.45 L-27.4 3.7 Q-24.9 -3.15 -23.65 -10.5 -22.15 -19.5 -22.5 -28.5 L-5.65 -20.5 -5.65 -19.0 -17.2 -23.55 -17.95 -23.1 Q-20.35 -3.35 -29.05 14.15 L-31.55 13.7 M-12.2 23.3 L-9.2 19.45 -7.5 17.15 Q-3.25 11.35 -0.1 5.05 3.8 -2.85 6.25 -10.75 L16.75 2.5 15.75 4.5 14.95 5.9 7.8 -1.9 Q7.75 0.4 6.8 2.6 1.5 15.2 -8.6 27.3 L-12.2 23.3 M-2.7 36.55 L-0.75 36.25 Q6.5 31.4 12.95 25.65 19.45 20.0 25.0 13.25 L29.75 29.3 Q28.25 30.6 27.5 31.55 L23.8 20.9 22.4 23.05 Q13.2 36.75 -2.75 41.4 L-2.7 36.55 M27.35 47.3 L30.0 45.5 25.0 63.25 -2.3 69.9 -0.4 65.05 Q3.15 65.4 6.55 64.35 15.9 61.55 24.85 58.35 L29.3 46.3 27.35 47.3 M18.5 84.0 L16.6 86.5 15.4 87.9 14.05 89.2 10.35 88.85 -4.3 85.25 -7.6 84.4 -5.55 79.45 3.75 82.05 Q10.95 83.95 18.5 84.0 M7.6 98.2 L7.75 98.25 7.2 98.75 7.6 98.2 M4.05 101.5 L0.75 104.35 -12.85 97.15 -13.5 98.25 -11.8 94.95 -9.9 95.4 Q-2.25 97.1 4.05 101.5 M-36.4 -36.9 L-41.0 -36.8 Q-43.3 -53.4 -48.55 -69.2 -54.6 -87.25 -61.75 -104.5 L-49.75 -108.3 -48.35 -106.0 -50.35 -105.25 -52.15 -104.25 Q-53.05 -103.8 -53.8 -103.15 L-55.3 -101.85 -55.75 -101.15 Q-50.9 -92.65 -47.5 -83.4 -44.65 -75.55 -42.95 -67.35 L-39.8 -52.5 -36.4 -36.9 M-27.1 -52.05 L-23.4 -52.0 -23.4 -52.05 Q-22.95 -62.85 -24.0 -73.65 -25.8 -91.7 -31.5 -109.0 L-27.3 -109.15 -19.1 -108.9 -12.9 -108.75 -11.85 -104.5 -14.45 -104.65 -17.05 -104.65 -19.65 -104.45 -23.9 -103.65 Q-22.25 -99.65 -21.85 -95.6 L-21.25 -90.55 -19.9 -79.45 -18.75 -67.85 Q-17.95 -59.8 -17.95 -51.4 L-27.1 -52.05 M-1.95 -50.45 L-1.4 -50.3 1.15 -49.45 1.3 -50.15 3.55 -59.6 Q7.15 -75.55 6.55 -92.1 6.45 -94.9 6.6 -97.7 15.2 -93.05 23.85 -88.35 L23.35 -86.0 12.65 -91.15 11.8 -83.65 9.95 -67.7 Q8.9 -58.75 6.2 -50.3 5.85 -49.15 4.75 -48.8 1.05 -48.75 -1.95 -50.45 M20.2 -39.4 L28.5 -56.65 Q33.1 -66.7 36.25 -77.5 L47.55 -65.3 Q44.1 -55.2 39.3 -47.65 33.95 -39.35 27.25 -32.25 L27.15 -32.45 31.2 -38.5 Q41.4 -54.1 46.25 -64.8 43.3 -68.45 39.0 -70.4 L37.65 -65.95 Q34.9 -57.5 22.05 -38.9 L21.65 -39.0 23.7 -37.7 Q23.85 -37.5 20.2 -39.4 M31.65 -25.55 L56.75 -50.25 Q60.6 -40.05 63.05 -30.5 59.3 -27.1 51.3 -21.65 42.75 -15.9 36.05 -12.15 L60.25 -34.25 54.55 -46.45 Q53.1 -43.65 50.65 -41.5 L43.2 -34.55 Q37.85 -29.4 31.65 -25.55 M63.45 -11.95 L63.5 -10.65 63.2 -12.1 63.45 -11.95 M63.6 -5.7 L63.75 0.0 40.9 7.65 40.1 3.2 47.7 1.0 Q55.9 -1.75 63.6 -5.7 M62.6 14.7 L63.5 14.5 60.0 28.15 42.1 29.7 42.45 25.05 60.05 23.35 62.6 14.7 M57.4 40.45 L58.5 40.75 54.0 50.45 46.5 50.9 44.0 50.65 41.55 50.1 37.55 49.15 39.35 42.8 54.15 45.8 57.4 40.45 M31.1 64.15 L32.5 53.3 49.15 59.55 48.65 61.85 47.8 64.15 Q46.05 67.95 42.55 70.7 L41.2 70.55 Q35.2 69.05 31.1 64.15 M12.2 94.65 L17.25 95.25 22.8 87.85 28.45 94.1 21.5 100.25 Q19.15 98.15 16.55 96.55 14.5 95.35 12.2 94.65 M33.5 87.25 L26.75 81.75 29.25 72.25 41.0 78.45 33.5 87.25 M11.9 101.7 L17.0 107.0 9.0 113.0 4.9 109.6 11.9 101.7" fill="#666666" fill-rule="evenodd" stroke="none"/>
    <path d="M-17.05 103.95 L-24.4 101.95 Q-18.4 77.0 -32.55 56.5 -39.5 46.45 -50.0 39.85 -41.9 18.0 -42.2 -0.8 -42.5 -19.6 -44.95 -28.9 L-37.8 -30.05 -35.55 -26.1 Q-29.05 -5.55 -39.25 12.75 L-32.25 15.05 -31.55 13.7 -29.05 14.15 Q-20.35 -3.35 -17.95 -23.1 L-17.2 -23.55 -5.65 -19.0 Q-5.8 -15.75 -6.35 -12.55 -9.5 5.6 -19.4 21.35 L-13.75 24.95 -12.2 23.3 -8.6 27.3 Q1.5 15.2 6.8 2.6 7.75 0.4 7.8 -1.9 L14.95 5.9 Q6.3 19.85 -4.45 32.3 L-3.55 36.7 -2.7 36.55 -2.75 41.4 Q13.2 36.75 22.4 23.05 L23.8 20.9 27.5 31.55 26.05 33.2 Q14.8 45.05 -1.1 49.75 L-0.8 55.15 1.95 55.1 Q15.8 54.85 27.35 47.3 L29.3 46.3 24.85 58.35 Q15.9 61.55 6.55 64.35 3.15 65.4 -0.4 65.05 L-2.3 69.9 -4.0 75.3 21.75 76.5 18.5 84.0 Q10.95 83.95 3.75 82.05 L-5.55 79.45 -7.6 84.4 -9.2 88.2 7.6 98.2 7.2 98.75 4.05 101.5 Q-2.25 97.1 -9.9 95.4 L-11.8 94.95 -13.5 98.25 -15.4 101.8 -17.05 103.95 M-48.35 -106.0 Q-43.4 -98.35 -39.9 -90.0 -36.35 -81.45 -34.0 -72.75 -31.95 -65.1 -31.1 -57.25 L-30.55 -52.05 -27.1 -52.05 -17.95 -51.4 Q-17.95 -59.8 -18.75 -67.85 L-19.9 -79.45 -21.25 -90.55 -21.85 -95.6 Q-22.25 -99.65 -23.9 -103.65 L-19.65 -104.45 -17.05 -104.65 -14.45 -104.65 -11.85 -104.5 Q-9.55 -95.05 -8.05 -85.4 -6.6 -76.3 -5.75 -67.15 -5.05 -59.35 -5.45 -51.3 L-1.95 -50.45 Q1.05 -48.75 4.75 -48.8 5.85 -49.15 6.2 -50.3 8.9 -58.75 9.95 -67.7 L11.8 -83.65 12.65 -91.15 23.35 -86.0 14.05 -43.2 15.65 -42.4 Q17.3 -40.35 19.95 -39.5 L20.15 -39.35 20.2 -39.4 Q23.85 -37.5 23.7 -37.7 L21.65 -39.0 22.05 -38.9 Q34.9 -57.5 37.65 -65.95 L39.0 -70.4 Q43.3 -68.45 46.25 -64.8 41.4 -54.1 31.2 -38.5 L27.15 -32.45 27.25 -32.25 26.35 -31.3 30.9 -24.85 31.65 -25.55 Q37.85 -29.4 43.2 -34.55 L50.65 -41.5 Q53.1 -43.65 54.55 -46.45 L60.25 -34.25 36.05 -12.15 38.5 -6.1 39.05 -5.85 43.15 -7.2 Q43.95 -8.6 46.85 -10.5 49.9 -12.5 51.4 -12.5 51.95 -12.5 54.95 -13.7 L58.75 -15.25 Q63.5 -16.8 63.75 -18.25 L65.85 -18.05 67.6 -17.05 66.55 -15.15 Q65.8 -13.85 65.8 -13.3 L65.5 -12.05 65.0 -11.25 63.45 -11.95 63.2 -12.1 63.5 -10.65 63.6 -5.7 Q55.9 -1.75 47.7 1.0 L40.1 3.2 40.9 7.65 40.2 7.85 40.55 15.5 43.35 15.9 Q53.1 16.95 62.6 14.7 L60.05 23.35 42.45 25.05 42.1 29.7 41.1 29.75 41.0 35.85 57.4 40.45 54.15 45.8 39.35 42.8 37.55 49.15 34.0 48.0 34.0 38.25 30.3 38.05 35.8 32.7 27.0 5.25 23.0 5.0 16.7 13.75 22.8 -0.85 Q16.15 -6.9 10.0 -13.55 L7.0 -17.2 6.05 -18.8 5.8 -19.4 -4.65 3.55 Q-2.15 -3.95 -1.1 -11.95 L-0.45 -18.6 -0.35 -21.85 -0.5 -25.25 Q-6.8 -28.8 -13.65 -31.0 L-20.35 -33.15 -23.85 -33.9 -27.5 -34.5 -28.75 -18.55 -31.75 -37.0 -36.4 -36.9 -39.8 -52.5 -42.95 -67.35 Q-44.65 -75.55 -47.5 -83.4 -50.9 -92.65 -55.75 -101.15 L-55.3 -101.85 -53.8 -103.15 Q-53.05 -103.8 -52.15 -104.25 L-50.35 -105.25 -48.35 -106.0" fill="#010000" fill-rule="evenodd" stroke="none"/>
  </g>
</svg>
