<?xml version="1.0" encoding="UTF-8" standalone="no"?>
<svg xmlns:xlink="http://www.w3.org/1999/xlink" height="169.8px" width="440.7px" xmlns="http://www.w3.org/2000/svg">
  <g transform="matrix(1.0, 0.0, 0.0, 1.0, 220.35, 84.9)">
    <path d="M-216.15 -3.25 L-214.25 -3.5 16.8 -3.5 16.8 -0.65 16.55 -0.65 16.55 0.0 Q16.55 1.25 16.4 0.75 L15.3 1.0 Q14.35 1.25 2.15 1.35 L-215.75 1.5 -215.75 -0.6 -216.1 -0.65 -216.2 -0.65 -216.2 -3.25 -216.15 -3.25" fill="#010000" fill-rule="evenodd" stroke="none"/>
    <path d="M-216.15 -3.25 L-216.2 -3.25 -216.2 -0.65 -216.1 -0.65 -215.95 4.45 17.3 4.05 17.3 -5.05 -216.15 -4.3 -216.15 -3.25 M16.35 -8.05 L16.05 -13.55 39.3 -11.9 39.2 -17.7 39.5 -17.9 73.95 -17.25 74.9 -11.2 135.55 -11.8 135.55 -12.05 138.05 -12.2 Q138.65 -13.8 139.6 -15.15 142.65 -19.5 149.25 -21.8 L147.8 -29.9 135.3 -30.7 Q130.6 -42.55 118.65 -46.0 95.6 -52.45 87.3 -31.45 L41.55 -21.95 Q48.0 -50.95 72.5 -68.75 104.6 -92.1 143.8 -81.7 L145.45 -74.6 158.9 -72.95 162.85 -80.75 170.75 -79.95 Q180.0 -79.85 194.35 -69.6 220.7 -50.8 220.35 -21.55 L213.4 -21.55 Q195.0 -34.95 170.65 -29.6 L169.85 -24.55 175.35 -20.55 174.65 -20.55 Q179.3 -16.55 181.85 -9.3 184.55 -1.6 184.55 8.05 184.55 12.1 182.3 16.9 L180.15 20.55 179.35 21.55 Q176.75 24.55 172.65 24.5 L169.85 24.55 170.65 29.6 Q195.0 34.95 213.4 21.55 L220.35 21.55 Q220.7 50.8 194.35 69.6 180.0 79.85 170.75 79.95 L162.85 80.75 158.9 72.95 145.45 74.6 143.8 81.7 Q104.6 92.1 72.5 68.75 48.0 50.95 41.55 21.95 L87.3 31.45 Q95.6 52.45 118.65 46.0 130.6 42.55 135.3 30.7 L147.8 29.9 149.3 21.55 149.65 20.55 149.75 20.25 Q143.85 17.05 140.9 13.45 L74.3 13.45 73.95 15.0 73.6 19.7 38.05 18.95 37.05 12.45 15.7 13.7 15.8 8.45 -216.2 8.45 -219.85 7.85 -220.35 -8.6 16.35 -8.05 M21.5 -5.65 L21.45 1.6 21.35 9.1 36.05 7.2 37.05 -8.05 21.55 -8.05 21.5 -5.65 M74.55 -41.2 L70.05 -41.45 Q71.25 -52.35 78.5 -60.35 92.1 -75.4 112.8 -72.7 L111.9 -65.75 108.95 -65.1 Q87.3 -59.5 74.55 -41.2 M75.05 -5.9 L74.8 -1.4 74.1 9.8 136.05 9.2 136.05 8.45 137.5 4.6 Q137.05 1.6 137.05 -2.2 L136.95 -5.6 136.9 -5.8 136.4 -7.55 75.2 -7.8 75.05 -5.9 M50.65 -28.2 L79.3 -35.45 Q89.05 -51.35 106.9 -51.8 127.8 -53.4 139.3 -34.95 178.35 -39.35 215.8 -27.7 212.7 -43.0 203.9 -55.65 L198.7 -52.5 Q190.55 -55.8 190.5 -57.75 190.45 -61.45 191.75 -65.1 178.75 -74.6 166.3 -73.7 L162.4 -67.6 Q152.65 -59.85 146.55 -65.1 140.45 -70.3 138.8 -76.7 112.05 -84.1 87.65 -71.4 60.5 -57.2 50.65 -28.2 M69.8 -13.25 L42.35 -13.25 41.3 15.45 70.4 15.15 69.8 -13.25 M146.4 -12.95 Q142.25 -8.8 141.65 -3.85 L142.45 3.35 Q143.75 7.2 146.8 10.95 154.8 20.75 171.05 19.95 174.4 18.5 177.45 12.35 180.55 6.05 180.55 0.45 180.55 -4.65 176.2 -10.55 171.7 -16.7 164.8 -20.55 152.6 -19.2 146.4 -12.95 M152.8 -30.45 L154.45 -23.15 164.6 -24.25 166.8 -24.6 166.8 -29.2 152.8 -30.45 M166.8 24.6 L154.6 22.6 152.8 30.45 166.8 29.2 166.8 24.6 M191.75 65.1 Q190.45 61.45 190.5 57.75 190.55 55.8 198.7 52.5 L203.9 55.65 Q212.7 43.0 215.8 27.7 178.35 39.35 139.3 34.95 127.8 53.4 106.9 51.8 89.05 51.35 79.3 35.45 L50.65 28.2 Q60.5 57.2 87.65 71.4 112.05 84.1 138.8 76.7 140.45 70.3 146.55 65.1 152.65 59.85 162.4 67.6 L166.3 73.7 Q178.75 74.6 191.75 65.1 M111.9 65.75 L112.8 72.7 Q92.1 75.4 78.5 60.35 71.25 52.35 70.05 41.45 L74.55 41.2 Q87.3 59.5 108.95 65.1 L111.9 65.75" fill="#000000" fill-rule="evenodd" stroke="none"/>
    <path d="M-216.1 -0.65 L-215.75 -0.6 -215.75 1.5 2.15 1.35 Q14.35 1.25 15.3 1.0 L16.4 0.75 Q16.55 1.25 16.55 0.0 L16.55 -0.65 16.8 -0.65 16.8 -3.5 -214.25 -3.5 -216.15 -3.25 -216.15 -4.3 17.3 -5.05 17.3 4.05 -215.95 4.45 -216.1 -0.65 M21.45 1.6 L35.4 1.5 35.65 -5.4 21.5 -5.65 21.55 -8.05 37.05 -8.05 36.05 7.2 21.35 9.1 21.45 1.6 M74.55 -41.2 Q87.3 -59.5 108.95 -65.1 L111.9 -65.75 112.8 -72.7 Q92.1 -75.4 78.5 -60.35 71.25 -52.35 70.05 -41.45 L74.55 -41.2 M66.45 -11.15 L42.55 -11.15 42.55 1.1 68.8 1.35 68.55 -10.25 67.2 -10.35 66.45 -11.15 M74.8 -1.4 L74.95 3.85 134.3 3.5 135.45 3.25 135.7 -5.9 76.85 -5.65 75.05 -5.9 75.2 -7.8 136.4 -7.55 136.9 -5.8 136.95 -5.6 137.05 -2.2 Q137.05 1.6 137.5 4.6 L136.05 8.45 136.05 9.2 74.1 9.8 74.8 -1.4 M69.8 -13.25 L70.4 15.15 41.3 15.45 42.35 -13.25 69.8 -13.25 M50.65 -28.2 Q60.5 -57.2 87.65 -71.4 112.05 -84.1 138.8 -76.7 140.45 -70.3 146.55 -65.1 152.65 -59.85 162.4 -67.6 L166.3 -73.7 Q178.75 -74.6 191.75 -65.1 190.45 -61.45 190.5 -57.75 190.55 -55.8 198.7 -52.5 L203.9 -55.65 Q212.7 -43.0 215.8 -27.7 178.35 -39.35 139.3 -34.95 127.8 -53.4 106.9 -51.8 89.05 -51.35 79.3 -35.45 L50.65 -28.2 M140.5 -66.65 L141.05 -68.05 135.7 -75.9 123.6 -77.3 111.45 -77.15 111.5 -75.5 141.7 -66.2 140.5 -66.65 M152.8 -30.45 L166.8 -29.2 166.8 -24.6 164.6 -24.25 154.45 -23.15 152.8 -30.45 M146.4 -12.95 Q152.6 -19.2 164.8 -20.55 171.7 -16.7 176.2 -10.55 180.55 -4.65 180.55 0.45 180.55 6.05 177.45 12.35 174.4 18.5 171.05 19.95 154.8 20.75 146.8 10.95 143.75 7.2 142.45 3.35 L141.65 -3.85 Q142.25 -8.8 146.4 -12.95 M189.25 -56.1 Q185.85 -60.95 186.7 -66.9 177.15 -71.6 169.5 -72.0 167.3 -67.05 158.7 -59.9 187.6 -51.7 210.05 -31.65 L212.3 -31.65 202.2 -51.4 Q194.05 -49.15 189.25 -56.1 M162.8 -16.9 L162.3 -14.05 Q162.05 -12.45 163.1 -11.15 L164.9 -10.65 Q167.05 -10.35 169.05 -11.4 L169.05 -15.75 166.3 -17.0 162.8 -16.9 M166.3 -6.75 Q159.65 -0.95 160.3 7.85 160.55 10.85 162.5 13.3 L164.95 16.45 172.25 16.75 173.95 16.0 174.3 15.2 175.45 14.5 Q175.35 11.9 176.25 9.5 177.75 5.5 178.45 1.3 179.4 -4.45 175.45 -8.65 170.25 -10.25 166.3 -6.75 M211.1 32.6 L204.3 34.1 200.1 35.15 Q189.7 38.05 178.95 39.2 L161.6 39.95 148.4 39.05 139.45 37.7 139.3 39.25 135.35 43.3 133.05 45.45 Q127.55 50.35 120.85 53.1 115.75 55.15 110.25 55.5 L101.9 54.85 96.05 53.75 92.7 54.4 93.05 56.75 111.3 62.3 119.05 62.45 129.0 62.7 132.3 62.7 Q144.95 62.35 157.4 59.7 169.4 57.1 180.4 52.25 186.05 49.8 191.15 46.8 197.75 42.9 203.7 38.4 L211.1 32.6 M111.9 65.75 L108.95 65.1 Q87.3 59.5 74.55 41.2 L70.05 41.45 Q71.25 52.35 78.5 60.35 92.1 75.4 112.8 72.7 L111.9 65.75 M191.75 65.1 Q178.75 74.6 166.3 73.7 L162.4 67.6 Q152.65 59.85 146.55 65.1 140.45 70.3 138.8 76.7 112.05 84.1 87.65 71.4 60.5 57.2 50.65 28.2 L79.3 35.45 Q89.05 51.35 106.9 51.8 127.8 53.4 139.3 34.95 178.35 39.35 215.8 27.7 212.7 43.0 203.9 55.65 L198.7 52.5 Q190.55 55.8 190.5 57.75 190.45 61.45 191.75 65.1 M166.8 24.6 L166.8 29.2 152.8 30.45 154.6 22.6 166.8 24.6 M93.05 53.2 Q86.75 51.2 80.45 41.95 L77.05 36.7 77.55 36.45 57.95 32.25 58.0 35.5 Q62.95 36.05 75.35 38.75 80.85 48.25 91.25 52.55 L93.05 53.2" fill="#666666" fill-rule="evenodd" stroke="none"/>
    <path d="M21.5 -5.65 L35.65 -5.4 35.4 1.5 21.45 1.6 21.5 -5.65 M75.05 -5.9 L76.85 -5.65 135.7 -5.9 135.45 3.25 134.3 3.5 74.95 3.85 74.8 -1.4 75.05 -5.9 M66.45 -11.15 L67.2 -10.35 68.55 -10.25 68.8 1.35 42.55 1.1 42.55 -11.15 66.45 -11.15 M140.5 -66.65 L141.7 -66.2 111.5 -75.5 111.45 -77.15 123.6 -77.3 135.7 -75.9 141.05 -68.05 140.5 -66.65 M211.1 32.6 L203.7 38.4 Q197.75 42.9 191.15 46.8 186.05 49.8 180.4 52.25 169.4 57.1 157.4 59.7 144.95 62.35 132.3 62.7 L129.0 62.7 119.05 62.45 111.3 62.3 93.05 56.75 92.7 54.4 96.05 53.75 101.9 54.85 110.25 55.5 Q115.75 55.15 120.85 53.1 127.55 50.35 133.05 45.45 L135.35 43.3 139.3 39.25 139.45 37.7 148.4 39.05 161.6 39.95 178.95 39.2 Q189.7 38.05 200.1 35.15 L204.3 34.1 211.1 32.6 M166.3 -6.75 Q170.25 -10.25 175.45 -8.65 179.4 -4.45 178.45 1.3 177.75 5.5 176.25 9.5 175.35 11.9 175.45 14.5 L174.3 15.2 173.95 16.0 172.25 16.75 164.95 16.45 162.5 13.3 Q160.55 10.85 160.3 7.85 159.65 -0.95 166.3 -6.75 M162.8 -16.9 L166.3 -17.0 169.05 -15.75 169.05 -11.4 Q167.05 -10.35 164.9 -10.65 L163.1 -11.15 Q162.05 -12.45 162.3 -14.05 L162.8 -16.9 M189.25 -56.1 Q194.05 -49.15 202.2 -51.4 L212.3 -31.65 210.05 -31.65 Q187.6 -51.7 158.7 -59.9 167.3 -67.05 169.5 -72.0 177.15 -71.6 186.7 -66.9 185.85 -60.95 189.25 -56.1 M93.05 53.2 L91.25 52.55 Q80.85 48.25 75.35 38.75 62.95 36.05 58.0 35.5 L57.95 32.25 77.55 36.45 77.05 36.7 80.45 41.95 Q86.75 51.2 93.05 53.2" fill="#cccccc" fill-rule="evenodd" stroke="none"/>
  </g>
</svg>
