<?xml version="1.0" encoding="UTF-8" standalone="no"?>
<svg xmlns:xlink="http://www.w3.org/1999/xlink" height="48.55px" width="43.2px" xmlns="http://www.w3.org/2000/svg">
  <g transform="matrix(1.0, 0.0, 0.0, 1.0, 27.75, 25.8)">
    <path d="M-18.25 -21.4 L-20.0 -21.25 -21.0 -17.75 -4.5 -17.2 10.6 -17.85 10.85 -20.75 Q-2.9 -22.5 -16.85 -21.5 L-18.25 -21.5 -18.25 -21.4 M14.25 -23.4 L14.5 -20.15 13.5 -14.5 -2.15 -14.05 -25.85 -14.75 -25.85 -18.8 -23.35 -25.8 -16.9 -25.75 Q-5.7 -25.35 5.65 -25.25 10.3 -25.2 14.25 -23.4 M8.5 -7.3 L5.9 -8.05 Q1.3 -9.1 -3.25 -9.2 L-19.0 -8.25 Q-22.0 -5.0 -22.9 -0.45 L-23.25 2.95 Q-23.25 8.35 -22.1 13.65 L-21.35 15.0 Q-17.15 18.9 -11.05 18.95 -1.35 19.05 8.0 16.75 10.8 11.65 10.6 5.8 10.5 3.65 10.7 1.55 11.1 -3.25 8.5 -7.3 M13.0 -11.3 L13.3 -10.6 Q14.8 -6.95 15.15 -3.0 16.25 9.35 13.0 21.5 L6.5 22.35 -3.45 22.7 Q-14.7 23.0 -25.5 20.35 L-26.9 12.1 Q-27.55 8.7 -27.7 5.3 -28.1 -3.7 -25.0 -12.0 L-23.0 -12.25 -12.5 -12.35 6.0 -11.55 13.0 -11.3" fill="#000000" fill-rule="evenodd" stroke="none"/>
    <path d="M-16.85 -21.5 Q-2.9 -22.5 10.85 -20.75 L10.6 -17.85 -4.5 -17.2 -21.0 -17.75 -20.0 -21.25 -18.25 -21.4 -18.25 -18.5 -5.95 -18.1 Q-3.75 -17.9 -3.75 -17.5 L2.75 -17.5 2.75 -20.5 -0.25 -21.0 -8.05 -21.55 -16.85 -21.5 M8.5 -7.3 Q11.1 -3.25 10.7 1.55 10.5 3.65 10.6 5.8 10.8 11.65 8.0 16.75 -1.35 19.05 -11.05 18.95 -17.15 18.9 -21.35 15.0 L-22.1 13.65 Q-23.25 8.35 -23.25 2.95 L-22.9 -0.45 Q-22.0 -5.0 -19.0 -8.25 L-3.25 -9.2 Q1.3 -9.1 5.9 -8.05 L8.5 -7.3 M4.25 -2.0 Q4.25 -5.75 3.5 -7.25 L-19.5 -7.5 -20.65 -0.1 Q-21.25 4.55 -21.25 6.35 -21.25 10.8 -20.95 11.95 -20.1 15.4 -16.75 16.0 L-16.75 15.25 Q-18.75 9.75 -18.75 6.5 -18.75 4.0 -16.75 -2.0 L4.25 -2.0" fill="#3c2e54" fill-rule="evenodd" stroke="none"/>
    <path d="M-18.25 -21.4 L-18.25 -21.5 -16.85 -21.5 -8.05 -21.55 -0.25 -21.0 2.75 -20.5 2.75 -17.5 -3.75 -17.5 Q-3.75 -17.9 -5.95 -18.1 L-18.25 -18.5 -18.25 -21.4 M4.25 -2.0 L-16.75 -2.0 Q-18.75 4.0 -18.75 6.5 -18.75 9.75 -16.75 15.25 L-16.75 16.0 Q-20.1 15.4 -20.95 11.95 -21.25 10.8 -21.25 6.35 -21.25 4.55 -20.65 -0.1 L-19.5 -7.5 3.5 -7.25 Q4.25 -5.75 4.25 -2.0" fill="#e7cfef" fill-rule="evenodd" stroke="none"/>
  </g>
</svg>
