<?xml version="1.0" encoding="UTF-8" standalone="no"?>
<svg xmlns:xlink="http://www.w3.org/1999/xlink" height="93.5px" width="101.25px" xmlns="http://www.w3.org/2000/svg">
  <g transform="matrix(1.0, 0.0, 0.0, 1.0, 50.65, 46.75)">
    <path d="M28.2 -46.75 Q32.75 -45.7 36.65 -43.0 39.85 -40.85 42.35 -37.65 50.75 -26.75 50.6 -13.1 50.55 -8.75 49.65 -4.55 49.25 -1.9 48.4 0.65 46.75 6.15 36.6 17.4 26.6 28.65 8.2 30.95 -9.9 33.2 -9.85 31.65 L-11.7 46.75 -50.65 40.65 -45.7 -18.1 Q-43.25 -17.25 -31.4 -15.5 -22.75 -14.35 -15.1 -15.75 L-9.65 -17.15 Q-1.1 -26.25 3.75 -33.3 8.7 -40.25 12.1 -42.25 15.45 -44.25 19.35 -45.85 L28.2 -46.75 M-44.25 31.1 L-44.4 35.45 -16.6 39.85 -14.15 26.25 Q11.5 28.8 27.1 18.55 39.35 10.3 43.35 -2.8 46.45 -12.3 44.3 -22.25 43.4 -26.4 41.05 -29.9 35.8 -37.8 26.4 -39.45 L21.85 -39.65 Q18.55 -38.7 15.65 -36.9 L12.85 -34.7 Q5.7 -28.05 0.65 -19.35 L-0.15 -18.15 Q-5.75 -12.2 -13.75 -10.65 L-17.65 -9.9 Q-27.5 -8.25 -40.1 -10.55 L-40.65 -6.85 Q-43.15 11.85 -44.25 31.1" fill="#000000" fill-rule="evenodd" stroke="none"/>
    <path d="M-44.25 31.1 Q-43.15 11.85 -40.65 -6.85 L-40.1 -10.55 Q-27.5 -8.25 -17.65 -9.9 L-13.75 -10.65 Q-5.75 -12.2 -0.15 -18.15 L0.65 -19.35 Q5.7 -28.05 12.85 -34.7 L15.65 -36.9 Q19.95 -37.55 24.25 -36.2 36.95 -32.3 40.2 -19.3 44.15 -2.9 31.15 8.3 10.5 26.15 -17.8 22.35 L-18.05 23.25 Q-18.6 29.55 -20.4 35.3 L-44.25 31.1" fill="#010000" fill-rule="evenodd" stroke="none"/>
    <path d="M15.65 -36.9 Q18.55 -38.7 21.85 -39.65 L26.4 -39.45 Q35.8 -37.8 41.05 -29.9 43.4 -26.4 44.3 -22.25 46.45 -12.3 43.35 -2.8 39.35 10.3 27.1 18.55 11.5 28.8 -14.15 26.25 L-16.6 39.85 -44.4 35.45 -44.25 31.1 -20.4 35.3 Q-18.6 29.55 -18.05 23.25 L-17.8 22.35 Q10.5 26.15 31.15 8.3 44.15 -2.9 40.2 -19.3 36.95 -32.3 24.25 -36.2 19.95 -37.55 15.65 -36.9" fill="#666666" fill-rule="evenodd" stroke="none"/>
  </g>
</svg>
