<?xml version="1.0" encoding="UTF-8" standalone="no"?>
<svg xmlns:xlink="http://www.w3.org/1999/xlink" height="104.55px" width="137.15px" xmlns="http://www.w3.org/2000/svg">
  <g transform="matrix(1.0, 0.0, 0.0, 1.0, 113.85, 57.05)">
    <path d="M14.75 -27.0 L17.5 -44.0 -6.05 -48.3 Q-6.4 -33.3 -7.9 -18.5 -10.75 9.05 -18.35 35.7 L-2.15 39.2 3.75 22.75 Q0.9 20.9 -0.75 17.8 -8.45 3.3 -1.85 -12.4 2.95 -23.7 14.75 -27.0 M23.3 -46.0 Q20.6 -29.6 19.7 -21.15 12.2 -24.35 5.0 -13.7 -2.25 -3.1 0.7 6.7 3.6 16.5 6.65 17.55 9.65 18.6 9.7 19.4 9.95 25.85 8.0 32.0 5.5 40.05 1.5 47.5 L-20.9 40.7 -22.0 42.0 -25.1 41.9 Q-53.8 37.15 -82.8 39.75 L-97.15 41.65 Q-99.45 41.55 -100.75 43.0 L-113.85 -24.3 Q-111.05 -26.65 -94.15 -36.95 -79.45 -45.95 -61.55 -50.95 L-56.3 -52.3 Q-49.05 -54.1 -41.55 -55.2 -27.5 -57.25 -12.75 -57.0 L-12.25 -53.95 -11.25 -55.25 2.4 -52.75 Q12.55 -51.25 21.65 -46.95 L23.3 -46.0 M-107.1 -23.0 L-97.55 34.55 -97.15 34.45 Q-69.45 29.45 -41.5 33.55 L-25.45 36.05 -25.1 34.4 -24.85 33.25 Q-21.2 19.3 -18.95 5.3 L-18.8 4.3 Q-18.45 3.65 -18.05 2.0 -17.2 -1.85 -17.65 -3.8 -14.85 -27.15 -17.1 -50.7 L-17.15 -51.2 -17.25 -51.0 -19.35 -50.95 -20.05 -51.25 -20.0 -50.95 Q-30.95 -50.7 -41.55 -48.95 -51.7 -47.35 -61.55 -44.4 -71.25 -41.5 -80.65 -37.3 -93.8 -31.5 -105.95 -23.65 L-107.1 -23.0" fill="#000000" fill-rule="evenodd" stroke="none"/>
    <path d="M14.75 -27.0 Q2.95 -23.7 -1.85 -12.4 -8.45 3.3 -0.75 17.8 0.9 20.9 3.75 22.75 L-2.15 39.2 -18.35 35.7 Q-10.75 9.05 -7.9 -18.5 -6.4 -33.3 -6.05 -48.3 L17.5 -44.0 14.75 -27.0 M-107.1 -23.0 L-105.95 -23.65 Q-93.8 -31.5 -80.65 -37.3 -71.25 -41.5 -61.55 -44.4 -51.7 -47.35 -41.55 -48.95 -30.95 -50.7 -20.0 -50.95 L-20.05 -51.25 -19.35 -50.95 -17.25 -51.0 -17.15 -51.2 -17.1 -50.7 Q-14.85 -27.15 -17.65 -3.8 -17.2 -1.85 -18.05 2.0 -18.45 3.65 -18.8 4.3 L-18.95 5.3 Q-21.2 19.3 -24.85 33.25 L-25.1 34.4 -25.45 36.05 -41.5 33.55 Q-69.45 29.45 -97.15 34.45 L-97.55 34.55 -107.1 -23.0 M-41.55 -46.5 L-47.75 -45.65 Q-54.1 -44.75 -61.55 -42.25 -79.05 -36.5 -102.5 -22.1 L-94.65 29.45 -93.55 30.4 -61.55 15.1 -41.55 5.55 -34.5 2.15 -33.0 -25.0 -31.0 -23.2 -31.3 0.3 Q-23.15 -5.75 -20.3 -7.35 -18.15 -12.9 -19.7 -48.05 -25.35 -48.6 -41.55 -46.5 M-5.0 -45.0 L-6.0 -24.5 15.2 -41.5 -4.0 -44.3 -5.0 -45.0 M-8.0 11.75 L-10.0 12.1 Q-11.75 19.9 -13.3 25.3 L-15.6 32.75 -5.55 35.75 Q-10.7 30.25 -8.0 11.75" fill="#666666" fill-rule="evenodd" stroke="none"/>
    <path d="M-41.55 -46.5 Q-25.35 -48.6 -19.7 -48.05 -18.15 -12.9 -20.3 -7.35 -23.15 -5.75 -31.3 0.3 L-31.0 -23.2 -33.0 -25.0 -34.5 2.15 -41.55 5.55 -61.55 15.1 -93.55 30.4 -94.65 29.45 -102.5 -22.1 Q-79.05 -36.5 -61.55 -42.25 -54.1 -44.75 -47.75 -45.65 L-41.55 -46.5 M-5.0 -45.0 L-4.0 -44.3 15.2 -41.5 -6.0 -24.5 -5.0 -45.0 M-8.0 11.75 Q-10.7 30.25 -5.55 35.75 L-15.6 32.75 -13.3 25.3 Q-11.75 19.9 -10.0 12.1 L-8.0 11.75" fill="#010000" fill-rule="evenodd" stroke="none"/>
  </g>
</svg>
