<?xml version="1.0" encoding="UTF-8" standalone="no"?>
<svg xmlns:xlink="http://www.w3.org/1999/xlink" height="126.8px" width="76.2px" xmlns="http://www.w3.org/2000/svg">
  <g transform="matrix(1.0, 0.0, 0.0, 1.0, 38.6, 65.5)">
    <path d="M9.8 -51.8 L4.2 -55.1 Q-2.7 -59.05 -10.5 -59.95 -15.3 -60.45 -19.85 -58.95 -21.85 -58.3 -23.55 -57.15 -31.55 -51.55 -32.8 -41.65 -33.85 -33.55 -27.95 -27.7 L-14.5 -25.0 -12.85 -24.75 Q-7.2 -24.1 -4.55 -19.4 -3.25 -17.05 -3.35 -14.35 -3.9 -2.8 -2.0 8.75 L22.4 9.2 Q24.8 -22.8 26.2 -30.7 L26.4 -31.75 Q25.55 -33.35 24.15 -36.85 L21.95 -41.5 Q20.9 -43.3 19.4 -44.7 15.05 -48.8 9.8 -51.8 M3.0 -62.75 Q14.75 -58.35 23.75 -50.35 32.7 -42.4 30.85 -18.3 L28.3 10.8 27.9 13.95 24.45 13.9 24.4 14.1 24.4 14.35 24.85 15.8 30.15 16.35 Q33.0 22.6 35.25 28.85 L36.2 31.9 Q37.05 35.2 37.4 38.45 38.75 48.5 30.05 58.6 L28.35 60.45 20.65 61.0 Q12.1 61.4 3.4 61.3 L-14.0 60.15 -14.6 58.6 Q-16.65 52.35 -13.5 46.25 L-4.5 46.35 -4.5 47.7 -3.15 46.3 Q0.5 42.55 -0.45 38.45 -0.9 36.05 -2.3 33.6 L-3.0 33.75 -3.0 34.5 -13.85 33.95 -13.05 18.4 -3.4 16.2 -3.15 13.35 -6.85 13.25 -7.0 10.8 -7.5 4.25 Q-9.55 -19.7 -11.6 -20.05 L-17.6 -19.8 Q-21.3 -19.7 -27.5 -22.0 L-35.75 -28.5 Q-39.8 -36.3 -38.1 -44.95 -37.5 -48.05 -36.0 -50.7 -32.1 -57.6 -25.6 -61.6 -22.05 -63.7 -17.95 -64.6 L-12.45 -65.5 -9.5 -65.45 Q-2.95 -64.95 3.0 -62.75 M1.35 15.3 L0.85 19.1 -9.1 21.5 -10.0 30.35 -7.25 30.95 -7.1 27.3 -3.6 27.0 Q-0.25 28.55 2.1 31.9 4.45 35.2 5.0 38.45 5.3 39.65 5.15 41.0 4.75 45.4 2.2 49.2 0.3 52.05 -3.0 54.05 L-8.5 53.9 -9.5 50.25 -11.0 50.35 -10.05 56.25 3.3 57.0 Q9.95 57.15 16.6 56.9 L25.5 56.35 Q30.7 51.05 32.45 44.65 33.3 41.55 33.05 38.45 32.8 34.8 31.65 31.2 29.85 25.7 27.25 20.6 L21.5 20.85 20.3 14.35 20.15 13.8 5.75 13.55 5.75 12.5 1.25 12.25 1.35 15.3" fill="#000000" fill-rule="evenodd" stroke="none"/>
    <path d="M9.8 -51.8 Q15.05 -48.8 19.4 -44.7 20.9 -43.3 21.95 -41.5 L24.15 -36.85 Q25.55 -33.35 26.4 -31.75 L26.2 -30.7 Q24.8 -22.8 22.4 9.2 L-2.0 8.75 Q-3.9 -2.8 -3.35 -14.35 -3.25 -17.05 -4.55 -19.4 -7.2 -24.1 -12.85 -24.75 L-14.5 -25.0 -27.95 -27.7 Q-33.85 -33.55 -32.8 -41.65 -31.55 -51.55 -23.55 -57.15 -21.85 -58.3 -19.85 -58.95 -15.3 -60.45 -10.5 -59.95 -2.7 -59.05 4.2 -55.1 L9.8 -51.8 M8.0 -39.75 Q3.1 -41.9 -1.7 -44.45 -4.45 -45.9 -6.3 -48.35 -8.1 -50.8 -9.4 -53.65 L-7.9 -58.2 Q-19.9 -62.5 -26.8 -52.65 -30.9 -46.75 -29.25 -39.65 -26.95 -29.8 -16.9 -27.4 -9.35 -25.45 -2.4 -22.15 -0.8 -16.55 -0.95 -10.65 -1.15 -2.5 -0.2 5.65 L11.4 5.9 13.0 7.0 Q14.2 -12.8 12.9 -32.75 12.6 -37.65 8.0 -39.75" fill="#666666" fill-rule="evenodd" stroke="none"/>
    <path d="M8.0 -39.75 Q12.6 -37.65 12.9 -32.75 14.2 -12.8 13.0 7.0 L11.4 5.9 -0.2 5.65 Q-1.15 -2.5 -0.95 -10.65 -0.8 -16.55 -2.4 -22.15 -9.35 -25.45 -16.9 -27.4 -26.95 -29.8 -29.25 -39.65 -30.9 -46.75 -26.8 -52.65 -19.9 -62.5 -7.9 -58.2 L-9.4 -53.65 Q-8.1 -50.8 -6.3 -48.35 -4.45 -45.9 -1.7 -44.45 3.1 -41.9 8.0 -39.75" fill="#010000" fill-rule="evenodd" stroke="none"/>
    <path d="M-0.75 24.25 L-0.75 24.5 -1.4 24.1 -1.5 25.6 Q-1.5 27.15 1.2 29.1 4.2 31.2 4.5 32.0 6.5 37.2 6.5 40.85 6.5 44.1 4.5 47.85 1.8 52.8 1.0 55.75 L4.0 56.0 9.2 48.1 Q9.5 47.25 9.5 41.1 9.5 33.65 9.15 32.6 8.75 31.45 3.75 24.5 L-0.75 24.25 M5.75 13.55 L20.15 13.8 20.3 14.35 21.5 20.85 27.25 20.6 Q29.85 25.7 31.65 31.2 32.8 34.8 33.05 38.45 33.3 41.55 32.45 44.65 30.7 51.05 25.5 56.35 L16.6 56.9 Q9.95 57.15 3.3 57.0 L-10.05 56.25 -11.0 50.35 -9.5 50.25 -8.5 53.9 -3.0 54.05 Q0.3 52.05 2.2 49.2 4.75 45.4 5.15 41.0 5.3 39.65 5.0 38.45 4.45 35.2 2.1 31.9 -0.25 28.55 -3.6 27.0 L-7.1 27.3 -7.25 30.95 -10.0 30.35 -9.1 21.5 0.85 19.1 1.35 15.3 1.5 21.25 4.5 21.5 Q4.5 21.2 5.0 20.8 L5.5 20.5 Q5.5 17.75 5.75 17.0 L5.75 13.55 M9.5 16.75 L6.5 16.5 6.5 20.25 9.5 20.5 9.5 16.75" fill="#3c2e54" fill-rule="evenodd" stroke="none"/>
    <path d="M-0.75 24.25 L3.75 24.5 Q8.75 31.45 9.15 32.6 9.5 33.65 9.5 41.1 9.5 47.25 9.2 48.1 L4.0 56.0 1.0 55.75 Q1.8 52.8 4.5 47.85 6.5 44.1 6.5 40.85 6.5 37.2 4.5 32.0 4.2 31.2 1.2 29.1 -1.5 27.15 -1.5 25.6 L-1.4 24.1 -0.75 24.5 -0.75 24.25 M1.35 15.3 L1.25 12.25 5.75 12.5 5.75 13.55 5.75 17.0 Q5.5 17.75 5.5 20.5 L5.0 20.8 Q4.5 21.2 4.5 21.5 L1.5 21.25 1.35 15.3 M9.5 16.75 L9.5 20.5 6.5 20.25 6.5 16.5 9.5 16.75" fill="#e7cfef" fill-rule="evenodd" stroke="none"/>
  </g>
</svg>
