<?xml version="1.0" encoding="UTF-8" standalone="no"?>
<svg xmlns:xlink="http://www.w3.org/1999/xlink" height="217.85px" width="158.1px" xmlns="http://www.w3.org/2000/svg">
  <g transform="matrix(1.0, 0.0, 0.0, 1.0, 78.0, 107.5)">
    <path d="M13.2 -55.3 L20.5 -49.65 24.05 -46.25 Q26.9 -42.9 28.85 -38.5 30.4 -44.85 32.7 -51.15 36.45 -61.45 37.3 -72.25 L37.5 -76.5 Q37.65 -81.75 35.65 -86.8 33.7 -91.7 32.0 -96.75 L-2.0 -74.75 -3.85 -77.05 -1.65 -79.3 Q2.1 -82.15 5.6 -85.55 9.05 -88.9 11.05 -93.35 12.5 -96.5 12.2 -100.1 L10.2 -99.5 Q2.3 -95.7 -4.8 -90.6 -17.15 -81.75 -27.1 -72.25 L-27.5 -71.85 Q-26.25 -70.25 -20.65 -53.1 -17.55 -43.65 -18.6 -32.75 -19.45 -24.0 -23.0 -14.35 -13.35 -22.55 -7.9 -32.75 -4.5 -39.2 -2.7 -46.4 -0.9 -53.95 -0.9 -62.35 L1.35 -63.25 Q6.15 -60.55 13.2 -55.3 M13.0 30.9 L23.05 17.9 Q31.0 5.85 30.3 -8.3 L29.75 -13.7 Q27.8 -25.55 24.05 -34.45 L23.7 -35.3 23.85 -35.3 23.8 -35.4 Q18.0 -46.3 6.25 -54.55 L4.1 -56.0 2.85 -55.85 3.0 -52.35 2.6 -49.0 Q0.9 -40.35 -2.65 -32.75 -10.55 -15.8 -27.7 -4.2 L-31.6 -4.2 -29.4 -9.55 Q-24.95 -21.2 -24.3 -32.75 -23.3 -50.05 -30.8 -67.25 L-31.15 -68.25 Q-36.75 -62.7 -41.95 -56.65 L-46.1 -51.7 Q-51.75 -44.7 -55.0 -36.15 -59.35 -24.75 -60.2 -12.35 -60.95 -1.3 -60.55 9.8 -60.35 15.6 -60.45 21.35 L-60.5 22.5 -63.5 22.25 -65.25 12.95 Q-66.7 4.05 -67.0 -3.9 -67.5 -15.95 -63.45 -30.65 -59.45 -45.35 -47.4 -59.9 L-41.95 -66.15 -36.15 -72.25 Q-28.45 -79.95 -19.85 -86.65 -4.8 -98.35 12.25 -106.75 L18.2 -107.5 14.75 -91.0 24.05 -97.0 35.1 -104.45 38.2 -95.35 Q39.9 -90.0 40.8 -84.45 41.85 -78.3 41.8 -72.25 41.7 -63.95 39.6 -55.8 44.85 -60.95 50.05 -72.25 L51.6 -75.65 54.25 -72.25 Q57.7 -67.7 59.65 -64.15 62.25 -59.4 65.75 -50.2 69.2 -41.0 65.0 -29.45 71.25 -39.1 76.3 -43.85 79.15 -28.9 79.95 -10.5 80.55 4.25 78.3 19.85 75.1 24.25 71.55 28.45 61.95 39.55 49.9 47.8 37.75 56.15 23.1 57.25 L19.9 57.35 Q8.05 57.35 -3.75 56.8 -8.35 56.45 -12.25 55.0 L-12.25 50.75 -11.2 50.8 -4.05 51.55 -0.9 51.9 Q5.2 52.7 11.5 51.9 L17.45 52.2 24.85 51.6 28.45 50.65 28.65 50.6 29.05 50.55 29.15 50.5 Q43.1 46.9 54.0 37.55 64.8 28.3 73.55 16.95 75.0 14.05 74.9 7.1 L74.55 -8.2 Q74.25 -15.6 73.55 -24.5 73.15 -29.25 72.2 -31.05 L55.0 -11.25 51.4 -11.25 Q53.85 -19.0 55.15 -21.7 59.2 -30.3 61.8 -39.4 62.3 -41.1 61.85 -45.25 61.4 -49.4 59.75 -52.95 L52.05 -67.3 Q46.9 -54.75 34.45 -37.5 L29.1 -37.95 30.55 -34.55 30.55 -34.15 Q32.8 -26.9 35.45 -13.7 38.1 0.9 31.2 14.25 L28.25 19.55 Q22.75 27.85 13.9 35.75 12.3 34.75 10.5 34.1 L13.0 30.9" fill="#000000" fill-rule="evenodd" stroke="none"/>
    <path d="M-60.45 21.35 Q-60.35 15.6 -60.55 9.8 -60.95 -1.3 -60.2 -12.35 -59.35 -24.75 -55.0 -36.15 -51.75 -44.7 -46.1 -51.7 L-41.95 -56.65 Q-36.75 -62.7 -31.15 -68.25 L-30.8 -67.25 Q-23.3 -50.05 -24.3 -32.75 -24.95 -21.2 -29.4 -9.55 L-31.6 -4.2 -27.7 -4.2 Q-10.55 -15.8 -2.65 -32.75 0.9 -40.35 2.6 -49.0 L3.0 -52.35 2.85 -55.85 4.1 -56.0 6.25 -54.55 Q18.0 -46.3 23.8 -35.4 L23.85 -35.3 23.7 -35.3 24.05 -34.45 Q27.8 -25.55 29.75 -13.7 L30.3 -8.3 Q31.0 5.85 23.05 17.9 L13.0 30.9 10.8 32.6 7.2 35.95 6.8 36.3 Q5.1 37.8 3.45 39.45 -0.05 42.9 -3.95 45.6 L-4.8 46.2 Q-6.4 47.45 -8.25 48.25 L-9.5 48.75 -12.3 49.75 -14.05 50.25 -15.75 50.6 -20.55 51.35 -21.75 51.5 -31.25 51.5 -35.0 51.3 -36.25 51.1 -37.2 50.9 -40.55 49.85 -42.05 49.0 Q-43.45 48.05 -44.95 47.5 L-46.85 46.55 -47.75 45.95 Q-48.8 45.25 -49.1 44.55 L-49.3 44.35 Q-49.7 44.3 -49.7 43.75 L-49.85 43.3 Q-53.35 39.95 -54.65 35.55 -54.8 35.0 -55.1 34.55 -56.6 32.15 -57.25 29.5 L-57.65 28.3 -58.2 26.95 -58.65 25.8 -59.5 23.5 -60.45 21.35" fill="#e42546" fill-rule="evenodd" stroke="none"/>
    <path d="M-2.7 -46.4 Q-4.5 -39.2 -7.9 -32.75 -13.35 -22.55 -23.0 -14.35 -19.45 -24.0 -18.6 -32.75 -17.55 -43.65 -20.65 -53.1 -26.25 -70.25 -27.5 -71.85 L-27.1 -72.25 Q-17.15 -81.75 -4.8 -90.6 2.3 -95.7 10.2 -99.5 L12.2 -100.1 Q12.5 -96.5 11.05 -93.35 9.05 -88.9 5.6 -85.55 2.1 -82.15 -1.65 -79.3 L-3.85 -77.05 -2.0 -74.75 32.0 -96.75 Q33.7 -91.7 35.65 -86.8 37.65 -81.75 37.5 -76.5 L37.3 -72.25 Q36.45 -61.45 32.7 -51.15 30.4 -44.85 28.85 -38.5 26.9 -42.9 24.05 -46.25 L20.5 -49.65 13.2 -55.3 18.65 -53.85 20.65 -58.8 Q22.55 -64.0 24.05 -69.25 L24.85 -72.25 25.0 -72.8 29.3 -88.8 Q29.7 -90.3 28.9 -90.65 26.4 -89.35 24.05 -87.9 L12.4 -80.85 Q6.6 -77.2 0.65 -73.85 -1.3 -72.75 -3.8 -72.5 -6.0 -73.8 -5.75 -77.75 1.25 -86.85 1.8 -89.15 2.35 -91.45 4.15 -94.3 L3.6 -94.0 1.25 -91.95 -6.9 -84.95 Q-13.45 -79.25 -18.2 -72.25 L-21.4 -67.0 Q-18.4 -59.3 -17.15 -51.0 L-15.95 -44.25 Q-15.35 -41.4 -15.5 -38.8 -15.65 -35.75 -15.95 -32.75 L-16.75 -27.6 Q-17.15 -25.2 -16.0 -23.5 L-8.05 -38.0 -7.8 -39.25 Q-7.25 -41.7 -5.3 -43.6 L-2.7 -46.4 M13.0 30.9 L10.5 34.1 Q12.3 34.75 13.9 35.75 22.75 27.85 28.25 19.55 L31.2 14.25 Q38.1 0.9 35.45 -13.7 32.8 -26.9 30.55 -34.15 L30.55 -34.55 29.1 -37.95 34.45 -37.5 Q46.9 -54.75 52.05 -67.3 L59.75 -52.95 Q61.4 -49.4 61.85 -45.25 62.3 -41.1 61.8 -39.4 59.2 -30.3 55.15 -21.7 53.85 -19.0 51.4 -11.25 L55.0 -11.25 72.2 -31.05 Q73.15 -29.25 73.55 -24.5 74.25 -15.6 74.55 -8.2 L74.9 7.1 Q75.0 14.05 73.55 16.95 64.8 28.3 54.0 37.55 43.1 46.9 29.15 50.5 L29.05 50.55 28.65 50.6 28.45 50.65 24.85 51.6 17.45 52.2 11.5 51.9 Q5.2 52.7 -0.9 51.9 L-4.05 51.55 -11.2 50.8 -11.25 50.75 -12.3 49.75 -9.5 48.75 -8.25 48.25 Q-6.4 47.45 -4.8 46.2 L-3.95 45.6 Q-0.05 42.9 3.45 39.45 5.1 37.8 6.8 36.3 L7.2 35.95 10.8 32.6 13.0 30.9 M35.35 -31.7 Q34.65 -30.5 34.8 -29.1 35.15 -25.1 36.0 -21.2 37.5 -14.5 37.45 -7.55 37.4 1.15 34.3 9.55 31.1 18.25 25.45 25.6 L22.3 29.95 Q22.0 30.4 22.1 30.85 22.9 34.7 24.5 38.45 26.55 43.3 26.25 48.4 28.8 48.35 31.2 47.4 L35.05 45.75 Q40.8 42.05 45.75 37.4 L48.25 35.05 49.05 34.1 Q52.45 30.05 55.1 25.4 61.05 14.95 65.0 3.75 69.15 -8.25 71.0 -21.05 68.35 -17.7 65.15 -14.85 63.05 -13.0 60.7 -11.45 55.15 -7.8 50.2 -3.45 L49.15 -3.45 Q52.45 -18.7 54.65 -34.1 55.15 -37.55 55.0 -41.0 54.65 -51.1 51.55 -61.0 L43.4 -45.7 35.35 -31.7" fill="#666666" fill-rule="evenodd" stroke="none"/>
    <path d="M13.2 -55.3 Q6.15 -60.55 1.35 -63.25 L-0.9 -62.35 Q-0.9 -53.95 -2.7 -46.4 L-5.3 -43.6 Q-7.25 -41.7 -7.8 -39.25 L-8.05 -38.0 -16.0 -23.5 Q-17.15 -25.2 -16.75 -27.6 L-15.95 -32.75 Q-15.65 -35.75 -15.5 -38.8 -15.35 -41.4 -15.95 -44.25 L-17.15 -51.0 Q-18.4 -59.3 -21.4 -67.0 L-18.2 -72.25 Q-13.45 -79.25 -6.9 -84.95 L1.25 -91.95 3.6 -94.0 4.15 -94.3 Q2.35 -91.45 1.8 -89.15 1.25 -86.85 -5.75 -77.75 -6.0 -73.8 -3.8 -72.5 -1.3 -72.75 0.65 -73.85 6.6 -77.2 12.4 -80.85 L24.05 -87.9 Q26.4 -89.35 28.9 -90.65 29.7 -90.3 29.3 -88.8 L25.0 -72.8 24.85 -72.25 24.05 -69.25 Q22.55 -64.0 20.65 -58.8 L18.65 -53.85 13.2 -55.3 M35.35 -31.7 L43.4 -45.7 51.55 -61.0 Q54.65 -51.1 55.0 -41.0 55.15 -37.55 54.65 -34.1 52.45 -18.7 49.15 -3.45 L50.2 -3.45 Q55.15 -7.8 60.7 -11.45 63.05 -13.0 65.15 -14.85 68.35 -17.7 71.0 -21.05 69.15 -8.25 65.0 3.75 61.05 14.95 55.1 25.4 52.45 30.05 49.05 34.1 L48.25 35.05 45.75 37.4 Q40.8 42.05 35.05 45.75 L31.2 47.4 Q28.8 48.35 26.25 48.4 26.55 43.3 24.5 38.45 22.9 34.7 22.1 30.85 22.0 30.4 22.3 29.95 L25.45 25.6 Q31.1 18.25 34.3 9.55 37.4 1.15 37.45 -7.55 37.5 -14.5 36.0 -21.2 35.15 -25.1 34.8 -29.1 34.65 -30.5 35.35 -31.7" fill="#010000" fill-rule="evenodd" stroke="none"/>
    <path d="M17.2 42.0 L17.4 41.4 22.25 41.5 Q24.75 48.25 23.65 55.0 L22.95 58.15 21.8 61.35 20.25 64.75 15.5 66.85 12.0 68.4 Q-1.55 74.55 -14.75 81.5 -18.15 83.35 -20.55 86.05 L-23.75 89.75 -32.4 87.15 -32.05 84.45 -32.0 84.0 -32.0 82.5 Q-25.25 85.55 -20.8 78.9 -20.05 77.75 -18.75 77.0 -3.65 68.55 12.0 61.35 L14.65 60.1 15.5 59.65 Q19.7 55.4 19.75 49.45 19.75 48.7 20.25 46.0 L15.55 46.75 17.2 42.0" fill="#000000" fill-rule="evenodd" stroke="none"/>
    <path d="M17.2 42.0 L15.55 46.75 20.25 46.0 Q19.75 48.7 19.75 49.45 19.7 55.4 15.5 59.65 L14.65 60.1 12.0 61.35 Q-3.65 68.55 -18.75 77.0 -20.05 77.75 -20.8 78.9 -25.25 85.55 -32.0 82.5 L-32.0 84.0 -32.05 84.45 Q-33.45 83.9 -35.0 83.6 L-36.1 83.45 Q-39.7 83.05 -37.0 80.05 L-36.1 78.95 Q-32.2 74.55 -29.95 69.05 -29.55 68.0 -28.8 67.25 L-27.35 65.7 Q-23.05 60.85 -19.05 58.05 -15.7 55.65 -13.35 53.65 -8.35 49.3 -1.95 45.1 4.25 41.0 15.0 41.0 16.0 41.0 16.5 41.5 L17.2 42.0" fill="#a3cee1" fill-rule="evenodd" stroke="none"/>
    <path d="M16.15 30.5 Q21.1 34.75 19.95 41.1 19.5 43.5 19.3 46.0 L18.25 55.85 Q1.8 50.95 -7.45 63.0 -9.85 66.15 -10.65 70.6 L-12.0 79.3 Q-20.25 79.6 -28.15 81.0 -29.45 81.15 -30.1 82.55 -32.6 88.1 -32.75 94.6 L-46.85 95.7 -53.75 110.35 -63.25 110.0 Q-76.0 76.95 -77.5 71.9 -79.05 66.8 -75.8 56.1 L-69.0 33.35 Q-65.4 21.35 -61.0 15.3 L-56.0 16.25 -45.0 40.35 Q-26.15 49.9 -9.4 40.8 0.75 35.3 6.0 24.85 L11.0 25.8 16.15 30.5 M-48.4 45.75 L-44.3 47.55 -35.85 50.2 Q-25.7 53.25 -15.8 51.95 L-8.9 51.6 1.95 50.45 5.85 50.6 Q10.6 51.65 14.65 50.0 L14.8 48.6 Q15.95 43.35 15.45 37.8 15.25 35.45 13.3 33.85 L10.0 31.7 Q0.6 42.1 -11.5 49.2 -13.8 50.55 -16.85 50.4 -33.6 50.6 -49.55 43.0 L-50.9 40.3 -57.05 27.9 -60.0 21.95 -64.5 36.4 -59.25 37.25 -57.5 37.55 Q-53.95 42.75 -48.4 45.75 M-60.8 43.5 L-65.95 40.7 -69.8 53.15 -63.3 54.2 -63.0 54.25 Q-56.4 60.95 -49.0 66.65 L-41.25 72.1 Q-40.25 72.8 -39.05 73.2 L-29.5 74.55 -23.1 74.95 -16.0 74.95 -14.1 58.15 -40.4 54.1 -43.15 53.25 Q-45.85 52.25 -48.5 50.9 -53.75 48.15 -58.75 44.8 L-60.8 43.5 M-57.05 85.15 Q-51.4 89.25 -44.55 89.6 L-39.3 89.4 -37.0 88.95 -34.95 78.15 Q-42.15 76.55 -50.6 70.7 -57.15 66.2 -64.45 59.15 L-65.5 58.15 -70.9 56.95 Q-74.0 63.95 -72.5 72.05 L-72.1 73.95 -69.0 77.15 -67.05 77.7 -63.5 78.7 Q-60.5 82.6 -57.05 85.15 M-66.5 82.0 L-69.7 80.7 -60.0 104.7 -58.5 103.45 -57.05 102.25 Q-53.0 98.1 -51.8 92.1 -53.6 91.65 -55.05 90.65 L-56.5 89.6 -65.5 82.4 -66.5 82.0" fill="#000000" fill-rule="evenodd" stroke="none"/>
    <path d="M10.6 37.05 Q9.8 38.55 8.0 38.7 L7.85 38.75 Q6.15 42.1 2.4 44.35 -0.2 45.95 -1.0 49.0 L3.95 49.75 7.0 50.4 8.0 50.6 9.5 50.8 Q12.15 50.9 13.05 49.55 L13.35 48.95 Q15.35 43.85 13.65 38.95 L13.35 38.05 Q12.95 36.7 11.0 36.75 L10.6 37.05 M-50.9 40.3 L-49.55 43.0 Q-33.6 50.6 -16.85 50.4 -13.8 50.55 -11.5 49.2 0.6 42.1 10.0 31.7 L13.3 33.85 Q15.25 35.45 15.45 37.8 15.95 43.35 14.8 48.6 L14.65 50.0 Q10.6 51.65 5.85 50.6 L1.95 50.45 -8.9 51.6 -15.8 51.95 Q-25.7 53.25 -35.85 50.2 L-44.3 47.55 -48.4 45.75 Q-49.65 44.25 -50.35 41.95 L-50.65 41.05 -50.9 40.3 M-59.25 37.25 L-64.5 36.4 -60.0 21.95 -57.05 27.9 -57.9 28.65 Q-58.6 29.15 -58.7 30.5 L-58.95 35.5 -59.2 36.95 -59.25 37.25 M-63.3 54.2 L-69.8 53.15 -65.95 40.7 -60.8 43.5 -63.3 54.2 M-43.15 53.25 L-40.4 54.1 -14.1 58.15 -16.0 74.95 -23.1 74.95 Q-22.25 74.75 -21.6 74.35 L-20.0 74.15 Q-18.1 74.4 -17.35 73.65 -16.75 73.0 -16.65 72.0 L-16.1 65.6 -16.5 65.55 -17.1 65.3 -17.6 63.5 -18.0 61.5 Q-20.0 62.2 -21.45 64.05 L-22.6 65.4 Q-26.25 69.2 -28.95 73.05 -29.6 73.9 -29.5 74.55 L-39.05 73.2 Q-40.25 72.8 -41.25 72.1 L-49.0 66.65 -49.45 65.95 Q-49.75 65.5 -49.65 65.1 L-48.9 62.55 -48.5 61.5 -46.7 58.4 Q-44.85 55.2 -43.15 53.25 M-57.05 85.15 L-56.65 84.35 Q-56.25 84.05 -56.05 83.55 L-54.45 79.55 -54.1 78.5 Q-53.05 74.55 -50.9 71.05 L-50.6 70.7 Q-42.15 76.55 -34.95 78.15 L-37.0 88.95 -39.3 89.4 -38.9 88.5 -38.5 85.55 -38.0 81.55 Q-37.75 82.5 -37.55 81.05 -37.5 80.55 -37.7 80.15 -38.4 78.8 -39.5 80.05 L-40.0 80.55 -40.8 81.65 -41.2 82.4 -42.25 84.2 -43.15 86.0 -43.7 87.6 Q-44.0 88.8 -44.55 89.6 -51.4 89.25 -57.05 85.15 M-64.45 59.15 L-64.65 59.95 Q-65.7 64.6 -65.95 69.5 -66.15 73.75 -67.05 77.7 L-69.0 77.15 -72.1 73.95 -72.5 72.05 Q-74.0 63.95 -70.9 56.95 L-65.5 58.15 -64.45 59.15 M-56.5 89.6 L-55.05 90.65 Q-53.6 91.65 -51.8 92.1 -53.0 98.1 -57.05 102.25 L-58.5 103.45 -60.0 104.7 -69.7 80.7 -66.5 82.0 -66.5 82.05 Q-64.65 86.25 -63.0 91.05 L-61.3 95.45 Q-60.7 96.75 -60.6 98.05 L-60.45 99.1 -59.05 98.9 -58.7 98.5 Q-58.5 96.7 -57.95 95.05 L-57.7 94.05 Q-57.45 91.85 -56.85 90.1 L-56.5 89.6 M-26.1 58.05 L-29.75 57.6 -32.0 57.35 -34.25 57.25 -34.25 59.6 -29.0 60.4 -23.85 60.85 Q-27.3 64.05 -28.35 66.75 L-27.6 66.85 Q-27.6 66.35 -26.35 65.85 L-24.35 63.4 -22.5 61.35 -20.85 61.1 -20.55 61.0 -20.5 60.1 Q-20.5 59.35 -21.05 58.95 L-21.75 58.5 -26.1 58.05 M-41.1 77.5 Q-42.95 77.05 -44.35 76.05 -45.45 75.25 -48.6 74.85 L-48.75 75.35 -48.75 77.6 Q-44.55 79.5 -43.1 79.85 L-44.6 82.8 Q-45.25 84.15 -45.25 85.1 L-44.75 85.25 Q-44.8 84.15 -43.7 82.65 L-42.1 80.35 -40.35 80.1 Q-40.35 78.25 -41.1 77.5" fill="#a3cee1" fill-rule="evenodd" stroke="none"/>
    <path d="M10.6 37.05 L11.0 36.75 Q12.95 36.7 13.35 38.05 L13.65 38.95 Q15.35 43.85 13.35 48.95 L13.05 49.55 Q12.15 50.9 9.5 50.8 L8.0 50.6 7.0 50.4 3.95 49.75 -1.0 49.0 Q-0.2 45.95 2.4 44.35 6.15 42.1 7.85 38.75 L8.0 38.7 Q9.8 38.55 10.6 37.05 M-23.1 74.95 L-29.5 74.55 Q-29.6 73.9 -28.95 73.05 -26.25 69.2 -22.6 65.4 L-21.45 64.05 Q-20.0 62.2 -18.0 61.5 L-17.6 63.5 -17.1 65.3 -16.5 65.55 -16.1 65.6 -16.65 72.0 Q-16.75 73.0 -17.35 73.65 -18.1 74.4 -20.0 74.15 L-21.6 74.35 Q-22.25 74.75 -23.1 74.95 M-44.55 89.6 Q-44.0 88.8 -43.7 87.6 L-43.15 86.0 -42.25 84.2 -41.2 82.4 -40.8 81.65 -40.0 80.55 -39.5 80.05 Q-38.4 78.8 -37.7 80.15 -37.5 80.55 -37.55 81.05 -37.75 82.5 -38.0 81.55 L-38.5 85.55 -38.9 88.5 -39.3 89.4 -44.55 89.6 M-41.1 77.5 Q-40.35 78.25 -40.35 80.1 L-42.1 80.35 -43.7 82.65 Q-44.8 84.15 -44.75 85.25 L-45.25 85.1 Q-45.25 84.15 -44.6 82.8 L-43.1 79.85 Q-44.55 79.5 -48.75 77.6 L-48.75 75.35 -48.6 74.85 Q-45.45 75.25 -44.35 76.05 -42.95 77.05 -41.1 77.5 M-26.1 58.05 L-21.75 58.5 -21.05 58.95 Q-20.5 59.35 -20.5 60.1 L-20.55 61.0 -20.85 61.1 -22.5 61.35 -24.35 63.4 -26.35 65.85 Q-27.6 66.35 -27.6 66.85 L-28.35 66.75 Q-27.3 64.05 -23.85 60.85 L-29.0 60.4 -34.25 59.6 -34.25 57.25 -32.0 57.35 -29.75 57.6 -26.1 58.05" fill="#e1f3fd" fill-rule="evenodd" stroke="none"/>
    <path d="M-50.9 40.3 L-50.65 41.05 -50.35 41.95 Q-49.65 44.25 -48.4 45.75 -53.95 42.75 -57.5 37.55 L-59.25 37.25 -59.2 36.95 -58.95 35.5 -58.7 30.5 Q-58.6 29.15 -57.9 28.65 L-57.05 27.9 -50.9 40.3 M-63.3 54.2 L-60.8 43.5 -58.75 44.8 Q-53.75 48.15 -48.5 50.9 -45.85 52.25 -43.15 53.25 -44.85 55.2 -46.7 58.4 L-48.5 61.5 -48.9 62.55 -49.65 65.1 Q-49.75 65.5 -49.45 65.95 L-49.0 66.65 Q-56.4 60.95 -63.0 54.25 L-63.3 54.2 M-50.6 70.7 L-50.9 71.05 Q-53.05 74.55 -54.1 78.5 L-54.45 79.55 -56.05 83.55 Q-56.25 84.05 -56.65 84.35 L-57.05 85.15 Q-60.5 82.6 -63.5 78.7 L-67.05 77.7 Q-66.15 73.75 -65.95 69.5 -65.7 64.6 -64.65 59.95 L-64.45 59.15 Q-57.15 66.2 -50.6 70.7 M-66.5 82.0 L-65.5 82.4 -56.5 89.6 -56.85 90.1 Q-57.45 91.85 -57.7 94.05 L-57.95 95.05 Q-58.5 96.7 -58.7 98.5 L-59.05 98.9 -60.45 99.1 -60.6 98.05 Q-60.7 96.75 -61.3 95.45 L-63.0 91.05 Q-64.65 86.25 -66.5 82.05 L-66.5 82.0" fill="#506b74" fill-rule="evenodd" stroke="none"/>
    <path d="M9.7 -45.1 Q11.0 -42.05 11.55 -38.5 L12.4 -32.75 12.8 -29.0 13.05 -25.0 13.25 -18.5 13.2 -16.0 Q12.95 -8.7 10.7 -1.95 L10.3 -0.55 8.5 6.5 Q6.45 2.1 2.05 -1.55 -0.35 -3.5 -1.65 -5.9 -2.3 -7.2 -3.45 -7.65 L-3.95 -8.05 -6.0 -10.0 -7.55 -10.95 -10.5 -12.55 Q-11.45 -13.05 -11.8 -14.15 -10.45 -17.2 -8.25 -19.7 L-7.35 -20.9 -0.5 -31.5 0.2 -32.75 0.7 -34.45 1.25 -36.15 1.7 -36.9 Q2.5 -38.25 3.05 -40.5 3.75 -43.4 3.95 -46.5 L4.1 -48.0 Q4.35 -49.85 5.6 -49.2 L6.45 -48.85 7.0 -48.5 9.25 -45.85 9.7 -45.1 M-36.35 -32.75 L-35.65 -26.8 Q-33.1 -10.05 -36.7 5.6 L-35.05 8.1 -42.5 39.0 -44.35 37.85 Q-50.3 27.95 -53.75 16.8 -63.05 -12.95 -49.0 -40.2 -45.9 -46.25 -41.95 -51.75 -37.9 -57.4 -33.0 -62.5 -37.35 -46.9 -36.35 -32.75 M-25.55 40.35 Q-18.9 38.2 -12.65 35.2 L-10.85 34.2 -3.0 29.5 Q-3.75 30.6 -4.35 32.35 L-4.8 33.15 -5.7 34.35 Q-7.35 36.6 -9.55 37.95 -10.4 38.5 -11.4 38.8 L-12.6 39.3 -13.45 39.65 -14.05 39.85 Q-15.5 40.2 -16.2 40.75 L-16.9 41.2 -18.1 41.8 -18.35 41.95 -24.05 43.3 -25.5 43.45 Q-27.15 43.4 -28.6 42.7 -29.0 42.5 -29.5 42.4 L-31.45 41.95 -32.5 41.5 Q-30.55 40.55 -28.0 40.7 L-25.55 40.35" fill="#842739" fill-rule="evenodd" stroke="none"/>
    <path d="M11.5 -47.0 L17.75 -40.6 Q20.15 -36.8 21.9 -32.75 23.8 -28.25 24.95 -23.45 27.15 -14.25 26.6 -4.75 26.15 3.85 23.35 11.9 21.9 16.0 19.75 19.75 18.9 21.25 17.65 22.35 L17.95 21.45 Q18.75 10.6 16.2 0.0 15.4 -3.3 15.2 -6.7 14.65 -16.8 14.6 -26.9 L14.35 -32.75 13.8 -37.95 Q13.15 -42.55 11.5 -47.0 M-31.0 -62.05 Q-28.45 -59.2 -27.95 -55.5 L-27.15 -47.75 -26.35 -33.0 -26.35 -32.75 Q-26.1 -24.65 -28.5 -16.9 -28.35 -24.95 -29.9 -32.75 L-30.55 -35.65 Q-31.65 -40.25 -32.2 -45.0 -33.2 -53.65 -31.0 -62.05" fill="#fddce3" fill-rule="evenodd" stroke="none"/>
    <path d="M-13.0 -7.6 Q-4.8 -7.25 1.75 -2.45 L7.7 1.65 Q9.3 2.85 9.0 4.95 8.45 9.55 6.7 14.1 3.35 22.7 -4.05 28.4 -11.95 34.55 -21.95 36.45 -29.3 37.65 -36.4 35.4 -35.0 20.1 -31.45 5.15 -30.65 1.65 -28.25 -1.25 -22.2 -8.6 -13.0 -7.6 M-10.0 -0.45 L-6.9 -0.4 Q-11.8 -2.75 -16.8 -0.35 -22.1 2.15 -25.35 7.05 -28.25 11.25 -28.7 16.05 -24.15 5.7 -14.15 0.4 -12.55 0.85 -10.8 -0.1 L-10.0 -0.45 M-7.15 15.35 Q-4.25 10.1 -4.1 3.9 -13.75 4.7 -20.4 11.75 -25.25 16.85 -26.95 23.85 -18.75 25.5 -12.05 20.9 -8.95 18.7 -7.15 15.35 M-29.15 31.9 Q-26.1 32.1 -23.1 31.0 L-19.55 29.65 -27.85 27.45 -29.15 31.9 M2.9 8.0 L0.8 7.1 0.55 9.35 -1.7 16.7 0.0 14.75 Q2.4 11.8 2.9 8.0" fill="#000000" fill-rule="evenodd" stroke="none"/>
    <path d="M-10.0 -0.45 L-10.8 -0.1 Q-12.55 0.85 -14.15 0.4 -24.15 5.7 -28.7 16.05 -28.25 11.25 -25.35 7.05 -22.1 2.15 -16.8 -0.35 -11.8 -2.75 -6.9 -0.4 L-10.0 -0.45 M2.9 8.0 Q2.4 11.8 0.0 14.75 L-1.7 16.7 0.55 9.35 0.8 7.1 2.9 8.0 M-29.15 31.9 L-27.85 27.45 -19.55 29.65 -23.1 31.0 Q-26.1 32.1 -29.15 31.9" fill="#016e83" fill-rule="evenodd" stroke="none"/>
    <path d="M-7.15 15.35 Q-8.95 18.7 -12.05 20.9 -18.75 25.5 -26.95 23.85 -25.25 16.85 -20.4 11.75 -13.75 4.7 -4.1 3.9 -4.25 10.1 -7.15 15.35" fill="#fece00" fill-rule="evenodd" stroke="none"/>
    <path d="M-14.25 18.3 L-15.0 18.1 -15.0 18.85 -14.45 18.85 -15.6 19.2 -15.65 20.55 -15.3 21.0 -14.45 21.0 -14.15 20.5 Q-13.65 19.35 -14.25 18.3 M-21.8 21.45 Q-23.4 19.8 -23.4 17.55 -23.4 15.25 -21.75 13.6 -20.15 11.95 -17.85 11.95 -15.55 11.95 -13.9 13.6 -12.3 15.25 -12.3 17.55 -12.3 19.85 -13.9 21.5 -15.55 23.15 -17.85 23.15 -20.05 23.15 -21.65 21.65 -19.0 23.35 -16.0 22.4 L-15.6 21.1 -18.95 20.85 -21.7 18.4 -22.55 18.35 -22.5 19.15 Q-22.4 20.4 -21.8 21.45 M-18.45 14.25 Q-19.6 14.25 -20.4 15.05 -21.2 15.85 -21.2 17.0 -21.2 18.15 -20.4 18.95 -19.6 19.75 -18.45 19.75 -17.3 19.75 -16.5 18.95 -15.7 18.15 -15.7 17.0 -15.7 15.85 -16.5 15.05 -17.3 14.25 -18.45 14.25" fill="#842739" fill-rule="evenodd" stroke="none"/>
    <path d="M-14.25 18.3 Q-13.65 19.35 -14.15 20.5 L-14.45 21.0 -15.3 21.0 -15.65 20.55 -15.6 19.2 -14.45 18.85 -15.0 18.85 -15.0 18.1 -14.25 18.3 M-21.8 21.45 Q-22.4 20.4 -22.5 19.15 L-22.55 18.35 -21.7 18.4 -18.95 20.85 -15.6 21.1 -16.0 22.4 Q-19.0 23.35 -21.65 21.65 L-21.75 21.55 -21.75 21.5 -21.8 21.45" fill="#ff9900" fill-rule="evenodd" stroke="none"/>
    <path d="M-18.45 14.25 Q-17.3 14.25 -16.5 15.05 -15.7 15.85 -15.7 17.0 -15.7 18.15 -16.5 18.95 -17.3 19.75 -18.45 19.75 -19.6 19.75 -20.4 18.95 -21.2 18.15 -21.2 17.0 -21.2 15.85 -20.4 15.05 -19.6 14.25 -18.45 14.25" fill="#000000" fill-rule="evenodd" stroke="none"/>
  </g>
</svg>
