<?xml version="1.0" encoding="UTF-8" standalone="no"?>
<svg xmlns:xlink="http://www.w3.org/1999/xlink" height="47.85px" width="48.55px" xmlns="http://www.w3.org/2000/svg">
  <g transform="matrix(1.0, 0.0, 0.0, 1.0, 25.85, 19.15)">
    <path d="M-0.85 -19.15 Q9.8 -19.15 16.8 -9.15 22.7 -0.7 22.7 8.25 22.7 13.3 20.65 15.6 17.65 18.05 15.8 20.6 L13.1 24.4 9.35 23.95 Q8.45 23.95 6.2 26.35 3.9 28.7 0.25 28.7 L-1.05 28.2 Q-1.85 27.7 -2.35 27.7 L-7.35 28.2 -12.4 28.7 Q-16.15 28.7 -18.95 26.9 -22.7 24.55 -22.7 19.85 L-22.25 18.35 -21.85 16.8 -23.85 12.8 Q-25.85 8.3 -25.85 5.3 -25.85 -6.2 -17.25 -13.2 -9.95 -19.15 -0.85 -19.15" fill="#333333" fill-rule="evenodd" stroke="none"/>
    <path d="M14.65 -8.05 Q15.15 -7.4 15.6 -4.8 L16.5 -0.7 Q17.25 3.0 17.25 6.6 17.25 13.45 14.5 18.0 12.15 21.85 8.7 22.9 7.45 23.3 5.15 25.05 3.2 26.55 1.6 26.55 L-2.5 26.1 Q-4.2 25.35 -5.7 25.1 -7.7 24.8 -9.5 23.55 -11.45 22.25 -12.05 20.65 -12.6 19.2 -15.7 17.4 L-18.9 15.45 Q-19.85 13.95 -21.05 12.6 -21.8 11.5 -21.8 8.75 -21.8 -3.9 -15.55 -10.4 -9.95 -16.25 -0.25 -16.25 3.4 -16.25 7.6 -14.0 12.0 -11.65 14.65 -8.05" fill="#770000" fill-rule="evenodd" stroke="none"/>
    <path d="M12.75 -3.3 Q12.2 -2.9 12.2 -2.35 12.2 -1.85 12.6 -1.6 L12.95 -0.85 Q12.95 -0.35 12.5 -0.55 12.0 -0.8 12.0 -0.3 12.0 0.2 12.55 1.0 13.1 1.75 13.1 2.25 13.1 3.25 11.4 4.05 14.55 6.5 14.55 10.5 14.55 17.5 9.35 21.4 5.5 24.3 1.5 24.3 L-0.3 23.75 Q-1.55 23.2 -1.8 23.2 -1.95 23.2 -2.9 23.55 L-4.4 23.9 Q-7.5 23.9 -9.05 22.6 -11.0 21.0 -9.9 17.6 -21.25 17.15 -21.25 4.5 -21.25 -5.65 -15.85 -11.15 -11.2 -15.85 -3.95 -16.05 2.75 -16.3 7.9 -12.8 13.3 -9.15 13.3 -3.8 L12.75 -3.3" fill="url(#gradient0)" fill-rule="evenodd" stroke="none"/>
    <path d="M6.3 -3.35 Q6.3 3.65 2.65 7.65 -0.15 10.7 -3.15 10.7 L-7.3 8.75 -8.3 9.5 Q-9.45 10.2 -10.65 10.2 -12.65 10.2 -13.4 8.8 -14.1 6.9 -14.9 5.85 L-16.65 3.9 Q-17.65 2.2 -17.65 -1.55 -17.65 -4.15 -16.3 -6.25 -14.75 -8.7 -11.7 -9.55 L-8.4 -11.5 Q-5.05 -13.3 -2.8 -13.3 -1.05 -13.3 1.95 -11.25 6.3 -8.25 6.3 -3.35 M10.5 10.15 L11.55 10.3 11.4 10.7 Q10.5 10.7 10.5 10.15 M9.0 4.35 L9.25 6.5 Q9.25 9.25 7.0 9.95 4.75 10.6 4.75 8.0 4.75 6.55 5.95 5.35 6.9 4.45 8.05 4.05 L9.0 4.35 M7.45 1.65 L7.7 1.2 8.2 0.6 Q8.8 0.0 9.1 0.3 L9.05 2.25 7.6 2.4 7.45 1.65 M6.65 12.05 Q7.5 13.15 7.5 14.65 7.5 16.85 6.15 17.9 4.4 19.35 0.0 19.35 -1.5 19.35 -2.2 17.9 L-2.6 16.4 Q-2.6 14.0 -0.25 12.4 1.85 10.95 4.35 10.95 5.75 10.95 6.65 12.05 M-6.45 17.35 Q-9.3 17.35 -9.3 14.65 -9.3 12.25 -6.2 11.4 -3.15 10.55 -3.15 13.9 -3.15 16.25 -6.45 17.35" fill="#ffff00" fill-rule="evenodd" stroke="none"/>
    <path d="M0.6 -3.05 L0.4 -3.1 0.3 -3.8 1.7 -5.1 2.15 -4.95 1.45 -3.65 0.85 -3.05 0.6 -3.05 M8.2 6.0 L8.35 6.7 7.25 8.3 6.9 8.4 Q6.4 7.0 7.05 5.8 L8.2 6.0 M3.9 16.5 Q3.4 16.95 2.7 16.95 2.0 16.95 1.55 16.5 1.05 16.0 1.05 15.35 1.05 14.7 1.55 14.25 2.0 13.75 2.7 13.75 3.4 13.75 3.9 14.25 4.35 14.7 4.35 15.35 4.35 16.0 3.9 16.5 M-9.6 -1.15 L-10.05 -2.75 Q-10.05 -4.95 -9.1 -6.35 -8.2 -7.7 -7.05 -7.7 -5.45 -7.7 -4.45 -6.5 -3.65 -5.55 -3.65 -4.65 -3.65 -2.6 -4.7 -1.4 -5.8 -0.2 -7.75 -0.2 -9.0 -0.2 -9.6 -1.15 M-4.75 2.45 L-4.5 1.9 -3.55 1.2 -2.25 1.0 -1.7 1.1 Q-1.15 1.35 -1.1 2.3 L-2.5 3.65 -4.6 3.8 -4.75 2.45 M-7.8 15.8 L-8.2 15.7 -8.3 15.65 -8.3 14.05 -6.9 14.1 -6.0 14.25 -7.8 15.8" fill="#ffffff" fill-rule="evenodd" stroke="none"/>
  </g>
  <defs>
    <linearGradient gradientTransform="matrix(-0.0174, -0.0174, 0.0161, -0.0161, -1.85, 3.9)" gradientUnits="userSpaceOnUse" id="gradient0" spreadMethod="pad" x1="-819.2" x2="819.2">
      <stop offset="0.0" stop-color="#ff0000"/>
      <stop offset="1.0" stop-color="#ff7900"/>
    </linearGradient>
  </defs>
</svg>
