<?xml version="1.0" encoding="UTF-8" standalone="no"?>
<svg xmlns:xlink="http://www.w3.org/1999/xlink" height="55.4px" width="56.0px" xmlns="http://www.w3.org/2000/svg">
  <g transform="matrix(1.0, 0.0, 0.0, 1.0, 29.25, 27.45)">
    <path d="M17.95 -13.9 Q20.2 -11.1 24.0 -8.35 26.75 -5.5 26.75 1.35 26.75 4.0 25.4 6.35 23.7 8.8 22.95 10.3 L21.65 12.1 20.8 12.8 20.1 15.5 Q19.25 18.2 18.1 19.1 13.3 22.85 -8.2 27.7 -11.5 27.7 -15.2 23.95 -20.05 19.05 -20.65 18.7 -22.3 17.8 -25.2 10.25 -25.4 9.55 -25.25 8.45 L-25.0 6.75 Q-25.0 4.35 -26.05 2.85 L-27.15 1.3 -25.9 -0.95 Q-24.7 -3.4 -24.7 -5.0 -24.7 -5.6 -25.0 -6.35 L-25.6 -8.1 Q-26.2 -10.3 -26.65 -10.1 L-27.65 -10.0 -27.8 -10.15 -28.0 -11.05 Q-28.0 -14.1 -21.1 -17.25 -13.55 -20.7 -4.3 -20.7 6.6 -20.7 11.85 -18.65 15.3 -17.3 17.95 -13.9" fill="#770000" fill-rule="evenodd" stroke="none"/>
    <path d="M21.9 5.35 L20.5 3.7 25.45 -6.35 Q26.7 1.05 26.4 3.4 26.05 5.9 23.5 5.9 22.4 5.9 21.9 5.35 M-21.85 8.35 Q-22.05 8.85 -24.45 9.45 L-29.25 3.35 Q-28.9 2.95 -25.7 0.75 L-21.7 -1.9 -21.65 3.25 Q-21.65 7.9 -21.85 8.35" fill="#df5400" fill-rule="evenodd" stroke="none"/>
    <path d="M17.15 -12.65 L19.95 -7.95 19.85 -6.65 Q20.0 -5.85 21.15 -5.55 L16.85 1.4 Q17.2 1.75 18.25 2.1 18.85 2.35 18.85 2.95 18.85 4.35 18.05 4.8 15.85 6.05 13.95 7.85 L21.0 7.55 21.75 11.7 Q21.75 17.05 17.5 20.7 13.6 24.05 8.85 24.05 L6.2 23.55 3.55 23.05 1.7 24.9 Q-0.4 26.75 -2.35 26.75 L-7.65 26.6 -8.5 25.8 -9.75 27.95 -8.55 21.55 Q-19.9 18.85 -19.9 13.35 -19.0 8.05 -16.95 -0.35 -16.4 1.55 -15.4 1.55 -14.5 1.55 -13.15 0.95 L-11.85 0.3 -9.85 0.55 0.25 2.75 Q-0.15 1.35 -1.8 0.6 L-7.6 -2.6 -14.05 -2.75 -15.2 -4.65 Q-15.8 -4.4 -17.55 -3.9 L-19.3 -3.5 Q-23.45 -3.5 -25.5 -7.35 -26.75 -9.7 -28.85 -16.3 -26.3 -16.35 -24.4 -17.55 L-20.55 -20.7 Q-17.15 -23.55 -13.3 -25.4 L-9.7 -26.55 -4.0 -27.45 Q3.45 -27.45 11.3 -22.0 19.25 -16.5 17.15 -12.65" fill="url(#gradient0)" fill-rule="evenodd" stroke="none"/>
    <path d="M2.95 -3.4 L1.75 -3.2 Q-0.15 -3.2 -4.0 -4.8 -7.65 -6.35 -8.3 -7.2 -12.65 -13.15 -12.65 -17.1 -12.65 -20.6 -9.1 -23.0 -6.3 -24.9 -4.25 -24.9 7.85 -24.9 12.7 -17.75 15.25 -13.95 15.25 -9.6 15.25 -5.0 10.2 -4.9 L10.85 -3.55 11.2 -2.25 11.05 -0.85 Q11.7 -0.75 10.7 -0.75 L3.05 -4.35 2.95 -3.4 M25.3 1.95 Q25.3 2.8 24.85 3.4 24.4 3.95 23.8 3.95 23.2 3.95 22.75 3.4 22.3 2.8 22.3 1.95 22.3 1.1 22.75 0.55 23.2 -0.05 23.8 -0.05 24.4 -0.05 24.85 0.55 25.3 1.1 25.3 1.95 M14.1 6.1 Q13.2 9.25 10.65 10.75 L9.5 10.85 11.5 11.05 16.4 9.15 Q19.85 9.15 19.85 12.65 19.85 15.05 16.3 18.05 13.1 20.8 11.5 20.8 10.4 20.8 8.95 18.85 7.5 16.85 7.5 15.3 L9.3 11.05 9.35 10.85 5.8 11.3 4.75 10.9 Q3.75 10.15 3.0 9.75 L2.9 8.8 Q2.9 3.05 6.5 2.35 8.3 2.0 10.2 2.8 L12.1 1.8 Q14.15 0.8 15.0 0.8 L14.1 6.1 M0.85 4.3 L2.45 7.3 1.3 10.7 1.7 11.25 4.9 13.7 Q7.4 15.8 8.5 20.05 8.5 21.9 6.65 21.85 L3.6 21.4 Q3.05 21.4 1.7 22.5 L-0.4 24.05 -3.0 24.5 Q-5.6 24.5 -6.85 23.55 -7.75 22.9 -7.75 22.0 -7.75 21.4 -7.35 20.35 L-6.9 19.1 Q-10.75 18.4 -12.75 17.35 -16.4 15.4 -16.4 11.85 -16.4 8.0 -13.75 5.75 -11.35 3.7 -7.9 3.7 L-5.15 3.95 -2.35 4.35 0.45 5.45 0.85 4.3" fill="#ffff00" fill-rule="evenodd" stroke="none"/>
    <path d="M4.25 -22.0 L6.6 -20.65 8.5 -17.0 9.5 -14.85 Q9.5 -12.3 8.15 -10.85 6.75 -9.35 4.1 -9.35 1.35 -9.35 0.45 -11.05 -0.35 -12.6 0.75 -14.7 -1.15 -14.45 -2.35 -16.2 -3.3 -17.6 -3.3 -18.9 -3.3 -20.7 -1.7 -21.9 -0.35 -22.9 1.15 -22.9 L4.25 -22.0 M10.95 8.0 Q10.3 9.0 9.75 9.0 9.25 9.0 8.9 8.65 8.55 8.3 8.05 8.3 7.45 8.3 7.55 7.7 L7.75 6.3 Q7.75 4.95 9.65 5.25 11.55 5.6 11.55 6.6 11.55 7.1 10.95 8.0 M11.1 17.35 Q11.1 15.95 12.1 14.75 13.05 13.65 13.95 13.65 16.35 13.65 15.2 16.0 14.0 18.3 12.05 18.6 11.1 18.45 11.1 17.35 M-7.9 11.05 L-7.95 12.45 -8.05 12.75 Q-8.25 13.0 -8.6 13.05 -8.75 13.55 -8.75 12.55 L-8.5 11.55 -7.9 11.05 M-1.6 10.85 Q-0.4 11.4 -0.4 13.55 -0.4 15.3 -2.8 15.3 -4.6 15.3 -4.6 12.45 L-4.45 10.95 -1.6 10.85 M-2.25 17.15 L-0.6 17.05 -0.4 17.45 Q-0.25 17.85 -0.25 18.45 L-0.45 19.35 -1.05 19.95 -1.85 20.4 -3.15 18.75 Q-3.45 18.25 -3.1 17.4 L-2.25 17.15" fill="#ffffff" fill-rule="evenodd" stroke="none"/>
  </g>
  <defs>
    <linearGradient gradientTransform="matrix(-0.0254, -0.0254, 0.0218, -0.0218, -2.75, -0.75)" gradientUnits="userSpaceOnUse" id="gradient0" spreadMethod="pad" x1="-819.2" x2="819.2">
      <stop offset="0.0" stop-color="#ff0000"/>
      <stop offset="1.0" stop-color="#ff7900"/>
    </linearGradient>
  </defs>
</svg>
