<?xml version="1.0" encoding="UTF-8" standalone="no"?>
<svg xmlns:xlink="http://www.w3.org/1999/xlink" height="59.4px" width="55.3px" xmlns="http://www.w3.org/2000/svg">
  <g transform="matrix(1.0, 0.0, 0.0, 1.0, 29.4, 31.55)">
    <path d="M14.8 -26.45 Q17.9 -26.1 18.4 -23.0 18.7 -22.0 21.75 -16.9 23.6 -13.75 22.85 -10.25 23.25 -10.8 23.3 -13.25 L24.15 -14.1 Q24.7 -13.4 25.05 -12.1 L25.3 -10.45 24.45 -1.0 25.2 2.1 25.9 5.35 Q25.9 11.6 19.3 16.65 16.8 18.55 9.7 22.05 6.55 23.55 1.15 24.6 L-4.3 25.4 Q-8.4 25.4 -16.55 15.4 -25.25 4.8 -25.25 -2.55 -25.25 -4.95 -26.75 -9.5 L-25.3 -13.55 Q-25.3 -14.05 -25.85 -15.65 L-26.45 -17.8 Q-26.45 -18.85 -24.35 -20.05 L-19.5 -23.15 Q-17.55 -25.35 -15.5 -25.5 L-4.75 -26.35 5.25 -26.5 Q9.6 -26.35 14.8 -26.45" fill="#770000" fill-rule="evenodd" stroke="none"/>
    <path d="M13.6 -29.75 Q16.5 -28.35 19.8 -25.1 L19.75 -18.75 22.35 -20.5 24.5 -22.35 24.7 -22.9 Q25.3 -19.4 25.3 -17.7 25.3 -6.35 20.25 -1.4 16.95 1.85 12.45 1.85 L11.3 1.7 10.1 1.4 Q10.8 1.1 10.8 0.1 L10.4 -0.7 6.6 -4.5 4.7 -7.25 1.95 -11.0 Q-1.3 -14.6 -6.85 -15.85 L-16.8 -17.15 -19.5 -20.15 Q-16.75 -26.9 -15.25 -27.8 -14.55 -28.25 -13.35 -28.15 L-10.5 -27.95 Q-8.65 -27.95 -3.75 -29.75 1.15 -31.55 4.05 -31.55 9.7 -31.55 13.6 -29.75 M4.8 -3.4 Q5.35 -1.8 5.35 0.9 5.35 2.0 2.75 9.0 L3.25 11.15 3.75 13.25 Q3.75 18.8 -0.6 23.5 -4.9 28.15 -9.35 27.85 L-11.75 27.4 -18.1 19.9 -20.8 20.55 Q-21.9 20.55 -22.6 19.3 L-25.45 14.45 -28.1 10.9 Q-29.4 8.45 -29.4 4.2 L-28.75 0.65 Q-28.05 -2.2 -27.45 -3.15 -25.4 -6.45 -25.55 -6.85 L-26.25 -8.8 Q-26.25 -9.85 -25.05 -11.0 -23.5 -12.55 -21.1 -12.5 L-7.05 -13.25 Q-4.95 -13.25 1.9 -7.35 4.05 -5.5 4.8 -3.4 M23.45 12.65 Q22.5 14.25 19.15 14.55 L18.95 12.55 Q18.95 9.55 21.05 7.75 22.75 6.3 24.6 6.35 24.3 11.3 23.45 12.65 M23.0 0.2 L23.0 2.0 21.85 2.0 21.85 0.2 23.0 0.2 M17.6 6.0 Q16.8 8.6 16.75 9.2 L17.05 10.75 17.35 12.6 Q17.35 16.35 13.2 20.4 9.15 24.4 6.25 23.95 L4.95 23.7 4.3 22.95 Q5.4 21.6 5.65 16.25 L5.7 9.25 Q5.7 6.85 8.05 5.9 L18.45 3.0 17.6 6.0 M-22.8 -17.15 Q-23.55 -16.55 -24.55 -16.55 -25.55 -16.55 -26.25 -17.15 -27.0 -17.75 -27.0 -18.6 -27.0 -19.45 -26.25 -20.05 -25.55 -20.65 -24.55 -20.65 -23.55 -20.65 -22.8 -20.05 -22.1 -19.45 -22.1 -18.6 -22.1 -17.75 -22.8 -17.15" fill="url(#gradient0)" fill-rule="evenodd" stroke="none"/>
    <path d="M13.1 -27.75 Q17.15 -26.4 17.1 -23.95 L16.25 -21.2 Q16.25 -20.35 17.0 -18.95 17.8 -17.35 18.8 -16.75 L22.2 -15.8 Q23.45 -15.55 23.45 -13.25 23.45 -12.3 21.15 -8.15 18.85 -3.95 18.1 -3.95 12.85 -3.95 10.85 -5.55 L8.95 -8.1 Q8.1 -8.95 2.6 -11.0 1.1 -11.7 -4.7 -20.85 L-3.3 -22.6 0.55 -25.6 Q6.9 -29.5 13.1 -27.75 M23.85 11.1 Q23.25 12.05 21.25 12.05 20.95 12.05 19.3 9.55 L19.95 9.55 20.7 9.85 Q21.0 9.15 21.8 8.55 22.8 7.75 23.95 7.7 L24.15 9.55 Q24.15 10.7 23.85 11.1 M8.2 15.95 Q8.2 11.2 12.5 7.85 15.25 10.05 15.25 12.6 15.25 14.7 13.5 16.45 11.75 18.2 9.5 18.2 8.2 16.85 8.2 15.95 M-16.25 -7.75 Q-12.65 -9.4 -4.6 -9.4 L-3.75 -9.05 Q-3.15 -8.65 -3.15 -8.15 -3.15 -7.8 -4.7 -5.1 L-2.85 -3.9 -3.7 -2.3 -3.8 -1.3 Q-3.8 -0.8 -5.0 -0.15 -6.2 0.5 -6.2 1.65 -6.2 2.45 -4.8 2.8 -2.15 3.4 -1.0 3.9 -1.05 4.7 -2.45 7.15 -3.8 9.5 -4.3 9.85 L-2.8 11.75 Q-2.25 12.6 -2.25 12.9 -2.25 13.3 -3.15 13.85 L-4.5 15.05 Q-5.15 16.25 -5.75 18.55 -6.1 19.95 -6.75 19.95 -8.0 19.95 -8.2 19.45 L-8.4 18.3 -10.55 18.35 -13.2 18.5 -15.6 17.65 Q-17.75 16.55 -18.55 15.3 L-19.95 13.35 -21.25 11.4 -24.3 7.65 Q-26.35 5.2 -26.35 2.6 -26.35 -0.35 -23.65 -2.15 -20.6 -3.65 -19.95 -4.35 -18.15 -6.85 -16.25 -7.75" fill="#ffff00" fill-rule="evenodd" stroke="none"/>
    <path d="M16.75 -14.5 Q18.15 -14.5 18.15 -12.35 18.15 -10.2 17.35 -9.1 16.75 -8.25 15.85 -8.25 14.75 -8.25 14.3 -9.1 13.95 -9.8 13.95 -11.4 13.95 -12.9 14.95 -13.8 15.75 -14.5 16.75 -14.5 M3.95 -23.05 Q5.15 -24.3 6.7 -24.3 8.25 -24.3 9.45 -23.2 10.65 -22.1 10.65 -20.7 10.65 -18.2 8.15 -16.95 6.6 -16.15 5.05 -16.15 4.1 -16.15 3.45 -16.8 2.65 -17.65 2.65 -19.4 2.65 -21.65 3.95 -23.05 M21.7 10.1 Q21.7 9.7 22.05 9.45 22.35 9.15 22.8 9.15 23.25 9.15 23.6 9.45 L23.9 10.1 23.6 10.8 22.8 11.05 22.05 10.8 Q21.7 10.5 21.7 10.1 M11.1 12.6 Q11.5 11.6 12.3 11.0 13.85 11.95 13.85 12.7 L13.3 13.65 Q12.7 14.65 12.7 15.4 L11.6 14.9 Q10.8 14.45 10.8 13.65 10.8 13.25 11.1 12.6 M-9.05 -3.85 Q-8.35 -2.25 -8.35 -1.4 -8.35 0.75 -8.9 1.4 L-10.8 3.15 Q-9.6 3.85 -8.95 4.85 -8.35 5.7 -8.35 6.5 -8.35 8.35 -9.85 10.35 -11.55 12.6 -13.75 12.6 -17.25 12.6 -17.25 8.15 L-16.8 6.8 -15.5 4.85 Q-18.0 2.75 -18.0 1.0 -18.0 -1.2 -15.9 -3.5 -13.7 -5.9 -11.2 -5.9 -10.0 -5.9 -9.05 -3.85" fill="#ffffff" fill-rule="evenodd" stroke="none"/>
  </g>
  <defs>
    <linearGradient gradientTransform="matrix(-0.0132, -0.023, 0.0188, -0.0108, -10.8, 4.85)" gradientUnits="userSpaceOnUse" id="gradient0" spreadMethod="pad" x1="-819.2" x2="819.2">
      <stop offset="0.0" stop-color="#ff0000"/>
      <stop offset="1.0" stop-color="#ff7900"/>
    </linearGradient>
  </defs>
</svg>
