<?xml version="1.0" encoding="UTF-8" standalone="no"?>
<svg xmlns:xlink="http://www.w3.org/1999/xlink" height="90.25px" width="110.15px" xmlns="http://www.w3.org/2000/svg">
  <g transform="matrix(1.0, 0.0, 0.0, 1.0, 55.8, 55.55)">
    <path d="M-14.45 25.85 Q-15.25 26.5 -17.35 27.4 -19.45 28.35 -20.2 28.35 -23.05 28.35 -24.4 27.75 L-26.0 26.4 Q-24.25 25.25 -23.5 22.05 L-23.1 18.95 Q-23.1 18.35 -23.45 18.15 L-24.15 17.9 -29.7 21.45 Q-30.5 13.8 -25.95 9.4 -23.3 6.8 -20.0 6.0 -17.7 5.4 -16.5 3.2 -15.65 1.7 -15.65 0.4 -15.65 -0.45 -16.35 -2.35 -17.3 -2.15 -19.3 -0.7 -21.35 0.7 -21.7 1.5 -20.0 1.15 -20.0 2.15 -20.0 5.85 -21.3 5.85 L-26.6 6.35 Q-28.45 7.05 -31.85 8.95 -31.95 8.3 -33.35 6.7 L-35.05 7.9 -35.35 7.1 Q-45.35 -16.65 -55.8 -25.35 L-52.0 -22.9 Q-46.85 -20.1 -41.2 -20.1 -38.4 -20.1 -34.7 -21.75 L-31.4 -23.4 -29.85 -22.5 -28.15 -21.4 -27.35 -20.8 -21.95 -18.7 Q-17.6 -23.65 -14.8 -30.15 -11.1 -38.9 -11.1 -48.85 -11.1 -51.05 -11.6 -55.55 -9.2 -46.4 -3.75 -37.05 1.2 -29.6 1.2 -29.35 1.2 -28.75 0.6 -27.9 L-0.05 -26.95 Q-0.05 -25.8 0.55 -24.9 L0.8 -25.45 1.6 -25.7 3.5 -24.5 Q5.45 -23.35 6.7 -23.35 L8.2 -23.65 9.7 -24.9 Q10.3 -25.5 10.9 -25.7 L12.25 -25.9 Q12.85 -26.25 14.3 -28.5 16.1 -30.5 18.55 -30.5 18.5 -28.6 19.2 -25.5 20.05 -21.9 21.15 -21.05 24.05 -18.85 29.35 -17.5 34.15 -16.25 38.3 -16.25 40.55 -16.25 46.0 -17.7 51.65 -19.25 54.35 -20.7 46.45 -10.15 39.6 -5.1 L36.4 -2.75 Q35.45 -1.8 35.45 -0.15 35.45 1.1 36.6 2.35 37.45 3.3 39.7 4.85 L36.7 11.4 Q35.85 13.1 35.85 14.1 35.85 14.6 36.35 15.65 L36.85 17.2 Q36.85 19.2 36.5 19.6 L34.9 19.75 Q29.65 18.85 24.3 19.95 25.4 17.45 26.65 7.85 L26.15 5.95 Q25.65 4.55 25.65 4.05 25.65 3.45 26.05 3.35 L26.65 3.15 28.8 1.4 Q30.4 0.1 30.65 -0.9 L30.8 -2.05 Q30.9 -3.0 31.15 -3.35 L31.95 -4.1 Q32.25 -4.25 32.25 -4.9 L32.1 -5.9 31.65 -6.5 32.2 -6.9 Q36.8 -6.45 38.4 -7.6 39.35 -8.25 39.35 -9.85 39.35 -10.9 38.35 -12.0 37.35 -13.05 36.55 -13.05 35.65 -13.05 34.7 -11.6 L33.5 -10.2 31.4 -10.3 Q29.6 -9.85 29.65 -7.1 28.1 -7.85 25.95 -7.1 23.7 -6.3 22.75 -4.5 L19.45 -5.95 Q18.35 -6.55 17.05 -6.95 16.5 -7.1 16.5 -7.65 L15.6 -7.95 Q14.65 -8.2 14.65 -8.85 14.65 -10.6 16.9 -12.6 L19.2 -14.35 19.1 -14.8 Q16.65 -16.15 16.85 -18.6 17.05 -20.45 15.05 -20.45 14.1 -21.55 12.35 -21.55 11.5 -21.55 10.7 -21.05 9.15 -20.05 9.15 -17.45 9.15 -16.5 9.6 -15.6 L4.4 -17.05 Q0.05 -18.25 0.05 -20.45 0.05 -21.45 0.5 -21.65 -1.6 -21.3 -1.95 -22.65 -2.7 -25.4 -3.0 -25.8 L-5.3 -29.6 Q-7.7 -33.4 -9.2 -35.25 -9.55 -34.4 -9.65 -34.4 L-9.85 -27.7 Q-10.15 -23.95 -11.55 -21.55 -13.35 -18.45 -17.55 -14.9 L-26.15 -15.7 Q-27.4 -15.8 -28.1 -16.7 -28.65 -17.5 -28.45 -18.3 -29.1 -17.85 -30.45 -17.7 -31.8 -17.6 -32.5 -17.15 -33.75 -16.3 -36.55 -15.25 -39.3 -14.2 -40.1 -14.2 L-42.55 -14.55 -41.2 -13.6 Q-38.8 -12.1 -36.15 -6.4 -33.75 -1.3 -32.2 -1.05 -32.65 -0.3 -32.5 0.05 L-31.7 1.05 -30.9 2.65 Q-30.1 3.4 -26.8 3.4 -25.3 3.4 -24.05 2.7 -22.75 1.95 -22.75 0.9 L-23.0 -2.8 Q-20.7 -2.55 -19.75 -4.2 -18.8 -6.0 -16.4 -6.0 -15.55 -6.0 -13.7 -4.2 -11.45 -1.95 -11.45 0.7 L-11.85 2.0 -12.3 3.25 -11.05 4.75 -9.85 6.45 Q-9.85 7.1 -11.35 8.1 L-14.6 10.15 Q-19.35 13.35 -19.35 17.25 -19.35 18.7 -17.7 20.2 -15.9 21.85 -13.5 21.95 -14.0 22.6 -14.25 24.05 L-14.45 25.85" fill="#333333" fill-rule="evenodd" stroke="none"/>
    <path d="M-14.45 25.85 L-14.25 24.05 Q-14.0 22.6 -13.5 21.95 -15.9 21.85 -17.7 20.2 -19.35 18.7 -19.35 17.25 -19.35 13.35 -14.6 10.15 L-11.35 8.1 Q-9.85 7.1 -9.85 6.45 L-11.05 4.75 -12.3 3.25 -11.85 2.0 -11.45 0.7 Q-11.45 -1.95 -13.7 -4.2 -15.55 -6.0 -16.4 -6.0 -18.8 -6.0 -19.75 -4.2 -20.7 -2.55 -23.0 -2.8 L-22.75 0.9 Q-22.75 1.95 -24.05 2.7 -25.3 3.4 -26.8 3.4 -30.1 3.4 -30.9 2.65 L-31.7 1.05 -32.5 0.05 Q-32.65 -0.3 -32.2 -1.05 -33.75 -1.3 -36.15 -6.4 -38.8 -12.1 -41.2 -13.6 L-42.55 -14.55 -40.1 -14.2 Q-39.3 -14.2 -36.55 -15.25 -33.75 -16.3 -32.5 -17.15 -31.8 -17.6 -30.45 -17.7 -29.1 -17.85 -28.45 -18.3 -28.65 -17.5 -28.1 -16.7 -27.4 -15.8 -26.15 -15.7 L-17.55 -14.9 Q-13.35 -18.45 -11.55 -21.55 -10.15 -23.95 -9.85 -27.7 L-9.65 -34.4 Q-9.55 -34.4 -9.2 -35.25 -7.7 -33.4 -5.3 -29.6 L-3.0 -25.8 Q-2.7 -25.4 -1.95 -22.65 -1.6 -21.3 0.5 -21.65 0.05 -21.45 0.05 -20.45 0.05 -18.25 4.4 -17.05 L9.6 -15.6 Q9.15 -16.5 9.15 -17.45 9.15 -20.05 10.7 -21.05 11.5 -21.55 12.35 -21.55 14.1 -21.55 15.05 -20.45 17.05 -20.45 16.85 -18.6 16.65 -16.15 19.1 -14.8 L19.2 -14.35 16.9 -12.6 Q14.65 -10.6 14.65 -8.85 14.65 -8.2 15.6 -7.95 L16.5 -7.65 Q16.5 -7.1 17.05 -6.95 18.35 -6.55 19.45 -5.95 L22.75 -4.5 Q23.7 -6.3 25.95 -7.1 28.1 -7.85 29.65 -7.1 29.6 -9.85 31.4 -10.3 L33.5 -10.2 34.7 -11.6 Q35.65 -13.05 36.55 -13.05 37.35 -13.05 38.35 -12.0 39.35 -10.9 39.35 -9.85 39.35 -8.25 38.4 -7.6 36.8 -6.45 32.2 -6.9 L31.65 -6.5 32.1 -5.9 32.25 -4.9 Q32.25 -4.25 31.95 -4.1 L31.15 -3.35 Q30.9 -3.0 30.8 -2.05 L30.65 -0.9 Q30.4 0.1 28.8 1.4 L26.65 3.15 26.05 3.35 Q25.65 3.45 25.65 4.05 25.65 4.55 26.15 5.95 L26.65 7.85 Q25.4 17.45 24.3 19.95 19.8 20.85 18.75 21.95 18.55 22.2 18.55 23.2 18.55 24.2 16.85 24.1 L12.75 23.8 9.5 24.25 Q6.5 24.95 5.75 26.5 L5.3 27.25 4.35 29.05 3.55 29.95 Q2.25 30.9 -0.55 31.4 L-0.45 32.5 Q-0.45 34.7 -2.8 34.7 -3.2 34.7 -3.8 33.35 -4.9 30.9 -6.95 28.05 -7.55 27.15 -10.0 26.35 -12.6 25.45 -14.45 25.85" fill="#1f1f1f" fill-rule="evenodd" stroke="none"/>
  </g>
</svg>
