<?xml version="1.0" encoding="UTF-8" standalone="no"?>
<svg xmlns:xlink="http://www.w3.org/1999/xlink" height="59.25px" width="59.0px" xmlns="http://www.w3.org/2000/svg">
  <g transform="matrix(1.0, 0.0, 0.0, 1.0, 30.3, 31.95)">
    <path d="M7.3 -28.7 L11.85 -28.15 Q14.5 -27.75 15.7 -26.05 17.25 -23.9 18.7 -20.2 20.6 -15.4 21.25 -14.1 22.35 -11.95 25.0 -9.4 27.0 -7.45 27.0 -6.05 27.0 -3.0 25.75 -1.15 L23.2 2.85 Q22.8 3.7 21.65 8.55 20.85 12.15 18.15 15.8 12.55 23.45 8.3 25.2 4.95 26.55 -5.9 26.55 -9.5 26.55 -11.85 20.65 -12.5 19.0 -14.15 12.3 -16.55 2.85 -17.65 -3.2 -19.25 -12.15 -19.25 -19.45 -19.25 -20.7 -14.8 -29.25 -12.3 -28.15 -10.55 -28.15 -10.05 -28.15 -7.4 -29.55 -4.8 -30.95 -3.15 -30.95 -0.25 -30.95 3.05 -30.05 L7.3 -28.7" fill="#770000" fill-rule="evenodd" stroke="none"/>
    <path d="M14.6 -27.15 Q14.7 -25.75 16.4 -24.9 L25.65 -24.8 23.75 -23.15 26.6 -22.3 24.9 -20.05 27.15 -18.85 25.85 -14.5 Q25.85 -12.3 27.3 -10.35 28.7 -8.45 28.7 -7.4 L28.3 -6.65 26.9 -5.25 24.25 -3.5 21.3 -1.3 23.1 7.65 19.65 8.4 Q14.8 8.4 11.45 2.95 8.8 -1.35 8.8 -4.5 L9.4 -7.45 Q10.1 -10.4 10.6 -11.3 L6.2 -17.0 4.25 -16.75 Q2.55 -16.75 -0.65 -18.1 -4.3 -19.65 -4.3 -21.2 L-3.95 -23.6 -3.6 -25.7 -3.9 -27.1 -4.2 -29.0 Q-4.2 -30.05 -2.25 -30.6 L4.2 -31.9 Q5.55 -32.15 7.3 -31.3 L9.9 -29.8 Q11.4 -29.3 14.9 -28.95 14.6 -27.9 14.6 -27.15 M4.9 -2.85 Q5.3 1.7 5.3 7.2 5.3 9.05 5.75 12.4 L5.6 12.8 Q5.6 13.15 6.2 13.15 L6.7 13.25 Q6.45 13.65 6.45 14.05 6.45 14.7 6.2 14.75 L5.2 14.7 4.55 16.65 3.6 19.05 2.55 20.25 1.2 21.4 Q-10.85 27.3 -12.2 27.3 -12.9 27.3 -15.15 25.85 L-18.8 23.3 -21.55 20.75 -24.05 18.1 Q-26.25 15.9 -28.05 11.25 -29.8 6.7 -29.8 3.5 L-29.2 1.45 Q-28.65 -0.45 -28.65 -1.75 -28.65 -2.25 -29.4 -3.35 -30.1 -4.5 -30.15 -5.15 L-30.3 -7.4 Q-30.3 -14.85 -23.8 -21.95 -17.8 -28.5 -13.1 -28.5 L-12.5 -28.25 -12.6 -27.7 Q-12.25 -25.5 -6.9 -17.45 -0.6 -17.0 2.0 -12.5 3.35 -10.2 4.9 -2.85 M21.25 13.0 Q21.25 16.75 15.65 21.7 10.35 26.4 7.35 26.4 6.95 26.4 6.3 24.9 5.65 23.5 5.65 22.95 5.65 19.8 7.05 14.2 7.55 12.1 8.65 11.05 9.95 9.75 13.2 8.7 L16.95 11.0 21.15 10.9 21.25 13.0" fill="url(#gradient0)" fill-rule="evenodd" stroke="none"/>
    <path d="M10.05 -25.8 Q11.9 -25.8 12.8 -24.5 14.65 -21.95 18.35 -19.35 21.0 -17.55 21.65 -16.75 23.6 -14.45 23.6 -10.45 L22.25 -8.35 Q20.9 -5.85 20.75 -3.2 20.55 0.35 18.9 2.4 17.75 3.85 16.95 3.85 11.4 3.85 11.4 -0.65 11.4 -1.15 12.25 -3.9 13.1 -6.65 13.1 -8.75 13.1 -11.3 11.0 -15.2 9.1 -18.85 7.75 -19.6 5.65 -20.85 2.8 -21.85 1.6 -22.25 1.6 -23.4 1.6 -24.35 3.95 -25.05 6.45 -25.8 10.05 -25.8 M8.95 22.2 Q8.65 21.1 8.65 20.1 8.65 16.85 11.0 14.9 12.7 13.5 13.95 13.5 15.6 13.5 16.4 14.65 17.0 15.5 17.0 16.6 17.0 19.1 13.75 21.1 12.1 22.05 10.35 22.55 L9.6 22.5 8.95 22.2 M-24.5 -6.8 Q-23.8 -10.5 -22.85 -12.2 -20.5 -16.65 -15.55 -16.65 L-12.2 -16.2 Q-9.25 -15.55 -8.3 -14.55 L-7.75 -13.1 -7.15 -11.4 Q-6.5 -10.35 -6.05 -10.25 L-5.15 -9.85 Q-4.45 -9.25 -4.45 -7.4 -4.45 -4.6 -7.15 -4.15 -9.9 -3.7 -9.9 -2.05 -9.9 0.0 -6.35 0.6 -2.85 1.25 -2.85 3.55 -2.85 5.55 -4.85 8.2 L-6.9 10.45 -6.75 11.15 -6.4 11.4 -5.75 11.8 Q-5.15 12.35 -5.15 12.95 -5.15 13.35 -8.35 15.8 -11.45 18.2 -11.65 18.2 -12.8 18.2 -15.25 16.95 L-18.9 14.7 -19.7 13.3 Q-20.3 11.9 -20.6 11.45 L-24.8 7.65 Q-27.0 5.7 -27.0 1.45 -27.0 -1.7 -26.0 -3.65 L-24.5 -6.8" fill="#ffff00" fill-rule="evenodd" stroke="none"/>
    <path d="M14.55 -15.25 Q14.2 -16.85 15.6 -17.15 17.75 -16.55 18.1 -15.4 17.7 -14.75 16.7 -14.15 15.6 -13.55 14.65 -13.55 L14.55 -15.25 M17.4 -10.3 Q19.25 -10.3 19.25 -7.3 19.25 -5.9 18.35 -4.3 17.0 -1.85 14.45 -2.9 13.9 -10.3 17.4 -10.3 M13.25 19.05 L12.3 19.5 10.45 19.35 10.35 18.65 Q11.3 16.45 12.85 16.45 L14.3 16.6 14.3 18.15 13.25 19.05 M-12.95 -13.55 Q-9.1 -10.85 -8.45 -8.75 -8.45 -7.5 -9.75 -6.4 -11.0 -5.35 -12.25 -5.35 -13.45 -5.35 -15.9 -6.8 -18.65 -8.4 -18.65 -9.75 -18.65 -11.05 -16.8 -12.55 -14.75 -14.2 -12.95 -13.55 M-10.3 3.85 Q-10.3 6.1 -11.85 7.2 -13.15 8.15 -15.2 8.15 -17.45 8.15 -18.7 5.65 -19.55 3.95 -19.55 2.55 -19.55 -1.05 -14.95 -1.05 -12.3 -1.05 -11.1 0.8 -10.3 2.1 -10.3 3.85" fill="#ffffff" fill-rule="evenodd" stroke="none"/>
  </g>
  <defs>
    <linearGradient gradientTransform="matrix(-0.0254, -0.0254, 0.0283, -0.0283, -0.05, -4.15)" gradientUnits="userSpaceOnUse" id="gradient0" spreadMethod="pad" x1="-819.2" x2="819.2">
      <stop offset="0.0" stop-color="#ff0000"/>
      <stop offset="1.0" stop-color="#ff7900"/>
    </linearGradient>
  </defs>
</svg>
