<?xml version="1.0" encoding="UTF-8" standalone="no"?>
<svg xmlns:xlink="http://www.w3.org/1999/xlink" height="90.15px" width="110.25px" xmlns="http://www.w3.org/2000/svg">
  <g transform="matrix(1.0, 0.0, 0.0, 1.0, 54.6, 59.4)">
    <path d="M14.7 -28.8 L14.7 -28.65 14.65 -29.3 19.85 -34.65 Q20.35 -34.0 20.35 -33.0 20.35 -31.4 18.9 -27.6 15.55 -28.95 14.7 -28.8 M15.05 -17.7 Q12.9 -17.25 12.25 -15.9 11.55 -14.7 11.5 -12.85 L11.35 -9.7 11.15 -9.2 Q10.7 -8.5 10.0 -6.8 L8.85 -5.9 6.95 -5.05 Q7.5 -4.85 6.5 -4.85 5.85 -4.85 4.95 -6.05 4.0 -7.25 3.3 -7.25 -1.35 -7.25 -3.6 -4.0 -4.95 -2.05 -4.95 -0.5 -4.95 0.2 -4.35 1.05 -3.8 1.9 -3.8 2.1 L-4.95 3.0 Q-6.15 4.05 -6.4 5.3 L-6.35 6.7 Q-6.35 7.5 -8.5 8.7 L-15.8 13.0 Q-14.55 13.65 -12.95 13.6 -13.6 14.4 -13.6 15.35 L-13.3 17.35 -12.85 18.7 -7.65 16.9 Q-7.0 16.3 -4.5 14.85 -3.55 14.3 -3.4 12.9 -3.2 11.25 -2.0 10.2 -1.6 9.8 0.5 9.45 L6.6 9.0 Q7.2 9.0 7.8 10.15 8.4 11.35 8.4 12.55 8.4 14.1 6.3 16.45 4.3 18.7 3.35 18.7 L2.25 18.35 1.1 17.95 Q-1.65 17.95 -2.8 20.0 -3.5 21.25 -3.5 23.1 -3.5 24.0 -2.8 24.75 -2.05 25.55 -1.0 25.55 3.4 25.55 4.45 21.7 5.6 17.25 8.55 16.45 L10.55 15.8 14.65 13.85 17.2 13.5 22.35 13.0 24.65 12.3 Q26.85 11.55 27.95 11.35 L28.2 11.6 Q27.35 12.3 26.6 12.45 L25.85 12.6 Q25.55 12.9 25.1 18.45 L25.1 18.5 25.4 18.6 26.4 18.7 Q29.6 18.7 31.4 16.75 33.3 14.7 33.3 10.75 L32.85 6.6 Q32.75 5.3 30.35 1.25 30.35 -2.5 32.9 -4.85 L38.35 -9.95 39.1 -11.1 34.3 -10.7 Q33.15 -10.25 31.9 -8.55 L26.45 -7.75 25.75 -7.45 24.6 -7.2 Q22.8 -7.2 21.4 -12.55 20.0 -17.9 17.25 -17.9 L15.05 -17.7 M3.85 -13.3 Q6.7 -12.05 7.1 -10.8 7.05 -9.5 7.4 -8.8 L7.8 -8.1 8.7 -8.45 8.95 -9.1 7.2 -18.6 10.1 -21.35 15.95 -26.65 Q18.35 -20.6 19.5 -19.15 19.9 -18.6 21.4 -18.1 L22.95 -17.55 24.75 -13.65 Q26.1 -10.4 27.1 -10.4 30.65 -10.4 32.8 -11.75 34.6 -12.9 34.8 -14.4 L35.55 -14.25 37.0 -14.15 47.3 -16.15 48.1 -16.0 48.45 -15.65 46.9 -13.5 47.85 -12.55 Q41.05 -9.8 37.3 -6.45 33.5 -3.1 33.5 0.15 33.5 1.7 34.55 2.1 35.35 2.35 34.95 3.3 L36.0 3.9 37.25 4.45 36.5 5.8 36.1 6.7 37.55 9.4 36.85 11.55 35.65 13.9 34.3 16.4 Q33.15 18.05 30.05 18.85 L23.7 20.5 20.1 20.95 19.45 20.6 18.7 19.3 22.55 16.2 22.5 15.6 22.0 15.5 Q20.65 15.6 15.5 17.35 10.5 19.1 10.0 19.5 9.6 19.8 8.4 22.65 L7.05 25.6 Q6.5 26.05 1.0 28.05 L-6.25 30.75 -6.65 30.65 -5.15 28.25 Q-4.7 27.4 -4.7 25.9 -4.7 25.35 -5.3 24.3 L-5.9 23.25 Q-5.9 19.4 -2.95 17.0 -0.7 15.2 1.15 15.2 L3.05 15.45 4.05 16.45 4.7 14.75 5.05 12.75 4.55 11.7 Q3.95 10.85 3.35 10.85 2.4 10.85 0.9 11.65 -0.6 12.5 -0.6 13.0 L-0.3 14.1 0.15 14.75 Q-2.5 15.2 -4.95 17.7 L-8.5 21.9 -9.25 22.2 -10.75 22.6 Q-11.7 22.9 -12.95 24.2 -13.95 25.25 -15.6 25.25 -18.1 25.25 -18.8 24.35 L-19.1 23.1 Q-19.1 22.4 -17.05 20.9 -15.05 19.4 -15.05 18.75 -15.05 17.2 -15.85 15.9 -16.5 14.9 -16.8 14.9 -17.6 14.9 -19.6 15.85 L-22.4 17.25 Q-23.45 17.75 -26.45 18.25 L-26.55 17.7 -25.75 16.35 -25.3 15.3 -25.9 14.15 Q-26.55 13.2 -26.55 12.2 -26.55 11.2 -25.3 10.8 L-21.75 10.5 Q-15.65 10.5 -13.45 9.1 L-10.75 6.2 Q-9.1 4.65 -5.7 -6.0 -5.7 -6.35 -6.15 -6.75 -6.5 -7.1 -6.05 -9.3 L-6.25 -10.7 -8.9 -10.7 Q-14.0 -8.75 -15.25 -6.95 L-10.9 -6.35 Q-10.65 -5.75 -11.2 -3.1 L-10.15 -2.95 Q-9.15 -2.5 -9.15 -1.0 -9.15 3.95 -13.7 6.8 -16.8 8.7 -18.7 8.7 -20.0 8.7 -21.55 7.0 -23.05 5.3 -24.85 5.3 -26.75 5.3 -28.75 6.2 -31.5 7.45 -33.35 10.05 -33.8 9.65 -34.7 5.25 -35.6 0.9 -35.6 -0.7 L-32.9 -5.15 Q-32.9 -6.05 -33.95 -8.05 L-35.9 -11.8 Q-35.55 -12.85 -35.25 -12.2 L-34.6 -11.0 Q-33.8 -10.65 -32.65 -10.65 -30.75 -10.65 -29.45 -12.0 L-27.9 -13.95 -25.65 -12.8 -23.55 -11.95 Q-22.05 -11.95 -19.1 -16.85 -16.35 -21.45 -16.35 -22.6 -16.35 -23.2 -16.5 -23.3 L-16.9 -23.65 -17.6 -24.45 Q-18.35 -25.4 -18.35 -26.05 L-17.75 -28.5 -17.05 -31.05 -16.95 -32.35 -16.55 -32.95 Q-16.25 -32.8 -15.85 -31.95 -15.5 -31.2 -14.95 -31.2 -14.05 -31.2 -12.7 -32.0 -10.25 -33.5 -7.45 -37.25 L-7.1 -36.75 Q-6.95 -36.55 -6.95 -35.9 -6.95 -34.2 -7.55 -32.5 -8.25 -30.4 -9.5 -29.8 -6.05 -26.7 -4.55 -25.05 -1.95 -22.2 -1.45 -19.05 -1.25 -17.85 0.45 -15.95 2.2 -14.05 3.85 -13.3 M3.0 -19.45 Q1.0 -19.45 -0.25 -20.9 -1.45 -22.35 -1.45 -24.55 L-0.35 -25.55 2.1 -26.8 Q5.6 -27.9 5.6 -23.4 5.6 -19.45 3.0 -19.45 M30.45 -12.65 Q29.8 -12.1 28.9 -12.1 28.0 -12.1 27.4 -12.65 26.75 -13.2 26.75 -13.95 26.75 -14.7 27.4 -15.25 28.0 -15.8 28.9 -15.8 29.8 -15.8 30.45 -15.25 31.05 -14.7 31.05 -13.95 31.05 -13.2 30.45 -12.65 M51.6 -14.95 L50.05 -15.15 49.45 -17.0 51.8 -17.6 55.65 -18.55 Q54.45 -14.95 51.6 -14.95 M-8.55 -50.9 L-6.4 -45.1 Q-5.95 -44.15 -4.7 -42.7 -3.75 -41.55 -3.75 -40.75 L-4.2 -40.35 -4.9 -39.7 -3.05 -38.1 -2.3 -37.05 -3.0 -33.4 Q-3.6 -30.65 -3.15 -28.95 L-3.2 -28.9 Q-4.75 -29.15 -4.4 -32.1 -4.05 -35.65 -5.15 -36.85 -6.4 -38.25 -8.0 -38.25 L-11.15 -38.05 -12.15 -38.1 -12.35 -39.0 -11.2 -44.0 -10.85 -47.9 -10.65 -53.25 -11.0 -57.15 Q-11.3 -59.4 -10.0 -59.4 -10.4 -56.6 -8.55 -50.9 M-51.95 -25.55 Q-51.5 -25.1 -51.5 -24.45 -51.5 -23.8 -51.95 -23.35 -52.4 -22.9 -53.05 -22.9 -53.7 -22.9 -54.15 -23.35 -54.6 -23.8 -54.6 -24.45 -54.6 -25.1 -54.15 -25.55 -53.7 -26.0 -53.05 -26.0 -52.4 -26.0 -51.95 -25.55 M-43.65 -16.65 L-44.4 -16.6 Q-44.15 -14.1 -42.1 -11.0 -41.5 -10.15 -41.6 -9.9 L-41.85 -7.65 Q-41.85 -6.55 -41.25 -5.6 -40.7 -4.75 -40.2 -4.75 L-38.85 -4.8 Q-38.25 -5.0 -38.25 -5.65 L-38.35 -9.15 -42.05 -13.9 -43.65 -16.65 M-47.9 -18.8 L-50.4 -22.2 -50.2 -22.1 Q-39.75 -16.75 -38.95 -16.1 -38.5 -15.8 -38.8 -15.2 L-39.25 -13.15 Q-39.25 -12.5 -37.5 -10.8 -35.75 -9.05 -35.75 -8.75 -35.75 -5.0 -37.95 -2.9 -40.3 -2.9 -41.55 -5.55 L-44.55 -13.2 Q-45.9 -16.2 -47.9 -18.8 M-8.85 -43.5 Q-10.15 -43.0 -10.2 -41.3 L-8.95 -40.5 -8.1 -40.15 Q-7.85 -40.15 -6.85 -42.4 L-7.35 -43.65 -8.85 -43.5 M-13.35 -27.2 Q-14.8 -26.2 -14.8 -24.65 -14.8 -20.85 -13.4 -18.9 L-10.95 -16.15 -10.15 -14.55 -9.4 -13.05 -7.55 -12.95 -6.2 -13.1 -4.4 -11.7 -2.6 -10.3 Q-1.65 -10.3 -1.3 -12.65 -1.3 -14.55 -3.2 -17.3 -4.75 -19.5 -6.05 -20.55 -7.05 -21.3 -8.0 -23.0 -9.25 -25.2 -9.05 -27.05 L-9.2 -27.9 -9.55 -28.0 -10.5 -28.1 Q-12.05 -28.1 -13.35 -27.2 M-28.35 -20.4 L-31.0 -20.65 -31.3 -21.95 Q-31.45 -22.35 -32.2 -22.35 -33.4 -22.35 -34.15 -21.35 -34.85 -20.45 -34.85 -19.15 -34.85 -18.1 -34.45 -17.15 -34.0 -16.05 -33.2 -16.05 -31.95 -16.05 -30.2 -17.85 -28.7 -19.35 -28.35 -20.4 M-26.0 -19.1 L-26.05 -17.7 -26.75 -17.85 Q-28.55 -17.4 -29.8 -15.4 -31.0 -13.55 -31.35 -13.55 -33.1 -13.55 -34.9 -15.25 -36.95 -17.25 -36.95 -20.0 -36.95 -23.9 -36.15 -24.75 -35.75 -25.25 -33.7 -25.25 -32.6 -25.25 -31.75 -24.75 -30.4 -24.0 -30.85 -22.35 -30.6 -22.75 -29.6 -22.75 -26.0 -22.75 -26.0 -19.1 M-31.0 -8.9 L-31.55 -8.55 -31.3 -6.6 -31.0 -4.3 -31.8 -0.25 -32.8 4.35 -32.5 4.95 Q-31.45 2.3 -28.45 2.3 -24.0 2.3 -21.4 4.65 -18.75 7.0 -17.5 7.0 -15.35 7.0 -13.55 5.2 -11.95 3.55 -11.95 2.15 -11.95 1.75 -14.5 -2.5 L-17.1 -6.8 Q-17.1 -8.95 -16.35 -10.5 -15.6 -12.05 -13.2 -14.85 -17.75 -13.95 -20.45 -11.8 -21.85 -10.7 -30.45 -11.2 L-30.45 -9.65 Q-30.45 -9.1 -31.0 -8.9" fill="#333333" fill-rule="evenodd" stroke="none"/>
    <path d="M15.05 -17.7 L17.25 -17.9 Q20.0 -17.9 21.4 -12.55 22.8 -7.2 24.6 -7.2 L25.75 -7.45 26.45 -7.75 31.9 -8.55 Q33.15 -10.25 34.3 -10.7 L39.1 -11.1 38.35 -9.95 32.9 -4.85 Q30.35 -2.5 30.35 1.25 32.75 5.3 32.85 6.6 L33.3 10.75 Q33.3 14.7 31.4 16.75 29.6 18.7 26.4 18.7 L25.4 18.6 25.1 18.5 25.1 18.45 Q25.55 12.9 25.85 12.6 L26.6 12.45 Q27.35 12.3 28.2 11.6 L27.95 11.35 Q26.85 11.55 24.65 12.3 L22.35 13.0 17.2 13.5 14.65 13.85 10.55 15.8 8.55 16.45 Q5.6 17.25 4.45 21.7 3.4 25.55 -1.0 25.55 -2.05 25.55 -2.8 24.75 -3.5 24.0 -3.5 23.1 -3.5 21.25 -2.8 20.0 -1.65 17.95 1.1 17.95 L2.25 18.35 3.35 18.7 Q4.3 18.7 6.3 16.45 8.4 14.1 8.4 12.55 8.4 11.35 7.8 10.15 7.2 9.0 6.6 9.0 L0.5 9.45 Q-1.6 9.8 -2.0 10.2 -3.2 11.25 -3.4 12.9 -3.55 14.3 -4.5 14.85 -7.0 16.3 -7.65 16.9 L-12.85 18.7 -13.3 17.35 -13.6 15.35 Q-13.6 14.4 -12.95 13.6 -14.55 13.65 -15.8 13.0 L-8.5 8.7 Q-6.35 7.5 -6.35 6.7 L-6.4 5.3 Q-6.15 4.05 -4.95 3.0 L-3.8 2.1 Q-3.8 1.9 -4.35 1.05 -4.95 0.2 -4.95 -0.5 -4.95 -2.05 -3.6 -4.0 -1.35 -7.25 3.3 -7.25 4.0 -7.25 4.95 -6.05 5.85 -4.85 6.5 -4.85 7.5 -4.85 6.95 -5.05 L8.85 -5.9 10.0 -6.8 Q10.7 -8.5 11.15 -9.2 L11.35 -9.7 11.5 -12.85 Q11.55 -14.7 12.25 -15.9 12.9 -17.25 15.05 -17.7 M-43.65 -16.65 L-42.05 -13.9 -38.35 -9.15 -38.25 -5.65 Q-38.25 -5.0 -38.85 -4.8 L-40.2 -4.75 Q-40.7 -4.75 -41.25 -5.6 -41.85 -6.55 -41.85 -7.65 L-41.6 -9.9 Q-41.5 -10.15 -42.1 -11.0 -44.15 -14.1 -44.4 -16.6 L-43.65 -16.65 M-28.35 -20.4 Q-28.7 -19.35 -30.2 -17.85 -31.95 -16.05 -33.2 -16.05 -34.0 -16.05 -34.45 -17.15 -34.85 -18.1 -34.85 -19.15 -34.85 -20.45 -34.15 -21.35 -33.4 -22.35 -32.2 -22.35 -31.45 -22.35 -31.3 -21.95 L-31.0 -20.65 -28.35 -20.4 M-13.35 -27.2 Q-12.05 -28.1 -10.5 -28.1 L-9.55 -28.0 -9.2 -27.9 -9.05 -27.05 Q-9.25 -25.2 -8.0 -23.0 -7.05 -21.3 -6.05 -20.55 -4.75 -19.5 -3.2 -17.3 -1.3 -14.55 -1.3 -12.65 -1.65 -10.3 -2.6 -10.3 L-4.4 -11.7 -6.2 -13.1 -7.55 -12.95 -9.4 -13.05 -10.15 -14.55 -10.95 -16.15 -13.4 -18.9 Q-14.8 -20.85 -14.8 -24.65 -14.8 -26.2 -13.35 -27.2 M-8.85 -43.5 L-7.35 -43.65 -6.85 -42.4 Q-7.85 -40.15 -8.1 -40.15 L-8.95 -40.5 -10.2 -41.3 Q-10.15 -43.0 -8.85 -43.5 M-31.0 -8.9 Q-30.45 -9.1 -30.45 -9.65 L-30.45 -11.2 Q-21.85 -10.7 -20.45 -11.8 -17.75 -13.95 -13.2 -14.85 -15.6 -12.05 -16.35 -10.5 -17.1 -8.95 -17.1 -6.8 L-14.5 -2.5 Q-11.95 1.75 -11.95 2.15 -11.95 3.55 -13.55 5.2 -15.35 7.0 -17.5 7.0 -18.75 7.0 -21.4 4.65 -24.0 2.3 -28.45 2.3 -31.45 2.3 -32.5 4.95 L-32.8 4.35 -31.8 -0.25 -31.0 -4.3 -31.3 -6.6 -31.55 -8.55 -31.0 -8.9" fill="#1f1f1f" fill-rule="evenodd" stroke="none"/>
    <path d="M23.5 -29.8 L23.2 -25.7 18.15 -25.65 18.2 -27.2 21.25 -29.8 23.5 -29.8 M30.0 -25.7 L30.75 -25.0 Q31.75 -24.75 31.75 -23.75 L31.25 -20.5 30.55 -17.85 Q29.5 -15.4 29.65 -13.8 L30.0 -10.05 Q30.0 -7.55 26.45 -6.05 22.5 -4.85 21.8 -4.15 L19.5 -1.6 16.8 -1.2 16.5 3.15 28.6 5.35 26.75 10.45 Q22.7 10.05 20.3 13.4 16.55 18.65 15.5 19.4 L11.95 21.4 Q8.5 23.5 7.6 25.45 6.85 27.1 5.7 27.65 L3.9 27.95 Q-0.05 27.95 -2.15 25.45 -3.45 23.85 -4.5 21.35 -5.2 19.65 -5.9 19.65 L-8.4 20.1 -10.9 20.5 Q-19.85 20.5 -25.45 10.4 -29.9 2.4 -29.9 -5.45 -29.9 -9.2 -26.4 -12.65 -21.75 -17.3 -12.9 -18.4 L-13.1 -16.8 Q-11.8 -17.0 -9.6 -18.15 -6.6 -19.75 -6.6 -21.45 -6.6 -21.95 -8.75 -24.1 -10.95 -26.3 -10.95 -26.8 L-10.85 -29.7 Q-2.4 -32.9 -2.5 -33.2 L-1.05 -34.15 Q0.45 -34.8 3.1 -34.8 L5.95 -33.3 Q9.0 -31.8 10.4 -31.75 L15.7 -25.85 Q14.55 -24.3 14.55 -23.9 L16.0 -22.2 13.4 -20.1 Q14.15 -18.15 15.15 -17.55 L16.85 -17.3 Q18.8 -17.3 20.35 -18.05 22.0 -18.8 22.75 -20.3 L24.0 -23.0 Q25.4 -25.6 26.45 -25.9 L30.0 -25.7 M37.9 -15.7 Q39.9 -15.7 39.9 -12.1 L39.85 -11.4 33.95 -10.15 33.65 -10.2 Q33.35 -10.35 33.35 -11.0 33.35 -12.0 34.45 -13.6 35.85 -15.7 37.9 -15.7 M29.45 -3.85 Q33.5 -2.35 33.6 -1.65 33.95 0.35 32.2 1.4 30.8 2.25 28.9 2.25 L26.3 1.9 Q26.25 0.2 27.35 -1.65 28.35 -3.35 29.45 -3.85 M33.95 6.1 Q33.45 6.55 32.75 6.55 32.05 6.55 31.55 6.1 31.05 5.6 31.05 4.9 31.05 4.2 31.55 3.75 32.05 3.25 32.75 3.25 33.45 3.25 33.95 3.75 34.45 4.2 34.45 4.9 34.45 5.6 33.95 6.1" fill="url(#gradient0)" fill-rule="evenodd" stroke="none"/>
    <path d="M11.05 -18.0 Q10.7 -18.0 9.5 -19.45 L6.6 -23.65 6.75 -24.3 Q10.55 -24.05 11.8 -23.05 12.65 -22.4 12.65 -20.8 12.65 -18.0 11.05 -18.0 M19.35 -13.85 L21.85 -16.1 22.75 -16.15 Q22.2 -10.2 21.35 -8.65 20.7 -7.5 17.25 -5.7 L14.1 -3.85 Q14.7 -2.1 14.7 1.65 L14.7 2.05 Q15.05 2.1 14.7 2.15 L14.65 2.15 14.25 2.15 Q8.6 -2.15 8.6 -4.1 L8.85 -5.45 9.05 -7.55 9.2 -9.4 Q9.6 -11.2 11.1 -11.6 L12.95 -11.95 17.15 -12.65 Q18.35 -12.8 19.35 -13.85 M13.35 7.35 L13.5 7.15 Q14.1 8.05 14.1 9.75 14.1 13.45 10.2 17.0 6.65 20.2 4.05 20.2 0.55 20.2 0.55 16.35 0.55 12.4 6.35 11.2 L10.65 10.1 Q12.8 9.2 13.35 7.35 M-3.75 -6.6 L-3.0 -5.35 Q-2.3 -3.9 -2.3 -2.65 L-5.0 -0.8 Q-7.75 1.2 -7.75 3.75 -7.75 4.5 -6.75 5.65 L-3.8 9.2 Q-2.3 11.3 -2.3 13.15 -2.3 14.45 -3.6 14.8 L-6.4 14.9 -9.7 14.55 -13.6 14.1 Q-15.85 13.95 -16.55 13.45 L-17.1 12.3 Q-17.4 10.65 -19.6 8.35 -21.55 6.3 -21.55 3.7 L-19.5 -2.45 Q-19.5 -2.95 -20.0 -3.85 L-20.5 -5.25 Q-20.5 -7.75 -11.25 -11.8 L3.2 -17.6 Q2.5 -15.4 -0.8 -11.35 -3.75 -7.7 -3.75 -6.6 M-3.4 4.95 L-3.65 4.9 -3.9 4.15 Q-3.9 2.8 -1.65 1.7 0.55 0.6 0.55 2.6 0.55 3.4 -0.15 4.1 -1.2 5.2 -3.4 4.95" fill="#ffff00" fill-rule="evenodd" stroke="none"/>
    <path d="M15.6 -9.1 Q15.6 -7.4 13.0 -4.75 L12.75 -4.05 Q10.4 -3.9 10.45 -7.25 10.45 -10.6 13.7 -10.6 15.6 -10.6 15.6 -9.1 M8.9 15.05 Q8.9 16.8 5.9 16.8 L3.65 16.6 3.5 16.45 Q3.35 16.35 3.35 15.75 3.35 15.2 4.1 14.25 5.1 13.0 6.5 13.0 8.9 13.0 8.9 15.05 M-7.3 -8.15 L-10.8 -2.2 -11.85 0.55 Q-12.95 3.0 -13.8 3.55 -9.9 4.3 -8.75 6.3 -8.35 7.05 -8.35 8.8 -8.35 10.6 -9.35 11.2 L-11.2 11.6 Q-12.65 11.6 -14.5 10.25 -16.65 8.7 -16.65 6.75 -15.35 4.45 -15.2 3.7 -15.0 2.85 -15.35 0.35 -15.6 -1.7 -14.9 -2.75 L-11.95 -6.5 Q-9.8 -8.6 -7.5 -8.95 -7.3 -9.15 -7.3 -8.15" fill="#ffffff" fill-rule="evenodd" stroke="none"/>
  </g>
  <defs>
    <linearGradient gradientTransform="matrix(-0.0246, -0.0246, 0.0287, -0.0287, 4.55, -4.9)" gradientUnits="userSpaceOnUse" id="gradient0" spreadMethod="pad" x1="-819.2" x2="819.2">
      <stop offset="0.0" stop-color="#ff0000"/>
      <stop offset="1.0" stop-color="#ff7900"/>
    </linearGradient>
  </defs>
</svg>
