<?xml version="1.0" encoding="UTF-8" standalone="no"?>
<svg xmlns:xlink="http://www.w3.org/1999/xlink" height="87.4px" width="103.35px" xmlns="http://www.w3.org/2000/svg">
  <g transform="matrix(1.0, 0.0, 0.0, 1.0, 51.7, 60.55)">
    <path d="M20.55 -33.15 L19.4 -33.15 19.4 -34.3 20.55 -34.3 20.55 -33.15 M19.55 -31.25 Q19.55 -30.1 19.0 -29.45 18.5 -28.95 17.95 -28.95 L16.5 -29.1 16.3 -29.1 16.3 -28.95 16.25 -29.6 17.2 -30.35 18.95 -32.35 Q19.55 -32.25 19.55 -31.25 M14.4 -22.75 Q15.1 -23.05 15.7 -23.65 L17.7 -25.3 19.4 -19.5 Q18.65 -17.05 16.9 -15.6 15.3 -14.25 13.5 -14.25 11.3 -14.25 10.5 -15.35 L7.95 -18.85 9.05 -19.95 Q10.0 -21.45 12.1 -22.15 L14.4 -22.75 M12.1 -16.5 Q14.75 -16.5 15.8 -18.65 13.45 -20.2 10.75 -17.75 L10.7 -16.6 12.1 -16.5 M19.0 -17.15 Q23.35 -13.0 24.9 -10.1 25.9 -9.25 34.35 -9.25 35.45 -9.25 36.85 -9.8 L40.55 -11.25 41.4 -11.1 35.5 -5.95 Q30.05 -0.7 30.05 2.55 30.05 3.8 31.2 3.9 L36.9 3.85 Q37.1 3.85 38.35 4.4 39.8 5.05 40.65 5.7 L39.45 7.35 38.8 8.15 Q38.8 8.65 39.3 9.55 L39.8 10.9 Q39.8 14.35 32.25 17.05 L23.8 19.35 22.0 18.5 Q22.0 16.15 26.6 14.1 31.2 12.0 31.2 10.6 31.2 10.2 30.4 9.45 29.4 8.55 28.35 8.55 L22.15 9.0 Q22.85 9.85 22.3 10.65 L20.85 11.2 Q19.05 11.95 17.4 13.4 16.55 14.2 16.55 15.55 16.55 16.25 16.7 16.75 16.7 17.35 11.35 19.55 9.65 20.0 7.8 22.5 L7.7 22.2 Q7.65 21.95 7.05 21.95 L4.35 23.1 3.6 19.05 Q4.9 14.6 10.45 11.55 13.15 10.05 13.9 9.4 15.4 8.1 15.4 6.3 15.4 3.95 10.25 3.95 8.25 3.95 7.65 8.45 7.1 12.9 4.3 12.9 3.75 12.9 1.5 11.35 L-0.7 9.75 Q-4.1 9.75 -7.0 14.2 L-10.65 19.65 Q-10.2 18.35 -12.1 14.85 -14.2 11.15 -14.2 10.65 -14.2 9.65 -12.95 8.95 L-11.7 8.0 Q-11.7 7.85 -7.8 6.0 -3.55 3.95 -2.0 -0.2 -2.9 -0.8 -3.4 -1.7 L-3.85 -2.95 Q-3.85 -4.95 -0.6 -7.0 2.4 -8.95 2.0 -10.5 L-0.4 -10.35 -3.25 -10.1 -4.55 -10.3 -4.65 -10.7 -4.75 -11.6 -4.6 -12.35 -3.45 -17.45 Q4.8 -12.75 5.4 -11.75 5.65 -11.35 5.25 -10.65 4.75 -9.75 4.75 -8.9 4.75 -6.7 7.35 -5.65 9.75 -5.65 10.0 -6.5 10.15 -6.95 9.8 -7.8 L12.2 -11.8 11.4 -13.7 Q14.15 -13.55 16.4 -14.3 19.3 -15.2 19.0 -17.15 M3.4 -0.75 Q1.85 -0.75 0.7 0.8 -0.25 2.15 -0.25 3.25 L-0.15 5.75 4.05 5.45 Q5.75 5.05 5.75 2.7 5.75 0.7 4.6 -0.2 L3.4 -0.75 M12.3 -1.0 Q12.3 0.15 13.2 0.7 L16.65 2.2 Q18.1 2.85 18.7 4.55 19.15 5.9 20.4 5.9 25.6 5.9 25.6 4.6 L25.3 3.5 Q24.95 2.75 24.85 1.8 27.95 1.1 27.9 0.75 27.15 -0.25 27.15 -1.85 27.15 -2.55 27.95 -3.75 28.7 -4.95 28.7 -5.9 28.7 -7.2 27.1 -8.3 25.2 -9.6 22.2 -9.6 17.7 -9.6 14.65 -5.95 12.3 -3.15 12.3 -1.0 M37.4 -13.4 L37.5 -13.85 Q43.05 -14.35 43.35 -13.85 L43.1 -13.75 43.6 -13.7 Q44.4 -13.7 46.4 -14.9 46.6 -15.0 46.65 -14.55 L45.4 -12.9 Q44.35 -11.8 43.7 -11.8 43.1 -11.8 42.8 -12.15 L42.55 -12.55 39.2 -12.25 38.0 -12.35 37.55 -12.5 37.4 -13.4 M29.85 -14.25 L30.05 -13.4 Q30.05 -12.0 28.4 -12.0 L27.2 -12.05 27.0 -13.05 29.4 -14.7 29.85 -14.25 M33.2 9.55 Q33.05 11.3 32.4 12.5 34.6 12.75 35.9 11.85 37.15 11.0 37.15 9.45 37.15 7.85 36.1 7.35 L33.7 7.1 Q33.3 7.8 33.2 9.55 M6.05 17.2 L9.4 17.7 Q10.5 17.7 12.05 16.85 13.9 15.75 14.35 14.15 L14.4 13.35 Q14.4 13.15 13.8 13.15 11.6 13.15 9.1 14.6 6.95 15.85 6.05 17.2 M3.75 16.25 Q3.75 17.1 3.15 18.3 2.55 19.5 2.55 19.85 2.65 22.55 1.2 24.15 -0.15 25.65 -2.3 25.65 L-3.4 25.55 -3.7 23.7 -3.9 21.2 Q-3.9 19.05 -2.95 18.3 -1.9 17.45 2.8 16.05 L3.75 16.25 M-6.2 -49.55 Q-4.6 -47.2 -4.6 -46.25 L-5.7 -43.7 Q-4.8 -41.55 -3.15 -36.2 L-3.2 -36.05 -3.45 -35.85 -5.1 -39.1 Q-5.55 -39.85 -7.15 -39.85 L-8.35 -39.4 Q-9.05 -39.0 -9.55 -39.0 -10.75 -39.0 -11.9 -40.3 -10.1 -43.2 -9.15 -47.7 -9.15 -48.3 -9.3 -48.55 L-9.7 -49.3 -10.5 -50.3 Q-11.0 -52.0 -11.2 -60.55 L-10.05 -60.55 Q-7.5 -51.5 -6.2 -49.55 M-48.6 -18.05 Q-50.85 -20.2 -51.7 -21.5 L-51.15 -21.9 Q-50.35 -21.0 -49.2 -20.55 L-41.75 -17.95 Q-40.1 -16.85 -39.55 -15.8 -39.2 -15.15 -39.0 -13.65 L-38.35 -10.75 -37.9 -9.4 -38.1 -8.05 -39.4 -5.05 Q-40.8 -5.85 -42.25 -9.75 -43.8 -13.9 -45.05 -14.95 L-48.6 -18.05 M-14.5 -30.65 Q-10.05 -30.65 -9.05 -31.4 -8.6 -30.8 -7.7 -28.65 -6.9 -26.6 -5.85 -25.5 -2.85 -22.2 -2.85 -21.5 L-4.0 -19.0 -5.95 -14.65 Q-7.1 -11.5 -8.35 -9.5 -8.35 -8.4 -7.15 -6.8 -6.0 -5.15 -6.0 -4.0 -6.0 -2.2 -9.5 2.0 -13.45 6.7 -16.8 6.7 -18.25 6.7 -19.25 6.1 -20.7 5.2 -20.25 3.4 L-22.95 3.4 Q-25.65 3.05 -28.75 5.4 -30.35 6.6 -31.9 8.3 L-32.65 4.75 -33.2 1.1 -31.95 -1.6 Q-30.75 -4.25 -30.75 -4.75 -30.75 -5.4 -31.35 -6.05 L-33.8 -9.35 -32.7 -9.15 -31.2 -8.8 Q-30.25 -8.8 -29.1 -9.6 L-26.0 -12.4 -25.2 -10.75 Q-24.6 -9.95 -22.3 -9.95 -19.9 -9.95 -17.35 -13.5 -15.7 -15.9 -15.15 -17.55 -14.1 -20.55 -14.0 -21.65 -13.9 -22.9 -14.1 -25.3 L-14.5 -30.65 M-31.9 -25.05 Q-31.9 -23.4 -32.15 -22.1 L-32.75 -19.6 -31.9 -17.9 -32.0 -16.5 -32.05 -16.25 Q-32.15 -16.0 -32.75 -16.0 -34.25 -16.0 -35.6 -17.85 -37.05 -19.8 -37.05 -22.15 -37.05 -22.8 -35.2 -24.0 -33.45 -25.15 -32.85 -25.15 L-31.9 -25.05 M-28.75 -21.6 Q-27.55 -21.6 -26.8 -20.65 -26.25 -19.95 -26.25 -19.3 -26.25 -18.3 -26.95 -17.95 L-28.0 -17.7 -29.9 -17.0 -30.45 -16.55 -30.9 -18.1 Q-30.9 -19.95 -29.95 -20.9 -29.3 -21.6 -28.75 -21.6 M-28.1 -1.8 Q-28.1 -0.3 -26.6 -0.25 L-24.15 -0.35 Q-23.6 -0.3 -22.55 1.0 -21.5 2.25 -19.55 2.25 -17.15 2.25 -15.15 0.05 -12.75 -2.65 -13.3 -6.8 -13.75 -10.3 -12.9 -10.75 -11.45 -10.75 -10.4 -11.5 L-8.35 -13.05 Q-7.7 -14.2 -7.7 -18.5 L-7.9 -20.85 -8.3 -22.75 -9.2 -23.15 Q-10.05 -21.9 -10.05 -20.0 -10.1 -18.25 -10.55 -17.65 L-12.55 -15.2 Q-13.45 -13.9 -13.95 -11.95 -14.45 -10.0 -15.0 -9.4 -16.45 -7.65 -20.4 -7.35 -28.1 -6.75 -28.1 -1.8 M-6.75 7.9 L-8.4 8.15 Q-10.6 8.85 -11.35 10.65 L-11.4 10.85 Q-10.05 12.0 -8.3 12.5 -7.05 12.5 -5.95 10.2 -4.85 7.9 -6.75 7.9 M-11.9 21.0 Q-11.9 21.95 -12.4 22.6 -12.95 23.25 -13.7 23.25 -14.45 23.25 -14.95 22.6 -15.5 21.95 -15.5 21.0 -15.5 20.05 -14.95 19.4 -14.45 18.75 -13.7 18.75 -12.95 18.75 -12.4 19.4 -11.9 20.05 -11.9 21.0 M-18.65 15.25 L-21.85 15.5 Q-22.8 15.5 -23.35 14.8 -23.85 14.2 -23.85 13.35 -23.85 11.15 -21.3 11.15 -19.4 11.15 -18.2 11.65 -16.2 12.5 -15.1 14.8 L-18.65 15.25" fill="#333333" fill-rule="evenodd" stroke="none"/>
    <path d="M12.1 -16.5 L10.7 -16.6 10.75 -17.75 Q13.45 -20.2 15.8 -18.65 14.75 -16.5 12.1 -16.5 M12.3 -1.0 Q12.3 -3.15 14.65 -5.95 17.7 -9.6 22.2 -9.6 25.2 -9.6 27.1 -8.3 28.7 -7.2 28.7 -5.9 28.7 -4.95 27.95 -3.75 27.15 -2.55 27.15 -1.85 27.15 -0.25 27.9 0.75 27.95 1.1 24.85 1.8 24.95 2.75 25.3 3.5 L25.6 4.6 Q25.6 5.9 20.4 5.9 19.15 5.9 18.7 4.55 18.1 2.85 16.65 2.2 L13.2 0.7 Q12.3 0.15 12.3 -1.0 M3.4 -0.75 L4.6 -0.2 Q5.75 0.7 5.75 2.7 5.75 5.05 4.05 5.45 L-0.15 5.75 -0.25 3.25 Q-0.25 2.15 0.7 0.8 1.85 -0.75 3.4 -0.75 M6.05 17.2 Q6.95 15.85 9.1 14.6 11.6 13.15 13.8 13.15 14.4 13.15 14.4 13.35 L14.35 14.15 Q13.9 15.75 12.05 16.85 10.5 17.7 9.4 17.7 L6.05 17.2 M33.2 9.55 Q33.3 7.8 33.7 7.1 L36.1 7.35 Q37.15 7.85 37.15 9.45 37.15 11.0 35.9 11.85 34.6 12.75 32.4 12.5 33.05 11.3 33.2 9.55 M-6.75 7.9 Q-4.85 7.9 -5.95 10.2 -7.05 12.5 -8.3 12.5 -10.05 12.0 -11.4 10.85 L-11.35 10.65 Q-10.6 8.85 -8.4 8.15 L-6.75 7.9 M-28.1 -1.8 Q-28.1 -6.75 -20.4 -7.35 -16.45 -7.65 -15.0 -9.4 -14.45 -10.0 -13.95 -11.95 -13.45 -13.9 -12.55 -15.2 L-10.55 -17.65 Q-10.1 -18.25 -10.05 -20.0 -10.05 -21.9 -9.2 -23.15 L-8.3 -22.75 -7.9 -20.85 -7.7 -18.5 Q-7.7 -14.2 -8.35 -13.05 L-10.4 -11.5 Q-11.45 -10.75 -12.9 -10.75 -13.75 -10.3 -13.3 -6.8 -12.75 -2.65 -15.15 0.05 -17.15 2.25 -19.55 2.25 -21.5 2.25 -22.55 1.0 -23.6 -0.3 -24.15 -0.35 L-26.6 -0.25 Q-28.1 -0.3 -28.1 -1.8" fill="#1f1f1f" fill-rule="evenodd" stroke="none"/>
    <path d="M23.6 -29.45 L19.5 -29.0 19.95 -28.05 20.15 -26.95 Q20.15 -26.45 19.75 -26.45 19.3 -26.45 19.3 -25.95 19.3 -25.7 19.65 -25.2 L22.4 -20.45 23.85 -21.9 Q25.7 -23.4 27.8 -23.6 27.95 -22.2 27.0 -20.65 25.85 -18.7 23.65 -18.35 L24.45 -17.25 Q22.3 -17.1 21.3 -15.4 20.6 -14.25 20.6 -12.95 20.6 -12.35 20.85 -11.7 L21.4 -10.25 21.85 -8.95 23.75 -8.8 Q25.85 -8.45 26.9 -7.2 L23.15 -4.05 22.95 -1.1 27.35 -2.95 Q26.9 -2.95 26.9 -3.95 L28.25 -5.85 Q30.1 -8.6 32.15 -13.2 L37.2 -14.15 37.0 -10.15 43.15 -6.35 41.95 -6.1 Q41.65 -6.15 41.4 -6.4 L40.2 -5.9 Q41.8 -3.6 41.8 0.55 41.8 1.5 41.4 2.75 40.95 4.05 40.3 4.75 38.75 6.45 34.95 8.05 L30.05 10.15 27.05 6.85 25.25 4.9 Q23.7 3.8 22.3 3.8 20.45 3.8 19.85 4.6 19.45 5.2 19.4 7.05 19.3 13.05 17.6 17.05 16.8 18.85 15.9 19.6 13.75 21.25 9.0 21.25 L7.05 20.7 6.25 20.5 4.05 21.4 1.0 22.6 0.2 22.55 -1.1 23.65 -3.65 26.0 Q-5.0 26.85 -6.6 26.85 -10.9 26.85 -13.25 23.85 -15.05 21.6 -15.05 19.1 -15.05 18.15 -14.5 17.25 L-12.55 14.65 -13.05 15.1 -13.85 15.2 Q-14.25 15.2 -15.8 12.75 L-12.05 8.75 Q-15.3 8.6 -18.4 4.5 -21.95 -0.25 -21.95 -6.7 -21.95 -13.7 -17.2 -18.5 -12.6 -23.2 -6.3 -23.2 -1.35 -22.35 -0.45 -21.8 2.05 -20.3 2.6 -20.3 L5.7 -21.0 8.65 -21.75 10.15 -20.4 Q13.6 -20.4 15.65 -23.85 17.25 -26.5 17.25 -29.0 17.25 -29.55 16.85 -29.8 16.5 -30.05 16.55 -30.35 L10.2 -31.15 8.55 -29.8 7.6 -30.05 Q7.4 -30.25 7.35 -31.05 L6.25 -29.65 5.55 -29.6 Q5.15 -29.65 5.15 -30.3 5.15 -32.65 14.35 -34.6 21.9 -36.2 26.4 -36.2 27.95 -36.2 28.95 -33.5 L29.65 -30.65 29.5 -29.4 29.3 -28.3 Q29.75 -27.2 29.5 -26.9 29.15 -26.4 25.05 -26.35 L26.05 -29.3 23.6 -29.45 M9.2 -26.4 Q10.15 -26.4 10.85 -25.85 11.5 -25.35 11.5 -24.65 11.5 -23.95 10.85 -23.4 10.15 -22.9 9.2 -22.9 8.25 -22.9 7.6 -23.4 6.9 -23.95 6.9 -24.65 6.9 -25.35 7.6 -25.85 8.25 -26.4 9.2 -26.4 M25.15 -21.6 L24.9 -21.6 25.0 -21.4 25.15 -21.6 M51.55 -17.75 L49.3 -14.15 45.4 -14.85 46.0 -20.9 48.75 -21.6 Q50.5 -21.35 51.25 -19.85 51.85 -18.65 51.55 -17.75" fill="url(#gradient0)" fill-rule="evenodd" stroke="none"/>
    <path d="M7.8 -5.5 Q6.7 -3.3 5.25 -1.6 4.55 -0.75 1.95 0.25 -0.6 1.3 -0.6 0.7 -0.6 -0.8 -1.55 0.7 L-2.9 2.8 -4.7 3.25 Q-8.25 3.25 -10.95 -0.3 -13.5 -3.65 -13.5 -7.45 -13.5 -11.3 -10.45 -14.9 -7.1 -18.85 -2.65 -18.85 3.35 -17.95 4.25 -17.3 5.8 -16.15 5.9 -13.55 L8.05 -14.0 Q10.15 -12.2 12.9 -11.9 L16.65 -12.25 17.55 -11.55 Q9.7 -7.65 7.8 -5.5 M32.5 -8.95 Q33.55 -8.35 34.1 -7.15 L34.5 -5.85 Q34.5 -4.85 33.7 -3.65 32.65 -2.1 30.9 -1.3 L29.5 -1.9 31.55 -5.2 32.5 -8.95 M20.55 -0.1 Q22.05 1.1 23.3 1.1 L24.65 0.9 26.0 0.8 26.15 1.25 Q25.5 1.9 23.2 2.8 20.6 3.85 18.95 3.85 16.0 2.35 14.0 1.85 L15.85 0.05 Q17.55 -1.35 18.4 -1.35 19.1 -1.35 20.55 -0.1 M11.05 12.15 L11.2 12.8 Q11.2 13.45 9.5 15.6 L7.1 18.25 Q5.9 19.35 5.2 19.3 4.5 18.95 4.0 18.95 L0.95 21.35 Q0.45 21.35 -0.15 20.6 -0.8 19.8 -1.3 19.8 -4.6 21.8 -5.75 21.95 L-6.0 21.9 Q-6.3 22.3 -6.3 21.3 -6.3 20.55 -5.95 19.9 -5.65 19.25 -5.65 18.3 L-5.1 17.05 -4.6 15.9 -6.9 12.5 -6.9 10.6 Q-3.95 11.8 1.65 14.7 6.55 16.3 10.65 12.15 L11.05 12.15" fill="#ffff00" fill-rule="evenodd" stroke="none"/>
    <path d="M6.95 -10.4 Q1.6 -7.35 -1.7 -3.75 -3.25 -2.05 -6.9 -2.05 -9.15 -2.05 -9.15 -8.45 -9.15 -12.2 -4.25 -14.5 0.55 -16.75 1.4 -14.7 2.2 -12.7 4.05 -11.7 5.1 -11.15 6.75 -10.6 L6.95 -10.4 M-1.5 16.15 Q-0.55 15.6 1.7 15.6 L2.6 16.35 2.85 16.85 Q2.85 18.2 0.85 18.2 L-1.4 17.85 -2.3 17.05 -1.5 16.15" fill="#ffffff" fill-rule="evenodd" stroke="none"/>
  </g>
  <defs>
    <linearGradient gradientTransform="matrix(-0.0247, -0.0247, 0.0366, -0.0366, 13.9, -9.2)" gradientUnits="userSpaceOnUse" id="gradient0" spreadMethod="pad" x1="-819.2" x2="819.2">
      <stop offset="0.0" stop-color="#ff0000"/>
      <stop offset="1.0" stop-color="#ff7900"/>
    </linearGradient>
  </defs>
</svg>
