<?xml version="1.0" encoding="UTF-8" standalone="no"?>
<svg xmlns:xlink="http://www.w3.org/1999/xlink" height="89.55px" width="104.05px" xmlns="http://www.w3.org/2000/svg">
  <g transform="matrix(1.0, 0.0, 0.0, 1.0, 53.85, 62.95)">
    <path d="M17.55 -28.95 L17.4 -29.85 Q17.45 -30.9 18.2 -31.1 L18.75 -30.95 17.55 -28.95 M17.85 -22.5 L17.35 -22.65 Q17.1 -22.85 17.1 -23.1 L17.35 -23.5 17.85 -23.7 18.4 -23.5 18.6 -23.1 18.4 -22.65 Q18.15 -22.5 17.85 -22.5 M17.65 -20.75 Q18.15 -19.95 18.15 -18.95 18.15 -16.05 16.2 -14.75 15.0 -13.95 13.55 -13.95 12.9 -13.95 11.75 -16.35 10.45 -19.05 9.05 -19.85 10.9 -21.7 15.4 -23.5 L17.65 -20.75 M18.4 -14.4 L20.35 -13.6 Q22.4 -12.75 23.55 -12.5 25.5 -12.05 26.05 -11.35 26.4 -10.85 26.4 -9.35 26.4 -6.35 26.05 -5.35 25.6 -4.3 24.15 -3.6 L25.05 -1.95 23.7 0.3 23.9 1.35 26.9 1.65 28.25 1.3 29.15 0.85 29.5 0.9 Q28.2 2.7 25.75 4.1 L26.9 6.0 Q23.95 4.55 21.05 8.1 L18.95 10.45 Q17.75 11.4 16.6 10.8 L15.4 12.1 15.3 12.4 15.9 12.5 19.25 11.75 19.7 11.7 Q20.0 11.8 20.0 12.4 L19.8 13.3 19.25 13.4 18.7 13.9 20.7 13.15 21.35 13.25 21.7 13.35 Q21.7 14.75 20.55 16.95 19.2 19.5 17.8 19.5 16.2 19.5 14.9 18.8 L13.65 18.05 Q13.15 18.05 12.6 18.45 L11.55 18.8 Q10.1 18.8 9.4 18.3 8.6 17.75 8.6 16.4 8.6 12.9 13.0 11.3 17.4 9.75 17.4 6.65 17.4 2.5 15.5 1.0 14.2 -0.05 11.15 -0.05 6.5 -0.05 6.25 4.55 6.15 7.0 5.85 7.7 5.2 9.15 3.0 9.15 2.15 9.15 1.15 7.9 0.15 6.6 -1.1 6.6 -2.8 6.6 -4.95 9.7 -7.1 12.75 -8.55 12.75 -9.25 12.75 -10.15 11.4 -11.05 10.0 -11.05 8.75 -11.05 8.35 -10.05 7.4 L-7.9 5.35 -6.9 3.55 Q-5.95 2.0 -4.9 1.75 L2.25 0.2 Q4.75 -0.5 4.75 -1.95 L4.6 -3.25 Q4.4 -4.1 4.45 -4.9 1.2 -5.0 -0.25 -5.85 -1.85 -6.75 -1.85 -8.7 -1.85 -10.3 3.75 -15.4 L4.5 -15.1 4.75 -14.3 4.45 -13.3 3.9 -12.6 4.25 -12.75 Q4.6 -12.85 4.6 -12.25 L3.35 -10.7 2.05 -9.2 Q2.05 -9.0 3.15 -6.5 L3.3 -6.75 Q3.4 -6.95 4.0 -6.95 L5.65 -6.9 5.8 -6.8 5.3 -4.7 6.3 -3.75 9.05 -3.5 10.75 -3.8 12.8 -5.25 11.65 -6.5 13.65 -7.25 15.1 -7.95 13.4 -10.35 16.05 -12.75 Q18.05 -14.4 18.4 -14.4 M0.65 -15.75 L0.6 -15.05 0.3 -14.5 -0.8 -14.3 Q-2.15 -14.55 -3.3 -15.6 -3.0 -16.45 -0.6 -18.7 L0.1 -17.5 Q0.65 -16.4 0.65 -15.75 M29.25 -8.7 L29.25 -8.55 29.9 -8.5 Q30.4 -8.5 31.35 -8.85 L32.75 -9.25 Q33.25 -9.25 34.35 -8.65 35.5 -8.1 36.25 -8.1 39.35 -8.1 41.25 -9.25 L41.55 -8.8 Q37.4 -2.4 34.75 -1.9 32.2 -2.4 30.65 -1.9 L28.45 -1.9 28.65 -3.6 Q28.65 -4.55 27.35 -6.3 26.75 -7.15 29.15 -9.1 L29.25 -8.7 M46.0 -13.25 L45.15 -12.25 Q44.8 -12.25 44.7 -12.55 45.05 -13.1 45.55 -13.2 L46.0 -13.25 M43.1 -13.8 Q43.1 -13.45 43.4 -12.75 L43.7 -11.95 43.55 -11.75 42.75 -11.65 41.05 -12.05 39.4 -12.55 Q40.0 -13.05 41.05 -13.45 L43.1 -13.8 M42.4 1.7 L43.1 2.45 43.25 2.85 Q40.35 5.95 41.65 7.05 43.85 9.0 43.85 10.45 43.85 11.7 43.1 12.65 42.2 13.75 40.8 13.75 40.5 13.4 39.85 11.45 L33.5 13.1 Q33.1 13.4 32.3 15.0 L31.35 16.5 Q31.05 16.05 30.05 16.05 29.0 16.05 27.9 17.3 L26.5 18.55 Q25.95 18.55 25.75 18.15 25.55 17.75 25.25 17.75 L25.2 17.25 Q25.2 16.15 28.9 13.85 33.3 11.15 34.4 9.6 L34.4 9.35 32.75 9.15 Q31.95 8.9 31.7 7.75 L31.15 5.65 28.45 5.6 Q28.1 5.7 28.05 5.2 28.95 4.05 31.1 3.15 33.1 2.3 34.55 2.3 35.05 2.3 35.05 2.95 35.0 3.55 35.5 3.55 L41.4 1.4 Q42.05 1.4 42.4 1.7 M7.35 18.1 Q7.9 18.55 7.9 19.15 7.9 19.75 7.35 20.2 L5.9 20.65 Q5.05 20.65 4.5 20.2 3.9 19.75 3.9 19.15 3.9 18.55 4.5 18.1 5.05 17.65 5.9 17.65 6.75 17.65 7.35 18.1 M6.05 14.6 Q7.25 13.55 7.6 14.2 L7.05 14.7 6.05 14.6 M3.75 16.85 Q3.75 17.5 2.05 18.75 0.3 20.0 0.3 20.4 L0.9 21.55 1.45 22.8 Q1.45 23.85 0.4 24.4 L-1.7 24.85 Q-3.1 24.85 -3.85 21.35 -3.85 20.35 -1.8 18.25 0.55 15.75 2.8 15.6 3.75 15.8 3.75 16.85 M-11.9 -58.3 L-11.65 -61.3 Q-11.25 -62.7 -10.1 -62.95 L-10.35 -60.5 Q-10.45 -58.75 -10.2 -57.8 -9.15 -55.75 -6.95 -53.25 -5.15 -51.2 -5.15 -50.7 L-6.6 -48.2 -6.15 -46.75 Q-5.7 -45.85 -5.7 -45.35 -5.7 -44.45 -8.3 -42.3 L-5.65 -41.05 Q-3.45 -39.8 -3.45 -38.15 L-3.5 -37.65 -3.7 -37.9 -4.4 -39.3 Q-4.55 -39.65 -5.7 -39.85 L-10.45 -40.2 -10.75 -41.0 -11.05 -42.35 Q-11.05 -42.9 -10.2 -43.85 L-9.05 -45.3 Q-8.45 -46.65 -8.45 -47.95 -8.45 -48.95 -10.15 -52.75 -11.9 -56.5 -11.9 -58.3 M-40.8 -18.7 L-41.95 -15.25 Q-41.95 -8.65 -39.2 -7.6 L-38.5 -7.05 -38.7 -6.8 Q-39.0 -6.5 -39.6 -6.5 -40.85 -6.5 -42.15 -10.3 -43.9 -15.55 -45.9 -18.15 -46.55 -19.05 -50.0 -19.05 -53.05 -19.1 -53.6 -21.45 L-53.85 -22.3 -52.05 -21.0 Q-50.85 -20.15 -50.4 -20.15 L-45.7 -21.45 Q-44.45 -21.45 -42.7 -20.55 -40.8 -19.6 -40.8 -18.7 M-6.3 -43.15 L-5.15 -44.15 Q-4.7 -43.8 -4.7 -43.0 L-5.9 -42.95 -6.3 -43.15 M-12.55 -29.55 L-5.4 -23.5 Q-3.45 -21.6 -3.45 -18.65 -3.45 -16.85 -5.5 -15.35 -7.6 -13.9 -7.6 -12.15 -7.6 -11.65 -7.2 -11.6 -6.85 -11.6 -6.85 -11.1 L-7.9 -9.4 -5.85 -8.05 Q-4.0 -6.75 -3.75 -5.95 L-2.25 -3.1 Q-2.25 0.1 -5.75 0.1 -6.0 0.1 -7.95 -1.25 L-9.9 -2.65 Q-11.6 -2.65 -12.4 -1.7 -12.9 -1.1 -12.9 -0.35 L-11.75 2.65 -13.1 3.3 -14.9 4.0 -16.15 3.8 -16.25 3.15 -15.35 0.2 -15.65 -1.15 -16.2 -1.3 -17.35 -1.5 -24.4 2.15 Q-25.5 2.15 -27.6 0.55 -28.1 0.85 -29.15 4.1 -30.2 7.3 -31.05 7.85 L-31.45 6.35 -31.6 4.3 Q-31.6 -0.85 -29.05 -1.7 L-27.35 -2.2 Q-26.55 -2.65 -26.55 -3.95 L-27.9 -5.65 Q-29.35 -7.5 -29.6 -8.8 L-27.45 -9.95 -24.7 -10.55 -17.9 -9.95 -18.1 -8.95 -13.2 -10.25 Q-12.3 -11.5 -12.05 -12.6 L-12.25 -13.8 -14.85 -14.05 -14.95 -14.65 Q-14.7 -16.15 -12.2 -18.15 -9.9 -20.0 -9.9 -22.75 -9.9 -23.15 -10.25 -23.9 L-12.8 -29.35 -12.55 -29.55 M-29.6 -17.4 L-28.85 -18.9 -27.55 -20.45 Q-26.0 -19.15 -26.25 -17.7 -26.55 -16.15 -28.85 -17.15 L-29.6 -17.4 M-33.6 -23.35 L-34.2 -22.15 Q-34.2 -21.5 -32.5 -17.45 L-32.6 -16.0 -34.4 -16.0 -35.0 -16.15 Q-36.25 -17.4 -38.25 -22.15 -38.25 -23.0 -37.5 -24.1 -36.25 -25.85 -33.75 -25.75 -33.05 -25.2 -33.05 -24.15 L-33.6 -23.35 M-17.25 11.7 Q-17.1 11.9 -17.1 12.5 -17.1 14.5 -19.0 14.5 L-20.7 14.05 -22.0 12.9 Q-21.55 11.3 -19.7 11.2 L-17.4 11.45 -17.25 11.7 M-12.65 18.9 Q-11.6 18.9 -10.95 19.3 -10.4 19.65 -10.4 20.1 -10.4 21.8 -12.1 21.8 L-13.0 21.75 Q-13.6 21.5 -13.1 19.05 -13.65 18.9 -12.65 18.9" fill="#333333" fill-rule="evenodd" stroke="none"/>
    <path d="M22.75 -36.95 Q26.6 -36.95 32.95 -33.35 39.35 -29.8 39.35 -27.55 39.35 -23.35 36.4 -21.45 34.55 -20.3 32.65 -20.3 L29.6 -20.2 Q26.55 -20.25 26.0 -21.15 L30.9 -22.9 31.75 -25.9 29.5 -25.25 30.6 -26.65 28.65 -28.1 31.4 -27.75 29.0 -31.5 Q25.95 -34.6 20.15 -35.7 L21.1 -36.3 Q22.15 -36.95 22.75 -36.95 M18.6 -27.9 Q19.8 -27.45 20.35 -26.65 22.0 -24.8 22.8 -23.1 L24.55 -19.3 Q25.2 -17.75 25.2 -16.45 L25.1 -12.8 16.7 -12.8 Q18.25 -9.9 21.9 -5.75 23.95 -3.35 23.95 -0.1 23.95 1.15 23.55 2.75 23.3 3.75 22.7 4.2 21.7 4.9 18.95 5.3 L20.4 8.3 16.7 9.15 17.4 10.5 Q18.1 11.95 18.1 12.55 18.1 13.55 15.65 15.05 L12.2 14.15 Q8.25 13.25 4.85 15.4 3.25 16.4 -0.55 20.25 -1.05 20.8 -1.75 23.85 -2.8 26.6 -5.8 26.6 -8.45 26.6 -9.2 25.35 -9.55 24.75 -9.45 23.45 L-11.65 22.75 Q-12.15 22.45 -12.15 21.05 -12.15 19.75 -11.85 19.5 L-10.9 18.65 -13.9 18.0 Q-11.9 11.2 -6.2 8.6 -2.55 6.9 5.6 6.2 L-3.7 3.3 Q-9.2 1.85 -13.35 2.8 L-13.85 -0.65 Q-20.1 -3.95 -20.15 -5.0 -19.5 -7.7 -16.5 -10.2 -13.4 -12.8 -10.45 -12.8 L-9.1 -12.25 Q-7.85 -11.7 -5.3 -11.7 -4.65 -11.7 -3.65 -12.2 -3.15 -12.5 -2.75 -12.75 L-3.25 -11.8 -3.5 -10.7 Q-3.5 -10.05 -2.85 -9.9 L-1.5 -9.85 Q4.9 -9.85 8.5 -13.5 L7.3 -13.9 6.6 -14.45 7.2 -15.45 Q8.4 -16.75 11.35 -18.4 10.2 -21.35 7.5 -22.6 5.05 -23.75 0.65 -23.75 -4.8 -23.75 -7.45 -21.8 L-9.9 -19.65 Q-10.45 -20.5 -11.05 -20.8 -12.45 -21.6 -14.95 -21.25 -11.5 -25.55 -2.75 -28.5 5.0 -31.15 11.4 -31.15 L15.75 -30.85 19.35 -30.2 Q18.05 -28.35 18.6 -27.9 M37.9 -11.45 L41.2 -11.1 Q42.15 -6.8 46.2 -3.6 49.85 -0.7 49.85 1.6 49.85 4.7 47.75 5.8 47.2 5.8 45.45 4.8 L43.1 3.55 Q42.15 6.8 38.75 8.75 35.75 10.45 32.45 10.45 L30.05 10.25 27.1 2.6 27.7 1.55 Q28.45 0.5 29.05 0.5 L31.4 0.9 33.7 1.3 38.45 0.45 Q38.05 0.35 37.85 -0.3 38.55 -2.8 38.55 -3.8 38.55 -7.05 36.55 -8.8 34.15 -10.25 33.3 -10.8 L33.1 -11.1 35.55 -11.7 37.9 -11.45 M49.45 -14.65 Q48.7 -13.9 47.65 -13.9 46.6 -13.9 45.85 -14.65 45.1 -15.4 45.1 -16.45 45.1 -17.5 45.85 -18.25 46.6 -19.0 47.65 -19.0 48.7 -19.0 49.45 -18.25 50.2 -17.5 50.2 -16.45 50.2 -15.4 49.45 -14.65 M9.3 9.45 Q9.85 10.75 11.45 12.35 L10.1 9.6 9.7 9.3 Q9.35 9.1 9.3 9.45" fill="url(#gradient0)" fill-rule="evenodd" stroke="none"/>
    <path d="M8.9 -27.9 L10.1 -28.15 Q14.15 -28.15 17.65 -25.25 21.0 -22.45 21.0 -19.5 21.0 -17.35 19.75 -16.25 18.6 -15.25 16.65 -15.25 L15.45 -15.4 14.25 -15.85 16.2 -17.25 16.95 -18.05 Q16.95 -19.55 14.75 -22.95 11.8 -27.4 8.05 -27.35 L8.4 -27.7 8.9 -27.9 M7.75 -9.85 Q8.55 -12.8 10.65 -12.8 18.15 -12.8 21.0 -6.75 22.45 -3.7 22.4 -0.55 22.4 2.8 21.2 3.4 20.4 3.8 18.95 3.0 L19.05 3.6 Q18.55 8.0 18.0 9.35 17.35 11.0 15.8 11.0 14.0 8.35 11.7 5.7 7.15 0.4 4.3 0.4 3.0 0.4 0.35 1.5 L-5.7 1.0 Q-6.95 0.65 -8.0 -0.25 L-8.3 -0.9 Q-8.0 -1.2 -5.65 -2.1 -4.05 -2.75 -4.0 -4.35 L-7.0 -6.85 Q-7.65 -7.35 -11.05 -8.1 -9.85 -9.55 -4.4 -9.6 L0.85 -9.35 2.35 -8.15 Q3.75 -6.95 5.55 -6.95 6.95 -6.95 7.75 -9.85 M45.25 -2.4 Q45.75 -2.05 45.75 -1.0 45.75 0.5 43.7 0.5 L42.5 0.4 42.35 0.35 42.25 -0.35 Q42.65 -1.1 43.75 -1.75 L45.25 -2.4 M37.85 5.55 L38.55 6.0 36.6 7.25 Q35.4 7.85 34.8 7.85 33.75 7.85 33.3 6.7 32.95 5.9 32.95 4.75 32.95 4.0 33.55 3.55 34.15 3.05 35.2 3.05 L37.0 3.25 37.0 4.9 Q37.05 6.0 37.45 5.5 L37.85 5.55 M3.15 11.1 Q-1.0 13.2 -2.3 17.9 L-0.7 18.5 -2.25 19.25 -3.65 20.55 Q-5.0 22.65 -5.3 22.55 L-5.85 21.95 Q-6.35 21.95 -6.35 22.45 -6.4 22.95 -6.9 22.95 -8.0 22.95 -8.35 22.2 L-8.6 20.35 Q-8.6 14.1 -2.85 10.55 1.4 7.95 5.4 7.95 L7.15 8.0 Q7.0 9.05 5.85 9.8 L3.15 11.1 M-10.2 -3.7 Q-10.2 -3.5 -10.5 -3.35 L-11.35 -3.2 -12.15 -3.35 -12.5 -3.7 -12.15 -4.05 -11.35 -4.2 -10.5 -4.05 -10.2 -3.7 M-13.9 -5.7 Q-14.65 -3.75 -14.9 -3.55 -15.45 -3.1 -16.95 -4.15 L-14.25 -5.8 -13.9 -5.7" fill="#ffff00" fill-rule="evenodd" stroke="none"/>
    <path d="M6.05 -6.25 L13.65 -5.1 13.85 -5.1 13.7 -5.45 Q13.55 -5.95 13.55 -6.55 13.55 -5.8 13.25 -6.2 13.05 -6.5 13.55 -6.55 L13.7 -6.55 14.35 -6.65 14.85 -6.65 14.2 -7.45 13.55 -8.6 13.5 -9.1 13.65 -9.2 14.55 -9.35 Q17.55 -9.35 19.45 -6.2 20.9 -3.85 20.9 -2.0 L20.8 -1.4 20.35 -1.3 Q19.1 -2.55 14.25 -3.75 L13.55 -3.5 Q14.75 -1.6 15.95 -0.25 16.6 0.7 16.55 2.7 L16.3 2.95 15.25 1.8 Q14.3 0.8 12.25 -0.2 L8.0 -1.7 2.95 -3.15 2.85 -3.7 Q2.4 -4.05 3.4 -4.3 L6.2 -5.05 Q5.75 -5.1 5.15 -6.1 L6.05 -6.25 M-2.55 14.4 Q-2.3 14.85 -2.3 15.4 -2.3 16.25 -3.8 17.9 L-5.6 19.65 -6.45 19.6 Q-6.75 19.5 -6.75 18.5 -4.4 15.75 -2.75 13.3 L-2.8 13.65 -2.55 14.4" fill="#ffffff" fill-rule="evenodd" stroke="none"/>
  </g>
  <defs>
    <linearGradient gradientTransform="matrix(-0.0274, -0.0274, 0.0313, -0.0313, 12.6, -3.9)" gradientUnits="userSpaceOnUse" id="gradient0" spreadMethod="pad" x1="-819.2" x2="819.2">
      <stop offset="0.0" stop-color="#ff0000"/>
      <stop offset="1.0" stop-color="#ff7900"/>
    </linearGradient>
  </defs>
</svg>
