<?xml version="1.0" encoding="UTF-8" standalone="no"?>
<svg xmlns:xlink="http://www.w3.org/1999/xlink" height="89.15px" width="101.55px" xmlns="http://www.w3.org/2000/svg">
  <g transform="matrix(1.0, 0.0, 0.0, 1.0, 56.75, 64.9)">
    <path d="M12.3 -20.6 Q13.05 -21.1 14.0 -21.15 15.2 -19.25 16.95 -18.5 L17.0 -17.9 Q17.0 -17.25 16.15 -16.4 15.35 -15.5 14.25 -14.9 L12.65 -15.15 12.8 -17.1 Q12.8 -18.05 12.4 -18.35 L11.25 -18.85 11.2 -19.25 Q11.45 -20.1 12.3 -20.6 M18.95 -14.4 Q21.1 -14.4 23.4 -13.35 25.9 -12.25 25.9 -10.9 25.9 -10.2 25.0 -9.9 23.15 -9.3 22.2 -8.7 L21.85 -8.1 Q24.45 -5.15 24.45 -4.7 L22.95 -3.55 Q21.4 -2.65 21.4 -1.05 21.4 -0.25 21.65 0.05 L22.75 0.95 21.8 1.75 Q21.3 2.3 21.3 3.75 21.3 4.4 21.9 4.95 22.45 5.5 22.45 6.1 L21.05 7.5 18.7 9.3 18.0 8.8 Q17.7 8.65 17.7 8.35 L18.15 6.55 18.55 4.75 Q18.55 0.95 17.2 0.4 14.15 -0.15 10.6 -1.9 L9.95 -2.45 Q12.15 -3.0 13.85 -5.0 15.2 -6.6 18.0 -6.5 L19.25 -6.95 Q17.0 -7.75 16.45 -8.3 15.7 -8.95 15.7 -10.7 15.7 -12.0 16.25 -12.95 17.1 -14.4 18.95 -14.4 M2.75 -13.4 Q1.45 -11.55 1.45 -9.95 1.45 -9.55 2.3 -8.35 3.1 -7.25 2.9 -6.45 2.65 -6.05 1.65 -6.05 0.8 -6.05 0.05 -7.05 -0.7 -8.1 -0.7 -9.5 -0.7 -11.9 0.2 -12.85 0.8 -13.5 2.3 -13.75 L2.75 -13.4 M9.5 -0.9 Q7.75 0.0 7.0 0.85 6.25 1.65 5.85 3.15 L5.3 5.75 Q4.7 7.6 3.45 7.6 1.95 7.6 0.85 6.65 -0.4 5.55 -0.4 3.75 -0.4 1.6 0.7 0.55 1.45 -0.15 2.35 -0.15 L3.35 0.1 4.35 0.85 Q4.8 -0.05 6.25 -0.8 L9.5 -0.9 M30.3 -8.25 Q31.1 -9.0 32.15 -9.0 34.7 -9.0 34.7 -7.55 L34.2 -5.8 34.95 -5.2 35.65 -4.15 Q35.65 -3.0 35.1 -2.65 L33.05 -2.35 30.1 -2.55 29.5 -2.95 30.1 -3.65 30.35 -4.65 30.0 -5.0 Q29.55 -5.4 29.2 -6.2 29.45 -7.5 30.3 -8.25 M37.95 -8.0 Q38.35 -8.4 38.95 -8.4 39.55 -8.4 40.0 -8.0 40.4 -7.65 40.4 -7.1 40.4 -6.55 40.0 -6.15 39.55 -5.8 38.95 -5.8 38.35 -5.8 37.95 -6.15 37.5 -6.55 37.5 -7.1 37.5 -7.65 37.95 -8.0 M44.55 3.8 Q44.55 4.85 43.85 5.05 41.65 5.85 38.55 7.9 L41.15 8.0 Q41.1 9.3 39.15 10.75 36.6 12.6 30.45 15.2 L31.8 15.95 31.95 16.7 31.95 17.3 31.8 17.45 30.4 17.65 27.75 17.25 27.55 17.1 27.5 16.35 Q27.5 14.55 31.7 13.0 36.65 11.2 38.1 9.05 38.05 8.65 37.45 8.35 36.85 8.05 36.1 8.05 L33.55 7.9 Q33.25 6.85 33.9 5.9 33.0 5.2 32.3 5.05 L31.35 4.95 30.65 4.6 Q32.5 2.85 33.5 2.85 35.2 2.85 35.2 5.4 L34.8 5.7 Q36.85 5.3 39.15 3.85 41.25 2.5 41.85 2.45 L43.95 2.65 Q44.55 2.95 44.55 3.8 M42.3 10.7 Q42.3 10.25 42.7 9.95 43.05 9.65 43.55 9.65 44.05 9.65 44.45 9.95 44.8 10.25 44.8 10.7 L44.45 11.45 43.55 11.75 42.7 11.45 Q42.3 11.15 42.3 10.7 M9.35 16.05 Q9.35 12.8 12.05 12.6 L15.95 13.05 Q16.55 13.05 16.85 12.65 L17.25 12.15 18.7 13.75 Q19.25 14.0 18.5 14.2 17.05 14.6 16.55 15.9 15.7 18.25 15.15 18.15 14.55 17.5 13.95 17.5 L12.7 17.9 Q11.95 18.3 11.45 18.3 10.65 18.3 9.95 17.5 9.35 16.75 9.35 16.05 M0.8 17.3 L0.9 17.05 1.15 16.95 1.4 17.05 1.5 17.3 1.4 17.55 1.15 17.65 0.9 17.55 0.8 17.3 M0.15 23.9 Q-0.25 24.25 -0.85 24.25 -1.45 24.25 -1.85 23.9 -2.25 23.55 -2.25 23.05 -2.25 22.55 -1.85 22.2 -1.45 21.85 -0.85 21.85 -0.25 21.85 0.15 22.2 0.55 22.55 0.55 23.05 0.55 23.55 0.15 23.9 M7.6 20.2 Q7.3 20.5 6.9 20.5 L6.2 20.2 Q5.9 19.9 5.9 19.5 5.9 19.1 6.2 18.8 6.5 18.5 6.9 18.5 7.3 18.5 7.6 18.8 L7.9 19.5 7.6 20.2 M17.9 17.2 L17.8 16.6 Q18.3 15.85 19.45 15.15 L20.25 15.35 Q19.9 17.35 18.85 17.35 L17.9 17.2 M-13.7 -64.1 L-13.95 -64.45 -13.7 -64.75 -13.15 -64.9 -12.55 -64.75 -12.35 -64.45 -12.55 -64.1 -13.15 -64.0 -13.7 -64.1 M-11.45 -63.2 Q-10.15 -62.65 -9.45 -61.8 L-10.5 -56.35 Q-10.3 -55.8 -9.2 -54.8 L-7.75 -53.1 Q-7.85 -52.3 -8.9 -52.2 -8.85 -52.95 -10.1 -54.75 -11.35 -56.55 -11.25 -57.35 L-10.95 -59.45 -10.75 -61.15 Q-10.75 -61.65 -11.1 -62.2 L-11.45 -63.2 M-46.8 -20.05 Q-44.25 -19.1 -43.4 -18.1 -42.7 -17.35 -42.7 -16.0 L-42.8 -15.2 -43.1 -15.05 Q-43.3 -17.85 -45.15 -18.65 L-49.05 -19.25 Q-51.85 -19.65 -53.35 -20.75 -55.35 -22.25 -56.75 -22.75 -55.35 -24.1 -54.95 -23.9 L-53.0 -22.5 -51.9 -21.9 Q-51.3 -21.6 -50.7 -21.6 -47.05 -22.4 -45.7 -21.6 L-46.8 -20.05 M-8.6 -43.45 L-7.65 -43.35 -7.45 -41.7 -8.45 -41.45 Q-10.2 -42.8 -10.2 -43.95 -10.2 -44.75 -7.45 -47.9 -6.65 -47.3 -6.55 -45.8 -6.45 -44.0 -8.6 -43.45 M-3.75 -38.2 L-3.75 -37.55 -3.85 -37.55 -4.55 -37.5 Q-4.85 -37.8 -3.9 -39.0 -3.75 -39.2 -3.75 -38.2 M-4.4 -39.6 Q-5.45 -40.0 -6.75 -40.7 -4.6 -40.2 -4.25 -39.8 L-4.4 -39.6 M-11.1 -40.75 L-11.35 -40.85 -10.5 -41.7 -10.25 -40.75 -11.1 -40.75 M-5.45 -26.35 L-6.6 -26.05 -6.5 -26.75 Q-7.0 -27.4 -8.05 -27.7 -9.15 -28.05 -9.6 -28.5 -7.0 -30.0 -5.5 -27.4 L-5.45 -26.35 M-35.05 -22.55 L-35.55 -19.9 -35.95 -19.6 -36.2 -19.3 Q-37.75 -20.1 -37.9 -22.3 -37.9 -23.35 -37.2 -24.1 L-34.6 -25.65 -35.05 -22.55 M-26.85 -9.7 Q-25.25 -10.6 -23.5 -11.35 -20.0 -12.8 -17.0 -12.55 L-16.05 -11.25 -17.2 -9.8 -16.55 -9.2 Q-16.35 -8.95 -16.65 -8.2 L-15.1 -8.1 Q-12.35 -8.1 -10.55 -9.0 -8.6 -10.0 -8.6 -11.8 -12.2 -17.25 -12.2 -17.95 -10.9 -22.5 -8.4 -24.1 L-7.6 -24.3 -8.4 -22.85 -9.05 -20.85 Q-9.05 -20.25 -5.9 -18.3 L-6.95 -17.25 Q-7.75 -16.1 -7.75 -12.7 -7.75 -9.55 -4.4 -7.55 -1.1 -5.55 -1.1 -3.55 -1.1 -2.45 -1.45 -1.35 -1.95 0.1 -2.85 0.1 -6.6 0.1 -6.2 -2.25 -6.0 -3.55 -6.15 -3.9 -6.5 -4.65 -8.3 -4.65 -10.2 -4.65 -10.1 -3.1 L-10.05 -0.2 -10.6 0.05 -11.8 0.25 -12.75 -0.45 -14.2 -2.1 Q-14.6 -2.5 -20.8 -3.5 L-21.95 -3.3 -23.75 -2.75 -24.6 -2.95 -22.1 -6.4 Q-21.15 -8.25 -26.2 -7.35 -26.2 -8.4 -26.85 -9.7 M-27.25 -4.6 L-27.1 -4.25 -27.25 -3.9 Q-27.4 -3.75 -27.6 -3.75 L-27.95 -3.9 -28.1 -4.25 -27.95 -4.6 -27.6 -4.75 Q-27.4 -4.75 -27.25 -4.6 M-29.05 -1.9 Q-28.45 -1.95 -28.35 -1.35 -28.2 -0.3 -28.95 0.95 -29.55 1.95 -30.05 2.2 L-30.75 2.25 -31.05 -0.15 Q-30.8 -1.55 -30.15 -1.55 L-29.05 -1.9 M-26.05 -0.8 L-26.25 -1.25 -26.05 -1.65 -25.65 -1.85 -25.2 -1.65 -25.05 -1.25 Q-25.05 -1.0 -25.2 -0.8 -25.4 -0.65 -25.65 -0.65 -25.9 -0.65 -26.05 -0.8 M-3.75 -20.75 L-5.1 -21.0 -5.3 -22.7 Q-5.3 -25.05 -4.0 -25.05 -2.1 -25.05 -1.95 -23.2 -1.8 -21.4 -3.75 -20.75 M-0.75 -18.5 L-0.7 -18.3 -1.2 -17.1 -2.0 -15.6 -2.55 -15.95 Q-2.85 -16.2 -2.85 -16.8 -2.85 -17.45 -2.1 -18.05 L-1.15 -18.55 -0.75 -18.5 M-0.55 3.0 Q-0.55 4.15 -3.65 7.2 -6.25 9.8 -8.0 11.0 L-8.65 9.55 -9.05 8.4 Q-9.05 5.45 -5.85 2.7 -3.85 0.95 -2.05 1.5 -0.55 1.95 -0.55 3.0 M-1.85 8.5 L-2.35 8.75 Q-2.7 8.7 -2.85 8.5 -2.55 8.15 -2.0 8.3 L-1.85 8.5 M-1.35 20.35 L-1.7 20.5 -2.05 20.35 -2.2 20.0 -2.05 19.65 -1.7 19.5 Q-1.5 19.5 -1.35 19.65 L-1.2 20.0 -1.35 20.35" fill="#333333" fill-rule="evenodd" stroke="none"/>
    <path d="M5.75 -28.05 L5.3 -21.75 Q3.85 -23.25 3.2 -24.55 2.15 -26.7 2.15 -29.75 2.15 -31.4 5.4 -33.3 8.5 -35.05 9.55 -34.75 L10.8 -34.4 5.75 -28.05 M4.65 -18.4 Q5.8 -16.5 4.85 -14.35 4.15 -13.4 2.45 -12.25 1.0 -11.25 0.75 -11.25 0.15 -11.25 -0.35 -11.55 L-1.3 -12.2 -3.2 -8.75 -2.15 -7.75 Q-0.95 -6.95 1.1 -6.95 1.85 -6.95 3.0 -7.55 L6.25 -9.7 3.7 -12.2 6.4 -11.25 Q9.1 -10.4 9.05 -10.65 L11.3 -10.85 14.2 -10.15 17.4 -9.45 17.15 -14.1 Q20.9 -13.85 23.6 -7.45 25.9 -1.9 25.9 3.5 25.9 6.1 25.0 7.05 24.55 7.6 22.85 8.15 18.95 9.35 17.2 14.7 L16.9 14.85 Q16.3 14.85 16.25 14.5 L16.2 13.75 Q15.65 13.5 14.95 12.7 13.65 11.05 13.1 8.2 L16.1 2.45 14.1 -4.0 15.05 -5.25 10.85 -8.4 12.0 -5.25 -4.3 -2.7 -9.75 -10.85 Q-13.4 -16.45 -13.4 -17.65 -13.4 -18.45 -12.3 -20.25 -11.15 -22.1 -10.2 -22.6 L-12.4 -23.95 Q-14.15 -25.6 -14.15 -28.5 -14.15 -33.2 -9.4 -36.4 -4.35 -39.75 5.45 -41.05 L-0.4 -36.55 Q-3.95 -34.0 -4.5 -30.7 L-0.35 -23.45 Q-1.85 -21.75 -4.7 -19.4 -5.9 -18.45 -5.9 -16.8 -5.9 -14.8 -5.55 -14.0 -5.3 -13.4 -4.05 -12.2 -2.75 -13.05 -2.45 -14.2 L-2.35 -16.0 Q-2.35 -17.75 -0.65 -18.9 0.9 -20.0 2.75 -20.0 3.65 -20.0 4.65 -18.4 M5.3 5.95 Q9.25 6.95 10.5 7.9 L14.1 16.45 12.3 17.6 5.7 13.75 5.1 14.65 1.75 12.4 Q-1.15 10.6 -1.7 10.4 L-0.9 8.0 -3.85 6.15 0.45 5.05 5.3 5.95" fill="url(#gradient0)" fill-rule="evenodd" stroke="none"/>
    <path d="M19.95 -3.3 L19.45 -7.85 19.5 -7.85 Q21.0 -7.4 22.4 -5.4 24.15 -2.9 24.15 0.35 24.15 2.7 21.65 5.9 19.55 8.5 16.25 11.15 L15.7 9.5 15.25 7.55 17.6 4.3 Q19.95 1.05 20.1 -0.35 L19.95 -3.3 M0.6 -14.7 Q-0.05 -14.7 -0.5 -15.15 -1.0 -15.6 -1.0 -16.25 -1.0 -16.9 -0.5 -17.35 -0.05 -17.8 0.6 -17.8 1.25 -17.8 1.75 -17.35 L2.2 -16.25 1.75 -15.15 Q1.25 -14.7 0.6 -14.7 M-5.5 -27.45 L-4.3 -23.45 -4.9 -22.25 -8.75 -15.25 -7.5 -12.2 Q-6.9 -11.1 -5.6 -11.55 L-5.3 -11.1 Q-5.7 -10.25 -6.55 -10.25 -8.55 -10.25 -10.75 -16.0 L-7.15 -21.9 Q-8.55 -22.55 -9.4 -23.8 -10.35 -25.2 -10.35 -26.9 -10.35 -28.1 -9.05 -29.85 L-7.2 -32.5 -5.5 -27.45 M8.45 10.65 Q9.8 11.5 10.9 13.95 L9.7 14.4 8.0 14.6 Q3.85 11.7 3.75 9.25 7.2 9.85 8.45 10.65" fill="#ffff00" fill-rule="evenodd" stroke="none"/>
    <path d="M19.1 8.15 L18.0 8.15 17.7 5.9 Q17.9 4.5 19.25 3.35 21.3 1.55 22.4 -0.05 L22.55 0.1 Q22.6 1.45 21.0 4.55 L19.1 8.15" fill="#ffffff" fill-rule="evenodd" stroke="none"/>
  </g>
  <defs>
    <linearGradient gradientTransform="matrix(-0.0281, -0.0163, 0.0148, -0.0256, 6.05, -12.75)" gradientUnits="userSpaceOnUse" id="gradient0" spreadMethod="pad" x1="-819.2" x2="819.2">
      <stop offset="0.0" stop-color="#ff0000"/>
      <stop offset="1.0" stop-color="#ff7900"/>
    </linearGradient>
  </defs>
</svg>
