<?xml version="1.0" encoding="UTF-8" standalone="no"?>
<svg xmlns:xlink="http://www.w3.org/1999/xlink" height="63.1px" width="83.65px" xmlns="http://www.w3.org/2000/svg">
  <g transform="matrix(1.0, 0.0, 0.0, 1.0, 37.65, 38.85)">
    <path d="M16.1 -19.0 Q16.45 -18.55 16.45 -17.9 16.45 -17.25 16.1 -16.75 15.7 -16.3 15.2 -16.3 14.7 -16.3 14.35 -16.75 13.95 -17.25 13.95 -17.9 13.95 -18.55 14.35 -19.0 L15.2 -19.5 16.1 -19.0 M12.65 -22.15 L13.25 -21.9 13.45 -21.35 13.25 -20.75 12.65 -20.55 Q12.3 -20.55 12.1 -20.75 11.85 -21.0 11.85 -21.35 L12.1 -21.9 12.65 -22.15 M19.95 -13.15 L21.25 -13.0 21.4 -12.85 21.55 -12.15 Q21.55 -10.5 20.05 -9.5 18.5 -8.45 17.75 -9.75 17.35 -9.45 17.3 -8.3 L16.4 -7.95 15.95 -8.15 Q15.8 -8.35 15.8 -9.0 15.8 -10.1 16.65 -10.35 17.55 -10.6 17.75 -12.85 L19.95 -13.15 M1.25 -13.3 L0.75 -13.1 Q0.45 -13.1 0.25 -13.3 L0.05 -13.8 0.25 -14.3 0.75 -14.5 1.25 -14.3 1.45 -13.8 1.25 -13.3 M2.05 -9.2 L2.0 -8.4 1.3 -8.2 Q0.45 -8.85 -0.3 -10.65 L-0.2 -11.4 Q1.0 -11.4 1.45 -11.05 2.05 -10.55 2.05 -9.2 M9.5 -2.75 L10.35 -1.05 9.2 -1.1 8.95 -2.15 9.15 -2.65 9.5 -2.75 M7.45 -1.3 Q7.0 -0.2 6.15 -0.4 L6.05 -0.9 6.9 -1.9 7.45 -1.3 M12.2 -2.65 Q12.45 -4.9 14.4 -4.75 L17.35 -4.35 Q18.05 -4.55 18.85 -5.8 19.6 -6.95 19.85 -6.95 21.85 -6.95 22.7 -6.2 L23.45 -5.15 22.65 -4.15 Q21.9 -3.45 20.95 -3.2 L21.05 -0.05 21.1 3.25 Q20.75 3.25 20.1 3.8 L19.25 2.8 19.8 2.15 20.25 0.9 Q20.25 0.4 19.1 -0.2 17.1 -1.2 12.3 -1.9 L12.2 -2.65 M23.05 -10.25 Q22.85 -10.25 22.8 -10.35 22.7 -10.45 22.7 -11.1 22.7 -13.05 25.75 -12.5 L25.9 -11.75 Q25.5 -11.2 24.45 -10.7 23.5 -10.25 23.05 -10.25 M45.5 9.45 L45.5 9.05 46.0 9.15 45.5 9.45 M20.45 15.95 L19.8 16.95 19.0 17.05 Q18.8 16.9 18.7 16.35 L18.95 14.9 20.7 14.8 20.45 15.95 M21.45 7.6 L19.35 7.6 19.35 5.5 21.45 5.5 21.45 7.6 M16.7 12.1 L17.15 12.35 17.3 12.85 17.15 13.4 Q16.95 13.6 16.7 13.6 16.45 13.6 16.3 13.4 L16.1 12.85 16.3 12.35 Q16.45 12.1 16.7 12.1 M4.55 4.35 Q4.0 4.95 3.2 4.95 2.4 4.95 1.85 4.35 1.3 3.7 1.3 2.85 1.3 2.0 1.85 1.4 2.4 0.75 3.2 0.75 4.0 0.75 4.55 1.4 5.1 2.0 5.1 2.85 5.1 3.7 4.55 4.35 M7.45 19.55 L7.85 19.45 Q7.8 20.25 7.05 20.05 L7.45 19.55 M16.15 15.25 L16.65 15.45 16.85 15.95 16.65 16.45 16.15 16.65 Q15.85 16.65 15.65 16.45 L15.45 15.95 15.65 15.45 16.15 15.25 M11.0 16.85 L10.8 15.95 11.5 14.8 Q12.25 13.8 13.35 13.6 16.1 15.95 11.6 17.05 L11.0 16.85 M-35.65 -24.95 Q-35.35 -24.45 -35.35 -23.75 -35.35 -23.05 -35.65 -22.55 -36.0 -22.05 -36.5 -22.05 -37.0 -22.05 -37.3 -22.55 -37.65 -23.05 -37.65 -23.75 -37.65 -24.45 -37.3 -24.95 L-36.5 -25.45 Q-36.0 -25.45 -35.65 -24.95 M-22.15 -7.85 L-23.85 -9.0 Q-23.55 -11.1 -18.9 -11.85 L-18.05 -11.8 -17.55 -11.65 -17.35 -10.6 -19.05 -8.4 Q-20.1 -7.05 -20.65 -7.05 -20.8 -7.05 -22.15 -7.85 M-28.95 -0.75 L-30.2 -0.8 -31.0 -1.85 -29.9 -2.9 Q-28.95 -2.05 -28.95 -0.75 M-22.0 -4.15 Q-22.15 -4.05 -22.35 -4.0 -22.75 -3.85 -22.8 -4.0 L-21.25 -5.8 -21.45 -5.0 -22.0 -4.15 M-4.0 -24.0 Q-3.7 -24.4 -3.3 -24.4 -2.9 -24.4 -2.6 -24.0 -2.3 -23.6 -2.3 -23.05 -2.3 -22.5 -2.6 -22.1 L-3.3 -21.7 Q-3.7 -21.7 -4.0 -22.1 L-4.3 -23.05 -4.0 -24.0 M-8.0 -20.5 Q-7.6 -19.45 -7.6 -17.5 -7.6 -15.75 -7.9 -12.85 -9.5 -13.75 -9.9 -14.5 -10.3 -15.2 -9.35 -15.3 L-10.2 -17.3 -10.75 -18.9 -10.25 -20.45 -9.1 -22.1 Q-8.3 -21.35 -8.0 -20.5 M-10.5 -7.2 Q-9.9 -6.65 -9.9 -5.8 -9.9 -3.5 -12.85 -2.35 -15.05 -2.35 -17.35 -3.4 -19.7 -4.45 -19.7 -5.45 -19.7 -6.3 -18.95 -7.0 -18.1 -7.75 -16.65 -8.0 L-14.85 -7.65 -13.15 -7.3 -12.8 -7.6 -12.05 -7.8 Q-11.1 -7.8 -10.5 -7.2 M-8.9 -8.25 L-8.6 -9.35 Q-8.35 -9.8 -7.95 -9.8 L-7.25 -9.35 Q-7.0 -8.9 -7.0 -8.25 -7.0 -7.6 -7.25 -7.15 L-7.95 -6.7 Q-8.35 -6.7 -8.6 -7.15 L-8.9 -8.25 M-2.2 -2.55 Q-2.75 -1.9 -3.55 -1.9 -4.35 -1.9 -4.9 -2.55 -5.45 -3.2 -5.45 -4.15 -5.45 -5.1 -4.9 -5.75 -4.35 -6.4 -3.55 -6.4 -2.75 -6.4 -2.2 -5.75 -1.65 -5.1 -1.65 -4.15 -1.65 -3.2 -2.2 -2.55 M-0.9 2.8 Q-0.9 3.4 -1.3 3.8 -1.7 4.2 -2.3 4.2 -2.9 4.2 -3.3 3.8 -3.7 3.4 -3.7 2.8 -3.7 2.2 -3.3 1.8 -2.9 1.4 -2.3 1.4 -1.7 1.4 -1.3 1.8 -0.9 2.2 -0.9 2.8 M-2.7 5.6 L-4.3 7.15 Q-5.35 7.95 -6.55 7.9 L-7.1 7.65 -7.3 6.65 -6.3 5.35 Q-5.25 4.5 -3.55 4.9 L-2.7 5.6 M-0.3 22.8 Q-0.05 23.05 -0.05 23.4 L-0.3 24.0 -0.95 24.25 -1.55 24.0 -1.85 23.4 -1.55 22.8 Q-1.3 22.55 -0.95 22.55 L-0.3 22.8" fill="#333333" fill-rule="evenodd" stroke="none"/>
    <path d="M10.05 -31.95 L6.05 -28.0 1.4 -27.7 2.3 -28.65 Q3.15 -29.75 3.15 -30.4 3.15 -31.3 0.45 -34.25 -0.55 -34.9 -1.95 -35.2 L-5.1 -35.6 Q-10.5 -35.6 -11.3 -34.2 L-12.05 -32.7 Q-12.75 -31.7 -14.35 -30.95 L-14.9 -31.85 Q-15.5 -32.85 -15.5 -33.5 L-9.5 -37.5 -3.15 -38.85 Q0.9 -38.85 4.6 -37.6 10.1 -35.75 10.05 -31.95 M8.9 -20.85 L9.0 -19.2 Q9.0 -12.45 4.95 -12.45 3.35 -12.45 2.25 -13.5 1.25 -14.5 1.25 -15.7 1.25 -16.3 2.1 -16.7 L6.0 -18.25 Q6.35 -18.4 7.4 -19.5 L8.6 -20.75 8.9 -20.85 M7.45 -6.5 Q6.2 -6.5 2.9 -5.05 -1.4 -3.2 -3.15 -0.75 -5.6 -2.55 -5.6 -3.55 -5.6 -4.05 -4.95 -4.8 -4.3 -5.6 -4.3 -6.1 -4.3 -10.45 -7.2 -14.4 -10.1 -18.45 -13.75 -19.1 L-13.1 -20.45 Q-12.9 -21.25 -13.25 -21.95 -7.65 -23.85 -3.05 -24.55 L0.6 -24.9 0.25 -23.9 -0.6 -23.8 Q-1.8 -23.8 -4.25 -21.45 -6.6 -19.2 -6.6 -18.4 -6.6 -14.7 -2.05 -11.75 1.95 -9.2 5.3 -9.2 7.15 -9.2 9.2 -10.5 12.8 -10.5 13.8 -8.0 15.1 -4.85 15.8 -4.5 L14.1 -2.25 Q13.55 -2.35 14.1 -3.5 L13.5 -3.1 12.55 -2.9 Q11.45 -2.9 9.65 -4.7 L7.45 -6.5 M19.7 -10.7 L27.2 -9.15 31.9 3.7 31.95 4.55 Q31.95 5.9 31.75 6.2 31.4 6.75 29.8 7.05 L12.2 8.9 11.65 10.35 Q11.1 11.9 11.1 12.5 L12.95 13.3 Q14.9 14.1 15.4 16.6 L15.2 16.95 Q10.0 14.55 8.9 12.25 8.4 9.5 7.1 7.55 L21.95 -0.95 23.85 -6.9 Q23.4 -8.05 18.4 -9.1 L19.7 -10.7 M-0.45 3.15 L5.7 0.35 2.3 5.8 3.6 10.25 Q4.4 10.55 5.0 11.25 L5.4 11.8 Q3.25 11.4 0.8 10.05 -3.0 7.95 -3.0 5.3 -3.0 4.45 -0.45 3.15" fill="url(#gradient0)" fill-rule="evenodd" stroke="none"/>
  </g>
  <defs>
    <linearGradient gradientTransform="matrix(-0.0301, -0.0222, 0.0148, -0.0201, 6.1, -11.15)" gradientUnits="userSpaceOnUse" id="gradient0" spreadMethod="pad" x1="-819.2" x2="819.2">
      <stop offset="0.0" stop-color="#ff0000"/>
      <stop offset="1.0" stop-color="#ff7900"/>
    </linearGradient>
  </defs>
</svg>
