<?xml version="1.0" encoding="UTF-8" standalone="no"?>
<svg xmlns:xlink="http://www.w3.org/1999/xlink" height="49.6px" width="49.2px" xmlns="http://www.w3.org/2000/svg">
  <g transform="matrix(1.0, 0.0, 0.0, 1.0, 22.15, 34.4)">
    <path d="M15.95 -16.6 Q15.5 -16.15 14.85 -16.1 L14.75 -16.15 14.7 -16.85 15.85 -17.9 15.95 -16.6 M18.7 -11.4 L18.9 -12.25 20.65 -12.3 19.75 -11.0 Q19.4 -10.7 18.75 -10.75 L18.7 -11.4 M18.1 -3.55 Q18.95 -4.5 19.65 -4.85 L20.4 -4.6 Q19.2 -3.25 17.85 -3.15 16.9 -2.3 18.1 -3.55 M15.6 -3.3 L16.9 -3.3 16.9 -2.05 15.6 -2.05 15.6 -3.3 M4.1 3.55 L3.25 3.85 Q2.75 3.85 2.4 3.55 2.05 3.25 2.05 2.85 2.05 2.45 2.4 2.15 2.75 1.85 3.25 1.85 3.75 1.85 4.1 2.15 L4.45 2.85 4.1 3.55 M-20.8 -11.1 Q-20.25 -11.1 -19.85 -10.7 -19.45 -10.35 -19.45 -9.8 -19.45 -9.25 -19.85 -8.85 -20.25 -8.5 -20.8 -8.5 -21.35 -8.5 -21.75 -8.85 -22.15 -9.25 -22.15 -9.8 -22.15 -10.35 -21.75 -10.7 -21.35 -11.1 -20.8 -11.1 M-8.05 -17.35 Q-8.45 -16.85 -9.05 -16.85 -9.65 -16.85 -10.05 -17.35 -10.45 -17.9 -10.45 -18.65 -10.45 -19.4 -10.05 -19.9 -9.65 -20.45 -9.05 -20.45 -8.45 -20.45 -8.05 -19.9 -7.65 -19.4 -7.65 -18.65 -7.65 -17.9 -8.05 -17.35 M-14.25 -6.5 Q-14.25 -5.3 -15.3 -4.65 -16.15 -4.1 -17.45 -4.05 L-17.65 -5.5 Q-17.6 -6.55 -17.1 -6.95 L-15.95 -7.2 -15.05 -7.0 -14.25 -6.5 M-11.55 -5.0 L-12.25 -4.8 -12.9 -5.0 -13.2 -5.5 -12.9 -6.0 -12.25 -6.2 -11.55 -6.0 -11.3 -5.5 Q-11.3 -5.2 -11.55 -5.0 M-2.55 -5.05 Q-2.55 -3.75 -3.0 -3.35 -3.35 -3.05 -4.35 -3.05 L-4.55 -3.1 Q-4.7 -2.7 -4.7 -3.7 -4.7 -4.4 -4.25 -4.9 L-2.75 -6.05 Q-2.55 -6.05 -2.55 -5.05 M-4.3 4.7 Q-3.95 4.7 -3.65 5.0 -3.4 5.25 -3.4 5.65 L-3.65 6.35 -4.3 6.6 -4.9 6.35 -5.2 5.65 Q-5.2 5.25 -4.9 5.0 -4.65 4.7 -4.3 4.7" fill="#333333" fill-rule="evenodd" stroke="none"/>
    <path d="M11.3 -31.55 L6.25 -34.4 10.35 -33.4 Q13.65 -32.4 13.65 -32.05 13.65 -28.15 10.7 -26.75 8.45 -25.7 3.05 -25.7 L-10.55 -26.4 -10.55 -29.7 -9.45 -29.6 Q-8.8 -29.6 -6.55 -30.3 L-4.45 -31.0 -6.2 -28.65 Q1.05 -27.35 3.2 -27.55 7.15 -27.9 11.3 -31.55 M13.15 -13.4 L12.4 -12.85 Q13.5 -10.85 16.3 -9.5 18.5 -8.4 19.85 -8.4 L26.8 -9.0 27.05 -6.4 Q26.25 -1.8 23.9 -1.8 21.65 -1.8 21.65 -2.95 L21.7 -6.05 15.85 -7.55 9.25 -8.35 1.4 -7.65 -12.0 -16.75 -9.65 -19.2 -9.85 -18.75 Q-10.85 -16.9 -5.15 -13.8 0.15 -10.95 2.75 -10.95 L5.3 -11.0 5.3 -13.4 13.15 -13.4 M4.25 -14.3 Q3.8 -13.9 3.2 -13.9 2.6 -13.9 2.15 -14.3 1.7 -14.75 1.7 -15.35 1.7 -15.95 2.15 -16.35 2.6 -16.8 3.2 -16.8 3.8 -16.8 4.25 -16.35 4.7 -15.95 4.7 -15.35 4.7 -14.75 4.25 -14.3 M-1.8 8.8 L0.25 5.2 -0.75 4.05 Q0.35 3.1 5.3 2.2 L16.25 1.25 17.75 1.7 19.25 2.15 21.3 1.7 22.9 1.1 Q22.4 3.75 18.3 4.05 14.2 4.3 13.9 5.8 L10.4 4.9 7.65 4.4 Q2.15 4.4 2.15 7.8 L3.5 9.15 21.15 10.85 Q17.75 12.9 15.05 13.95 13.1 14.7 11.3 15.05 9.25 15.45 9.95 14.7 9.75 14.45 9.85 14.15 10.05 13.45 11.75 13.0 L-1.1 9.9 Q-0.45 9.95 -1.8 8.8" fill="url(#gradient0)" fill-rule="evenodd" stroke="none"/>
  </g>
  <defs>
    <linearGradient gradientTransform="matrix(-0.022, -0.022, 0.0173, -0.0173, 6.65, -10.75)" gradientUnits="userSpaceOnUse" id="gradient0" spreadMethod="pad" x1="-819.2" x2="819.2">
      <stop offset="0.0" stop-color="#ff0000"/>
      <stop offset="1.0" stop-color="#ff7900"/>
    </linearGradient>
  </defs>
</svg>
