<?xml version="1.0" encoding="UTF-8" standalone="no"?>
<svg xmlns:xlink="http://www.w3.org/1999/xlink" height="123.55px" width="210.0px" xmlns="http://www.w3.org/2000/svg">
  <g transform="matrix(1.0, 0.0, 0.0, 1.0, 173.75, 84.95)">
    <path d="M4.1 -35.95 Q5.05 -34.7 6.3 -33.55 L9.45 -32.05 Q12.55 -30.4 13.4 -28.9 16.7 -24.2 20.25 -22.7 24.9 -20.7 36.05 -20.4 L36.25 -19.55 26.15 -16.6 21.95 -14.1 15.85 -8.15 Q14.8 -9.75 12.1 -10.85 8.7 -12.25 3.85 -12.25 0.45 -12.25 -4.2 -9.2 -9.15 -5.95 -9.15 -2.95 -9.15 -1.45 -4.4 1.55 0.35 4.6 0.35 5.55 0.35 6.3 -0.5 7.15 -2.05 8.65 -5.45 9.05 L-10.8 9.2 -17.35 8.9 Q-18.1 8.9 -19.95 9.9 -22.75 11.4 -24.65 14.15 -25.45 15.55 -25.3 14.2 -25.95 11.0 -27.3 9.95 -29.5 8.2 -35.65 8.2 -38.75 8.2 -42.55 13.85 -46.35 19.5 -48.2 19.5 L-49.6 18.6 Q-51.15 17.65 -51.75 17.65 -52.1 17.65 -52.75 18.8 -53.5 20.2 -54.75 20.95 -56.1 21.75 -57.7 21.75 L-61.85 21.55 -66.35 21.25 Q-66.95 21.2 -69.15 19.7 -71.35 18.5 -72.5 18.5 -75.8 18.5 -78.65 20.85 -81.5 23.2 -85.35 29.2 -86.7 31.3 -90.45 31.7 -94.25 32.05 -95.0 33.1 L-96.35 35.35 Q-96.95 36.75 -96.95 38.3 L-104.45 38.55 -114.85 38.6 Q-116.1 38.5 -118.45 37.55 L-117.4 37.15 Q-117.2 36.85 -117.2 32.35 -117.2 31.65 -121.3 30.1 -125.15 28.65 -126.05 28.65 -127.2 28.65 -128.4 30.3 L-129.45 31.95 Q-142.45 31.95 -145.0 22.8 -145.8 19.85 -147.25 17.0 -148.9 13.7 -150.45 12.55 -150.65 12.4 -151.75 12.1 L-153.25 11.55 -156.4 9.9 Q-159.1 9.9 -160.3 12.85 L-161.45 16.4 Q-162.35 12.95 -166.45 7.75 -170.9 2.15 -173.75 2.1 L-171.75 -1.3 Q-170.45 -3.4 -170.45 -5.0 -170.45 -6.55 -171.35 -10.95 L-171.7 -11.25 Q-172.0 -11.45 -172.0 -12.05 L-171.25 -13.0 Q-170.5 -13.6 -170.4 -14.25 L-170.7 -15.0 -171.05 -16.05 Q-171.05 -16.5 -167.7 -21.3 -167.25 -22.65 -167.25 -23.95 -167.25 -24.7 -168.95 -28.85 L-170.65 -33.05 -166.4 -40.2 Q-166.4 -40.6 -167.4 -41.55 -168.4 -42.5 -168.4 -42.95 -167.5 -45.8 -163.3 -51.85 -162.55 -52.9 -162.25 -54.85 -162.05 -56.05 -160.95 -56.05 L-159.05 -55.55 -157.15 -55.05 Q-152.85 -55.05 -149.15 -58.75 -147.6 -60.35 -144.1 -65.45 -142.55 -67.7 -141.95 -71.5 -141.4 -74.75 -139.95 -76.05 L-137.55 -78.65 Q-136.95 -79.35 -135.7 -79.35 -135.2 -79.35 -134.95 -78.9 -134.7 -78.45 -134.2 -78.45 L-130.35 -80.45 -124.45 -83.4 Q-122.2 -84.4 -120.85 -84.6 L-119.4 -84.95 -118.6 -84.6 Q-119.4 -81.85 -119.4 -79.5 -119.4 -74.15 -116.0 -74.0 -113.2 -73.9 -109.4 -74.15 L-105.95 -74.4 -105.25 -74.1 -104.15 -73.85 Q-103.55 -73.85 -102.85 -74.3 L-100.45 -75.9 Q-100.45 -76.2 -99.45 -76.2 -97.4 -76.2 -96.0 -75.3 -94.45 -74.25 -93.5 -74.15 -92.85 -74.1 -90.95 -73.0 -88.9 -71.75 -88.65 -70.95 -88.0 -65.7 -87.25 -63.95 -86.05 -61.2 -79.75 -61.2 L-77.65 -61.5 Q-77.0 -61.75 -75.85 -62.8 -75.25 -63.4 -73.3 -63.3 L-70.05 -63.05 Q-68.05 -63.05 -65.0 -64.4 -61.95 -65.8 -59.7 -65.8 L-57.85 -65.4 -53.65 -63.65 -56.75 -60.55 -57.7 -59.4 -57.95 -58.45 Q-57.95 -53.65 -54.0 -50.8 -50.9 -48.55 -47.5 -48.55 -46.4 -48.55 -45.55 -50.2 -44.45 -52.35 -42.05 -53.4 L-33.3 -57.45 -32.9 -57.15 Q-32.4 -56.4 -27.35 -54.65 -19.85 -52.15 -15.2 -53.2 -22.55 -46.85 -22.45 -46.45 L-22.65 -46.75 Q-22.85 -47.05 -23.45 -47.05 -25.7 -47.05 -27.55 -44.5 -29.15 -42.3 -29.15 -40.6 -29.15 -38.5 -27.3 -36.7 -25.5 -34.95 -25.5 -32.95 -25.5 -31.15 -26.5 -27.25 L-27.5 -23.3 Q-27.5 -22.3 -26.15 -21.2 -24.4 -19.75 -21.4 -19.75 -15.5 -19.75 -12.55 -22.4 -10.65 -24.1 -9.1 -28.15 -7.5 -32.6 -6.25 -33.95 -3.95 -36.6 0.85 -36.6 3.35 -36.6 4.1 -35.95" fill="#a8fffd" fill-rule="evenodd" stroke="none"/>
    <path d="M-34.45 -49.75 Q-29.3 -49.65 -26.05 -49.9 L-32.05 -44.05 -35.8 -40.0 -33.65 -35.05 Q-31.5 -30.1 -31.5 -28.6 -31.5 -28.15 -32.85 -25.95 -34.35 -23.4 -35.45 -22.7 -30.65 -22.85 -30.55 -21.45 L-30.55 -19.8 Q-30.3 -18.7 -29.1 -17.8 -28.05 -17.0 -25.4 -16.7 -23.65 -16.5 -23.15 -15.55 -22.65 -14.7 -21.2 -14.7 -20.15 -14.7 -19.5 -15.4 -18.45 -16.55 -16.7 -17.45 -19.7 -11.55 -20.65 -10.85 -21.3 -10.45 -22.2 -11.05 -23.8 -10.8 -26.05 -8.0 -28.2 -5.45 -31.3 -5.45 L-33.15 -5.7 -34.6 -6.7 Q-36.1 -7.85 -38.05 -9.95 -39.7 -11.7 -40.5 -12.1 -41.6 -12.65 -42.7 -13.95 -43.1 -14.7 -46.0 -16.9 L-49.1 -19.25 Q-50.85 -20.4 -51.2 -20.4 L-56.5 -20.8 -59.7 -21.2 Q-55.7 -21.9 -55.35 -24.65 L-55.25 -28.25 -51.6 -33.0 Q-50.15 -34.9 -50.15 -35.8 -50.15 -37.45 -54.7 -38.15 -60.5 -39.05 -62.45 -40.45 -67.15 -43.8 -68.7 -49.7 -70.05 -54.8 -75.2 -57.0 L-66.5 -59.15 -61.35 -60.15 Q-62.65 -57.45 -62.65 -55.75 L-62.2 -53.8 -61.65 -52.25 -61.2 -51.75 -60.2 -50.75 Q-59.25 -49.7 -57.15 -48.45 -55.15 -47.25 -54.55 -47.25 -52.85 -47.25 -51.4 -45.85 -49.9 -44.5 -45.7 -44.5 L-44.15 -46.25 Q-42.1 -48.2 -39.4 -49.25 L-34.45 -49.75 M1.3 -32.0 Q4.1 -32.0 6.6 -28.95 9.0 -25.4 10.1 -24.3 10.65 -23.75 10.8 -22.75 L11.3 -21.25 Q12.45 -19.65 19.05 -19.45 14.85 -17.6 8.45 -16.7 L-2.7 -15.45 Q-7.65 -13.6 -8.9 -12.2 L-10.15 -10.1 -11.65 -7.4 -13.25 -5.7 -14.1 -4.9 Q-14.1 -3.9 -13.9 -4.25 L-11.85 -1.45 Q-11.3 -0.6 -11.3 0.05 -12.6 1.9 -13.05 3.8 -13.25 4.85 -13.95 5.65 -14.6 6.45 -15.2 6.45 L-18.0 6.35 Q-20.9 6.6 -22.2 8.3 -25.9 3.65 -30.45 0.75 -38.75 6.45 -39.75 6.45 -40.25 6.45 -40.6 6.1 -40.95 5.7 -41.45 5.7 L-42.9 6.1 -44.7 7.05 Q-46.0 8.25 -46.3 9.25 L-46.55 10.2 -49.5 12.55 Q-51.6 14.0 -52.95 14.0 -54.6 14.0 -59.7 12.8 L-64.8 14.2 Q-69.6 15.6 -70.35 15.6 -72.0 15.6 -73.1 13.45 -74.05 11.6 -77.45 12.3 -76.6 10.95 -76.45 10.05 -76.3 8.95 -76.3 3.95 -76.3 3.15 -77.05 1.55 L-76.5 2.25 Q-74.0 3.5 -72.7 3.5 -69.3 3.5 -68.05 2.05 -66.15 -0.15 -64.65 -0.8 L-60.75 -1.8 Q-58.15 -2.4 -58.2 -2.95 L-57.75 -5.8 -57.3 -8.7 Q-57.8 -10.15 -56.75 -11.3 L-54.4 -12.2 -51.95 -12.7 Q-50.5 -12.25 -50.5 -12.1 L-50.4 -11.3 Q-48.95 -9.4 -46.2 -9.15 L-41.45 -8.7 -40.8 -8.05 Q-40.2 -7.1 -37.65 -5.35 -35.7 -4.0 -34.45 -2.75 -33.9 -2.2 -33.25 -2.2 -29.9 -2.2 -25.55 -5.1 -19.85 -8.9 -18.75 -9.35 -16.3 -10.3 -15.85 -12.85 -15.25 -16.05 -13.85 -17.4 L-11.2 -18.9 Q-9.5 -19.75 -9.05 -21.2 -8.25 -23.65 -5.45 -27.3 -1.75 -32.0 1.3 -32.0" fill="url(#gradient0)" fill-rule="evenodd" stroke="none"/>
  </g>
  <defs>
    <radialGradient cx="0" cy="0" gradientTransform="matrix(0.219, 0.0598, -0.0602, 0.2206, -148.95, -32.95)" gradientUnits="userSpaceOnUse" id="gradient0" r="819.2" spreadMethod="pad">
      <stop offset="0.34901960784313724" stop-color="#ca0000"/>
      <stop offset="1.0" stop-color="#ffffff"/>
    </radialGradient>
  </defs>
</svg>
