<?xml version="1.0" encoding="UTF-8" standalone="no"?>
<svg xmlns:xlink="http://www.w3.org/1999/xlink" height="92.75px" width="105.75px" xmlns="http://www.w3.org/2000/svg">
  <g transform="matrix(1.0, 0.0, 0.0, 1.0, 161.7, 64.15)">
    <path d="M-106.75 -54.3 Q-103.9 -58.7 -104.1 -64.1 L-101.95 -64.1 -98.95 -63.8 -97.55 -63.3 Q-93.35 -60.8 -89.05 -58.75 L-87.85 -58.15 Q-84.05 -56.25 -79.9 -53.55 -76.75 -51.5 -75.75 -48.55 L-75.2 -46.9 Q-74.75 -45.45 -74.2 -44.75 L-73.8 -44.0 Q-73.1 -42.35 -71.2 -41.1 L-70.8 -40.5 -70.4 -40.05 Q-69.15 -39.35 -68.4 -37.5 -67.8 -36.1 -66.0 -35.8 L-64.95 -35.65 -59.95 -35.5 -57.85 -35.15 -56.95 -34.95 -55.95 -34.95 Q-58.7 -33.45 -61.2 -31.6 L-61.4 -30.95 Q-61.25 -29.3 -60.75 -28.3 L-60.75 -27.9 -60.8 -26.0 -60.65 -24.95 Q-60.6 -24.1 -61.4 -23.8 L-62.0 -23.55 -67.3 -20.65 -67.9 -19.95 -68.65 -17.0 -68.75 -16.45 -68.85 -12.45 Q-68.75 -9.85 -66.0 -9.25 L-65.4 -9.1 Q-63.1 -8.5 -62.45 -6.95 -62.05 -6.05 -61.45 -5.95 -61.85 -5.1 -63.45 -5.3 -66.35 -5.65 -68.45 -3.95 L-68.9 -3.4 -70.1 -1.65 -70.5 -1.8 -73.5 -2.85 Q-76.5 -4.25 -78.5 -7.45 L-79.55 -8.9 Q-82.25 -12.05 -83.9 -15.45 -84.85 -17.35 -86.25 -19.1 -87.4 -20.5 -88.95 -20.4 L-97.45 -19.95 -98.25 -20.2 Q-99.35 -21.1 -100.95 -20.9 -104.35 -20.45 -104.95 -23.45 -105.45 -25.6 -103.85 -26.8 -102.05 -28.15 -101.6 -30.0 L-101.35 -31.45 Q-101.1 -33.45 -102.0 -34.9 -103.5 -37.4 -105.95 -39.45 L-106.3 -40.0 Q-106.6 -41.35 -107.6 -42.3 -108.75 -43.5 -108.3 -45.4 L-108.0 -46.45 Q-107.3 -48.55 -107.5 -50.95 -107.65 -52.9 -106.75 -54.3 M-145.5 -52.45 Q-142.15 -55.3 -140.35 -57.3 L-139.5 -58.0 -138.05 -59.0 -136.4 -59.8 -136.3 -59.85 -135.0 -60.05 -133.0 -60.6 -132.45 -60.7 -131.45 -60.9 Q-127.5 -61.65 -125.6 -59.35 -124.6 -58.2 -124.9 -56.45 -125.2 -54.7 -124.1 -54.15 L-123.45 -53.45 Q-122.4 -51.15 -120.6 -49.75 L-119.8 -49.05 -119.1 -48.3 -117.0 -45.9 Q-113.3 -41.65 -111.0 -36.95 L-110.2 -35.7 Q-109.95 -35.45 -110.15 -35.05 -111.3 -32.8 -113.4 -31.35 L-114.55 -30.6 -115.9 -29.85 Q-116.9 -29.4 -117.05 -28.45 L-117.35 -26.95 Q-117.7 -24.75 -117.0 -22.95 L-115.8 -18.9 Q-115.7 -18.45 -116.05 -18.0 -117.15 -16.45 -117.6 -15.0 -117.95 -13.9 -119.5 -13.65 L-121.95 -13.35 -125.45 -13.05 Q-128.3 -12.8 -130.15 -14.2 L-130.95 -14.5 Q-134.95 -14.85 -136.5 -12.5 -137.35 -11.25 -139.0 -10.0 -140.55 -8.8 -141.95 -6.95 -143.8 -4.55 -146.55 -2.05 -149.3 0.4 -152.95 1.05 L-156.4 1.55 -156.6 1.1 -160.05 -6.95 Q-160.8 -8.75 -161.2 -11.45 -161.85 -16.2 -161.65 -21.45 L-161.25 -27.45 -161.15 -28.0 -160.85 -29.4 Q-160.0 -33.4 -158.15 -37.5 -157.6 -38.65 -156.5 -38.7 -156.25 -38.7 -156.0 -38.95 -154.35 -40.9 -151.0 -40.75 L-150.0 -40.75 -147.55 -41.15 -146.95 -41.35 -146.5 -41.45 Q-148.6 -42.05 -148.95 -44.45 -149.2 -46.15 -148.7 -47.05 -148.5 -47.45 -148.45 -47.95 -148.2 -51.1 -146.05 -52.05 L-145.5 -52.45 M-102.4 -1.95 Q-102.35 -3.8 -100.5 -4.6 -98.75 -5.4 -96.9 -6.35 -95.4 -7.15 -93.45 -7.2 L-91.95 -7.35 Q-88.3 -8.0 -86.3 -6.1 L-84.05 -3.85 -83.6 -2.9 Q-83.2 -1.25 -82.3 0.25 -81.95 0.8 -81.9 1.55 -81.75 5.85 -82.75 9.6 -82.95 10.3 -82.8 11.05 -82.65 12.1 -83.25 12.45 L-83.6 13.0 -83.85 13.6 -84.65 15.95 -87.95 18.05 -88.85 18.65 Q-91.65 21.3 -94.9 23.1 L-97.95 24.65 -100.6 25.85 Q-102.75 26.8 -105.05 27.4 L-105.8 27.8 Q-106.5 28.35 -108.0 28.3 L-110.0 28.05 -109.9 28.45 -109.75 28.6 Q-111.4 27.7 -112.15 25.6 -112.95 23.1 -111.75 20.65 -111.1 19.35 -110.3 18.8 -109.95 18.55 -109.5 18.45 -106.85 17.8 -105.55 16.0 -104.5 14.6 -104.3 13.5 -104.2 13.05 -104.5 12.6 L-106.4 10.0 -107.0 9.05 Q-107.5 8.1 -108.25 7.7 L-108.4 7.05 Q-108.0 4.5 -105.8 2.75 L-104.45 2.0 -101.95 1.05 Q-101.6 1.2 -102.2 -0.55 L-102.4 -1.95" fill="url(#gradient0)" fill-rule="evenodd" stroke="none"/>
  </g>
  <defs>
    <radialGradient cx="0" cy="0" gradientTransform="matrix(0.219, 0.0598, -0.0602, 0.2206, -148.95, -32.95)" gradientUnits="userSpaceOnUse" id="gradient0" r="819.2" spreadMethod="pad">
      <stop offset="0.0" stop-color="#ca0000"/>
      <stop offset="0.6862745098039216" stop-color="#ffffff"/>
    </radialGradient>
  </defs>
</svg>
