<?xml version="1.0" encoding="UTF-8" standalone="no"?>
<svg xmlns:xlink="http://www.w3.org/1999/xlink" height="94.45px" width="93.1px" xmlns="http://www.w3.org/2000/svg">
  <g transform="matrix(1.0, 0.0, 0.0, 1.0, 160.9, 64.4)">
    <path d="M-109.5 -55.4 Q-107.2 -54.15 -107.2 -51.95 L-107.4 -50.95 Q-108.3 -48.2 -108.05 -44.95 L-107.8 -43.0 -107.45 -41.95 Q-105.4 -37.2 -101.55 -33.35 -99.85 -31.7 -99.3 -29.5 L-99.15 -28.9 Q-98.9 -27.45 -100.3 -26.65 L-101.05 -26.05 Q-103.85 -22.8 -104.35 -18.95 L-104.75 -17.6 -105.2 -16.8 -105.6 -16.0 -105.9 -15.4 -108.45 -10.95 Q-108.7 -10.45 -109.1 -10.2 -109.45 -9.95 -109.95 -9.95 -111.95 -9.85 -113.15 -8.1 -114.05 -6.8 -114.7 -6.2 L-114.95 -5.45 -114.6 -0.95 Q-114.3 2.1 -115.85 4.6 L-118.65 8.9 -121.0 12.0 -128.15 20.4 -129.4 21.6 Q-131.75 23.6 -134.95 23.4 L-137.95 23.05 -140.3 23.0 -140.85 21.95 Q-141.85 20.35 -143.4 19.4 L-144.35 18.45 Q-146.85 13.85 -150.85 10.85 L-151.55 10.05 -154.6 4.6 Q-155.9 2.2 -156.45 -0.45 -157.4 -5.25 -158.95 -9.95 -160.4 -14.45 -160.7 -19.45 L-160.8 -20.45 Q-161.0 -22.95 -160.8 -25.45 L-160.5 -26.45 Q-159.4 -28.4 -158.9 -30.95 -158.75 -31.95 -158.25 -32.6 L-157.85 -33.4 -157.55 -34.0 Q-156.8 -35.15 -156.0 -36.95 -154.5 -40.45 -152.15 -44.05 L-149.55 -47.95 -146.8 -51.8 -146.1 -52.55 -144.65 -52.6 Q-144.5 -52.2 -144.0 -52.2 L-143.45 -52.25 -140.95 -52.05 -139.35 -52.2 -138.55 -52.6 Q-135.65 -53.45 -133.05 -54.6 L-130.95 -55.25 -128.5 -55.45 Q-125.85 -55.4 -127.05 -57.4 L-127.45 -58.0 Q-128.6 -59.65 -127.45 -61.4 L-126.95 -61.85 -121.9 -64.25 -121.25 -64.4 -120.85 -64.1 Q-115.55 -61.15 -111.2 -56.7 L-109.5 -55.4 M-74.4 14.85 L-74.95 15.6 -75.3 16.1 -75.7 16.75 Q-76.3 17.2 -75.75 18.45 -74.95 20.35 -72.45 20.5 -70.2 20.7 -69.4 22.55 L-68.8 23.4 Q-67.4 24.75 -67.95 25.05 L-68.4 25.0 -69.5 24.65 -73.95 24.25 -74.95 24.35 Q-76.05 24.45 -75.8 25.5 L-75.7 26.05 -75.95 26.5 -79.95 29.1 Q-84.3 31.25 -87.45 28.55 L-88.0 28.15 Q-90.55 27.05 -91.5 25.6 -91.7 25.3 -91.95 25.3 L-92.95 25.45 Q-95.9 26.35 -97.95 27.6 L-98.5 27.8 Q-101.95 27.8 -105.05 28.95 L-107.0 29.45 -108.9 29.9 -108.95 29.95 -108.95 29.9 -108.5 24.55 -108.25 23.1 Q-107.7 21.0 -105.35 18.65 -104.95 18.3 -104.45 18.3 -100.8 18.25 -101.45 14.55 L-101.9 12.05 -101.7 11.35 Q-100.4 10.35 -98.45 10.55 L-98.85 9.5 Q-98.95 9.05 -99.2 8.7 -100.7 6.45 -99.5 4.0 L-98.15 1.45 Q-96.7 -1.05 -95.05 -2.1 -93.7 -3.0 -91.95 -2.75 L-90.95 -2.7 Q-88.95 -2.7 -88.1 -1.8 -87.0 -0.75 -85.9 0.0 L-85.25 0.7 Q-84.15 3.1 -80.95 3.5 -80.45 3.55 -80.4 3.7 -79.65 5.6 -77.45 5.55 L-76.8 5.65 -76.45 8.05 -76.4 8.15 -76.45 8.95 -76.5 9.95 -77.0 12.2 -77.05 12.45 Q-77.1 13.0 -76.65 13.15 L-76.25 13.3 -74.65 14.7 -74.4 14.85" fill="url(#gradient0)" fill-rule="evenodd" stroke="none"/>
    <path d="M-74.4 14.85 L-74.65 14.7 -76.25 13.3 -76.65 13.15 Q-77.1 13.0 -77.05 12.45 L-77.0 12.2 -76.5 9.95 -76.45 8.95 -76.4 8.15 -74.95 13.05 -73.1 14.9 -74.4 14.85" fill="url(#gradient1)" fill-rule="evenodd" stroke="none"/>
  </g>
  <defs>
    <radialGradient cx="0" cy="0" gradientTransform="matrix(0.219, 0.0598, -0.0602, 0.2206, -148.95, -32.95)" gradientUnits="userSpaceOnUse" id="gradient0" r="819.2" spreadMethod="pad">
      <stop offset="0.0" stop-color="#ca0000"/>
      <stop offset="0.6862745098039216" stop-color="#ffffff"/>
    </radialGradient>
    <radialGradient cx="0" cy="0" gradientTransform="matrix(0.219, 0.0598, -0.0602, 0.2206, -149.4, -33.05)" gradientUnits="userSpaceOnUse" id="gradient1" r="819.2" spreadMethod="pad">
      <stop offset="0.0" stop-color="#ca0000"/>
      <stop offset="0.6862745098039216" stop-color="#ffffff"/>
    </radialGradient>
  </defs>
</svg>
