<?xml version="1.0" encoding="UTF-8" standalone="no"?>
<svg xmlns:xlink="http://www.w3.org/1999/xlink" height="90.6px" width="102.45px" xmlns="http://www.w3.org/2000/svg">
  <g transform="matrix(1.0, 0.0, 0.0, 1.0, 159.9, 61.15)">
    <path d="M-117.75 -53.95 L-117.55 -53.4 Q-116.1 -50.85 -115.1 -48.1 L-114.55 -47.35 Q-113.35 -46.3 -112.8 -44.5 -112.35 -43.15 -111.0 -42.8 L-110.45 -42.45 Q-109.35 -41.35 -107.45 -40.45 -103.25 -38.55 -101.4 -35.0 -100.9 -34.0 -100.1 -33.65 L-99.35 -33.0 Q-96.8 -29.85 -97.0 -24.95 -97.05 -22.85 -98.7 -21.2 L-99.4 -19.95 Q-100.2 -17.35 -101.55 -15.0 L-101.95 -14.5 Q-103.7 -13.1 -103.95 -10.95 -104.25 -8.15 -103.65 -6.4 L-103.5 -4.95 Q-103.6 -3.15 -102.2 -1.7 -101.95 -1.45 -101.95 -0.95 L-102.15 5.05 -102.25 6.55 Q-102.5 8.85 -101.65 10.2 -100.3 12.35 -101.25 14.65 L-103.55 19.5 -103.9 20.05 -108.1 24.9 -108.9 25.6 Q-110.8 26.95 -113.0 29.45 L-114.5 29.35 -115.95 29.0 Q-118.05 28.05 -120.1 27.25 L-122.5 26.55 -124.5 26.05 -129.5 25.3 -130.5 25.05 -134.45 23.4 -135.05 23.1 -139.5 20.5 Q-141.2 19.6 -142.1 18.1 L-142.55 17.7 Q-145.05 16.65 -146.7 14.7 L-147.45 14.0 -148.05 13.65 Q-149.4 12.95 -150.4 11.95 L-151.0 11.05 Q-152.1 8.8 -153.3 6.9 L-153.7 6.15 Q-154.05 5.35 -154.9 4.0 -155.6 2.95 -155.7 1.55 L-156.0 0.55 Q-157.1 -1.5 -157.9 -4.0 L-158.55 -5.95 -158.8 -6.95 -159.4 -11.95 Q-159.85 -16.65 -159.9 -21.45 L-159.6 -24.45 -158.65 -29.0 Q-158.15 -31.0 -157.25 -32.15 -157.0 -32.45 -156.85 -32.9 L-156.6 -33.5 Q-155.8 -35.1 -155.35 -37.4 L-155.0 -38.45 -150.9 -45.9 Q-149.9 -47.75 -147.55 -49.5 L-145.95 -50.9 Q-144.2 -52.7 -142.0 -53.95 -138.35 -56.05 -136.0 -58.45 L-133.4 -60.5 Q-133.15 -61.05 -132.3 -61.1 L-131.45 -61.1 -129.45 -60.85 Q-125.35 -60.5 -121.85 -58.1 L-119.95 -57.0 Q-117.95 -56.1 -117.75 -53.95 M-88.45 -53.05 L-87.0 -53.15 Q-85.8 -53.05 -85.5 -53.7 L-83.9 -53.1 -83.05 -52.75 -80.45 -51.5 -76.5 -49.85 -75.95 -49.45 Q-75.15 -48.75 -73.45 -48.7 L-72.9 -48.65 Q-70.75 -48.15 -70.05 -46.4 L-69.45 -44.45 Q-69.05 -42.6 -67.4 -42.15 -66.45 -41.95 -65.95 -41.45 L-65.65 -40.9 Q-65.2 -37.9 -61.95 -37.65 L-59.4 -37.15 -58.0 -36.75 -57.45 -36.45 Q-57.75 -35.0 -59.45 -35.15 L-60.4 -34.9 -63.5 -33.1 Q-65.35 -32.05 -66.75 -30.3 -67.55 -29.35 -67.3 -28.0 L-66.9 -27.0 Q-65.0 -24.15 -63.8 -21.0 L-63.55 -20.4 Q-62.8 -18.8 -61.35 -18.15 L-60.5 -17.8 -59.9 -17.5 -58.95 -16.95 Q-59.35 -16.1 -60.95 -16.15 L-62.0 -16.1 -63.9 -15.75 -64.3 -15.4 Q-64.6 -14.45 -65.45 -14.0 L-66.4 -13.75 -66.75 -13.4 -66.9 -12.3 -67.1 -12.1 Q-67.45 -11.7 -67.95 -11.7 -69.15 -11.75 -70.1 -11.15 -71.5 -10.25 -73.45 -10.2 L-74.95 -10.15 -78.95 -9.75 -79.95 -9.7 Q-80.45 -9.7 -80.7 -10.1 L-81.15 -10.55 Q-82.75 -11.35 -83.95 -12.45 L-84.45 -12.7 Q-85.5 -12.65 -85.65 -13.4 L-86.8 -18.0 -87.15 -18.85 Q-87.55 -19.6 -87.25 -20.9 L-87.2 -21.2 Q-88.8 -22.1 -89.15 -24.45 L-89.35 -25.5 -89.7 -26.2 -90.3 -27.5 Q-90.75 -29.0 -91.9 -29.15 L-92.3 -29.5 -92.7 -30.3 -95.5 -34.4 Q-96.8 -36.05 -97.55 -37.9 L-97.8 -38.5 -98.2 -39.2 Q-99.05 -40.1 -98.8 -41.9 L-98.55 -43.0 Q-98.25 -44.45 -97.55 -45.1 L-96.0 -46.05 -95.4 -46.3 Q-94.95 -46.45 -94.9 -46.55 -94.55 -48.0 -94.95 -49.45 -95.2 -50.4 -94.4 -50.85 -91.65 -52.4 -88.45 -53.05 M-78.75 7.45 Q-78.1 8.7 -78.4 11.05 L-78.6 12.0 -78.9 12.85 -79.0 12.9 -79.8 13.25 Q-80.55 13.7 -80.7 15.05 L-81.0 15.4 Q-81.85 15.75 -81.9 17.05 -82.05 20.4 -79.95 21.55 L-81.4 21.4 -82.5 21.2 Q-84.55 20.7 -85.5 21.45 -86.55 22.3 -88.4 22.75 L-88.95 22.8 Q-90.3 22.7 -90.65 23.45 -91.6 25.7 -94.0 25.75 -95.55 24.65 -96.45 23.05 -96.7 22.55 -97.1 22.2 -98.45 20.85 -98.4 19.05 -98.35 17.65 -97.8 16.65 -97.45 16.05 -97.25 15.1 L-97.15 14.5 -96.75 12.1 -96.5 11.5 -94.0 8.0 Q-92.95 6.55 -91.35 5.75 L-90.95 5.55 Q-91.8 3.15 -91.35 0.05 L-91.35 0.0 -89.0 0.15 -87.9 0.45 -83.45 2.0 Q-82.3 2.4 -81.6 3.9 L-81.1 4.7 -79.2 6.75 -78.75 7.45" fill="url(#gradient0)" fill-rule="evenodd" stroke="none"/>
  </g>
  <defs>
    <radialGradient cx="0" cy="0" gradientTransform="matrix(0.219, 0.0598, -0.0602, 0.2206, -148.95, -32.95)" gradientUnits="userSpaceOnUse" id="gradient0" r="819.2" spreadMethod="pad">
      <stop offset="0.0" stop-color="#ca0000"/>
      <stop offset="0.6862745098039216" stop-color="#ffffff"/>
    </radialGradient>
  </defs>
</svg>
