<?xml version="1.0" encoding="UTF-8" standalone="no"?>
<svg xmlns:xlink="http://www.w3.org/1999/xlink" height="93.8px" width="104.65px" xmlns="http://www.w3.org/2000/svg">
  <g transform="matrix(1.0, 0.0, 0.0, 1.0, 159.1, 65.35)">
    <path d="M-108.0 -65.15 L-103.0 -64.8 Q-101.5 -64.75 -100.8 -64.2 L-100.1 -63.75 Q-98.55 -63.15 -97.4 -62.05 -95.85 -60.55 -93.7 -59.75 L-93.0 -58.9 -92.6 -57.9 Q-92.2 -56.2 -93.4 -55.8 L-93.8 -55.4 Q-94.05 -54.85 -95.0 -54.65 L-98.5 -53.6 -99.4 -53.3 -101.95 -53.1 Q-111.05 -54.65 -120.95 -54.45 L-121.85 -54.65 -124.95 -55.0 -125.55 -55.15 Q-126.45 -56.7 -127.95 -57.0 -130.55 -57.4 -130.05 -60.45 L-129.7 -61.25 -126.4 -64.35 -125.95 -64.7 -123.0 -64.35 Q-122.05 -64.2 -121.3 -64.6 -120.75 -64.95 -120.0 -64.95 L-116.55 -64.75 -115.95 -64.65 -113.4 -64.75 -112.55 -65.05 -111.45 -65.25 Q-110.25 -65.45 -109.0 -65.25 L-108.0 -65.15 M-143.45 -54.1 L-141.45 -54.25 Q-138.25 -54.45 -135.55 -53.25 L-134.35 -52.6 Q-132.3 -51.4 -131.9 -48.95 -131.55 -46.75 -129.45 -46.7 L-128.5 -46.4 Q-126.1 -44.75 -123.85 -42.55 L-122.95 -41.9 Q-118.55 -39.25 -113.85 -37.7 L-112.5 -37.25 -111.9 -37.05 Q-110.55 -36.25 -109.1 -34.35 -108.55 -33.6 -107.0 -34.1 L-106.45 -34.25 Q-101.4 -34.7 -97.55 -32.3 -95.65 -31.15 -94.55 -29.4 -93.85 -28.35 -93.75 -26.95 L-93.65 -26.4 Q-93.2 -23.9 -94.25 -21.85 L-94.6 -21.0 -97.3 -13.9 -97.45 -12.95 Q-97.55 -10.25 -96.2 -8.75 L-95.75 -8.05 Q-95.1 -6.55 -94.95 -3.95 -94.95 -3.45 -94.4 -3.0 -91.6 -0.85 -90.9 2.55 L-90.3 5.5 Q-89.25 10.4 -91.25 15.15 L-91.55 16.05 Q-92.65 21.0 -95.05 25.5 -95.55 26.45 -96.45 27.0 L-98.1 28.2 -103.5 28.35 -104.0 28.3 -110.5 28.05 -111.4 27.85 Q-112.3 27.35 -114.0 27.5 L-114.9 27.35 Q-116.0 26.8 -118.0 26.8 L-120.5 26.6 -121.4 26.35 Q-123.2 25.6 -126.0 25.55 L-126.75 25.3 Q-127.85 24.2 -129.5 24.1 L-130.35 23.85 Q-131.35 23.25 -133.0 23.1 L-133.9 22.85 Q-135.25 22.3 -136.35 21.4 L-137.15 20.8 -139.95 18.95 Q-142.1 17.5 -144.5 15.05 L-146.9 12.95 -149.95 10.45 Q-151.1 9.45 -152.0 7.55 -152.25 7.05 -152.65 6.7 L-153.8 4.5 Q-154.2 3.05 -154.85 2.4 -155.85 1.45 -156.15 0.1 L-156.25 -0.45 Q-156.3 -2.4 -157.0 -3.95 L-157.35 -5.0 -158.6 -9.95 Q-159.15 -12.05 -159.1 -14.45 L-158.75 -23.95 -158.65 -24.5 -158.3 -25.9 -157.3 -29.4 Q-155.35 -36.2 -151.85 -42.35 L-150.7 -44.55 -147.75 -50.35 -146.55 -52.45 Q-146.3 -52.9 -146.35 -53.15 -145.05 -53.9 -143.45 -54.1 M-88.9 -45.8 Q-84.6 -46.5 -80.6 -47.6 L-80.1 -47.25 Q-76.85 -44.85 -72.45 -45.3 L-69.5 -45.65 -68.95 -45.95 -68.45 -46.45 Q-67.6 -45.8 -67.8 -43.95 -68.0 -42.4 -65.9 -42.75 L-62.95 -42.95 Q-63.25 -40.45 -65.3 -39.2 L-66.1 -38.6 Q-67.3 -37.55 -67.2 -35.95 L-67.25 -35.4 Q-68.15 -30.05 -63.45 -28.9 -58.3 -27.6 -54.45 -29.95 -54.65 -28.65 -55.55 -28.05 L-58.1 -26.1 -60.85 -24.3 Q-62.35 -23.4 -63.95 -23.0 -64.8 -22.8 -65.1 -22.0 -65.2 -21.7 -65.5 -21.65 L-66.45 -21.55 -67.15 -20.6 -70.1 -17.05 Q-71.0 -15.9 -72.35 -15.25 -73.45 -14.7 -75.45 -14.7 L-76.45 -14.65 Q-78.7 -14.45 -80.95 -14.65 L-81.45 -14.7 -86.45 -15.1 Q-88.15 -15.2 -88.2 -16.95 -88.2 -17.95 -88.9 -18.5 L-89.2 -18.95 -89.15 -19.5 Q-88.95 -20.7 -89.15 -21.9 L-89.2 -22.45 Q-89.2 -23.45 -88.8 -24.4 L-88.4 -24.75 Q-87.65 -24.9 -88.15 -25.85 L-88.8 -27.05 Q-91.05 -30.5 -93.1 -34.85 -93.9 -36.5 -93.75 -38.45 L-93.4 -40.45 Q-92.95 -42.0 -91.45 -42.15 -91.2 -42.2 -91.2 -42.45 -91.25 -44.4 -89.9 -45.4 L-88.9 -45.8 M-76.45 2.5 L-75.65 2.8 Q-74.15 4.05 -74.25 6.85 -75.65 8.15 -75.7 10.55 L-75.75 11.1 Q-76.15 12.7 -77.9 14.1 L-78.5 14.4 Q-80.45 15.05 -81.5 16.5 L-82.0 16.9 -82.8 17.25 Q-83.5 17.7 -83.65 18.95 L-84.95 19.25 Q-86.0 19.35 -86.0 18.55 L-85.8 16.05 -85.6 14.55 Q-85.2 10.85 -83.4 7.6 -82.45 5.9 -82.0 4.05 -81.65 2.5 -80.45 2.55 L-79.85 2.75 -78.55 2.85 -76.45 2.5" fill="url(#gradient0)" fill-rule="evenodd" stroke="none"/>
  </g>
  <defs>
    <radialGradient cx="0" cy="0" gradientTransform="matrix(0.219, 0.0598, -0.0602, 0.2206, -148.95, -32.95)" gradientUnits="userSpaceOnUse" id="gradient0" r="819.2" spreadMethod="pad">
      <stop offset="0.0" stop-color="#ca0000"/>
      <stop offset="0.6862745098039216" stop-color="#ffffff"/>
    </radialGradient>
  </defs>
</svg>
