<?xml version="1.0" encoding="UTF-8" standalone="no"?>
<svg xmlns:xlink="http://www.w3.org/1999/xlink" height="91.7px" width="116.15px" xmlns="http://www.w3.org/2000/svg">
  <g transform="matrix(1.0, 0.0, 0.0, 1.0, 159.85, 64.5)">
    <path d="M-103.9 -64.15 L-101.6 -63.25 Q-100.25 -62.7 -99.0 -61.95 L-96.5 -60.8 -95.9 -60.55 Q-92.55 -58.9 -90.5 -56.9 -89.95 -56.45 -89.55 -55.65 L-89.0 -55.6 -88.9 -54.95 Q-88.7 -52.7 -89.55 -51.55 L-91.0 -49.5 Q-91.85 -48.35 -93.95 -48.25 L-94.95 -48.15 -99.95 -47.75 Q-105.65 -47.3 -110.5 -48.8 L-111.35 -49.15 Q-112.75 -50.0 -114.45 -50.0 L-119.45 -49.45 -121.45 -49.1 Q-126.55 -48.7 -129.5 -50.85 L-130.3 -51.6 Q-131.65 -53.1 -133.45 -53.0 L-134.9 -53.15 Q-137.55 -53.95 -137.45 -56.95 L-137.25 -57.85 -136.3 -59.8 Q-132.3 -60.65 -128.55 -62.05 -124.15 -63.7 -119.0 -63.7 L-118.0 -63.75 -113.0 -63.85 -107.95 -64.25 -103.9 -64.15 M-130.8 -40.7 Q-129.75 -39.0 -128.45 -38.45 L-129.8 -37.75 Q-130.3 -37.4 -131.5 -37.15 -133.6 -36.8 -135.4 -35.8 -138.55 -34.1 -141.95 -32.0 -142.45 -31.7 -143.0 -31.6 L-147.45 -31.0 -148.35 -30.75 Q-150.2 -29.85 -151.45 -30.95 L-151.95 -31.2 Q-153.3 -31.35 -154.0 -31.85 L-154.85 -32.55 -155.55 -33.35 Q-156.35 -34.15 -156.85 -35.35 -156.1 -36.5 -156.0 -37.95 -155.9 -39.3 -156.3 -40.05 L-156.45 -40.95 -156.1 -42.45 -154.9 -42.8 Q-153.95 -42.95 -153.45 -43.45 -152.6 -44.25 -150.95 -44.4 L-149.5 -44.6 -145.95 -45.35 -144.95 -45.5 Q-142.4 -45.75 -140.95 -44.95 L-139.95 -44.65 Q-138.55 -44.55 -137.55 -43.8 -136.55 -43.1 -134.95 -42.45 -133.85 -42.05 -133.25 -41.05 -132.6 -40.0 -131.35 -40.75 L-130.8 -40.7 M-90.45 -43.9 L-88.95 -44.05 Q-85.9 -44.5 -84.75 -43.1 -84.45 -42.7 -83.9 -42.6 L-78.95 -42.45 -77.0 -42.25 -75.65 -41.8 Q-75.6 -40.2 -74.75 -39.1 L-74.0 -38.35 Q-71.85 -36.75 -69.5 -35.8 -68.25 -35.35 -69.35 -33.9 -70.25 -32.7 -69.8 -31.0 L-69.5 -30.4 -67.75 -27.55 Q-67.3 -26.85 -65.95 -26.8 -64.3 -26.75 -63.35 -26.1 L-61.85 -25.15 -60.55 -25.25 -59.95 -25.55 -58.0 -26.05 -55.95 -26.45 Q-55.15 -26.5 -55.25 -25.45 -55.3 -24.6 -54.45 -24.5 L-52.95 -24.45 Q-53.15 -23.4 -54.4 -22.85 L-54.95 -22.45 Q-55.0 -21.65 -53.95 -21.7 L-52.9 -21.6 Q-48.95 -20.7 -45.6 -17.75 L-44.45 -16.45 -43.7 -15.65 Q-47.35 -16.6 -51.45 -16.35 -54.85 -16.15 -55.35 -13.35 L-55.45 -13.45 Q-57.65 -15.6 -61.45 -15.25 L-62.45 -15.0 Q-65.6 -13.85 -64.55 -10.55 L-64.0 -9.9 Q-62.25 -8.8 -59.95 -8.95 -62.0 -6.35 -65.45 -5.5 -67.9 -4.85 -69.2 -3.7 L-69.4 -3.15 -69.75 -2.8 Q-70.55 -1.65 -71.95 -1.7 L-73.0 -1.85 Q-77.3 -3.25 -80.95 -6.45 L-81.3 -7.0 -81.7 -7.8 Q-82.2 -8.5 -81.9 -9.45 L-81.7 -10.45 Q-81.75 -11.3 -83.0 -11.7 -84.65 -12.2 -84.65 -13.95 L-84.95 -15.95 Q-85.6 -18.25 -85.65 -20.95 -85.65 -22.65 -85.05 -23.5 -84.7 -23.95 -84.6 -24.5 -83.95 -27.2 -85.45 -27.95 L-86.2 -28.6 -88.35 -32.0 -88.8 -33.0 -89.1 -34.4 -89.3 -35.0 -89.6 -35.5 Q-90.8 -35.85 -91.1 -36.9 L-92.0 -39.45 -92.2 -40.45 Q-92.15 -41.65 -91.5 -43.0 -91.05 -43.85 -90.45 -43.9 M-136.0 -31.0 L-134.85 -31.65 Q-130.5 -32.95 -126.0 -31.75 -124.05 -31.25 -122.4 -30.05 L-121.4 -29.6 -118.5 -28.75 -113.95 -27.55 -113.1 -27.2 Q-111.9 -26.4 -110.5 -27.5 -109.6 -28.15 -108.85 -29.35 -108.45 -29.95 -107.9 -30.0 L-103.25 -29.75 -102.4 -29.6 -102.2 -29.55 -101.95 -29.5 -101.8 -29.45 Q-100.5 -29.05 -99.95 -27.95 L-99.3 -27.1 Q-98.45 -26.2 -96.45 -26.35 -94.15 -26.5 -92.95 -25.45 L-92.55 -24.9 Q-90.5 -21.05 -90.9 -15.45 -90.95 -14.7 -91.15 -14.0 -91.8 -11.4 -92.8 -8.9 -92.95 -8.45 -93.15 -8.35 -93.75 -8.0 -93.55 -6.95 -93.35 -5.55 -92.45 -4.95 L-90.95 -4.0 -90.05 -3.3 -89.55 -2.4 -89.2 -1.65 Q-87.9 0.1 -86.45 1.0 L-85.65 1.7 Q-84.85 2.65 -84.75 4.05 L-84.6 4.6 -84.2 5.35 Q-83.45 6.4 -83.6 7.55 L-84.0 9.55 -84.35 11.05 Q-84.45 11.55 -84.7 11.75 L-85.85 13.1 Q-88.0 17.15 -93.15 22.5 L-95.0 24.4 -95.45 24.45 -96.35 24.75 Q-99.0 26.05 -101.95 26.7 L-103.0 26.85 -108.0 27.15 Q-113.2 27.4 -117.55 25.65 -120.7 24.35 -124.5 24.75 L-125.5 24.85 -125.7 24.9 Q-127.05 23.35 -128.95 22.9 L-130.0 22.8 Q-132.45 22.8 -134.45 21.9 L-136.1 21.25 -139.55 20.2 -140.3 19.8 Q-142.25 18.25 -144.95 16.45 L-146.85 14.9 Q-150.25 11.75 -153.05 8.1 L-153.4 7.5 -155.15 3.6 -156.4 -0.45 -156.7 -1.35 Q-157.95 -3.65 -158.0 -6.45 L-158.2 -7.35 Q-159.8 -10.25 -159.6 -13.95 -159.5 -16.2 -159.75 -18.4 L-159.8 -21.45 -159.35 -26.45 -159.1 -27.95 -158.8 -28.55 Q-158.2 -28.9 -158.6 -29.9 L-158.85 -30.5 -158.95 -30.85 -158.05 -30.25 -154.5 -28.8 -153.9 -28.6 -153.2 -28.2 Q-152.55 -27.6 -150.95 -27.95 L-145.45 -28.25 Q-139.9 -27.75 -136.0 -31.0 M-71.85 10.1 L-72.15 10.95 -72.75 12.15 -73.65 13.95 Q-74.5 15.55 -75.5 15.9 L-76.4 16.2 -77.0 16.35 -77.95 16.45 -78.55 16.35 -79.9 15.2 -79.75 15.05 -79.65 14.9 -78.8 13.65 Q-76.35 9.9 -73.95 7.05 -73.1 6.1 -71.85 6.85 -71.45 7.05 -71.2 7.3 -70.95 7.55 -71.15 7.95 L-71.85 10.1" fill="url(#gradient0)" fill-rule="evenodd" stroke="none"/>
  </g>
  <defs>
    <radialGradient cx="0" cy="0" gradientTransform="matrix(0.219, 0.0598, -0.0602, 0.2206, -148.95, -32.95)" gradientUnits="userSpaceOnUse" id="gradient0" r="819.2" spreadMethod="pad">
      <stop offset="0.0" stop-color="#ca0000"/>
      <stop offset="0.6862745098039216" stop-color="#ffffff"/>
    </radialGradient>
  </defs>
</svg>
