<?xml version="1.0" encoding="UTF-8" standalone="no"?>
<svg xmlns:xlink="http://www.w3.org/1999/xlink" height="91.95px" width="110.8px" xmlns="http://www.w3.org/2000/svg">
  <g transform="matrix(1.0, 0.0, 0.0, 1.0, 160.75, 64.85)">
    <path d="M-105.5 -64.15 L-100.45 -63.6 -98.0 -63.35 -95.45 -62.85 Q-91.05 -61.65 -87.5 -59.9 -86.0 -59.15 -85.35 -57.5 L-84.95 -56.95 -84.1 -55.85 Q-83.0 -54.1 -82.05 -51.4 L-81.65 -50.1 Q-81.45 -48.85 -81.65 -47.45 L-81.8 -46.3 -82.4 -45.45 Q-83.7 -42.25 -87.4 -41.3 L-88.0 -41.1 -88.85 -40.75 Q-90.4 -40.05 -92.0 -39.65 L-93.9 -39.25 Q-98.05 -38.25 -102.45 -38.45 L-103.05 -38.65 Q-103.5 -39.75 -104.95 -39.4 L-109.4 -38.3 -110.45 -38.25 -113.45 -38.35 -116.0 -38.85 Q-118.2 -39.8 -120.95 -39.55 L-125.95 -39.95 -127.45 -40.35 Q-129.75 -40.8 -131.85 -41.65 -133.9 -42.45 -135.35 -43.6 -137.05 -44.95 -139.9 -44.25 L-141.95 -43.95 Q-143.35 -43.85 -144.3 -44.65 L-145.1 -45.3 Q-146.2 -46.3 -146.35 -47.45 -146.65 -49.4 -145.8 -50.85 L-145.4 -51.5 -144.0 -51.85 Q-143.5 -51.95 -143.25 -52.2 L-142.85 -52.9 -142.45 -53.3 Q-140.1 -54.0 -139.15 -55.55 -137.45 -58.15 -134.05 -59.6 -132.65 -60.2 -131.35 -61.25 -130.75 -61.7 -130.0 -61.95 L-126.05 -63.1 -123.45 -63.7 -121.0 -64.0 Q-119.45 -64.05 -118.05 -64.55 L-117.0 -64.75 Q-115.15 -64.95 -113.45 -64.7 L-110.5 -64.4 -105.5 -64.15 M-84.05 -27.9 Q-84.75 -29.4 -84.25 -31.9 L-84.2 -32.45 Q-84.1 -34.1 -83.45 -35.45 L-82.8 -36.1 Q-80.55 -36.95 -77.95 -36.8 -75.3 -36.6 -72.9 -35.65 L-70.45 -34.7 -70.2 -32.7 Q-69.7 -30.05 -68.2 -27.8 L-67.8 -27.0 -67.4 -26.55 Q-66.05 -25.8 -65.7 -24.85 -65.3 -23.85 -63.95 -23.95 -62.65 -24.1 -61.35 -24.75 L-60.45 -24.95 -55.95 -24.75 Q-55.7 -24.7 -55.4 -24.5 L-49.95 -21.45 Q-50.35 -20.6 -51.95 -20.75 -54.3 -20.95 -56.5 -20.1 L-58.4 -19.35 Q-60.55 -18.65 -62.3 -17.3 L-63.6 -16.1 -64.4 -15.35 Q-65.75 -14.4 -65.7 -12.45 L-65.9 -11.95 -66.4 -11.4 -67.3 -10.75 -68.8 -8.85 Q-69.35 -8.05 -69.95 -7.95 L-72.45 -7.5 Q-74.25 -7.3 -75.6 -8.3 -77.55 -9.75 -77.3 -11.95 -77.1 -13.7 -77.75 -15.05 L-78.2 -15.7 Q-79.3 -16.8 -79.4 -18.95 -79.45 -20.1 -80.35 -21.05 -80.7 -21.45 -80.7 -21.95 -80.65 -23.45 -81.55 -24.35 -83.2 -26.0 -84.05 -27.9 M-150.0 -14.75 Q-146.65 -14.15 -144.85 -12.55 -144.45 -12.2 -143.95 -12.2 L-143.4 -12.3 -142.6 -12.65 -140.85 -13.85 -139.9 -14.25 Q-139.15 -14.4 -139.3 -15.45 L-139.25 -17.9 -139.05 -19.0 -138.7 -19.75 -136.4 -22.9 -136.1 -23.5 Q-135.7 -25.15 -133.95 -24.85 -131.55 -24.45 -131.0 -22.45 L-130.35 -20.5 -130.2 -19.45 Q-130.25 -17.95 -129.45 -16.95 L-129.15 -16.4 -128.75 -14.0 Q-128.45 -12.3 -128.5 -10.45 L-128.55 -9.5 -128.95 -8.95 Q-128.65 -8.5 -128.55 -9.5 -128.1 -10.25 -127.8 -11.4 L-127.6 -12.0 Q-126.8 -14.05 -126.9 -16.45 L-127.1 -17.9 Q-127.7 -20.2 -127.5 -23.45 L-127.25 -24.35 Q-126.4 -26.5 -124.5 -27.05 L-121.0 -28.05 -119.95 -28.2 -118.95 -27.95 Q-117.85 -27.35 -116.45 -27.25 L-115.4 -27.05 Q-112.95 -26.25 -111.4 -25.05 L-110.4 -24.6 Q-108.6 -24.2 -107.05 -25.1 L-105.45 -26.0 -105.25 -27.9 Q-104.7 -30.2 -101.45 -30.0 L-100.55 -29.75 -99.4 -29.05 Q-97.9 -28.0 -97.0 -26.4 -96.55 -25.55 -95.95 -25.6 L-94.9 -25.85 -94.05 -26.15 -91.95 -26.35 -90.0 -25.85 Q-88.25 -25.15 -87.75 -23.0 L-87.5 -22.4 -86.55 -20.9 Q-85.6 -19.1 -84.8 -16.5 -84.1 -14.2 -84.35 -11.45 L-84.65 -10.0 Q-85.3 -8.0 -86.5 -5.5 -87.05 -4.35 -86.75 -3.0 L-86.4 -2.6 Q-85.45 -2.2 -84.85 -1.55 L-84.4 -0.9 Q-83.95 2.8 -83.95 6.55 L-83.85 7.1 Q-81.8 7.55 -82.95 9.55 L-83.2 10.55 Q-83.1 12.3 -83.95 13.55 L-89.45 22.05 -90.15 22.9 -90.9 22.85 -91.35 22.85 Q-93.45 23.6 -95.85 24.75 -97.3 25.45 -99.0 25.55 L-104.0 26.15 -110.0 26.9 Q-120.0 27.7 -129.0 25.65 L-129.9 25.35 Q-132.25 24.15 -134.05 22.55 L-134.1 22.1 -134.25 21.05 Q-134.45 16.8 -134.25 12.55 L-134.25 10.55 -134.1 8.45 -136.05 11.5 -136.3 12.1 Q-136.75 13.5 -137.5 14.5 L-138.0 14.9 -138.85 15.25 -143.0 16.85 -143.8 17.05 Q-144.35 16.7 -144.5 16.05 -146.15 15.85 -146.9 14.95 L-147.65 14.2 -149.9 12.0 -155.05 6.05 -155.35 5.5 -156.6 1.1 -156.8 0.05 Q-156.9 -2.2 -158.05 -3.9 L-158.35 -4.5 -158.75 -5.25 Q-160.0 -6.95 -160.65 -9.9 L-160.75 -10.7 -158.05 -13.55 -155.95 -14.9 -152.95 -15.25 -151.9 -15.1 -150.0 -14.75 M-133.05 -32.9 L-132.8 -32.4 -131.75 -31.95 -132.1 -31.8 Q-135.9 -30.35 -138.95 -27.45 L-139.5 -27.1 -139.95 -26.9 Q-140.2 -24.55 -141.5 -22.95 L-141.95 -22.45 Q-143.6 -21.05 -144.55 -19.0 L-144.95 -18.7 Q-147.65 -18.75 -149.95 -17.9 L-150.9 -17.8 Q-152.95 -18.15 -154.35 -20.0 -154.7 -20.45 -154.7 -20.95 -154.7 -22.85 -155.9 -23.55 L-156.45 -23.7 -160.05 -24.35 -160.05 -24.45 -159.75 -25.25 Q-158.2 -27.2 -158.0 -30.7 L-157.7 -31.25 Q-156.4 -33.05 -153.5 -34.55 L-152.95 -34.7 Q-151.45 -34.65 -150.4 -35.4 L-149.45 -35.9 -145.0 -36.25 -144.45 -36.2 -143.4 -36.35 -142.5 -36.55 -137.5 -36.75 -136.9 -36.55 Q-136.2 -36.2 -135.45 -36.15 -134.1 -36.05 -133.75 -35.05 L-133.05 -32.9 M-67.95 8.55 Q-67.4 9.9 -68.85 10.7 L-69.95 11.55 Q-71.05 12.8 -72.45 12.9 L-74.95 13.05 Q-73.25 9.25 -69.9 8.7 L-67.95 8.55" fill="url(#gradient0)" fill-rule="evenodd" stroke="none"/>
  </g>
  <defs>
    <radialGradient cx="0" cy="0" gradientTransform="matrix(0.219, 0.0598, -0.0602, 0.2206, -148.95, -32.95)" gradientUnits="userSpaceOnUse" id="gradient0" r="819.2" spreadMethod="pad">
      <stop offset="0.0" stop-color="#ca0000"/>
      <stop offset="0.6862745098039216" stop-color="#ffffff"/>
    </radialGradient>
  </defs>
</svg>
