<?xml version="1.0" encoding="UTF-8" standalone="no"?>
<svg xmlns:xlink="http://www.w3.org/1999/xlink" height="93.6px" width="104.4px" xmlns="http://www.w3.org/2000/svg">
  <g transform="matrix(1.0, 0.0, 0.0, 1.0, 161.25, 64.7)">
    <path d="M-99.45 -63.6 L-95.5 -61.85 Q-93.65 -60.95 -91.8 -59.7 L-91.0 -59.3 -90.4 -59.0 Q-86.9 -56.8 -83.8 -54.65 L-82.6 -53.75 -81.8 -53.1 -81.15 -52.3 -80.35 -51.0 -80.1 -50.4 -79.15 -47.85 Q-78.95 -47.45 -78.9 -46.95 L-78.75 -44.05 -78.35 -43.55 Q-77.6 -42.8 -78.1 -41.0 L-78.3 -40.4 -78.7 -39.6 Q-80.3 -37.3 -82.45 -34.95 L-83.55 -34.1 Q-86.15 -32.6 -89.0 -31.6 L-89.55 -31.25 Q-89.9 -30.65 -90.95 -30.7 L-96.95 -30.75 -98.45 -30.75 Q-103.35 -30.9 -106.9 -32.55 L-107.25 -33.0 Q-107.5 -34.25 -108.95 -33.9 L-113.95 -33.65 Q-114.45 -33.7 -114.45 -33.95 -114.5 -35.9 -116.4 -35.3 L-117.0 -35.15 -119.4 -34.7 Q-124.1 -33.85 -128.4 -31.85 -130.45 -30.9 -132.95 -31.15 L-134.0 -31.3 Q-136.4 -31.8 -136.2 -34.45 -136.05 -35.85 -137.05 -36.25 L-137.7 -36.7 Q-138.05 -37.05 -139.0 -37.3 L-139.8 -37.7 -140.6 -38.15 -140.95 -38.2 -147.95 -37.95 -150.4 -37.75 Q-153.65 -37.25 -153.3 -39.95 -152.9 -42.9 -152.1 -45.55 -150.5 -45.85 -150.0 -46.95 -149.4 -48.35 -148.15 -49.2 L-147.4 -49.85 -143.45 -53.4 -140.4 -55.85 -139.55 -56.5 -136.55 -58.55 Q-134.4 -60.1 -132.0 -61.0 L-128.0 -62.4 -126.0 -62.9 Q-116.95 -64.85 -107.0 -64.7 L-100.05 -63.8 -99.45 -63.6 M-76.9 -29.45 Q-75.9 -32.8 -73.35 -32.2 -71.4 -31.75 -70.0 -30.85 L-69.7 -30.6 -69.9 -29.95 Q-70.2 -29.0 -69.55 -28.35 L-68.8 -27.55 -67.9 -27.05 Q-65.9 -26.5 -65.05 -24.65 L-64.5 -24.3 -64.0 -23.9 Q-62.95 -22.55 -60.5 -22.25 L-59.95 -22.2 Q-57.95 -22.2 -56.95 -21.45 -56.6 -21.55 -57.45 -20.45 -59.25 -18.25 -61.35 -16.8 -62.75 -15.8 -63.15 -14.0 L-63.25 -13.4 -63.6 -10.95 -63.65 -10.7 -66.55 -8.6 Q-69.65 -6.2 -72.95 -7.5 L-73.75 -8.1 Q-76.8 -12.05 -77.05 -17.45 L-77.45 -23.45 Q-77.75 -26.7 -76.9 -29.45 M-151.75 -1.45 L-151.5 -2.95 Q-150.35 -7.7 -145.95 -7.95 L-145.2 -7.7 Q-144.2 -6.75 -143.35 -7.85 -141.6 -10.2 -137.45 -10.0 L-136.6 -9.75 Q-136.45 -9.65 -135.4 -11.4 L-135.2 -11.95 Q-135.2 -14.35 -133.95 -15.45 -133.7 -15.7 -133.6 -16.0 L-132.65 -18.55 -132.25 -19.05 Q-129.5 -20.2 -128.8 -22.4 L-128.4 -22.75 Q-125.65 -23.25 -124.65 -21.35 L-124.3 -20.5 Q-123.85 -19.35 -124.15 -18.0 -124.75 -15.45 -124.3 -12.5 -124.2 -11.95 -123.8 -11.75 -122.85 -11.3 -122.7 -9.95 L-122.4 -9.6 -121.7 -9.2 -121.25 -8.55 Q-120.5 -6.85 -121.45 -4.45 -121.7 -3.8 -122.1 -3.1 -121.7 -3.45 -121.0 -3.6 -119.45 -3.95 -119.1 -5.0 L-118.75 -5.85 Q-118.45 -6.45 -118.25 -7.4 L-118.2 -7.95 Q-117.95 -10.45 -118.2 -12.95 L-118.2 -13.45 -118.2 -14.45 -118.3 -15.0 -118.6 -15.9 -118.8 -16.5 -119.15 -17.3 -120.35 -19.0 -121.05 -19.55 Q-122.05 -19.85 -121.85 -20.95 L-121.65 -22.45 Q-121.55 -23.8 -120.85 -24.25 -117.55 -26.35 -112.5 -25.75 L-111.9 -25.65 Q-110.25 -25.25 -109.55 -26.05 L-108.3 -27.3 -107.4 -27.85 Q-106.95 -27.95 -106.85 -28.15 -106.5 -28.75 -105.45 -28.55 L-101.9 -27.6 -101.1 -27.2 Q-100.45 -26.7 -99.45 -26.4 -97.35 -25.65 -95.9 -23.5 L-95.4 -23.1 Q-94.95 -22.95 -94.9 -23.1 -94.55 -24.05 -93.45 -23.85 -92.4 -23.65 -92.25 -24.4 L-91.9 -24.8 -91.05 -25.15 -88.45 -25.35 -86.45 -25.05 Q-85.95 -24.95 -85.6 -24.7 L-84.8 -24.1 -83.65 -22.8 Q-82.2 -21.1 -81.8 -19.0 L-81.55 -17.9 -81.25 -17.05 Q-80.85 -16.3 -80.9 -14.95 L-80.75 -13.5 Q-79.95 -11.15 -80.15 -8.45 L-80.4 -3.45 -80.65 -2.0 -81.85 1.6 Q-82.2 2.5 -81.35 2.85 L-80.95 3.1 Q-80.7 5.85 -79.5 8.05 -79.2 8.55 -79.3 9.0 -80.35 14.55 -83.35 19.6 L-85.15 22.4 -85.25 22.6 Q-86.1 23.15 -86.95 23.5 L-92.9 25.65 -93.95 25.8 Q-98.95 26.05 -104.0 25.85 L-109.05 26.45 -110.95 27.2 -112.55 27.9 -113.45 28.2 -115.65 28.9 -118.0 27.65 -121.9 25.45 -122.35 25.0 Q-123.05 23.7 -124.45 22.05 L-124.95 21.8 Q-126.7 21.8 -127.1 20.6 -127.7 18.55 -128.6 16.6 -129.4 15.0 -129.45 13.05 -129.65 7.7 -126.95 3.55 L-127.75 4.2 -129.05 5.45 -129.8 6.2 Q-131.1 7.65 -131.85 9.6 -132.45 11.2 -132.35 13.05 -132.15 15.85 -132.85 17.6 -133.8 19.8 -135.9 21.6 L-137.05 22.25 -137.85 22.65 -138.4 22.35 Q-139.35 21.85 -140.2 20.7 L-141.0 20.05 Q-144.85 17.8 -147.05 14.1 L-147.55 13.65 Q-149.0 12.85 -149.9 10.5 -150.35 9.4 -151.95 8.9 L-152.5 8.55 -153.5 7.45 -153.05 6.5 Q-152.45 4.9 -152.25 3.05 L-152.15 2.05 -151.75 -1.45 M-141.05 -29.25 Q-139.4 -28.4 -137.9 -26.5 L-137.65 -25.9 -137.35 -24.45 Q-136.95 -22.05 -136.95 -19.45 -136.95 -18.95 -137.2 -18.6 L-139.85 -14.9 -140.55 -14.05 Q-144.2 -9.65 -149.4 -11.55 -150.8 -12.0 -152.05 -12.75 L-152.75 -12.7 Q-153.45 -12.15 -154.95 -12.05 -157.9 -11.8 -160.35 -13.15 -160.95 -13.45 -161.15 -14.05 L-161.25 -14.35 Q-160.75 -15.3 -160.75 -16.95 L-160.7 -17.45 -160.3 -21.45 -160.2 -22.0 -159.8 -24.9 -159.7 -25.5 -159.45 -27.05 -157.95 -29.45 Q-155.85 -31.8 -153.0 -33.55 -151.95 -34.2 -149.95 -34.2 L-148.9 -34.3 Q-147.55 -34.55 -146.6 -33.75 L-145.8 -33.15 Q-144.8 -32.35 -144.55 -30.95 L-144.4 -30.45 Q-142.95 -30.25 -141.85 -29.65 L-141.05 -29.25" fill="url(#gradient0)" fill-rule="evenodd" stroke="none"/>
  </g>
  <defs>
    <radialGradient cx="0" cy="0" gradientTransform="matrix(0.219, 0.0598, -0.0602, 0.2206, -148.95, -32.95)" gradientUnits="userSpaceOnUse" id="gradient0" r="819.2" spreadMethod="pad">
      <stop offset="0.0" stop-color="#ca0000"/>
      <stop offset="0.6862745098039216" stop-color="#ffffff"/>
    </radialGradient>
  </defs>
</svg>
