<?xml version="1.0" encoding="UTF-8" standalone="no"?>
<svg xmlns:xlink="http://www.w3.org/1999/xlink" height="90.25px" width="118.5px" xmlns="http://www.w3.org/2000/svg">
  <g transform="matrix(1.0, 0.0, 0.0, 1.0, 160.15, 63.2)">
    <path d="M-107.9 -61.75 L-100.45 -62.65 -94.95 -63.05 -92.95 -63.2 -91.45 -62.95 -90.75 -62.1 -90.0 -61.35 -87.35 -59.05 -86.5 -58.4 -83.45 -55.95 Q-82.15 -54.85 -80.0 -54.35 L-79.15 -53.8 Q-78.15 -52.55 -77.45 -50.45 L-75.35 -45.5 -74.9 -45.0 -74.25 -44.45 Q-74.15 -41.05 -74.95 -37.95 L-75.35 -35.95 Q-75.8 -32.8 -78.45 -32.55 L-80.3 -32.1 -80.95 -31.45 Q-82.1 -29.45 -84.45 -29.0 -86.35 -28.6 -88.05 -27.65 L-88.95 -27.45 -90.95 -27.45 -86.95 -26.9 -85.45 -26.45 Q-83.6 -25.8 -82.6 -24.8 -81.1 -23.25 -80.4 -21.45 L-79.9 -20.45 Q-78.15 -17.35 -77.15 -13.9 L-76.75 -12.5 -75.2 -7.85 -74.85 -6.45 Q-74.5 -4.35 -73.65 -2.35 L-73.45 -1.45 -73.65 1.5 -73.7 2.05 -73.8 3.8 -75.35 6.1 Q-76.3 7.45 -77.3 8.25 L-78.0 9.0 Q-79.85 11.55 -82.85 13.25 -83.45 13.55 -83.65 14.5 L-83.75 15.1 Q-84.1 16.7 -82.45 16.8 L-81.9 16.9 Q-79.65 17.6 -78.85 19.0 L-78.4 19.4 -77.5 19.65 -76.45 20.05 Q-77.3 22.15 -80.4 22.75 L-80.95 22.85 -85.45 23.2 -87.95 23.35 Q-89.55 23.45 -90.25 24.3 L-90.9 24.7 -91.5 25.0 Q-92.7 25.8 -94.95 25.8 L-95.45 25.85 -100.0 26.6 -102.0 26.8 -102.5 26.8 Q-105.0 26.55 -107.5 26.8 L-108.05 26.9 -108.7 27.05 -109.3 26.45 Q-113.1 21.75 -112.3 15.55 -112.15 14.5 -112.75 14.15 L-113.15 13.65 Q-113.75 12.55 -113.65 11.05 -113.55 9.5 -113.8 8.05 -114.1 6.6 -112.55 6.15 L-111.9 5.6 Q-111.4 4.8 -110.45 4.8 -109.95 4.8 -109.6 4.4 -108.15 2.95 -108.6 0.1 L-108.75 -0.95 Q-108.85 -3.0 -107.5 -3.6 -107.2 -3.7 -106.95 -3.95 L-105.4 -5.35 -104.55 -6.05 Q-103.45 -7.1 -104.25 -8.55 L-104.65 -9.35 -105.75 -11.55 -106.15 -12.35 Q-106.75 -13.45 -106.55 -14.95 -106.25 -16.65 -106.75 -17.55 L-106.9 -18.45 Q-106.75 -21.1 -105.6 -23.05 -104.5 -25.0 -101.95 -25.5 L-99.95 -25.85 -99.0 -26.05 -97.95 -26.25 Q-96.0 -26.45 -96.2 -26.65 L-95.95 -26.95 -95.45 -27.45 Q-96.7 -28.2 -98.95 -28.0 -100.55 -27.85 -101.25 -28.7 L-101.95 -28.95 Q-103.65 -28.9 -105.05 -29.75 L-105.85 -30.15 -108.05 -31.3 -112.45 -31.4 -113.45 -31.2 -113.9 -31.5 -117.9 -31.4 Q-120.15 -29.65 -122.95 -28.9 -124.0 -28.65 -124.35 -29.25 -124.45 -29.45 -124.85 -29.25 L-125.95 -28.45 Q-128.05 -26.6 -130.45 -26.3 -132.05 -26.1 -132.65 -26.8 L-133.45 -27.45 Q-134.6 -28.05 -135.1 -29.4 L-135.45 -29.75 Q-136.8 -29.85 -137.3 -30.75 L-137.95 -30.95 Q-139.7 -30.95 -140.65 -31.7 -140.95 -31.95 -141.4 -32.05 L-142.25 -32.6 Q-142.85 -33.3 -144.45 -33.05 -146.8 -32.7 -148.55 -31.05 L-149.45 -30.45 -153.1 -28.2 Q-153.45 -27.95 -153.95 -27.85 L-155.45 -27.6 -157.05 -27.75 -157.95 -28.05 Q-159.35 -28.35 -159.95 -29.2 L-159.7 -30.05 Q-158.8 -32.35 -157.4 -34.4 -156.7 -35.45 -156.75 -36.95 L-156.6 -38.0 Q-155.95 -40.25 -154.8 -42.35 L-153.15 -44.6 Q-152.75 -44.95 -152.65 -45.5 -152.1 -47.75 -150.1 -49.1 -147.55 -50.85 -145.8 -52.8 L-144.0 -54.4 -139.9 -57.25 Q-138.9 -56.35 -136.95 -56.1 L-134.0 -55.75 -133.4 -55.5 Q-131.5 -54.25 -128.95 -54.2 -128.2 -54.2 -127.6 -53.75 -126.4 -52.95 -125.0 -52.75 L-124.4 -52.6 Q-123.65 -52.4 -123.7 -53.45 L-123.6 -54.0 Q-123.0 -56.25 -120.45 -56.85 L-114.45 -57.6 Q-113.6 -57.6 -113.3 -58.4 L-112.95 -58.95 Q-110.7 -61.1 -107.9 -61.75 M-137.9 -26.05 Q-135.1 -25.3 -135.2 -21.95 L-135.05 -21.4 Q-133.95 -19.0 -134.75 -16.4 L-135.1 -15.0 -135.45 -14.45 -140.35 -8.85 -141.1 -8.15 -142.35 -7.3 -143.5 -6.5 Q-144.6 -5.6 -146.4 -4.85 L-146.95 -4.45 Q-147.75 -3.75 -149.35 -3.45 L-149.5 -2.95 Q-149.75 0.65 -153.0 1.35 L-154.55 1.85 Q-155.4 2.3 -156.05 1.65 -156.45 1.3 -156.95 1.3 -157.75 1.25 -158.3 0.8 -158.7 -0.45 -158.75 -1.95 L-158.85 -2.5 -159.2 -3.35 Q-159.7 -4.25 -159.35 -5.9 L-159.25 -6.95 Q-159.15 -9.5 -159.7 -11.9 -159.9 -12.8 -160.15 -13.0 -159.85 -13.65 -158.95 -13.7 L-158.4 -13.9 -155.35 -16.35 Q-153.7 -17.75 -154.7 -18.7 -154.95 -18.95 -154.7 -19.2 L-154.0 -19.6 -153.4 -19.9 Q-151.35 -21.15 -151.1 -23.45 L-150.5 -25.8 -149.95 -25.95 -138.95 -26.2 -137.9 -26.05 M-124.95 -19.4 L-120.4 -21.2 -118.95 -21.35 Q-116.85 -21.1 -116.45 -22.45 -116.4 -19.0 -117.3 -15.9 -117.85 -14.05 -116.6 -12.8 L-112.05 -7.85 Q-110.55 -6.1 -110.6 -3.95 -110.7 -1.95 -110.15 -0.85 L-109.95 0.05 Q-109.85 1.9 -111.05 2.3 L-112.45 2.5 Q-115.05 2.2 -115.1 4.55 -115.15 6.95 -115.8 9.1 -116.55 11.6 -117.8 12.7 L-118.6 13.3 -119.35 13.75 -121.9 14.75 -124.0 15.4 -127.05 15.25 -127.95 15.1 -130.45 15.45 -132.95 15.7 -133.25 15.75 -133.65 15.15 Q-134.1 14.45 -135.45 14.3 L-135.95 14.05 Q-137.9 11.75 -141.05 10.25 -142.1 9.7 -142.6 8.1 L-143.0 7.6 Q-145.85 5.65 -144.6 2.0 -143.9 -0.1 -142.4 -1.9 -141.25 -3.25 -138.85 -4.8 L-137.45 -5.5 -133.9 -6.9 Q-131.9 -7.65 -131.3 -9.9 L-131.05 -10.5 -127.75 -16.85 Q-126.85 -18.5 -124.95 -19.4 M-58.45 -28.15 L-56.95 -28.3 Q-54.0 -28.45 -51.65 -27.05 L-50.95 -26.7 Q-49.7 -26.2 -48.65 -25.05 L-48.2 -24.75 Q-47.45 -24.4 -47.25 -23.55 L-47.0 -22.95 -46.65 -22.3 Q-45.9 -20.9 -44.35 -20.15 L-43.65 -20.0 -41.65 -20.0 Q-42.85 -19.8 -43.7 -18.8 -44.6 -17.65 -45.85 -16.9 L-50.95 -13.75 Q-52.05 -13.0 -53.45 -13.0 L-56.45 -12.9 -56.7 -12.85 -57.95 -12.9 Q-60.1 -13.35 -62.0 -14.4 L-62.45 -14.55 -63.45 -14.7 -63.85 -14.75 -60.3 -18.6 Q-60.05 -18.85 -60.05 -19.25 -60.0 -19.95 -60.5 -20.2 L-62.4 -21.3 Q-63.75 -22.2 -64.95 -23.75 -65.35 -24.35 -65.9 -24.55 L-66.15 -24.75 Q-66.55 -25.55 -66.45 -26.5 -63.9 -25.15 -61.0 -25.9 L-60.5 -26.3 -59.6 -27.45 -58.45 -28.15 M-72.4 -26.9 Q-71.95 -27.45 -71.45 -27.45 -70.1 -27.5 -69.35 -26.55 L-69.55 -25.95 Q-69.8 -24.6 -69.2 -24.15 L-68.8 -23.5 Q-68.15 -21.4 -66.0 -20.85 L-63.9 -20.05 -61.45 -18.95 Q-63.05 -17.6 -65.45 -16.5 L-68.25 -15.1 -68.5 -14.45 Q-68.6 -13.6 -69.2 -13.15 L-69.6 -12.5 -69.6 -12.4 -70.4 -12.6 -71.0 -12.8 Q-71.9 -13.0 -72.55 -13.9 -75.0 -17.1 -74.65 -21.45 -74.4 -24.65 -72.4 -26.9" fill="url(#gradient0)" fill-rule="evenodd" stroke="none"/>
  </g>
  <defs>
    <radialGradient cx="0" cy="0" gradientTransform="matrix(0.219, 0.0598, -0.0602, 0.2206, -148.95, -32.95)" gradientUnits="userSpaceOnUse" id="gradient0" r="819.2" spreadMethod="pad">
      <stop offset="0.0" stop-color="#ca0000"/>
      <stop offset="0.6862745098039216" stop-color="#ffffff"/>
    </radialGradient>
  </defs>
</svg>
