<?xml version="1.0" encoding="UTF-8" standalone="no"?>
<svg xmlns:xlink="http://www.w3.org/1999/xlink" height="91.6px" width="127.25px" xmlns="http://www.w3.org/2000/svg">
  <g transform="matrix(1.0, 0.0, 0.0, 1.0, 163.2, 65.4)">
    <path d="M-108.9 -63.5 L-108.6 -62.9 Q-108.1 -60.95 -109.0 -59.5 L-109.4 -58.95 Q-112.0 -55.8 -116.95 -54.5 L-119.4 -53.75 Q-124.3 -51.95 -129.95 -51.75 -132.5 -51.65 -133.9 -52.5 L-134.2 -52.95 Q-134.1 -54.3 -134.95 -54.25 L-136.0 -54.05 -136.95 -53.9 Q-139.35 -53.6 -139.4 -55.45 L-139.3 -56.2 -138.5 -56.2 Q-138.25 -56.2 -138.0 -56.45 L-131.05 -61.55 Q-128.9 -62.95 -126.45 -63.85 L-123.55 -64.65 -122.95 -64.8 -119.0 -65.35 -110.55 -65.4 Q-109.55 -64.55 -108.9 -63.5 M-163.1 -19.3 L-163.05 -21.45 Q-162.15 -25.45 -160.6 -29.5 L-158.35 -34.35 -157.2 -36.55 -156.9 -37.4 Q-155.6 -42.6 -153.0 -45.45 -151.45 -47.15 -149.1 -48.6 L-148.3 -49.05 Q-146.6 -48.0 -144.9 -47.55 -143.85 -47.25 -142.95 -46.45 -141.35 -45.15 -138.5 -45.6 L-137.45 -45.75 -133.95 -46.1 Q-130.3 -46.4 -127.45 -44.95 -125.9 -44.1 -124.85 -43.05 L-124.25 -42.3 Q-123.45 -40.7 -122.95 -41.45 -121.85 -45.25 -118.9 -48.9 L-118.45 -49.2 Q-116.65 -49.25 -115.35 -50.35 -114.95 -50.7 -114.45 -50.7 -111.5 -50.65 -109.4 -52.35 L-108.6 -52.55 Q-106.95 -51.95 -106.55 -53.0 L-105.0 -55.5 Q-101.6 -59.4 -97.0 -60.9 L-88.4 -56.05 -86.95 -55.55 -83.85 -54.7 -82.5 -54.3 Q-81.25 -54.0 -80.35 -53.05 -79.65 -52.25 -77.95 -52.2 L-77.4 -52.0 Q-75.95 -50.95 -75.2 -51.7 L-74.45 -51.95 Q-74.8 -49.8 -76.3 -48.75 L-76.75 -47.95 -76.9 -44.45 Q-76.8 -42.85 -75.7 -42.1 L-75.45 -41.85 -75.65 -37.45 -75.85 -36.4 Q-76.55 -33.95 -78.85 -33.15 L-79.85 -32.4 Q-81.3 -30.45 -82.75 -29.6 -82.95 -29.45 -82.8 -29.0 -82.55 -28.05 -82.1 -27.75 L-81.4 -27.0 -78.65 -22.8 -78.35 -22.0 -77.8 -21.1 -77.0 -20.4 Q-75.4 -19.4 -74.05 -16.9 L-73.45 -15.45 -70.9 -9.5 Q-70.15 -8.0 -70.15 -5.75 L-70.45 -5.45 Q-70.7 -5.2 -71.0 -5.1 -71.8 -4.8 -71.75 -3.95 L-71.75 -3.55 Q-71.95 -2.95 -71.75 -2.0 L-71.75 -1.6 Q-72.7 0.4 -75.0 3.0 L-75.75 4.15 -76.2 4.75 Q-77.25 5.6 -78.05 7.5 L-78.2 8.05 -78.05 9.1 -77.7 9.7 -76.45 10.1 Q-74.45 10.3 -73.5 9.45 -72.45 8.6 -71.85 9.45 L-69.35 13.0 Q-67.55 15.6 -64.95 16.05 L-69.0 16.4 -72.45 17.6 -73.45 18.1 Q-76.2 19.6 -79.45 20.0 L-80.0 19.9 Q-80.35 18.95 -81.45 19.05 -83.85 19.3 -86.0 19.9 -86.45 20.05 -86.75 20.3 L-90.5 23.0 -91.45 23.35 -94.4 23.65 Q-95.2 22.55 -95.25 20.55 -95.3 17.9 -95.7 15.5 L-96.1 13.05 -96.3 11.55 -96.65 8.6 -96.8 8.0 Q-97.4 6.25 -98.15 5.2 L-100.45 1.55 -100.8 0.5 -101.1 -0.9 -101.3 -2.0 Q-101.8 -4.15 -100.7 -5.2 L-100.25 -5.85 -98.95 -8.45 -98.65 -9.45 Q-98.45 -11.0 -100.05 -11.75 -101.35 -12.4 -101.45 -14.45 -101.5 -15.9 -102.2 -16.7 -102.45 -16.95 -102.3 -17.4 L-101.7 -19.5 Q-101.45 -20.45 -101.75 -21.05 L-101.95 -21.95 Q-101.95 -23.1 -101.2 -24.15 -100.95 -24.45 -100.85 -24.9 L-100.45 -25.95 Q-101.9 -24.5 -104.45 -24.65 L-105.5 -24.85 Q-107.9 -25.55 -109.55 -26.25 L-110.45 -26.45 -118.95 -26.2 -119.5 -26.05 Q-121.75 -24.8 -122.9 -21.95 -123.75 -19.8 -125.55 -20.75 -126.4 -21.2 -127.05 -20.55 L-127.95 -19.95 Q-130.95 -18.35 -134.4 -17.8 L-135.45 -17.7 -136.0 -17.8 Q-138.75 -18.95 -141.95 -19.1 L-144.45 -19.3 -150.45 -19.65 -151.45 -19.75 -153.95 -19.85 Q-155.85 -19.7 -156.75 -20.7 L-157.45 -20.95 -161.0 -21.15 -161.45 -20.95 -163.1 -19.3 M-142.45 -14.05 L-140.45 -14.25 Q-137.6 -14.45 -134.95 -14.15 L-131.95 -14.0 Q-131.15 -14.0 -131.35 -12.95 -131.95 -10.2 -130.55 -9.3 -128.9 -8.25 -130.05 -6.0 L-131.35 -3.4 Q-132.45 -1.1 -133.5 0.5 -134.1 1.45 -135.4 2.6 L-137.7 4.8 -138.15 5.45 Q-138.75 6.55 -138.6 8.05 -138.3 10.4 -139.55 11.45 -140.55 12.35 -142.1 13.3 L-142.95 13.55 -148.45 13.75 -149.5 13.95 -150.3 14.1 -150.95 13.5 Q-153.6 10.95 -155.3 7.95 L-155.65 7.1 -156.05 6.75 Q-158.2 6.25 -157.7 3.0 -157.4 0.85 -158.75 -0.25 L-159.15 -0.9 -159.5 -1.45 Q-161.45 -3.75 -159.9 -6.4 -158.6 -8.65 -157.75 -11.05 L-156.9 -11.25 -154.45 -11.6 Q-152.55 -11.85 -150.9 -12.9 L-150.1 -13.6 Q-148.35 -15.6 -146.4 -14.55 -144.65 -13.7 -142.45 -14.05 M-113.45 -3.95 Q-111.95 -5.45 -111.7 -7.95 L-111.4 -8.3 Q-110.6 -8.6 -110.55 -9.45 -110.5 -10.25 -109.45 -10.2 -109.2 -10.2 -109.0 -10.45 -108.3 -11.3 -106.45 -11.0 -105.95 -10.95 -105.7 -10.7 L-105.4 -9.95 Q-105.3 -8.85 -103.95 -8.95 -105.75 -6.2 -105.7 -1.95 L-105.5 -0.95 Q-104.15 2.15 -101.5 4.6 -100.65 5.4 -100.25 7.0 -99.65 9.55 -99.6 12.05 -99.45 16.3 -99.65 20.55 L-100.0 21.5 -102.5 25.1 -107.45 25.7 -108.5 25.8 -118.5 26.15 -126.3 25.9 Q-127.4 25.0 -128.15 23.65 L-128.95 22.55 Q-131.0 20.6 -132.25 17.95 L-132.6 17.1 Q-133.1 15.85 -133.7 15.3 L-134.1 14.6 -134.2 14.05 -134.05 13.0 Q-133.4 10.65 -133.55 8.05 -133.65 5.35 -130.4 5.75 -129.95 5.8 -129.55 5.45 -127.8 3.9 -126.55 1.75 L-125.95 1.55 -119.5 0.9 -118.95 0.55 -115.3 -2.25 -113.45 -3.95 M-41.55 -25.75 Q-40.35 -25.2 -39.4 -24.0 L-38.95 -23.45 Q-37.9 -22.4 -36.5 -21.85 L-35.95 -21.45 -36.95 -21.5 Q-44.0 -21.75 -47.25 -17.3 L-48.0 -16.0 Q-48.6 -14.65 -50.5 -13.55 -51.3 -13.1 -52.5 -12.6 L-53.4 -12.3 -54.0 -12.15 -57.45 -11.55 Q-59.3 -11.35 -60.05 -12.35 -60.45 -12.95 -61.4 -13.1 L-62.5 -13.3 Q-63.05 -13.45 -63.45 -13.7 -65.1 -14.15 -66.55 -15.3 L-67.7 -16.6 Q-67.95 -16.95 -67.75 -17.35 -66.3 -20.1 -66.45 -23.45 L-62.45 -22.5 -60.8 -22.7 -59.95 -22.95 Q-55.15 -22.85 -51.35 -25.3 L-49.95 -26.0 Q-45.7 -27.8 -41.55 -25.75" fill="url(#gradient0)" fill-rule="evenodd" stroke="none"/>
  </g>
  <defs>
    <radialGradient cx="0" cy="0" gradientTransform="matrix(0.219, 0.0598, -0.0602, 0.2206, -148.95, -32.95)" gradientUnits="userSpaceOnUse" id="gradient0" r="819.2" spreadMethod="pad">
      <stop offset="0.0" stop-color="#ca0000"/>
      <stop offset="0.6862745098039216" stop-color="#ffffff"/>
    </radialGradient>
  </defs>
</svg>
