<?xml version="1.0" encoding="UTF-8" standalone="no"?>
<svg xmlns:xlink="http://www.w3.org/1999/xlink" height="96.05px" width="133.75px" xmlns="http://www.w3.org/2000/svg">
  <g transform="matrix(1.0, 0.0, 0.0, 1.0, 161.7, 65.1)">
    <path d="M-108.45 -64.45 Q-107.8 -64.35 -107.55 -64.65 L-107.2 -64.7 -106.45 -64.6 -105.8 -64.5 -105.4 -64.35 -104.95 -64.25 Q-104.65 -64.2 -104.55 -64.45 -100.25 -64.15 -98.15 -59.85 -97.95 -59.45 -98.1 -59.0 -98.95 -56.4 -101.55 -54.6 -102.2 -54.2 -102.95 -53.9 L-103.95 -53.65 Q-105.4 -53.6 -105.85 -52.05 L-106.35 -51.35 Q-107.9 -50.05 -109.0 -49.6 L-109.9 -49.3 -110.45 -48.95 Q-112.05 -47.0 -114.45 -46.75 L-115.4 -46.35 Q-117.2 -45.0 -119.45 -44.75 L-120.95 -44.65 Q-123.7 -44.6 -126.05 -43.05 -128.35 -41.55 -131.45 -41.7 L-132.4 -41.4 Q-133.8 -40.55 -135.4 -40.25 L-136.0 -40.1 -140.55 -38.15 -141.4 -37.8 -141.95 -37.7 -142.9 -38.0 Q-144.5 -39.0 -146.1 -38.25 L-147.4 -37.8 -153.45 -37.4 Q-156.25 -37.55 -157.65 -38.7 L-157.9 -38.9 -157.4 -40.2 -157.2 -40.5 Q-156.2 -41.35 -155.45 -42.5 L-154.75 -43.65 -154.45 -43.8 -154.2 -44.0 Q-154.15 -44.4 -154.65 -44.5 L-154.6 -44.7 -154.45 -45.0 Q-152.3 -47.05 -151.15 -49.25 L-150.5 -49.85 -149.75 -50.3 -146.2 -53.75 -143.45 -55.8 -143.2 -56.0 Q-142.45 -56.75 -141.5 -57.1 L-140.2 -57.7 Q-136.95 -59.45 -133.9 -61.4 L-133.25 -61.8 Q-129.05 -64.15 -124.2 -64.35 L-122.2 -64.4 -118.45 -64.75 -114.7 -65.1 -110.45 -64.75 -108.45 -64.45 M-81.45 -49.9 Q-78.4 -48.8 -75.7 -46.85 L-75.65 -46.3 -75.45 -46.0 -73.8 -43.9 -73.65 -43.5 Q-73.45 -42.55 -72.9 -41.75 L-72.55 -40.9 -72.45 -40.65 Q-72.65 -37.8 -73.1 -34.95 L-73.4 -33.45 Q-74.7 -28.85 -77.45 -26.45 -75.95 -26.3 -75.1 -24.4 -72.6 -19.0 -70.8 -13.5 -70.2 -11.65 -70.2 -9.45 L-70.0 -8.45 Q-69.5 -7.25 -69.4 -5.95 L-68.45 -5.7 Q-68.3 -5.55 -68.2 -5.55 -67.1 -5.4 -67.2 -4.2 L-67.3 -3.8 -67.6 -2.95 -67.6 -2.0 Q-67.35 -1.15 -66.5 -0.85 L-64.7 -0.8 -63.2 -1.15 -60.7 -1.45 Q-59.5 -1.4 -58.45 -0.95 L-58.05 -0.65 Q-57.65 -0.15 -56.7 -0.25 L-54.5 0.1 -54.3 0.3 Q-54.3 0.95 -53.7 1.25 L-53.05 1.65 Q-51.15 3.15 -48.7 3.15 L-47.6 3.2 -47.7 3.2 -48.2 3.2 Q-49.35 3.2 -50.25 3.7 L-51.4 4.4 Q-55.35 7.25 -60.2 7.75 -63.45 8.15 -66.15 7.0 -67.35 6.5 -68.45 7.0 -69.4 7.45 -70.2 8.55 L-70.35 8.8 Q-70.6 9.55 -71.1 10.15 L-72.7 12.05 Q-73.6 13.3 -75.0 13.95 L-75.8 14.25 -75.9 12.55 Q-75.45 9.2 -76.7 6.45 -77.75 4.2 -79.8 2.4 L-80.6 1.7 Q-83.45 -1.1 -87.45 -1.3 L-95.45 -1.65 -96.45 -1.7 Q-98.05 -1.6 -98.55 -2.4 L-99.0 -2.9 Q-101.35 -4.3 -101.8 -6.95 -101.95 -8.05 -102.6 -8.85 -104.0 -10.5 -103.55 -12.95 -103.1 -15.4 -102.95 -17.95 -104.65 -16.9 -105.4 -17.95 -106.35 -19.3 -106.4 -20.95 L-106.45 -21.95 -108.85 -21.3 -110.05 -20.65 Q-110.45 -20.45 -110.8 -20.2 -113.15 -18.55 -115.5 -16.0 -116.25 -15.2 -116.95 -15.05 -119.65 -14.45 -121.85 -12.8 -123.95 -11.25 -126.45 -10.4 -132.05 -8.55 -135.85 -12.55 -137.05 -13.8 -139.4 -13.25 L-141.95 -12.45 Q-144.5 -11.45 -147.4 -10.8 L-148.4 -10.75 Q-154.3 -11.25 -157.95 -6.45 L-159.7 -4.5 -159.85 -4.75 -160.0 -5.2 -160.1 -5.7 Q-160.25 -6.9 -160.85 -7.4 L-161.0 -7.75 Q-161.45 -10.25 -161.35 -13.0 -161.3 -13.95 -161.6 -14.8 L-161.7 -15.5 -161.6 -24.75 -161.55 -25.25 -161.4 -26.3 Q-156.3 -29.5 -150.45 -30.9 -147.2 -31.7 -147.65 -28.4 -147.7 -27.95 -147.3 -27.7 -146.95 -27.45 -146.5 -27.35 -143.45 -26.6 -139.95 -26.75 -138.6 -26.85 -137.9 -27.35 L-135.45 -28.95 Q-134.25 -29.6 -133.45 -30.95 -132.9 -31.9 -132.0 -32.1 -131.05 -32.3 -129.95 -33.45 -129.3 -34.05 -127.95 -34.2 L-127.4 -34.25 Q-125.55 -34.7 -124.35 -35.25 L-123.45 -35.45 Q-120.65 -35.45 -119.4 -33.95 L-118.95 -33.7 -117.95 -33.9 Q-116.6 -34.35 -116.7 -36.45 L-116.45 -37.45 Q-115.65 -39.05 -114.6 -39.7 -114.2 -39.95 -114.2 -40.45 L-114.25 -40.95 Q-114.3 -41.8 -113.5 -42.1 -111.3 -43.0 -108.95 -43.5 L-100.4 -45.25 -97.9 -45.2 -95.75 -44.35 Q-95.45 -44.2 -95.2 -44.6 -94.95 -44.95 -94.85 -45.45 -94.3 -48.0 -92.05 -49.15 L-90.85 -49.75 -89.95 -49.95 -86.4 -50.2 -81.45 -49.9 M-111.95 -10.95 L-111.45 -11.2 Q-109.4 -11.25 -107.95 -12.45 -106.7 -10.95 -106.7 -7.95 L-106.65 -7.4 -106.3 -4.95 Q-106.15 -3.75 -105.1 -2.8 -104.7 -2.45 -104.7 -1.95 -104.6 0.45 -102.5 0.75 L-101.95 0.8 Q-98.55 0.55 -96.0 2.1 L-95.4 2.45 -93.95 2.9 -91.5 3.3 Q-89.1 3.7 -86.5 3.35 L-85.95 3.3 Q-85.45 3.3 -85.15 3.7 L-84.3 4.95 Q-83.65 5.9 -83.55 7.55 L-83.25 10.05 -83.2 11.05 -83.4 12.55 Q-84.45 16.4 -86.35 20.1 L-86.5 20.4 -86.95 20.35 -87.3 20.4 Q-87.7 20.85 -88.45 21.3 L-88.95 21.45 Q-89.8 21.45 -90.2 21.8 L-90.45 22.0 -90.85 22.15 -91.25 22.5 Q-92.85 24.1 -94.95 25.0 L-99.5 27.2 -100.45 27.5 -100.9 27.65 -102.45 27.95 -103.2 28.0 -103.65 28.15 -104.7 28.4 -104.95 28.45 Q-105.8 28.45 -106.4 28.85 L-107.45 29.15 -107.95 29.2 -109.2 29.4 -109.45 29.45 -113.2 29.55 -113.05 29.8 Q-113.05 30.45 -113.4 30.95 L-114.5 30.6 -117.55 29.55 Q-117.55 28.45 -117.05 27.95 -116.7 27.55 -116.7 27.05 -116.7 26.1 -116.1 25.4 -115.45 24.65 -115.6 23.55 L-115.8 22.5 -116.1 20.6 Q-116.2 20.05 -116.55 19.65 -119.0 17.1 -120.4 14.0 -120.7 13.3 -121.15 12.7 -122.25 11.25 -122.4 9.55 -122.8 4.9 -120.85 1.1 -119.75 -0.95 -118.1 -2.6 L-113.9 -6.95 -113.5 -7.55 Q-113.75 -7.9 -113.35 -8.9 -112.8 -10.25 -111.95 -10.95 M-152.75 -3.35 L-152.15 -4.55 -151.7 -5.15 -148.0 -7.55 -143.5 -9.1 -142.5 -9.15 -138.95 -8.95 -138.05 -8.75 Q-136.4 -8.0 -134.85 -7.1 -134.2 -6.7 -133.45 -6.65 -131.45 -6.45 -131.9 -3.95 -132.15 -2.5 -130.45 -2.85 L-129.55 -2.75 Q-127.65 -1.8 -126.4 0.0 L-126.2 0.55 -126.4 5.55 -126.65 6.45 Q-127.7 8.75 -127.5 11.55 L-127.65 12.45 Q-129.4 16.45 -133.4 19.1 L-133.7 19.55 -133.75 19.9 -134.5 20.4 -143.2 20.85 -143.9 20.05 -144.75 18.85 Q-145.85 17.2 -147.75 15.85 -149.8 14.35 -150.95 12.05 L-151.1 11.05 -151.1 10.8 -151.75 10.05 -152.0 9.6 -152.35 9.0 -154.4 5.15 -154.45 1.55 -154.25 0.65 Q-153.6 -0.6 -153.1 -2.5 L-152.75 -3.35 M-45.0 -14.55 L-47.55 -13.7 -48.45 -13.45 -48.95 -13.45 Q-50.5 -13.4 -51.85 -12.65 L-53.45 -13.3 -55.4 -13.65 -55.75 -14.0 Q-56.35 -16.75 -58.0 -17.9 L-58.9 -18.55 -59.55 -19.0 -56.95 -19.1 Q-53.6 -19.7 -50.85 -21.8 -48.85 -23.3 -46.45 -23.85 -42.15 -24.85 -38.0 -23.35 L-34.5 -22.2 -31.4 -21.0 Q-29.8 -20.25 -27.95 -19.95 -34.8 -19.25 -41.0 -17.05 -43.1 -16.3 -44.1 -15.1 -44.45 -14.7 -45.0 -14.55" fill="url(#gradient0)" fill-rule="evenodd" stroke="none"/>
  </g>
  <defs>
    <radialGradient cx="0" cy="0" gradientTransform="matrix(0.219, 0.0598, -0.0602, 0.2206, -148.95, -32.95)" gradientUnits="userSpaceOnUse" id="gradient0" r="819.2" spreadMethod="pad">
      <stop offset="0.0" stop-color="#ca0000"/>
      <stop offset="0.6862745098039216" stop-color="#ffffff"/>
    </radialGradient>
  </defs>
</svg>
