<?xml version="1.0" encoding="UTF-8" standalone="no"?>
<svg xmlns:xlink="http://www.w3.org/1999/xlink" height="116.95px" width="104.0px" xmlns="http://www.w3.org/2000/svg">
  <g transform="matrix(1.0, 0.0, 0.0, 1.0, 0.0, 0.0)">
    <path d="M87.0 85.65 L71.7 85.65 71.7 78.0 79.35 78.0 79.35 39.75 71.7 39.75 71.7 32.1 87.0 32.1 87.0 85.65 M30.4 39.75 L22.75 39.75 22.75 78.0 30.4 78.0 30.4 85.65 15.1 85.65 15.1 32.1 30.4 32.1 30.4 39.75" fill="#ffffff" fill-rule="evenodd" stroke="none"/>
    <path d="M30.4 39.75 L30.4 32.1 15.1 32.1 15.1 85.65 30.4 85.65 30.4 78.0 22.75 78.0 22.75 39.75 30.4 39.75 M87.0 85.65 L87.0 32.1 71.7 32.1 71.7 39.75 79.35 39.75 79.35 78.0 71.7 78.0 71.7 85.65 87.0 85.65 M104.0 116.95 L0.0 116.95 0.0 0.0 104.0 0.0 104.0 116.95" fill="url(#gradient0)" fill-rule="evenodd" stroke="none"/>
  </g>
  <defs>
    <linearGradient gradientTransform="matrix(-0.0246, -0.0829, 0.0778, -0.0231, 52.0, 58.45)" gradientUnits="userSpaceOnUse" id="gradient0" spreadMethod="pad" x1="-819.2" x2="819.2">
      <stop offset="0.0" stop-color="#990000"/>
      <stop offset="1.0" stop-color="#f05615"/>
    </linearGradient>
  </defs>
</svg>
