<?xml version="1.0" encoding="UTF-8" standalone="no"?>
<svg xmlns:xlink="http://www.w3.org/1999/xlink" height="95.9px" width="132.05px" xmlns="http://www.w3.org/2000/svg">
  <g transform="matrix(1.0, 0.0, 0.0, 1.0, 160.7, 65.2)">
    <path d="M-102.45 -63.8 Q-101.7 -63.6 -101.15 -63.05 -100.6 -62.4 -99.7 -62.4 L-99.2 -62.3 -98.7 -62.2 Q-97.35 -61.85 -96.5 -60.95 L-96.35 -60.8 -95.85 -56.95 -95.5 -55.45 Q-95.2 -54.5 -95.85 -53.85 L-97.1 -52.6 Q-99.0 -50.7 -101.4 -49.8 L-101.95 -49.45 Q-103.1 -48.25 -104.8 -46.8 L-105.35 -45.9 Q-105.85 -43.7 -107.1 -42.05 -108.35 -40.4 -109.35 -37.9 L-109.65 -37.0 -110.0 -36.45 Q-112.15 -33.95 -114.55 -33.75 L-115.5 -33.95 -118.9 -34.05 -119.6 -33.5 Q-122.4 -29.95 -127.0 -29.0 -128.35 -28.75 -129.55 -28.05 -131.5 -26.95 -133.55 -26.1 L-134.45 -25.8 Q-137.55 -24.55 -141.0 -24.15 L-144.0 -23.75 Q-145.4 -23.6 -146.5 -22.95 -146.8 -24.0 -146.05 -24.2 L-146.0 -24.45 Q-148.3 -23.65 -150.95 -23.5 L-152.05 -23.05 Q-153.25 -22.2 -155.5 -22.2 -156.0 -22.2 -156.4 -21.85 -157.35 -20.95 -158.3 -21.35 L-158.65 -21.9 -159.05 -22.4 Q-160.1 -23.1 -160.7 -23.95 L-160.7 -24.0 Q-159.95 -25.55 -160.1 -27.5 L-159.95 -29.75 Q-159.05 -34.3 -157.3 -38.7 L-157.0 -39.3 Q-155.65 -41.3 -154.6 -43.45 L-152.5 -46.8 -150.8 -49.05 -147.45 -52.5 -146.35 -53.7 -146.0 -54.05 -144.45 -55.45 -141.9 -57.2 -137.4 -59.7 -135.0 -60.85 -130.7 -62.2 Q-129.35 -62.5 -128.15 -63.15 L-127.7 -63.3 Q-125.35 -64.1 -122.7 -64.35 L-122.2 -64.4 -119.65 -64.35 -118.95 -64.25 -115.2 -64.35 -115.0 -64.5 Q-114.5 -65.45 -112.95 -65.15 L-112.45 -65.1 -109.45 -65.0 -106.7 -64.7 -104.7 -64.25 -102.95 -63.9 -102.45 -63.8 M-154.9 -8.3 Q-153.15 -9.6 -151.0 -9.55 -150.05 -9.5 -149.35 -10.3 -149.0 -10.7 -148.45 -10.85 L-144.45 -11.85 Q-142.9 -12.3 -141.85 -11.1 L-141.0 -10.45 Q-140.15 -10.6 -140.25 -11.95 L-140.15 -13.0 Q-139.35 -16.45 -136.0 -18.45 L-129.1 -22.15 -127.9 -22.75 Q-123.5 -24.8 -118.95 -26.3 L-118.0 -26.5 Q-115.1 -26.75 -113.3 -25.2 L-112.5 -24.9 Q-111.05 -24.75 -111.65 -26.4 L-111.75 -26.95 -111.45 -27.35 -108.55 -28.6 Q-106.2 -29.45 -103.95 -30.4 L-102.7 -31.2 Q-102.45 -31.45 -102.55 -31.95 -102.95 -34.3 -101.15 -35.35 -100.95 -35.45 -101.1 -35.9 -102.05 -38.45 -98.95 -39.35 L-96.05 -40.2 -94.45 -40.9 Q-92.2 -42.3 -90.05 -41.25 L-88.85 -40.65 -88.0 -40.3 -87.4 -40.0 Q-85.75 -38.85 -84.0 -37.85 L-83.4 -37.65 Q-82.45 -37.45 -82.05 -36.9 L-81.4 -36.0 Q-80.55 -34.8 -79.15 -35.35 -78.95 -35.45 -78.8 -35.9 L-78.4 -36.35 Q-76.05 -37.4 -74.5 -36.4 L-72.0 -35.3 -71.45 -34.95 Q-69.25 -33.05 -68.75 -31.0 L-68.55 -30.4 -68.0 -29.3 -68.75 -28.0 Q-69.4 -26.65 -68.2 -26.45 -66.5 -26.2 -66.0 -24.75 -65.75 -24.1 -64.9 -23.85 L-63.7 -24.0 -59.15 -26.9 -58.7 -26.95 -56.0 -26.15 -55.15 -25.8 Q-52.9 -24.7 -51.65 -22.55 -49.2 -18.3 -47.35 -13.75 L-46.45 -12.45 -45.95 -11.95 Q-47.0 -12.55 -48.25 -12.8 L-49.45 -13.0 -51.45 -13.05 -52.2 -12.95 Q-53.45 -12.65 -54.2 -11.95 -54.45 -11.7 -54.75 -11.6 L-54.95 -11.7 Q-56.1 -12.6 -57.7 -12.6 L-58.45 -12.65 Q-60.25 -13.1 -61.95 -12.6 -63.1 -12.3 -63.8 -11.55 L-65.95 -9.2 -66.45 -9.45 -69.2 -10.2 -70.95 -10.25 -72.95 -10.1 Q-75.35 -9.9 -76.8 -7.85 -78.45 -5.55 -80.95 -5.45 L-81.7 -5.2 Q-83.25 -3.75 -84.9 -5.0 L-85.45 -5.2 Q-86.9 -5.15 -86.95 -6.45 -86.95 -7.55 -87.3 -8.5 L-87.7 -9.2 Q-89.6 -11.0 -90.9 -14.45 -92.05 -17.6 -95.45 -18.45 L-95.45 -16.45 -95.65 -15.55 -96.8 -12.9 -97.15 -12.05 Q-98.8 -8.75 -103.4 -9.65 L-103.7 -9.7 -105.6 -7.6 -106.25 -6.8 Q-106.55 -6.35 -107.55 -6.05 L-108.35 -5.7 -109.15 -5.15 -109.8 -3.9 Q-110.35 -1.7 -113.0 -0.95 -116.1 0.0 -119.05 1.45 -123.25 3.6 -127.5 1.55 L-128.25 0.9 Q-129.3 -0.6 -130.95 0.6 L-131.55 0.85 -134.0 1.1 Q-137.6 1.2 -140.6 3.45 -141.55 4.15 -142.3 5.2 L-147.95 12.95 -148.45 12.95 -148.95 12.95 -149.4 12.75 -151.55 10.6 -152.4 9.7 -152.7 9.3 -153.7 6.8 Q-154.1 7.2 -154.95 7.2 L-155.2 7.05 Q-156.55 5.85 -157.0 4.05 L-157.15 3.55 -157.75 1.3 -157.95 0.8 -158.2 -0.45 Q-158.25 -1.25 -158.45 -1.95 L-158.65 -2.7 Q-158.1 -5.85 -154.9 -8.3 M-103.55 -0.15 L-102.35 -0.7 Q-100.5 -1.45 -98.95 -2.95 L-97.65 -4.55 Q-96.55 -6.35 -94.45 -6.05 L-93.75 -5.7 Q-93.05 -4.9 -92.4 -3.45 L-91.8 -2.75 Q-89.25 -1.5 -87.35 1.0 L-86.65 2.15 -84.95 5.55 Q-83.4 4.7 -82.0 3.5 -81.45 3.05 -80.85 2.9 L-77.95 2.45 -69.5 3.05 -69.5 3.8 Q-69.65 4.8 -70.2 5.8 L-70.4 6.3 Q-70.65 7.25 -71.25 8.0 L-72.95 10.3 -74.45 12.3 -74.7 12.45 -74.85 12.45 -75.45 13.05 Q-76.95 14.95 -78.75 16.25 L-79.1 16.6 Q-80.05 17.65 -81.2 18.1 L-81.65 18.35 -82.75 19.2 -83.35 19.65 -83.8 19.95 -85.5 20.95 -87.5 21.95 -87.9 22.15 Q-88.7 22.65 -89.75 22.95 L-92.5 23.95 -101.2 27.8 -105.45 29.05 Q-107.0 29.35 -108.05 28.6 L-106.5 26.5 Q-105.2 24.5 -105.65 22.1 L-106.1 18.55 Q-106.25 16.1 -107.65 14.15 -108.7 12.75 -109.0 11.05 -109.5 8.15 -107.9 6.1 -107.45 5.55 -106.9 5.5 -105.9 5.35 -105.9 4.55 L-105.8 3.1 -105.6 2.0 Q-105.35 0.65 -104.35 0.25 L-103.55 -0.15 M-47.45 -21.15 L-46.95 -21.25 Q-44.0 -22.55 -40.65 -22.7 -39.25 -22.75 -38.6 -22.05 -38.35 -21.7 -37.65 -21.65 L-37.15 -21.6 -32.15 -21.6 -31.65 -21.7 Q-30.05 -22.05 -28.65 -22.75 -31.15 -18.55 -34.7 -15.05 -35.2 -14.6 -35.9 -14.45 L-36.4 -14.35 -37.65 -14.15 -37.9 -14.1 -39.65 -13.9 -39.9 -13.85 -41.15 -13.75 -42.1 -13.9 -42.9 -14.0 Q-43.45 -14.1 -43.7 -14.7 L-43.9 -14.95 Q-45.0 -15.6 -45.65 -17.0 L-46.1 -17.8 -46.6 -18.8 -47.1 -19.65 -47.5 -19.95 -47.95 -20.25 -48.7 -20.75 Q-48.4 -21.2 -47.45 -21.15 M-118.5 20.55 Q-118.5 21.05 -118.75 21.35 -119.45 22.1 -119.5 23.05 L-119.5 23.55 Q-119.75 27.2 -122.9 29.65 L-124.4 30.7 -125.0 30.4 Q-125.5 30.1 -125.95 29.95 L-126.2 29.85 -128.4 29.0 -128.7 28.9 -133.45 28.25 -133.95 28.1 Q-134.95 27.9 -135.65 27.25 -136.15 26.85 -135.7 26.3 L-134.7 25.05 Q-135.55 24.45 -136.95 24.2 L-137.2 24.15 -137.6 23.95 -137.95 23.8 Q-139.6 23.75 -140.95 23.05 L-143.75 21.65 -144.6 20.75 Q-145.05 19.95 -145.0 18.95 L-144.0 17.05 Q-143.5 15.85 -141.55 15.4 L-140.7 14.9 Q-140.4 14.45 -139.45 14.25 -137.45 13.85 -136.05 13.0 L-135.5 12.75 Q-133.25 12.55 -131.0 12.7 L-127.5 13.0 -126.15 12.75 Q-124.7 12.1 -123.05 12.3 -120.3 12.6 -118.9 15.0 L-118.75 15.55 Q-118.5 18.05 -118.5 20.55" fill="url(#gradient0)" fill-rule="evenodd" stroke="none"/>
  </g>
  <defs>
    <radialGradient cx="0" cy="0" gradientTransform="matrix(0.219, 0.0598, -0.0602, 0.2206, -148.95, -32.95)" gradientUnits="userSpaceOnUse" id="gradient0" r="819.2" spreadMethod="pad">
      <stop offset="0.0" stop-color="#ca0000"/>
      <stop offset="0.6862745098039216" stop-color="#ffffff"/>
    </radialGradient>
  </defs>
</svg>
