<?xml version="1.0" encoding="UTF-8" standalone="no"?>
<svg xmlns:xlink="http://www.w3.org/1999/xlink" height="96.7px" width="124.25px" xmlns="http://www.w3.org/2000/svg">
  <g transform="matrix(1.0, 0.0, 0.0, 1.0, 159.45, 66.15)">
    <path d="M-107.2 -63.65 L-106.45 -63.6 -103.95 -63.45 -102.2 -63.2 Q-101.7 -63.1 -101.35 -63.4 L-100.95 -63.45 -98.95 -62.9 -98.7 -62.75 Q-97.85 -62.15 -96.45 -62.15 L-95.95 -62.0 Q-94.85 -61.4 -93.75 -60.9 L-92.75 -60.2 -91.65 -59.05 -91.25 -58.7 -90.75 -58.1 Q-88.05 -57.0 -88.2 -53.45 L-88.45 -53.0 Q-90.45 -51.4 -91.1 -49.5 -91.9 -47.0 -94.4 -46.3 L-94.95 -45.95 Q-97.5 -43.7 -100.3 -42.6 L-100.9 -41.95 Q-102.45 -37.55 -102.45 -32.45 -102.45 -31.7 -102.75 -31.1 L-103.4 -30.35 -108.9 -25.85 Q-110.1 -24.8 -111.05 -24.65 -112.4 -24.4 -113.55 -23.0 -115.25 -20.85 -117.55 -20.1 -118.0 -19.95 -118.45 -20.1 -120.05 -20.65 -120.0 -22.45 L-125.9 -19.25 -127.0 -18.45 Q-129.3 -16.05 -132.05 -14.0 -133.45 -12.95 -135.55 -13.8 L-136.45 -14.05 -137.5 -14.4 Q-138.45 -14.7 -139.1 -14.1 -141.3 -12.1 -144.55 -11.15 L-146.0 -10.9 -154.95 -11.6 -156.0 -11.75 Q-157.6 -11.85 -158.2 -12.85 -159.05 -14.45 -159.2 -16.45 L-159.4 -17.5 -159.4 -17.55 Q-159.15 -18.7 -159.3 -20.0 L-159.3 -20.75 -159.3 -25.0 -159.4 -27.5 Q-159.6 -29.85 -158.8 -31.8 -158.3 -32.95 -158.15 -34.25 L-157.6 -36.7 -156.5 -39.3 -156.2 -40.0 -155.3 -41.6 Q-154.95 -41.85 -154.7 -42.25 -153.5 -44.05 -152.2 -45.0 L-150.5 -46.35 -149.2 -48.0 Q-148.7 -48.8 -148.5 -49.75 L-147.65 -51.7 -147.25 -52.3 -146.35 -53.7 -144.65 -55.7 -142.7 -57.05 Q-140.3 -58.5 -137.65 -59.4 L-133.2 -60.95 -129.0 -62.35 -128.15 -62.65 -123.7 -64.0 -121.75 -64.6 -120.2 -65.25 -117.95 -66.0 -116.95 -66.15 -115.45 -65.95 -113.9 -65.35 -113.5 -65.15 Q-111.0 -64.35 -108.45 -63.85 L-107.2 -63.65 M-133.95 -4.35 Q-130.9 -5.7 -129.85 -8.9 L-129.55 -9.5 Q-128.5 -10.85 -126.3 -12.15 L-125.05 -12.65 -120.55 -12.75 -119.95 -12.5 Q-118.5 -11.4 -116.6 -11.8 -116.0 -11.95 -115.5 -12.45 -114.35 -13.6 -112.0 -13.75 -109.7 -13.95 -108.7 -15.8 L-108.05 -16.5 Q-107.0 -17.3 -106.8 -18.4 L-106.35 -19.4 Q-105.3 -20.8 -103.35 -21.75 -102.15 -22.4 -101.85 -23.4 L-101.1 -24.65 -100.35 -25.4 Q-99.8 -26.05 -98.45 -26.2 -98.2 -26.2 -97.9 -26.35 -95.5 -27.55 -92.9 -28.25 L-91.45 -28.55 Q-89.85 -28.8 -89.45 -27.95 -89.05 -27.1 -87.5 -27.6 L-86.9 -27.85 Q-85.9 -28.25 -85.6 -27.6 -85.45 -27.2 -84.95 -27.2 L-84.4 -27.25 -80.9 -27.15 -78.95 -26.85 -76.45 -26.65 Q-74.0 -26.5 -72.75 -25.1 L-71.45 -23.95 Q-69.4 -22.7 -68.75 -20.0 -68.35 -18.3 -67.25 -17.45 -67.25 -16.7 -67.95 -15.95 L-69.65 -14.35 -69.95 -13.95 Q-70.5 -13.05 -70.05 -12.4 L-69.95 -11.95 -70.15 -9.45 Q-70.4 -8.0 -69.45 -7.65 L-68.95 -7.45 Q-68.1 -7.1 -67.65 -6.75 L-67.25 -6.4 Q-66.6 -5.7 -66.3 -4.9 L-66.2 -4.45 Q-66.35 -3.1 -65.45 -2.5 -64.8 -2.05 -64.55 -1.15 L-64.35 -0.2 -64.3 0.3 -64.2 1.55 Q-65.9 0.5 -68.2 0.75 L-69.2 0.85 Q-69.75 0.9 -69.8 1.55 L-69.95 1.8 -70.65 2.35 -73.2 2.8 -73.95 3.0 -75.95 3.4 -78.9 3.3 Q-82.2 2.8 -85.05 1.2 L-86.6 0.2 Q-87.4 -0.5 -87.4 -1.45 L-87.45 -2.45 Q-89.15 -0.35 -90.9 3.05 -91.65 4.5 -92.8 5.7 L-93.6 6.25 -97.95 8.55 -98.95 8.8 -109.5 9.45 -110.15 9.35 Q-110.75 8.3 -112.5 8.6 -113.6 8.75 -114.6 9.35 L-115.35 9.8 Q-117.75 11.45 -120.0 13.55 L-121.05 14.15 Q-122.6 14.4 -123.6 15.45 L-124.65 16.75 Q-127.3 21.8 -129.1 27.0 L-129.3 27.6 -130.2 27.75 -130.55 27.9 -131.45 28.1 -131.85 28.15 -133.2 28.35 -133.9 28.2 Q-135.0 27.85 -136.0 27.15 L-136.65 26.7 -138.15 25.25 -138.55 24.95 Q-139.7 24.25 -139.9 22.8 L-140.05 22.4 Q-140.5 21.75 -141.7 21.6 L-142.4 21.45 -143.2 21.1 Q-144.8 20.3 -145.55 19.0 -145.7 13.8 -144.4 9.05 -143.85 7.05 -141.5 7.5 -139.1 7.95 -139.3 5.55 L-139.4 1.05 Q-139.4 -0.35 -138.65 -1.1 -136.55 -3.25 -133.95 -4.35 M-81.5 -43.45 L-80.85 -45.4 Q-80.55 -46.3 -79.05 -45.7 L-77.95 -44.95 -77.45 -44.45 Q-76.95 -44.95 -76.95 -45.95 L-76.95 -46.45 Q-75.1 -44.75 -72.75 -41.7 L-72.25 -41.0 -69.2 -41.7 -69.0 -41.7 Q-67.65 -40.75 -66.9 -39.5 L-66.7 -39.3 Q-66.0 -38.9 -65.7 -37.75 -65.15 -35.65 -63.3 -34.35 L-62.65 -33.75 -61.9 -33.0 Q-64.65 -34.15 -67.7 -34.35 -68.7 -34.4 -69.15 -33.7 -69.8 -32.8 -69.8 -31.5 -69.8 -31.35 -69.95 -31.35 L-70.0 -31.3 -72.3 -30.9 -73.15 -30.95 -73.45 -31.0 Q-77.0 -31.1 -78.55 -33.9 L-78.95 -34.45 Q-82.15 -37.4 -81.75 -42.45 L-81.5 -43.45 M-53.45 -26.6 L-52.95 -26.7 -50.7 -26.95 Q-49.75 -26.9 -49.15 -26.3 L-48.45 -25.75 -47.4 -25.1 Q-47.05 -24.85 -46.7 -24.75 L-45.15 -24.45 -45.65 -24.15 -46.95 -23.0 Q-49.35 -20.45 -50.65 -17.6 -50.7 -17.5 -50.95 -17.5 -51.7 -17.5 -52.3 -17.1 L-52.7 -17.0 Q-54.3 -17.1 -55.75 -17.95 -56.7 -18.5 -57.3 -19.1 L-57.7 -19.2 -58.9 -18.65 -60.2 -18.15 -61.2 -18.1 -61.75 -18.05 Q-62.55 -18.9 -62.9 -20.0 -63.5 -21.9 -64.55 -23.35 -64.3 -23.1 -63.75 -23.55 L-62.65 -24.45 Q-62.05 -24.95 -61.5 -24.15 -61.3 -23.85 -60.95 -23.85 -59.2 -23.7 -57.7 -24.55 L-54.65 -26.2 -53.45 -26.6 M-43.95 -21.2 Q-42.3 -20.2 -40.2 -19.95 L-38.45 -19.75 Q-35.75 -19.35 -35.2 -21.5 -35.25 -20.15 -35.85 -18.95 -36.7 -17.45 -38.0 -16.55 -39.1 -15.8 -40.45 -15.85 L-43.2 -16.1 Q-43.9 -16.25 -44.05 -16.75 L-44.2 -16.9 Q-45.35 -17.3 -45.75 -18.0 L-46.1 -18.8 -46.25 -19.5 -46.35 -20.0 -46.4 -20.35 -46.2 -20.5 -44.85 -21.4 -44.45 -21.45 -43.95 -21.2 M-82.95 9.05 Q-79.75 11.9 -81.35 16.1 L-81.85 18.0 -81.95 18.05 -82.15 18.3 Q-82.9 19.4 -84.45 20.3 L-84.85 20.6 -86.65 22.1 -87.25 22.5 Q-89.3 24.0 -91.25 24.95 L-91.65 25.15 Q-93.55 26.3 -95.95 26.3 L-96.35 26.2 -97.2 26.1 -97.7 26.55 Q-98.75 27.45 -100.0 27.95 L-103.4 29.15 -106.7 29.9 -112.45 30.55 -115.25 30.2 -115.2 29.05 -114.85 25.55 Q-114.5 22.25 -112.7 19.45 -112.0 18.35 -111.5 19.05 L-111.35 18.6 -110.95 18.1 Q-106.6 14.75 -100.95 14.15 -99.95 14.05 -99.4 14.5 -98.35 15.35 -96.4 14.15 -95.1 13.35 -94.15 12.3 L-92.55 10.9 -90.9 9.65 Q-89.75 8.75 -88.55 8.3 L-87.35 7.75 -86.7 7.3 -86.45 7.55 Q-85.45 8.55 -83.5 8.75 L-82.95 9.05" fill="url(#gradient0)" fill-rule="evenodd" stroke="none"/>
  </g>
  <defs>
    <radialGradient cx="0" cy="0" gradientTransform="matrix(0.219, 0.0598, -0.0602, 0.2206, -148.95, -32.95)" gradientUnits="userSpaceOnUse" id="gradient0" r="819.2" spreadMethod="pad">
      <stop offset="0.0" stop-color="#ca0000"/>
      <stop offset="0.6862745098039216" stop-color="#ffffff"/>
    </radialGradient>
  </defs>
</svg>
