<?xml version="1.0" encoding="UTF-8" standalone="no"?>
<svg xmlns:xlink="http://www.w3.org/1999/xlink" height="90.5px" width="125.55px" xmlns="http://www.w3.org/2000/svg">
  <g transform="matrix(1.0, 0.0, 0.0, 1.0, 160.0, 65.0)">
    <path d="M-106.7 -64.85 L-105.9 -64.5 -104.55 -63.8 Q-102.0 -62.15 -101.6 -59.45 -101.25 -57.05 -102.6 -55.6 -103.7 -54.4 -104.2 -53.05 -104.45 -52.45 -105.0 -52.05 -107.0 -50.55 -107.4 -48.45 -107.9 -45.9 -107.0 -43.95 -106.1 -41.85 -106.05 -39.45 -106.05 -37.9 -106.3 -36.4 -106.8 -33.7 -105.75 -31.55 L-104.9 -30.5 Q-103.7 -29.45 -103.8 -26.95 L-104.15 -21.45 Q-104.2 -20.0 -105.3 -18.8 -107.2 -16.65 -109.95 -17.1 L-111.05 -17.35 Q-112.9 -17.9 -114.2 -16.7 -114.75 -16.2 -115.5 -16.15 -116.85 -16.05 -117.5 -15.45 L-119.0 -13.95 -119.45 -13.45 Q-120.15 -12.6 -121.95 -12.5 L-122.85 -11.85 Q-123.85 -10.3 -125.4 -8.85 -126.85 -7.5 -127.8 -5.85 L-128.85 -4.75 -129.6 -4.0 Q-131.0 -2.3 -133.1 -1.15 L-133.9 -0.75 -135.85 0.7 Q-136.9 1.9 -138.5 1.8 L-139.55 1.9 -141.95 2.25 -142.55 2.35 Q-143.6 2.55 -144.35 3.2 -146.05 4.6 -148.5 4.15 L-149.45 3.9 -151.15 2.7 -152.4 1.45 Q-155.1 -1.05 -158.05 -2.9 L-158.35 -3.1 -158.6 -4.45 -159.55 -10.2 -159.7 -11.7 -159.55 -15.7 Q-159.45 -16.65 -159.75 -17.5 -160.1 -18.4 -160.0 -19.5 -159.7 -22.1 -159.65 -24.75 -159.55 -29.3 -158.25 -33.5 L-157.55 -35.8 -157.45 -36.25 Q-157.55 -38.35 -156.3 -40.05 -155.55 -41.05 -155.35 -42.25 L-155.0 -43.25 -154.0 -44.8 -152.4 -46.45 -149.5 -49.1 -149.15 -49.4 -147.5 -51.05 Q-145.9 -52.85 -143.95 -54.0 -141.85 -55.25 -140.2 -56.75 L-139.25 -57.55 -138.9 -57.95 Q-137.25 -59.75 -135.25 -61.1 L-133.5 -62.3 Q-131.45 -63.65 -128.95 -63.85 L-127.7 -64.05 -122.95 -64.65 -122.2 -64.65 -119.2 -64.75 -115.95 -64.9 -113.7 -65.0 -107.2 -64.9 -107.15 -64.9 -106.7 -64.85 M-83.65 -58.2 L-83.6 -57.5 -83.25 -55.25 Q-82.95 -54.0 -81.7 -53.9 -81.2 -53.85 -81.0 -53.5 L-80.55 -52.45 -80.35 -51.75 -80.2 -51.6 -79.1 -51.1 -78.7 -50.95 Q-77.55 -50.75 -77.05 -51.4 L-76.7 -51.55 -76.4 -51.7 -74.2 -52.1 Q-73.15 -52.1 -72.55 -51.4 L-70.4 -49.3 -68.7 -48.0 Q-68.8 -47.6 -69.45 -47.6 L-69.75 -47.55 -71.15 -46.65 Q-72.25 -45.8 -72.6 -44.7 L-72.7 -44.0 Q-72.95 -41.2 -71.75 -39.45 L-71.25 -38.45 -71.05 -37.5 -71.1 -37.25 -71.25 -35.0 Q-71.4 -32.45 -70.2 -30.5 L-68.75 -28.7 -68.8 -28.4 -69.15 -27.0 Q-69.5 -26.0 -70.45 -25.95 -72.55 -25.85 -72.65 -27.95 -72.75 -29.5 -73.9 -29.3 L-74.9 -28.85 -78.5 -28.75 -79.35 -29.15 -80.55 -29.8 -83.5 -31.35 Q-86.05 -32.5 -87.35 -35.0 L-87.85 -36.45 Q-88.25 -39.0 -89.7 -41.1 L-90.1 -41.9 Q-90.6 -43.55 -90.7 -44.95 -90.7 -45.45 -90.3 -45.8 L-89.75 -46.6 -89.9 -46.95 Q-92.05 -49.6 -91.55 -53.95 L-91.45 -55.95 -91.35 -56.3 Q-89.75 -57.65 -87.9 -58.3 L-86.95 -58.55 -83.65 -58.2 M-122.05 -4.0 Q-120.65 -4.9 -119.5 -5.95 -118.1 -7.2 -115.45 -7.75 L-112.95 -7.65 -111.55 -7.6 Q-111.25 -7.7 -110.95 -7.9 -108.95 -9.5 -105.95 -10.5 L-104.95 -10.7 -104.4 -10.55 Q-103.4 -10.15 -103.05 -10.75 L-102.5 -11.1 -101.9 -11.25 -99.45 -11.4 Q-98.65 -11.4 -98.95 -12.45 -99.35 -13.9 -99.2 -15.45 L-98.95 -15.7 Q-94.0 -16.15 -92.5 -20.45 -91.7 -22.8 -88.95 -24.95 -87.95 -25.75 -86.45 -25.7 L-85.45 -25.75 -80.95 -25.85 Q-78.65 -25.7 -77.4 -24.55 -74.5 -21.9 -72.25 -19.1 L-70.35 -16.5 Q-69.5 -15.2 -68.55 -12.9 -68.05 -11.6 -67.15 -10.75 L-67.65 -8.2 -67.8 -7.75 -68.15 -7.15 Q-68.7 -6.3 -68.7 -5.2 L-68.8 -4.5 -69.45 -2.2 Q-69.65 -1.2 -70.45 -0.2 L-70.8 0.35 Q-71.25 1.45 -72.45 2.1 L-72.65 2.35 Q-73.05 3.1 -73.7 3.3 L-74.65 3.6 -75.0 3.75 -77.45 4.05 -83.2 4.55 Q-84.25 4.8 -84.95 6.05 L-85.2 6.55 -86.95 8.8 -88.5 10.75 -88.85 11.35 Q-89.2 12.0 -90.2 12.25 L-90.65 12.4 -91.45 12.65 Q-93.3 13.05 -95.2 13.8 L-95.95 14.0 -99.5 15.2 -100.45 15.4 -103.15 15.85 -103.35 16.1 -103.55 16.45 Q-104.3 17.15 -104.3 18.05 L-104.35 18.8 Q-104.35 20.2 -105.2 20.75 L-106.95 22.55 Q-107.65 23.65 -108.75 24.45 L-110.05 25.5 Q-111.25 24.25 -113.4 23.7 -114.0 23.55 -114.5 23.05 -116.2 21.35 -118.45 20.45 -119.5 20.05 -120.05 19.1 -121.45 16.85 -123.15 14.7 -124.4 13.2 -124.4 10.55 L-124.65 2.6 -124.4 2.1 Q-123.9 0.95 -124.0 -0.45 -124.1 -2.65 -122.05 -4.0 M-58.95 -45.25 L-58.95 -45.75 -58.45 -45.0 Q-57.8 -43.25 -56.55 -41.65 L-56.1 -41.05 -55.5 -40.2 -54.65 -39.3 Q-54.2 -38.75 -53.45 -38.65 L-52.95 -38.5 -51.45 -38.35 -51.15 -38.45 -50.95 -38.5 Q-51.05 -38.1 -51.7 -38.1 L-52.7 -38.0 Q-55.45 -37.25 -57.65 -35.65 L-58.7 -34.75 -60.05 -33.3 Q-60.2 -33.1 -60.45 -33.05 -61.1 -32.95 -61.4 -33.4 L-61.65 -33.6 -63.4 -34.35 -64.0 -34.7 Q-64.85 -35.4 -65.95 -35.6 L-66.3 -35.7 -66.45 -35.8 -66.7 -35.9 -67.7 -36.0 -68.35 -35.8 Q-69.25 -37.0 -69.5 -38.5 L-69.6 -41.0 -69.4 -41.5 -68.85 -42.05 Q-68.7 -42.1 -68.7 -42.5 L-68.7 -44.25 -67.8 -44.1 Q-67.7 -44.0 -67.45 -44.0 L-63.2 -43.8 Q-62.0 -43.7 -60.95 -44.2 L-60.2 -44.4 Q-59.05 -44.45 -58.95 -45.25 M-47.45 -27.45 L-46.7 -27.0 -45.5 -25.7 -44.95 -25.0 -43.95 -23.75 Q-46.85 -22.8 -49.15 -20.45 L-49.55 -20.1 -49.95 -20.0 -52.0 -19.65 -52.7 -19.5 -53.95 -19.6 -54.45 -19.7 Q-55.25 -19.9 -55.95 -20.25 L-56.2 -20.35 -57.3 -21.4 -57.55 -21.6 -57.75 -23.0 -57.95 -24.5 Q-57.3 -23.5 -55.7 -23.7 L-54.75 -23.85 Q-53.25 -24.2 -52.2 -25.25 -50.7 -26.75 -48.95 -27.25 L-47.45 -27.45 M-34.5 -19.2 L-34.45 -19.0 -38.7 -19.5 Q-39.15 -19.55 -39.25 -19.95 L-39.5 -20.2 Q-40.0 -20.4 -40.05 -21.0 L-39.9 -21.15 -37.45 -22.45 Q-36.9 -22.65 -36.85 -22.25 L-36.7 -22.0 -34.85 -19.55 -34.5 -19.2 M-77.7 7.3 Q-77.3 7.95 -77.9 8.85 L-80.85 13.35 -82.25 15.25 -82.65 15.6 -86.45 19.55 -88.25 21.25 -88.7 21.5 -90.25 21.95 -90.65 22.15 -90.95 22.3 Q-92.8 23.95 -95.2 24.15 L-95.45 24.2 -96.95 24.4 -97.75 24.7 -98.2 24.85 Q-99.15 25.0 -99.3 24.05 L-99.4 23.75 -99.85 22.95 -99.95 22.65 Q-99.6 20.55 -98.2 19.05 L-97.0 17.95 -96.65 17.6 -96.2 17.3 -93.7 16.55 Q-91.25 16.0 -88.95 14.8 L-88.45 14.5 Q-87.35 13.75 -85.75 12.0 -85.05 11.3 -84.75 10.4 L-84.45 10.25 -80.7 8.6 Q-79.2 7.8 -77.7 7.3" fill="url(#gradient0)" fill-rule="evenodd" stroke="none"/>
  </g>
  <defs>
    <radialGradient cx="0" cy="0" gradientTransform="matrix(0.219, 0.0598, -0.0602, 0.2206, -148.95, -32.95)" gradientUnits="userSpaceOnUse" id="gradient0" r="819.2" spreadMethod="pad">
      <stop offset="0.0" stop-color="#ca0000"/>
      <stop offset="0.6862745098039216" stop-color="#ffffff"/>
    </radialGradient>
  </defs>
</svg>
