<?xml version="1.0" encoding="UTF-8" standalone="no"?>
<svg xmlns:xlink="http://www.w3.org/1999/xlink" height="93.7px" width="118.1px" xmlns="http://www.w3.org/2000/svg">
  <g transform="matrix(1.0, 0.0, 0.0, 1.0, 159.75, 65.45)">
    <path d="M-113.5 -1.45 L-113.15 -2.0 Q-112.5 -3.8 -110.0 -3.35 L-108.5 -3.1 -105.5 -3.15 -100.95 -3.8 -99.5 -4.1 Q-98.6 -4.35 -98.85 -5.95 -98.95 -6.45 -98.7 -6.8 L-98.0 -7.55 Q-97.1 -8.25 -95.45 -8.4 L-94.6 -8.25 Q-93.15 -7.35 -93.0 -9.45 L-92.7 -10.2 Q-91.55 -11.25 -89.4 -11.85 -87.85 -12.3 -86.75 -11.1 -83.25 -7.3 -80.4 -3.0 L-80.2 -2.45 Q-80.25 -1.4 -79.45 -1.45 -79.3 -2.55 -78.0 -2.3 -76.4 -1.95 -76.25 -0.45 L-76.05 0.1 Q-74.45 3.3 -75.05 6.75 L-76.5 8.8 -76.75 9.0 Q-77.55 9.3 -78.25 10.0 -79.0 10.7 -79.1 11.55 -79.35 13.25 -78.45 13.8 -78.05 14.1 -78.25 14.55 -78.55 15.35 -79.4 15.65 -80.1 15.9 -80.8 16.45 L-81.2 17.05 Q-81.3 18.0 -80.9 18.8 L-80.65 19.0 -80.45 19.1 Q-80.2 20.45 -81.0 21.5 L-82.25 23.25 -83.2 23.3 -83.3 23.05 Q-83.3 22.25 -84.0 21.9 L-85.95 21.15 Q-87.25 20.85 -87.95 21.55 L-88.2 21.75 Q-89.65 22.5 -91.45 22.4 -92.85 22.3 -93.6 23.35 -94.0 23.95 -94.95 23.75 -96.7 23.45 -97.45 24.8 -98.2 26.1 -99.45 26.8 -101.75 28.0 -104.2 28.25 L-104.25 28.25 Q-106.85 25.5 -108.7 22.15 L-111.6 17.65 Q-112.9 16.0 -112.75 14.05 -112.7 12.55 -113.6 11.6 -115.05 10.05 -116.95 9.35 -117.95 9.0 -117.8 8.05 L-117.65 7.0 -117.15 5.8 Q-115.95 4.15 -115.05 1.55 -114.4 -0.5 -113.5 -1.45 M-117.4 -63.05 L-116.5 -62.5 Q-114.55 -61.85 -113.9 -60.5 -113.25 -59.05 -111.55 -57.85 -111.0 -57.45 -110.7 -56.85 L-109.85 -55.0 Q-109.4 -53.85 -109.7 -52.5 L-110.45 -47.95 -110.65 -47.0 Q-111.65 -44.5 -113.5 -42.95 L-112.95 -42.6 -112.05 -42.35 -111.0 -42.2 Q-109.15 -42.3 -108.45 -41.5 L-107.35 -40.1 Q-106.45 -39.0 -106.65 -36.95 -106.95 -34.2 -105.45 -33.45 L-104.7 -32.8 -104.25 -32.05 Q-103.5 -30.4 -100.45 -30.85 L-99.95 -30.85 Q-99.65 -29.25 -98.85 -28.55 -97.5 -27.4 -97.0 -25.95 -95.2 -20.3 -98.75 -15.8 -102.4 -11.2 -108.0 -11.45 L-108.9 -11.65 Q-110.55 -12.35 -111.5 -11.45 L-111.9 -10.9 Q-112.7 -9.0 -114.5 -8.95 L-115.4 -9.15 Q-117.35 -10.1 -118.5 -11.45 -118.25 -9.25 -119.15 -7.55 -120.05 -5.8 -121.35 -4.3 -123.6 -1.65 -125.1 1.5 L-125.3 2.1 Q-125.5 3.5 -126.6 4.45 -128.2 5.8 -130.5 6.0 L-131.4 6.25 Q-133.2 7.0 -136.0 6.8 L-136.5 6.8 -136.8 7.1 Q-137.1 8.95 -139.0 8.65 -140.35 8.45 -140.7 9.5 L-142.5 9.55 -143.9 8.45 -144.65 7.8 -145.35 7.3 -148.95 5.0 -149.4 4.5 Q-151.75 0.3 -156.55 -3.4 -159.6 -5.8 -159.5 -9.45 L-159.5 -9.5 -159.7 -10.25 Q-159.9 -11.65 -159.5 -12.75 L-159.45 -13.25 -159.3 -15.25 -159.2 -17.0 -159.1 -23.25 -159.05 -23.75 -158.85 -28.5 -158.8 -29.0 Q-158.4 -31.7 -158.35 -34.5 L-158.25 -35.0 -157.65 -37.2 -157.5 -37.55 -155.55 -42.05 -154.45 -43.75 Q-151.45 -47.25 -148.95 -51.0 L-148.1 -52.2 -146.6 -53.95 -146.25 -54.3 -144.5 -55.8 -142.65 -57.15 -140.9 -58.2 -138.75 -59.55 Q-136.7 -61.05 -134.5 -61.85 L-133.65 -62.15 Q-132.5 -62.5 -131.45 -63.2 L-129.7 -64.05 -126.15 -65.15 -125.75 -65.35 -125.45 -65.45 Q-123.95 -64.35 -122.0 -64.4 L-120.05 -64.25 Q-118.55 -64.0 -117.4 -63.05 M-105.2 -49.95 Q-105.2 -52.7 -103.55 -54.05 L-100.95 -56.45 -100.45 -56.7 Q-99.4 -56.65 -99.5 -57.45 -99.95 -60.75 -96.95 -60.8 L-92.95 -60.55 -92.5 -60.2 -90.2 -58.7 -89.95 -58.6 Q-88.8 -58.3 -87.95 -57.75 L-87.45 -57.55 Q-85.65 -57.1 -84.45 -56.2 -82.25 -54.55 -81.65 -51.75 L-81.6 -51.25 Q-81.6 -50.25 -81.15 -49.5 L-81.0 -49.2 -80.15 -47.25 -80.1 -47.0 Q-80.2 -45.45 -80.7 -44.0 L-78.2 -44.4 -77.0 -44.65 -70.7 -45.45 -67.95 -45.3 -67.55 -45.15 -65.45 -43.25 Q-63.25 -41.35 -62.2 -39.25 -63.25 -40.05 -64.5 -40.4 L-65.15 -40.6 -67.95 -41.1 -71.2 -41.45 -71.65 -41.6 Q-72.35 -41.95 -72.45 -41.5 -71.75 -41.35 -71.4 -40.75 L-71.2 -40.65 Q-70.55 -40.65 -70.45 -40.25 L-70.7 -40.05 -71.15 -39.7 Q-71.9 -38.8 -73.45 -39.0 L-73.9 -38.9 Q-75.45 -37.95 -75.45 -35.25 L-75.35 -34.8 Q-74.6 -33.4 -73.5 -32.4 L-73.15 -32.15 -70.45 -31.05 -67.7 -30.55 -66.2 -30.4 -65.8 -30.45 -64.95 -30.6 Q-64.15 -30.55 -64.0 -30.0 L-63.45 -28.25 -63.35 -27.75 Q-63.35 -27.2 -62.95 -27.2 -62.4 -27.15 -62.35 -26.5 L-62.25 -25.75 -62.1 -25.35 Q-61.95 -25.1 -61.7 -25.15 -60.75 -25.2 -60.45 -24.75 L-61.45 -24.0 -61.7 -23.85 -64.45 -23.8 Q-66.1 -23.9 -66.5 -22.25 L-66.55 -21.8 Q-66.05 -19.75 -67.0 -18.05 -67.45 -17.2 -67.35 -16.25 L-67.15 -15.25 -66.8 -14.0 -66.65 -13.25 -66.6 -12.75 Q-66.6 -11.75 -66.15 -11.0 L-66.0 -10.75 -65.2 -9.5 -65.1 -9.0 Q-65.2 -8.15 -65.45 -7.4 L-65.85 -7.25 Q-67.35 -6.4 -68.95 -6.0 -71.35 -5.4 -72.8 -7.05 L-74.8 -9.1 Q-76.1 -10.2 -78.05 -11.25 -79.25 -11.9 -79.25 -12.95 -79.25 -15.0 -80.95 -14.75 -83.7 -14.45 -84.55 -15.9 L-85.0 -16.3 Q-85.9 -16.5 -86.4 -17.45 -88.15 -20.6 -89.55 -23.9 -90.45 -26.1 -90.85 -28.45 L-91.0 -28.95 Q-93.15 -29.2 -93.45 -31.45 -93.7 -33.15 -95.1 -34.3 -95.85 -34.95 -96.9 -35.1 -99.5 -35.6 -100.9 -37.5 L-101.6 -38.15 -102.95 -39.45 Q-105.6 -43.6 -105.25 -48.95 L-105.2 -49.95 M-49.4 -38.75 Q-49.15 -36.75 -46.95 -36.75 -47.45 -36.05 -48.7 -35.9 L-49.45 -35.8 Q-52.15 -35.45 -54.95 -35.7 L-55.5 -35.9 Q-57.2 -36.65 -58.65 -35.65 L-59.8 -34.85 -59.95 -34.75 -61.2 -35.0 Q-62.65 -35.2 -63.2 -36.5 L-60.95 -37.75 Q-59.85 -38.55 -59.8 -39.5 L-59.7 -42.75 -59.5 -44.2 -59.2 -44.45 -52.95 -46.0 Q-51.95 -46.25 -51.9 -45.5 L-51.6 -43.0 -51.2 -42.0 -49.75 -39.7 Q-49.45 -39.3 -49.4 -38.75 M-46.4 -25.9 L-44.9 -26.1 -44.65 -26.15 Q-44.1 -26.35 -43.8 -25.8 -43.45 -25.0 -42.65 -24.9 -42.05 -24.85 -41.65 -25.25 -41.9 -24.1 -42.9 -23.25 L-45.35 -21.85 -45.95 -21.6 -46.35 -21.4 -47.45 -20.75 Q-47.9 -20.35 -48.1 -20.65 L-48.15 -20.7 -48.45 -20.7 -49.45 -20.5 -52.3 -22.6 -52.35 -22.95 -52.15 -23.2 Q-50.85 -23.65 -49.85 -24.9 L-49.15 -25.45 -46.95 -25.9 -46.4 -25.9" fill="url(#gradient0)" fill-rule="evenodd" stroke="none"/>
  </g>
  <defs>
    <radialGradient cx="0" cy="0" gradientTransform="matrix(0.219, 0.0598, -0.0602, 0.2206, -148.95, -32.95)" gradientUnits="userSpaceOnUse" id="gradient0" r="819.2" spreadMethod="pad">
      <stop offset="0.0" stop-color="#ca0000"/>
      <stop offset="0.6862745098039216" stop-color="#ffffff"/>
    </radialGradient>
  </defs>
</svg>
