<?xml version="1.0" encoding="UTF-8" standalone="no"?>
<svg xmlns:xlink="http://www.w3.org/1999/xlink" height="92.25px" width="120.0px" xmlns="http://www.w3.org/2000/svg">
  <g transform="matrix(1.0, 0.0, 0.0, 1.0, 160.15, 64.95)">
    <path d="M-102.65 -64.95 L-102.15 -64.85 -101.75 -64.65 -100.45 -64.4 -99.95 -64.3 -97.2 -63.25 -96.4 -62.85 -96.05 -62.65 -93.2 -60.0 -92.65 -59.55 Q-91.25 -58.75 -89.7 -58.05 L-85.9 -56.05 -81.9 -53.3 -78.0 -49.95 -77.65 -49.55 -77.3 -49.15 -76.4 -48.3 -75.5 -47.7 Q-73.25 -46.45 -72.2 -45.25 L-72.9 -44.9 Q-73.6 -44.5 -74.45 -44.6 L-74.95 -44.7 -75.45 -44.75 Q-77.2 -44.85 -77.3 -43.25 -77.5 -41.0 -76.5 -39.7 L-76.3 -39.25 Q-76.25 -38.55 -75.7 -38.55 L-74.95 -38.5 Q-72.9 -38.4 -71.0 -37.65 -69.55 -37.1 -68.0 -35.95 L-67.55 -35.45 Q-66.85 -33.85 -65.4 -32.55 L-65.05 -32.15 -63.9 -30.25 -63.8 -30.0 Q-63.6 -29.45 -62.95 -29.55 L-58.2 -29.95 -54.45 -30.35 -53.45 -30.5 Q-52.85 -30.5 -52.4 -30.05 L-52.0 -29.7 Q-50.75 -28.35 -49.2 -27.55 -47.25 -26.5 -45.95 -25.25 L-46.2 -25.4 -47.95 -25.6 -49.4 -25.2 -50.15 -24.25 Q-50.3 -23.7 -50.7 -23.25 L-51.65 -22.45 Q-53.05 -21.45 -54.7 -21.15 L-57.7 -21.1 -61.4 -20.7 -61.7 -20.55 -62.1 -20.4 -62.95 -19.5 Q-63.45 -18.9 -63.4 -17.75 -63.4 -17.05 -63.75 -16.85 -64.85 -16.25 -65.95 -15.8 L-66.9 -15.45 -67.1 -15.25 Q-67.2 -12.7 -66.15 -11.0 -66.05 -10.85 -65.95 -10.9 -64.8 -10.9 -64.9 -9.75 L-64.9 -9.55 -65.4 -9.35 Q-69.05 -7.35 -73.45 -7.95 -75.5 -8.2 -75.45 -10.45 L-75.95 -10.45 -78.9 -10.65 -79.3 -11.0 Q-79.7 -11.95 -80.25 -12.7 L-80.9 -13.1 -81.5 -13.25 -83.95 -13.45 Q-85.9 -13.5 -87.4 -14.5 -89.6 -15.95 -91.5 -18.4 -92.05 -19.1 -92.0 -20.45 -91.95 -23.45 -92.2 -26.45 L-92.5 -26.9 Q-93.6 -27.55 -93.9 -28.95 -94.05 -29.55 -94.95 -29.9 -97.8 -31.05 -98.85 -34.35 L-99.3 -35.1 Q-99.95 -35.75 -101.4 -36.1 L-102.0 -36.35 Q-103.75 -37.15 -105.05 -38.35 L-105.95 -38.9 Q-107.65 -39.5 -109.35 -41.55 -110.35 -42.7 -110.05 -44.45 L-109.9 -45.4 Q-109.75 -45.95 -109.75 -46.45 L-110.05 -46.85 Q-112.15 -47.9 -112.25 -50.45 L-112.05 -51.0 Q-111.15 -52.45 -111.35 -54.45 -111.55 -56.45 -110.5 -57.95 -109.45 -59.35 -108.7 -60.8 L-108.1 -61.55 -107.35 -62.25 -106.1 -63.15 -105.3 -63.8 -103.5 -64.65 -102.9 -64.85 -102.65 -64.95 M-119.5 -56.95 Q-119.5 -53.2 -119.75 -49.45 L-119.8 -48.9 Q-120.45 -46.35 -122.5 -44.45 -122.35 -43.6 -121.05 -43.5 -120.5 -43.45 -120.2 -42.85 L-120.0 -41.95 Q-119.9 -40.5 -118.05 -40.25 L-117.45 -40.1 Q-115.85 -39.6 -115.75 -37.45 -115.75 -36.95 -115.35 -36.7 L-114.5 -36.55 -113.0 -36.8 Q-110.5 -37.15 -109.3 -35.6 -109.0 -35.2 -108.45 -35.05 -105.95 -34.35 -103.95 -32.45 L-101.6 -30.3 -101.0 -29.45 -98.85 -25.0 Q-98.05 -23.6 -97.75 -22.0 L-97.75 -21.55 Q-97.95 -20.95 -98.45 -20.45 L-101.55 -17.6 Q-102.3 -17.05 -101.95 -15.45 L-101.7 -13.45 Q-101.7 -12.95 -102.0 -12.45 -103.2 -10.25 -103.2 -7.45 L-103.4 -6.9 Q-106.15 -3.3 -111.5 -3.0 L-113.95 -2.75 Q-114.9 -2.55 -115.1 -2.0 -115.65 -0.65 -116.45 0.1 -117.5 1.05 -119.5 1.0 -120.3 1.0 -120.25 2.05 -120.25 2.55 -120.5 3.05 -121.3 4.5 -121.25 7.05 L-121.45 8.05 Q-122.75 11.4 -127.05 10.85 L-128.05 10.9 Q-128.8 11.0 -128.75 12.05 -128.65 13.15 -130.0 13.3 L-130.55 13.4 -135.5 14.2 Q-140.9 14.55 -144.1 12.7 -145.55 11.85 -147.5 11.8 L-148.05 11.6 Q-150.1 10.2 -152.4 8.9 -155.85 7.0 -156.4 3.2 L-156.85 2.5 -157.55 0.55 -157.6 0.3 -158.05 -1.7 -158.1 -1.95 -158.25 -2.7 -158.65 -5.45 Q-158.7 -6.65 -159.05 -7.7 -159.5 -9.05 -159.55 -10.5 L-159.6 -11.25 Q-159.65 -12.45 -159.95 -13.5 L-160.1 -14.25 -160.1 -15.5 -159.9 -17.75 -159.85 -20.25 -159.8 -20.75 -159.7 -26.0 -159.6 -26.4 Q-159.3 -26.75 -159.35 -27.25 -159.65 -29.9 -158.9 -32.25 L-158.1 -34.45 -156.15 -38.45 -155.05 -40.8 -154.85 -41.15 -154.0 -42.5 -153.6 -43.2 Q-152.5 -44.65 -151.7 -46.25 L-151.4 -46.7 Q-150.2 -48.15 -148.7 -50.5 L-148.1 -51.15 -146.6 -52.95 -145.25 -54.6 -144.9 -54.9 -143.05 -56.6 -139.5 -59.8 -138.9 -60.15 Q-137.25 -61.0 -135.85 -62.45 L-129.95 -62.15 -128.0 -61.95 -122.05 -61.5 -121.35 -61.1 Q-120.0 -59.9 -119.75 -58.9 L-119.5 -56.95 M-94.95 -1.95 Q-93.8 -0.6 -91.45 -0.25 -90.2 -0.1 -89.25 -0.65 L-88.0 -1.1 -86.9 -1.35 -81.95 -1.85 Q-81.05 -1.75 -80.95 -0.45 -80.75 2.3 -79.25 4.4 L-78.6 5.2 Q-76.3 7.45 -72.95 7.2 L-69.25 6.45 Q-68.7 7.35 -67.7 7.8 L-66.7 7.95 -65.95 7.9 -63.7 7.55 -65.25 8.7 -65.65 8.9 Q-67.9 10.15 -70.7 10.3 -72.1 10.4 -73.2 11.0 -73.85 11.35 -73.85 12.05 -73.85 12.95 -74.45 13.55 -75.3 14.35 -75.1 15.55 L-75.05 15.8 -74.9 16.55 Q-74.75 17.5 -75.4 18.1 -75.95 18.7 -76.75 18.95 -79.95 20.0 -83.45 19.8 L-84.15 19.7 -85.95 19.85 -86.2 20.0 -86.7 20.15 Q-89.05 20.0 -90.2 21.8 L-90.5 22.25 -90.9 22.6 Q-93.25 24.45 -95.95 25.75 L-97.65 26.6 Q-98.8 27.2 -99.9 27.3 -102.75 25.55 -104.85 22.95 -105.75 21.8 -105.45 20.05 -105.35 19.45 -104.55 18.9 -102.75 17.75 -104.6 15.7 L-105.3 14.9 Q-106.5 13.5 -107.3 11.5 L-107.6 10.55 -107.95 8.55 Q-108.6 5.35 -106.05 3.4 -103.85 1.75 -101.95 1.0 L-101.05 0.95 Q-100.7 1.05 -100.5 1.55 -99.3 4.6 -97.2 2.35 L-96.35 1.1 -94.95 -1.95 M-48.6 -41.55 L-48.25 -41.2 -46.65 -39.8 -46.15 -39.5 -44.65 -39.0 -46.65 -38.8 -46.85 -38.5 Q-46.85 -36.9 -47.9 -35.95 L-48.25 -35.6 -48.85 -35.15 -50.7 -34.9 -51.15 -35.05 -52.25 -35.65 -52.55 -35.85 -52.75 -36.2 -53.0 -36.45 Q-55.55 -37.5 -58.2 -36.5 -58.35 -38.3 -57.55 -39.8 L-57.45 -40.25 Q-57.5 -41.2 -56.5 -41.8 L-55.95 -42.25 Q-54.75 -43.3 -53.4 -43.85 L-53.15 -43.8 Q-52.2 -43.35 -50.95 -43.4 -50.2 -43.45 -49.8 -42.95 L-48.6 -41.55 M-42.35 -24.65 L-41.9 -24.75 Q-41.0 -24.75 -40.55 -25.15 L-40.15 -25.25 Q-40.35 -23.0 -42.45 -21.55 -43.05 -21.15 -43.9 -21.3 L-44.75 -21.1 -45.5 -20.9 Q-46.1 -20.7 -46.9 -20.9 L-47.5 -21.2 Q-48.2 -21.75 -48.45 -22.5 -47.55 -22.7 -46.85 -23.35 L-46.2 -23.8 -44.15 -24.25 Q-43.15 -24.2 -42.35 -24.65" fill="url(#gradient0)" fill-rule="evenodd" stroke="none"/>
  </g>
  <defs>
    <radialGradient cx="0" cy="0" gradientTransform="matrix(0.219, 0.0598, -0.0602, 0.2206, -148.95, -32.95)" gradientUnits="userSpaceOnUse" id="gradient0" r="819.2" spreadMethod="pad">
      <stop offset="0.0" stop-color="#ca0000"/>
      <stop offset="0.6862745098039216" stop-color="#ffffff"/>
    </radialGradient>
  </defs>
</svg>
