<?xml version="1.0" encoding="UTF-8" standalone="no"?>
<svg xmlns:xlink="http://www.w3.org/1999/xlink" height="94.85px" width="124.2px" xmlns="http://www.w3.org/2000/svg">
  <g transform="matrix(1.0, 0.0, 0.0, 1.0, 159.5, 67.55)">
    <path d="M-102.2 -65.05 L-101.5 -64.65 Q-100.05 -63.75 -98.45 -63.3 L-98.0 -63.15 -95.7 -62.3 -93.45 -61.55 -93.05 -61.4 -92.15 -60.8 -89.15 -58.55 -88.8 -58.15 Q-88.25 -57.4 -88.1 -56.0 L-88.05 -55.5 Q-88.05 -54.95 -87.7 -54.5 -86.35 -52.65 -84.2 -51.95 L-83.7 -51.9 -81.7 -51.5 -81.25 -51.2 Q-80.15 -49.95 -78.45 -50.3 L-77.7 -50.45 Q-75.8 -50.9 -74.75 -49.45 L-74.4 -49.05 -74.05 -48.7 -73.15 -47.85 -72.75 -47.65 -70.15 -46.35 Q-68.1 -45.2 -65.45 -45.5 -68.85 -44.0 -72.7 -43.75 L-73.65 -43.4 -73.85 -43.0 Q-74.3 -40.8 -72.45 -39.55 L-72.0 -39.2 Q-71.1 -38.45 -70.65 -37.3 L-70.6 -37.1 Q-71.05 -36.3 -70.85 -35.0 L-70.75 -34.5 Q-70.5 -33.75 -69.95 -33.45 L-68.75 -32.9 -68.0 -32.45 Q-66.75 -31.1 -65.2 -30.5 L-64.8 -30.2 Q-64.4 -29.8 -63.95 -29.75 -62.85 -29.65 -62.2 -29.0 L-62.05 -28.75 Q-61.75 -27.8 -60.7 -27.65 -59.6 -27.5 -58.65 -26.8 L-58.2 -26.65 Q-57.25 -26.7 -56.95 -26.25 -57.75 -25.85 -58.7 -25.8 L-60.45 -25.65 -60.95 -25.6 Q-63.15 -25.3 -64.95 -24.2 L-65.1 -24.0 Q-65.4 -22.7 -64.75 -21.75 L-64.55 -21.25 -64.35 -20.0 -64.25 -19.5 Q-64.1 -18.5 -64.5 -18.05 -64.7 -17.85 -64.95 -17.85 -65.6 -17.8 -65.6 -17.25 -65.55 -16.75 -65.95 -16.5 L-66.15 -16.2 -66.35 -15.5 -66.35 -12.7 Q-69.0 -8.35 -74.0 -7.25 L-74.5 -7.25 -75.8 -7.75 Q-76.2 -7.95 -76.3 -8.5 L-76.8 -9.7 Q-76.95 -9.95 -77.45 -9.9 L-79.95 -9.4 Q-81.0 -9.15 -81.35 -9.75 L-81.9 -10.1 Q-82.9 -10.5 -83.1 -11.4 L-83.5 -11.85 Q-85.1 -12.7 -85.3 -15.45 -85.5 -18.25 -86.6 -19.85 L-88.7 -22.65 -89.15 -23.35 Q-89.5 -24.15 -90.6 -25.3 L-91.3 -26.05 -92.65 -27.2 -93.4 -27.6 -93.8 -28.0 Q-94.25 -29.9 -95.35 -31.05 L-95.95 -31.95 Q-96.55 -33.35 -97.9 -34.05 L-102.05 -36.3 -103.4 -37.0 Q-104.4 -37.45 -105.6 -38.85 -106.3 -39.65 -108.0 -39.55 -111.3 -39.3 -112.85 -41.55 L-115.25 -45.1 -115.45 -45.95 Q-115.25 -48.45 -117.5 -49.95 -118.95 -50.9 -119.7 -52.85 -120.2 -54.1 -120.3 -55.45 -120.45 -57.4 -119.45 -58.9 -118.25 -60.7 -117.85 -62.4 L-117.6 -63.0 Q-116.4 -65.6 -114.25 -67.3 L-113.7 -67.4 -112.45 -67.55 Q-110.0 -67.7 -107.95 -66.95 L-107.45 -66.8 -105.45 -66.3 -102.2 -65.05 M-132.05 -41.8 L-131.5 -41.45 Q-129.9 -39.75 -127.6 -39.05 L-126.95 -38.5 Q-126.15 -37.25 -125.85 -36.0 -125.25 -33.15 -121.45 -33.75 L-119.0 -34.05 -116.05 -34.55 -115.0 -34.75 -111.95 -34.7 Q-110.6 -34.55 -109.55 -33.9 -106.35 -31.95 -102.5 -29.9 -101.0 -29.15 -100.15 -27.6 L-99.4 -27.05 Q-96.3 -26.15 -95.35 -23.0 -94.9 -21.5 -93.35 -20.65 L-92.55 -20.25 Q-91.85 -19.8 -92.1 -18.5 -92.6 -15.8 -93.9 -13.45 L-94.25 -12.4 -94.6 -9.95 -94.9 -8.95 Q-96.05 -6.2 -94.85 -3.5 L-94.65 -2.9 -94.3 -1.35 Q-94.2 -0.95 -94.5 -0.5 -96.25 2.15 -100.9 3.25 -102.15 3.5 -103.1 4.35 -105.05 6.1 -105.5 9.05 L-105.75 11.55 Q-105.8 13.6 -106.85 15.1 -107.45 15.95 -107.65 17.0 L-108.05 18.05 Q-110.65 22.4 -114.95 25.6 L-115.5 26.0 -117.35 27.3 -117.45 27.25 -119.45 26.85 -120.7 26.45 -121.45 26.05 -122.45 25.6 -122.9 25.45 -124.15 24.95 -126.45 24.55 -127.2 24.45 Q-128.35 24.15 -129.45 23.5 -129.8 23.3 -130.25 23.15 -132.55 22.35 -134.7 21.05 L-135.2 20.75 Q-137.0 19.5 -139.15 18.95 -140.45 18.6 -141.5 17.85 L-141.95 17.7 -143.95 17.7 -144.1 17.55 Q-144.4 16.5 -145.2 15.8 L-146.15 14.3 -146.55 13.6 -147.15 12.5 Q-147.7 11.05 -148.75 9.85 L-150.05 7.85 Q-150.65 6.7 -151.4 6.0 L-152.05 5.1 -152.6 4.0 -152.8 3.65 -153.9 2.0 -156.25 -2.65 -156.6 -3.5 -157.55 -5.9 Q-158.45 -8.15 -158.7 -10.5 L-159.15 -13.0 Q-159.5 -14.4 -159.5 -16.0 L-159.35 -20.5 -159.25 -22.25 Q-159.05 -24.95 -158.5 -27.5 L-158.35 -27.95 -158.05 -28.55 Q-157.65 -29.55 -157.7 -30.75 L-157.35 -33.7 Q-156.4 -36.9 -154.7 -40.0 L-151.75 -44.8 Q-150.7 -46.4 -149.9 -48.1 L-145.5 -48.6 -141.5 -48.3 Q-138.2 -48.0 -138.0 -45.0 L-137.5 -44.9 Q-134.4 -44.45 -132.7 -42.2 -132.5 -41.95 -132.05 -41.8 M-49.7 -41.55 L-48.35 -41.35 -48.0 -41.15 Q-46.6 -40.4 -44.95 -39.15 L-44.6 -38.8 Q-44.25 -38.4 -43.4 -38.5 L-42.9 -38.5 Q-44.15 -37.35 -46.35 -36.8 L-46.6 -36.5 Q-46.75 -35.85 -47.2 -35.8 L-48.1 -35.5 -49.95 -35.6 Q-50.2 -35.6 -50.35 -35.8 L-50.95 -36.75 Q-51.35 -37.45 -52.15 -37.85 L-52.75 -38.15 -54.45 -39.5 Q-53.35 -39.8 -52.4 -40.35 L-51.5 -40.85 -50.15 -41.4 -49.7 -41.55 M-55.45 -29.5 Q-51.15 -30.45 -46.7 -29.6 L-45.45 -29.5 -43.45 -29.45 Q-43.0 -29.45 -42.8 -29.1 L-42.5 -28.9 -41.45 -28.7 Q-41.05 -28.65 -41.15 -28.0 -41.3 -26.85 -40.25 -26.4 -38.7 -25.75 -36.95 -25.75 L-35.5 -25.95 -35.3 -26.05 Q-36.1 -24.9 -37.4 -24.15 L-38.75 -23.3 Q-40.1 -22.35 -41.7 -22.3 -42.6 -22.25 -43.0 -23.2 -43.4 -24.1 -44.4 -24.55 L-46.7 -25.1 -47.2 -25.15 Q-48.5 -25.35 -48.5 -24.0 -48.55 -22.65 -48.25 -21.5 -48.05 -20.45 -49.2 -20.65 L-50.2 -20.75 -53.2 -20.85 -53.5 -20.95 Q-54.25 -21.2 -54.3 -22.25 L-54.3 -22.4 -54.45 -22.4 -56.7 -22.6 -57.45 -22.75 Q-56.45 -23.65 -54.7 -24.1 -53.9 -24.3 -53.75 -24.75 -53.6 -25.3 -54.15 -25.6 -54.55 -25.75 -54.35 -26.2 L-53.9 -26.7 Q-52.75 -27.65 -53.8 -28.4 L-54.45 -28.8 -55.45 -29.5 M-50.7 5.3 Q-51.5 6.1 -52.95 6.55 L-58.45 7.85 -59.7 7.95 -61.15 7.75 -62.7 7.5 -64.05 7.15 -64.4 7.0 -64.7 6.8 Q-65.1 6.45 -65.95 6.45 L-66.2 6.4 Q-66.85 6.35 -67.1 6.7 L-67.4 6.9 -68.0 6.65 -68.7 5.8 -67.25 4.95 Q-66.7 4.7 -66.2 4.3 -64.25 2.85 -61.95 2.4 L-59.45 2.1 Q-58.85 2.05 -58.4 2.5 L-58.0 2.85 -56.85 4.25 Q-56.55 4.75 -55.95 4.7 L-55.2 4.7 -52.4 5.2 -51.95 5.3 -50.7 5.3 M-67.45 8.55 L-68.95 9.1 Q-70.1 9.65 -71.45 9.8 -74.05 10.0 -74.75 11.75 L-74.8 12.0 Q-74.45 12.65 -75.0 13.25 L-75.75 14.0 -76.95 14.4 -78.0 14.75 -78.5 15.25 -79.9 16.85 Q-81.4 18.35 -83.95 18.8 -85.15 19.05 -86.15 19.65 L-86.75 19.85 -88.45 20.1 -91.1 20.2 -92.15 20.25 Q-92.95 16.6 -91.4 13.05 -90.65 11.2 -89.2 9.35 L-88.75 8.65 Q-88.25 7.6 -87.6 8.2 -86.1 9.75 -83.95 9.4 L-82.45 9.05 Q-78.25 7.6 -74.5 5.15 -73.3 5.6 -72.5 6.8 L-72.15 7.25 Q-70.45 8.95 -67.45 8.55" fill="url(#gradient0)" fill-rule="evenodd" stroke="none"/>
  </g>
  <defs>
    <radialGradient cx="0" cy="0" gradientTransform="matrix(0.219, 0.0598, -0.0602, 0.2206, -148.95, -32.95)" gradientUnits="userSpaceOnUse" id="gradient0" r="819.2" spreadMethod="pad">
      <stop offset="0.0" stop-color="#ca0000"/>
      <stop offset="0.6862745098039216" stop-color="#ffffff"/>
    </radialGradient>
  </defs>
</svg>
