<?xml version="1.0" encoding="UTF-8" standalone="no"?>
<svg xmlns:xlink="http://www.w3.org/1999/xlink" height="94.8px" width="127.2px" xmlns="http://www.w3.org/2000/svg">
  <g transform="matrix(1.0, 0.0, 0.0, 1.0, 161.6, 66.25)">
    <path d="M-139.0 -29.95 L-139.9 -29.35 Q-142.3 -27.35 -145.5 -27.0 L-146.4 -26.75 Q-148.25 -25.75 -149.95 -27.0 -150.25 -27.2 -150.5 -27.2 L-154.0 -27.0 -154.9 -27.15 -157.5 -27.4 Q-160.4 -27.05 -161.2 -28.85 L-160.85 -31.5 -160.7 -31.75 Q-160.0 -32.55 -160.05 -33.5 -160.15 -35.05 -159.25 -35.8 L-158.95 -36.25 -157.75 -38.3 -157.5 -38.4 Q-154.4 -39.25 -151.0 -39.15 -147.1 -39.05 -143.55 -37.8 L-142.95 -37.65 Q-142.0 -37.45 -141.65 -36.85 L-140.05 -34.45 Q-139.5 -33.7 -138.55 -33.3 L-138.2 -32.9 Q-137.65 -30.75 -139.0 -29.95 M-141.5 -25.25 L-140.0 -25.05 Q-137.35 -24.55 -135.0 -23.45 L-134.0 -23.15 -131.0 -22.8 -128.5 -22.5 -127.6 -22.65 Q-124.7 -24.25 -122.9 -25.85 -122.5 -26.2 -122.0 -26.25 L-117.5 -26.65 Q-115.25 -26.85 -113.55 -25.85 L-112.95 -25.6 Q-112.5 -25.45 -112.4 -25.25 -112.05 -24.65 -111.0 -24.95 L-106.45 -25.25 -105.45 -25.2 Q-103.0 -25.3 -101.55 -23.4 L-100.8 -22.6 -100.2 -21.8 Q-99.05 -20.05 -97.95 -18.95 L-97.6 -18.4 -97.2 -17.6 -96.65 -16.8 Q-96.05 -16.1 -94.45 -16.2 -93.35 -16.3 -93.1 -15.4 L-92.7 -14.65 -91.3 -12.0 -91.1 -11.4 -90.7 -10.75 Q-90.1 -10.3 -90.05 -9.45 L-89.9 -5.45 Q-89.85 -3.85 -90.6 -2.55 -91.75 -0.45 -91.9 2.05 L-91.9 2.55 Q-90.6 2.7 -90.45 3.55 -93.75 9.3 -98.8 13.25 L-99.6 13.85 -100.45 15.05 Q-102.55 19.6 -102.9 24.9 L-102.95 24.85 Q-103.8 24.7 -104.15 25.1 L-105.25 26.25 -105.55 26.6 Q-105.65 26.95 -106.2 26.75 L-107.4 26.2 -108.55 26.25 -108.95 26.5 -109.7 26.6 -110.7 26.75 Q-112.0 27.0 -113.2 27.55 L-113.6 27.85 Q-114.0 28.35 -114.7 28.5 -116.3 28.75 -117.45 27.8 L-118.45 27.65 -118.7 27.7 -119.4 27.7 -121.2 27.1 Q-123.0 26.45 -124.65 25.5 L-125.25 25.15 Q-126.25 24.65 -127.45 24.45 L-127.95 24.4 -129.15 23.95 Q-129.7 23.55 -130.45 23.6 -131.75 23.75 -132.75 23.15 L-137.15 20.45 -137.75 20.2 Q-139.8 19.55 -141.45 18.05 -141.9 17.6 -142.5 17.4 L-142.9 17.2 Q-143.65 16.95 -144.15 16.5 L-144.75 16.15 Q-145.8 15.7 -146.2 15.05 -146.65 14.25 -147.45 13.55 L-148.0 13.15 -148.75 12.35 Q-149.7 10.45 -151.0 8.85 L-151.35 8.25 -152.5 6.6 -153.9 4.3 -154.3 3.65 Q-155.9 2.0 -156.75 -0.2 L-157.0 -0.6 Q-157.5 -1.05 -157.65 -1.95 -157.75 -2.65 -158.45 -3.2 L-158.65 -3.45 -159.6 -5.75 -159.8 -6.4 -160.4 -8.5 -160.85 -10.3 -161.3 -11.45 Q-161.65 -12.55 -161.6 -13.75 -161.45 -15.75 -161.45 -17.75 L-159.35 -19.8 -156.9 -21.75 -155.6 -22.6 -154.4 -23.1 -149.5 -24.5 Q-145.65 -25.65 -141.5 -25.25 M-112.2 -65.75 L-110.45 -65.2 -106.95 -64.55 Q-103.55 -64.1 -100.45 -63.25 L-99.75 -62.9 Q-98.3 -62.0 -96.65 -61.35 -94.2 -60.35 -91.95 -59.0 L-91.15 -58.55 -87.75 -56.9 Q-87.05 -56.55 -86.65 -56.05 L-85.15 -54.55 Q-84.25 -53.6 -83.9 -52.75 L-83.6 -52.35 -83.25 -51.75 Q-82.8 -50.5 -81.45 -50.5 -79.85 -50.5 -78.65 -49.55 L-76.75 -48.15 Q-76.2 -47.85 -76.7 -47.25 L-77.4 -46.2 -78.0 -45.3 Q-78.25 -44.95 -78.1 -44.25 L-77.4 -42.0 -77.15 -41.55 Q-76.4 -40.8 -76.25 -39.5 L-75.9 -37.25 -75.8 -36.75 Q-75.8 -35.8 -75.35 -35.05 L-75.05 -34.45 Q-74.1 -32.3 -72.7 -30.5 L-72.45 -30.35 Q-71.0 -30.1 -70.2 -29.45 L-69.65 -29.1 Q-68.25 -28.55 -67.2 -27.75 -68.15 -27.4 -68.3 -26.5 L-68.55 -26.15 -69.25 -25.25 Q-69.95 -23.65 -69.95 -21.75 L-70.05 -21.3 Q-70.7 -19.9 -69.45 -19.5 -68.7 -19.3 -68.45 -18.75 L-68.35 -18.25 Q-68.35 -16.85 -67.65 -15.75 L-67.5 -15.45 -67.3 -15.15 Q-66.8 -14.6 -66.7 -13.75 -66.5 -11.15 -67.95 -9.5 L-68.3 -9.1 Q-70.0 -10.1 -71.95 -10.35 L-73.4 -10.6 -74.45 -10.7 -77.95 -10.45 Q-80.25 -10.05 -81.55 -11.35 -81.95 -11.7 -82.5 -11.8 -83.95 -12.15 -84.55 -12.9 L-87.5 -16.4 -88.15 -17.55 Q-89.05 -20.3 -91.9 -22.5 L-92.4 -22.65 Q-94.5 -22.4 -94.3 -23.95 -94.1 -25.8 -94.9 -26.5 -95.9 -27.35 -97.9 -27.65 L-98.5 -27.75 -101.45 -27.85 Q-104.85 -27.6 -107.4 -29.1 L-109.6 -30.25 -110.35 -30.7 Q-112.55 -32.1 -114.05 -34.4 L-114.25 -34.95 Q-114.25 -36.95 -115.05 -37.9 L-115.4 -38.5 Q-116.25 -40.6 -118.1 -42.35 L-118.8 -43.1 Q-119.7 -44.35 -121.0 -44.9 -126.0 -47.05 -127.15 -52.4 L-127.3 -53.45 Q-127.5 -56.8 -126.6 -60.0 L-125.7 -62.3 Q-125.05 -63.6 -124.75 -65.0 L-124.5 -65.1 -123.25 -65.6 -122.4 -65.9 -119.4 -65.8 -118.45 -65.6 -115.7 -65.75 -115.25 -65.85 -112.2 -65.75 M-41.9 -27.75 Q-41.95 -26.25 -40.4 -26.15 L-40.15 -26.1 -39.65 -26.1 -39.15 -26.05 -36.65 -25.4 -36.15 -25.25 -34.65 -24.65 -34.4 -24.5 -35.15 -24.6 -35.9 -24.5 Q-38.4 -23.8 -41.15 -23.85 L-41.4 -23.75 Q-41.9 -23.25 -41.4 -22.5 L-40.9 -21.75 Q-41.9 -21.75 -42.5 -22.15 L-42.9 -22.3 -43.85 -22.55 -44.1 -22.75 -46.2 -22.8 Q-46.85 -22.2 -46.8 -21.05 L-47.7 -21.1 -48.2 -21.15 -49.1 -21.45 -49.2 -21.75 Q-49.15 -22.55 -49.95 -22.6 L-50.2 -22.75 -50.5 -23.5 Q-50.55 -23.95 -51.2 -24.1 L-51.7 -24.5 Q-51.45 -24.9 -50.75 -25.15 -50.45 -25.25 -50.2 -25.45 -49.15 -26.3 -49.75 -27.25 L-49.95 -27.5 -50.2 -27.75 Q-49.9 -28.2 -48.95 -28.15 L-48.2 -28.15 -43.9 -28.25 -41.95 -28.0 -41.9 -27.75 M-51.2 5.3 Q-50.7 6.0 -49.45 5.9 L-48.2 5.8 Q-50.2 7.35 -52.95 7.2 L-54.5 6.9 Q-56.0 6.4 -56.75 5.45 -54.75 4.5 -52.45 4.75 L-51.5 4.95 -51.2 5.3 M-65.45 11.0 L-61.7 10.8 -60.95 10.8 -61.2 11.0 Q-65.45 13.4 -69.9 15.4 L-71.45 16.1 Q-72.9 16.8 -73.8 15.6 -74.15 15.15 -74.7 15.15 L-77.95 14.85 Q-80.5 14.45 -82.55 15.9 L-82.8 16.1 -82.9 16.0 -83.4 14.6 -83.7 14.35 -87.35 14.05 -86.75 13.75 -82.1 11.2 Q-81.45 10.8 -80.7 10.55 -78.4 9.7 -76.2 9.55 -75.95 9.55 -75.65 9.7 L-75.2 9.8 -71.7 9.9 -71.45 10.05 Q-69.85 11.35 -67.7 11.15 L-65.45 11.0" fill="url(#gradient0)" fill-rule="evenodd" stroke="none"/>
  </g>
  <defs>
    <radialGradient cx="0" cy="0" gradientTransform="matrix(0.219, 0.0598, -0.0602, 0.2206, -148.95, -32.95)" gradientUnits="userSpaceOnUse" id="gradient0" r="819.2" spreadMethod="pad">
      <stop offset="0.0" stop-color="#ca0000"/>
      <stop offset="0.6862745098039216" stop-color="#ffffff"/>
    </radialGradient>
  </defs>
</svg>
