<?xml version="1.0" encoding="UTF-8" standalone="no"?>
<svg xmlns:xlink="http://www.w3.org/1999/xlink" height="94.2px" width="95.5px" xmlns="http://www.w3.org/2000/svg">
  <g transform="matrix(1.0, 0.0, 0.0, 1.0, 163.65, 66.55)">
    <path d="M-162.05 -31.25 L-161.9 -31.95 Q-160.85 -34.05 -159.5 -35.8 L-159.25 -36.25 Q-158.85 -37.35 -158.3 -37.85 L-158.15 -38.25 -156.9 -40.7 -156.2 -41.6 Q-150.5 -44.85 -144.05 -41.8 -140.85 -40.3 -138.95 -37.95 L-138.55 -37.4 Q-137.65 -36.2 -137.95 -34.45 -138.2 -32.6 -136.45 -32.15 -134.15 -31.55 -132.35 -29.6 -130.75 -27.85 -128.5 -27.45 -130.05 -24.65 -132.9 -22.8 L-133.95 -21.9 Q-135.05 -20.45 -136.05 -20.05 -137.6 -19.45 -137.9 -18.4 L-138.95 -14.95 Q-139.45 -12.9 -140.35 -11.85 -141.85 -10.05 -143.15 -9.2 L-144.0 -9.05 -145.5 -9.25 -150.0 -8.9 -153.0 -8.7 Q-153.25 -8.7 -153.45 -8.95 -154.15 -9.8 -156.0 -9.6 -156.95 -9.5 -157.65 -10.35 -159.05 -12.0 -159.9 -14.0 -161.15 -17.05 -163.15 -18.8 L-163.6 -19.2 -163.6 -21.25 Q-163.55 -23.8 -163.0 -26.25 L-162.6 -28.75 -162.5 -29.05 Q-162.05 -30.0 -162.05 -31.25 M-107.95 -65.85 L-106.95 -65.7 -104.7 -65.25 -100.7 -64.25 -97.9 -63.3 Q-96.2 -62.6 -94.45 -62.25 -93.35 -62.0 -92.35 -61.4 L-91.5 -60.9 Q-89.25 -59.8 -87.25 -58.4 L-86.2 -57.75 -83.25 -55.45 -81.6 -53.8 -81.0 -53.2 Q-79.2 -51.5 -77.75 -49.5 L-74.75 -44.95 -74.4 -44.25 -73.7 -42.85 -73.85 -42.65 -74.05 -42.3 Q-74.65 -41.0 -73.7 -40.45 L-73.45 -40.25 Q-72.15 -39.05 -71.55 -37.2 L-70.15 -32.75 Q-69.4 -30.15 -68.95 -27.5 L-68.7 -26.25 -68.5 -24.5 -68.15 -23.05 Q-69.85 -19.8 -72.2 -16.65 L-73.45 -15.5 Q-74.95 -14.6 -76.95 -14.75 L-80.0 -14.6 -82.5 -14.75 -83.95 -15.0 Q-86.55 -15.1 -88.65 -16.7 L-89.35 -17.15 Q-90.05 -17.6 -89.85 -18.95 L-89.55 -20.45 Q-88.95 -23.2 -90.45 -24.45 -91.45 -25.25 -92.95 -25.2 -93.45 -25.2 -93.9 -25.5 L-97.0 -27.3 -98.3 -28.15 -99.05 -28.85 Q-99.95 -29.75 -101.45 -29.55 -102.8 -29.35 -103.1 -30.4 L-103.3 -31.0 Q-103.85 -32.95 -105.9 -34.0 L-109.45 -35.6 -110.05 -35.85 Q-112.45 -36.95 -115.05 -36.15 L-116.45 -36.1 -117.5 -36.25 Q-119.85 -36.6 -120.55 -38.45 -121.4 -40.85 -123.45 -41.6 L-124.0 -41.95 Q-125.25 -43.35 -127.05 -44.35 L-128.45 -45.0 Q-130.65 -46.0 -133.4 -48.1 -134.4 -48.9 -134.85 -50.0 -136.35 -53.65 -136.05 -57.95 L-135.8 -58.9 -135.2 -60.55 -134.5 -60.85 -133.2 -61.55 -129.4 -63.95 -128.7 -64.2 -124.2 -65.0 -120.0 -65.85 -118.9 -66.15 -115.95 -66.55 -110.45 -66.25 -107.95 -65.85 M-144.0 -5.95 L-139.45 -5.7 Q-136.5 -5.1 -135.35 -7.9 L-134.95 -8.4 Q-132.1 -10.4 -127.5 -10.25 L-126.0 -10.25 Q-123.4 -10.5 -123.1 -12.45 L-122.85 -13.4 Q-121.95 -16.05 -119.55 -17.1 -118.75 -17.45 -117.95 -17.9 L-113.1 -20.65 -111.1 -21.65 Q-108.7 -22.65 -106.35 -21.65 L-105.45 -21.4 -99.45 -20.45 Q-97.75 -20.2 -97.7 -18.45 L-97.45 -17.95 Q-96.65 -17.25 -94.95 -17.2 -94.7 -17.2 -94.5 -16.9 -92.1 -13.8 -89.7 -11.65 L-89.3 -11.0 -88.9 -10.55 Q-85.05 -8.35 -83.65 -4.9 L-83.5 -3.95 Q-83.6 -2.55 -84.4 -1.4 -85.95 0.9 -85.65 4.05 -85.45 5.9 -85.75 7.6 L-85.95 9.55 Q-85.8 16.15 -90.15 19.8 L-90.2 19.75 -90.2 19.8 -90.55 20.1 -91.2 20.05 -91.2 20.3 -91.25 20.6 -91.4 20.7 -92.0 20.9 -92.4 21.15 Q-93.25 21.85 -94.7 22.35 L-95.15 22.6 -95.95 23.05 Q-96.9 23.3 -97.7 23.8 L-99.7 24.5 -102.25 25.2 Q-104.2 25.95 -106.45 26.05 L-106.85 26.15 -107.7 26.55 -109.95 26.75 -112.45 27.1 -112.95 27.2 -117.95 27.3 -118.4 27.4 -119.95 27.65 -125.45 27.0 -125.95 26.85 Q-128.75 26.15 -131.2 24.55 -131.55 24.3 -132.0 24.15 -134.2 23.4 -136.2 22.3 L-136.7 22.1 -138.4 21.5 Q-139.35 21.0 -140.45 21.05 L-140.9 20.95 -141.5 20.6 -141.85 20.2 -142.9 18.75 Q-144.4 16.7 -146.7 15.55 L-147.15 15.25 -147.75 14.65 Q-149.55 13.0 -150.45 11.05 L-150.75 10.6 -152.4 8.75 -152.85 8.0 Q-153.75 5.9 -154.95 4.05 L-155.8 2.85 Q-156.7 1.75 -157.1 0.5 L-156.05 -1.0 Q-154.0 -3.4 -151.15 -5.15 L-149.35 -6.25 Q-148.3 -6.9 -147.0 -6.95 -145.85 -6.95 -144.8 -6.2 L-144.0 -5.95" fill="url(#gradient0)" fill-rule="evenodd" stroke="none"/>
  </g>
  <defs>
    <radialGradient cx="0" cy="0" gradientTransform="matrix(0.219, 0.0598, -0.0602, 0.2206, -148.95, -32.95)" gradientUnits="userSpaceOnUse" id="gradient0" r="819.2" spreadMethod="pad">
      <stop offset="0.0" stop-color="#ca0000"/>
      <stop offset="0.6862745098039216" stop-color="#ffffff"/>
    </radialGradient>
  </defs>
</svg>
