<?xml version="1.0" encoding="UTF-8" standalone="no"?>
<svg xmlns:xlink="http://www.w3.org/1999/xlink" height="95.4px" width="92.9px" xmlns="http://www.w3.org/2000/svg">
  <g transform="matrix(1.0, 0.0, 0.0, 1.0, 161.15, 66.85)">
    <path d="M-106.2 -66.25 L-101.2 -65.95 -99.15 -65.35 -96.95 -64.55 Q-95.65 -64.25 -94.6 -63.35 L-93.95 -63.0 Q-91.8 -62.3 -89.75 -61.15 -87.65 -60.0 -85.9 -58.3 L-85.45 -58.0 Q-83.95 -57.15 -82.95 -56.0 L-81.75 -54.9 -81.4 -54.55 Q-80.0 -52.5 -78.0 -51.15 L-77.1 -50.3 -76.8 -49.9 -76.4 -49.3 -71.8 -41.2 -71.7 -40.75 Q-71.6 -39.65 -71.0 -38.7 L-70.75 -38.0 -69.85 -34.2 -69.7 -33.25 Q-69.8 -30.55 -69.4 -28.0 L-69.2 -26.75 -68.75 -24.0 -68.35 -22.4 -68.4 -22.25 Q-68.95 -21.3 -68.3 -20.65 L-68.25 -20.25 Q-68.4 -19.6 -68.7 -19.25 -69.1 -18.75 -69.1 -18.0 L-69.1 -17.5 -69.3 -16.75 -69.7 -14.25 Q-69.85 -13.3 -70.1 -12.7 L-70.25 -12.25 -70.5 -11.55 -73.4 -10.8 Q-77.85 -9.75 -82.3 -11.3 L-83.05 -11.9 Q-84.3 -13.45 -86.5 -13.2 L-87.0 -13.35 Q-89.2 -14.3 -91.95 -14.2 L-92.5 -14.4 Q-94.35 -15.7 -96.05 -17.3 -97.9 -19.05 -100.5 -20.35 -102.75 -21.55 -104.1 -23.85 L-105.25 -26.05 -105.4 -26.95 Q-105.1 -29.45 -107.5 -29.65 -108.0 -29.7 -108.45 -30.05 -109.9 -31.25 -112.0 -31.2 L-113.0 -31.4 Q-115.15 -32.35 -115.85 -35.0 -116.6 -37.65 -118.95 -38.6 -120.05 -39.0 -120.85 -40.05 L-122.65 -41.7 -123.45 -42.1 -123.95 -42.5 Q-125.2 -44.1 -127.0 -44.2 L-127.5 -44.2 -132.55 -44.85 -136.45 -46.1 -136.8 -46.5 Q-137.15 -48.8 -138.35 -50.1 L-139.95 -51.95 Q-141.05 -53.4 -140.0 -54.95 -139.2 -56.2 -138.95 -57.7 L-138.85 -57.95 -138.5 -58.5 Q-136.2 -61.35 -132.75 -62.15 -132.2 -62.25 -131.7 -62.5 L-127.7 -64.5 Q-125.3 -65.65 -122.7 -65.75 L-119.95 -66.05 -119.2 -66.15 -114.2 -66.55 -113.2 -66.65 -109.95 -66.85 -109.2 -66.85 -106.9 -66.35 -106.2 -66.25 M-136.95 -38.65 L-136.45 -38.55 -132.95 -37.05 Q-131.45 -36.5 -131.1 -35.05 L-130.5 -34.5 Q-127.95 -33.45 -127.15 -31.4 -127.0 -30.95 -127.2 -30.55 L-127.8 -29.35 -127.95 -28.45 Q-127.85 -27.05 -126.85 -26.1 -125.4 -24.8 -123.5 -24.6 -121.55 -24.4 -120.0 -23.45 -122.7 -20.85 -124.9 -17.85 -125.75 -16.7 -127.1 -16.15 L-128.0 -16.05 Q-129.05 -16.25 -129.0 -15.45 -128.95 -14.65 -130.0 -14.7 L-130.45 -14.4 Q-132.25 -11.65 -133.65 -8.0 -134.15 -6.75 -134.95 -6.35 L-135.45 -5.9 Q-136.85 -4.1 -139.55 -3.05 -141.8 -2.15 -144.5 -2.2 L-145.05 -2.1 Q-146.95 -1.5 -148.15 0.45 -148.55 1.1 -149.5 1.55 L-150.5 1.85 Q-153.5 2.05 -156.5 1.85 L-157.4 1.45 -158.35 0.5 Q-159.3 -1.45 -159.45 -3.45 L-159.65 -6.2 -159.85 -6.9 -160.05 -7.75 -160.05 -10.25 -160.15 -11.25 -160.3 -12.45 -160.45 -14.0 Q-160.3 -16.3 -160.65 -18.5 L-160.6 -19.2 Q-160.25 -20.4 -160.3 -21.75 L-160.4 -22.5 -160.6 -23.15 Q-161.2 -24.25 -161.15 -25.5 -161.1 -28.1 -160.45 -30.5 L-160.25 -31.5 Q-159.75 -36.4 -157.3 -40.8 L-156.6 -41.95 Q-155.05 -44.2 -154.15 -46.7 L-148.5 -46.9 Q-145.4 -46.5 -142.45 -45.55 -141.9 -45.35 -141.5 -44.45 L-141.15 -43.45 -140.8 -41.0 Q-140.4 -38.25 -136.95 -38.65 M-105.4 -8.85 Q-103.1 -10.45 -99.95 -10.15 L-96.45 -9.75 -95.45 -9.65 -92.45 -9.3 Q-91.45 -9.2 -90.8 -8.6 -89.4 -7.35 -87.45 -7.15 L-83.45 -6.75 -82.9 -6.6 Q-81.15 -6.1 -80.3 -5.05 L-78.55 -3.7 -77.55 -2.9 -74.05 1.65 Q-73.4 2.5 -72.6 2.85 L-71.8 3.45 -71.1 4.2 -70.6 4.7 -71.45 4.8 Q-72.15 4.9 -72.75 5.75 L-73.35 6.6 -74.5 7.7 Q-76.05 8.75 -77.15 10.35 -77.6 10.9 -77.4 12.05 -77.15 13.45 -78.45 13.3 L-81.2 13.05 Q-82.55 12.9 -83.2 13.55 L-83.7 13.8 -87.2 14.35 -88.95 14.75 -89.65 14.95 Q-93.2 16.35 -96.95 15.55 L-98.15 15.15 Q-99.05 14.7 -99.45 14.05 -99.1 14.7 -99.15 15.55 L-99.05 16.5 Q-98.8 17.25 -98.95 18.05 -99.2 19.95 -97.75 20.4 -96.65 20.75 -95.7 21.8 L-95.2 22.1 Q-94.3 22.15 -94.25 22.8 -94.15 23.6 -94.65 23.9 -95.75 24.45 -97.2 25.05 L-99.95 25.95 Q-102.75 26.6 -105.45 27.8 L-106.7 28.25 -111.45 28.0 -113.45 27.65 -114.45 27.75 -117.45 28.25 -120.45 28.0 -124.45 26.85 -125.65 26.45 Q-127.0 26.0 -128.45 25.9 L-133.7 25.25 -135.45 24.9 Q-138.75 24.35 -140.75 22.0 L-140.8 21.9 -141.15 21.1 Q-142.65 16.0 -140.05 11.5 -139.25 10.05 -138.0 10.25 -136.95 10.35 -136.6 9.75 -136.5 9.55 -136.0 9.5 -133.5 9.35 -131.4 8.2 -130.25 7.6 -129.75 6.9 -129.5 6.55 -129.65 6.1 L-129.8 5.5 Q-130.45 2.9 -128.05 2.4 L-127.05 2.0 Q-124.05 0.15 -120.5 0.3 L-120.0 0.3 -115.5 0.15 Q-113.45 -0.2 -113.45 -2.95 -113.45 -4.75 -111.55 -5.5 -108.35 -6.8 -105.4 -8.85" fill="url(#gradient0)" fill-rule="evenodd" stroke="none"/>
  </g>
  <defs>
    <radialGradient cx="0" cy="0" gradientTransform="matrix(0.219, 0.0598, -0.0602, 0.2206, -148.95, -32.95)" gradientUnits="userSpaceOnUse" id="gradient0" r="819.2" spreadMethod="pad">
      <stop offset="0.0" stop-color="#ca0000"/>
      <stop offset="0.6862745098039216" stop-color="#ffffff"/>
    </radialGradient>
  </defs>
</svg>
