<?xml version="1.0" encoding="UTF-8" standalone="no"?>
<svg xmlns:xlink="http://www.w3.org/1999/xlink" height="96.7px" width="99.0px" xmlns="http://www.w3.org/2000/svg">
  <g transform="matrix(1.0, 0.0, 0.0, 1.0, 161.2, 68.4)">
    <path d="M-102.7 -67.3 L-99.9 -66.4 -99.2 -66.25 Q-96.9 -66.4 -95.05 -64.9 L-94.25 -64.4 Q-92.9 -63.75 -91.45 -63.4 -90.55 -63.2 -89.9 -62.55 -89.15 -61.9 -88.25 -61.4 L-86.65 -60.6 -85.75 -60.15 -84.5 -59.2 -82.6 -57.35 -81.95 -57.0 Q-80.6 -56.55 -79.9 -55.55 L-77.0 -52.45 -76.35 -51.55 -76.05 -50.95 Q-75.5 -49.7 -75.45 -48.25 -75.45 -47.25 -74.45 -46.95 L-73.95 -46.75 -71.75 -45.4 Q-71.3 -45.1 -71.4 -44.5 -71.7 -42.05 -69.7 -40.75 -67.1 -39.05 -65.25 -36.45 L-64.95 -36.0 Q-64.55 -35.05 -63.95 -34.75 -64.0 -34.35 -64.55 -34.9 L-64.95 -35.05 -65.7 -35.2 Q-66.75 -35.35 -67.5 -34.55 L-67.9 -34.2 Q-68.95 -33.35 -68.0 -32.7 L-67.2 -32.25 -68.2 -31.25 Q-69.2 -30.0 -68.9 -28.25 -68.7 -26.9 -67.75 -25.7 L-67.4 -25.3 Q-66.65 -24.55 -65.7 -24.35 L-64.95 -24.15 -63.95 -23.5 Q-62.95 -22.25 -62.7 -20.75 L-62.2 -18.75 -64.2 -19.2 Q-65.8 -19.45 -65.65 -18.0 -65.6 -17.6 -64.95 -17.75 -66.55 -17.0 -67.3 -15.45 L-67.5 -14.75 Q-67.9 -12.55 -67.6 -10.25 L-67.55 -9.5 -67.5 -7.65 Q-70.7 -5.55 -74.5 -7.35 L-79.05 -9.75 -79.9 -10.1 -80.3 -10.5 Q-80.85 -11.85 -82.95 -11.7 L-83.3 -12.0 -84.2 -13.6 -84.7 -14.3 -85.35 -15.05 Q-86.85 -16.4 -89.45 -16.25 L-90.4 -16.55 Q-91.1 -17.05 -92.45 -17.2 -92.7 -17.2 -92.85 -17.5 -93.35 -18.3 -94.95 -18.2 L-95.5 -18.3 Q-98.0 -19.05 -100.05 -20.8 -102.25 -22.65 -102.05 -25.45 -101.95 -27.2 -102.1 -28.95 -102.15 -30.05 -103.4 -30.55 L-104.0 -30.75 Q-106.05 -31.0 -107.5 -32.45 -108.75 -33.75 -109.15 -35.4 L-109.5 -36.45 Q-110.95 -39.05 -110.75 -42.45 -110.75 -42.95 -111.1 -43.3 L-112.0 -43.95 Q-114.3 -45.25 -117.05 -46.35 -118.0 -46.7 -118.7 -47.2 L-119.5 -47.4 Q-122.9 -47.25 -125.65 -48.65 L-126.95 -49.15 Q-127.75 -49.45 -128.5 -49.95 -131.2 -51.6 -131.8 -55.0 L-131.9 -57.45 Q-131.7 -59.75 -130.8 -61.85 L-129.5 -65.4 -122.9 -67.65 -122.2 -67.75 -113.45 -67.85 -112.45 -67.95 -106.45 -68.4 -104.9 -68.1 Q-103.8 -67.55 -102.7 -67.3 M-142.6 -50.95 L-142.45 -50.45 Q-142.35 -49.35 -141.0 -49.25 L-140.45 -49.0 -136.35 -46.2 Q-136.0 -45.95 -135.55 -45.85 L-134.55 -45.4 Q-133.3 -44.6 -132.0 -44.65 -130.4 -44.8 -129.75 -44.2 -129.5 -43.95 -129.05 -43.85 L-128.0 -43.65 Q-126.65 -43.55 -125.95 -43.0 -125.0 -42.2 -123.0 -42.2 -122.75 -42.2 -122.6 -41.9 L-120.75 -39.65 -120.35 -39.0 -120.05 -38.4 Q-119.25 -37.2 -119.35 -34.95 -119.5 -31.9 -121.25 -30.2 L-121.45 -29.45 Q-121.4 -28.05 -121.5 -26.9 L-121.1 -26.35 Q-120.5 -25.7 -119.5 -25.6 -118.7 -25.5 -118.75 -24.45 L-118.7 -23.9 Q-118.25 -21.5 -118.95 -19.45 -119.95 -16.65 -121.9 -14.85 -122.85 -13.95 -124.0 -13.85 -126.65 -13.65 -128.95 -12.85 L-130.05 -12.55 Q-132.15 -11.9 -133.95 -10.4 L-137.05 -8.0 Q-138.95 -6.65 -140.55 -4.0 -141.85 -1.9 -143.15 -0.6 L-143.9 0.15 Q-145.6 1.85 -147.55 2.35 L-151.05 2.15 -156.05 -0.35 Q-157.3 -1.0 -158.4 -1.8 L-160.0 -7.0 -160.45 -9.25 -160.75 -11.75 -160.55 -12.6 -160.55 -12.95 -161.1 -14.05 -161.2 -14.5 -161.1 -17.75 -161.1 -18.25 -161.0 -19.4 -160.7 -19.55 Q-159.65 -19.9 -159.7 -21.25 -159.85 -24.45 -159.55 -27.5 -159.45 -28.45 -159.6 -29.25 L-159.7 -30.75 -159.6 -35.0 -159.45 -35.75 -158.6 -38.3 -158.35 -39.0 -157.9 -41.0 -157.75 -41.5 Q-157.4 -43.2 -156.55 -44.65 L-156.3 -45.05 -155.75 -46.0 -155.65 -46.5 Q-155.4 -47.35 -154.75 -47.85 L-154.4 -48.2 Q-153.7 -49.25 -152.45 -49.75 -151.0 -50.35 -149.55 -51.35 L-148.5 -51.4 -142.6 -50.95 M-102.5 -4.65 L-100.85 -5.2 -96.5 -6.55 -95.4 -6.8 Q-93.1 -7.35 -91.3 -6.2 -90.95 -5.95 -90.5 -5.85 L-89.4 -5.6 -87.35 -5.75 Q-86.95 -5.95 -86.55 -5.75 -84.25 -4.45 -82.8 -2.55 L-80.45 0.05 Q-77.6 2.55 -76.85 6.55 -76.4 8.9 -76.35 11.3 L-76.5 11.8 Q-76.95 13.05 -78.25 13.45 L-78.95 13.5 Q-80.55 13.25 -81.65 14.15 L-82.05 14.45 -82.4 14.5 -82.7 14.35 -85.0 14.25 Q-86.0 14.7 -86.55 15.45 L-86.9 15.85 Q-87.95 16.65 -88.95 16.9 L-90.45 17.3 -93.45 17.6 Q-94.3 17.55 -94.7 17.05 -95.4 17.85 -94.5 18.65 L-93.9 19.25 Q-92.9 20.2 -91.45 20.2 L-90.95 20.25 -90.45 20.35 Q-90.0 20.35 -89.8 20.7 L-89.45 20.8 -87.2 20.8 Q-87.8 21.6 -88.9 22.1 L-89.7 22.6 Q-91.1 23.75 -92.65 24.4 L-93.25 24.7 -93.65 24.9 Q-94.9 25.45 -95.8 24.65 L-96.2 24.55 -97.25 24.4 -97.7 24.3 Q-98.7 24.4 -99.5 24.95 L-100.2 25.25 Q-106.65 26.15 -113.0 28.2 L-113.7 28.3 -117.7 28.05 -119.7 27.8 -120.2 27.75 -123.2 27.4 -123.9 27.25 -124.15 27.1 -124.95 24.55 Q-125.65 22.45 -125.15 20.15 -125.0 19.55 -124.5 19.05 -123.05 17.55 -120.55 16.9 L-119.95 16.7 -118.15 15.8 -117.4 15.1 -114.75 12.25 -114.45 11.55 Q-114.15 9.15 -113.2 6.95 L-112.8 6.15 Q-111.8 3.7 -110.35 2.2 L-109.55 1.5 Q-107.25 -0.15 -106.0 -1.95 -104.6 -3.95 -102.5 -4.65" fill="url(#gradient0)" fill-rule="evenodd" stroke="none"/>
  </g>
  <defs>
    <radialGradient cx="0" cy="0" gradientTransform="matrix(0.219, 0.0598, -0.0602, 0.2206, -148.95, -32.95)" gradientUnits="userSpaceOnUse" id="gradient0" r="819.2" spreadMethod="pad">
      <stop offset="0.0" stop-color="#ca0000"/>
      <stop offset="0.6862745098039216" stop-color="#ffffff"/>
    </radialGradient>
  </defs>
</svg>
