<?xml version="1.0" encoding="UTF-8" standalone="no"?>
<svg xmlns:xlink="http://www.w3.org/1999/xlink" height="126.9px" width="209.05px" xmlns="http://www.w3.org/2000/svg">
  <g transform="matrix(1.0, 0.0, 0.0, 1.0, 174.0, 85.5)">
    <path d="M2.6 -34.2 L5.6 -34.6 5.6 -33.7 15.5 -33.0 17.2 -28.55 Q18.8 -24.5 22.1 -23.15 24.5 -22.2 28.45 -21.55 L35.05 -20.45 33.65 -20.45 Q29.3 -20.95 24.0 -16.35 18.8 -11.8 20.05 -8.95 18.3 -10.7 17.25 -11.1 L14.6 -11.4 Q12.85 -11.4 11.7 -10.35 10.5 -9.35 9.45 -9.35 7.65 -9.35 6.0 -10.35 4.35 -11.4 3.55 -11.4 -0.4 -11.4 -1.1 -9.55 -2.15 -6.75 -4.0 -5.75 L-5.6 -4.75 Q-6.05 -4.3 -6.05 -3.35 -6.05 -2.45 -4.8 -1.05 -3.05 0.9 0.0 2.15 L3.6 2.4 8.05 2.05 6.45 2.55 3.15 3.35 Q3.25 3.8 2.6 4.6 L0.6 6.75 Q-0.15 7.25 -1.15 7.25 L-2.95 6.85 -4.8 6.4 Q-5.35 6.4 -6.4 7.0 -7.6 7.7 -8.75 8.95 L-10.5 10.45 -12.0 10.2 Q-13.75 10.05 -16.95 11.4 L-19.95 12.8 Q-21.45 12.8 -22.3 11.9 L-23.45 9.9 Q-25.15 7.0 -29.95 7.0 -34.0 7.0 -35.45 10.2 L-37.25 15.2 Q-37.65 15.8 -39.4 16.6 L-41.9 17.8 -44.85 19.25 Q-47.3 20.25 -48.25 20.25 -49.6 20.25 -51.35 18.75 L-55.85 23.55 Q-56.75 24.1 -59.65 24.1 L-62.45 24.05 Q-61.45 25.6 -63.65 26.7 -65.5 27.7 -67.7 27.7 -69.0 27.7 -71.35 26.95 -73.15 27.2 -73.9 32.15 L-75.1 32.3 -83.85 31.95 Q-92.45 32.45 -92.45 36.75 -92.45 37.95 -91.45 38.6 L-94.25 40.3 Q-95.7 41.1 -97.7 41.1 L-101.6 40.5 -102.95 39.9 -105.7 40.35 -108.45 40.75 -109.85 40.6 -109.9 41.4 Q-111.2 40.2 -113.2 33.75 -114.75 28.85 -118.4 28.85 -122.6 28.85 -125.6 30.85 -128.4 32.7 -128.4 34.8 -128.4 35.8 -127.85 36.6 -130.65 35.45 -133.5 34.7 -135.3 34.1 -137.0 32.05 -142.25 25.85 -142.65 24.3 -143.15 22.35 -143.85 21.4 -146.35 18.05 -150.1 15.35 -153.15 13.2 -154.0 13.2 -155.95 13.2 -156.7 14.1 -158.0 15.6 -157.0 20.05 L-157.5 19.3 -161.3 16.0 Q-164.3 13.2 -164.45 12.6 -164.9 11.15 -165.05 7.05 -165.05 6.8 -165.35 6.5 L-165.65 5.6 Q-165.65 1.35 -166.35 0.75 -167.3 -0.05 -174.0 -3.45 L-170.6 -7.7 Q-170.6 -8.75 -172.2 -10.2 -173.85 -11.65 -173.85 -13.2 L-172.1 -15.25 Q-170.15 -17.5 -169.45 -18.65 -168.05 -21.0 -167.4 -23.65 -167.05 -25.0 -167.0 -25.95 -167.0 -28.8 -168.5 -32.5 L-170.0 -35.7 Q-170.0 -36.4 -167.65 -40.65 -165.25 -44.95 -165.2 -47.55 -165.05 -52.7 -164.1 -53.85 -163.3 -54.85 -163.35 -57.7 L-163.45 -58.45 -156.0 -58.45 -154.9 -57.45 Q-154.45 -56.95 -153.9 -56.95 -151.3 -56.95 -146.95 -61.05 -142.85 -64.9 -140.45 -69.1 -139.5 -70.8 -138.95 -72.6 L-138.15 -75.65 Q-137.85 -76.6 -136.0 -78.6 L-133.6 -81.2 Q-133.6 -80.15 -133.3 -79.7 -132.95 -79.2 -132.15 -79.2 -130.8 -79.2 -128.15 -79.9 -125.15 -80.7 -123.25 -81.75 L-120.75 -84.1 Q-119.5 -85.5 -117.55 -85.5 L-115.7 -85.3 -115.7 -85.1 -117.45 -82.7 Q-118.5 -81.1 -118.5 -79.4 -118.5 -77.85 -117.7 -76.95 -116.85 -75.9 -114.85 -75.4 -112.65 -74.85 -109.75 -73.15 -107.75 -72.0 -104.8 -72.0 -104.05 -72.0 -101.65 -73.5 -99.3 -75.0 -97.9 -75.0 -96.9 -75.0 -96.55 -74.25 -96.1 -73.2 -92.85 -72.2 L-89.4 -71.4 Q-88.45 -71.15 -84.45 -68.95 L-85.25 -68.4 -85.5 -67.6 Q-85.5 -66.1 -84.4 -65.35 -82.8 -64.3 -82.45 -63.65 -80.15 -59.7 -75.55 -59.7 -73.35 -59.7 -67.7 -61.8 -62.05 -63.95 -59.75 -63.95 L-56.55 -63.6 Q-53.55 -63.1 -52.1 -62.2 L-53.05 -61.65 Q-55.5 -60.5 -56.4 -56.95 -56.4 -56.2 -55.85 -56.05 L-54.3 -55.4 -55.25 -54.0 Q-56.1 -52.9 -56.1 -52.15 -56.1 -50.1 -49.3 -48.45 -44.1 -47.2 -41.9 -47.2 -41.45 -47.2 -40.6 -48.25 L-39.75 -49.5 Q-39.3 -50.2 -35.35 -51.35 L-33.8 -50.45 Q-32.35 -49.55 -31.05 -49.55 -29.4 -49.55 -27.55 -50.45 -25.7 -51.35 -23.2 -51.35 L-20.4 -50.5 Q-17.0 -49.5 -13.45 -48.95 L-14.55 -48.55 Q-18.6 -47.35 -19.8 -43.35 L-20.25 -39.55 -22.6 -38.35 Q-24.85 -37.05 -24.85 -35.6 L-24.65 -34.05 -24.25 -31.45 Q-24.15 -30.45 -24.9 -29.35 L-25.45 -27.85 -25.85 -26.55 -26.45 -26.45 Q-26.9 -26.4 -26.9 -25.8 L-26.6 -24.65 -25.9 -23.5 Q-25.55 -23.0 -22.45 -22.2 L-19.95 -20.85 Q-18.35 -20.0 -15.45 -20.0 L-11.8 -20.05 Q-8.95 -20.4 -6.75 -22.0 -4.95 -23.35 -3.2 -26.45 -1.75 -29.05 -1.75 -29.8 -1.75 -31.1 -1.05 -32.1 0.0 -33.55 2.6 -34.2" fill="#a8fffd" fill-rule="evenodd" stroke="none"/>
    <path d="M-61.7 -55.85 Q-61.7 -54.7 -60.7 -54.55 -59.5 -54.4 -59.1 -53.35 L-58.0 -49.8 Q-57.4 -47.85 -57.05 -47.5 -56.3 -46.75 -51.15 -45.45 L-46.05 -44.25 Q-42.5 -44.25 -39.95 -45.65 -37.4 -47.1 -34.35 -47.1 L-31.9 -46.65 -29.45 -46.25 -25.8 -46.8 Q-23.05 -47.4 -22.35 -48.0 -23.45 -45.3 -27.55 -42.35 -31.05 -39.85 -31.05 -37.6 L-30.3 -35.35 Q-29.6 -33.5 -29.6 -31.9 -29.6 -30.0 -30.25 -27.65 -30.95 -25.1 -31.9 -24.3 L-29.85 -24.15 -30.05 -22.1 -30.4 -19.95 Q-30.4 -18.8 -28.7 -18.35 L-25.35 -17.75 Q-24.2 -17.5 -23.9 -16.85 L-23.65 -15.75 Q-23.15 -14.5 -17.65 -14.8 L-18.7 -13.8 -21.1 -11.5 -23.1 -8.8 Q-24.8 -6.55 -25.4 -6.55 -25.9 -6.55 -26.5 -6.9 L-27.65 -7.3 Q-29.5 -7.3 -30.0 -6.25 -30.55 -5.25 -31.0 -5.25 -33.45 -5.25 -36.95 -8.35 L-41.0 -12.4 -43.9 -16.05 Q-45.15 -17.75 -46.75 -17.75 L-49.45 -17.25 -52.2 -16.8 -54.45 -17.45 Q-56.8 -18.2 -57.15 -18.55 L-52.4 -19.7 -52.15 -20.35 -53.25 -20.8 -55.65 -21.3 Q-55.25 -21.75 -50.5 -23.45 -46.7 -24.85 -46.7 -27.15 -46.7 -28.3 -48.05 -29.2 L-50.65 -31.35 -48.9 -32.75 Q-47.65 -33.95 -47.65 -34.65 -47.65 -36.7 -50.8 -38.5 -52.4 -39.4 -54.15 -39.95 L-58.4 -40.6 Q-60.25 -40.65 -61.15 -42.6 -61.4 -43.15 -61.65 -45.3 -61.75 -46.65 -62.9 -47.05 -64.85 -47.6 -65.4 -48.2 -65.8 -48.65 -66.5 -51.8 -67.2 -54.75 -68.5 -55.75 -65.3 -58.95 -61.45 -58.95 L-60.75 -58.9 -60.55 -58.75 -60.4 -58.6 -61.2 -57.5 Q-61.7 -56.65 -61.7 -55.85 M-76.15 5.95 L-76.4 2.7 -75.75 3.15 Q-74.65 3.55 -74.1 4.05 L-73.3 4.35 -71.1 3.05 -69.15 1.75 -67.75 2.45 Q-67.3 2.7 -65.55 0.75 -64.55 -0.35 -62.55 -0.7 L-60.0 -1.0 Q-58.95 -1.3 -57.85 -2.05 -56.85 -2.75 -56.6 -3.3 L-56.3 -5.4 -55.95 -8.0 Q-55.8 -8.65 -54.65 -9.45 L-52.15 -11.15 Q-52.35 -8.55 -48.15 -8.55 L-45.75 -8.8 -43.7 -8.9 -41.9 -8.6 Q-41.25 -8.5 -40.4 -7.05 L-39.0 -4.75 -37.6 -3.65 -35.35 -3.0 -33.5 -2.6 -32.4 -2.75 -31.65 -2.95 -30.3 -2.6 -28.45 -2.2 -22.3 -2.55 Q-21.9 -2.9 -21.05 -4.75 L-19.1 -8.75 Q-18.5 -9.85 -16.95 -11.0 -15.45 -12.15 -15.25 -12.55 L-14.15 -14.75 Q-13.4 -16.0 -12.25 -16.5 L-7.75 -16.95 Q-3.7 -17.45 -2.5 -18.8 -2.2 -19.1 0.55 -25.15 3.8 -31.05 7.0 -31.05 10.25 -31.05 13.5 -26.35 16.95 -21.3 19.1 -20.75 14.8 -19.3 11.35 -15.4 8.8 -12.45 6.6 -13.05 7.75 -14.55 6.7 -16.1 5.6 -17.65 3.6 -17.65 1.95 -17.65 0.35 -16.25 L-2.65 -13.05 Q-4.4 -11.15 -7.9 -8.25 -10.0 -6.5 -10.0 -5.7 -10.0 -2.15 -8.65 -0.7 L-4.9 2.45 Q-10.65 1.95 -14.5 4.4 -18.6 7.05 -20.1 7.05 -21.55 7.05 -22.9 4.5 -24.3 1.95 -26.65 1.95 -31.95 1.95 -34.5 4.6 L-36.0 6.4 Q-36.75 7.25 -37.6 7.25 -38.2 7.25 -38.6 6.7 -39.0 6.15 -40.1 6.15 L-42.5 7.2 Q-44.9 8.3 -45.6 8.8 -47.65 10.4 -49.9 13.1 -51.45 15.0 -52.15 15.0 L-56.75 14.1 -63.05 13.2 Q-66.6 13.2 -73.1 14.9 -74.1 14.9 -76.4 8.15 -76.15 7.65 -76.15 5.95" fill="url(#gradient0)" fill-rule="evenodd" stroke="none"/>
    <path d="M-96.95 -62.2 Q-95.95 -61.4 -94.0 -61.2 L-91.0 -60.85 -87.65 -59.7 -83.45 -58.25 Q-75.75 -56.3 -73.95 -54.95 L-75.65 -52.3 -71.9 -50.0 Q-71.45 -50.3 -71.45 -49.3 L-72.7 -46.7 Q-74.0 -44.0 -74.0 -43.1 -74.0 -41.7 -73.2 -40.9 -71.5 -39.3 -70.35 -37.5 L-69.15 -35.35 -68.15 -33.3 -66.0 -32.15 Q-62.8 -30.95 -57.45 -30.6 -56.0 -30.5 -52.65 -29.25 L-49.0 -27.8 -48.45 -27.45 Q-53.8 -27.05 -57.1 -25.15 -60.45 -23.25 -60.45 -20.45 -60.45 -19.45 -59.8 -18.75 L-59.0 -17.4 Q-59.7 -16.45 -61.35 -16.05 L-64.3 -15.55 Q-67.9 -14.8 -67.9 -10.6 -67.9 -9.1 -66.15 -6.6 L-64.4 -4.0 Q-64.4 -3.65 -65.6 -2.0 -66.8 -0.3 -66.8 0.75 -68.05 -0.2 -70.85 -1.75 -75.1 -4.05 -78.45 -5.0 -82.7 -6.2 -84.85 -7.9 -86.6 -9.3 -86.75 -10.8 -87.15 -15.45 -90.8 -20.25 -94.35 -24.9 -94.35 -26.0 -94.35 -27.4 -93.6 -28.55 L-92.9 -29.75 Q-92.9 -33.4 -98.15 -38.85 -103.4 -44.3 -103.4 -47.0 -103.4 -49.05 -100.3 -55.4 L-96.95 -62.2 M-76.15 5.95 Q-76.15 7.65 -76.4 8.15 L-76.8 5.65 -76.15 5.95" fill="url(#gradient1)" fill-rule="evenodd" stroke="none"/>
  </g>
  <defs>
    <radialGradient cx="0" cy="0" gradientTransform="matrix(0.219, 0.0598, -0.0602, 0.2206, -149.4, -33.05)" gradientUnits="userSpaceOnUse" id="gradient0" r="819.2" spreadMethod="pad">
      <stop offset="0.34901960784313724" stop-color="#ca0000"/>
      <stop offset="1.0" stop-color="#ffffff"/>
    </radialGradient>
    <radialGradient cx="0" cy="0" gradientTransform="matrix(0.219, 0.0598, -0.0602, 0.2206, -148.95, -32.95)" gradientUnits="userSpaceOnUse" id="gradient1" r="819.2" spreadMethod="pad">
      <stop offset="0.34901960784313724" stop-color="#ca0000"/>
      <stop offset="1.0" stop-color="#ffffff"/>
    </radialGradient>
  </defs>
</svg>
