<?xml version="1.0" encoding="UTF-8" standalone="no"?>
<svg xmlns:xlink="http://www.w3.org/1999/xlink" height="127.3px" width="205.5px" xmlns="http://www.w3.org/2000/svg">
  <g transform="matrix(1.0, 0.0, 0.0, 1.0, 173.95, 85.45)">
    <path d="M23.4 -25.2 Q24.45 -23.75 25.5 -22.8 L26.15 -21.7 Q26.7 -20.85 27.6 -20.5 30.0 -19.7 31.1 -19.55 L31.55 -19.45 27.55 -19.1 Q25.7 -19.1 24.6 -15.8 23.5 -12.55 24.55 -10.45 L24.4 -10.35 20.4 -12.7 Q16.7 -14.65 15.25 -14.65 14.4 -14.65 13.45 -12.3 12.55 -10.0 9.35 -10.0 L7.85 -10.45 6.3 -10.9 Q3.6 -10.9 1.15 -8.85 -1.35 -6.75 -1.35 -4.25 L-0.05 -2.9 Q1.45 -1.45 2.25 -0.05 2.9 1.2 3.4 1.35 L5.4 1.65 12.05 1.55 Q4.5 3.25 -2.5 8.5 -3.5 8.5 -5.4 7.55 -7.3 6.55 -9.65 6.55 -10.5 6.55 -11.75 8.55 L-13.4 11.2 -14.45 12.7 Q-17.1 12.65 -18.35 9.65 -19.75 6.25 -20.75 5.8 L-22.1 5.55 -23.45 5.05 -24.5 4.0 Q-25.25 3.3 -25.95 3.3 L-27.55 4.9 -30.7 7.8 Q-30.9 8.25 -30.95 11.2 L-30.9 14.85 -31.75 16.3 Q-32.8 17.6 -34.0 18.2 -35.0 15.65 -38.75 15.65 -40.05 15.65 -41.75 16.2 -44.45 17.15 -45.1 19.0 -45.8 21.0 -48.0 22.0 L-51.35 23.65 -53.8 26.25 -57.5 29.7 Q-59.65 31.35 -60.2 31.4 -61.2 31.5 -64.05 33.0 L-65.05 33.55 -66.55 34.0 Q-69.15 34.0 -72.25 32.25 -75.35 30.45 -79.65 30.45 -84.35 30.45 -86.5 33.0 -87.0 33.6 -87.35 35.8 -87.75 38.3 -88.1 39.0 -88.35 39.65 -92.7 40.7 -97.45 41.85 -101.3 41.85 -103.45 41.85 -104.85 40.25 -105.9 39.0 -105.95 37.9 L-105.95 35.1 Q-106.1 33.35 -107.0 32.65 -108.35 31.6 -109.8 31.15 -111.6 30.55 -114.3 30.55 -116.45 30.55 -119.8 31.75 -123.45 33.05 -124.15 34.35 L-124.25 35.15 -123.95 36.05 Q-128.0 36.6 -133.2 34.3 L-136.05 30.1 Q-138.65 26.15 -139.55 25.15 -141.9 22.7 -143.75 21.35 -147.85 18.4 -151.8 18.4 -152.4 18.4 -153.15 18.9 -154.35 19.7 -154.75 21.5 L-154.6 22.3 -164.0 15.35 Q-166.95 12.5 -166.95 9.1 -166.95 7.65 -166.1 5.55 -165.25 3.45 -165.25 2.1 -165.25 -1.35 -169.05 -5.6 -171.8 -8.7 -173.95 -9.95 L-172.9 -11.95 Q-172.0 -13.85 -172.0 -14.4 -172.0 -15.2 -173.05 -18.3 L-169.05 -20.15 Q-166.8 -21.2 -166.75 -22.15 L-167.05 -25.75 Q-167.05 -26.3 -165.9 -27.2 -164.8 -28.1 -164.8 -28.45 -164.8 -30.1 -166.85 -32.5 -168.95 -34.85 -168.95 -37.45 -168.95 -39.95 -167.1 -42.75 -165.3 -45.6 -165.3 -46.7 -165.3 -47.7 -165.6 -48.9 -166.05 -50.9 -166.95 -51.45 -164.5 -51.5 -162.05 -54.45 -160.15 -56.75 -157.45 -61.95 -155.7 -59.2 -152.2 -59.2 -148.95 -59.2 -145.0 -62.1 -141.2 -65.2 -140.05 -65.75 -139.65 -65.9 -138.1 -68.5 L-135.5 -72.65 -134.55 -73.95 -134.55 -76.0 Q-134.55 -80.7 -132.15 -81.1 L-126.95 -80.7 Q-123.65 -80.7 -120.0 -82.6 L-114.7 -85.2 -112.95 -85.45 Q-113.35 -84.55 -114.8 -83.55 -116.1 -82.0 -116.1 -77.95 -116.1 -76.5 -115.3 -76.3 L-113.75 -76.35 Q-113.55 -76.35 -110.85 -74.15 -108.15 -71.95 -105.9 -71.95 -101.8 -71.95 -98.9 -72.8 -98.55 -72.9 -98.15 -73.2 L-97.3 -73.5 -92.75 -73.2 Q-89.25 -72.75 -87.9 -72.05 -87.35 -71.75 -86.8 -70.25 -86.4 -69.0 -84.5 -68.7 -82.55 -68.4 -82.05 -68.0 L-80.85 -65.35 -79.6 -61.9 Q-78.65 -58.1 -73.1 -58.1 -70.75 -58.1 -66.15 -60.4 -61.55 -62.75 -60.45 -62.75 L-52.3 -61.35 -53.0 -58.0 Q-53.0 -57.5 -52.45 -57.45 -51.95 -57.45 -51.95 -56.95 -51.95 -56.35 -52.85 -55.15 L-54.05 -53.45 -54.3 -51.45 Q-54.3 -49.4 -53.5 -48.6 -52.5 -47.55 -49.6 -47.6 -48.5 -47.65 -45.85 -46.55 -43.2 -45.45 -42.45 -45.45 -41.35 -45.45 -40.95 -46.05 L-40.45 -46.7 -37.95 -46.25 -35.5 -45.8 Q-27.35 -45.8 -26.3 -47.2 L-25.4 -48.95 Q-24.55 -50.25 -22.45 -51.45 L-24.75 -54.35 Q-21.35 -52.4 -16.85 -47.65 -13.0 -43.55 -13.0 -43.15 -13.0 -42.15 -13.9 -41.35 -14.85 -40.5 -14.85 -39.0 L-14.6 -37.95 -13.95 -37.45 Q-14.65 -37.0 -16.95 -37.1 -19.35 -36.65 -21.25 -33.35 -21.8 -32.4 -22.95 -31.2 -23.8 -30.35 -23.8 -29.75 -23.8 -28.0 -20.65 -27.05 -17.55 -26.15 -17.55 -25.1 -17.55 -24.65 -18.75 -23.25 L-19.95 -21.85 Q-19.95 -20.2 -17.8 -19.1 -16.05 -18.25 -14.45 -18.25 -6.15 -18.25 -2.15 -20.65 0.75 -22.35 2.15 -25.95 L4.55 -31.3 Q6.45 -33.7 11.1 -33.7 L19.2 -33.05 Q22.3 -31.75 22.5 -31.2 L22.3 -27.45 Q22.3 -26.75 23.4 -25.2" fill="#a8fffd" fill-rule="evenodd" stroke="none"/>
    <path d="M-57.35 20.25 Q-54.9 21.05 -53.95 21.05 L-62.35 27.05 Q-64.5 28.4 -67.95 28.4 L-71.55 27.9 -72.6 26.5 -76.25 22.8 Q-76.7 22.4 -77.1 22.4 L-77.85 22.6 -77.95 22.75 -78.0 21.8 Q-77.45 20.95 -74.8 19.85 -71.65 18.55 -68.45 18.55 L-60.95 18.8 -57.35 20.25 M-65.05 -53.2 L-63.45 -53.75 -60.75 -54.55 -58.45 -54.9 -57.75 -54.75 -57.75 -54.45 Q-59.9 -50.0 -56.75 -46.4 -53.8 -43.0 -48.8 -43.0 L-43.25 -43.3 Q-39.0 -43.4 -36.75 -42.15 -35.2 -41.3 -34.0 -41.3 -33.75 -41.3 -33.45 -40.7 -33.15 -40.15 -31.75 -40.15 -29.75 -40.15 -27.3 -41.9 -24.85 -43.7 -23.25 -43.7 L-21.4 -43.35 -20.25 -42.95 -20.3 -42.8 -21.2 -41.5 -22.1 -40.2 -23.15 -37.35 -23.75 -35.4 Q-24.2 -34.65 -27.15 -31.65 -28.9 -29.85 -28.9 -27.8 -28.9 -26.65 -27.85 -25.1 L-26.85 -23.65 -28.6 -21.45 Q-30.4 -19.2 -30.5 -18.25 L-30.0 -18.75 Q-30.0 -19.15 -29.05 -19.45 L-27.35 -19.7 Q-25.35 -19.7 -24.55 -18.7 -24.15 -18.2 -23.8 -16.55 -23.15 -13.45 -19.2 -13.45 L-15.95 -13.5 Q-17.25 -12.7 -19.05 -9.9 -20.95 -7.0 -20.95 -5.45 -21.5 -6.55 -22.55 -6.05 -24.25 -5.15 -24.8 -5.15 -25.5 -5.15 -27.55 -5.9 L-31.3 -6.95 -34.0 -7.5 Q-34.7 -7.8 -35.8 -8.8 -38.05 -10.9 -40.4 -13.85 -42.15 -15.7 -44.6 -15.7 L-46.95 -14.9 Q-49.0 -14.15 -49.95 -14.15 L-51.65 -14.5 -53.2 -14.95 Q-51.45 -14.75 -50.85 -15.65 -50.5 -16.15 -50.5 -17.4 -50.5 -19.9 -51.35 -20.9 -51.9 -21.6 -53.6 -22.1 -58.4 -23.55 -61.25 -27.35 L-61.1 -28.1 -60.9 -27.8 -60.85 -27.5 -60.05 -27.35 Q-57.6 -27.35 -56.15 -28.95 -54.85 -30.4 -54.5 -30.25 L-51.7 -29.85 Q-47.2 -30.1 -44.9 -33.05 -42.85 -36.5 -41.45 -37.75 L-42.2 -38.6 Q-45.25 -38.0 -45.8 -39.05 -46.1 -39.6 -46.2 -41.0 -54.8 -40.15 -56.25 -42.4 L-57.15 -44.55 -57.85 -46.45 -61.0 -50.35 Q-63.1 -52.75 -65.05 -53.2 M1.35 -15.7 L3.5 -16.95 Q0.3 -12.35 -1.5 -10.75 -3.65 -8.85 -3.85 -7.2 -4.05 -5.45 -4.95 -4.7 -5.8 -4.0 -5.8 -3.1 L-3.55 -0.75 Q-1.3 1.35 -1.2 2.05 -2.55 2.7 -5.6 4.85 L-6.5 4.2 Q-7.4 3.5 -9.0 3.5 -10.2 3.5 -12.05 5.35 -13.85 7.15 -14.95 7.15 -16.4 7.15 -17.45 5.95 -19.0 4.2 -19.95 3.65 -20.55 3.3 -22.45 3.2 L-24.55 2.95 -26.35 1.8 -27.7 1.2 Q-28.65 1.2 -31.85 4.85 -35.05 8.45 -37.55 8.45 -38.25 8.45 -38.8 7.65 L-39.4 6.65 -40.9 7.7 -42.4 9.3 -44.3 10.65 Q-45.1 11.05 -45.65 11.85 L-46.75 13.65 -47.7 14.7 -50.4 15.85 -53.4 16.8 Q-55.15 16.8 -57.35 15.45 -59.55 14.05 -61.7 14.05 L-68.05 15.15 -71.9 14.55 -75.2 13.8 -74.6 12.5 Q-74.0 11.4 -74.0 9.05 L-74.3 6.4 Q-74.6 4.45 -74.9 3.9 L-71.4 4.1 -69.75 3.5 -66.15 3.65 Q-65.75 3.55 -65.25 2.75 L-64.65 1.85 -58.65 0.6 Q-53.05 -0.9 -53.05 -3.7 L-53.25 -6.15 Q-53.35 -7.25 -52.9 -7.65 -51.85 -8.6 -43.95 -8.6 -43.15 -8.6 -41.9 -6.6 -40.3 -4.1 -36.85 -2.65 L-34.45 -2.45 -30.7 -2.1 Q-29.95 -1.95 -29.3 -1.2 -28.7 -0.5 -27.7 -0.45 L-24.9 -0.35 Q-24.35 -0.35 -24.2 -0.7 L-23.95 -0.9 -22.95 -0.3 Q-22.35 0.1 -21.75 0.1 -18.3 0.1 -17.55 -3.15 -16.35 -8.5 -15.3 -9.9 -12.55 -13.6 -10.8 -14.3 L-5.7 -16.45 -5.15 -15.6 Q-4.45 -14.9 -3.05 -14.9 -0.45 -14.9 1.35 -15.7 M16.6 -29.0 Q17.85 -28.05 18.45 -26.7 L20.0 -23.1 Q20.95 -21.25 22.55 -20.2 L21.3 -20.25 Q16.9 -18.8 14.45 -16.65 12.7 -15.15 10.6 -15.15 L5.9 -15.25 6.65 -16.4 6.75 -17.15 Q6.75 -17.6 5.65 -18.25 L3.9 -19.45 Q5.85 -21.6 7.65 -26.25 9.7 -29.85 14.55 -29.85 15.45 -29.85 16.6 -29.0" fill="url(#gradient0)" fill-rule="evenodd" stroke="none"/>
  </g>
  <defs>
    <radialGradient cx="0" cy="0" gradientTransform="matrix(0.219, 0.0598, -0.0602, 0.2206, -148.95, -32.95)" gradientUnits="userSpaceOnUse" id="gradient0" r="819.2" spreadMethod="pad">
      <stop offset="0.34901960784313724" stop-color="#ca0000"/>
      <stop offset="1.0" stop-color="#ffffff"/>
    </radialGradient>
  </defs>
</svg>
