<?xml version="1.0" encoding="UTF-8" standalone="no"?>
<svg xmlns:xlink="http://www.w3.org/1999/xlink" height="125.65px" width="209.4px" xmlns="http://www.w3.org/2000/svg">
  <g transform="matrix(1.0, 0.0, 0.0, 1.0, 173.95, 83.45)">
    <path d="M22.05 -30.7 Q23.85 -30.7 28.15 -25.85 28.35 -23.6 28.5 -23.4 28.65 -23.2 32.5 -20.15 35.4 -17.85 35.45 -15.7 L34.95 -15.95 33.0 -16.6 31.5 -17.0 Q28.45 -17.0 25.25 -14.0 22.05 -11.05 20.6 -11.05 19.7 -11.05 19.05 -11.75 18.35 -12.5 17.95 -12.5 L16.75 -12.4 15.85 -12.45 14.4 -13.35 13.15 -13.9 Q12.25 -13.9 9.25 -12.4 L6.35 -10.9 4.7 -11.3 3.05 -11.7 Q1.75 -11.7 0.95 -10.6 0.2 -9.5 0.2 -7.7 0.2 -5.6 2.85 -4.4 4.35 -3.65 8.5 -2.75 9.7 -2.45 11.2 -0.35 12.35 1.35 16.55 1.05 L16.3 1.4 Q15.35 2.0 14.05 2.1 L6.05 2.8 Q3.75 3.05 3.5 4.0 3.0 5.75 1.8 6.8 1.15 7.4 -4.5 9.65 -10.55 12.05 -12.3 12.05 -13.05 12.05 -13.6 11.65 -14.3 11.15 -14.3 10.1 -13.85 7.65 -14.0 7.0 -14.25 6.2 -17.45 5.1 -18.35 4.8 -19.2 3.05 -19.95 1.6 -21.85 1.6 -24.5 1.6 -26.45 3.25 -29.35 5.7 -29.35 11.05 L-28.85 13.05 -28.4 15.05 Q-28.4 15.5 -29.45 16.75 -30.85 18.3 -32.45 18.3 L-36.95 18.45 Q-38.55 18.8 -39.4 20.85 -40.1 22.55 -40.35 24.85 -40.8 26.3 -43.45 26.3 -44.75 26.3 -46.65 24.6 -50.0 27.45 -51.1 27.7 L-52.35 28.1 Q-55.2 30.45 -56.15 30.45 -60.65 30.45 -61.75 29.7 -62.85 28.9 -64.45 28.9 -68.15 28.9 -70.8 30.0 -73.5 31.15 -73.85 33.05 -74.75 37.7 -76.15 39.15 -79.0 42.2 -87.3 42.2 -91.2 42.2 -92.4 40.85 -93.0 40.15 -93.25 37.8 -93.5 35.7 -94.8 34.8 -96.75 33.4 -101.95 33.4 L-111.45 33.8 -112.95 37.0 Q-113.7 38.75 -114.45 39.05 L-119.6 35.45 Q-122.15 33.4 -122.45 33.4 -126.95 33.4 -128.7 34.1 -129.15 34.1 -129.95 30.65 -130.5 29.2 -132.55 28.05 -135.3 26.5 -139.3 26.5 L-141.3 26.8 -143.95 27.1 Q-146.1 27.15 -146.2 30.05 L-146.5 30.0 -154.7 26.55 Q-156.65 24.9 -157.0 18.95 -157.2 14.95 -159.55 9.75 -163.05 2.15 -168.7 2.15 L-170.0 2.35 -170.55 2.5 -170.4 -5.3 Q-170.4 -7.05 -170.95 -8.05 L-173.95 -11.95 Q-170.9 -10.8 -168.9 -14.5 -167.45 -17.2 -167.45 -19.05 -167.45 -20.05 -167.95 -20.65 -168.5 -23.0 -168.5 -25.05 -168.5 -27.25 -166.5 -30.9 -164.5 -34.6 -164.5 -36.7 -164.5 -38.75 -165.85 -40.55 -167.25 -42.4 -167.25 -44.25 -167.25 -46.0 -165.7 -46.8 -163.4 -48.0 -161.75 -51.2 L-158.0 -58.05 Q-155.15 -63.4 -155.0 -64.95 -153.85 -62.85 -152.05 -61.95 -150.9 -61.35 -149.8 -61.35 -146.9 -61.35 -145.9 -62.0 L-143.65 -64.15 -141.6 -65.75 Q-139.5 -67.2 -137.6 -67.95 L-134.5 -69.15 -134.25 -70.3 -132.95 -74.5 Q-132.2 -76.6 -131.4 -77.25 -129.6 -78.6 -128.65 -79.85 L-127.5 -81.5 -125.7 -80.3 Q-123.75 -79.3 -121.85 -79.3 -120.5 -79.3 -119.75 -79.85 L-118.35 -81.05 Q-115.85 -83.0 -108.5 -83.45 -110.25 -82.0 -110.85 -80.8 -111.35 -79.8 -111.35 -78.4 L-111.25 -76.05 Q-110.9 -73.8 -109.5 -73.75 L-106.2 -73.85 -105.5 -74.1 Q-105.05 -73.95 -104.8 -73.5 -102.85 -70.0 -102.45 -70.0 L-98.05 -71.3 Q-93.9 -72.65 -92.45 -72.65 -90.55 -72.65 -87.75 -71.6 -85.45 -70.75 -83.55 -69.6 -76.5 -65.35 -76.5 -64.0 L-76.75 -59.85 Q-76.65 -58.35 -74.5 -58.35 -73.95 -58.35 -73.05 -58.7 L-72.05 -58.95 Q-70.45 -58.2 -69.45 -58.2 -68.0 -58.2 -66.1 -59.6 -64.2 -61.05 -61.6 -61.05 L-55.95 -60.25 -50.45 -59.45 -51.1 -59.35 -51.3 -58.8 Q-51.3 -58.35 -50.15 -57.8 -48.75 -57.1 -46.45 -56.95 L-48.45 -55.15 -48.35 -54.45 Q-47.45 -54.2 -47.45 -53.95 -48.8 -53.55 -49.45 -52.45 -49.95 -51.7 -49.95 -50.8 -49.95 -48.65 -47.0 -46.9 -44.5 -45.4 -42.6 -45.4 L-40.15 -45.65 Q-38.6 -45.7 -39.3 -45.0 L-39.6 -42.65 Q-38.7 -42.2 -36.05 -41.65 L-33.45 -41.2 -30.6 -41.55 -28.1 -42.15 -26.1 -43.8 -25.45 -44.45 -20.6 -43.2 Q-18.0 -43.2 -18.0 -45.6 L-18.6 -47.0 Q-19.4 -48.4 -20.45 -49.45 L-19.05 -48.95 -13.9 -45.55 Q-12.75 -44.95 -12.55 -43.8 L-12.35 -41.95 Q-12.0 -40.95 -10.55 -40.8 L-7.7 -40.85 Q-3.8 -40.95 -3.45 -37.45 -4.45 -36.85 -6.3 -36.95 L-9.5 -37.15 Q-13.35 -37.25 -14.25 -33.2 -15.0 -32.65 -17.9 -32.65 -20.4 -32.0 -20.4 -27.9 -20.4 -26.45 -19.05 -25.6 L-12.7 -21.7 Q-13.35 -20.05 -12.65 -19.05 -12.1 -18.25 -11.15 -18.25 L-4.85 -18.7 0.95 -19.25 2.95 -19.7 Q4.55 -20.05 4.9 -20.45 L6.8 -25.25 Q8.1 -28.8 10.0 -28.8 11.4 -28.8 11.85 -27.95 12.3 -27.1 13.45 -27.1 L14.65 -28.0 17.1 -29.65 Q18.15 -30.2 22.05 -30.7" fill="#a8fffd" fill-rule="evenodd" stroke="none"/>
    <path d="M-47.2 -40.0 L-49.6 -40.0 -50.95 -41.25 -50.25 -41.5 -44.3 -41.4 Q-40.0 -41.35 -38.7 -40.1 L-37.5 -38.55 Q-36.3 -37.4 -34.25 -37.4 L-26.6 -38.05 -25.45 -39.0 Q-23.35 -39.95 -19.35 -40.3 L-14.55 -40.8 -15.2 -40.25 Q-17.5 -39.5 -17.75 -37.7 -17.55 -35.7 -17.75 -35.15 -18.75 -35.15 -20.3 -34.05 L-21.95 -32.6 -23.6 -30.4 Q-24.2 -29.4 -24.2 -27.9 -24.2 -26.65 -22.95 -24.95 -21.75 -23.2 -21.75 -22.0 L-21.95 -21.05 -22.2 -20.2 -23.75 -20.45 -25.15 -20.25 Q-25.35 -20.35 -25.35 -19.35 L-25.15 -18.35 -24.95 -17.9 -22.35 -17.6 Q-21.85 -17.6 -20.9 -18.05 L-19.45 -18.5 -17.8 -18.15 Q-16.7 -17.6 -15.45 -15.95 -19.85 -16.3 -20.9 -13.9 L-21.5 -11.8 Q-21.9 -10.6 -22.65 -10.05 -25.25 -8.15 -30.55 -6.45 -33.45 -6.5 -33.45 -7.95 L-33.0 -10.5 -32.6 -13.05 Q-32.6 -13.75 -34.5 -15.1 -36.75 -16.65 -38.95 -16.65 L-40.3 -16.35 Q-41.75 -15.55 -46.2 -14.2 L-42.15 -17.65 Q-41.4 -18.1 -41.4 -18.65 L-42.9 -21.9 -44.6 -24.9 -46.75 -25.25 -50.7 -25.3 Q-51.75 -25.25 -55.2 -25.95 L-54.0 -26.4 -52.9 -27.2 Q-52.1 -27.85 -51.55 -28.7 -50.2 -30.75 -48.25 -31.0 -45.9 -31.3 -45.25 -31.9 L-44.0 -34.5 Q-42.9 -37.0 -42.9 -37.45 -42.9 -37.85 -43.95 -38.8 -45.35 -40.0 -47.2 -40.0 M2.35 -13.45 Q3.35 -13.45 2.8 -13.2 L-0.25 -10.05 Q-2.45 -7.45 -2.45 -5.7 -2.45 -5.05 -1.15 -3.7 0.25 -2.2 2.05 -1.2 L1.05 -0.75 -0.25 -0.25 -1.65 0.2 Q-2.95 0.8 -3.4 2.9 -3.85 4.85 -6.0 5.45 L-7.3 5.6 -8.2 5.75 Q-9.0 6.3 -9.3 6.9 L-9.75 7.35 Q-11.6 6.5 -11.6 5.55 L-11.15 4.1 Q-10.7 3.15 -10.7 2.65 -10.7 1.65 -10.8 1.75 L-14.65 1.55 -15.35 1.0 Q-16.0 0.45 -17.1 0.45 -26.9 0.45 -32.35 5.85 L-35.5 9.5 Q-36.85 11.2 -37.7 11.2 L-38.95 10.8 Q-39.7 10.35 -40.2 10.35 -40.95 10.35 -43.35 13.7 -45.8 17.05 -49.05 17.05 -49.75 17.05 -52.15 15.2 -54.55 13.3 -56.7 13.3 L-58.1 13.55 -59.7 13.75 -61.1 12.9 Q-62.4 12.05 -62.65 12.0 L-66.0 11.55 -67.7 11.05 Q-69.7 9.2 -70.1 7.45 -70.45 5.8 -71.3 5.15 L-70.7 5.2 -63.9 4.7 Q-63.3 4.55 -61.35 2.5 L-58.85 3.25 Q-56.1 3.15 -51.85 -0.1 -50.55 -1.1 -49.9 -2.65 L-49.1 -5.15 Q-48.05 -7.75 -43.15 -7.75 L-41.6 -7.0 Q-40.05 -6.25 -37.1 -6.15 -35.55 -6.1 -35.15 -5.4 L-34.7 -4.45 Q-33.7 -3.7 -32.0 -2.95 L-29.95 -2.15 -29.8 -2.3 -29.95 -2.4 -21.55 -3.25 -17.25 -3.7 Q-15.45 -4.6 -14.3 -8.2 L-12.85 -11.7 -11.55 -11.85 -10.0 -12.0 Q-9.9 -12.0 -9.2 -12.5 -8.55 -12.9 -7.95 -12.9 L-5.7 -12.45 -3.45 -12.05 Q-2.3 -12.05 -1.35 -12.75 -0.4 -13.45 2.35 -13.45 M12.15 -25.15 Q13.55 -25.4 16.05 -25.2 15.35 -23.55 15.5 -23.25 L16.55 -23.15 17.95 -25.0 Q19.05 -26.55 21.0 -26.55 24.85 -26.55 25.6 -23.05 L26.2 -20.45 Q26.75 -19.2 28.05 -18.95 26.3 -16.95 23.9 -16.55 20.05 -15.9 17.45 -14.7 17.15 -14.75 15.4 -15.75 13.7 -16.7 13.3 -16.7 11.9 -16.7 9.15 -15.5 L6.0 -14.3 Q4.7 -14.3 4.0 -15.0 6.4 -15.5 7.15 -17.75 7.6 -19.05 8.05 -21.95 8.95 -24.5 12.15 -25.15 M-52.8 -38.5 Q-51.3 -36.2 -51.8 -32.65 L-51.85 -32.45 Q-52.85 -33.65 -54.3 -34.3 -55.4 -34.8 -56.2 -34.8 L-59.25 -33.95 -62.15 -33.1 -63.0 -33.15 -63.55 -33.4 -63.7 -34.75 -63.3 -36.5 Q-62.75 -37.85 -61.95 -38.6 -61.4 -39.1 -60.65 -39.15 L-59.8 -39.15 Q-59.45 -39.15 -58.15 -39.7 -56.9 -40.3 -55.45 -40.3 -54.05 -40.3 -52.8 -38.5 M-52.55 20.85 Q-53.75 21.1 -55.45 23.25 -57.3 25.6 -58.2 26.05 L-60.3 27.1 -63.75 27.65 -66.5 27.05 -69.55 26.15 Q-71.35 24.9 -73.05 22.3 -73.75 21.65 -74.75 21.6 -75.45 21.6 -75.45 21.05 L-75.35 20.45 -75.25 20.25 -72.8 20.0 -68.2 20.05 -65.7 18.65 Q-64.55 17.95 -61.85 17.95 -58.1 17.95 -57.1 18.9 -55.65 20.25 -52.55 20.85" fill="url(#gradient0)" fill-rule="evenodd" stroke="none"/>
  </g>
  <defs>
    <radialGradient cx="0" cy="0" gradientTransform="matrix(0.219, 0.0598, -0.0602, 0.2206, -148.95, -32.95)" gradientUnits="userSpaceOnUse" id="gradient0" r="819.2" spreadMethod="pad">
      <stop offset="0.34901960784313724" stop-color="#ca0000"/>
      <stop offset="1.0" stop-color="#ffffff"/>
    </radialGradient>
  </defs>
</svg>
