<?xml version="1.0" encoding="UTF-8" standalone="no"?>
<svg xmlns:xlink="http://www.w3.org/1999/xlink" height="126.0px" width="209.6px" xmlns="http://www.w3.org/2000/svg">
  <g transform="matrix(1.0, 0.0, 0.0, 1.0, 171.05, 83.95)">
    <path d="M29.35 -28.95 Q32.45 -26.9 32.45 -23.85 32.45 -21.4 33.5 -19.8 34.3 -18.5 37.75 -15.15 L38.55 -14.9 Q38.05 -14.85 36.75 -14.2 34.75 -13.2 31.5 -12.15 L29.15 -12.05 26.5 -12.15 Q23.35 -10.15 22.6 -10.15 22.3 -10.15 21.3 -11.95 20.2 -13.95 19.1 -14.55 L12.0 -16.9 Q9.15 -16.9 7.0 -14.55 5.15 -12.55 5.15 -10.9 5.15 -10.15 6.3 -8.9 L8.6 -7.05 10.1 -5.6 11.6 -4.15 14.7 -2.8 16.4 -1.6 Q16.8 -1.1 17.8 -1.0 19.05 -0.35 20.85 3.0 L15.2 2.3 Q8.5 3.2 6.75 4.55 L4.75 6.3 4.0 7.0 Q1.35 5.85 0.35 5.85 -0.6 5.85 -1.5 8.55 L-2.45 11.55 -3.85 12.65 Q-4.9 13.25 -6.65 13.25 L-8.3 12.95 -9.15 11.6 -9.25 9.25 -9.25 6.45 Q-9.3 5.95 -9.9 5.6 L-10.6 5.0 -11.15 2.3 -12.25 1.35 Q-13.45 0.65 -14.6 -0.95 -15.9 -2.65 -17.15 -3.25 L-19.0 -3.6 Q-22.35 -3.6 -22.5 -0.55 -22.65 3.05 -23.55 3.45 L-26.35 3.7 Q-27.45 4.2 -27.45 9.55 -27.45 12.65 -25.1 13.6 -23.1 14.4 -23.75 17.45 L-23.45 18.05 -27.9 16.75 -31.9 15.7 Q-33.85 15.7 -34.35 16.6 -34.95 17.65 -34.95 21.75 L-34.45 23.9 Q-33.95 25.5 -33.95 26.0 -33.95 27.3 -34.75 28.2 -37.35 24.25 -38.4 23.3 -39.3 22.4 -40.6 22.4 -42.6 22.4 -43.75 23.2 -44.8 23.95 -45.45 25.65 L-46.3 25.45 -47.85 25.25 Q-48.9 25.25 -50.5 26.4 -52.1 27.55 -55.15 27.55 -56.0 27.55 -59.4 25.4 L-62.8 23.25 Q-65.1 23.25 -66.15 25.7 -67.55 28.9 -68.45 29.5 L-71.55 31.25 Q-72.75 32.1 -72.75 34.05 -72.75 34.8 -71.95 35.15 -71.2 35.5 -71.2 35.6 -71.2 36.55 -72.05 38.2 -72.9 39.85 -73.6 40.3 -74.15 40.7 -78.25 41.35 L-85.7 42.05 -87.05 41.65 Q-88.0 41.15 -94.95 40.6 -94.35 39.2 -94.35 38.05 -94.35 37.15 -98.1 35.05 -101.6 33.05 -102.0 33.05 L-105.0 33.35 -108.0 34.05 -113.9 34.65 -114.3 35.0 Q-114.6 35.3 -115.2 35.3 L-116.55 34.4 Q-117.7 33.45 -119.0 33.45 -122.35 33.45 -123.15 34.15 -123.9 34.8 -124.9 34.8 -125.5 34.8 -126.05 34.1 L-127.4 32.2 Q-127.8 31.7 -131.65 30.6 L-135.55 29.55 -140.85 30.8 Q-141.3 31.35 -141.3 33.35 L-141.15 33.95 Q-148.0 30.55 -150.2 27.75 -151.1 26.6 -152.2 22.6 L-153.65 17.0 Q-154.2 15.15 -156.0 12.55 -157.3 10.65 -160.5 10.4 L-163.95 10.5 Q-164.65 10.5 -165.05 8.8 L-165.9 3.95 Q-166.4 1.1 -168.7 -1.2 L-171.05 -3.2 -170.1 -4.1 Q-169.3 -4.8 -169.15 -8.45 L-168.7 -15.45 Q-167.6 -23.35 -164.4 -28.1 -161.6 -32.3 -161.6 -35.2 -161.6 -42.95 -163.3 -44.25 L-164.5 -44.95 Q-165.05 -45.45 -165.05 -47.1 -165.05 -49.75 -161.85 -51.45 -158.55 -53.2 -158.45 -54.35 L-158.35 -56.5 Q-157.55 -58.35 -151.45 -66.95 -151.0 -65.55 -149.0 -64.2 -146.9 -62.8 -145.1 -62.8 -144.0 -62.8 -140.35 -65.0 L-136.15 -67.45 -133.35 -68.3 Q-132.65 -68.65 -132.3 -69.75 -131.55 -72.4 -131.55 -73.95 -131.55 -74.6 -130.3 -75.35 -127.95 -76.75 -125.4 -79.1 L-121.85 -81.9 Q-120.75 -82.5 -119.35 -82.5 L-117.35 -81.95 -108.95 -81.45 Q-108.45 -81.45 -108.15 -81.7 L-105.95 -83.95 Q-105.5 -83.15 -105.5 -82.15 L-105.9 -79.9 Q-106.45 -77.6 -106.95 -76.9 -107.85 -75.7 -108.8 -74.95 L-109.5 -74.4 Q-109.5 -72.9 -106.45 -71.65 -103.3 -70.35 -99.25 -70.35 L-87.95 -71.1 Q-86.1 -71.1 -84.35 -70.15 -83.6 -69.8 -78.85 -66.65 -76.95 -66.1 -76.2 -65.45 -75.05 -64.5 -72.85 -59.0 L-71.45 -58.25 -67.65 -57.8 Q-66.5 -57.8 -64.7 -58.85 -62.9 -59.95 -57.0 -59.95 L-56.55 -59.05 -55.5 -57.9 -51.75 -57.45 -47.9 -57.15 Q-45.7 -57.45 -44.25 -56.45 -43.0 -55.6 -43.0 -54.5 -43.0 -53.9 -43.7 -53.45 -44.55 -52.95 -44.75 -52.45 -44.1 -51.55 -42.9 -50.85 -41.5 -50.0 -41.45 -49.95 L-44.65 -46.85 Q-45.85 -45.75 -45.85 -44.45 -45.85 -41.9 -42.9 -39.8 -39.45 -37.4 -33.8 -37.4 -30.85 -37.4 -29.2 -38.2 L-26.65 -39.15 -23.2 -39.5 Q-22.75 -39.65 -22.75 -40.45 -22.75 -41.9 -21.4 -42.2 -20.0 -42.55 -15.0 -42.1 L-14.85 -42.5 -14.75 -43.45 Q-14.75 -45.3 -16.55 -47.35 L-20.05 -50.65 -18.0 -50.75 Q-15.25 -50.75 -14.9 -49.45 -14.35 -47.25 -12.4 -46.0 -12.0 -45.75 -11.35 -44.3 L-10.6 -42.7 -5.95 -42.55 Q-3.15 -42.55 -1.1 -39.15 0.3 -36.75 0.7 -34.3 L0.8 -33.95 Q-1.2 -34.95 -1.9 -34.95 -3.7 -34.95 -5.9 -33.9 -8.4 -32.7 -9.45 -32.55 L-11.55 -32.55 Q-13.25 -32.55 -13.5 -32.15 L-14.0 -31.05 -14.25 -30.25 -15.4 -29.45 Q-16.35 -28.7 -16.35 -27.45 -16.35 -25.7 -13.4 -23.95 -10.8 -22.4 -9.3 -22.4 -7.55 -22.4 -7.55 -22.85 L-7.2 -23.2 Q-8.05 -21.15 -7.1 -19.7 -6.15 -18.2 -3.8 -18.2 L-0.85 -18.7 Q1.1 -19.3 4.7 -21.0 5.45 -21.35 7.25 -23.1 8.8 -24.65 9.65 -24.65 L10.75 -24.05 Q12.05 -23.5 13.55 -23.5 14.75 -23.5 16.35 -24.15 18.6 -25.0 19.1 -26.6 L19.45 -28.55 Q20.1 -30.55 21.75 -30.85 26.25 -30.95 29.35 -28.95" fill="#a8fffd" fill-rule="evenodd" stroke="none"/>
    <path d="M5.8 -17.5 L5.85 -16.65 Q5.6 -15.4 3.7 -12.05 2.05 -9.1 2.05 -7.25 L4.45 -4.9 Q6.85 -2.55 6.9 -1.75 L6.8 -1.4 Q1.6 -1.2 -1.85 2.6 -3.6 4.55 -4.7 6.4 L-7.1 6.2 Q-7.3 6.1 -7.3 5.5 -7.3 -1.75 -9.0 -2.85 L-10.5 -3.15 Q-11.45 -3.2 -11.9 -3.65 -18.2 -10.2 -21.2 -10.2 -21.55 -10.2 -22.05 -8.2 -22.7 -5.8 -23.35 -4.9 -23.8 -4.3 -26.35 -2.65 -28.35 -1.35 -28.35 0.0 -28.35 0.6 -28.0 0.65 L-27.45 0.75 Q-28.75 0.7 -30.15 1.5 -31.85 2.4 -31.85 3.8 -31.85 5.0 -31.3 5.55 -33.65 8.85 -34.0 9.85 L-34.7 11.95 -35.0 12.7 Q-39.15 11.2 -39.9 14.35 -40.35 16.25 -40.7 16.8 -41.5 18.05 -43.5 18.05 -46.3 18.05 -47.45 15.5 L-48.75 12.1 Q-50.6 10.25 -52.2 9.9 L-54.4 9.35 Q-57.7 7.1 -59.7 5.0 -55.85 5.55 -54.15 4.35 L-48.95 -0.85 Q-47.9 -1.9 -45.5 -5.9 -44.8 -7.15 -40.45 -7.15 L-36.2 -6.8 Q-34.4 -6.85 -32.65 -7.65 -31.75 -8.05 -29.1 -9.65 L-26.4 -11.2 Q-25.0 -12.1 -24.7 -12.65 L-24.85 -12.75 Q-26.65 -11.55 -28.85 -13.55 -31.25 -15.75 -32.25 -20.45 -32.7 -22.65 -34.9 -26.3 -36.6 -28.95 -39.85 -30.8 -42.95 -32.55 -45.7 -32.55 L-44.5 -32.8 -38.0 -34.75 -34.8 -35.6 -33.75 -35.0 Q-32.75 -34.45 -32.3 -34.45 -28.5 -34.45 -23.15 -36.6 -20.45 -37.7 -18.45 -38.8 L-16.65 -38.3 -14.9 -37.85 -13.5 -39.15 Q-12.2 -40.5 -11.55 -40.5 L-9.1 -39.9 -5.45 -38.9 -4.05 -38.3 -3.6 -38.0 Q-5.1 -38.0 -13.2 -33.55 -15.1 -33.2 -16.55 -32.45 -19.3 -30.95 -19.3 -27.75 -19.3 -26.45 -18.7 -25.6 L-18.0 -24.65 -17.65 -22.85 Q-17.45 -21.7 -16.9 -20.95 -15.95 -19.65 -12.1 -18.45 -8.85 -17.45 -8.85 -15.9 L-9.05 -14.7 -9.35 -13.65 -10.9 -14.6 Q-12.05 -15.25 -13.45 -15.25 -16.0 -15.25 -17.35 -13.05 -16.7 -12.4 -14.05 -11.5 L-11.45 -10.7 Q-9.6 -10.7 -7.15 -11.45 -6.5 -11.6 -5.7 -9.95 -5.5 -10.3 -5.25 -12.1 -4.65 -13.9 -2.85 -14.7 -0.15 -15.85 3.15 -16.3 5.3 -16.6 5.8 -17.5 M22.0 -25.7 Q22.7 -26.3 25.5 -26.3 27.45 -26.3 29.0 -24.8 30.2 -23.65 30.2 -23.2 29.1 -21.75 29.1 -21.2 29.1 -19.6 30.65 -17.65 L32.8 -15.35 32.65 -15.35 29.35 -15.45 27.95 -14.85 25.25 -16.2 Q24.3 -16.2 23.75 -15.8 23.15 -15.35 22.55 -14.1 21.7 -14.3 20.9 -15.05 20.05 -15.75 19.8 -16.5 19.55 -17.2 17.9 -18.2 L15.45 -19.5 16.85 -19.6 Q22.0 -21.25 21.75 -24.15 21.65 -25.35 22.0 -25.7 M-78.7 -55.05 Q-73.05 -48.35 -71.7 -47.4 -70.1 -46.35 -65.35 -46.35 -63.15 -46.35 -60.25 -45.1 -57.25 -43.8 -56.5 -43.75 L-54.55 -43.3 -51.45 -37.6 -47.9 -31.1 -47.7 -30.3 Q-48.45 -30.3 -50.75 -31.25 -53.05 -32.25 -54.45 -32.2 L-60.55 -32.1 -63.9 -32.55 Q-65.2 -33.25 -65.2 -35.45 -65.2 -36.1 -65.7 -36.8 L-66.7 -37.85 Q-72.05 -41.1 -72.05 -41.65 L-71.6 -42.55 Q-71.2 -42.95 -71.2 -43.45 -71.2 -44.25 -71.55 -44.7 L-72.75 -46.3 -75.75 -49.85 Q-78.1 -52.85 -78.7 -55.05 M-58.9 16.85 Q-56.5 16.3 -56.0 17.45 -55.3 19.25 -54.5 19.65 -57.35 19.2 -58.75 20.1 L-59.85 21.3 -62.7 21.2 -67.65 21.65 Q-69.25 21.65 -69.95 21.15 -68.6 21.5 -65.35 19.9 -59.85 17.2 -58.9 16.85 M-58.45 23.15 Q-58.55 22.65 -58.0 22.45 L-49.95 21.0 -49.4 21.15 Q-49.25 21.25 -49.25 21.85 -49.25 23.05 -50.4 23.85 -51.4 24.55 -52.55 24.55 L-58.45 23.15" fill="url(#gradient0)" fill-rule="evenodd" stroke="none"/>
  </g>
  <defs>
    <radialGradient cx="0" cy="0" gradientTransform="matrix(0.219, 0.0598, -0.0602, 0.2206, -148.95, -32.95)" gradientUnits="userSpaceOnUse" id="gradient0" r="819.2" spreadMethod="pad">
      <stop offset="0.34901960784313724" stop-color="#ca0000"/>
      <stop offset="1.0" stop-color="#ffffff"/>
    </radialGradient>
  </defs>
</svg>
