<?xml version="1.0" encoding="UTF-8" standalone="no"?>
<svg xmlns:xlink="http://www.w3.org/1999/xlink" height="121.2px" width="208.65px" xmlns="http://www.w3.org/2000/svg">
  <g transform="matrix(1.0, 0.0, 0.0, 1.0, 170.6, 81.4)">
    <path d="M2.25 -29.35 L0.8 -29.15 Q-1.9 -30.25 -3.25 -28.15 -4.25 -26.65 -4.25 -24.45 -4.25 -23.95 -4.6 -23.45 L-4.95 -22.45 Q-4.95 -20.65 -1.55 -18.5 1.7 -16.45 4.05 -16.45 12.95 -16.45 13.55 -17.95 L13.8 -19.1 Q14.15 -19.7 16.05 -19.9 L19.55 -19.15 Q21.0 -19.4 22.35 -21.3 23.55 -23.05 25.35 -23.05 30.35 -23.05 30.75 -21.4 30.25 -19.25 30.55 -18.4 31.1 -16.9 33.15 -15.6 35.35 -14.2 38.05 -13.95 L37.15 -13.3 Q32.65 -12.85 28.5 -9.2 24.5 -5.7 23.75 -5.7 22.6 -5.7 19.8 -7.5 17.0 -9.3 16.2 -9.3 14.1 -9.3 14.1 -6.4 L14.75 -4.15 15.55 -1.95 Q13.05 -2.3 10.3 -1.3 8.1 -0.45 7.4 0.4 4.75 3.85 2.8 3.85 L0.65 3.0 Q-1.3 2.15 -2.2 2.15 -3.15 2.15 -4.2 4.7 -5.2 7.25 -8.9 7.25 -10.15 7.25 -11.95 2.9 -13.75 -1.45 -15.95 -1.45 -18.1 -1.45 -20.6 0.9 -23.35 3.5 -23.35 6.35 L-23.2 10.15 Q-23.2 11.0 -23.5 11.8 L-25.35 12.15 Q-25.8 12.45 -25.45 16.05 -26.55 15.65 -29.55 16.05 -32.45 16.4 -32.9 16.9 L-32.85 21.15 Q-32.9 25.0 -34.05 26.45 -34.8 25.9 -35.7 23.8 -36.85 22.0 -39.45 22.0 L-40.35 22.2 Q-41.35 22.75 -43.35 24.85 L-46.05 22.3 Q-47.1 21.4 -48.45 21.4 -49.3 21.4 -50.95 22.8 L-52.85 24.2 -56.4 23.6 Q-57.7 23.25 -59.2 21.45 -60.6 19.8 -60.95 19.8 -62.6 19.8 -65.25 22.3 -67.95 24.85 -67.95 26.6 -67.95 28.9 -67.15 29.1 L-65.45 29.55 Q-67.9 31.15 -67.85 32.55 -67.75 34.65 -68.3 35.55 -69.5 37.5 -71.95 38.55 -74.3 39.6 -77.15 39.6 -84.0 39.6 -85.35 36.2 L-85.9 33.85 Q-86.1 32.8 -86.95 32.8 -88.2 32.8 -89.6 33.9 -91.15 35.05 -93.95 35.3 -95.9 35.45 -96.8 36.6 -97.7 37.75 -97.5 39.8 -98.9 39.3 -101.3 37.85 L-103.75 37.1 -105.9 36.45 Q-106.6 35.9 -106.9 34.55 L-107.3 32.85 Q-108.35 31.05 -114.45 31.05 -115.25 31.05 -116.15 31.8 -118.0 32.55 -123.45 32.75 L-131.1 33.15 Q-132.65 33.35 -132.65 33.85 L-132.5 35.15 Q-132.4 35.85 -132.6 36.3 -139.95 33.65 -142.45 30.95 -144.0 29.25 -146.9 22.5 -147.5 21.05 -151.7 18.45 -156.25 15.55 -159.2 15.55 -160.25 15.55 -160.85 16.35 L-161.4 17.4 Q-163.65 12.0 -165.6 10.25 -166.6 9.35 -167.85 8.7 L-166.8 5.95 Q-166.15 4.0 -166.15 -1.35 L-166.25 -4.85 Q-166.55 -8.25 -167.6 -9.8 -168.55 -11.15 -169.8 -10.95 -170.6 -11.4 -170.6 -16.6 L-170.35 -19.7 Q-170.05 -22.45 -169.4 -23.9 -168.0 -27.15 -167.0 -27.9 -165.6 -28.9 -164.25 -31.15 -162.6 -33.9 -161.85 -35.85 -160.9 -38.4 -160.9 -41.1 -160.9 -45.8 -162.1 -46.55 L-162.9 -46.9 Q-163.3 -47.1 -163.3 -47.9 L-162.55 -50.05 Q-161.85 -51.85 -161.85 -52.2 -161.85 -54.1 -160.85 -54.45 -158.7 -55.3 -156.15 -58.6 -151.35 -64.75 -149.95 -67.0 L-147.65 -65.55 Q-146.0 -64.45 -145.5 -64.45 L-141.55 -66.45 Q-137.6 -68.5 -136.7 -68.5 L-132.95 -68.2 Q-132.2 -68.1 -131.05 -69.0 -129.3 -70.3 -128.7 -72.2 -128.25 -73.6 -127.7 -73.6 -124.3 -73.6 -123.0 -74.8 L-121.35 -77.5 Q-119.05 -81.4 -107.8 -81.4 L-106.15 -80.9 -104.5 -80.45 -101.25 -80.55 Q-98.7 -80.5 -98.4 -80.05 -100.65 -79.55 -101.55 -78.2 L-102.0 -76.8 Q-102.0 -74.0 -101.05 -72.35 -99.25 -69.3 -94.25 -69.3 L-89.05 -69.9 Q-87.4 -70.55 -85.1 -70.55 -79.6 -70.55 -79.55 -68.6 L-79.5 -66.75 Q-79.15 -65.65 -77.45 -64.9 -75.4 -64.0 -73.35 -63.5 -72.35 -63.25 -71.8 -62.5 -70.3 -60.5 -69.75 -60.3 L-57.8 -58.5 -57.65 -58.5 -59.2 -59.2 -57.2 -58.35 Q-53.75 -59.5 -48.9 -57.3 -42.1 -54.2 -40.95 -54.0 L-38.95 -54.45 -39.45 -54.2 Q-39.0 -52.3 -40.0 -51.45 -41.2 -50.5 -41.2 -48.7 -41.2 -47.65 -39.95 -46.6 -38.75 -45.5 -38.75 -44.55 L-39.75 -42.9 -40.8 -41.1 Q-40.4 -39.9 -39.45 -39.4 -35.1 -37.0 -32.8 -35.9 L-31.4 -35.25 -29.6 -35.05 -27.5 -36.35 Q-25.75 -37.65 -24.9 -37.65 L-24.0 -37.45 -22.35 -36.85 -19.45 -36.3 Q-17.35 -36.3 -14.2 -37.45 -9.4 -39.25 -8.6 -42.5 -5.95 -40.95 -4.7 -39.85 -4.0 -39.25 -3.25 -37.65 L-2.3 -36.0 1.45 -33.9 Q2.6 -33.05 2.6 -30.85 L2.45 -29.85 2.25 -29.35" fill="#a8fffd" fill-rule="evenodd" stroke="none"/>
    <path d="M26.3 -21.1 Q28.55 -21.1 28.9 -19.05 29.35 -16.05 31.6 -14.3 29.5 -13.85 28.45 -13.15 L27.45 -11.5 Q27.05 -10.85 23.8 -10.85 20.9 -10.85 20.45 -13.0 20.0 -15.2 16.6 -15.45 19.35 -16.15 22.45 -18.75 25.25 -21.1 26.3 -21.1 M0.2 -13.65 L1.55 -13.45 1.6 -13.0 1.3 -12.7 Q2.45 -12.25 3.35 -10.0 4.15 -8.1 6.0 -8.1 6.8 -8.1 8.3 -9.0 L11.05 -10.7 11.4 -9.55 Q11.75 -6.4 9.15 -4.9 5.85 -3.55 4.6 -2.45 2.7 -0.75 -1.25 -1.05 -4.85 -1.3 -5.65 0.1 -7.15 2.8 -8.2 2.8 -9.05 2.8 -9.35 1.4 -9.7 -0.25 -10.7 -0.75 L-12.45 -1.7 Q-13.9 -2.7 -13.9 -3.95 L-13.85 -4.25 -15.6 -5.6 -17.1 -7.05 Q-17.7 -7.65 -18.2 -7.65 -19.3 -7.65 -20.35 -6.85 -21.2 -6.2 -21.3 -5.75 -21.85 -3.7 -22.35 -2.35 -24.45 -1.9 -25.15 -1.15 -25.85 -0.45 -25.85 1.25 L-25.8 2.45 Q-25.55 3.1 -25.6 3.45 -25.75 4.05 -26.8 4.95 L-29.3 7.25 -30.7 7.6 Q-35.95 8.55 -35.95 11.85 -35.95 12.8 -35.6 13.15 -36.05 12.7 -37.25 12.15 -38.4 11.6 -38.7 11.6 -40.55 11.6 -42.45 12.85 -44.25 14.05 -44.25 15.05 -44.25 17.35 -43.65 18.1 -43.7 18.3 -46.95 19.3 L-46.95 19.05 Q-47.0 16.85 -48.05 16.1 L-49.7 15.05 Q-50.25 14.35 -50.35 12.0 -51.15 9.55 -55.45 7.4 L-54.05 6.25 -52.9 5.05 -51.1 2.15 -47.05 -0.35 Q-45.65 -1.25 -44.6 -3.45 -43.85 -5.1 -42.4 -5.1 L-41.45 -4.35 Q-40.65 -3.65 -39.95 -3.65 -37.5 -3.65 -31.5 -6.8 L-21.45 -11.95 -21.75 -12.4 Q-25.0 -13.05 -26.75 -14.25 -28.9 -15.75 -29.7 -18.7 -30.85 -23.15 -32.05 -25.3 -34.7 -30.0 -38.7 -28.45 L-38.5 -28.55 Q-35.45 -29.55 -32.4 -31.05 L-29.95 -32.3 Q-29.05 -32.3 -27.8 -31.5 -26.55 -30.7 -25.15 -30.7 -16.8 -30.7 -12.3 -33.6 L-9.85 -35.6 Q-8.9 -36.5 -8.4 -36.5 -5.0 -35.6 -2.95 -33.75 L-6.75 -32.55 Q-7.5 -32.2 -7.9 -31.35 -9.9 -28.5 -9.9 -27.45 L-9.05 -25.7 -8.2 -24.15 Q-8.2 -23.8 -9.4 -22.95 -10.65 -22.05 -10.65 -21.0 -10.65 -19.8 -9.8 -19.4 L-7.95 -19.05 Q-6.2 -18.8 -4.9 -17.45 L-2.95 -15.7 -3.3 -15.55 Q-6.15 -16.55 -7.75 -15.6 -9.25 -14.7 -9.95 -11.7 L-8.65 -11.35 -7.05 -10.9 Q-4.9 -10.9 -4.4 -12.25 -3.85 -13.65 0.2 -13.65 M-48.25 -37.7 Q-46.6 -37.7 -45.25 -38.25 L-43.2 -39.25 -42.55 -37.7 -42.3 -36.5 Q-42.3 -35.8 -43.15 -34.65 L-44.05 -33.5 -43.55 -32.65 -42.9 -32.05 -43.7 -31.55 Q-44.1 -31.4 -44.1 -30.7 -44.1 -27.85 -41.15 -26.55 -38.2 -25.25 -38.2 -24.4 -38.2 -23.75 -39.15 -22.4 L-40.1 -20.85 Q-40.1 -19.7 -38.6 -18.1 L-36.3 -15.95 -35.25 -15.35 Q-39.85 -15.45 -42.25 -17.2 -44.95 -19.15 -46.85 -24.45 -47.6 -26.6 -51.15 -28.15 L-55.15 -29.65 Q-56.25 -30.3 -58.2 -30.5 L-61.45 -30.75 Q-65.15 -31.3 -65.85 -35.4 -66.0 -36.35 -67.55 -37.55 L-70.5 -39.7 Q-70.65 -40.6 -70.4 -43.05 -70.75 -45.6 -73.9 -48.4 L-70.55 -47.4 Q-68.25 -46.7 -66.8 -46.7 -66.1 -46.7 -65.2 -46.05 L-64.2 -45.25 -60.3 -44.05 Q-56.5 -42.9 -55.25 -42.2 L-53.95 -40.75 -52.1 -38.8 Q-51.75 -38.5 -50.3 -38.1 L-48.25 -37.7 M-66.85 -0.45 Q-66.85 1.55 -65.8 2.0 L-63.5 2.45 Q-60.15 3.1 -60.15 10.45 -60.15 12.05 -61.75 12.8 -63.3 13.45 -68.45 14.35 L-69.4 14.65 -70.45 14.8 Q-69.2 13.5 -67.65 13.05 -66.35 12.65 -66.2 12.3 L-65.15 10.8 Q-64.45 9.95 -64.45 9.4 L-64.8 5.3 -68.2 4.95 Q-69.45 4.95 -69.95 5.3 L-73.65 7.9 -74.05 7.9 Q-74.2 2.45 -66.2 -2.45 -66.85 -1.45 -66.85 -0.45" fill="url(#gradient0)" fill-rule="evenodd" stroke="none"/>
  </g>
  <defs>
    <radialGradient cx="0" cy="0" gradientTransform="matrix(0.219, 0.0598, -0.0602, 0.2206, -148.95, -32.95)" gradientUnits="userSpaceOnUse" id="gradient0" r="819.2" spreadMethod="pad">
      <stop offset="0.34901960784313724" stop-color="#ca0000"/>
      <stop offset="1.0" stop-color="#ffffff"/>
    </radialGradient>
  </defs>
</svg>
