<?xml version="1.0" encoding="UTF-8" standalone="no"?>
<svg xmlns:xlink="http://www.w3.org/1999/xlink" height="123.2px" width="209.9px" xmlns="http://www.w3.org/2000/svg">
  <g transform="matrix(1.0, 0.0, 0.0, 1.0, 173.85, 80.95)">
    <path d="M2.6 -36.6 L4.15 -35.55 Q5.0 -34.6 5.0 -33.85 L3.65 -30.2 Q3.65 -27.55 5.1 -26.3 L6.5 -25.3 Q6.5 -24.8 6.1 -24.0 L5.7 -22.75 Q5.7 -21.85 6.3 -20.35 L7.2 -18.25 Q7.65 -17.25 8.9 -17.25 L10.9 -17.45 13.85 -16.15 Q17.15 -14.9 19.25 -14.9 L27.2 -15.55 Q31.95 -16.85 36.05 -17.45 35.15 -16.0 33.2 -9.8 32.1 -6.3 28.85 -5.8 25.2 -5.2 23.95 -2.35 L22.95 1.4 Q19.9 -0.1 16.05 1.75 12.55 3.95 11.85 4.0 L6.05 4.8 Q3.95 4.8 3.65 3.6 L3.7 1.2 Q3.7 -1.3 2.9 -3.35 2.2 -5.1 1.55 -5.4 -0.15 -6.15 -2.95 -7.6 L-4.65 -8.0 Q-7.55 -8.0 -9.15 -6.8 L-10.85 -4.9 Q-11.3 -4.35 -12.25 -4.3 L-13.45 -4.4 Q-15.4 -4.4 -16.95 -2.45 -19.2 0.3 -19.2 6.05 -19.2 7.55 -18.1 9.05 L-16.4 10.85 -15.45 11.05 Q-16.95 11.1 -18.75 12.4 -20.55 13.8 -20.55 15.1 -20.85 14.15 -22.25 12.85 -24.4 10.8 -27.1 10.8 -28.75 10.8 -29.9 13.2 -30.95 15.35 -30.95 17.75 L-30.45 19.9 -29.85 23.4 -29.95 24.55 -34.5 19.45 Q-36.45 17.65 -38.85 17.65 -40.25 17.65 -42.25 18.85 -44.1 19.95 -44.8 20.9 L-46.5 23.1 Q-47.4 24.05 -48.45 24.3 L-50.1 25.1 -52.5 25.75 -54.15 25.2 -57.05 24.35 -58.95 24.2 -60.2 24.05 -60.25 23.95 -59.0 22.9 Q-58.45 22.15 -58.45 20.45 -58.45 18.55 -59.1 17.8 -59.95 16.8 -62.45 16.8 -65.45 16.8 -67.5 20.3 L-66.75 21.45 Q-66.0 22.25 -66.0 23.05 L-66.2 24.0 -66.35 25.05 Q-66.1 25.1 -64.65 26.2 -63.05 27.3 -62.95 27.65 L-68.4 34.5 Q-72.3 39.1 -74.65 39.1 L-75.9 38.45 -77.9 36.55 Q-78.2 36.15 -78.5 34.4 -78.7 33.1 -79.9 32.7 -81.75 33.25 -83.75 32.1 -86.05 30.75 -86.1 30.75 -89.4 30.75 -90.1 32.6 L-90.45 37.05 -91.65 36.2 -94.05 35.2 Q-96.2 34.3 -97.3 32.7 -98.2 31.35 -98.4 31.35 -101.6 31.35 -105.7 32.4 -109.65 33.4 -110.2 34.2 L-111.95 37.25 Q-113.4 39.25 -115.45 38.55 L-115.05 40.1 -114.75 41.7 -114.8 42.25 -114.95 42.05 Q-124.25 39.65 -127.25 37.7 -129.7 36.1 -131.75 31.7 -132.3 30.3 -135.3 27.25 -139.3 23.15 -142.45 23.15 L-146.75 24.0 Q-150.85 24.9 -151.55 25.3 -152.55 25.9 -152.5 26.25 L-152.3 27.1 Q-153.05 26.95 -155.85 25.05 L-158.75 22.6 Q-161.0 19.85 -161.0 15.55 -161.0 11.8 -159.7 9.45 -158.4 7.1 -158.4 5.85 -158.4 4.5 -160.15 1.45 -161.4 -0.75 -162.8 -2.6 -164.05 -4.3 -168.65 -4.5 -169.5 -4.65 -170.05 -5.15 L-170.75 -6.15 Q-171.65 -7.35 -171.9 -9.05 -172.1 -10.15 -172.7 -10.15 L-173.35 -12.45 -173.85 -14.95 Q-173.85 -16.95 -172.55 -20.05 L-170.7 -23.7 Q-169.9 -24.8 -168.95 -27.1 -168.3 -28.5 -166.3 -30.25 -164.65 -31.65 -162.0 -37.15 -159.4 -42.6 -159.4 -44.35 -159.4 -45.95 -160.3 -48.75 L-160.05 -49.25 Q-159.75 -49.7 -159.75 -50.25 -159.75 -51.15 -160.55 -51.65 -161.4 -52.15 -161.4 -52.3 -161.4 -55.4 -156.4 -58.55 -150.95 -61.95 -150.25 -64.05 -148.85 -68.4 -145.2 -68.35 L-140.55 -67.4 Q-139.85 -67.4 -139.05 -68.75 -138.25 -70.1 -137.0 -70.1 L-135.3 -69.7 -133.6 -69.3 Q-133.25 -69.3 -129.2 -70.75 -125.0 -72.3 -124.65 -72.65 -121.9 -75.4 -115.4 -80.35 L-112.7 -80.75 -109.55 -80.95 Q-104.95 -80.95 -104.3 -80.4 -103.55 -79.8 -102.95 -79.75 L-92.95 -78.75 -92.65 -78.45 Q-96.4 -74.85 -96.4 -72.95 -96.4 -68.3 -89.95 -67.75 L-80.4 -68.1 Q-78.2 -68.1 -75.1 -67.15 L-70.4 -65.5 Q-69.55 -65.15 -66.2 -61.85 -62.8 -58.45 -62.8 -57.7 L-61.25 -55.85 Q-59.7 -53.9 -59.7 -52.7 L-60.9 -50.4 -60.4 -48.5 -59.45 -46.15 Q-58.85 -45.05 -55.5 -44.5 L-49.35 -44.05 Q-45.15 -44.05 -42.1 -46.15 -39.2 -48.15 -39.2 -50.7 -39.2 -52.1 -40.45 -52.45 L-38.05 -52.05 -33.45 -51.45 Q-34.45 -48.35 -34.45 -46.45 -34.45 -40.8 -29.6 -36.6 -25.25 -32.85 -20.7 -32.85 -17.85 -32.85 -15.4 -33.85 -14.65 -34.15 -9.25 -36.95 -4.95 -39.15 -4.45 -41.25 -4.15 -42.4 -3.95 -44.45 -3.5 -43.2 -3.6 -42.75 L-3.8 -41.7 -3.6 -40.55 -3.5 -40.0 -3.75 -39.95 -2.7 -40.2 -1.5 -40.45 Q0.15 -40.45 1.55 -39.25 3.25 -37.9 1.55 -36.45 L2.6 -36.6" fill="#a8fffd" fill-rule="evenodd" stroke="none"/>
    <path d="M1.8 -16.25 L2.8 -15.45 Q4.35 -14.6 5.15 -12.2 5.7 -10.65 9.3 -10.65 L12.05 -11.65 Q14.7 -12.7 17.1 -12.7 L20.65 -12.35 27.05 -10.95 Q25.45 -10.35 23.15 -8.25 L18.8 -3.95 Q18.95 -4.25 18.5 -4.2 L17.1 -3.65 10.75 0.4 Q10.25 0.8 9.05 1.05 L8.85 1.2 8.8 0.7 9.0 -0.7 Q9.0 -2.25 8.15 -3.5 L5.55 -7.55 Q4.85 -8.4 2.95 -8.85 0.0 -9.6 -0.5 -12.5 -0.9 -15.15 -2.45 -15.15 -4.15 -15.15 -7.65 -13.05 -10.95 -11.1 -11.4 -10.25 -12.0 -9.2 -13.95 -7.95 -15.8 -6.85 -16.5 -6.85 -24.35 -6.7 -23.9 0.05 L-23.55 4.65 Q-23.7 6.7 -25.8 6.7 -33.1 6.7 -34.75 7.45 -36.45 8.25 -36.45 11.75 L-36.2 14.05 -39.8 11.2 Q-40.9 10.35 -41.35 10.35 -42.15 10.35 -43.95 11.9 -45.95 13.65 -45.95 14.95 L-46.0 18.25 Q-46.7 20.3 -50.4 20.3 L-51.45 20.1 -51.05 17.85 Q-50.85 16.8 -51.5 14.85 L-52.2 12.65 Q-52.55 9.0 -53.2 7.4 -53.7 6.15 -53.7 4.55 -53.7 3.4 -52.4 2.3 -51.15 1.3 -47.65 -0.65 -45.9 -1.65 -45.75 -3.2 -45.65 -4.3 -43.75 -4.3 -42.9 -4.3 -42.35 -2.95 -41.8 -1.65 -40.7 -1.65 -31.3 -5.45 -30.3 -6.3 L-28.05 -8.75 Q-26.9 -10.25 -25.7 -10.95 -23.8 -12.1 -21.0 -13.35 -18.5 -14.45 -18.2 -14.7 L-20.45 -15.0 Q-25.8 -15.0 -27.5 -19.65 L-28.7 -23.0 Q-29.5 -24.55 -31.15 -24.75 L-29.0 -27.0 -27.7 -28.2 -25.9 -27.8 -24.1 -27.4 Q-15.8 -27.4 -9.8 -31.25 L-5.95 -33.95 Q-4.05 -35.15 -2.55 -35.15 -1.3 -35.15 -0.65 -34.55 -0.15 -34.1 -0.15 -33.6 L-1.1 -31.35 Q-2.1 -28.8 -2.1 -26.8 L-1.2 -25.0 Q-0.1 -22.9 0.6 -19.65 1.1 -17.3 1.8 -16.25 M-45.55 -41.3 L-45.45 -40.5 Q-44.05 -40.65 -41.6 -42.2 L-38.7 -44.3 -38.2 -45.0 Q-37.85 -39.1 -36.5 -38.85 -34.8 -39.7 -33.95 -39.7 L-32.1 -37.6 -32.35 -36.55 -33.0 -35.25 Q-35.5 -29.15 -36.95 -26.95 -37.55 -26.8 -37.8 -26.3 -38.3 -25.45 -38.3 -20.45 -38.3 -19.95 -36.4 -17.85 -34.75 -16.05 -33.05 -14.65 L-37.2 -15.0 Q-40.45 -15.0 -42.35 -15.75 -43.5 -16.25 -47.0 -19.65 L-54.35 -26.5 Q-54.9 -26.95 -59.2 -28.1 -63.25 -29.2 -64.0 -30.25 L-66.6 -34.4 Q-68.15 -36.85 -69.3 -37.15 L-69.0 -40.35 Q-69.0 -41.7 -71.0 -45.6 L-66.15 -46.25 -65.7 -46.5 -64.9 -46.75 Q-63.45 -46.75 -61.95 -45.5 L-60.25 -43.95 -54.9 -40.4 Q-53.8 -39.65 -51.35 -39.65 -49.1 -39.65 -47.75 -40.65 L-46.4 -41.65 Q-45.75 -41.65 -45.55 -41.3 M-69.9 -2.9 Q-68.0 -4.15 -62.65 -8.75 -58.25 -12.6 -56.65 -13.15 -59.15 -10.65 -60.2 -7.65 -60.95 -5.4 -60.95 -2.45 -60.95 1.15 -59.75 1.85 L-58.05 2.8 Q-57.8 3.3 -57.3 6.7 L-56.8 10.4 Q-56.8 11.95 -59.0 13.6 -60.9 15.0 -61.75 15.0 L-63.95 14.5 -66.2 14.0 Q-68.5 14.0 -70.95 16.6 L-75.05 21.7 -74.75 20.0 Q-74.0 16.7 -74.0 15.65 -74.0 15.15 -75.3 14.0 L-76.6 12.8 -76.15 8.1 Q-75.5 3.6 -74.65 1.8 -74.2 0.85 -72.9 -0.3 L-69.9 -2.9" fill="url(#gradient0)" fill-rule="evenodd" stroke="none"/>
  </g>
  <defs>
    <radialGradient cx="0" cy="0" gradientTransform="matrix(0.219, 0.0598, -0.0602, 0.2206, -148.95, -32.95)" gradientUnits="userSpaceOnUse" id="gradient0" r="819.2" spreadMethod="pad">
      <stop offset="0.34901960784313724" stop-color="#ca0000"/>
      <stop offset="1.0" stop-color="#ffffff"/>
    </radialGradient>
  </defs>
</svg>
