<?xml version="1.0" encoding="UTF-8" standalone="no"?>
<svg xmlns:xlink="http://www.w3.org/1999/xlink" height="121.6px" width="206.25px" xmlns="http://www.w3.org/2000/svg">
  <g transform="matrix(1.0, 0.0, 0.0, 1.0, 176.15, 80.35)">
    <path d="M18.55 -31.35 L17.5 -28.7 Q16.3 -26.05 15.2 -24.65 L13.4 -22.55 Q12.65 -21.65 12.65 -21.35 12.65 -20.2 15.1 -18.7 18.7 -16.5 25.1 -16.5 L27.25 -16.9 30.1 -17.45 29.2 -16.85 Q28.45 -16.4 27.2 -14.75 26.1 -13.3 25.4 -13.1 L24.3 -13.0 23.6 -13.0 Q19.55 -8.25 17.9 -7.05 16.2 -5.85 13.4 -5.85 10.25 -5.85 8.9 -7.0 L7.15 -9.6 Q4.95 -13.35 -4.35 -13.35 -6.8 -13.35 -10.45 -9.2 -14.55 -4.5 -14.55 0.4 -14.55 1.85 -13.8 3.35 L-13.1 4.75 Q-13.1 5.1 -14.95 5.95 -16.85 6.75 -16.85 7.95 L-16.75 8.75 -16.4 9.05 Q-17.0 8.65 -18.7 8.05 L-20.4 7.5 Q-24.45 7.5 -25.85 9.45 -26.25 9.95 -27.35 13.55 -27.5 14.05 -30.05 15.75 -32.45 17.35 -32.45 18.6 -32.45 19.4 -32.05 20.15 L-31.4 21.2 -31.55 21.1 -34.1 19.05 Q-35.95 17.65 -37.15 17.65 -38.6 17.65 -41.3 19.2 L-43.05 20.45 -44.45 21.4 -48.25 22.05 -54.35 22.3 -53.15 20.4 Q-52.65 19.4 -52.65 19.05 -52.65 17.7 -54.05 17.1 -55.1 16.65 -56.6 16.65 -59.6 16.65 -62.5 19.5 -65.0 22.0 -65.0 23.45 L-63.85 24.65 Q-62.55 25.8 -62.15 27.0 -62.75 27.45 -63.95 29.85 -65.15 32.2 -66.85 33.4 L-70.95 36.45 Q-72.65 37.7 -73.9 38.1 -74.7 37.85 -75.45 35.9 -76.3 33.7 -78.45 32.5 -79.85 31.7 -84.95 31.1 L-87.55 31.5 -87.6 31.45 -87.65 32.1 Q-87.65 33.25 -86.85 34.9 L-85.85 37.15 Q-86.15 37.6 -87.55 37.6 -89.65 37.6 -91.75 34.35 -93.85 31.05 -96.95 31.05 L-99.65 31.45 Q-102.0 31.95 -103.25 32.85 L-104.45 33.85 -105.2 34.4 Q-108.55 34.9 -109.3 35.45 L-110.1 36.3 -110.35 37.4 Q-110.35 38.05 -110.0 38.2 L-109.25 38.3 Q-109.95 38.8 -110.3 39.7 -110.6 40.5 -110.45 41.25 L-117.55 40.55 -122.2 39.35 -125.25 36.6 Q-127.25 34.5 -127.4 33.75 L-127.8 31.6 Q-128.6 29.65 -132.35 27.1 -135.55 24.95 -136.1 24.95 L-140.5 24.5 -143.55 24.2 Q-144.6 24.2 -147.1 25.25 -149.95 26.5 -149.95 27.6 L-149.6 29.0 -149.2 29.85 Q-150.7 29.9 -152.25 28.3 -154.2 26.25 -155.75 21.95 -156.8 19.1 -157.4 18.85 L-159.45 17.8 -159.95 18.2 -160.7 18.3 Q-160.65 17.8 -160.9 16.65 L-161.15 14.95 -160.25 11.65 Q-159.4 8.6 -159.4 6.85 -159.4 4.15 -160.8 1.35 -162.5 -2.0 -165.0 -2.0 -166.75 -2.0 -166.8 -1.35 -166.85 -0.8 -170.0 -0.95 -170.2 -2.3 -173.35 -9.3 -176.15 -15.55 -176.15 -19.45 -176.15 -20.5 -175.15 -22.15 L-172.15 -25.6 Q-170.25 -27.6 -169.5 -29.15 L-168.3 -31.65 Q-167.65 -33.15 -167.45 -34.15 -167.3 -35.15 -164.9 -36.0 -163.15 -36.65 -161.5 -38.3 L-160.05 -40.0 -158.6 -43.35 -157.5 -46.45 Q-157.5 -51.25 -157.9 -52.45 -158.25 -53.5 -159.7 -53.5 L-160.45 -53.45 Q-154.3 -59.3 -154.3 -63.35 -153.85 -63.6 -153.5 -64.65 -153.2 -65.65 -149.55 -67.55 L-145.8 -69.9 Q-144.6 -70.7 -143.0 -70.7 L-141.7 -69.35 Q-141.35 -69.5 -137.75 -72.1 -134.65 -74.4 -133.15 -74.4 -131.2 -74.4 -129.95 -72.7 -128.7 -71.0 -127.7 -71.0 -126.15 -71.0 -123.3 -73.0 -120.05 -75.5 -118.5 -76.45 -115.6 -78.95 -113.8 -79.55 L-100.45 -80.35 Q-98.0 -80.35 -95.05 -78.65 -92.15 -76.9 -88.45 -76.95 L-89.6 -76.4 Q-91.45 -75.6 -92.15 -74.5 L-92.45 -73.45 Q-92.45 -69.0 -91.4 -68.1 -90.2 -67.0 -84.4 -67.0 L-80.9 -67.55 -77.45 -68.15 -76.0 -67.85 -75.3 -67.6 -73.45 -65.85 Q-72.5 -65.0 -71.9 -65.0 L-66.6 -65.25 Q-65.8 -65.2 -64.25 -62.7 L-63.2 -60.85 Q-62.45 -59.65 -61.75 -59.2 -60.2 -58.1 -58.3 -57.8 -57.45 -57.65 -57.45 -56.2 -57.45 -55.7 -57.95 -53.95 L-58.45 -51.7 Q-58.45 -51.3 -57.25 -49.4 L-55.45 -46.45 Q-55.15 -45.75 -54.15 -44.95 -52.65 -43.7 -50.7 -43.7 -45.0 -43.7 -42.9 -42.85 -40.75 -42.05 -35.7 -42.05 -32.4 -42.05 -31.95 -44.85 -31.55 -47.65 -29.65 -47.65 -24.6 -47.65 -22.35 -46.6 L-20.9 -45.45 -21.7 -44.85 -23.9 -45.45 Q-24.0 -44.6 -24.4 -43.35 L-24.8 -41.7 -24.05 -39.6 -23.1 -37.25 Q-22.5 -35.05 -19.9 -34.95 -18.05 -34.9 -15.5 -33.0 -12.95 -31.1 -11.45 -31.1 -6.95 -31.1 -3.5 -35.45 -0.1 -39.8 4.95 -39.8 6.9 -39.8 11.8 -35.6 L12.55 -34.6 13.65 -33.6 16.65 -33.0 18.0 -32.3 Q18.55 -31.95 18.55 -31.35" fill="#a8fffd" fill-rule="evenodd" stroke="none"/>
    <path d="M1.3 -34.7 Q2.15 -35.3 4.3 -35.3 5.95 -35.3 9.85 -32.95 14.35 -30.25 14.35 -27.75 L13.3 -26.5 Q11.75 -25.1 10.55 -23.45 L9.7 -21.85 8.8 -20.45 9.6 -19.0 Q9.75 -18.75 14.35 -16.25 15.35 -15.7 17.85 -14.95 19.9 -14.15 19.9 -12.8 17.35 -9.05 15.95 -9.05 12.25 -9.05 10.0 -10.2 8.4 -11.0 7.75 -12.15 6.6 -14.15 6.55 -14.8 L6.05 -14.85 1.25 -15.2 -0.95 -15.45 Q-0.05 -16.2 1.1 -16.65 2.2 -17.55 4.05 -21.35 L1.55 -21.35 Q-2.9 -20.4 -4.9 -19.55 -8.4 -18.15 -9.15 -14.2 L-9.45 -12.75 -10.2 -11.55 Q-11.35 -10.45 -12.7 -9.75 -13.7 -9.2 -13.95 -9.2 -14.5 -9.2 -14.85 -9.5 L-15.45 -9.95 Q-16.3 -8.0 -16.9 -7.2 -17.7 -6.05 -19.15 -5.1 L-21.65 -3.6 -24.05 -2.9 Q-25.85 -2.45 -26.45 -2.0 -27.2 -1.35 -27.2 0.05 -27.2 0.95 -25.95 3.55 -25.95 6.15 -29.7 7.75 -33.45 9.3 -33.45 10.05 L-33.25 12.5 Q-33.65 12.85 -39.45 15.05 -39.3 14.65 -39.6 14.4 -39.9 14.05 -40.6 14.05 -43.4 14.05 -43.4 16.0 L-43.2 17.8 -45.95 18.05 -45.2 17.05 -45.0 16.95 -44.95 16.05 Q-44.95 15.3 -46.0 14.1 L-49.1 10.95 Q-49.85 10.15 -50.05 8.2 -50.15 6.95 -51.7 6.95 -52.95 6.95 -54.2 7.55 -55.8 8.3 -56.85 9.3 -57.65 10.1 -57.65 10.35 -57.65 11.35 -57.1 11.5 L-59.55 12.3 -62.0 11.7 -64.95 11.25 Q-66.9 11.25 -68.05 12.35 -71.0 15.1 -72.7 16.3 -72.1 15.45 -71.05 12.85 L-70.1 10.3 Q-70.1 9.8 -70.5 9.2 -70.9 8.6 -70.9 8.1 L-70.65 7.2 -70.4 6.75 -70.9 5.95 Q-71.4 5.3 -71.4 4.7 -71.4 3.05 -69.1 1.15 L-66.3 -1.5 Q-65.4 -3.65 -65.2 -5.0 L-63.2 -7.05 Q-62.3 -7.75 -60.5 -8.2 L-58.55 -8.6 Q-58.7 -7.9 -57.7 -7.7 -58.75 -7.15 -58.75 -5.85 -58.75 -3.9 -57.1 -2.45 -55.4 -0.95 -52.9 -0.95 -51.8 -0.95 -51.0 -2.05 L-49.6 -4.55 Q-47.55 -8.15 -43.2 -8.15 L-41.85 -7.7 -40.55 -7.25 -37.1 -7.7 -33.7 -8.2 -31.4 -6.95 -29.65 -7.15 -27.2 -7.55 -26.4 -8.0 -25.9 -8.4 -24.7 -9.2 -23.55 -9.5 Q-20.0 -10.25 -18.0 -12.15 -16.65 -13.45 -16.65 -14.05 -16.65 -14.75 -17.1 -14.85 L-18.5 -14.85 Q-21.2 -14.95 -24.05 -17.9 -25.0 -18.9 -25.15 -20.15 L-25.35 -21.65 -26.3 -22.55 -27.1 -23.25 Q-28.0 -24.55 -30.95 -26.45 L-30.6 -26.5 -21.2 -31.35 -18.5 -30.0 Q-15.5 -28.7 -10.95 -28.7 -10.8 -27.2 -10.2 -27.2 -7.15 -27.2 -4.3 -28.1 -2.2 -28.75 -1.3 -29.45 -0.9 -29.75 0.6 -33.2 0.6 -34.25 1.3 -34.7 M-40.65 -38.25 L-35.2 -36.75 -36.0 -36.15 Q-36.5 -35.7 -36.5 -34.3 L-36.25 -30.95 -35.85 -28.05 -35.6 -27.7 Q-35.45 -27.5 -35.45 -26.9 -35.45 -26.4 -35.9 -25.3 L-36.35 -23.7 Q-36.35 -22.3 -34.95 -20.6 L-32.85 -18.25 -36.15 -16.4 Q-37.15 -15.9 -39.3 -15.9 L-44.25 -14.85 -44.45 -15.2 -40.0 -19.35 Q-40.0 -19.75 -40.85 -21.35 -42.0 -23.45 -43.5 -24.85 -44.8 -26.05 -46.75 -27.0 L-48.8 -27.9 Q-51.9 -30.1 -52.55 -31.75 -52.8 -32.45 -54.7 -32.45 -55.9 -32.45 -59.0 -30.9 -62.1 -29.35 -62.8 -29.35 -63.15 -29.35 -63.65 -31.45 -64.15 -33.6 -65.2 -33.6 -67.85 -33.6 -69.15 -31.9 L-70.95 -29.5 -72.55 -30.45 -74.2 -31.75 -73.8 -31.6 -73.45 -32.2 -71.6 -36.95 -70.05 -39.05 Q-68.95 -40.4 -68.95 -42.0 L-69.45 -45.05 Q-70.3 -48.55 -72.0 -51.5 -64.6 -51.55 -61.15 -48.75 -58.8 -45.65 -57.7 -45.1 -55.55 -44.55 -54.5 -43.5 -52.7 -42.35 -51.5 -40.95 L-50.95 -39.95 Q-50.45 -39.15 -49.95 -39.1 L-47.4 -39.15 -46.2 -39.5 Q-44.4 -39.5 -40.65 -38.25" fill="url(#gradient0)" fill-rule="evenodd" stroke="none"/>
  </g>
  <defs>
    <radialGradient cx="0" cy="0" gradientTransform="matrix(0.219, 0.0598, -0.0602, 0.2206, -148.95, -32.95)" gradientUnits="userSpaceOnUse" id="gradient0" r="819.2" spreadMethod="pad">
      <stop offset="0.34901960784313724" stop-color="#ca0000"/>
      <stop offset="1.0" stop-color="#ffffff"/>
    </radialGradient>
  </defs>
</svg>
