<?xml version="1.0" encoding="UTF-8" standalone="no"?>
<svg xmlns:xlink="http://www.w3.org/1999/xlink" height="122.9px" width="205.4px" xmlns="http://www.w3.org/2000/svg">
  <g transform="matrix(1.0, 0.0, 0.0, 1.0, 177.75, 80.75)">
    <path d="M25.35 -26.25 L27.65 -25.65 26.8 -22.85 26.15 -20.15 Q26.15 -18.95 25.4 -17.5 24.65 -16.0 24.65 -15.15 L25.25 -14.55 Q25.85 -13.95 25.9 -13.15 25.15 -13.3 23.95 -14.2 L22.1 -15.85 21.0 -15.6 20.5 -15.35 20.4 -14.15 Q18.85 -14.9 17.65 -13.85 L16.4 -12.15 Q15.55 -12.45 14.9 -12.15 15.0 -14.25 14.4 -15.15 L12.75 -16.5 Q6.7 -20.4 5.4 -20.4 3.6 -20.4 2.05 -19.65 0.15 -18.7 -1.75 -18.4 -4.65 -17.9 -6.6 -15.35 -8.1 -13.4 -8.1 -12.15 -8.1 -10.2 -6.3 -5.2 -4.5 -0.15 -4.5 3.1 -4.5 3.7 -4.65 3.9 L-4.9 4.1 -5.55 4.25 -6.65 2.75 Q-7.35 1.85 -8.65 1.85 L-19.55 3.55 Q-20.15 3.55 -20.4 3.25 L-20.65 2.95 Q-21.65 2.95 -22.7 3.7 L-24.0 4.8 Q-24.3 5.05 -25.4 9.8 -26.5 14.45 -27.25 14.9 L-29.55 16.35 -32.75 18.05 Q-34.35 18.8 -36.75 19.25 L-39.2 19.65 -40.05 20.0 -44.3 21.8 -46.3 22.4 Q-46.85 22.4 -48.95 21.2 -51.15 19.95 -51.5 19.9 -50.9 18.15 -49.35 16.75 -48.05 15.6 -48.05 14.85 -48.05 13.2 -49.45 12.0 -50.85 10.8 -52.7 10.8 L-59.95 15.35 -62.5 14.95 Q-64.9 15.0 -64.9 17.15 -64.9 17.65 -64.5 17.9 -64.1 18.15 -64.1 18.65 -64.1 20.5 -64.75 22.15 -64.6 23.3 -60.45 25.05 -62.75 28.95 -66.4 32.45 -69.7 35.65 -70.85 35.65 -72.25 35.65 -72.85 34.9 L-74.05 33.45 Q-75.0 32.75 -75.35 31.5 -76.1 30.65 -80.2 30.65 -82.4 30.65 -83.05 31.2 -83.85 31.9 -83.85 34.3 -83.8 37.95 -84.25 37.15 -86.95 36.8 -87.8 35.85 L-88.5 34.1 Q-89.25 31.9 -96.95 31.9 -99.5 31.9 -101.8 33.4 -105.4 35.7 -107.5 36.55 L-105.95 39.55 -109.8 41.25 Q-112.1 42.15 -115.15 42.15 -116.5 42.15 -117.25 41.25 -118.55 39.65 -121.95 37.95 -123.0 37.45 -124.1 35.8 L-125.45 33.05 Q-126.1 30.9 -128.8 28.55 -132.55 25.3 -137.5 25.3 L-140.0 25.8 -142.5 26.55 -144.75 27.1 -146.55 27.55 Q-147.0 27.8 -147.25 28.95 L-147.5 30.55 -152.05 28.6 Q-155.95 26.7 -156.25 24.65 L-156.2 17.95 Q-156.15 15.3 -158.5 15.3 -161.3 14.25 -161.3 12.9 L-160.9 10.6 -160.55 8.3 Q-160.55 7.9 -161.7 5.0 L-162.95 2.0 Q-164.7 -0.55 -166.05 -0.55 L-168.95 -0.15 -170.95 -0.45 Q-171.8 -0.8 -171.95 -1.85 -172.25 -4.15 -173.9 -6.25 L-175.5 -8.45 -175.4 -9.25 -176.6 -11.05 -177.3 -13.95 -177.75 -16.95 Q-177.75 -21.35 -176.65 -24.05 L-175.05 -27.0 -173.5 -28.3 Q-172.2 -29.05 -171.85 -29.9 -171.45 -30.75 -171.25 -33.35 -171.2 -33.95 -167.95 -34.75 -164.0 -35.75 -159.6 -41.9 -155.8 -47.2 -155.8 -49.2 -155.8 -50.2 -156.75 -59.5 -156.75 -60.25 -154.8 -62.95 -152.35 -66.4 -148.75 -69.75 L-145.45 -72.35 Q-143.75 -73.45 -142.95 -73.45 L-137.35 -72.95 -133.8 -72.5 -129.85 -73.1 Q-127.2 -73.8 -120.55 -76.15 -118.95 -76.7 -115.65 -78.95 -112.95 -80.75 -111.35 -80.75 L-108.85 -80.4 -106.4 -80.05 Q-101.1 -79.95 -97.9 -78.65 L-94.25 -77.7 -90.9 -76.8 -88.35 -76.1 Q-86.65 -75.75 -85.95 -74.95 -87.75 -74.15 -87.75 -71.6 -87.75 -67.6 -81.4 -66.0 L-73.0 -65.2 -65.7 -64.35 -56.7 -59.35 Q-52.1 -56.7 -52.1 -55.2 -52.1 -54.85 -53.25 -53.3 -54.4 -51.7 -54.4 -50.2 -54.4 -48.0 -51.05 -46.1 L-47.35 -44.45 -43.95 -41.15 Q-40.4 -38.15 -36.9 -38.15 L-35.8 -38.3 -35.05 -38.5 -28.6 -38.85 Q-24.2 -39.0 -22.6 -40.15 -21.65 -40.8 -20.95 -42.0 -20.3 -43.1 -20.3 -43.85 L-21.1 -47.65 Q-18.15 -47.6 -16.5 -46.55 L-12.6 -44.15 Q-14.9 -43.25 -14.95 -41.6 L-13.5 -36.3 Q-13.5 -34.95 -11.7 -32.05 -9.35 -28.2 -6.1 -28.2 -4.6 -28.2 -2.05 -29.75 0.5 -31.3 2.1 -33.2 3.85 -35.3 5.85 -36.6 8.2 -38.15 10.15 -38.15 14.55 -38.15 17.15 -34.55 L19.5 -31.0 21.7 -30.55 Q22.5 -30.0 23.95 -27.85 24.9 -26.45 25.35 -26.25" fill="#a8fffd" fill-rule="evenodd" stroke="none"/>
    <path d="M-64.15 -1.35 Q-62.95 -6.35 -61.3 -7.5 L-59.3 -6.7 -57.85 -6.4 Q-56.9 -6.4 -53.25 -7.65 -49.35 -9.0 -48.05 -9.95 L-44.95 -12.8 Q-42.25 -15.05 -39.7 -15.05 -38.7 -15.05 -37.75 -14.2 -36.65 -13.25 -33.45 -12.8 L-30.6 -12.1 -28.45 -11.7 -23.7 -11.8 Q-26.95 -9.8 -27.75 -9.0 -30.1 -6.6 -30.1 -2.7 -30.1 6.65 -30.6 7.45 -33.45 10.1 -38.2 16.55 L-38.2 16.5 -38.3 16.0 -38.35 14.35 -39.05 14.1 -39.95 14.0 Q-40.85 14.0 -41.65 14.8 L-42.45 15.8 -42.7 15.55 Q-42.55 14.9 -42.75 13.75 -43.0 12.45 -43.5 11.6 L-44.45 11.0 -45.4 10.8 Q-46.15 10.45 -47.15 8.9 -48.0 7.55 -48.75 7.55 L-51.15 7.8 -53.55 8.0 Q-54.5 7.9 -55.05 8.5 L-55.8 9.55 -56.6 8.85 Q-57.1 8.3 -58.3 8.3 -59.55 8.3 -60.95 8.95 L-62.95 9.6 Q-64.8 9.6 -66.25 7.2 -68.35 3.8 -68.95 3.3 -65.2 2.75 -64.15 -1.35 M-76.6 -58.2 L-78.15 -58.45 -82.45 -59.5 -77.65 -60.45 -72.55 -61.15 Q-69.5 -61.15 -63.25 -58.85 -57.05 -56.55 -56.2 -55.25 L-58.7 -53.35 Q-59.8 -52.35 -59.8 -51.15 -59.8 -50.9 -58.8 -49.6 L-56.15 -46.55 Q-53.05 -43.45 -52.4 -43.15 L-50.7 -42.45 Q-49.65 -41.95 -49.65 -41.0 -49.65 -40.5 -50.1 -39.9 -50.6 -39.35 -50.6 -38.85 -50.6 -37.9 -45.25 -35.55 -38.8 -32.7 -35.9 -29.5 -37.75 -29.35 -40.65 -30.5 -43.75 -31.75 -45.45 -31.75 L-46.25 -31.6 -46.5 -31.35 -47.6 -30.0 Q-48.2 -29.4 -49.7 -29.3 -55.0 -28.9 -57.25 -28.15 -59.05 -27.55 -60.2 -27.55 -60.6 -27.55 -61.8 -28.15 -63.0 -28.75 -63.95 -28.7 -66.0 -28.6 -66.6 -29.15 -67.25 -29.75 -68.7 -29.75 -70.75 -29.75 -72.35 -28.35 -74.0 -26.9 -73.95 -24.95 -74.8 -25.25 -76.1 -26.35 L-77.7 -27.45 Q-74.05 -31.9 -72.45 -37.5 L-73.75 -41.05 -73.65 -42.0 Q-70.15 -41.15 -67.85 -43.8 -66.15 -45.75 -66.15 -47.15 L-66.95 -49.75 Q-68.1 -52.3 -69.9 -52.85 L-71.8 -53.2 Q-72.9 -53.4 -73.4 -53.8 -74.0 -54.85 -74.45 -56.65 -75.0 -58.0 -76.6 -58.2 M6.75 -32.25 L8.8 -32.9 Q15.55 -32.9 18.15 -29.6 19.45 -27.9 19.95 -25.7 L20.85 -24.9 Q21.4 -24.4 21.4 -23.95 21.4 -23.15 20.85 -22.0 L20.25 -20.7 20.5 -19.55 20.8 -18.95 19.3 -18.8 Q17.55 -18.8 16.4 -19.85 15.05 -21.1 14.05 -21.35 L12.1 -21.4 7.85 -21.65 2.25 -22.65 -1.45 -23.1 -3.85 -22.75 -6.35 -22.0 Q-10.0 -20.05 -10.7 -17.7 L-10.35 -13.0 -11.1 -13.2 Q-13.9 -15.7 -15.35 -16.4 -18.1 -17.8 -22.7 -17.8 -26.4 -17.8 -27.55 -20.05 L-32.45 -30.75 -31.65 -30.05 Q-31.2 -29.75 -30.55 -29.75 -27.25 -29.75 -24.25 -32.5 -22.05 -34.55 -21.2 -36.5 -20.4 -33.45 -17.4 -31.3 -13.8 -28.75 -13.25 -27.9 -12.05 -26.05 -10.95 -25.6 L-7.0 -25.25 Q0.05 -25.25 2.8 -28.0 3.2 -28.4 3.4 -29.3 L3.85 -30.75 Q4.05 -31.05 5.2 -31.5 L6.75 -32.25" fill="url(#gradient0)" fill-rule="evenodd" stroke="none"/>
  </g>
  <defs>
    <radialGradient cx="0" cy="0" gradientTransform="matrix(0.219, 0.0598, -0.0602, 0.2206, -148.95, -32.95)" gradientUnits="userSpaceOnUse" id="gradient0" r="819.2" spreadMethod="pad">
      <stop offset="0.34901960784313724" stop-color="#ca0000"/>
      <stop offset="1.0" stop-color="#ffffff"/>
    </radialGradient>
  </defs>
</svg>
