<?xml version="1.0" encoding="UTF-8" standalone="no"?>
<svg xmlns:xlink="http://www.w3.org/1999/xlink" height="121.65px" width="222.2px" xmlns="http://www.w3.org/2000/svg">
  <g transform="matrix(1.0, 0.0, 0.0, 1.0, 177.2, 78.95)">
    <path d="M22.5 -29.7 Q25.7 -27.7 27.6 -26.95 L26.6 -25.6 Q26.0 -24.8 26.0 -23.8 L26.25 -19.7 Q27.1 -19.95 30.6 -17.3 34.4 -14.45 36.45 -14.45 L40.4 -14.45 Q42.95 -14.25 45.0 -13.0 41.15 -12.4 39.5 -10.55 38.55 -9.45 37.8 -6.85 37.1 -4.4 36.1 -3.45 34.45 -2.0 30.6 -2.0 28.95 -2.0 28.3 -2.85 L27.1 -3.75 Q25.6 -3.75 24.95 -2.55 24.45 -1.7 24.6 -0.95 22.95 -0.9 22.0 -1.55 21.2 -2.1 21.2 -2.9 21.2 -3.6 22.3 -6.45 23.35 -9.3 23.35 -11.1 23.35 -13.6 19.3 -15.6 15.75 -17.35 12.85 -17.35 10.1 -17.25 7.45 -16.1 2.15 -13.8 2.15 -8.45 2.15 -6.8 2.7 -5.8 3.3 -4.65 5.0 -3.2 L7.45 -1.45 Q8.0 -1.1 8.6 0.05 L8.35 -0.1 Q5.65 -0.9 4.15 -0.1 3.25 0.35 2.05 2.1 -0.55 6.1 -5.25 6.1 L-7.85 5.85 -10.75 5.15 -12.65 4.8 -15.45 4.75 Q-17.65 5.05 -20.4 7.05 -23.7 9.45 -23.85 11.4 -24.0 13.65 -24.9 14.55 -25.1 12.8 -26.4 12.8 -27.45 12.8 -29.05 15.5 -30.9 18.6 -32.95 19.5 L-39.85 20.7 Q-46.2 21.8 -47.2 22.65 L-46.35 21.55 -44.85 19.3 Q-43.85 17.9 -43.85 16.65 -43.85 15.45 -45.6 13.55 -47.5 11.55 -49.0 11.55 L-50.25 11.75 Q-50.6 11.85 -51.95 12.5 L-52.85 12.95 -54.45 13.4 -55.85 13.05 -57.25 12.65 Q-58.3 12.65 -59.0 13.35 -59.95 14.25 -59.95 16.05 L-58.25 18.65 -60.7 20.3 Q-60.45 20.35 -60.3 20.85 -60.1 21.3 -60.2 21.55 -61.35 22.25 -62.8 22.7 -63.7 23.1 -63.7 24.3 -63.7 25.25 -61.95 25.8 -62.25 28.4 -65.2 30.6 -67.9 32.6 -70.25 32.6 L-73.25 30.75 -75.45 30.4 -77.95 30.25 -79.7 30.6 Q-80.85 31.0 -80.85 31.5 L-80.0 33.0 -78.7 34.55 Q-83.45 34.75 -86.05 32.95 -88.75 31.1 -89.3 31.1 L-93.05 31.5 -97.7 32.3 -99.55 33.85 -101.2 35.25 Q-102.35 35.6 -102.7 35.9 L-102.9 36.45 Q-102.9 38.55 -101.95 39.35 L-99.95 40.05 Q-106.25 42.7 -108.75 42.7 -113.75 42.7 -114.85 39.3 -115.45 37.55 -116.15 36.95 -117.3 35.9 -120.2 35.9 -120.7 35.9 -121.35 36.35 -122.0 36.8 -122.5 36.8 -125.95 36.8 -129.4 32.0 -132.9 27.2 -133.45 27.2 -134.5 27.2 -135.5 28.15 -136.55 29.05 -137.2 29.05 L-143.45 28.45 Q-146.1 28.3 -146.1 30.3 L-145.75 31.55 -145.15 32.55 Q-147.45 32.35 -149.3 30.85 L-152.75 27.35 -154.2 26.0 -155.1 24.8 -155.35 20.4 Q-155.4 19.1 -155.55 18.9 -156.35 17.85 -157.2 17.15 L-158.0 16.6 -159.4 16.6 -160.35 16.3 Q-159.35 12.95 -159.35 11.75 -159.35 8.4 -161.2 5.3 -163.5 1.5 -167.35 1.5 L-168.75 1.75 -169.75 2.0 Q-170.4 0.85 -170.7 -2.45 -170.75 -3.25 -173.75 -6.15 -174.0 -6.45 -174.35 -10.95 -174.8 -15.65 -175.0 -16.35 -175.3 -17.45 -176.35 -18.7 -177.2 -19.75 -177.2 -20.55 L-175.9 -24.05 Q-174.6 -27.35 -174.8 -30.4 -172.5 -30.35 -172.15 -31.1 -171.9 -31.65 -171.75 -33.45 -170.65 -36.8 -169.35 -38.75 -168.4 -40.2 -167.9 -40.2 L-165.95 -39.9 Q-165.75 -39.85 -164.55 -40.6 -163.35 -41.35 -161.45 -43.3 L-157.75 -46.8 Q-157.15 -47.25 -156.4 -49.1 -155.75 -50.9 -155.7 -51.95 L-155.3 -53.95 -154.9 -55.7 Q-154.9 -56.25 -155.4 -57.75 -155.6 -59.2 -154.0 -60.45 -149.95 -63.65 -148.3 -66.55 L-146.65 -70.15 Q-145.55 -71.95 -143.25 -72.9 -140.5 -73.8 -139.05 -74.6 -136.25 -76.15 -135.85 -76.15 -130.6 -76.15 -128.0 -76.95 -128.8 -75.45 -127.55 -74.1 -125.95 -72.45 -121.85 -72.45 L-116.05 -73.6 Q-113.65 -74.25 -112.7 -74.85 L-111.05 -76.35 -109.75 -77.45 -106.65 -77.95 Q-105.2 -78.05 -103.5 -78.95 L-102.65 -78.1 -101.95 -76.95 -91.55 -76.35 Q-90.15 -75.6 -87.55 -74.85 -86.7 -74.6 -83.8 -72.6 -81.55 -71.1 -79.95 -71.45 -81.0 -70.5 -81.0 -69.15 -81.0 -67.7 -79.95 -66.45 -78.65 -64.9 -76.35 -64.9 L-72.7 -64.7 -66.65 -63.25 Q-65.85 -63.05 -62.1 -61.2 -59.35 -59.85 -56.0 -59.65 -56.35 -57.55 -54.6 -56.5 -52.25 -55.1 -51.95 -54.5 L-51.0 -52.2 Q-50.6 -51.15 -49.9 -50.7 L-47.8 -48.95 Q-48.2 -48.5 -48.9 -48.35 -49.45 -48.05 -49.45 -46.4 -49.45 -44.8 -47.45 -42.85 -44.4 -39.85 -38.55 -39.85 L-28.9 -40.2 Q-27.8 -40.45 -26.65 -41.65 -26.15 -42.2 -25.9 -43.85 L-25.5 -45.95 -24.4 -47.5 Q-21.1 -47.5 -18.45 -46.35 -14.8 -44.75 -14.8 -41.55 -14.8 -41.05 -15.3 -40.35 L-15.8 -39.2 Q-15.8 -36.2 -13.35 -31.5 -10.35 -25.7 -6.4 -25.7 -3.65 -25.7 -2.3 -26.85 L3.1 -32.25 Q7.0 -35.85 9.85 -35.85 13.25 -35.85 15.75 -34.8 17.9 -33.95 18.7 -32.6 19.2 -31.75 22.5 -29.7" fill="#a8fffd" fill-rule="evenodd" stroke="none"/>
    <path d="M-13.5 -27.2 L-11.5 -25.35 Q-10.5 -24.2 -10.3 -22.45 L-9.55 -22.2 -9.0 -22.5 -8.35 -22.8 Q-7.8 -22.85 -7.05 -22.3 L-6.2 -21.75 Q-4.15 -21.75 -2.2 -23.2 L-2.6 -22.4 Q-6.75 -16.9 -9.8 -15.1 -11.05 -14.35 -11.75 -10.9 -14.75 -10.8 -16.1 -12.85 -17.65 -15.25 -20.55 -15.75 -22.55 -16.1 -24.55 -18.2 -26.3 -20.05 -26.95 -19.95 -26.05 -21.4 -26.05 -22.35 -26.05 -23.2 -27.75 -24.35 -29.55 -25.6 -29.95 -28.2 -26.9 -27.8 -23.9 -30.7 -22.2 -32.4 -21.2 -34.25 L-17.45 -29.9 Q-14.2 -27.85 -13.5 -27.2 M-70.95 -56.25 Q-71.4 -56.6 -71.5 -57.85 -71.55 -58.85 -74.45 -60.0 L-73.75 -60.2 Q-66.35 -60.9 -61.0 -57.8 -56.15 -54.05 -53.95 -53.0 L-54.75 -52.8 Q-57.05 -52.3 -57.1 -50.45 -57.1 -49.8 -56.5 -49.2 -55.45 -48.05 -54.15 -45.25 L-51.65 -44.1 Q-49.25 -43.05 -48.9 -42.5 L-48.0 -40.4 Q-47.75 -39.7 -47.2 -39.7 L-46.7 -39.6 Q-47.25 -36.5 -47.05 -36.1 L-42.7 -35.65 Q-38.25 -35.3 -37.3 -33.85 -36.45 -32.5 -35.05 -32.5 -32.45 -32.5 -30.95 -33.85 -30.15 -34.6 -29.05 -36.05 L-27.1 -36.55 Q-25.45 -37.0 -23.7 -39.25 -23.85 -35.3 -24.55 -34.2 L-26.9 -32.5 Q-27.55 -32.05 -29.8 -31.05 -31.7 -30.0 -31.7 -28.85 L-31.5 -27.1 -31.3 -26.05 -31.45 -26.05 -39.5 -26.6 -44.7 -26.9 -46.8 -26.05 Q-47.7 -26.6 -48.95 -27.0 L-50.5 -27.4 Q-53.15 -27.4 -53.75 -26.3 -54.35 -25.2 -55.7 -25.2 -56.1 -26.35 -57.1 -27.1 L-59.2 -28.65 -61.95 -29.05 Q-64.65 -29.4 -65.3 -29.95 -67.65 -31.95 -68.25 -31.95 L-69.9 -31.7 -71.45 -31.5 -70.5 -32.15 Q-68.4 -33.5 -68.4 -37.0 -68.4 -38.95 -69.05 -40.05 L-70.2 -42.0 -65.95 -42.4 Q-65.05 -42.95 -65.05 -45.85 -65.05 -48.0 -67.15 -50.4 L-69.25 -53.1 -68.95 -54.05 -68.65 -54.5 -69.75 -55.35 -70.95 -56.25 M28.5 -4.65 L27.55 -5.4 24.3 -5.2 25.1 -7.25 Q25.4 -7.75 25.4 -8.6 25.15 -11.45 25.05 -15.95 26.95 -14.65 32.7 -11.95 L34.9 -12.3 Q36.8 -12.5 38.05 -11.7 35.35 -9.3 33.45 -5.75 32.5 -3.9 29.8 -3.9 29.35 -3.9 28.5 -4.65 M5.65 -19.6 L7.55 -19.2 Q-0.65 -12.2 -0.65 -7.9 -0.65 -6.1 0.25 -4.25 L1.95 -1.4 Q0.0 -1.4 -2.05 0.35 L-4.35 2.6 Q-5.95 3.85 -9.3 3.9 L-14.95 4.05 Q-15.05 3.45 -16.3 2.85 L-17.55 1.1 Q-18.6 -0.05 -20.35 -0.05 -22.2 -0.05 -23.2 0.65 -24.15 1.3 -25.35 3.35 -27.1 6.35 -26.8 8.1 L-26.1 10.3 -30.25 11.7 -31.15 13.0 Q-31.85 13.95 -32.45 13.95 L-33.85 13.85 -35.2 14.15 Q-36.4 14.85 -38.7 15.55 -37.15 12.65 -39.5 12.15 L-44.05 10.95 -46.25 8.95 Q-48.2 7.2 -48.95 7.05 L-48.3 6.65 -45.7 5.15 Q-44.8 4.55 -44.8 4.1 -44.8 1.65 -46.05 1.4 L-48.3 1.05 -49.95 0.6 Q-52.2 -1.65 -53.25 -2.15 L-56.15 -2.75 -59.4 -3.6 -55.95 -7.1 Q-52.35 -9.85 -50.3 -10.25 L-45.45 -11.25 -41.4 -12.6 -40.25 -12.15 -39.1 -11.75 Q-35.25 -11.75 -34.8 -13.95 -34.3 -16.15 -32.45 -16.15 L-27.6 -14.35 Q-22.95 -12.6 -21.1 -12.6 L-19.45 -12.7 -18.45 -12.95 -18.55 -12.45 -19.65 -11.5 Q-20.5 -10.95 -20.5 -10.45 L-20.4 -9.75 -20.3 -9.85 Q-17.65 -8.55 -15.8 -7.75 -12.2 -6.15 -9.8 -6.15 -6.35 -6.15 -4.05 -7.85 -2.2 -9.25 -2.2 -10.45 L-2.4 -12.25 Q-6.4 -12.3 -6.4 -13.7 -6.4 -15.15 -2.55 -17.55 1.25 -19.9 3.35 -19.9 L5.65 -19.6 M3.35 -29.2 Q4.35 -30.6 7.7 -31.4 L12.4 -31.95 Q14.6 -31.95 15.9 -31.35 L17.3 -30.6 Q20.25 -29.9 20.4 -28.8 20.15 -26.45 20.15 -23.7 20.15 -22.3 20.85 -21.45 21.7 -20.45 21.85 -19.2 21.8 -18.75 21.4 -18.75 L21.0 -18.9 Q19.1 -19.7 18.05 -19.7 L17.2 -19.2 Q16.85 -18.75 16.35 -18.75 L12.55 -19.05 Q12.1 -19.15 10.4 -20.05 8.9 -20.8 8.2 -20.8 L-0.75 -21.45 Q0.55 -21.85 1.0 -23.8 1.65 -26.85 3.35 -29.2" fill="url(#gradient0)" fill-rule="evenodd" stroke="none"/>
  </g>
  <defs>
    <radialGradient cx="0" cy="0" gradientTransform="matrix(0.219, 0.0598, -0.0602, 0.2206, -148.95, -32.95)" gradientUnits="userSpaceOnUse" id="gradient0" r="819.2" spreadMethod="pad">
      <stop offset="0.34901960784313724" stop-color="#ca0000"/>
      <stop offset="1.0" stop-color="#ffffff"/>
    </radialGradient>
  </defs>
</svg>
