<?xml version="1.0" encoding="UTF-8" standalone="no"?>
<svg xmlns:xlink="http://www.w3.org/1999/xlink" height="120.05px" width="232.5px" xmlns="http://www.w3.org/2000/svg">
  <g transform="matrix(1.0, 0.0, 0.0, 1.0, 176.45, 77.95)">
    <path d="M22.1 -30.75 L23.75 -30.85 23.6 -24.9 Q23.6 -23.75 24.15 -22.35 24.9 -20.55 26.05 -20.45 L27.2 -20.4 28.5 -20.05 Q29.25 -19.65 30.3 -19.4 L31.35 -19.2 33.4 -19.55 36.55 -19.95 Q36.25 -19.95 36.1 -18.95 L36.05 -17.95 38.35 -17.95 38.25 -17.5 Q38.25 -16.2 41.55 -16.2 L46.5 -15.85 51.5 -13.0 Q55.05 -10.95 55.95 -10.95 55.0 -10.35 54.4 -9.45 53.7 -8.5 53.7 -7.6 L53.8 -6.8 53.9 -6.5 56.05 -6.45 55.65 -5.75 54.95 -5.2 Q50.05 -3.55 41.0 0.9 35.0 3.8 31.05 3.8 27.45 3.8 26.9 0.6 L26.55 -2.55 Q26.25 -4.55 25.5 -5.95 L24.0 -7.6 22.65 -8.5 19.95 -11.55 Q18.3 -13.35 16.05 -13.35 13.7 -13.35 11.05 -12.55 L5.55 -10.5 Q3.35 -9.6 2.8 -7.6 2.4 -4.85 1.55 -2.95 0.2 -3.8 -0.95 -3.8 -2.0 -3.8 -3.3 -2.8 -5.3 -1.3 -5.3 1.55 -5.3 2.95 -4.55 3.9 L-2.15 6.45 Q-0.1 8.7 0.35 10.3 L0.55 12.0 -6.35 9.0 -8.2 9.25 Q-7.25 7.4 -8.6 6.8 L-10.7 6.55 Q-10.75 4.55 -10.9 4.0 L-11.95 3.9 Q-13.15 3.9 -16.85 5.0 -17.9 5.2 -19.8 6.65 -21.7 8.05 -22.1 9.0 L-22.2 13.95 Q-22.65 18.35 -25.0 19.45 L-25.5 19.35 -25.7 18.9 Q-25.9 18.2 -26.45 17.35 L-26.5 16.05 Q-26.55 15.1 -27.05 15.0 L-27.7 14.95 Q-29.1 14.95 -30.2 15.95 L-34.05 19.95 -37.7 22.1 -41.95 24.55 -41.3 23.65 Q-40.4 22.7 -40.0 20.6 L-39.8 18.45 Q-39.8 16.7 -40.45 15.3 -41.3 13.45 -43.0 12.7 L-44.2 12.15 -45.5 11.65 -47.6 11.9 -49.95 12.1 Q-51.85 11.9 -53.75 10.8 -54.85 10.15 -56.55 9.65 L-58.95 9.15 Q-61.8 11.45 -61.8 13.6 -61.8 14.8 -60.95 16.1 L-59.25 18.25 -56.35 21.15 Q-58.0 22.85 -59.75 23.3 -61.25 23.7 -63.15 26.1 L-65.45 29.35 Q-66.2 30.3 -67.4 30.3 -69.85 30.3 -71.95 29.55 -75.1 28.45 -75.45 26.05 -76.85 27.8 -78.0 28.1 -78.55 28.25 -78.55 29.25 -78.15 32.0 -76.95 33.05 -80.8 32.8 -83.8 31.25 -86.65 29.75 -86.85 29.75 -90.3 29.75 -94.7 32.85 -99.05 35.95 -99.05 38.2 L-97.65 40.0 -102.3 41.2 -105.75 42.1 Q-113.2 42.1 -115.15 37.6 -116.2 35.15 -116.8 34.5 -118.2 33.1 -121.4 33.1 L-124.95 34.2 Q-127.1 34.2 -130.85 32.5 -134.65 30.75 -137.95 30.75 -141.4 30.75 -142.0 31.4 L-142.5 34.05 Q-144.7 33.05 -148.0 30.2 -152.15 26.65 -152.5 24.25 -152.7 22.5 -153.35 21.35 L-154.4 19.95 Q-155.4 18.5 -157.15 17.85 L-159.65 17.0 -158.8 15.0 Q-158.4 14.2 -158.4 11.45 -158.4 9.1 -160.65 5.7 -163.05 2.15 -165.15 2.15 L-167.35 2.6 -168.7 2.75 Q-169.7 2.3 -170.75 -4.45 L-171.25 -5.4 -171.7 -6.35 -171.25 -11.0 Q-170.95 -13.95 -171.65 -15.9 -172.7 -18.85 -174.85 -21.5 -176.45 -23.55 -176.45 -25.1 -176.45 -27.45 -167.15 -42.35 -163.0 -42.35 -161.0 -43.95 -156.95 -47.25 -152.45 -59.1 -151.85 -60.7 -150.1 -62.4 L-148.05 -64.5 Q-147.7 -65.05 -147.15 -67.35 -146.6 -69.45 -145.8 -70.3 -143.25 -72.95 -140.75 -73.55 -137.4 -74.4 -135.6 -75.55 L-133.05 -77.2 Q-131.75 -77.95 -130.45 -77.95 L-122.45 -77.45 Q-122.9 -74.2 -119.25 -72.4 -115.7 -70.65 -109.1 -70.65 L-106.95 -70.95 Q-99.3 -74.75 -98.15 -75.45 -96.6 -76.4 -95.65 -77.45 -95.2 -77.95 -94.45 -77.95 -93.25 -77.95 -82.85 -74.0 -72.7 -70.15 -71.6 -69.4 -72.5 -69.45 -73.4 -68.95 -74.75 -68.2 -74.75 -66.55 -74.75 -64.55 -61.85 -59.35 -60.5 -59.35 -56.5 -60.5 L-56.45 -56.75 Q-56.25 -56.05 -55.1 -55.3 -46.35 -49.35 -46.35 -46.75 L-46.8 -44.6 -47.3 -42.45 Q-47.3 -41.7 -44.95 -40.5 -41.75 -38.85 -36.85 -38.85 -32.85 -38.85 -29.95 -40.4 -27.2 -41.9 -27.2 -43.7 -27.2 -45.3 -28.45 -46.95 -29.6 -48.5 -30.4 -48.5 -31.4 -48.5 -31.05 -48.8 L-30.45 -49.95 -27.35 -49.6 -26.9 -49.25 -27.45 -47.45 Q-23.7 -47.9 -20.8 -46.75 -18.8 -45.95 -18.5 -45.35 L-16.15 -40.35 -18.0 -38.4 Q-19.85 -36.25 -19.85 -34.95 -19.85 -33.7 -18.5 -32.6 -16.5 -31.0 -15.8 -30.0 L-13.0 -27.3 Q-10.45 -24.35 -8.3 -24.35 -4.0 -24.35 -2.35 -26.75 -1.5 -28.0 -1.4 -29.4 0.6 -31.75 3.8 -33.7 6.7 -35.45 8.05 -35.45 L14.65 -34.6 18.65 -34.35 Q20.2 -34.25 20.85 -33.3 20.2 -31.55 21.05 -31.0 L22.1 -30.75" fill="#a8fffd" fill-rule="evenodd" stroke="none"/>
    <path d="M-60.2 3.3 L-60.35 4.15 Q-62.05 6.35 -64.2 7.55 L-68.1 9.6 Q-66.65 8.75 -65.75 7.0 -65.15 6.1 -62.8 5.15 -60.65 4.3 -60.2 3.3 M-16.95 -27.95 L-15.25 -26.7 -12.75 -24.15 -10.15 -21.45 Q-8.55 -19.8 -7.4 -19.8 -9.05 -18.1 -10.95 -11.95 L-11.1 -12.1 Q-12.2 -16.0 -17.35 -16.75 -23.3 -17.7 -24.8 -19.6 L-23.7 -20.55 Q-23.1 -21.2 -23.1 -22.65 -23.1 -24.8 -25.35 -25.95 L-28.0 -27.1 Q-26.3 -26.5 -24.15 -28.1 -22.25 -29.6 -21.9 -31.0 -22.85 -32.8 -20.4 -30.8 L-16.95 -27.95 M-54.9 -7.1 Q-56.45 -5.85 -57.35 -4.4 -55.85 -8.5 -54.0 -9.35 L-43.95 -11.95 Q-51.9 -9.6 -54.9 -7.1 M-66.7 -52.2 Q-67.95 -54.4 -69.9 -56.55 L-57.6 -54.55 Q-56.2 -54.15 -55.8 -53.35 L-53.95 -49.8 Q-53.05 -48.75 -51.25 -48.15 -49.4 -47.5 -49.05 -47.15 L-49.85 -44.9 Q-50.65 -42.55 -50.65 -41.0 -50.65 -38.8 -48.9 -37.95 -47.75 -37.4 -44.55 -37.0 -37.1 -36.15 -34.25 -32.8 -34.45 -33.1 -34.0 -33.25 -33.1 -33.6 -32.8 -34.15 L-32.25 -35.7 -31.65 -37.2 Q-30.95 -37.9 -27.5 -38.65 -25.0 -39.15 -24.7 -42.0 L-24.45 -41.15 -24.35 -40.25 -24.4 -36.7 Q-24.6 -33.65 -25.65 -32.9 L-29.9 -30.15 Q-33.0 -28.1 -33.0 -27.45 L-32.6 -26.05 -31.95 -24.7 -34.45 -24.65 -45.6 -24.6 -48.95 -23.95 Q-49.7 -26.95 -52.3 -28.4 -53.9 -29.25 -57.65 -30.05 -61.3 -30.85 -62.7 -31.7 -65.1 -33.1 -65.45 -36.0 -64.85 -35.85 -64.95 -36.0 L-66.95 -38.25 -66.5 -38.55 -66.2 -38.65 Q-63.8 -39.1 -61.9 -40.55 -60.15 -41.85 -60.15 -42.85 L-60.35 -43.15 -61.8 -45.55 Q-62.85 -47.75 -64.0 -48.75 L-65.45 -50.0 -66.7 -52.2 M23.4 -17.1 L23.7 -17.05 Q36.55 -16.25 38.15 -13.15 38.85 -11.85 40.05 -11.55 42.1 -11.0 48.55 -11.45 46.65 -8.45 39.95 -8.45 L35.9 -8.05 Q34.2 -7.4 34.2 -5.3 L34.65 -1.65 Q34.65 0.4 32.35 0.4 30.7 0.4 30.05 -0.95 29.75 -1.55 29.2 -4.2 28.15 -9.55 24.0 -11.45 L24.05 -11.45 Q25.25 -11.3 25.85 -12.0 26.3 -12.55 26.3 -13.45 26.3 -14.25 25.2 -15.4 L23.4 -17.1 M2.55 -28.95 Q4.95 -32.4 9.6 -32.4 14.0 -32.4 17.6 -31.0 L18.3 -31.25 Q17.95 -29.5 19.15 -28.6 20.45 -27.55 20.55 -26.65 20.8 -24.05 19.2 -21.35 L17.55 -18.4 22.35 -15.5 22.1 -15.3 12.0 -14.75 Q3.55 -13.9 2.0 -12.45 1.4 -11.85 0.8 -9.35 0.3 -7.3 -1.45 -6.6 L-3.85 -4.8 Q-5.6 -3.5 -7.95 -3.55 -12.7 -3.6 -13.7 -0.75 L-14.1 1.2 Q-14.3 2.1 -14.85 2.1 -17.15 2.1 -18.25 1.1 -19.35 0.05 -21.05 0.05 -22.45 0.05 -24.9 1.8 -28.0 4.05 -28.0 6.9 L-27.7 8.55 Q-31.3 12.7 -33.2 12.6 L-35.0 11.55 -37.3 10.15 -41.7 10.25 Q-42.35 10.8 -42.55 10.65 -42.85 10.45 -43.1 8.65 -43.65 4.0 -46.95 1.8 -49.7 -0.1 -54.7 -0.45 L-48.3 -5.75 Q-44.5 -9.0 -40.75 -9.4 -33.9 -10.1 -31.15 -14.2 L-29.45 -16.95 Q-28.55 -18.15 -27.1 -18.15 -25.25 -16.9 -24.45 -16.65 -19.35 -15.05 -18.7 -14.55 L-15.3 -10.4 Q-13.8 -8.55 -10.0 -8.55 -7.65 -8.55 -7.65 -10.5 L-7.8 -11.7 -7.85 -12.4 Q-2.7 -20.65 0.25 -21.4 L1.3 -21.25 Q0.2 -25.65 2.55 -28.95" fill="url(#gradient0)" fill-rule="evenodd" stroke="none"/>
  </g>
  <defs>
    <radialGradient cx="0" cy="0" gradientTransform="matrix(0.219, 0.0598, -0.0602, 0.2206, -148.95, -32.95)" gradientUnits="userSpaceOnUse" id="gradient0" r="819.2" spreadMethod="pad">
      <stop offset="0.34901960784313724" stop-color="#ca0000"/>
      <stop offset="1.0" stop-color="#ffffff"/>
    </radialGradient>
  </defs>
</svg>
