<?xml version="1.0" encoding="UTF-8" standalone="no"?>
<svg xmlns:xlink="http://www.w3.org/1999/xlink" height="121.2px" width="216.6px" xmlns="http://www.w3.org/2000/svg">
  <g transform="matrix(1.0, 0.0, 0.0, 1.0, 175.45, 77.8)">
    <path d="M24.6 -31.5 L29.5 -30.35 Q31.65 -29.65 31.8 -29.35 L32.5 -26.9 Q32.8 -26.0 33.7 -25.6 L34.7 -25.4 Q35.2 -25.4 35.9 -25.8 L37.1 -26.2 Q39.15 -26.2 40.25 -23.15 41.15 -20.7 41.15 -17.45 L41.05 -16.75 40.9 -16.75 Q38.35 -17.75 36.1 -15.75 34.15 -14.05 34.15 -12.45 34.15 -11.75 35.05 -10.85 L35.95 -9.65 Q35.95 -8.15 35.25 -7.75 L32.5 -6.0 Q28.7 -9.2 26.1 -9.2 24.3 -9.2 23.5 -8.45 22.65 -7.7 22.65 -5.95 22.65 -5.25 23.55 -4.9 L24.6 -4.45 23.35 -4.15 Q22.6 -4.4 22.3 -5.3 L21.7 -6.95 Q20.5 -9.05 15.1 -9.05 10.7 -9.05 8.4 -6.85 5.65 -4.15 5.65 2.05 5.65 2.45 6.95 3.3 L9.6 5.05 9.3 5.3 Q5.95 4.4 4.95 4.4 L2.7 5.0 0.45 5.55 Q-0.55 5.55 0.05 5.35 -0.15 3.95 -2.0 2.7 -4.15 1.2 -7.2 1.2 -8.05 1.2 -9.7 2.4 -11.8 4.0 -13.35 4.65 -15.6 5.65 -16.55 7.4 L-17.2 9.45 Q-17.7 10.75 -20.4 12.75 L-23.45 15.0 Q-24.55 16.3 -26.55 17.05 L-30.5 18.45 -29.75 16.45 Q-29.35 15.05 -29.35 12.75 -29.35 12.1 -29.5 12.0 L-30.45 11.95 -34.35 13.15 Q-38.05 14.3 -39.05 14.3 -40.05 14.3 -39.85 14.1 L-40.4 9.65 Q-40.4 9.15 -40.0 8.6 -39.65 8.05 -39.65 7.55 -39.65 5.25 -41.7 3.5 -43.35 2.15 -44.4 2.15 -46.0 2.15 -48.05 3.4 -50.85 5.15 -49.75 7.8 -52.5 6.6 -55.85 8.95 -58.95 11.1 -58.95 12.8 -58.95 14.0 -57.65 14.3 L-55.65 14.55 Q-55.8 15.9 -56.05 16.25 -56.9 17.3 -56.95 17.75 L-57.2 19.0 Q-57.75 20.3 -60.2 21.15 -62.4 21.9 -62.4 23.1 L-62.15 24.6 -61.95 25.7 -63.55 26.25 -64.4 26.6 -66.85 28.4 Q-68.5 29.4 -70.1 29.4 L-71.15 29.1 -71.75 28.3 -72.65 28.0 -74.2 27.85 -77.7 28.55 -77.55 29.55 Q-77.1 30.55 -75.95 31.05 L-76.95 31.1 Q-80.0 31.1 -81.3 30.15 -82.6 29.2 -84.35 29.2 -87.3 29.2 -91.35 31.35 -96.35 34.0 -96.35 37.6 -96.35 38.9 -95.6 39.35 -94.7 39.6 -94.45 39.8 L-95.2 39.9 -96.3 40.1 Q-97.65 40.1 -100.25 41.75 -102.85 43.4 -104.05 43.4 -111.0 41.15 -111.6 40.1 -112.7 38.2 -113.45 34.05 -113.8 32.05 -116.45 32.05 L-119.85 31.15 Q-122.75 30.2 -128.85 30.2 -129.95 30.2 -131.25 31.35 L-132.4 32.45 -134.3 31.75 Q-136.05 31.0 -136.45 31.0 L-137.95 31.2 -139.6 31.4 -139.9 31.85 -140.0 32.55 -139.55 33.85 Q-139.15 34.65 -139.15 35.15 -139.15 36.1 -139.3 35.45 L-139.95 35.45 Q-141.1 35.45 -144.45 33.0 -148.0 30.45 -148.7 28.8 L-150.5 23.85 Q-151.5 21.55 -152.95 21.55 L-155.55 21.6 -155.7 19.15 -155.75 17.1 Q-156.0 15.55 -157.15 15.05 L-158.3 14.8 Q-157.55 10.1 -157.9 7.95 -158.5 4.15 -164.0 4.15 L-165.4 4.25 -165.65 5.5 -165.5 6.25 -165.25 6.3 -165.65 6.3 Q-167.35 4.65 -169.0 1.65 -171.35 -2.75 -171.35 -6.85 -171.35 -7.85 -170.6 -8.5 -170.0 -10.7 -169.55 -13.55 L-169.1 -16.95 Q-169.1 -19.3 -169.45 -19.95 L-170.95 -21.7 -173.15 -23.15 Q-174.75 -24.5 -174.75 -27.7 -174.75 -29.95 -175.0 -30.8 L-175.45 -32.45 -174.6 -33.05 -174.05 -33.5 -169.05 -42.45 Q-167.8 -44.35 -167.4 -45.35 L-166.8 -47.4 Q-166.45 -48.9 -165.3 -49.1 L-163.4 -49.0 Q-160.15 -49.2 -155.9 -53.1 -153.75 -55.1 -151.55 -58.05 L-148.45 -62.45 -146.0 -68.1 Q-144.7 -71.0 -141.6 -71.0 L-138.5 -70.45 Q-137.0 -70.35 -132.7 -72.75 -129.25 -74.65 -128.0 -75.75 L-126.85 -76.5 -120.65 -77.8 -112.45 -76.95 Q-113.65 -76.1 -113.65 -75.05 -113.65 -73.35 -109.45 -71.65 -105.1 -69.9 -100.4 -69.9 -99.35 -69.9 -95.45 -72.7 -91.55 -75.5 -90.55 -75.5 L-89.8 -75.3 Q-89.1 -74.9 -87.0 -74.35 L-81.75 -72.6 Q-79.7 -71.8 -76.35 -71.65 -69.5 -71.3 -67.0 -70.1 -64.6 -68.95 -63.95 -68.95 L-64.0 -68.75 Q-69.4 -69.15 -69.4 -65.85 -68.35 -64.35 -68.35 -63.8 -68.8 -60.75 -68.6 -60.3 -66.9 -59.05 -64.5 -58.35 -62.2 -57.7 -59.95 -57.7 L-57.5 -59.15 Q-55.0 -60.7 -52.95 -60.9 L-50.9 -60.6 Q-51.7 -56.95 -49.0 -55.35 -45.5 -53.95 -44.25 -52.95 -43.4 -52.25 -42.5 -50.55 -41.7 -48.95 -41.7 -48.2 -42.25 -46.3 -42.25 -45.15 -42.3 -43.05 -39.7 -43.05 -38.65 -43.05 -35.7 -46.2 -32.75 -49.35 -30.15 -49.35 -28.0 -49.35 -26.25 -48.55 -25.35 -48.1 -22.9 -46.45 -24.9 -44.75 -25.85 -40.95 -26.5 -38.45 -26.5 -36.1 -26.5 -31.95 -21.7 -31.95 L-18.85 -32.45 -16.05 -32.95 Q-12.95 -32.95 -12.2 -30.7 -11.45 -28.45 -7.5 -28.45 -6.6 -28.45 -3.45 -30.05 0.05 -31.85 0.05 -33.0 L-0.05 -34.8 Q0.15 -36.1 1.55 -36.1 3.25 -36.1 7.65 -34.85 11.75 -33.75 12.7 -33.2 L12.85 -33.05 12.85 -32.4 11.85 -30.5 Q10.8 -28.5 10.8 -26.55 L10.9 -25.65 Q11.35 -24.95 13.0 -24.95 14.8 -24.95 17.15 -27.75 19.7 -30.8 24.6 -31.5" fill="#a8fffd" fill-rule="evenodd" stroke="none"/>
    <path d="M-65.4 7.4 Q-64.1 6.3 -62.45 5.8 -65.7 9.8 -74.25 16.25 L-76.5 17.3 Q-78.4 17.95 -78.95 18.3 L-76.9 13.25 Q-76.9 12.65 -77.05 12.25 L-77.2 11.8 -72.8 10.35 -67.95 8.8 Q-66.6 8.45 -65.4 7.4 M-18.4 -26.25 L-16.45 -26.05 -14.75 -26.45 -13.2 -26.95 -10.1 -26.05 -7.1 -25.15 Q-5.7 -25.15 -4.4 -25.7 -2.45 -26.5 -2.2 -28.2 L-2.2 -24.3 Q-3.0 -22.0 -6.5 -18.95 -10.1 -15.9 -12.1 -15.9 L-13.15 -16.45 Q-14.2 -17.05 -14.8 -17.05 L-16.7 -16.5 Q-18.1 -16.0 -18.6 -16.0 -21.55 -16.0 -23.65 -17.15 L-26.7 -19.2 -25.85 -20.4 Q-25.45 -21.05 -25.45 -21.5 -25.45 -22.2 -26.45 -23.45 L-28.2 -25.45 Q-23.25 -25.85 -21.95 -26.55 -21.45 -26.85 -20.7 -28.45 -19.35 -26.65 -18.4 -26.25 M-57.05 -6.45 Q-57.3 -7.55 -56.95 -7.9 L-51.7 -9.35 Q-46.2 -10.5 -44.1 -11.45 L-41.9 -12.1 Q-43.25 -10.75 -48.45 -8.5 L-53.9 -6.2 Q-57.05 -3.8 -58.25 -1.2 L-59.9 1.9 Q-59.25 -0.75 -57.05 -6.45 M-65.35 -53.6 Q-67.75 -55.5 -61.75 -54.8 -55.7 -54.15 -55.05 -52.75 L-53.45 -49.2 Q-52.4 -47.75 -49.75 -47.75 L-48.8 -48.45 Q-47.75 -49.15 -46.2 -49.15 L-44.2 -48.75 Q-45.05 -47.6 -45.5 -44.75 -45.5 -42.75 -43.7 -39.9 -42.0 -37.2 -41.1 -37.2 L-36.25 -37.7 Q-35.85 -37.9 -35.6 -38.5 -35.45 -38.75 -35.25 -41.85 -34.45 -44.75 -31.2 -44.75 L-29.55 -44.35 -28.65 -43.85 -30.05 -42.15 Q-31.35 -40.45 -31.35 -38.0 L-30.65 -36.1 -29.95 -35.0 -29.6 -34.55 Q-29.45 -34.25 -29.45 -33.65 -29.45 -33.1 -31.3 -31.3 -33.2 -29.55 -33.2 -29.1 L-31.45 -25.2 -32.35 -25.3 -41.95 -24.45 -42.55 -25.75 Q-43.2 -26.75 -45.15 -26.75 L-46.0 -26.55 -46.45 -26.3 -47.9 -27.6 -49.5 -28.9 Q-50.7 -29.3 -54.45 -29.0 -57.4 -28.75 -59.5 -30.5 L-59.45 -30.5 -58.35 -30.75 Q-57.55 -31.15 -57.55 -31.85 -57.55 -32.5 -58.75 -34.0 -58.75 -35.0 -58.3 -35.55 L-56.45 -35.75 -56.6 -35.95 -59.1 -35.95 Q-61.05 -36.05 -61.05 -37.25 -61.05 -38.25 -60.7 -39.25 L-58.8 -38.15 -57.6 -37.65 Q-56.45 -37.65 -55.45 -38.5 -54.5 -39.3 -54.5 -40.2 -54.5 -41.2 -54.7 -41.2 L-57.85 -42.3 -59.95 -44.0 -61.6 -45.35 -61.95 -45.75 -62.25 -49.45 Q-62.35 -50.4 -62.8 -51.05 -63.5 -52.15 -65.35 -53.6 M32.2 -13.95 L32.1 -14.2 29.0 -15.05 Q28.35 -15.15 27.25 -14.0 L26.2 -11.65 Q25.7 -10.55 23.15 -10.55 19.35 -10.7 17.95 -12.75 20.1 -13.05 21.2 -14.4 21.85 -15.25 21.85 -15.85 L20.8 -17.2 Q26.95 -17.7 30.25 -16.15 31.9 -15.35 32.3 -14.45 L32.2 -13.95 M11.35 -17.9 Q12.2 -18.2 14.8 -17.85 17.8 -17.4 19.05 -16.2 L18.05 -16.2 15.35 -15.45 Q13.4 -14.75 12.85 -14.3 12.15 -13.7 9.9 -12.4 7.85 -11.2 7.55 -10.8 4.75 -7.35 3.7 -4.05 3.1 -2.25 1.9 -2.25 0.4 -2.25 -0.35 -1.65 L-1.6 -0.65 -1.85 -0.7 Q-2.75 -4.4 -4.4 -5.4 -5.65 -6.15 -9.7 -6.15 -10.9 -6.15 -11.8 -5.25 -12.9 -4.2 -13.2 -1.95 -13.55 0.55 -14.0 1.55 -14.45 2.55 -15.65 3.25 -18.2 4.75 -24.45 8.8 -25.4 7.85 -25.25 6.5 -25.1 5.7 -26.25 5.7 -28.15 5.7 -29.9 7.3 L-32.0 9.25 -33.75 9.45 -35.7 9.8 Q-34.9 6.1 -35.1 4.7 -35.35 2.8 -37.4 1.75 -38.85 1.0 -43.35 0.0 -45.35 -0.45 -47.95 -4.2 L-46.95 -3.8 Q-45.7 -3.65 -39.65 -6.05 -34.05 -8.25 -33.45 -8.75 L-31.0 -12.05 Q-29.2 -14.55 -26.95 -14.95 -26.95 -14.2 -26.3 -13.4 -25.75 -12.7 -25.45 -12.7 L-23.4 -12.9 -20.2 -13.15 Q-19.55 -13.15 -19.0 -13.55 L-17.95 -13.95 Q-17.1 -13.95 -14.8 -12.4 -12.55 -10.85 -12.2 -10.85 -11.1 -10.85 -10.3 -11.5 L-9.2 -12.15 Q-8.1 -11.55 -6.8 -11.45 -4.15 -11.15 -2.85 -13.45 -1.35 -16.15 1.1 -17.2 3.15 -18.15 6.4 -18.05 L5.4 -17.35 Q4.85 -16.95 4.85 -16.35 4.85 -15.8 5.2 -15.45 L5.55 -15.0 7.6 -14.95 8.85 -15.2 11.35 -17.9 M8.4 -30.0 Q7.75 -27.35 7.7 -25.95 7.65 -23.4 10.95 -23.4 L13.05 -23.6 14.55 -23.7 9.45 -20.8 Q7.65 -19.75 6.6 -19.75 6.1 -19.75 4.85 -20.55 3.55 -21.35 3.05 -21.35 L0.9 -21.05 Q1.15 -22.9 0.9 -23.1 L-0.2 -23.2 Q0.6 -23.85 0.6 -25.4 L0.55 -28.15 Q0.75 -31.5 6.35 -31.5 8.4 -31.5 8.4 -30.0" fill="url(#gradient0)" fill-rule="evenodd" stroke="none"/>
  </g>
  <defs>
    <radialGradient cx="0" cy="0" gradientTransform="matrix(0.219, 0.0598, -0.0602, 0.2206, -148.95, -32.95)" gradientUnits="userSpaceOnUse" id="gradient0" r="819.2" spreadMethod="pad">
      <stop offset="0.34901960784313724" stop-color="#ca0000"/>
      <stop offset="1.0" stop-color="#ffffff"/>
    </radialGradient>
  </defs>
</svg>
