<?xml version="1.0" encoding="UTF-8" standalone="no"?>
<svg xmlns:xlink="http://www.w3.org/1999/xlink" height="88.95px" width="86.1px" xmlns="http://www.w3.org/2000/svg">
  <g transform="matrix(1.0, 0.0, 0.0, 1.0, 42.55, 45.65)">
    <path d="M-12.6 28.95 L-12.3 24.9 Q-10.3 27.9 -6.8 29.3 -4.95 30.15 -2.85 30.15 -16.6 17.45 -8.75 -1.05 -6.25 -6.95 -1.5 -11.05 L1.8 -10.35 7.25 -12.25 Q10.95 5.95 14.15 13.05 17.35 20.15 20.6 21.7 23.85 23.25 26.45 23.4 30.25 23.45 33.55 21.75 35.7 20.75 37.15 18.85 31.85 29.5 22.85 36.85 17.95 40.85 12.25 43.3 2.65 40.85 -5.15 35.0 L-12.6 28.95 M27.85 18.95 Q24.3 19.2 21.35 17.25 L20.2 16.15 19.95 15.75 Q19.0 14.15 18.45 12.4 L18.25 11.75 18.0 10.8 17.9 10.45 Q16.0 -0.05 17.1 -1.65 18.9 6.55 24.95 13.25 27.8 16.35 32.15 15.35 L35.2 14.7 35.05 15.5 34.15 16.25 31.45 17.85 Q29.9 18.8 27.85 18.95 M28.55 -1.0 L28.75 -4.95 34.2 5.55 36.35 10.35 32.05 10.5 30.1 8.85 Q27.7 4.1 27.9 3.2 L28.55 -1.0" fill="#ffcc66" fill-rule="evenodd" stroke="none"/>
    <path d="M37.15 18.85 Q35.7 20.75 33.55 21.75 30.25 23.45 26.45 23.4 23.85 23.25 20.6 21.7 17.35 20.15 14.15 13.05 10.95 5.95 7.25 -12.25 L1.8 -10.35 -1.5 -11.05 Q-6.25 -6.95 -8.75 -1.05 -16.6 17.45 -2.85 30.15 -4.95 30.15 -6.8 29.3 -10.3 27.9 -12.3 24.9 L-12.6 28.95 -13.95 27.5 -14.5 26.95 -14.5 26.85 Q-20.85 17.5 -21.15 6.0 -21.5 -6.25 -15.8 -17.2 -10.2 -27.95 1.95 -30.15 14.0 -32.05 25.3 -27.55 37.45 -22.75 39.35 -9.15 40.85 1.9 38.65 12.95 L37.9 17.2 38.3 16.65 37.8 17.65 37.15 18.85 M28.55 -1.0 L27.9 3.2 Q27.7 4.1 30.1 8.85 L32.05 10.5 36.35 10.35 34.2 5.55 28.75 -4.95 28.55 -1.0 M27.85 18.95 Q29.9 18.8 31.45 17.85 L34.15 16.25 35.05 15.5 35.2 14.7 32.15 15.35 Q27.8 16.35 24.95 13.25 18.9 6.55 17.1 -1.65 16.0 -0.05 17.9 10.45 L18.0 10.8 18.25 11.75 18.45 12.4 Q19.0 14.15 19.95 15.75 L20.2 16.15 21.35 17.25 Q24.3 19.2 27.85 18.95" fill="#ff3511" fill-rule="evenodd" stroke="none"/>
    <path d="M36.0 6.25 Q26.0 23.4 14.4 8.5 24.85 4.8 35.75 4.85 L36.0 6.25 M21.45 10.75 Q25.95 11.65 30.3 9.7 L31.0 9.1 27.05 8.85 21.55 9.75 21.45 10.75 M14.05 28.65 L14.45 28.95 16.8 30.7 19.55 32.55 19.3 32.8 Q9.65 29.15 5.75 30.8 1.85 32.4 1.1 32.85 L0.5 32.65 1.35 31.7 3.8 29.4 4.5 28.8 Q8.0 29.75 14.05 28.65 M-0.75 11.25 L-0.8 10.2 -10.25 9.8 -10.55 10.45 -9.95 10.9 -0.75 11.25 M-14.1 7.15 L-13.85 6.6 Q-4.55 5.25 4.25 8.35 -2.6 18.7 -12.9 12.9 L-14.95 11.55 -14.95 10.2 -14.5 10.05 -14.5 8.9 -14.1 7.15" fill="#000000" fill-rule="evenodd" stroke="none"/>
    <path d="M14.05 28.65 Q8.0 29.75 4.5 28.8 L5.45 27.8 13.05 27.8 14.05 28.65 M17.7 34.5 L18.95 34.1 20.0 33.7 21.2 32.95 21.25 32.95 20.95 33.7 20.35 35.1 19.75 36.0 18.7 36.15 17.55 35.7 16.45 35.05 15.85 34.55 Q15.45 33.95 16.35 34.35 L17.7 34.5 M1.55 36.25 L-0.2 35.05 Q-0.65 34.25 -0.7 33.4 -0.1 34.0 0.75 34.25 L2.7 34.65 3.95 34.6 4.0 34.6 2.8 35.65 1.9 36.3 1.55 36.25 M9.5 32.85 L9.05 33.85 8.4 34.5 7.65 34.3 8.1 33.6 9.5 32.85 M9.3 33.75 L9.4 33.75 Q9.75 33.45 10.05 34.0 L9.75 34.3 Q8.9 34.35 9.3 33.75" fill="#ff3511" fill-rule="evenodd" stroke="none"/>
    <path d="M21.45 10.75 L21.55 9.75 27.05 8.85 31.0 9.1 30.3 9.7 Q25.95 11.65 21.45 10.75 M-0.75 11.25 L-9.95 10.9 -10.55 10.45 -10.25 9.8 -0.8 10.2 -0.75 11.25" fill="#ffffff" fill-rule="evenodd" stroke="none"/>
    <path d="M-11.2 -30.3 L-8.55 -32.85 -1.7 -39.05 Q1.35 -41.8 5.0 -43.05 5.5 -42.75 6.05 -42.6 L10.75 -41.6 Q15.45 -40.55 20.05 -38.8 24.0 -37.3 27.5 -35.4 31.7 -33.1 34.95 -29.75 38.2 -24.6 40.2 -19.1 42.5 -12.8 43.25 -6.25 L43.55 -1.8 Q43.65 2.65 42.9 7.15 42.1 11.95 39.1 15.7 L38.3 16.65 Q35.25 20.75 30.55 22.7 L29.05 23.2 27.9 23.55 26.45 23.4 Q23.05 22.7 20.75 19.65 18.2 16.2 16.9 12.4 L15.35 7.35 13.8 2.25 11.6 -5.0 8.85 -13.25 7.9 -15.5 4.4 -13.15 3.9 -14.5 2.05 -13.25 0.3 -13.4 -0.25 -13.95 Q-6.3 -9.8 -9.8 -3.45 -12.25 1.1 -13.0 6.25 -14.45 16.2 -9.5 24.75 L-7.2 27.75 -6.55 28.4 -6.5 28.45 Q-4.85 29.75 -2.85 30.15 L-5.25 29.85 -6.15 29.7 -8.5 28.6 -8.85 28.35 -11.1 26.35 -12.9 23.95 -12.95 23.85 Q-15.1 20.3 -15.65 16.1 L-14.5 26.95 -14.45 27.3 Q-13.7 31.75 -12.1 36.1 -10.95 39.3 -9.3 41.8 L-14.15 35.3 Q-17.65 30.45 -19.8 24.85 -22.0 19.1 -22.75 13.0 L-23.6 14.25 -25.5 16.45 -27.7 18.35 Q-25.45 15.65 -24.5 12.3 -23.8 9.7 -24.1 7.2 L-24.75 0.5 Q-26.25 1.75 -27.45 3.3 -28.7 4.85 -29.6 6.65 L-30.15 2.3 Q-30.45 -0.7 -29.55 -3.7 L-28.15 -7.5 -26.25 -11.3 Q-28.25 -9.85 -29.9 -8.05 L-31.65 -5.95 Q-33.3 -3.7 -34.25 -0.95 L-35.8 2.55 -33.6 -3.15 -31.0 -8.45 -28.7 -12.25 -32.4 -10.85 Q-37.95 -8.45 -42.55 -4.55 L-40.7 -6.7 -36.7 -10.45 -32.4 -13.8 Q-28.95 -16.1 -25.0 -17.55 L-28.65 -19.05 -31.55 -20.9 Q-33.45 -22.5 -34.4 -24.75 L-35.1 -27.35 -35.15 -29.4 Q-34.8 -34.3 -32.2 -38.45 -29.95 -42.1 -26.65 -44.65 -25.6 -45.4 -24.25 -45.65 L-19.55 -45.0 Q-16.9 -40.2 -15.55 -35.05 L-14.4 -30.45 -15.2 -29.3 Q-18.05 -25.45 -20.2 -21.1 L-20.7 -19.55 -20.8 -18.5 -20.45 -19.0 -16.0 -23.8 Q-13.35 -26.8 -11.2 -30.3 M19.25 -15.8 L17.5 -14.8 17.45 -14.55 Q17.35 -13.55 16.7 -12.65 L16.25 -11.95 15.5 -11.9 18.35 -5.25 19.45 -3.25 21.35 -2.75 21.1 -5.5 19.25 -15.8 M11.25 -16.05 L10.75 -14.15 Q9.9 -9.5 12.2 -5.05 L12.7 -2.95 Q13.15 -2.95 13.5 -3.55 L13.8 -5.1 13.7 -7.35 Q13.4 -12.05 11.25 -16.05 M14.65 -8.0 L14.95 -5.15 15.45 -1.3 16.6 5.3 17.9 10.45 18.0 10.8 18.25 11.75 18.45 12.4 Q19.0 14.15 19.95 15.75 L20.2 16.15 21.35 17.25 Q24.3 19.2 27.85 18.95 29.9 18.8 31.45 17.85 L34.15 16.25 35.05 15.5 35.25 14.5 34.05 14.2 Q32.1 13.4 30.25 12.4 L27.8 10.75 23.5 6.7 Q21.45 4.5 20.25 1.65 L17.95 -3.9 17.75 -4.4 14.4 -11.4 14.65 -8.0 M27.1 -8.55 L26.0 -8.3 25.8 -9.8 25.25 -10.3 24.75 -13.3 21.5 -11.25 21.95 -5.55 22.25 -3.95 Q23.0 -1.6 25.35 -0.55 L26.0 -0.25 27.1 -8.55 M34.45 -12.9 L32.65 -13.05 30.8 -10.05 33.2 -6.0 35.4 -1.0 37.8 -0.7 38.1 -6.1 37.2 -12.95 37.0 -13.8 35.05 -11.75 34.45 -12.9 M28.75 -4.95 L28.55 -1.0 27.9 3.2 27.35 5.3 28.55 7.25 30.1 8.85 32.05 10.5 36.75 10.3 36.85 10.15 36.75 10.0 Q36.3 5.45 34.9 1.05 L34.15 -1.15 31.85 -6.0 31.05 -7.3 27.55 -12.75 Q28.3 -10.25 28.55 -7.5 L28.7 -5.9 28.75 -4.95 M-13.85 -8.1 L-14.2 -7.8 -15.7 -0.55 -12.85 2.65 -6.25 -12.8 -13.85 -8.1 M-21.3 -6.35 L-22.45 -1.3 -21.7 0.8 Q-19.05 -2.0 -16.5 -0.5 L-16.3 -1.85 -14.9 -8.0 -15.5 -10.3 -16.05 -9.65 -16.5 -9.55 -16.9 -10.55 -18.2 -9.0 Q-19.35 -10.1 -18.85 -11.85 -18.55 -12.9 -18.5 -14.05 L-21.3 -6.35 M-25.95 -32.25 L-25.7 -28.5 -23.45 -28.35 -20.9 -32.75 Q-19.2 -35.6 -19.95 -38.95 L-23.75 -32.9 -25.95 -32.25 M-29.9 -39.1 L-30.05 -39.0 -32.3 -33.25 Q-35.75 -22.2 -24.35 -19.9 -27.15 -26.35 -27.5 -33.55 -28.3 -33.45 -28.15 -34.4 L-28.2 -34.8 -28.3 -35.3 -29.0 -34.8 -29.9 -39.1" fill="#000000" fill-rule="evenodd" stroke="none"/>
    <path d="M11.25 -16.05 Q13.4 -12.05 13.7 -7.35 L13.8 -5.1 13.5 -3.55 Q13.15 -2.95 12.7 -2.95 L12.2 -5.05 Q9.9 -9.5 10.75 -14.15 L11.25 -16.05 M19.25 -15.8 L21.1 -5.5 21.35 -2.75 19.45 -3.25 18.35 -5.25 15.5 -11.9 16.25 -11.95 16.7 -12.65 Q17.35 -13.55 17.45 -14.55 L17.5 -14.8 19.25 -15.8 M34.45 -12.9 L35.05 -11.75 37.0 -13.8 37.2 -12.95 38.1 -6.1 37.8 -0.7 35.4 -1.0 33.2 -6.0 30.8 -10.05 32.65 -13.05 34.45 -12.9 M27.1 -8.55 L26.0 -0.25 25.35 -0.55 Q23.0 -1.6 22.25 -3.95 L21.95 -5.55 21.5 -11.25 24.75 -13.3 25.25 -10.3 25.8 -9.8 26.0 -8.3 27.1 -8.55 M-29.9 -39.1 L-29.0 -34.8 -28.3 -35.3 -28.2 -34.8 -28.15 -34.4 Q-28.3 -33.45 -27.5 -33.55 -27.15 -26.35 -24.35 -19.9 -35.75 -22.2 -32.3 -33.25 L-30.05 -39.0 -29.9 -39.1 M-25.95 -32.25 L-23.75 -32.9 -19.95 -38.95 Q-19.2 -35.6 -20.9 -32.75 L-23.45 -28.35 -25.7 -28.5 -25.95 -32.25 M-21.3 -6.35 L-18.5 -14.05 Q-18.55 -12.9 -18.85 -11.85 -19.35 -10.1 -18.2 -9.0 L-16.9 -10.55 -16.5 -9.55 -16.05 -9.65 -15.5 -10.3 -14.9 -8.0 -16.3 -1.85 -16.5 -0.5 Q-19.05 -2.0 -21.7 0.8 L-22.45 -1.3 -21.3 -6.35 M-13.85 -8.1 L-6.25 -12.8 -12.85 2.65 -15.7 -0.55 -14.2 -7.8 -13.85 -8.1" fill="#333333" fill-rule="evenodd" stroke="none"/>
    <path d="M-11.2 -30.3 Q-13.35 -26.8 -16.0 -23.8 L-20.45 -19.0 -20.8 -18.5 -20.7 -19.55 -20.2 -21.1 Q-18.05 -25.45 -15.2 -29.3 L-14.4 -30.45 -14.35 -30.1 -13.7 -30.95 -13.25 -31.05 -11.9 -29.65 -11.2 -30.3" fill="#999999" fill-rule="evenodd" stroke="none"/>
  </g>
</svg>
