<?xml version="1.0" encoding="UTF-8" standalone="no"?>
<svg xmlns:xlink="http://www.w3.org/1999/xlink" height="93.2px" width="84.1px" xmlns="http://www.w3.org/2000/svg">
  <g transform="matrix(1.0, 0.0, 0.0, 1.0, 39.3, 46.35)">
    <path d="M-10.35 32.75 Q-11.2 30.15 -10.8 27.4 L-9.9 28.8 Q-7.45 31.65 -3.6 31.0 -5.65 30.2 -6.95 28.55 L-8.15 26.85 Q-10.05 23.85 -10.85 20.2 L-11.35 17.8 -11.7 14.8 Q-12.05 11.0 -11.3 7.4 L-10.65 4.6 Q-9.55 0.45 -7.55 -3.35 L-4.55 -8.2 Q-1.8 -11.95 2.25 -13.95 L2.75 -14.15 2.6 -12.8 5.4 -14.15 5.8 -14.2 5.6 -13.0 7.3 -13.95 Q8.9 -15.15 10.75 -15.0 11.25 -13.5 11.3 -11.75 L11.35 -4.4 Q11.3 -2.3 11.5 -0.15 L12.1 3.2 14.1 10.5 Q15.15 13.8 17.0 16.85 18.55 19.4 20.7 21.25 22.05 22.4 23.8 22.7 L26.5 22.85 26.5 23.2 26.2 25.6 24.25 32.0 23.7 33.8 23.2 35.0 Q23.9 34.8 23.9 34.0 L24.0 33.8 28.1 29.1 28.15 28.8 27.55 27.4 27.4 27.2 Q27.05 26.95 27.1 26.2 L27.25 24.0 27.45 22.75 Q29.45 22.45 31.3 21.4 L36.85 18.2 35.0 22.5 Q31.75 29.3 25.9 33.95 22.1 36.95 17.9 39.1 L17.9 39.0 17.95 38.6 18.05 37.6 18.15 36.2 18.05 34.2 17.95 33.2 Q17.9 32.1 18.15 31.4 L18.2 31.0 Q18.45 29.4 17.0 29.1 L16.8 29.05 14.0 28.7 13.6 28.65 12.9 28.7 Q12.85 29.15 12.4 29.2 L12.3 29.2 12.25 29.6 Q12.1 30.35 12.8 30.6 13.7 30.9 13.75 31.6 13.8 32.3 13.0 32.45 L12.8 32.55 Q12.25 32.8 12.35 33.4 L12.5 34.6 12.6 34.75 Q13.4 34.9 13.5 35.4 L13.6 36.2 13.7 37.0 13.8 37.6 13.95 40.95 8.05 42.85 -1.7 38.5 Q-6.6 36.2 -10.35 32.75 M37.25 17.1 L35.45 17.9 32.2 18.8 29.0 18.65 28.9 16.0 28.85 15.6 28.65 15.05 30.4 15.7 37.5 16.45 37.25 17.1 M25.1 18.15 L24.8 18.05 23.65 17.55 20.4 15.3 Q19.2 14.45 18.4 13.25 15.4 8.6 15.5 3.0 15.55 -0.7 15.75 -4.4 15.8 -5.9 16.3 -7.15 L17.8 -2.75 19.5 2.55 Q20.4 5.6 21.75 8.65 23.05 11.45 25.7 13.4 L26.1 13.7 26.35 13.85 25.6 13.75 25.3 13.7 25.25 13.7 Q24.1 14.4 23.8 15.6 L23.7 16.4 Q23.7 17.1 24.15 17.65 24.4 17.9 24.8 17.85 L25.1 18.15 M38.0 14.9 L35.35 14.2 Q33.25 13.4 31.25 12.1 28.35 10.3 27.35 6.8 L26.4 3.9 25.95 2.6 24.8 -3.2 Q26.05 0.0 28.15 2.6 L30.9 5.9 34.05 9.65 37.2 13.2 38.25 14.0 38.0 14.9 M38.9 11.45 Q35.95 8.6 33.75 5.05 L31.85 1.65 Q30.1 -2.05 29.15 -6.15 28.8 -7.5 28.0 -8.4 L29.0 -8.7 Q30.0 -8.45 30.85 -7.85 34.05 -5.65 35.5 -1.95 L37.0 2.5 39.3 9.65 38.9 11.45 M14.95 40.5 L14.85 40.4 Q14.5 39.8 14.5 39.0 L14.5 38.6 14.45 37.0 Q14.45 36.65 14.8 36.55 L15.0 36.45 Q15.6 36.05 15.35 35.2 L15.3 35.0 Q15.2 34.3 15.35 33.65 L15.6 33.2 16.8 33.05 17.0 33.2 Q17.4 33.7 17.4 34.6 L17.3 38.6 17.3 39.0 17.45 39.35 14.95 40.5 M-0.1 -3.6 L-0.05 -4.2 Q0.25 -6.05 1.0 -7.4 L-0.15 -5.95 -1.4 -3.0 -1.6 -2.1 0.0 -1.6 -0.05 -2.0 -0.1 -3.6" fill="#ffcc66" fill-rule="evenodd" stroke="none"/>
    <path d="M-10.35 32.75 Q-13.5 29.8 -15.85 26.1 L-17.6 19.15 Q-20.1 8.7 -20.8 -1.95 -21.6 -13.8 -14.65 -22.9 -7.35 -32.55 4.2 -35.4 L11.4 -35.9 Q20.75 -35.15 28.1 -28.9 32.95 -24.75 35.95 -18.9 40.9 -9.2 40.3 1.75 40.1 5.8 39.3 9.65 L37.0 2.5 35.5 -1.95 Q34.05 -5.65 30.85 -7.85 30.0 -8.45 29.0 -8.7 L28.0 -8.4 Q28.8 -7.5 29.15 -6.15 30.1 -2.05 31.85 1.65 L33.75 5.05 Q35.95 8.6 38.9 11.45 L38.25 14.0 37.2 13.2 34.05 9.65 30.9 5.9 28.15 2.6 Q26.05 0.0 24.8 -3.2 L25.95 2.6 26.4 3.9 27.35 6.8 Q28.35 10.3 31.25 12.1 33.25 13.4 35.35 14.2 L38.0 14.9 37.5 16.45 30.4 15.7 28.65 15.05 Q27.45 14.55 26.35 13.85 L26.1 13.7 25.7 13.4 Q23.05 11.45 21.75 8.65 20.4 5.6 19.5 2.55 L17.8 -2.75 16.3 -7.15 Q15.8 -5.9 15.75 -4.4 15.55 -0.7 15.5 3.0 15.4 8.6 18.4 13.25 19.2 14.45 20.4 15.3 L23.65 17.55 24.8 18.05 25.1 18.15 27.55 18.4 29.0 18.65 32.2 18.8 35.45 17.9 37.25 17.1 36.85 18.2 31.3 21.4 Q29.45 22.45 27.45 22.75 L26.5 22.85 23.8 22.7 Q22.05 22.4 20.7 21.25 18.55 19.4 17.0 16.85 15.15 13.8 14.1 10.5 L12.1 3.2 11.5 -0.15 Q11.3 -2.3 11.35 -4.4 L11.3 -11.75 Q11.25 -13.5 10.75 -15.0 8.9 -15.15 7.3 -13.95 L5.6 -13.0 5.8 -14.2 5.4 -14.15 2.6 -12.8 2.75 -14.15 2.25 -13.95 Q-1.8 -11.95 -4.55 -8.2 L-7.55 -3.35 Q-9.55 0.45 -10.65 4.6 L-11.3 7.4 Q-12.05 11.0 -11.7 14.8 L-11.35 17.8 -10.85 20.2 Q-10.05 23.85 -8.15 26.85 L-6.95 28.55 Q-5.65 30.2 -3.6 31.0 -7.45 31.65 -9.9 28.8 L-10.8 27.4 Q-11.2 30.15 -10.35 32.75" fill="#ff3511" fill-rule="evenodd" stroke="none"/>
    <path d="M26.5 22.85 L27.45 22.75 27.25 24.0 27.1 26.2 Q27.05 26.95 27.4 27.2 L27.55 27.4 28.15 28.8 28.1 29.1 24.0 33.8 23.9 34.0 Q23.9 34.8 23.2 35.0 L23.7 33.8 24.25 32.0 26.2 25.6 26.5 23.2 26.5 22.85 M29.0 18.65 L27.55 18.4 25.1 18.15 24.8 17.85 Q24.4 17.9 24.15 17.65 23.7 17.1 23.7 16.4 L23.8 15.6 Q24.1 14.4 25.25 13.7 L25.3 13.7 25.6 13.75 26.35 13.85 Q27.45 14.55 28.65 15.05 L28.85 15.6 28.9 16.0 29.0 18.65 M13.95 40.95 L13.8 37.6 13.7 37.0 13.6 36.2 13.5 35.4 Q13.4 34.9 12.6 34.75 L12.5 34.6 12.35 33.4 Q12.25 32.8 12.8 32.55 L13.0 32.45 Q13.8 32.3 13.75 31.6 13.7 30.9 12.8 30.6 12.1 30.35 12.25 29.6 L12.3 29.2 12.4 29.2 Q12.85 29.15 12.9 28.7 L13.6 28.65 14.0 28.7 16.8 29.05 17.0 29.1 Q18.45 29.4 18.2 31.0 L18.15 31.4 Q17.9 32.1 17.95 33.2 L18.05 34.2 18.15 36.2 18.05 37.6 17.95 38.6 17.9 39.0 17.9 39.1 17.45 39.35 17.3 39.0 17.3 38.6 17.4 34.6 Q17.4 33.7 17.0 33.2 L16.8 33.05 15.6 33.2 15.35 33.65 Q15.2 34.3 15.3 35.0 L15.35 35.2 Q15.6 36.05 15.0 36.45 L14.8 36.55 Q14.45 36.65 14.45 37.0 L14.5 38.6 14.5 39.0 Q14.5 39.8 14.85 40.4 L14.95 40.5 13.95 40.95 M-0.1 -3.6 L-0.05 -2.0 0.0 -1.6 -1.6 -2.1 -1.4 -3.0 -0.15 -5.95 1.0 -7.4 Q0.25 -6.05 -0.05 -4.2 L-0.1 -3.6" fill="#770000" fill-rule="evenodd" stroke="none"/>
    <path d="M3.8 -2.25 Q7.05 0.8 5.4 5.75 L4.15 9.05 Q2.3 13.35 -1.7 15.85 -5.55 18.3 -9.0 14.8 -9.3 16.8 -8.6 18.95 -11.2 16.95 -12.3 13.75 L-12.8 12.4 -14.3 14.3 Q-14.8 3.0 -6.2 -4.35 -1.5 -1.65 3.8 -2.25 M27.4 10.9 Q29.1 10.9 30.7 9.9 L28.1 9.45 Q22.4 7.8 18.55 9.75 L19.7 9.95 20.0 10.6 27.4 10.9 M33.45 10.25 L30.25 13.65 29.35 14.4 23.2 13.8 26.0 17.2 Q22.4 16.4 19.65 13.75 16.0 10.1 14.25 5.4 L14.8 4.45 Q15.05 4.05 15.45 3.75 L16.1 3.3 16.9 3.0 17.75 3.05 Q19.1 4.7 21.15 5.25 L33.4 8.05 33.45 10.25 M1.85 7.15 Q-0.6 3.65 -4.9 4.6 -7.25 5.05 -9.05 6.75 L-8.2 7.85 Q-3.8 6.1 0.6 7.7 L1.85 7.15 M19.5 29.95 L19.95 31.15 19.75 32.05 20.2 32.6 18.8 32.9 Q17.45 28.6 12.65 29.4 6.5 30.55 0.5 32.25 L1.75 30.6 2.5 30.55 17.15 27.15 19.5 29.95" fill="#000000" fill-rule="evenodd" stroke="none"/>
    <path d="M27.4 10.9 L20.0 10.6 19.7 9.95 18.55 9.75 Q22.4 7.8 28.1 9.45 L30.7 9.9 Q29.1 10.9 27.4 10.9 M1.85 7.15 L0.6 7.7 Q-3.8 6.1 -8.2 7.85 L-9.05 6.75 Q-7.25 5.05 -4.9 4.6 -0.6 3.65 1.85 7.15" fill="#ffffff" fill-rule="evenodd" stroke="none"/>
    <path d="M2.5 30.55 L4.8 28.6 5.5 28.6 8.0 28.25 8.8 28.2 9.25 27.95 14.4 26.0 15.7 25.45 Q16.4 25.75 17.05 26.2 18.4 27.1 19.0 28.45 L19.5 29.95 17.15 27.15 2.5 30.55 M14.05 31.4 L14.15 32.0 13.6 32.55 12.55 32.25 Q13.0 31.65 13.6 31.35 L14.05 31.4 M15.5 33.15 L17.6 34.2 21.35 33.3 22.3 32.05 Q22.5 33.4 21.7 34.5 20.5 36.25 18.5 36.95 L17.55 36.35 16.45 35.4 Q15.45 34.4 15.45 33.3 L15.5 33.15 M1.9 34.75 L2.95 34.55 3.4 34.7 3.55 35.0 1.9 36.15 Q1.4 36.15 0.6 35.55 L-0.3 34.8 -0.35 34.35 0.7 34.45 1.9 34.75 M5.65 35.25 L5.65 33.3 11.75 31.7 Q10.55 33.7 7.2 34.8 6.4 34.95 5.65 35.25" fill="#ff3511" fill-rule="evenodd" stroke="none"/>
    <path d="M-8.75 -33.1 L-5.45 -35.85 0.65 -40.2 Q2.2 -41.15 4.0 -41.6 L7.45 -41.9 Q10.7 -41.6 13.85 -40.7 L17.1 -39.75 23.35 -37.3 28.05 -35.05 Q32.05 -32.95 35.2 -29.6 38.3 -26.25 40.15 -20.5 L43.05 -10.55 Q44.15 -6.35 44.35 -1.85 L44.7 4.1 Q44.9 5.55 44.7 6.25 L43.9 8.1 41.45 12.35 38.25 18.05 Q35.1 19.4 31.85 20.25 L29.3 20.45 Q27.35 20.5 25.25 19.65 22.9 18.75 21.05 17.15 18.25 14.8 16.45 11.65 15.55 10.1 15.05 8.45 14.4 6.45 14.15 4.4 13.45 -1.4 13.3 -7.4 L13.05 -12.55 12.8 -15.65 9.6 -15.1 11.0 -16.8 9.25 -15.55 5.2 -12.0 6.6 -15.0 2.2 -12.5 4.8 -16.0 2.15 -15.5 Q0.25 -15.05 -1.4 -14.2 -5.6 -11.95 -7.75 -7.85 L-10.2 -2.55 Q-11.55 0.85 -12.45 4.45 -13.65 9.35 -13.25 14.4 -12.95 18.65 -11.35 22.7 L-9.65 26.0 -8.05 27.8 -5.95 28.95 -3.6 29.6 -6.7 29.6 Q-8.75 29.4 -10.3 28.15 L-12.15 26.35 -13.55 24.35 -11.25 35.25 -10.05 39.4 -8.6 43.4 -13.65 35.0 -14.2 46.85 Q-14.9 41.4 -16.45 36.1 L-18.25 29.9 -19.65 24.0 -20.7 17.2 -21.0 16.8 -22.2 27.8 -22.35 22.4 -22.3 13.65 -26.8 18.6 -25.2 13.3 Q-24.45 10.8 -24.5 8.2 -24.55 5.8 -24.9 3.45 L-26.0 -3.2 -29.0 6.2 -28.85 3.25 -28.4 -2.75 -27.55 -9.75 -39.3 4.3 -33.95 -4.95 -32.3 -7.2 -30.4 -9.4 -38.8 -4.2 -35.0 -8.7 -30.1 -13.75 -24.4 -18.8 -28.6 -20.95 Q-31.65 -22.6 -33.9 -25.35 -34.95 -26.6 -35.0 -28.5 -35.05 -31.15 -34.45 -33.55 -33.95 -35.45 -33.1 -37.2 -32.3 -39.05 -31.15 -40.7 L-31.05 -40.8 -33.25 -33.6 Q-33.7 -31.9 -33.75 -30.1 L-33.55 -26.65 Q-33.3 -24.9 -32.0 -23.85 -31.05 -23.1 -29.9 -22.65 -27.6 -21.5 -25.1 -20.7 L-23.35 -20.2 -21.8 -21.35 -26.8 -27.6 Q-26.85 -30.45 -27.2 -33.2 -27.3 -33.9 -27.8 -34.45 L-28.8 -35.8 Q-30.5 -38.1 -30.95 -40.9 L-28.7 -43.75 Q-26.35 -46.3 -23.15 -46.35 L-22.05 -45.8 -19.9 -43.7 -16.4 -39.1 -12.15 -33.2 -14.1 -29.95 -17.35 -23.25 -18.85 -19.85 -8.75 -33.1 M15.0 -13.35 L14.2 -12.6 13.8 -2.85 15.0 -13.35 M20.0 -14.4 L18.6 -14.8 17.8 -11.65 Q17.55 -10.65 18.05 -9.7 L20.4 -4.95 21.3 -3.25 22.2 -1.8 21.45 -15.25 20.0 -14.4 M18.8 -6.0 L15.8 -11.8 15.2 -4.2 Q14.9 -0.4 14.75 3.4 14.55 7.45 17.2 10.75 L19.95 13.5 Q21.45 14.75 23.25 15.6 24.9 16.5 26.75 16.9 L28.9 17.45 34.7 17.5 36.5 14.8 34.9 14.45 Q31.0 13.65 28.3 10.8 25.7 8.05 24.0 4.6 L20.7 -2.2 18.8 -6.0 M22.8 -11.55 Q22.85 -9.95 23.4 -8.5 23.8 -7.5 24.55 -6.55 25.65 -5.1 26.85 -4.1 27.9 -7.45 27.05 -10.95 26.2 -14.55 23.45 -17.05 22.65 -14.55 22.8 -11.55 M35.0 -13.15 Q34.0 -12.45 32.7 -12.45 L32.2 -12.2 34.6 -10.05 Q36.15 -8.65 36.7 -6.5 L38.0 -1.4 39.95 0.05 40.4 -1.8 40.75 -5.05 40.5 -8.1 Q39.8 -11.45 38.6 -14.7 L38.2 -14.95 35.0 -13.15 M28.25 -8.85 Q28.6 -6.9 29.25 -5.05 29.85 -3.3 30.9 -1.7 33.0 1.5 35.4 4.5 36.85 6.35 37.8 8.5 37.7 4.7 37.15 0.95 L36.4 -2.95 35.45 -5.55 Q34.35 -7.8 32.35 -9.55 L27.8 -12.6 28.25 -8.85 M24.65 -5.25 Q25.05 -3.2 25.6 -1.1 L26.85 2.85 28.35 6.05 Q29.65 8.35 31.45 10.05 32.9 11.45 34.6 12.2 L36.0 11.1 32.65 5.15 28.4 -1.05 24.65 -5.25 M-16.1 -1.35 L-15.95 -1.1 -14.2 0.05 Q-13.5 -0.35 -13.15 -0.95 -10.3 -5.3 -8.6 -10.2 -11.4 -9.8 -13.0 -7.7 L-14.5 -5.35 Q-15.5 -3.45 -16.1 -1.35 M-21.4 -4.55 L-21.9 -1.85 -20.4 -0.95 -19.0 -0.35 -17.4 0.2 -15.15 -8.6 -16.35 -9.7 -17.4 -9.6 Q-17.95 -10.0 -18.15 -10.65 L-18.25 -11.2 -18.3 -12.8 -18.6 -13.2 -21.4 -4.55 M-21.85 -31.2 L-22.8 -33.2 -25.85 -29.8 -25.8 -29.2 Q-25.65 -28.35 -24.85 -27.9 L-24.25 -27.55 -23.6 -28.2 -22.55 -29.6 -21.85 -31.2" fill="#000000" fill-rule="evenodd" stroke="none"/>
    <path d="M-8.75 -33.1 L-18.85 -19.85 -17.35 -23.25 -14.1 -29.95 -12.15 -33.2 -11.2 -34.0 -8.75 -33.1" fill="#999999" fill-rule="evenodd" stroke="none"/>
    <path d="M-30.95 -40.9 Q-30.5 -38.1 -28.8 -35.8 L-27.8 -34.45 Q-27.3 -33.9 -27.2 -33.2 -26.85 -30.45 -26.8 -27.6 L-21.8 -21.35 -23.35 -20.2 -25.1 -20.7 Q-27.6 -21.5 -29.9 -22.65 -31.05 -23.1 -32.0 -23.85 -33.3 -24.9 -33.55 -26.65 L-33.75 -30.1 Q-33.7 -31.9 -33.25 -33.6 L-31.05 -40.8 -31.0 -41.0 -30.95 -40.9 M20.0 -14.4 L21.45 -15.25 22.2 -1.8 21.3 -3.25 20.4 -4.95 18.05 -9.7 Q17.55 -10.65 17.8 -11.65 L18.6 -14.8 20.0 -14.4 M15.0 -13.35 L13.8 -2.85 14.2 -12.6 15.0 -13.35 M35.0 -13.15 L38.2 -14.95 38.6 -14.7 Q39.8 -11.45 40.5 -8.1 L40.75 -5.05 40.4 -1.8 39.95 0.05 38.0 -1.4 36.7 -6.5 Q36.15 -8.65 34.6 -10.05 L32.2 -12.2 32.7 -12.45 Q34.0 -12.45 35.0 -13.15 M22.8 -11.55 Q22.65 -14.55 23.45 -17.05 26.2 -14.55 27.05 -10.95 27.9 -7.45 26.85 -4.1 25.65 -5.1 24.55 -6.55 23.8 -7.5 23.4 -8.5 22.85 -9.95 22.8 -11.55 M-21.85 -31.2 L-22.55 -29.6 -23.6 -28.2 -24.25 -27.55 -24.85 -27.9 Q-25.65 -28.35 -25.8 -29.2 L-25.85 -29.8 -22.8 -33.2 -21.85 -31.2 M-21.4 -4.55 L-18.6 -13.2 -18.3 -12.8 -18.25 -11.2 -18.15 -10.65 Q-17.95 -10.0 -17.4 -9.6 L-16.35 -9.7 -15.15 -8.6 -17.4 0.2 -19.0 -0.35 -20.4 -0.95 -21.9 -1.85 -21.4 -4.55 M-16.1 -1.35 Q-15.5 -3.45 -14.5 -5.35 L-13.0 -7.7 Q-11.4 -9.8 -8.6 -10.2 -10.3 -5.3 -13.15 -0.95 -13.5 -0.35 -14.2 0.05 L-15.95 -1.1 -16.1 -1.35" fill="#333333" fill-rule="evenodd" stroke="none"/>
  </g>
</svg>
