<?xml version="1.0" encoding="UTF-8" standalone="no"?>
<svg xmlns:xlink="http://www.w3.org/1999/xlink" height="90.95px" width="85.1px" xmlns="http://www.w3.org/2000/svg">
  <g transform="matrix(1.0, 0.0, 0.0, 1.0, 39.2, 46.65)">
    <path d="M-5.75 35.85 L-5.95 35.8 -6.05 35.75 Q-14.55 33.95 -17.4 25.1 -17.65 21.45 -18.2 17.9 -19.45 10.25 -20.3 2.75 -22.25 -14.2 -11.1 -26.6 -8.5 -29.5 -4.8 -30.8 5.3 -33.95 15.85 -32.2 23.9 -31.1 30.0 -25.8 38.7 -18.3 40.35 -6.7 41.75 3.25 40.05 13.25 39.45 16.85 38.25 20.1 37.75 20.65 37.4 21.4 L37.25 21.8 36.45 23.45 36.15 23.95 35.45 24.95 34.25 26.4 33.6 26.8 33.6 22.95 33.6 22.6 33.7 19.6 33.8 15.45 33.7 10.8 33.7 10.2 Q33.75 8.5 32.85 7.75 L31.75 6.85 30.55 5.85 30.25 5.55 29.05 4.35 28.15 3.45 27.9 3.15 27.0 2.0 26.5 1.15 26.1 0.45 Q24.75 -2.3 23.9 -5.15 L23.45 -6.8 23.3 -7.35 23.2 -7.9 23.2 -6.4 23.1 -5.0 22.8 -0.8 22.7 0.0 21.2 8.25 21.1 8.9 20.9 10.0 20.85 10.45 20.8 10.6 20.35 13.05 20.35 13.1 20.2 13.6 20.05 14.4 20.05 14.8 19.95 15.45 19.65 16.8 19.55 17.3 Q19.05 19.2 18.8 21.2 L18.7 22.15 18.65 23.0 18.6 23.4 18.6 23.2 18.6 22.25 Q18.5 18.8 19.15 15.6 L19.55 13.8 19.75 12.8 19.85 12.2 19.9 11.8 20.2 9.8 Q20.65 7.15 20.25 4.6 L20.2 4.2 Q20.0 1.9 19.4 -0.2 L19.2 -1.0 17.85 -6.4 16.45 -10.65 16.2 -11.2 16.15 -10.2 16.1 -9.8 15.75 -8.4 15.65 -8.2 15.5 -7.65 15.15 -6.2 15.05 -5.8 14.0 -2.2 13.85 -1.8 12.95 2.0 12.4 5.6 12.35 6.0 Q12.15 6.45 12.25 7.0 12.5 8.05 12.4 9.2 12.25 12.85 12.95 16.2 L13.05 16.6 13.4 18.0 Q13.7 19.5 14.15 20.8 L14.3 21.15 14.5 21.8 14.5 22.0 Q14.55 22.55 14.85 22.95 L15.35 24.0 15.95 25.25 16.15 25.6 Q16.3 26.2 16.6 26.6 L17.1 27.55 17.3 28.05 17.45 28.4 17.95 30.0 18.1 30.35 18.25 31.6 18.15 32.9 18.1 33.4 18.05 33.6 17.95 34.2 17.2 36.6 17.05 37.0 16.9 37.5 16.45 38.25 16.45 37.8 16.5 37.4 16.55 36.6 16.6 34.6 16.3 31.4 16.25 31.2 16.15 30.8 16.05 30.6 15.9 30.25 15.7 29.6 15.65 29.4 14.9 27.65 14.6 27.2 13.0 25.0 12.8 24.8 12.75 24.75 11.85 23.7 11.5 23.15 11.3 22.95 11.05 22.65 11.0 22.4 10.4 21.4 10.25 21.2 9.2 19.3 9.15 19.2 Q8.55 18.2 8.3 16.8 L8.3 16.6 8.15 15.8 8.1 14.8 Q7.9 11.5 8.4 8.4 8.75 6.45 9.4 4.6 L9.55 4.2 9.7 3.65 10.75 0.2 10.9 -0.35 11.15 -1.4 11.65 -4.8 11.7 -5.4 11.7 -8.6 11.65 -9.6 11.6 -10.2 Q11.35 -11.4 10.8 -12.2 L10.65 -12.4 9.85 -13.45 9.35 -13.75 7.8 -14.6 Q6.45 -15.2 4.8 -15.4 L4.6 -15.35 4.55 -14.85 4.55 -14.0 4.8 -12.8 Q4.95 -12.25 4.6 -12.2 L4.25 -12.3 Q2.75 -13.0 1.6 -13.8 L1.65 -13.45 2.0 -11.8 Q0.1 -12.75 -1.85 -14.55 L-2.15 -14.65 Q-2.9 -14.5 -3.4 -14.0 L-5.55 -11.75 -6.85 -10.25 Q-8.9 -7.85 -9.8 -5.0 L-10.05 -4.45 -11.0 -2.4 -12.2 1.0 -12.75 3.0 -12.9 3.6 -13.55 6.8 -13.65 7.8 Q-14.2 11.5 -14.05 15.4 L-13.75 19.0 -13.45 21.4 Q-13.1 24.05 -12.0 26.4 L-10.9 28.55 -10.2 29.8 -9.2 30.95 -8.7 31.35 -8.3 31.6 -8.2 31.65 -8.0 31.75 -7.6 31.8 -5.9 31.6 -5.75 31.5 -5.45 31.3 -3.65 29.75 Q-3.1 29.2 -3.2 29.4 L-3.3 29.8 Q-3.35 31.35 -3.85 32.8 L-4.1 33.6 Q-4.45 34.95 -5.65 35.75 L-5.75 35.85" fill="#ff3511" fill-rule="evenodd" stroke="none"/>
    <path d="M-5.75 35.85 L-5.65 35.75 Q-4.45 34.95 -4.1 33.6 L-3.85 32.8 Q-3.35 31.35 -3.3 29.8 L-3.2 29.4 Q-3.1 29.2 -3.65 29.75 L-5.45 31.3 -5.75 31.5 -5.9 31.6 -7.6 31.8 -8.0 31.75 -8.2 31.65 -8.3 31.6 -8.1 31.0 -8.05 30.4 Q-7.75 29.0 -7.1 27.9 L-7.0 27.6 Q-7.1 24.8 -4.6 23.65 L-2.8 23.4 -1.4 23.5 -1.05 23.35 Q-0.2 22.6 -0.45 21.4 L-0.6 21.2 Q-0.9 20.7 -0.85 19.8 -0.8 19.15 -1.35 18.75 L-1.7 18.2 -1.75 18.0 Q-2.15 17.3 -3.0 17.4 -4.6 17.55 -4.5 15.8 L-4.4 15.65 -1.85 14.3 -1.5 13.8 -1.45 13.6 Q-1.25 12.65 -1.75 11.95 L-2.45 11.05 -2.95 10.55 Q-3.65 9.95 -4.6 9.95 -5.4 9.9 -6.0 10.2 L-7.05 10.7 -7.4 10.85 -7.6 10.9 -7.65 10.95 -8.35 11.65 -8.75 12.4 Q-9.35 13.85 -8.5 14.95 L-8.2 15.2 Q-7.5 15.45 -7.25 16.05 L-7.25 16.4 -7.3 17.0 -7.3 17.2 -7.35 17.6 Q-7.6 18.4 -7.0 18.5 L-6.85 18.6 Q-6.75 19.15 -7.0 19.4 L-8.05 20.6 -9.85 22.15 -11.45 23.15 -12.8 23.2 Q-13.1 24.5 -12.0 24.3 L-11.8 24.2 -11.6 24.0 -10.75 23.45 -10.2 23.25 Q-8.95 23.05 -8.45 23.85 L-8.25 24.4 Q-7.75 26.3 -8.35 28.2 L-9.2 30.95 -10.2 29.8 -10.9 28.55 -12.0 26.4 Q-13.1 24.05 -13.45 21.4 L-13.75 19.0 -14.05 15.4 Q-14.2 11.5 -13.65 7.8 L-13.55 6.8 -12.9 3.6 -12.75 3.0 -12.2 1.0 -11.0 -2.4 -10.05 -4.45 -9.8 -5.0 Q-8.9 -7.85 -6.85 -10.25 L-5.55 -11.75 -3.4 -14.0 Q-2.9 -14.5 -2.15 -14.65 L-1.85 -14.55 Q0.1 -12.75 2.0 -11.8 L1.65 -13.45 1.6 -13.8 Q2.75 -13.0 4.25 -12.3 L4.6 -12.2 Q4.95 -12.25 4.8 -12.8 L4.55 -14.0 4.55 -14.85 4.6 -15.35 4.8 -15.4 Q6.45 -15.2 7.8 -14.6 L7.8 -13.6 Q7.75 -12.7 7.15 -12.25 L6.65 -11.95 4.4 -10.4 4.2 -10.2 4.3 -9.0 Q4.3 -8.1 3.95 -7.65 3.7 -7.3 3.2 -7.2 3.0 -7.2 2.95 -7.3 L2.35 -7.25 1.8 -6.75 2.1 -6.5 3.2 -6.65 3.75 -6.5 5.2 -5.4 5.35 -5.0 5.85 -3.8 6.0 -3.6 Q6.5 -3.2 6.55 -2.6 L6.65 -1.8 Q6.7 -0.95 6.15 -0.45 5.35 0.35 4.9 1.25 L4.9 1.45 5.4 2.0 Q5.85 2.65 6.6 2.55 L7.0 2.45 Q7.95 2.15 8.75 1.5 L9.05 1.3 Q10.25 0.55 10.4 -1.0 L10.3 -1.55 Q9.65 -3.55 8.2 -5.2 L8.1 -5.4 7.95 -6.2 Q7.8 -8.0 9.2 -8.8 L10.8 -9.3 Q11.0 -9.3 11.1 -9.45 L11.6 -10.2 11.65 -9.6 11.7 -8.6 11.7 -5.4 11.65 -4.8 11.15 -1.4 10.9 -0.35 10.75 0.2 9.7 3.65 9.55 4.2 9.4 4.6 Q8.75 6.45 8.4 8.4 7.9 11.5 8.1 14.8 L8.15 15.8 8.3 16.6 8.3 16.8 Q8.55 18.2 9.15 19.2 L9.2 19.3 10.25 21.2 10.4 21.4 11.0 22.4 11.05 22.65 11.3 22.95 11.5 23.15 11.85 23.7 11.8 23.7 11.55 23.65 10.7 25.05 10.6 25.4 Q10.65 26.5 11.8 26.7 L12.6 26.9 13.05 27.4 13.25 28.6 Q13.35 29.25 13.05 29.45 L11.7 30.7 11.6 31.0 11.7 34.0 11.8 34.2 Q12.3 34.65 12.5 35.6 L12.45 36.2 Q12.1 36.7 12.15 37.6 12.35 40.55 11.75 43.25 L9.35 44.3 Q2.95 39.7 -4.45 36.8 L-4.8 36.05 -5.75 35.85 M16.55 36.6 L16.5 37.4 16.45 37.8 16.45 38.25 16.9 37.5 16.85 37.6 16.85 38.6 17.05 38.95 17.3 39.25 17.4 39.6 17.4 40.9 17.0 40.9 14.45 42.05 Q12.85 42.1 12.75 40.6 12.6 38.95 13.35 37.55 L13.65 37.0 Q14.15 35.9 15.6 36.25 L16.0 36.35 Q16.35 36.4 16.55 36.6 M15.35 24.0 L14.85 22.95 Q14.55 22.55 14.5 22.0 L14.5 21.8 14.3 21.15 14.15 20.8 Q13.7 19.5 13.4 18.0 L13.05 16.6 12.95 16.2 Q12.25 12.85 12.4 9.2 12.5 8.05 12.25 7.0 12.15 6.45 12.35 6.0 L12.4 5.6 12.95 2.0 13.85 -1.8 14.0 -2.2 15.05 -5.8 15.15 -6.2 15.5 -7.65 15.65 -8.2 15.75 -8.4 16.1 -9.8 16.15 -10.2 16.2 -11.2 16.45 -10.65 17.85 -6.4 19.2 -1.0 19.4 -0.2 Q20.0 1.9 20.2 4.2 L20.25 4.6 Q20.65 7.15 20.2 9.8 L19.9 11.8 19.85 12.2 19.75 12.8 19.55 13.8 19.15 15.6 Q18.5 18.8 18.6 22.25 L17.2 23.4 17.1 23.5 18.2 24.05 18.4 24.1 Q18.8 24.1 19.0 24.4 19.4 24.85 20.2 25.0 L20.65 22.8 20.7 22.6 21.0 21.6 Q21.9 19.95 23.2 18.6 L23.4 18.45 Q24.25 18.25 24.25 19.2 L24.3 21.0 24.3 21.4 24.4 23.2 24.3 23.55 24.1 24.4 24.1 27.2 24.1 27.6 23.75 28.95 Q23.35 29.65 23.4 30.6 23.45 31.25 24.0 31.3 24.85 31.45 25.1 30.65 L25.0 30.0 24.9 29.2 24.9 29.0 24.8 27.2 Q24.8 24.95 25.05 22.8 L25.1 22.2 Q25.15 20.0 25.6 18.0 L25.85 17.25 26.15 16.55 Q26.35 15.95 26.65 15.45 L26.95 14.5 26.65 14.35 Q26.05 14.05 25.95 13.4 L25.75 13.1 23.6 12.95 22.8 13.15 20.35 13.1 20.35 13.05 20.8 10.6 20.85 10.45 20.9 10.0 21.1 8.9 21.2 8.25 22.7 0.0 22.8 -0.8 23.1 -5.0 23.2 -6.4 23.2 -7.9 23.3 -7.35 23.45 -6.8 23.9 -5.15 Q24.75 -2.3 26.1 0.45 L26.5 1.15 27.0 2.0 27.9 3.15 28.15 3.45 29.05 4.35 30.25 5.55 30.55 5.85 31.75 6.85 32.85 7.75 Q33.75 8.5 33.7 10.2 L33.7 10.8 33.8 15.45 Q33.35 14.0 32.55 13.05 32.25 12.75 31.6 12.75 L30.2 12.9 30.0 12.95 29.4 13.05 29.2 13.1 Q28.5 13.25 28.25 13.65 L28.45 14.2 28.6 14.6 Q29.5 16.15 29.65 18.0 L29.7 19.0 Q29.9 21.3 29.7 23.4 L29.5 25.0 29.45 25.4 Q29.15 27.4 28.4 29.2 L27.75 31.0 27.65 31.2 Q27.5 31.9 27.9 32.15 L28.0 32.4 28.05 33.7 25.8 35.25 22.5 40.95 19.8 40.95 19.5 40.15 19.35 39.8 Q18.7 36.6 18.45 33.2 18.25 30.7 18.7 28.4 L18.8 27.4 18.75 26.0 18.5 25.35 18.4 25.0 Q18.4 24.4 17.95 24.3 L16.4 24.05 15.35 24.0 M18.7 22.15 L18.8 21.2 Q19.05 19.2 19.55 17.3 L19.65 16.8 19.95 15.45 20.8 16.6 20.95 16.8 21.1 17.15 21.35 17.65 Q21.95 18.7 21.2 19.6 L19.95 20.75 19.65 21.05 18.7 22.15 M33.6 22.95 L33.6 26.8 34.25 26.4 35.45 24.95 36.15 23.95 36.45 23.45 37.25 21.8 37.4 21.4 Q37.75 20.65 38.25 20.1 35.65 26.9 30.4 31.75 L30.25 31.6 29.65 28.8 Q29.5 27.7 29.7 26.8 L29.85 26.0 29.95 25.6 Q30.65 23.65 32.05 22.45 L32.4 22.2 Q32.9 21.9 33.35 22.45 L33.55 22.8 33.6 22.95 M0.45 18.25 L0.75 18.15 1.85 18.55 2.1 18.7 3.2 18.6 Q5.1 17.3 4.8 14.8 4.65 13.6 3.8 12.95 L3.35 12.7 2.8 12.55 Q0.8 12.3 0.0 14.2 L-0.3 15.2 Q-0.5 16.55 -0.25 17.8 L0.0 18.45 0.45 18.25 M-12.3 13.1 L-12.4 13.15 -12.7 13.35 Q-13.45 13.9 -13.55 14.8 L-13.65 15.8 -13.55 16.6 Q-13.05 17.95 -11.8 18.05 -10.25 18.2 -9.5 16.85 -9.2 16.2 -9.25 15.4 -9.3 14.55 -9.85 13.85 L-10.6 13.2 -10.8 13.25 -12.3 13.1" fill="#ffcc66" fill-rule="evenodd" stroke="none"/>
    <path d="M-8.3 31.6 L-8.7 31.35 -9.2 30.95 -8.35 28.2 Q-7.75 26.3 -8.25 24.4 L-8.45 23.85 Q-8.95 23.05 -10.2 23.25 L-10.75 23.45 -11.6 24.0 -11.8 24.2 -12.0 24.3 Q-13.1 24.5 -12.8 23.2 L-11.45 23.15 -9.85 22.15 -8.05 20.6 -7.0 19.4 Q-6.75 19.15 -6.85 18.6 L-7.0 18.5 Q-7.6 18.4 -7.35 17.6 L-7.3 17.2 -7.3 17.0 -7.25 16.4 -7.25 16.05 Q-7.5 15.45 -8.2 15.2 L-8.5 14.95 Q-9.35 13.85 -8.75 12.4 L-8.35 11.65 -7.65 10.95 -7.6 10.9 -7.4 10.85 -7.05 10.7 -6.0 10.2 Q-5.4 9.9 -4.6 9.95 -3.65 9.95 -2.95 10.55 L-2.45 11.05 -1.75 11.95 Q-1.25 12.65 -1.45 13.6 L-1.5 13.8 -1.85 14.3 -4.4 15.65 -4.5 15.8 Q-4.6 17.55 -3.0 17.4 -2.15 17.3 -1.75 18.0 L-1.7 18.2 -1.35 18.75 Q-0.8 19.15 -0.85 19.8 -0.9 20.7 -0.6 21.2 L-0.45 21.4 Q-0.2 22.6 -1.05 23.35 L-1.4 23.5 -2.8 23.4 -4.6 23.65 Q-7.1 24.8 -7.0 27.6 L-7.1 27.9 Q-7.75 29.0 -8.05 30.4 L-8.1 31.0 -8.3 31.6 M7.8 -14.6 L9.35 -13.75 9.85 -13.45 10.65 -12.4 10.8 -12.2 Q11.35 -11.4 11.6 -10.2 L11.1 -9.45 Q11.0 -9.3 10.8 -9.3 L9.2 -8.8 Q7.8 -8.0 7.95 -6.2 L8.1 -5.4 8.2 -5.2 Q9.65 -3.55 10.3 -1.55 L10.4 -1.0 Q10.25 0.55 9.05 1.3 L8.75 1.5 Q7.95 2.15 7.0 2.45 L6.6 2.55 Q5.85 2.65 5.4 2.0 L4.9 1.45 4.9 1.25 Q5.35 0.35 6.15 -0.45 6.7 -0.95 6.65 -1.8 L6.55 -2.6 Q6.5 -3.2 6.0 -3.6 L5.85 -3.8 5.35 -5.0 5.2 -5.4 3.75 -6.5 3.2 -6.65 2.1 -6.5 1.8 -6.75 2.35 -7.25 2.95 -7.3 Q3.0 -7.2 3.2 -7.2 3.7 -7.3 3.95 -7.65 4.3 -8.1 4.3 -9.0 L4.2 -10.2 4.4 -10.4 6.65 -11.95 7.15 -12.25 Q7.75 -12.7 7.8 -13.6 L7.8 -14.6 M11.85 23.7 L12.75 24.75 12.8 24.8 13.0 25.0 14.6 27.2 14.9 27.65 15.65 29.4 15.7 29.6 15.9 30.25 16.05 30.6 16.15 30.8 16.25 31.2 16.3 31.4 16.6 34.6 16.55 36.6 Q16.35 36.4 16.0 36.35 L15.6 36.25 Q14.15 35.9 13.65 37.0 L13.35 37.55 Q12.6 38.95 12.75 40.6 12.85 42.1 14.45 42.05 L11.75 43.25 Q12.35 40.55 12.15 37.6 12.1 36.7 12.45 36.2 L12.5 35.6 Q12.3 34.65 11.8 34.2 L11.7 34.0 11.6 31.0 11.7 30.7 13.05 29.45 Q13.35 29.25 13.25 28.6 L13.05 27.4 12.6 26.9 11.8 26.7 Q10.65 26.5 10.6 25.4 L10.7 25.05 11.55 23.65 11.8 23.7 11.85 23.7 M16.9 37.5 L17.05 37.0 17.2 36.6 17.95 34.2 18.05 33.6 18.1 33.4 18.15 32.9 18.25 31.6 18.1 30.35 17.95 30.0 17.45 28.4 17.3 28.05 17.1 27.55 16.6 26.6 Q16.3 26.2 16.15 25.6 L15.95 25.25 15.35 24.0 16.4 24.05 17.95 24.3 Q18.4 24.4 18.4 25.0 L18.5 25.35 18.75 26.0 18.8 27.4 18.7 28.4 Q18.25 30.7 18.45 33.2 18.7 36.6 19.35 39.8 L19.5 40.15 19.8 40.95 17.4 40.9 17.4 39.6 17.3 39.25 17.05 38.95 16.85 38.6 16.85 37.6 16.9 37.5 M18.6 22.25 L18.6 23.2 18.6 23.4 18.65 23.0 18.7 22.15 19.65 21.05 19.95 20.75 21.2 19.6 Q21.95 18.7 21.35 17.65 L21.1 17.15 20.95 16.8 20.8 16.6 19.95 15.45 20.05 14.8 20.05 14.4 20.2 13.6 20.35 13.1 22.8 13.15 23.6 12.95 25.75 13.1 25.95 13.4 Q26.05 14.05 26.65 14.35 L26.95 14.5 26.65 15.45 Q26.35 15.95 26.15 16.55 L25.85 17.25 25.6 18.0 Q25.15 20.0 25.1 22.2 L25.05 22.8 Q24.8 24.95 24.8 27.2 L24.9 29.0 24.9 29.2 25.0 30.0 25.1 30.65 Q24.85 31.45 24.0 31.3 23.45 31.25 23.4 30.6 23.35 29.65 23.75 28.95 L24.1 27.6 24.1 27.2 24.1 24.4 24.3 23.55 24.4 23.2 24.3 21.4 24.3 21.0 24.25 19.2 Q24.25 18.25 23.4 18.45 L23.2 18.6 Q21.9 19.95 21.0 21.6 L20.7 22.6 20.65 22.8 20.2 25.0 Q19.4 24.85 19.0 24.4 18.8 24.1 18.4 24.1 L18.2 24.05 17.1 23.5 17.2 23.4 18.6 22.25 M33.8 15.45 L33.7 19.6 33.6 22.6 33.6 22.95 33.55 22.8 33.35 22.45 Q32.9 21.9 32.4 22.2 L32.05 22.45 Q30.65 23.65 29.95 25.6 L29.85 26.0 29.7 26.8 Q29.5 27.7 29.65 28.8 L30.25 31.6 30.4 31.75 28.05 33.7 28.0 32.4 27.9 32.15 Q27.5 31.9 27.65 31.2 L27.75 31.0 28.4 29.2 Q29.15 27.4 29.45 25.4 L29.5 25.0 29.7 23.4 Q29.9 21.3 29.7 19.0 L29.65 18.0 Q29.5 16.15 28.6 14.6 L28.45 14.2 28.25 13.65 Q28.5 13.25 29.2 13.1 L29.4 13.05 30.0 12.95 30.2 12.9 31.6 12.75 Q32.25 12.75 32.55 13.05 33.35 14.0 33.8 15.45 M0.45 18.25 L0.0 18.45 -0.25 17.8 Q-0.5 16.55 -0.3 15.2 L0.0 14.2 Q0.8 12.3 2.8 12.55 L3.35 12.7 3.8 12.95 Q4.65 13.6 4.8 14.8 5.1 17.3 3.2 18.6 L2.1 18.7 1.85 18.55 0.75 18.15 0.45 18.25 M-12.3 13.1 L-10.8 13.25 -10.6 13.2 -9.85 13.85 Q-9.3 14.55 -9.25 15.4 -9.2 16.2 -9.5 16.85 -10.25 18.2 -11.8 18.05 -13.05 17.95 -13.55 16.6 L-13.65 15.8 -13.55 14.8 Q-13.45 13.9 -12.7 13.35 L-12.4 13.15 -12.3 13.1" fill="#770000" fill-rule="evenodd" stroke="none"/>
    <path d="M6.4 -2.35 Q9.7 4.05 6.2 10.8 L4.6 10.9 4.45 11.0 5.9 11.15 6.95 12.25 -1.55 16.65 -2.1 16.55 1.7 12.6 Q-4.6 15.0 -9.7 10.7 -10.5 10.05 -10.8 8.95 -12.35 2.9 -12.05 -3.25 L-11.0 -5.1 -10.9 -7.1 Q-3.3 -12.25 2.9 -6.9 5.05 -5.05 6.4 -2.35 M37.05 7.15 Q38.0 13.9 30.65 14.15 L24.7 14.6 18.85 13.45 20.8 17.45 19.0 17.55 17.5 14.75 15.8 15.75 15.4 15.55 Q13.6 11.8 13.35 7.8 13.9 7.3 14.55 7.0 L16.2 6.3 16.8 7.95 17.8 4.0 21.45 4.1 22.1 5.0 Q30.05 4.3 36.7 6.75 L37.05 7.15 M33.05 10.45 L32.65 9.85 Q31.85 8.8 30.8 8.25 L28.95 8.05 Q25.9 8.05 23.35 9.0 L22.5 10.55 Q27.9 12.95 33.05 10.45 M20.7 30.15 L21.65 36.45 21.55 36.3 16.9 25.0 10.75 24.75 7.9 22.75 -3.7 28.6 -5.4 30.15 -5.2 28.55 -0.15 25.35 7.55 20.5 12.5 22.9 19.45 22.55 20.7 30.15 M-2.4 -2.0 L-3.0 -2.0 Q-9.7 4.55 -1.6 8.45 3.55 3.05 -2.4 -2.0" fill="#000000" fill-rule="evenodd" stroke="none"/>
    <path d="M-0.15 25.35 Q2.85 22.95 5.65 20.4 L8.05 18.15 Q8.55 18.75 13.4 21.05 L22.5 21.05 Q20.45 26.3 20.7 30.15 L19.45 22.55 12.5 22.9 7.55 20.5 -0.15 25.35 M5.2 31.0 L6.6 27.4 7.15 27.1 12.8 27.4 Q9.95 29.9 5.2 31.0 M3.4 30.0 L1.8 36.85 -2.35 35.0 -2.6 34.55 -3.0 34.35 -4.2 32.5 Q-1.5 33.35 0.7 32.05 L3.4 30.0 M17.1 37.35 L17.35 34.95 18.75 38.2 Q21.35 38.45 22.55 36.3 L23.45 34.7 Q23.9 41.75 18.2 39.35 17.05 38.8 17.1 37.35" fill="#ff3511" fill-rule="evenodd" stroke="none"/>
    <path d="M33.05 10.45 Q27.9 12.95 22.5 10.55 L23.35 9.0 Q25.9 8.05 28.95 8.05 L30.8 8.25 Q31.85 8.8 32.65 9.85 L33.05 10.45 M-2.4 -2.0 Q3.55 3.05 -1.6 8.45 -9.7 4.55 -3.0 -2.0 L-2.4 -2.0" fill="#ffffff" fill-rule="evenodd" stroke="none"/>
    <path d="M-12.45 -32.85 Q-9.35 -35.4 -6.1 -37.35 L0.85 -41.05 Q2.6 -41.95 4.5 -42.4 L8.3 -42.25 Q18.2 -39.95 27.15 -35.3 L31.4 -32.95 33.6 -31.35 Q33.7 -31.1 37.15 -26.75 L37.9 -25.8 37.95 -25.85 Q40.05 -23.1 41.0 -19.9 L43.0 -12.95 45.35 -2.55 45.85 1.6 Q46.0 3.75 45.5 5.65 L43.05 13.5 41.25 17.95 38.45 23.05 34.7 28.65 34.7 28.6 35.25 26.05 35.45 24.95 Q36.25 18.95 35.25 13.0 L34.3 7.25 34.15 6.25 32.15 4.0 29.05 -0.1 Q26.15 -4.75 23.8 -9.5 L22.35 -12.45 22.65 -11.7 23.65 -7.9 23.9 -5.6 23.9 -5.15 Q23.95 -2.05 23.6 1.0 23.05 5.75 21.7 10.2 21.05 12.25 20.8 14.45 L19.55 22.35 19.35 23.65 19.15 24.0 Q18.95 20.6 19.55 17.3 L19.7 16.4 20.05 14.8 20.35 13.05 20.65 11.35 20.8 10.6 20.85 10.45 20.9 10.0 21.1 8.9 21.2 8.25 21.45 6.15 21.7 2.15 Q21.65 -1.6 20.65 -5.1 L20.3 -6.15 18.0 -13.0 16.6 -17.4 Q16.8 -14.15 16.45 -10.65 L16.4 -10.3 15.9 -7.1 14.8 -1.95 Q14.3 0.7 14.1 3.4 L13.8 7.0 Q13.2 12.25 13.2 20.6 L12.9 19.2 Q12.3 16.2 12.2 13.2 11.25 15.5 10.6 17.85 10.1 19.6 11.1 21.1 12.0 22.55 13.2 23.65 L13.25 25.45 12.75 24.75 12.55 24.5 11.05 22.65 10.85 22.4 9.4 20.95 Q9.1 20.7 9.2 19.3 9.3 17.5 9.95 13.95 L11.95 3.25 Q12.65 -0.4 12.7 -4.45 L12.6 -9.7 Q12.45 -11.85 11.6 -13.8 L11.3 -14.45 10.75 -14.8 8.9 -15.85 Q7.3 -16.65 5.5 -17.1 L3.3 -17.4 3.65 -16.4 3.8 -16.0 4.55 -14.85 5.45 -13.45 1.0 -16.2 2.45 -13.9 -3.0 -16.15 -3.8 -15.4 -6.8 -12.05 Q-11.55 -5.95 -13.65 1.65 L-15.15 8.3 Q-16.15 14.0 -15.35 19.9 L-14.6 23.75 -13.1 27.9 -11.8 29.85 Q-10.6 31.25 -8.9 31.4 L-8.7 31.35 Q-7.15 30.9 -6.2 29.45 -4.9 27.55 -4.8 25.45 L-4.75 25.6 -4.7 26.4 Q-4.6 27.8 -4.8 29.2 -5.0 30.55 -5.9 31.6 L-6.75 32.3 Q-7.3 32.65 -7.95 32.85 L-9.25 32.95 Q-11.8 32.25 -13.2 30.1 -14.35 28.4 -14.95 26.5 L-15.8 23.8 -15.85 27.9 -15.55 31.8 Q-14.95 35.95 -13.25 39.85 L-12.1 42.4 Q-15.45 39.3 -17.85 35.4 -20.7 30.9 -21.95 25.8 L-23.15 20.85 Q-24.05 17.0 -23.55 12.95 L-23.2 10.2 -25.1 13.85 Q-26.25 15.85 -27.75 17.5 L-27.9 17.65 -26.7 14.05 -25.05 8.7 -24.25 5.25 Q-23.8 2.65 -24.05 0.0 L-24.4 -4.6 -29.0 6.2 Q-29.35 2.3 -29.05 -1.7 L-28.3 -7.0 -27.8 -9.2 -36.4 3.5 -35.55 0.5 Q-33.65 -4.6 -30.8 -9.2 L-29.55 -11.2 -31.35 -9.95 Q-34.95 -7.1 -38.0 -3.8 L-39.2 -2.4 Q-33.85 -11.6 -25.0 -17.35 -23.3 -18.4 -21.95 -19.95 L-21.2 -20.85 -22.7 -21.25 Q-25.6 -22.1 -28.45 -23.55 -29.75 -24.2 -30.4 -25.25 L-32.9 -29.2 Q-33.65 -30.55 -34.0 -32.05 -34.4 -33.75 -34.25 -35.5 -34.1 -37.25 -33.25 -38.8 L-30.5 -42.75 Q-28.65 -45.1 -26.25 -46.25 -24.9 -47.0 -23.45 -46.25 -21.35 -45.15 -20.1 -43.0 -18.3 -39.95 -17.0 -36.7 L-15.45 -32.8 -16.25 -31.95 -17.55 -29.95 -18.05 -28.9 -20.1 -22.7 -17.55 -26.5 -14.8 -30.25 -12.45 -32.85 M-15.2 -7.0 L-15.75 -6.2 -16.15 -5.15 -16.5 -3.8 -16.75 -2.2 -16.8 -1.9 -16.6 -1.8 -15.6 -0.85 -14.7 -0.8 -14.4 -1.6 -12.45 -6.0 -12.15 -6.55 Q-10.3 -9.4 -8.8 -12.2 L-9.6 -11.6 -9.8 -11.45 Q-10.75 -11.05 -11.65 -10.25 L-15.2 -7.0 M-20.8 -11.0 L-21.55 -7.4 Q-22.0 -5.25 -21.9 -3.0 L-21.9 -2.4 -21.85 -1.95 Q-21.7 -1.55 -21.2 -1.75 L-20.2 -1.65 -18.8 -1.5 Q-17.75 -1.35 -17.4 -2.2 L-17.35 -2.3 -17.15 -2.9 -16.0 -7.8 Q-15.65 -9.45 -16.0 -11.3 L-18.2 -11.4 -18.95 -11.3 -20.2 -11.2 Q-20.75 -11.35 -20.8 -11.0 M-27.3 -37.55 L-28.25 -39.4 -29.2 -41.4 -29.95 -40.75 -30.25 -40.45 Q-31.05 -39.45 -32.0 -38.8 L-32.15 -38.6 -33.6 -35.6 -33.7 -35.2 -33.7 -35.0 -33.4 -33.6 Q-32.8 -31.8 -31.8 -30.4 L-30.85 -28.75 -29.15 -26.05 Q-28.25 -24.85 -27.35 -24.45 L-27.05 -24.3 Q-26.3 -23.75 -25.2 -23.4 L-24.6 -23.15 -22.1 -22.15 -22.0 -22.6 -22.1 -22.95 -23.35 -25.0 -24.65 -27.15 -26.3 -30.35 Q-27.5 -33.3 -27.4 -36.4 L-27.25 -36.95 Q-27.1 -37.2 -27.3 -37.55 M-24.65 -38.05 L-24.9 -37.55 Q-25.15 -37.0 -25.85 -36.65 L-26.1 -36.5 -26.3 -36.35 Q-26.9 -36.0 -26.8 -35.0 -26.65 -33.2 -25.55 -31.95 L-25.4 -32.05 -25.2 -32.15 Q-24.15 -32.5 -23.4 -33.05 L-22.95 -33.3 Q-22.45 -33.55 -22.3 -34.4 L-22.3 -34.6 Q-22.0 -37.45 -22.8 -40.0 L-24.0 -39.0 -24.65 -38.05 M30.05 -7.25 L28.95 -8.55 26.55 -11.15 Q26.05 -11.65 26.0 -11.4 25.9 -9.85 26.6 -8.6 L26.9 -7.8 Q27.5 -5.55 28.35 -3.6 L28.7 -3.05 29.85 -1.45 30.3 -0.75 Q31.15 0.5 32.25 1.35 L33.3 2.15 Q33.7 -1.6 31.7 -4.95 L30.05 -7.25 M38.2 -17.8 Q37.6 -16.8 37.3 -15.6 36.65 -13.1 34.4 -12.0 L34.1 -11.75 Q33.65 -11.2 33.75 -10.4 L34.3 -6.8 35.7 -0.3 35.6 -0.2 35.45 0.0 Q35.25 0.75 35.55 1.05 36.05 1.5 37.0 1.35 L37.4 1.3 38.8 1.1 Q39.75 1.0 40.45 0.25 41.65 -1.0 41.7 -2.8 41.75 -6.15 41.1 -9.4 40.3 -13.25 38.85 -16.85 L38.2 -17.8 M19.0 -13.8 L18.85 -13.4 Q18.8 -12.9 18.9 -12.4 19.35 -10.1 20.3 -7.75 L21.3 -5.5 21.4 -5.6 21.6 -5.75 21.95 -5.9 Q22.7 -6.3 22.55 -7.6 22.05 -11.55 20.8 -15.4 19.55 -15.05 19.0 -13.8" fill="#000000" fill-rule="evenodd" stroke="none"/>
    <path d="M-12.45 -32.85 L-14.8 -30.25 -17.55 -26.5 -20.1 -22.7 -18.05 -28.9 -17.55 -29.95 -16.25 -31.95 -15.45 -32.8 -14.4 -33.4 -12.45 -32.85" fill="#999999" fill-rule="evenodd" stroke="none"/>
    <path d="M19.0 -13.8 Q19.55 -15.05 20.8 -15.4 22.05 -11.55 22.55 -7.6 22.7 -6.3 21.95 -5.9 L21.6 -5.75 21.4 -5.6 21.3 -5.5 20.3 -7.75 Q19.35 -10.1 18.9 -12.4 18.8 -12.9 18.85 -13.4 L19.0 -13.8 M38.2 -17.8 L38.85 -16.85 Q40.3 -13.25 41.1 -9.4 41.75 -6.15 41.7 -2.8 41.65 -1.0 40.45 0.25 39.75 1.0 38.8 1.1 L37.4 1.3 37.0 1.35 Q36.05 1.5 35.55 1.05 35.25 0.75 35.45 0.0 L35.6 -0.2 35.7 -0.3 34.3 -6.8 33.75 -10.4 Q33.65 -11.2 34.1 -11.75 L34.4 -12.0 Q36.65 -13.1 37.3 -15.6 37.6 -16.8 38.2 -17.8 M30.05 -7.25 L31.7 -4.95 Q33.7 -1.6 33.3 2.15 L32.25 1.35 Q31.15 0.5 30.3 -0.75 L29.85 -1.45 28.7 -3.05 28.35 -3.6 Q27.5 -5.55 26.9 -7.8 L26.6 -8.6 Q25.9 -9.85 26.0 -11.4 26.05 -11.65 26.55 -11.15 L28.95 -8.55 30.05 -7.25 M-24.65 -38.05 L-24.0 -39.0 -22.8 -40.0 Q-22.0 -37.45 -22.3 -34.6 L-22.3 -34.4 Q-22.45 -33.55 -22.95 -33.3 L-23.4 -33.05 Q-24.15 -32.5 -25.2 -32.15 L-25.4 -32.05 -25.55 -31.95 Q-26.65 -33.2 -26.8 -35.0 -26.9 -36.0 -26.3 -36.35 L-26.1 -36.5 -25.85 -36.65 Q-25.15 -37.0 -24.9 -37.55 L-24.65 -38.05 M-27.3 -37.55 Q-27.1 -37.2 -27.25 -36.95 L-27.4 -36.4 Q-27.5 -33.3 -26.3 -30.35 L-24.65 -27.15 -23.35 -25.0 -22.1 -22.95 -22.0 -22.6 -22.1 -22.15 -24.6 -23.15 -25.2 -23.4 Q-26.3 -23.75 -27.05 -24.3 L-27.35 -24.45 Q-28.25 -24.85 -29.15 -26.05 L-30.85 -28.75 -31.8 -30.4 Q-32.8 -31.8 -33.4 -33.6 L-33.7 -35.0 -33.7 -35.2 -33.6 -35.6 -32.15 -38.6 -32.0 -38.8 Q-31.05 -39.45 -30.25 -40.45 L-29.95 -40.75 -29.2 -41.4 -28.25 -39.4 -27.3 -37.55 M-20.8 -11.0 Q-20.75 -11.35 -20.2 -11.2 L-18.95 -11.3 -18.2 -11.4 -16.0 -11.3 Q-15.65 -9.45 -16.0 -7.8 L-17.15 -2.9 -17.35 -2.3 -17.4 -2.2 Q-17.75 -1.35 -18.8 -1.5 L-20.2 -1.65 -21.2 -1.75 Q-21.7 -1.55 -21.85 -1.95 L-21.9 -2.4 -21.9 -3.0 Q-22.0 -5.25 -21.55 -7.4 L-20.8 -11.0 M-15.2 -7.0 L-11.65 -10.25 Q-10.75 -11.05 -9.8 -11.45 L-9.6 -11.6 -8.8 -12.2 Q-10.3 -9.4 -12.15 -6.55 L-12.45 -6.0 -14.4 -1.6 -14.7 -0.8 -15.6 -0.85 -16.6 -1.8 -16.8 -1.9 -16.75 -2.2 -16.5 -3.8 -16.15 -5.15 -15.75 -6.2 -15.2 -7.0" fill="#333333" fill-rule="evenodd" stroke="none"/>
    <path d="M-4.15 27.2 L0.25 23.6 Q3.35 21.3 5.9 20.15 L6.2 20.2 6.25 20.55 Q6.15 21.15 4.05 22.5 L1.45 24.15 -0.55 25.85 Q-2.5 27.35 -3.7 27.35 L-4.15 27.2 M11.8 30.7 Q11.5 30.2 12.1 29.25 12.65 28.35 13.35 28.1 L13.4 28.05 Q13.8 28.4 13.8 28.95 L13.5 30.0 13.3 30.25 12.3 30.8 11.8 30.7 M13.5 31.65 L13.2 31.8 12.85 31.75 Q12.7 31.7 12.7 31.4 12.7 30.95 13.2 30.8 13.6 30.95 13.6 31.25 L13.5 31.65 M4.85 29.05 L4.9 29.4 4.6 30.9 4.0 32.2 3.6 31.5 Q3.95 29.15 4.7 28.95 L4.85 29.05" fill="#ff3511" fill-rule="evenodd" stroke="none"/>
  </g>
</svg>
