<?xml version="1.0" encoding="UTF-8" standalone="no"?>
<svg xmlns:xlink="http://www.w3.org/1999/xlink" height="96.65px" width="83.9px" xmlns="http://www.w3.org/2000/svg">
  <g transform="matrix(1.0, 0.0, 0.0, 1.0, 39.7, 47.05)">
    <path d="M-4.7 -8.85 Q-3.2 -8.2 -1.5 -8.05 2.2 -7.8 5.5 -8.85 L5.8 -9.0 6.3 -9.25 6.65 -9.35 7.35 -9.6 Q8.0 -9.8 8.45 -10.35 L9.3 -10.35 10.3 -10.45 Q11.35 -10.65 11.3 -11.7 L9.9 -11.85 Q8.65 -12.3 9.3 -13.7 10.15 -15.5 12.1 -14.95 12.85 -14.75 13.05 -14.1 13.2 -13.5 13.7 -13.55 L14.1 -13.65 Q14.95 -13.75 15.65 -14.15 L16.95 -14.85 19.1 -16.0 25.1 -19.3 25.65 -19.75 26.3 -20.0 26.5 -19.95 27.9 -18.9 Q25.8 -18.2 23.7 -17.1 L22.5 -16.5 19.3 -14.9 Q14.75 -12.55 10.7 -9.3 L10.25 -8.8 5.9 -1.9 5.8 -1.5 Q5.9 -0.6 6.7 0.3 L8.45 1.6 12.5 3.35 12.7 3.4 13.7 3.55 Q15.95 3.65 15.7 1.3 L15.05 -1.3 Q14.8 -1.95 14.95 -2.7 15.35 -4.35 17.1 -4.75 L17.7 -4.8 Q18.95 -4.8 19.9 -5.5 L20.1 -5.65 21.05 -5.45 21.35 -5.15 21.6 -4.85 22.1 -4.25 22.5 -3.9 23.05 -3.45 24.65 -1.85 25.5 -0.9 25.65 -0.7 Q26.1 0.05 26.9 0.35 L27.05 0.5 Q27.45 1.4 28.9 1.35 L30.1 1.2 31.25 1.1 32.9 1.1 33.25 1.2 33.6 1.45 33.75 3.15 32.55 4.55 32.1 5.05 28.7 8.3 28.6 8.45 Q28.95 9.2 28.9 10.1 L28.9 11.0 28.9 11.9 29.0 12.7 30.1 16.5 30.2 17.1 Q30.2 17.9 30.7 18.3 L31.1 19.1 Q31.25 19.95 30.5 19.8 L30.3 19.8 29.7 19.9 Q29.05 20.45 29.05 21.5 L29.4 23.5 29.55 23.9 30.5 26.3 31.5 28.4 30.75 30.0 30.25 28.75 28.95 25.7 28.85 25.5 Q27.6 22.65 25.65 20.55 25.35 20.25 25.55 19.5 L25.65 19.1 Q25.9 18.0 25.3 17.65 L25.15 17.5 Q24.85 16.75 23.7 16.95 L23.3 17.1 21.7 18.3 21.5 18.5 Q20.95 19.3 19.7 19.05 L19.4 18.85 Q18.6 17.55 18.25 15.9 L18.2 15.5 Q18.25 14.95 17.7 15.15 L17.5 15.2 16.7 15.35 Q15.5 15.6 15.5 14.5 15.45 13.75 15.1 13.3 L14.15 12.05 13.8 11.55 12.1 9.1 11.75 8.5 Q11.45 7.85 10.9 8.3 L10.7 8.45 10.1 8.55 9.3 8.85 8.3 9.25 Q4.2 10.65 1.1 13.7 L0.65 14.0 0.45 14.05 Q0.4 13.9 0.1 14.5 L-0.65 15.75 -1.0 16.25 Q-1.3 16.65 -1.25 17.1 -1.15 17.85 -1.75 18.25 L-3.3 18.6 Q-4.45 18.55 -5.0 19.65 L-5.95 21.45 Q-8.15 25.15 -8.3 29.3 L-8.3 30.1 -8.4 29.9 Q-8.4 29.5 -8.7 29.55 L-9.0 29.75 Q-9.5 30.65 -9.6 31.7 L-9.65 32.05 -9.7 31.95 -9.75 31.3 -9.8 30.9 Q-9.9 30.15 -10.3 29.9 L-10.7 30.45 -11.55 29.25 -12.75 27.5 -12.6 26.75 -11.55 22.3 -11.5 22.1 Q-11.1 20.0 -11.2 17.9 L-11.2 16.9 Q-11.2 15.95 -10.1 16.1 L-10.5 15.9 Q-11.3 15.55 -10.5 14.9 -9.9 14.4 -9.1 14.1 L-8.7 13.95 Q-7.6 13.75 -8.1 12.7 -8.45 11.95 -9.3 11.9 L-9.65 11.95 Q-10.7 12.4 -11.5 11.5 L-11.8 11.05 -12.15 10.3 Q-12.75 8.4 -11.65 6.7 L-11.35 6.25 -11.05 5.8 -10.55 4.9 -10.25 4.1 Q-10.0 3.4 -10.15 2.5 L-10.25 1.1 Q-10.2 0.15 -10.4 -0.7 L-10.6 -1.25 Q-12.25 -6.0 -14.7 -10.5 L-15.15 -11.25 Q-15.45 -11.55 -15.05 -11.85 L-13.9 -12.55 -12.3 -13.05 -10.5 -13.45 -10.15 -13.4 -9.85 -13.15 -7.25 -10.55 -4.7 -8.85 M-6.6 32.95 L-5.5 32.1 Q-2.55 29.8 -0.1 26.9 L0.45 26.25 0.7 26.2 2.3 26.0 2.7 25.95 3.05 25.85 Q4.05 25.45 4.9 24.3 L5.55 23.55 7.55 21.55 Q8.3 20.75 9.3 20.7 L9.9 20.8 Q10.55 20.95 10.75 21.5 L10.9 21.7 12.3 23.1 Q13.0 23.9 13.9 24.3 L14.3 24.5 15.9 25.7 16.55 26.05 16.85 26.2 Q17.5 26.65 18.45 27.0 L20.7 27.55 21.3 27.6 Q22.95 27.55 24.3 28.1 25.05 28.4 24.85 29.3 L24.75 29.7 24.6 30.25 Q24.15 31.4 24.4 32.7 L24.5 32.9 25.5 33.5 27.1 34.1 27.7 34.25 28.4 34.5 27.45 36.2 29.3 44.7 27.3 45.55 27.3 45.5 27.15 45.6 22.7 47.4 21.7 46.6 Q19.4 44.9 16.5 44.45 L13.35 44.2 13.25 43.5 13.2 42.7 Q13.25 42.2 12.85 41.95 12.1 41.5 11.1 41.6 L9.5 41.6 Q8.0 41.45 6.95 42.35 L6.65 42.9 6.5 45.7 5.5 46.15 3.95 49.6 -3.15 47.55 -3.7 46.75 Q-5.05 40.15 -8.3 34.25 L-7.3 33.5 -6.6 32.95" fill="#770000" fill-rule="evenodd" stroke="none"/>
    <path d="M19.1 -16.0 L16.95 -14.85 15.65 -14.15 Q14.95 -13.75 14.1 -13.65 L13.7 -13.55 Q13.2 -13.5 13.05 -14.1 12.85 -14.75 12.1 -14.95 10.15 -15.5 9.3 -13.7 8.65 -12.3 9.9 -11.85 L11.3 -11.7 Q11.35 -10.65 10.3 -10.45 L9.3 -10.35 8.45 -10.35 Q8.0 -9.8 7.35 -9.6 L6.65 -9.35 6.3 -9.25 5.8 -9.0 5.5 -8.85 Q2.2 -7.8 -1.5 -8.05 -3.2 -8.2 -4.7 -8.85 L-1.35 -11.4 Q0.75 -12.65 2.25 -14.4 L1.1 -15.7 6.9 -14.2 7.4 -15.4 7.7 -15.55 14.5 -16.8 18.95 -17.35 18.95 -17.05 19.1 -16.0 M-10.4 -0.7 Q-10.2 0.15 -10.25 1.1 L-10.15 2.5 Q-10.0 3.4 -10.25 4.1 L-10.55 4.9 -11.05 5.8 -11.35 6.25 -11.65 6.7 Q-12.75 8.4 -12.15 10.3 L-11.8 11.05 -11.5 11.5 Q-10.7 12.4 -9.65 11.95 L-9.3 11.9 Q-8.45 11.95 -8.1 12.7 -7.6 13.75 -8.7 13.95 L-9.1 14.1 Q-9.9 14.4 -10.5 14.9 -11.3 15.55 -10.5 15.9 L-10.1 16.1 Q-11.2 15.95 -11.2 16.9 L-11.2 17.9 Q-11.1 20.0 -11.5 22.1 L-13.8 16.8 Q-14.0 7.9 -10.45 -0.6 L-10.4 -0.7 M-8.3 29.3 Q-8.15 25.15 -5.95 21.45 L-5.0 19.65 Q-4.45 18.55 -3.3 18.6 L-1.75 18.25 Q-1.15 17.85 -1.25 17.1 -1.3 16.65 -1.0 16.25 L-0.65 15.75 0.1 14.5 Q0.4 13.9 0.45 14.05 L0.65 14.0 1.1 13.7 Q4.2 10.65 8.3 9.25 L9.3 8.85 10.1 8.55 10.7 8.45 10.9 8.3 Q11.45 7.85 11.75 8.5 L12.1 9.1 13.8 11.55 14.15 12.05 15.1 13.3 Q15.45 13.75 15.5 14.5 15.5 15.6 16.7 15.35 L17.5 15.2 17.7 15.15 Q18.25 14.95 18.2 15.5 L18.25 15.9 Q18.6 17.55 19.4 18.85 L19.7 19.05 Q20.95 19.3 21.5 18.5 L21.7 18.3 23.3 17.1 23.7 16.95 Q24.85 16.75 25.15 17.5 L25.3 17.65 Q25.9 18.0 25.65 19.1 L25.55 19.5 Q25.35 20.25 25.65 20.55 27.6 22.65 28.85 25.5 L28.35 26.7 25.5 33.5 24.5 32.9 24.4 32.7 Q24.15 31.4 24.6 30.25 L24.75 29.7 24.85 29.3 Q25.05 28.4 24.3 28.1 22.95 27.55 21.3 27.6 L20.7 27.55 18.45 27.0 Q17.5 26.65 16.85 26.2 L16.55 26.05 15.9 25.7 14.3 24.5 13.9 24.3 Q13.0 23.9 12.3 23.1 L10.9 21.7 10.75 21.5 Q10.55 20.95 9.9 20.8 L9.3 20.7 Q8.3 20.75 7.55 21.55 L5.55 23.55 4.9 24.3 Q4.05 25.45 3.05 25.85 L2.7 25.95 2.3 26.0 0.7 26.2 0.45 26.25 -0.1 26.9 Q-2.55 29.8 -5.5 32.1 L-6.6 32.95 -8.3 29.3 M29.55 23.9 L29.4 23.5 29.05 21.5 Q29.05 20.45 29.7 19.9 L30.3 19.8 30.5 19.8 Q31.25 19.95 31.1 19.1 L30.7 18.3 Q30.2 17.9 30.2 17.1 L30.1 16.5 29.0 12.7 28.9 11.9 28.9 11.0 30.5 14.6 32.0 17.75 29.55 23.9 M32.1 5.05 L32.55 4.55 33.75 3.15 33.75 3.5 Q33.85 6.65 33.3 9.75 L32.1 5.05 M33.6 1.45 L33.25 1.2 32.9 1.1 31.25 1.1 Q30.4 -2.95 29.9 -7.05 L29.7 -9.5 Q32.95 -4.4 33.6 1.45 M22.1 -4.25 L21.6 -4.85 21.35 -5.15 21.05 -5.45 20.1 -5.65 19.9 -5.5 Q18.95 -4.8 17.7 -4.8 L17.1 -4.75 Q15.35 -4.35 14.95 -2.7 14.8 -1.95 15.05 -1.3 L15.7 1.3 Q15.95 3.65 13.7 3.55 L12.7 3.4 12.5 3.35 8.45 1.6 6.7 0.3 Q5.9 -0.6 5.8 -1.5 L5.9 -1.9 10.25 -8.8 10.7 -9.3 Q14.75 -12.55 19.3 -14.9 20.35 -9.05 22.1 -4.25 M6.5 45.7 L6.65 42.9 6.95 42.35 Q8.0 41.45 9.5 41.6 L11.1 41.6 Q12.1 41.5 12.85 41.95 13.25 42.2 13.2 42.7 L13.25 43.5 13.35 44.2 Q9.9 44.25 6.5 45.7" fill="#ffcc66" fill-rule="evenodd" stroke="none"/>
    <path d="M-4.7 -8.85 L-7.25 -10.55 -9.85 -13.15 -10.15 -13.4 -10.5 -13.45 -12.3 -13.05 -13.9 -12.55 -15.05 -11.85 Q-15.45 -11.55 -15.15 -11.25 L-14.7 -10.5 Q-12.25 -6.0 -10.6 -1.25 L-10.4 -0.7 -10.45 -0.6 Q-14.0 7.9 -13.8 16.8 L-11.5 22.1 -11.55 22.3 -12.6 26.75 -12.75 27.5 Q-18.2 19.4 -20.35 9.15 -21.0 6.15 -21.15 3.1 -21.6 -5.45 -18.25 -14.45 -13.8 -26.65 -4.35 -29.95 5.1 -33.25 14.3 -30.15 23.45 -27.1 31.35 -19.45 39.05 -11.95 38.2 3.1 L38.15 3.7 Q37.35 15.6 31.5 28.4 L30.5 26.3 29.55 23.9 32.0 17.75 30.5 14.6 28.9 11.0 28.9 10.1 Q28.95 9.2 28.6 8.45 L28.7 8.3 32.1 5.05 33.3 9.75 Q33.85 6.65 33.75 3.5 L33.75 3.15 33.6 1.45 Q32.95 -4.4 29.7 -9.5 L29.9 -7.05 Q30.4 -2.95 31.25 1.1 L30.1 1.2 28.9 1.35 Q27.45 1.4 27.05 0.5 L26.9 0.35 Q26.1 0.05 25.65 -0.7 L25.5 -0.9 24.65 -1.85 23.05 -3.45 22.5 -3.9 22.1 -4.25 Q20.35 -9.05 19.3 -14.9 L22.5 -16.5 23.7 -17.1 Q25.8 -18.2 27.9 -18.9 L26.5 -19.95 26.3 -20.0 25.65 -19.75 25.1 -19.3 19.1 -16.0 18.95 -17.05 18.95 -17.35 14.5 -16.8 7.7 -15.55 7.4 -15.4 6.9 -14.2 1.1 -15.7 2.25 -14.4 Q0.75 -12.65 -1.35 -11.4 L-4.7 -8.85 M-10.7 30.45 L-10.3 29.9 Q-9.9 30.15 -9.8 30.9 L-9.75 31.3 -9.7 31.95 -10.7 30.45 M-9.65 32.05 L-9.6 31.7 Q-9.5 30.65 -9.0 29.75 L-8.7 29.55 Q-8.4 29.5 -8.4 29.9 L-8.3 30.1 -8.3 29.3 -6.6 32.95 -7.3 33.5 -8.3 34.25 -9.65 32.05 M28.85 25.5 L28.95 25.7 30.25 28.75 30.75 30.0 28.4 34.5 27.7 34.25 27.1 34.1 25.5 33.5 28.35 26.7 28.85 25.5 M-3.7 46.75 L-3.15 47.55 -3.6 47.4 -3.7 46.75 M27.15 45.6 L27.3 45.5 27.3 45.55 27.15 45.6" fill="#ff3511" fill-rule="evenodd" stroke="none"/>
    <path d="M17.4 -2.6 L18.35 -3.05 22.4 -4.55 22.9 -2.7 23.55 -1.05 24.85 3.1 25.05 3.8 32.8 -0.65 33.85 1.4 32.65 2.7 33.2 2.65 33.35 3.1 33.2 3.5 33.3 3.6 26.25 8.35 29.1 15.9 26.95 16.5 25.25 14.9 25.4 15.75 24.35 15.75 21.95 10.65 17.1 13.85 14.45 10.15 20.75 6.25 17.4 -2.6 M6.4 -3.05 L-1.05 1.45 -0.15 3.1 2.2 7.7 2.25 7.75 Q-1.2 9.3 -2.35 9.45 L-5.55 3.4 -13.4 9.05 -14.35 7.85 -12.9 6.15 -15.2 6.85 -16.75 4.9 Q-16.35 4.55 -16.8 4.75 L-8.4 -0.45 -11.4 -7.15 -10.7 -7.75 -10.2 -7.7 -9.8 -6.6 -8.7 -9.55 -7.05 -9.5 -3.75 -3.15 5.5 -6.75 5.2 -4.6 5.3 -4.1 6.1 -4.35 6.6 -5.1 7.1 -3.5 6.4 -3.05 M18.8 23.7 L26.85 42.95 Q24.6 44.1 22.3 45.2 19.45 43.85 16.3 43.1 7.6 41.15 0.7 46.7 L-3.3 44.75 -3.15 43.45 Q-2.1 34.65 -1.85 24.9 L0.2 19.1 5.3 12.7 7.45 14.2 14.9 20.15 Q17.55 22.35 18.8 23.7 M3.5 16.85 L2.65 17.3 Q2.5 21.35 3.7 25.3 L4.3 24.0 4.5 24.6 4.75 23.8 6.0 24.55 5.9 25.3 6.6 25.1 Q7.0 20.6 4.7 16.9 L3.5 16.85 M18.4 36.5 L17.7 41.7 21.5 43.75 23.2 43.2 24.3 39.35 23.9 38.85 23.9 38.15 22.85 37.75 22.65 36.9 20.7 36.35 18.4 36.5 M3.5 43.5 L2.95 37.15 -2.0 37.85 Q-1.3 38.85 -0.3 45.5 L3.5 43.5 M14.95 21.0 L14.1 21.35 14.0 22.85 14.3 27.5 18.5 26.8 18.45 26.2 Q18.15 22.7 14.95 21.0 M1.85 21.05 Q-1.0 23.85 -0.65 27.95 L-0.3 30.3 3.35 28.25 1.85 21.05" fill="#000000" fill-rule="evenodd" stroke="none"/>
    <path d="M-1.85 24.9 L-2.2 21.1 1.45 14.5 3.3 11.65 3.55 11.35 3.5 11.3 5.5 9.2 12.6 13.7 18.25 22.85 18.8 23.65 18.8 23.7 Q17.55 22.35 14.9 20.15 L7.45 14.2 5.3 12.7 0.2 19.1 -1.85 24.9" fill="#ff3511" fill-rule="evenodd" stroke="none"/>
    <path d="M3.5 16.85 L4.7 16.9 Q7.0 20.6 6.6 25.1 L5.9 25.3 6.0 24.55 4.75 23.8 4.5 24.6 4.3 24.0 3.7 25.3 Q2.5 21.35 2.65 17.3 L3.5 16.85 M14.95 21.0 Q18.15 22.7 18.45 26.2 L18.5 26.8 14.3 27.5 14.0 22.85 14.1 21.35 14.95 21.0 M3.5 43.5 L-0.3 45.5 Q-1.3 38.85 -2.0 37.85 L2.95 37.15 3.5 43.5 M18.4 36.5 L20.7 36.35 22.65 36.9 22.85 37.75 23.9 38.15 23.9 38.85 24.3 39.35 23.2 43.2 21.5 43.75 17.7 41.7 18.4 36.5 M1.85 21.05 L3.35 28.25 -0.3 30.3 -0.65 27.95 Q-1.0 23.85 1.85 21.05" fill="#ffffff" fill-rule="evenodd" stroke="none"/>
    <path d="M14.0 14.6 L14.05 15.6 13.0 13.95 14.0 14.6" fill="#ffcc66" fill-rule="evenodd" stroke="none"/>
    <path d="M-14.1 -33.3 L-12.05 -34.95 -7.6 -38.2 -5.15 -39.75 -2.4 -41.2 Q-0.35 -42.1 1.7 -42.1 L8.8 -41.15 13.7 -39.55 Q20.05 -37.2 25.9 -33.65 L30.1 -31.15 32.6 -29.4 33.95 -28.0 35.0 -26.45 37.05 -22.95 Q39.25 -19.4 41.0 -15.55 L42.95 -10.55 Q43.85 -8.05 44.05 -5.3 L44.2 -1.4 Q44.25 2.1 43.75 5.45 43.15 9.45 41.95 13.15 L40.75 16.6 42.0 10.55 42.7 4.85 Q39.6 14.25 34.25 22.65 L31.8 26.5 32.2 20.3 32.35 11.8 32.35 7.45 31.0 5.3 27.35 -0.15 24.75 -4.65 20.5 -13.2 18.05 -17.45 17.5 -17.95 14.9 -18.2 14.1 -16.9 Q10.9 -18.3 7.7 -19.75 L9.3 -17.1 4.9 -19.1 6.8 -16.25 6.95 -15.9 6.9 -15.7 6.9 -15.5 6.5 -15.4 4.05 -16.15 -0.7 -17.3 1.25 -14.65 Q-2.15 -14.05 -5.1 -12.3 L-7.8 -10.2 -10.1 -7.5 Q-11.2 -5.9 -11.9 -4.15 L-13.05 -0.1 -13.95 5.6 -15.05 13.4 -15.9 20.95 Q-16.1 24.75 -15.7 28.5 -15.4 31.75 -14.7 35.0 L-14.05 37.65 -16.9 32.35 -16.6 36.4 -15.7 44.1 -16.7 41.9 -19.9 34.4 -23.1 26.1 -23.9 23.75 -24.5 21.3 -25.3 16.3 Q-26.0 9.95 -25.9 3.55 L-25.75 -0.9 -25.6 -3.7 -26.45 -1.9 -27.95 1.9 -29.9 8.1 -30.0 5.6 -29.8 -1.7 Q-29.6 -4.95 -29.0 -8.15 L-28.4 -10.7 -28.1 -11.5 -30.0 -7.65 -32.7 -1.65 -33.5 0.5 -32.8 -2.4 -31.5 -6.95 -30.35 -10.1 -29.6 -11.65 -29.1 -12.5 -31.0 -10.5 -34.1 -6.75 -37.85 -1.1 -39.05 1.0 -39.7 2.5 -38.9 -0.1 -37.2 -4.75 -35.5 -8.8 -34.5 -10.7 -33.55 -12.2 -31.7 -14.5 -33.35 -13.8 -38.5 -10.5 -37.6 -11.35 -31.95 -15.7 -26.5 -19.25 -35.7 -22.55 -35.75 -23.25 Q-36.0 -28.6 -34.9 -34.0 L-33.95 -38.1 -32.35 -43.35 Q-31.8 -45.0 -30.45 -46.0 -28.7 -47.25 -26.55 -47.0 -25.0 -46.65 -23.75 -45.7 -22.85 -45.05 -22.45 -44.1 -20.05 -38.75 -18.15 -33.15 L-23.9 -20.7 -24.05 -20.2 -24.9 -16.9 -21.3 -23.05 -18.1 -28.0 -14.1 -33.3 M33.85 13.3 Q35.05 7.25 34.8 1.35 34.45 -7.5 28.9 -14.7 31.95 -0.75 33.85 13.3" fill="#000000" fill-rule="evenodd" stroke="none"/>
    <path d="M-14.1 -33.3 L-18.1 -28.0 -21.3 -23.05 -24.9 -16.9 -24.05 -20.2 Q-23.6 -20.3 -23.7 -20.55 L-23.9 -20.7 -18.15 -33.15 Q-17.65 -34.3 -16.35 -34.5 -14.85 -34.5 -14.1 -33.3" fill="#999999" fill-rule="evenodd" stroke="none"/>
  </g>
</svg>
