<?xml version="1.0" encoding="UTF-8" standalone="no"?>
<svg xmlns:xlink="http://www.w3.org/1999/xlink" height="95.45px" width="83.75px" xmlns="http://www.w3.org/2000/svg">
  <g transform="matrix(1.0, 0.0, 0.0, 1.0, 40.9, 45.95)">
    <path d="M-6.3 -8.6 Q-4.8 -8.0 -3.05 -7.9 0.65 -7.75 3.9 -8.95 L4.2 -9.1 4.7 -9.35 5.05 -9.5 5.7 -9.75 6.8 -10.55 7.65 -10.55 8.65 -10.7 Q9.7 -10.95 9.6 -12.0 L8.2 -12.1 Q6.95 -12.5 7.55 -13.9 8.3 -15.75 10.3 -15.25 11.05 -15.1 11.25 -14.45 11.45 -13.85 11.95 -13.9 L12.35 -14.05 Q13.2 -14.15 13.85 -14.6 L15.15 -15.35 17.25 -16.55 23.15 -20.05 23.7 -20.5 Q23.95 -20.9 24.3 -20.8 L24.5 -20.75 Q25.45 -20.4 25.95 -19.75 23.9 -19.0 21.8 -17.8 L20.65 -17.15 17.5 -15.45 Q13.0 -12.95 9.1 -9.55 L8.65 -9.05 4.55 -2.0 4.45 -1.6 Q4.6 -0.7 5.4 0.15 L7.2 1.4 11.3 3.0 11.5 3.05 12.5 3.2 Q14.75 3.2 14.45 0.85 L13.7 -1.7 Q13.45 -2.35 13.55 -3.1 13.9 -4.75 15.65 -5.25 L16.25 -5.3 Q17.5 -5.35 18.4 -6.1 L18.6 -6.25 Q19.25 -6.35 19.55 -6.05 L19.85 -5.8 20.15 -5.5 20.65 -4.9 21.05 -4.55 21.65 -4.15 23.3 -2.6 24.15 -1.65 24.35 -1.45 Q24.8 -0.75 25.6 -0.45 L25.75 -0.3 Q26.2 0.55 27.65 0.45 L28.85 0.3 30.0 0.15 31.65 0.1 32.0 0.15 32.35 0.4 32.55 2.1 31.4 3.55 30.95 4.05 27.7 7.4 27.6 7.6 Q27.95 8.3 27.95 9.2 L27.95 10.1 28.0 11.0 Q28.0 11.4 28.15 11.8 L29.35 15.6 29.5 16.15 Q29.5 16.95 30.0 17.35 L30.45 18.15 Q30.65 19.0 29.85 18.85 L29.65 18.85 Q29.25 18.8 29.1 19.0 28.45 19.55 28.5 20.6 28.55 21.6 28.9 22.6 L29.05 23.0 30.1 25.35 31.15 27.45 30.45 29.05 29.95 27.8 28.5 24.8 28.4 24.6 Q27.05 21.8 25.05 19.8 24.75 19.5 24.9 18.75 L25.0 18.35 Q25.2 17.2 24.6 16.9 L24.45 16.75 Q24.1 16.0 23.0 16.25 L22.6 16.4 21.0 17.65 20.85 17.85 Q20.3 18.7 19.05 18.5 L18.75 18.3 Q17.9 17.0 17.5 15.4 L17.45 15.0 Q17.45 14.45 16.9 14.65 L16.7 14.7 15.9 14.9 Q14.75 15.15 14.7 14.05 14.6 13.3 14.25 12.9 L13.25 11.65 12.9 11.2 11.1 8.8 10.75 8.2 Q10.4 7.55 9.9 8.05 L9.7 8.2 9.1 8.3 Q8.75 8.4 8.3 8.65 L7.3 9.05 Q3.25 10.6 0.25 13.75 L-0.15 14.1 -0.35 14.15 -0.7 14.6 -1.4 15.85 -1.75 16.4 Q-2.05 16.8 -1.95 17.25 -1.85 18.0 -2.45 18.4 -3.05 18.85 -3.95 18.8 -5.1 18.8 -5.65 19.9 L-6.5 21.75 Q-8.6 25.55 -8.6 29.7 L-8.6 30.5 -8.7 30.3 Q-8.7 29.9 -9.0 29.95 L-9.3 30.15 Q-9.75 31.05 -9.8 32.15 L-9.85 32.5 -9.9 32.4 -10.0 31.75 -10.05 31.35 Q-10.15 30.6 -10.6 30.35 L-10.95 30.9 -11.85 29.75 -13.1 28.05 -13.0 27.3 Q-12.4 25.05 -12.1 22.8 L-12.05 22.6 Q-11.7 20.5 -11.9 18.4 L-11.9 17.4 Q-11.95 16.45 -10.85 16.55 L-11.25 16.35 Q-12.05 16.05 -11.3 15.35 -10.7 14.85 -9.9 14.5 L-9.55 14.35 Q-8.45 14.1 -8.95 13.1 -9.35 12.35 -10.2 12.3 L-10.55 12.4 Q-11.6 12.85 -12.4 12.0 L-12.7 11.55 -13.1 10.8 Q-13.75 8.95 -12.7 7.2 L-12.45 6.75 -12.15 6.3 -11.7 5.35 -11.4 4.55 Q-11.2 3.85 -11.35 2.95 L-11.5 1.55 -11.7 -0.25 -11.95 -0.8 Q-13.75 -5.5 -16.35 -9.9 L-16.85 -10.65 Q-17.15 -10.9 -16.75 -11.25 L-15.65 -12.0 -14.05 -12.55 -12.25 -13.0 -11.9 -12.95 -11.6 -12.7 -8.9 -10.2 Q-7.65 -9.2 -6.3 -8.6 M-6.8 33.25 L-5.7 32.4 Q-2.85 30.0 -0.5 27.0 L0.05 26.35 0.3 26.3 1.9 26.0 2.3 25.95 2.65 25.85 4.45 24.25 5.05 23.45 7.0 21.4 Q7.7 20.55 8.7 20.5 L9.3 20.55 Q9.95 20.7 10.2 21.25 L10.35 21.45 11.8 22.8 Q12.5 23.55 13.45 23.95 L13.85 24.1 15.45 25.25 16.15 25.6 16.45 25.75 18.05 26.45 20.35 26.95 20.95 26.95 23.95 27.35 Q24.7 27.65 24.55 28.55 L24.45 28.95 24.35 29.5 Q23.9 30.7 24.2 31.95 L24.3 32.15 25.35 32.75 26.95 33.3 27.55 33.4 Q27.95 33.45 28.25 33.65 L27.4 35.35 29.5 43.75 27.55 44.65 27.55 44.6 27.4 44.75 23.0 46.7 22.0 45.9 Q19.65 44.3 16.7 43.95 L13.55 43.8 13.45 43.1 13.35 42.35 Q13.4 41.85 13.0 41.6 12.2 41.2 11.2 41.3 L9.6 41.4 Q8.1 41.3 7.1 42.2 L6.8 42.75 6.75 45.55 5.75 46.0 4.35 49.5 -2.85 47.7 -3.4 46.95 Q-5.0 40.4 -8.45 34.65 L-7.45 33.85 -6.8 33.25" fill="#770000" fill-rule="evenodd" stroke="none"/>
    <path d="M17.25 -16.55 L15.15 -15.35 13.85 -14.6 Q13.2 -14.15 12.35 -14.05 L11.95 -13.9 Q11.45 -13.85 11.25 -14.45 11.05 -15.1 10.3 -15.25 8.3 -15.75 7.55 -13.9 6.95 -12.5 8.2 -12.1 L9.6 -12.0 Q9.7 -10.95 8.65 -10.7 L7.65 -10.55 6.8 -10.55 5.7 -9.75 5.05 -9.5 4.7 -9.35 4.2 -9.1 3.9 -8.95 Q0.65 -7.75 -3.05 -7.9 -4.8 -8.0 -6.3 -8.6 L-3.05 -11.25 Q-1.0 -12.6 0.45 -14.4 L-0.75 -15.65 5.1 -14.35 5.6 -15.55 5.85 -15.7 12.65 -17.2 17.05 -17.9 17.05 -17.6 17.25 -16.55 M-11.7 -0.25 L-11.5 1.55 -11.35 2.95 Q-11.2 3.85 -11.4 4.55 L-11.7 5.35 -12.15 6.3 -12.45 6.75 -12.7 7.2 Q-13.75 8.95 -13.1 10.8 L-12.7 11.55 -12.4 12.0 Q-11.6 12.85 -10.55 12.4 L-10.2 12.3 Q-9.35 12.35 -8.95 13.1 -8.45 14.1 -9.55 14.35 L-9.9 14.5 Q-10.7 14.85 -11.3 15.35 -12.05 16.05 -11.25 16.35 L-10.85 16.55 Q-11.95 16.45 -11.9 17.4 L-11.9 18.4 Q-11.7 20.5 -12.05 22.6 L-14.55 17.35 Q-15.05 8.5 -11.75 -0.15 L-11.7 -0.25 M-8.6 29.7 Q-8.6 25.55 -6.5 21.75 L-5.65 19.9 Q-5.1 18.8 -3.95 18.8 -3.05 18.85 -2.45 18.4 -1.85 18.0 -1.95 17.25 -2.05 16.8 -1.75 16.4 L-1.4 15.85 -0.7 14.6 -0.35 14.15 -0.15 14.1 0.25 13.75 Q3.25 10.6 7.3 9.05 L8.3 8.65 Q8.75 8.4 9.1 8.3 L9.7 8.2 9.9 8.05 Q10.4 7.55 10.75 8.2 L11.1 8.8 12.9 11.2 13.25 11.65 14.25 12.9 Q14.6 13.3 14.7 14.05 14.75 15.15 15.9 14.9 L16.7 14.7 16.9 14.65 Q17.45 14.45 17.45 15.0 L17.5 15.4 Q17.9 17.0 18.75 18.3 L19.05 18.5 Q20.3 18.7 20.85 17.85 L21.0 17.65 22.6 16.4 23.0 16.25 Q24.1 16.0 24.45 16.75 L24.6 16.9 Q25.2 17.2 25.0 18.35 L24.9 18.75 Q24.75 19.5 25.05 19.8 27.05 21.8 28.4 24.6 L27.95 25.85 25.35 32.75 24.3 32.15 24.2 31.95 Q23.9 30.7 24.35 29.5 L24.45 28.95 24.55 28.55 Q24.7 27.65 23.95 27.35 L20.95 26.95 20.35 26.95 18.05 26.45 16.45 25.75 16.15 25.6 15.45 25.25 13.85 24.1 13.45 23.95 Q12.5 23.55 11.8 22.8 L10.35 21.45 10.2 21.25 Q9.95 20.7 9.3 20.55 L8.7 20.5 Q7.7 20.55 7.0 21.4 L5.05 23.45 4.45 24.25 2.65 25.85 2.3 25.95 1.9 26.0 0.3 26.3 0.05 26.35 -0.5 27.0 Q-2.85 30.0 -5.7 32.4 L-6.8 33.25 -8.6 29.7 M29.05 23.0 L28.9 22.6 Q28.55 21.6 28.5 20.6 28.45 19.55 29.1 19.0 29.25 18.8 29.65 18.85 L29.85 18.85 Q30.65 19.0 30.45 18.15 L30.0 17.35 Q29.5 16.95 29.5 16.15 L29.35 15.6 28.15 11.8 Q28.0 11.4 28.0 11.0 L27.95 10.1 29.7 13.65 31.3 16.75 29.05 23.0 M30.95 4.05 L31.4 3.55 32.55 2.1 32.55 2.45 Q32.8 5.6 32.35 8.7 L30.95 4.05 M32.35 0.4 L32.0 0.15 31.65 0.1 30.0 0.15 Q29.0 -3.9 28.35 -7.95 28.15 -9.2 28.1 -10.4 31.5 -5.4 32.35 0.4 M20.65 -4.9 L20.15 -5.5 19.85 -5.8 19.55 -6.05 Q19.25 -6.35 18.6 -6.25 L18.4 -6.1 Q17.5 -5.35 16.25 -5.3 L15.65 -5.25 Q13.9 -4.75 13.55 -3.1 13.45 -2.35 13.7 -1.7 L14.45 0.85 Q14.75 3.2 12.5 3.2 L11.5 3.05 11.3 3.0 7.2 1.4 5.4 0.15 Q4.6 -0.7 4.45 -1.6 L4.55 -2.0 8.65 -9.05 9.1 -9.55 Q13.0 -12.95 17.5 -15.45 18.75 -9.65 20.65 -4.9 M6.75 45.55 L6.8 42.75 7.1 42.2 Q8.1 41.3 9.6 41.4 L11.2 41.3 Q12.2 41.2 13.0 41.6 13.4 41.85 13.35 42.35 L13.45 43.1 13.55 43.8 Q10.1 43.95 6.75 45.55" fill="#ffcc66" fill-rule="evenodd" stroke="none"/>
    <path d="M-6.3 -8.6 Q-7.65 -9.2 -8.9 -10.2 L-11.6 -12.7 -11.9 -12.95 -12.25 -13.0 -14.05 -12.55 -15.65 -12.0 -16.75 -11.25 Q-17.15 -10.9 -16.85 -10.65 L-16.35 -9.9 Q-13.75 -5.5 -11.95 -0.8 L-11.7 -0.25 -11.75 -0.15 Q-15.05 8.5 -14.55 17.35 L-12.05 22.6 -12.1 22.8 Q-12.4 25.05 -13.0 27.3 L-13.1 28.05 Q-18.85 20.1 -21.35 9.95 -22.1 6.95 -22.35 3.9 -23.1 -4.6 -20.05 -13.75 -16.0 -26.1 -6.65 -29.7 2.65 -33.3 11.95 -30.55 21.25 -27.8 29.4 -20.4 37.35 -13.2 37.0 1.9 L37.0 2.5 Q36.6 14.45 31.15 27.45 L30.1 25.35 29.05 23.0 31.3 16.75 29.7 13.65 27.95 10.1 27.95 9.2 Q27.95 8.3 27.6 7.6 L27.7 7.4 30.95 4.05 32.35 8.7 Q32.8 5.6 32.55 2.45 L32.55 2.1 32.35 0.4 Q31.5 -5.4 28.1 -10.4 28.15 -9.2 28.35 -7.95 29.0 -3.9 30.0 0.15 L28.85 0.3 27.65 0.45 Q26.2 0.55 25.75 -0.3 L25.6 -0.45 Q24.8 -0.75 24.35 -1.45 L24.15 -1.65 23.3 -2.6 21.65 -4.15 21.05 -4.55 20.65 -4.9 Q18.75 -9.65 17.5 -15.45 L20.65 -17.15 21.8 -17.8 Q23.9 -19.0 25.95 -19.75 25.45 -20.4 24.5 -20.75 L24.3 -20.8 Q23.95 -20.9 23.7 -20.5 L23.15 -20.05 17.25 -16.55 17.05 -17.6 17.05 -17.9 12.65 -17.2 5.85 -15.7 5.6 -15.55 5.1 -14.35 -0.75 -15.65 0.45 -14.4 Q-1.0 -12.6 -3.05 -11.25 L-6.3 -8.6 M-10.95 30.9 L-10.6 30.35 Q-10.15 30.6 -10.05 31.35 L-10.0 31.75 -9.9 32.4 -10.95 30.9 M-9.85 32.5 L-9.8 32.15 Q-9.75 31.05 -9.3 30.15 L-9.0 29.95 Q-8.7 29.9 -8.7 30.3 L-8.6 30.5 -8.6 29.7 -6.8 33.25 -7.45 33.85 -8.45 34.65 -9.85 32.5 M28.4 24.6 L28.5 24.8 29.95 27.8 30.45 29.05 28.25 33.65 Q27.95 33.45 27.55 33.4 L26.95 33.3 25.35 32.75 27.95 25.85 28.4 24.6 M-3.4 46.95 L-2.85 47.7 -3.3 47.55 -3.4 46.95 M27.4 44.75 L27.55 44.6 27.55 44.65 27.4 44.75" fill="#ff3511" fill-rule="evenodd" stroke="none"/>
    <path d="M5.0 -3.15 L-2.3 1.6 -1.35 3.2 Q0.05 5.5 1.15 7.75 L1.2 7.75 Q-2.2 9.45 -3.35 9.65 L-6.75 3.7 -14.4 9.6 -15.4 8.45 -14.0 6.7 -16.25 7.45 -17.9 5.55 Q-17.5 5.2 -17.95 5.4 L-9.7 -0.05 -12.95 -6.65 -12.25 -7.3 -11.75 -7.25 -11.3 -6.15 -10.35 -9.15 -8.65 -9.15 -5.15 -2.9 3.95 -6.85 3.75 -4.7 3.85 -4.2 4.65 -4.45 5.15 -5.2 5.7 -3.65 5.0 -3.15 M16.0 -3.1 Q16.45 -3.4 16.95 -3.55 L20.95 -5.2 21.5 -3.4 22.2 -1.75 23.65 2.35 23.9 3.05 31.5 -1.65 32.6 0.35 31.45 1.7 32.0 1.6 32.15 2.05 32.0 2.45 32.1 2.55 25.25 7.55 28.35 15.0 26.2 15.7 24.45 14.15 24.65 15.0 23.6 15.0 21.0 10.0 16.25 13.35 13.5 9.75 19.65 5.65 16.0 -3.1 M18.3 23.15 L27.0 42.15 22.55 44.5 Q19.65 43.25 16.45 42.65 7.7 41.0 1.0 46.75 L-3.1 44.9 -2.95 43.6 Q-2.2 34.8 -2.3 25.05 L-0.45 19.2 4.45 12.6 6.65 14.05 14.3 19.75 18.3 23.15 M5.55 24.45 L5.45 25.2 6.15 25.0 Q6.4 20.45 4.0 16.85 L2.75 16.85 1.95 17.3 Q1.95 21.35 3.25 25.25 L3.8 23.95 4.05 24.55 4.25 23.75 5.55 24.45 M3.7 43.45 L2.9 37.15 -2.0 38.0 Q-1.3 39.0 -0.05 45.55 L3.7 43.45 M18.35 35.95 L17.8 41.2 21.7 43.05 23.35 42.45 24.35 38.6 23.9 38.15 23.9 37.45 22.85 37.05 22.6 36.25 20.65 35.75 18.35 35.95 M13.55 20.95 L13.5 22.45 13.95 27.1 18.1 26.25 18.05 25.65 Q17.6 22.2 14.35 20.6 L13.55 20.95 M1.25 21.1 Q-1.5 24.0 -1.0 28.05 L-0.55 30.4 3.0 28.25 1.25 21.1" fill="#000000" fill-rule="evenodd" stroke="none"/>
    <path d="M-2.3 25.05 L-2.8 21.25 0.65 14.55 Q1.45 13.05 2.4 11.65 L2.65 11.35 2.6 11.3 4.5 9.1 11.75 13.35 17.75 22.35 18.3 23.1 18.3 23.15 14.3 19.75 6.65 14.05 4.45 12.6 -0.45 19.2 -2.3 25.05" fill="#ff3511" fill-rule="evenodd" stroke="none"/>
    <path d="M5.55 24.45 L4.25 23.75 4.05 24.55 3.8 23.95 3.25 25.25 Q1.95 21.35 1.95 17.3 L2.75 16.85 4.0 16.85 Q6.4 20.45 6.15 25.0 L5.45 25.2 5.55 24.45 M13.55 20.95 L14.35 20.6 Q17.6 22.2 18.05 25.65 L18.1 26.25 13.95 27.1 13.5 22.45 13.55 20.95 M18.35 35.95 L20.65 35.75 22.6 36.25 22.85 37.05 23.9 37.45 23.9 38.15 24.35 38.6 23.35 42.45 21.7 43.05 17.8 41.2 18.35 35.95 M3.7 43.45 L-0.05 45.55 Q-1.3 39.0 -2.0 38.0 L2.9 37.15 3.7 43.45 M1.25 21.1 L3.0 28.25 -0.55 30.4 -1.0 28.05 Q-1.5 24.0 1.25 21.1" fill="#ffffff" fill-rule="evenodd" stroke="none"/>
    <path d="M13.3 15.2 L12.15 13.6 13.2 14.2 13.3 15.2" fill="#ffcc66" fill-rule="evenodd" stroke="none"/>
    <path d="M-16.55 -32.7 L-14.55 -34.45 -10.2 -37.85 -7.8 -39.45 -5.1 -41.0 Q-3.1 -42.0 -1.05 -42.05 L6.1 -41.35 11.05 -39.9 Q17.5 -37.8 23.45 -34.45 L27.75 -32.05 30.3 -30.4 31.7 -29.05 32.8 -27.55 34.95 -24.1 Q37.3 -20.65 39.15 -16.85 L41.3 -11.9 Q42.25 -9.45 42.5 -6.7 L42.8 -2.8 Q42.95 0.7 42.6 4.05 42.1 8.1 41.1 11.8 L40.0 15.3 41.05 9.2 41.55 3.5 Q38.8 13.0 33.7 21.6 L31.4 25.5 31.6 19.3 31.45 10.8 31.3 6.45 29.9 4.35 26.05 -1.0 Q24.55 -3.15 23.3 -5.4 L18.75 -13.8 16.15 -17.95 15.6 -18.45 13.0 -18.6 12.2 -17.3 5.75 -19.9 7.4 -17.3 Q5.2 -18.2 2.95 -19.15 L4.95 -16.4 5.1 -16.05 5.05 -15.85 5.05 -15.65 4.7 -15.5 2.2 -16.2 -2.6 -17.2 -0.55 -14.6 Q-3.95 -13.9 -6.8 -12.05 L-9.45 -9.85 -11.65 -7.05 Q-12.7 -5.4 -13.35 -3.65 L-14.35 0.45 -15.05 6.15 Q-15.35 10.2 -15.9 14.0 -16.4 17.8 -16.5 21.6 -16.55 25.4 -16.05 29.15 L-14.8 35.6 -14.05 38.25 -17.1 33.05 -16.65 37.05 -15.5 44.7 -16.55 42.55 -20.05 35.2 -23.5 27.0 -24.4 24.65 -25.05 22.25 -26.05 17.25 Q-26.95 10.95 -27.1 4.55 L-27.1 0.1 -27.05 -2.75 -27.8 -0.9 -29.2 2.95 -30.9 9.2 -31.1 6.7 Q-31.3 3.05 -31.15 -0.6 L-30.6 -7.05 -30.05 -9.65 -29.8 -10.45 -31.55 -6.55 -34.05 -0.45 -34.8 1.75 -34.2 -1.2 -33.05 -5.8 -32.0 -8.95 -31.3 -10.55 -30.85 -11.4 -32.65 -9.35 -35.65 -5.5 -39.2 0.3 -40.3 2.45 -40.9 3.95 -40.2 1.3 -38.65 -3.4 -37.1 -7.5 -36.15 -9.45 -35.25 -10.95 -33.5 -13.3 -35.1 -12.55 -40.15 -9.1 -39.3 -9.95 -33.8 -14.5 -28.45 -18.25 -37.75 -21.25 -37.85 -21.95 Q-38.25 -27.25 -37.35 -32.7 L-36.55 -36.85 -35.15 -42.1 Q-34.65 -43.75 -33.3 -44.8 -31.6 -46.1 -29.45 -45.95 -27.9 -45.65 -26.6 -44.75 -25.7 -44.1 -25.25 -43.2 -22.65 -37.95 -20.6 -32.45 L-25.9 -19.8 -26.05 -19.3 -26.8 -15.95 -23.4 -22.2 -20.35 -27.3 -16.55 -32.7 M33.0 12.25 Q34.0 6.15 33.55 0.25 32.9 -8.55 27.1 -15.6 30.6 -1.75 33.0 12.25" fill="#000000" fill-rule="evenodd" stroke="none"/>
    <path d="M-16.55 -32.7 L-20.35 -27.3 -23.4 -22.2 -26.8 -15.95 -26.05 -19.3 Q-25.6 -19.4 -25.7 -19.65 L-25.9 -19.8 -20.6 -32.45 Q-20.1 -33.6 -18.8 -33.85 -17.3 -33.9 -16.55 -32.7" fill="#999999" fill-rule="evenodd" stroke="none"/>
  </g>
</svg>
