<?xml version="1.0" encoding="UTF-8" standalone="no"?>
<svg xmlns:xlink="http://www.w3.org/1999/xlink" height="43.25px" width="28.1px" xmlns="http://www.w3.org/2000/svg">
  <g transform="matrix(1.0, 0.0, 0.0, 1.0, 14.05, 21.6)">
    <path d="M5.45 -20.3 L6.25 -19.6 6.4 -19.45 6.6 -18.9 7.5 -16.4 4.75 -14.5 2.0 -18.1 5.45 -20.3 M12.2 7.05 L13.7 15.3 Q12.4 16.0 11.05 16.65 8.15 15.4 4.95 14.8 L1.85 14.45 Q-1.6 14.3 -4.7 15.45 -7.8 16.55 -10.5 18.9 L-12.2 18.15 -11.55 17.5 -11.55 17.7 -7.8 15.6 -8.0 14.0 -5.55 11.6 0.1 6.25 1.25 4.95 1.5 4.15 1.25 -4.85 Q0.8 -7.35 1.05 -9.45 L2.8 -8.1 6.8 -4.7 8.55 -0.9 12.2 7.05 M2.85 -7.25 L2.05 -6.9 2.0 -5.4 2.45 -0.75 6.6 -1.6 6.55 -2.2 Q6.1 -5.65 2.85 -7.25 M12.85 10.75 L12.4 10.3 12.4 9.6 11.35 9.2 11.1 8.4 9.15 7.9 6.85 8.1 6.3 13.35 10.2 15.2 11.85 14.6 12.85 10.75" fill="#000000" fill-rule="evenodd" stroke="none"/>
    <path d="M5.45 -20.3 L2.0 -18.1 4.75 -14.5 7.5 -16.4 9.6 -10.9 9.7 -10.35 9.5 -10.2 9.35 -10.0 Q8.8 -9.15 7.55 -9.35 L7.25 -9.55 Q6.4 -10.85 6.0 -12.45 L5.95 -12.85 Q5.95 -13.4 5.4 -13.2 L5.2 -13.15 4.4 -12.95 Q3.25 -12.7 3.2 -13.8 L2.75 -14.95 1.75 -16.2 1.5 -16.55 1.5 -21.6 3.75 -21.15 5.45 -20.3 M10.4 -0.9 L11.65 4.6 12.2 7.05 8.55 -0.9 8.85 -0.9 9.45 -0.9 10.4 -0.9 M13.7 15.3 L14.05 17.75 11.5 18.85 10.5 18.05 Q8.15 16.45 5.2 16.1 L2.05 15.95 1.95 15.25 1.85 14.5 1.85 14.45 4.95 14.8 Q8.15 15.4 11.05 16.65 12.4 16.0 13.7 15.3 M-4.75 17.7 L-5.75 18.15 -7.15 21.65 -14.05 19.95 -12.2 18.15 -10.5 18.9 Q-7.8 16.55 -4.7 15.45 L-4.75 17.7" fill="#770000" fill-rule="evenodd" stroke="none"/>
    <path d="M9.7 -10.35 L9.6 -9.8 Q8.6 -8.1 9.15 -5.9 L9.8 -3.3 10.4 -0.9 9.45 -0.9 8.85 -0.9 8.55 -0.9 6.8 -4.7 6.8 -4.75 6.25 -5.5 1.5 -12.55 1.5 -12.85 1.5 -16.55 1.75 -16.2 2.75 -14.95 3.2 -13.8 Q3.25 -12.7 4.4 -12.95 L5.2 -13.15 5.4 -13.2 Q5.95 -13.4 5.95 -12.85 L6.0 -12.45 Q6.4 -10.85 7.25 -9.55 L7.55 -9.35 Q8.8 -9.15 9.35 -10.0 L9.5 -10.2 9.7 -10.35 M2.05 15.95 Q-1.4 16.1 -4.75 17.7 L-4.7 15.45 Q-1.6 14.3 1.85 14.45 L1.85 14.5 1.95 15.25 2.05 15.95" fill="#ffcc66" fill-rule="evenodd" stroke="none"/>
    <path d="M-11.55 17.5 L-8.0 14.0 -7.8 15.6 -11.55 17.7 -11.55 17.5 M2.85 -7.25 Q6.1 -5.65 6.55 -2.2 L6.6 -1.6 2.45 -0.75 2.0 -5.4 2.05 -6.9 2.85 -7.25 M12.85 10.75 L11.85 14.6 10.2 15.2 6.3 13.35 6.85 8.1 9.15 7.9 11.1 8.4 11.35 9.2 12.4 9.6 12.4 10.3 12.85 10.75" fill="#ffffff" fill-rule="evenodd" stroke="none"/>
    <path d="M1.05 -9.45 L1.3 -10.9 1.5 -12.55 6.25 -5.5 6.8 -4.75 6.8 -4.7 2.8 -8.1 1.05 -9.45" fill="#ff3511" fill-rule="evenodd" stroke="none"/>
  </g>
</svg>
