<?xml version="1.0" encoding="UTF-8" standalone="no"?>
<svg xmlns:xlink="http://www.w3.org/1999/xlink" height="35.0px" width="14.7px" xmlns="http://www.w3.org/2000/svg">
  <g transform="matrix(1.0, 0.0, 0.0, 1.0, 7.35, 17.5)">
    <path d="M5.25 -8.0 L7.35 -6.45 6.55 -5.1 5.05 -2.6 5.25 -8.0 M-1.15 15.05 L-2.65 6.8 0.65 14.05 -1.15 15.05 M-4.0 -15.5 L-1.8 -13.6 -1.7 -13.1 -2.75 -13.1 -4.0 -15.5" fill="#000000" fill-rule="evenodd" stroke="none"/>
    <path d="M4.8 -0.65 L4.1 0.95 3.6 -0.3 2.15 -3.3 2.05 -3.5 Q0.7 -6.3 -1.3 -8.3 -1.6 -8.6 -1.45 -9.35 L-1.35 -9.75 Q-1.15 -10.9 -1.75 -11.2 L-1.9 -11.35 Q-2.25 -12.1 -3.35 -11.85 L-3.75 -11.7 -5.15 -10.6 -5.25 -11.15 -7.35 -16.65 -6.2 -17.5 -4.0 -15.5 -2.75 -13.1 -1.7 -13.1 -1.8 -13.6 1.45 -10.95 3.7 -9.2 3.5 -9.25 3.3 -9.25 2.75 -9.1 Q2.1 -8.55 2.15 -7.5 2.2 -6.5 2.55 -5.5 L2.7 -5.1 Q3.15 -3.85 3.75 -2.75 L4.8 -0.65 M1.9 5.55 L1.05 7.25 3.15 15.65 1.2 16.55 1.2 16.5 1.05 16.65 -0.8 17.5 -1.15 15.05 0.65 14.05 -2.65 6.8 -3.2 4.35 -4.45 -1.15 -2.4 -0.75 Q-1.65 -0.45 -1.8 0.45 L-1.9 0.85 -2.0 1.4 Q-2.45 2.6 -2.15 3.85 L-2.05 4.05 -1.0 4.65 0.6 5.2 1.2 5.3 1.9 5.55" fill="#770000" fill-rule="evenodd" stroke="none"/>
    <path d="M-4.45 -1.15 L-5.05 -3.55 -5.7 -6.15 Q-6.25 -8.35 -5.25 -10.05 L-5.15 -10.6 -3.75 -11.7 -3.35 -11.85 Q-2.25 -12.1 -1.9 -11.35 L-1.75 -11.2 Q-1.15 -10.9 -1.35 -9.75 L-1.45 -9.35 Q-1.6 -8.6 -1.3 -8.3 0.7 -6.3 2.05 -3.5 L1.6 -2.25 -1.0 4.65 -2.05 4.05 -2.15 3.85 Q-2.45 2.6 -2.0 1.4 L-1.9 0.85 -1.8 0.45 Q-1.65 -0.45 -2.4 -0.75 L-4.45 -1.15 M3.7 -9.2 L4.1 -8.9 2.7 -5.1 2.55 -5.5 Q2.2 -6.5 2.15 -7.5 2.1 -8.55 2.75 -9.1 L3.3 -9.25 3.5 -9.25 3.7 -9.2" fill="#ffcc66" fill-rule="evenodd" stroke="none"/>
    <path d="M6.55 -5.1 L4.8 -0.65 3.75 -2.75 Q3.15 -3.85 2.7 -5.1 L4.1 -8.9 5.25 -8.0 5.05 -2.6 6.55 -5.1 M4.1 0.95 L1.9 5.55 1.2 5.3 0.6 5.2 -1.0 4.65 1.6 -2.25 2.05 -3.5 2.15 -3.3 3.6 -0.3 4.1 0.95" fill="#ff3511" fill-rule="evenodd" stroke="none"/>
  </g>
</svg>
