<?xml version="1.0" encoding="UTF-8" standalone="no"?>
<svg xmlns:xlink="http://www.w3.org/1999/xlink" height="31.05px" width="27.1px" xmlns="http://www.w3.org/2000/svg">
  <g transform="matrix(1.0, 0.0, 0.0, 1.0, 13.55, 15.5)">
    <path d="M3.65 -9.9 Q6.55 -11.4 9.3 -13.2 L12.8 -15.5 13.2 -12.8 13.5 -8.9 Q13.65 -5.4 13.3 -2.05 12.8 2.0 11.8 5.7 L10.7 9.2 11.75 3.1 12.25 -2.6 Q9.5 6.9 4.4 15.5 L4.4 15.55 2.3 14.0 2.3 13.2 2.15 4.7 2.0 0.35 0.95 -1.25 0.6 -1.75 0.55 -1.85 -4.05 1.45 -0.95 8.9 -3.1 9.6 -4.85 8.05 -4.75 8.4 -6.95 6.5 -8.3 3.9 -9.15 4.5 -11.4 2.3 -11.8 1.1 -9.65 -0.45 -12.3 -6.8 -10.55 -7.95 Q-9.25 -8.85 -7.8 -8.85 L-7.55 -8.85 -7.1 -7.85 Q-6.7 -7.0 -5.65 -3.75 L-5.4 -3.05 -1.9 -5.2 -2.2 -5.65 -3.25 -7.1 -4.35 -8.7 -1.3 -7.65 Q-0.55 -7.85 0.15 -8.2 L0.9 -8.5 1.2 -7.1 2.2 -7.75 2.95 -6.4 3.3 -5.75 3.1 -5.5 2.15 -4.4 2.7 -4.5 2.85 -4.05 2.7 -3.65 2.8 -3.55 2.05 -2.95 2.1 -2.55 3.05 2.55 3.7 6.15 Q4.7 0.05 4.25 -5.85 L3.65 -9.9" fill="#000000" fill-rule="evenodd" stroke="none"/>
    <path d="M3.65 -9.9 L4.25 -5.85 Q4.7 0.05 3.7 6.15 L3.05 2.55 Q3.5 -0.55 3.25 -3.65 L3.25 -4.0 3.1 -5.5 3.3 -5.75 2.95 -6.4 2.3 -9.2 3.65 -9.9 M0.95 -1.25 L2.0 0.35 2.15 4.7 2.3 13.2 2.3 14.0 1.15 13.1 2.0 10.65 0.4 7.55 -1.35 4.0 -1.35 3.1 Q-1.35 2.2 -1.7 1.5 L-1.6 1.3 0.95 -1.25" fill="#ff3511" fill-rule="evenodd" stroke="none"/>
    <path d="M3.05 2.55 L2.1 -2.55 3.25 -4.0 3.25 -3.65 Q3.5 -0.55 3.05 2.55 M2.95 -6.4 L2.2 -7.75 1.2 -7.1 0.9 -8.5 2.3 -9.2 2.95 -6.4 M1.15 13.1 L0.75 12.8 Q1.35 12.8 1.15 12.05 L0.7 11.25 Q0.2 10.85 0.2 10.05 L0.05 9.5 -1.15 5.7 -1.3 4.9 -1.35 4.0 0.4 7.55 2.0 10.65 1.15 13.1" fill="#ffcc66" fill-rule="evenodd" stroke="none"/>
    <path d="M2.1 -2.55 L2.05 -2.95 2.8 -3.55 2.7 -3.65 2.85 -4.05 2.7 -4.5 2.15 -4.4 3.1 -5.5 3.25 -4.0 2.1 -2.55 M-2.2 -5.65 L-1.9 -5.2 -5.4 -3.05 -5.65 -3.75 Q-6.7 -7.0 -7.1 -7.85 L-7.55 -8.85 -6.3 -9.0 -6.0 -8.7 -5.15 -7.75 -4.95 -7.55 Q-4.5 -6.85 -3.7 -6.55 L-3.55 -6.4 Q-3.2 -5.75 -2.2 -5.65 M-12.3 -6.8 L-9.65 -0.45 -11.8 1.1 Q-12.9 -2.35 -13.55 -5.95 L-12.3 -6.8 M-4.75 8.4 L-4.85 8.05 -3.1 9.6 -0.95 8.9 -4.05 1.45 0.55 -1.85 0.6 -1.75 0.95 -1.25 -1.6 1.3 -1.7 1.5 Q-1.35 2.2 -1.35 3.1 L-1.35 4.0 -1.3 4.9 -1.15 5.7 0.05 9.5 0.2 10.05 Q0.2 10.85 0.7 11.25 L1.15 12.05 Q1.35 12.8 0.75 12.8 L-1.5 11.05 -4.75 8.4" fill="#770000" fill-rule="evenodd" stroke="none"/>
  </g>
</svg>
