<?xml version="1.0" encoding="UTF-8" standalone="no"?>
<svg xmlns:xlink="http://www.w3.org/1999/xlink" height="40.15px" width="31.4px" xmlns="http://www.w3.org/2000/svg">
  <g transform="matrix(1.0, 0.0, 0.0, 1.0, 15.7, 20.1)">
    <path d="M-12.95 1.35 L-13.65 -5.6 -14.35 -10.6 -15.7 -20.1 -15.35 -20.0 Q-8.9 -17.9 -2.95 -14.55 L1.35 -12.15 3.9 -10.5 5.3 -9.15 6.4 -7.65 8.55 -4.2 Q10.9 -0.75 12.75 3.05 L14.9 8.0 15.7 10.5 12.2 12.8 6.55 16.1 Q5.15 9.7 0.7 4.3 L2.15 10.15 3.8 17.5 3.05 17.8 1.6 18.35 -1.45 17.3 -3.1 14.5 -7.65 6.1 -8.65 4.35 -9.25 3.4 -10.15 2.1 -10.25 1.95 -10.8 1.45 -12.95 1.35 M-5.8 14.85 L-5.45 14.7 -5.25 15.4 -4.9 16.5 -4.65 17.15 -4.9 17.15 Q-6.35 17.15 -7.65 18.05 L-9.4 19.2 -10.4 16.8 -9.45 16.35 -5.9 14.85 -5.8 14.85" fill="#000000" fill-rule="evenodd" stroke="none"/>
    <path d="M-12.95 1.35 L-10.8 1.45 -10.25 1.95 -10.15 2.1 -12.85 2.5 -12.9 1.95 -12.95 1.35 M-8.65 4.35 L-7.65 6.1 -3.1 14.5 -1.45 17.3 -1.95 17.1 -3.4 17.0 -4.75 15.75 -5.25 15.4 -5.45 14.7 -5.8 14.85 Q-7.65 10.15 -8.9 4.45 L-8.65 4.35 M2.15 10.15 L0.7 4.3 Q5.15 9.7 6.55 16.1 L5.2 16.8 Q4.15 13.3 2.15 10.15" fill="#ff3511" fill-rule="evenodd" stroke="none"/>
    <path d="M-10.15 2.1 L-9.25 3.4 -11.25 4.55 -12.55 5.3 -12.6 5.35 -12.85 2.5 -10.15 2.1 M3.8 17.5 L2.15 10.15 Q4.15 13.3 5.2 16.8 L3.8 17.5 M-12.45 6.65 L-8.9 4.45 Q-7.65 10.15 -5.8 14.85 L-5.9 14.85 -6.25 14.4 -6.55 14.1 -6.85 13.85 Q-7.15 13.55 -7.8 13.65 L-8.0 13.8 Q-8.9 14.55 -10.15 14.6 L-10.75 14.65 -11.45 14.95 -12.45 6.65" fill="#ffcc66" fill-rule="evenodd" stroke="none"/>
    <path d="M-9.25 3.4 L-8.65 4.35 -8.9 4.45 -12.45 6.65 -12.6 5.35 -12.55 5.3 -11.25 4.55 -9.25 3.4 M-5.25 15.4 L-4.75 15.75 -3.4 17.0 -4.65 17.15 -4.9 16.5 -5.25 15.4 M-9.4 19.2 L-10.65 20.05 -10.95 18.4 -11.45 14.95 -10.75 14.65 -10.15 14.6 Q-8.9 14.55 -8.0 13.8 L-7.8 13.65 Q-7.15 13.55 -6.85 13.85 L-6.55 14.1 -6.25 14.4 -5.9 14.85 -9.45 16.35 -10.4 16.8 -9.4 19.2" fill="#770000" fill-rule="evenodd" stroke="none"/>
  </g>
</svg>
