<?xml version="1.0" encoding="UTF-8" standalone="no"?>
<svg xmlns:xlink="http://www.w3.org/1999/xlink" height="51.55px" width="51.3px" xmlns="http://www.w3.org/2000/svg">
  <g transform="matrix(1.0, 0.0, 0.0, 1.0, 25.65, 25.8)">
    <path d="M-13.35 -3.95 L-18.7 -9.95 -25.65 -17.6 -24.45 -21.95 Q-23.95 -23.6 -22.6 -24.65 -20.9 -25.95 -18.75 -25.8 -17.2 -25.5 -15.9 -24.6 -15.0 -23.95 -14.55 -23.05 -11.95 -17.8 -9.9 -12.3 L-13.35 -3.95" fill="#000000" fill-rule="evenodd" stroke="none"/>
    <path d="M-9.9 -12.3 Q-9.4 -13.45 -8.1 -13.7 -6.6 -13.75 -5.85 -12.55 L-9.65 -7.15 -12.3 -2.75 -13.35 -3.95 -9.9 -12.3" fill="#999999" fill-rule="evenodd" stroke="none"/>
    <path d="M9.0 21.4 L4.2 15.95 2.9 14.5 -6.95 3.3 -12.3 -2.75 -9.65 -7.15 -5.85 -12.55 -3.85 -14.3 0.5 -17.7 2.9 -19.3 3.75 -19.8 10.55 -14.2 Q13.7 -11.35 17.3 -9.05 L21.1 -6.7 23.45 -5.35 24.15 1.6 23.7 1.55 22.9 2.85 16.45 0.25 18.1 2.85 13.65 1.0 15.65 3.75 15.8 4.1 15.75 4.3 15.75 4.5 15.4 4.65 12.9 3.95 8.1 2.95 10.15 5.55 Q6.75 6.25 3.9 8.1 L1.7 9.9 1.25 10.3 0.65 11.0 2.05 11.0 4.7 15.8 5.55 17.25 14.65 13.3 14.45 15.45 14.55 15.95 15.35 15.7 15.85 14.95 16.35 16.4 16.4 16.5 Q16.35 16.5 16.25 16.6 L15.7 17.0 9.0 21.4" fill="#000000" fill-rule="evenodd" stroke="none"/>
    <path d="M24.15 1.6 L24.2 2.2 24.25 2.75 23.35 2.95 16.55 4.45 16.3 4.6 15.8 5.8 9.95 4.5 11.15 5.75 Q9.7 7.55 7.65 8.9 L4.4 11.55 Q3.05 10.95 1.8 9.95 L1.7 9.9 3.9 8.1 Q6.75 6.25 10.15 5.55 L8.1 2.95 12.9 3.95 15.4 4.65 15.75 4.5 15.75 4.3 15.8 4.1 15.65 3.75 13.65 1.0 18.1 2.85 16.45 0.25 22.9 2.85 23.7 1.55 24.15 1.6" fill="#ff3511" fill-rule="evenodd" stroke="none"/>
    <path d="M24.25 2.75 L24.5 5.6 23.05 6.1 22.65 6.25 Q22.15 6.3 21.95 5.7 21.75 5.05 21.0 4.9 19.0 4.4 18.25 6.25 17.65 7.65 18.9 8.05 L20.3 8.15 Q20.4 9.2 19.35 9.45 L18.35 9.6 17.5 9.6 16.4 10.4 15.75 10.65 15.4 10.8 14.9 11.05 14.6 11.2 Q11.35 12.4 7.65 12.25 L4.4 11.55 7.65 8.9 Q9.7 7.55 11.15 5.75 L9.95 4.5 15.8 5.8 16.3 4.6 16.55 4.45 23.35 2.95 24.25 2.75 M24.65 6.9 L25.65 15.2 Q24.5 15.75 24.25 17.05 24.15 17.8 24.4 18.45 24.95 19.65 25.15 21.0 L25.15 21.1 22.3 22.8 21.85 23.1 17.9 21.55 Q16.9 21.1 16.1 20.3 15.3 19.45 15.15 18.55 L15.25 18.15 16.25 16.6 Q16.35 16.5 16.4 16.5 L16.35 16.4 19.35 11.1 19.8 10.6 Q22.1 8.6 24.65 6.9" fill="#ffcc66" fill-rule="evenodd" stroke="none"/>
    <path d="M24.5 5.6 L24.65 6.9 Q22.1 8.6 19.8 10.6 L19.35 11.1 16.35 16.4 15.85 14.95 15.35 15.7 14.55 15.95 14.45 15.45 14.65 13.3 5.55 17.25 4.7 15.8 2.05 11.0 0.65 11.0 1.25 10.3 1.7 9.9 1.8 9.95 Q3.05 10.95 4.4 11.55 L7.65 12.25 Q11.35 12.4 14.6 11.2 L14.9 11.05 15.4 10.8 15.75 10.65 16.4 10.4 17.5 9.6 18.35 9.6 19.35 9.45 Q20.4 9.2 20.3 8.15 L18.9 8.05 Q17.65 7.65 18.25 6.25 19.0 4.4 21.0 4.9 21.75 5.05 21.95 5.7 22.15 6.3 22.65 6.25 L23.05 6.1 24.5 5.6 M21.85 23.1 L17.55 25.75 14.7 25.65 Q13.7 25.65 12.9 25.25 12.2 24.9 11.6 24.25 L9.0 21.4 15.7 17.0 16.25 16.6 15.25 18.15 15.15 18.55 Q15.3 19.45 16.1 20.3 16.9 21.1 17.9 21.55 L21.85 23.1" fill="#770000" fill-rule="evenodd" stroke="none"/>
  </g>
</svg>
