<?xml version="1.0" encoding="UTF-8" standalone="no"?>
<svg xmlns:xlink="http://www.w3.org/1999/xlink" height="25.15px" width="33.95px" xmlns="http://www.w3.org/2000/svg">
  <g transform="matrix(1.0, 0.0, 0.0, 1.0, 17.0, 12.55)">
    <path d="M8.4 -7.1 L7.8 -6.75 8.75 -5.15 11.25 -0.6 11.3 -0.6 Q7.9 1.1 6.75 1.3 L3.35 -4.65 -3.15 0.4 -4.1 1.15 -4.3 1.25 -5.15 0.3 -5.8 5.65 -6.2 9.45 -15.25 12.6 -15.95 8.9 Q-16.85 2.6 -17.0 -3.8 L-17.0 -8.25 -17.0 -8.45 Q-12.9 -8.85 -8.9 -9.8 L-3.55 -10.95 -4.25 -7.9 -4.65 -5.05 -2.3 -6.55 -1.4 -7.2 0.4 -8.4 -1.05 -11.4 0.15 -11.65 2.0 -12.1 3.6 -12.55 8.4 -7.1 M-3.9 -1.65 L-5.0 -1.25 -5.1 -0.1 -3.9 -1.65" fill="#000000" fill-rule="evenodd" stroke="none"/>
    <path d="M-3.15 0.4 L3.35 -4.65 6.75 1.3 Q7.9 1.1 11.3 -0.6 L11.25 -0.6 8.75 -5.15 7.8 -6.75 8.4 -7.1 11.0 -4.25 12.3 -3.25 Q13.1 -2.85 14.1 -2.85 L16.95 -2.75 Q11.35 0.75 5.95 4.45 L3.1 6.15 Q1.0 7.15 -1.3 7.95 -1.85 7.6 -1.2 7.0 -0.6 6.5 0.2 6.15 L0.55 6.0 Q1.65 5.75 1.15 4.75 0.75 4.0 -0.1 3.95 L-0.45 4.05 Q-1.5 4.5 -2.3 3.65 L-2.6 3.2 -3.0 2.45 Q-3.35 1.4 -3.15 0.4 M-1.05 -11.4 L0.4 -8.4 -1.4 -7.2 -1.6 -8.6 -1.85 -9.15 -2.65 -11.1 -1.05 -11.4" fill="#770000" fill-rule="evenodd" stroke="none"/>
    <path d="M-2.3 -6.55 L-4.65 -5.05 -4.25 -7.9 -3.55 -10.95 -2.65 -11.1 -1.85 -9.15 -1.6 -8.6 -1.65 -8.5 -2.3 -6.55 M-6.2 9.45 L-5.8 5.65 -5.15 0.3 -4.3 1.25 -4.1 1.15 Q-4.65 5.0 -4.45 8.9 L-6.2 9.45 M-3.9 -1.65 L-5.1 -0.1 -5.0 -1.25 -3.9 -1.65" fill="#ff3511" fill-rule="evenodd" stroke="none"/>
    <path d="M-1.4 -7.2 L-2.3 -6.55 -1.65 -8.5 -1.6 -8.6 -1.4 -7.2 M-4.1 1.15 L-3.15 0.4 Q-3.35 1.4 -3.0 2.45 L-2.6 3.2 -2.3 3.65 Q-1.5 4.5 -0.45 4.05 L-0.1 3.95 Q0.75 4.0 1.15 4.75 1.65 5.75 0.55 6.0 L0.2 6.15 Q-0.6 6.5 -1.2 7.0 -1.85 7.6 -1.3 7.95 L-1.9 8.1 -4.45 8.9 Q-4.65 5.0 -4.1 1.15" fill="#ffcc66" fill-rule="evenodd" stroke="none"/>
  </g>
</svg>
