<?xml version="1.0" encoding="UTF-8" standalone="no"?>
<svg xmlns:xlink="http://www.w3.org/1999/xlink" height="42.2px" width="38.35px" xmlns="http://www.w3.org/2000/svg">
  <g transform="matrix(1.0, 0.0, 0.0, 1.0, 19.2, 21.1)">
    <path d="M18.7 -8.3 L12.8 -12.65 10.6 -14.1 5.7 -7.5 3.85 -1.65 3.35 -5.45 6.8 -12.15 8.35 -14.7 8.55 -15.05 8.8 -15.35 8.75 -15.4 10.65 -17.6 11.8 -16.9 17.9 -13.35 19.15 -11.4 18.95 -9.75 18.7 -8.3 M-5.9 -4.1 L-5.95 -3.9 Q-6.25 -1.65 -6.85 0.6 L-6.95 1.35 -10.35 -4.05 -10.35 -5.1 -10.15 -8.9 -8.4 -9.45 -8.4 -9.35 -5.9 -4.1 M-4.8 4.2 L-4.45 3.65 Q-4.0 3.9 -3.9 4.65 L-3.85 5.05 -3.75 5.7 -4.8 4.2 M-3.7 5.8 L-3.65 5.45 Q-3.6 4.35 -3.15 3.45 L-2.85 3.25 Q-2.55 3.2 -2.55 3.6 L-2.45 3.8 -2.45 3.0 -0.65 6.55 -1.3 7.15 -2.3 7.95 -3.7 5.8" fill="#ff3511" fill-rule="evenodd" stroke="none"/>
    <path d="M3.85 -1.65 L5.7 -7.5 10.6 -14.1 12.8 -12.65 18.7 -8.3 Q18.45 -6.2 18.9 -3.7 L19.15 5.3 18.9 6.1 17.75 7.4 12.1 12.75 9.65 15.15 9.05 10.45 4.15 11.3 Q4.85 12.3 6.1 18.65 L5.45 19.3 3.05 18.2 3.2 16.9 Q3.8 9.95 3.85 2.45 L3.85 -1.65 M8.1 -9.4 Q8.1 -5.35 9.4 -1.45 L9.95 -2.75 10.2 -2.15 10.4 -2.95 11.7 -2.25 11.6 -1.5 12.3 -1.7 12.25 -4.25 Q11.85 -7.3 10.15 -9.85 L8.9 -9.85 8.1 -9.4 M5.15 1.35 L5.6 3.7 9.15 1.55 7.4 -5.6 Q4.8 -2.85 5.1 1.0 L5.15 1.35 M-10.35 -4.05 Q-10.35 -0.8 -9.9 2.45 L-8.65 8.9 -7.9 11.55 -10.95 6.35 -10.5 10.35 -9.35 18.0 -10.4 15.85 -13.9 8.5 -17.35 0.3 -18.25 -2.05 -18.9 -4.45 -19.2 -5.75 -10.15 -8.9 -10.35 -5.1 -10.35 -4.05" fill="#000000" fill-rule="evenodd" stroke="none"/>
    <path d="M11.8 -16.9 L10.65 -17.6 8.75 -15.4 8.8 -15.35 8.55 -15.05 8.35 -14.7 6.4 -12.95 6.0 -12.6 5.8 -12.55 5.45 -12.1 4.75 -10.85 4.4 -10.3 Q4.1 -9.9 4.2 -9.45 4.3 -8.7 3.7 -8.3 3.1 -7.85 2.2 -7.9 1.05 -7.9 0.5 -6.8 L-0.35 -4.95 Q-2.45 -1.15 -2.45 3.0 L-2.45 3.8 -2.55 3.6 Q-2.55 3.2 -2.85 3.25 L-3.15 3.45 Q-3.6 4.35 -3.65 5.45 L-3.7 5.8 -3.75 5.7 -3.85 5.05 -3.9 4.65 Q-4.0 3.9 -4.45 3.65 L-4.8 4.2 -5.7 3.05 -6.95 1.35 -6.85 0.6 Q-6.25 -1.65 -5.95 -3.9 L-5.9 -4.1 Q-5.55 -6.2 -5.75 -8.3 L-5.75 -9.3 Q-5.8 -10.25 -4.7 -10.15 L-5.1 -10.35 -5.25 -10.4 Q-2.95 -11.2 -0.85 -12.2 0.65 -12.95 2.0 -13.9 L13.0 -21.1 19.15 -20.45 19.15 -15.4 19.05 -15.5 17.25 -17.9 16.9 -18.5 Q16.55 -19.15 16.05 -18.65 L15.85 -18.5 15.25 -18.4 14.45 -18.05 13.45 -17.65 11.8 -16.9 M3.85 2.45 Q3.8 9.95 3.2 16.9 L3.05 18.2 5.45 19.3 3.6 21.1 3.3 21.0 2.75 20.25 Q1.15 13.7 -2.3 7.95 L-1.3 7.15 -0.65 6.55 0.45 5.7 3.85 2.45" fill="#770000" fill-rule="evenodd" stroke="none"/>
    <path d="M19.15 -11.4 L17.9 -13.35 11.8 -16.9 13.45 -17.65 14.45 -18.05 15.25 -18.4 15.85 -18.5 16.05 -18.65 Q16.55 -19.15 16.9 -18.5 L17.25 -17.9 19.05 -15.5 19.15 -15.4 19.15 -11.7 19.15 -11.4 M8.35 -14.7 L6.8 -12.15 3.35 -5.45 3.85 -1.65 3.85 2.45 0.45 5.7 -0.65 6.55 -2.45 3.0 Q-2.45 -1.15 -0.35 -4.95 L0.5 -6.8 Q1.05 -7.9 2.2 -7.9 3.1 -7.85 3.7 -8.3 4.3 -8.7 4.2 -9.45 4.1 -9.9 4.4 -10.3 L4.75 -10.85 5.45 -12.1 5.8 -12.55 6.0 -12.6 6.4 -12.95 8.35 -14.7 M-5.25 -10.4 L-5.1 -10.35 -4.7 -10.15 Q-5.8 -10.25 -5.75 -9.3 L-5.75 -8.3 Q-5.55 -6.2 -5.9 -4.1 L-8.4 -9.35 -8.4 -9.45 -5.85 -10.25 -5.25 -10.4" fill="#ffcc66" fill-rule="evenodd" stroke="none"/>
    <path d="M6.1 18.65 Q4.85 12.3 4.15 11.3 L9.05 10.45 9.65 15.15 6.1 18.65 M8.1 -9.4 L8.9 -9.85 10.15 -9.85 Q11.85 -7.3 12.25 -4.25 L12.3 -1.7 11.6 -1.5 11.7 -2.25 10.4 -2.95 10.2 -2.15 9.95 -2.75 9.4 -1.45 Q8.1 -5.35 8.1 -9.4 M5.15 1.35 L5.1 1.0 Q4.8 -2.85 7.4 -5.6 L9.15 1.55 5.6 3.7 5.15 1.35" fill="#ffffff" fill-rule="evenodd" stroke="none"/>
  </g>
</svg>
