<?xml version="1.0" encoding="UTF-8" standalone="no"?>
<svg xmlns:xlink="http://www.w3.org/1999/xlink" height="116.95px" width="104.0px" xmlns="http://www.w3.org/2000/svg">
  <g transform="matrix(1.0, 0.0, 0.0, 1.0, 0.0, 0.0)">
    <path d="M87.9 86.85 L72.6 86.85 72.6 79.2 80.25 79.2 80.25 40.95 72.6 40.95 72.6 33.3 87.9 33.3 87.9 86.85 M31.3 40.95 L23.65 40.95 23.65 79.2 31.3 79.2 31.3 86.85 16.0 86.85 16.0 33.3 31.3 33.3 31.3 40.95" fill="#ffffff" fill-rule="evenodd" stroke="none"/>
    <path d="M31.3 40.95 L31.3 33.3 16.0 33.3 16.0 86.85 31.3 86.85 31.3 79.2 23.65 79.2 23.65 40.95 31.3 40.95 M87.9 86.85 L87.9 33.3 72.6 33.3 72.6 40.95 80.25 40.95 80.25 79.2 72.6 79.2 72.6 86.85 87.9 86.85 M104.0 116.95 L0.0 116.95 0.0 0.0 104.0 0.0 104.0 116.95" fill="url(#gradient0)" fill-rule="evenodd" stroke="none"/>
  </g>
  <defs>
    <linearGradient gradientTransform="matrix(-0.0383, -0.083, 0.0795, -0.0367, 52.0, 58.5)" gradientUnits="userSpaceOnUse" id="gradient0" spreadMethod="pad" x1="-819.2" x2="819.2">
      <stop offset="0.0" stop-color="#990000"/>
      <stop offset="1.0" stop-color="#f05615"/>
    </linearGradient>
  </defs>
</svg>
