<?xml version="1.0" encoding="UTF-8" standalone="no"?>
<svg xmlns:xlink="http://www.w3.org/1999/xlink" height="51.5px" width="52.0px" xmlns="http://www.w3.org/2000/svg">
  <g transform="matrix(1.0, 0.0, 0.0, 1.0, 76.5, 4.5)">
    <path d="M-48.65 -4.5 L-48.2 -4.4 -48.1 -4.0 Q-48.1 -3.35 -48.25 -3.75 -55.4 -3.85 -64.4 4.75 -65.7 6.0 -66.55 9.4 -67.25 12.15 -67.25 14.25 L-67.15 16.25 -67.1 16.25 Q-66.75 8.2 -58.95 2.35 -52.5 -2.5 -47.25 -2.5 L-41.75 -2.35 Q-37.35 -1.45 -32.45 3.55 -28.55 7.5 -27.25 10.4 -25.6 14.35 -25.05 17.05 -24.5 19.6 -24.5 23.25 -24.5 35.2 -31.25 40.75 L-32.75 39.3 Q-33.6 38.35 -36.35 38.0 L-38.6 37.75 Q-42.65 37.6 -44.55 38.65 -45.9 39.45 -47.0 41.65 -47.6 42.9 -48.5 46.5 L-50.5 47.0 -54.1 46.75 Q-60.85 46.05 -63.95 44.55 -66.05 43.5 -67.25 41.5 L-68.8 40.1 -70.65 38.35 Q-71.95 36.05 -72.75 35.15 -73.95 33.8 -74.75 31.95 -75.5 30.25 -75.65 28.75 L-76.2 25.25 -76.5 22.5 Q-76.5 14.7 -71.55 7.25 -65.1 -2.55 -53.25 -4.4 L-51.5 -4.5 -48.65 -4.5" fill="#ffffff" fill-rule="evenodd" stroke="none"/>
  </g>
</svg>
