<?xml version="1.0" encoding="UTF-8" standalone="no"?>
<svg xmlns:xlink="http://www.w3.org/1999/xlink" height="51.5px" width="53.75px" xmlns="http://www.w3.org/2000/svg">
  <g transform="matrix(1.0, 0.0, 0.0, 1.0, 77.25, 3.5)">
    <path d="M-43.5 -3.35 Q-35.6 -1.7 -31.4 2.6 -29.05 4.95 -26.6 9.4 -25.1 11.55 -24.2 16.1 -23.5 19.75 -23.5 23.05 -23.5 30.55 -27.9 37.9 L-29.0 37.1 -30.35 36.0 -31.55 35.25 Q-32.35 34.85 -33.85 34.5 -39.0 34.85 -41.05 35.7 -41.7 35.95 -43.35 37.35 -44.15 38.0 -44.65 38.95 L-45.65 40.75 Q-46.3 41.75 -46.8 44.2 L-47.65 47.65 -50.25 47.75 -51.25 48.0 Q-56.5 48.0 -59.8 46.8 -63.15 45.6 -67.25 42.15 -72.05 38.2 -73.6 35.6 -75.75 31.9 -76.55 28.8 -77.25 26.1 -77.25 22.45 -77.25 14.6 -73.9 9.0 -69.15 1.05 -57.5 -3.25 L-57.05 -3.2 -56.5 -3.0 Q-60.7 -1.05 -64.15 1.65 -67.4 4.2 -69.1 6.75 -69.6 7.55 -70.65 11.3 -71.75 15.25 -71.75 16.75 -71.75 18.35 -71.1 20.35 L-69.75 24.0 Q-68.95 26.15 -65.15 28.65 -61.8 30.9 -60.75 30.9 L-56.75 30.65 Q-63.3 27.4 -65.6 23.0 -67.1 20.1 -67.1 15.3 -67.1 9.6 -64.3 5.2 -60.4 -1.0 -51.5 -3.5 L-43.5 -3.35" fill="#ffffff" fill-rule="evenodd" stroke="none"/>
  </g>
</svg>
