<?xml version="1.0" encoding="UTF-8" standalone="no"?>
<svg xmlns:xlink="http://www.w3.org/1999/xlink" height="52.75px" width="54.0px" xmlns="http://www.w3.org/2000/svg">
  <g transform="matrix(1.0, 0.0, 0.0, 1.0, 77.0, 4.0)">
    <path d="M-60.8 -3.05 L-60.75 -2.7 -64.25 -0.3 Q-68.35 2.65 -71.0 7.15 -73.25 10.95 -73.5 12.35 -73.7 13.45 -73.5 16.65 L-73.35 22.0 Q-72.95 24.85 -71.25 27.4 -68.8 31.1 -67.0 32.8 -63.75 35.8 -58.75 37.4 L-57.55 37.45 -56.25 37.65 Q-52.9 38.15 -49.0 36.35 -47.15 35.45 -43.75 33.1 L-43.6 33.0 -44.95 33.65 Q-46.3 34.25 -49.25 34.25 L-53.6 34.0 Q-60.75 32.1 -64.25 26.25 -66.75 22.05 -66.75 17.3 -66.75 15.05 -65.9 11.45 -65.0 7.55 -64.0 6.35 -61.7 3.55 -58.5 0.9 -56.35 -1.0 -54.85 -1.75 -51.6 -3.5 -46.75 -3.9 L-46.75 -4.0 -45.75 -3.85 -43.25 -3.6 Q-36.5 -2.3 -33.0 1.05 L-28.85 6.6 Q-26.2 10.15 -26.0 17.5 -24.6 15.6 -24.65 14.75 -25.0 13.85 -25.0 12.75 L-25.0 12.5 -24.65 12.25 Q-23.4 15.15 -23.1 17.3 L-23.0 21.75 Q-23.0 25.9 -23.65 28.7 -24.35 31.7 -26.4 35.9 -27.6 33.75 -30.5 32.4 -32.9 31.25 -34.75 31.25 -36.0 31.25 -39.1 32.8 -41.95 34.2 -42.5 34.75 -45.05 37.25 -45.75 38.65 L-47.45 42.6 Q-48.0 44.2 -48.0 46.15 -48.0 47.5 -47.5 47.75 L-46.9 48.0 -48.0 48.75 -48.5 48.65 -48.5 48.5 -50.2 48.4 -52.0 48.25 Q-57.2 47.7 -60.8 45.75 -64.15 43.4 -65.85 42.5 L-67.7 41.05 -69.5 39.1 -72.6 35.75 Q-75.4 31.75 -76.3 28.75 -77.0 26.35 -77.0 22.2 -77.0 14.65 -74.3 9.35 -70.5 1.85 -60.9 -3.0 L-60.8 -3.05" fill="#ffffff" fill-rule="evenodd" stroke="none"/>
  </g>
</svg>
