<?xml version="1.0" encoding="UTF-8" standalone="no"?>
<svg xmlns:xlink="http://www.w3.org/1999/xlink" height="52.6px" width="55.0px" xmlns="http://www.w3.org/2000/svg">
  <g transform="matrix(1.0, 0.0, 0.0, 1.0, 77.25, 3.6)">
    <path d="M-30.75 23.25 L-31.1 24.1 -30.65 23.9 Q-27.9 22.55 -26.15 18.6 L-24.15 12.75 Q-23.15 13.5 -22.9 14.8 -22.75 15.6 -22.75 17.1 L-22.5 19.3 -22.25 21.5 Q-22.25 23.4 -22.95 27.1 L-24.0 32.35 -23.9 32.5 -24.0 32.65 -24.35 32.35 -24.4 32.35 -24.5 32.25 -26.85 30.2 Q-28.8 28.5 -32.0 28.0 L-34.35 28.1 -34.75 28.15 Q-39.65 33.25 -46.65 34.1 L-48.5 34.25 -51.4 33.5 Q-66.6 30.15 -64.85 14.7 -63.15 -0.75 -49.6 -0.95 -36.05 -1.2 -31.5 7.15 -26.95 15.45 -30.7 23.15 L-30.75 23.25 M-69.3 3.55 Q-71.6 6.45 -72.75 9.55 -74.0 13.1 -74.0 18.0 -74.0 24.3 -71.3 29.45 -67.15 37.35 -57.75 38.65 -49.5 38.3 -47.7 37.05 L-46.8 35.95 -45.75 34.85 -45.7 34.9 -45.5 34.65 -45.3 35.45 Q-48.5 39.5 -48.5 42.15 -48.5 43.95 -47.9 45.6 -47.1 47.8 -45.5 48.25 L-45.65 48.4 -46.55 48.8 -47.5 49.0 -51.6 48.75 -52.6 48.5 -54.6 48.25 Q-68.0 43.45 -73.35 35.3 -77.25 29.35 -77.25 20.55 -77.25 12.05 -72.9 6.35 -70.2 2.75 -61.75 -3.6 L-67.8 2.05 -69.3 3.55" fill="#ffffff" fill-rule="evenodd" stroke="none"/>
  </g>
</svg>
