<?xml version="1.0" encoding="UTF-8" standalone="no"?>
<svg xmlns:xlink="http://www.w3.org/1999/xlink" height="50.65px" width="55.95px" xmlns="http://www.w3.org/2000/svg">
  <g transform="matrix(1.0, 0.0, 0.0, 1.0, 76.95, 1.75)">
    <path d="M-23.9 16.0 L-22.65 9.25 Q-18.75 19.8 -24.15 29.4 -24.25 26.5 -27.15 25.6 -29.9 24.6 -32.75 25.25 L-30.65 24.25 Q-25.5 21.45 -23.9 16.0 M-35.35 25.9 Q-40.1 30.65 -46.8 30.65 -53.5 30.65 -58.2 25.9 -62.95 21.15 -62.95 14.45 -62.95 7.75 -58.2 3.0 -53.5 -1.75 -46.8 -1.75 -40.1 -1.75 -35.35 3.0 -30.65 7.75 -30.65 14.45 -30.65 21.15 -35.35 25.9 M-69.5 1.9 L-69.95 2.5 -69.0 1.65 Q-80.05 16.05 -70.65 31.75 -66.5 38.65 -58.6 39.3 -51.05 40.2 -45.0 35.8 -46.05 37.75 -46.35 39.9 -46.95 44.0 -43.8 46.35 -42.45 47.35 -40.65 47.4 -46.75 49.7 -53.2 48.45 -69.05 45.75 -74.75 31.05 -81.0 14.9 -69.5 1.9" fill="#ffffff" fill-rule="evenodd" stroke="none"/>
  </g>
</svg>
