<?xml version="1.0" encoding="UTF-8" standalone="no"?>
<svg xmlns:xlink="http://www.w3.org/1999/xlink" height="49.65px" width="56.1px" xmlns="http://www.w3.org/2000/svg">
  <g transform="matrix(1.0, 0.0, 0.0, 1.0, 76.35, 1.2)">
    <path d="M-40.5 -0.6 Q-48.05 2.45 -49.75 10.2 -50.95 15.8 -48.4 20.85 -47.15 23.4 -44.6 24.7 -42.0 25.95 -37.55 26.9 L-39.0 26.9 Q-45.75 31.25 -52.95 27.7 -58.9 24.75 -60.35 18.35 -61.0 15.45 -60.45 12.55 -59.55 7.5 -56.3 3.65 -54.45 1.4 -51.9 0.3 -46.45 -1.8 -40.65 -1.0 L-40.5 -0.6 M-76.0 16.65 L-74.55 10.9 -75.7 14.5 -76.0 16.65 M-71.25 4.75 Q-72.55 7.4 -73.5 10.15 -78.1 23.75 -68.6 34.2 -59.4 44.4 -45.8 40.6 L-45.8 42.15 Q-45.75 43.75 -44.95 45.0 L-44.0 46.4 -38.65 46.15 -41.0 47.1 -41.25 47.5 Q-45.7 48.9 -50.15 48.2 -66.1 46.35 -73.25 32.1 -80.35 17.85 -71.25 4.75 M-23.05 26.55 L-25.5 23.75 -29.65 23.75 -28.8 23.2 Q-21.5 16.9 -21.15 7.0 -18.65 17.2 -23.05 26.55" fill="#ffffff" fill-rule="evenodd" stroke="none"/>
  </g>
</svg>
