<?xml version="1.0" encoding="UTF-8" standalone="no"?>
<svg xmlns:xlink="http://www.w3.org/1999/xlink" height="48.5px" width="56.0px" xmlns="http://www.w3.org/2000/svg">
  <g transform="matrix(1.0, 0.0, 0.0, 1.0, 76.0, 0.75)">
    <path d="M-46.45 -0.7 L-46.0 -0.5 -48.95 0.9 Q-50.8 1.8 -51.35 2.35 L-54.6 6.1 Q-55.3 6.85 -55.95 9.65 -56.5 12.15 -56.5 13.5 -56.5 17.3 -54.2 21.4 -51.2 26.65 -46.25 27.4 L-43.5 27.25 Q-43.25 27.65 -43.25 28.0 L-44.25 28.3 -45.5 28.5 -49.35 28.25 Q-54.45 28.1 -57.15 22.3 -59.0 18.25 -59.0 14.5 -59.0 9.5 -57.0 6.25 -54.1 1.65 -46.75 -0.75 L-46.45 -0.7 M-20.5 5.6 Q-20.0 10.05 -20.0 16.3 -20.0 17.85 -21.0 21.4 -21.9 24.65 -22.5 25.75 L-22.75 25.1 Q-22.75 24.3 -24.0 22.75 L-25.9 22.65 -26.0 22.3 Q-23.45 20.15 -22.65 18.0 -21.5 15.0 -21.35 13.85 -20.6 8.55 -20.75 5.6 L-20.5 5.6 M-37.45 46.0 L-37.0 46.25 -37.15 46.4 -39.45 47.15 Q-41.35 47.75 -43.25 47.75 L-48.85 47.5 -51.35 47.25 Q-58.5 45.55 -61.75 44.15 -65.3 42.65 -66.75 40.55 -68.35 39.25 -70.55 36.5 -74.0 32.15 -74.0 30.15 L-74.7 28.1 -74.9 27.55 Q-76.0 24.95 -76.0 22.8 L-75.9 22.15 -75.8 22.15 -76.0 20.1 -76.0 17.35 -75.25 13.5 -74.25 10.05 Q-73.4 7.8 -72.75 7.65 L-75.0 14.2 Q-75.6 16.6 -75.6 20.0 L-75.45 22.85 -74.9 24.9 Q-74.55 26.75 -73.9 27.75 L-72.5 30.4 -70.9 33.25 Q-68.85 36.2 -65.55 38.75 -61.2 42.1 -56.75 42.9 L-55.7 42.95 -54.5 43.15 -49.9 42.85 -45.5 42.25 -44.9 42.25 -42.95 44.25 Q-41.2 45.4 -37.75 45.9 L-37.45 46.0" fill="#ffffff" fill-rule="evenodd" stroke="none"/>
  </g>
</svg>
