<?xml version="1.0" encoding="UTF-8" standalone="no"?>
<svg xmlns:xlink="http://www.w3.org/1999/xlink" height="47.05px" width="56.0px" xmlns="http://www.w3.org/2000/svg">
  <g transform="matrix(1.0, 0.0, 0.0, 1.0, 75.6, -0.2)">
    <path d="M-19.6 12.25 Q-19.6 15.1 -20.4 18.45 L-22.15 24.9 -22.75 24.75 Q-22.25 23.95 -22.25 23.4 -22.25 22.9 -22.9 22.4 L-24.75 21.15 Q-22.75 19.7 -21.9 17.35 L-20.75 13.4 Q-20.35 9.75 -20.75 5.75 L-20.75 4.1 -20.5 4.1 -19.65 8.55 -19.6 12.25 M-39.35 45.7 Q-37.4 46.2 -35.5 45.25 L-34.9 45.65 -37.65 46.0 -37.0 46.25 Q-49.5 49.25 -60.65 43.2 -76.4 34.75 -75.55 16.6 L-75.5 18.85 Q-75.1 30.85 -66.55 39.05 -56.4 45.75 -44.4 43.0 L-43.9 43.5 Q-41.9 45.1 -39.35 45.7 M-49.55 0.2 L-49.5 0.55 -52.3 2.3 Q-55.4 4.5 -56.75 8.4 -57.75 11.3 -57.75 16.3 -57.75 27.25 -46.0 28.0 L-44.9 28.25 -45.0 28.4 -46.0 28.5 -46.85 28.25 -49.25 28.0 Q-55.1 28.0 -57.55 21.55 -59.0 17.8 -59.0 13.2 -59.0 4.4 -49.65 0.25 L-49.55 0.2 M-74.15 10.0 L-74.15 10.4 -74.25 10.85 -74.5 11.0 -74.65 11.0 -74.4 9.9 -74.25 9.9 -74.15 10.0" fill="#ffffff" fill-rule="evenodd" stroke="none"/>
  </g>
</svg>
