<?xml version="1.0" encoding="UTF-8" standalone="no"?>
<svg xmlns:xlink="http://www.w3.org/1999/xlink" height="49.1px" width="49.1px" xmlns="http://www.w3.org/2000/svg">
  <g transform="matrix(1.0, 0.0, 0.0, 1.0, 24.55, 24.55)">
    <path d="M17.3 -17.3 Q24.55 -10.2 24.55 0.0 24.55 7.9 20.2 14.05 L17.3 17.45 17.3 17.5 17.3 16.7 Q17.3 13.45 15.0 11.15 12.7 8.85 9.45 8.85 6.2 8.85 3.9 11.15 1.6 13.45 1.6 16.7 1.6 19.95 3.9 22.25 4.9 23.25 6.15 23.85 L0.0 24.55 Q-4.25 24.55 -7.95 23.35 -13.15 21.6 -17.3 17.45 -24.55 10.2 -24.55 0.0 -24.55 -10.2 -17.3 -17.3 -10.2 -24.55 0.0 -24.55 10.2 -24.55 17.3 -17.3" fill="#ffffff" fill-rule="evenodd" stroke="none"/>
  </g>
</svg>
