<?xml version="1.0" encoding="UTF-8" standalone="no"?>
<svg xmlns:xlink="http://www.w3.org/1999/xlink" height="46.1px" width="46.1px" xmlns="http://www.w3.org/2000/svg">
  <g transform="matrix(1.0, 0.0, 0.0, 1.0, 23.05, 23.05)">
    <path d="M16.25 -16.25 Q23.05 -9.6 23.05 0.0 23.05 6.2 20.2 11.25 20.6 9.45 20.6 7.5 20.6 0.85 15.85 -3.85 11.15 -8.6 4.5 -8.6 -2.15 -8.6 -6.85 -3.85 -11.6 0.85 -11.6 7.5 -11.6 14.15 -6.85 18.85 -3.7 22.0 0.35 23.05 L0.0 23.05 Q-4.0 23.05 -7.45 21.9 -12.35 20.3 -16.25 16.4 -23.05 9.6 -23.05 0.0 -23.05 -9.6 -16.25 -16.25 -9.6 -23.05 0.0 -23.05 9.6 -23.05 16.25 -16.25" fill="#ffffff" fill-rule="evenodd" stroke="none"/>
  </g>
</svg>
