<?xml version="1.0" encoding="UTF-8" standalone="no"?>
<svg xmlns:xlink="http://www.w3.org/1999/xlink" height="41.9px" width="42.6px" xmlns="http://www.w3.org/2000/svg">
  <g transform="matrix(1.0, 0.0, 0.0, 1.0, 21.05, 21.1)">
    <path d="M15.8 -8.0 Q10.5 -13.3 3.0 -13.3 -4.4 -13.3 -9.75 -8.0 -15.05 -2.65 -15.05 4.8 -15.05 12.3 -9.75 17.55 -7.8 19.5 -5.5 20.8 L-6.65 20.45 Q-11.15 18.95 -14.75 15.35 -21.05 9.05 -21.05 0.2 -21.05 -8.65 -14.75 -14.8 -8.6 -21.1 0.25 -21.1 9.1 -21.1 15.25 -14.8 21.55 -8.65 21.55 0.2 21.55 2.45 21.15 4.6 21.05 -2.75 15.8 -8.0" fill="#ffffff" fill-rule="evenodd" stroke="none"/>
  </g>
</svg>
