<?xml version="1.0" encoding="UTF-8" standalone="no"?>
<svg xmlns:xlink="http://www.w3.org/1999/xlink" height="39.5px" width="39.5px" xmlns="http://www.w3.org/2000/svg">
  <g transform="matrix(1.0, 0.0, 0.0, 1.0, 30.5, 13.5)">
    <path d="M-10.75 -13.5 Q-2.55 -13.5 3.2 -7.75 9.0 -1.95 9.0 6.25 9.0 11.6 6.55 15.9 6.0 12.55 3.45 9.95 0.25 6.75 -4.3 6.75 -8.85 6.75 -12.15 9.95 -15.35 13.25 -15.35 17.8 -15.35 22.35 -12.15 25.55 L-11.7 26.0 Q-19.3 25.65 -24.75 20.2 -30.5 14.45 -30.5 6.25 -30.5 -1.95 -24.75 -7.75 -18.95 -13.5 -10.75 -13.5 M-1.0 10.95 Q1.0 12.95 1.0 15.75 1.0 18.55 -1.0 20.5 -2.95 22.5 -5.75 22.5 -8.55 22.5 -10.55 20.5 -12.5 18.55 -12.5 15.75 -12.5 12.95 -10.55 10.95 -8.55 9.0 -5.75 9.0 -2.95 9.0 -1.0 10.95" fill="#ffffff" fill-rule="evenodd" stroke="none"/>
  </g>
</svg>
