<?xml version="1.0" encoding="UTF-8" standalone="no"?>
<svg xmlns:xlink="http://www.w3.org/1999/xlink" height="55.7px" width="56.0px" xmlns="http://www.w3.org/2000/svg">
  <g transform="matrix(1.0, 0.0, 0.0, 1.0, 37.5, 20.5)">
    <path d="M-6.2 -8.45 Q-15.5 -8.45 -22.1 -1.9 -28.65 4.7 -28.65 14.0 -28.65 23.3 -22.1 29.85 -18.4 33.55 -13.85 35.2 -22.7 33.9 -29.35 27.3 -37.5 19.15 -37.5 7.5 -37.5 -4.1 -29.35 -12.35 -21.1 -20.5 -9.5 -20.5 2.15 -20.5 10.3 -12.35 18.5 -4.1 18.5 7.5 18.5 14.8 15.35 20.7 16.3 17.55 16.3 14.0 16.3 4.7 9.65 -1.9 3.1 -8.45 -6.2 -8.45" fill="#ffffff" fill-rule="evenodd" stroke="none"/>
    <path d="M-7.25 -6.5 Q0.3 -6.5 5.6 -1.25 11.0 4.15 11.0 11.75 11.0 19.3 5.6 24.6 0.3 30.0 -7.25 30.0 -14.8 30.0 -20.2 24.6 -25.5 19.3 -25.5 11.75 -25.5 4.15 -20.2 -1.25 -14.8 -6.5 -7.25 -6.5" fill="#ffffff" fill-rule="evenodd" stroke="none"/>
  </g>
</svg>
