<?xml version="1.0" encoding="UTF-8" standalone="no"?>
<svg xmlns:xlink="http://www.w3.org/1999/xlink" height="73.35px" width="73.85px" xmlns="http://www.w3.org/2000/svg">
  <g transform="matrix(1.0, 0.0, 0.0, 1.0, 46.25, 29.5)">
    <path d="M-28.15 -17.85 Q-31.4 -14.6 -33.4 -10.95 -41.15 -2.5 -41.15 9.15 -41.15 21.5 -32.4 30.2 L-29.15 33.1 -25.9 36.85 Q-21.0 41.7 -15.0 43.85 -26.75 42.15 -35.5 33.5 -46.25 22.75 -46.25 7.4 -46.25 -7.9 -35.5 -18.75 -24.6 -29.5 -9.35 -29.5 6.05 -29.5 16.75 -18.75 27.6 -7.9 27.6 7.4 27.6 17.0 23.45 24.8 24.7 20.65 24.7 15.95 24.7 9.95 22.65 4.9 L22.65 3.25 Q22.65 -9.15 13.9 -17.85 5.25 -26.55 -7.1 -26.55 -19.5 -26.55 -28.15 -17.85" fill="#ffffff" fill-rule="evenodd" stroke="none"/>
    <path d="M-8.5 -15.5 Q1.05 -15.5 7.7 -8.9 14.5 -2.05 14.5 7.5 14.5 17.0 7.7 23.7 1.05 30.5 -8.5 30.5 -18.0 30.5 -24.8 23.7 -31.5 17.0 -31.5 7.5 -31.5 -2.05 -24.8 -8.9 -18.0 -15.5 -8.5 -15.5 M-2.85 21.55 Q-1.9 22.5 -0.6 22.5 0.7 22.5 1.6 21.55 2.55 20.65 2.55 19.35 2.55 18.05 1.6 17.1 0.7 16.2 -0.6 16.2 -1.9 16.2 -2.85 17.1 -3.75 18.05 -3.75 19.35 -3.75 20.65 -2.85 21.55" fill="#ffffff" fill-rule="evenodd" stroke="none"/>
  </g>
</svg>
