<?xml version="1.0" encoding="UTF-8" standalone="no"?>
<svg xmlns:xlink="http://www.w3.org/1999/xlink" height="74.4px" width="74.85px" xmlns="http://www.w3.org/2000/svg">
  <g transform="matrix(1.0, 0.0, 0.0, 1.0, 46.5, 30.0)">
    <path d="M-8.6 -27.4 Q-23.05 -27.4 -33.2 -17.25 -43.4 -7.05 -43.4 7.4 -43.4 21.85 -33.2 32.0 -29.35 35.85 -24.9 38.25 -20.35 42.45 -14.85 44.4 -26.7 42.7 -35.6 33.9 -46.5 23.0 -46.5 7.45 -46.5 -8.1 -35.6 -19.1 -24.55 -30.0 -9.05 -30.0 6.45 -30.0 17.4 -19.1 28.35 -8.1 28.35 7.45 28.35 17.15 24.15 25.05 25.45 20.9 25.45 16.1 L25.45 15.15 Q26.2 11.45 26.2 7.4 26.2 -7.05 16.05 -17.25 5.85 -27.4 -8.6 -27.4" fill="#ffffff" fill-rule="evenodd" stroke="none"/>
    <path d="M-7.65 -20.25 Q3.4 -20.25 11.1 -12.6 19.0 -4.65 19.0 6.4 19.0 17.4 11.1 25.15 3.4 33.0 -7.65 33.0 -18.65 33.0 -26.5 25.15 -34.25 17.4 -34.25 6.4 -34.25 -4.65 -26.5 -12.6 -18.65 -20.25 -7.65 -20.25 M-12.95 25.2 Q-8.4 29.75 -2.0 29.75 4.4 29.75 8.95 25.2 13.5 20.65 13.5 14.25 13.5 7.85 8.95 3.3 4.4 -1.25 -2.0 -1.25 -8.4 -1.25 -12.95 3.3 -17.5 7.85 -17.5 14.25 -17.5 20.65 -12.95 25.2" fill="#ffffff" fill-rule="evenodd" stroke="none"/>
  </g>
</svg>
