<?xml version="1.0" encoding="UTF-8" standalone="no"?>
<svg xmlns:xlink="http://www.w3.org/1999/xlink" height="55.75px" width="55.8px" xmlns="http://www.w3.org/2000/svg">
  <g transform="matrix(1.0, 0.0, 0.0, 1.0, 35.55, 21.45)">
    <path d="M-4.7 -12.7 Q-14.35 -12.7 -21.15 -5.9 -27.95 0.9 -27.95 10.55 -27.95 20.2 -21.15 27.0 -14.35 33.8 -4.7 33.8 L-0.75 33.5 -7.65 34.3 Q-19.2 34.3 -27.4 26.1 -35.55 18.0 -35.55 6.45 -35.55 -5.1 -27.4 -13.45 -19.2 -21.45 -7.65 -21.45 3.9 -21.45 12.0 -13.45 20.25 -5.1 20.25 6.45 20.25 14.65 16.1 21.15 18.55 16.35 18.55 10.55 18.55 0.9 11.75 -5.9 4.95 -12.7 -4.7 -12.7" fill="#ffffff" fill-rule="evenodd" stroke="none"/>
  </g>
</svg>
