<?xml version="1.0" encoding="UTF-8" standalone="no"?>
<svg xmlns:xlink="http://www.w3.org/1999/xlink" height="57.75px" width="58.0px" xmlns="http://www.w3.org/2000/svg">
  <g transform="matrix(1.0, 0.0, 0.0, 1.0, 36.75, 22.45)">
    <path d="M-5.85 -17.05 Q-16.8 -17.05 -24.55 -9.35 -32.25 -1.55 -32.25 9.4 -32.25 20.35 -24.55 28.05 -18.9 33.75 -11.55 35.3 -21.15 34.1 -28.3 27.0 -36.75 18.55 -36.75 6.55 -36.75 -5.45 -28.3 -14.15 -19.75 -22.45 -7.75 -22.45 4.25 -22.45 12.7 -14.15 21.25 -5.45 21.25 6.55 21.25 11.15 20.0 15.25 20.6 12.45 20.6 9.4 20.6 -1.55 12.85 -9.35 5.15 -17.05 -5.85 -17.05" fill="#ffffff" fill-rule="evenodd" stroke="none"/>
  </g>
</svg>
