<?xml version="1.0" encoding="UTF-8" standalone="no"?>
<svg xmlns:xlink="http://www.w3.org/1999/xlink" height="56.1px" width="58.9px" xmlns="http://www.w3.org/2000/svg">
  <g transform="matrix(1.0, 0.0, 0.0, 1.0, 36.75, 23.3)">
    <path d="M-26.75 -12.4 Q-29.3 -9.85 -31.05 -7.0 -35.05 -0.55 -35.05 7.65 -35.05 11.0 -34.35 14.1 -32.65 21.8 -26.75 27.7 L-24.35 29.9 Q-22.25 31.6 -19.95 32.8 L-24.05 30.4 -28.2 26.9 Q-33.8 21.3 -35.75 14.1 -36.75 10.35 -36.75 6.15 -36.75 -3.8 -31.05 -11.5 L-28.2 -14.85 Q-19.5 -23.3 -7.3 -23.3 4.85 -23.3 13.45 -14.85 22.15 -6.05 22.15 6.15 22.15 9.6 21.45 12.8 L20.85 15.0 Q21.4 12.45 21.45 9.75 L21.5 7.65 Q21.5 -4.1 13.25 -12.4 4.95 -20.65 -6.75 -20.65 -18.5 -20.65 -26.75 -12.4" fill="#ffffff" fill-rule="evenodd" stroke="none"/>
  </g>
</svg>
