<?xml version="1.0" encoding="UTF-8" standalone="no"?>
<svg xmlns:xlink="http://www.w3.org/1999/xlink" height="47.75px" width="63.7px" xmlns="http://www.w3.org/2000/svg">
  <g transform="matrix(1.0, 0.0, 0.0, 1.0, 28.95, 23.65)">
    <path d="M19.1 -5.5 Q26.0 -1.05 26.0 5.25 26.0 11.55 19.1 15.95 12.25 20.4 2.5 20.4 -7.25 20.4 -14.15 15.95 -21.0 11.55 -21.0 5.25 -21.0 -1.05 -14.15 -5.5 -7.25 -9.9 2.5 -9.9 12.25 -9.9 19.1 -5.5" fill="#ffffff" fill-rule="evenodd" stroke="none"/>
    <path d="M25.35 -16.7 Q34.75 -9.65 34.75 0.2 34.75 10.1 25.35 17.05 16.1 24.1 2.9 24.1 -10.3 24.1 -19.7 17.05 -28.95 10.1 -28.95 0.2 -28.95 -9.65 -19.7 -16.7 -10.3 -23.65 2.9 -23.65 16.1 -23.65 25.35 -16.7" fill="url(#gradient0)" fill-rule="evenodd" stroke="none"/>
  </g>
  <defs>
    <radialGradient cx="0" cy="0" gradientTransform="matrix(0.0391, 0.0, 0.0, 0.0293, 2.9, 0.2)" gradientUnits="userSpaceOnUse" id="gradient0" r="819.2" spreadMethod="pad">
      <stop offset="0.5333333333333333" stop-color="#ffffff" stop-opacity="0.0"/>
      <stop offset="0.5764705882352941" stop-color="#ffffff"/>
      <stop offset="1.0" stop-color="#ffffff" stop-opacity="0.007843138"/>
    </radialGradient>
  </defs>
</svg>
