<?xml version="1.0" encoding="UTF-8" standalone="no"?>
<svg xmlns:xlink="http://www.w3.org/1999/xlink" height="44.95px" width="62.7px" xmlns="http://www.w3.org/2000/svg">
  <g transform="matrix(1.0, 0.0, 0.0, 1.0, 28.9, 20.9)">
    <path d="M7.85 -6.05 Q10.05 -7.2 10.05 -8.85 10.05 -9.65 9.5 -10.35 14.15 -9.25 17.9 -6.6 24.25 -1.95 24.25 4.6 24.25 11.2 17.9 15.75 11.55 20.4 2.5 20.4 -6.5 20.4 -12.9 15.75 -19.25 11.2 -19.25 4.6 -19.25 -1.95 -12.9 -6.6 -9.0 -9.35 -4.15 -10.45 -4.75 -9.7 -4.75 -8.85 -4.75 -7.2 -2.6 -6.05 -0.4 -4.85 2.65 -4.85 5.7 -4.85 7.85 -6.05" fill="#ffffff" fill-rule="evenodd" stroke="none"/>
    <path d="M24.55 -14.35 Q33.8 -7.7 33.8 1.6 33.8 10.9 24.55 17.45 15.45 24.05 2.45 24.05 -10.55 24.05 -19.8 17.45 -28.9 10.9 -28.9 1.6 -28.9 -7.7 -19.8 -14.35 -10.55 -20.9 2.45 -20.9 15.45 -20.9 24.55 -14.35" fill="url(#gradient0)" fill-rule="evenodd" stroke="none"/>
  </g>
  <defs>
    <radialGradient cx="0" cy="0" gradientTransform="matrix(0.0385, 0.0, 0.0, 0.0276, 2.45, 1.6)" gradientUnits="userSpaceOnUse" id="gradient0" r="819.2" spreadMethod="pad">
      <stop offset="0.5333333333333333" stop-color="#ffffff" stop-opacity="0.0"/>
      <stop offset="0.5764705882352941" stop-color="#ffffff"/>
      <stop offset="1.0" stop-color="#ffffff" stop-opacity="0.007843138"/>
    </radialGradient>
  </defs>
</svg>
