<?xml version="1.0" encoding="UTF-8" standalone="no"?>
<svg xmlns:xlink="http://www.w3.org/1999/xlink" height="78.0px" width="58.7px" xmlns="http://www.w3.org/2000/svg">
  <g transform="matrix(1.0, 0.0, 0.0, 1.0, 27.65, 44.15)">
    <path d="M12.9 -22.3 Q17.5 -15.5 17.5 -5.95 17.5 3.7 12.9 10.35 8.95 16.15 3.6 17.0 7.25 16.35 9.95 12.6 13.25 8.05 13.25 1.65 13.25 -4.75 9.95 -9.3 6.65 -13.85 2.0 -13.85 -2.65 -13.85 -5.95 -9.3 -9.25 -4.75 -9.25 1.65 -9.25 8.05 -5.95 12.6 -2.75 17.05 1.75 17.15 -4.75 17.15 -9.4 10.35 -14.0 3.7 -14.0 -5.95 -14.0 -15.5 -9.4 -22.3 -4.75 -28.9 1.75 -28.9 8.3 -28.9 12.9 -22.3" fill="#ffffff" fill-rule="evenodd" stroke="none"/>
    <path d="M31.05 -5.1 Q31.05 11.0 22.4 22.35 13.85 33.85 1.7 33.85 -10.5 33.85 -19.15 22.35 -27.65 11.0 -27.65 -5.1 -27.65 -21.25 -19.15 -32.8 -10.5 -44.15 1.7 -44.15 13.85 -44.15 22.4 -32.8 31.05 -21.25 31.05 -5.1" fill="url(#gradient0)" fill-rule="evenodd" stroke="none"/>
  </g>
  <defs>
    <radialGradient cx="0" cy="0" gradientTransform="matrix(0.036, 0.0, 0.0, 0.0478, 1.7, -5.1)" gradientUnits="userSpaceOnUse" id="gradient0" r="819.2" spreadMethod="pad">
      <stop offset="0.5333333333333333" stop-color="#ffffff" stop-opacity="0.0"/>
      <stop offset="0.5764705882352941" stop-color="#ffffff"/>
      <stop offset="1.0" stop-color="#ffffff" stop-opacity="0.007843138"/>
    </radialGradient>
  </defs>
</svg>
