<?xml version="1.0" encoding="UTF-8" standalone="no"?>
<svg xmlns:xlink="http://www.w3.org/1999/xlink" height="49.0px" width="48.5px" xmlns="http://www.w3.org/2000/svg">
  <g transform="matrix(1.0, 0.0, 0.0, 1.0, 23.25, 31.6)">
    <path d="M21.7 -3.2 Q21.7 -11.6 15.8 -17.6 9.9 -23.5 1.6 -23.5 -6.75 -23.5 -12.65 -17.6 -18.55 -11.6 -18.55 -3.2 -18.55 5.25 -12.65 11.15 -6.75 17.15 1.6 17.15 9.9 17.15 15.8 11.15 21.7 5.25 21.7 -3.2 M25.25 -7.1 Q25.25 3.05 18.15 10.2 11.05 17.4 1.0 17.4 -9.05 17.4 -16.15 10.2 -23.25 3.05 -23.25 -7.1 -23.25 -17.25 -16.15 -24.45 -9.05 -31.6 1.0 -31.6 11.05 -31.6 18.15 -24.45 25.25 -17.25 25.25 -7.1" fill="#ffffff" fill-rule="evenodd" stroke="none"/>
  </g>
</svg>
