<?xml version="1.0" encoding="UTF-8" standalone="no"?>
<svg xmlns:xlink="http://www.w3.org/1999/xlink" height="51.6px" width="59.15px" xmlns="http://www.w3.org/2000/svg">
  <g transform="matrix(1.0, 0.0, 0.0, 1.0, 29.3, 34.65)">
    <path d="M21.2 -25.9 Q29.85 -17.15 29.85 -4.75 29.85 3.6 25.9 10.3 29.0 4.4 29.0 -2.8 29.0 -14.65 20.65 -23.0 12.3 -31.35 0.5 -31.35 -11.3 -31.35 -19.65 -23.0 -28.0 -14.65 -28.0 -2.8 -28.0 8.7 -20.05 16.95 L-20.65 16.35 Q-29.3 7.6 -29.3 -4.75 -29.3 -17.15 -20.65 -25.9 -12.0 -34.65 0.25 -34.65 12.5 -34.65 21.2 -25.9" fill="#ffffff" fill-rule="evenodd" stroke="none"/>
  </g>
</svg>
