<?xml version="1.0" encoding="UTF-8" standalone="no"?>
<svg xmlns:xlink="http://www.w3.org/1999/xlink" height="10.35px" width="11.45px" xmlns="http://www.w3.org/2000/svg">
  <g transform="matrix(1.0, 0.0, 0.0, 1.0, 6.0, 5.95)">
    <path d="M4.5 -0.8 L4.8 -1.5 Q4.95 -3.0 4.25 -3.65 1.4 -5.3 0.2 -2.45 -0.75 -3.15 -1.95 -3.2 L-2.9 -3.2 Q-4.0 -2.9 -4.45 -1.65 -5.2 0.3 -3.85 2.2 -6.5 1.45 -5.9 -0.7 -5.3 -2.8 -4.3 -2.75 L-4.05 -4.3 -2.75 -5.4 Q-0.9 -5.95 -0.55 -4.9 L0.45 -5.4 Q5.45 -7.35 5.45 -2.55 5.1 -1.0 4.5 -0.8" fill="#cea99f" fill-rule="evenodd" stroke="none"/>
    <path d="M-3.85 2.2 Q-5.2 0.3 -4.45 -1.65 -4.0 -2.9 -2.9 -3.2 L-1.95 -3.2 Q-0.75 -3.15 0.2 -2.45 1.4 -5.3 4.25 -3.65 4.95 -3.0 4.8 -1.5 L4.5 -0.8 4.45 1.2 Q4.4 2.05 4.0 2.6 2.5 4.85 -0.35 4.1 L-2.95 4.15 Q-3.95 3.75 -3.85 2.8 L-3.85 2.2" fill="#decfb4" fill-rule="evenodd" stroke="none"/>
  </g>
</svg>
