<?xml version="1.0" encoding="UTF-8" standalone="no"?>
<svg xmlns:xlink="http://www.w3.org/1999/xlink" height="11.4px" width="11.75px" xmlns="http://www.w3.org/2000/svg">
  <g transform="matrix(1.0, 0.0, 0.0, 1.0, 6.05, 5.95)">
    <path d="M5.65 -1.65 Q5.1 -2.8 4.05 -3.4 L3.1 -3.75 Q2.4 -3.75 1.8 -3.35 0.9 -2.8 1.15 -1.9 L-0.4 -3.0 -1.2 -3.3 Q-2.65 -3.3 -3.65 -2.3 -5.2 -0.65 -5.0 3.15 L-5.8 1.75 Q-6.15 0.9 -6.05 -1.25 -6.0 -3.4 -3.05 -5.0 L-2.5 -5.3 Q-0.65 -6.0 0.25 -4.45 1.15 -6.3 3.05 -5.85 L4.55 -4.7 Q6.0 -3.15 5.65 -1.65" fill="#cea99f" fill-rule="evenodd" stroke="none"/>
    <path d="M-5.0 3.15 Q-5.2 -0.65 -3.65 -2.3 -2.65 -3.3 -1.2 -3.3 L-0.4 -3.0 1.15 -1.9 Q0.9 -2.8 1.8 -3.35 2.4 -3.75 3.1 -3.75 L4.05 -3.4 Q5.1 -2.8 5.65 -1.65 5.3 -0.55 4.65 0.1 3.85 0.95 4.0 1.05 3.75 4.6 -0.05 3.65 -0.2 4.8 -1.3 5.25 L-3.8 5.1 Q-5.25 4.5 -5.0 3.15" fill="#decfb4" fill-rule="evenodd" stroke="none"/>
  </g>
</svg>
