<?xml version="1.0" encoding="UTF-8" standalone="no"?>
<svg xmlns:xlink="http://www.w3.org/1999/xlink" height="12.35px" width="11.7px" xmlns="http://www.w3.org/2000/svg">
  <g transform="matrix(1.0, 0.0, 0.0, 1.0, 6.7, 6.6)">
    <path d="M-2.6 4.2 Q-5.05 3.95 -6.55 1.95 L-6.7 1.55 Q-6.45 -0.75 -4.75 -1.95 L-4.45 -2.1 -3.95 -4.25 -3.5 -5.25 Q-0.35 -7.4 2.85 -6.1 4.0 -5.7 4.4 -4.6 5.65 -1.3 4.2 2.15 4.75 -0.5 3.4 -2.05 L3.1 -3.95 Q2.95 -4.8 1.95 -5.0 -1.95 -5.9 -2.1 -2.3 -2.7 -1.7 -3.0 -0.9 -4.35 -0.25 -4.5 1.25 L-4.5 2.15 -3.05 3.2 -2.6 4.2" fill="#cea99f" fill-rule="evenodd" stroke="none"/>
    <path d="M-2.6 4.2 L-3.05 3.2 -4.5 2.15 -4.5 1.25 Q-4.35 -0.25 -3.0 -0.9 -2.7 -1.7 -2.1 -2.3 -1.95 -5.9 1.95 -5.0 2.95 -4.8 3.1 -3.95 L3.4 -2.05 Q4.75 -0.5 4.2 2.15 4.5 4.35 2.2 5.4 -0.1 6.5 -2.6 4.2" fill="#decfb4" fill-rule="evenodd" stroke="none"/>
  </g>
</svg>
