<?xml version="1.0" encoding="UTF-8" standalone="no"?>
<svg xmlns:xlink="http://www.w3.org/1999/xlink" height="18.05px" width="21.05px" xmlns="http://www.w3.org/2000/svg">
  <g transform="matrix(1.0, 0.0, 0.0, 1.0, 10.8, 9.1)">
    <path d="M9.3 -6.0 L7.15 -6.7 5.75 -7.05 Q3.1 -7.05 2.2 -5.25 1.5 -3.85 1.45 0.15 1.25 -0.75 0.5 -1.25 L-0.2 -1.65 0.0 -2.45 0.2 -3.2 Q0.2 -4.05 -0.45 -4.85 -1.5 -6.1 -3.6 -6.1 -5.35 -6.1 -7.05 -3.95 -8.75 -1.75 -8.75 0.65 -8.75 2.1 -7.7 3.55 -6.35 5.4 -4.1 5.4 -2.55 5.4 -0.75 4.25 1.1 2.8 1.9 2.25 L2.15 3.5 2.3 4.75 1.3 5.45 0.4 7.05 -0.35 8.15 -1.9 8.7 -3.25 8.95 Q-6.6 8.95 -8.65 6.45 -10.8 3.75 -10.8 -1.15 -10.8 -4.9 -8.0 -7.2 -5.65 -9.1 -3.1 -9.1 -2.35 -9.1 -0.75 -8.3 L1.05 -7.45 Q1.4 -7.45 2.0 -7.95 2.65 -8.45 3.45 -8.65 L3.75 -8.75 4.15 -8.8 6.75 -8.35 Q8.6 -7.65 9.3 -6.0" fill="#cea99f" fill-rule="evenodd" stroke="none"/>
    <path d="M2.3 4.75 L2.15 3.5 1.9 2.25 Q1.1 2.8 -0.75 4.25 -2.55 5.4 -4.1 5.4 -6.35 5.4 -7.7 3.55 -8.75 2.1 -8.75 0.65 -8.75 -1.75 -7.05 -3.95 -5.35 -6.1 -3.6 -6.1 -1.5 -6.1 -0.45 -4.85 0.2 -4.05 0.2 -3.2 L0.0 -2.45 -0.2 -1.65 0.5 -1.25 Q1.25 -0.75 1.45 0.15 1.5 -3.85 2.2 -5.25 3.1 -7.05 5.75 -7.05 L7.15 -6.7 9.3 -6.0 9.85 -5.05 Q10.25 -4.15 10.25 -3.25 10.25 -0.85 8.35 1.35 6.1 3.95 2.3 4.75" fill="#decfb4" fill-rule="evenodd" stroke="none"/>
  </g>
</svg>
