<?xml version="1.0" encoding="UTF-8" standalone="no"?>
<svg xmlns:xlink="http://www.w3.org/1999/xlink" height="19.7px" width="21.3px" xmlns="http://www.w3.org/2000/svg">
  <g transform="matrix(1.0, 0.0, 0.0, 1.0, 10.65, 10.1)">
    <path d="M10.4 -3.9 Q5.4 -9.3 0.25 -5.55 -0.9 -4.75 -1.35 -3.45 -0.8 -5.6 -3.0 -7.1 -7.35 -7.7 -8.35 -2.1 -8.8 0.25 -6.9 1.7 -5.05 3.1 -2.85 2.15 -2.9 5.3 -0.15 6.6 L3.0 6.85 3.05 7.7 Q3.05 8.15 2.1 8.9 1.1 9.6 -0.1 9.6 -2.4 9.6 -4.45 7.8 -5.45 5.2 -4.65 4.55 -5.5 4.45 -8.05 2.85 -10.65 1.25 -10.65 -1.15 -10.65 -3.55 -9.3 -5.75 -7.95 -7.95 -4.95 -8.05 -1.9 -8.2 -0.05 -9.15 1.7 -10.1 2.9 -10.1 4.85 -10.1 6.7 -8.65 8.65 -7.05 10.4 -3.9" fill="#cea99f" fill-rule="evenodd" stroke="none"/>
    <path d="M3.0 6.85 L-0.15 6.6 Q-2.9 5.3 -2.85 2.15 -5.05 3.1 -6.9 1.7 -8.8 0.25 -8.35 -2.1 -7.35 -7.7 -3.0 -7.1 -0.8 -5.6 -1.35 -3.45 -0.9 -4.75 0.25 -5.55 5.4 -9.3 10.4 -3.9 11.2 -2.35 9.45 0.05 7.7 2.4 5.1 1.45 7.2 4.85 3.0 6.85" fill="#decfb4" fill-rule="evenodd" stroke="none"/>
  </g>
</svg>
