<?xml version="1.0" encoding="UTF-8" standalone="no"?>
<svg xmlns:xlink="http://www.w3.org/1999/xlink" height="21.35px" width="21.4px" xmlns="http://www.w3.org/2000/svg">
  <g transform="matrix(1.0, 0.0, 0.0, 1.0, 10.6, 10.65)">
    <path d="M8.85 -8.9 Q5.25 -9.6 2.25 -7.7 1.1 -7.0 0.4 -6.15 L-0.25 -4.9 Q-0.25 -4.0 0.6 -2.75 L2.0 -1.35 1.55 -1.5 Q0.25 -1.85 -0.6 -2.75 -1.55 -3.7 -1.55 -4.75 L-1.15 -6.5 -2.3 -6.65 Q-4.65 -6.65 -6.75 -4.9 -9.0 -3.05 -9.0 -0.85 -9.0 2.15 -7.15 4.2 -5.45 6.0 -3.5 6.0 -1.9 6.0 0.35 4.5 L1.15 5.9 Q1.9 6.85 3.2 6.85 L5.7 6.1 Q8.1 5.2 8.85 4.5 8.5 7.05 5.4 9.0 2.55 10.7 -0.3 10.7 -5.15 10.7 -7.9 8.15 -10.6 5.5 -10.6 0.85 -10.6 -1.85 -9.5 -4.2 -8.35 -6.6 -6.65 -7.35 L-3.5 -8.5 -0.7 -9.75 Q1.45 -10.65 3.9 -10.65 L6.05 -10.35 Q7.8 -9.85 8.85 -8.9" fill="#cea99f" fill-rule="evenodd" stroke="none"/>
    <path d="M8.85 -8.9 L10.3 -6.4 10.8 -4.5 Q10.8 -3.35 9.75 -2.0 L8.65 -0.7 Q8.65 0.05 8.95 1.25 L9.25 2.55 9.1 3.4 8.85 4.5 Q8.1 5.2 5.7 6.1 L3.2 6.85 Q1.9 6.85 1.15 5.9 L0.35 4.5 Q-1.9 6.0 -3.5 6.0 -5.45 6.0 -7.15 4.2 -9.0 2.15 -9.0 -0.85 -9.0 -3.05 -6.75 -4.9 -4.65 -6.65 -2.3 -6.65 L-1.15 -6.5 -1.55 -4.75 Q-1.55 -3.7 -0.6 -2.75 0.25 -1.85 1.55 -1.5 L2.0 -1.35 0.6 -2.75 Q-0.25 -4.0 -0.25 -4.9 L0.4 -6.15 Q1.1 -7.0 2.25 -7.7 5.25 -9.6 8.85 -8.9" fill="#decfb4" fill-rule="evenodd" stroke="none"/>
  </g>
</svg>
