<?xml version="1.0" encoding="UTF-8" standalone="no"?>
<svg xmlns:xlink="http://www.w3.org/1999/xlink" height="40.8px" width="42.75px" xmlns="http://www.w3.org/2000/svg">
  <g transform="matrix(1.0, 0.0, 0.0, 1.0, 21.25, 20.65)">
    <path d="M18.25 4.3 Q17.95 3.25 16.65 2.25 L14.1 0.2 Q16.45 -0.95 17.1 -1.55 18.05 -2.45 18.05 -4.7 18.05 -6.8 17.0 -8.6 15.6 -10.95 13.05 -10.95 10.95 -10.95 10.0 -10.2 8.95 -9.4 8.95 -7.75 L9.2 -6.95 Q9.45 -6.15 9.75 -5.95 L8.65 -5.8 Q7.75 -5.9 7.5 -6.25 7.25 -6.6 7.15 -7.25 L7.05 -8.3 7.0 -8.2 6.8 -7.55 Q6.75 -7.4 6.4 -7.4 5.95 -7.4 5.65 -7.8 5.3 -8.25 5.3 -9.2 L5.5 -10.2 5.75 -11.15 Q5.75 -13.15 4.0 -15.45 2.0 -18.15 -0.6 -18.15 -5.4 -18.15 -8.1 -15.15 -10.0 -13.15 -10.0 -11.7 L-9.65 -10.65 -9.35 -9.7 Q-9.7 -8.2 -8.7 -7.3 -7.95 -6.6 -7.35 -6.6 L-4.2 -6.55 Q-2.15 -6.15 -2.15 -4.1 -2.15 -2.55 -2.5 -1.65 -3.0 -0.35 -4.35 0.4 L-4.15 0.15 -3.75 -0.8 Q-3.75 -1.7 -4.25 -2.85 -4.85 -4.2 -5.6 -4.2 L-8.4 -3.6 -11.9 -2.5 Q-12.7 -2.15 -13.05 -1.3 -13.45 -0.3 -13.45 1.75 -13.45 5.25 -12.5 7.35 -11.35 9.9 -9.0 9.95 L-5.65 10.15 -2.95 10.65 -1.8 10.5 -0.8 9.85 -0.7 11.9 Q-3.0 11.25 -4.65 12.25 -6.0 13.05 -6.0 13.8 -6.0 15.0 -4.8 16.65 -3.15 19.0 -0.1 20.15 -3.3 20.05 -5.8 19.15 L-9.1 17.6 -9.45 15.15 -9.8 15.15 Q-13.8 15.15 -13.4 13.2 -16.8 12.8 -18.55 11.55 -21.25 9.55 -21.25 5.05 L-20.6 2.4 Q-19.7 -0.25 -18.3 -1.0 -16.55 -1.35 -15.25 -2.1 -12.75 -3.5 -12.75 -6.65 -12.75 -9.35 -15.75 -10.35 -14.75 -14.95 -10.75 -17.85 -7.05 -20.65 -2.6 -20.65 1.5 -20.65 4.25 -18.15 6.75 -15.8 6.65 -12.95 9.1 -13.95 11.2 -13.95 15.85 -13.95 19.1 -8.6 20.2 -6.75 20.9 -4.65 21.5 -2.95 21.5 -2.3 21.5 -0.35 20.55 1.55 19.6 3.4 18.25 4.3" fill="#cea99f" fill-rule="evenodd" stroke="none"/>
    <path d="M-0.1 20.15 Q-3.15 19.0 -4.8 16.65 -6.0 15.0 -6.0 13.8 -6.0 13.05 -4.65 12.25 -3.0 11.25 -0.7 11.9 L-0.8 9.85 -1.8 10.5 -2.95 10.65 -5.65 10.15 -9.0 9.95 Q-11.35 9.9 -12.5 7.35 -13.45 5.25 -13.45 1.75 -13.45 -0.3 -13.05 -1.3 -12.7 -2.15 -11.9 -2.5 L-8.4 -3.6 -5.6 -4.2 Q-4.85 -4.2 -4.25 -2.85 -3.75 -1.7 -3.75 -0.8 L-4.15 0.15 -4.35 0.4 Q-3.0 -0.35 -2.5 -1.65 -2.15 -2.55 -2.15 -4.1 -2.15 -6.15 -4.2 -6.55 L-7.35 -6.6 Q-7.95 -6.6 -8.7 -7.3 -9.7 -8.2 -9.35 -9.7 L-9.65 -10.65 -10.0 -11.7 Q-10.0 -13.15 -8.1 -15.15 -5.4 -18.15 -0.6 -18.15 2.0 -18.15 4.0 -15.45 5.75 -13.15 5.75 -11.15 L5.5 -10.2 5.3 -9.2 Q5.3 -8.25 5.65 -7.8 5.95 -7.4 6.4 -7.4 6.75 -7.4 6.8 -7.55 L7.0 -8.2 7.05 -8.3 7.15 -7.25 Q7.25 -6.6 7.5 -6.25 7.75 -5.9 8.65 -5.8 L9.75 -5.95 Q9.45 -6.15 9.2 -6.95 L8.95 -7.75 Q8.95 -9.4 10.0 -10.2 10.95 -10.95 13.05 -10.95 15.6 -10.95 17.0 -8.6 18.05 -6.8 18.05 -4.7 18.05 -2.45 17.1 -1.55 16.45 -0.95 14.1 0.2 L16.65 2.25 Q17.95 3.25 18.25 4.3 L16.6 5.05 14.95 5.6 15.0 6.95 Q15.0 14.15 12.0 16.95 8.8 20.0 -0.1 20.15" fill="#decfb4" fill-rule="evenodd" stroke="none"/>
  </g>
</svg>
