<?xml version="1.0" encoding="UTF-8" standalone="no"?>
<svg xmlns:xlink="http://www.w3.org/1999/xlink" height="46.1px" width="46.95px" xmlns="http://www.w3.org/2000/svg">
  <g transform="matrix(1.0, 0.0, 0.0, 1.0, 23.75, 23.15)">
    <path d="M6.8 16.95 L5.75 17.05 5.4 17.25 4.85 18.15 3.8 19.3 Q3.05 19.95 2.05 20.05 L-0.4 20.0 -1.8 19.5 -4.7 17.75 Q-6.35 21.2 -9.8 22.5 L-11.75 22.95 Q-14.05 22.95 -15.65 21.75 -16.7 21.05 -17.25 19.95 L-18.05 18.05 -18.1 16.7 -17.6 15.1 -17.15 13.8 Q-21.55 13.8 -23.2 9.75 L-23.75 7.35 -23.65 5.75 Q-23.3 4.2 -22.25 3.15 L-21.0 2.15 -19.85 1.4 -18.7 0.5 Q-18.2 0.0 -18.25 -0.85 L-18.35 -1.45 -18.6 -4.2 -18.65 -4.85 Q-18.7 -9.25 -16.3 -13.25 -15.2 -15.1 -13.7 -16.55 L-10.0 -19.3 Q-8.45 -20.3 -6.7 -20.95 -3.95 -22.15 -1.15 -22.55 L5.0 -23.15 8.2 -22.85 Q10.55 -22.6 12.85 -21.45 L9.6 -22.05 5.65 -21.9 2.1 -21.55 -0.9 -20.9 -3.45 -20.05 Q-5.3 -19.25 -6.65 -17.85 -7.85 -16.6 -8.35 -14.9 -8.8 -13.2 -8.55 -11.35 -8.4 -10.1 -7.15 -9.8 L-6.0 -9.5 -5.1 -9.2 -10.95 -9.05 -11.35 -8.0 -11.05 -7.35 -11.3 -7.4 -12.3 -7.1 -13.3 -6.25 -13.95 -4.8 -14.3 -2.75 Q-14.4 -1.25 -13.85 0.05 -13.35 1.2 -12.35 1.65 L-10.6 2.3 -10.75 2.5 -11.75 2.8 -12.45 2.65 -14.05 2.25 -16.95 1.65 -18.45 2.25 Q-19.75 2.8 -20.3 4.3 -20.8 5.8 -20.55 7.35 -20.35 8.7 -19.5 9.75 -18.7 10.85 -17.55 10.9 -15.9 10.7 -14.95 11.8 L-14.9 12.3 -15.0 12.9 -15.25 13.9 -15.55 14.95 -15.7 15.6 Q-15.8 16.95 -14.75 17.75 L-13.35 18.5 -10.95 18.55 -9.15 17.65 Q-7.8 16.85 -7.15 15.35 -6.65 14.25 -7.0 13.0 L-7.15 12.85 -6.5 12.95 -5.9 13.05 -5.4 13.1 -5.25 13.15 Q-5.0 14.15 -4.9 15.2 L-4.6 16.35 -3.8 17.4 -2.5 17.9 Q-1.0 18.0 0.45 17.15 L2.75 15.75 3.3 15.4 3.65 15.5 4.0 15.6 5.1 16.15 6.15 16.7 6.8 16.95 M7.65 -7.3 Q7.1 -8.15 7.1 -9.1 7.1 -9.9 7.85 -10.4 8.6 -10.95 9.6 -10.95 12.1 -10.95 12.1 -8.35 12.1 -7.2 11.15 -6.65 L9.55 -6.25 Q8.35 -6.25 7.65 -7.3 M12.75 -3.85 Q17.95 0.6 15.0 6.45 12.75 10.85 7.8 11.15 L7.05 10.75 Q13.9 8.1 13.55 0.7 13.45 -1.65 12.1 -3.5 L12.75 -3.85 M17.55 -8.75 L18.75 -9.05 Q19.7 -9.05 20.1 -8.6 20.45 -8.1 20.35 -7.0 L18.45 -6.5 Q17.15 -6.4 17.15 -8.0 17.15 -8.45 17.55 -8.75" fill="#cea99f" fill-rule="evenodd" stroke="none"/>
    <path d="M6.8 16.95 L6.15 16.7 5.1 16.15 4.0 15.6 3.65 15.5 3.3 15.4 2.75 15.75 0.45 17.15 Q-1.0 18.0 -2.5 17.9 L-3.8 17.4 -4.6 16.35 -4.9 15.2 Q-5.0 14.15 -5.25 13.15 L-5.4 13.1 -5.9 13.05 -6.5 12.95 -7.15 12.85 -7.0 13.0 Q-6.65 14.25 -7.15 15.35 -7.8 16.85 -9.15 17.65 L-10.95 18.55 -13.35 18.5 -14.75 17.75 Q-15.8 16.95 -15.7 15.6 L-15.55 14.95 -15.25 13.9 -15.0 12.9 -14.9 12.3 -14.95 11.8 Q-15.9 10.7 -17.55 10.9 -18.7 10.85 -19.5 9.75 -20.35 8.7 -20.55 7.35 -20.8 5.8 -20.3 4.3 -19.75 2.8 -18.45 2.25 L-16.95 1.65 -14.05 2.25 -12.45 2.65 -11.75 2.8 -10.75 2.5 -10.6 2.3 -12.35 1.65 Q-13.35 1.2 -13.85 0.05 -14.4 -1.25 -14.3 -2.75 L-13.95 -4.8 -13.3 -6.25 -12.3 -7.1 -11.3 -7.4 -11.05 -7.35 -11.35 -8.0 -10.95 -9.05 -5.1 -9.2 -6.0 -9.5 -7.15 -9.8 Q-8.4 -10.1 -8.55 -11.35 -8.8 -13.2 -8.35 -14.9 -7.85 -16.6 -6.65 -17.85 -5.3 -19.25 -3.45 -20.05 L-0.9 -20.9 2.1 -21.55 5.65 -21.9 9.6 -22.05 12.85 -21.45 Q18.45 -18.45 20.9 -15.45 23.2 -12.65 23.2 -9.3 23.2 -7.4 22.55 -4.25 21.8 -0.45 19.65 7.4 L18.7 10.5 Q18.25 11.35 16.0 13.25 L14.75 14.25 12.35 15.2 10.5 15.2 9.7 16.05 Q8.6 16.95 6.9 17.0 L6.8 16.95 M17.55 -8.75 Q17.15 -8.45 17.15 -8.0 17.15 -6.4 18.45 -6.5 L20.35 -7.0 Q20.45 -8.1 20.1 -8.6 19.7 -9.05 18.75 -9.05 L17.55 -8.75 M12.75 -3.85 L12.1 -3.5 Q13.45 -1.65 13.55 0.7 13.9 8.1 7.05 10.75 L7.8 11.15 Q12.75 10.85 15.0 6.45 17.95 0.6 12.75 -3.85 M7.65 -7.3 Q8.35 -6.25 9.55 -6.25 L11.15 -6.65 Q12.1 -7.2 12.1 -8.35 12.1 -10.95 9.6 -10.95 8.6 -10.95 7.85 -10.4 7.1 -9.9 7.1 -9.1 7.1 -8.15 7.65 -7.3" fill="#decfb4" fill-rule="evenodd" stroke="none"/>
  </g>
</svg>
