<?xml version="1.0" encoding="UTF-8" standalone="no"?>
<svg xmlns:xlink="http://www.w3.org/1999/xlink" height="49.25px" width="46.2px" xmlns="http://www.w3.org/2000/svg">
  <g transform="matrix(1.0, 0.0, 0.0, 1.0, 23.1, 24.95)">
    <path d="M17.8 -7.85 L13.6 -7.95 Q14.65 -8.55 15.65 -10.15 16.95 -12.15 16.95 -14.2 16.95 -17.6 15.4 -19.45 13.6 -21.7 9.3 -21.7 4.55 -21.7 2.05 -18.9 -0.4 -16.2 -0.7 -10.85 -2.55 -12.4 -3.15 -13.4 -3.65 -14.25 -3.65 -15.7 L-3.4 -18.55 -3.2 -20.1 Q-4.7 -20.35 -5.9 -18.5 L-8.05 -15.45 -11.55 -12.4 Q-12.6 -11.6 -16.2 -10.85 L-14.7 -7.55 Q-13.05 -4.45 -11.7 -3.65 L-9.4 -2.4 Q-7.55 -1.55 -5.8 -1.2 -7.55 -0.4 -8.6 0.4 -9.9 1.4 -9.9 2.25 -9.9 4.1 -9.05 5.0 L-8.2 6.1 Q-8.2 6.5 -8.4 6.4 L-10.9 6.05 Q-13.85 6.05 -16.3 8.3 -19.15 10.9 -19.15 14.9 -19.15 16.5 -18.6 18.2 L-17.8 20.0 Q-17.4 20.6 -14.2 21.5 -10.8 22.45 -8.35 22.45 -5.05 22.45 0.35 20.95 L5.15 19.4 5.75 19.95 6.7 20.7 Q5.35 22.05 1.0 23.2 -3.15 24.3 -6.5 24.3 -14.9 24.3 -19.0 21.8 -23.1 19.35 -23.1 14.35 -23.1 10.45 -21.3 7.9 -19.65 5.55 -16.05 3.75 L-15.75 2.85 Q-15.35 2.0 -14.6 1.45 L-16.3 0.5 Q-17.35 -0.3 -17.35 -1.6 -17.35 -1.9 -16.2 -2.45 L-18.45 -4.2 -18.0 -6.45 Q-18.0 -8.05 -18.4 -9.35 -19.0 -11.35 -20.4 -12.1 L-19.35 -12.1 Q-16.0 -12.1 -13.05 -14.95 -9.8 -18.1 -9.1 -23.0 L-6.15 -23.0 -5.9 -22.4 -5.5 -22.35 -3.95 -22.45 -1.65 -23.25 2.8 -24.4 7.65 -24.95 Q12.55 -24.95 17.05 -21.8 21.8 -18.45 21.8 -14.35 L20.4 -12.4 18.8 -10.3 18.3 -9.25 17.8 -7.85 M13.6 9.65 L12.8 8.4 Q12.25 7.45 12.25 6.45 L12.3 5.05 Q12.7 6.15 14.35 6.85 15.9 7.55 17.75 7.55 19.75 7.55 20.85 6.3 21.85 5.05 22.6 2.0 L22.9 3.0 23.1 3.7 Q23.1 6.35 20.85 8.3 18.7 10.2 16.05 10.2 L15.0 10.1 13.6 9.65 M1.3 15.75 Q0.55 17.8 -1.1 18.9 L-0.3 17.2 Q-0.15 16.75 -0.15 15.55 -0.7 13.1 -0.9 12.9 L-1.35 12.4 -3.0 10.75 -2.7 9.05 -2.9 8.45 Q-3.25 8.0 -4.05 8.0 1.9 7.55 1.9 12.4 1.9 14.2 1.3 15.75" fill="#cea99f" fill-rule="evenodd" stroke="none"/>
    <path d="M6.7 20.7 L5.75 19.95 5.15 19.4 0.35 20.95 Q-5.05 22.45 -8.35 22.45 -10.8 22.45 -14.2 21.5 -17.4 20.6 -17.8 20.0 L-18.6 18.2 Q-19.15 16.5 -19.15 14.9 -19.15 10.9 -16.3 8.3 -13.85 6.05 -10.9 6.05 L-8.4 6.4 Q-8.2 6.5 -8.2 6.1 L-9.05 5.0 Q-9.9 4.1 -9.9 2.25 -9.9 1.4 -8.6 0.4 -7.55 -0.4 -5.8 -1.2 -7.55 -1.55 -9.4 -2.4 L-11.7 -3.65 Q-13.05 -4.45 -14.7 -7.55 L-16.2 -10.85 Q-12.6 -11.6 -11.55 -12.4 L-8.05 -15.45 -5.9 -18.5 Q-4.7 -20.35 -3.2 -20.1 L-3.4 -18.55 -3.65 -15.7 Q-3.65 -14.25 -3.15 -13.4 -2.55 -12.4 -0.7 -10.85 -0.4 -16.2 2.05 -18.9 4.55 -21.7 9.3 -21.7 13.6 -21.7 15.4 -19.45 16.95 -17.6 16.95 -14.2 16.95 -12.15 15.65 -10.15 14.65 -8.55 13.6 -7.95 L17.8 -7.85 Q17.0 -6.25 18.0 -4.7 18.5 -3.9 19.4 -3.2 L20.65 -1.45 21.4 0.15 Q21.9 1.3 22.6 2.0 21.85 5.05 20.85 6.3 19.75 7.55 17.75 7.55 15.9 7.55 14.35 6.85 12.7 6.15 12.3 5.05 L12.25 6.45 Q12.25 7.45 12.8 8.4 L13.6 9.65 12.75 9.25 13.55 10.75 Q14.25 12.45 14.25 14.15 14.25 17.65 12.55 19.5 11.35 20.9 9.9 20.9 L8.4 20.65 Q7.5 20.35 7.3 19.75 L6.7 20.7 M1.3 15.75 Q1.9 14.2 1.9 12.4 1.9 7.55 -4.05 8.0 -3.25 8.0 -2.9 8.45 L-2.7 9.05 -3.0 10.75 -1.35 12.4 -0.9 12.9 Q-0.7 13.1 -0.15 15.55 -0.15 16.75 -0.3 17.2 L-1.1 18.9 Q0.55 17.8 1.3 15.75" fill="#decfb4" fill-rule="evenodd" stroke="none"/>
  </g>
</svg>
