<?xml version="1.0" encoding="UTF-8" standalone="no"?>
<svg xmlns:xlink="http://www.w3.org/1999/xlink" height="223.95px" width="105.15px" xmlns="http://www.w3.org/2000/svg">
  <g transform="matrix(1.0, 0.0, 0.0, 1.0, 52.55, 111.95)">
    <path d="M51.55 -60.3 L51.25 -60.2 41.95 -56.0 41.45 -55.75 40.8 -55.5 40.6 -55.4 40.4 -54.75 40.55 -54.75 36.15 -53.75 36.15 -55.2 33.1 -56.15 32.25 -56.45 27.6 -57.25 23.0 -57.2 Q-5.1 -56.9 -32.15 -57.1 L-31.7 -56.35 -31.3 -54.75 -28.35 -54.6 -28.4 -54.55 -28.5 -54.4 Q-28.45 -54.25 -28.75 -53.7 L-28.8 -53.55 Q-29.85 -52.0 -34.15 -48.55 L-34.7 -48.85 -40.95 -50.9 -36.25 -53.95 -35.1 -54.5 -34.6 -54.75 -34.45 -54.85 -34.6 -54.85 -33.75 -59.6 -33.4 -59.55 -29.1 -59.85 -4.9 -59.9 -4.15 -59.85 -3.35 -59.75 1.4 -59.55 Q5.65 -59.35 24.8 -59.4 L31.1 -59.4 36.15 -60.05 36.25 -60.05 36.65 -60.1 36.65 -60.05 37.9 -60.25 37.55 -60.3 41.45 -60.6 Q46.5 -61.1 51.35 -62.35 L51.5 -61.0 51.55 -60.3 M35.8 -48.95 L32.45 -52.8 32.4 -53.8 32.4 -53.85 35.8 -53.85 35.95 -53.75 Q37.95 -52.25 40.35 -51.35 L40.55 -51.25 Q38.25 -50.35 36.0 -49.1 L35.8 -48.95 M31.8 1.4 Q32.0 2.7 31.7 4.2 L31.55 5.2 31.1 5.65 Q29.8 7.0 29.6 8.65 L29.1 8.5 28.35 8.4 28.3 8.4 28.35 3.9 28.5 3.95 30.1 4.15 31.15 2.7 30.55 2.7 31.8 1.4 M40.85 -57.45 L40.95 -58.05 40.9 -58.25 40.85 -57.45 M17.9 -53.35 L14.15 -45.65 12.35 -45.8 15.9 -53.35 17.9 -53.35 M-30.9 -42.75 L-29.9 -44.05 -18.25 -43.9 -16.7 -41.8 Q-15.95 -40.9 -14.9 -40.55 L-9.5 -42.7 -7.45 -42.45 15.6 -41.25 Q16.65 -41.75 17.7 -41.25 L19.4 -41.15 Q21.15 -40.7 22.0 -42.3 L33.1 -42.55 31.2 -40.3 32.15 -38.0 29.85 -38.3 26.6 -37.0 26.4 -38.3 25.15 -38.55 25.15 -36.85 23.75 -37.1 Q23.6 -37.2 23.6 -37.5 L22.9 -37.85 22.6 -34.55 23.55 -35.15 23.65 -36.7 25.15 -36.1 25.1 -34.55 25.35 -34.6 26.15 -35.65 26.4 -36.15 29.3 -36.75 29.25 -36.35 28.35 -34.65 Q27.6 -33.65 26.5 -32.9 L24.4 -31.45 23.9 -31.05 20.4 -30.9 20.45 -32.1 20.6 -32.25 Q21.65 -32.4 22.1 -33.1 L21.1 -33.45 20.6 -33.45 18.85 -33.35 18.95 -34.6 19.0 -34.85 18.95 -35.1 Q18.85 -36.0 18.35 -36.35 L18.6 -36.5 Q19.8 -36.65 20.15 -37.35 L20.35 -37.5 21.6 -37.65 22.9 -37.85 23.35 -37.95 23.6 -38.1 Q24.1 -38.7 24.85 -38.95 25.0 -38.95 24.95 -39.0 24.6 -39.7 25.1 -40.1 L17.85 -40.65 8.85 -41.05 7.35 -41.2 Q6.5 -41.3 6.35 -40.85 L6.85 -40.8 7.35 -40.65 Q10.05 -39.95 12.1 -38.85 6.9 -37.85 1.35 -37.75 L-3.65 -37.1 -4.9 -37.0 Q-6.1 -37.05 -6.15 -36.1 L-5.65 -35.8 -3.9 -34.6 -3.5 -34.3 -2.75 -33.3 Q-2.3 -32.7 -1.7 -32.45 L-1.8 -32.25 -3.95 -31.7 -6.4 -30.45 -21.95 -30.55 -15.65 -33.65 -14.15 -34.35 -15.65 -34.7 -16.15 -34.75 -17.15 -34.95 -17.4 -35.1 Q-15.65 -34.9 -14.35 -36.05 L-13.95 -36.4 -13.05 -37.65 -13.15 -37.85 -13.8 -38.65 -14.0 -38.95 -14.35 -39.15 -14.65 -39.35 Q-15.85 -40.8 -18.65 -41.5 -23.15 -42.65 -27.9 -42.45 L-29.65 -42.55 -30.9 -42.75 M31.5 -33.8 L30.85 -33.7 30.15 -33.5 28.35 -32.85 27.65 -32.6 32.1 -36.75 31.5 -33.8 M-37.6 -60.15 L-37.6 -60.1 -37.35 -56.2 -37.4 -55.8 -37.45 -55.45 -37.45 -55.25 -37.45 -55.2 -37.5 -54.2 -40.95 -54.2 -40.9 -54.6 -51.8 -54.75 -52.0 -55.35 Q-52.45 -56.55 -52.35 -58.1 L-52.4 -60.45 Q-52.7 -61.15 -52.35 -60.45 L-51.85 -59.45 Q-50.85 -57.45 -49.25 -56.55 -47.65 -55.65 -44.3 -55.9 L-40.85 -56.2 -40.7 -56.2 -40.5 -59.35 -40.65 -59.35 -40.65 -59.9 -37.6 -60.15 M-13.65 -54.1 L-11.6 -54.1 -8.9 -46.45 -9.5 -45.55 -11.35 -48.4 Q-13.0 -51.05 -13.65 -54.1 M-1.4 -30.4 Q-1.4 -31.4 -0.65 -31.3 0.1 -31.25 0.1 -30.35 L-0.65 -29.5 -1.4 -30.4" fill="#510602" fill-rule="evenodd" stroke="none"/>
    <path d="M40.55 -54.75 L40.4 -54.75 40.6 -55.4 40.8 -55.5 41.45 -55.75 41.95 -56.0 51.25 -60.2 51.55 -60.3 51.5 -55.5 40.55 -54.75 M-33.75 -59.6 L-34.6 -54.85 -34.6 -54.75 -35.1 -54.5 -36.05 -54.55 -37.4 -54.2 -37.45 -55.2 -37.45 -55.25 -37.35 -56.2 -37.6 -60.1 -37.6 -60.15 -33.75 -59.6 M-40.95 -50.9 L-34.7 -48.85 -34.15 -48.55 -36.8 -46.3 -37.85 -45.2 Q-39.8 -43.25 -42.25 -41.7 L-44.1 -40.5 -49.15 -45.7 -40.95 -50.9 M-28.4 -54.55 L-28.35 -54.6 -31.3 -54.75 -31.7 -56.35 -32.15 -57.1 Q-5.1 -56.9 23.0 -57.2 L27.6 -57.25 32.25 -56.45 33.1 -56.15 36.15 -55.2 36.15 -53.75 35.95 -53.75 35.8 -53.85 32.4 -53.85 32.4 -53.8 32.1 -53.8 31.15 -53.85 29.25 -53.9 29.2 -53.7 28.35 -53.7 27.75 -53.7 14.8 -53.85 11.8 -53.9 -4.35 -54.05 -5.6 -54.1 -7.95 -54.1 -9.5 -54.1 -11.6 -54.1 -13.65 -54.1 -15.65 -54.1 Q-15.35 -51.8 -14.45 -49.55 L-14.2 -48.8 Q-13.6 -46.75 -12.6 -45.1 L-15.7 -42.9 -21.6 -53.7 -16.15 -54.1 -22.3 -54.15 -23.1 -54.2 -23.9 -54.25 -28.4 -54.55 M40.55 -51.25 L42.0 -50.65 45.55 -48.65 Q47.45 -47.5 49.45 -46.95 L49.7 -46.9 45.85 -42.25 40.65 -45.1 38.7 -46.3 Q37.5 -47.1 36.4 -48.35 L35.8 -48.95 36.0 -49.1 Q38.25 -50.35 40.55 -51.25 M23.55 -53.0 L19.45 -42.55 15.7 -44.6 19.5 -53.05 23.55 -53.0 M-40.65 -59.35 L-40.5 -59.35 -40.7 -56.2 -40.85 -56.2 -44.3 -55.9 Q-47.65 -55.65 -49.25 -56.55 -50.85 -57.45 -51.85 -59.45 L-52.35 -60.45 -40.65 -59.35" fill="#a40d04" fill-rule="evenodd" stroke="none"/>
    <path d="M-28.8 -53.55 L-28.75 -53.7 Q-28.45 -54.25 -28.5 -54.4 L-28.4 -54.55 -23.9 -54.25 -23.8 -54.05 -19.5 -45.9 -28.35 -45.9 -28.35 -45.95 -28.75 -53.2 -28.8 -53.4 -28.8 -53.55 M32.1 -53.8 L31.85 -53.35 31.8 -44.5 25.45 -44.5 27.05 -44.8 27.35 -45.1 28.35 -47.2 31.05 -53.6 31.15 -53.85 32.1 -53.8 M29.35 -29.75 L30.65 -30.05 30.7 -27.25 31.45 -27.1 31.7 -25.7 31.75 -23.6 31.7 -22.3 31.7 -17.05 31.65 -14.6 31.6 -13.95 31.45 -12.5 31.4 -12.0 Q31.2 -11.25 31.65 -10.55 L30.6 -10.0 Q28.2 -8.9 28.65 -6.15 28.95 -4.1 28.9 -2.05 L28.85 -2.05 28.7 -0.25 28.6 0.95 28.6 1.0 28.6 1.7 28.5 1.65 28.55 2.15 28.5 3.95 28.35 3.9 28.3 8.4 28.25 9.65 28.3 9.65 28.0 18.95 28.1 19.25 30.65 19.45 30.65 22.4 Q29.3 22.6 28.5 23.3 L28.1 23.4 27.95 23.4 Q27.5 26.25 27.45 29.15 L27.2 30.95 27.15 31.4 27.15 31.65 Q27.3 32.6 26.6 32.9 L26.1 33.05 Q25.4 33.1 25.45 33.9 25.5 34.55 24.85 34.5 L22.1 34.65 22.8 36.3 22.85 36.35 22.6 36.35 21.9 36.3 21.1 35.95 Q20.1 35.45 18.85 35.55 L15.1 35.85 Q14.75 35.9 14.6 36.1 14.35 36.4 14.25 36.9 13.9 38.7 13.8 40.65 13.75 41.75 14.3 42.2 14.65 42.45 15.35 42.5 L20.75 42.15 21.6 40.9 22.55 39.6 Q23.25 38.7 23.55 37.65 23.85 36.65 23.35 36.4 L25.35 36.5 25.5 36.65 Q25.55 37.95 26.1 38.65 L26.35 38.9 Q26.95 39.6 26.9 40.65 L26.55 47.65 26.45 48.9 26.35 52.4 Q27.6 52.4 28.5 51.55 L28.6 51.15 28.5 46.9 28.5 45.9 28.8 42.75 28.8 43.15 28.95 61.6 28.75 62.1 Q27.65 63.45 26.65 65.15 L28.2 68.7 29.15 69.1 29.85 69.3 Q30.45 69.5 30.95 69.95 31.75 70.75 31.75 72.05 L31.75 73.2 30.8 74.15 29.25 75.95 Q28.7 76.7 28.3 77.6 28.0 78.3 28.15 79.1 L28.5 81.75 28.55 82.3 Q28.45 84.0 29.45 85.35 L30.15 85.85 32.65 86.75 32.7 87.95 32.85 92.6 33.0 97.95 29.45 101.3 29.6 102.2 29.65 102.1 Q30.95 102.5 32.0 101.75 L33.1 100.8 33.6 100.6 34.1 101.95 34.9 100.2 Q38.2 101.3 41.3 103.55 L37.7 104.15 35.75 104.75 33.85 105.35 Q32.55 105.75 31.1 105.35 L24.2 105.5 24.15 104.9 Q23.85 102.05 24.75 100.35 L24.75 100.0 Q24.35 99.4 24.35 98.4 L24.45 97.7 Q25.05 96.1 23.1 96.15 L20.85 96.05 20.1 96.0 19.85 96.0 15.1 95.9 Q15.45 94.75 15.45 93.4 15.45 92.95 16.1 93.0 L17.4 92.75 17.8 92.55 19.6 91.4 20.55 90.8 20.75 90.4 20.95 86.65 21.1 81.65 21.2 80.9 Q21.5 79.65 21.45 78.15 21.45 77.25 20.65 76.6 19.2 75.5 17.35 75.4 L16.6 75.35 Q15.55 75.1 15.65 75.9 15.75 76.65 15.3 77.1 L14.95 77.45 Q14.2 78.3 12.85 78.2 L11.9 78.25 9.15 78.05 8.35 77.7 Q7.95 77.45 8.2 76.7 8.65 75.45 8.2 74.6 L8.25 74.25 Q9.0 73.5 10.1 73.45 L10.85 73.15 11.1 73.0 12.05 72.35 12.2 72.15 12.2 71.95 Q11.15 66.45 11.9 60.65 12.05 59.55 11.35 59.35 10.15 59.0 9.15 58.35 8.55 58.0 7.85 58.0 L4.6 58.15 Q2.9 58.3 1.85 57.6 L1.6 57.5 Q0.4 57.35 0.7 55.9 L0.75 54.65 Q0.7 54.1 1.1 54.25 L1.25 54.3 1.45 53.95 1.75 53.1 1.95 52.7 Q2.4 51.75 1.85 51.15 L1.5 50.6 Q1.15 49.85 0.35 49.7 L-4.15 49.15 -4.1 48.65 Q-3.65 47.15 -3.7 45.4 -3.7 44.35 -3.15 43.9 -2.75 43.55 -2.65 42.9 -2.45 41.9 -1.4 41.45 L-0.65 41.25 3.1 41.1 Q5.5 41.05 7.6 41.9 L8.1 42.0 Q8.75 42.0 8.85 42.4 L8.9 41.15 9.1 38.15 9.2 37.45 9.55 35.65 9.65 34.65 10.0 32.15 10.1 31.4 10.2 30.65 Q10.5 28.55 10.25 26.4 10.0 24.5 11.1 23.15 L11.65 22.75 14.15 21.2 Q15.35 20.25 17.35 20.3 18.5 20.35 19.15 19.4 L19.25 19.15 19.05 18.2 19.0 17.9 Q19.05 16.95 18.6 16.65 L18.05 15.95 17.85 15.75 Q16.45 15.55 15.35 14.65 L14.8 14.25 14.6 14.15 14.55 12.65 14.5 9.65 14.45 9.15 14.3 3.15 14.0 -1.1 Q13.8 -2.85 14.6 -3.85 L15.2 -4.5 Q15.65 -4.9 15.5 -5.85 15.35 -6.7 16.1 -6.7 L16.35 -6.75 18.35 -6.8 21.6 -7.1 Q22.0 -7.2 22.3 -7.45 24.35 -8.8 23.75 -11.6 L23.55 -11.8 Q22.35 -12.3 22.0 -13.35 L22.0 -13.55 22.3 -14.6 22.45 -15.35 22.5 -15.6 Q22.7 -16.7 24.1 -16.6 L24.55 -16.5 25.4 -16.6 25.5 -17.1 Q25.6 -18.85 25.95 -20.6 26.4 -23.0 26.35 -25.6 L26.25 -26.05 25.4 -26.9 25.1 -27.0 23.85 -27.2 17.1 -27.55 15.1 -27.4 12.85 -27.2 8.85 -26.95 7.35 -26.65 Q6.95 -26.4 7.05 -25.6 7.15 -24.9 6.8 -24.7 L6.4 -24.5 Q5.8 -24.3 5.65 -23.6 L5.5 -23.25 5.15 -22.6 5.05 -22.35 3.35 -22.45 3.05 -22.55 Q2.65 -22.65 2.7 -23.1 L2.65 -23.5 Q2.35 -24.0 2.85 -24.6 L3.05 -24.85 3.2 -25.25 Q3.55 -25.65 3.4 -26.6 L3.25 -27.05 Q3.1 -27.5 2.35 -27.7 L2.1 -27.75 0.85 -27.95 -0.2 -28.25 -1.9 -28.6 -1.7 -28.85 0.75 -29.05 1.4 -28.45 4.25 -28.6 5.85 -29.1 24.85 -29.3 28.35 -29.65 28.8 -29.75 29.35 -29.75 M-9.2 111.55 Q-10.9 111.2 -12.3 110.1 L-14.7 108.15 -15.85 107.5 -18.15 107.4 -19.45 107.95 -20.25 108.5 Q-21.05 109.25 -22.15 109.2 -25.2 109.55 -28.1 109.15 -31.05 108.6 -33.85 107.6 -34.7 106.35 -36.05 106.25 L-38.0 105.65 -38.45 105.4 -40.8 104.15 -41.4 102.5 Q-38.45 102.3 -36.4 99.95 L-35.45 99.05 Q-34.4 98.0 -34.7 96.7 L-35.15 96.15 -35.15 92.35 -35.15 88.45 -35.15 85.15 -32.2 83.4 Q-31.95 78.4 -32.3 73.4 L-32.55 69.9 -32.75 67.75 -33.15 64.15 -30.9 63.65 -30.6 62.95 Q-30.2 61.55 -30.25 60.2 L-30.45 52.9 -30.5 46.45 -30.45 44.35 -30.25 42.35 -30.05 42.0 -29.65 41.85 -29.15 41.75 -27.9 41.75 -27.6 41.85 Q-27.4 41.9 -27.25 42.0 L-25.65 43.15 Q-24.8 43.75 -24.9 44.9 L-24.95 45.15 Q-27.05 45.4 -28.4 44.15 -28.15 44.4 -28.25 44.9 -28.5 46.65 -27.15 47.4 L-25.85 48.05 Q-24.75 48.65 -24.65 49.9 L-24.2 48.9 -24.05 48.45 Q-23.7 47.6 -22.9 47.1 L-22.7 46.85 Q-22.35 46.0 -21.35 46.55 L-20.9 46.7 -18.15 47.65 -19.95 46.2 -20.25 45.85 Q-20.85 44.45 -21.9 43.95 L-23.4 43.1 -23.5 42.9 Q-23.4 41.3 -24.4 40.9 L-26.9 40.1 -27.65 39.95 -30.75 40.2 -32.35 38.8 -32.5 37.9 -32.3 34.15 -32.05 31.4 Q-31.55 25.45 -31.65 19.45 L-31.6 18.7 Q-31.45 17.55 -30.4 16.85 L-28.85 16.45 -28.75 15.4 -28.15 -2.85 Q-28.05 -6.1 -28.4 -9.45 -28.55 -11.0 -29.15 -12.6 L-29.45 -11.95 -30.8 -12.65 -30.6 -12.7 -30.15 -24.85 -29.5 -26.5 -28.3 -28.15 -28.1 -28.35 -27.95 -28.6 -3.15 -28.3 -4.45 -27.4 -4.75 -27.0 -4.75 -26.85 -4.65 -20.85 -4.75 -20.4 Q-5.15 -19.75 -4.65 -19.35 L-2.9 -17.6 -2.5 -17.05 Q-2.2 -16.5 -1.65 -16.7 L-1.35 -16.75 -0.95 -16.95 0.35 -17.1 0.65 -17.0 1.6 -14.85 1.75 -14.6 2.9 -11.85 3.0 -11.35 Q3.25 -10.25 4.35 -10.0 L4.6 -10.0 Q5.15 -10.0 5.2 -9.6 5.3 -8.65 4.85 -8.4 L4.4 -8.05 3.8 -7.7 3.5 -7.45 3.3 -7.1 3.2 -6.85 3.05 -6.1 2.3 -4.1 Q2.25 -3.95 2.1 -3.95 0.9 -3.55 0.15 -2.8 -0.45 -2.3 -1.45 -1.95 L-1.8 -1.75 -2.7 -1.8 Q-3.15 -2.35 -2.65 -2.6 -1.25 -3.3 -0.15 -4.1 L0.05 -4.35 0.0 -4.65 Q-0.7 -4.9 -0.95 -5.55 L-1.0 -5.85 Q-1.0 -6.5 -1.4 -6.55 L-1.9 -6.65 -2.2 -6.9 -2.45 -8.6 Q-2.6 -10.15 -3.1 -11.1 L-3.65 -11.55 Q-7.05 -11.45 -10.15 -9.8 L-10.95 -9.45 Q-11.75 -9.2 -11.6 -8.35 -11.35 -6.8 -11.5 -5.1 -11.6 -3.65 -10.7 -3.25 L-10.35 -2.8 Q-10.2 -2.15 -9.7 -2.0 L-8.65 -1.55 -8.35 -1.4 -6.9 -0.85 -6.4 -0.75 Q-5.45 -0.8 -5.15 -0.35 -5.7 0.1 -5.65 1.15 L-5.75 1.55 -6.1 1.95 Q-7.05 2.8 -8.4 2.9 -8.0 1.4 -9.35 1.75 L-10.4 1.9 -13.15 1.9 -13.45 2.0 Q-14.1 3.75 -15.35 5.45 L-16.0 6.3 Q-16.5 6.75 -16.3 7.4 L-16.3 7.65 -16.3 8.1 -17.1 6.85 Q-18.5 5.15 -18.15 3.2 L-17.8 2.15 -16.85 0.5 -10.15 1.0 -9.85 0.45 -10.1 -0.3 -14.4 -1.1 -15.15 -1.85 Q-14.45 -3.15 -14.9 -4.45 L-15.85 -6.45 Q-16.9 -8.25 -15.8 -9.9 -14.8 -11.4 -13.25 -12.1 L-1.4 -12.6 -0.75 -9.8 Q-0.4 -8.25 0.85 -7.3 L1.3 -7.4 Q2.3 -8.7 1.75 -10.5 L1.1 -12.55 -0.15 -15.55 Q-2.6 -14.55 -4.1 -16.85 L-5.15 -18.6 -7.35 -22.55 Q-8.0 -22.95 -8.2 -21.65 L-8.65 -19.6 Q-8.9 -18.5 -9.3 -17.45 L-9.9 -16.05 -16.95 -14.35 -19.4 -15.5 -20.15 -13.85 -27.1 -13.3 -24.6 -12.65 -24.5 -11.8 -24.35 -12.05 -21.8 -11.25 Q-20.2 -10.6 -19.5 -9.0 L-19.1 -7.55 -18.9 -5.35 -23.6 -4.3 -23.55 -3.5 -20.2 -3.3 Q-18.95 -3.2 -18.2 -2.3 L-17.5 -1.1 -17.15 -0.15 Q-20.25 2.1 -21.65 5.95 L-21.8 7.45 Q-21.55 8.9 -20.6 9.95 L-15.55 11.1 Q-15.3 10.85 -15.4 10.4 L-15.75 9.3 -15.65 9.4 -15.45 9.7 -15.15 10.3 -14.7 10.95 -14.2 11.65 Q-13.55 12.9 -14.1 14.15 L-14.6 15.15 -14.95 15.55 Q-15.45 15.95 -15.3 16.9 L-15.05 19.4 -15.0 20.15 -14.65 22.65 Q-14.3 24.7 -14.4 26.9 L-14.25 31.4 -14.25 31.5 Q-15.4 32.3 -17.15 32.55 -17.95 32.7 -17.95 33.4 -17.85 35.35 -18.65 36.65 -19.15 37.4 -19.5 38.65 L-19.65 38.9 -21.15 39.5 -21.4 39.55 Q-22.45 39.8 -23.05 40.3 L-23.15 40.65 Q-23.1 41.35 -23.4 41.9 L-17.0 41.8 -13.4 41.55 -13.4 43.15 -13.4 43.9 -13.1 52.65 -12.9 56.75 Q-13.25 57.35 -14.15 57.5 L-14.4 57.55 -15.45 57.85 Q-16.2 58.3 -16.25 59.65 L-16.45 60.1 -16.8 60.5 -16.8 60.85 -16.15 61.9 Q-15.5 62.9 -15.3 64.15 L-15.3 64.2 -14.9 64.2 Q-14.6 64.2 -14.45 64.65 L-13.8 66.6 -13.55 67.0 -13.55 67.15 Q-13.35 68.95 -13.4 70.9 L-13.3 72.9 Q-13.1 75.0 -13.25 77.15 L-13.3 79.15 Q-13.3 81.05 -13.65 82.9 L-13.8 84.15 -14.1 88.15 -14.05 88.5 -13.55 89.1 Q-13.15 90.1 -14.1 90.45 L-14.25 90.65 -14.3 90.9 Q-14.3 91.55 -13.65 91.5 L-12.4 91.5 -10.4 91.95 -9.9 92.1 Q-9.2 92.3 -8.6 92.85 L-6.9 94.65 Q-6.6 94.95 -6.75 95.65 L-6.8 95.9 -6.8 97.4 Q-6.8 97.9 -7.2 98.1 L-9.15 98.75 -9.4 98.9 Q-9.65 101.8 -9.55 104.65 L-9.5 106.15 -9.2 111.55 M-4.35 -54.05 Q-4.35 -53.8 -4.65 -53.75 L-4.9 -53.7 Q-5.3 -53.65 -5.1 -53.1 L-4.25 -51.05 -4.05 -50.65 -3.75 -50.05 -3.15 -49.65 -1.9 -49.5 -1.65 -49.45 Q-1.25 -49.4 -1.45 -48.85 -1.85 -47.75 -3.15 -47.75 L-3.4 -47.65 -3.65 -47.55 -3.9 -45.85 -3.85 -45.6 -1.4 -45.35 7.7 -45.35 8.85 -47.1 9.05 -47.35 9.25 -47.7 9.55 -47.95 10.85 -48.1 11.2 -48.2 11.4 -48.85 Q11.45 -49.85 11.05 -50.3 L10.6 -50.5 Q9.95 -50.55 9.95 -51.1 9.95 -51.65 10.6 -51.7 10.85 -51.7 11.0 -51.95 L11.65 -53.35 11.8 -53.9 14.8 -53.85 10.1 -44.3 -4.35 -44.3 -4.9 -44.05 -5.7 -44.3 -9.5 -54.1 -7.95 -54.1 -5.6 -54.1 -4.35 -54.05 M30.0 -16.1 Q30.0 -16.75 29.6 -16.85 L28.8 -16.15 27.8 -15.45 25.95 -14.6 25.55 -14.45 25.35 -14.3 Q25.1 -12.95 25.1 -11.6 L25.0 -11.15 24.65 -10.55 Q24.25 -9.95 24.6 -9.6 L24.95 -8.6 25.1 -8.1 Q25.8 -7.05 26.85 -6.6 L27.2 -7.85 27.25 -8.1 27.75 -9.9 27.95 -10.3 29.05 -11.65 30.1 -12.25 30.15 -12.35 30.2 -12.4 30.25 -12.6 30.2 -13.1 30.1 -14.6 30.0 -15.35 30.0 -16.1 M29.1 -20.35 L29.1 -20.6 28.8 -21.25 Q27.7 -21.95 27.1 -21.1 L26.8 -20.9 Q26.4 -20.75 26.45 -20.1 26.45 -19.55 26.75 -19.05 27.15 -18.4 27.85 -18.15 L28.2 -18.2 28.75 -19.1 29.1 -20.35 M21.6 -1.5 L21.35 -1.45 20.65 -1.25 19.35 -0.95 Q17.9 -0.65 17.35 0.15 L17.2 0.4 17.1 5.9 17.1 7.6 17.25 7.75 17.85 8.15 18.15 7.65 18.25 7.4 Q18.2 5.65 19.6 4.85 L19.85 4.8 Q21.3 4.8 21.55 3.4 L21.7 2.95 Q22.85 0.9 25.35 0.3 L25.55 0.1 Q25.9 -0.8 25.8 -1.85 25.7 -3.5 24.1 -3.85 24.25 -2.9 23.6 -2.35 L23.4 -2.05 Q23.3 -1.65 22.85 -1.65 L21.6 -1.5 M26.55 2.45 L26.3 2.2 Q25.7 2.0 25.5 2.35 24.7 3.85 23.1 4.65 L24.05 5.4 24.9 6.85 25.0 7.15 25.1 10.15 25.0 10.6 Q24.1 12.8 24.05 15.4 24.05 16.2 24.6 16.3 L25.6 16.6 Q26.25 16.8 26.3 16.4 26.3 14.6 26.55 12.9 L27.4 6.55 27.25 6.35 Q26.95 6.2 27.05 5.65 L27.0 4.65 26.95 4.4 Q26.95 3.3 26.55 2.45 M21.85 6.9 Q21.65 7.45 20.85 7.3 19.65 7.1 19.8 8.15 L19.75 8.6 Q19.6 8.85 19.6 9.2 L20.1 9.3 Q21.8 9.55 22.1 8.15 22.3 7.2 21.85 6.9 M13.5 27.35 Q11.35 27.15 11.35 29.7 L11.45 31.0 11.6 31.4 Q11.85 31.85 12.35 31.9 13.25 32.3 14.15 31.45 L14.1 31.75 Q14.1 32.9 15.6 32.9 L16.35 32.65 16.35 31.9 16.3 31.4 Q16.1 30.6 15.25 30.65 L14.7 30.8 Q15.6 29.55 15.6 28.95 15.6 27.55 13.5 27.35 M13.0 34.95 L11.85 34.65 Q10.95 36.2 10.6 38.1 L10.35 40.9 10.6 42.7 10.6 42.95 Q9.05 43.9 7.15 43.65 1.7 42.8 -2.85 45.45 L-1.9 45.85 0.35 45.95 2.9 45.65 Q2.5 47.9 3.25 50.3 L3.9 51.45 4.7 51.35 5.15 51.15 4.9 46.15 17.2 45.45 17.85 44.4 Q17.1 43.0 15.45 43.25 L13.1 43.0 12.1 42.9 Q11.7 39.55 12.85 36.45 L13.05 35.25 13.0 34.95 M7.45 48.25 L7.25 48.6 6.65 49.7 6.45 50.15 6.2 51.95 6.25 52.3 6.6 52.45 7.1 52.6 7.55 52.75 9.3 53.7 9.6 53.75 13.35 53.45 16.85 53.5 17.8 53.25 18.8 53.05 Q19.6 52.85 19.7 52.15 L19.75 51.9 19.95 50.95 Q20.15 50.1 20.5 49.35 L20.7 48.95 Q21.1 48.35 20.1 48.25 L17.6 48.1 Q12.75 47.8 7.85 48.0 7.6 48.05 7.45 48.25 M18.6 31.65 L18.6 31.4 Q18.5 30.7 17.85 30.7 17.25 30.75 17.15 31.4 L17.1 31.7 17.85 32.4 18.45 32.15 Q18.6 32.3 18.6 31.65 M19.85 46.4 Q19.4 46.8 19.35 46.2 L17.35 46.3 16.6 46.35 15.85 46.45 15.35 46.65 Q15.7 47.4 17.1 47.25 L19.65 47.55 20.05 47.75 Q21.25 48.25 21.15 49.9 L21.2 52.4 21.35 52.65 Q22.55 52.05 22.7 50.65 L22.85 50.15 Q23.4 49.25 22.95 48.6 L22.8 48.15 22.7 47.65 Q22.7 46.8 22.4 46.35 22.0 45.65 20.6 45.95 L20.1 46.2 19.85 46.4 M28.0 75.55 L28.4 75.2 30.1 72.65 Q30.85 71.25 29.4 70.6 L29.1 70.5 28.15 70.55 28.0 71.15 27.85 71.25 Q26.8 71.2 26.55 71.85 L26.35 72.1 Q25.35 72.7 25.15 73.9 24.85 75.65 26.1 75.9 L27.2 75.9 26.35 76.4 24.05 77.55 23.75 77.75 Q22.65 79.15 23.35 81.4 L23.5 82.15 23.6 82.45 25.1 82.3 25.6 82.3 Q26.95 82.4 27.3 81.4 L27.4 80.9 28.15 76.65 Q28.25 75.9 28.0 75.55 M15.4 55.7 Q11.65 54.75 7.65 54.9 L7.65 55.45 Q8.1 55.95 8.75 56.05 L14.8 56.65 15.35 56.45 15.4 55.7 M12.9 73.4 Q13.0 74.1 13.85 74.0 L15.1 73.85 16.05 73.6 17.85 72.9 Q17.4 72.05 16.25 71.25 L15.85 71.15 13.85 71.65 12.9 72.05 12.9 73.4 M22.85 88.4 L23.55 89.4 24.05 90.45 24.2 90.85 24.65 91.6 25.1 91.8 Q26.1 91.9 26.65 92.35 27.4 93.0 27.25 94.4 27.05 96.35 27.1 98.4 L27.1 98.9 28.35 98.45 28.85 98.25 Q30.2 98.15 30.4 96.9 L30.9 92.35 31.1 87.7 31.1 87.2 30.6 87.05 29.1 87.15 Q25.85 87.45 22.85 88.4 M-13.8 -26.8 Q-13.8 -25.8 -13.0 -25.2 -12.55 -24.85 -11.75 -24.85 -11.5 -24.85 -11.25 -24.45 -11.0 -24.1 -10.55 -24.1 -9.5 -24.1 -8.5 -25.15 -7.55 -26.15 -7.55 -26.85 -7.55 -27.4 -8.15 -27.75 L-10.05 -27.95 -11.4 -27.85 Q-13.8 -27.7 -13.8 -26.8 M-22.1 -19.05 L-22.25 -18.65 -21.75 -17.05 -21.65 -16.85 -20.9 -16.85 -20.2 -16.95 Q-19.05 -17.3 -19.2 -18.6 -19.25 -19.3 -19.65 -20.1 L-19.85 -20.35 Q-21.3 -20.2 -22.1 -19.05 M-24.65 -19.95 L-24.8 -20.1 Q-24.9 -21.15 -25.6 -21.9 L-27.1 -23.9 Q-27.7 -24.85 -28.65 -25.35 L-28.95 -24.35 -29.05 -23.85 -29.55 -20.6 -29.75 -18.85 Q-30.0 -16.85 -28.9 -16.1 L-28.8 -15.9 Q-29.05 -15.15 -29.45 -14.6 L-29.65 -14.35 -29.15 -14.05 -27.9 -13.95 -24.1 -14.6 -23.4 -14.7 -23.05 -14.7 -23.1 -15.1 -23.25 -15.55 -23.4 -16.35 -23.3 -16.8 Q-22.8 -17.65 -23.4 -18.1 L-23.7 -18.3 Q-24.1 -18.4 -24.05 -18.85 -24.0 -19.75 -24.65 -19.95 M-9.9 -21.35 L-9.0 -21.5 -8.9 -22.2 Q-9.35 -23.55 -11.3 -22.95 L-11.2 -21.95 Q-10.95 -21.35 -9.9 -21.35 M-13.35 -24.7 L-13.55 -24.2 Q-13.55 -23.75 -13.35 -23.65 L-12.9 -23.5 -12.3 -23.85 Q-12.45 -24.65 -12.9 -24.85 L-13.35 -24.7 M-12.9 -20.1 L-13.35 -20.2 -14.15 -20.25 -14.6 -20.05 -15.5 -18.9 Q-15.9 -18.25 -15.4 -17.85 L-15.25 -17.55 Q-14.95 -16.8 -15.4 -16.6 L-17.15 -15.85 -16.9 -15.8 -16.4 -15.7 Q-15.9 -15.7 -15.65 -15.35 -15.15 -14.75 -14.65 -15.05 L-12.4 -16.4 -12.2 -16.6 Q-11.15 -18.25 -10.95 -20.5 L-11.3 -20.5 Q-11.85 -20.05 -12.9 -20.1 M-19.65 13.2 L-20.15 13.1 -21.4 12.75 -22.6 12.8 -23.3 13.95 -23.45 14.4 -23.45 14.85 -23.15 15.05 -20.4 15.55 Q-19.55 15.8 -19.35 14.9 -19.2 14.2 -19.35 13.45 L-19.65 13.2 M-17.4 23.9 L-16.75 23.75 -16.65 23.05 -16.8 22.4 Q-18.25 22.15 -18.25 23.05 L-17.4 23.9 M-30.45 23.4 L-30.55 23.65 -30.7 27.65 -30.75 31.4 -30.9 37.4 -31.0 37.7 Q-31.3 37.85 -31.25 38.4 -31.15 39.0 -30.55 39.25 L-30.15 39.35 -30.0 39.4 -29.4 39.3 -26.4 39.15 -25.7 39.05 -24.2 38.6 -23.95 38.4 Q-23.9 38.15 -24.0 38.1 -24.45 37.95 -24.4 37.4 L-24.45 37.15 Q-25.4 36.9 -25.15 35.65 -25.05 35.1 -24.4 35.05 L-24.3 34.9 Q-24.35 33.85 -24.95 32.65 L-25.35 31.85 -25.55 31.4 -27.4 27.4 -29.2 23.15 -29.45 22.85 -29.9 22.85 -30.25 23.05 -30.45 23.4 M-20.35 26.25 Q-20.75 26.4 -20.75 27.0 -19.15 30.3 -18.65 30.3 -17.85 30.3 -17.05 29.55 -16.15 28.75 -16.15 27.75 L-16.2 26.85 Q-16.4 26.45 -17.4 25.9 L-20.35 26.25 M-22.25 36.65 L-22.25 36.9 -22.2 37.4 -22.15 37.9 Q-22.1 38.35 -21.65 38.3 L-21.15 38.15 Q-19.55 37.55 -19.9 35.15 -21.1 35.1 -21.9 35.9 L-22.2 36.1 Q-22.4 36.15 -22.45 36.3 -22.2 36.4 -22.25 36.65 M-14.9 43.0 L-15.15 43.05 Q-16.35 43.15 -17.4 43.6 L-17.45 43.65 -17.7 43.85 Q-18.05 44.0 -17.8 44.6 L-17.45 45.9 Q-17.3 46.9 -16.15 47.4 L-14.9 47.55 -14.7 47.35 -14.3 46.45 Q-13.8 45.3 -13.8 43.9 -13.8 42.75 -14.9 43.0 M-21.65 49.2 L-22.15 49.15 -22.1 49.4 -21.95 49.65 Q-21.65 50.1 -21.75 50.65 L-21.75 50.8 -21.35 51.9 -21.1 52.65 -20.8 53.45 -20.65 53.5 -20.4 53.55 Q-19.0 53.7 -18.15 54.4 L-18.25 53.9 Q-18.2 51.5 -19.95 49.95 -20.65 49.25 -21.65 49.2 M-24.6 73.5 L-24.15 74.4 -23.4 75.1 -19.4 74.9 -18.65 74.7 Q-17.65 74.45 -17.25 73.1 L-16.7 71.65 Q-16.5 71.1 -16.85 71.0 L-17.2 70.7 -17.55 70.3 -17.65 69.9 Q-17.55 69.05 -17.75 68.6 L-17.7 68.4 Q-17.2 67.4 -17.7 66.6 L-18.3 67.5 -18.4 67.9 -18.5 69.9 -18.5 70.0 -18.55 69.7 -19.15 69.15 -20.2 71.05 Q-20.6 71.8 -21.25 71.75 L-23.6 71.95 -24.45 71.6 -25.1 71.45 -26.15 67.45 Q-27.1 68.2 -27.45 69.4 L-27.6 70.65 -27.6 71.4 -29.5 71.3 -30.35 71.45 -30.4 71.9 -29.6 72.95 -24.6 73.5 M-26.4 60.7 L-28.2 61.8 -28.85 62.65 -29.0 63.05 -29.55 64.4 Q-29.6 65.1 -29.95 65.3 L-31.6 66.7 -31.8 67.15 Q-32.0 68.15 -31.15 68.1 L-30.15 67.9 -29.2 67.6 -26.65 67.05 -26.35 66.85 -25.65 65.4 Q-25.05 64.75 -23.65 65.0 L-23.15 65.05 -22.7 65.1 -22.65 64.9 Q-23.7 64.85 -23.9 64.15 -24.05 63.5 -23.7 63.3 L-22.65 63.05 -22.15 62.95 Q-21.6 62.8 -21.35 62.2 L-21.3 62.0 -21.9 60.9 -22.0 60.4 Q-22.0 59.4 -22.45 58.7 -22.7 58.35 -22.55 57.7 -22.3 56.65 -22.4 55.9 -23.4 55.9 -23.85 56.9 L-25.2 59.6 Q-25.55 60.25 -26.4 60.7 M-28.4 86.6 L-28.65 86.45 Q-29.4 85.95 -29.85 86.45 L-30.25 86.8 -30.85 87.35 -30.85 88.65 Q-30.4 90.65 -29.15 91.4 L-28.95 91.1 -27.35 87.9 -27.25 87.65 -27.4 87.4 -28.4 86.6 M-20.85 67.3 L-20.9 67.3 -21.15 67.25 Q-22.25 67.15 -23.2 67.8 -23.5 68.05 -23.9 68.1 -24.85 68.2 -24.55 69.15 L-24.45 69.4 -23.85 70.4 -23.75 70.65 Q-23.75 71.4 -22.9 71.15 L-22.15 71.0 Q-21.05 70.9 -20.6 69.95 L-20.5 69.65 Q-20.45 68.3 -20.85 67.3 M-26.65 85.45 Q-26.45 87.7 -25.55 89.95 L-24.65 91.4 -22.2 89.65 -21.8 88.85 Q-21.4 86.85 -22.3 85.4 -23.65 83.05 -26.25 82.4 L-29.55 82.3 -30.1 82.9 -28.65 85.4 -26.65 85.45 M-31.0 85.65 L-31.2 85.3 -31.4 85.25 Q-32.5 85.15 -32.85 85.9 -33.1 86.55 -33.45 86.8 -34.05 87.3 -34.15 88.15 L-34.15 88.3 -34.35 92.3 -34.35 92.4 -34.15 93.8 Q-34.1 94.45 -33.65 94.9 L-33.45 95.2 Q-33.35 95.6 -32.9 95.55 L-32.65 95.5 Q-31.3 95.15 -30.4 94.6 L-30.25 94.4 Q-29.85 92.9 -30.65 92.35 L-30.9 92.25 -31.05 92.2 -31.25 92.05 -31.45 91.65 -32.05 89.15 Q-32.35 87.6 -31.45 87.05 L-31.05 86.7 -31.0 85.65 M-19.0 98.2 L-19.35 97.15 -19.85 96.2 -19.6 95.9 -19.45 94.9 Q-19.25 93.05 -20.4 91.7 L-25.15 91.65 Q-27.25 94.8 -28.3 98.3 L-28.35 99.3 -27.25 98.25 -26.0 96.45 -25.9 96.25 -24.65 93.4 -21.4 93.2 -21.0 94.2 Q-22.2 94.5 -23.4 95.15 L-23.8 95.45 Q-24.65 96.55 -25.2 98.15 L-25.15 98.4 -24.95 99.4 -24.75 99.75 Q-24.0 100.55 -23.2 101.7 -22.5 102.6 -21.45 101.85 L-19.35 99.9 -19.1 99.35 -19.0 99.65 -18.65 99.95 -18.3 99.65 Q-18.15 99.35 -18.15 98.9 -18.15 98.45 -18.3 98.15 -18.45 97.85 -18.65 97.85 L-19.0 98.15 -19.0 98.2" fill="#a9532e" fill-rule="evenodd" stroke="none"/>
    <path d="M31.8 -44.5 L31.85 -44.5 32.1 -44.45 34.1 -44.15 32.7 -30.6 32.2 -30.6 32.25 -30.35 32.0 -30.4 31.75 -30.45 31.05 -30.4 30.85 -30.3 30.75 -30.3 30.0 -30.0 29.35 -29.75 28.8 -29.75 28.35 -29.65 24.85 -29.3 5.85 -29.1 4.25 -28.6 1.4 -28.45 0.75 -29.05 -1.7 -28.85 -1.9 -28.6 -2.15 -28.3 -3.15 -28.3 -27.95 -28.6 -28.1 -28.35 -31.3 -28.95 Q-31.2 -32.65 -31.25 -40.55 L-32.55 -42.25 -29.7 -45.4 -28.35 -45.95 -28.35 -45.9 -19.5 -45.9 -23.8 -54.05 -22.3 -54.15 -16.15 -54.1 -21.6 -53.7 -15.7 -42.9 -12.6 -45.1 Q-13.6 -46.75 -14.2 -48.8 L-14.45 -49.55 Q-15.35 -51.8 -15.65 -54.1 L-13.65 -54.1 Q-13.0 -51.05 -11.35 -48.4 L-9.5 -45.55 -8.9 -46.45 -11.6 -54.1 -9.5 -54.1 -5.7 -44.3 -4.9 -44.05 -4.35 -44.3 10.1 -44.3 14.8 -53.85 27.75 -53.7 27.55 -53.1 26.45 -52.95 22.25 -44.5 25.45 -44.5 31.8 -44.5 M32.7 87.95 L35.1 88.25 35.5 88.45 Q35.9 88.95 35.8 89.65 35.6 90.5 36.35 90.5 L36.85 90.6 38.4 91.05 39.1 91.25 39.35 91.4 Q39.95 92.2 41.3 92.75 41.85 92.9 42.05 93.4 L43.1 95.25 42.1 95.25 Q39.55 95.05 39.8 97.4 L39.75 97.85 38.6 97.9 38.5 97.65 38.5 97.4 38.4 96.9 38.25 96.15 38.0 94.4 37.95 93.65 Q37.85 93.05 37.1 93.0 L32.85 92.6 32.7 87.95 M-41.85 96.55 L-41.5 96.25 -40.85 95.65 -39.4 94.55 -39.5 94.9 -39.6 95.4 Q-39.95 96.55 -38.9 96.65 L-38.85 96.9 -38.7 97.4 -38.65 97.9 -39.65 97.95 -40.85 97.7 -41.15 97.4 Q-41.35 96.85 -41.85 96.55 M-39.3 93.45 L-39.5 91.9 Q-39.45 91.1 -39.0 90.8 L-38.55 90.5 -37.95 90.05 -35.85 88.75 -35.15 88.45 -35.15 92.35 -35.9 92.4 -38.4 92.65 Q-39.1 92.7 -39.3 93.45 M17.9 -53.35 L15.9 -53.35 12.35 -45.8 14.15 -45.65 17.9 -53.35 M23.55 -53.0 L19.5 -53.05 15.7 -44.6 19.45 -42.55 23.55 -53.0 M20.4 -30.9 L23.9 -31.05 24.4 -31.45 26.5 -32.9 Q27.6 -33.65 28.35 -34.65 L29.25 -36.35 29.3 -36.75 26.4 -36.15 26.15 -35.65 25.35 -34.6 25.1 -34.55 25.15 -36.1 23.65 -36.7 23.55 -35.15 22.6 -34.55 22.9 -37.85 23.6 -37.5 Q23.6 -37.2 23.75 -37.1 L25.15 -36.85 25.15 -38.55 26.4 -38.3 26.6 -37.0 29.85 -38.3 32.15 -38.0 31.2 -40.3 33.1 -42.55 22.0 -42.3 Q21.15 -40.7 19.4 -41.15 L17.7 -41.25 Q16.65 -41.75 15.6 -41.25 L-7.45 -42.45 -9.5 -42.7 -14.9 -40.55 Q-15.95 -40.9 -16.7 -41.8 L-18.25 -43.9 -29.9 -44.05 -30.9 -42.75 -31.35 -42.2 -30.75 -40.65 -30.45 -39.35 Q-30.15 -35.0 -30.15 -30.6 L-21.95 -30.55 -6.4 -30.45 -3.05 -30.45 -1.8 -32.25 -1.7 -32.45 -1.65 -32.55 0.25 -32.25 Q1.75 -31.75 2.85 -30.35 L20.4 -30.9 M31.5 -33.8 L32.1 -36.75 27.65 -32.6 25.7 -30.85 31.1 -32.1 31.5 -33.8 M0.95 -11.0 L0.95 -10.65 0.9 -10.5 0.8 -10.1 0.1 -10.0 -0.05 -10.25 -0.3 -10.75 -0.4 -11.15 -0.45 -11.4 -0.5 -12.5 -0.55 -12.75 -0.6 -12.9 -0.75 -13.25 -1.0 -13.45 -1.25 -13.55 -2.15 -13.65 -2.4 -13.65 -2.65 -13.75 -2.0 -14.2 -1.75 -14.1 -1.6 -14.25 -1.45 -14.45 -1.3 -14.45 -1.0 -14.25 -0.55 -13.75 -0.1 -13.0 -0.05 -12.9 0.15 -12.7 0.75 -11.75 0.85 -11.4 0.95 -11.0 M13.0 34.95 L13.05 35.25 12.85 36.45 Q11.7 39.55 12.1 42.9 L13.1 43.0 15.45 43.25 Q17.1 43.0 17.85 44.4 L17.2 45.45 4.9 46.15 5.15 51.15 4.7 51.35 3.9 51.45 3.25 50.3 Q2.5 47.9 2.9 45.65 L0.35 45.95 -1.9 45.85 -2.85 45.45 Q1.7 42.8 7.15 43.65 9.05 43.9 10.6 42.95 L10.6 42.7 10.35 40.9 10.6 38.1 Q10.95 36.2 11.85 34.65 L13.0 34.95 M15.4 55.7 L15.35 56.45 14.8 56.65 8.75 56.05 Q8.1 55.95 7.65 55.45 L7.65 54.9 Q11.65 54.75 15.4 55.7 M-1.4 -30.4 L-0.65 -29.5 0.1 -30.35 Q0.1 -31.25 -0.65 -31.3 -1.4 -31.4 -1.4 -30.4 M-20.7 -12.7 L-20.5 -12.7 Q-20.15 -12.65 -20.05 -12.85 L-19.95 -13.05 -19.75 -13.25 -19.65 -13.5 -19.25 -13.8 -19.15 -13.9 -18.65 -13.95 -17.75 -13.7 -16.9 -13.55 -16.7 -13.35 -16.6 -13.15 -16.5 -13.0 -15.75 -12.9 Q-15.45 -12.95 -15.35 -13.1 L-15.15 -13.2 -15.0 -13.25 -13.4 -13.7 -12.0 -14.05 -11.65 -14.15 -11.15 -14.6 -11.1 -14.75 -11.0 -14.85 -10.4 -15.25 -9.9 -15.65 -9.15 -16.4 -9.0 -16.65 -8.3 -18.15 -8.1 -18.9 -8.05 -19.15 -7.95 -19.5 -7.8 -19.95 -7.7 -20.1 -7.5 -20.2 -7.0 -20.2 Q-6.8 -20.2 -6.9 -19.9 -7.0 -19.35 -6.7 -19.15 L-6.6 -19.0 -6.55 -18.9 -6.45 -18.65 -6.25 -18.0 -5.75 -16.9 -5.05 -16.2 -4.75 -15.9 Q-4.0 -15.1 -3.0 -15.0 L-3.4 -14.6 Q-3.75 -14.35 -4.25 -14.2 L-4.5 -14.15 -6.25 -13.85 -6.75 -13.7 -7.25 -13.65 -8.5 -13.75 -9.0 -13.8 -9.25 -13.85 -9.75 -13.9 -11.5 -13.85 -11.65 -13.8 -11.9 -13.7 -12.9 -13.4 -13.15 -13.3 -13.75 -13.05 -14.4 -12.6 Q-14.75 -12.35 -15.25 -12.35 L-15.45 -12.2 -15.5 -12.0 Q-15.5 -11.75 -15.65 -11.65 L-15.75 -11.5 -16.65 -9.9 -16.8 -9.4 -16.85 -9.15 -16.95 -8.9 -17.2 -8.25 -17.3 -8.0 -17.35 -7.65 -17.35 -6.9 -17.3 -6.65 -17.0 -5.75 -16.4 -5.35 -16.25 -5.25 -16.1 -4.65 -16.05 -4.15 -16.0 -3.9 Q-16.0 -3.35 -16.25 -2.9 L-16.35 -2.75 Q-16.45 -2.55 -16.75 -2.65 L-17.15 -3.0 -18.65 -3.95 -19.4 -3.95 -19.65 -3.9 -20.15 -3.9 Q-18.85 -4.0 -17.85 -4.85 L-17.75 -4.95 -17.7 -5.4 -17.8 -6.05 -17.9 -6.4 -18.2 -7.5 -18.3 -7.9 -18.4 -8.15 -18.55 -8.75 -18.65 -9.0 Q-19.0 -9.8 -19.65 -10.3 L-19.75 -10.4 -21.0 -11.4 -21.45 -11.9 -21.65 -12.05 -21.75 -12.15 -21.75 -12.25 -21.5 -12.4 -21.0 -12.6 -20.7 -12.7 M-7.35 -18.05 L-8.15 -15.1 -6.6 -15.35 -7.35 -18.05 M-17.35 -10.3 L-16.85 -12.05 -18.1 -12.05 -17.9 -10.1 -17.35 -10.3 M-16.65 -1.9 L-16.25 -1.75 Q-15.8 -1.3 -15.25 -1.1 L-15.0 -1.0 -13.5 -0.45 -13.25 -0.4 -12.0 -0.35 -11.75 -0.25 -11.25 -0.1 -11.15 -0.05 -11.0 0.0 -14.4 0.0 -14.65 0.0 -15.5 -0.05 -15.75 -0.15 -15.85 -0.2 -16.0 -0.15 -16.45 -0.15 -16.65 -0.5 -16.7 -0.9 -16.7 -1.75 -16.65 -1.9 M-19.25 3.75 L-19.0 3.7 -18.75 3.85 -18.8 5.1 -18.65 5.75 -18.4 6.25 -18.25 6.5 Q-17.65 7.1 -17.35 7.85 L-17.25 8.0 -16.9 8.6 -16.8 8.85 Q-16.6 9.45 -17.0 9.85 L-17.15 9.95 -17.4 9.95 -17.5 9.9 -17.7 9.8 Q-18.0 9.55 -18.5 9.5 L-19.25 9.25 -20.15 8.85 -20.35 8.7 -20.7 8.0 Q-20.9 7.45 -20.65 6.85 L-20.4 6.0 -20.35 5.75 -20.25 5.6 -19.75 4.75 -19.55 4.35 -19.35 3.9 -19.25 3.75 M-19.65 5.45 L-19.95 6.1 Q-20.3 7.45 -19.4 8.45 L-17.65 8.75 -19.65 5.45 M-18.5 70.0 L-18.35 70.95 Q-18.4 71.65 -19.0 72.3 -20.35 73.6 -22.15 73.65 L-24.6 73.5 -29.6 72.95 -30.4 71.9 -30.35 71.45 -29.5 71.3 -27.6 71.4 -27.6 70.65 -27.45 69.4 Q-27.1 68.2 -26.15 67.45 L-25.1 71.45 -24.45 71.6 -23.6 71.95 -21.25 71.75 Q-20.6 71.8 -20.2 71.05 L-19.15 69.15 -18.55 69.7 -18.5 70.0 M-19.1 99.35 L-19.15 98.9 -19.0 98.2 -19.0 98.15 -18.65 97.85 Q-18.45 97.85 -18.3 98.15 -18.15 98.45 -18.15 98.9 -18.15 99.35 -18.3 99.65 L-18.65 99.95 -19.0 99.65 -19.1 99.35" fill="#280d0e" fill-rule="evenodd" stroke="none"/>
    <path d="M43.1 95.25 L44.85 95.3 Q46.35 95.5 47.5 96.3 L47.6 96.65 Q47.5 98.25 47.9 99.65 48.1 100.4 49.35 100.2 L50.9 100.3 51.35 100.35 Q52.3 100.2 52.5 100.7 52.75 101.3 52.45 101.55 52.35 101.65 52.4 101.9 52.5 102.75 51.6 102.9 L47.85 103.15 46.1 103.05 45.85 102.9 45.75 104.15 45.65 104.65 45.5 105.05 45.1 105.15 39.1 105.25 38.6 105.3 Q37.75 105.4 37.75 104.4 L37.7 104.15 41.3 103.55 Q38.2 101.3 34.9 100.2 L34.1 101.95 33.6 100.6 33.1 100.8 32.0 101.75 Q30.95 102.5 29.65 102.1 L29.6 102.2 29.45 101.3 33.0 97.95 32.85 92.6 37.1 93.0 Q37.85 93.05 37.95 93.65 L38.0 94.4 38.25 96.15 38.4 96.9 38.5 97.4 38.5 97.65 38.6 97.9 39.75 97.85 39.8 97.4 Q39.55 95.05 42.1 95.25 L43.1 95.25 M24.2 105.5 L23.95 105.5 Q22.15 107.5 19.85 108.8 L17.8 109.8 16.8 110.25 Q4.4 112.8 -8.5 111.65 L-9.2 111.55 -9.5 106.15 -9.55 104.65 Q-9.65 101.8 -9.4 98.9 L-9.15 98.75 -7.2 98.1 Q-6.8 97.9 -6.8 97.4 L-6.8 95.9 -6.75 95.65 Q-6.6 94.95 -6.9 94.65 L-8.6 92.85 Q-9.2 92.3 -9.9 92.1 L-10.4 91.95 -12.4 91.5 -13.65 91.5 Q-14.3 91.55 -14.3 90.9 L-14.25 90.65 -14.1 90.45 Q-13.15 90.1 -13.55 89.1 L-14.05 88.5 -14.1 88.15 -13.8 84.15 -13.65 82.9 Q-13.3 81.05 -13.3 79.15 L-13.25 77.15 Q-13.1 75.0 -13.3 72.9 L-13.4 70.9 Q-13.35 68.95 -13.55 67.15 L-13.55 67.0 -13.8 66.6 -14.45 64.65 Q-14.6 64.2 -14.9 64.2 L-15.3 64.2 -15.3 64.15 Q-15.5 62.9 -16.15 61.9 L-16.8 60.85 -16.8 60.5 -16.45 60.1 -16.25 59.65 Q-16.2 58.3 -15.45 57.85 L-14.4 57.55 -14.15 57.5 Q-13.25 57.35 -12.9 56.75 L-13.1 52.65 -13.4 43.9 -13.4 43.15 -13.4 41.55 -17.0 41.8 -23.4 41.9 Q-23.1 41.35 -23.15 40.65 L-23.05 40.3 Q-22.45 39.8 -21.4 39.55 L-21.15 39.5 -19.65 38.9 -19.5 38.65 Q-19.15 37.4 -18.65 36.65 -17.85 35.35 -17.95 33.4 -17.95 32.7 -17.15 32.55 -15.4 32.3 -14.25 31.5 L-14.25 31.4 -14.4 26.9 Q-14.3 24.7 -14.65 22.65 L-15.0 20.15 -15.05 19.4 -15.3 16.9 Q-15.45 15.95 -14.95 15.55 L-14.6 15.15 -14.1 14.15 Q-13.55 12.9 -14.2 11.65 L-14.7 10.95 -15.15 10.3 -15.45 9.7 -15.65 9.4 -15.75 9.3 -15.4 10.4 Q-15.3 10.85 -15.55 11.1 L-20.6 9.95 Q-21.55 8.9 -21.8 7.45 L-21.65 5.95 Q-20.25 2.1 -17.15 -0.15 L-17.5 -1.1 -18.2 -2.3 Q-18.95 -3.2 -20.2 -3.3 L-23.55 -3.5 -23.6 -4.3 -18.9 -5.35 -19.1 -7.55 -19.5 -9.0 Q-20.2 -10.6 -21.8 -11.25 L-24.35 -12.05 -24.5 -11.8 -24.6 -12.65 -27.1 -13.3 -20.15 -13.85 -19.4 -15.5 -16.95 -14.35 -9.9 -16.05 -9.3 -17.45 Q-8.9 -18.5 -8.65 -19.6 L-8.2 -21.65 Q-8.0 -22.95 -7.35 -22.55 L-5.15 -18.6 -4.1 -16.85 Q-2.6 -14.55 -0.15 -15.55 L1.1 -12.55 1.75 -10.5 Q2.3 -8.7 1.3 -7.4 L0.85 -7.3 Q-0.4 -8.25 -0.75 -9.8 L-1.4 -12.6 -13.25 -12.1 Q-14.8 -11.4 -15.8 -9.9 -16.9 -8.25 -15.85 -6.45 L-14.9 -4.45 Q-14.45 -3.15 -15.15 -1.85 L-14.4 -1.1 -10.1 -0.3 -9.85 0.45 -10.15 1.0 -16.85 0.5 -17.8 2.15 -18.15 3.2 Q-18.5 5.15 -17.1 6.85 L-16.3 8.1 -16.3 7.65 -16.3 7.4 Q-16.5 6.75 -16.0 6.3 L-15.35 5.45 Q-14.1 3.75 -13.45 2.0 L-13.15 1.9 -10.4 1.9 -9.35 1.75 Q-8.0 1.4 -8.4 2.9 -7.05 2.8 -6.1 1.95 L-5.75 1.55 -5.65 1.15 Q-5.7 0.1 -5.15 -0.35 -5.45 -0.8 -6.4 -0.75 L-6.9 -0.85 -8.35 -1.4 -8.65 -1.55 -9.7 -2.0 Q-10.2 -2.15 -10.35 -2.8 L-10.7 -3.25 Q-11.6 -3.65 -11.5 -5.1 -11.35 -6.8 -11.6 -8.35 -11.75 -9.2 -10.95 -9.45 L-10.15 -9.8 Q-7.05 -11.45 -3.65 -11.55 L-3.1 -11.1 Q-2.6 -10.15 -2.45 -8.6 L-2.2 -6.9 -1.9 -6.65 -1.4 -6.55 Q-1.0 -6.5 -1.0 -5.85 L-0.95 -5.55 Q-0.7 -4.9 0.0 -4.65 L0.05 -4.35 -0.15 -4.1 Q-1.25 -3.3 -2.65 -2.6 -3.15 -2.35 -2.7 -1.8 L-1.8 -1.75 -1.45 -1.95 Q-0.45 -2.3 0.15 -2.8 0.9 -3.55 2.1 -3.95 2.25 -3.95 2.3 -4.1 L3.05 -6.1 3.2 -6.85 3.3 -7.1 3.5 -7.45 3.8 -7.7 4.4 -8.05 4.85 -8.4 Q5.3 -8.65 5.2 -9.6 5.15 -10.0 4.6 -10.0 L4.35 -10.0 Q3.25 -10.25 3.0 -11.35 L2.9 -11.85 1.75 -14.6 1.6 -14.85 0.65 -17.0 0.35 -17.1 -0.95 -16.95 -1.35 -16.75 -1.65 -16.7 Q-2.2 -16.5 -2.5 -17.05 L-2.9 -17.6 -4.65 -19.35 Q-5.15 -19.75 -4.75 -20.4 L-4.65 -20.85 -4.75 -26.85 -4.75 -27.0 -4.45 -27.4 -3.15 -28.3 -2.15 -28.3 -1.9 -28.6 -0.2 -28.25 0.85 -27.95 2.1 -27.75 2.35 -27.7 Q3.1 -27.5 3.25 -27.05 L3.4 -26.6 Q3.55 -25.65 3.2 -25.25 L3.05 -24.85 2.85 -24.6 Q2.35 -24.0 2.65 -23.5 L2.7 -23.1 Q2.65 -22.65 3.05 -22.55 L3.35 -22.45 5.05 -22.35 5.15 -22.6 5.5 -23.25 5.65 -23.6 Q5.8 -24.3 6.4 -24.5 L6.8 -24.7 Q7.15 -24.9 7.05 -25.6 6.95 -26.4 7.35 -26.65 L8.85 -26.95 12.85 -27.2 15.1 -27.4 17.1 -27.55 23.85 -27.2 25.1 -27.0 25.4 -26.9 26.25 -26.05 26.35 -25.6 Q26.4 -23.0 25.95 -20.6 25.6 -18.85 25.5 -17.1 L25.4 -16.6 24.55 -16.5 24.1 -16.6 Q22.7 -16.7 22.5 -15.6 L22.45 -15.35 22.3 -14.6 22.0 -13.55 22.0 -13.35 Q22.35 -12.3 23.55 -11.8 L23.75 -11.6 Q24.35 -8.8 22.3 -7.45 22.0 -7.2 21.6 -7.1 L18.35 -6.8 16.35 -6.75 16.1 -6.7 Q15.35 -6.7 15.5 -5.85 15.65 -4.9 15.2 -4.5 L14.6 -3.85 Q13.8 -2.85 14.0 -1.1 L14.3 3.15 14.45 9.15 14.5 9.65 14.55 12.65 14.6 14.15 14.8 14.25 15.35 14.65 Q16.45 15.55 17.85 15.75 L18.05 15.95 18.6 16.65 Q19.05 16.95 19.0 17.9 L19.05 18.2 19.25 19.15 19.15 19.4 Q18.5 20.35 17.35 20.3 15.35 20.25 14.15 21.2 L11.65 22.75 11.1 23.15 Q10.0 24.5 10.25 26.4 10.5 28.55 10.2 30.65 L10.1 31.4 10.0 32.15 9.65 34.65 9.55 35.65 9.2 37.45 9.1 38.15 8.9 41.15 8.85 42.4 Q8.75 42.0 8.1 42.0 L7.6 41.9 Q5.5 41.05 3.1 41.1 L-0.65 41.25 -1.4 41.45 Q-2.45 41.9 -2.65 42.9 -2.75 43.55 -3.15 43.9 -3.7 44.35 -3.7 45.4 -3.65 47.15 -4.1 48.65 L-4.15 49.15 0.35 49.7 Q1.15 49.85 1.5 50.6 L1.85 51.15 Q2.4 51.75 1.95 52.7 L1.75 53.1 1.45 53.95 1.25 54.3 1.1 54.25 Q0.7 54.1 0.75 54.65 L0.7 55.9 Q0.4 57.35 1.6 57.5 L1.85 57.6 Q2.9 58.3 4.6 58.15 L7.85 58.0 Q8.55 58.0 9.15 58.35 10.15 59.0 11.35 59.35 12.05 59.55 11.9 60.65 11.15 66.45 12.2 71.95 L12.2 72.15 12.05 72.35 11.1 73.0 10.85 73.15 10.1 73.45 Q9.0 73.5 8.25 74.25 L8.2 74.6 Q8.65 75.45 8.2 76.7 7.95 77.45 8.35 77.7 L9.15 78.05 11.9 78.25 12.85 78.2 Q14.2 78.3 14.95 77.45 L15.3 77.1 Q15.75 76.65 15.65 75.9 15.55 75.1 16.6 75.35 L17.35 75.4 Q19.2 75.5 20.65 76.6 21.45 77.25 21.45 78.15 21.5 79.65 21.2 80.9 L21.1 81.65 20.95 86.65 20.75 90.4 20.55 90.8 19.6 91.4 17.8 92.55 17.4 92.75 16.1 93.0 Q15.45 92.95 15.45 93.4 15.45 94.75 15.1 95.9 L19.85 96.0 20.1 96.0 20.85 96.05 23.1 96.15 Q25.05 96.1 24.45 97.7 L24.35 98.4 Q24.35 99.4 24.75 100.0 L24.75 100.35 Q23.85 102.05 24.15 104.9 L24.2 105.5 M-38.45 105.4 L-38.65 105.4 -39.1 105.5 Q-40.2 105.9 -40.5 107.4 L-40.7 107.6 Q-42.45 108.2 -44.4 107.65 L-45.15 107.5 Q-46.9 107.5 -46.15 106.15 L-45.8 104.9 Q-45.75 104.4 -46.15 104.4 L-49.4 104.3 -49.9 104.25 Q-50.65 104.25 -50.45 103.4 L-50.3 103.1 Q-50.0 102.95 -50.1 102.4 -50.2 101.6 -49.65 101.5 L-48.9 101.35 -48.4 101.3 -46.15 100.9 Q-47.15 100.5 -47.05 98.9 L-46.95 98.6 Q-46.5 97.35 -45.1 96.75 L-44.75 96.55 Q-44.25 96.15 -43.65 96.15 -42.55 96.1 -41.85 96.55 -41.35 96.85 -41.15 97.4 L-40.85 97.7 -39.65 97.95 -38.65 97.9 -38.7 97.4 -38.85 96.9 -38.9 96.65 Q-39.95 96.55 -39.6 95.4 L-39.5 94.9 -39.4 94.55 -39.35 93.9 -39.3 93.45 Q-39.1 92.7 -38.4 92.65 L-35.9 92.4 -35.15 92.35 -35.15 96.15 -34.7 96.7 Q-34.4 98.0 -35.45 99.05 L-36.4 99.95 Q-38.45 102.3 -41.4 102.5 L-40.8 104.15 -38.45 105.4 M-30.05 42.0 L-29.6 41.2 -30.75 40.2 -27.65 39.95 -26.9 40.1 -24.4 40.9 Q-23.4 41.3 -23.5 42.9 L-23.4 43.1 -21.9 43.95 Q-20.85 44.45 -20.25 45.85 L-19.95 46.2 -18.15 47.65 -20.9 46.7 -21.35 46.55 Q-22.35 46.0 -22.7 46.85 L-22.9 47.1 Q-23.7 47.6 -24.05 48.45 L-24.2 48.9 -24.65 49.9 Q-24.75 48.65 -25.85 48.05 L-27.15 47.4 Q-28.5 46.65 -28.25 44.9 -28.15 44.4 -28.4 44.15 -27.05 45.4 -24.95 45.15 L-24.9 44.9 Q-24.8 43.75 -25.65 43.15 L-27.25 42.0 Q-27.4 41.9 -27.6 41.85 L-27.9 41.75 -29.15 41.75 -29.65 41.85 -30.05 42.0 M11.8 -53.9 L11.65 -53.35 11.0 -51.95 Q10.85 -51.7 10.6 -51.7 9.95 -51.65 9.95 -51.1 9.95 -50.55 10.6 -50.5 L11.05 -50.3 Q11.45 -49.85 11.4 -48.85 L11.2 -48.2 10.85 -48.1 9.55 -47.95 9.25 -47.7 9.05 -47.35 8.85 -47.1 7.7 -45.35 -1.4 -45.35 -3.85 -45.6 -3.9 -45.85 -3.65 -47.55 -3.4 -47.65 -3.15 -47.75 Q-1.85 -47.75 -1.45 -48.85 -1.25 -49.4 -1.65 -49.45 L-1.9 -49.5 -3.15 -49.65 -3.75 -50.05 -4.05 -50.65 -4.25 -51.05 -5.1 -53.1 Q-5.3 -53.65 -4.9 -53.7 L-4.65 -53.75 Q-4.35 -53.8 -4.35 -54.05 L11.8 -53.9 M25.45 -44.5 L22.25 -44.5 26.45 -52.95 27.55 -53.1 27.75 -53.7 28.35 -53.7 29.2 -53.7 29.25 -53.9 31.15 -53.85 31.05 -53.6 28.35 -47.2 27.35 -45.1 27.05 -44.8 25.45 -44.5 M0.95 -11.0 L0.85 -11.4 0.75 -11.75 0.15 -12.7 -0.05 -12.9 -0.1 -13.0 -0.55 -13.75 -1.0 -14.25 -1.3 -14.45 -1.45 -14.45 -1.6 -14.25 -1.75 -14.1 -2.0 -14.2 -2.65 -13.75 -2.4 -13.65 -2.15 -13.65 -1.25 -13.55 -1.0 -13.45 -0.75 -13.25 -0.6 -12.9 -0.55 -12.75 -0.5 -12.5 -0.45 -11.4 -0.4 -11.15 -0.3 -10.75 -0.05 -10.25 0.1 -10.0 0.8 -10.1 0.9 -10.5 0.95 -10.65 0.95 -11.0 M21.6 -1.5 L22.85 -1.65 Q23.3 -1.65 23.4 -2.05 L23.6 -2.35 Q24.25 -2.9 24.1 -3.85 25.7 -3.5 25.8 -1.85 25.9 -0.8 25.55 0.1 L25.35 0.3 Q22.85 0.9 21.7 2.95 L21.55 3.4 Q21.3 4.8 19.85 4.8 L19.6 4.85 Q18.2 5.65 18.25 7.4 L18.15 7.65 17.85 8.15 17.25 7.75 17.1 7.6 17.1 5.9 17.2 0.4 17.35 0.15 Q17.9 -0.65 19.35 -0.95 L20.65 -1.25 21.35 -1.45 21.6 -1.5 M21.85 6.9 Q22.3 7.2 22.1 8.15 21.8 9.55 20.1 9.3 L19.6 9.2 Q19.6 8.85 19.75 8.6 L19.8 8.15 Q19.65 7.1 20.85 7.3 21.65 7.45 21.85 6.9 M13.5 27.35 Q15.6 27.55 15.6 28.95 15.6 29.55 14.7 30.8 L15.25 30.65 Q16.1 30.6 16.3 31.4 L16.35 31.9 16.35 32.65 15.6 32.9 Q14.1 32.9 14.1 31.75 L14.15 31.45 Q13.25 32.3 12.35 31.9 11.85 31.85 11.6 31.4 L11.45 31.0 11.35 29.7 Q11.35 27.15 13.5 27.35 M23.35 36.4 Q23.85 36.65 23.55 37.65 23.25 38.7 22.55 39.6 L21.6 40.9 20.75 42.15 15.35 42.5 Q14.65 42.45 14.3 42.2 13.75 41.75 13.8 40.65 13.9 38.7 14.25 36.9 14.35 36.4 14.6 36.1 14.75 35.9 15.1 35.85 L18.85 35.55 Q20.1 35.45 21.1 35.95 L21.9 36.3 22.6 36.35 22.85 36.35 23.35 36.4 M18.6 31.65 Q18.6 32.3 18.45 32.15 L17.85 32.4 17.1 31.7 17.15 31.4 Q17.25 30.75 17.85 30.7 18.5 30.7 18.6 31.4 L18.6 31.65 M7.45 48.25 Q7.6 48.05 7.85 48.0 12.75 47.8 17.6 48.1 L20.1 48.25 Q21.1 48.35 20.7 48.95 L20.5 49.35 Q20.15 50.1 19.95 50.95 L19.75 51.9 19.7 52.15 Q19.6 52.85 18.8 53.05 L17.8 53.25 16.85 53.5 13.35 53.45 9.6 53.75 9.3 53.7 7.55 52.75 7.1 52.6 6.6 52.45 6.25 52.3 6.2 51.95 6.45 50.15 6.65 49.7 7.25 48.6 7.45 48.25 M27.2 75.9 L26.1 75.9 Q24.85 75.65 25.15 73.9 25.35 72.7 26.35 72.1 L26.55 71.85 Q26.8 71.2 27.85 71.25 L28.0 71.15 28.15 70.55 29.1 70.5 29.4 70.6 Q30.85 71.25 30.1 72.65 L28.4 75.2 28.0 75.55 27.2 75.9 M12.9 73.4 L12.9 72.05 13.85 71.65 15.85 71.15 16.25 71.25 Q17.4 72.05 17.85 72.9 L16.05 73.6 15.1 73.85 13.85 74.0 Q13.0 74.1 12.9 73.4 M-13.8 -26.8 Q-13.8 -27.7 -11.4 -27.85 L-10.05 -27.95 -8.15 -27.75 Q-7.55 -27.4 -7.55 -26.85 -7.55 -26.15 -8.5 -25.15 -9.5 -24.1 -10.55 -24.1 -11.0 -24.1 -11.25 -24.45 -11.5 -24.85 -11.75 -24.85 -12.55 -24.85 -13.0 -25.2 -13.8 -25.8 -13.8 -26.8 M-20.7 -12.7 L-21.0 -12.6 -21.5 -12.4 -21.75 -12.25 -21.75 -12.15 -21.65 -12.05 -21.45 -11.9 -21.0 -11.4 -19.75 -10.4 -19.65 -10.3 Q-19.0 -9.8 -18.65 -9.0 L-18.55 -8.75 -18.4 -8.15 -18.3 -7.9 -18.2 -7.5 -17.9 -6.4 -17.8 -6.05 -17.7 -5.4 -17.75 -4.95 -17.85 -4.85 Q-18.85 -4.0 -20.15 -3.9 L-19.65 -3.9 -19.4 -3.95 -18.65 -3.95 -17.15 -3.0 -16.75 -2.65 Q-16.45 -2.55 -16.35 -2.75 L-16.25 -2.9 Q-16.0 -3.35 -16.0 -3.9 L-16.05 -4.15 -16.1 -4.65 -16.25 -5.25 -16.4 -5.35 -17.0 -5.75 -17.3 -6.65 -17.35 -6.9 -17.35 -7.65 -17.3 -8.0 -17.2 -8.25 -16.95 -8.9 -16.85 -9.15 -16.8 -9.4 -16.65 -9.9 -15.75 -11.5 -15.65 -11.65 Q-15.5 -11.75 -15.5 -12.0 L-15.45 -12.2 -15.25 -12.35 Q-14.75 -12.35 -14.4 -12.6 L-13.75 -13.05 -13.15 -13.3 -12.9 -13.4 -11.9 -13.7 -11.65 -13.8 -11.5 -13.85 -9.75 -13.9 -9.25 -13.85 -9.0 -13.8 -8.5 -13.75 -7.25 -13.65 -6.75 -13.7 -6.25 -13.85 -4.5 -14.15 -4.25 -14.2 Q-3.75 -14.35 -3.4 -14.6 L-3.0 -15.0 Q-4.0 -15.1 -4.75 -15.9 L-5.05 -16.2 -5.75 -16.9 -6.25 -18.0 -6.45 -18.65 -6.55 -18.9 -6.6 -19.0 -6.7 -19.15 Q-7.0 -19.35 -6.9 -19.9 -6.8 -20.2 -7.0 -20.2 L-7.5 -20.2 -7.7 -20.1 -7.8 -19.95 -7.95 -19.5 -8.05 -19.15 -8.1 -18.9 -8.3 -18.15 -9.0 -16.65 -9.15 -16.4 -9.9 -15.65 -10.4 -15.25 -11.0 -14.85 -11.1 -14.75 -11.15 -14.6 -11.65 -14.15 -12.0 -14.05 -13.4 -13.7 -15.0 -13.25 -15.15 -13.2 -15.35 -13.1 Q-15.45 -12.95 -15.75 -12.9 L-16.5 -13.0 -16.6 -13.15 -16.7 -13.35 -16.9 -13.55 -17.75 -13.7 -18.65 -13.95 -19.15 -13.9 -19.25 -13.8 -19.65 -13.5 -19.75 -13.25 -19.95 -13.05 -20.05 -12.85 Q-20.15 -12.65 -20.5 -12.7 L-20.7 -12.7 M-9.9 -21.35 Q-10.95 -21.35 -11.2 -21.95 L-11.3 -22.95 Q-9.35 -23.55 -8.9 -22.2 L-9.0 -21.5 -9.9 -21.35 M-12.9 -20.1 Q-11.85 -20.05 -11.3 -20.5 L-10.95 -20.5 Q-11.15 -18.25 -12.2 -16.6 L-12.4 -16.4 -14.65 -15.05 Q-15.15 -14.75 -15.65 -15.35 -15.9 -15.7 -16.4 -15.7 L-16.9 -15.8 -17.15 -15.85 -15.4 -16.6 Q-14.95 -16.8 -15.25 -17.55 L-15.4 -17.85 Q-15.9 -18.25 -15.5 -18.9 L-14.6 -20.05 -14.15 -20.25 -13.35 -20.2 -12.9 -20.1 M-16.65 -1.9 L-16.7 -1.75 -16.7 -0.9 -16.65 -0.5 -16.45 -0.15 -16.0 -0.15 -15.85 -0.2 -15.75 -0.15 -15.5 -0.05 -14.65 0.0 -14.4 0.0 -11.0 0.0 -11.15 -0.05 -11.25 -0.1 -11.75 -0.25 -12.0 -0.35 -13.25 -0.4 -13.5 -0.45 -15.0 -1.0 -15.25 -1.1 Q-15.8 -1.3 -16.25 -1.75 L-16.65 -1.9 M-19.25 3.75 L-19.35 3.9 -19.55 4.35 -19.75 4.75 -20.25 5.6 -20.35 5.75 -20.4 6.0 -20.65 6.85 Q-20.9 7.45 -20.7 8.0 L-20.35 8.7 -20.15 8.85 -19.25 9.25 -18.5 9.5 Q-18.0 9.55 -17.7 9.8 L-17.5 9.9 -17.4 9.95 -17.15 9.95 -17.0 9.85 Q-16.6 9.45 -16.8 8.85 L-16.9 8.6 -17.25 8.0 -17.35 7.85 Q-17.65 7.1 -18.25 6.5 L-18.4 6.25 -18.65 5.75 -18.8 5.1 -18.75 3.85 -19.0 3.7 -19.25 3.75 M-19.65 13.2 L-19.35 13.45 Q-19.2 14.2 -19.35 14.9 -19.55 15.8 -20.4 15.55 L-23.15 15.05 -23.45 14.85 -23.45 14.4 -23.3 13.95 -22.6 12.8 -21.4 12.75 -20.15 13.1 -19.65 13.2 M-17.4 23.9 L-18.25 23.05 Q-18.25 22.15 -16.8 22.4 L-16.65 23.05 -16.75 23.75 -17.4 23.9 M-20.35 26.25 L-17.4 25.9 Q-16.4 26.45 -16.2 26.85 L-16.15 27.75 Q-16.15 28.75 -17.05 29.55 -17.85 30.3 -18.65 30.3 -19.15 30.3 -20.75 27.0 -20.75 26.4 -20.35 26.25 M-21.65 49.2 Q-20.65 49.25 -19.95 49.95 -18.2 51.5 -18.25 53.9 L-18.15 54.4 Q-19.0 53.7 -20.4 53.55 L-20.65 53.5 -20.8 53.45 -21.1 52.65 -21.35 51.9 -21.75 50.8 -21.75 50.65 Q-21.65 50.1 -21.95 49.65 L-22.1 49.4 -22.15 49.15 -21.65 49.2 M-14.9 43.0 Q-13.8 42.75 -13.8 43.9 -13.8 45.3 -14.3 46.45 L-14.7 47.35 -14.9 47.55 -16.15 47.4 Q-17.3 46.9 -17.45 45.9 L-17.8 44.6 Q-18.05 44.0 -17.7 43.85 L-17.45 43.65 -17.4 43.6 Q-16.35 43.15 -15.15 43.05 L-14.9 43.0 M-18.5 70.0 L-18.5 69.9 -18.4 67.9 -18.3 67.5 -17.7 66.6 Q-17.2 67.4 -17.7 68.4 L-17.75 68.6 Q-17.55 69.05 -17.65 69.9 L-17.55 70.3 -17.2 70.7 -16.85 71.0 Q-16.5 71.1 -16.7 71.65 L-17.25 73.1 Q-17.65 74.45 -18.65 74.7 L-19.4 74.9 -23.4 75.1 -24.15 74.4 -24.6 73.5 -22.15 73.65 Q-20.35 73.6 -19.0 72.3 -18.4 71.65 -18.35 70.95 L-18.5 70.0 M-20.85 67.3 Q-20.45 68.3 -20.5 69.65 L-20.6 69.95 Q-21.05 70.9 -22.15 71.0 L-22.9 71.15 Q-23.75 71.4 -23.75 70.65 L-23.85 70.4 -24.45 69.4 -24.55 69.15 Q-24.85 68.2 -23.9 68.1 -23.5 68.05 -23.2 67.8 -22.25 67.15 -21.15 67.25 L-20.9 67.3 -20.85 67.3 M-28.4 86.6 L-27.4 87.4 -27.25 87.65 -27.35 87.9 -28.95 91.1 -29.15 91.4 Q-30.4 90.65 -30.85 88.65 L-30.85 87.35 -30.25 86.8 -29.85 86.45 Q-29.4 85.95 -28.65 86.45 L-28.4 86.6 M-26.65 85.45 L-28.65 85.4 -30.1 82.9 -29.55 82.3 -26.25 82.4 Q-23.65 83.05 -22.3 85.4 -21.4 86.85 -21.8 88.85 L-22.2 89.65 -24.65 91.4 -25.55 89.95 Q-26.45 87.7 -26.65 85.45 M-19.1 99.35 L-19.35 99.9 -21.45 101.85 Q-22.5 102.6 -23.2 101.7 -24.0 100.55 -24.75 99.75 L-24.95 99.4 -25.15 98.4 -25.2 98.15 Q-24.65 96.55 -23.8 95.45 L-23.4 95.15 Q-22.2 94.5 -21.0 94.2 L-21.4 93.2 -24.65 93.4 -25.9 96.25 -26.0 96.45 -27.25 98.25 -28.35 99.3 -28.3 98.3 Q-27.25 94.8 -25.15 91.65 L-20.4 91.7 Q-19.25 93.05 -19.45 94.9 L-19.6 95.9 -19.85 96.2 -19.35 97.15 -19.0 98.2 -19.15 98.9 -19.1 99.35" fill="#670707" fill-rule="evenodd" stroke="none"/>
    <path d="M28.9 -2.05 L29.1 -2.0 Q30.45 -1.8 31.1 -0.65 L31.8 1.4 30.55 2.7 28.6 2.65 28.55 2.15 28.5 1.65 28.6 1.7 29.6 1.9 30.6 0.9 30.35 0.45 28.6 1.0 28.6 0.95 28.7 -0.25 28.85 -2.05 28.9 -2.05 M31.55 5.2 Q31.25 7.5 31.65 9.9 L28.3 9.65 28.25 9.65 28.3 8.4 28.35 8.4 29.1 8.5 29.6 8.65 Q29.8 7.0 31.1 5.65 L31.55 5.2 M-30.8 -12.65 L-33.35 -12.35 -33.5 -17.8 -31.1 -19.8 -33.5 -18.8 -33.5 -19.4 -32.45 -19.7 -31.75 -20.2 -31.35 -20.8 -31.1 -21.3 -33.5 -19.85 -33.5 -25.85 -32.65 -26.8 -30.1 -27.1 -30.15 -24.85 -30.6 -12.7 -30.8 -12.65 M20.4 -30.9 L2.85 -30.35 Q1.75 -31.75 0.25 -32.25 L-1.65 -32.55 -1.7 -32.45 Q-2.3 -32.7 -2.75 -33.3 L-3.5 -34.3 -3.9 -34.6 -5.65 -35.8 -6.15 -36.1 Q-6.1 -37.05 -4.9 -37.0 L-3.65 -37.1 1.35 -37.75 Q6.9 -37.85 12.1 -38.85 10.05 -39.95 7.35 -40.65 L6.85 -40.8 6.35 -40.85 Q6.5 -41.3 7.35 -41.2 L8.85 -41.05 17.85 -40.65 25.1 -40.1 Q24.6 -39.7 24.95 -39.0 25.0 -38.95 24.85 -38.95 24.1 -38.7 23.6 -38.1 L23.35 -37.95 22.9 -37.85 21.6 -37.65 20.35 -37.5 20.15 -37.35 Q19.8 -36.65 18.6 -36.5 L18.35 -36.35 Q18.85 -36.0 18.95 -35.1 L19.0 -34.85 18.95 -34.6 18.85 -33.35 20.6 -33.45 21.1 -33.45 22.1 -33.1 Q21.65 -32.4 20.6 -32.25 L20.45 -32.1 20.4 -30.9 M-1.8 -32.25 L-3.05 -30.45 -6.4 -30.45 -3.95 -31.7 -1.8 -32.25 M-21.95 -30.55 L-30.15 -30.6 Q-30.15 -35.0 -30.45 -39.35 L-30.75 -40.65 -31.35 -42.2 -30.9 -42.75 -29.65 -42.55 -27.9 -42.45 Q-23.15 -42.65 -18.65 -41.5 -15.85 -40.8 -14.65 -39.35 L-14.35 -39.15 -14.0 -38.95 -13.8 -38.65 -13.15 -37.85 -13.05 -37.65 -13.95 -36.4 -14.35 -36.05 Q-15.65 -34.9 -17.4 -35.1 L-17.15 -34.95 -16.15 -34.75 -15.65 -34.7 -14.15 -34.35 -15.65 -33.65 -21.95 -30.55 M27.65 -32.6 L28.35 -32.85 30.15 -33.5 30.85 -33.7 31.5 -33.8 31.1 -32.1 25.7 -30.85 27.65 -32.6 M-32.6 -26.35 L-32.4 -21.55 -32.2 -21.6 -31.85 -22.4 -31.7 -22.9 -31.65 -23.6 -32.1 -26.35 -32.6 -26.35" fill="#760903" fill-rule="evenodd" stroke="none"/>
    <path d="M-32.6 -26.35 L-32.1 -26.35 -31.65 -23.6 -31.7 -22.9 -31.85 -22.4 -32.2 -21.6 -32.4 -21.55 -32.6 -26.35" fill="#000000" fill-rule="evenodd" stroke="none"/>
    <path d="M30.65 22.4 L30.65 34.9 28.1 35.95 28.2 36.55 27.95 36.9 Q28.15 39.4 28.65 41.85 L28.8 42.75 28.5 45.9 28.5 46.9 28.6 51.15 28.5 51.55 Q27.6 52.4 26.35 52.4 L26.45 48.9 26.55 47.65 26.9 40.65 Q26.95 39.6 26.35 38.9 L26.1 38.65 Q25.55 37.95 25.5 36.65 L25.35 36.5 23.35 36.4 22.85 36.35 22.8 36.3 22.1 34.65 24.85 34.5 Q25.5 34.55 25.45 33.9 25.4 33.1 26.1 33.05 L26.6 32.9 Q27.3 32.6 27.15 31.65 L27.15 31.4 27.2 30.95 27.45 29.15 Q27.5 26.25 27.95 23.4 L28.1 23.4 28.5 23.3 Q29.3 22.6 30.65 22.4 M29.1 -20.35 L28.75 -19.1 28.2 -18.2 27.85 -18.15 Q27.15 -18.4 26.75 -19.05 26.45 -19.55 26.45 -20.1 26.4 -20.75 26.8 -20.9 L27.1 -21.1 Q27.7 -21.95 28.8 -21.25 L29.1 -20.6 29.1 -20.35 M30.0 -16.1 L30.0 -15.35 30.1 -14.6 30.2 -13.1 30.25 -12.6 30.2 -12.4 30.15 -12.35 30.1 -12.25 29.05 -11.65 27.95 -10.3 27.75 -9.9 27.25 -8.1 27.2 -7.85 26.85 -6.6 Q25.8 -7.05 25.1 -8.1 L24.95 -8.6 24.6 -9.6 Q24.25 -9.95 24.65 -10.55 L25.0 -11.15 25.1 -11.6 Q25.1 -12.95 25.35 -14.3 L25.55 -14.45 25.95 -14.6 27.8 -15.45 28.8 -16.15 29.6 -16.85 Q30.0 -16.75 30.0 -16.1 M26.55 2.45 Q26.95 3.3 26.95 4.4 L27.0 4.65 27.05 5.65 Q26.95 6.2 27.25 6.35 L27.4 6.55 26.55 12.9 Q26.3 14.6 26.3 16.4 26.25 16.8 25.6 16.6 L24.6 16.3 Q24.05 16.2 24.05 15.4 24.1 12.8 25.0 10.6 L25.1 10.15 25.0 7.15 24.9 6.85 24.05 5.4 23.1 4.65 Q24.7 3.85 25.5 2.35 25.7 2.0 26.3 2.2 L26.55 2.45 M19.85 46.4 L20.1 46.2 20.6 45.95 Q22.0 45.65 22.4 46.35 22.7 46.8 22.7 47.65 L22.8 48.15 22.95 48.6 Q23.4 49.25 22.85 50.15 L22.7 50.65 Q22.55 52.05 21.35 52.65 L21.2 52.4 21.15 49.9 Q21.25 48.25 20.05 47.75 L19.65 47.55 17.1 47.25 Q15.7 47.4 15.35 46.65 L15.85 46.45 16.6 46.35 17.35 46.3 19.35 46.2 Q19.4 46.8 19.85 46.4 M28.0 75.55 Q28.25 75.9 28.15 76.65 L27.4 80.9 27.3 81.4 Q26.95 82.4 25.6 82.3 L25.1 82.3 23.6 82.45 23.5 82.15 23.35 81.4 Q22.65 79.15 23.75 77.75 L24.05 77.55 26.35 76.4 27.2 75.9 28.0 75.55 M22.85 88.4 Q25.85 87.45 29.1 87.15 L30.6 87.05 31.1 87.2 31.1 87.7 30.9 92.35 30.4 96.9 Q30.2 98.15 28.85 98.25 L28.35 98.45 27.1 98.9 27.1 98.4 Q27.05 96.35 27.25 94.4 27.4 93.0 26.65 92.35 26.1 91.9 25.1 91.8 L24.65 91.6 24.2 90.85 24.05 90.45 23.55 89.4 22.85 88.4 M-24.65 -19.95 Q-24.0 -19.75 -24.05 -18.85 -24.1 -18.4 -23.7 -18.3 L-23.4 -18.1 Q-22.8 -17.65 -23.3 -16.8 L-23.4 -16.35 -23.25 -15.55 -23.1 -15.1 -23.05 -14.7 -23.4 -14.7 -24.1 -14.6 -27.9 -13.95 -29.15 -14.05 -29.65 -14.35 -29.45 -14.6 Q-29.05 -15.15 -28.8 -15.9 L-28.9 -16.1 Q-30.0 -16.85 -29.75 -18.85 L-29.55 -20.6 -29.05 -23.85 -28.95 -24.35 -28.65 -25.35 Q-27.7 -24.85 -27.1 -23.9 L-25.6 -21.9 Q-24.9 -21.15 -24.8 -20.1 L-24.65 -19.95 M-22.1 -19.05 Q-21.3 -20.2 -19.85 -20.35 L-19.65 -20.1 Q-19.25 -19.3 -19.2 -18.6 -19.05 -17.3 -20.2 -16.95 L-20.9 -16.85 -21.65 -16.85 -21.75 -17.05 -22.25 -18.65 -22.1 -19.05 M-30.45 23.4 L-30.25 23.05 -29.9 22.85 -29.45 22.85 -29.2 23.15 -27.4 27.4 -25.55 31.4 -25.35 31.85 -24.95 32.65 Q-24.35 33.85 -24.3 34.9 L-24.4 35.05 Q-25.05 35.1 -25.15 35.65 -25.4 36.9 -24.45 37.15 L-24.4 37.4 Q-24.45 37.95 -24.0 38.1 -23.9 38.15 -23.95 38.4 L-24.2 38.6 -25.7 39.05 -26.4 39.15 -29.4 39.3 -30.0 39.4 -30.15 39.35 -30.55 39.25 Q-31.15 39.0 -31.25 38.4 -31.3 37.85 -31.0 37.7 L-30.9 37.4 -30.75 31.4 -30.7 27.65 -30.55 23.65 -30.45 23.4 M-22.25 36.65 Q-22.2 36.4 -22.45 36.3 -22.4 36.15 -22.2 36.1 L-21.9 35.9 Q-21.1 35.1 -19.9 35.15 -19.55 37.55 -21.15 38.15 L-21.65 38.3 Q-22.1 38.35 -22.15 37.9 L-22.2 37.4 -22.25 36.9 -22.25 36.65 M-26.4 60.7 Q-25.55 60.25 -25.2 59.6 L-23.85 56.9 Q-23.4 55.9 -22.4 55.9 -22.3 56.65 -22.55 57.7 -22.7 58.35 -22.45 58.7 -22.0 59.4 -22.0 60.4 L-21.9 60.9 -21.3 62.0 -21.35 62.2 Q-21.6 62.8 -22.15 62.95 L-22.65 63.05 -23.7 63.3 Q-24.05 63.5 -23.9 64.15 -23.7 64.85 -22.65 64.9 L-22.7 65.1 -23.15 65.05 -23.65 65.0 Q-25.05 64.75 -25.65 65.4 L-26.35 66.85 -26.65 67.05 -29.2 67.6 -30.15 67.9 -31.15 68.1 Q-32.0 68.15 -31.8 67.15 L-31.6 66.7 -29.95 65.3 Q-29.6 65.1 -29.55 64.4 L-29.0 63.05 -28.85 62.65 -28.2 61.8 -26.4 60.7 M-31.0 85.65 L-31.05 86.7 -31.45 87.05 Q-32.35 87.6 -32.05 89.15 L-31.45 91.65 -31.25 92.05 -31.05 92.2 -30.9 92.25 -30.65 92.35 Q-29.85 92.9 -30.25 94.4 L-30.4 94.6 Q-31.3 95.15 -32.65 95.5 L-32.9 95.55 Q-33.35 95.6 -33.45 95.2 L-33.65 94.9 Q-34.1 94.45 -34.15 93.8 L-34.35 92.4 -34.35 92.3 -34.15 88.3 -34.15 88.15 Q-34.05 87.3 -33.45 86.8 -33.1 86.55 -32.85 85.9 -32.5 85.15 -31.4 85.25 L-31.2 85.3 -31.0 85.65" fill="#f7dca6" fill-rule="evenodd" stroke="none"/>
    <path d="M-7.35 -18.05 L-6.6 -15.35 -8.15 -15.1 -7.35 -18.05 M-13.35 -24.7 L-12.9 -24.85 Q-12.45 -24.65 -12.3 -23.85 L-12.9 -23.5 -13.35 -23.65 Q-13.55 -23.75 -13.55 -24.2 L-13.35 -24.7 M-17.35 -10.3 L-17.9 -10.1 -18.1 -12.05 -16.85 -12.05 -17.35 -10.3 M-19.65 5.45 L-17.65 8.75 -19.4 8.45 Q-20.3 7.45 -19.95 6.1 L-19.65 5.45" fill="#911c15" fill-rule="evenodd" stroke="none"/>
    <path d="M1.85 -105.65 Q1.85 -106.7 3.35 -107.9 L4.85 -109.25 Q4.85 -110.65 2.1 -110.45 -0.65 -110.3 -0.65 -106.95 L-0.55 -104.65 -0.55 -104.55 Q-0.3 -103.1 0.6 -102.35 1.35 -102.85 1.35 -103.45 L1.6 -104.55 1.85 -105.65 M4.7 -106.0 Q2.85 -106.35 2.85 -105.25 L2.95 -104.65 3.95 -104.5 4.75 -104.65 4.85 -105.35 4.7 -106.0 M7.4 -105.15 L7.4 -105.1 Q7.1 -104.05 6.15 -103.5 5.05 -102.8 3.8 -102.5 2.85 -102.35 2.3 -101.7 L2.2 -100.95 0.8 -100.2 -1.35 -102.35 -1.1 -104.05 -1.25 -104.25 Q-3.9 -108.15 -0.85 -110.6 2.7 -112.65 4.5 -111.6 6.3 -110.6 7.35 -109.55 8.0 -107.3 7.4 -105.15 M-18.7 -86.05 L-18.7 -86.0 -18.75 -85.95 -18.95 -85.5 Q-19.9 -83.6 -21.35 -82.0 L-22.35 -80.65 -23.4 -79.0 Q-24.35 -77.3 -25.85 -75.85 L-28.3 -78.25 -28.4 -78.35 -26.2 -80.1 -26.55 -79.65 -26.55 -79.35 -26.5 -79.2 -26.3 -79.1 -26.25 -79.0 -25.8 -78.9 Q-24.7 -78.9 -23.1 -81.4 L-21.7 -83.8 -18.6 -86.35 -18.7 -86.05 M-27.15 -72.85 L-27.15 -72.95 -24.5 -71.3 -33.2 -61.35 -35.4 -64.35 -33.4 -66.15 -34.75 -64.55 -34.75 -64.5 Q-34.75 -64.1 -34.4 -63.6 -34.0 -63.1 -33.4 -63.0 L-33.15 -63.0 Q-32.55 -63.0 -32.5 -63.25 L-32.4 -63.85 Q-32.95 -64.45 -31.65 -65.6 L-29.65 -67.15 -28.05 -68.7 Q-26.55 -70.2 -26.55 -70.6 -26.55 -72.0 -28.35 -70.75 -27.6 -71.75 -27.15 -72.85 M33.4 -62.75 L29.3 -68.5 Q29.3 -69.4 29.8 -70.25 L30.7 -71.0 30.9 -71.1 Q33.65 -68.85 35.3 -65.8 34.9 -65.4 34.6 -63.85 34.5 -63.15 34.0 -63.0 L33.4 -62.75 M27.45 -72.7 L27.05 -72.15 Q25.65 -71.95 24.55 -72.5 22.75 -73.35 22.45 -75.5 L21.95 -77.4 20.8 -80.35 Q20.3 -81.5 20.15 -82.65 20.0 -83.4 20.15 -84.2 L21.05 -84.7 21.65 -84.2 21.7 -84.2 24.5 -82.05 28.05 -77.85 28.35 -77.45 28.25 -77.4 28.2 -77.0 28.35 -75.4 27.8 -74.7 Q26.8 -73.6 26.2 -73.6 L24.2 -73.75 24.2 -73.15 25.1 -72.45 26.6 -72.15 27.45 -72.7 M19.8 -88.6 L17.9 -87.25 Q17.4 -90.0 16.1 -92.75 L15.45 -94.05 13.65 -97.3 11.4 -100.95 10.95 -102.35 10.6 -103.35 12.0 -101.55 16.1 -95.5 17.95 -92.35 19.15 -90.35 18.7 -89.85 Q17.95 -89.0 17.95 -88.5 17.95 -88.15 18.1 -88.15 L18.6 -88.15 19.55 -88.95 19.85 -89.3 20.15 -88.85 19.8 -88.6 M15.25 -88.5 L15.85 -88.75 Q16.0 -88.65 16.1 -88.65 L16.15 -88.7 16.25 -88.25 16.1 -87.95 14.2 -86.0 13.8 -85.6 Q12.1 -84.1 11.85 -84.1 L9.95 -84.3 9.55 -84.45 9.45 -84.45 8.5 -84.8 6.75 -85.75 Q6.9 -86.35 7.6 -86.35 L8.65 -85.9 11.35 -85.6 Q11.75 -85.85 13.45 -87.25 L15.25 -88.5 M10.8 -88.4 Q9.3 -87.0 8.6 -87.0 8.2 -87.0 7.55 -87.75 6.95 -88.55 6.95 -89.15 L6.95 -91.65 7.05 -95.9 Q7.4 -98.95 8.6 -99.1 9.65 -98.7 11.05 -95.4 12.35 -92.35 12.35 -91.1 12.35 -89.95 10.8 -88.4 M2.25 -93.1 L1.85 -90.0 1.2 -88.55 Q0.6 -87.65 -0.15 -87.5 L-0.6 -87.6 -0.75 -88.1 Q-0.75 -89.5 0.1 -92.85 0.45 -95.55 1.35 -95.15 2.25 -94.8 2.25 -93.1 M2.2 -85.95 L2.2 -85.75 2.1 -85.0 1.35 -84.85 -2.0 -85.25 -2.0 -85.2 -2.05 -85.65 -1.55 -86.1 -0.7 -86.2 2.1 -86.35 2.2 -85.95 M9.5 -85.95 L9.45 -86.4 Q9.45 -86.8 9.85 -86.85 L10.6 -86.85 10.7 -86.35 10.6 -85.85 10.1 -85.65 9.5 -86.0 9.5 -85.95 M8.6 -70.15 L8.7 -69.85 8.45 -69.25 7.85 -68.9 -0.65 -69.25 -1.2 -69.7 -1.25 -69.9 -0.6 -70.3 6.85 -70.5 Q8.25 -70.6 8.6 -70.15 M4.35 -80.1 Q6.6 -80.95 6.6 -79.35 6.6 -78.05 4.05 -75.9 1.4 -73.75 -0.9 -73.35 L-1.65 -74.0 -1.45 -76.45 -1.0 -78.5 1.35 -79.3 4.35 -80.1 M7.35 -77.15 L7.6 -76.5 7.55 -76.05 7.45 -76.1 6.85 -75.85 6.1 -76.5 Q6.1 -77.7 7.35 -77.15 M6.75 -74.85 Q6.75 -74.1 5.6 -73.85 L4.85 -74.65 Q4.85 -75.7 6.6 -75.35 L6.75 -74.85 M12.85 -75.65 Q12.85 -77.15 13.5 -78.1 14.45 -79.45 16.6 -79.35 L17.35 -78.35 Q17.35 -77.85 16.1 -76.05 14.75 -74.1 14.1 -74.1 13.05 -74.1 12.85 -74.85 L12.85 -75.65 M20.85 -70.0 L20.85 -69.75 Q20.85 -69.1 19.05 -69.05 L18.55 -69.0 17.4 -68.95 13.1 -68.35 12.9 -68.5 12.75 -68.45 12.6 -68.4 12.45 -68.65 Q11.7 -69.8 11.7 -70.1 11.7 -70.75 12.35 -71.0 L12.35 -70.95 13.1 -69.85 13.6 -69.85 15.05 -70.15 19.6 -70.6 Q20.7 -70.7 20.85 -70.0 M21.65 -60.35 L21.7 -59.85 21.65 -59.5 21.6 -59.35 Q21.4 -59.0 20.85 -58.9 L17.35 -58.6 12.85 -58.6 12.1 -59.25 12.35 -59.8 13.4 -60.15 Q15.05 -60.4 21.6 -60.35 L21.65 -60.35 M2.4 -73.1 Q2.25 -73.2 2.25 -73.6 2.25 -74.25 2.35 -74.0 L3.45 -74.1 Q3.45 -73.7 3.6 -73.5 L2.85 -73.0 2.4 -73.1 M-2.9 -59.65 L-3.55 -60.15 -3.8 -60.6 -3.3 -62.25 -2.4 -63.75 Q-2.1 -63.3 -2.05 -62.5 L-1.9 -61.4 6.6 -61.4 7.45 -60.6 Q7.45 -60.15 6.6 -59.65 L-2.9 -59.65 M30.75 -62.4 L31.65 -61.1 Q29.65 -60.05 27.45 -59.7 L25.8 -59.55 Q29.05 -60.0 30.05 -60.4 30.85 -60.75 30.85 -61.6 L30.75 -62.4 M25.2 -59.6 L24.2 -59.9 23.95 -62.15 Q23.75 -64.7 23.15 -67.1 L26.9 -67.85 30.5 -62.75 Q30.05 -63.0 29.35 -62.15 28.9 -61.6 26.55 -61.3 24.5 -61.0 24.5 -60.4 L25.2 -59.6 M36.0 -63.7 L36.15 -63.9 36.15 -63.85 36.0 -63.7 M-1.65 -97.5 Q-1.5 -97.25 -1.5 -96.85 -1.5 -96.5 -2.2 -95.15 L-2.85 -94.1 -4.25 -91.85 Q-4.55 -90.8 -5.5 -89.5 -6.75 -87.85 -7.9 -87.85 -8.6 -87.85 -8.8 -88.25 L-8.8 -88.7 -7.2 -91.25 -5.3 -94.1 -3.65 -96.9 Q-3.0 -98.05 -2.2 -97.85 -1.85 -97.75 -1.65 -97.5 M-4.45 -87.3 L-4.4 -86.75 Q-4.4 -85.8 -4.7 -85.6 L-8.85 -85.1 -8.9 -85.1 -10.35 -86.3 Q-11.25 -87.3 -11.25 -87.85 -11.25 -89.0 -10.5 -88.35 L-9.0 -86.6 -5.5 -86.9 -5.4 -87.5 -4.9 -87.75 -4.5 -87.35 -4.45 -87.3 M-9.4 -97.95 Q-8.15 -98.85 -8.15 -97.45 -8.15 -96.8 -13.65 -91.35 L-14.4 -92.1 Q-14.4 -92.85 -11.9 -95.55 L-11.25 -96.25 -9.4 -97.95 M-16.15 -79.9 Q-15.25 -79.15 -15.25 -78.7 L-19.15 -75.6 -19.9 -76.35 -20.25 -77.1 -19.05 -78.4 Q-17.7 -79.75 -16.9 -79.9 L-16.15 -79.9 M-17.4 -74.5 Q-17.4 -73.85 -18.3 -73.85 L-19.05 -73.9 -19.15 -74.5 Q-19.15 -75.55 -17.65 -75.15 -17.4 -75.15 -17.4 -74.5 M-12.65 -75.25 L-12.25 -76.6 -11.65 -78.25 Q-11.0 -79.95 -9.15 -79.95 L-6.15 -79.65 -5.75 -79.6 -5.55 -79.1 Q-5.55 -78.4 -7.65 -76.6 L-8.9 -75.65 Q-8.15 -75.9 -7.75 -75.45 -7.4 -75.1 -7.4 -74.5 L-7.4 -74.25 -7.6 -73.95 -8.15 -73.75 -8.7 -73.85 -9.0 -74.1 -9.05 -74.8 -9.0 -75.55 Q-10.45 -74.6 -11.65 -74.6 L-12.55 -74.65 -12.65 -75.25 M-6.85 -69.85 L-7.15 -69.65 -13.65 -69.65 -14.3 -70.15 -14.55 -70.6 -14.45 -71.85 -13.9 -73.1 Q-13.35 -72.8 -13.35 -72.35 L-13.4 -71.5 -7.15 -71.4 -6.3 -70.6 Q-6.3 -70.25 -6.85 -69.85 M-28.8 -63.15 L-27.7 -64.45 -26.05 -65.9 -24.05 -67.95 -20.9 -68.25 -20.45 -67.8 -20.25 -67.4 Q-20.25 -66.45 -28.15 -62.4 L-28.6 -62.6 -28.8 -63.15 M-26.15 -63.15 L-24.65 -63.35 Q-23.65 -62.65 -23.65 -62.35 -23.65 -61.6 -24.55 -61.6 -26.25 -61.6 -26.25 -62.65 L-26.15 -63.15 M-16.65 -65.1 Q-16.15 -64.8 -16.05 -63.95 -16.0 -63.25 -16.25 -62.75 -14.75 -61.8 -12.5 -62.05 L-9.05 -62.25 Q-8.9 -62.25 -8.9 -61.6 -8.9 -61.0 -9.4 -60.75 L-11.9 -60.5 -16.65 -60.75 Q-17.3 -60.9 -17.65 -61.65 L-17.9 -62.55 -17.5 -63.75 -16.65 -65.1" fill="#0c6551" fill-rule="evenodd" stroke="none"/>
    <path d="M4.7 -106.0 L4.85 -105.35 4.75 -104.65 3.95 -104.5 2.95 -104.65 2.85 -105.25 Q2.85 -106.35 4.7 -106.0 M1.85 -105.65 L1.6 -104.55 1.35 -103.45 Q1.35 -102.85 0.6 -102.35 -0.3 -103.1 -0.55 -104.55 L-0.55 -104.65 -0.65 -106.95 Q-0.65 -110.3 2.1 -110.45 4.85 -110.65 4.85 -109.25 L3.35 -107.9 Q1.85 -106.7 1.85 -105.65 M-4.0 -103.1 L-3.75 -103.1 -6.75 -97.4 Q-8.85 -93.8 -11.7 -90.75 L-13.55 -88.95 -16.0 -91.3 -16.15 -91.45 -11.9 -95.55 Q-14.4 -92.85 -14.4 -92.1 L-13.65 -91.35 Q-8.15 -96.8 -8.15 -97.45 -8.15 -98.85 -9.4 -97.95 L-4.1 -103.1 -4.0 -103.1 M36.75 -63.8 L33.95 -61.65 33.2 -61.75 33.0 -62.35 33.4 -62.75 34.0 -63.0 Q34.5 -63.15 34.6 -63.85 34.9 -65.4 35.3 -65.8 L35.35 -65.85 36.6 -64.15 36.7 -64.0 36.8 -63.85 36.85 -63.8 36.75 -63.85 36.75 -63.8 M28.65 -73.75 L27.45 -72.7 26.6 -72.15 25.1 -72.45 24.2 -73.15 24.2 -73.75 26.2 -73.6 Q26.8 -73.6 27.8 -74.7 L28.35 -75.4 28.2 -77.0 28.25 -77.4 28.35 -77.45 28.35 -77.5 29.2 -76.5 29.5 -75.65 Q29.5 -74.7 28.65 -73.75 M19.15 -90.35 L19.35 -90.6 Q19.85 -90.6 20.25 -90.1 L19.85 -89.3 19.55 -88.95 18.6 -88.15 18.1 -88.15 Q17.95 -88.15 17.95 -88.5 17.95 -89.0 18.7 -89.85 L19.15 -90.35 M30.5 -62.75 L30.55 -62.7 30.75 -62.4 30.85 -61.6 Q30.85 -60.75 30.05 -60.4 29.05 -60.0 25.8 -59.55 L25.35 -59.5 25.2 -59.6 24.5 -60.4 Q24.5 -61.0 26.55 -61.3 28.9 -61.6 29.35 -62.15 30.05 -63.0 30.5 -62.75 M36.0 -63.7 L36.15 -63.85 36.15 -63.9 36.0 -63.7 M-14.9 -85.15 L-13.1 -84.9 -13.1 -84.0 Q-14.1 -79.2 -16.45 -75.05 -17.45 -73.3 -18.75 -71.9 -20.3 -72.7 -22.1 -72.5 L-23.4 -73.7 Q-23.25 -75.75 -21.55 -77.2 L-20.35 -78.5 -15.05 -85.05 -14.9 -85.15 M-17.4 -74.5 Q-17.4 -75.15 -17.65 -75.15 -19.15 -75.55 -19.15 -74.5 L-19.05 -73.9 -18.3 -73.85 Q-17.4 -73.85 -17.4 -74.5 M-16.15 -79.9 L-16.9 -79.9 Q-17.7 -79.75 -19.05 -78.4 L-20.25 -77.1 -19.9 -76.35 -19.15 -75.6 -15.25 -78.7 Q-15.25 -79.15 -16.15 -79.9 M-26.2 -80.1 L-24.35 -82.05 -21.15 -85.1 -21.7 -83.8 -23.1 -81.4 Q-24.7 -78.9 -25.8 -78.9 L-26.25 -79.0 -26.3 -79.1 -26.5 -79.2 -26.55 -79.35 -26.55 -79.65 -26.2 -80.1 M-28.35 -70.75 Q-26.55 -72.0 -26.55 -70.6 -26.55 -70.2 -28.05 -68.7 L-29.65 -67.15 -31.65 -65.6 Q-32.95 -64.45 -32.4 -63.85 L-32.5 -63.25 Q-32.55 -63.0 -33.15 -63.0 L-33.4 -63.0 Q-34.0 -63.1 -34.4 -63.6 -34.75 -64.1 -34.75 -64.5 L-34.75 -64.55 -33.4 -66.15 -33.25 -66.3 -30.65 -68.85 -28.35 -70.75 M-26.15 -63.15 L-26.25 -62.65 Q-26.25 -61.6 -24.55 -61.6 -23.65 -61.6 -23.65 -62.35 -23.65 -62.65 -24.65 -63.35 L-26.15 -63.15 M-28.8 -63.15 L-28.6 -62.6 -28.15 -62.4 Q-20.25 -66.45 -20.25 -67.4 L-20.45 -67.8 -20.9 -68.25 -24.05 -67.95 -26.05 -65.9 -27.7 -64.45 -28.8 -63.15 M-30.35 -61.7 L-23.85 -69.2 -18.2 -68.7 -20.6 -61.85 Q-25.5 -60.95 -30.35 -61.7" fill="#2f9ee1" fill-rule="evenodd" stroke="none"/>
    <path d="M-1.25 -104.25 L-1.1 -104.05 -1.35 -102.35 0.8 -100.2 2.2 -100.95 2.3 -101.7 Q2.85 -102.35 3.8 -102.5 5.05 -102.8 6.15 -103.5 7.1 -104.05 7.4 -105.1 L7.4 -105.15 8.35 -104.65 9.35 -104.15 10.3 -103.5 10.65 -103.15 10.95 -102.35 11.4 -100.95 13.65 -97.3 15.45 -94.05 16.1 -92.75 Q17.4 -90.0 17.9 -87.25 L19.8 -88.6 19.8 -88.55 Q19.8 -87.9 20.1 -87.35 L20.65 -85.85 Q21.0 -84.8 21.65 -84.2 L21.05 -84.7 20.15 -84.2 Q20.0 -83.4 20.15 -82.65 20.3 -81.5 20.8 -80.35 L21.95 -77.4 22.45 -75.5 Q22.75 -73.35 24.55 -72.5 25.65 -71.95 27.05 -72.15 L27.45 -72.7 28.65 -73.75 30.7 -71.0 29.8 -70.25 Q29.3 -69.4 29.3 -68.5 L33.4 -62.75 33.0 -62.35 33.2 -61.75 33.95 -61.65 36.75 -63.8 36.75 -63.75 36.9 -63.35 36.95 -63.25 37.1 -63.0 37.2 -62.75 Q37.2 -62.5 37.35 -62.35 L37.55 -61.85 37.5 -61.75 Q37.2 -61.2 36.5 -60.85 L35.75 -60.35 35.5 -60.25 35.3 -60.2 35.0 -60.05 34.8 -59.95 Q34.45 -59.7 34.1 -59.6 L33.85 -59.45 33.75 -59.4 33.5 -59.25 32.85 -58.85 32.85 -59.85 32.85 -60.1 Q32.5 -59.9 32.05 -59.75 L31.85 -58.75 31.75 -58.65 31.0 -58.45 30.85 -58.4 30.25 -58.25 30.1 -58.15 29.5 -58.0 29.25 -57.9 28.25 -57.7 27.0 -57.4 23.85 -56.7 Q23.45 -56.65 23.5 -57.0 L23.45 -57.2 23.25 -57.3 23.15 -57.35 Q23.1 -57.85 22.5 -57.75 L22.6 -57.5 22.5 -57.25 22.25 -57.2 22.1 -57.15 21.75 -57.1 20.85 -57.05 19.35 -57.0 18.25 -56.95 17.5 -56.9 15.75 -56.75 15.0 -56.65 12.75 -56.6 12.0 -56.55 Q11.4 -56.5 11.3 -56.85 L11.25 -57.0 Q10.75 -57.05 10.5 -57.25 10.6 -56.8 10.25 -56.9 L10.0 -56.95 7.75 -57.05 0.75 -57.1 -2.5 -57.25 -4.4 -57.55 -4.5 -57.55 -4.7 -57.65 -4.8 -57.85 -4.8 -58.0 Q-4.8 -58.5 -5.25 -58.45 -5.5 -58.4 -5.35 -58.0 L-5.3 -57.85 Q-5.25 -57.6 -5.5 -57.6 L-5.9 -57.6 -10.15 -57.6 -11.4 -57.65 -12.15 -57.7 -13.75 -57.75 -17.0 -57.85 -17.65 -57.9 -18.25 -57.95 -19.25 -58.05 -19.4 -58.15 -19.5 -58.85 -19.55 -59.1 -20.25 -59.6 -20.5 -59.35 Q-20.4 -59.0 -20.65 -59.0 L-21.65 -59.0 -23.65 -59.15 -24.0 -59.2 -26.65 -59.35 -28.5 -59.4 -29.4 -59.45 -30.65 -59.65 -30.9 -59.7 -31.2 -60.0 Q-31.15 -60.35 -31.4 -60.35 L-32.25 -60.4 Q-32.65 -60.45 -32.6 -60.1 -32.6 -59.75 -32.75 -59.6 L-32.9 -59.85 -33.25 -60.05 -33.55 -60.2 -34.65 -60.75 -34.7 -60.85 -34.8 -61.35 -35.0 -62.25 -35.1 -62.6 -35.3 -63.25 -35.4 -64.35 -33.2 -61.35 -24.5 -71.3 -27.15 -72.95 -27.15 -72.85 -27.9 -73.85 -28.3 -74.5 -28.4 -74.6 -28.8 -75.25 -28.9 -75.35 -29.2 -75.75 -29.15 -76.0 -29.1 -76.25 -28.95 -76.75 -28.85 -77.0 -28.8 -77.1 -28.75 -77.35 -28.5 -78.1 -28.3 -78.25 -25.85 -75.85 Q-24.35 -77.3 -23.4 -79.0 L-22.35 -80.65 -21.35 -82.0 Q-19.9 -83.6 -18.95 -85.5 L-18.75 -85.95 -18.7 -86.0 -18.7 -86.05 -18.4 -86.4 -18.25 -86.5 -17.35 -87.3 Q-16.8 -87.75 -16.4 -88.35 -16.05 -88.8 -16.4 -89.1 L-16.45 -89.25 -16.9 -90.25 Q-16.65 -90.3 -16.55 -90.6 L-16.0 -91.3 -13.55 -88.95 -11.7 -90.75 Q-8.85 -93.8 -6.75 -97.4 L-3.75 -103.1 -4.0 -103.1 -3.65 -103.35 -3.55 -103.5 -3.25 -103.75 -2.25 -103.95 -2.0 -104.0 -1.75 -104.1 -1.25 -104.25 M15.25 -88.5 Q15.0 -90.35 14.1 -91.95 L9.8 -99.8 8.65 -100.7 6.65 -100.7 Q5.55 -95.45 6.0 -90.2 L6.5 -86.5 6.95 -85.15 9.45 -84.45 9.55 -84.45 9.95 -84.3 12.1 -83.75 13.8 -85.6 14.2 -86.0 16.1 -87.95 16.25 -88.25 16.15 -88.7 16.1 -88.65 Q16.0 -88.65 15.85 -88.75 L15.25 -88.5 M2.2 -85.95 Q2.95 -88.2 2.95 -90.75 L2.85 -98.7 Q1.05 -96.45 0.0 -93.5 -1.3 -89.8 -1.55 -86.1 L-2.05 -85.65 -2.0 -85.2 -2.0 -85.25 1.35 -84.85 2.1 -85.0 2.2 -85.75 2.2 -85.95 M8.6 -70.15 L9.05 -70.9 Q9.7 -72.85 9.3 -75.0 8.8 -77.6 8.75 -80.25 8.75 -81.0 8.4 -81.4 L6.65 -81.45 Q2.35 -81.95 -1.85 -81.25 L-1.85 -79.45 -2.2 -79.1 -3.1 -70.8 -2.65 -70.75 -2.6 -70.65 -2.7 -70.3 Q-2.25 -69.6 -1.2 -69.7 L-0.65 -69.25 7.85 -68.9 8.45 -69.25 8.7 -69.85 8.6 -70.15 M20.85 -70.0 L20.9 -70.05 20.55 -72.4 18.45 -78.35 16.6 -82.6 Q13.6 -81.25 11.6 -78.7 11.55 -74.95 12.3 -71.25 L12.35 -71.0 Q11.7 -70.75 11.7 -70.1 11.7 -69.8 12.45 -68.65 L11.95 -68.05 12.65 -68.15 12.75 -68.45 12.9 -68.5 13.1 -68.35 17.4 -68.95 17.5 -68.95 18.55 -69.0 19.05 -69.05 Q20.85 -69.1 20.85 -69.75 L20.85 -70.0 M21.65 -60.35 L21.7 -63.05 21.5 -65.4 20.95 -66.85 16.4 -66.15 13.75 -65.6 12.95 -65.05 11.9 -64.95 12.35 -59.8 12.1 -59.25 12.85 -58.6 17.35 -58.6 20.85 -58.9 Q21.4 -59.0 21.6 -59.35 L21.65 -59.35 21.65 -59.5 21.7 -59.85 21.65 -60.35 M9.6 -65.15 L8.85 -65.9 8.35 -65.45 6.9 -66.35 -3.15 -66.35 -4.2 -59.7 -2.9 -59.65 10.15 -59.2 9.6 -65.15 M30.75 -62.4 L30.55 -62.7 30.5 -62.75 26.9 -67.85 23.15 -67.1 Q23.75 -64.7 23.95 -62.15 L24.2 -59.9 25.2 -59.6 25.35 -59.5 25.8 -59.55 27.45 -59.7 Q29.65 -60.05 31.65 -61.1 L30.75 -62.4 M-1.65 -97.5 L-1.15 -99.95 -2.15 -100.35 -10.5 -88.35 Q-11.25 -89.0 -11.25 -87.85 -11.25 -87.3 -10.35 -86.3 L-8.9 -85.1 -8.85 -85.1 -4.7 -85.6 Q-4.4 -85.8 -4.4 -86.75 L-4.45 -87.3 Q-3.9 -88.7 -3.5 -90.2 L-2.2 -95.15 Q-1.5 -96.5 -1.5 -96.85 -1.5 -97.25 -1.65 -97.5 M-14.9 -85.15 L-15.05 -85.05 -20.35 -78.5 -21.55 -77.2 Q-23.25 -75.75 -23.4 -73.7 L-22.1 -72.5 Q-20.3 -72.7 -18.75 -71.9 -17.45 -73.3 -16.45 -75.05 -14.1 -79.2 -13.1 -84.0 L-13.1 -84.9 -14.9 -85.15 M-6.85 -69.85 L-5.75 -69.85 -5.4 -70.9 Q-4.7 -73.1 -4.5 -75.6 L-4.15 -80.45 -9.6 -81.15 -11.15 -81.55 -13.85 -76.2 -14.85 -72.6 -14.45 -71.85 -14.55 -70.6 -14.3 -70.15 -13.65 -69.65 -7.15 -69.65 -6.85 -69.85 M-30.35 -61.7 Q-25.5 -60.95 -20.6 -61.85 L-18.2 -68.7 -23.85 -69.2 -30.35 -61.7 M-16.8 -66.35 L-17.7 -64.3 Q-18.45 -62.4 -18.6 -60.45 L-6.65 -60.1 -5.45 -66.8 -16.8 -66.35" fill="#280d0e" fill-rule="evenodd" stroke="none"/>
    <path d="M9.45 -84.45 L6.95 -85.15 6.5 -86.5 6.0 -90.2 Q5.55 -95.45 6.65 -100.7 L8.65 -100.7 9.8 -99.8 14.1 -91.95 Q15.0 -90.35 15.25 -88.5 L13.45 -87.25 Q11.75 -85.85 11.35 -85.6 L8.65 -85.9 7.6 -86.35 Q6.9 -86.35 6.75 -85.75 L8.5 -84.8 9.45 -84.45 M13.8 -85.6 L12.1 -83.75 9.95 -84.3 11.85 -84.1 Q12.1 -84.1 13.8 -85.6 M10.8 -88.4 Q12.35 -89.95 12.35 -91.1 12.35 -92.35 11.05 -95.4 9.65 -98.7 8.6 -99.1 7.4 -98.95 7.05 -95.9 L6.95 -91.65 6.95 -89.15 Q6.95 -88.55 7.55 -87.75 8.2 -87.0 8.6 -87.0 9.3 -87.0 10.8 -88.4 M2.25 -93.1 Q2.25 -94.8 1.35 -95.15 0.45 -95.55 0.1 -92.85 -0.75 -89.5 -0.75 -88.1 L-0.6 -87.6 -0.15 -87.5 Q0.6 -87.65 1.2 -88.55 L1.85 -90.0 2.25 -93.1 M-1.55 -86.1 Q-1.3 -89.8 0.0 -93.5 1.05 -96.45 2.85 -98.7 L2.95 -90.75 Q2.95 -88.2 2.2 -85.95 L2.1 -86.35 -0.7 -86.2 -1.55 -86.1 M9.5 -85.95 L9.5 -86.0 10.1 -85.65 10.6 -85.85 10.7 -86.35 10.6 -86.85 9.85 -86.85 Q9.45 -86.8 9.45 -86.4 L9.5 -85.95 M-1.2 -69.7 Q-2.25 -69.6 -2.7 -70.3 L-2.6 -70.65 -2.65 -70.75 -3.1 -70.8 -2.2 -79.1 -1.85 -79.45 -1.85 -81.25 Q2.35 -81.95 6.65 -81.45 L8.4 -81.4 Q8.75 -81.0 8.75 -80.25 8.8 -77.6 9.3 -75.0 9.7 -72.85 9.05 -70.9 L8.6 -70.15 Q8.25 -70.6 6.85 -70.5 L-0.6 -70.3 -1.25 -69.9 -1.2 -69.7 M12.85 -75.65 L12.85 -74.85 Q13.05 -74.1 14.1 -74.1 14.75 -74.1 16.1 -76.05 17.35 -77.85 17.35 -78.35 L16.6 -79.35 Q14.45 -79.45 13.5 -78.1 12.85 -77.15 12.85 -75.65 M6.75 -74.85 L6.6 -75.35 Q4.85 -75.7 4.85 -74.65 L5.6 -73.85 Q6.75 -74.1 6.75 -74.85 M7.35 -77.15 Q6.1 -77.7 6.1 -76.5 L6.85 -75.85 7.45 -76.1 7.55 -76.05 7.6 -76.5 7.35 -77.15 M4.35 -80.1 L1.35 -79.3 -1.0 -78.5 -1.45 -76.45 -1.65 -74.0 -0.9 -73.35 Q1.4 -73.75 4.05 -75.9 6.6 -78.05 6.6 -79.35 6.6 -80.95 4.35 -80.1 M12.35 -71.0 L12.3 -71.25 Q11.55 -74.95 11.6 -78.7 13.6 -81.25 16.6 -82.6 L18.45 -78.35 20.55 -72.4 20.9 -70.05 20.85 -70.0 Q20.7 -70.7 19.6 -70.6 L15.05 -70.15 13.6 -69.85 13.1 -69.85 12.35 -70.95 12.35 -71.0 M18.55 -69.0 L17.5 -68.95 17.4 -68.95 18.55 -69.0 M12.75 -68.45 L12.65 -68.15 11.95 -68.05 12.45 -68.65 12.6 -68.4 12.75 -68.45 M12.35 -59.8 L11.9 -64.95 12.95 -65.05 13.75 -65.6 16.4 -66.15 20.95 -66.85 21.5 -65.4 21.7 -63.05 21.65 -60.35 21.6 -60.35 Q15.05 -60.4 13.4 -60.15 L12.35 -59.8 M21.65 -59.5 L21.65 -59.35 21.6 -59.35 21.65 -59.5 M2.4 -73.1 L2.85 -73.0 3.6 -73.5 Q3.45 -73.7 3.45 -74.1 L2.35 -74.0 Q2.25 -74.25 2.25 -73.6 2.25 -73.2 2.4 -73.1 M9.6 -65.15 L10.15 -59.2 -2.9 -59.65 -4.2 -59.7 -3.15 -66.35 6.9 -66.35 8.35 -65.45 8.85 -65.9 9.6 -65.15 M-2.9 -59.65 L6.6 -59.65 Q7.45 -60.15 7.45 -60.6 L6.6 -61.4 -1.9 -61.4 -2.05 -62.5 Q-2.1 -63.3 -2.4 -63.75 L-3.3 -62.25 -3.8 -60.6 -3.55 -60.15 -2.9 -59.65 M-10.5 -88.35 L-2.15 -100.35 -1.15 -99.95 -1.65 -97.5 Q-1.85 -97.75 -2.2 -97.85 -3.0 -98.05 -3.65 -96.9 L-5.3 -94.1 -7.2 -91.25 -8.8 -88.7 -8.8 -88.25 Q-8.6 -87.85 -7.9 -87.85 -6.75 -87.85 -5.5 -89.5 -4.55 -90.8 -4.25 -91.85 L-2.85 -94.1 -2.2 -95.15 -3.5 -90.2 Q-3.9 -88.7 -4.45 -87.3 L-4.5 -87.35 -4.9 -87.75 -5.4 -87.5 -5.5 -86.9 -9.0 -86.6 -10.5 -88.35 M-12.65 -75.25 L-12.55 -74.65 -11.65 -74.6 Q-10.45 -74.6 -9.0 -75.55 L-9.05 -74.8 -9.0 -74.1 -8.7 -73.85 -8.15 -73.75 -7.6 -73.95 -7.4 -74.25 -7.4 -74.5 Q-7.4 -75.1 -7.75 -75.45 -8.15 -75.9 -8.9 -75.65 L-7.65 -76.6 Q-5.55 -78.4 -5.55 -79.1 L-5.75 -79.6 -6.15 -79.65 -9.15 -79.95 Q-11.0 -79.95 -11.65 -78.25 L-12.25 -76.6 -12.65 -75.25 M-14.45 -71.85 L-14.85 -72.6 -13.85 -76.2 -11.15 -81.55 -9.6 -81.15 -4.15 -80.45 -4.5 -75.6 Q-4.7 -73.1 -5.4 -70.9 L-5.75 -69.85 -6.85 -69.85 Q-6.3 -70.25 -6.3 -70.6 L-7.15 -71.4 -13.4 -71.5 -13.35 -72.35 Q-13.35 -72.8 -13.9 -73.1 L-14.45 -71.85 M-16.8 -66.35 L-5.45 -66.8 -6.65 -60.1 -18.6 -60.45 Q-18.45 -62.4 -17.7 -64.3 L-16.8 -66.35 M-16.65 -65.1 L-17.5 -63.75 -17.9 -62.55 -17.65 -61.65 Q-17.3 -60.9 -16.65 -60.75 L-11.9 -60.5 -9.4 -60.75 Q-8.9 -61.0 -8.9 -61.6 -8.9 -62.25 -9.05 -62.25 L-12.5 -62.05 Q-14.75 -61.8 -16.25 -62.75 -16.0 -63.25 -16.05 -63.95 -16.15 -64.8 -16.65 -65.1" fill="#0b1c37" fill-rule="evenodd" stroke="none"/>
  </g>
</svg>
