<?xml version="1.0" encoding="UTF-8" standalone="no"?>
<svg xmlns:xlink="http://www.w3.org/1999/xlink" height="54.1px" width="120.45px" xmlns="http://www.w3.org/2000/svg">
  <g transform="matrix(1.0, 0.0, 0.0, 1.0, 105.75, 13.5)">
    <path d="M7.25 -12.8 Q10.85 -11.85 12.95 -7.9 13.9 -6.15 14.25 -3.95 15.9 5.5 11.35 11.5 9.4 14.05 7.1 16.0 2.75 19.55 -5.45 24.65 -13.65 29.75 -17.2 31.1 L-22.15 32.4 Q-35.35 34.05 -57.05 32.35 L-62.15 32.4 -62.1 32.3 -70.1 32.5 -71.15 34.2 -72.35 35.75 -74.45 37.75 Q-76.4 39.4 -78.85 39.7 L-88.7 40.6 Q-92.25 40.65 -95.6 39.55 -99.8 38.15 -103.15 34.95 L-105.75 32.35 -105.75 10.8 -103.95 10.8 -103.75 3.3 -101.9 1.7 -99.95 0.35 Q-97.65 -0.85 -95.2 -1.65 L-90.15 -3.1 Q-85.6 -3.7 -81.1 -2.95 -77.3 -2.55 -73.5 -1.55 L-71.45 -0.75 Q-69.0 0.5 -67.15 2.6 -65.55 4.55 -65.25 7.0 L-63.85 7.05 -63.8 6.65 -62.95 6.55 -62.35 6.4 -59.95 6.0 -57.05 5.65 -39.6 3.8 Q-33.5 3.0 -28.05 -0.25 L-22.4 -3.6 -10.65 -9.7 Q-5.55 -12.35 0.1 -13.25 3.65 -13.9 7.25 -12.8 M5.85 -8.6 Q-3.45 -9.9 -11.6 -4.9 L-24.2 2.6 Q-30.3 5.9 -36.8 7.45 L-49.85 9.5 -57.05 10.05 -60.35 10.5 -60.45 14.7 -59.8 22.15 -58.95 27.75 -57.05 27.9 Q-43.15 30.25 -20.2 27.75 -13.3 25.2 -3.9 19.3 5.5 13.45 11.1 5.95 L11.65 4.35 11.9 1.8 Q12.1 -1.25 10.65 -3.8 L9.1 -6.2 Q7.65 -8.05 5.85 -8.6 M-80.2 -0.05 L-87.55 -0.35 -89.4 -0.2 -94.0 0.8 Q-96.25 1.1 -98.1 2.35 L-99.35 3.1 -99.55 3.25 -100.45 4.7 -100.45 4.8 -100.95 5.75 -101.1 9.1 -101.15 10.9 -99.55 10.9 Q-95.8 15.25 -90.25 16.25 L-87.65 16.65 Q-83.6 16.7 -80.1 14.75 L-77.9 13.35 Q-76.85 12.7 -76.75 11.5 -76.55 9.6 -77.75 8.15 L-76.35 9.55 -77.35 6.95 Q-78.4 4.5 -80.7 2.8 -75.2 5.1 -74.05 10.8 -73.75 12.4 -74.6 13.75 -77.55 18.35 -83.0 19.35 -87.95 20.3 -92.85 19.1 -94.65 18.6 -96.35 17.4 L-98.35 15.7 -99.35 14.7 -99.45 14.55 -99.9 13.9 -102.75 13.9 -102.1 28.9 -101.95 29.65 Q-101.5 32.2 -99.1 33.35 -95.5 36.55 -90.7 37.0 L-84.6 37.4 Q-81.25 36.95 -78.0 35.45 L-76.35 34.5 Q-73.75 32.5 -73.3 29.15 L-64.2 28.65 -64.2 10.4 -68.35 10.25 Q-68.45 5.5 -72.35 2.75 -74.35 1.35 -76.75 0.8 L-78.0 0.45 -78.35 0.15 -80.2 -0.05" fill="#000000" fill-rule="evenodd" stroke="none"/>
    <path d="M-89.4 -0.2 L-87.55 -0.35 -80.2 -0.05 -89.4 -0.2 M-78.0 0.45 L-76.75 0.8 Q-74.35 1.35 -72.35 2.75 -68.45 5.5 -68.35 10.25 L-64.2 10.4 -64.2 28.65 -73.3 29.15 Q-73.75 32.5 -76.35 34.5 L-78.0 35.45 Q-81.25 36.95 -84.6 37.4 L-90.7 37.0 Q-95.5 36.55 -99.1 33.35 L-98.3 33.2 -99.55 18.4 Q-95.3 21.7 -89.95 22.4 -84.5 23.15 -79.5 21.55 L-77.8 20.8 Q-76.35 20.15 -76.4 18.55 -77.7 18.65 -78.9 19.1 L-80.7 19.6 Q-83.95 20.65 -87.5 20.8 -89.4 21.0 -91.1 20.4 -95.55 19.0 -99.7 16.7 L-99.35 14.7 -98.35 15.7 -96.35 17.4 Q-94.65 18.6 -92.85 19.1 -87.95 20.3 -83.0 19.35 -77.55 18.35 -74.6 13.75 -73.75 12.4 -74.05 10.8 -75.2 5.1 -80.7 2.8 -85.4 1.2 -90.35 2.55 -92.7 3.1 -94.95 3.95 L-97.25 4.95 -97.3 6.35 -99.2 6.0 -98.7 6.0 -97.85 5.05 Q-97.25 3.9 -97.45 2.85 L-98.55 2.75 -99.35 3.1 -98.1 2.35 Q-96.25 1.1 -94.0 0.8 L-95.1 1.35 -95.1 2.9 -94.15 3.0 -91.4 2.45 Q-84.15 0.75 -77.1 2.55 L-77.1 1.25 -78.0 0.45 M-102.1 28.9 L-102.75 13.9 -99.9 13.9 -99.45 14.55 -102.4 14.4 -101.8 28.35 -102.1 28.9 M-100.95 5.75 L-100.45 4.8 -100.45 5.8 -100.95 5.75" fill="#cccccc" fill-rule="evenodd" stroke="none"/>
    <path d="M5.85 -8.6 Q7.65 -8.05 9.1 -6.2 L10.65 -3.8 Q12.1 -1.25 11.9 1.8 L11.65 4.35 11.1 5.95 Q5.5 13.45 -3.9 19.3 -13.3 25.2 -20.2 27.75 -43.15 30.25 -57.05 27.9 L-58.95 27.75 -59.8 22.15 -60.45 14.7 -60.35 10.5 -57.05 10.05 -49.85 9.5 -36.8 7.45 Q-30.3 5.9 -24.2 2.6 L-11.6 -4.9 Q-3.45 -9.9 5.85 -8.6 M3.5 -2.45 L3.5 -0.85 4.85 -0.65 4.85 -2.15 3.5 -2.45 M6.55 -5.6 L6.55 -7.85 Q-2.75 -9.2 -10.9 -3.85 -21.45 3.25 -33.15 6.95 -44.85 10.6 -57.05 11.0 L-59.2 11.2 -59.2 13.9 -57.05 13.95 Q-45.8 15.1 -34.85 12.3 L-31.25 11.45 Q-21.9 9.2 -13.75 2.9 -4.65 -4.15 6.3 -4.45 L6.55 -3.25 6.6 -2.15 6.65 -0.7 6.6 0.7 6.95 1.45 8.8 1.65 9.15 1.5 9.6 1.35 9.75 1.25 9.75 1.15 9.75 0.9 9.75 0.55 9.7 -0.75 9.65 -1.3 9.45 -1.9 9.8 -1.9 9.8 -4.9 6.55 -5.6" fill="#c5c351" fill-rule="evenodd" stroke="none"/>
    <path d="M3.5 -2.45 L4.85 -2.15 4.85 -0.65 3.5 -0.85 3.5 -2.45" fill="#e0dfa3" fill-rule="evenodd" stroke="none"/>
    <path d="M6.55 -5.6 L9.8 -4.9 9.8 -1.9 9.45 -1.9 9.65 -1.3 9.7 -0.75 9.75 0.55 9.75 0.9 9.75 1.15 9.75 1.25 9.6 1.35 9.15 1.5 8.8 1.65 6.95 1.45 6.6 0.7 6.65 -0.7 6.6 -2.15 6.55 -3.25 6.3 -4.45 Q-4.65 -4.15 -13.75 2.9 -21.9 9.2 -31.25 11.45 L-34.85 12.3 Q-45.8 15.1 -57.05 13.95 L-59.2 13.9 -59.2 11.2 -57.05 11.0 Q-44.85 10.6 -33.15 6.95 -21.45 3.25 -10.9 -3.85 -2.75 -9.2 6.55 -7.85 L6.55 -5.6" fill="#edeccb" fill-rule="evenodd" stroke="none"/>
    <path d="M-77.75 8.15 Q-76.55 9.6 -76.75 11.5 -76.85 12.7 -77.9 13.35 L-80.1 14.75 Q-83.6 16.7 -87.65 16.65 L-90.25 16.25 Q-95.8 15.25 -99.55 10.9 L-101.15 10.9 -101.1 9.1 -97.45 9.15 -97.45 10.45 -96.45 10.55 -97.05 11.7 -96.75 12.6 -95.7 12.75 -95.85 13.35 -94.55 13.6 -94.55 12.25 -95.3 12.2 -94.5 9.95 -95.2 9.45 -93.9 6.15 Q-89.75 4.85 -85.4 4.9 L-81.1 5.65 Q-78.9 6.25 -77.75 8.15" fill="#797979" fill-rule="evenodd" stroke="none"/>
    <path d="M-80.2 -0.05 L-78.35 0.15 -78.0 0.45 -77.1 1.25 -77.1 2.55 Q-84.15 0.75 -91.4 2.45 L-94.15 3.0 -95.1 2.9 -95.1 1.35 -94.0 0.8 -89.4 -0.2 -80.2 -0.05 M-99.1 33.35 Q-101.5 32.2 -101.95 29.65 L-102.1 28.9 -101.8 28.35 -102.4 14.4 -99.45 14.55 -99.35 14.7 -99.7 16.7 Q-95.55 19.0 -91.1 20.4 -89.4 21.0 -87.5 20.8 -83.95 20.65 -80.7 19.6 L-78.9 19.1 Q-77.7 18.65 -76.4 18.55 -76.35 20.15 -77.8 20.8 L-79.5 21.55 Q-84.5 23.15 -89.95 22.4 -95.3 21.7 -99.55 18.4 L-98.3 33.2 -99.1 33.35 M-100.45 4.8 L-100.45 4.7 -99.55 3.25 -99.35 3.1 -98.55 2.75 -97.45 2.85 Q-97.25 3.9 -97.85 5.05 L-98.7 6.0 -99.2 6.0 -100.45 5.8 -100.45 4.8" fill="#ffffff" fill-rule="evenodd" stroke="none"/>
    <path d="M-80.7 2.8 Q-78.4 4.5 -77.35 6.95 L-76.35 9.55 -77.75 8.15 Q-78.9 6.25 -81.1 5.65 L-85.4 4.9 Q-89.75 4.85 -93.9 6.15 L-95.2 9.45 -94.5 9.95 -95.3 12.2 -94.55 12.25 -94.55 13.6 -95.85 13.35 -95.7 12.75 -96.75 12.6 -97.05 11.7 -96.45 10.55 -97.45 10.45 -97.45 9.15 -101.1 9.1 -100.95 5.75 -100.45 5.8 -99.2 6.0 -97.3 6.35 -97.25 4.95 -94.95 3.95 Q-92.7 3.1 -90.35 2.55 -85.4 1.2 -80.7 2.8" fill="#3b3b3b" fill-rule="evenodd" stroke="none"/>
  </g>
</svg>
