<?xml version="1.0" encoding="UTF-8" standalone="no"?>
<svg xmlns:xlink="http://www.w3.org/1999/xlink" height="68.25px" width="61.3px" xmlns="http://www.w3.org/2000/svg">
  <g transform="matrix(1.0, 0.0, 0.0, 1.0, 30.65, 34.15)">
    <path d="M25.5 -30.65 L28.9 -27.6 Q30.05 -26.05 30.5 -24.35 30.95 -22.6 30.15 -17.1 29.45 -11.6 21.3 -5.75 17.4 -3.0 15.3 -0.35 13.15 2.3 12.15 7.5 11.1 12.5 11.3 22.9 L11.45 33.4 6.45 33.45 Q-4.35 34.1 -21.45 34.05 L-30.65 33.85 -30.55 32.05 Q-30.15 28.4 -29.95 14.25 L-25.0 13.9 -25.05 13.5 -21.15 13.25 Q-20.7 -0.25 -19.3 -4.85 -17.95 -9.35 -15.6 -13.9 -12.95 -18.85 -11.0 -21.45 -9.05 -24.1 -3.95 -28.8 1.25 -33.4 13.8 -34.15 20.4 -34.0 25.5 -30.65 M-18.1 17.75 L-18.1 17.45 -26.05 18.05 -26.4 30.35 -21.45 30.75 -21.4 30.8 Q-13.4 31.05 -5.45 30.75 L7.65 29.8 Q7.5 28.65 7.45 21.8 7.45 14.85 8.05 9.1 8.75 3.25 9.8 0.8 10.7 -1.7 13.1 -4.15 15.45 -6.75 20.35 -10.1 25.15 -13.55 26.45 -20.5 26.85 -22.7 25.95 -24.35 22.75 -28.95 16.0 -30.15 8.1 -31.55 1.35 -26.9 L-3.2 -23.9 Q-7.1 -21.35 -9.55 -17.5 -12.05 -13.75 -13.5 -10.55 -14.85 -7.5 -16.0 -2.85 -17.15 1.8 -17.45 5.05 L-17.65 10.7 -18.0 17.7 -18.1 17.75 M-30.65 34.1 L-30.65 33.95 Q-27.55 34.15 -30.65 34.1" fill="#000000" fill-rule="evenodd" stroke="none"/>
    <path d="M-18.1 17.75 L-19.2 17.85 -24.65 18.05 Q-25.15 20.5 -25.2 23.15 L-25.2 28.65 -23.7 28.8 -23.65 28.75 -22.95 21.0 -14.85 20.5 -14.8 17.5 -14.85 17.45 Q-14.0 4.2 -9.25 -7.4 -1.65 -26.1 13.25 -28.3 L13.3 -28.7 11.85 -29.15 Q-1.75 -28.25 -9.9 -14.05 -16.55 -2.65 -16.85 10.5 L-16.6 17.6 -18.0 17.7 -17.65 10.7 -17.45 5.05 Q-17.15 1.8 -16.0 -2.85 -14.85 -7.5 -13.5 -10.55 -12.05 -13.75 -9.55 -17.5 -7.1 -21.35 -3.2 -23.9 L1.35 -26.9 Q8.1 -31.55 16.0 -30.15 22.75 -28.95 25.95 -24.35 26.85 -22.7 26.45 -20.5 25.15 -13.55 20.35 -10.1 15.45 -6.75 13.1 -4.15 10.7 -1.7 9.8 0.8 8.75 3.25 8.05 9.1 7.45 14.85 7.45 21.8 7.5 28.65 7.65 29.8 L-5.45 30.75 Q-13.4 31.05 -21.4 30.8 L-21.45 30.75 -26.4 30.35 -26.05 18.05 -18.1 17.45 -18.1 17.75" fill="#c5c351" fill-rule="evenodd" stroke="none"/>
    <path d="M-18.0 17.7 L-16.6 17.6 -16.85 10.5 Q-16.55 -2.65 -9.9 -14.05 -1.75 -28.25 11.85 -29.15 L13.3 -28.7 13.25 -28.3 Q-1.65 -26.1 -9.25 -7.4 -14.0 4.2 -14.85 17.45 L-14.8 17.5 -14.85 20.5 -22.95 21.0 -23.65 28.75 -23.7 28.8 -25.2 28.65 -25.2 23.15 Q-25.15 20.5 -24.65 18.05 L-19.2 17.85 -18.1 17.75 -18.0 17.7" fill="#737115" fill-rule="evenodd" stroke="none"/>
  </g>
</svg>
