<?xml version="1.0" encoding="UTF-8" standalone="no"?>
<svg xmlns:xlink="http://www.w3.org/1999/xlink" height="21.8px" width="46.2px" xmlns="http://www.w3.org/2000/svg">
  <g transform="matrix(1.0, 0.0, 0.0, 1.0, 23.1, 10.9)">
    <path d="M-9.55 -10.65 Q-9.2 -6.8 -7.8 -3.15 L-5.25 2.4 Q-3.75 5.25 -0.85 6.45 1.15 7.3 3.3 7.4 L10.05 7.15 Q12.2 6.65 13.2 5.8 14.15 4.9 14.45 4.95 L16.15 3.2 18.1 -0.05 19.05 -2.25 19.8 -5.1 Q20.15 -7.2 20.0 -10.65 L20.0 -10.9 22.95 -10.9 Q23.4 -6.25 22.4 -2.65 21.4 0.95 20.1 2.9 18.75 4.8 17.1 6.2 15.5 7.55 12.9 8.8 10.3 10.05 7.15 10.4 -1.55 11.3 -10.35 10.55 L-11.25 10.15 Q-11.7 9.85 -12.1 9.6 -16.65 6.05 -19.55 1.0 -21.85 -2.95 -22.6 -7.3 L-23.1 -10.9 -9.6 -10.9 -9.55 -10.65 M-4.9 8.6 Q-3.85 9.2 -2.75 9.15 L-2.75 8.1 -3.0 7.85 Q-6.85 5.75 -8.8 0.6 -10.5 -5.6 -11.8 -8.6 L-12.8 -8.7 -12.8 -8.6 -13.25 -8.7 -17.7 -8.8 -17.7 -8.5 -19.6 -8.55 -18.7 -4.6 Q-17.95 -1.8 -15.95 1.15 -13.95 4.05 -11.65 6.45 -9.55 8.55 -4.9 8.6" fill="#000000" fill-rule="evenodd" stroke="none"/>
    <path d="M20.0 -10.65 Q20.15 -7.2 19.8 -5.1 L19.05 -2.25 18.1 -0.05 16.15 3.2 14.45 4.95 Q14.15 4.9 13.2 5.8 12.2 6.65 10.05 7.15 L3.3 7.4 Q1.15 7.3 -0.85 6.45 -3.75 5.25 -5.25 2.4 L-7.8 -3.15 Q-9.2 -6.8 -9.55 -10.65 L-1.25 -10.65 8.0 -10.65 17.75 -10.65 20.0 -10.65" fill="#570d03" fill-rule="evenodd" stroke="none"/>
    <path d="M-17.7 -8.5 L-17.7 -8.8 -13.25 -8.7 -12.8 -8.6 -12.8 -8.7 -11.8 -8.6 Q-10.5 -5.6 -8.8 0.6 -6.85 5.75 -3.0 7.85 L-2.75 8.1 -2.75 9.15 Q-3.85 9.2 -4.9 8.6 -6.25 7.9 -7.55 6.15 -9.45 3.65 -10.0 1.3 L-11.5 -3.0 -12.8 -7.65 -17.7 -7.55 -17.7 -8.5" fill="#ff797c" fill-rule="evenodd" stroke="none"/>
    <path d="M-4.9 8.6 Q-9.55 8.55 -11.65 6.45 -13.95 4.05 -15.95 1.15 -17.95 -1.8 -18.7 -4.6 L-19.6 -8.55 -17.7 -8.5 -17.7 -7.55 -12.8 -7.65 -11.5 -3.0 -10.0 1.3 Q-9.45 3.65 -7.55 6.15 -6.25 7.9 -4.9 8.6" fill="#c2042c" fill-rule="evenodd" stroke="none"/>
  </g>
</svg>
