<?xml version="1.0" encoding="UTF-8" standalone="no"?>
<svg xmlns:xlink="http://www.w3.org/1999/xlink" height="117.6px" width="150.95px" xmlns="http://www.w3.org/2000/svg">
  <g transform="matrix(1.0, 0.0, 0.0, 1.0, 67.9, 53.75)">
    <path d="M35.35 -49.0 L35.35 -49.6 Q34.1 -50.25 34.1 -50.45 L32.65 -50.5 31.35 -49.15 25.4 -44.15 33.0 -41.85 30.75 -40.75 Q21.85 -42.0 12.8 -39.45 L6.0 -37.4 6.0 -39.1 7.8 -40.4 3.1 -45.5 -0.2 -43.45 -2.4 -41.95 -2.85 -42.0 -3.35 -41.3 -3.7 -41.05 Q-4.4 -40.55 -4.65 -39.65 L-5.55 -33.95 -3.7 -35.2 -2.9 -35.2 -2.85 -35.7 -1.85 -36.4 -0.2 -35.8 Q-5.8 -29.35 -11.85 -24.4 -17.9 -19.45 -22.7 -16.35 -27.5 -13.3 -30.6 -7.8 -31.05 -5.2 -25.3 -5.4 L-24.9 -2.3 Q-36.3 1.85 -43.35 6.05 -44.6 6.85 -45.5 8.2 -47.6 11.1 -49.0 14.45 -49.6 15.75 -50.8 16.55 L-58.7 21.55 Q-61.0 23.0 -63.3 24.6 -63.3 27.75 -62.95 30.8 -62.6 34.0 -61.05 37.05 -59.95 39.25 -59.1 41.55 L-58.3 41.05 -55.6 38.8 Q-50.55 35.1 -45.7 35.1 L-45.1 35.1 -43.25 34.25 -41.85 34.45 Q-40.4 34.65 -40.15 34.9 L-36.75 35.15 -33.35 35.7 -28.7 36.7 -25.1 37.35 Q-19.55 37.35 -10.05 32.35 -5.15 29.75 0.05 26.45 11.35 20.2 15.5 18.7 24.3 15.4 32.6 16.75 L33.45 17.1 39.85 16.6 39.95 16.6 42.25 15.6 43.3 14.6 43.95 13.75 41.65 10.3 40.05 7.8 38.1 6.1 Q37.2 6.35 36.7 5.6 35.15 6.55 34.0 6.5 L31.75 7.7 Q31.85 4.0 36.5 1.1 40.5 -0.45 44.8 1.1 46.75 1.85 47.5 3.8 L47.85 4.55 48.85 6.25 48.85 6.85 Q47.2 5.6 44.75 7.25 L45.1 7.8 45.9 9.5 Q46.4 11.0 46.4 12.5 L46.35 15.0 46.4 15.9 Q46.4 16.6 45.8 17.4 45.05 18.4 43.5 19.2 L43.3 19.2 41.1 20.05 39.85 19.95 38.55 20.15 34.95 19.65 28.45 20.25 25.35 20.5 21.85 21.1 Q16.8 22.0 9.0 25.8 L8.2 26.25 2.85 29.05 -2.2 31.95 -12.65 38.15 Q-17.5 40.85 -19.35 40.85 L-20.95 40.85 -21.0 40.85 -21.3 40.8 -23.85 40.7 -26.75 40.25 Q-28.3 40.65 -31.85 39.35 -34.7 38.3 -37.0 37.95 -45.15 39.15 -49.75 41.25 -52.5 42.45 -57.25 45.0 L-58.15 44.95 -58.15 45.75 Q-58.45 48.75 -59.1 51.7 -60.0 55.6 -61.4 59.4 L-59.45 60.25 -12.6 49.0 Q0.8 45.9 14.35 43.15 L28.8 41.1 Q35.25 40.45 41.4 41.8 L44.6 42.8 Q53.4 37.95 59.9 31.95 L63.1 29.05 69.7 23.25 73.6 19.85 Q74.25 19.1 74.4 17.55 L71.95 10.15 74.45 9.1 75.85 11.5 80.6 6.85 79.6 5.05 79.6 3.5 Q78.9 3.0 78.6 1.75 78.2 0.35 77.1 -0.65 L76.3 -0.8 76.15 -1.15 74.7 -1.3 71.75 -1.3 72.8 6.05 69.65 6.15 68.75 2.45 Q65.9 -6.65 65.35 -9.15 64.8 -11.65 62.9 -17.05 L66.0 -16.85 67.8 -14.2 73.6 -21.65 72.15 -30.65 67.15 -31.1 64.8 -31.55 64.8 -31.45 64.25 -31.5 62.85 -30.5 60.9 -28.65 62.8 -24.9 61.3 -24.35 60.1 -25.75 Q54.15 -32.35 49.55 -34.7 44.95 -37.05 39.45 -38.85 L40.0 -39.95 47.1 -38.35 45.0 -44.7 40.85 -46.55 40.85 -48.05 39.2 -48.15 39.2 -47.3 37.4 -48.1 37.2 -49.0 36.2 -49.1 35.75 -48.8 35.35 -49.0 M9.65 -44.15 L11.5 -43.0 23.5 -44.45 30.3 -53.75 45.55 -47.75 49.9 -37.8 54.45 -36.85 60.0 -31.0 63.1 -34.15 74.5 -33.15 76.25 -19.95 69.3 -10.85 71.3 -3.9 78.55 -4.05 83.05 6.65 77.5 14.55 Q78.65 17.45 77.25 20.15 76.3 22.0 74.65 23.55 64.8 32.2 56.75 39.6 L52.6 43.6 52.55 43.65 52.6 43.65 49.5 46.85 44.15 46.55 36.7 44.75 32.85 44.5 22.1 45.7 Q-12.55 51.65 -46.55 61.3 L-50.9 62.55 -53.25 63.25 -54.45 63.55 -58.1 63.85 -60.55 63.75 -60.55 63.1 -65.7 62.3 Q-64.25 54.45 -61.95 46.95 -61.8 46.35 -61.95 45.7 -62.7 42.6 -64.6 39.7 -66.15 37.2 -67.1 34.05 -68.1 30.95 -67.85 27.4 -67.65 23.9 -66.25 22.45 L-64.35 20.45 -61.85 18.5 -56.7 14.75 -53.4 12.35 Q-52.3 11.5 -51.8 10.3 -50.3 6.4 -47.25 3.5 -44.4 0.85 -40.85 -1.0 L-33.75 -4.5 Q-34.95 -6.55 -33.45 -10.15 -31.9 -13.8 -24.15 -18.7 -16.45 -23.6 -7.5 -31.95 L-7.9 -41.35 4.75 -49.3 Q6.6 -46.15 9.65 -44.15 M77.2 -0.7 Q78.65 0.9 77.95 0.0 L77.2 -0.7" fill="#000000" fill-rule="evenodd" stroke="none"/>
    <path d="M63.1 29.05 L59.9 31.95 Q53.4 37.95 44.6 42.8 L41.4 41.8 Q35.25 40.45 28.8 41.1 L14.35 43.15 Q0.8 45.9 -12.6 49.0 L-59.45 60.25 -61.4 59.4 Q-60.0 55.6 -59.1 51.7 -58.45 48.75 -58.15 45.75 L-58.15 44.95 -57.25 45.0 Q-52.5 42.45 -49.75 41.25 -45.15 39.15 -37.0 37.95 -34.7 38.3 -31.85 39.35 -28.3 40.65 -26.75 40.25 L-23.85 40.7 -21.3 40.8 -21.0 40.85 -20.95 40.85 -19.35 40.85 Q-17.5 40.85 -12.65 38.15 L-2.2 31.95 2.85 29.05 8.2 26.25 9.0 25.8 Q16.8 22.0 21.85 21.1 L25.35 20.5 28.45 20.25 34.95 19.65 38.55 20.15 39.85 19.95 41.1 20.05 43.3 19.2 43.5 19.2 Q45.05 18.4 45.8 17.4 46.4 16.6 46.4 15.9 L46.35 15.0 46.4 12.5 Q46.4 11.0 45.9 9.5 L45.1 7.8 44.75 7.25 Q47.2 5.6 48.85 6.85 L48.85 6.25 47.85 4.55 Q52.75 7.0 57.45 10.25 L59.85 12.05 Q62.2 14.0 63.4 17.4 63.95 19.0 64.1 21.1 64.2 23.75 63.7 26.05 L63.4 27.65 63.3 28.1 63.1 29.05 M48.85 7.7 L47.45 9.3 47.45 9.75 48.05 10.4 48.25 11.85 Q49.1 17.85 44.3 21.65 L36.6 22.4 Q34.75 23.95 31.8 25.55 L30.55 26.0 29.75 25.6 31.0 23.15 25.5 24.0 25.3 26.3 24.55 26.7 23.65 26.15 24.0 22.75 20.95 22.85 Q19.05 23.4 17.75 24.75 L18.4 30.35 16.55 31.4 16.25 28.1 Q12.7 26.8 9.3 28.0 L8.5 34.0 8.1 34.25 7.9 30.15 7.15 30.35 Q5.45 30.85 4.65 32.2 3.75 33.7 4.0 35.45 L2.5 35.5 2.5 32.35 2.5 30.95 0.5 32.3 Q-3.2 34.75 -2.95 39.55 -4.5 40.4 -6.2 40.3 -8.4 39.85 -8.2 37.45 L-9.25 37.45 Q-10.85 37.8 -11.9 39.2 L-12.4 41.9 -12.85 42.2 -13.15 40.05 -18.35 42.1 -19.35 45.0 -19.75 41.8 -26.95 41.5 -27.8 44.35 -28.2 44.55 -28.4 42.1 -34.6 45.0 -35.4 47.45 -36.1 43.6 -37.45 43.55 Q-40.15 43.6 -42.2 45.3 L-42.35 47.9 -43.55 48.25 -44.1 47.7 -44.05 46.2 -49.0 47.85 -50.1 47.45 -51.5 49.1 -51.95 46.55 -53.1 46.8 Q-58.7 50.7 -58.5 56.75 -56.05 57.35 -36.55 52.8 L5.2 42.45 Q27.5 36.75 38.65 37.95 49.75 39.15 55.1 32.45 59.2 28.45 60.05 24.05 L58.95 19.65 58.0 18.5 58.0 17.35 58.8 16.6 60.45 18.4 61.15 18.25 Q57.1 10.7 48.85 7.7" fill="#f5ec7d" fill-rule="evenodd" stroke="none"/>
    <path d="M35.35 -49.0 L35.75 -48.8 35.4 -48.15 35.5 -47.45 37.35 -47.45 37.4 -47.75 37.4 -48.1 39.2 -47.3 39.2 -46.6 40.85 -46.5 40.85 -46.55 45.0 -44.7 47.1 -38.35 40.0 -39.95 39.45 -38.85 Q44.95 -37.05 49.55 -34.7 54.15 -32.35 60.1 -25.75 L61.3 -24.35 62.8 -24.9 60.9 -28.65 62.85 -30.5 64.25 -31.5 64.8 -31.45 62.55 -28.05 62.7 -27.45 64.2 -27.45 65.05 -28.45 65.45 -29.3 Q67.8 -28.5 72.15 -28.4 L72.15 -29.9 70.9 -30.1 Q68.75 -30.2 67.75 -30.8 L67.15 -31.1 72.15 -30.65 73.6 -21.65 67.8 -14.2 66.0 -16.85 62.9 -17.05 Q64.8 -11.65 65.35 -9.15 65.9 -6.65 68.75 2.45 L69.65 6.15 72.8 6.05 71.75 -1.3 74.7 -1.3 76.15 -1.15 76.3 -0.8 76.1 -0.85 72.8 -1.0 72.8 0.2 Q74.6 0.45 76.05 1.95 77.35 3.35 77.95 5.35 L79.6 5.35 79.6 5.05 80.6 6.85 75.85 11.5 74.45 9.1 71.95 10.15 74.4 17.55 Q74.25 19.1 73.6 19.85 L69.7 23.25 63.1 29.05 63.3 28.1 63.4 27.65 63.7 26.05 Q64.2 23.75 64.1 21.1 63.95 19.0 63.4 17.4 62.2 14.0 59.85 12.05 L57.45 10.25 Q52.75 7.0 47.85 4.55 L47.5 3.8 Q46.75 1.85 44.8 1.1 40.5 -0.45 36.5 1.1 31.85 4.0 31.75 7.7 L34.0 6.5 Q35.15 6.55 36.7 5.6 37.2 6.35 38.1 6.1 L40.05 7.8 41.65 10.3 43.95 13.75 43.3 14.6 42.25 15.6 39.95 16.6 39.85 16.6 33.45 17.1 32.6 16.75 Q24.3 15.4 15.5 18.7 11.35 20.2 0.05 26.45 -5.15 29.75 -10.05 32.35 -19.55 37.35 -25.1 37.35 L-28.7 36.7 -33.35 35.7 -36.75 35.15 -40.15 34.9 Q-40.4 34.65 -41.85 34.45 L-43.25 34.25 -45.1 35.1 -45.7 35.1 Q-50.55 35.1 -55.6 38.8 L-58.3 41.05 -59.1 41.55 Q-59.95 39.25 -61.05 37.05 -62.6 34.0 -62.95 30.8 -63.3 27.75 -63.3 24.6 -61.0 23.0 -58.7 21.55 L-50.8 16.55 Q-49.6 15.75 -49.0 14.45 -47.6 11.1 -45.5 8.2 -44.6 6.85 -43.35 6.05 -36.3 1.85 -24.9 -2.3 L-25.3 -5.4 Q-31.05 -5.2 -30.6 -7.8 -27.5 -13.3 -22.7 -16.35 -17.9 -19.45 -11.85 -24.4 -5.8 -29.35 -0.2 -35.8 L-1.85 -36.4 -2.85 -35.7 -2.45 -38.9 -1.6 -40.0 Q-0.8 -40.75 -0.8 -41.85 L-2.4 -41.95 -0.2 -43.45 3.1 -45.5 7.8 -40.4 6.0 -39.1 6.0 -37.4 12.8 -39.45 Q21.85 -42.0 30.75 -40.75 L33.0 -41.85 25.4 -44.15 31.35 -49.15 30.1 -47.6 Q28.45 -45.35 28.65 -44.35 L29.9 -44.25 33.3 -48.05 35.35 -48.4 35.35 -49.0 M-3.7 -35.2 L-5.55 -33.95 -4.65 -39.65 Q-4.4 -40.55 -3.7 -41.05 L-3.35 -41.3 -3.95 -39.8 Q-4.5 -38.1 -4.5 -37.05 L-4.35 -35.2 -3.7 -35.2 M-0.2 -43.45 L-0.6 -41.85 1.05 -41.8 1.45 -42.4 1.25 -43.3 -0.2 -43.45 M3.55 -44.35 L2.5 -44.45 Q2.25 -44.25 2.25 -43.0 L3.7 -42.9 3.7 -43.75 3.55 -44.35 M79.15 5.55 L77.5 5.4 77.5 7.3 79.6 7.3 79.6 7.05 Q79.6 5.95 79.15 5.55 M72.45 -27.75 L71.0 -27.85 71.0 -26.55 72.45 -26.55 72.45 -27.75 M0.5 -15.2 L4.75 -17.85 Q8.6 -20.3 17.35 -22.2 L21.4 -22.85 23.75 -23.25 Q26.45 -23.25 29.8 -22.25 L32.8 -21.25 32.8 -21.6 27.65 -23.45 20.3 -24.55 20.1 -24.35 Q16.0 -24.05 11.85 -22.95 8.7 -22.1 4.35 -20.35 -2.35 -17.7 -6.0 -15.9 L-6.0 -13.75 -3.3 -13.65 Q-2.25 -13.65 0.5 -15.2 M7.65 -27.35 L9.3 -27.65 10.85 -26.75 Q11.85 -26.2 11.85 -25.6 L11.8 -24.55 11.65 -24.05 12.25 -24.05 12.8 -24.45 13.0 -26.8 Q13.0 -27.25 12.2 -27.75 L10.55 -28.65 6.4 -29.0 6.0 -27.45 7.65 -27.35 M1.05 -24.9 L1.05 -24.95 2.05 -25.15 2.05 -26.1 1.3 -26.2 Q1.0 -26.2 1.0 -25.55 L1.05 -24.9 M-46.85 23.95 L-47.85 23.8 -47.85 24.8 -46.85 24.85 -46.85 23.95 M-51.5 22.3 L-51.5 23.8 -49.85 23.95 -49.65 23.6 -49.45 23.4 -49.45 22.75 -49.85 22.35 -51.5 22.3 M-56.65 22.7 L-57.9 22.95 Q-57.9 23.55 -58.75 24.35 -59.55 25.15 -59.55 25.6 L-59.4 26.85 -58.4 26.9 -57.55 25.75 -56.65 24.35 -54.95 23.95 -53.0 23.6 -53.0 21.9 -56.1 21.75 -56.35 22.25 -56.65 22.7 M-14.65 7.5 Q-14.6 9.85 -16.15 11.7 -17.0 12.75 -19.6 14.7 L-18.4 14.85 -17.7 14.9 Q-15.9 14.35 -14.75 12.5 -13.8 10.9 -13.8 9.6 L-14.05 8.7 Q-14.25 7.95 -14.65 7.5 M-17.1 -2.7 L-16.65 -3.3 Q-22.65 -2.95 -28.6 -0.15 -31.8 1.35 -36.75 4.1 -38.7 5.0 -40.85 6.2 L-44.35 8.3 Q-44.95 8.6 -44.9 9.8 L-44.8 11.4 -45.4 12.85 Q-46.0 14.0 -46.0 14.3 L-45.0 14.3 Q-45.35 11.8 -41.4 9.3 L-34.2 5.6 -26.35 1.65 Q-22.0 -0.5 -17.55 -1.9 L-17.1 -2.7 M-20.45 -13.4 L-23.9 -13.55 Q-24.7 -12.7 -24.7 -11.7 L-24.4 -10.45 -23.9 -9.5 -20.6 -9.4 -20.05 -10.1 Q-19.55 -10.65 -19.55 -11.3 -19.55 -11.9 -19.9 -12.5 L-20.45 -13.4 M-2.7 -25.5 L-4.25 -25.85 -6.35 -26.1 -6.75 -24.55 -2.45 -24.25 -2.45 -24.35 Q-2.45 -25.1 -2.7 -25.5" fill="#007b25" fill-rule="evenodd" stroke="none"/>
    <path d="M48.85 7.7 Q57.1 10.7 61.15 18.25 L60.45 18.4 58.8 16.6 58.0 17.35 58.0 18.5 58.95 19.65 60.05 24.05 Q59.2 28.45 55.1 32.45 49.75 39.15 38.65 37.95 27.5 36.75 5.2 42.45 L-36.55 52.8 Q-56.05 57.35 -58.5 56.75 -58.7 50.7 -53.1 46.8 L-51.95 46.55 -51.5 49.1 -50.1 47.45 -49.0 47.85 -44.05 46.2 -44.1 47.7 -43.55 48.25 -42.35 47.9 -42.2 45.3 Q-40.15 43.6 -37.45 43.55 L-36.1 43.6 -35.4 47.45 -34.6 45.0 -28.4 42.1 -28.2 44.55 -27.8 44.35 -26.95 41.5 -19.75 41.8 -19.35 45.0 -18.35 42.1 -13.15 40.05 -12.85 42.2 -12.4 41.9 -11.9 39.2 Q-10.85 37.8 -9.25 37.45 L-8.2 37.45 Q-8.4 39.85 -6.2 40.3 -4.5 40.4 -2.95 39.55 -3.2 34.75 0.5 32.3 L2.5 30.95 2.5 32.35 2.5 35.5 4.0 35.45 Q3.75 33.7 4.65 32.2 5.45 30.85 7.15 30.35 L7.9 30.15 8.1 34.25 8.5 34.0 9.3 28.0 Q12.7 26.8 16.25 28.1 L16.55 31.4 18.4 30.35 17.75 24.75 Q19.05 23.4 20.95 22.85 L24.0 22.75 23.65 26.15 24.55 26.7 25.3 26.3 25.5 24.0 31.0 23.15 29.75 25.6 30.55 26.0 31.8 25.55 Q34.75 23.95 36.6 22.4 L44.3 21.65 Q49.1 17.85 48.25 11.85 L48.05 10.4 47.45 9.75 47.45 9.3 48.85 7.7" fill="#b6b445" fill-rule="evenodd" stroke="none"/>
    <path d="M31.35 -49.15 L32.65 -50.5 34.1 -50.45 Q34.1 -50.25 35.35 -49.6 L35.35 -49.0 35.35 -48.4 33.3 -48.05 29.9 -44.25 28.65 -44.35 Q28.45 -45.35 30.1 -47.6 L31.35 -49.15 M35.75 -48.8 L36.2 -49.1 37.2 -49.0 37.4 -48.1 37.4 -47.75 37.35 -47.45 35.5 -47.45 35.4 -48.15 35.75 -48.8 M39.2 -47.3 L39.2 -48.15 40.85 -48.05 40.85 -46.55 40.85 -46.5 39.2 -46.6 39.2 -47.3 M64.8 -31.45 L64.8 -31.55 67.15 -31.1 67.75 -30.8 Q68.75 -30.2 70.9 -30.1 L72.15 -29.9 72.15 -28.4 Q67.8 -28.5 65.45 -29.3 L65.05 -28.45 64.2 -27.45 62.7 -27.45 62.55 -28.05 64.8 -31.45 M76.3 -0.8 L77.1 -0.65 Q78.2 0.35 78.6 1.75 78.9 3.0 79.6 3.5 L79.6 5.05 79.6 5.35 77.95 5.35 Q77.35 3.35 76.05 1.95 74.6 0.45 72.8 0.2 L72.8 -1.0 76.1 -0.85 76.3 -0.8 M-2.85 -35.7 L-2.9 -35.2 -3.7 -35.2 -4.35 -35.2 -4.5 -37.05 Q-4.5 -38.1 -3.95 -39.8 L-3.35 -41.3 -2.85 -42.0 -2.4 -41.95 -0.8 -41.85 Q-0.8 -40.75 -1.6 -40.0 L-2.45 -38.9 -2.85 -35.7 M3.55 -44.35 L3.7 -43.75 3.7 -42.9 2.25 -43.0 Q2.25 -44.25 2.5 -44.45 L3.55 -44.35 M-0.2 -43.45 L1.25 -43.3 1.45 -42.4 1.05 -41.8 -0.6 -41.85 -0.2 -43.45 M1.05 -24.9 L1.0 -25.55 Q1.0 -26.2 1.3 -26.2 L2.05 -26.1 2.05 -25.15 1.05 -24.95 1.05 -24.9 M7.65 -27.35 L6.0 -27.45 6.4 -29.0 10.55 -28.65 12.2 -27.75 Q13.0 -27.25 13.0 -26.8 L12.8 -24.45 12.25 -24.05 11.65 -24.05 11.8 -24.55 11.85 -25.6 Q11.85 -26.2 10.85 -26.75 L9.3 -27.65 7.65 -27.35 M0.5 -15.2 Q-2.25 -13.65 -3.3 -13.65 L-6.0 -13.75 -6.0 -15.9 Q-2.35 -17.7 4.35 -20.35 8.7 -22.1 11.85 -22.95 16.0 -24.05 20.1 -24.35 L20.3 -24.55 27.65 -23.45 32.8 -21.6 32.8 -21.25 29.8 -22.25 Q26.45 -23.25 23.75 -23.25 L21.4 -22.85 17.35 -22.2 Q8.6 -20.3 4.75 -17.85 L0.5 -15.2 M72.45 -27.75 L72.45 -26.55 71.0 -26.55 71.0 -27.85 72.45 -27.75 M79.15 5.55 Q79.6 5.95 79.6 7.05 L79.6 7.3 77.5 7.3 77.5 5.4 79.15 5.55 M-2.7 -25.5 Q-2.45 -25.1 -2.45 -24.35 L-2.45 -24.25 -6.75 -24.55 -6.35 -26.1 -4.25 -25.85 -2.7 -25.5 M-20.45 -13.4 L-19.9 -12.5 Q-19.55 -11.9 -19.55 -11.3 -19.55 -10.65 -20.05 -10.1 L-20.6 -9.4 -23.9 -9.5 -24.4 -10.45 -24.7 -11.7 Q-24.7 -12.7 -23.9 -13.55 L-20.45 -13.4 M-17.1 -2.7 L-17.55 -1.9 Q-22.0 -0.5 -26.35 1.65 L-34.2 5.6 -41.4 9.3 Q-45.35 11.8 -45.0 14.3 L-46.0 14.3 Q-46.0 14.0 -45.4 12.85 L-44.8 11.4 -44.9 9.8 Q-44.95 8.6 -44.35 8.3 L-40.85 6.2 Q-38.7 5.0 -36.75 4.1 -31.8 1.35 -28.6 -0.15 -22.65 -2.95 -16.65 -3.3 L-17.1 -2.7 M-14.65 7.5 Q-14.25 7.95 -14.05 8.7 L-13.8 9.6 Q-13.8 10.9 -14.75 12.5 -15.9 14.35 -17.7 14.9 L-18.4 14.85 -19.6 14.7 Q-17.0 12.75 -16.15 11.7 -14.6 9.85 -14.65 7.5 M-56.65 22.7 L-56.35 22.25 -56.1 21.75 -53.0 21.9 -53.0 23.6 -54.95 23.95 -56.65 24.35 -57.55 25.75 -58.4 26.9 -59.4 26.85 -59.55 25.6 Q-59.55 25.15 -58.75 24.35 -57.9 23.55 -57.9 22.95 L-56.65 22.7 M-51.5 22.3 L-49.85 22.35 -49.45 22.75 -49.45 23.4 -49.65 23.6 -49.85 23.95 -51.5 23.8 -51.5 22.3 M-46.85 23.95 L-46.85 24.85 -47.85 24.8 -47.85 23.8 -46.85 23.95" fill="#74d87e" fill-rule="evenodd" stroke="none"/>
    <path d="M22.05 -28.05 L17.35 -27.2 16.95 -27.15 Q17.4 -29.65 15.7 -30.1 L14.05 -30.4 Q11.95 -30.8 10.45 -31.5 L9.9 -32.05 9.65 -32.55 Q9.3 -34.3 11.1 -34.7 L12.0 -34.9 16.1 -35.45 Q17.65 -35.45 17.55 -33.75 L17.75 -33.35 Q18.95 -33.15 19.0 -34.55 L19.8 -34.75 24.35 -35.15 Q26.95 -35.3 28.1 -34.2 28.7 -33.6 28.85 -32.5 29.1 -30.35 27.25 -29.65 L24.3 -28.5 23.7 -28.3 22.05 -28.05 M37.55 -36.9 L41.65 -36.85 42.1 -36.7 45.75 -35.25 Q48.15 -34.3 48.8 -32.0 L48.6 -31.25 47.7 -30.15 Q46.85 -28.95 44.95 -28.85 43.2 -28.7 41.7 -29.35 L38.75 -30.45 Q37.1 -31.1 35.8 -32.0 35.0 -32.6 33.85 -32.65 33.4 -33.95 33.3 -35.0 L33.15 -35.8 Q33.1 -36.3 33.85 -36.45 L35.9 -36.75 37.55 -36.9 M32.2 -29.45 L36.3 -29.85 Q37.1 -29.85 37.6 -29.3 37.95 -29.0 38.4 -28.9 39.25 -28.65 39.35 -27.55 L39.4 -26.75 39.35 -26.3 39.0 -25.25 38.75 -25.0 35.9 -24.7 35.05 -24.6 Q32.7 -24.3 31.5 -26.4 L30.9 -27.55 30.7 -28.4 Q30.65 -29.3 31.75 -29.35 L32.2 -29.45 M6.2 -27.75 L6.6 -27.75 10.35 -27.4 10.75 -27.2 Q11.7 -26.45 11.5 -24.7 11.4 -23.6 10.7 -23.05 L8.7 -21.4 6.8 -20.9 3.7 -20.35 Q2.35 -20.1 1.2 -20.8 L0.45 -20.9 Q-0.65 -20.9 -1.2 -21.4 -0.65 -22.45 0.75 -23.6 L1.8 -24.55 4.85 -27.25 Q5.4 -27.75 6.2 -27.75 M10.8 -19.3 Q12.0 -20.2 13.65 -20.3 L15.75 -20.8 16.45 -21.05 17.4 -21.3 Q21.25 -22.35 25.6 -22.4 L26.05 -22.45 27.75 -22.35 Q28.05 -22.2 28.45 -22.15 30.55 -21.85 32.25 -21.15 L35.05 -19.75 40.05 -16.05 Q42.85 -13.5 43.7 -10.25 L43.2 -9.95 43.95 -9.85 45.25 -9.65 46.25 -8.95 46.7 -8.2 46.7 -4.75 44.4 -4.9 44.0 -5.6 Q40.45 -6.55 39.9 -7.05 39.6 -7.3 39.6 -8.65 39.6 -9.25 39.85 -9.65 L40.1 -10.15 42.45 -10.05 41.85 -10.45 41.25 -10.75 39.6 -10.9 34.25 -11.0 Q33.55 -10.95 33.2 -10.35 L32.65 -9.75 Q31.3 -8.55 30.1 -7.8 L33.85 -8.25 37.55 -7.8 Q38.75 -7.15 39.7 -5.35 L39.95 -4.85 41.25 -3.25 Q39.85 -2.6 37.55 -2.75 L34.7 -2.65 34.2 -2.5 Q32.65 -1.75 32.2 0.05 L31.65 1.65 31.3 1.95 28.45 1.85 Q27.1 1.6 27.05 2.95 L26.8 3.35 Q24.3 5.45 22.15 7.75 L19.75 9.85 14.05 13.25 11.6 14.15 11.1 14.3 10.75 14.3 8.7 14.55 Q8.15 14.6 7.8 14.95 L6.2 14.75 4.95 14.65 2.85 14.2 Q0.9 13.35 -1.2 12.85 -2.35 12.55 -3.0 11.7 L-3.7 11.15 -4.95 10.5 -5.7 10.25 -6.05 9.9 Q-6.65 8.65 -7.4 9.55 -7.95 10.25 -9.45 10.05 L-11.6 10.1 Q-12.3 6.1 -12.35 2.1 L-12.65 -1.6 Q-12.85 -3.1 -11.65 -4.2 L-11.0 -4.75 -7.85 -7.0 Q-6.6 -7.8 -5.95 -8.9 L-5.35 -9.45 Q0.45 -13.65 5.9 -16.7 L6.6 -16.95 Q8.6 -17.8 9.65 -18.7 L10.3 -19.05 Q10.55 -19.1 10.8 -19.3 M45.9 -26.7 L46.25 -27.05 Q47.9 -27.75 49.9 -27.55 52.15 -27.3 53.35 -25.6 L53.85 -24.95 54.5 -23.9 54.7 -23.45 Q54.75 -22.3 55.15 -21.35 55.5 -20.4 54.95 -19.65 L54.4 -18.9 Q53.45 -17.2 51.55 -16.0 51.35 -16.25 51.15 -16.0 L51.1 -16.0 Q48.6 -15.75 47.2 -17.05 L46.9 -17.65 46.05 -20.1 45.9 -20.6 Q44.85 -23.25 45.65 -25.95 L45.9 -26.7 M48.55 -9.9 L46.5 -9.9 46.1 -10.3 46.05 -11.15 Q46.05 -12.1 46.2 -12.3 L48.25 -12.2 48.7 -11.7 48.85 -10.7 48.85 -10.05 48.55 -9.9 M47.65 -7.85 L50.95 -8.2 52.15 -1.55 52.85 -2.15 53.15 -2.45 Q53.8 -3.55 53.7 -4.75 55.6 -5.0 56.15 -3.35 57.55 0.7 55.15 4.4 L52.25 4.4 52.2 3.5 51.2 3.35 50.05 2.5 49.3 -0.15 50.8 -0.85 47.7 -2.0 47.65 -7.85 M-22.15 -8.35 L-21.4 -8.25 Q-19.35 -8.6 -17.3 -9.45 -14.1 -10.8 -10.75 -11.6 -9.95 -11.8 -9.65 -12.1 L-9.1 -12.45 -7.4 -13.15 Q-9.1 -10.7 -12.4 -8.25 -13.1 -7.75 -13.3 -7.0 L-13.55 -6.55 -14.8 -5.3 -15.15 -4.95 -16.85 -4.35 -17.3 -4.15 Q-18.45 -3.55 -20.15 -3.8 -20.8 -3.85 -21.3 -4.2 -23.2 -5.25 -24.7 -5.7 -25.95 -6.15 -25.65 -7.8 L-25.55 -9.4 Q-24.95 -8.75 -23.9 -8.6 L-22.15 -8.35 M-3.1 -21.05 L-3.45 -20.65 -3.6 -20.3 -4.05 -19.75 -4.65 -19.05 Q-5.35 -18.7 -6.15 -18.7 L-6.6 -18.65 -8.3 -18.75 -9.0 -19.05 -10.5 -19.95 Q-10.7 -20.15 -10.5 -20.45 -9.85 -21.85 -8.25 -23.05 -6.7 -24.2 -4.45 -24.45 L-3.7 -24.2 Q-2.85 -23.65 -2.7 -22.2 -2.6 -21.35 -3.1 -21.05 M-16.9 -0.5 Q-15.45 -0.75 -15.55 0.45 -15.65 1.4 -16.2 1.95 L-16.6 2.25 -17.7 2.45 Q-20.35 2.9 -19.65 0.1 L-19.3 -0.2 -16.9 -0.5 M-17.4 5.6 L-16.85 6.2 Q-16.45 6.65 -16.4 7.45 L-16.05 9.0 Q-16.2 10.6 -16.75 12.05 L-17.0 12.8 -17.3 13.2 Q-18.1 13.85 -19.75 13.75 L-22.2 13.5 -22.5 13.2 Q-23.2 11.15 -23.0 8.7 -22.7 4.85 -18.1 5.35 L-17.4 5.6" fill="#003e10" fill-rule="evenodd" stroke="none"/>
    <path d="M9.6 -2.85 L10.2 0.45 9.5 0.6 9.0 0.5 8.0 -0.5 Q7.05 -1.35 6.85 -1.9 L6.05 -3.05 5.7 -3.8 Q3.6 -2.25 1.9 -0.35 L0.0 2.05 4.95 2.2 Q8.0 2.05 10.8 0.9 13.5 -0.15 15.75 -2.05 18.2 -4.0 19.95 -6.55 L20.85 -7.85 14.1 -7.55 Q11.15 -6.9 8.55 -5.6 L9.6 -2.85 M4.8 -7.8 Q8.55 -9.35 10.5 -9.5 L15.4 -10.4 Q26.35 -10.55 26.75 -9.4 L26.85 -7.75 26.8 -5.35 26.5 -2.9 Q26.15 -1.05 25.45 0.55 23.9 4.4 20.7 7.0 18.6 8.5 16.2 9.5 12.25 10.85 8.1 11.0 3.85 11.1 0.05 9.65 -3.35 8.4 -6.1 6.15 L-7.4 5.2 -5.15 2.1 -7.95 2.45 Q-11.7 2.45 -13.0 1.0 -15.5 -1.9 -17.3 -2.9 L-17.3 -3.55 Q-15.2 -3.45 -12.9 -2.55 L-9.25 -1.25 -7.45 -1.25 0.6 -5.9 Q2.8 -7.15 4.8 -7.8 M23.75 -7.6 L23.3 -7.55 23.05 -6.25 22.35 -4.8 24.15 -4.3 24.6 -6.25 24.6 -6.3 24.45 -7.15 Q24.2 -7.3 24.1 -7.7 L24.0 -8.0 23.75 -7.6 M22.35 -0.4 L22.35 -0.15 22.75 -0.2 Q23.55 -1.4 23.45 -2.15 L22.9 -2.8 22.1 -3.6 21.75 -3.6 Q20.75 -3.35 20.75 -2.95 L20.9 -2.7 18.85 -0.1 21.4 1.65 22.35 -0.4 M19.3 3.2 L17.5 1.35 16.45 0.9 15.95 1.15 15.7 1.15 15.55 1.3 11.55 3.25 13.4 8.4 16.15 7.0 17.65 6.05 18.05 5.95 18.55 5.4 Q18.85 5.0 19.95 4.9 L19.75 4.05 19.9 3.9 19.7 3.7 19.7 3.65 19.3 3.25 19.3 3.2 M11.15 8.8 L11.5 8.8 10.65 6.2 10.55 5.7 10.1 4.4 9.8 3.5 9.65 3.55 9.55 3.25 8.85 3.35 8.7 3.65 4.25 4.2 4.4 8.1 8.6 8.55 8.25 8.6 8.15 8.75 9.8 8.75 9.8 8.8 9.9 9.15 11.2 9.05 11.15 8.8 M2.95 4.3 L2.9 4.2 2.15 4.35 1.8 4.35 -3.25 4.3 -4.0 5.2 1.25 7.1 Q0.4 7.4 0.9 7.4 L1.4 7.65 1.9 7.95 3.0 7.85 3.3 6.0 3.1 4.9 3.1 4.35 2.95 4.3" fill="#000000" fill-rule="evenodd" stroke="none"/>
    <path d="M9.6 -2.85 L8.55 -5.6 Q11.15 -6.9 14.1 -7.55 L20.85 -7.85 19.95 -6.55 Q18.2 -4.0 15.75 -2.05 13.5 -0.15 10.8 0.9 8.0 2.05 4.95 2.2 L0.0 2.05 1.9 -0.35 Q3.6 -2.25 5.7 -3.8 L6.05 -3.05 6.85 -1.9 Q7.05 -1.35 8.0 -0.5 L9.0 0.5 9.5 0.6 10.2 0.45 9.6 -2.85" fill="#ffcc00" fill-rule="evenodd" stroke="none"/>
    <path d="M23.75 -7.6 L24.0 -8.0 24.1 -7.7 23.75 -7.6 M24.6 -6.3 L24.6 -6.25 24.15 -4.3 22.35 -4.8 23.05 -6.25 23.7 -6.35 23.95 -6.4 24.0 -6.15 24.6 -6.3 M22.35 -0.4 L21.4 1.65 18.85 -0.1 20.9 -2.7 21.7 -2.15 22.9 -1.6 22.9 -1.45 22.55 -0.7 22.35 -0.4 M15.95 1.15 L16.45 0.9 17.5 1.35 19.3 3.2 18.1 2.05 Q17.1 1.3 15.95 1.15 M19.7 3.7 L19.9 3.9 19.75 4.05 19.7 3.7 M17.65 6.05 L16.15 7.0 13.4 8.4 11.55 3.25 15.55 1.3 14.8 1.75 Q14.05 1.9 16.0 3.2 L18.3 4.9 Q17.7 5.1 17.6 5.6 L17.45 6.05 17.65 6.05 M10.65 6.2 L11.5 8.8 11.15 8.8 10.65 6.2 M8.6 8.55 L4.4 8.1 4.25 4.2 8.7 3.65 8.75 4.5 Q8.8 5.0 9.75 7.5 L9.75 8.15 9.25 8.4 8.6 8.55 M9.65 3.55 L9.8 3.5 10.1 4.4 9.65 3.55 M2.95 4.3 L3.1 4.35 3.1 4.9 2.95 4.3 M1.25 7.1 L-4.0 5.2 -3.25 4.3 1.8 4.35 1.7 6.95 1.25 7.1" fill="#662600" fill-rule="evenodd" stroke="none"/>
    <path d="M23.05 -6.25 L23.3 -7.55 23.75 -7.6 24.1 -7.7 Q24.2 -7.3 24.45 -7.15 L24.6 -6.3 24.0 -6.15 23.95 -6.4 23.7 -6.35 23.05 -6.25 M20.9 -2.7 L20.75 -2.95 Q20.75 -3.35 21.75 -3.6 L22.1 -3.6 22.9 -2.8 23.45 -2.15 Q23.55 -1.4 22.75 -0.2 L22.35 -0.15 22.35 -0.4 22.55 -0.7 22.9 -1.45 22.9 -1.6 21.7 -2.15 20.9 -2.7 M15.95 1.15 Q17.1 1.3 18.1 2.05 L19.3 3.2 19.3 3.25 19.7 3.65 19.7 3.7 19.75 4.05 19.95 4.9 Q18.85 5.0 18.55 5.4 L18.05 5.95 17.65 6.05 17.45 6.05 17.6 5.6 Q17.7 5.1 18.3 4.9 L16.0 3.2 Q14.05 1.9 14.8 1.75 L15.55 1.3 15.7 1.15 15.95 1.15 M11.15 8.8 L11.2 9.05 9.9 9.15 9.8 8.8 9.8 8.75 8.15 8.75 8.25 8.6 8.6 8.55 9.25 8.4 9.75 8.15 9.75 7.5 Q8.8 5.0 8.75 4.5 L8.7 3.65 8.85 3.35 9.55 3.25 9.65 3.55 10.1 4.4 10.55 5.7 10.65 6.2 11.15 8.8 M1.8 4.35 L2.15 4.35 2.9 4.2 2.95 4.3 3.1 4.9 3.3 6.0 3.0 7.85 1.9 7.95 1.4 7.65 0.9 7.4 Q0.4 7.4 1.25 7.1 L1.7 6.95 1.8 4.35" fill="#bd620f" fill-rule="evenodd" stroke="none"/>
    <path d="M39.9 10.15 Q42.15 13.8 40.55 17.6 L40.0 18.6 35.5 18.45 Q35.25 14.05 38.5 8.35 L39.9 10.15 M32.9 8.05 Q36.1 13.55 33.95 18.2 33.75 18.6 33.3 18.6 L29.7 18.85 Q28.95 17.9 28.85 16.7 28.7 15.45 29.35 13.4 29.9 11.3 31.05 10.1 L32.9 8.05 M32.45 11.1 Q31.25 12.65 30.9 14.1 L30.4 15.9 30.55 16.8 31.9 17.45 33.15 17.3 33.35 16.95 Q33.95 14.35 32.95 12.0 L32.45 11.1 M21.85 18.0 L21.8 18.95 21.45 19.45 18.8 20.2 16.0 21.1 Q16.55 24.1 16.1 30.1 L13.65 29.1 Q11.3 27.7 10.25 25.85 9.2 23.95 9.2 22.5 9.2 21.1 10.6 20.05 12.0 18.95 13.7 19.05 L14.1 19.1 Q14.05 18.05 14.85 15.1 15.65 12.15 17.65 8.9 L18.95 10.35 Q20.9 12.35 21.5 14.5 21.85 15.7 21.85 18.0 M39.95 14.2 L38.85 11.25 Q37.45 13.8 37.35 16.4 L37.4 16.75 Q37.7 17.9 39.65 16.25 40.05 15.0 39.95 14.2 M0.4 20.7 Q-0.05 21.1 -0.5 23.7 -1.0 26.35 -0.9 27.05 L-0.6 28.15 -0.4 28.75 0.65 28.7 Q1.1 28.95 1.8 27.9 2.5 26.75 2.5 25.35 2.5 23.95 1.9 22.8 L0.4 20.7 M18.15 18.5 L18.8 18.35 19.15 18.25 Q20.2 17.8 20.25 17.05 20.25 16.25 19.6 14.8 L18.25 12.15 Q15.7 16.85 16.0 18.45 L17.75 18.35 Q18.35 18.4 18.15 18.5 M14.1 21.5 L12.25 21.7 Q11.2 22.1 11.25 23.1 11.25 24.05 11.7 25.0 12.15 25.9 14.45 27.6 L14.55 24.35 Q14.55 22.3 14.1 21.5 M3.5 28.9 Q2.6 30.55 0.85 30.95 L-1.2 30.8 -2.25 29.75 -2.45 28.8 Q-2.45 26.25 -1.6 22.4 L-0.35 18.1 Q2.35 20.4 3.25 22.5 4.1 24.6 4.15 26.15 4.15 27.65 3.5 28.9 M-28.2 31.85 Q-28.2 35.9 -27.8 38.4 L-27.9 38.5 Q-28.0 38.65 -27.4 38.65 -26.25 38.65 -25.05 35.8 -24.25 33.7 -24.15 32.65 L-24.1 32.6 -28.2 31.85 M-20.85 28.8 L-20.1 30.15 Q-17.95 34.05 -17.95 34.8 L-18.05 37.05 Q-18.05 38.6 -18.95 39.35 -19.9 40.05 -21.0 40.05 L-24.85 39.85 -25.1 40.45 -28.2 40.3 -28.95 38.9 -29.1 39.05 -33.85 40.0 -34.85 43.25 -37.5 43.25 -38.8 41.25 -39.6 43.65 -42.95 43.9 -44.05 44.8 -44.65 45.15 Q-48.5 47.0 -51.55 45.3 L-52.0 45.0 -53.5 46.25 Q-53.9 46.55 -54.35 46.65 L-55.25 47.0 -56.5 47.1 -59.1 46.8 -60.4 46.45 Q-60.95 41.75 -60.2 37.2 -59.75 34.25 -58.75 31.65 L-58.0 29.75 -56.35 29.85 -55.1 32.25 -49.15 32.05 -47.7 27.3 -46.05 27.4 -44.8 33.25 -42.25 26.55 -40.8 26.7 -39.25 31.4 -38.95 29.85 -34.1 30.3 -32.45 26.05 -31.0 24.9 Q-29.5 27.9 -28.9 29.8 L-25.35 30.2 Q-23.05 30.8 -22.45 31.15 L-20.85 28.8 M-37.5 31.5 Q-38.2 36.45 -36.3 41.1 -34.75 36.35 -35.65 31.4 L-37.5 31.5 M-32.7 38.25 L-31.2 37.8 -30.4 36.75 Q-29.55 34.2 -29.85 32.5 -30.2 30.7 -31.35 28.6 -34.05 33.05 -33.05 37.25 L-32.7 38.25 M-23.3 38.2 Q-20.65 38.3 -20.1 37.75 -19.5 37.2 -19.55 36.65 L-20.1 34.8 Q-20.6 33.4 -21.05 32.65 L-23.25 38.0 -23.3 38.2 M-3.1 30.9 L-2.9 34.55 Q-2.95 37.0 -4.9 41.45 -7.2 39.1 -8.0 36.7 -8.85 34.25 -8.85 32.4 -8.85 30.5 -8.05 28.1 -6.05 27.2 -4.5 28.3 -3.3 29.65 -3.1 30.9 M-6.75 35.0 L-5.35 38.2 Q-4.35 36.35 -4.35 34.7 -4.35 33.75 -4.9 32.1 -5.4 30.35 -5.95 29.75 -7.25 30.55 -7.25 32.25 -7.25 33.7 -6.75 35.0 M-11.7 29.85 Q-9.85 33.65 -9.85 35.0 -9.85 36.35 -13.15 38.4 L-16.45 38.2 -17.5 35.35 -17.8 33.05 Q-18.05 30.95 -15.25 25.1 L-14.2 26.0 Q-13.6 26.05 -11.7 29.85 M-15.85 34.45 L-15.2 36.15 -14.0 36.1 Q-12.4 36.1 -12.1 35.25 -11.8 34.4 -12.5 32.35 -13.2 30.35 -14.85 28.95 L-16.1 32.6 -15.85 34.45 M-57.05 45.5 L-55.95 45.3 Q-54.45 44.9 -53.6 43.6 L-57.4 34.1 -58.85 44.9 -58.2 45.1 -57.05 45.5 M-42.9 42.0 L-40.55 41.25 Q-40.0 35.6 -42.05 30.25 -44.1 35.2 -43.2 40.5 L-42.9 42.0 M-44.8 42.35 L-46.9 32.35 -49.55 42.45 Q-47.6 44.8 -44.8 42.35 M-50.2 34.1 Q-52.75 33.05 -54.05 34.1 L-52.1 41.95 -50.2 34.1" fill="#000000" fill-rule="evenodd" stroke="none"/>
    <path d="M32.45 11.1 L32.95 12.0 Q33.95 14.35 33.35 16.95 L33.15 17.3 31.9 17.45 30.55 16.8 30.4 15.9 30.9 14.1 Q31.25 12.65 32.45 11.1 M14.1 21.5 Q14.55 22.3 14.55 24.35 L14.45 27.6 Q12.15 25.9 11.7 25.0 11.25 24.05 11.25 23.1 11.2 22.1 12.25 21.7 L14.1 21.5 M18.15 18.5 Q18.35 18.4 17.75 18.35 L16.0 18.45 Q15.7 16.85 18.25 12.15 L19.6 14.8 Q20.25 16.25 20.25 17.05 20.2 17.8 19.15 18.25 L18.8 18.35 18.15 18.5 M0.4 20.7 L1.9 22.8 Q2.5 23.95 2.5 25.35 2.5 26.75 1.8 27.9 1.1 28.95 0.65 28.7 L-0.4 28.75 -0.6 28.15 -0.9 27.05 Q-1.0 26.35 -0.5 23.7 -0.05 21.1 0.4 20.7 M39.95 14.2 Q40.05 15.0 39.65 16.25 37.7 17.9 37.4 16.75 L37.35 16.4 Q37.45 13.8 38.85 11.25 L39.95 14.2 M-28.2 31.85 L-24.1 32.6 -24.15 32.65 Q-24.25 33.7 -25.05 35.8 -26.25 38.65 -27.4 38.65 -28.0 38.65 -27.9 38.5 L-27.8 38.4 Q-28.2 35.9 -28.2 31.85 M-23.3 38.2 L-23.25 38.0 -21.05 32.65 Q-20.6 33.4 -20.1 34.8 L-19.55 36.65 Q-19.5 37.2 -20.1 37.75 -20.65 38.3 -23.3 38.2 M-32.7 38.25 L-33.05 37.25 Q-34.05 33.05 -31.35 28.6 -30.2 30.7 -29.85 32.5 -29.55 34.2 -30.4 36.75 L-31.2 37.8 -32.7 38.25 M-37.5 31.5 L-35.65 31.4 Q-34.75 36.35 -36.3 41.1 -38.2 36.45 -37.5 31.5 M-6.75 35.0 Q-7.25 33.7 -7.25 32.25 -7.25 30.55 -5.95 29.75 -5.4 30.35 -4.9 32.1 -4.35 33.75 -4.35 34.7 -4.35 36.35 -5.35 38.2 L-6.75 35.0 M-50.2 34.1 L-52.1 41.95 -54.05 34.1 Q-52.75 33.05 -50.2 34.1 M-44.8 42.35 Q-47.6 44.8 -49.55 42.45 L-46.9 32.35 -44.8 42.35 M-42.9 42.0 L-43.2 40.5 Q-44.1 35.2 -42.05 30.25 -40.0 35.6 -40.55 41.25 L-42.9 42.0 M-57.05 45.5 L-58.2 45.1 -58.85 44.9 -57.4 34.1 -53.6 43.6 Q-54.45 44.9 -55.95 45.3 L-57.05 45.5 M-15.85 34.45 L-16.1 32.6 -14.85 28.95 Q-13.2 30.35 -12.5 32.35 -11.8 34.4 -12.1 35.25 -12.4 36.1 -14.0 36.1 L-15.2 36.15 -15.85 34.45" fill="#ffffff" fill-rule="evenodd" stroke="none"/>
    <path d="M-53.45 21.9 Q-50.9 21.65 -50.2 22.5 -49.85 22.9 -49.85 23.8 -49.85 24.35 -50.4 25.3 -50.9 26.25 -51.5 26.7 L-53.35 27.55 -55.1 27.5 Q-55.7 26.95 -55.7 25.95 -55.7 24.7 -54.85 23.6 L-53.45 21.9" fill="#000000" fill-rule="evenodd" stroke="none"/>
    <path d="M-46.95 23.8 L-48.25 23.75 -49.0 22.4 Q-49.6 21.55 -50.9 21.0 L-53.0 21.4 Q-53.3 21.75 -54.4 21.9 L-54.85 22.45 -55.0 22.8 -55.4 23.0 -56.75 22.95 -56.75 20.65 Q-56.4 20.6 -56.25 20.4 L-56.1 20.05 -55.35 19.85 -55.05 19.55 -53.25 18.45 -52.8 18.2 -52.2 17.85 -51.95 17.8 Q-50.55 17.1 -49.45 17.05 -47.85 16.9 -45.95 17.95 L-46.0 18.0 -46.0 19.05 -45.3 19.05 -45.05 19.55 -45.0 20.8 -45.0 21.05 -45.35 22.05 Q-45.75 23.05 -46.95 23.8 M-56.75 24.35 Q-56.75 24.85 -56.9 24.95 L-57.7 25.7 -58.6 25.65 -58.75 24.8 -58.7 23.65 -57.15 23.65 -56.75 24.35" fill="#003e10" fill-rule="evenodd" stroke="none"/>
    <path d="M-45.95 17.95 L-45.8 17.8 -44.7 17.8 -44.6 18.45 -44.65 18.9 -44.9 19.05 -45.3 19.05 -46.0 19.05 -46.0 18.0 -45.95 17.95 M-45.0 21.05 L-44.8 20.6 -44.6 20.6 -44.4 20.25 -44.4 20.6 -43.8 20.65 Q-43.65 20.95 -43.65 21.8 -43.65 22.95 -44.15 23.65 L-45.8 24.85 -47.3 24.85 -47.3 23.95 -46.95 23.8 Q-45.75 23.05 -45.35 22.05 L-45.0 21.05 M-48.55 24.35 L-48.5 24.85 Q-48.5 26.0 -49.25 26.9 L-49.7 27.7 Q-50.05 28.1 -51.55 28.55 L-52.55 28.5 Q-52.6 27.85 -51.6 27.2 -50.6 26.5 -50.5 26.05 L-50.1 25.95 -49.15 24.3 -48.55 24.35" fill="#74d87e" fill-rule="evenodd" stroke="none"/>
  </g>
</svg>
