<?xml version="1.0" encoding="UTF-8" standalone="no"?>
<svg xmlns:xlink="http://www.w3.org/1999/xlink" height="48.15px" width="72.1px" xmlns="http://www.w3.org/2000/svg">
  <g transform="matrix(1.0, 0.0, 0.0, 1.0, 36.05, 24.1)">
    <path d="M18.45 10.95 L18.15 11.05 20.2 18.8 31.75 14.85 31.25 9.75 31.3 9.7 Q30.1 1.6 28.4 -6.25 27.0 -12.7 25.2 -19.05 L17.7 -16.05 Q11.2 -13.6 5.7 -12.2 0.1 -10.85 -2.3 -11.0 L-4.7 -11.4 -5.05 -11.5 -5.0 -11.7 -5.65 -11.9 -6.8 -12.45 Q-9.45 -13.55 -12.9 -16.35 -16.35 -19.15 -23.3 -18.25 -25.5 -18.0 -27.05 -16.85 -29.8 -14.65 -31.2 -10.95 L-32.1 -7.4 -32.4 -5.15 Q-32.25 -2.5 -31.5 -0.2 -30.1 4.05 -26.8 7.1 L-23.1 10.6 Q-20.05 13.55 -16.05 14.75 -12.1 15.95 -8.85 16.25 L-1.15 16.05 Q3.4 15.6 6.45 14.75 L11.8 13.0 18.45 10.9 18.45 10.95 M35.95 17.85 Q35.5 14.7 36.05 17.85 L35.95 17.85 M27.85 -24.1 Q28.15 -22.0 28.8 -19.15 31.3 -8.5 34.35 8.65 L35.85 17.9 34.05 18.45 Q30.6 19.35 17.35 24.05 L16.05 19.25 Q15.9 19.35 15.7 19.4 L14.8 15.6 Q2.1 19.85 -2.4 20.05 L-11.6 19.5 Q-16.75 18.6 -19.5 17.55 -22.3 16.55 -27.6 13.05 -32.25 9.9 -35.1 -0.2 L-35.8 -2.85 -36.0 -5.15 -36.05 -6.2 Q-35.95 -8.65 -35.1 -10.95 -34.4 -13.15 -33.3 -14.85 L-30.4 -18.25 -27.15 -20.35 Q-25.5 -21.15 -20.1 -22.0 -14.6 -22.95 -8.55 -18.25 -7.1 -17.05 -5.65 -16.2 L-1.15 -15.2 Q-1.8 -15.4 0.65 -15.55 L3.45 -15.7 Q8.4 -16.45 18.05 -20.3 L27.85 -24.1" fill="#000000" fill-rule="evenodd" stroke="none"/>
    <path d="M18.45 10.9 L11.8 13.0 6.45 14.75 Q3.4 15.6 -1.15 16.05 L-8.85 16.25 Q-12.1 15.95 -16.05 14.75 -20.05 13.55 -23.1 10.6 L-26.8 7.1 Q-30.1 4.05 -31.5 -0.2 -32.25 -2.5 -32.4 -5.15 L-32.1 -7.4 -31.2 -10.95 Q-29.8 -14.65 -27.05 -16.85 -25.5 -18.0 -23.3 -18.25 -16.35 -19.15 -12.9 -16.35 -9.45 -13.55 -6.8 -12.45 L-5.65 -11.9 -5.0 -11.7 -5.05 -11.5 -4.7 -11.4 -2.3 -11.0 Q0.1 -10.85 5.7 -12.2 11.2 -13.6 17.7 -16.05 L25.2 -19.05 Q27.0 -12.7 28.4 -6.25 30.1 1.6 31.3 9.7 L31.25 9.75 31.75 14.85 20.2 18.8 18.15 11.05 18.45 10.95 18.75 12.0 19.95 17.45 24.8 16.2 29.95 14.25 29.8 12.7 29.75 12.7 22.4 14.65 20.45 6.75 17.65 7.75 17.65 7.8 Q5.05 11.6 -6.65 10.9 -22.5 9.95 -28.35 -0.2 -29.5 -2.1 -30.25 -4.35 L-30.6 -4.2 -30.75 -2.65 -30.0 -0.2 Q-26.1 10.95 -12.7 13.9 -0.9 16.55 11.45 12.25 L18.1 9.5 18.45 10.9" fill="#c5c351" fill-rule="evenodd" stroke="none"/>
    <path d="M18.45 10.95 L18.45 10.9 18.1 9.5 11.45 12.25 Q-0.9 16.55 -12.7 13.9 -26.1 10.95 -30.0 -0.2 L-30.75 -2.65 -30.6 -4.2 -30.25 -4.35 Q-29.5 -2.1 -28.35 -0.2 -22.5 9.95 -6.65 10.9 5.05 11.6 17.65 7.8 L17.65 7.75 20.45 6.75 22.4 14.65 29.75 12.7 29.8 12.7 29.95 14.25 24.8 16.2 19.95 17.45 18.75 12.0 18.45 10.95" fill="#737115" fill-rule="evenodd" stroke="none"/>
  </g>
</svg>
