<?xml version="1.0" encoding="UTF-8" standalone="no"?>
<svg xmlns:xlink="http://www.w3.org/1999/xlink" height="97.05px" width="127.05px" xmlns="http://www.w3.org/2000/svg">
  <g transform="matrix(1.0, 0.0, 0.0, 1.0, 51.05, 49.85)">
    <path d="M58.35 -49.85 L70.4 -49.85 75.45 -49.85 75.45 -49.5 75.5 -38.2 75.55 -29.55 75.65 -16.55 75.7 -3.85 75.8 7.8 75.85 18.75 75.9 30.05 75.95 40.35 76.0 47.0 68.4 47.2 67.3 47.1 63.95 46.8 62.25 46.75 59.6 46.5 58.2 46.4 53.8 46.1 49.0 45.8 45.0 45.45 43.95 45.35 42.45 45.2 34.85 45.55 Q32.65 45.7 30.85 45.0 L29.4 44.85 Q27.3 45.0 25.35 45.65 L23.85 46.05 Q20.6 46.85 17.35 45.7 L16.95 45.6 Q15.6 45.05 14.05 45.15 L13.35 45.25 10.0 45.55 2.7 46.05 Q-0.2 46.8 -3.1 46.15 L-6.8 45.7 -7.8 45.65 Q-9.8 45.45 -11.85 45.65 -15.1 45.9 -18.4 45.7 L-20.6 45.65 -26.05 45.45 -27.1 45.3 -33.75 45.55 -34.5 45.75 -37.4 46.15 -37.95 46.05 Q-38.75 45.65 -39.9 45.55 L-43.2 45.65 Q-44.7 45.7 -45.7 45.15 -45.9 44.95 -46.2 44.85 -48.25 43.8 -50.5 44.1 L-50.6 29.35 -50.65 17.0 -50.75 3.65 -50.8 -6.3 -50.85 -18.25 -50.95 -30.25 -51.0 -41.55 -51.05 -49.85 -41.2 -49.85 -27.75 -49.85 -14.95 -49.85 -1.1 -49.85 8.7 -49.85 18.6 -49.85 32.85 -49.85 46.35 -49.85 58.35 -49.85" fill="#ff0000" fill-opacity="0.60784316" fill-rule="evenodd" stroke="none"/>
  </g>
</svg>
