<?xml version="1.0" encoding="UTF-8" standalone="no"?>
<svg xmlns:xlink="http://www.w3.org/1999/xlink" height="71.05px" width="76.3px" xmlns="http://www.w3.org/2000/svg">
  <g transform="matrix(1.0, 0.0, 0.0, 1.0, 12.65, -51.6)">
    <path d="M-0.1 106.3 L-1.2 106.4 -6.65 106.6 Q-7.15 109.05 -7.2 111.7 L-7.2 117.2 -5.7 117.35 -5.65 117.3 -4.95 109.55 3.15 109.05 3.2 106.05 3.15 106.0 Q4.0 92.75 8.75 81.15 16.35 62.45 31.25 60.25 L31.3 59.85 29.85 59.4 Q16.25 60.3 8.1 74.5 1.45 85.9 1.15 99.05 1.05 102.3 1.4 106.15 L0.0 106.25 0.35 99.25 0.55 93.6 Q0.85 90.35 2.0 85.7 3.15 81.05 4.5 78.0 5.95 74.8 8.45 71.05 10.9 67.2 14.8 64.65 L19.35 61.65 Q26.1 57.0 34.0 58.4 40.75 59.6 43.95 64.2 44.85 65.85 44.45 68.05 43.15 75.0 38.35 78.45 33.45 81.8 31.1 84.4 28.7 86.85 27.8 89.35 26.75 91.8 26.05 97.65 25.45 103.4 25.45 110.35 25.5 117.2 25.65 118.35 L12.55 119.3 Q4.6 119.6 -3.4 119.35 L-3.45 119.3 -8.4 118.9 -8.05 106.6 -0.1 106.0 -0.1 106.3" fill="#c5c351" fill-rule="evenodd" stroke="none"/>
    <path d="M0.0 106.25 L1.4 106.15 Q1.05 102.3 1.15 99.05 1.45 85.9 8.1 74.5 16.25 60.3 29.85 59.4 L31.3 59.85 31.25 60.25 Q16.35 62.45 8.75 81.15 4.0 92.75 3.15 106.0 L3.2 106.05 3.15 109.05 -4.95 109.55 -5.65 117.3 -5.7 117.35 -7.2 117.2 -7.2 111.7 Q-7.15 109.05 -6.65 106.6 L-1.2 106.4 -0.1 106.3 0.0 106.25" fill="#737115" fill-rule="evenodd" stroke="none"/>
    <path d="M-0.1 106.3 L-0.1 106.0 -8.05 106.6 -8.4 118.9 -3.45 119.3 -3.4 119.35 Q4.6 119.6 12.55 119.3 L25.65 118.35 Q25.5 117.2 25.45 110.35 25.45 103.4 26.05 97.65 26.75 91.8 27.8 89.35 28.7 86.85 31.1 84.4 33.45 81.8 38.35 78.45 43.15 75.0 44.45 68.05 44.85 65.85 43.95 64.2 40.75 59.6 34.0 58.4 26.1 57.0 19.35 61.65 L14.8 64.65 Q10.9 67.2 8.45 71.05 5.95 74.8 4.5 78.0 3.15 81.05 2.0 85.7 0.85 90.35 0.55 93.6 L0.35 99.25 0.0 106.25 -0.1 106.3 M-12.65 122.5 Q-9.55 122.7 -12.65 122.65 L-12.65 122.5 M7.0 67.1 Q8.95 64.45 14.05 59.75 19.25 55.15 31.8 54.4 38.4 54.55 43.5 57.9 L46.9 60.95 Q48.05 62.5 48.5 64.2 48.95 65.95 48.15 71.45 47.45 76.95 39.3 82.8 35.4 85.55 33.3 88.2 31.15 90.85 30.15 96.05 29.1 101.05 29.3 111.45 L29.45 121.95 24.45 122.0 Q13.65 122.65 -3.45 122.6 L-12.65 122.4 -12.55 120.6 Q-12.15 116.95 -11.95 102.8 L-7.0 102.45 -7.05 102.05 -3.15 101.8 Q-2.7 88.3 -1.3 83.7 0.05 79.2 2.4 74.65 5.05 69.7 7.0 67.1" fill="#000000" fill-rule="evenodd" stroke="none"/>
    <path d="M29.65 77.85 Q30.2 78.95 31.15 79.5 L31.75 78.65 31.7 78.3 Q29.6 74.4 30.85 69.05 32.8 62.95 33.4 59.7 L32.6 59.05 32.55 59.15 32.25 58.8 28.55 56.3 28.4 56.55 26.9 55.45 25.45 59.25 Q24.5 62.0 24.6 65.6 24.65 69.1 25.2 72.35 25.8 75.25 29.65 77.85 M61.05 75.55 L61.15 75.35 63.65 77.0 Q61.45 81.1 58.6 83.55 55.85 85.95 53.65 86.9 51.45 87.75 49.35 88.0 L44.4 87.85 Q41.5 87.45 38.75 86.0 31.0 81.95 24.05 76.5 L23.5 75.65 23.1 74.75 Q21.25 69.25 21.6 63.45 21.9 58.85 23.7 54.85 L25.2 51.6 36.45 59.05 36.4 59.25 Q34.55 62.65 33.7 66.45 33.1 69.5 32.8 72.55 32.45 75.7 34.2 78.3 35.45 80.1 37.2 81.4 39.7 83.55 42.9 84.9 L46.3 85.5 Q47.6 85.3 47.85 85.5 L50.2 85.0 53.65 83.35 55.6 82.05 57.8 80.05 Q59.3 78.5 61.05 75.55" fill="#000000" fill-rule="evenodd" stroke="none"/>
    <path d="M28.4 56.55 L28.55 56.3 32.25 58.8 32.55 59.15 32.6 59.05 33.4 59.7 Q32.8 62.95 30.85 69.05 29.6 74.4 31.7 78.3 L31.75 78.65 31.15 79.5 Q30.2 78.95 29.65 77.85 28.9 76.55 28.8 74.35 28.6 71.2 29.45 68.95 L30.55 64.6 Q31.45 61.15 32.05 59.95 L27.9 57.35 28.4 56.55" fill="#ff797c" fill-rule="evenodd" stroke="none"/>
    <path d="M29.65 77.85 Q25.8 75.25 25.2 72.35 24.65 69.1 24.6 65.6 24.5 62.0 25.45 59.25 L26.9 55.45 28.4 56.55 27.9 57.35 32.05 59.95 Q31.45 61.15 30.55 64.6 L29.45 68.95 Q28.6 71.2 28.8 74.35 28.9 76.55 29.65 77.85" fill="#c2042c" fill-rule="evenodd" stroke="none"/>
    <path d="M36.4 59.25 L43.35 63.85 51.05 68.95 59.2 74.3 61.05 75.55 Q59.3 78.5 57.8 80.05 L55.6 82.05 53.65 83.35 50.2 85.0 47.85 85.5 Q47.6 85.3 46.3 85.5 L42.9 84.9 Q39.7 83.55 37.2 81.4 35.45 80.1 34.2 78.3 32.45 75.7 32.8 72.55 33.1 69.5 33.7 66.45 34.55 62.65 36.4 59.25" fill="#570d03" fill-rule="evenodd" stroke="none"/>
  </g>
</svg>
