<?xml version="1.0" encoding="UTF-8" standalone="no"?>
<svg xmlns:xlink="http://www.w3.org/1999/xlink" height="149.95px" width="152.95px" xmlns="http://www.w3.org/2000/svg">
  <g transform="matrix(1.0, 0.0, 0.0, 1.0, 67.9, 53.75)">
    <path d="M35.35 -49.0 L35.35 -49.6 Q34.1 -50.25 34.1 -50.45 L32.65 -50.5 31.35 -49.15 25.4 -44.15 33.0 -41.85 30.75 -40.75 Q21.85 -42.0 12.8 -39.45 L6.0 -37.4 6.0 -39.1 7.8 -40.4 3.1 -45.5 -0.2 -43.45 -2.4 -41.95 -2.85 -42.0 -3.35 -41.3 -3.7 -41.05 Q-4.4 -40.55 -4.65 -39.65 L-5.55 -33.95 -3.7 -35.2 -2.9 -35.2 -2.85 -35.7 -1.85 -36.4 -0.2 -35.8 Q-5.8 -29.35 -11.85 -24.4 -17.9 -19.45 -22.7 -16.35 -27.5 -13.3 -30.6 -7.8 -31.05 -5.2 -25.3 -5.4 L-24.9 -2.3 Q-36.3 1.85 -43.35 6.05 -44.6 6.85 -45.5 8.2 L-46.55 9.75 Q-47.95 12.0 -49.0 14.45 -49.6 15.75 -50.8 16.55 L-58.7 21.55 Q-61.0 23.0 -63.3 24.6 -63.3 27.75 -62.95 30.8 -62.6 34.0 -61.05 37.05 -59.95 39.25 -59.1 41.55 L-58.3 41.05 -55.6 38.8 Q-50.55 35.1 -45.7 35.1 L-45.1 35.1 -43.25 34.25 -41.85 34.45 Q-40.4 34.65 -40.15 34.9 L-36.75 35.15 -33.35 35.7 -28.7 36.7 -25.1 37.35 Q-19.55 37.35 -10.05 32.35 -5.15 29.75 0.05 26.45 11.35 20.2 15.5 18.7 24.3 15.4 32.6 16.75 L33.45 17.1 39.85 16.6 39.95 16.6 42.25 15.6 43.3 14.6 43.95 13.75 41.65 10.3 41.3 9.75 40.05 7.8 38.1 6.1 Q37.2 6.35 36.7 5.6 35.15 6.55 34.0 6.5 L31.75 7.7 Q31.85 4.0 36.5 1.1 40.5 -0.45 44.8 1.1 46.75 1.85 47.5 3.8 L47.85 4.55 48.85 6.25 48.85 6.85 Q47.2 5.6 44.75 7.25 L45.1 7.8 45.9 9.5 46.0 9.75 46.25 10.8 46.4 12.5 46.35 15.0 46.4 15.9 Q46.4 16.6 45.8 17.4 45.05 18.4 43.5 19.2 L43.3 19.2 41.1 20.05 39.85 19.95 38.55 20.15 34.95 19.65 28.45 20.25 25.35 20.5 21.85 21.1 Q16.8 22.0 9.0 25.8 L8.2 26.25 2.85 29.05 -2.2 31.95 -12.65 38.15 Q-17.5 40.85 -19.35 40.85 L-20.95 40.85 -21.0 40.85 -21.3 40.8 -23.85 40.7 -26.75 40.25 Q-28.3 40.65 -31.85 39.35 -34.7 38.3 -37.0 37.95 -45.15 39.15 -49.75 41.25 -52.5 42.45 -57.25 45.0 L-58.15 44.95 -58.15 45.0 -62.1 45.0 Q-62.9 42.25 -64.6 39.7 -66.15 37.2 -67.1 34.05 -68.1 30.95 -67.85 27.4 -67.65 23.9 -66.25 22.45 L-64.35 20.45 -61.85 18.5 -56.7 14.75 -53.4 12.35 Q-52.3 11.5 -51.8 10.3 L-51.55 9.75 Q-50.1 6.2 -47.25 3.5 -44.4 0.85 -40.85 -1.0 L-33.75 -4.5 Q-34.95 -6.55 -33.45 -10.15 -31.9 -13.8 -24.15 -18.7 -16.45 -23.6 -7.5 -31.95 L-7.9 -41.35 4.75 -49.3 Q6.6 -46.15 9.65 -44.15 L11.5 -43.0 23.5 -44.45 30.3 -53.75 45.55 -47.75 49.9 -37.8 54.45 -36.85 60.0 -31.0 63.1 -34.15 74.5 -33.15 76.25 -19.95 69.3 -10.85 71.3 -3.9 78.55 -4.05 83.05 6.65 80.85 9.75 77.5 14.55 Q78.65 17.45 77.25 20.15 76.3 22.0 74.65 23.55 L62.6 34.25 62.4 32.0 Q62.3 30.55 62.85 29.3 L62.9 29.25 63.1 29.05 69.7 23.25 73.6 19.85 Q74.25 19.1 74.4 17.55 L71.95 10.15 74.45 9.1 75.85 11.5 80.6 6.85 79.6 5.05 79.6 3.5 Q78.9 3.0 78.6 1.75 78.2 0.35 77.1 -0.65 L76.3 -0.8 76.15 -1.15 74.7 -1.3 71.75 -1.3 72.8 6.05 69.65 6.15 68.75 2.45 Q65.9 -6.65 65.35 -9.15 64.8 -11.65 62.9 -17.05 L66.0 -16.85 67.8 -14.2 73.6 -21.65 72.15 -30.65 67.15 -31.1 64.8 -31.55 64.8 -31.45 64.25 -31.5 62.85 -30.5 60.9 -28.65 62.8 -24.9 61.3 -24.35 60.1 -25.75 Q54.15 -32.35 49.55 -34.7 44.95 -37.05 39.45 -38.85 L40.0 -39.95 47.1 -38.35 45.0 -44.7 40.85 -46.55 40.85 -48.05 39.2 -48.15 39.2 -47.3 37.4 -48.1 37.2 -49.0 36.2 -49.1 35.75 -48.8 35.35 -49.0 M77.95 0.0 L77.2 -0.7 Q78.65 0.9 77.95 0.0" fill="#000000" fill-rule="evenodd" stroke="none"/>
    <path d="M31.35 -49.15 L32.65 -50.5 34.1 -50.45 Q34.1 -50.25 35.35 -49.6 L35.35 -49.0 35.35 -48.4 33.3 -48.05 29.9 -44.25 28.65 -44.35 Q28.45 -45.35 30.1 -47.6 L31.35 -49.15 M35.75 -48.8 L36.2 -49.1 37.2 -49.0 37.4 -48.1 37.4 -47.75 37.35 -47.45 35.5 -47.45 35.4 -48.15 35.75 -48.8 M39.2 -47.3 L39.2 -48.15 40.85 -48.05 40.85 -46.55 40.85 -46.5 39.2 -46.6 39.2 -47.3 M64.8 -31.45 L64.8 -31.55 67.15 -31.1 67.75 -30.8 Q68.75 -30.2 70.9 -30.1 L72.15 -29.9 72.15 -28.4 Q67.8 -28.5 65.45 -29.3 L65.05 -28.45 64.2 -27.45 62.7 -27.45 62.55 -28.05 64.8 -31.45 M76.3 -0.8 L77.1 -0.65 Q78.2 0.35 78.6 1.75 78.9 3.0 79.6 3.5 L79.6 5.05 79.6 5.35 77.95 5.35 Q77.35 3.35 76.05 1.95 74.6 0.45 72.8 0.2 L72.8 -1.0 76.1 -0.85 76.3 -0.8 M-2.85 -35.7 L-2.9 -35.2 -3.7 -35.2 -4.35 -35.2 -4.5 -37.05 Q-4.5 -38.1 -3.95 -39.8 L-3.35 -41.3 -2.85 -42.0 -2.4 -41.95 -0.8 -41.85 Q-0.8 -40.75 -1.6 -40.0 L-2.45 -38.9 -2.85 -35.7 M3.7 -43.75 L3.7 -42.9 2.25 -43.0 Q2.25 -44.25 2.5 -44.45 L3.55 -44.35 3.7 -43.75 M-0.2 -43.45 L1.25 -43.3 1.45 -42.4 1.05 -41.8 -0.6 -41.85 -0.2 -43.45 M1.0 -25.55 Q1.0 -26.2 1.3 -26.2 L2.05 -26.1 2.05 -25.15 1.05 -24.95 1.05 -24.9 1.0 -25.55 M6.0 -27.45 L6.4 -29.0 10.55 -28.65 12.2 -27.75 Q13.0 -27.25 13.0 -26.8 L12.8 -24.45 12.25 -24.05 11.65 -24.05 11.8 -24.55 11.85 -25.6 Q11.85 -26.2 10.85 -26.75 L9.3 -27.65 7.65 -27.35 6.0 -27.45 M20.1 -24.35 L20.3 -24.55 27.65 -23.45 32.8 -21.6 32.8 -21.25 29.8 -22.25 Q26.45 -23.25 23.75 -23.25 L21.4 -22.85 17.35 -22.2 Q8.6 -20.3 4.75 -17.85 L0.5 -15.2 Q-2.25 -13.65 -3.3 -13.65 L-6.0 -13.75 -6.0 -15.9 Q-2.35 -17.7 4.35 -20.35 8.7 -22.1 11.85 -22.95 16.0 -24.05 20.1 -24.35 M71.0 -27.85 L72.45 -27.75 72.45 -26.55 71.0 -26.55 71.0 -27.85 M79.15 5.55 Q79.6 5.95 79.6 7.05 L79.6 7.3 77.5 7.3 77.5 5.4 79.15 5.55 M-2.7 -25.5 Q-2.45 -25.1 -2.45 -24.35 L-2.45 -24.25 -6.75 -24.55 -6.35 -26.1 -4.25 -25.85 -2.7 -25.5 M-20.45 -13.4 L-19.9 -12.5 Q-19.55 -11.9 -19.55 -11.3 -19.55 -10.65 -20.05 -10.1 L-20.6 -9.4 -23.9 -9.5 -24.4 -10.45 -24.7 -11.7 Q-24.7 -12.7 -23.9 -13.55 L-20.45 -13.4 M-17.55 -1.9 Q-22.0 -0.5 -26.35 1.65 L-34.2 5.6 -41.4 9.3 -42.05 9.75 Q-45.3 12.05 -45.0 14.3 L-46.0 14.3 Q-46.0 14.0 -45.4 12.85 L-44.8 11.4 -44.9 9.8 -44.9 9.75 Q-44.95 8.6 -44.35 8.3 L-40.85 6.2 Q-38.7 5.0 -36.75 4.1 -31.8 1.35 -28.6 -0.15 -22.65 -2.95 -16.65 -3.3 L-17.1 -2.7 -17.55 -1.9 M-13.8 9.75 Q-13.85 11.0 -14.75 12.5 -15.9 14.35 -17.7 14.9 L-18.4 14.85 -19.6 14.7 Q-17.0 12.75 -16.15 11.7 -15.4 10.8 -15.0 9.75 -14.6 8.7 -14.65 7.5 -14.25 7.95 -14.05 8.7 L-13.8 9.6 -13.8 9.75 M-56.65 22.7 L-56.35 22.25 -56.1 21.75 -53.0 21.9 -53.0 23.6 -54.95 23.95 -56.65 24.35 -57.55 25.75 -58.4 26.9 -59.4 26.85 -59.55 25.6 Q-59.55 25.15 -58.75 24.35 -57.9 23.55 -57.9 22.95 L-56.65 22.7 M-51.5 22.3 L-49.85 22.35 -49.45 22.75 -49.45 23.4 -49.65 23.6 -49.85 23.95 -51.5 23.8 -51.5 22.3 M-46.85 23.95 L-46.85 24.85 -47.85 24.8 -47.85 23.8 -46.85 23.95" fill="#74d87e" fill-rule="evenodd" stroke="none"/>
    <path d="M35.35 -49.0 L35.75 -48.8 35.4 -48.15 35.5 -47.45 37.35 -47.45 37.4 -47.75 37.4 -48.1 39.2 -47.3 39.2 -46.6 40.85 -46.5 40.85 -46.55 45.0 -44.7 47.1 -38.35 40.0 -39.95 39.45 -38.85 Q44.95 -37.05 49.55 -34.7 54.15 -32.35 60.1 -25.75 L61.3 -24.35 62.8 -24.9 60.9 -28.65 62.85 -30.5 64.25 -31.5 64.8 -31.45 62.55 -28.05 62.7 -27.45 64.2 -27.45 65.05 -28.45 65.45 -29.3 Q67.8 -28.5 72.15 -28.4 L72.15 -29.9 70.9 -30.1 Q68.75 -30.2 67.75 -30.8 L67.15 -31.1 72.15 -30.65 73.6 -21.65 67.8 -14.2 66.0 -16.85 62.9 -17.05 Q64.8 -11.65 65.35 -9.15 65.9 -6.65 68.75 2.45 L69.65 6.15 72.8 6.05 71.75 -1.3 74.7 -1.3 76.15 -1.15 76.3 -0.8 76.1 -0.85 72.8 -1.0 72.8 0.2 Q74.6 0.45 76.05 1.95 77.35 3.35 77.95 5.35 L79.6 5.35 79.6 5.05 80.6 6.85 75.85 11.5 74.45 9.1 71.95 10.15 74.4 17.55 Q74.25 19.1 73.6 19.85 L69.7 23.25 63.1 29.05 63.25 28.35 63.3 28.1 63.4 27.65 63.7 26.05 Q64.2 23.75 64.1 21.1 63.95 19.0 63.4 17.4 62.2 14.0 59.85 12.05 L57.45 10.25 56.75 9.75 Q52.35 6.8 47.85 4.55 L47.5 3.8 Q46.75 1.85 44.8 1.1 40.5 -0.45 36.5 1.1 31.85 4.0 31.75 7.7 L34.0 6.5 Q35.15 6.55 36.7 5.6 37.2 6.35 38.1 6.1 L40.05 7.8 41.3 9.75 41.65 10.3 43.95 13.75 43.3 14.6 42.25 15.6 39.95 16.6 39.85 16.6 33.45 17.1 32.6 16.75 Q24.3 15.4 15.5 18.7 11.35 20.2 0.05 26.45 -5.15 29.75 -10.05 32.35 -19.55 37.35 -25.1 37.35 L-28.7 36.7 -33.35 35.7 -36.75 35.15 -40.15 34.9 Q-40.4 34.65 -41.85 34.45 L-43.25 34.25 -45.1 35.1 -45.7 35.1 Q-50.55 35.1 -55.6 38.8 L-58.3 41.05 -59.1 41.55 Q-59.95 39.25 -61.05 37.05 -62.6 34.0 -62.95 30.8 -63.3 27.75 -63.3 24.6 -61.0 23.0 -58.7 21.55 L-50.8 16.55 Q-49.6 15.75 -49.0 14.45 -47.95 12.0 -46.55 9.75 L-45.5 8.2 Q-44.6 6.85 -43.35 6.05 -36.3 1.85 -24.9 -2.3 L-25.3 -5.4 Q-31.05 -5.2 -30.6 -7.8 -27.5 -13.3 -22.7 -16.35 -17.9 -19.45 -11.85 -24.4 -5.8 -29.35 -0.2 -35.8 L-1.85 -36.4 -2.85 -35.7 -2.45 -38.9 -1.6 -40.0 Q-0.8 -40.75 -0.8 -41.85 L-2.4 -41.95 -0.2 -43.45 3.1 -45.5 7.8 -40.4 6.0 -39.1 6.0 -37.4 12.8 -39.45 Q21.85 -42.0 30.75 -40.75 L33.0 -41.85 25.4 -44.15 31.35 -49.15 30.1 -47.6 Q28.45 -45.35 28.65 -44.35 L29.9 -44.25 33.3 -48.05 35.35 -48.4 35.35 -49.0 M-3.7 -35.2 L-5.55 -33.95 -4.65 -39.65 Q-4.4 -40.55 -3.7 -41.05 L-3.35 -41.3 -3.95 -39.8 Q-4.5 -38.1 -4.5 -37.05 L-4.35 -35.2 -3.7 -35.2 M79.15 5.55 L77.5 5.4 77.5 7.3 79.6 7.3 79.6 7.05 Q79.6 5.95 79.15 5.55 M71.0 -27.85 L71.0 -26.55 72.45 -26.55 72.45 -27.75 71.0 -27.85 M20.1 -24.35 Q16.0 -24.05 11.85 -22.95 8.7 -22.1 4.35 -20.35 -2.35 -17.7 -6.0 -15.9 L-6.0 -13.75 -3.3 -13.65 Q-2.25 -13.65 0.5 -15.2 L4.75 -17.85 Q8.6 -20.3 17.35 -22.2 L21.4 -22.85 23.75 -23.25 Q26.45 -23.25 29.8 -22.25 L32.8 -21.25 32.8 -21.6 27.65 -23.45 20.3 -24.55 20.1 -24.35 M6.0 -27.45 L7.65 -27.35 9.3 -27.65 10.85 -26.75 Q11.85 -26.2 11.85 -25.6 L11.8 -24.55 11.65 -24.05 12.25 -24.05 12.8 -24.45 13.0 -26.8 Q13.0 -27.25 12.2 -27.75 L10.55 -28.65 6.4 -29.0 6.0 -27.45 M1.0 -25.55 L1.05 -24.9 1.05 -24.95 2.05 -25.15 2.05 -26.1 1.3 -26.2 Q1.0 -26.2 1.0 -25.55 M-0.2 -43.45 L-0.6 -41.85 1.05 -41.8 1.45 -42.4 1.25 -43.3 -0.2 -43.45 M3.7 -43.75 L3.55 -44.35 2.5 -44.45 Q2.25 -44.25 2.25 -43.0 L3.7 -42.9 3.7 -43.75 M-46.85 23.95 L-47.85 23.8 -47.85 24.8 -46.85 24.85 -46.85 23.95 M-51.5 22.3 L-51.5 23.8 -49.85 23.95 -49.65 23.6 -49.45 23.4 -49.45 22.75 -49.85 22.35 -51.5 22.3 M-56.65 22.7 L-57.9 22.95 Q-57.9 23.55 -58.75 24.35 -59.55 25.15 -59.55 25.6 L-59.4 26.85 -58.4 26.9 -57.55 25.75 -56.65 24.35 -54.95 23.95 -53.0 23.6 -53.0 21.9 -56.1 21.75 -56.35 22.25 -56.65 22.7 M-13.8 9.75 L-13.8 9.6 -14.05 8.7 Q-14.25 7.95 -14.65 7.5 -14.6 8.7 -15.0 9.75 -15.4 10.8 -16.15 11.7 -17.0 12.75 -19.6 14.7 L-18.4 14.85 -17.7 14.9 Q-15.9 14.35 -14.75 12.5 -13.85 11.0 -13.8 9.75 M-17.55 -1.9 L-17.1 -2.7 -16.65 -3.3 Q-22.65 -2.95 -28.6 -0.15 -31.8 1.35 -36.75 4.1 -38.7 5.0 -40.85 6.2 L-44.35 8.3 Q-44.95 8.6 -44.9 9.75 L-44.9 9.8 -44.8 11.4 -45.4 12.85 Q-46.0 14.0 -46.0 14.3 L-45.0 14.3 Q-45.3 12.05 -42.05 9.75 L-41.4 9.3 -34.2 5.6 -26.35 1.65 Q-22.0 -0.5 -17.55 -1.9 M-20.45 -13.4 L-23.9 -13.55 Q-24.7 -12.7 -24.7 -11.7 L-24.4 -10.45 -23.9 -9.5 -20.6 -9.4 -20.05 -10.1 Q-19.55 -10.65 -19.55 -11.3 -19.55 -11.9 -19.9 -12.5 L-20.45 -13.4 M-2.7 -25.5 L-4.25 -25.85 -6.35 -26.1 -6.75 -24.55 -2.45 -24.25 -2.45 -24.35 Q-2.45 -25.1 -2.7 -25.5" fill="#007b25" fill-rule="evenodd" stroke="none"/>
    <path d="M63.1 29.05 L62.9 29.25 63.25 28.35 63.1 29.05 M-58.15 45.0 L-58.15 44.95 -57.25 45.0 -58.15 45.0" fill="#f5ec7d" fill-rule="evenodd" stroke="none"/>
    <path d="M28.1 -34.2 Q28.7 -33.6 28.85 -32.5 29.1 -30.35 27.25 -29.65 L24.3 -28.5 23.7 -28.3 22.05 -28.05 17.35 -27.2 16.95 -27.15 Q17.4 -29.65 15.7 -30.1 L14.05 -30.4 Q11.95 -30.8 10.45 -31.5 L9.9 -32.05 9.65 -32.55 Q9.3 -34.3 11.1 -34.7 L12.0 -34.9 16.1 -35.45 Q17.65 -35.45 17.55 -33.75 L17.75 -33.35 Q18.95 -33.15 19.0 -34.55 L19.8 -34.75 24.35 -35.15 Q26.95 -35.3 28.1 -34.2 M37.55 -36.9 L41.65 -36.85 42.1 -36.7 45.75 -35.25 Q48.15 -34.3 48.8 -32.0 L48.6 -31.25 47.7 -30.15 Q46.85 -28.95 44.95 -28.85 43.2 -28.7 41.7 -29.35 L38.75 -30.45 Q37.1 -31.1 35.8 -32.0 35.0 -32.6 33.85 -32.65 33.4 -33.95 33.3 -35.0 L33.15 -35.8 Q33.1 -36.3 33.85 -36.45 L35.9 -36.75 37.55 -36.9 M32.2 -29.45 L36.3 -29.85 Q37.1 -29.85 37.6 -29.3 37.95 -29.0 38.4 -28.9 39.25 -28.65 39.35 -27.55 L39.4 -26.75 39.35 -26.3 39.0 -25.25 38.75 -25.0 35.9 -24.7 35.05 -24.6 Q32.7 -24.3 31.5 -26.4 L30.9 -27.55 30.7 -28.4 Q30.65 -29.3 31.75 -29.35 L32.2 -29.45 M6.2 -27.75 L6.6 -27.75 10.35 -27.4 10.75 -27.2 Q11.7 -26.45 11.5 -24.7 11.4 -23.6 10.7 -23.05 L8.7 -21.4 6.8 -20.9 3.7 -20.35 Q2.35 -20.1 1.2 -20.8 L0.45 -20.9 Q-0.65 -20.9 -1.2 -21.4 -0.65 -22.45 0.75 -23.6 L1.8 -24.55 4.85 -27.25 Q5.4 -27.75 6.2 -27.75 M10.8 -19.3 Q12.0 -20.2 13.65 -20.3 L15.75 -20.8 16.45 -21.05 17.4 -21.3 Q21.25 -22.35 25.6 -22.4 L26.05 -22.45 27.75 -22.35 Q28.05 -22.2 28.45 -22.15 30.55 -21.85 32.25 -21.15 L35.05 -19.75 40.05 -16.05 Q42.85 -13.5 43.7 -10.25 L43.2 -9.95 43.95 -9.85 45.25 -9.65 46.25 -8.95 46.7 -8.2 46.7 -4.75 44.4 -4.9 44.0 -5.6 Q40.45 -6.55 39.9 -7.05 39.6 -7.3 39.6 -8.65 39.6 -9.25 39.85 -9.65 L40.1 -10.15 42.45 -10.05 41.85 -10.45 41.25 -10.75 39.6 -10.9 34.25 -11.0 Q33.55 -10.95 33.2 -10.35 L32.65 -9.75 Q31.3 -8.55 30.1 -7.8 L33.85 -8.25 37.55 -7.8 Q38.75 -7.15 39.7 -5.35 L39.95 -4.85 41.25 -3.25 Q39.85 -2.6 37.55 -2.75 L34.7 -2.65 34.2 -2.5 Q32.65 -1.75 32.2 0.05 L31.65 1.65 31.3 1.95 28.45 1.85 Q27.1 1.6 27.05 2.95 L26.8 3.35 Q24.3 5.45 22.15 7.75 L19.9 9.75 19.75 9.85 14.05 13.25 11.6 14.15 11.1 14.3 10.75 14.3 8.7 14.55 Q8.15 14.6 7.8 14.95 L6.2 14.75 4.95 14.65 2.85 14.2 Q0.9 13.35 -1.2 12.85 -2.35 12.55 -3.0 11.7 L-3.7 11.15 -4.95 10.5 -5.7 10.25 -6.05 9.9 -6.1 9.75 Q-6.7 8.7 -7.4 9.55 L-7.6 9.75 Q-8.2 10.2 -9.45 10.05 L-11.6 10.1 -11.65 9.75 Q-12.3 5.95 -12.35 2.1 L-12.65 -1.6 Q-12.85 -3.1 -11.65 -4.2 L-11.0 -4.75 -7.85 -7.0 Q-6.6 -7.8 -5.95 -8.9 L-5.35 -9.45 Q0.45 -13.65 5.9 -16.7 L6.6 -16.95 Q8.6 -17.8 9.65 -18.7 L10.3 -19.05 Q10.55 -19.1 10.8 -19.3 M45.9 -26.7 L46.25 -27.05 Q47.9 -27.75 49.9 -27.55 52.15 -27.3 53.35 -25.6 L53.85 -24.95 54.5 -23.9 54.7 -23.45 Q54.75 -22.3 55.15 -21.35 55.5 -20.4 54.95 -19.65 L54.4 -18.9 Q53.45 -17.2 51.55 -16.0 51.35 -16.25 51.15 -16.0 L51.1 -16.0 Q48.6 -15.75 47.2 -17.05 L46.9 -17.65 46.05 -20.1 45.9 -20.6 Q44.85 -23.25 45.65 -25.95 L45.9 -26.7 M48.55 -9.9 L46.5 -9.9 46.1 -10.3 46.05 -11.15 Q46.05 -12.1 46.2 -12.3 L48.25 -12.2 48.7 -11.7 48.85 -10.7 48.85 -10.05 48.55 -9.9 M47.65 -7.85 L50.95 -8.2 52.15 -1.55 52.85 -2.15 53.15 -2.45 Q53.8 -3.55 53.7 -4.75 55.6 -5.0 56.15 -3.35 57.55 0.7 55.15 4.4 L52.25 4.4 52.2 3.5 51.2 3.35 50.05 2.5 49.3 -0.15 50.8 -0.85 47.7 -2.0 47.65 -7.85 M-21.4 -8.25 Q-19.35 -8.6 -17.3 -9.45 -14.1 -10.8 -10.75 -11.6 -9.95 -11.8 -9.65 -12.1 L-9.1 -12.45 -7.4 -13.15 Q-9.1 -10.7 -12.4 -8.25 -13.1 -7.75 -13.3 -7.0 L-13.55 -6.55 -14.8 -5.3 -15.15 -4.95 -16.85 -4.35 -17.3 -4.15 Q-18.45 -3.55 -20.15 -3.8 -20.8 -3.85 -21.3 -4.2 -23.2 -5.25 -24.7 -5.7 -25.95 -6.15 -25.65 -7.8 L-25.55 -9.4 Q-24.95 -8.75 -23.9 -8.6 L-22.15 -8.35 -21.4 -8.25 M-4.05 -19.75 L-4.65 -19.05 Q-5.35 -18.7 -6.15 -18.7 L-6.6 -18.65 -8.3 -18.75 -9.0 -19.05 -10.5 -19.95 Q-10.7 -20.15 -10.5 -20.45 -9.85 -21.85 -8.25 -23.05 -6.7 -24.2 -4.45 -24.45 L-3.7 -24.2 Q-2.85 -23.65 -2.7 -22.2 -2.6 -21.35 -3.1 -21.05 L-3.45 -20.65 -3.6 -20.3 -4.05 -19.75 M-16.9 -0.5 Q-15.45 -0.75 -15.55 0.45 -15.65 1.4 -16.2 1.95 L-16.6 2.25 -17.7 2.45 Q-20.35 2.9 -19.65 0.1 L-19.3 -0.2 -16.9 -0.5 M-17.4 5.6 L-16.85 6.2 Q-16.45 6.65 -16.4 7.45 L-16.05 9.0 -16.15 9.75 -16.75 12.05 -17.0 12.8 -17.3 13.2 Q-18.1 13.85 -19.75 13.75 L-22.2 13.5 -22.5 13.2 Q-23.05 11.6 -23.05 9.75 L-23.0 8.7 Q-22.7 4.85 -18.1 5.35 L-17.4 5.6" fill="#003e10" fill-rule="evenodd" stroke="none"/>
    <path d="M12.4 -20.9 Q15.1 -19.5 17.2 -17.25 19.3 -15.25 20.45 -12.55 L21.35 -9.7 21.5 -6.8 Q21.35 -5.35 20.8 -3.95 19.6 -1.1 17.0 0.95 L11.85 3.35 8.95 3.9 5.85 3.55 Q1.1 2.1 -1.8 -2.1 -4.1 -5.4 -5.95 -9.0 -5.75 -10.45 -5.2 -11.8 -3.55 -17.05 0.95 -20.15 3.75 -22.1 7.1 -22.15 9.85 -22.25 12.4 -20.9 M8.9 -17.2 L6.0 -12.05 1.95 -12.55 1.45 -11.3 5.35 -9.75 6.1 -2.2 7.25 -2.8 7.45 -8.65 14.8 -7.6 15.7 -8.45 8.3 -11.15 9.75 -16.5 8.9 -17.2" fill="#ffcc00" fill-rule="evenodd" stroke="none"/>
    <path d="M12.4 -20.9 Q9.85 -22.25 7.1 -22.15 3.75 -22.1 0.95 -20.15 -3.55 -17.05 -5.2 -11.8 -5.75 -10.45 -5.95 -9.0 -4.1 -5.4 -1.8 -2.1 1.1 2.1 5.85 3.55 L8.95 3.9 11.85 3.35 17.0 0.95 Q19.6 -1.1 20.8 -3.95 21.35 -5.35 21.5 -6.8 L21.35 -9.7 20.45 -12.55 Q19.3 -15.25 17.2 -17.25 15.1 -19.5 12.4 -20.9 M8.9 -17.2 L9.75 -16.5 8.3 -11.15 15.7 -8.45 14.8 -7.6 7.45 -8.65 7.25 -2.8 6.1 -2.2 5.35 -9.75 1.45 -11.3 1.95 -12.55 6.0 -12.05 8.9 -17.2 M19.55 -19.25 Q21.35 -17.65 23.65 -16.55 29.4 -13.95 30.5 -7.85 31.1 -4.65 30.0 -1.5 28.9 1.6 26.85 4.1 L24.6 6.9 Q22.45 8.45 20.05 9.15 14.95 10.95 9.7 10.95 6.95 10.9 4.5 9.85 -0.3 7.8 -4.35 4.6 -7.0 2.55 -10.15 1.15 L-10.25 -0.1 -6.9 -0.1 -6.55 -0.95 -7.75 -8.35 Q-7.95 -10.25 -7.35 -12.1 -6.65 -14.05 -5.55 -15.75 L-2.9 -19.4 Q-0.8 -22.25 2.65 -23.9 4.35 -24.95 6.4 -24.8 L9.75 -24.3 Q15.45 -23.05 19.55 -19.25 M21.95 -14.65 L23.85 -9.75 27.7 -9.15 27.1 -10.25 Q25.8 -12.65 23.55 -13.85 L21.95 -14.65 M22.15 -1.0 L26.2 1.4 27.9 -3.2 28.2 -4.3 28.35 -6.5 24.1 -7.4 23.35 -4.2 22.15 -1.0 M25.0 3.45 L20.6 0.85 13.5 6.45 14.3 8.0 19.3 6.65 21.7 5.75 23.85 4.4 25.0 3.45 M10.9 6.45 L4.8 5.95 Q0.6 4.65 -2.25 1.75 L-2.45 2.3 Q1.55 7.25 7.95 7.65 L11.65 7.8 10.9 6.45" fill="#000000" fill-rule="evenodd" stroke="none"/>
    <path d="M10.9 6.45 L11.65 7.8 7.95 7.65 Q1.55 7.25 -2.45 2.3 L-2.25 1.75 Q0.6 4.65 4.8 5.95 L10.9 6.45 M25.0 3.45 L23.85 4.4 21.7 5.75 19.3 6.65 14.3 8.0 13.5 6.45 20.6 0.85 25.0 3.45 M22.15 -1.0 L23.35 -4.2 24.1 -7.4 28.35 -6.5 28.2 -4.3 27.9 -3.2 26.2 1.4 22.15 -1.0 M21.95 -14.65 L23.55 -13.85 Q25.8 -12.65 27.1 -10.25 L27.7 -9.15 23.85 -9.75 21.95 -14.65" fill="#662600" fill-rule="evenodd" stroke="none"/>
    <path d="M42.3 11.9 L42.95 12.2 Q44.85 12.9 46.8 13.05 L47.15 13.0 Q48.35 12.85 46.8 11.25 L44.8 10.95 43.4 11.2 42.55 11.4 41.75 11.6 42.3 11.9 M41.8 10.4 L45.2 10.05 48.25 10.65 49.2 11.15 48.7 14.55 46.9 14.4 43.5 13.65 43.7 14.85 46.0 15.0 48.0 15.55 48.35 15.7 Q48.75 15.9 48.7 16.2 L48.7 18.95 48.2 19.15 46.45 19.45 43.85 19.1 43.2 18.9 42.95 18.85 42.65 19.4 42.5 19.6 38.0 19.45 Q37.9 17.8 38.3 16.05 L38.15 15.9 38.3 15.85 38.35 15.85 38.65 14.75 39.4 12.65 38.9 12.3 39.45 11.95 39.6 12.15 39.8 11.75 39.45 11.45 40.05 11.15 41.0 9.35 41.8 10.4 M46.7 18.2 L47.45 17.2 47.4 16.25 47.05 16.05 44.7 15.8 44.4 15.8 43.7 15.85 42.45 16.0 42.05 16.1 Q41.55 16.2 41.15 16.45 L42.2 17.1 42.5 17.25 43.4 17.6 44.0 17.75 45.1 18.05 45.8 18.25 46.7 18.2 M41.1 12.75 L40.75 13.45 40.8 13.5 40.75 13.5 40.15 15.3 42.4 14.95 41.7 13.0 41.1 12.75 M55.5 29.55 L58.85 29.85 57.65 31.65 56.75 32.55 Q55.55 33.55 54.2 34.05 L52.3 34.55 50.8 34.65 49.75 34.4 48.5 33.45 48.45 33.4 Q47.45 32.3 47.7 31.05 L47.75 30.75 46.45 30.6 43.8 29.95 Q41.35 29.3 38.8 28.0 L37.8 27.45 Q38.6 27.05 39.35 26.6 41.5 25.2 43.7 24.9 L44.0 24.85 Q45.2 24.7 47.25 24.8 L48.05 24.9 48.2 24.9 48.65 25.2 48.7 25.45 49.2 27.2 49.6 28.55 49.9 29.4 53.15 29.4 53.25 29.4 55.5 29.55 M54.05 30.75 L53.05 30.7 51.8 30.65 50.15 30.85 Q49.9 31.3 50.1 32.0 L50.15 32.1 50.2 32.3 51.0 33.05 51.3 33.1 51.55 33.1 53.5 32.85 Q54.25 32.65 55.6 31.55 L56.25 30.95 54.75 30.8 54.05 30.75 M47.3 26.85 Q46.9 26.05 46.15 25.95 L45.05 26.05 43.85 26.3 41.1 27.2 Q45.65 29.4 47.25 29.25 L47.3 28.7 47.3 27.95 47.45 27.65 47.35 27.15 47.3 26.85 M47.1 42.05 L45.65 41.55 46.15 41.2 Q47.5 40.2 48.8 39.65 L50.35 39.1 54.05 38.6 56.1 39.0 56.7 39.25 56.8 39.3 Q58.3 40.05 58.55 41.35 L58.25 42.9 57.15 43.65 56.15 43.75 51.8 43.15 51.1 43.0 49.9 42.75 47.1 42.05 M49.55 40.55 L48.35 41.15 Q48.65 41.45 50.7 41.9 L51.25 42.0 52.3 42.25 54.55 42.5 55.65 42.3 56.25 42.2 56.3 41.4 Q56.6 41.05 55.6 40.5 L55.25 40.3 Q54.3 39.9 53.15 39.8 L50.55 40.1 49.55 40.55 M55.5 45.25 Q56.95 44.4 58.2 44.35 L60.65 44.35 61.9 44.4 Q63.75 44.5 66.75 45.55 L68.65 46.3 Q66.1 47.95 63.65 48.4 L59.3 48.8 56.15 48.3 55.05 47.95 Q54.7 47.25 54.8 46.65 54.85 45.9 55.5 45.25 M56.85 46.45 Q57.55 47.5 59.25 47.55 L62.05 47.35 63.05 47.15 65.35 46.45 Q63.55 45.65 61.9 45.5 L61.65 45.5 59.3 45.8 Q57.5 46.1 56.85 46.45 M35.4 9.05 Q36.55 11.0 37.0 12.85 37.85 16.2 36.45 19.2 36.25 19.6 35.8 19.6 L32.2 19.85 Q31.45 18.9 31.35 17.7 31.2 16.45 31.85 14.4 32.4 12.3 33.55 11.1 L34.6 10.0 35.4 9.05 M22.1 15.8 L20.75 13.15 Q18.2 17.85 18.5 19.45 L20.25 19.35 Q20.85 19.4 20.65 19.5 L21.3 19.35 21.65 19.25 Q22.7 18.8 22.75 18.05 22.75 17.25 22.1 15.8 M23.95 20.45 L21.3 21.2 18.5 22.1 Q19.0 24.8 18.7 29.85 L18.6 31.1 16.15 30.1 Q13.8 28.7 12.75 26.85 11.7 24.95 11.7 23.5 11.7 22.75 12.1 22.15 L13.1 21.05 Q14.5 19.95 16.2 20.05 L16.6 20.1 Q16.55 19.05 17.35 16.1 18.15 13.15 20.15 9.9 L21.45 11.35 Q23.4 13.35 24.0 15.5 24.35 16.7 24.35 19.0 L24.3 19.95 23.95 20.45 M35.85 17.95 Q36.45 15.35 35.45 13.0 L34.95 12.1 Q33.75 13.65 33.4 15.1 L32.9 16.9 33.05 17.8 34.4 18.45 35.65 18.3 35.85 17.95 M39.85 17.4 L39.9 17.75 Q40.1 18.5 41.0 18.1 L40.05 17.45 39.85 17.3 39.85 17.4 M2.9 21.7 Q2.45 22.1 2.0 24.7 1.5 27.35 1.6 28.05 L1.9 29.15 2.1 29.75 3.15 29.7 Q3.6 29.95 4.3 28.9 5.0 27.75 5.0 26.35 5.0 24.95 4.4 23.8 L2.9 21.7 M2.15 19.1 Q4.85 21.4 5.75 23.5 6.6 25.6 6.65 27.15 6.65 28.65 6.0 29.9 5.1 31.55 3.35 31.95 L1.3 31.8 0.25 30.75 0.05 29.8 Q0.05 27.25 0.9 23.4 1.6 20.35 2.15 19.1 M13.75 24.1 Q13.75 25.05 14.2 26.0 14.65 26.9 16.95 28.6 L17.0 27.9 17.05 25.35 Q17.05 23.3 16.6 22.5 L14.75 22.7 Q13.7 23.1 13.75 24.1 M62.6 52.85 Q62.7 51.65 61.9 51.35 L58.95 51.5 Q56.9 51.95 55.4 53.05 L58.95 54.25 60.8 54.15 61.15 54.1 62.55 53.75 62.6 52.85 M61.6 55.45 L59.25 55.55 Q57.15 55.6 51.55 53.2 L52.55 52.45 Q52.65 52.0 56.5 50.75 L57.95 50.35 Q60.7 49.55 61.8 49.65 63.15 49.75 64.95 52.35 L64.5 54.8 62.2 55.35 61.6 55.45 M62.7 55.95 L63.25 56.0 Q64.8 56.05 65.5 56.8 66.1 57.55 66.05 58.35 L65.9 59.55 65.85 59.65 65.55 61.3 66.1 61.5 65.75 63.75 64.3 64.25 64.4 64.4 65.0 68.05 68.2 69.0 68.0 71.0 65.9 71.85 68.25 72.6 68.25 75.15 69.0 76.0 69.3 76.45 Q70.85 79.45 68.95 81.7 L68.6 82.0 69.75 83.2 70.05 83.9 70.35 84.55 70.35 85.55 69.85 87.45 69.4 88.45 60.25 87.75 Q57.3 87.25 54.8 86.35 L52.95 85.7 53.15 84.45 55.65 83.6 Q54.55 81.85 55.9 79.1 L51.25 77.75 51.5 76.5 57.45 75.9 51.0 73.65 51.2 72.55 56.0 71.65 54.5 71.35 55.3 67.65 51.2 66.2 50.2 65.0 Q53.25 64.05 55.2 63.75 55.0 62.8 55.85 61.1 L57.0 58.95 54.8 57.6 56.2 57.1 Q60.25 55.7 61.0 55.75 L62.7 55.95 M60.85 57.4 L58.6 58.0 63.8 59.95 64.0 60.0 Q64.3 58.0 63.8 57.55 63.3 57.1 62.75 57.1 L60.85 57.4 M63.95 63.45 L64.15 63.1 Q64.2 62.55 63.1 61.95 L61.45 61.2 58.4 60.35 58.35 60.3 57.3 63.3 61.3 63.45 63.85 63.4 63.95 63.45 M62.0 65.25 L59.8 64.7 57.8 64.6 Q56.0 64.75 53.8 65.5 55.5 66.45 57.25 66.9 L62.3 67.3 63.35 67.05 63.0 65.9 62.0 65.25 M56.25 70.3 L65.95 69.95 Q61.3 68.55 56.3 68.9 L56.25 70.3 M57.6 82.95 L65.6 81.9 57.9 80.0 Q56.65 81.9 57.6 82.95 M66.55 76.45 L56.4 77.45 66.3 80.0 Q68.75 78.65 66.55 76.45 M68.6 85.0 Q68.3 83.85 67.15 83.1 L57.35 85.45 68.0 87.15 68.25 86.7 68.7 85.85 68.6 85.0 M66.35 75.0 L65.75 73.2 54.65 73.65 Q59.45 75.5 64.8 75.15 L66.35 75.0 M-26.4 30.8 L-22.85 31.2 Q-20.55 31.8 -19.95 32.15 L-18.35 29.8 -17.6 31.15 Q-15.45 35.05 -15.45 35.8 L-15.55 38.05 Q-15.55 39.6 -16.45 40.35 -17.4 41.05 -18.5 41.05 L-22.35 40.85 -22.6 41.45 -25.7 41.3 -26.45 39.9 -26.6 40.05 -31.35 41.0 -32.35 44.25 -35.0 44.25 -36.3 42.25 -37.1 44.65 -40.45 44.9 -41.55 45.8 -42.15 46.15 Q-46.0 48.0 -49.05 46.3 L-49.5 46.0 -51.0 47.25 Q-51.4 47.55 -51.85 47.65 L-52.75 48.0 -54.0 48.1 -56.6 47.8 -57.9 47.45 Q-58.45 42.75 -57.7 38.2 -57.25 35.25 -56.25 32.65 L-55.5 30.75 -53.85 30.85 -52.6 33.25 -46.65 33.05 -45.2 28.3 -43.55 28.4 -42.3 34.25 -39.75 27.55 -38.3 27.7 -36.75 32.4 -36.45 30.85 -31.6 31.3 -29.95 27.05 -28.5 25.9 Q-27.0 28.9 -26.4 30.8 M-28.85 29.6 Q-31.55 34.05 -30.55 38.25 L-30.2 39.25 -28.7 38.8 -27.9 37.75 Q-27.05 35.2 -27.35 33.5 -27.7 31.7 -28.85 29.6 M-25.7 32.85 Q-25.7 36.9 -25.3 39.4 L-25.4 39.5 -24.9 39.65 Q-23.75 39.65 -22.55 36.8 -21.75 34.7 -21.65 33.65 L-21.6 33.6 -25.7 32.85 M-35.0 32.5 Q-35.7 37.45 -33.8 42.1 -32.25 37.35 -33.15 32.4 L-35.0 32.5 M-38.05 42.25 Q-37.5 36.6 -39.55 31.25 -41.6 36.2 -40.7 41.5 L-40.4 43.0 -38.05 42.25 M-20.8 39.2 Q-18.15 39.3 -17.6 38.75 -17.0 38.2 -17.05 37.65 L-17.6 35.8 Q-18.1 34.4 -18.55 33.65 L-20.75 39.0 -20.8 39.2 M-10.0 33.35 Q-10.7 31.35 -12.35 29.95 L-13.6 33.6 -13.35 35.45 -12.7 37.15 -11.5 37.1 Q-9.9 37.1 -9.6 36.25 -9.3 35.4 -10.0 33.35 M-0.4 35.55 Q-0.45 38.0 -2.4 42.45 -4.7 40.1 -5.5 37.7 -6.35 35.25 -6.35 33.4 -6.35 31.5 -5.55 29.1 -3.55 28.2 -2.0 29.3 -0.8 30.65 -0.6 31.9 L-0.4 35.55 M-2.4 33.1 Q-2.9 31.35 -3.45 30.75 -4.75 31.55 -4.75 33.25 -4.75 34.7 -4.25 36.0 L-2.85 39.2 Q-1.85 37.35 -1.85 35.7 -1.85 34.75 -2.4 33.1 M-7.35 36.0 Q-7.35 37.35 -10.65 39.4 L-13.95 39.2 -15.0 36.35 -15.3 34.05 Q-15.55 31.95 -12.75 26.1 L-11.7 27.0 Q-11.1 27.05 -9.2 30.85 -7.35 34.65 -7.35 36.0 M-55.7 46.1 L-54.55 46.5 -53.45 46.3 Q-51.95 45.9 -51.1 44.6 L-54.9 35.1 -56.35 45.9 -55.7 46.1 M-42.3 43.35 L-44.4 33.35 -47.05 43.45 Q-45.1 45.8 -42.3 43.35 M-49.6 42.95 L-47.7 35.1 Q-50.25 34.05 -51.55 35.1 L-49.6 42.95" fill="#000000" fill-rule="evenodd" stroke="none"/>
    <path d="M42.3 11.9 L41.75 11.6 42.55 11.4 43.4 11.2 44.8 10.95 46.8 11.25 Q48.35 12.85 47.15 13.0 L46.8 13.05 Q44.85 12.9 42.95 12.2 L42.3 11.9 M41.1 12.75 L41.7 13.0 42.4 14.95 40.15 15.3 40.75 13.5 40.8 13.5 40.75 13.45 41.1 12.75 M46.7 18.2 L45.8 18.25 45.1 18.05 44.0 17.75 43.4 17.6 42.5 17.25 42.2 17.1 41.15 16.45 Q41.55 16.2 42.05 16.1 L42.45 16.0 43.7 15.85 44.4 15.8 44.7 15.8 47.05 16.05 47.4 16.25 47.45 17.2 46.7 18.2 M47.3 26.85 L47.35 27.15 47.45 27.65 47.3 27.95 47.3 28.7 47.25 29.25 Q45.65 29.4 41.1 27.2 L43.85 26.3 45.05 26.05 46.15 25.95 Q46.9 26.05 47.3 26.85 M54.05 30.75 L54.75 30.8 56.25 30.95 55.6 31.55 Q54.25 32.65 53.5 32.85 L51.55 33.1 51.3 33.1 51.0 33.05 50.2 32.3 50.15 32.1 50.1 32.0 Q49.9 31.3 50.15 30.85 L51.8 30.65 53.05 30.7 54.05 30.75 M49.55 40.55 L50.55 40.1 53.15 39.8 Q54.3 39.9 55.25 40.3 L55.6 40.5 Q56.6 41.05 56.3 41.4 L56.25 42.2 55.65 42.3 54.55 42.5 52.3 42.25 51.25 42.0 50.7 41.9 Q48.65 41.45 48.35 41.15 L49.55 40.55 M56.85 46.45 Q57.5 46.1 59.3 45.8 L61.65 45.5 61.9 45.5 Q63.55 45.65 65.35 46.45 L63.05 47.15 62.05 47.35 59.25 47.55 Q57.55 47.5 56.85 46.45 M22.1 15.8 Q22.75 17.25 22.75 18.05 22.7 18.8 21.65 19.25 L21.3 19.35 20.65 19.5 Q20.85 19.4 20.25 19.35 L18.5 19.45 Q18.2 17.85 20.75 13.15 L22.1 15.8 M2.9 21.7 L4.4 23.8 Q5.0 24.95 5.0 26.35 5.0 27.75 4.3 28.9 3.6 29.95 3.15 29.7 L2.1 29.75 1.9 29.15 1.6 28.05 Q1.5 27.35 2.0 24.7 2.45 22.1 2.9 21.7 M39.85 17.4 L39.85 17.3 40.05 17.45 41.0 18.1 Q40.1 18.5 39.9 17.75 L39.85 17.4 M35.85 17.95 L35.65 18.3 34.4 18.45 33.05 17.8 32.9 16.9 33.4 15.1 Q33.75 13.65 34.95 12.1 L35.45 13.0 Q36.45 15.35 35.85 17.95 M62.6 52.85 L62.55 53.75 61.15 54.1 60.8 54.15 58.95 54.25 55.4 53.05 Q56.9 51.95 58.95 51.5 L61.9 51.35 Q62.7 51.65 62.6 52.85 M13.75 24.1 Q13.7 23.1 14.75 22.7 L16.6 22.5 Q17.05 23.3 17.05 25.35 L17.0 27.9 16.95 28.6 Q14.65 26.9 14.2 26.0 13.75 25.05 13.75 24.1 M66.35 75.0 L64.8 75.15 Q59.45 75.5 54.65 73.65 L65.75 73.2 66.35 75.0 M68.6 85.0 L68.7 85.85 68.25 86.7 68.0 87.15 57.35 85.45 67.15 83.1 Q68.3 83.85 68.6 85.0 M66.55 76.45 Q68.75 78.65 66.3 80.0 L56.4 77.45 66.55 76.45 M57.6 82.95 Q56.65 81.9 57.9 80.0 L65.6 81.9 57.6 82.95 M56.25 70.3 L56.3 68.9 Q61.3 68.55 65.95 69.95 L56.25 70.3 M62.0 65.25 L63.0 65.9 63.35 67.05 62.3 67.3 57.25 66.9 Q55.5 66.45 53.8 65.5 56.0 64.75 57.8 64.6 L59.8 64.7 62.0 65.25 M63.95 63.45 L63.85 63.4 61.3 63.45 57.3 63.3 58.35 60.3 58.4 60.35 61.45 61.2 63.1 61.95 Q64.2 62.55 64.15 63.1 L63.95 63.45 M60.85 57.4 L62.75 57.1 Q63.3 57.1 63.8 57.55 64.3 58.0 64.0 60.0 L63.8 59.95 58.6 58.0 60.85 57.4 M-10.0 33.35 Q-9.3 35.4 -9.6 36.25 -9.9 37.1 -11.5 37.1 L-12.7 37.15 -13.35 35.45 -13.6 33.6 -12.35 29.95 Q-10.7 31.35 -10.0 33.35 M-20.8 39.2 L-20.75 39.0 -18.55 33.65 Q-18.1 34.4 -17.6 35.8 L-17.05 37.65 Q-17.0 38.2 -17.6 38.75 -18.15 39.3 -20.8 39.2 M-38.05 42.25 L-40.4 43.0 -40.7 41.5 Q-41.6 36.2 -39.55 31.25 -37.5 36.6 -38.05 42.25 M-35.0 32.5 L-33.15 32.4 Q-32.25 37.35 -33.8 42.1 -35.7 37.45 -35.0 32.5 M-25.7 32.85 L-21.6 33.6 -21.65 33.65 Q-21.75 34.7 -22.55 36.8 -23.75 39.65 -24.9 39.65 L-25.4 39.5 -25.3 39.4 Q-25.7 36.9 -25.7 32.85 M-28.85 29.6 Q-27.7 31.7 -27.35 33.5 -27.05 35.2 -27.9 37.75 L-28.7 38.8 -30.2 39.25 -30.55 38.25 Q-31.55 34.05 -28.85 29.6 M-2.4 33.1 Q-1.85 34.75 -1.85 35.7 -1.85 37.35 -2.85 39.2 L-4.25 36.0 Q-4.75 34.7 -4.75 33.25 -4.75 31.55 -3.45 30.75 -2.9 31.35 -2.4 33.1 M-49.6 42.95 L-51.55 35.1 Q-50.25 34.05 -47.7 35.1 L-49.6 42.95 M-42.3 43.35 Q-45.1 45.8 -47.05 43.45 L-44.4 33.35 -42.3 43.35 M-55.7 46.1 L-56.35 45.9 -54.9 35.1 -51.1 44.6 Q-51.95 45.9 -53.45 46.3 L-54.55 46.5 -55.7 46.1" fill="#ffffff" fill-rule="evenodd" stroke="none"/>
    <path d="M-46.95 23.8 L-48.25 23.75 -49.0 22.4 Q-49.6 21.55 -50.9 21.0 L-53.0 21.4 Q-53.3 21.75 -54.4 21.9 L-54.85 22.45 -55.0 22.8 -55.4 23.0 -56.75 22.95 -56.75 20.65 Q-56.4 20.6 -56.25 20.4 L-56.1 20.05 -55.35 19.85 -55.05 19.55 -53.25 18.45 -52.8 18.2 -52.2 17.85 -51.95 17.8 Q-50.55 17.1 -49.45 17.05 -47.85 16.9 -45.95 17.95 L-46.0 18.0 -46.0 19.05 -45.3 19.05 -45.05 19.55 -45.0 20.8 -45.0 21.05 -45.35 22.05 Q-45.75 23.05 -46.95 23.8 M-56.75 24.35 Q-56.75 24.85 -56.9 24.95 L-57.7 25.7 -58.6 25.65 -58.75 24.8 -58.7 23.65 -57.15 23.65 -56.75 24.35" fill="#003e10" fill-rule="evenodd" stroke="none"/>
    <path d="M57.7 -8.25 L60.35 -7.85 62.65 -8.0 67.1 -3.7 67.65 -3.2 68.75 -2.15 71.35 0.2 71.4 0.25 71.4 0.2 74.45 2.75 73.8 7.1 71.55 13.1 71.2 14.1 Q70.95 15.1 71.1 16.2 71.05 20.55 71.65 24.95 L71.8 26.0 73.9 39.45 Q74.9 45.15 76.05 50.85 L76.75 54.2 Q79.55 67.45 83.2 80.65 L84.15 84.2 84.7 86.1 84.95 87.1 85.05 90.05 84.8 92.05 84.15 92.05 83.05 96.2 Q75.25 94.9 67.9 92.9 L66.65 92.9 65.95 93.05 66.05 92.1 62.4 91.2 Q62.3 88.7 61.85 86.55 L61.45 85.6 59.7 83.4 Q58.75 82.4 58.5 81.2 L58.05 79.75 57.35 77.85 Q56.6 75.6 57.15 73.4 L57.65 71.5 Q58.4 68.5 60.45 66.0 L61.15 63.55 61.5 62.1 Q62.2 58.8 61.0 56.6 59.8 54.35 57.85 52.0 55.7 49.45 54.25 46.7 L53.4 45.05 50.75 40.1 48.85 36.6 48.35 35.65 47.7 34.2 47.2 33.0 45.75 29.2 44.7 26.1 44.55 25.5 Q44.0 23.5 43.8 21.5 L43.6 19.35 43.6 18.45 43.55 12.05 43.45 10.15 43.2 9.5 42.45 8.95 Q41.7 8.4 40.5 8.25 L33.75 8.15 33.95 5.0 34.55 6.05 35.2 5.75 36.9 5.1 39.95 4.8 42.45 4.85 43.35 4.85 Q44.05 4.85 44.8 5.3 45.75 5.95 46.45 7.2 L46.45 7.4 47.15 9.15 47.1 9.7 47.0 10.15 47.1 11.2 46.4 14.15 46.4 16.95 Q46.45 19.4 46.6 19.4 L46.65 21.95 Q46.85 24.55 47.05 24.75 47.4 27.15 48.75 30.4 L49.65 32.5 50.35 33.95 51.0 35.2 51.4 35.9 53.0 38.6 53.9 40.25 56.45 44.4 62.05 52.9 Q64.1 56.25 64.35 57.85 L64.35 58.4 64.25 59.65 64.25 59.7 64.2 59.95 64.1 61.05 63.95 62.0 Q63.6 64.35 63.3 64.35 63.65 65.6 62.1 68.45 60.9 70.75 60.4 72.6 61.1 79.2 62.95 82.95 L66.25 89.1 66.2 89.85 66.95 89.85 72.85 90.7 Q76.7 91.45 80.4 92.65 L81.35 91.1 73.75 56.75 73.0 53.45 72.9 53.05 70.7 42.2 68.65 31.15 68.3 28.35 Q67.75 23.9 67.5 19.45 L67.5 19.25 67.45 17.3 Q67.55 13.15 68.9 9.25 L70.1 6.7 Q68.1 3.3 65.8 0.4 L64.1 -1.7 60.15 -5.85 57.7 -8.25 M-53.45 21.9 Q-50.9 21.65 -50.2 22.5 -49.85 22.9 -49.85 23.8 -49.85 24.35 -50.4 25.3 -50.9 26.25 -51.5 26.7 L-53.35 27.55 -55.1 27.5 Q-55.7 26.95 -55.7 25.95 -55.7 24.7 -54.85 23.6 L-53.45 21.9" fill="#000000" fill-rule="evenodd" stroke="none"/>
    <path d="M-45.95 17.95 L-45.8 17.8 -44.7 17.8 -44.6 18.45 -44.65 18.9 -44.9 19.05 -45.3 19.05 -46.0 19.05 -46.0 18.0 -45.95 17.95 M-45.0 21.05 L-44.8 20.6 -44.6 20.6 -44.4 20.25 -44.4 20.6 -43.8 20.65 Q-43.65 20.95 -43.65 21.8 -43.65 22.95 -44.15 23.65 L-45.8 24.85 -47.3 24.85 -47.3 23.95 -46.95 23.8 Q-45.75 23.05 -45.35 22.05 L-45.0 21.05 M-48.55 24.35 L-48.5 24.85 Q-48.5 26.0 -49.25 26.9 L-49.7 27.7 Q-50.05 28.1 -51.55 28.55 L-52.55 28.5 Q-52.6 27.85 -51.6 27.2 -50.6 26.5 -50.5 26.05 L-50.1 25.95 -49.15 24.3 -48.55 24.35" fill="#74d87e" fill-rule="evenodd" stroke="none"/>
    <path d="M33.95 5.0 Q33.5 3.95 34.1 3.15 L34.45 2.75 33.85 2.7 32.1 3.5 Q34.8 -0.45 38.35 -4.2 L40.3 -6.15 Q42.4 -8.0 45.8 -8.9 L49.6 -9.4 54.5 -9.0 56.05 -8.75 56.5 -8.7 56.75 -8.65 57.65 -8.3 57.7 -8.25 60.15 -5.85 64.1 -1.7 65.8 0.4 Q68.1 3.3 70.1 6.7 L68.9 9.25 Q67.55 13.15 67.45 17.3 L67.5 19.25 67.5 19.45 Q67.75 23.9 68.3 28.35 L68.65 31.15 70.7 42.2 72.9 53.05 73.0 53.45 73.75 56.75 81.35 91.1 80.4 92.65 Q76.7 91.45 72.85 90.7 L66.95 89.85 66.2 89.85 66.25 89.1 62.95 82.95 Q61.1 79.2 60.4 72.6 60.9 70.75 62.1 68.45 63.65 65.6 63.3 64.35 63.6 64.35 63.95 62.0 L64.1 61.05 64.2 59.95 64.25 59.7 64.25 59.65 64.35 58.4 64.35 57.85 Q64.1 56.25 62.05 52.9 L56.45 44.4 53.9 40.25 53.0 38.6 51.4 35.9 51.0 35.2 50.35 33.95 49.65 32.5 48.75 30.4 Q47.4 27.15 47.05 24.75 46.85 24.55 46.65 21.95 L46.6 19.4 Q46.45 19.4 46.4 16.95 L46.4 14.15 47.1 11.2 47.0 10.15 47.1 9.7 47.15 9.15 46.45 7.4 46.45 7.2 Q45.75 5.95 44.8 5.3 44.05 4.85 43.35 4.85 L42.45 4.85 39.95 4.8 36.9 5.1 35.2 5.75 34.55 6.05 33.95 5.0 M46.65 -6.5 L46.55 -7.05 Q38.75 -3.9 35.3 2.75 L36.8 3.85 37.2 3.9 37.95 3.4 39.4 3.25 Q45.45 2.7 48.95 6.6 L49.05 8.35 49.2 12.85 50.1 13.8 52.1 16.75 52.45 17.8 52.05 18.4 49.65 17.35 50.15 21.85 52.45 22.05 52.8 22.65 52.25 23.4 48.85 23.05 Q48.35 24.3 48.8 25.5 49.2 27.05 50.5 28.1 L56.1 27.7 57.05 29.2 53.75 29.4 Q53.15 30.55 52.95 31.7 52.65 33.35 53.2 35.0 L59.15 35.75 59.4 36.1 55.3 36.15 55.45 36.8 55.5 36.9 Q55.9 38.2 57.15 38.85 58.55 39.55 60.35 39.4 L60.3 40.6 57.45 40.6 57.15 40.6 55.75 40.55 57.0 42.2 Q58.5 44.2 61.05 44.85 L64.05 45.1 Q64.65 46.15 64.65 47.35 L64.6 47.75 Q64.0 49.5 61.6 49.3 L61.6 50.15 Q61.8 51.45 63.15 52.3 L65.8 52.75 Q66.05 52.85 66.1 53.1 L63.9 53.35 65.65 57.55 68.5 58.45 65.3 58.7 64.55 64.5 67.35 65.25 67.55 65.6 65.1 65.7 67.6 70.8 70.0 71.45 66.15 71.95 65.95 73.05 Q65.85 75.25 67.45 76.95 L70.0 77.1 70.3 78.05 69.75 78.5 68.25 78.45 69.6 82.5 69.15 83.35 70.7 84.5 68.1 84.85 Q68.05 85.4 68.35 85.75 71.85 90.35 77.95 90.3 78.65 88.3 75.3 72.45 L72.1 58.15 71.35 54.85 68.7 43.9 67.4 38.55 Q66.35 34.05 65.65 30.15 64.85 25.6 64.55 21.8 L64.4 19.9 Q64.15 14.95 64.9 11.4 66.1 5.75 64.0 1.95 63.3 0.65 62.2 -0.45 L60.35 -1.95 Q56.65 -5.35 52.3 -6.1 L47.85 -5.3 46.6 -4.5 45.45 -4.55 44.8 -5.2 46.65 -6.5" fill="#f5ec7d" fill-rule="evenodd" stroke="none"/>
    <path d="M46.65 -6.5 L44.8 -5.2 45.45 -4.55 46.6 -4.5 47.85 -5.3 52.3 -6.1 Q56.65 -5.35 60.35 -1.95 L62.2 -0.45 Q63.3 0.65 64.0 1.95 66.1 5.75 64.9 11.4 64.15 14.95 64.4 19.9 L64.55 21.8 Q64.85 25.6 65.65 30.15 66.35 34.05 67.4 38.55 L68.7 43.9 71.35 54.85 72.1 58.15 75.3 72.45 Q78.65 88.3 77.95 90.3 71.85 90.35 68.35 85.75 68.05 85.4 68.1 84.85 L70.7 84.5 69.15 83.35 69.6 82.5 68.25 78.45 69.75 78.5 70.3 78.05 70.0 77.1 67.45 76.95 Q65.85 75.25 65.95 73.05 L66.15 71.95 70.0 71.45 67.6 70.8 65.1 65.7 67.55 65.6 67.35 65.25 64.55 64.5 65.3 58.7 68.5 58.45 65.65 57.55 63.9 53.35 66.1 53.1 Q66.05 52.85 65.8 52.75 L63.15 52.3 Q61.8 51.45 61.6 50.15 L61.6 49.3 Q64.0 49.5 64.6 47.75 L64.65 47.35 Q64.65 46.15 64.05 45.1 L61.05 44.85 Q58.5 44.2 57.0 42.2 L55.75 40.55 57.15 40.6 57.45 40.6 60.3 40.6 60.35 39.4 Q58.55 39.55 57.15 38.85 55.9 38.2 55.5 36.9 L55.45 36.8 55.3 36.15 59.4 36.1 59.15 35.75 53.2 35.0 Q52.65 33.35 52.95 31.7 53.15 30.55 53.75 29.4 L57.05 29.2 56.1 27.7 50.5 28.1 Q49.2 27.05 48.8 25.5 48.35 24.3 48.85 23.05 L52.25 23.4 52.8 22.65 52.45 22.05 50.15 21.85 49.65 17.35 52.05 18.4 52.45 17.8 52.1 16.75 50.1 13.8 49.2 12.85 49.05 8.35 48.95 6.6 Q45.45 2.7 39.4 3.25 L37.95 3.4 37.2 3.9 36.8 3.85 35.3 2.75 Q38.75 -3.9 46.55 -7.05 L46.65 -6.5" fill="#b6b445" fill-rule="evenodd" stroke="none"/>
  </g>
</svg>
