<?xml version="1.0" encoding="UTF-8" standalone="no"?>
<svg xmlns:xlink="http://www.w3.org/1999/xlink" height="63.4px" width="83.35px" xmlns="http://www.w3.org/2000/svg">
  <g transform="matrix(1.0, 0.0, 0.0, 1.0, 13.8, -51.6)">
    <path d="M22.05 59.8 Q26.3 57.05 31.2 55.1 36.6 52.95 39.8 52.3 L49.85 51.6 Q55.95 51.65 63.85 58.75 L65.85 60.65 67.2 62.55 67.8 63.4 Q68.9 65.55 69.3 68.05 69.7 70.3 69.5 72.4 L68.45 76.95 Q67.6 79.0 66.4 80.65 65.2 82.25 60.45 86.05 55.6 89.95 47.45 89.35 L43.6 89.2 38.75 90.9 Q39.5 90.7 37.15 92.25 37.6 91.6 34.55 93.95 30.2 97.4 22.85 106.2 L15.35 115.0 11.9 111.3 Q4.1 103.5 -7.55 90.5 L-13.7 83.35 -12.2 81.85 Q-9.35 79.1 1.05 67.55 L4.7 70.95 5.0 70.6 7.8 73.4 Q17.8 62.55 22.05 59.8 M6.65 79.5 L6.85 79.2 0.95 73.7 -8.2 83.65 -5.1 87.8 -5.15 87.85 Q0.15 94.15 5.75 99.95 L15.35 109.15 Q16.05 108.1 21.05 102.3 26.05 96.5 30.6 92.2 35.35 87.9 37.7 86.6 38.9 86.0 40.2 85.6 L40.6 85.5 40.65 85.7 41.4 85.5 42.8 85.3 Q45.9 84.75 50.65 85.25 55.4 85.7 61.65 80.95 63.6 79.55 64.55 77.65 66.05 74.2 65.55 70.25 L64.6 66.65 63.75 64.55 Q62.25 62.35 60.4 60.8 56.9 57.9 52.15 57.15 L46.8 56.25 Q42.35 55.4 37.9 56.7 33.5 57.85 30.2 59.45 27.05 61.0 22.9 63.95 18.75 66.95 16.25 69.45 14.75 70.85 12.0 73.95 L6.65 79.55 6.65 79.5 M-13.8 83.5 L-13.7 83.45 Q-11.7 85.9 -13.8 83.5" fill="#000000" fill-rule="evenodd" stroke="none"/>
    <path d="M6.65 79.55 L12.0 73.95 Q14.75 70.85 16.25 69.45 18.75 66.95 22.9 63.95 27.05 61.0 30.2 59.45 33.5 57.85 37.9 56.7 42.35 55.4 46.8 56.25 L52.15 57.15 Q56.9 57.9 60.4 60.8 62.25 62.35 63.75 64.55 L64.6 66.65 65.55 70.25 Q66.05 74.2 64.55 77.65 63.6 79.55 61.65 80.95 55.4 85.7 50.65 85.25 45.9 84.75 42.8 85.3 L41.4 85.5 40.65 85.7 40.6 85.5 40.2 85.6 Q38.9 86.0 37.7 86.6 35.35 87.9 30.6 92.2 26.05 96.5 21.05 102.3 16.05 108.1 15.35 109.15 L5.75 99.95 Q0.15 94.15 -5.15 87.85 L-5.1 87.8 -8.2 83.65 0.95 73.7 6.85 79.2 6.65 79.5 5.8 78.75 1.9 74.75 Q-0.2 76.4 -2.2 78.55 L-6.15 83.15 -5.2 84.4 -5.15 84.4 0.95 78.5 6.8 84.2 9.0 81.75 9.0 81.7 Q19.2 71.35 30.8 65.3 46.55 57.15 57.35 62.55 59.4 63.55 61.25 65.1 L61.5 64.75 60.9 63.3 58.95 61.65 Q49.55 54.25 35.1 59.3 22.4 63.7 12.65 74.4 10.25 77.05 7.65 80.55 L6.65 79.55" fill="#c5c351" fill-rule="evenodd" stroke="none"/>
    <path d="M6.65 79.5 L6.65 79.55 7.65 80.55 Q10.25 77.05 12.65 74.4 22.4 63.7 35.1 59.3 49.55 54.25 58.95 61.65 L60.9 63.3 61.5 64.75 61.25 65.1 Q59.4 63.55 57.35 62.55 46.55 57.15 30.8 65.3 19.2 71.35 9.0 81.7 L9.0 81.75 6.8 84.2 0.95 78.5 -5.15 84.4 -5.2 84.4 -6.15 83.15 -2.2 78.55 Q-0.2 76.4 1.9 74.75 L5.8 78.75 6.65 79.5" fill="#737115" fill-rule="evenodd" stroke="none"/>
  </g>
</svg>
