<?xml version="1.0" encoding="UTF-8" standalone="no"?>
<svg xmlns:xlink="http://www.w3.org/1999/xlink" height="35.05px" width="278.45px" xmlns="http://www.w3.org/2000/svg">
  <g transform="matrix(1.0, 0.0, 0.0, 1.0, 1.35, 1.5)">
    <path d="M267.75 8.5 Q259.2 13.4 248.8 14.45 L213.45 16.95 182.05 18.75 149.25 19.75 127.35 20.1 116.4 20.1 Q99.3 20.15 86.1 19.85 L85.6 21.45 79.85 21.45 79.85 31.85 75.65 29.55 74.7 21.2 67.65 20.3 66.75 19.0 36.55 18.05 8.25 15.75 7.3 15.65 2.4 15.1 0.0 12.1 Q99.8 21.1 267.75 8.5" fill="#202020" fill-rule="evenodd" stroke="none"/>
    <path d="M0.0 12.1 L2.4 9.9 7.2 10.3 7.3 10.3 36.55 11.7 Q51.55 12.0 66.75 11.55 L67.65 10.25 74.7 9.35 75.65 1.75 79.85 0.0 79.85 9.1 85.5 9.25 86.0 10.9 110.1 11.4 127.35 11.4 145.9 11.2 182.5 10.25 222.35 8.05 274.35 3.85 Q271.2 6.5 267.75 8.5 99.8 21.1 0.0 12.1" fill="#3f3f3f" fill-rule="evenodd" stroke="none"/>
    <path d="M267.75 8.5 Q271.2 6.5 274.35 3.85 L222.35 8.05 182.5 10.25 145.9 11.2 127.35 11.4 110.1 11.4 86.0 10.9 85.5 9.25 79.85 9.1 79.85 0.0 75.65 1.75 74.7 9.35 67.65 10.25 66.75 11.55 Q51.55 12.0 36.55 11.7 L7.3 10.3 7.2 10.3 2.4 9.9 0.0 12.1 2.4 15.1 7.3 15.65 8.25 15.75 36.55 18.05 66.75 19.0 67.65 20.3 74.7 21.2 75.65 29.55 79.85 31.85 79.85 21.45 85.6 21.45 86.1 19.85 Q99.3 20.15 116.4 20.1 L127.35 20.1 149.25 19.75 182.05 18.75 213.45 16.95 248.8 14.45 Q259.2 13.4 267.75 8.5 Z" fill="none" stroke="#333333" stroke-linecap="butt" stroke-linejoin="miter-clip" stroke-miterlimit="3.0" stroke-width="2.0"/>
  </g>
</svg>
