<?xml version="1.0" encoding="UTF-8" standalone="no"?>
<svg xmlns:xlink="http://www.w3.org/1999/xlink" height="45.0px" width="46.5px" xmlns="http://www.w3.org/2000/svg">
  <g transform="matrix(1.0, 0.0, 0.0, 1.0, 0.0, 0.0)">
    <path d="M46.5 45.0 L0.0 45.0 0.0 0.0 46.5 0.0 46.5 45.0" fill="#666666" fill-opacity="0.0" fill-rule="evenodd" stroke="none"/>
    <path d="M36.6 7.0 L27.6 7.0 27.6 40.0 25.95 41.65 25.95 5.35 38.25 5.35 36.6 7.0 M20.0 7.0 L11.0 7.0 11.0 40.0 9.35 41.65 9.35 5.35 21.65 5.35 20.0 7.0" fill="#666666" fill-rule="evenodd" stroke="none"/>
    <path d="M36.6 7.0 L38.25 5.35 38.25 41.65 25.95 41.65 27.6 40.0 36.6 40.0 36.6 7.0 M20.0 7.0 L21.65 5.35 21.65 41.65 9.35 41.65 11.0 40.0 20.0 40.0 20.0 7.0" fill="#999999" fill-rule="evenodd" stroke="none"/>
    <path d="M27.6 40.0 L27.6 7.0 36.6 7.0 36.6 40.0 27.6 40.0 M11.0 40.0 L11.0 7.0 20.0 7.0 20.0 40.0 11.0 40.0" fill="#ffffff" fill-rule="evenodd" stroke="none"/>
  </g>
</svg>
