<?xml version="1.0" encoding="UTF-8" standalone="no"?>
<svg xmlns:xlink="http://www.w3.org/1999/xlink" height="48.5px" width="28.0px" xmlns="http://www.w3.org/2000/svg">
  <g transform="matrix(1.0, 0.0, 0.0, 1.0, 14.0, 24.25)">
    <path d="M6.0 -15.75 Q6.0 -10.4 6.45 3.45 L6.8 17.25 11.0 18.75 8.0 22.0 6.75 23.1 6.75 23.25 6.15 23.55 4.5 24.25 -10.5 24.25 Q-13.15 23.2 -13.8 21.1 L-14.0 18.1 Q-14.0 12.85 -8.25 13.25 -5.2 13.45 1.55 15.55 0.2 9.7 -0.1 2.1 L0.0 -20.9 0.05 -22.95 0.25 -24.25 Q2.8 -24.25 7.3 -21.0 L14.0 -16.25 14.0 -5.0 13.05 -4.55 11.5 -3.75 Q8.8 -5.7 8.9 -9.2 L9.0 -14.5 6.0 -15.75 M-9.0 18.75 L0.0 19.0 -5.05 18.7 Q-9.0 18.55 -9.0 18.75" fill="#000000" fill-rule="evenodd" stroke="none"/>
  </g>
</svg>
