<?xml version="1.0" encoding="UTF-8" standalone="no"?>
<svg xmlns:xlink="http://www.w3.org/1999/xlink" height="99.85px" width="67.3px" xmlns="http://www.w3.org/2000/svg">
  <g transform="matrix(1.0, 0.0, 0.0, 1.0, 6.5, 32.65)">
    <path d="M49.15 48.55 Q49.65 47.8 49.65 46.85 49.65 45.75 48.95 44.9 47.85 43.55 46.25 42.45 L44.25 40.7 43.9 40.2 Q43.7 39.35 43.0 39.0 42.45 41.2 42.8 43.65 L43.0 46.1 Q43.35 48.8 42.1 51.25 41.0 53.45 40.3 55.65 L39.95 56.5 39.75 56.9 41.2 55.9 Q41.55 55.65 41.9 55.55 43.2 55.05 43.9 54.55 L45.5 52.95 Q47.5 50.9 49.15 48.55 M50.95 41.1 L54.9 38.5 54.0 41.95 Q54.0 42.3 54.55 42.55 L55.6 43.15 Q56.9 44.25 50.75 52.5 44.6 60.7 32.55 67.2 32.9 64.6 32.2 62.15 31.3 58.35 28.2 54.95 L29.3 59.35 Q27.3 58.5 23.0 57.4 L18.3 56.15 Q10.0 53.95 6.05 41.7 L7.3 38.5 8.9 41.1 19.55 35.05 19.2 40.2 22.8 38.4 31.45 32.35 34.7 36.3 37.95 31.4 Q42.1 37.9 50.95 41.1 M32.9 36.8 L32.7 37.05 32.35 37.5 32.0 38.0 31.65 38.5 Q30.0 41.1 30.55 44.15 30.55 44.9 30.0 45.1 L30.0 44.9 29.3 43.9 29.1 43.15 Q29.1 42.55 28.55 42.45 L28.55 42.9 Q28.05 47.8 29.65 52.5 L30.2 53.6 Q32.9 56.75 34.35 60.2 L34.35 60.1 36.5 57.65 39.55 53.2 Q40.45 51.75 40.65 50.05 40.85 48.55 40.1 47.1 38.65 43.3 35.4 39.75 L32.9 36.8 M14.5 39.0 L13.4 40.95 Q11.25 44.4 13.05 47.8 L14.35 50.25 Q15.6 52.25 18.45 53.35 L19.4 53.85 21.55 54.7 Q20.8 52.35 21.0 49.8 L21.2 48.55 21.35 45.35 Q21.2 42.2 22.1 39.25 L21.2 39.85 17.05 41.95 Q16.15 42.45 15.75 41.95 L15.6 41.45 Q15.05 40.35 15.05 39.25 L14.85 38.75 14.5 39.0" fill="#ff0000" fill-rule="evenodd" stroke="none"/>
    <path d="M49.15 48.55 Q47.5 50.9 45.5 52.95 L43.9 54.55 Q43.2 55.05 41.9 55.55 41.55 55.65 41.2 55.9 L39.75 56.9 39.95 56.5 40.3 55.65 Q41.0 53.45 42.1 51.25 43.35 48.8 43.0 46.1 L42.8 43.65 Q42.45 41.2 43.0 39.0 43.7 39.35 43.9 40.2 L44.25 40.7 46.25 42.45 Q47.85 43.55 48.95 44.9 49.65 45.75 49.65 46.85 49.65 47.8 49.15 48.55 M14.5 39.0 L14.85 38.75 15.05 39.25 Q15.05 40.35 15.6 41.45 L15.75 41.95 Q16.15 42.45 17.05 41.95 L21.2 39.85 22.1 39.25 Q21.2 42.2 21.35 45.35 L21.2 48.55 21.0 49.8 Q20.8 52.35 21.55 54.7 L19.4 53.85 18.45 53.35 Q15.6 52.25 14.35 50.25 L13.05 47.8 Q11.25 44.4 13.4 40.95 L14.5 39.0 M32.9 36.8 L35.4 39.75 Q38.65 43.3 40.1 47.1 40.85 48.55 40.65 50.05 40.45 51.75 39.55 53.2 L36.5 57.65 34.35 60.1 34.35 60.2 Q32.9 56.75 30.2 53.6 L29.65 52.5 Q28.05 47.8 28.55 42.9 L28.55 42.45 Q29.1 42.55 29.1 43.15 L29.3 43.9 30.0 44.9 30.0 45.1 Q30.55 44.9 30.55 44.15 30.0 41.1 31.65 38.5 L32.0 38.0 32.35 37.5 32.7 37.05 32.9 36.8" fill="#ffcc00" fill-rule="evenodd" stroke="none"/>
    <path d="M32.0 -2.45 L33.15 3.5 33.7 5.15 Q34.65 6.95 36.65 8.45 L39.0 10.65 39.25 10.95 Q40.05 11.7 40.35 12.6 L40.65 12.85 Q40.9 13.3 40.0 12.65 39.25 12.05 38.15 11.9 L37.7 11.75 37.2 11.5 Q37.7 15.55 34.9 18.95 32.85 21.5 32.6 24.45 L32.45 25.0 32.6 26.35 Q32.7 26.85 31.55 26.15 L30.7 25.8 29.65 25.6 27.2 23.25 Q23.85 20.5 22.5 17.55 L22.2 17.0 21.9 16.75 Q21.4 15.85 21.7 15.0 L22.0 14.25 Q23.55 9.3 27.3 4.8 L29.6 2.1 Q31.2 0.25 31.75 -1.75 L31.95 -2.0 32.0 -2.45 M49.15 7.35 Q50.05 7.5 50.05 8.45 49.9 9.15 50.05 9.85 L51.4 18.65 51.55 19.5 Q51.6 20.25 51.25 20.85 L51.1 21.4 50.9 21.7 50.55 22.8 Q50.45 23.35 49.8 23.6 L49.8 23.05 Q49.55 21.15 48.65 19.75 47.8 21.25 45.95 22.5 45.4 23.0 45.15 23.6 L44.8 24.1 43.1 26.15 42.45 27.0 42.2 27.45 42.1 28.5 38.8 30.5 38.4 30.7 37.95 30.8 Q38.0 31.15 37.6 30.25 L37.4 29.7 Q36.1 26.25 38.8 23.6 41.9 20.6 45.55 17.85 L46.8 16.45 Q48.3 14.1 48.75 11.2 48.8 9.95 49.3 8.75 L49.25 7.9 49.15 7.35 M17.9 4.9 L19.05 3.75 Q16.75 8.0 17.1 12.6 17.15 13.7 18.05 14.6 L18.5 15.35 19.45 17.55 20.15 19.5 Q21.2 22.7 18.0 23.75 L17.3 23.95 16.25 23.6 Q14.45 23.0 12.35 21.6 L11.2 20.85 10.7 20.6 Q10.7 19.95 11.85 20.45 L12.45 20.7 14.85 20.8 Q15.55 20.65 15.1 19.75 13.35 16.8 12.9 13.4 12.7 10.1 15.35 7.3 L16.8 5.75 17.9 4.9" fill="#ffcc00" fill-rule="evenodd" stroke="none"/>
    <path d="M32.0 -2.45 L31.95 -2.0 31.75 -1.75 Q31.2 0.25 29.6 2.1 L27.3 4.8 Q23.55 9.3 22.0 14.25 L21.7 15.0 Q21.4 15.85 21.9 16.75 L22.2 17.0 22.5 17.55 Q23.85 20.5 27.2 23.25 L29.65 25.6 30.7 25.8 31.55 26.15 Q32.7 26.85 32.6 26.35 L32.45 25.0 32.6 24.45 Q32.85 21.5 34.9 18.95 37.7 15.55 37.2 11.5 L37.7 11.75 38.15 11.9 Q39.25 12.05 40.0 12.65 40.9 13.3 40.65 12.85 L40.35 12.6 Q40.05 11.7 39.25 10.95 L39.0 10.65 36.65 8.45 Q34.65 6.95 33.7 5.15 L33.15 3.5 32.0 -2.45 M35.6 -7.5 Q36.6 -8.2 36.65 -9.2 37.05 -5.75 36.25 -2.55 L35.95 -1.8 Q34.95 0.75 36.8 3.5 L37.25 4.05 Q38.4 5.45 39.8 6.3 L40.45 6.8 Q41.9 8.0 43.55 9.0 43.55 7.3 45.0 5.75 46.7 3.85 49.55 2.6 L52.6 1.3 54.0 0.9 53.75 1.2 53.25 1.9 52.85 2.65 Q51.95 5.7 53.25 8.75 L53.95 10.1 54.75 11.75 Q55.75 13.75 56.1 15.9 L56.7 20.3 56.55 20.85 53.95 24.65 53.5 25.35 53.25 25.8 52.95 26.1 Q51.1 27.8 48.95 28.85 L48.55 29.15 46.1 30.3 44.75 30.85 Q43.65 31.2 42.3 31.7 L41.3 32.1 38.75 32.8 38.35 33.0 36.85 33.75 36.6 34.1 36.45 34.35 36.35 35.2 36.2 35.45 36.1 35.75 Q34.95 35.05 34.1 34.25 L33.7 33.6 32.95 32.8 Q31.05 30.8 28.7 29.05 L26.8 27.55 26.0 26.85 Q24.55 25.75 22.85 25.0 23.85 27.0 24.05 29.15 L24.15 29.7 23.7 29.05 Q22.8 27.95 21.15 27.4 L19.9 27.0 Q17.7 26.1 15.3 25.4 L14.2 25.0 10.85 23.25 10.1 22.85 Q7.3 21.05 6.6 18.65 L6.35 17.85 5.65 15.35 8.45 17.5 10.45 18.6 11.2 19.0 11.35 19.2 Q12.0 19.0 11.4 18.05 7.85 12.95 10.95 8.0 L13.35 4.4 14.5 3.3 Q18.2 0.9 22.35 -1.1 L24.35 -2.0 Q30.5 -4.35 35.6 -7.5 M17.9 4.9 L16.8 5.75 15.35 7.3 Q12.7 10.1 12.9 13.4 13.35 16.8 15.1 19.75 15.55 20.65 14.85 20.8 L12.45 20.7 11.85 20.45 Q10.7 19.95 10.7 20.6 L11.2 20.85 12.35 21.6 Q14.45 23.0 16.25 23.6 L17.3 23.95 18.0 23.75 Q21.2 22.7 20.15 19.5 L19.45 17.55 18.5 15.35 18.05 14.6 Q17.15 13.7 17.1 12.6 16.75 8.0 19.05 3.75 L17.9 4.9 M49.15 7.35 L49.25 7.9 49.3 8.75 Q48.8 9.95 48.75 11.2 48.3 14.1 46.8 16.45 L45.55 17.85 Q41.9 20.6 38.8 23.6 36.1 26.25 37.4 29.7 L37.6 30.25 Q38.0 31.15 37.95 30.8 L38.4 30.7 38.8 30.5 42.1 28.5 42.2 27.45 42.45 27.0 43.1 26.15 44.8 24.1 45.15 23.6 Q45.4 23.0 45.95 22.5 47.8 21.25 48.65 19.75 49.55 21.15 49.8 23.05 L49.8 23.6 Q50.45 23.35 50.55 22.8 L50.9 21.7 51.1 21.4 51.25 20.85 Q51.6 20.25 51.55 19.5 L51.4 18.65 50.05 9.85 Q49.9 9.15 50.05 8.45 50.05 7.5 49.15 7.35" fill="#ff0000" fill-rule="evenodd" stroke="none"/>
    <path d="M34.0 -31.75 Q34.7 -31.95 35.05 -32.45 35.2 -32.65 35.6 -32.65 34.5 -31.25 33.65 -29.4 L33.6 -29.05 36.0 -28.9 36.45 -28.7 37.2 -28.25 Q33.35 -27.35 31.45 -25.15 L30.4 -24.2 Q29.15 -23.3 28.95 -21.85 28.8 -20.55 29.0 -19.25 L28.7 -20.25 28.45 -22.65 Q28.15 -26.0 29.45 -28.75 29.7 -29.35 30.4 -29.4 32.4 -29.6 33.4 -31.35 L34.0 -31.75 M9.9 -7.9 Q11.15 -8.25 11.05 -7.2 10.95 -6.3 10.45 -5.85 L10.1 -5.4 9.8 -4.95 9.65 -4.85 Q9.35 -4.65 8.85 -4.55 L8.55 -4.45 Q8.15 -4.35 8.2 -4.9 L8.1 -5.2 8.1 -5.35 8.2 -5.55 9.65 -7.7 9.9 -7.9 M24.8 -16.65 Q25.15 -15.25 26.9 -14.4 L27.6 -14.2 Q28.35 -14.05 28.8 -14.65 28.5 -11.5 31.15 -10.15 L31.65 -9.9 Q32.85 -9.15 34.8 -8.95 L37.65 -9.2 Q37.0 -8.8 36.0 -8.85 L35.2 -8.8 31.2 -8.45 Q29.6 -8.25 28.7 -8.85 L28.05 -9.15 Q27.8 -9.25 27.7 -9.5 L24.95 -14.75 Q24.8 -15.05 24.8 -15.45 L24.8 -16.65 M28.75 -4.05 L30.4 -4.6 31.55 -5.15 Q32.7 -5.75 33.65 -4.7 34.55 -3.65 35.95 -3.25 L37.25 -2.75 38.4 -2.35 Q39.7 -2.2 39.45 -1.1 L38.6 2.2 Q38.1 3.8 39.6 4.15 39.2 5.0 38.2 5.65 38.0 5.75 38.1 6.1 39.0 9.5 42.0 9.65 44.9 9.8 47.55 8.85 L48.0 8.75 48.8 8.95 49.3 9.25 Q50.95 10.1 52.1 11.35 L52.85 12.15 53.6 13.25 Q54.6 14.95 54.95 17.05 L55.0 17.25 55.05 17.75 55.2 20.15 Q55.2 21.75 54.8 23.25 L54.45 23.5 Q52.45 24.3 50.75 25.65 L50.1 26.25 Q48.6 27.8 48.95 30.55 L49.05 31.35 Q49.3 33.25 50.5 33.95 L51.1 34.3 52.8 34.95 Q53.95 35.3 54.1 36.95 L54.35 38.55 Q55.35 44.0 52.15 47.9 L51.15 48.9 Q50.25 49.65 49.2 49.7 L44.8 50.1 Q42.05 50.45 39.9 49.15 L39.25 48.85 38.75 48.7 35.6 48.95 28.75 51.55 27.6 51.85 24.8 52.4 21.15 52.25 20.7 52.1 19.25 52.65 Q14.65 54.55 9.6 53.95 L9.3 53.7 7.75 50.5 7.7 49.8 8.75 46.15 Q9.05 45.0 8.05 44.8 L7.75 44.5 7.5 43.4 Q7.2 42.15 5.6 42.55 3.75 41.0 2.0 38.55 L-1.0 34.4 Q-1.8 33.35 -2.2 32.1 L-3.25 28.15 Q-4.8 20.35 0.55 14.3 L2.6 12.15 2.7 12.05 Q5.85 8.9 10.05 7.85 11.65 7.45 12.25 8.85 L12.75 9.4 16.2 9.5 16.55 9.0 Q17.0 7.95 18.05 7.5 L20.65 6.25 20.7 5.75 20.4 3.35 Q20.25 1.7 21.55 0.5 L22.8 -0.65 Q25.35 -3.15 28.75 -4.05 M48.15 -9.45 L48.35 -8.65 49.0 -6.95 Q49.45 -6.0 49.0 -5.6 L48.8 -5.05 Q48.8 -3.95 48.45 -3.25 47.65 -3.95 47.15 -5.05 46.1 -7.25 46.55 -9.8 L46.85 -10.15 Q47.5 -10.35 47.6 -11.05 L48.15 -9.45 M57.45 -10.7 L57.7 -11.4 Q58.15 -12.95 59.95 -12.5 L60.35 -12.2 Q61.3 -10.65 60.3 -9.55 L59.65 -9.0 57.65 -9.15 57.2 -9.45 57.1 -9.5 Q57.1 -10.05 57.45 -10.7 M-2.55 -16.0 L-2.55 -15.5 -2.45 -12.15 -3.5 -11.15 Q-4.4 -9.95 -4.4 -7.25 L-3.8 -3.65 -3.75 -3.55 Q-4.75 -4.35 -5.45 -5.65 L-6.35 -7.75 -6.45 -8.25 Q-6.6 -9.4 -6.1 -9.2 -5.9 -9.15 -5.8 -9.35 L-5.6 -9.8 Q-5.25 -12.55 -3.5 -14.95 L-2.55 -16.0" fill="#ff0000" fill-rule="evenodd" stroke="none"/>
  </g>
</svg>
