<?xml version="1.0" encoding="UTF-8" standalone="no"?>
<svg xmlns:xlink="http://www.w3.org/1999/xlink" height="47.6px" width="44.9px" xmlns="http://www.w3.org/2000/svg">
  <g transform="matrix(1.0, 0.0, 0.0, 1.0, 22.45, 23.8)">
    <path d="M21.85 17.2 L22.45 18.05 Q22.3 19.35 21.35 20.25 L20.05 21.6 18.25 23.8 15.55 21.25 16.95 20.05 Q17.5 19.3 17.55 18.45 L17.55 17.15 19.5 14.95 21.85 17.2 M17.1 -23.8 Q17.9 -23.45 18.55 -22.95 L20.75 -20.75 22.2 -18.3 19.1 -14.7 13.6 -19.15 17.1 -23.8 M-19.6 -10.55 L-22.3 -12.6 -22.45 -12.95 Q-21.25 -17.05 -18.0 -19.95 L-17.45 -20.4 -13.25 -18.45 -19.6 -10.55 M-16.25 22.9 L-17.7 22.05 -19.9 19.85 -21.35 17.4 -18.25 13.8 -12.75 18.25 -16.25 22.9" fill="#333333" fill-rule="evenodd" stroke="none"/>
  </g>
</svg>
