<?xml version="1.0" encoding="UTF-8" standalone="no"?>
<svg xmlns:xlink="http://www.w3.org/1999/xlink" height="50.4px" width="50.4px" xmlns="http://www.w3.org/2000/svg">
  <g transform="matrix(1.0, 0.0, 0.0, 1.0, 25.2, 25.2)">
    <path d="M-15.15 -20.15 Q-8.6 -25.2 0.0 -25.2 10.45 -25.2 17.85 -17.8 25.2 -10.45 25.2 0.0 25.2 10.45 17.85 17.85 10.45 25.2 0.0 25.2 -10.45 25.2 -17.8 17.85 -25.2 10.45 -25.2 0.0 -25.2 -10.25 -18.1 -17.5 L-19.0 -16.0 Q-26.05 -5.0 -22.75 7.6 -21.2 13.4 -16.05 16.8 -4.35 24.55 6.9 17.15 9.2 15.65 10.6 13.35 17.55 2.1 13.75 -10.55 9.55 -24.55 -4.55 -22.95 -10.35 -22.5 -15.4 -19.95 L-15.15 -20.15" fill="#471616" fill-rule="evenodd" stroke="none"/>
    <path d="M-9.0 -17.95 Q-6.4 -17.95 -4.55 -16.1 -2.7 -14.25 -2.7 -11.65 -2.7 -9.05 -4.55 -7.2 -6.4 -5.35 -9.0 -5.35 -11.6 -5.35 -13.45 -7.2 -15.3 -9.05 -15.3 -11.65 -15.3 -14.25 -13.45 -16.1 -11.6 -17.95 -9.0 -17.95" fill="#ff4d2d" fill-rule="evenodd" stroke="none"/>
    <path d="M-15.15 -20.15 L-15.4 -19.95 Q-10.35 -22.5 -4.55 -22.95 9.55 -24.55 13.75 -10.55 17.55 2.1 10.6 13.35 9.2 15.65 6.9 17.15 -4.35 24.55 -16.05 16.8 -21.2 13.4 -22.75 7.6 -26.05 -5.0 -19.0 -16.0 L-18.1 -17.5 -17.8 -17.8 -15.6 -19.8 -15.15 -20.15 M-9.0 -17.95 Q-11.6 -17.95 -13.45 -16.1 -15.3 -14.25 -15.3 -11.65 -15.3 -9.05 -13.45 -7.2 -11.6 -5.35 -9.0 -5.35 -6.4 -5.35 -4.55 -7.2 -2.7 -9.05 -2.7 -11.65 -2.7 -14.25 -4.55 -16.1 -6.4 -17.95 -9.0 -17.95" fill="#9b0000" fill-rule="evenodd" stroke="none"/>
  </g>
</svg>
