<?xml version="1.0" encoding="UTF-8" standalone="no"?>
<svg xmlns:xlink="http://www.w3.org/1999/xlink" height="57.3px" width="54.1px" xmlns="http://www.w3.org/2000/svg">
  <g transform="matrix(1.0, 0.0, 0.0, 1.0, 27.05, 28.65)">
    <path d="M18.75 -14.0 Q18.75 -11.45 20.2 -9.65 21.6 -7.85 23.65 -7.85 L21.65 -6.35 Q18.45 -7.15 16.45 -9.6 L16.1 -10.25 Q15.7 -11.35 16.5 -12.2 L18.75 -14.35 18.75 -14.0 M20.75 16.45 L19.65 15.8 17.4 13.25 Q17.7 9.3 20.8 7.1 21.7 6.5 22.85 6.85 23.9 7.2 24.85 7.95 L25.9 9.0 25.45 8.9 23.85 9.85 Q21.5 11.15 20.05 13.6 L20.75 16.45 M-3.7 27.25 L-3.2 23.3 0.65 22.65 4.1 22.7 3.9 28.0 Q0.65 26.65 -3.0 26.8 L-3.7 27.25 M-1.05 -28.35 L-0.05 -27.4 1.55 -24.8 2.1 -23.5 1.7 -23.3 0.15 -22.55 Q-3.65 -21.3 -7.6 -20.9 L-8.15 -25.5 -1.05 -28.35 M-25.95 -4.6 Q-23.85 -5.4 -21.6 -5.25 L-21.15 -5.15 Q-20.2 -4.2 -20.0 -2.7 -19.55 0.4 -20.15 3.8 L-20.85 4.5 -25.45 4.35 -25.2 2.25 Q-24.9 -1.25 -25.95 -4.6" fill="#333333" fill-rule="evenodd" stroke="none"/>
    <path d="M18.75 -14.0 L21.45 -16.45 Q23.65 -15.95 24.55 -14.0 25.6 -11.7 25.2 -9.2 L23.65 -7.85 Q21.6 -7.85 20.2 -9.65 18.75 -11.45 18.75 -14.0 M3.2 -5.0 Q5.1 -5.0 6.45 -3.65 7.8 -2.3 7.8 -0.35 7.8 1.6 6.45 2.95 5.1 4.3 3.2 4.3 1.3 4.3 -0.05 2.95 -1.4 1.6 -1.4 -0.35 -1.4 -2.3 -0.05 -3.65 1.3 -5.0 3.2 -5.0 M25.9 9.0 Q26.95 9.85 27.05 11.3 27.15 12.9 26.45 14.05 25.55 15.45 24.05 16.4 22.4 17.4 20.75 16.45 L20.05 13.6 Q21.5 11.15 23.85 9.85 L25.45 8.9 25.9 9.0 M3.9 28.0 L3.6 28.5 -2.25 28.35 Q-2.8 28.25 -3.25 27.85 L-3.7 27.25 -3.0 26.8 Q0.65 26.65 3.9 28.0 M-8.15 -25.5 L-8.45 -26.1 -8.1 -26.7 -1.4 -28.65 -1.05 -28.35 -8.15 -25.5 M-25.95 -4.6 Q-24.9 -1.25 -25.2 2.25 L-25.45 4.35 -26.0 4.35 -27.05 0.65 -26.2 -4.5 -25.95 -4.6" fill="#999999" fill-rule="evenodd" stroke="none"/>
  </g>
</svg>
