<?xml version="1.0" encoding="UTF-8" standalone="no"?>
<svg xmlns:xlink="http://www.w3.org/1999/xlink" height="49.75px" width="48.7px" xmlns="http://www.w3.org/2000/svg">
  <g transform="matrix(1.0, 0.0, 0.0, 1.0, -3.5, 2.8)">
    <path d="M31.4 -2.8 Q31.85 -2.8 31.8 -2.25 L31.5 -1.4 31.35 -1.05 31.25 -0.65 31.2 -0.05 31.0 0.35 Q30.3 1.2 30.45 2.35 L30.55 2.75 30.7 3.3 30.9 3.6 31.0 3.95 Q31.4 3.85 31.3 3.15 L31.4 2.55 Q31.75 1.25 33.2 1.05 L34.2 0.9 34.6 0.8 Q35.15 0.7 35.3 1.35 L35.35 1.55 Q35.95 2.55 37.0 3.0 L37.1 3.15 Q37.35 5.3 35.95 6.9 L34.6 8.2 Q33.7 8.95 32.6 9.05 L30.2 9.15 Q29.3 9.15 28.85 8.7 L27.0 6.75 Q26.45 6.25 25.8 6.25 L25.6 6.35 25.4 6.55 24.35 5.8 24.05 5.5 Q22.8 4.6 22.65 3.55 L22.65 3.15 Q22.85 2.65 23.6 2.1 L24.0 1.75 25.35 0.5 25.55 0.15 Q25.65 -0.7 26.45 -1.2 28.8 -2.75 31.4 -2.8 M48.05 12.05 L49.35 13.2 Q50.75 14.75 51.35 16.75 L52.1 18.6 52.2 18.95 Q52.35 20.35 51.2 20.6 L51.0 20.65 50.25 20.7 48.9 22.45 48.4 22.75 Q47.45 23.0 46.45 22.75 L46.3 22.6 45.8 21.75 Q44.9 20.55 45.3 19.3 L45.75 17.55 Q45.9 16.55 45.65 15.75 L45.6 15.35 Q45.45 14.3 44.9 13.5 L44.8 13.15 Q44.75 12.35 45.55 12.05 L46.8 11.75 48.05 12.05 M41.3 24.35 L41.3 25.75 41.4 31.75 Q41.4 34.3 39.65 36.2 L39.15 36.7 Q38.35 37.6 37.0 37.45 L35.8 37.35 Q34.25 37.3 33.4 37.95 L32.2 38.2 Q31.25 38.05 31.3 39.15 L31.3 39.55 Q31.2 40.95 30.55 42.1 L30.0 42.95 Q27.65 46.05 23.8 46.85 L23.0 46.95 19.2 46.6 18.6 46.5 17.6 46.15 15.05 45.25 13.65 43.5 Q13.25 42.8 13.2 41.95 13.1 40.75 13.45 39.75 L13.55 39.35 Q13.75 38.25 12.8 38.2 L11.35 37.85 11.0 37.75 8.15 37.0 6.75 36.0 6.25 35.5 Q5.05 34.35 4.55 32.75 3.35 29.0 3.55 24.95 L3.65 23.75 Q3.95 20.7 6.3 18.65 6.6 18.35 7.0 18.2 10.5 16.75 14.2 16.75 13.65 17.5 13.35 18.35 13.15 18.8 13.3 19.35 L13.55 19.8 15.0 19.75 14.8 21.6 15.0 21.7 Q16.3 22.15 17.1 24.0 17.65 25.2 17.7 26.55 17.75 28.8 16.9 30.7 17.3 30.4 17.8 30.2 L18.2 30.15 Q20.15 30.4 21.15 29.1 L21.9 27.75 22.15 26.95 22.25 26.55 Q22.5 24.85 24.2 24.35 L26.4 23.8 27.2 23.65 29.0 23.1 30.25 22.2 31.0 21.5 33.0 19.95 34.0 18.95 34.25 17.95 Q34.2 17.05 35.0 17.2 L36.6 17.6 36.8 17.7 Q38.45 18.25 39.75 19.8 L40.35 20.3 40.6 20.55 Q41.4 22.3 41.3 24.35 M49.4 41.35 L51.2 41.35 Q51.55 41.35 51.5 41.75 L51.5 41.95 Q51.7 42.85 51.35 43.55 50.2 45.9 47.8 46.45 L47.0 46.7 46.6 46.8 46.4 46.85 45.0 46.85 44.8 46.75 44.05 45.9 43.0 46.0 42.6 45.75 Q41.25 44.15 41.05 41.95 40.95 40.55 41.8 39.35 43.3 37.3 45.8 37.1 L46.4 37.15 Q48.35 37.65 49.4 39.35 49.75 39.85 49.7 40.35 L49.65 40.55 Q49.4 40.9 49.4 41.35 M9.75 10.65 L10.2 10.9 Q11.25 11.65 10.65 12.95 9.75 14.8 7.8 14.9 6.6 14.95 5.95 14.4 L5.7 14.15 5.7 14.1 5.75 13.75 5.8 13.4 5.95 12.8 6.35 11.95 Q7.6 9.9 9.75 10.65" fill="#ffcc00" fill-rule="evenodd" stroke="none"/>
  </g>
</svg>
