<?xml version="1.0" encoding="UTF-8" standalone="no"?>
<svg xmlns:xlink="http://www.w3.org/1999/xlink" height="79.7px" width="62.9px" xmlns="http://www.w3.org/2000/svg">
  <g transform="matrix(1.0, 0.0, 0.0, 1.0, 4.7, 10.3)">
    <path d="M49.15 40.95 Q50.2 41.45 50.55 40.95 51.3 39.6 52.75 38.5 52.2 39.75 52.35 41.45 L52.55 42.65 Q53.3 46.7 51.85 50.25 L51.45 50.75 Q50.4 52.7 49.5 54.95 L48.95 55.65 47.7 57.65 Q47.35 58.6 46.95 58.35 L47.15 58.1 47.35 56.9 47.15 56.65 Q46.8 56.4 46.8 55.9 46.95 54.3 46.25 52.95 L44.6 55.4 41.55 58.1 37.25 60.8 Q36.35 61.3 35.6 61.9 33.45 63.15 32.0 64.75 31.45 65.35 31.3 66.45 L31.3 66.7 Q31.1 67.45 31.3 68.15 31.3 69.05 30.75 69.4 30.55 68.3 29.65 67.9 L29.45 67.7 29.1 67.2 Q28.05 65.7 27.3 64.0 L27.3 63.75 Q26.6 62.05 26.75 60.1 26.75 57.75 26.25 55.65 25.85 54.2 24.95 52.5 L24.4 51.5 Q23.9 50.5 23.15 50.05 21.7 51.6 21.2 53.7 L21.2 54.45 Q20.8 57.4 21.7 60.1 21.2 59.35 20.1 58.75 L18.1 57.85 16.15 57.0 Q13.4 55.8 11.25 53.7 L10.7 52.95 9.8 51.75 Q8.75 50.75 8.2 49.55 7.3 47.35 7.1 44.9 7.1 42.45 8.0 40.2 L8.0 40.1 9.1 40.7 9.45 40.85 10.2 40.85 10.7 40.6 12.35 39.6 13.05 39.25 Q13.25 39.1 13.4 39.1 L14.5 38.75 Q15.25 38.0 16.65 37.3 L17.05 37.05 19.9 35.05 19.9 35.3 19.75 35.55 19.2 39.95 21.55 38.65 21.9 38.25 24.6 36.3 25.15 35.95 Q26.25 35.05 27.85 34.35 L28.4 33.95 Q30.2 32.75 31.8 32.15 L32.2 33.1 32.55 33.6 32.7 33.95 34.9 36.4 Q35.6 37.05 35.8 36.8 L35.95 36.55 36.85 34.1 Q37.4 33.1 37.95 32.6 38.15 33.5 38.85 34.2 L39.4 34.85 Q40.45 36.05 42.1 36.9 L42.8 37.5 Q43.55 38.15 44.45 38.5 L49.15 40.95 M15.6 40.7 L15.25 40.85 Q14.15 40.95 14.5 39.95 13.05 41.1 11.6 42.9 10.2 44.9 10.55 47.35 11.1 50.05 13.25 52.5 L13.6 52.95 14.5 53.85 Q14.35 53.6 14.35 53.2 L14.7 51.75 14.7 51.25 15.05 50.25 16.3 46.35 16.5 45.6 16.65 39.75 15.6 40.7 M41.9 40.2 Q41.35 39.5 41.2 39.95 L39.55 42.45 Q39.05 43.55 39.05 44.9 39.4 49.65 37.95 54.2 L37.95 54.55 Q38.15 54.3 38.65 54.2 L38.85 53.95 Q39.05 53.45 39.75 53.2 L41.55 52.25 43.7 51.15 44.45 50.9 Q45.5 50.75 45.15 51.75 L46.05 50.75 47.7 48.9 47.7 48.8 47.7 48.55 47.35 46.35 Q46.05 43.05 42.3 40.45 L41.9 40.2 M34.0 43.9 L32.9 47.95 30.55 43.65 Q28.55 39.95 30.35 36.55 L27.5 41.1 Q24.25 45.5 26.05 50.05 L28.75 56.75 29.3 58.25 29.45 62.65 30.2 61.65 Q35.95 57.15 35.8 51.0 35.6 48.05 34.7 45.25 L34.0 43.9" fill="#ff0000" fill-rule="evenodd" stroke="none"/>
    <path d="M41.9 40.2 L42.3 40.45 Q46.05 43.05 47.35 46.35 L47.7 48.55 47.7 48.8 47.7 48.9 46.05 50.75 45.15 51.75 Q45.5 50.75 44.45 50.9 L43.7 51.15 41.55 52.25 39.75 53.2 Q39.05 53.45 38.85 53.95 L38.65 54.2 Q38.15 54.3 37.95 54.55 L37.95 54.2 Q39.4 49.65 39.05 44.9 39.05 43.55 39.55 42.45 L41.2 39.95 Q41.35 39.5 41.9 40.2 M15.6 40.7 L16.65 39.75 16.5 45.6 16.3 46.35 15.05 50.25 14.7 51.25 14.7 51.75 14.35 53.2 Q14.35 53.6 14.5 53.85 L13.6 52.95 13.25 52.5 Q11.1 50.05 10.55 47.35 10.2 44.9 11.6 42.9 13.05 41.1 14.5 39.95 14.15 40.95 15.25 40.85 L15.6 40.7 M34.0 43.9 L34.7 45.25 Q35.6 48.05 35.8 51.0 35.95 57.15 30.2 61.65 L29.45 62.65 29.3 58.25 28.75 56.75 26.05 50.05 Q24.25 45.5 27.5 41.1 L30.35 36.55 Q28.55 39.95 30.55 43.65 L32.9 47.95 34.0 43.9" fill="#ffcc00" fill-rule="evenodd" stroke="none"/>
    <path d="M33.85 -2.0 L36.95 5.7 Q38.0 8.4 40.15 10.75 L40.45 11.2 Q41.15 12.05 41.1 13.15 L40.65 14.3 40.35 14.75 38.65 17.3 36.3 20.65 36.1 21.05 Q35.6 21.75 35.45 22.5 L35.3 23.05 35.35 23.9 Q35.45 24.35 34.25 23.7 L32.05 22.7 Q30.35 22.05 29.15 21.2 L28.55 20.8 27.05 19.4 26.5 18.4 26.45 17.95 25.7 17.5 Q21.95 14.85 20.6 11.75 19.95 10.2 20.15 8.75 L20.3 7.65 Q20.45 5.5 21.8 3.55 L23.3 1.55 Q23.7 0.8 24.75 0.2 24.7 1.3 25.65 2.1 L26.05 2.4 26.9 2.05 Q29.25 0.65 32.3 0.0 L32.95 -0.2 Q34.05 -0.85 33.85 -2.0 M50.85 10.4 L51.5 12.05 52.15 15.35 Q52.6 18.3 50.65 20.85 L49.85 21.9 Q46.65 24.95 42.25 26.9 43.75 25.35 44.35 23.6 L44.75 22.8 Q45.65 21.25 45.4 19.5 L45.3 18.95 44.85 19.0 Q44.45 19.05 44.35 19.3 L43.35 20.1 Q41.75 21.05 40.9 21.95 41.3 19.2 43.55 16.75 43.75 16.45 44.1 16.25 44.55 15.9 45.15 15.6 48.8 13.7 49.85 11.2 L50.35 9.55 50.8 10.1 50.85 10.4 M22.5 20.6 Q21.2 21.55 20.1 23.05 L20.05 23.35 Q20.15 24.35 18.15 24.1 L17.65 23.95 Q15.15 23.4 12.65 22.05 L11.9 21.6 11.15 21.2 9.85 20.4 9.3 19.2 9.15 18.95 9.0 18.65 Q10.15 18.8 11.25 19.3 L13.1 19.35 13.45 18.95 Q13.9 17.55 13.75 16.2 13.55 13.55 14.5 11.2 15.15 9.3 16.65 8.2 L16.7 9.0 Q17.0 12.25 18.7 15.3 L19.3 16.2 21.25 18.1 22.7 19.75 22.8 20.3 22.5 20.6" fill="#ffcc00" fill-rule="evenodd" stroke="none"/>
    <path d="M24.8 -4.5 Q24.6 -3.6 25.45 -3.3 L25.85 -3.1 Q26.45 -2.2 28.35 -2.2 29.85 -2.2 30.45 -2.65 L32.05 -4.0 32.4 -4.5 33.55 -6.95 33.6 -7.25 Q33.6 -8.0 34.25 -8.3 L34.7 -8.7 Q35.7 -9.6 36.9 -10.3 L37.05 -9.45 36.9 -8.95 Q36.55 -8.35 36.7 -7.5 L37.35 -4.75 37.35 -3.95 Q37.6 -1.45 38.15 1.0 38.5 2.55 39.4 3.5 41.2 5.35 44.7 7.0 46.25 7.7 48.0 9.1 L48.1 9.2 48.1 8.45 48.15 8.1 48.2 7.7 Q48.15 6.95 48.4 6.25 48.95 3.85 49.95 1.55 49.9 4.65 52.2 7.1 L56.05 11.55 Q57.75 13.65 58.15 16.45 58.3 17.9 57.95 19.2 L57.15 21.15 56.35 22.25 54.45 24.15 53.95 24.65 52.1 25.6 51.45 25.95 48.95 27.15 47.05 27.9 43.55 29.2 43.15 29.35 42.35 29.55 Q40.8 30.25 38.8 31.25 L38.2 31.7 35.75 33.8 35.55 34.0 34.65 33.25 34.25 33.0 30.8 30.7 28.4 28.9 Q25.95 27.35 23.85 25.55 L23.55 25.25 Q23.15 24.25 22.2 23.9 L22.1 24.15 21.95 24.45 21.85 25.25 21.7 25.55 Q21.15 27.05 21.7 28.85 19.6 26.6 16.55 25.25 14.8 24.5 13.0 23.35 L11.85 22.6 10.6 21.9 8.7 20.4 Q7.8 19.5 7.55 18.1 L7.25 17.6 Q6.65 17.0 6.65 15.9 6.6 15.6 6.85 15.4 L7.05 14.25 7.1 13.15 7.25 13.95 7.45 14.45 Q9.45 16.65 12.45 17.85 L12.0 15.35 Q11.95 15.05 12.2 14.85 12.5 14.25 12.05 13.15 L12.25 12.75 Q12.75 12.5 12.45 11.75 12.25 11.5 12.45 11.3 12.8 10.65 12.6 9.55 L12.65 8.45 13.2 6.0 13.45 5.45 13.85 4.6 Q15.0 2.25 17.0 0.65 L24.8 -4.5 M33.85 -2.0 Q34.05 -0.85 32.95 -0.2 L32.3 0.0 Q29.25 0.65 26.9 2.05 L26.05 2.4 25.65 2.1 Q24.7 1.3 24.75 0.2 23.7 0.8 23.3 1.55 L21.8 3.55 Q20.45 5.5 20.3 7.65 L20.15 8.75 Q19.95 10.2 20.6 11.75 21.95 14.85 25.7 17.5 L26.45 17.95 26.5 18.4 27.05 19.4 28.55 20.8 29.15 21.2 Q30.35 22.05 32.05 22.7 L34.25 23.7 Q35.45 24.35 35.35 23.9 L35.3 23.05 35.45 22.5 Q35.6 21.75 36.1 21.05 L36.3 20.65 38.65 17.3 40.35 14.75 40.65 14.3 41.1 13.15 Q41.15 12.05 40.45 11.2 L40.15 10.75 Q38.0 8.4 36.95 5.7 L33.85 -2.0 M50.85 10.4 L50.8 10.1 50.35 9.55 49.85 11.2 Q48.8 13.7 45.15 15.6 44.55 15.9 44.1 16.25 43.75 16.45 43.55 16.75 41.3 19.2 40.9 21.95 41.75 21.05 43.35 20.1 L44.35 19.3 Q44.45 19.05 44.85 19.0 L45.3 18.95 45.4 19.5 Q45.65 21.25 44.75 22.8 L44.35 23.6 Q43.75 25.35 42.25 26.9 46.65 24.95 49.85 21.9 L50.65 20.85 Q52.6 18.3 52.15 15.35 L51.5 12.05 50.85 10.4 M22.5 20.6 L22.8 20.3 22.7 19.75 21.25 18.1 19.3 16.2 18.7 15.3 Q17.0 12.25 16.7 9.0 L16.65 8.2 Q15.15 9.3 14.5 11.2 13.55 13.55 13.75 16.2 13.9 17.55 13.45 18.95 L13.1 19.35 11.25 19.3 Q10.15 18.8 9.0 18.65 L9.15 18.95 9.3 19.2 9.85 20.4 11.15 21.2 11.9 21.6 12.65 22.05 Q15.15 23.4 17.65 23.95 L18.15 24.1 Q20.15 24.35 20.05 23.35 L20.1 23.05 Q21.2 21.55 22.5 20.6" fill="#ff0000" fill-rule="evenodd" stroke="none"/>
    <path d="M43.65 7.0 Q44.85 6.1 46.4 5.75 L48.4 5.55 49.2 5.7 Q53.05 7.3 52.55 12.95 L52.25 16.95 Q52.0 19.3 50.85 20.2 L50.35 20.45 48.4 21.35 Q45.85 22.55 46.05 25.35 46.1 26.25 47.2 26.35 L47.45 26.6 47.6 27.75 Q47.55 28.4 48.4 28.2 L50.4 27.95 50.8 28.0 Q53.25 28.3 53.75 30.1 L53.9 30.6 Q54.35 32.0 54.35 33.75 54.4 36.65 52.9 38.25 L52.4 38.95 Q50.95 41.45 48.35 42.8 L46.75 43.6 45.45 43.55 44.8 43.35 42.0 43.5 41.2 43.55 Q39.65 43.6 38.5 44.3 37.25 45.05 37.7 46.55 L37.85 47.35 Q38.0 48.5 37.1 49.25 L33.9 51.6 32.8 52.2 Q29.3 53.65 25.2 53.2 L24.75 53.05 22.85 52.35 20.5 52.3 19.5 51.9 Q18.7 51.45 18.65 50.15 18.6 49.35 18.1 48.85 L17.55 48.15 15.95 45.35 Q15.55 44.6 14.8 44.45 L14.0 44.3 12.0 44.05 Q10.35 43.9 9.05 44.65 L8.4 44.55 Q6.35 43.55 6.4 40.95 L6.05 40.85 5.55 40.65 Q4.35 40.2 4.55 38.55 L4.75 38.1 Q6.1 35.65 5.85 32.55 L5.55 31.8 Q5.1 31.25 4.1 31.0 L3.5 30.7 -0.65 27.55 -1.6 26.55 Q-5.0 21.8 -4.65 16.15 L-4.4 14.95 Q-2.9 10.4 0.3 7.25 L1.3 6.25 Q3.1 4.45 5.6 3.75 L6.8 3.35 Q8.5 2.7 10.4 2.75 L11.6 2.6 Q14.05 2.1 14.65 3.4 L14.8 4.15 Q14.7 6.1 15.4 7.65 15.95 8.95 17.2 9.1 18.45 9.2 19.2 8.15 L20.4 6.55 Q20.6 6.35 20.8 6.3 22.45 6.1 23.4 4.8 L23.75 4.25 25.35 1.85 Q27.15 -0.4 31.2 -0.6 33.75 -0.75 35.3 0.4 L38.35 2.65 Q40.05 3.85 39.7 6.15 39.5 7.7 41.2 7.5 L43.15 7.2 43.65 7.0" fill="#ff0000" fill-rule="evenodd" stroke="none"/>
  </g>
</svg>
