<?xml version="1.0" encoding="UTF-8" standalone="no"?>
<svg xmlns:xlink="http://www.w3.org/1999/xlink" height="43.0px" width="52.2px" xmlns="http://www.w3.org/2000/svg">
  <g transform="matrix(1.0, 0.0, 0.0, 1.0, 0.2, -1.1)">
    <path d="M45.3 9.35 L45.3 8.95 45.4 8.55 Q46.0 6.85 48.0 7.2 49.2 7.45 50.15 8.2 52.2 9.75 51.95 12.35 L51.45 14.15 51.2 14.75 Q50.3 16.8 48.75 17.65 L48.4 17.8 48.2 17.85 48.0 17.8 47.75 17.75 47.15 18.25 46.8 18.35 Q45.8 18.45 45.5 17.9 L45.35 17.55 Q44.9 16.2 45.3 14.9 L45.4 14.35 Q45.4 13.5 45.8 12.75 46.15 12.05 46.0 11.15 L45.9 10.8 45.65 10.3 Q45.35 9.9 45.3 9.35 M42.7 27.6 L42.6 27.75 Q41.9 28.45 41.75 29.75 41.6 31.3 42.6 32.35 42.85 31.75 43.8 31.5 L45.8 31.25 46.2 31.35 Q47.65 32.35 48.3 33.9 48.8 35.3 48.65 36.95 48.35 39.7 46.25 41.4 45.65 41.85 44.8 41.85 L44.0 41.9 Q41.4 42.25 39.35 40.85 L38.05 39.9 37.75 39.6 Q37.5 39.25 37.45 38.55 L37.3 37.15 37.25 36.95 Q37.0 36.55 36.4 36.95 L36.2 37.1 35.35 37.05 35.2 37.1 33.7 38.25 Q33.6 38.35 33.65 38.55 33.9 40.8 32.65 42.4 L32.1 43.05 31.85 43.25 30.35 43.9 30.0 44.0 29.2 44.05 29.0 43.95 26.95 42.0 26.6 41.75 Q24.95 41.05 23.0 41.2 21.8 41.3 20.8 41.75 19.65 42.3 19.4 43.35 19.05 43.3 19.1 42.75 L19.0 42.35 Q18.3 40.7 17.35 39.65 L17.15 39.4 Q16.75 39.0 16.0 38.85 L15.8 38.85 15.4 38.9 15.15 39.0 14.6 38.55 Q13.25 37.55 12.25 36.1 L11.85 35.35 Q10.75 32.45 11.5 29.35 11.75 28.2 12.65 27.4 L13.95 26.3 15.45 25.25 16.5 24.45 16.8 24.35 Q18.55 24.55 19.45 23.4 19.75 23.1 20.4 23.15 21.55 23.3 21.95 22.65 L22.2 22.5 22.4 22.35 23.8 22.1 25.4 22.25 25.6 22.3 Q26.65 22.55 27.5 23.25 L27.8 23.4 28.0 23.5 Q28.75 23.95 28.85 24.75 L28.95 25.75 Q29.0 26.9 29.75 27.6 30.3 28.2 31.0 28.3 L32.2 28.45 32.4 28.55 Q32.85 28.9 33.6 29.05 L33.8 29.1 35.0 29.4 Q36.8 29.45 38.25 28.6 L38.75 28.3 39.5 27.6 39.95 26.9 40.9 25.85 Q41.0 25.75 41.2 25.75 41.9 25.75 42.05 26.55 L42.2 26.75 42.7 27.6 M37.8 5.95 Q38.3 6.6 38.4 7.75 38.45 9.35 37.2 10.35 35.8 11.55 33.85 11.35 L33.8 11.35 33.25 11.25 Q32.9 10.85 32.95 9.95 L33.1 8.55 Q33.2 7.75 33.6 6.95 L34.5 5.65 35.0 5.45 37.0 5.45 Q37.45 5.45 37.8 5.95 M32.4 2.35 Q31.85 3.8 32.7 4.65 L32.75 4.95 32.3 5.85 31.95 6.3 Q31.35 7.25 31.3 8.35 L31.3 9.15 Q31.25 10.55 30.8 11.75 30.55 12.25 29.8 12.2 28.6 12.15 27.55 11.6 L26.2 11.05 Q24.75 10.65 24.55 9.15 24.4 8.3 24.85 7.65 L24.8 7.35 Q24.55 5.3 25.8 3.75 L26.25 3.2 Q27.5 1.9 29.2 1.35 L29.8 1.15 Q30.6 0.95 30.9 1.5 L31.2 1.95 Q31.6 2.45 32.4 2.35 M12.6 10.6 Q13.8 11.45 14.75 13.0 15.1 13.6 15.25 14.35 15.65 16.2 14.95 17.95 14.05 20.15 12.45 21.8 10.45 23.75 8.2 24.3 L8.05 24.35 7.75 24.45 7.6 24.5 6.8 24.7 4.4 24.65 4.05 24.5 Q2.8 23.35 2.2 21.95 L2.0 21.55 1.7 20.55 Q1.55 20.0 1.0 19.6 0.1 18.95 -0.15 17.75 L-0.2 16.95 Q-0.1 14.45 1.3 12.3 L1.85 11.4 Q3.05 9.45 5.15 8.45 L6.6 8.05 7.6 7.95 9.15 8.1 9.5 8.4 Q10.35 10.1 12.2 10.4 L12.6 10.6 M13.1 5.35 Q13.25 6.3 12.65 6.6 L11.95 6.85 11.4 7.0 11.0 7.0 Q10.2 6.85 10.1 5.95 9.9 4.55 11.2 4.2 12.7 3.85 13.05 5.15 L13.1 5.35" fill="#ffcc00" fill-rule="evenodd" stroke="none"/>
  </g>
</svg>
