<?xml version="1.0" encoding="UTF-8" standalone="no"?>
<svg xmlns:xlink="http://www.w3.org/1999/xlink" height="80.4px" width="62.65px" xmlns="http://www.w3.org/2000/svg">
  <g transform="matrix(1.0, 0.0, 0.0, 1.0, 4.4, 12.7)">
    <path d="M42.3 38.5 Q45.15 40.45 47.7 41.45 48.95 42.05 49.85 41.2 L51.3 40.2 51.1 40.45 Q50.95 41.1 50.95 41.7 L51.1 44.15 Q51.3 45.75 51.1 47.35 51.1 49.65 49.5 51.75 L45.7 55.9 41.0 60.1 41.35 59.7 Q42.3 58.85 42.3 57.85 42.3 56.4 42.65 54.95 L43.2 52.95 43.35 52.7 43.2 52.7 42.8 53.1 40.45 55.15 36.85 58.1 36.35 58.6 33.8 60.8 Q31.1 62.65 29.85 65.25 L29.45 65.7 Q29.1 66.35 29.1 66.95 L28.95 67.7 28.95 67.2 28.75 66.7 28.55 66.2 28.05 65.25 27.15 64.35 25.7 62.55 25.15 62.05 Q23.5 59.85 22.8 57.4 L22.6 56.65 22.25 53.45 Q22.25 52.0 22.6 50.75 23.0 49.9 22.45 49.55 L19.4 53.2 Q18.1 54.8 18.3 56.65 18.3 57.5 17.75 57.85 L15.6 55.15 15.75 56.15 15.75 56.65 Q15.75 57.65 16.15 58.35 16.5 59.1 16.3 59.1 14.85 57.65 12.7 56.4 12.35 56.3 12.15 56.05 L12.0 55.9 10.9 55.15 Q8.4 53.7 7.3 51.5 L7.1 51.0 Q6.4 48.9 6.55 46.6 L6.75 45.6 8.0 40.85 10.2 40.45 10.55 40.35 Q11.6 40.35 12.35 39.75 L12.7 39.5 Q16.15 38.25 18.65 36.05 19.4 35.45 19.2 35.8 L18.65 38.5 18.65 39.75 18.45 40.45 24.4 36.4 25.15 36.15 27.3 34.95 28.05 34.2 30.75 32.6 Q30.75 33.35 31.1 33.85 31.65 34.85 32.7 35.7 33.6 36.15 34.15 36.65 L36.15 36.55 36.35 36.05 Q36.7 34.6 37.95 33.85 38.3 35.05 39.4 36.3 L41.75 38.25 42.3 38.5 M28.05 42.65 L27.85 43.65 Q26.25 47.1 24.25 50.25 L24.05 50.75 Q23.9 53.2 23.9 55.65 23.9 56.75 24.4 57.85 L25.5 60.1 Q26.25 61.8 27.5 62.75 27.5 62.4 27.65 62.05 L27.65 61.8 28.05 61.3 Q28.75 59.95 30.2 58.35 L30.55 57.85 Q31.45 57.0 31.8 56.15 L32.0 55.9 32.2 53.45 Q32.35 52.0 31.8 50.75 31.65 51.75 30.35 52.25 L30.35 48.55 30.2 47.55 28.55 40.2 28.55 40.95 28.4 41.45 Q28.05 41.8 28.05 42.65 M8.9 46.35 Q8.75 47.55 8.75 48.8 8.55 51.5 10.2 53.7 L10.7 54.45 Q11.1 55.15 11.8 55.4 L12.15 54.45 12.15 53.95 12.5 52.95 12.5 52.7 12.7 52.25 Q12.7 50.65 13.25 49.3 L14.85 45.6 15.25 44.4 15.05 43.9 Q14.7 43.4 14.85 42.45 14.85 41.3 15.25 40.2 14.35 41.1 12.35 42.2 12.0 42.3 11.8 42.55 9.8 44.0 9.1 45.85 L8.9 46.35 M45.0 47.8 Q45.35 45.5 43.7 43.65 L43.55 43.4 43.0 42.65 Q40.65 40.95 39.4 39.75 L38.3 40.95 Q38.15 41.1 38.15 41.2 L37.75 41.55 Q37.05 42.45 36.7 43.9 L36.35 44.5 Q35.95 45.0 35.95 45.6 36.35 48.2 35.95 50.5 L35.6 51.5 35.25 52.95 Q35.05 54.7 34.15 56.3 L35.05 56.65 35.25 56.3 37.25 54.45 37.4 54.2 Q38.5 52.5 41.2 51.25 L41.55 51.0 Q41.9 50.4 43.35 50.65 44.8 50.75 44.8 50.05 L45.0 47.8" fill="#ff0000" fill-rule="evenodd" stroke="none"/>
    <path d="M45.0 47.8 L44.8 50.05 Q44.8 50.75 43.35 50.65 41.9 50.4 41.55 51.0 L41.2 51.25 Q38.5 52.5 37.4 54.2 L37.25 54.45 35.25 56.3 35.05 56.65 34.15 56.3 Q35.05 54.7 35.25 52.95 L35.6 51.5 35.95 50.5 Q36.35 48.2 35.95 45.6 35.95 45.0 36.35 44.5 L36.7 43.9 Q37.05 42.45 37.75 41.55 L38.15 41.2 Q38.15 41.1 38.3 40.95 L39.4 39.75 Q40.65 40.95 43.0 42.65 L43.55 43.4 43.7 43.65 Q45.35 45.5 45.0 47.8 M8.9 46.35 L9.1 45.85 Q9.8 44.0 11.8 42.55 12.0 42.3 12.35 42.2 14.35 41.1 15.25 40.2 14.85 41.3 14.85 42.45 14.7 43.4 15.05 43.9 L15.25 44.4 14.85 45.6 13.25 49.3 Q12.7 50.65 12.7 52.25 L12.5 52.7 12.5 52.95 12.15 53.95 12.15 54.45 11.8 55.4 Q11.1 55.15 10.7 54.45 L10.2 53.7 Q8.55 51.5 8.75 48.8 8.75 47.55 8.9 46.35 M28.05 42.65 Q28.05 41.8 28.4 41.45 L28.55 40.95 28.55 40.2 30.2 47.55 30.35 48.55 30.35 52.25 Q31.65 51.75 31.8 50.75 32.35 52.0 32.2 53.45 L32.0 55.9 31.8 56.15 Q31.45 57.0 30.55 57.85 L30.2 58.35 Q28.75 59.95 28.05 61.3 L27.65 61.8 27.65 62.05 Q27.5 62.4 27.5 62.75 26.25 61.8 25.5 60.1 L24.4 57.85 Q23.9 56.75 23.9 55.65 23.9 53.2 24.05 50.75 L24.25 50.25 Q26.25 47.1 27.85 43.65 L28.05 42.65" fill="#ffcc00" fill-rule="evenodd" stroke="none"/>
    <path d="M29.8 -0.75 L30.2 -0.45 Q30.75 0.1 31.0 1.0 L31.15 1.3 31.5 1.85 31.7 2.4 Q32.45 4.6 34.5 6.55 35.45 7.5 37.4 7.65 L38.15 7.5 39.65 7.45 Q40.45 7.45 40.85 7.85 L41.45 8.55 41.95 8.85 Q42.85 9.4 43.25 10.4 L43.55 10.85 Q44.7 12.05 44.65 13.4 L44.7 14.25 Q44.95 15.5 44.4 16.45 L43.35 18.6 Q41.85 21.75 38.65 24.25 36.2 26.25 33.7 27.45 33.4 24.95 32.25 22.5 L31.9 21.95 31.65 20.6 Q31.4 16.45 27.4 12.95 L24.25 10.1 24.3 10.95 24.2 11.5 24.0 11.95 Q23.65 12.85 24.15 14.25 L25.15 15.9 Q26.1 17.05 26.15 18.4 L22.75 16.4 16.7 13.1 14.5 11.85 Q12.3 10.6 11.85 8.45 L10.95 5.45 Q10.4 3.75 11.1 2.4 11.9 3.3 14.0 4.1 15.0 4.55 16.45 4.6 18.75 4.75 19.15 3.75 19.2 3.65 19.45 3.65 L22.15 3.45 Q24.6 3.35 25.65 2.65 L28.85 0.45 29.15 0.2 29.8 -0.75 M47.6 16.95 L49.7 15.05 51.05 13.65 51.55 13.15 Q52.55 11.95 52.9 10.4 55.0 17.7 50.0 23.55 L49.5 23.95 46.5 25.55 46.2 23.9 46.0 22.8 Q44.3 23.2 42.95 23.95 43.6 19.95 47.6 16.95 M9.6 16.95 Q13.7 18.15 18.0 18.25 L19.3 18.45 20.15 19.0 21.45 19.75 Q20.95 20.25 19.25 20.15 L18.35 20.25 Q17.55 20.4 17.85 21.15 L17.75 21.4 17.45 22.1 16.9 22.3 16.5 22.5 15.55 23.6 14.95 23.25 Q11.2 21.4 8.3 19.15 7.7 18.7 7.4 18.1 L7.2 17.55 6.6 15.6 Q7.7 16.4 9.6 16.95" fill="#ffcc00" fill-rule="evenodd" stroke="none"/>
    <path d="M11.4 -2.65 L11.4 -2.55 12.0 -1.2 12.05 -0.9 Q12.25 0.2 13.2 1.0 L13.6 1.2 Q16.35 2.05 19.6 1.9 21.85 1.85 23.45 1.2 L24.5 0.8 Q26.15 0.35 27.2 -0.65 L29.65 -2.85 Q30.75 -3.8 31.0 -4.75 L31.25 -5.25 31.65 -6.15 31.8 -6.55 31.8 -6.4 32.15 -5.85 32.45 -5.3 Q33.05 -4.0 34.35 -3.6 34.95 -3.4 34.85 -2.85 34.75 -1.55 35.25 -0.1 36.4 3.15 38.9 5.7 39.35 6.2 39.9 6.2 42.35 6.0 43.3 6.8 L43.65 7.0 44.35 7.2 46.65 8.45 47.05 8.75 47.4 9.2 48.15 10.4 48.2 10.65 48.55 11.5 Q48.5 11.35 48.6 11.2 L48.7 10.95 48.4 7.65 Q48.25 5.5 47.1 3.5 46.55 2.45 47.3 2.1 L47.45 2.4 47.75 2.65 48.15 3.1 Q49.4 3.85 50.6 5.15 L51.3 5.9 55.85 10.45 56.35 10.8 Q56.95 11.1 57.1 11.75 L57.65 15.05 Q58.1 20.6 53.85 23.35 L53.55 23.6 Q53.0 24.3 52.25 24.7 L45.95 27.55 Q44.05 28.25 41.8 29.4 38.85 30.8 37.0 33.0 L36.0 34.35 35.6 34.25 Q34.85 33.8 33.5 33.9 L31.85 33.75 31.5 33.35 Q30.6 32.3 30.65 31.05 L30.85 30.55 Q31.15 30.15 30.9 29.4 30.55 28.05 29.25 27.15 L28.3 26.45 25.85 24.15 25.55 23.6 Q25.5 22.7 24.65 22.5 22.9 23.2 22.05 24.35 L21.7 25.05 Q20.85 26.7 20.75 28.6 L18.0 25.8 Q16.9 24.8 15.0 24.1 L14.45 23.95 Q11.0 22.8 8.15 21.4 L7.75 21.15 5.7 19.15 5.3 18.7 Q4.15 17.55 3.8 16.2 L3.75 15.9 3.15 14.5 Q2.75 13.5 3.45 13.15 4.8 14.05 6.9 14.5 L7.65 14.85 Q8.15 15.3 9.35 15.5 L15.2 15.35 12.25 14.25 11.9 13.95 9.75 12.6 9.35 12.3 8.9 11.9 Q7.85 11.15 7.65 9.85 L7.6 9.55 Q7.2 8.05 7.4 6.55 7.55 4.35 8.8 2.4 L9.6 1.0 Q10.45 -1.1 11.4 -2.65 M29.8 -0.75 L29.15 0.2 28.85 0.45 25.65 2.65 Q24.6 3.35 22.15 3.45 L19.45 3.65 Q19.2 3.65 19.15 3.75 18.75 4.75 16.45 4.6 15.0 4.55 14.0 4.1 11.9 3.3 11.1 2.4 10.4 3.75 10.95 5.45 L11.85 8.45 Q12.3 10.6 14.5 11.85 L16.7 13.1 22.75 16.4 26.15 18.4 Q26.1 17.05 25.15 15.9 L24.15 14.25 Q23.65 12.85 24.0 11.95 L24.2 11.5 24.3 10.95 24.25 10.1 27.4 12.95 Q31.4 16.45 31.65 20.6 L31.9 21.95 32.25 22.5 Q33.4 24.95 33.7 27.45 36.2 26.25 38.65 24.25 41.85 21.75 43.35 18.6 L44.4 16.45 Q44.95 15.5 44.7 14.25 L44.65 13.4 Q44.7 12.05 43.55 10.85 L43.25 10.4 Q42.85 9.4 41.95 8.85 L41.45 8.55 40.85 7.85 Q40.45 7.45 39.65 7.45 L38.15 7.5 37.4 7.65 Q35.45 7.5 34.5 6.55 32.45 4.6 31.7 2.4 L31.5 1.85 31.15 1.3 31.0 1.0 Q30.75 0.1 30.2 -0.45 L29.8 -0.75 M9.6 16.95 Q7.7 16.4 6.6 15.6 L7.2 17.55 7.4 18.1 Q7.7 18.7 8.3 19.15 11.2 21.4 14.95 23.25 L15.55 23.6 16.5 22.5 16.9 22.3 17.45 22.1 17.75 21.4 17.85 21.15 Q17.55 20.4 18.35 20.25 L19.25 20.15 Q20.95 20.25 21.45 19.75 L20.15 19.0 19.3 18.45 18.0 18.25 Q13.7 18.15 9.6 16.95 M47.6 16.95 Q43.6 19.95 42.95 23.95 44.3 23.2 46.0 22.8 L46.2 23.9 46.5 25.55 49.5 23.95 50.0 23.55 Q55.0 17.7 52.9 10.4 52.55 11.95 51.55 13.15 L51.05 13.65 49.7 15.05 47.6 16.95" fill="#ff0000" fill-rule="evenodd" stroke="none"/>
    <path d="M12.0 -12.2 Q15.7 -11.05 17.35 -7.9 17.9 -6.85 17.7 -5.45 17.3 -2.7 15.15 -0.7 13.8 0.55 13.1 1.55 13.0 1.75 13.2 2.15 14.1 3.7 15.6 4.2 L16.6 4.85 17.2 5.4 Q19.15 6.6 21.55 6.2 L22.1 5.95 22.75 5.6 Q23.75 5.25 23.8 4.55 L23.8 4.15 24.05 3.8 Q25.05 3.2 25.3 2.1 L25.25 1.35 24.85 -0.25 Q24.5 -2.75 26.35 -3.9 L26.8 -4.25 27.0 -4.45 Q27.25 -4.7 27.6 -4.75 L28.55 -5.15 Q29.85 -5.45 30.9 -6.55 32.35 -8.05 34.4 -8.2 37.35 -8.45 39.9 -7.6 L40.9 -7.2 Q42.9 -6.1 43.35 -4.3 L43.55 -3.8 Q44.25 -2.65 44.2 -1.05 44.2 -0.65 44.45 -0.25 45.1 0.75 46.0 0.8 47.1 0.85 47.2 1.75 47.9 1.25 47.8 -0.25 L47.95 -1.05 Q48.9 -3.55 52.0 -3.3 53.45 -3.2 54.8 -2.25 58.45 0.4 58.25 4.95 L58.05 6.15 57.0 7.95 56.25 8.85 55.75 9.45 54.7 10.4 54.05 10.45 Q51.9 9.75 50.0 8.55 49.3 9.05 49.2 10.5 L48.8 10.5 Q47.1 10.35 47.6 11.35 L47.2 11.45 Q46.65 11.55 45.9 12.0 44.5 12.75 43.85 14.9 43.0 17.45 42.95 20.15 42.9 21.85 43.55 23.35 L44.2 24.35 44.75 24.7 Q45.4 25.0 45.15 25.75 L44.95 26.55 Q44.9 27.25 45.55 27.45 L45.9 27.8 46.0 28.15 Q43.95 28.85 43.8 30.95 L43.75 31.4 Q43.6 32.15 44.0 32.55 L44.65 33.45 44.8 34.15 Q44.8 35.6 45.95 36.6 46.95 37.45 48.8 37.4 L51.5 37.7 52.0 38.15 Q52.9 40.2 52.1 42.2 51.45 43.9 49.9 43.1 L49.2 42.95 46.0 43.25 44.05 43.5 43.65 43.8 42.7 45.7 42.45 46.15 Q41.8 46.95 42.0 48.55 42.45 51.85 39.6 52.65 L38.8 52.95 Q37.7 53.55 36.4 53.55 36.2 53.55 36.05 53.35 35.05 52.05 34.3 50.2 33.45 47.95 30.8 48.4 L29.15 48.35 27.15 48.5 24.85 49.45 24.35 49.7 Q23.2 50.45 22.6 51.15 L22.0 51.3 20.55 51.0 19.95 50.65 Q19.75 50.15 19.85 49.35 20.05 47.05 19.45 45.0 18.9 42.95 17.7 42.0 L17.1 41.45 16.45 40.9 Q16.0 40.55 15.2 40.45 L13.2 40.35 12.4 40.5 8.0 42.1 Q5.95 42.95 5.2 44.15 6.75 44.9 6.5 46.55 6.4 47.7 7.2 48.55 L7.6 48.95 5.2 48.8 4.75 48.65 Q2.7 47.6 2.35 45.75 2.15 44.9 2.6 44.75 L2.35 44.6 Q1.45 44.1 0.05 43.65 L-0.4 43.35 Q-2.1 41.4 -2.0 38.15 -1.95 37.4 -1.3 36.8 L-0.3 35.9 Q2.4 33.4 3.85 30.45 L4.1 29.8 4.4 29.35 Q6.0 27.95 6.3 26.15 6.55 24.45 6.2 22.9 L6.0 21.35 5.85 17.75 5.7 16.95 5.3 15.95 4.8 15.8 Q2.15 16.3 2.35 13.75 L2.65 12.65 3.05 12.05 Q3.6 11.45 3.6 10.55 -2.1 10.75 -3.85 4.9 -4.7 2.25 -4.2 -0.6 L-3.5 -3.0 Q-1.2 -8.4 4.05 -11.35 7.9 -13.5 12.0 -12.2 M57.95 26.15 Q59.0 30.65 56.0 34.15 L55.0 35.15 54.45 35.45 50.45 35.6 50.0 35.35 49.65 34.9 48.5 34.65 47.95 34.2 Q46.75 32.35 47.0 30.15 L47.2 29.95 Q49.35 29.8 49.15 27.75 48.7 23.95 52.45 23.1 55.6 22.4 57.45 25.05 L57.95 26.15" fill="#ff0000" fill-rule="evenodd" stroke="none"/>
  </g>
</svg>
