<?xml version="1.0" encoding="UTF-8" standalone="no"?>
<svg xmlns:xlink="http://www.w3.org/1999/xlink" height="54.9px" width="58.05px" xmlns="http://www.w3.org/2000/svg">
  <g transform="matrix(1.0, 0.0, 0.0, 1.0, 2.05, 9.35)">
    <path d="M7.05 -7.1 L7.75 -6.05 Q8.9 -3.15 8.55 0.35 L8.4 0.95 Q7.65 3.1 6.4 4.75 L6.2 4.9 Q5.85 5.05 5.65 5.55 L5.35 6.05 4.85 6.3 1.6 6.75 Q-0.2 6.7 -1.35 5.3 -2.2 4.25 -2.0 2.75 L-1.45 0.9 -0.9 -0.2 Q-0.55 -1.0 -0.65 -1.85 L-0.75 -2.25 Q-1.0 -4.35 0.6 -5.65 1.65 -6.5 2.5 -7.6 L3.0 -8.05 3.8 -8.6 Q4.85 -9.3 6.0 -9.35 L6.2 -9.25 Q6.85 -8.6 6.9 -7.45 L7.05 -7.1 M8.95 -7.5 L9.25 -7.8 Q10.45 -9.2 12.4 -8.8 13.5 -8.55 14.05 -7.45 L14.35 -6.8 14.7 -5.05 14.4 -4.05 13.3 -2.1 13.25 -2.0 12.6 -1.9 Q11.55 -1.85 11.35 -2.85 L11.2 -3.0 Q10.5 -3.25 10.15 -3.55 L9.85 -3.75 9.55 -4.0 8.7 -5.3 8.55 -5.65 8.4 -6.25 Q8.3 -6.65 8.5 -6.9 L8.7 -7.2 8.95 -7.5 M27.7 -0.85 L27.75 -1.5 27.8 -1.85 Q28.4 -2.85 29.4 -3.65 L31.95 -5.5 35.4 -5.6 Q36.15 -5.2 36.25 -3.85 L36.35 -3.25 36.5 -1.25 36.4 -0.85 36.3 -0.65 Q36.1 0.95 36.3 2.35 36.45 3.25 35.55 3.7 L35.05 4.05 34.55 4.5 34.0 4.95 Q32.55 6.0 31.0 6.2 L30.6 6.2 29.75 5.9 29.0 5.6 28.75 5.5 28.05 4.5 27.15 2.55 Q26.6 0.75 27.6 -0.65 L27.7 -0.85 M40.0 -5.4 Q42.7 -4.2 42.6 -1.05 42.6 -0.3 42.2 0.35 L40.75 1.65 40.45 1.8 39.2 2.25 38.4 2.45 38.2 2.5 37.4 2.5 37.3 1.95 37.5 -0.25 37.7 -1.25 37.75 -1.45 38.2 -3.05 38.1 -3.9 38.0 -4.25 Q37.95 -5.7 39.4 -5.55 L40.0 -5.4 M54.8 -0.85 Q55.15 -0.7 54.9 -0.1 L54.7 0.6 54.1 2.4 Q54.0 2.65 54.05 2.95 L54.2 3.05 Q54.8 3.05 54.65 3.75 L53.5 6.7 53.0 7.2 52.8 7.35 52.1 7.45 51.9 7.35 51.8 7.35 Q50.8 7.35 50.35 6.8 L50.1 6.4 49.9 5.35 49.8 4.35 Q49.5 2.6 49.7 0.75 L49.8 0.65 50.65 0.25 51.0 0.1 51.2 0.05 Q52.2 0.05 52.7 -0.6 L53.0 -0.85 Q54.05 -1.25 54.8 -0.85 M41.2 16.55 Q40.45 17.05 39.95 18.15 39.75 18.6 39.7 19.15 39.65 19.9 39.2 20.1 L38.8 20.15 37.0 20.6 36.8 20.7 Q35.9 21.2 35.25 22.25 L34.8 22.75 Q32.55 24.45 30.65 26.4 L30.2 26.95 Q26.95 31.2 27.95 36.35 L28.1 37.0 28.25 37.35 Q28.5 38.25 28.4 39.35 27.25 36.55 25.4 34.15 24.85 33.45 24.6 32.65 24.8 31.5 25.6 30.55 L26.15 29.7 Q27.3 27.65 29.35 26.8 L29.45 26.55 29.55 26.35 29.8 24.95 29.2 24.95 29.0 24.95 30.35 23.5 30.65 23.2 31.0 22.95 Q30.95 22.6 30.4 22.65 L30.4 22.55 Q31.15 21.8 30.4 20.75 L30.25 20.55 Q29.7 19.35 28.6 19.0 L28.2 18.9 Q26.9 18.5 25.8 17.75 24.6 16.95 23.85 15.7 L23.55 15.2 23.15 14.35 23.0 14.15 Q23.05 13.7 23.45 14.05 L24.2 14.5 27.2 15.15 Q29.35 15.4 30.7 14.45 L30.8 14.5 Q32.35 15.15 34.2 14.95 37.1 14.7 39.65 15.65 L40.2 15.8 40.8 16.15 41.2 16.55 M55.8 30.15 L55.15 31.3 54.85 31.6 Q53.95 32.55 52.4 32.4 51.6 32.2 51.25 31.75 50.9 31.35 50.9 30.55 L50.9 29.75 50.95 28.95 Q51.5 26.2 54.2 25.6 55.3 25.35 55.15 26.55 55.1 26.75 55.2 26.95 L55.85 28.35 Q56.2 29.1 55.8 30.15 M41.55 41.95 Q41.45 43.65 40.2 44.95 39.25 45.95 38.05 45.25 L37.8 44.95 37.05 43.9 Q36.35 42.9 34.9 42.9 35.15 41.85 36.4 41.35 38.25 40.55 39.45 39.4 L40.35 38.65 40.65 38.45 41.0 38.35 Q41.75 39.85 41.55 41.95 M21.65 16.7 Q22.15 17.1 22.45 18.15 L23.65 20.95 23.7 21.15 23.65 21.8 Q23.3 22.45 23.35 23.35 23.4 24.45 24.6 24.05 L26.4 23.95 Q25.85 25.95 24.55 27.7 23.85 28.6 23.65 29.75 23.0 33.0 23.2 36.35 L23.3 37.95 Q23.4 39.25 23.15 40.55 L23.05 40.95 23.0 41.35 22.15 41.0 20.95 38.35 20.85 38.15 20.1 36.8 19.85 36.5 18.45 34.9 Q17.25 33.45 15.2 33.45 L14.6 33.4 Q13.4 33.15 13.35 31.95 L13.25 31.15 Q12.85 27.35 14.25 23.9 L14.45 22.95 15.35 18.55 15.7 16.75 15.9 14.55 16.0 12.55 15.9 11.95 Q18.15 14.8 21.35 16.45 L21.65 16.7 M5.0 35.55 Q4.5 37.25 5.0 38.95 L5.2 39.75 3.2 39.9 1.4 40.05 1.2 40.15 0.95 40.5 Q0.35 40.1 0.25 39.15 0.1 37.8 1.15 36.9 L1.6 36.35 2.55 34.95 3.3 33.6 3.75 32.9 Q5.3 30.85 7.4 29.4 L7.8 29.2 8.0 29.15 Q6.0 32.05 5.0 35.55" fill="#ffcc00" fill-rule="evenodd" stroke="none"/>
  </g>
</svg>
