<?xml version="1.0" encoding="UTF-8" standalone="no"?>
<svg xmlns:xlink="http://www.w3.org/1999/xlink" height="84.05px" width="66.0px" xmlns="http://www.w3.org/2000/svg">
  <g transform="matrix(1.0, 0.0, 0.0, 1.0, 4.0, 17.85)">
    <path d="M48.75 42.9 L48.95 43.15 Q49.3 43.9 49.85 44.15 L49.85 44.0 Q51.1 43.4 52.0 42.45 51.45 44.9 49.85 47.1 L49.5 47.55 Q48.25 48.3 47.85 49.05 L47.85 49.3 Q47.7 50.9 47.7 52.5 47.7 53.35 47.35 53.95 L46.95 54.2 Q45.35 56.75 42.65 59.1 L41.55 60.1 Q39.2 61.65 38.3 63.75 L37.25 66.2 36.85 65.45 36.7 65.25 36.5 62.05 36.35 61.65 36.15 61.45 34.7 59.35 34.35 59.1 31.45 58.95 31.1 58.95 30.35 59.2 Q27.15 60.1 24.95 62.05 L24.6 62.3 24.25 62.75 24.6 60.8 24.8 60.1 24.8 59.95 Q25.15 58.85 24.8 57.4 L24.6 56.4 24.4 55.9 24.05 55.4 22.1 53.95 Q21.35 53.45 19.9 53.6 16.85 53.85 15.95 55.65 L15.05 57.65 14.7 57.85 14.15 58.0 Q13.25 58.0 12.9 57.65 12.15 56.9 11.6 57.15 L11.6 57.4 Q11.1 58.1 11.25 59.1 L10.9 58.85 10.2 58.6 Q9.1 58.25 8.75 57.65 L8.2 57.15 Q7.3 55.05 8.0 52.95 8.9 50.4 11.25 48.3 L11.45 48.05 Q12.0 47.1 11.8 46.1 L11.6 45.1 11.25 44.4 Q10.55 42.55 9.1 41.3 L9.45 40.95 9.8 40.7 14.5 39.0 Q15.05 38.65 15.75 38.4 L16.5 37.9 19.55 36.05 Q18.65 37.15 18.45 38.75 18.45 40.35 18.85 41.95 19.9 39.6 22.45 38.0 L24.8 36.65 30.0 33.6 Q30.35 35.45 32.35 36.65 L32.7 37.15 Q34.35 38.25 36.5 38.75 L36.7 37.3 36.7 36.8 Q36.7 35.45 37.6 34.85 L38.3 36.3 40.1 38.25 44.25 40.6 Q46.6 41.7 48.75 42.9 M24.6 47.35 L24.4 48.05 Q24.05 50.05 25.35 51.25 L25.5 51.35 Q24.8 52.0 24.95 53.2 L25.35 54.2 Q26.4 56.05 26.6 58.0 L28.2 56.9 31.45 54.7 Q31.45 55.4 31.8 55.9 L32.35 56.3 34.0 57.15 Q36.7 58.75 37.95 61.05 37.75 60.1 38.15 59.35 L38.5 58.85 Q41.55 54.95 41.2 50.05 41.0 50.75 40.1 51.5 L38.65 52.5 Q36.35 54.45 33.6 55.4 34.35 54.45 35.4 53.85 36.35 53.45 36.7 52.5 36.85 51.75 37.25 51.25 L37.6 50.75 Q38.85 48.05 36.15 45.85 L34.9 45.0 Q32.0 43.15 32.2 40.45 L32.2 40.2 27.85 43.65 26.6 44.5 Q24.95 45.75 24.6 47.35 M14.7 45.1 L14.35 46.35 14.35 46.6 Q13.6 48.2 11.6 48.8 L11.25 49.05 9.8 50.75 Q8.0 52.5 8.55 54.95 L8.55 55.65 8.75 56.5 Q8.75 56.15 8.9 55.9 9.65 55.3 10.55 55.05 L11.6 54.45 11.8 54.45 Q12.35 55.65 13.8 55.9 L13.95 54.2 13.95 53.95 15.05 52.0 Q15.6 51.15 15.6 50.25 15.6 47.8 14.85 45.35 L14.85 45.0 14.7 45.1 M41.9 42.45 Q41.55 42.55 41.35 43.15 L41.0 43.65 Q39.95 45.0 40.85 46.6 L41.2 47.1 Q41.2 47.35 41.35 47.45 L43.0 49.3 43.2 49.8 43.35 54.2 43.35 54.7 43.55 54.7 45.35 52.6 45.7 52.1 45.7 52.0 45.7 51.75 46.05 50.75 46.05 50.25 46.4 48.8 Q46.4 47.7 46.05 46.85 45.9 46.6 46.05 46.35 46.4 45.75 47.7 45.5 L48.05 45.5 Q48.95 45.5 49.15 45.1 L48.4 44.4 48.05 44.15 45.5 43.55 Q44.25 43.4 43.35 42.65 42.45 41.95 41.9 42.45" fill="#ff0000" fill-rule="evenodd" stroke="none"/>
    <path d="M41.9 42.45 Q42.45 41.95 43.35 42.65 44.25 43.4 45.5 43.55 L48.05 44.15 48.4 44.4 49.15 45.1 Q48.95 45.5 48.05 45.5 L47.7 45.5 Q46.4 45.75 46.05 46.35 45.9 46.6 46.05 46.85 46.4 47.7 46.4 48.8 L46.05 50.25 46.05 50.75 45.7 51.75 45.7 52.0 45.7 52.1 45.35 52.6 43.55 54.7 43.35 54.7 43.35 54.2 43.2 49.8 43.0 49.3 41.35 47.45 Q41.2 47.35 41.2 47.1 L40.85 46.6 Q39.95 45.0 41.0 43.65 L41.35 43.15 Q41.55 42.55 41.9 42.45 M14.7 45.1 L14.85 45.0 14.85 45.35 Q15.6 47.8 15.6 50.25 15.6 51.15 15.05 52.0 L13.95 53.95 13.95 54.2 13.8 55.9 Q12.35 55.65 11.8 54.45 L11.6 54.45 10.55 55.05 Q9.65 55.3 8.9 55.9 8.75 56.15 8.75 56.5 L8.55 55.65 8.55 54.95 Q8.0 52.5 9.8 50.75 L11.25 49.05 11.6 48.8 Q13.6 48.2 14.35 46.6 L14.35 46.35 14.7 45.1 M24.6 47.35 Q24.95 45.75 26.6 44.5 L27.85 43.65 32.2 40.2 32.2 40.45 Q32.0 43.15 34.9 45.0 L36.15 45.85 Q38.85 48.05 37.6 50.75 L37.25 51.25 Q36.85 51.75 36.7 52.5 36.35 53.45 35.4 53.85 34.35 54.45 33.6 55.4 36.35 54.45 38.65 52.5 L40.1 51.5 Q41.0 50.75 41.2 50.05 41.55 54.95 38.5 58.85 L38.15 59.35 Q37.75 60.1 37.95 61.05 36.7 58.75 34.0 57.15 L32.35 56.3 31.8 55.9 Q31.45 55.4 31.45 54.7 L28.2 56.9 26.6 58.0 Q26.4 56.05 25.35 54.2 L24.95 53.2 Q24.8 52.0 25.5 51.35 L25.35 51.25 Q24.05 50.05 24.4 48.05 L24.6 47.35" fill="#ffcc00" fill-rule="evenodd" stroke="none"/>
    <path d="M48.15 15.85 L48.4 15.35 48.55 14.8 48.55 14.25 Q49.7 18.5 48.55 22.25 47.85 24.25 46.35 25.2 L44.1 26.7 43.7 27.0 43.85 26.45 44.05 25.5 46.65 18.65 Q46.9 17.55 47.45 16.95 L47.85 16.5 48.15 15.85 M41.5 24.05 L40.85 24.25 40.4 24.3 Q40.2 24.3 40.15 24.15 L39.3 23.35 Q38.8 23.05 38.7 22.5 36.6 23.8 34.25 26.1 32.05 28.3 30.5 30.25 L30.4 30.5 30.0 31.4 Q25.15 26.5 25.3 21.15 25.4 18.4 27.15 16.2 L27.55 18.4 27.7 19.2 29.15 17.75 31.75 13.4 Q32.5 11.9 31.85 10.1 L31.05 7.65 Q30.45 5.55 29.0 3.75 32.5 6.85 36.9 9.85 42.15 13.35 42.65 17.85 L42.65 18.65 Q42.6 20.25 42.1 21.7 41.75 22.45 41.8 23.35 L41.75 23.6 41.5 24.05 M22.55 15.35 Q21.5 19.55 18.9 23.35 L18.45 24.45 18.05 24.25 Q14.4 22.25 12.3 19.5 11.15 18.1 10.75 16.45 L10.25 15.05 Q9.8 13.7 8.9 12.85 10.15 13.5 11.65 13.35 12.7 13.2 12.65 12.3 L12.5 11.5 12.45 8.75 Q12.25 6.4 13.6 4.35 L14.1 3.5 14.7 2.4 14.95 1.85 15.0 1.55 Q21.05 7.9 22.55 14.8 L22.55 15.35" fill="#ffcc00" fill-rule="evenodd" stroke="none"/>
    <path d="M29.95 -1.2 Q30.4 -0.45 31.3 0.05 L31.6 0.45 Q31.65 1.2 32.0 1.65 L33.0 2.65 33.3 2.95 34.3 4.0 Q35.25 5.1 36.65 6.0 L38.0 7.0 38.75 7.35 41.75 8.55 41.75 8.45 Q41.15 7.85 40.95 7.1 40.2 4.9 40.65 2.95 L42.0 4.6 43.2 5.85 43.75 6.2 44.55 6.8 49.5 9.35 Q52.35 10.75 54.0 13.1 54.8 14.25 54.8 15.6 L54.85 17.85 54.75 18.4 52.4 21.05 50.2 23.35 52.15 23.2 52.85 23.05 54.85 23.2 55.65 23.35 Q57.25 23.35 57.8 22.8 57.05 23.6 55.45 24.25 54.0 24.85 53.2 25.5 L52.2 26.15 51.6 26.6 48.65 27.95 46.9 28.45 45.7 28.65 45.3 28.8 41.95 29.75 Q39.35 30.55 37.8 31.95 L37.2 32.35 Q35.35 33.4 34.85 35.1 L33.2 34.65 Q31.5 34.1 30.1 33.35 L29.75 33.1 28.7 32.45 26.95 30.8 24.7 27.75 Q23.7 26.1 23.6 24.15 22.15 25.55 21.7 27.45 L21.35 28.6 21.2 29.15 20.9 29.4 18.75 26.9 17.9 25.8 17.5 25.55 Q15.05 24.3 11.55 23.2 10.55 22.85 10.25 21.95 L10.1 21.7 Q9.35 20.5 8.95 19.2 L8.3 17.3 7.05 14.8 6.05 12.85 5.75 12.3 3.05 8.2 Q2.75 7.75 3.6 8.4 5.3 9.5 7.4 10.45 L8.65 11.1 9.5 11.3 10.0 11.5 Q11.0 11.35 10.15 11.1 L10.25 10.95 Q10.3 10.2 9.5 9.9 L9.1 9.55 Q8.45 8.55 7.95 7.1 7.5 5.75 7.85 4.6 8.6 2.55 10.35 1.0 L13.9 -2.55 15.15 -4.0 15.4 -4.5 15.45 -4.75 15.6 -5.25 Q15.7 -3.55 16.85 -2.15 L17.25 -1.75 17.65 -0.65 Q18.25 0.6 19.9 1.1 L20.4 1.3 22.7 1.65 24.55 1.5 25.4 1.3 28.3 0.35 28.9 -0.1 29.95 -1.2 M22.55 15.35 L22.55 14.8 Q21.05 7.9 15.0 1.55 L14.95 1.85 14.7 2.4 14.1 3.5 13.6 4.35 Q12.25 6.4 12.45 8.75 L12.5 11.5 12.65 12.3 Q12.7 13.2 11.65 13.35 10.15 13.5 8.9 12.85 9.8 13.7 10.25 15.05 L10.75 16.45 Q11.15 18.1 12.3 19.5 14.4 22.25 18.05 24.25 L18.45 24.45 18.9 23.35 Q21.5 19.55 22.55 15.35 M41.5 24.05 L41.75 23.6 41.8 23.35 Q41.75 22.45 42.1 21.7 42.6 20.25 42.65 18.65 L42.65 17.85 Q42.15 13.35 36.9 9.85 32.5 6.85 29.0 3.75 30.45 5.55 31.05 7.65 L31.85 10.1 Q32.5 11.9 31.75 13.4 L29.15 17.75 27.7 19.2 27.55 18.4 27.15 16.2 Q25.4 18.4 25.3 21.15 25.15 26.5 30.0 31.4 L30.4 30.5 30.5 30.25 Q32.05 28.3 34.25 26.1 36.6 23.8 38.7 22.5 38.8 23.05 39.3 23.35 L40.15 24.15 Q40.2 24.3 40.4 24.3 L40.85 24.25 41.5 24.05 M48.15 15.85 L47.85 16.5 47.45 16.95 Q46.9 17.55 46.65 18.65 L44.05 25.5 43.85 26.45 43.7 27.0 44.1 26.7 46.35 25.2 Q47.85 24.25 48.55 22.25 49.7 18.5 48.55 14.25 L48.55 14.8 48.4 15.35 48.15 15.85" fill="#ff0000" fill-rule="evenodd" stroke="none"/>
    <path d="M12.4 -12.7 Q11.55 -12.15 12.0 -10.7 L12.1 -10.35 12.6 -7.85 Q12.6 -7.55 12.75 -7.3 10.9 -8.05 9.3 -6.75 L8.8 -6.4 Q7.5 -5.35 8.0 -3.6 L8.1 -3.3 8.15 -2.3 8.2 -2.25 Q10.45 -1.5 12.5 -2.65 L13.9 -3.55 Q14.95 -4.35 15.0 -5.6 15.45 -5.6 15.4 -5.0 L15.45 -4.45 Q15.8 -1.85 14.55 0.15 L14.45 0.4 14.7 0.45 14.75 0.5 11.0 0.95 7.5 4.25 7.05 5.1 10.8 1.75 16.05 1.1 16.35 1.4 Q16.7 2.05 18.0 1.95 L18.45 2.0 19.6 2.15 Q20.25 2.1 20.35 2.9 20.4 3.15 20.8 3.15 24.8 3.35 28.8 3.15 L29.2 2.95 Q31.75 0.65 30.8 -3.35 L30.45 -3.6 Q29.45 -3.95 29.0 -4.45 L28.4 -4.7 Q26.65 -4.9 26.0 -6.25 23.95 -10.65 27.2 -14.65 28.75 -16.45 31.25 -17.3 36.05 -18.85 40.35 -16.15 43.65 -14.05 44.15 -10.65 L44.35 -9.85 Q44.6 -9.1 44.2 -8.5 L43.9 -7.9 43.65 -7.4 41.6 -3.85 41.4 -3.05 41.4 -2.65 41.25 -2.25 39.4 -0.05 Q39.2 0.15 39.25 0.55 L39.45 2.15 39.75 4.95 40.05 5.25 Q41.75 6.15 42.95 7.15 L43.55 7.5 Q44.55 7.9 45.95 8.65 47.3 9.35 47.2 10.55 L46.8 10.8 41.6 11.15 41.2 11.35 Q37.55 14.75 36.8 19.35 36.0 24.05 39.7 26.0 L40.4 26.05 Q41.75 25.8 41.8 26.95 41.8 27.35 42.1 27.65 42.8 28.4 44.0 28.05 L44.8 27.8 46.35 27.25 46.65 26.9 Q47.2 25.0 48.4 26.55 L48.6 26.95 48.45 27.35 Q47.9 28.05 49.15 28.65 L49.4 28.95 Q49.45 30.1 50.8 29.7 L51.6 29.5 Q53.3 29.25 53.9 30.2 56.0 33.45 55.65 37.75 55.15 43.9 50.7 48.45 49.05 50.1 46.85 51.05 L44.8 51.5 42.8 51.8 Q41.95 52.0 41.7 51.5 L41.2 51.25 40.4 51.1 Q38.7 50.9 37.6 49.75 37.0 49.1 36.0 49.15 L35.55 49.1 Q34.65 48.95 34.5 47.75 L34.25 45.35 34.05 44.15 Q33.7 42.85 34.2 42.35 L34.4 41.75 33.05 41.95 32.45 41.85 Q32.2 41.95 32.0 42.15 30.8 43.35 30.3 44.9 29.85 46.4 27.6 46.0 L26.8 45.95 26.35 46.05 Q25.15 46.5 24.45 47.35 23.5 48.45 21.6 48.7 L20.85 49.0 19.9 49.6 19.25 49.65 18.8 49.55 Q18.1 49.45 17.8 50.05 L17.2 50.6 11.1 54.0 10.4 54.2 Q6.45 54.7 5.2 50.95 4.8 49.75 4.2 48.85 L3.85 48.2 3.65 47.3 2.85 47.2 2.5 46.9 Q1.25 43.3 -0.6 40.45 L-0.95 39.8 Q-2.5 36.05 -2.85 31.75 -3.35 26.5 0.45 23.0 1.35 22.2 2.15 22.75 L2.8 22.9 Q4.05 22.8 4.0 21.35 L5.05 22.35 5.6 22.5 Q7.05 22.25 8.1 21.55 8.4 21.35 8.8 21.3 11.15 21.0 12.15 18.6 L12.65 17.3 14.0 13.75 14.65 12.45 14.8 11.75 14.65 9.8 14.6 9.35 Q14.4 7.75 14.35 6.15 14.35 5.4 13.6 4.95 L13.2 4.65 12.05 5.45 10.3 6.4 9.65 6.65 6.8 7.4 5.6 7.6 5.2 7.65 Q5.25 7.0 5.8 6.4 L7.0 5.15 5.65 5.1 5.35 4.95 3.65 3.5 Q4.0 3.0 5.05 3.1 L5.35 2.95 5.8 2.35 6.2 0.8 Q5.9 0.95 5.75 1.1 L5.75 1.15 5.4 1.3 4.3 1.25 4.1 1.0 3.6 0.4 Q2.1 -0.65 0.5 0.4 L-0.3 1.0 -1.15 2.0 -1.45 2.0 -1.65 2.0 Q-3.95 -0.1 -4.0 -3.6 -4.1 -7.3 -2.15 -10.45 -0.85 -12.55 0.9 -14.3 L1.7 -14.85 3.95 -15.8 Q2.95 -14.6 2.6 -12.65 L2.5 -12.1 Q3.85 -12.15 4.15 -13.5 L4.55 -14.0 Q7.5 -15.7 11.0 -15.35 L12.5 -15.05 13.6 -14.45 Q14.5 -13.85 13.8 -13.3 13.35 -12.95 12.75 -12.85 L12.4 -12.7 M54.85 -9.6 L56.0 -9.45 57.25 -9.2 57.95 -8.95 59.65 -8.45 61.2 -7.85 Q59.5 -7.4 59.9 -5.95 60.0 -5.65 60.4 -5.5 L62.0 -4.65 Q61.65 -2.9 61.6 -1.05 L61.55 0.15 Q61.4 1.15 60.05 1.35 L59.9 1.7 59.6 2.15 Q58.3 3.45 56.0 3.55 L55.2 3.6 52.5 3.4 52.3 3.0 51.95 2.6 Q49.85 1.5 49.25 -1.9 49.95 -5.95 52.25 -9.25 L52.75 -9.55 53.25 -9.7 54.85 -9.6 M50.35 22.55 Q50.1 18.5 52.35 15.7 L52.85 15.0 Q53.6 13.95 55.6 14.2 57.15 14.4 58.35 15.4 59.75 16.5 59.85 18.15 59.95 19.7 59.25 21.0 58.25 22.85 56.65 23.95 L56.05 24.25 55.55 24.4 54.05 24.7 53.95 24.75 Q53.75 24.8 53.6 24.95 L53.1 25.35 Q52.75 25.25 52.35 25.0 51.3 24.35 50.6 23.25 L50.35 22.55 M5.6 46.15 Q4.95 46.1 5.1 46.95 L5.6 46.15" fill="#ff0000" fill-rule="evenodd" stroke="none"/>
  </g>
</svg>
