<?xml version="1.0" encoding="UTF-8" standalone="no"?>
<svg xmlns:xlink="http://www.w3.org/1999/xlink" height="66.1px" width="59.8px" xmlns="http://www.w3.org/2000/svg">
  <g transform="matrix(1.0, 0.0, 0.0, 1.0, 1.8, 16.25)">
    <path d="M8.0 -11.85 L8.8 -11.85 7.55 -9.45 6.15 -6.5 Q5.8 -5.7 5.2 -5.5 L3.25 -4.55 2.95 -4.3 Q2.3 -3.4 2.15 -2.35 L1.6 -2.35 1.0 -2.25 -0.6 -2.1 Q-0.95 -2.1 -0.9 -2.65 L-1.05 -3.25 -1.75 -5.05 -1.8 -5.45 Q-1.95 -7.5 -0.85 -9.3 L0.2 -11.05 Q0.55 -10.8 0.5 -10.05 L0.55 -9.65 Q0.7 -9.1 1.4 -9.15 L1.8 -9.1 Q3.35 -8.9 4.65 -9.8 L7.65 -11.75 8.0 -11.85 M10.8 -0.45 Q10.75 0.2 10.0 0.35 L8.6 0.75 8.2 0.85 8.15 0.85 8.1 0.75 8.05 0.4 Q8.95 -0.35 10.0 -0.6 L10.8 -0.45 M35.65 -14.85 Q35.95 -15.7 36.8 -16.0 39.15 -16.8 40.85 -14.9 L41.95 -13.8 Q42.3 -13.45 42.25 -12.85 42.2 -12.45 42.3 -12.2 L42.35 -11.85 Q42.25 -11.1 41.8 -10.45 L41.1 -9.65 40.4 -9.7 38.55 -10.2 37.65 -10.7 37.4 -11.05 35.7 -14.5 Q35.6 -14.65 35.65 -14.85 M33.8 -16.05 Q33.75 -15.1 34.1 -14.3 L34.35 -13.8 35.1 -12.95 35.25 -12.65 Q35.45 -11.15 34.65 -10.0 33.85 -8.8 32.65 -8.15 L32.35 -7.9 30.9 -6.15 30.6 -6.05 29.0 -6.2 28.6 -6.3 28.5 -6.35 28.25 -6.5 28.15 -6.55 Q27.45 -7.05 27.5 -7.65 L27.55 -8.05 28.1 -9.5 28.2 -9.85 Q28.0 -12.0 28.9 -13.8 L29.45 -14.4 Q30.7 -15.35 32.2 -15.65 L33.8 -16.05 M37.35 -8.75 L37.65 -8.5 37.95 -8.2 38.3 -7.45 38.25 -7.1 38.05 -6.65 Q37.35 -5.7 36.0 -5.55 L34.4 -5.35 Q33.5 -5.3 33.0 -5.7 33.1 -7.75 34.75 -8.9 L35.6 -9.15 37.35 -8.75 M57.25 -8.6 Q56.05 -7.55 56.0 -6.05 55.95 -4.65 57.4 -4.85 56.65 -3.25 57.35 -1.6 L57.4 -1.25 Q57.25 0.4 55.65 0.85 L53.2 1.45 52.6 1.35 Q51.95 0.6 51.55 -0.7 50.65 -2.5 50.6 -4.45 L50.8 -4.85 53.1 -7.15 53.4 -7.65 Q53.7 -8.65 54.6 -8.75 L55.2 -8.75 57.4 -9.05 Q57.75 -9.05 57.25 -8.6 M58.0 17.55 Q58.1 18.85 57.25 19.8 L56.95 20.1 55.7 21.05 55.4 21.15 53.0 20.9 52.9 20.85 52.85 20.55 Q52.35 17.7 54.65 16.2 L55.2 16.0 Q57.15 15.6 57.9 17.2 L58.0 17.55 M50.9 35.35 L50.85 38.15 50.95 39.55 51.05 40.15 51.15 40.35 Q51.85 42.25 50.25 43.6 L50.0 43.95 Q49.0 45.35 47.35 46.5 L46.85 46.8 Q45.8 47.5 44.6 47.5 L43.2 47.7 41.95 48.05 41.6 48.2 40.6 48.55 40.2 48.3 Q38.9 47.55 38.5 46.3 L38.5 45.6 38.85 44.95 39.5 43.7 39.4 43.6 Q39.05 43.4 39.15 42.75 L39.05 42.1 Q38.0 40.4 38.3 38.15 L38.65 36.75 Q39.95 33.0 43.65 31.4 46.5 30.2 48.85 32.1 L49.55 32.65 50.05 33.1 Q50.8 33.75 50.9 34.75 L50.9 35.35 M27.45 13.9 L27.15 13.35 27.0 13.15 26.8 12.95 29.85 14.9 31.6 15.75 Q33.5 16.65 34.9 18.25 L35.15 18.75 Q35.4 20.55 35.95 22.15 L35.9 22.5 Q35.4 23.65 35.75 25.3 L35.95 25.95 Q36.65 27.3 37.8 28.35 36.6 28.45 35.55 28.0 L35.2 28.0 35.0 28.05 34.2 28.15 Q33.75 28.15 33.35 28.5 L33.0 28.75 Q31.2 29.4 29.95 30.9 L29.45 31.4 28.15 32.9 Q27.1 34.1 26.45 35.4 L26.1 36.35 Q25.85 35.2 26.0 33.95 26.3 31.3 28.4 29.95 L28.8 29.75 Q29.65 29.3 30.0 28.35 L31.15 25.35 31.5 23.55 Q31.45 21.8 30.9 20.1 L30.35 18.8 28.45 15.5 27.45 13.9 M22.55 20.7 L22.75 19.35 22.55 15.15 Q22.4 13.35 23.4 12.35 L23.4 12.75 Q23.25 16.0 24.75 18.95 26.7 22.85 26.4 27.15 26.25 29.5 24.75 31.45 L24.3 32.1 Q23.85 33.1 23.8 34.15 L22.85 32.5 22.6 32.15 Q21.6 33.5 22.1 35.15 L22.2 35.75 22.35 38.15 Q22.5 40.25 20.65 41.4 L20.15 41.7 16.6 44.2 Q15.85 44.7 15.45 45.4 L15.25 45.8 15.25 45.75 Q15.25 45.1 15.6 44.55 16.35 43.6 17.45 43.05 L17.85 42.35 18.0 42.15 Q18.8 41.65 19.3 40.6 L19.6 40.15 21.0 37.95 Q21.4 37.05 21.1 36.1 L20.9 35.55 20.4 34.75 20.2 34.55 18.65 33.45 Q17.95 33.2 17.35 32.6 L17.0 32.35 15.85 31.5 Q14.7 30.65 14.75 28.75 14.75 27.25 15.6 26.15 L16.4 25.15 17.4 23.55 Q17.9 24.2 18.65 23.65 L19.15 23.3 19.85 23.25 20.2 23.35 Q21.35 23.3 21.9 22.2 L22.55 20.7 M12.0 30.35 Q11.9 31.15 12.3 31.65 L12.6 31.75 13.2 31.75 Q12.8 32.25 12.65 32.95 L12.55 33.35 12.5 33.55 12.3 34.2 11.6 34.35 Q10.95 34.2 10.65 33.85 L10.45 33.65 9.0 33.6 8.6 33.75 Q6.25 35.2 6.35 37.95 L6.5 39.95 6.55 40.35 7.5 43.0 8.05 43.7 8.05 43.95 Q8.0 44.3 8.4 44.25 L8.6 44.25 Q9.25 44.4 9.4 44.95 9.55 45.4 9.3 45.5 L9.15 45.75 Q8.85 47.05 9.0 48.55 L9.3 49.85 8.85 49.65 Q7.3 48.95 7.7 47.2 L8.05 46.55 9.0 45.75 Q8.3 45.75 8.0 45.35 6.95 44.25 6.15 42.8 L5.8 42.35 Q4.45 40.75 3.75 38.9 L3.5 38.2 Q3.1 36.6 3.2 34.95 3.3 34.1 3.75 33.3 L4.25 32.4 Q5.5 30.35 7.6 29.15 L9.2 28.35 9.55 28.3 9.8 28.55 Q10.35 30.0 12.0 30.15 L12.0 30.35" fill="#ffcc00" fill-rule="evenodd" stroke="none"/>
  </g>
</svg>
