<?xml version="1.0" encoding="UTF-8" standalone="no"?>
<svg xmlns:xlink="http://www.w3.org/1999/xlink" height="98.35px" width="65.25px" xmlns="http://www.w3.org/2000/svg">
  <g transform="matrix(1.0, 0.0, 0.0, 1.0, 4.0, 29.45)">
    <path d="M50.2 43.3 L50.55 43.4 Q50.55 44.4 50.95 45.35 L51.3 45.85 Q52.2 48.05 51.1 50.05 50.05 52.1 46.6 53.2 44.1 54.05 41.75 55.3 L40.85 55.8 Q38.15 56.75 36.15 58.0 L33.45 59.95 Q31.8 61.05 30.75 62.55 29.1 64.35 28.75 66.45 L28.4 67.45 28.4 67.7 28.2 68.9 Q27.15 67.55 26.6 65.7 L26.25 64.75 26.25 64.6 Q26.05 64.1 25.85 64.35 L25.85 64.25 Q25.5 62.9 24.25 62.65 L23.5 62.65 23.15 62.75 21.2 62.9 20.65 62.65 Q17.95 61.8 16.85 59.85 L16.3 58.35 15.25 58.35 12.0 58.0 11.6 57.85 9.8 56.65 Q8.75 55.4 9.1 53.95 9.45 52.0 11.1 50.4 L11.6 50.05 Q12.5 49.4 13.95 48.45 L14.15 48.05 Q14.7 46.7 13.05 46.45 L11.8 46.7 11.25 46.85 8.0 46.6 7.65 46.35 Q5.65 44.15 6.55 41.2 L6.95 40.7 Q9.1 39.35 12.0 39.6 L12.35 39.75 14.15 39.95 Q15.4 40.1 16.3 39.25 16.65 38.75 17.05 38.75 L17.05 39.0 16.5 40.2 16.3 40.95 Q16.15 42.8 18.1 43.3 L18.45 43.15 Q19.0 42.8 19.0 41.95 L19.2 41.45 Q19.9 40.2 21.55 39.35 22.6 38.65 23.9 37.9 L28.55 35.3 Q28.55 36.55 29.65 37.5 30.55 38.25 31.65 38.0 L31.8 37.75 31.8 37.5 Q31.65 37.3 32.55 38.0 L35.25 38.25 35.4 38.0 35.8 35.05 35.8 34.35 39.2 36.4 41.35 37.65 44.8 38.85 45.15 39.0 Q46.05 40.6 47.5 41.95 L48.4 42.9 Q48.75 43.3 49.85 43.3 L50.2 43.3 M28.2 39.6 L27.15 39.85 Q25.15 40.35 23.7 41.3 23.35 41.45 23.35 41.7 L22.6 43.4 22.25 43.9 Q21.55 44.9 20.65 45.35 L20.3 45.6 20.1 46.35 Q19.75 49.65 20.1 52.85 20.3 52.6 20.65 52.5 L21.0 52.25 Q22.25 50.9 24.25 49.55 25.85 48.45 28.2 47.8 L29.3 47.35 Q29.85 47.35 29.85 47.8 29.85 48.2 30.35 48.45 31.1 48.55 31.1 49.55 32.2 48.7 33.6 48.2 L35.95 47.2 Q37.75 46.1 38.3 43.9 38.85 41.8 38.65 39.75 37.05 41.3 32.9 41.55 L30.0 41.2 Q29.3 40.85 30.0 39.95 30.2 39.75 30.55 39.6 31.3 39.0 30.75 39.0 L28.2 39.6 M15.95 48.8 L15.75 49.3 15.25 49.8 14.15 50.4 Q11.45 51.25 10.7 53.45 10.0 55.05 11.6 55.65 L12.0 55.9 Q12.5 56.5 13.8 56.5 L17.05 56.5 17.05 54.2 17.2 53.7 Q17.4 53.45 17.2 52.95 17.2 52.5 16.3 52.35 15.05 52.25 15.4 51.5 L15.4 51.0 Q15.6 49.3 16.65 47.8 16.15 48.05 15.95 48.8 M9.45 40.85 L8.75 40.85 8.4 40.95 Q6.95 41.95 7.3 43.9 7.3 44.4 7.85 44.75 L8.2 45.25 9.3 45.6 10.0 45.6 Q10.55 45.0 10.35 44.15 10.2 43.75 10.35 43.4 11.1 41.55 12.7 40.95 L9.45 40.85 M48.6 47.7 Q49.5 46.85 48.75 46.6 48.4 48.05 45.9 48.9 43.55 49.8 40.45 50.25 L36.85 50.75 36.15 50.65 32.9 50.5 32.2 50.65 Q30.35 51.25 29.45 52.5 L28.95 53.2 28.95 52.7 28.95 49.05 27.5 50.75 Q25.85 52.7 25.15 54.95 23.9 58.5 25.85 61.8 L26.75 63.5 28.2 61.55 28.4 61.3 Q28.95 60.2 30.35 59.35 32.7 58.0 34.7 57.15 L34.35 57.15 32.2 57.15 Q33.8 56.65 35.05 55.65 35.8 55.15 36.7 54.8 L37.6 54.45 Q40.45 53.35 43.7 52.6 44.45 52.5 45.0 52.0 46.8 50.25 48.05 48.3 L48.6 47.7" fill="#ff0000" fill-rule="evenodd" stroke="none"/>
    <path d="M48.6 47.7 L48.05 48.3 Q46.8 50.25 45.0 52.0 44.45 52.5 43.7 52.6 40.45 53.35 37.6 54.45 L36.7 54.8 Q35.8 55.15 35.05 55.65 33.8 56.65 32.2 57.15 L34.35 57.15 34.7 57.15 Q32.7 58.0 30.35 59.35 28.95 60.2 28.4 61.3 L28.2 61.55 26.75 63.5 25.85 61.8 Q23.9 58.5 25.15 54.95 25.85 52.7 27.5 50.75 L28.95 49.05 28.95 52.7 28.95 53.2 29.45 52.5 Q30.35 51.25 32.2 50.65 L32.9 50.5 36.15 50.65 36.85 50.75 40.45 50.25 Q43.55 49.8 45.9 48.9 48.4 48.05 48.75 46.6 49.5 46.85 48.6 47.7 M9.45 40.85 L12.7 40.95 Q11.1 41.55 10.35 43.4 10.2 43.75 10.35 44.15 10.55 45.0 10.0 45.6 L9.3 45.6 8.2 45.25 7.85 44.75 Q7.3 44.4 7.3 43.9 6.95 41.95 8.4 40.95 L8.75 40.85 9.45 40.85 M15.95 48.8 Q16.15 48.05 16.65 47.8 15.6 49.3 15.4 51.0 L15.4 51.5 Q15.05 52.25 16.3 52.35 17.2 52.5 17.2 52.95 17.4 53.45 17.2 53.7 L17.05 54.2 17.05 56.5 13.8 56.5 Q12.5 56.5 12.0 55.9 L11.6 55.65 Q10.0 55.05 10.7 53.45 11.45 51.25 14.15 50.4 L15.25 49.8 15.75 49.3 15.95 48.8 M28.2 39.6 L30.75 39.0 Q31.3 39.0 30.55 39.6 30.2 39.75 30.0 39.95 29.3 40.85 30.0 41.2 L32.9 41.55 Q37.05 41.3 38.65 39.75 38.85 41.8 38.3 43.9 37.75 46.1 35.95 47.2 L33.6 48.2 Q32.2 48.7 31.1 49.55 31.1 48.55 30.35 48.45 29.85 48.2 29.85 47.8 29.85 47.35 29.3 47.35 L28.2 47.8 Q25.85 48.45 24.25 49.55 22.25 50.9 21.0 52.25 L20.65 52.5 Q20.3 52.6 20.1 52.85 19.75 49.65 20.1 46.35 L20.3 45.6 20.65 45.35 Q21.55 44.9 22.25 43.9 L22.6 43.4 23.35 41.7 Q23.35 41.45 23.7 41.3 25.15 40.35 27.15 39.85 L28.2 39.6" fill="#ffcc00" fill-rule="evenodd" stroke="none"/>
    <path d="M19.85 -1.75 Q20.95 -2.55 20.9 -3.4 L21.15 -0.9 21.5 -0.1 Q23.2 2.0 26.0 4.05 30.2 7.3 29.5 10.95 L29.35 11.75 28.95 12.85 28.25 14.05 Q27.0 15.2 26.55 16.75 L26.2 17.85 25.95 18.3 25.7 18.4 Q25.8 18.85 25.55 18.1 25.35 17.55 24.6 17.3 L24.15 17.15 23.4 17.35 Q21.9 18.45 20.9 20.05 L20.85 20.3 20.8 21.95 20.8 22.05 Q18.75 21.9 17.15 21.15 L13.9 19.9 12.3 19.5 Q9.7 18.7 9.45 16.75 L9.1 14.25 8.75 14.1 8.6 13.95 13.4 14.65 15.65 15.35 Q16.65 15.7 16.7 16.2 18.05 15.2 18.65 13.7 L18.65 13.15 Q18.65 12.4 18.9 11.95 L18.65 11.75 Q16.7 10.55 15.3 8.75 L15.05 8.2 Q14.55 6.6 15.45 5.1 L18.9 -0.55 19.85 -1.75 M45.7 12.05 Q46.95 15.35 46.25 18.4 45.85 20.45 44.8 22.3 44.55 22.7 43.75 22.85 L43.45 23.05 41.85 24.7 41.45 22.5 41.35 21.95 Q39.75 23.25 36.8 24.45 L36.4 24.7 33.4 26.3 Q32.65 26.65 32.7 27.45 L32.55 28.05 31.7 30.15 Q27.7 25.6 28.85 20.6 29.8 16.95 32.1 13.7 32.95 13.9 32.65 14.8 32.25 16.2 32.85 17.85 L38.5 12.5 39.3 11.85 Q40.35 10.75 40.05 9.0 L39.05 4.05 Q42.45 6.05 44.1 8.75 L45.7 12.05 M49.1 22.7 L50.0 22.25 55.95 18.05 56.75 17.0 Q57.3 18.1 56.45 19.0 L55.55 20.3 Q54.3 22.65 52.65 24.45 L52.2 24.85 51.5 25.15 48.4 25.9 Q44.95 26.5 42.15 27.35 43.55 25.6 45.85 24.45 L46.25 24.15 Q47.05 23.35 49.1 22.7" fill="#ffcc00" fill-rule="evenodd" stroke="none"/>
    <path d="M19.85 -1.75 L18.9 -0.55 15.45 5.1 Q14.55 6.6 15.05 8.2 L15.3 8.75 Q16.7 10.55 18.65 11.75 L18.9 11.95 Q18.65 12.4 18.65 13.15 L18.65 13.7 Q18.05 15.2 16.7 16.2 16.65 15.7 15.65 15.35 L13.4 14.65 8.6 13.95 8.75 14.1 9.1 14.25 9.45 16.75 Q9.7 18.7 12.3 19.5 L13.9 19.9 17.15 21.15 Q18.75 21.9 20.8 22.05 L20.8 21.95 20.85 20.3 20.9 20.05 Q21.9 18.45 23.4 17.35 L24.15 17.15 24.6 17.3 Q25.35 17.55 25.55 18.1 25.8 18.85 25.7 18.4 L25.95 18.3 26.2 17.85 26.55 16.75 Q27.0 15.2 28.25 14.05 L28.95 12.85 29.35 11.75 29.5 10.95 Q30.2 7.3 26.0 4.05 23.2 2.0 21.5 -0.1 L21.15 -0.9 20.9 -3.4 Q20.95 -2.55 19.85 -1.75 M16.6 -1.45 Q19.0 -5.2 19.85 -9.2 L20.5 -10.85 Q20.85 -8.75 21.45 -6.7 L21.75 -5.6 22.2 -5.1 22.7 -4.2 Q23.25 -3.25 24.2 -2.85 L24.6 -2.55 25.0 -2.15 Q27.0 -1.1 28.05 0.45 L28.45 0.65 29.25 0.6 32.0 0.2 31.6 0.45 Q30.95 1.35 31.25 2.4 L31.65 2.75 Q32.6 2.95 33.4 2.45 L34.15 2.25 38.8 2.6 Q42.25 3.55 44.35 5.7 L46.5 8.2 47.9 9.85 48.1 10.1 49.25 11.7 49.65 12.6 49.95 13.1 51.25 14.6 51.65 15.0 52.25 15.7 52.75 16.05 Q53.35 16.4 53.2 17.3 L55.9 14.8 58.7 12.3 Q59.2 11.65 59.1 12.05 L58.9 12.5 Q58.65 13.1 58.7 13.95 L58.8 15.05 Q58.65 17.15 58.15 18.95 57.55 21.5 55.75 23.4 L53.4 25.35 52.4 26.05 Q49.35 27.95 45.3 28.9 42.8 29.55 40.75 30.55 39.15 31.25 37.6 32.1 35.4 33.2 34.35 34.65 L33.6 34.45 Q30.7 33.4 29.4 31.05 L28.85 29.95 Q27.75 27.9 25.25 26.45 L24.5 26.05 23.2 25.05 Q21.5 23.8 19.25 22.8 20.0 23.55 20.25 24.45 L20.45 25.0 21.0 26.1 21.75 27.75 21.85 27.95 Q21.4 27.75 21.1 27.2 L20.65 26.8 Q19.4 26.05 17.0 25.25 L16.25 24.95 11.95 21.9 11.3 21.4 Q9.05 19.6 7.5 17.85 L7.05 17.3 Q5.9 15.2 5.95 12.85 L5.9 12.6 5.85 12.45 4.8 12.25 4.65 12.1 Q3.45 11.15 2.8 9.85 L2.65 9.65 3.25 9.3 Q5.3 8.25 5.7 7.1 L5.7 6.55 5.45 3.7 6.2 6.8 6.45 7.65 Q7.9 10.55 10.55 12.05 L11.0 12.2 13.35 12.4 Q16.1 12.6 15.25 10.95 L15.05 10.65 Q15.05 9.9 14.25 9.9 12.3 9.9 12.05 9.0 11.65 8.2 11.65 7.35 11.5 3.5 14.9 0.55 L16.6 -1.45 M49.1 22.7 Q47.05 23.35 46.25 24.15 L45.85 24.45 Q43.55 25.6 42.15 27.35 44.95 26.5 48.4 25.9 L51.5 25.15 52.2 24.85 52.65 24.45 Q54.3 22.65 55.55 20.3 L56.45 19.0 Q57.3 18.1 56.75 17.0 L55.95 18.05 50.0 22.25 49.1 22.7 M45.7 12.05 L44.1 8.75 Q42.45 6.05 39.05 4.05 L40.05 9.0 Q40.35 10.75 39.3 11.85 L38.5 12.5 32.85 17.85 Q32.25 16.2 32.65 14.8 32.95 13.9 32.1 13.7 29.8 16.95 28.85 20.6 27.7 25.6 31.7 30.15 L32.55 28.05 32.7 27.45 Q32.65 26.65 33.4 26.3 L36.4 24.7 36.8 24.45 Q39.75 23.25 41.35 21.95 L41.45 22.5 41.85 24.7 43.45 23.05 43.75 22.85 Q44.55 22.7 44.8 22.3 45.85 20.45 46.25 18.4 46.95 15.35 45.7 12.05" fill="#ff0000" fill-rule="evenodd" stroke="none"/>
    <path d="M37.2 -29.35 Q39.5 -29.75 39.9 -28.2 40.5 -25.85 38.45 -24.95 L38.0 -24.65 Q37.15 -23.65 35.2 -23.85 34.1 -23.95 33.65 -24.65 L33.5 -25.0 33.35 -25.5 33.2 -26.15 33.45 -26.75 34.8 -28.65 Q35.4 -29.35 36.4 -29.25 L37.2 -29.35 M4.8 -15.0 Q5.75 -15.25 5.8 -14.55 L6.0 -13.9 6.0 -13.7 5.8 -13.35 Q4.5 -11.7 4.2 -9.7 3.9 -8.3 4.3 -7.15 1.85 -7.45 -0.05 -6.45 L-0.25 -6.2 -0.7 -5.1 Q-0.9 -4.1 -0.1 -3.4 L0.25 -3.1 0.85 -2.75 1.05 -2.55 Q1.45 -1.6 2.15 -2.2 L2.25 -2.55 2.3 -3.6 2.45 -3.95 Q3.0 -4.6 3.65 -4.5 L3.9 -4.5 4.85 -4.05 5.25 -3.95 6.5 -4.25 6.65 -4.25 8.95 -3.6 Q9.6 -3.5 10.05 -3.95 L10.8 -4.85 Q10.55 -2.95 9.95 -1.2 L9.7 -0.45 Q9.1 0.9 7.6 1.45 L6.85 1.75 4.5 2.9 4.1 2.95 2.5 2.9 1.75 2.55 1.25 2.1 0.25 0.6 -0.1 0.35 -0.5 0.35 Q-1.35 0.25 -1.85 -0.5 -3.3 -2.55 -3.85 -4.9 L-4.0 -5.8 Q-4.0 -8.55 -2.5 -10.8 L-2.0 -11.6 -1.8 -11.95 -1.5 -12.3 -1.2 -12.7 Q-0.95 -13.15 -0.5 -13.15 -0.6 -12.35 0.3 -12.7 L0.45 -12.95 Q1.0 -15.5 3.85 -16.2 L4.3 -16.4 5.25 -16.65 Q5.25 -16.1 4.9 -15.6 L4.8 -15.25 4.8 -15.0 M39.45 -19.5 L39.55 -20.25 Q39.45 -21.4 40.8 -21.3 L41.55 -21.5 Q42.8 -22.5 43.3 -21.1 L43.55 -20.6 Q44.75 -18.35 44.5 -15.45 44.35 -13.75 43.35 -12.15 L42.7 -11.1 Q40.5 -7.55 37.15 -6.8 L35.6 -6.65 Q34.25 -6.6 33.1 -7.35 32.0 -8.05 32.2 -10.25 L32.2 -10.3 31.3 -9.75 31.0 -9.25 Q30.25 -9.45 29.6 -8.65 L29.2 -8.25 27.55 -8.2 Q26.25 -9.25 24.85 -11.1 23.9 -12.35 23.8 -13.85 23.75 -14.85 23.85 -15.85 L23.7 -16.3 23.45 -16.95 Q23.0 -17.85 23.25 -19.45 23.65 -22.4 26.05 -24.2 L26.65 -24.75 Q27.3 -25.55 28.8 -25.35 29.6 -25.25 30.1 -24.75 L32.85 -21.9 Q33.3 -21.35 34.4 -21.55 35.7 -21.75 36.0 -21.05 34.85 -20.85 34.1 -19.8 L32.65 -17.95 Q31.05 -16.05 31.9 -14.15 L32.75 -13.8 34.5 -13.75 35.2 -14.2 Q37.75 -15.15 38.65 -17.5 L39.45 -19.5 M28.0 -2.85 L28.8 -3.0 Q32.3 -4.15 36.0 -4.25 34.4 -1.35 34.95 2.95 L35.25 3.7 35.8 5.4 Q36.45 9.2 38.45 12.5 39.2 13.75 39.4 15.0 L39.15 15.25 Q38.0 15.8 37.4 16.85 L36.8 17.35 Q34.5 18.5 32.5 20.25 L32.05 20.95 Q31.35 23.35 31.55 26.15 L31.75 27.3 32.0 27.75 Q31.8 28.65 31.3 27.95 31.2 27.75 30.85 27.65 L30.35 27.5 Q27.85 26.95 26.1 28.3 25.8 28.55 25.6 28.95 23.8 32.0 25.7 34.9 27.15 37.15 29.15 36.1 L31.25 35.1 32.45 34.15 32.6 33.75 Q32.65 32.6 34.0 32.75 L34.25 32.5 34.3 30.55 Q34.2 29.8 34.55 29.2 L34.5 28.9 Q33.8 27.45 34.55 26.75 34.8 26.55 35.2 26.5 36.7 26.25 37.15 27.0 L39.6 26.95 39.85 26.5 Q40.1 25.45 39.75 24.85 L39.65 24.15 Q39.95 22.25 41.35 20.65 L42.3 19.65 43.3 18.6 Q45.5 16.2 48.4 15.3 51.8 14.25 54.9 16.4 L55.9 17.05 Q57.9 18.3 59.25 19.7 59.9 20.35 59.85 21.35 59.8 21.95 60.0 22.55 61.7 27.55 61.05 33.35 60.85 35.25 60.05 37.0 L59.55 38.15 Q58.75 40.25 56.9 41.9 L56.3 42.4 55.25 43.05 Q51.9 44.75 47.6 44.0 L46.85 43.7 Q45.3 42.55 44.0 42.15 45.8 40.7 44.65 39.05 L44.0 38.65 Q42.3 38.25 41.8 39.15 L41.6 39.15 36.85 39.3 Q36.4 39.35 36.1 39.8 35.35 40.95 35.6 42.55 35.9 44.5 35.8 46.55 L35.6 47.75 Q34.9 49.55 33.2 50.9 28.95 54.35 23.2 53.8 L22.05 53.6 21.6 53.35 19.85 51.45 Q19.5 50.95 19.45 50.35 L19.15 50.45 Q17.55 51.0 17.25 49.85 L17.15 49.8 17.0 50.0 16.15 51.1 Q15.3 52.05 13.6 51.95 11.3 51.85 10.95 53.4 10.6 54.95 8.4 54.6 L7.8 54.35 Q7.2 53.75 6.05 54.6 L5.6 54.75 5.2 54.75 4.6 54.6 Q3.15 54.7 1.95 53.4 -0.25 51.0 -1.05 48.1 L-1.2 46.95 Q-1.3 41.5 3.05 38.3 L1.0 36.75 Q0.8 36.55 0.85 36.15 1.0 35.35 1.3 34.6 L1.5 34.1 Q1.85 33.3 1.35 33.05 1.2 32.95 1.3 32.55 1.55 31.55 2.2 31.05 L2.5 30.6 Q2.9 29.0 3.5 27.9 L4.0 27.7 Q7.9 26.95 11.15 24.5 L12.05 23.85 14.7 22.0 Q21.0 17.55 23.5 10.5 L23.6 9.75 23.4 3.75 23.25 3.35 22.4 2.15 Q22.7 1.45 24.0 1.55 L24.8 1.4 26.05 0.55 26.25 0.1 26.35 -1.45 Q26.3 -2.95 28.0 -2.85 M56.8 -13.05 Q56.25 -12.45 56.9 -12.05 57.2 -11.85 57.6 -11.75 59.4 -11.35 59.55 -9.85 L59.7 -8.65 59.9 -7.45 Q60.0 -6.3 59.3 -5.35 L57.85 -3.55 57.25 -3.0 Q54.6 -1.3 50.4 -1.6 50.0 -1.65 49.7 -1.95 48.45 -3.05 47.9 -4.4 47.55 -3.95 47.45 -5.05 L47.35 -5.5 Q46.4 -10.15 49.05 -13.55 49.95 -14.65 51.2 -14.8 L51.65 -14.95 Q53.8 -16.1 55.65 -14.7 56.0 -14.45 56.4 -14.3 57.55 -13.9 56.8 -13.05 M57.95 6.45 Q58.4 6.55 58.65 7.05 59.55 8.7 58.65 10.45 L58.05 11.4 Q57.2 12.5 55.2 12.55 L54.8 12.55 Q52.85 12.55 52.05 10.6 51.9 9.4 52.55 8.25 L53.25 7.4 Q55.25 5.85 57.95 6.45" fill="#ff0000" fill-rule="evenodd" stroke="none"/>
  </g>
</svg>
