<?xml version="1.0" encoding="UTF-8" standalone="no"?>
<svg xmlns:xlink="http://www.w3.org/1999/xlink" height="74.15px" width="58.75px" xmlns="http://www.w3.org/2000/svg">
  <g transform="matrix(1.0, 0.0, 0.0, 1.0, -0.85, 22.65)">
    <path d="M3.6 -2.6 Q5.85 -3.4 7.55 -2.0 L7.75 -1.65 7.85 -0.8 7.85 -0.65 7.95 -0.3 7.85 -0.3 7.55 -0.1 7.35 0.1 Q6.25 1.1 5.0 1.55 L4.6 1.7 3.8 1.65 3.0 1.5 Q2.55 1.4 2.3 0.8 2.1 0.2 1.4 -0.25 L1.2 -0.45 0.85 -0.65 Q1.95 -0.45 2.85 -1.4 L3.15 -1.7 Q3.6 -2.1 3.4 -2.55 L3.6 -2.6 M28.4 -20.9 L30.0 -20.75 30.6 -20.65 Q30.4 -19.25 29.65 -17.8 29.15 -16.8 28.9 -15.65 L28.6 -14.65 Q28.0 -12.8 28.0 -10.85 L28.0 -10.6 27.8 -10.7 27.0 -10.95 26.35 -11.15 26.05 -11.35 25.8 -11.65 Q25.1 -13.35 24.55 -15.05 24.25 -16.05 24.35 -17.25 L24.5 -19.85 24.55 -20.25 Q24.9 -21.2 25.95 -21.55 L26.6 -21.85 28.0 -22.65 Q28.35 -22.4 28.15 -21.65 L28.1 -21.25 Q28.05 -20.9 28.4 -20.9 M39.6 -10.25 L39.45 -10.05 39.45 -9.95 39.3 -9.8 38.85 -9.2 38.6 -8.85 Q38.25 -8.25 37.4 -8.5 L33.2 -9.85 34.35 -11.15 35.45 -12.0 40.35 -16.1 Q40.9 -16.6 41.25 -17.45 L41.35 -17.65 41.4 -17.85 42.0 -16.85 Q42.15 -16.35 41.9 -16.0 L41.8 -15.65 Q41.7 -15.05 41.4 -14.85 41.5 -14.4 41.75 -14.75 L42.0 -14.9 42.4 -15.05 Q41.95 -13.35 40.75 -11.7 L40.45 -11.2 40.4 -11.1 39.65 -10.25 39.6 -10.25 M31.4 -1.25 Q31.95 -1.7 32.6 -1.85 31.85 1.2 33.15 4.0 L33.5 4.7 34.45 6.75 34.9 7.95 35.2 8.95 34.5 8.8 34.4 8.75 Q34.55 11.35 33.9 13.8 L33.7 14.55 33.7 14.75 29.65 18.0 29.15 18.7 28.75 19.5 Q28.5 19.95 28.6 20.55 28.05 18.2 28.3 15.75 L28.45 15.2 28.7 14.35 28.65 13.95 Q28.45 12.95 27.4 13.2 L27.2 13.3 Q26.45 13.6 26.2 14.35 25.9 14.35 26.3 13.85 L26.65 13.4 27.15 12.5 Q28.25 10.6 27.85 8.35 L27.65 7.7 27.3 7.0 26.7 5.35 26.6 4.75 Q26.6 2.55 28.25 1.0 L28.8 0.55 29.4 -0.05 30.75 -0.9 31.4 -1.25 M49.3 -10.85 L49.75 -11.7 50.05 -12.0 50.2 -12.05 Q50.8 -12.15 50.65 -11.45 50.35 -10.3 50.45 -9.05 L50.65 -8.45 50.8 -8.25 51.7 -8.95 51.8 -8.85 Q52.8 -7.95 54.4 -7.95 L54.8 -8.05 56.4 -8.8 57.05 -8.7 57.4 -8.45 Q58.25 -8.1 57.9 -6.9 L57.6 -6.25 Q56.2 -4.0 53.95 -2.75 L53.6 -2.65 51.2 -2.9 Q50.5 -3.1 50.2 -3.6 49.25 -3.9 48.9 -5.0 L48.35 -6.2 Q48.05 -6.6 48.25 -7.45 L48.4 -7.85 49.3 -10.85 M51.8 18.25 Q52.8 18.2 53.15 18.95 L54.25 21.75 54.4 21.95 Q55.2 22.5 55.05 23.75 54.85 25.3 55.15 26.75 L55.25 27.15 55.3 27.25 55.05 27.45 Q53.9 27.95 52.85 28.6 L52.45 28.95 51.4 30.35 50.15 31.9 Q48.6 33.9 46.4 33.15 L46.0 33.0 45.0 32.95 Q44.0 32.95 43.15 32.45 L43.1 32.45 43.05 31.95 Q42.7 28.95 43.7 26.3 L43.7 25.8 43.5 25.3 43.35 24.95 Q43.2 23.7 44.15 22.9 L44.6 22.35 Q47.05 19.15 51.0 18.35 L51.8 18.25 M59.6 29.35 Q59.7 30.75 59.2 31.95 L58.95 32.3 58.3 33.3 58.0 33.75 56.9 35.05 55.25 34.1 Q54.5 33.5 54.5 32.55 L54.45 31.75 Q54.4 31.1 54.7 30.5 55.9 28.4 58.05 27.2 L58.6 27.0 Q59.55 26.8 59.45 27.75 L59.5 28.55 59.6 29.35 M54.3 34.55 L54.7 38.15 Q54.75 39.2 54.35 40.1 53.85 41.1 52.6 41.4 L49.8 41.85 49.4 41.75 Q48.3 41.1 48.55 39.55 L48.6 38.55 48.7 36.95 48.65 36.75 48.5 36.35 Q49.0 34.65 50.6 33.55 L51.75 32.85 52.25 32.6 53.4 31.75 Q53.9 32.3 54.1 33.35 L54.3 34.55 M23.8 21.55 Q21.8 25.4 21.2 29.75 L21.1 30.95 Q21.1 32.0 21.45 32.9 L21.7 33.75 21.6 33.9 Q20.6 34.4 19.85 35.4 18.85 36.75 18.55 38.35 L18.35 39.15 Q18.1 39.75 18.1 40.55 L18.1 40.75 18.0 41.55 17.95 41.5 17.7 40.75 17.7 40.65 16.5 36.4 16.0 34.95 Q14.95 32.35 12.2 32.65 L11.8 32.6 9.2 31.95 Q9.0 31.6 9.4 31.15 L10.15 30.45 10.45 30.2 10.65 29.95 11.0 29.95 11.75 29.85 12.35 29.5 13.4 28.55 13.6 28.35 Q14.1 28.0 14.8 28.05 L15.4 28.0 Q17.6 27.5 19.4 26.15 L20.5 25.05 21.15 24.3 21.6 23.75 Q22.55 22.45 23.8 21.55 M2.9 41.8 Q3.3 40.7 4.0 39.75 5.9 37.4 8.8 37.1 10.2 36.95 11.25 37.9 14.35 40.8 14.15 44.95 14.1 46.1 13.3 47.0 L12.4 48.15 Q11.15 49.85 9.35 50.65 L8.8 50.8 8.2 50.9 Q6.65 51.0 5.7 50.25 L5.45 50.05 4.55 49.6 Q3.95 49.3 3.2 49.15 L3.1 49.15 Q2.5 47.35 2.35 45.55 2.2 43.6 2.9 41.8 M18.7 45.85 Q19.6 44.45 21.2 43.55 23.4 42.35 25.8 42.9 L27.05 42.85 27.55 42.65 28.0 42.4 28.35 42.1 28.65 41.85 29.0 41.75 Q29.85 41.65 30.4 40.95 31.1 40.05 31.2 38.95 31.6 38.55 31.85 39.35 L32.15 40.15 Q33.3 43.1 33.05 46.35 L32.9 47.55 Q32.7 48.85 31.65 49.6 L30.95 50.05 Q29.4 51.05 27.6 51.4 L27.0 51.5 25.75 51.25 25.2 51.1 Q24.1 50.95 24.6 49.95 L25.3 48.15 Q25.55 47.15 25.15 46.6 24.55 45.8 23.85 46.4 L23.0 46.9 22.45 46.7 Q22.25 46.3 21.8 46.15 L21.4 45.95 19.8 45.65 18.7 45.85" fill="#ffcc00" fill-rule="evenodd" stroke="none"/>
  </g>
</svg>
