<?xml version="1.0" encoding="UTF-8" standalone="no"?>
<svg xmlns:xlink="http://www.w3.org/1999/xlink" height="96.3px" width="67.4px" xmlns="http://www.w3.org/2000/svg">
  <g transform="matrix(1.0, 0.0, 0.0, 1.0, 5.9, 33.05)">
    <path d="M45.7 40.6 L46.05 41.1 Q46.95 41.95 48.75 41.95 46.4 43.15 45.9 45.6 45.5 47.1 46.6 47.8 L46.95 48.05 49.5 49.15 49.85 49.3 49.85 50.05 Q49.65 50.75 50.2 51.0 L50.4 51.25 50.55 53.2 Q50.55 54.2 50.05 54.95 L49.65 55.65 Q49.3 56.75 48.05 57.85 L47.7 58.0 46.95 58.25 46.95 58.1 47.35 58.0 Q48.05 57.75 47.85 57.15 L47.85 56.65 47.5 56.15 47.5 55.9 Q47.5 55.4 46.95 55.4 L45.15 55.65 44.8 55.8 43.35 55.8 43.2 55.65 Q43.35 54.8 42.3 54.95 40.3 57.75 35.4 58.85 L34.7 59.1 33.6 59.45 27.85 59.95 Q27.65 59.95 27.5 60.1 23.7 61.3 21.2 63.25 L21.7 62.3 Q21.9 61.8 22.45 61.55 23.35 60.95 23.5 59.85 L23.0 59.95 21.7 59.85 21.35 59.6 Q20.45 59.45 19.9 60.1 L17.95 61.45 17.4 61.8 Q17.4 61.3 17.75 61.05 L18.1 60.55 Q19.2 58.35 17.05 57.15 L16.85 56.9 16.5 55.65 16.3 55.4 Q15.4 55.15 15.25 54.7 15.25 53.95 14.7 53.7 L13.8 53.45 12.0 53.6 10.9 53.7 Q8.2 53.95 6.95 52.7 L6.4 52.0 6.05 51.25 Q5.5 49.9 5.65 48.3 L5.65 47.55 Q5.85 44.65 9.8 44.15 11.25 43.9 12.0 42.65 L12.5 42.3 Q13.6 41.7 13.4 40.45 L13.4 40.2 13.8 40.1 14.15 40.1 15.4 39.5 Q16.65 38.25 18.1 37.5 L18.3 38.25 Q18.3 39.0 18.45 39.75 18.65 41.2 19.2 42.2 19.9 40.45 21.35 38.75 23.15 36.8 26.05 35.3 L28.4 33.85 Q29.3 33.25 29.3 33.6 L29.65 37.3 30.55 36.3 31.1 35.55 Q32.0 34.35 33.25 33.6 L33.6 33.85 35.05 35.55 36.35 36.65 Q38.15 38.25 40.85 38.75 L40.65 38.5 Q39.95 37.4 40.1 36.05 L40.3 36.4 Q40.85 36.9 41.2 37.75 L41.75 38.15 Q43.7 39.25 45.7 40.6 M29.65 45.0 L27.85 45.5 Q24.25 46.25 21.35 48.05 19.75 49.3 19.55 50.75 L19.75 51.25 Q20.3 51.85 19.55 52.5 L19.4 52.7 18.45 54.2 Q17.4 55.55 18.1 57.15 L18.65 57.5 Q19.75 58.25 21.35 58.35 L21.35 58.1 21.55 57.75 23.15 56.75 27.5 56.65 27.85 56.9 33.25 57.85 34.0 57.75 34.7 57.5 35.6 57.0 36.85 55.9 37.75 55.05 38.5 54.3 Q39.4 53.45 38.65 53.2 L37.95 53.95 36.15 54.45 34.0 54.7 33.45 54.8 Q33.1 55.3 32.9 54.7 33.45 54.7 33.6 54.2 L34.35 53.45 37.05 51.6 Q38.15 50.65 38.3 49.55 L38.15 49.05 Q37.25 47.55 37.4 45.6 37.4 44.0 37.75 42.45 37.95 41.3 37.25 40.95 L36.85 41.45 35.4 42.55 31.8 44.15 29.65 45.0 M14.15 44.4 L13.8 44.65 13.6 44.9 13.05 45.5 10.2 46.85 Q7.3 47.95 7.65 50.25 L8.2 51.25 8.55 51.6 9.3 52.25 Q9.65 52.7 10.9 52.7 L14.15 52.25 14.85 52.1 15.4 52.1 15.4 52.0 15.4 51.5 Q15.25 50.4 13.8 49.3 L13.6 48.8 13.4 47.8 Q13.05 45.85 14.15 44.4 M41.55 43.9 L40.65 46.35 40.3 46.85 Q39.4 48.3 39.75 50.25 40.1 51.35 41.2 52.25 L41.9 52.5 44.1 52.6 45.15 53.35 47.35 54.45 47.5 53.95 47.5 53.7 47.35 51.25 Q47.35 51.0 47.5 51.0 47.85 50.75 47.7 50.25 L47.5 49.55 Q47.35 49.05 46.8 48.7 L46.4 48.2 Q45.35 47.45 43.7 46.85 41.55 46.0 41.55 43.9" fill="#ff0000" fill-rule="evenodd" stroke="none"/>
    <path d="M41.55 43.9 Q41.55 46.0 43.7 46.85 45.35 47.45 46.4 48.2 L46.8 48.7 Q47.35 49.05 47.5 49.55 L47.7 50.25 Q47.85 50.75 47.5 51.0 47.35 51.0 47.35 51.25 L47.5 53.7 47.5 53.95 47.35 54.45 45.15 53.35 44.1 52.6 41.9 52.5 41.2 52.25 Q40.1 51.35 39.75 50.25 39.4 48.3 40.3 46.85 L40.65 46.35 41.55 43.9 M14.15 44.4 Q13.05 45.85 13.4 47.8 L13.6 48.8 13.8 49.3 Q15.25 50.4 15.4 51.5 L15.4 52.0 15.4 52.1 14.85 52.1 14.15 52.25 10.9 52.7 Q9.65 52.7 9.3 52.25 L8.55 51.6 8.2 51.25 7.65 50.25 Q7.3 47.95 10.2 46.85 L13.05 45.5 13.6 44.9 13.8 44.65 14.15 44.4 M29.65 45.0 L31.8 44.15 35.4 42.55 36.85 41.45 37.25 40.95 Q37.95 41.3 37.75 42.45 37.4 44.0 37.4 45.6 37.25 47.55 38.15 49.05 L38.3 49.55 Q38.15 50.65 37.05 51.6 L34.35 53.45 33.6 54.2 Q33.45 54.7 32.9 54.7 33.1 55.3 33.45 54.8 L34.0 54.7 36.15 54.45 37.95 53.95 38.65 53.2 Q39.4 53.45 38.5 54.3 L37.75 55.05 36.85 55.9 35.6 57.0 34.7 57.5 34.0 57.75 33.25 57.85 27.85 56.9 27.5 56.65 23.15 56.75 21.55 57.75 21.35 58.1 21.35 58.35 Q19.75 58.25 18.65 57.5 L18.1 57.15 Q17.4 55.55 18.45 54.2 L19.4 52.7 19.55 52.5 Q20.3 51.85 19.75 51.25 L19.55 50.75 Q19.75 49.3 21.35 48.05 24.25 46.25 27.85 45.5 L29.65 45.0" fill="#ffcc00" fill-rule="evenodd" stroke="none"/>
    <path d="M18.6 -3.1 Q18.9 -3.95 19.85 -4.2 L20.25 -3.4 Q20.6 -1.95 21.85 -0.65 23.0 0.6 24.8 1.45 L26.0 2.1 Q28.25 4.1 28.3 6.8 L28.35 8.2 28.1 8.75 Q26.35 10.95 25.6 13.4 L25.35 13.95 24.65 15.05 Q24.1 15.5 23.65 14.5 L23.25 14.6 Q21.6 14.95 20.75 15.9 19.15 17.6 18.25 19.2 L17.9 20.3 17.65 21.4 17.55 22.15 Q15.2 21.7 14.25 20.05 12.35 17.05 12.05 13.7 L11.8 11.5 Q12.85 11.7 13.2 12.5 13.4 12.75 13.9 12.85 L14.35 13.15 15.85 13.95 Q15.4 10.85 16.75 8.0 17.6 6.05 16.9 3.75 15.65 0.1 18.25 -2.55 L18.6 -3.1 M43.3 5.15 L41.45 15.05 41.15 16.45 Q40.5 19.2 37.2 21.2 35.6 22.15 34.75 23.05 L34.35 23.35 Q32.3 24.15 31.95 26.35 L31.85 26.65 31.25 28.3 31.15 28.85 31.05 29.15 30.75 30.45 Q29.65 29.9 28.8 29.05 L27.9 28.05 Q24.3 22.95 26.3 17.6 27.15 15.05 28.55 12.65 L28.9 11.95 29.15 11.5 29.4 10.95 Q30.25 11.2 30.35 12.3 L30.4 14.25 Q31.05 12.75 32.3 11.3 L33.1 10.8 36.8 9.5 Q40.0 8.4 42.15 6.25 L43.3 5.15 M49.55 19.85 L50.45 19.7 50.9 19.6 51.35 19.6 51.5 19.6 50.25 20.65 49.8 21.15 Q47.95 23.2 45.8 24.65 L41.7 27.15 39.45 28.65 38.4 29.35 Q38.15 29.4 38.2 29.7 37.35 29.55 38.3 28.8 L38.7 28.05 Q38.9 27.25 39.45 26.65 L42.3 23.7 42.85 23.25 Q45.15 21.6 47.3 20.5 47.85 20.15 48.7 19.95 L49.55 19.85" fill="#ffcc00" fill-rule="evenodd" stroke="none"/>
    <path d="M17.45 -7.05 L18.4 -8.0 Q20.05 -9.5 22.2 -10.65 L24.9 -11.65 23.1 -9.65 Q21.5 -7.6 21.95 -5.05 22.2 -3.8 23.75 -2.85 24.75 -2.3 26.6 -2.15 L29.05 -2.2 29.1 -2.0 29.25 0.2 30.1 4.05 Q30.2 4.75 31.05 4.95 L31.55 5.1 35.75 5.2 Q39.0 4.35 41.4 2.6 L43.9 0.75 44.05 1.55 Q44.25 3.55 46.25 5.2 L48.8 7.3 Q50.7 9.0 52.25 10.85 L52.9 11.85 Q54.05 13.2 54.2 14.8 54.45 15.95 53.75 16.6 53.65 16.65 53.7 16.8 L54.0 16.65 54.45 16.5 56.6 16.2 Q55.65 16.85 55.1 18.4 53.75 21.55 50.75 24.35 L49.65 25.25 47.15 27.15 46.0 27.75 38.8 31.25 Q37.35 32.0 35.9 32.9 L35.35 33.35 33.85 33.9 33.5 33.95 33.3 34.0 32.35 33.8 32.0 33.65 30.15 32.7 Q27.2 31.25 25.4 28.6 24.15 26.65 23.35 24.7 22.65 22.8 23.1 21.4 21.65 22.3 21.15 23.9 L20.7 25.8 20.8 26.35 Q19.55 26.3 18.3 25.6 L17.55 25.2 Q14.65 23.5 12.1 21.5 L11.45 20.8 10.45 19.75 Q7.25 15.85 9.2 12.05 L9.75 11.35 10.4 11.2 Q13.1 11.15 13.05 9.55 L12.9 7.35 Q12.3 3.65 13.3 0.2 L13.8 -1.4 14.6 -3.1 Q15.75 -5.2 17.45 -7.05 M49.55 19.85 L48.7 19.95 Q47.85 20.15 47.3 20.5 45.15 21.6 42.85 23.25 L42.3 23.7 39.45 26.65 Q38.9 27.25 38.7 28.05 L38.3 28.8 Q37.35 29.55 38.2 29.7 38.15 29.4 38.4 29.35 L39.45 28.65 41.7 27.15 45.8 24.65 Q47.95 23.2 49.8 21.15 L50.25 20.65 51.5 19.6 51.35 19.6 50.9 19.6 50.45 19.7 49.55 19.85 M43.3 5.15 L42.15 6.25 Q40.0 8.4 36.8 9.5 L33.1 10.8 32.3 11.3 Q31.05 12.75 30.4 14.25 L30.35 12.3 Q30.25 11.2 29.4 10.95 L29.15 11.5 28.9 11.95 28.55 12.65 Q27.15 15.05 26.3 17.6 24.3 22.95 27.9 28.05 L28.8 29.05 Q29.65 29.9 30.75 30.45 L31.05 29.15 31.15 28.85 31.25 28.3 31.85 26.65 31.95 26.35 Q32.3 24.15 34.35 23.35 L34.75 23.05 Q35.6 22.15 37.2 21.2 40.5 19.2 41.15 16.45 L41.45 15.05 43.3 5.15 M18.6 -3.1 L18.25 -2.55 Q15.65 0.1 16.9 3.75 17.6 6.05 16.75 8.0 15.4 10.85 15.85 13.95 L14.35 13.15 13.9 12.85 Q13.4 12.75 13.2 12.5 12.85 11.7 11.8 11.5 L12.05 13.7 Q12.35 17.05 14.25 20.05 15.2 21.7 17.55 22.15 L17.65 21.4 17.9 20.3 18.25 19.2 Q19.15 17.6 20.75 15.9 21.6 14.95 23.25 14.6 L23.65 14.5 Q24.1 15.5 24.65 15.05 L25.35 13.95 25.6 13.4 Q26.35 10.95 28.1 8.75 L28.35 8.2 28.3 6.8 Q28.25 4.1 26.0 2.1 L24.8 1.45 Q23.0 0.6 21.85 -0.65 20.6 -1.95 20.25 -3.4 L19.85 -4.2 Q18.9 -3.95 18.6 -3.1" fill="#ff0000" fill-rule="evenodd" stroke="none"/>
    <path d="M38.5 -30.15 L38.4 -29.85 Q41.0 -28.4 44.0 -27.85 42.4 -27.15 41.15 -25.9 40.6 -25.4 39.65 -24.95 L39.2 -24.65 Q37.95 -23.5 38.85 -21.9 L39.85 -20.15 39.95 -19.45 Q39.9 -18.75 39.25 -18.55 39.0 -18.45 38.85 -18.2 L38.45 -17.7 38.05 -17.95 37.8 -18.25 38.0 -19.05 Q38.55 -20.35 38.6 -21.45 L38.4 -22.25 Q37.1 -25.3 34.35 -26.5 L33.6 -26.65 Q30.9 -26.75 29.65 -24.65 28.7 -23.05 29.7 -21.95 L30.4 -21.45 Q29.5 -21.15 29.25 -21.45 28.35 -22.45 29.05 -23.95 L29.15 -24.65 Q29.05 -26.55 30.0 -27.85 32.5 -31.4 36.85 -32.45 L38.4 -32.75 39.6 -32.9 42.0 -33.05 39.15 -30.75 38.5 -30.15 M1.1 -15.35 Q0.4 -14.35 0.4 -12.65 0.4 -11.95 0.7 -11.25 L0.0 -9.75 Q-2.4 -8.55 -2.4 -3.85 -2.4 -2.8 -1.8 -1.75 -0.95 -0.25 0.85 0.1 0.9 0.55 1.1 0.85 L1.35 1.3 Q1.6 2.25 2.45 2.9 3.0 3.35 3.75 3.35 6.8 3.35 8.5 1.05 L8.9 -0.1 9.0 -0.4 9.05 -0.45 10.6 -0.25 Q12.15 -0.25 13.15 -0.95 L12.75 -0.3 Q11.85 1.05 10.4 1.8 L6.8 3.55 4.6 3.95 2.65 3.5 Q1.1 2.75 0.05 1.65 L-0.35 1.25 Q-0.75 0.85 -0.7 1.05 L-0.95 0.95 Q-2.75 0.55 -3.6 -0.55 L-3.95 -1.0 -4.85 -2.35 Q-5.5 -3.45 -5.75 -4.8 L-5.85 -5.65 Q-6.05 -7.15 -5.55 -8.45 L-5.3 -8.85 -4.9 -8.9 -3.85 -8.95 -3.7 -9.2 Q-3.1 -11.35 -1.85 -13.2 L-0.1 -14.75 1.1 -15.35 M6.7 -16.2 L5.65 -16.55 5.7 -16.6 6.0 -16.65 6.2 -16.6 6.7 -16.2 M14.15 -6.85 L14.15 -6.95 14.2 -6.75 14.15 -6.85 M22.45 -23.0 L23.6 -25.45 Q23.05 -21.7 24.8 -18.65 L25.25 -17.9 Q25.85 -17.05 26.8 -17.0 27.45 -16.9 27.25 -15.85 26.6 -12.25 29.3 -10.45 L29.9 -10.1 Q32.55 -8.75 36.0 -9.85 35.95 -8.6 34.4 -8.2 L29.2 -7.5 27.1 -7.85 Q26.85 -7.7 26.35 -8.15 L25.65 -8.75 Q22.05 -11.7 21.5 -16.25 L21.35 -17.45 Q21.2 -20.0 22.05 -22.25 L22.45 -23.0 M28.3 -0.5 L28.8 -0.6 Q31.0 -0.4 32.5 -1.25 L33.2 -1.45 Q35.55 -1.6 37.55 -0.95 L38.0 -0.65 39.35 0.85 39.8 1.45 40.1 2.1 40.25 2.6 40.5 4.55 Q40.6 5.35 41.1 5.85 41.8 6.55 41.7 8.15 L41.3 10.9 40.75 11.7 Q39.15 13.1 39.35 14.95 L39.6 15.3 41.9 15.45 42.25 14.95 Q42.9 11.25 46.8 10.45 L47.6 10.3 Q52.45 9.55 55.3 12.45 L57.9 15.05 58.3 15.75 59.0 18.2 59.2 19.35 Q59.25 21.8 58.65 24.1 58.1 26.3 58.1 28.55 58.1 29.7 56.9 30.05 56.6 30.15 56.3 30.45 L55.6 30.95 Q53.55 31.9 52.3 33.65 51.9 34.25 50.8 34.3 L49.4 34.25 48.0 35.05 Q47.1 35.25 47.0 36.55 L47.0 36.95 47.05 37.4 Q47.4 38.85 47.85 39.8 L48.1 40.55 48.25 41.35 Q48.35 43.5 47.5 45.3 L46.7 46.45 45.15 47.7 Q43.65 48.65 41.6 48.6 39.65 48.6 38.6 47.55 38.4 47.35 38.05 47.25 L37.55 47.1 Q36.5 46.85 35.7 47.5 L35.1 48.05 32.75 50.05 32.0 50.6 30.85 51.4 Q29.75 52.2 27.95 52.8 L26.8 52.95 Q24.3 52.9 22.25 51.55 L21.65 51.25 21.25 50.95 Q20.8 50.35 20.0 50.2 18.2 49.85 18.2 51.55 15.65 52.1 13.2 51.0 L12.0 50.6 Q10.05 50.05 9.5 47.75 L9.2 46.95 Q8.55 45.6 8.85 43.35 L9.15 41.35 Q9.4 39.75 7.6 39.7 7.1 39.65 6.65 39.05 L6.15 38.45 Q5.05 37.0 4.85 35.0 L4.4 34.65 1.2 33.75 Q-1.8 32.55 -2.25 28.95 -2.65 25.55 -1.8 22.6 L-1.35 21.3 Q0.25 17.6 3.9 15.6 6.2 14.35 8.8 13.75 L12.0 13.55 12.45 13.7 Q13.8 14.6 14.05 16.95 14.25 18.95 16.05 19.55 L17.2 19.85 Q18.5 20.05 18.85 19.4 L19.05 18.9 Q19.4 16.9 21.55 16.6 L22.0 16.15 Q22.85 14.65 22.95 13.35 L22.85 12.55 21.5 9.0 21.3 8.5 20.45 6.55 Q20.0 5.25 20.15 3.75 L20.45 2.55 Q21.9 -1.0 26.0 -1.45 26.65 -1.5 26.75 -0.7 26.8 -0.45 27.2 -0.3 28.05 0.0 28.3 -0.5 M51.1 -13.9 L50.55 -11.8 Q50.25 -10.3 50.9 -9.1 51.8 -7.4 53.0 -6.4 L52.4 -6.55 Q50.65 -6.9 50.95 -5.1 L51.15 -4.65 Q52.15 -3.4 50.4 -3.4 L47.0 -3.55 Q46.35 -4.35 46.05 -5.85 45.05 -11.25 49.25 -14.6 L50.4 -15.5 50.8 -15.85 Q51.6 -15.25 50.5 -14.5 L50.4 -14.25 51.2 -14.15 51.1 -13.9 M55.4 -8.15 Q56.45 -9.75 58.35 -10.7 60.75 -11.9 61.3 -9.45 L61.45 -8.65 Q61.75 -7.0 60.65 -6.0 59.9 -5.25 58.4 -5.1 55.25 -4.7 55.4 -7.85 L55.4 -8.15 M58.55 5.7 L58.65 6.2 Q58.9 7.25 58.0 7.45 57.6 7.55 57.25 7.8 L56.8 8.1 Q55.8 8.9 55.25 7.35 L54.9 6.45 55.6 5.7 Q56.2 5.3 57.2 5.0 58.35 4.7 58.55 5.7 M31.65 22.9 Q31.15 22.9 30.45 23.45 L30.3 23.6 Q28.2 25.5 28.7 28.55 L29.05 29.65 Q29.2 29.95 29.6 30.0 33.05 30.5 34.65 27.65 L34.9 26.95 35.05 26.15 Q35.45 23.1 33.2 22.65 32.15 22.45 31.65 22.9" fill="#ff0000" fill-rule="evenodd" stroke="none"/>
  </g>
</svg>
