<?xml version="1.0" encoding="UTF-8" standalone="no"?>
<svg xmlns:xlink="http://www.w3.org/1999/xlink" height="79.9px" width="55.65px" xmlns="http://www.w3.org/2000/svg">
  <g transform="matrix(1.0, 0.0, 0.0, 1.0, -1.25, 30.75)">
    <path d="M36.4 -30.7 Q37.1 -30.85 37.1 -30.25 37.05 -28.7 36.0 -28.05 L36.0 -28.0 34.25 -29.3 34.2 -29.45 Q35.15 -30.45 36.4 -30.7 M23.2 -17.45 L23.65 -17.1 25.75 -15.0 26.0 -14.65 26.1 -14.45 26.05 -14.05 Q25.7 -12.4 25.65 -10.65 L25.65 -9.8 24.05 -11.7 Q22.6 -13.7 22.85 -16.25 L23.2 -17.45 M48.95 -7.4 L49.25 -6.9 49.55 -6.25 Q49.6 -5.6 49.05 -5.2 48.4 -4.75 47.7 -4.6 47.3 -4.9 47.25 -5.85 47.1 -8.45 48.0 -10.25 48.4 -9.9 48.45 -9.05 48.5 -8.2 48.95 -7.4 M47.0 12.45 L47.8 12.35 Q50.8 12.35 53.4 13.9 L54.15 14.4 Q55.3 15.35 54.45 16.6 L54.15 17.1 Q53.45 18.2 53.05 19.35 L52.45 19.9 52.05 20.2 51.8 20.75 Q51.3 22.4 49.6 22.6 L48.4 22.7 Q47.3 22.7 46.45 23.25 L45.8 23.75 Q44.25 25.05 42.95 26.7 L42.35 27.2 42.3 27.1 Q41.9 26.45 41.8 25.75 41.35 22.75 41.95 19.75 L42.25 18.55 Q42.6 17.5 43.65 16.8 L44.55 15.55 45.3 14.25 45.35 13.95 Q45.2 12.9 46.2 12.65 L47.0 12.45 M50.6 24.2 Q51.2 24.1 51.45 24.75 L52.0 27.2 Q52.15 28.95 51.35 30.75 L50.4 31.6 47.2 31.8 Q46.6 31.65 46.35 31.35 45.8 30.65 45.55 29.7 45.8 27.25 47.65 25.65 L48.35 25.1 Q49.2 24.55 50.2 24.3 L50.6 24.2 M52.6 22.75 Q54.15 21.35 56.05 20.7 L56.4 20.75 Q56.9 21.1 56.9 21.95 L56.5 24.5 56.25 25.2 55.65 26.4 55.35 26.65 55.0 26.75 53.65 26.85 53.5 26.5 52.95 24.95 Q52.55 23.95 52.5 22.95 L52.6 22.75 M45.1 40.55 L45.05 41.75 45.1 42.8 Q45.35 43.4 44.8 43.75 L44.6 43.95 Q43.8 44.65 42.95 44.5 41.8 45.5 40.45 44.85 L40.05 44.5 Q39.2 43.3 39.35 41.75 L39.5 40.75 39.8 39.95 Q40.95 38.05 43.15 38.5 L43.8 38.7 Q45.05 39.3 45.1 40.55 M38.2 2.95 Q39.05 5.15 39.0 7.55 38.95 9.5 37.85 11.2 L37.2 12.15 37.0 12.55 Q37.0 12.75 36.55 12.2 L35.85 11.7 Q34.35 11.15 33.85 12.4 L33.75 12.7 33.2 13.75 33.0 13.95 31.0 14.8 30.6 14.9 Q29.6 15.0 29.2 15.95 L29.2 16.0 28.75 15.8 Q28.05 15.4 27.9 14.75 L27.9 14.15 28.25 13.4 29.55 11.1 29.65 10.75 Q29.9 9.8 30.5 8.9 L30.85 8.35 Q31.55 6.95 30.9 5.6 L30.65 5.1 Q30.05 4.15 29.0 3.75 L26.25 3.5 25.9 3.8 25.2 5.35 Q24.75 5.45 24.55 4.95 L23.8 3.35 Q27.25 2.85 30.6 1.7 L31.0 1.6 Q31.35 1.5 31.3 0.95 L31.4 0.8 33.8 0.5 Q35.95 0.6 37.55 2.0 L38.2 2.95 M25.25 21.6 L27.2 19.75 25.0 26.95 24.5 28.6 24.4 29.35 24.4 30.2 Q23.7 30.6 23.2 31.35 22.4 32.45 21.15 32.85 19.45 33.45 18.0 34.15 L16.9 34.85 16.6 35.0 16.4 35.05 Q15.35 34.0 15.9 32.5 L16.25 31.35 Q16.55 30.1 17.3 29.1 L17.35 28.75 17.1 27.15 17.2 26.75 18.1 25.5 18.15 25.15 18.1 24.75 18.2 24.65 Q19.6 24.35 21.0 23.7 L24.15 22.25 25.25 21.6 M10.2 17.5 Q12.05 17.95 13.5 19.25 L13.95 19.95 Q14.85 22.15 14.95 24.55 L14.9 27.15 14.8 27.55 14.1 28.65 13.75 29.1 13.15 29.95 Q12.6 30.8 12.9 31.8 L13.0 32.35 12.9 39.35 12.85 40.15 Q12.7 41.35 12.2 42.35 12.55 38.35 11.05 34.95 L10.1 33.45 9.85 33.25 8.75 32.75 5.45 32.4 4.95 32.2 4.45 31.9 Q3.45 31.35 3.4 30.35 L3.35 29.75 3.25 29.55 1.65 27.5 1.45 27.15 Q0.85 24.95 2.05 22.75 3.3 20.5 5.05 18.6 6.75 16.8 9.2 17.25 L10.2 17.5 M20.65 42.15 L20.8 42.0 Q21.8 41.55 22.1 40.9 L22.2 40.55 Q22.2 39.8 23.0 39.5 L24.2 38.95 Q26.1 37.9 28.2 37.15 31.1 36.15 33.8 37.4 L34.3 37.9 34.75 38.95 35.3 40.75 35.35 41.15 35.4 41.55 34.55 41.6 Q33.5 41.05 32.65 42.0 32.5 42.15 32.5 42.35 32.4 43.15 32.7 43.6 L32.7 43.9 Q31.45 46.45 29.15 48.1 28.4 48.7 27.4 48.9 L24.4 49.1 23.8 48.75 23.6 48.55 Q23.4 48.35 23.35 47.95 L23.0 47.9 22.6 47.75 20.7 46.45 20.6 46.15 Q20.5 44.95 21.3 44.05 L21.35 43.75 Q21.25 42.8 20.7 42.4 L20.65 42.15" fill="#ffcc00" fill-rule="evenodd" stroke="none"/>
  </g>
</svg>
