<?xml version="1.0" encoding="UTF-8" standalone="no"?>
<svg xmlns:xlink="http://www.w3.org/1999/xlink" height="24.45px" width="26.2px" xmlns="http://www.w3.org/2000/svg">
  <g transform="matrix(1.0, 0.0, 0.0, 1.0, 13.1, 12.2)">
    <path d="M2.15 -11.0 Q4.6 -12.6 7.5 -12.05 10.95 -11.2 12.35 -8.05 14.15 -3.7 11.5 0.25 6.75 7.3 -0.2 12.25 -4.25 9.4 -7.4 5.7 -9.8 2.9 -11.55 -0.05 -12.9 -2.3 -13.1 -4.95 -13.25 -7.55 -11.6 -9.7 -10.15 -11.6 -8.05 -11.95 -3.35 -12.95 -0.7 -9.4 L-0.55 -9.4 -0.55 -9.3 -0.55 -9.2 -0.3 -9.1 -0.5 -9.15 -0.35 -8.85 -0.35 -8.8 -0.3 -8.75 -0.3 -8.7 -0.2 -8.55 Q0.75 -10.0 2.15 -11.0" fill="#3c0000" fill-rule="evenodd" stroke="none"/>
  </g>
</svg>
