<?xml version="1.0" encoding="UTF-8" standalone="no"?>
<svg xmlns:xlink="http://www.w3.org/1999/xlink" height="278.1px" width="75.3px" xmlns="http://www.w3.org/2000/svg">
  <g transform="matrix(1.0, 0.0, 0.0, 1.0, 37.8, 139.4)">
    <path d="M-16.55 -130.4 Q-5.9 -121.85 -3.65 -111.45 -0.15 -93.8 1.8 -76.1 3.95 -60.45 5.7 -44.7 7.0 -28.35 7.85 -11.9 8.5 -0.95 8.6 10.0 L8.6 20.95 Q8.75 38.05 8.1 51.25 L11.55 51.75 11.55 57.5 34.1 57.5 29.15 61.7 11.0 62.65 9.05 69.7 6.25 70.6 Q6.0 85.75 4.15 100.8 2.45 115.0 -0.8 129.1 L-1.05 130.05 -2.25 134.95 -8.75 137.35 Q10.8 37.55 -16.55 -130.4" fill="#202020" fill-rule="evenodd" stroke="none"/>
    <path d="M-8.75 137.35 L-13.5 134.95 -12.65 130.15 -12.65 130.05 Q-10.35 115.55 -9.6 100.8 -8.95 85.8 -9.95 70.6 L-12.75 69.7 -14.7 62.65 -31.2 61.7 -35.0 57.5 -15.25 57.5 -14.95 51.85 -11.35 51.35 Q-10.5 41.3 -10.25 27.25 L-10.25 10.0 Q-10.35 0.75 -10.7 -8.55 -11.35 -26.9 -12.75 -45.15 -14.5 -65.1 -17.55 -85.0 -21.1 -111.05 -26.65 -137.0 -20.9 -133.85 -16.55 -130.4 10.8 37.55 -8.75 137.35" fill="#3f3f3f" fill-rule="evenodd" stroke="none"/>
    <path d="M6.95 -44.85 L6.95 -44.8 9.1 -11.95 Q9.75 -1.0 9.85 10.0 L9.85 20.95 Q10.0 37.35 9.4 50.2 L12.8 50.7 12.8 56.25 37.5 56.25 29.65 62.95 12.0 63.85 10.1 70.7 7.5 71.55 Q7.2 86.3 5.4 100.95 3.7 115.2 0.45 129.4 L0.4 129.45 0.2 130.35 0.15 130.4 -1.0 135.25 -1.15 135.9 -8.8 138.7 -14.9 135.65 -14.7 134.7 -13.9 130.15 -13.9 130.05 -13.9 129.95 -13.85 129.85 Q-11.6 115.4 -10.85 100.75 -10.2 86.2 -11.15 71.55 L-13.75 70.7 -15.65 63.85 -31.75 62.95 -37.8 56.25 -16.4 56.25 -16.15 50.75 -12.5 50.25 Q-11.75 40.55 -11.5 27.25 L-11.5 10.05 -11.5 10.0 Q-11.6 0.75 -11.95 -8.5 -12.6 -26.8 -14.0 -45.05 -15.75 -64.95 -18.75 -84.8 L-18.8 -84.8 Q-22.35 -110.85 -27.85 -136.75 L-28.45 -139.4 -26.05 -138.1 Q-20.2 -134.9 -15.75 -131.35 -4.75 -122.5 -2.4 -111.7 1.1 -94.0 3.05 -76.25 5.2 -60.6 6.95 -44.85 M0.55 -75.9 L0.55 -75.95 Q-1.4 -93.6 -4.85 -111.15 -7.05 -121.2 -17.3 -129.4 -20.65 -132.05 -24.85 -134.5 -19.65 -109.9 -16.3 -85.15 L-16.3 -85.2 Q-13.25 -65.25 -11.5 -45.25 -10.1 -27.0 -9.45 -8.6 L-9.0 10.0 -9.0 27.25 -9.0 27.3 Q-9.25 41.35 -10.1 51.45 L-10.15 52.45 -13.75 52.95 -14.05 58.75 -32.15 58.75 -30.6 60.5 -13.7 61.45 -11.7 68.7 -8.75 69.7 -8.7 70.55 Q-7.7 85.8 -8.35 100.85 L-8.35 100.9 Q-9.1 115.6 -11.4 130.1 L-11.4 130.25 -11.4 130.35 -12.1 134.3 -8.65 136.0 -3.3 134.05 -2.25 129.75 -2.25 129.8 -2.0 128.85 Q1.2 114.8 2.9 100.65 4.75 85.65 5.0 70.6 L5.05 69.7 8.05 68.7 10.05 61.45 28.7 60.5 30.7 58.75 10.3 58.75 10.3 52.85 6.8 52.35 6.85 51.2 Q7.5 38.0 7.35 20.95 L7.35 10.0 Q7.25 -0.9 6.6 -11.8 5.75 -28.25 4.45 -44.55 2.7 -60.3 0.55 -75.9" fill="#cccccc" fill-rule="evenodd" stroke="none"/>
  </g>
</svg>
