<?xml version="1.0" encoding="UTF-8" standalone="no"?>
<svg xmlns:xlink="http://www.w3.org/1999/xlink" height="274.35px" width="69.1px" xmlns="http://www.w3.org/2000/svg">
  <g transform="matrix(1.0, 0.0, 0.0, 1.0, 35.0, 137.0)">
    <path d="M5.7 -44.7 Q7.0 -28.35 7.85 -11.9 8.5 -0.95 8.6 10.0 L8.6 20.95 Q8.75 38.05 8.1 51.25 L11.55 51.75 11.55 57.5 34.1 57.5 29.15 61.7 11.0 62.65 9.05 69.7 6.25 70.6 Q6.0 85.75 4.15 100.8 2.45 115.0 -0.8 129.1 L-1.05 130.05 -2.25 134.95 -8.75 137.35 -13.5 134.95 -12.65 130.15 -12.65 130.05 Q-10.35 115.55 -9.6 100.8 -8.95 85.8 -9.95 70.6 L-12.75 69.7 -14.7 62.65 -31.2 61.7 -35.0 57.5 -15.25 57.5 -14.95 51.85 -11.35 51.35 Q-10.5 41.3 -10.25 27.25 L-10.25 10.0 Q-10.35 0.75 -10.7 -8.55 -11.35 -26.9 -12.75 -45.15 -14.5 -65.1 -17.55 -85.0 -21.1 -111.05 -26.65 -137.0 -20.9 -133.85 -16.55 -130.4 -5.9 -121.85 -3.65 -111.45 -0.15 -93.8 1.8 -76.1 3.95 -60.45 5.7 -44.7" fill="#0033ff" fill-rule="evenodd" stroke="none"/>
  </g>
</svg>
