<?xml version="1.0" encoding="UTF-8" standalone="no"?>
<svg xmlns:xlink="http://www.w3.org/1999/xlink" height="61.65px" width="53.75px" xmlns="http://www.w3.org/2000/svg">
  <g transform="matrix(1.0, 0.0, 0.0, 1.0, 129.8, 1.9)">
    <path d="M-125.1 -0.85 L-126.15 -0.5 -126.15 -1.9 -124.3 -1.4 -125.1 -0.85 M-76.9 46.2 Q-78.55 51.05 -82.65 54.2 -87.35 57.8 -93.95 57.8 L-95.8 58.05 -97.7 58.3 Q-100.75 58.3 -101.55 59.05 L-102.4 59.75 -104.85 57.1 Q-107.1 54.4 -110.5 54.4 -112.2 54.4 -114.05 56.65 L-115.15 58.6 Q-115.75 57.7 -117.55 56.6 L-119.7 54.95 Q-121.05 53.1 -123.1 51.7 -124.7 50.6 -125.75 50.35 L-126.3 50.2 Q-124.9 50.3 -124.0 49.2 -123.25 48.2 -123.25 46.75 L-126.5 42.25 Q-129.8 37.3 -129.8 33.35 -129.8 22.35 -119.65 21.25 -117.65 20.8 -117.7 21.8 L-118.2 23.9 Q-118.2 24.85 -114.95 26.2 -114.2 26.2 -113.75 25.6 L-113.45 24.8 -114.35 16.15 Q-114.35 14.65 -112.65 12.0 -111.0 9.4 -110.2 9.4 L-109.35 9.55 -109.1 9.85 -109.0 10.1 -108.9 10.15 -109.45 10.15 -110.25 10.25 -110.3 10.55 -110.4 11.35 -110.65 12.3 Q-110.75 12.5 -110.15 12.5 L-108.7 13.4 Q-107.35 14.25 -106.65 14.25 -105.25 14.25 -104.55 13.45 -104.0 12.8 -104.0 12.0 -104.0 9.1 -106.0 8.3 L-108.8 7.5 Q-108.35 6.95 -108.35 6.1 -99.05 6.75 -93.0 11.55 -87.75 15.7 -87.75 20.2 L-89.0 22.7 Q-88.7 23.45 -87.4 23.65 -86.45 23.8 -86.45 26.0 L-88.05 29.15 Q-89.7 32.1 -89.7 34.05 -89.7 35.5 -87.7 36.15 L-84.9 36.55 Q-84.0 36.55 -82.7 35.6 -81.35 34.6 -81.8 34.6 -78.05 34.6 -76.7 38.25 -75.35 41.65 -76.9 46.2 M-110.5 3.55 Q-110.5 4.45 -110.8 4.5 -111.15 4.2 -111.65 4.05 -112.15 3.9 -112.35 4.05 L-112.4 4.3 -111.95 5.45 -112.1 5.5 Q-115.1 3.7 -118.75 2.8 L-118.8 2.05 -118.6 1.2 -118.2 1.0 -116.15 1.5 Q-116.35 1.2 -115.95 1.2 -115.25 1.85 -115.0 2.7 L-114.85 3.6 Q-113.5 3.15 -113.1 2.45 L-112.75 1.85 -111.65 2.05 -110.7 2.2 -110.5 3.55 M-98.15 52.2 L-99.1 52.0 -100.05 52.2 -100.45 52.6 -100.05 53.05 -99.1 53.2 -98.15 53.05 -97.75 52.6 Q-97.75 52.35 -98.15 52.2" fill="#000000" fill-rule="evenodd" stroke="none"/>
    <path d="M-98.15 52.2 Q-97.75 52.35 -97.75 52.6 L-98.15 53.05 -99.1 53.2 -100.05 53.05 -100.45 52.6 -100.05 52.2 -99.1 52.0 -98.15 52.2" fill="#999999" fill-rule="evenodd" stroke="none"/>
  </g>
</svg>
