<?xml version="1.0" encoding="UTF-8" standalone="no"?>
<svg xmlns:xlink="http://www.w3.org/1999/xlink" height="62.55px" width="68.2px" xmlns="http://www.w3.org/2000/svg">
  <g transform="matrix(1.0, 0.0, 0.0, 1.0, 139.15, 0.55)">
    <path d="M-77.25 10.0 L-76.6 11.05 Q-76.45 11.0 -76.55 10.5 L-77.25 10.0 M-111.55 23.3 Q-113.95 24.7 -114.75 22.0 -113.15 22.35 -112.6 20.95 -112.0 19.45 -111.25 19.45 L-110.35 19.55 -110.2 19.65 Q-108.4 20.5 -108.0 21.0 -108.9 21.2 -111.55 23.3 M-119.5 15.5 L-120.75 17.0 -121.45 18.3 Q-122.85 18.1 -124.8 16.45 -126.7 14.85 -126.7 14.0 -126.7 11.45 -123.8 10.4 -120.8 9.35 -119.25 12.0 L-119.9 12.45 -120.45 12.75 -120.7 13.45 -123.1 13.8 -123.2 13.75 -123.3 14.45 -123.2 15.25 -122.95 15.4 -121.85 15.4 -119.5 15.5 M-100.25 12.25 L-100.05 11.8 Q-98.45 10.55 -95.95 10.55 -94.85 10.55 -94.85 7.45 L-94.85 7.15 -94.25 7.6 Q-92.55 8.4 -92.55 12.75 -92.55 14.9 -93.0 15.65 -93.75 17.05 -96.5 17.5 L-96.1 17.05 Q-95.75 17.05 -95.75 15.1 L-97.35 13.75 Q-99.1 12.5 -100.25 12.25 M-97.0 0.25 L-97.2 1.0 -98.9 2.85 -100.2 4.35 Q-100.2 5.35 -99.95 4.85 L-99.2 4.95 -98.4 4.35 Q-98.05 3.85 -97.35 3.85 -97.05 3.85 -97.0 4.05 L-96.15 5.35 -96.9 6.05 -97.85 6.4 Q-98.8 6.65 -100.5 5.4 -102.0 4.3 -103.15 2.85 L-101.05 0.25 Q-100.1 -0.8 -99.0 -0.5 -99.85 0.85 -99.75 1.25 L-98.0 0.7 -97.0 0.25 M-72.55 9.8 Q-73.25 10.75 -74.95 11.1 L-74.9 12.6 -75.0 13.55 Q-76.85 12.8 -79.3 13.85 -81.65 14.85 -81.65 16.0 -81.65 16.85 -80.55 18.55 L-79.3 20.35 Q-79.2 20.5 -79.25 21.45 -79.15 22.5 -78.45 23.0 -77.7 23.55 -76.6 23.95 L-75.8 24.5 -76.35 25.55 Q-76.9 26.6 -76.9 27.3 L-76.75 28.05 -76.3 28.2 Q-75.8 28.2 -74.9 27.45 -74.05 26.75 -73.5 26.75 -72.55 26.75 -71.7 28.45 -70.95 29.95 -70.95 31.0 L-71.6 32.65 Q-72.35 34.2 -72.8 34.55 L-74.0 35.1 Q-75.25 35.7 -76.0 36.4 -75.05 37.35 -75.75 38.35 -76.55 39.65 -79.75 39.65 -82.0 39.65 -85.05 38.05 -88.4 36.3 -88.4 34.5 -88.4 33.15 -95.45 39.25 -90.15 33.15 -94.15 37.0 -95.2 38.25 -95.45 39.25 -96.15 37.3 -96.25 41.9 -96.15 40.95 -95.45 39.3 -96.0 41.2 -93.3 41.75 L-92.0 41.5 -92.2 42.45 -94.2 43.15 Q-95.4 43.65 -95.4 45.0 -95.4 45.55 -94.9 46.15 -94.2 46.9 -93.0 46.9 -92.45 46.9 -92.0 46.5 L-91.25 46.0 Q-91.35 46.5 -90.3 46.95 -88.8 47.45 -87.9 47.9 -84.35 49.55 -84.35 53.25 -84.35 62.0 -93.75 62.0 -94.75 62.0 -95.8 60.7 -96.7 59.5 -98.9 59.75 -100.25 59.9 -101.55 58.8 -102.95 57.55 -104.75 57.55 -106.3 57.55 -107.7 58.15 -109.15 58.75 -110.35 58.75 -112.95 58.75 -116.5 56.8 -119.95 54.9 -119.95 53.75 -119.95 51.7 -117.5 49.8 -115.05 47.95 -115.05 44.8 -115.05 43.3 -115.8 41.05 -116.9 37.8 -118.75 37.8 L-128.05 40.6 Q-131.0 40.6 -134.7 37.7 -139.15 34.25 -139.15 29.5 L-138.75 27.95 -138.0 25.75 -137.75 25.9 -137.65 26.8 Q-137.6 27.25 -136.7 27.25 -136.1 27.25 -135.85 27.7 L-135.35 28.15 -134.3 28.0 -133.95 27.8 -135.3 26.0 Q-135.65 25.7 -137.5 24.75 L-136.95 23.95 -135.55 22.2 Q-134.9 21.5 -133.65 21.5 L-132.35 21.65 -131.25 21.75 -131.35 22.35 -132.15 23.6 Q-131.85 24.0 -130.8 24.0 -128.6 23.3 -128.6 22.15 L-127.75 21.15 -126.75 20.65 -123.25 21.3 Q-122.4 21.45 -122.0 19.75 L-120.5 21.65 -119.55 23.05 -117.4 24.85 Q-116.0 26.0 -115.1 27.3 -114.3 28.55 -112.05 28.55 L-110.5 28.3 -109.0 28.0 Q-108.9 28.3 -109.4 28.85 L-106.0 29.25 -104.85 29.15 -104.7 28.45 -106.0 26.0 -103.4 25.55 -101.25 25.4 -102.65 28.0 -101.8 28.6 -101.15 28.5 Q-100.35 27.45 -100.35 25.7 -100.35 25.1 -100.6 24.95 L-101.0 24.75 Q-96.2 24.7 -96.2 22.15 L-96.2 21.6 Q-91.15 23.25 -90.4 26.0 -90.05 27.15 -89.5 27.45 -88.55 28.0 -85.7 28.0 -83.9 28.0 -82.25 26.75 -80.5 25.45 -80.5 23.85 -80.5 23.45 -80.9 23.2 L-81.9 22.3 Q-82.35 21.7 -82.45 20.7 L-82.55 19.55 Q-82.85 18.75 -84.8 17.45 L-87.25 15.75 Q-85.8 15.0 -84.65 12.9 -83.75 11.3 -83.75 10.85 -84.5 8.55 -84.15 6.8 -83.55 3.5 -78.25 3.5 -75.65 3.5 -73.95 4.9 -72.2 6.35 -72.2 8.8 -72.2 9.3 -72.55 9.8" fill="#000000" fill-rule="evenodd" stroke="none"/>
  </g>
</svg>
