<?xml version="1.0" encoding="UTF-8" standalone="no"?>
<svg xmlns:xlink="http://www.w3.org/1999/xlink" height="16.45px" width="14.95px" xmlns="http://www.w3.org/2000/svg">
  <g transform="matrix(1.0, 0.0, 0.0, 1.0, 7.45, 8.2)">
    <path d="M3.05 -6.15 L3.4 -7.5 5.35 -5.95 6.4 -4.95 Q6.4 -2.95 5.15 -2.05 4.5 -1.6 2.0 -0.9 -3.5 0.65 -6.05 5.55 -6.2 2.45 -4.3 -0.65 -2.6 -3.4 -1.45 -3.4 L-0.85 -3.45 -0.7 -3.6 Q-0.55 -3.75 -0.7 -4.25 L-1.05 -5.15 Q-0.45 -5.15 0.95 -4.3 L1.25 -5.35 Q1.45 -6.3 1.85 -6.05 2.9 -5.4 3.05 -6.15" fill="#969696" fill-rule="evenodd" stroke="none"/>
    <path d="M3.05 -6.15 Q2.9 -5.4 1.85 -6.05 1.45 -6.3 1.25 -5.35 L0.95 -4.3 Q-0.45 -5.15 -1.05 -5.15 L-0.7 -4.25 Q-0.55 -3.75 -0.7 -3.6 L-0.85 -3.45 -1.45 -3.4 Q-2.6 -3.4 -4.3 -0.65 -6.2 2.45 -6.05 5.55 -3.5 0.65 2.0 -0.9 4.5 -1.6 5.15 -2.05 6.4 -2.95 6.4 -4.95 L5.35 -5.95 3.4 -7.5 3.05 -6.15 M5.15 -1.9 Q3.0 -0.35 1.5 -0.15 -0.3 0.2 -2.9 2.75 -5.45 5.3 -6.8 8.0 L-7.45 8.25 Q-6.5 -1.75 -4.2 -5.4 -2.4 -8.2 1.25 -8.2 4.75 -8.2 6.45 -6.6 7.5 -5.6 7.5 -4.85 7.5 -3.6 5.15 -1.9" fill="#cccccc" fill-rule="evenodd" stroke="none"/>
  </g>
</svg>
