<?xml version="1.0" encoding="UTF-8" standalone="no"?>
<svg xmlns:xlink="http://www.w3.org/1999/xlink" height="54.3px" width="45.35px" xmlns="http://www.w3.org/2000/svg">
  <g transform="matrix(1.0, 0.0, 0.0, 1.0, 22.65, 27.1)">
    <path d="M-11.35 9.25 Q-13.95 8.0 -15.45 6.25 -17.0 4.45 -17.0 2.85 L-13.7 -1.1 Q-13.7 -1.7 -12.5 -2.3 L-10.2 -3.4 Q-5.1 -1.1 -0.45 0.4 1.85 1.3 2.5 3.95 L-4.5 11.4 -6.35 11.0 -10.8 9.45 -11.35 9.25 M2.1 15.9 L2.05 19.6 Q0.95 19.45 0.65 19.2 0.2 18.85 0.05 16.5 L2.1 15.9 M4.2 16.6 L4.2 16.0 6.25 16.4 Q6.6 17.65 4.65 19.55 4.25 17.6 4.2 16.6 M14.3 14.4 L9.0 13.0 7.85 6.75 Q7.85 4.95 11.4 2.35 15.4 -0.6 19.7 -0.45 L18.3 5.05 Q16.9 11.25 16.0 12.65 15.45 13.55 14.3 14.4" fill="#000000" fill-rule="evenodd" stroke="none"/>
    <path d="M10.85 -19.65 Q7.65 -21.6 3.8 -21.35 7.1 -17.85 8.55 -13.15 9.55 -9.85 9.55 -6.55 9.55 -5.45 8.95 -2.55 L8.25 -0.9 Q7.75 0.05 7.75 0.55 7.75 1.2 8.05 1.3 L8.8 1.3 Q9.75 0.85 12.5 0.4 14.85 0.0 16.15 -0.9 17.25 -1.65 17.25 -2.75 L18.75 -3.65 Q19.95 -4.45 19.95 -5.25 19.95 -8.85 16.1 -14.5 L13.4 -17.7 Q22.7 -10.45 22.7 -9.2 L22.1 0.85 Q21.3 0.85 20.95 1.6 20.6 2.3 20.5 3.6 L20.3 5.85 19.8 8.9 19.55 10.9 Q19.55 13.0 20.3 14.8 L19.1 19.7 12.9 19.45 Q12.2 19.65 11.25 23.25 10.3 26.75 7.75 26.9 L9.25 22.4 7.3 22.4 6.7 27.2 3.6 26.45 4.9 22.65 2.75 21.7 2.05 27.15 -2.95 26.4 -1.35 21.5 -3.8 21.05 -3.95 26.3 -7.9 24.35 Q-7.15 23.5 -6.8 21.5 L-6.45 19.6 -6.25 18.8 -7.6 18.45 -9.25 23.95 -10.55 23.7 -12.2 23.55 -10.3 15.4 -19.65 10.35 -18.35 4.25 Q-20.05 1.9 -21.5 -1.45 -22.65 -4.15 -22.65 -4.7 -22.65 -14.75 -17.1 -21.0 -11.7 -27.1 -3.2 -27.1 1.05 -27.1 10.85 -19.65 M7.0 2.8 Q6.55 2.3 5.95 2.3 5.35 2.3 4.95 2.8 4.5 3.25 4.5 3.95 4.5 4.65 4.95 5.15 5.35 5.6 5.95 5.6 6.55 5.6 7.0 5.15 7.4 4.65 7.4 3.95 7.4 3.25 7.0 2.8 M-11.35 9.25 Q-16.4 7.55 -17.25 8.05 -16.45 11.6 -12.65 13.45 -9.05 15.25 -9.05 15.35 -9.05 16.35 -10.05 20.25 L-9.5 20.15 Q-9.0 19.9 -8.6 19.2 L-7.5 17.95 Q-7.2 17.7 -6.4 17.6 L-5.35 17.55 -2.05 12.9 1.55 7.7 1.7 8.35 Q1.8 8.7 2.4 8.7 L3.1 8.65 3.1 8.55 Q4.05 7.3 1.8 7.05 L-1.25 9.3 -4.6 11.55 -6.35 11.0 -4.5 11.4 2.5 3.95 Q1.85 1.3 -0.45 0.4 -5.1 -1.1 -10.2 -3.4 L-12.5 -2.3 Q-13.7 -1.7 -13.7 -1.1 L-17.0 2.85 Q-17.0 4.45 -15.45 6.25 -13.95 8.0 -11.35 9.25 M1.9 9.0 Q1.55 9.0 1.3 9.25 1.05 9.45 1.05 9.8 L1.3 10.4 Q1.55 10.6 1.9 10.6 L2.5 10.4 2.75 9.8 2.5 9.25 1.9 9.0 M8.45 17.4 L7.5 21.3 7.6 21.6 8.45 21.7 9.45 21.5 10.65 18.3 12.6 18.7 14.9 19.0 18.55 18.8 18.9 15.7 18.2 14.6 16.75 12.9 Q16.3 14.9 13.3 15.5 10.35 16.1 9.05 14.7 L8.45 17.4 M2.1 15.9 L0.05 16.5 Q0.2 18.85 0.65 19.2 0.95 19.45 2.05 19.6 L2.1 15.9 M4.2 16.6 Q4.25 17.6 4.65 19.55 6.6 17.65 6.25 16.4 L4.2 16.0 4.2 16.6 M14.3 14.4 Q15.45 13.55 16.0 12.65 16.9 11.25 18.3 5.05 L19.7 -0.45 Q15.4 -0.6 11.4 2.35 7.85 4.95 7.85 6.75 L9.0 13.0 14.3 14.4 M-0.8 -22.6 Q-2.15 -24.4 -3.3 -24.4 -6.0 -24.4 -10.8 -22.75 -15.4 -21.2 -16.8 -19.9 -18.55 -18.25 -19.9 -13.25 -21.1 -8.95 -21.1 -6.6 -21.1 -3.6 -19.2 -0.55 L-10.15 -4.05 -14.35 -3.9 -14.15 -4.3 -13.95 -5.05 -14.4 -5.25 -15.15 -5.5 -15.55 -4.55 Q-15.55 -4.25 -14.95 -4.0 L-15.2 -3.6 Q-16.3 -4.65 -16.3 -5.0 -16.3 -8.55 -14.6 -12.1 L-12.7 -16.2 Q-12.55 -17.45 -11.7 -18.75 -10.95 -19.95 -10.4 -20.2 -4.55 -23.05 -3.35 -23.05 -1.1 -22.7 -2.55 -22.55 L-2.2 -22.3 -0.8 -22.6 M-8.4 -4.2 L-8.2 -5.15 -8.4 -6.1 -8.9 -6.5 Q-9.2 -6.5 -9.4 -6.1 L-9.6 -5.15 -9.4 -4.2 -8.9 -3.8 -8.4 -4.2 M-6.25 -3.7 L-5.65 -3.45 Q-5.3 -3.45 -5.05 -3.7 L-4.8 -4.3 -5.05 -4.9 -5.65 -5.15 -6.25 -4.9 -6.5 -4.3 -6.25 -3.7 M-6.6 -4.5 L-6.4 -5.3 -6.6 -6.05 Q-6.85 -6.4 -7.15 -6.4 L-7.65 -6.05 -7.9 -5.3 -7.65 -4.5 Q-7.45 -4.2 -7.15 -4.2 -6.85 -4.2 -6.6 -4.5 M-13.85 -7.0 Q-14.25 -7.0 -14.5 -6.7 L-14.8 -6.1 -14.5 -5.45 Q-14.25 -5.2 -13.85 -5.2 -13.45 -5.2 -13.15 -5.45 -12.9 -5.75 -12.9 -6.1 L-13.15 -6.7 Q-13.45 -7.0 -13.85 -7.0" fill="#a9abc0" fill-rule="evenodd" stroke="none"/>
    <path d="M-6.35 11.0 L-4.6 11.55 -1.25 9.3 1.8 7.05 Q4.05 7.3 3.1 8.55 L3.1 8.65 2.4 8.7 Q1.8 8.7 1.7 8.35 L1.55 7.7 -2.05 12.9 -5.35 17.55 -6.4 17.6 Q-7.2 17.7 -7.5 17.95 L-8.6 19.2 Q-9.0 19.9 -9.5 20.15 L-10.05 20.25 Q-9.05 16.35 -9.05 15.35 -9.05 15.25 -12.65 13.45 -16.45 11.6 -17.25 8.05 -16.4 7.55 -11.35 9.25 L-10.8 9.45 -6.35 11.0 M1.9 9.0 L2.5 9.25 2.75 9.8 2.5 10.4 1.9 10.6 Q1.55 10.6 1.3 10.4 L1.05 9.8 Q1.05 9.45 1.3 9.25 1.55 9.0 1.9 9.0 M-0.8 -22.6 L-2.2 -22.3 -2.55 -22.55 Q-1.1 -22.7 -3.35 -23.05 -4.55 -23.05 -10.4 -20.2 -10.95 -19.95 -11.7 -18.75 -12.55 -17.45 -12.7 -16.2 L-14.6 -12.1 Q-16.3 -8.55 -16.3 -5.0 -16.3 -4.65 -15.2 -3.6 L-14.95 -4.0 Q-15.55 -4.25 -15.55 -4.55 L-15.15 -5.5 -14.4 -5.25 -13.95 -5.05 -14.15 -4.3 -14.35 -3.9 -10.15 -4.05 -19.2 -0.55 Q-21.1 -3.6 -21.1 -6.6 -21.1 -8.95 -19.9 -13.25 -18.55 -18.25 -16.8 -19.9 -15.4 -21.2 -10.8 -22.75 -6.0 -24.4 -3.3 -24.4 -2.15 -24.4 -0.8 -22.6 M-13.85 -7.0 Q-13.45 -7.0 -13.15 -6.7 L-12.9 -6.1 Q-12.9 -5.75 -13.15 -5.45 -13.45 -5.2 -13.85 -5.2 -14.25 -5.2 -14.5 -5.45 L-14.8 -6.1 -14.5 -6.7 Q-14.25 -7.0 -13.85 -7.0 M-6.6 -4.5 Q-6.85 -4.2 -7.15 -4.2 -7.45 -4.2 -7.65 -4.5 L-7.9 -5.3 -7.65 -6.05 -7.15 -6.4 Q-6.85 -6.4 -6.6 -6.05 L-6.4 -5.3 -6.6 -4.5 M-6.25 -3.7 L-6.5 -4.3 -6.25 -4.9 -5.65 -5.15 -5.05 -4.9 -4.8 -4.3 -5.05 -3.7 Q-5.3 -3.45 -5.65 -3.45 L-6.25 -3.7 M-8.4 -4.2 L-8.9 -3.8 -9.4 -4.2 -9.6 -5.15 -9.4 -6.1 Q-9.2 -6.5 -8.9 -6.5 L-8.4 -6.1 -8.2 -5.15 -8.4 -4.2" fill="#825565" fill-rule="evenodd" stroke="none"/>
    <path d="M13.4 -17.7 L16.1 -14.5 Q19.95 -8.85 19.95 -5.25 19.95 -4.45 18.75 -3.65 L17.25 -2.75 Q17.25 -1.65 16.15 -0.9 14.85 0.0 12.5 0.4 9.75 0.85 8.8 1.3 L8.05 1.3 Q7.75 1.2 7.75 0.55 7.75 0.05 8.25 -0.9 L8.95 -2.55 Q9.55 -5.45 9.55 -6.55 9.55 -9.85 8.55 -13.15 7.1 -17.85 3.8 -21.35 7.65 -21.6 10.85 -19.65 L12.4 -18.5 13.4 -17.7 M7.0 2.8 Q7.4 3.25 7.4 3.95 7.4 4.65 7.0 5.15 6.55 5.6 5.95 5.6 5.35 5.6 4.95 5.15 4.5 4.65 4.5 3.95 4.5 3.25 4.95 2.8 5.35 2.3 5.95 2.3 6.55 2.3 7.0 2.8 M8.45 17.4 L9.05 14.7 Q10.35 16.1 13.3 15.5 16.3 14.9 16.75 12.9 L18.2 14.6 18.9 15.7 18.55 18.8 14.9 19.0 12.6 18.7 10.65 18.3 9.45 21.5 8.45 21.7 7.6 21.6 7.5 21.3 8.45 17.4" fill="#e6eef2" fill-rule="evenodd" stroke="none"/>
    <path d="M16.0 6.4 Q16.0 7.25 15.45 8.1 14.7 9.15 13.5 9.15 12.65 9.15 12.4 8.3 L12.35 7.4 Q12.35 4.95 14.2 4.8 16.0 4.6 16.0 6.4 M-5.5 1.85 Q-4.9 2.15 -4.45 2.9 L-4.05 3.85 Q-4.05 4.55 -4.7 5.5 -5.7 6.85 -7.5 6.4 L-8.75 5.45 -9.0 4.4 Q-9.0 3.4 -8.35 2.55 -7.45 1.35 -5.5 1.85" fill="#ffff00" fill-rule="evenodd" stroke="none"/>
  </g>
</svg>
