<?xml version="1.0" encoding="UTF-8" standalone="no"?>
<svg xmlns:xlink="http://www.w3.org/1999/xlink" height="24.75px" width="13.15px" xmlns="http://www.w3.org/2000/svg">
  <g transform="matrix(1.0, 0.0, 0.0, 1.0, 6.65, 12.35)">
    <path d="M0.0 -9.05 L0.6 -8.95 0.35 -7.45 0.1 -6.5 1.35 -6.4 2.6 -6.45 Q3.65 -6.4 2.85 -5.9 L1.6 -5.2 2.9 -3.15 Q3.75 -1.95 3.75 -0.35 3.75 2.05 3.45 3.1 L1.65 8.8 Q1.9 4.05 0.7 1.25 0.05 -0.2 -0.9 -1.2 -3.1 -4.65 -4.85 -6.0 -5.45 -6.5 -5.45 -8.2 -5.45 -10.15 -4.9 -10.7 -4.0 -11.7 -0.85 -11.7 L-0.15 -11.6 -0.1 -11.4 Q-0.5 -9.45 0.0 -9.05" fill="#969696" fill-rule="evenodd" stroke="none"/>
    <path d="M0.0 -9.05 Q-0.5 -9.45 -0.1 -11.4 L-0.15 -11.6 -0.85 -11.7 Q-4.0 -11.7 -4.9 -10.7 -5.45 -10.15 -5.45 -8.2 -5.45 -6.5 -4.85 -6.0 -3.1 -4.65 -0.9 -1.2 0.05 -0.2 0.7 1.25 1.9 4.05 1.65 8.8 L3.45 3.1 Q3.75 2.05 3.75 -0.35 3.75 -1.95 2.9 -3.15 L1.6 -5.2 2.85 -5.9 Q3.65 -6.4 2.6 -6.45 L1.35 -6.4 0.1 -6.5 0.35 -7.45 0.6 -8.95 0.0 -9.05 M1.15 11.55 Q1.55 8.3 0.6 4.55 -0.1 1.75 -1.05 0.1 L-2.4 -1.7 -3.45 -2.9 Q-4.4 -3.55 -5.55 -6.45 -6.65 -9.3 -6.65 -10.8 L-6.0 -11.65 Q-5.05 -12.35 -3.35 -12.35 5.85 -12.35 6.45 -4.55 6.95 1.9 1.6 12.4 L1.1 11.7 1.15 11.55" fill="#cccccc" fill-rule="evenodd" stroke="none"/>
  </g>
</svg>
