<?xml version="1.0" encoding="UTF-8" standalone="no"?>
<svg xmlns:xlink="http://www.w3.org/1999/xlink" height="24.8px" width="13.35px" xmlns="http://www.w3.org/2000/svg">
  <g transform="matrix(1.0, 0.0, 0.0, 1.0, 6.65, 12.4)">
    <path d="M1.85 -6.55 L0.1 -6.75 -0.05 -6.95 Q-0.05 -8.2 0.6 -8.95 L0.45 -9.0 -0.65 -9.2 -0.35 -10.2 -0.2 -10.7 Q0.15 -12.0 -1.15 -11.7 L-2.7 -11.3 -3.35 -11.05 -4.9 -10.7 -5.15 -10.65 -5.45 -8.2 Q-5.5 -6.85 -5.1 -6.0 L-4.95 -5.65 -4.75 -5.35 -2.15 -2.7 -0.9 -1.2 -0.7 -0.9 0.25 0.85 Q0.95 1.9 1.15 3.05 L1.3 3.55 1.55 5.3 1.65 8.8 1.8 8.5 3.1 4.3 3.35 3.3 Q3.7 2.15 3.7 0.8 3.8 -1.65 3.15 -3.7 L3.05 -3.95 Q1.8 -4.2 1.6 -5.2 L1.85 -5.25 3.1 -6.2 2.6 -6.45 2.1 -6.55 1.85 -6.55 M6.65 -4.2 Q5.7 4.7 1.6 12.4 L1.1 11.7 1.15 11.55 1.2 9.65 Q1.25 3.65 -1.8 -1.15 -2.65 -2.5 -4.2 -3.4 -4.8 -3.75 -5.0 -4.35 -6.0 -7.55 -6.65 -10.8 L-6.4 -11.25 -6.0 -11.65 -5.15 -12.2 -4.25 -12.35 Q3.0 -12.75 6.05 -7.45 6.85 -6.1 6.65 -4.2" fill="#cccccc" fill-rule="evenodd" stroke="none"/>
    <path d="M1.85 -6.55 L2.1 -6.55 2.6 -6.45 3.1 -6.2 1.85 -5.25 1.6 -5.2 Q1.8 -4.2 3.05 -3.95 L3.15 -3.7 Q3.8 -1.65 3.7 0.8 3.7 2.15 3.35 3.3 L3.1 4.3 1.8 8.5 1.65 8.8 1.55 5.3 1.3 3.55 1.15 3.05 Q0.95 1.9 0.25 0.85 L-0.7 -0.9 -0.9 -1.2 -2.15 -2.7 -4.75 -5.35 -4.95 -5.65 -5.1 -6.0 Q-5.5 -6.85 -5.45 -8.2 L-5.15 -10.65 -4.9 -10.7 -3.35 -11.05 -2.7 -11.3 -1.15 -11.7 Q0.15 -12.0 -0.2 -10.7 L-0.35 -10.2 -0.65 -9.2 0.45 -9.0 0.6 -8.95 Q-0.05 -8.2 -0.05 -6.95 L0.1 -6.75 1.85 -6.55" fill="#969696" fill-rule="evenodd" stroke="none"/>
  </g>
</svg>
