<?xml version="1.0" encoding="UTF-8" standalone="no"?>
<svg xmlns:xlink="http://www.w3.org/1999/xlink" height="46.1px" width="45.55px" xmlns="http://www.w3.org/2000/svg">
  <g transform="matrix(1.0, 0.0, 0.0, 1.0, 15.2, 8.35)">
    <path d="M25.9 23.05 L26.05 23.75 27.25 24.55 26.9 26.55 25.55 24.0 25.3 23.7 25.9 23.05" fill="#950000" fill-rule="evenodd" stroke="none"/>
    <path d="M0.15 7.2 L0.75 7.5 Q0.25 7.7 -0.15 8.05 L0.15 7.2 M14.85 12.25 L12.95 11.75 8.3 11.9 7.4 11.35 Q6.25 8.55 8.25 6.25 9.7 4.5 11.75 4.75 18.65 5.95 14.85 12.25" fill="#ffec00" fill-rule="evenodd" stroke="none"/>
    <path d="M14.4 35.4 Q11.5 38.65 6.55 37.4 L5.35 37.45 4.45 36.25 2.9 36.1 2.8 33.95 Q-2.2 32.0 -7.45 33.3 L-8.35 33.1 Q-13.45 25.55 -6.9 20.7 -6.1 20.2 -6.85 19.5 -9.9 16.4 -13.65 14.05 -16.0 12.65 -14.75 10.3 -14.2 9.2 -13.2 8.35 L-12.75 7.05 -11.75 6.05 -11.45 5.85 -11.05 5.15 -12.0 2.5 Q-14.6 -7.55 -7.5 -8.2 -0.4 -8.9 3.1 -6.65 3.35 -4.95 4.7 -3.55 L6.2 -2.4 6.7 -2.0 Q5.05 3.2 11.35 2.2 L17.35 1.9 Q21.1 1.9 21.55 6.0 20.2 6.8 19.45 8.1 L19.25 8.95 19.35 9.4 20.2 10.0 20.7 13.0 23.05 14.05 Q25.2 13.65 26.8 11.75 L27.75 10.5 Q29.95 13.35 30.35 16.9 30.45 17.8 30.1 18.5 L27.35 20.4 Q25.8 21.3 25.9 23.05 L25.3 23.7 Q22.8 20.6 18.05 21.05 15.55 21.45 14.3 23.55 13.4 25.0 12.1 26.25 10.65 26.25 10.1 24.95 9.5 23.6 10.05 22.05 L12.3 21.35 12.55 21.25 13.5 21.5 13.25 20.85 14.25 20.7 15.2 20.25 Q16.65 12.45 8.3 13.35 -0.65 14.4 -1.2 22.65 -1.3 24.55 0.1 25.55 L7.0 30.15 Q7.25 35.2 12.35 35.65 L14.4 35.4 M14.85 12.25 Q18.65 5.95 11.75 4.75 9.7 4.5 8.25 6.25 6.25 8.55 7.4 11.35 L8.3 11.9 12.95 11.75 14.85 12.25 M-0.15 8.05 Q0.25 7.7 0.75 7.5 L0.15 7.2 Q-6.3 3.95 -9.2 10.35 -10.65 13.55 -7.95 15.7 -3.75 19.1 -1.15 14.1 -2.9 12.05 -1.85 10.0 -1.3 9.0 -0.2 8.55 L-0.25 8.45 -0.15 8.05" fill="#000000" fill-rule="evenodd" stroke="none"/>
    <path d="M26.9 26.55 L26.05 30.75 20.45 33.55 16.45 31.75 Q15.6 33.95 14.4 35.4 L12.35 35.65 Q7.25 35.2 7.0 30.15 L0.1 25.55 Q-1.3 24.55 -1.2 22.65 -0.65 14.4 8.3 13.35 16.65 12.45 15.2 20.25 L14.25 20.7 13.25 20.85 13.5 21.5 12.55 21.25 12.3 21.35 10.05 22.05 Q9.5 23.6 10.1 24.95 10.65 26.25 12.1 26.25 13.4 25.0 14.3 23.55 15.55 21.45 18.05 21.05 22.8 20.6 25.3 23.7 L25.55 24.0 26.9 26.55 M0.15 7.2 L-0.15 8.05 -0.25 8.45 -0.2 8.55 Q-1.3 9.0 -1.85 10.0 -2.9 12.05 -1.15 14.1 -3.75 19.1 -7.95 15.7 -10.65 13.55 -9.2 10.35 -6.3 3.95 0.15 7.2" fill="#ffffff" fill-rule="evenodd" stroke="none"/>
  </g>
</svg>
