<?xml version="1.0" encoding="UTF-8" standalone="no"?>
<svg xmlns:xlink="http://www.w3.org/1999/xlink" height="49.0px" width="48.85px" xmlns="http://www.w3.org/2000/svg">
  <g transform="matrix(1.0, 0.0, 0.0, 1.0, 18.4, 14.05)">
    <path d="M15.7 3.4 L16.35 5.25 15.5 4.95 14.35 5.3 14.0 5.85 9.8 5.75 9.2 5.35 Q10.3 1.35 14.0 1.5 L14.5 1.8 14.45 2.5 14.6 2.75 14.75 2.9 15.1 3.15 15.5 3.2 15.7 3.4" fill="#ffec00" fill-rule="evenodd" stroke="none"/>
    <path d="M10.7 33.7 Q2.95 37.5 0.95 29.95 L0.5 28.6 0.75 27.75 Q-5.9 30.95 -9.8 23.4 -12.7 17.85 -6.6 14.45 -3.5 12.7 -2.85 9.25 L-3.4 9.05 -4.25 7.25 Q-12.5 8.4 -16.65 2.6 -19.9 -1.9 -17.1 -6.6 -9.8 -18.85 1.6 -10.95 3.7 -9.55 3.5 -7.0 L3.05 -4.0 3.35 -3.15 Q1.05 -0.8 3.85 0.75 L6.15 0.7 6.25 0.25 Q8.4 2.8 11.55 0.7 14.25 -1.05 17.3 0.25 17.1 4.85 19.35 7.7 20.2 8.75 21.8 9.35 32.8 13.15 29.8 23.4 L29.25 24.9 Q28.2 27.75 26.55 29.35 26.15 27.05 24.5 25.6 26.4 24.95 27.95 23.7 28.35 22.55 28.25 21.45 28.15 20.55 27.65 20.0 22.55 14.65 15.65 18.25 13.75 19.2 13.35 21.15 12.7 24.4 9.25 24.3 8.05 23.2 7.2 21.9 6.0 19.95 7.6 18.25 L8.05 18.05 8.05 16.25 9.65 15.6 Q12.95 14.9 14.95 12.8 L15.3 11.85 Q15.15 8.25 11.15 7.85 7.15 7.9 5.9 11.15 L5.15 11.55 Q3.95 11.55 2.85 10.95 0.0 13.0 -0.85 16.1 -1.4 18.1 -1.05 20.2 -0.2 25.1 5.15 24.75 L5.9 25.3 5.85 25.8 5.5 28.35 Q5.4 33.7 10.7 33.7 M12.5 -9.9 Q19.5 -14.0 19.8 -5.95 19.9 -3.85 17.85 -3.1 L15.3 -2.2 15.05 -2.4 15.0 -2.45 14.8 -2.4 14.25 -2.3 Q10.15 -4.35 11.85 -8.7 L12.5 -9.9 M-8.6 -6.8 L-9.85 -6.5 Q-13.5 -4.9 -14.05 -0.85 -14.2 0.25 -13.9 1.2 -12.15 6.3 -6.4 5.9 L-4.25 5.5 -3.65 5.25 Q-2.6 4.0 -2.0 2.6 -1.05 0.2 -2.0 -1.9 L-2.4 -2.15 -3.95 -0.7 -4.3 -0.45 -4.65 -0.3 Q-6.05 -0.2 -6.8 -1.5 L-7.5 -3.15 -9.0 -3.7 -9.15 -4.15 Q-9.25 -5.05 -8.9 -5.75 L-8.5 -6.65 -8.6 -6.8 M15.7 3.4 L15.5 3.2 15.1 3.15 14.75 2.9 14.6 2.75 14.45 2.5 14.5 1.8 14.0 1.5 Q10.3 1.35 9.2 5.35 L9.8 5.75 14.0 5.85 14.35 5.3 15.5 4.95 16.35 5.25 15.7 3.4" fill="#2f0001" fill-rule="evenodd" stroke="none"/>
    <path d="M26.55 29.35 Q22.95 32.65 18.15 31.15 L14.5 30.25 11.35 31.8 11.25 33.45 10.7 33.7 Q5.4 33.7 5.5 28.35 L5.85 25.8 5.9 25.3 5.15 24.75 Q-0.2 25.1 -1.05 20.2 -1.4 18.1 -0.85 16.1 0.0 13.0 2.85 10.95 3.95 11.55 5.15 11.55 L5.9 11.15 Q7.15 7.9 11.15 7.85 15.15 8.25 15.3 11.85 L14.95 12.8 Q12.95 14.9 9.65 15.6 L8.05 16.25 8.05 18.05 7.6 18.25 Q6.0 19.95 7.2 21.9 8.05 23.2 9.25 24.3 12.7 24.4 13.35 21.15 13.75 19.2 15.65 18.25 22.55 14.65 27.65 20.0 28.15 20.55 28.25 21.45 28.35 22.55 27.95 23.7 26.4 24.95 24.5 25.6 26.15 27.05 26.55 29.35 M-8.6 -6.8 L-8.5 -6.65 -8.9 -5.75 Q-9.25 -5.05 -9.15 -4.15 L-9.0 -3.7 -7.5 -3.15 -6.8 -1.5 Q-6.05 -0.2 -4.65 -0.3 L-4.3 -0.45 -3.95 -0.7 -2.4 -2.15 -2.0 -1.9 Q-1.05 0.2 -2.0 2.6 -2.6 4.0 -3.65 5.25 L-4.25 5.5 -6.4 5.9 Q-12.15 6.3 -13.9 1.2 -14.2 0.25 -14.05 -0.85 -13.5 -4.9 -9.85 -6.5 L-8.6 -6.8" fill="#ffffcc" fill-rule="evenodd" stroke="none"/>
  </g>
</svg>
