<?xml version="1.0" encoding="UTF-8" standalone="no"?>
<svg xmlns:xlink="http://www.w3.org/1999/xlink" height="57.55px" width="51.35px" xmlns="http://www.w3.org/2000/svg">
  <g transform="matrix(1.0, 0.0, 0.0, 1.0, 21.75, 23.3)">
    <path d="M7.15 -1.15 L8.95 -1.0 9.1 -1.0 Q13.0 -0.25 13.35 3.9 13.7 7.55 17.0 7.5 L21.5 7.2 Q29.6 6.05 29.6 15.0 29.6 20.85 25.05 24.4 20.35 28.15 14.7 30.65 L15.3 31.15 14.9 33.15 14.05 33.5 Q9.2 35.35 4.75 32.5 6.15 31.4 6.55 29.6 8.6 20.5 -0.6 22.75 L-2.15 21.05 Q-3.75 21.05 -5.2 21.7 -7.25 22.8 -9.25 22.05 -18.4 18.7 -11.65 10.65 L-13.6 9.55 Q-20.1 5.35 -16.3 -1.4 -14.95 -3.8 -12.05 -3.3 L-6.4 -3.95 Q-3.8 -4.3 -2.25 -2.55 -0.45 -0.6 1.7 -0.85 L7.15 -1.15 M21.05 22.7 Q23.7 21.45 24.35 18.5 25.5 13.35 21.35 10.5 L19.7 9.85 Q13.25 8.15 9.45 13.5 L9.1 13.2 8.7 12.65 8.45 12.0 9.25 10.4 9.6 9.8 9.2 9.6 9.15 9.5 9.75 9.0 9.7 8.95 10.0 8.2 9.25 5.1 Q5.75 1.4 1.15 3.5 -4.55 6.2 -5.7 11.95 L-6.45 12.05 -7.75 12.75 -8.05 12.65 -8.65 12.25 Q-9.5 14.25 -8.75 15.95 -8.15 17.35 -6.6 16.95 L-3.9 16.0 Q0.8 13.85 3.6 18.55 4.85 18.75 6.15 19.25 12.95 22.3 10.5 29.6 L12.2 28.25 Q13.8 26.85 14.0 24.7 L14.75 25.65 Q16.05 26.3 17.15 25.25 18.7 23.85 21.05 22.7 M6.4 0.6 Q6.8 1.6 6.6 2.6 L9.7 3.55 Q10.6 2.6 10.6 1.25 L9.75 0.4 6.9 0.3 Q6.6 0.4 6.4 0.6 M-6.2 0.95 L-6.65 0.35 Q-8.75 -2.35 -11.75 -0.15 L-11.25 0.8 Q-10.85 1.75 -10.6 2.8 L-12.6 4.7 -13.1 5.05 Q-14.1 4.85 -14.6 4.1 L-15.25 2.5 Q-16.35 6.85 -12.4 8.9 -10.3 8.95 -8.5 7.9 -5.3 5.95 -6.25 2.6 L-6.95 2.0 -6.2 0.95" fill="#950000" fill-rule="evenodd" stroke="none"/>
    <path d="M21.05 22.7 Q18.7 23.85 17.15 25.25 16.05 26.3 14.75 25.65 L14.0 24.7 Q13.8 26.85 12.2 28.25 L10.5 29.6 Q12.95 22.3 6.15 19.25 4.85 18.75 3.6 18.55 0.8 13.85 -3.9 16.0 L-6.6 16.95 Q-8.15 17.35 -8.75 15.95 -9.5 14.25 -8.65 12.25 L-8.05 12.65 -7.75 12.75 -6.45 12.05 -5.7 11.95 Q-4.55 6.2 1.15 3.5 5.75 1.4 9.25 5.1 L10.0 8.2 9.7 8.95 9.75 9.0 9.15 9.5 9.2 9.6 9.6 9.8 9.25 10.4 8.45 12.0 8.7 12.65 9.1 13.2 9.45 13.5 Q13.25 8.15 19.7 9.85 L21.35 10.5 Q25.5 13.35 24.35 18.5 23.7 21.45 21.05 22.7 M6.4 0.6 Q6.6 0.4 6.9 0.3 L9.75 0.4 10.6 1.25 Q10.6 2.6 9.7 3.55 L6.6 2.6 Q6.8 1.6 6.4 0.6 M-6.2 0.95 L-6.95 2.0 -6.25 2.6 Q-5.3 5.95 -8.5 7.9 -10.3 8.95 -12.4 8.9 -16.35 6.85 -15.25 2.5 L-14.6 4.1 Q-14.1 4.85 -13.1 5.05 L-12.6 4.7 -10.6 2.8 Q-10.85 1.75 -11.25 0.8 L-11.75 -0.15 Q-8.75 -2.35 -6.65 0.35 L-6.2 0.95" fill="#ffec00" fill-rule="evenodd" stroke="none"/>
    <path d="M7.5 -12.4 L6.85 -12.85 Q2.3 -12.15 4.05 -8.15 L5.55 -8.6 6.35 -9.1 6.3 -11.15 7.5 -12.4 M3.05 -8.9 Q2.75 -15.45 8.35 -13.7 9.8 -13.15 9.75 -11.45 9.55 -6.05 3.25 -6.95 L3.1 -8.6 3.05 -8.9 M-5.75 -14.6 L-5.35 -14.8 -5.5 -15.8 Q-6.3 -18.4 -8.75 -19.85 L-10.3 -20.15 Q-12.85 -19.8 -14.4 -17.65 -9.65 -15.3 -9.7 -10.25 L-8.45 -10.15 -6.9 -11.25 -6.95 -12.15 -7.05 -12.75 -7.2 -13.25 -6.15 -14.35 -5.75 -14.6 M-17.5 -18.5 Q-13.15 -27.1 -5.25 -20.3 0.15 -15.6 -3.5 -9.55 -4.15 -8.5 -3.5 -7.5 L-4.4 -7.1 -4.85 -7.05 -5.35 -7.2 -5.65 -7.55 -7.65 -7.5 Q-10.15 -3.9 -14.05 -5.2 -14.7 -5.4 -15.25 -5.75 -10.1 -6.85 -11.85 -11.55 -12.3 -12.8 -13.15 -13.85 -15.1 -14.45 -17.3 -14.65 L-18.75 -14.75 -21.75 -12.5 Q-20.95 -15.7 -18.55 -17.75 L-17.5 -18.5" fill="#2f0001" fill-rule="evenodd" stroke="none"/>
    <path d="M7.5 -12.4 L6.3 -11.15 6.35 -9.1 5.55 -8.6 4.05 -8.15 Q2.3 -12.15 6.85 -12.85 L7.5 -12.4 M-5.75 -14.6 L-6.15 -14.35 -7.2 -13.25 -7.05 -12.75 -6.95 -12.15 -6.9 -11.25 -8.45 -10.15 -9.7 -10.25 Q-9.65 -15.3 -14.4 -17.65 -12.85 -19.8 -10.3 -20.15 L-8.75 -19.85 Q-6.3 -18.4 -5.5 -15.8 L-5.35 -14.8 -5.75 -14.6" fill="#ffffcc" fill-rule="evenodd" stroke="none"/>
  </g>
</svg>
