<?xml version="1.0" encoding="UTF-8" standalone="no"?>
<svg xmlns:xlink="http://www.w3.org/1999/xlink" height="55.8px" width="62.35px" xmlns="http://www.w3.org/2000/svg">
  <g transform="matrix(1.0, 0.0, 0.0, 1.0, 25.1, 20.4)">
    <path d="M2.1 -14.95 L1.75 -12.75 Q2.95 -12.9 3.75 -13.8 L4.5 -14.75 Q5.3 -13.5 4.5 -12.3 0.85 -6.9 -1.05 -13.8 L0.4 -14.0 1.3 -15.7 3.35 -15.55 3.4 -15.15 2.1 -14.95 M-23.55 -12.6 L-23.35 -12.6 -22.75 -13.3 -22.15 -12.5 -19.8 -14.65 -18.55 -15.7 Q-18.4 -17.15 -19.65 -17.9 -20.75 -18.65 -21.9 -18.2 -24.7 -16.1 -23.6 -12.85 L-23.55 -12.6 M-22.25 -11.0 L-22.25 -7.0 Q-26.15 -10.65 -24.75 -15.8 -21.9 -22.2 -15.45 -19.65 L-14.95 -19.4 -16.2 -18.2 Q-14.2 -17.7 -12.8 -16.25 -11.4 -14.8 -11.5 -12.75 -14.35 -14.5 -17.8 -14.1 L-20.4 -12.0 -21.2 -9.8 -22.25 -11.0 M-16.65 -2.5 L-15.65 -2.55 Q-12.95 -1.9 -13.5 0.65 L-12.15 1.7 -12.4 2.95 Q-12.75 4.65 -14.25 5.1 L-12.15 5.3 -11.65 5.0 -11.4 4.85 -11.15 4.85 -11.4 5.5 -11.05 5.2 -9.65 3.65 Q-8.35 2.45 -8.7 0.85 L-9.15 -0.85 -10.2 -4.35 Q-11.0 -7.45 -14.35 -7.05 -16.8 -6.25 -18.15 -3.9 L-17.5 -1.8 -16.65 -2.5 M-17.45 -7.7 Q-10.2 -12.8 -7.3 -4.45 L-7.2 -3.8 -7.6 -2.55 -7.65 -1.4 Q-5.55 0.0 -6.25 2.3 -6.6 3.5 -7.8 4.3 -8.5 8.15 -12.3 9.35 L-14.95 9.45 -16.25 7.0 Q-24.25 3.75 -19.8 -4.1 L-17.45 -7.7" fill="#950000" fill-rule="evenodd" stroke="none"/>
    <path d="M26.55 12.5 L26.65 12.45 27.1 12.75 27.6 13.1 31.2 13.75 Q31.0 18.1 28.15 21.05 27.15 22.05 25.5 22.1 21.3 21.75 19.85 17.55 19.05 15.3 19.15 12.85 19.2 11.1 18.0 9.85 20.4 11.0 22.05 13.15 L22.35 13.45 24.25 13.6 25.75 12.8 26.55 12.5 M13.8 3.1 Q14.2 1.1 15.95 -0.05 19.1 -1.9 20.35 1.05 21.0 2.65 19.85 3.9 16.8 7.2 14.0 3.95 13.7 3.65 13.8 3.1 M1.6 11.35 Q1.75 12.15 1.25 13.1 L1.6 14.45 8.45 13.8 Q11.9 13.3 13.25 16.55 14.95 20.8 12.35 24.3 L9.1 24.45 Q7.35 25.85 7.65 28.2 2.25 31.3 -2.1 26.8 -5.25 23.65 -5.35 19.0 -5.45 13.2 -0.6 10.1 1.0 9.05 2.85 9.1 L1.75 10.6 1.6 11.35 M-23.55 -12.6 L-23.6 -12.85 Q-24.7 -16.1 -21.9 -18.2 -20.75 -18.65 -19.65 -17.9 -18.4 -17.15 -18.55 -15.7 L-19.8 -14.65 -22.15 -12.5 -22.75 -13.3 -23.35 -12.6 -23.55 -12.6 M-16.65 -2.5 L-17.5 -1.8 -18.15 -3.9 Q-16.8 -6.25 -14.35 -7.05 -11.0 -7.45 -10.2 -4.35 L-9.15 -0.85 -8.7 0.85 Q-8.35 2.45 -9.65 3.65 L-11.05 5.2 -11.4 5.5 -11.15 4.85 -11.4 4.85 -11.65 5.0 -12.15 5.3 -14.25 5.1 Q-12.75 4.65 -12.4 2.95 L-12.15 1.7 -13.5 0.65 Q-12.95 -1.9 -15.65 -2.55 L-16.65 -2.5" fill="#ffec00" fill-rule="evenodd" stroke="none"/>
    <path d="M15.4 -2.85 Q18.7 -3.9 22.45 -2.35 L23.0 -2.15 24.35 2.85 25.0 2.0 27.05 3.75 28.2 3.3 28.25 4.5 Q31.75 0.15 37.25 1.25 L34.75 4.35 34.6 4.75 35.25 4.45 34.4 6.7 35.8 7.15 Q39.05 18.2 31.0 25.25 29.1 26.9 26.75 25.95 L24.8 25.8 Q23.75 32.85 17.6 33.2 L17.3 33.35 Q11.95 37.05 7.2 34.0 L6.75 33.55 7.5 32.0 Q-5.45 35.7 -8.75 22.6 -12.2 8.65 0.6 4.65 L2.5 4.6 4.05 6.65 4.95 6.4 6.1 5.95 Q7.05 5.4 8.05 4.95 L9.5 1.75 11.0 1.25 10.3 -0.5 Q10.7 -1.15 11.25 -1.6 12.95 -3.1 15.4 -2.85 M1.6 11.35 L1.75 10.6 2.85 9.1 Q1.0 9.05 -0.6 10.1 -5.45 13.2 -5.35 19.0 -5.25 23.65 -2.1 26.8 2.25 31.3 7.65 28.2 7.35 25.85 9.1 24.45 L12.35 24.3 Q14.95 20.8 13.25 16.55 11.9 13.3 8.45 13.8 L1.6 14.45 1.25 13.1 Q1.75 12.15 1.6 11.35 M13.8 3.1 Q13.7 3.65 14.0 3.95 16.8 7.2 19.85 3.9 21.0 2.65 20.35 1.05 19.1 -1.9 15.95 -0.05 14.2 1.1 13.8 3.1 M26.55 12.5 L25.75 12.8 24.25 13.6 22.35 13.45 22.05 13.15 Q20.4 11.0 18.0 9.85 19.2 11.1 19.15 12.85 19.05 15.3 19.85 17.55 21.3 21.75 25.5 22.1 27.15 22.05 28.15 21.05 31.0 18.1 31.2 13.75 L27.6 13.1 27.1 12.75 26.65 12.45 26.55 12.5" fill="#ec0006" fill-rule="evenodd" stroke="none"/>
  </g>
</svg>
