<?xml version="1.0" encoding="UTF-8" standalone="no"?>
<svg xmlns:xlink="http://www.w3.org/1999/xlink" height="63.25px" width="64.2px" xmlns="http://www.w3.org/2000/svg">
  <g transform="matrix(1.0, 0.0, 0.0, 1.0, 27.85, 25.75)">
    <path d="M0.4 -14.15 L0.7 -14.5 Q1.85 -15.9 1.0 -16.75 L-0.8 -15.75 -0.95 -15.3 -2.4 -14.5 Q-1.0 -13.7 0.4 -14.15 M1.6 -14.3 L1.15 -13.55 Q0.5 -12.7 -0.85 -12.45 L-1.2 -13.1 Q-4.75 -13.45 -5.3 -16.7 L-4.0 -16.2 Q-2.55 -15.9 -1.1 -16.85 L-1.5 -20.25 -0.45 -19.85 Q1.0 -19.1 1.6 -18.0 2.4 -16.5 1.6 -14.3 M-21.65 -21.35 Q-19.2 -21.45 -18.75 -23.5 -18.4 -21.35 -19.9 -19.9 -21.0 -18.9 -20.85 -17.35 L-20.25 -16.45 -20.2 -16.35 -20.1 -16.2 Q-19.75 -15.55 -19.55 -14.75 L-19.4 -14.0 Q-28.1 -11.15 -27.85 -19.5 -27.75 -22.35 -26.25 -24.75 L-25.75 -24.5 -24.25 -25.75 -25.05 -21.95 Q-23.55 -21.05 -21.65 -21.35 M-20.65 -2.7 L-20.45 -1.8 Q-19.8 0.95 -17.4 2.55 L-16.65 0.95 Q-16.15 0.0 -15.0 0.15 L-14.0 0.7 -12.75 -0.1 -13.45 -0.35 -14.6 -1.4 -14.75 -1.7 Q-16.0 -6.3 -11.9 -8.9 L-13.25 -8.7 Q-15.6 -7.8 -18.05 -8.0 L-18.5 -8.9 -19.05 -8.4 Q-21.35 -6.0 -20.65 -2.7 M-26.25 -19.4 L-26.45 -18.7 -25.95 -15.9 Q-25.6 -14.55 -24.45 -14.0 -21.95 -12.95 -21.6 -15.9 L-22.95 -16.15 -23.3 -16.45 -24.15 -18.25 -25.45 -18.35 -25.65 -18.65 -25.9 -20.0 -26.25 -19.4 M-17.95 -10.1 Q-15.05 -8.95 -13.9 -11.7 L-13.3 -13.0 -9.3 -11.9 Q-8.3 -10.8 -7.55 -9.5 L-5.75 -6.05 Q-8.15 -1.45 -12.55 1.15 -14.85 2.45 -15.3 5.2 -26.65 0.45 -20.55 -10.5 L-19.8 -11.4 Q-18.9 -10.55 -17.95 -10.1" fill="#950000" fill-rule="evenodd" stroke="none"/>
    <path d="M0.4 -14.15 Q-1.0 -13.7 -2.4 -14.5 L-0.95 -15.3 -0.8 -15.75 1.0 -16.75 Q1.85 -15.9 0.7 -14.5 L0.4 -14.15 M18.75 -2.4 L18.8 -2.4 Q24.3 -2.9 27.25 1.85 28.35 3.55 27.2 5.05 24.15 9.15 20.35 5.5 L19.8 6.55 20.4 7.95 19.5 8.55 19.0 8.55 18.85 8.4 18.35 7.5 Q16.2 8.05 15.25 10.2 14.6 11.7 16.25 12.35 18.3 13.2 19.95 14.4 L20.5 14.35 Q18.05 17.0 14.3 15.05 9.85 12.8 10.15 7.7 10.35 4.4 12.95 2.6 L14.05 1.45 Q15.3 -0.85 17.45 -2.25 L18.05 -2.3 18.5 -2.0 18.5 -2.2 18.6 -2.3 18.75 -2.4 M28.0 18.05 Q32.35 19.3 34.3 23.4 34.9 24.65 33.95 25.8 32.1 28.1 30.95 30.85 L29.1 31.45 Q28.65 31.3 28.35 31.0 L25.4 27.45 Q25.0 26.85 24.35 26.65 21.4 25.75 19.35 27.25 L18.55 27.0 18.05 27.25 17.6 28.0 17.45 24.75 Q17.5 22.55 19.1 21.1 22.85 17.8 28.0 18.05 M3.6 18.5 Q4.65 19.1 5.2 20.15 L5.25 20.35 5.3 20.6 5.0 20.9 4.6 21.0 Q2.7 21.75 1.75 23.45 L1.6 23.6 Q1.15 23.7 1.05 23.4 L0.85 23.1 0.2 22.1 0.05 21.85 -0.05 21.6 -0.05 21.35 -0.05 21.05 0.4 20.35 Q1.4 18.65 3.35 18.45 L3.6 18.5 M8.8 22.0 L8.85 21.0 Q14.0 22.8 13.7 28.0 L13.45 29.7 13.25 30.85 Q11.7 33.15 9.15 34.1 4.8 35.75 1.9 32.7 -0.65 29.95 0.0 26.2 1.25 28.5 3.7 27.4 6.05 26.4 7.7 24.4 8.75 23.35 8.8 22.0 M-26.25 -19.4 L-25.9 -20.0 -25.65 -18.65 -25.45 -18.35 -24.15 -18.25 -23.3 -16.45 -22.95 -16.15 -21.6 -15.9 Q-21.95 -12.95 -24.45 -14.0 -25.6 -14.55 -25.95 -15.9 L-26.45 -18.7 -26.25 -19.4 M-20.65 -2.7 Q-21.35 -6.0 -19.05 -8.4 L-18.5 -8.9 -18.05 -8.0 Q-15.6 -7.8 -13.25 -8.7 L-11.9 -8.9 Q-16.0 -6.3 -14.75 -1.7 L-14.6 -1.4 -13.45 -0.35 -12.75 -0.1 -14.0 0.7 -15.0 0.15 Q-16.15 0.0 -16.65 0.95 L-17.4 2.55 Q-19.8 0.95 -20.45 -1.8 L-20.65 -2.7" fill="#ffec00" fill-rule="evenodd" stroke="none"/>
    <path d="M18.75 -2.4 L18.6 -2.3 18.5 -2.2 18.5 -2.0 18.05 -2.3 17.45 -2.25 Q15.3 -0.85 14.05 1.45 L12.95 2.6 Q10.35 4.4 10.15 7.7 9.85 12.8 14.3 15.05 18.05 17.0 20.5 14.35 L19.95 14.4 Q18.3 13.2 16.25 12.35 14.6 11.7 15.25 10.2 16.2 8.05 18.35 7.5 L18.85 8.4 19.0 8.55 19.5 8.55 20.4 7.95 19.8 6.55 20.35 5.5 Q24.15 9.15 27.2 5.05 28.35 3.55 27.25 1.85 24.3 -2.9 18.8 -2.4 L18.75 -2.4 M18.3 -4.7 Q28.95 -5.9 30.9 4.75 L30.85 6.5 Q30.5 7.95 30.45 9.5 L29.5 11.0 28.0 10.4 Q26.15 11.6 25.7 13.95 25.45 15.45 26.4 16.65 36.8 17.35 36.35 28.25 36.1 33.9 30.5 35.05 22.8 36.5 15.0 34.75 13.8 35.65 12.3 35.75 L11.25 35.7 Q0.3 41.3 -3.1 29.65 -4.85 23.65 -0.2 19.55 L0.7 18.7 1.4 17.95 2.6 16.45 2.25 15.55 1.5 15.5 2.6 13.65 1.5 7.5 3.15 5.2 3.2 5.45 3.2 5.4 3.4 5.35 3.7 4.85 Q2.65 2.15 0.05 0.85 -1.35 0.1 -2.95 -0.05 -0.45 -2.2 2.4 -1.65 L4.05 0.5 Q10.55 2.45 15.35 -3.4 16.45 -4.7 18.3 -4.7 M28.0 18.05 Q22.85 17.8 19.1 21.1 17.5 22.55 17.45 24.75 L17.6 28.0 18.05 27.25 18.55 27.0 19.35 27.25 Q21.4 25.75 24.35 26.65 25.0 26.85 25.4 27.45 L28.35 31.0 Q28.65 31.3 29.1 31.45 L30.95 30.85 Q32.1 28.1 33.95 25.8 34.9 24.65 34.3 23.4 32.35 19.3 28.0 18.05 M8.8 22.0 Q8.75 23.35 7.7 24.4 6.05 26.4 3.7 27.4 1.25 28.5 0.0 26.2 -0.65 29.95 1.9 32.7 4.8 35.75 9.15 34.1 11.7 33.15 13.25 30.85 L13.45 29.7 13.7 28.0 Q14.0 22.8 8.85 21.0 L8.8 22.0 M3.6 18.5 L3.35 18.45 Q1.4 18.65 0.4 20.35 L-0.05 21.05 -0.05 21.35 -0.05 21.6 0.05 21.85 0.2 22.1 0.85 23.1 1.05 23.4 Q1.15 23.7 1.6 23.6 L1.75 23.45 Q2.7 21.75 4.6 21.0 L5.0 20.9 5.3 20.6 5.25 20.35 5.2 20.15 Q4.65 19.1 3.6 18.5" fill="#ec0006" fill-rule="evenodd" stroke="none"/>
  </g>
</svg>
