<?xml version="1.0" encoding="UTF-8" standalone="no"?>
<svg xmlns:xlink="http://www.w3.org/1999/xlink" height="56.45px" width="61.75px" xmlns="http://www.w3.org/2000/svg">
  <g transform="matrix(1.0, 0.0, 0.0, 1.0, 28.75, 21.8)">
    <path d="M-25.7 -14.65 Q-26.8 -15.15 -28.05 -16.0 L-28.75 -17.45 -28.7 -17.5 Q-28.0 -16.6 -26.75 -16.35 L-25.3 -16.55 -23.5 -20.0 -23.05 -18.45 -20.75 -18.4 -20.0 -17.65 -17.95 -19.0 -18.25 -18.05 Q-19.35 -15.45 -21.0 -14.55 -22.55 -13.7 -24.5 -14.2 -21.8 -14.3 -20.95 -16.3 L-21.4 -16.55 Q-22.75 -16.5 -23.65 -17.4 L-23.8 -17.0 -25.7 -14.65 M-20.5 -6.85 L-21.55 -7.35 -22.15 -7.75 Q-23.8 -3.15 -20.5 0.75 -20.9 -4.2 -16.55 -7.05 L-16.75 -8.55 -18.9 -7.05 -19.75 -7.2 -20.5 -6.85 M-23.55 -8.7 L-21.75 -8.15 -19.35 -8.25 -18.7 -9.3 -18.55 -9.85 -18.4 -11.7 Q-15.45 -13.3 -12.75 -11.65 -8.65 -9.0 -9.4 -5.5 L-12.2 -7.25 Q-13.25 -7.0 -13.7 -6.05 L-14.1 -4.85 -14.25 -3.25 -15.1 -2.5 -15.5 -2.75 -15.35 -4.65 -16.0 -5.1 Q-18.0 -4.6 -18.5 -2.6 -19.05 -0.35 -17.6 1.55 L-16.5 1.75 -17.15 2.3 -17.35 2.65 -17.45 3.1 -17.5 3.75 -18.3 3.35 -20.3 1.9 Q-24.85 -2.1 -23.55 -8.7 M-3.15 -21.5 L-2.0 -20.85 Q-0.85 -18.45 -1.25 -15.6 L-1.3 -15.45 Q-1.65 -15.35 -1.8 -15.75 -2.1 -17.0 -2.7 -17.95 L-5.15 -15.75 -5.75 -15.75 Q-4.45 -17.3 -4.75 -19.45 L-6.7 -19.3 -7.15 -19.6 Q-5.85 -22.55 -3.3 -21.55 L-3.15 -21.5 M-3.2 -21.0 Q-3.7 -21.45 -4.45 -21.25 L-4.85 -21.1 -4.25 -19.5 -4.05 -18.25 -2.55 -18.35 -2.15 -19.5 Q-2.45 -20.4 -3.2 -21.0 M-14.85 -8.9 L-14.6 -7.4 Q-13.3 -7.5 -12.3 -8.1 L-12.25 -8.45 Q-12.35 -9.6 -12.95 -10.1 -14.3 -11.45 -15.8 -10.5 L-15.75 -9.75 -14.85 -8.9" fill="#950000" fill-rule="evenodd" stroke="none"/>
    <path d="M0.05 10.95 L0.2 11.15 Q0.25 12.7 1.75 13.5 L1.55 13.95 Q0.5 16.25 -1.45 15.65 L-1.7 15.2 Q-2.75 15.55 -3.3 15.0 L-3.3 14.55 Q-2.9 11.35 0.05 10.95 M18.3 -4.9 L18.6 -7.25 24.9 -7.4 Q27.7 -5.7 28.75 -2.5 29.95 1.35 26.3 3.9 22.5 6.5 18.6 4.6 21.65 4.7 24.1 2.7 26.85 0.6 24.75 -2.0 L21.5 -1.4 21.2 -2.05 20.8 -1.9 Q18.5 -2.2 18.3 -4.9 M0.75 19.5 L0.85 20.05 Q5.35 22.8 9.75 18.8 11.15 17.55 10.75 15.45 15.45 19.9 13.05 25.3 12.6 26.3 11.6 26.8 9.55 27.95 8.6 30.0 L7.65 30.9 5.6 31.05 Q1.25 30.05 -1.3 26.3 -3.45 23.15 -2.0 19.75 L-1.0 17.75 -0.75 19.25 0.0 19.6 0.75 19.5 M18.1 19.6 Q19.1 23.0 20.75 25.9 21.4 27.0 22.6 27.6 24.75 28.55 27.1 27.55 24.8 31.55 20.35 31.55 15.75 31.5 14.95 27.1 L14.9 26.5 15.5 25.55 16.8 22.95 18.1 19.6 M-24.5 -14.2 L-25.7 -14.65 -23.8 -17.0 -23.65 -17.4 Q-22.75 -16.5 -21.4 -16.55 L-20.95 -16.3 Q-21.8 -14.3 -24.5 -14.2 M-20.5 -6.85 L-19.75 -7.2 -18.9 -7.05 -16.75 -8.55 -16.55 -7.05 Q-20.9 -4.2 -20.5 0.75 -23.8 -3.15 -22.15 -7.75 L-21.55 -7.35 -20.5 -6.85 M-3.2 -21.0 Q-2.45 -20.4 -2.15 -19.5 L-2.55 -18.35 -4.05 -18.25 -4.25 -19.5 -4.85 -21.1 -4.45 -21.25 Q-3.7 -21.45 -3.2 -21.0 M-14.85 -8.9 L-15.75 -9.75 -15.8 -10.5 Q-14.3 -11.45 -12.95 -10.1 -12.35 -9.6 -12.25 -8.45 L-12.3 -8.1 Q-13.3 -7.5 -14.6 -7.4 L-14.85 -8.9" fill="#ffec00" fill-rule="evenodd" stroke="none"/>
    <path d="M16.95 -2.95 Q14.35 -9.0 22.25 -10.3 24.2 -10.65 25.75 -9.45 33.2 -3.7 28.3 3.45 27.6 4.55 26.15 5.15 22.7 6.45 24.75 9.75 25.55 11.0 26.9 11.7 33.75 10.7 32.9 18.25 32.65 20.45 31.9 22.6 L30.15 23.6 Q29.55 36.4 16.5 34.4 14.85 34.1 14.25 32.5 -1.1 37.05 -6.25 22.25 -7.35 19.05 -6.45 15.8 -4.6 9.4 1.3 8.45 L1.9 9.0 2.05 10.7 2.75 11.0 Q10.35 9.65 7.4 3.1 6.95 2.1 6.85 1.2 7.8 1.75 9.35 1.6 L12.0 0.65 Q14.05 1.55 15.7 -0.25 L17.1 -1.85 16.95 -2.95 M18.3 -4.9 Q18.5 -2.2 20.8 -1.9 L21.2 -2.05 21.5 -1.4 24.75 -2.0 Q26.85 0.6 24.1 2.7 21.65 4.7 18.6 4.6 22.5 6.5 26.3 3.9 29.95 1.35 28.75 -2.5 27.7 -5.7 24.9 -7.4 L18.6 -7.25 18.3 -4.9 M0.05 10.95 Q-2.9 11.35 -3.3 14.55 L-3.3 15.0 Q-2.75 15.55 -1.7 15.2 L-1.45 15.65 Q0.5 16.25 1.55 13.95 L1.75 13.5 Q0.25 12.7 0.2 11.15 L0.05 10.95 M18.1 19.6 L16.8 22.95 15.5 25.55 14.9 26.5 14.95 27.1 Q15.75 31.5 20.35 31.55 24.8 31.55 27.1 27.55 24.75 28.55 22.6 27.6 21.4 27.0 20.75 25.9 19.1 23.0 18.1 19.6 M0.75 19.5 L0.0 19.6 -0.75 19.25 -1.0 17.75 -2.0 19.75 Q-3.45 23.15 -1.3 26.3 1.25 30.05 5.6 31.05 L7.65 30.9 8.6 30.0 Q9.55 27.95 11.6 26.8 12.6 26.3 13.05 25.3 15.45 19.9 10.75 15.45 11.15 17.55 9.75 18.8 5.35 22.8 0.85 20.05 L0.75 19.5" fill="#ec0006" fill-rule="evenodd" stroke="none"/>
  </g>
</svg>
