<?xml version="1.0" encoding="UTF-8" standalone="no"?>
<svg xmlns:xlink="http://www.w3.org/1999/xlink" height="57.45px" width="62.6px" xmlns="http://www.w3.org/2000/svg">
  <g transform="matrix(1.0, 0.0, 0.0, 1.0, 24.75, 21.9)">
    <path d="M-22.5 -19.8 Q-22.9 -20.85 -24.0 -21.5 L-20.2 -21.35 Q-19.0 -20.7 -18.8 -19.4 -18.9 -18.05 -19.65 -16.8 -20.05 -16.1 -20.7 -15.7 -22.35 -14.75 -24.25 -14.5 -23.1 -15.3 -22.6 -16.35 -22.15 -17.2 -22.85 -17.85 -22.0 -18.65 -22.5 -19.8 M15.75 -10.9 Q17.45 -10.6 18.55 -9.45 20.4 -7.4 20.75 -4.75 L20.6 -3.65 20.0 -2.75 19.0 -1.3 Q18.45 -0.35 18.35 0.75 18.3 1.3 18.8 1.65 L19.65 2.5 Q20.05 4.9 22.65 4.55 L24.0 4.2 26.85 3.35 28.4 2.55 Q29.05 2.1 29.8 1.9 32.15 1.4 34.0 2.9 35.0 3.7 35.65 4.8 38.4 9.05 37.75 14.15 36.7 14.8 35.5 15.0 35.1 15.15 34.75 15.4 L32.55 17.05 Q31.2 18.15 31.2 19.9 31.2 21.3 32.3 22.4 34.05 24.2 36.25 23.25 35.6 25.85 34.5 28.15 33.75 29.8 32.4 31.15 L30.85 32.65 Q27.05 35.85 22.0 35.5 19.5 35.0 17.45 33.15 L13.15 35.25 12.5 35.5 Q10.0 35.75 8.2 33.85 L7.6 31.0 5.65 30.4 Q4.05 31.4 2.25 31.1 -0.45 31.1 -2.6 29.45 -4.45 28.0 -5.35 25.6 -6.0 23.9 -5.55 22.05 -5.1 20.35 -3.35 20.5 L-2.55 20.0 Q-1.85 19.5 -1.45 18.8 L-1.8 18.3 Q-4.1 15.25 -3.2 11.45 -2.7 9.2 -1.65 7.25 -0.3 4.75 2.55 3.65 3.35 3.25 4.25 3.0 L3.9 3.65 3.95 4.05 Q4.05 4.7 4.9 4.6 L5.9 4.0 6.5 5.0 8.15 4.55 Q8.9 4.3 9.45 3.7 L11.75 1.0 Q12.2 0.5 12.0 -0.25 11.75 -1.4 12.35 -2.65 L14.2 -3.25 14.35 -3.0 14.45 -2.9 Q14.7 -3.0 14.95 -3.2 L14.7 -3.55 13.95 -4.05 13.05 -4.15 12.3 -4.8 Q11.55 -5.55 11.1 -6.4 10.4 -7.8 11.4 -8.9 13.1 -10.85 15.75 -10.9 M-22.5 -0.3 Q-23.65 -1.65 -24.3 -3.3 L-24.75 -5.2 Q-24.85 -6.8 -23.75 -8.0 -23.7 -6.55 -22.3 -6.05 -20.0 -5.4 -17.75 -6.5 -20.0 -4.25 -18.8 -1.4 L-18.15 -0.35 Q-17.15 0.8 -15.75 1.05 L-14.8 0.95 -14.2 0.85 -15.25 1.4 -16.85 1.7 Q-19.6 1.9 -21.65 -0.05 L-22.5 -0.3 M-20.9 -9.35 L-22.5 -9.5 Q-21.45 -11.9 -18.8 -11.95 -16.15 -12.0 -14.85 -9.65 L-14.55 -9.0 -15.25 -7.0 -19.75 -8.3 -19.85 -8.8 -20.9 -9.35 M-7.25 -16.5 L-7.9 -17.05 Q-8.6 -17.6 -8.75 -18.35 -7.75 -20.3 -5.8 -20.8 L-5.0 -21.0 -5.25 -19.0 -6.6 -17.65 -7.25 -16.5" fill="#620000" fill-rule="evenodd" stroke="none"/>
  </g>
</svg>
