<?xml version="1.0" encoding="UTF-8" standalone="no"?>
<svg xmlns:xlink="http://www.w3.org/1999/xlink" height="58.8px" width="63.95px" xmlns="http://www.w3.org/2000/svg">
  <g transform="matrix(1.0, 0.0, 0.0, 1.0, 26.3, 22.7)">
    <path d="M9.75 -9.7 L10.0 -9.35 11.1 -9.3 12.1 -10.65 12.75 -10.45 Q15.15 -9.3 14.55 -6.6 14.3 -5.5 13.25 -5.25 L12.15 -5.15 12.2 -4.25 12.85 -3.7 13.0 -3.25 12.1 -2.6 Q10.65 -2.4 9.55 -3.3 8.45 -4.05 8.1 -5.3 7.35 -7.65 8.25 -10.0 L9.75 -9.7 M3.75 -3.0 L5.0 -4.25 Q5.05 -2.85 5.4 -1.45 5.55 -0.8 6.15 -0.35 8.6 1.65 11.7 1.15 13.6 1.0 15.25 -0.15 L17.25 0.15 19.0 -0.45 20.0 0.45 23.45 -3.2 Q24.3 -4.05 25.5 -4.35 28.65 -4.3 31.35 -2.95 33.35 -2.05 33.9 -0.05 34.7 2.7 33.0 5.1 L31.6 6.9 Q30.45 8.25 30.3 9.9 30.1 11.6 31.3 12.75 31.8 13.2 32.7 13.3 L34.2 13.05 34.85 14.3 34.55 15.2 Q34.25 16.5 35.15 17.55 L35.9 18.25 37.65 19.4 36.95 23.6 35.65 28.75 Q35.15 30.55 34.0 32.05 L33.2 32.8 Q31.45 33.9 29.4 33.75 L26.85 33.1 21.95 32.8 Q20.05 33.45 18.2 34.65 17.45 35.15 16.35 35.25 14.05 35.4 13.0 33.35 L12.0 30.8 9.6 31.0 9.5 32.6 7.4 34.45 Q5.75 35.75 3.8 36.1 2.25 36.0 0.75 35.15 -0.9 34.1 -1.55 32.35 -2.15 30.65 -2.0 28.95 -1.75 25.3 0.15 22.15 1.2 20.35 0.25 18.45 -0.4 17.3 -1.3 16.6 -3.4 15.1 -5.95 14.45 -6.0 12.7 -5.7 11.05 -4.9 6.25 -1.4 2.95 1.45 0.25 3.75 -3.0 M-21.25 -19.0 Q-23.05 -21.75 -26.3 -22.05 L-25.0 -22.65 Q-23.05 -22.9 -21.75 -21.5 -20.7 -20.45 -21.25 -19.0 M-23.1 -10.0 L-20.4 -10.2 -20.1 -9.8 -19.85 -9.15 -19.8 -8.3 Q-22.75 -8.35 -25.0 -6.0 L-23.95 -9.45 -23.1 -10.0 M-20.35 -0.5 L-24.25 -2.0 -24.5 -2.7 -23.5 -2.35 -21.9 -2.95 Q-20.7 -3.5 -20.0 -4.5 L-18.4 -3.5 -16.15 -4.7 Q-16.0 -3.25 -16.85 -1.95 -17.55 -0.9 -18.9 -0.45 L-20.35 -0.5 M-6.25 -19.25 L-6.05 -16.4 -7.55 -16.0 -7.3 -18.05 -6.8 -18.9 -6.25 -19.25" fill="#000000" fill-rule="evenodd" stroke="none"/>
  </g>
</svg>
