<?xml version="1.0" encoding="UTF-8" standalone="no"?>
<svg xmlns:xlink="http://www.w3.org/1999/xlink" height="123.0px" width="123.0px" xmlns="http://www.w3.org/2000/svg">
  <g transform="matrix(1.0, 0.0, 0.0, 1.0, 61.5, 61.5)">
    <path d="M9.9 -61.5 L8.65 -52.75 -8.9 -52.75 -47.25 -14.4 -47.25 -24.4 -10.15 -61.5 9.9 -61.5 M47.25 -14.4 L47.25 -24.15 24.15 -47.25 24.4 -47.25 61.5 -10.15 61.5 9.9 52.75 8.65 52.75 -8.9 47.25 -14.4 M47.25 24.15 L9.9 61.5 -10.15 61.5 -8.9 52.75 8.65 52.75 47.25 14.15 47.25 24.15 M-47.25 24.15 L-61.5 9.9 -61.5 -10.15 -52.75 -8.9 -52.75 8.65 -47.25 14.15 -47.25 14.4 -47.25 24.15" fill="#999999" fill-rule="evenodd" stroke="none"/>
    <path d="M8.65 -52.75 L9.9 -61.5 24.15 -47.25 47.25 -24.15 47.25 -14.4 47.25 -14.15 8.65 -52.75 M-47.25 -24.4 L-47.25 -14.4 -52.75 -8.9 -61.5 -10.15 -47.25 -24.4 M52.75 8.65 L61.5 9.9 47.25 24.15 47.25 14.15 52.75 8.65 M-10.15 61.5 L-47.25 24.4 -47.25 24.15 -47.25 14.4 -8.9 52.75 -10.15 61.5" fill="#cccccc" fill-rule="evenodd" stroke="none"/>
  </g>
</svg>
