<?xml version="1.0" encoding="UTF-8" standalone="no"?>
<svg xmlns:xlink="http://www.w3.org/1999/xlink" height="34.4px" width="53.3px" xmlns="http://www.w3.org/2000/svg">
  <g transform="matrix(1.0, 0.0, 0.0, 1.0, 22.9, 18.95)">
    <path d="M29.7 1.55 L29.5 2.4 Q25.95 5.25 22.65 8.15 L19.5 11.0 17.5 12.3 Q10.7 15.5 2.95 15.45 L-0.5 15.0 0.5 13.6 1.15 12.05 Q2.3 8.55 2.4 4.8 L6.65 6.15 12.15 7.25 14.45 7.45 Q18.9 6.85 22.9 5.0 26.4 3.45 29.7 1.55" fill="#00223e" fill-rule="evenodd" stroke="none"/>
    <path d="M2.4 4.8 Q-2.2 3.25 -7.15 3.6 L-16.45 5.25 Q-18.2 5.75 -19.8 6.65 L-22.9 8.7 Q-21.75 7.4 -21.2 5.8 L-20.7 4.25 -20.45 2.5 Q-20.1 -5.8 -14.2 -11.6 L-11.55 -14.0 Q-7.1 -17.5 -1.55 -18.65 1.75 -19.2 5.1 -18.7 7.45 -18.35 9.6 -17.3 13.6 -15.2 16.7 -11.65 L21.15 -6.4 Q23.95 -2.9 27.85 -0.55 L30.4 1.0 29.7 1.55 Q26.4 3.45 22.9 5.0 18.9 6.85 14.45 7.45 L12.15 7.25 6.65 6.15 2.4 4.8" fill="#c2042c" fill-rule="evenodd" stroke="none"/>
  </g>
</svg>
