<?xml version="1.0" encoding="UTF-8" standalone="no"?>
<svg xmlns:xlink="http://www.w3.org/1999/xlink" height="34.8px" width="50.35px" xmlns="http://www.w3.org/2000/svg">
  <g transform="matrix(1.0, 0.0, 0.0, 1.0, 21.5, 17.35)">
    <path d="M28.85 2.35 L27.0 2.25 20.5 1.85 18.95 2.45 Q15.25 3.8 11.6 5.3 6.95 7.25 4.5 11.7 3.05 14.35 2.8 17.45 -1.6 13.9 -3.95 8.85 L1.9 2.85 6.1 -1.0 Q7.4 -1.95 8.95 -2.5 L17.25 -2.85 21.8 -1.55 Q25.8 -0.2 28.85 2.35" fill="#00223e" fill-rule="evenodd" stroke="none"/>
    <path d="M-3.95 8.85 Q-6.4 10.85 -9.35 11.95 -11.2 12.7 -13.3 13.15 L-21.5 13.5 Q-18.05 9.45 -18.75 4.05 -18.85 3.25 -19.35 2.55 -20.85 0.35 -20.6 -2.25 -20.4 -4.65 -19.75 -6.9 -19.1 -9.2 -18.0 -11.3 L-16.0 -14.3 Q-14.55 -16.1 -12.5 -16.8 L-10.5 -17.35 Q-5.8 -17.45 -1.45 -15.65 L4.95 -12.9 Q8.6 -11.2 11.8 -8.75 L15.05 -6.6 20.25 -3.85 Q24.0 -2.2 27.25 0.2 28.4 1.0 28.85 2.35 25.8 -0.2 21.8 -1.55 L17.25 -2.85 8.95 -2.5 Q7.4 -1.95 6.1 -1.0 L1.9 2.85 -3.95 8.85" fill="#c2042c" fill-rule="evenodd" stroke="none"/>
  </g>
</svg>
