<?xml version="1.0" encoding="UTF-8" standalone="no"?>
<svg xmlns:xlink="http://www.w3.org/1999/xlink" height="50.5px" width="45.95px" xmlns="http://www.w3.org/2000/svg">
  <g transform="matrix(1.0, 0.0, 0.0, 1.0, 21.9, 25.5)">
    <path d="M22.8 -0.8 Q22.65 4.25 21.05 8.95 L20.4 9.8 Q16.45 12.4 11.95 13.95 L7.3 15.55 Q3.1 17.05 -1.5 17.4 -6.55 18.15 -10.05 21.75 -11.5 23.2 -12.5 25.0 -15.75 21.6 -17.7 17.25 -18.45 15.65 -18.75 13.9 L-19.3 9.45 Q-19.5 5.5 -18.7 1.55 -18.25 -0.7 -17.4 -2.75 -15.2 -8.15 -14.25 -13.95 -13.65 -17.75 -14.65 -21.55 L-15.4 -23.25 -16.05 -24.05 Q-14.05 -23.05 -12.2 -21.75 -8.9 -19.65 -6.5 -16.5 -4.6 -14.05 -3.25 -11.05 L-1.6 -7.6 0.85 -3.25 Q2.05 -1.5 3.55 0.0 L6.7 2.8 Q10.35 5.65 15.0 4.9 16.15 4.6 16.95 3.85 19.75 1.1 22.8 -0.8" fill="#00223e" fill-rule="evenodd" stroke="none"/>
    <path d="M-16.05 -24.05 L-21.9 -25.5 -19.75 -25.45 Q-14.6 -24.7 -10.15 -21.95 -5.8 -19.35 -2.5 -15.6 L-0.35 -12.7 2.6 -7.85 5.4 -3.55 Q6.1 -2.65 7.05 -1.9 9.25 -0.3 11.85 -0.9 L14.5 -1.25 15.95 -1.4 17.85 -1.9 21.15 -2.5 22.85 -2.95 23.2 -2.9 24.05 -2.1 22.8 -0.8 Q19.75 1.1 16.95 3.85 16.15 4.6 15.0 4.9 10.35 5.65 6.7 2.8 L3.55 0.0 Q2.05 -1.5 0.85 -3.25 L-1.6 -7.6 -3.25 -11.05 Q-4.6 -14.05 -6.5 -16.5 -8.9 -19.65 -12.2 -21.75 -14.05 -23.05 -16.05 -24.05" fill="#c2042c" fill-rule="evenodd" stroke="none"/>
  </g>
</svg>
