<?xml version="1.0" encoding="UTF-8" standalone="no"?>
<svg xmlns:xlink="http://www.w3.org/1999/xlink" height="47.0px" width="59.35px" xmlns="http://www.w3.org/2000/svg">
  <g transform="matrix(1.0, 0.0, 0.0, 1.0, 24.45, 10.0)">
    <path d="M21.7 1.2 Q23.3 0.6 24.95 0.75 29.45 1.5 33.75 3.25 L34.9 3.85 Q31.15 4.35 27.5 6.05 23.3 7.85 19.15 9.75 11.25 13.35 4.85 19.15 L6.75 15.45 Q8.45 12.5 10.4 9.8 11.8 7.85 13.5 6.1 16.95 2.5 21.7 1.2" fill="#00223e" fill-rule="evenodd" stroke="none"/>
    <path d="M4.85 19.15 L1.85 26.45 Q0.65 29.35 -1.55 32.05 L-2.5 32.9 -4.75 34.5 Q-8.1 36.7 -12.4 37.0 L-12.25 35.5 Q-12.0 32.4 -12.15 29.3 -12.2 28.1 -12.65 26.95 -13.95 23.9 -16.1 21.5 -20.4 16.6 -23.45 11.0 -24.65 8.85 -24.4 6.65 -24.3 5.75 -23.8 5.1 -21.55 1.95 -19.0 -0.95 L-15.0 -5.25 Q-12.65 -7.6 -9.8 -9.0 -8.1 -9.7 -6.2 -10.0 L2.0 -9.35 9.9 -7.5 Q11.75 -7.1 13.15 -6.0 14.6 -4.75 15.6 -2.9 L17.0 0.0 17.75 0.5 18.2 0.9 19.85 0.6 Q20.8 0.5 21.7 1.2 16.95 2.5 13.5 6.1 11.8 7.85 10.4 9.8 8.45 12.5 6.75 15.45 L4.85 19.15" fill="#c2042c" fill-rule="evenodd" stroke="none"/>
  </g>
</svg>
