<?xml version="1.0" encoding="UTF-8" standalone="no"?>
<svg xmlns:xlink="http://www.w3.org/1999/xlink" height="43.35px" width="51.2px" xmlns="http://www.w3.org/2000/svg">
  <g transform="matrix(1.0, 0.0, 0.0, 1.0, 23.5, 17.35)">
    <path d="M19.25 6.9 Q16.65 11.0 13.7 14.85 10.7 18.85 5.9 20.3 L0.0 22.1 -6.0 23.5 Q-5.85 20.65 -6.5 17.6 L-6.95 16.25 -1.0 15.45 8.0 15.25 9.35 14.75 Q11.2 14.05 12.9 13.0 16.7 10.5 19.25 6.9" fill="#00223e" fill-rule="evenodd" stroke="none"/>
    <path d="M-6.95 16.25 Q-11.45 17.7 -14.85 20.85 -17.2 23.0 -19.0 26.0 -18.85 22.05 -20.35 18.45 -21.5 15.65 -22.8 12.95 L-23.35 10.9 Q-23.6 8.5 -23.45 6.1 -23.3 4.0 -22.75 2.05 L-20.8 -3.6 Q-18.7 -9.0 -14.3 -12.8 -11.95 -14.75 -9.25 -15.75 L-5.45 -16.7 -1.7 -17.35 -0.35 -15.95 3.75 -15.65 Q5.05 -15.6 6.1 -14.65 L8.75 -12.45 11.35 -9.85 Q14.65 -6.1 16.7 -1.4 16.9 -1.0 17.25 -0.75 L18.15 -0.45 21.5 -1.15 Q22.9 -1.3 24.0 -0.55 L25.3 0.45 27.7 2.85 Q25.1 3.15 22.7 4.55 L19.25 6.9 Q16.7 10.5 12.9 13.0 11.2 14.05 9.35 14.75 L8.0 15.25 -1.0 15.45 -6.95 16.25" fill="#c2042c" fill-rule="evenodd" stroke="none"/>
  </g>
</svg>
