<?xml version="1.0" encoding="UTF-8" standalone="no"?>
<svg xmlns:xlink="http://www.w3.org/1999/xlink" height="62.6px" width="56.2px" xmlns="http://www.w3.org/2000/svg">
  <g transform="matrix(1.0, 0.0, 0.0, 1.0, 125.05, 95.85)">
    <path d="M-86.85 -84.2 Q-85.05 -81.8 -82.65 -77.3 -80.45 -73.1 -79.25 -69.0 -78.0 -64.75 -77.55 -52.4 L-73.95 -52.1 -74.0 -51.8 -69.45 -51.45 Q-69.3 -38.5 -68.95 -35.15 L-68.85 -33.45 -77.3 -33.3 Q-92.95 -33.25 -102.85 -33.85 L-107.4 -33.9 -107.3 -43.5 Q-107.1 -53.05 -108.1 -57.65 -109.0 -62.4 -110.95 -64.85 -112.9 -67.3 -116.45 -69.75 -123.95 -75.15 -124.6 -80.2 -125.35 -85.25 -124.9 -86.85 -124.5 -88.45 -123.45 -89.8 L-120.3 -92.6 Q-115.65 -95.65 -109.6 -95.85 -98.05 -95.15 -93.3 -90.9 -88.65 -86.65 -86.85 -84.2 M-80.45 -48.3 L-80.8 -54.7 Q-80.8 -58.2 -80.95 -59.9 -81.2 -62.85 -82.25 -67.15 -83.3 -71.4 -84.6 -74.2 -85.9 -77.1 -88.2 -80.55 -90.45 -84.1 -94.0 -86.4 L-98.15 -89.15 Q-104.35 -93.45 -111.6 -92.2 -117.8 -91.05 -120.75 -86.85 -121.6 -85.3 -121.2 -83.3 -120.0 -76.95 -115.6 -73.8 -111.1 -70.7 -108.95 -68.35 -106.75 -66.05 -105.95 -63.8 -105.0 -61.55 -104.3 -56.2 -103.75 -50.9 -103.75 -44.5 -103.8 -38.25 -104.0 -37.2 L-91.95 -36.3 Q-84.65 -36.05 -77.35 -36.25 L-77.3 -36.3 -72.75 -36.7 -73.05 -48.0 -80.35 -48.5 -80.35 -48.25 -80.45 -48.3 M-68.85 -33.4 L-68.85 -33.25 Q-71.7 -33.2 -68.85 -33.4" fill="#000000" fill-rule="evenodd" stroke="none"/>
    <path d="M-80.35 -48.25 L-80.35 -48.5 -73.05 -48.0 -72.75 -36.7 -77.3 -36.3 -77.35 -36.25 Q-84.65 -36.05 -91.95 -36.3 L-104.0 -37.2 Q-103.8 -38.25 -103.75 -44.5 -103.75 -50.9 -104.3 -56.2 -105.0 -61.55 -105.95 -63.8 -106.75 -66.05 -108.95 -68.35 -111.1 -70.7 -115.6 -73.8 -120.0 -76.95 -121.2 -83.3 -121.6 -85.3 -120.75 -86.85 -117.8 -91.05 -111.6 -92.2 -104.35 -93.45 -98.15 -89.15 L-94.0 -86.4 Q-90.45 -84.1 -88.2 -80.55 -85.9 -77.1 -84.6 -74.2 -83.3 -71.4 -82.25 -67.15 -81.2 -62.85 -80.95 -59.9 -80.8 -58.2 -80.8 -54.7 L-80.45 -48.3 -81.75 -48.35 Q-81.4 -51.9 -81.5 -54.85 -81.8 -66.95 -87.85 -77.4 -95.3 -90.45 -107.8 -91.25 L-109.15 -90.85 -109.1 -90.5 Q-95.4 -88.45 -88.45 -71.3 -84.1 -60.7 -83.3 -48.5 L-83.35 -48.45 -83.3 -45.7 -75.9 -45.25 Q-75.6 -43.8 -75.3 -38.15 L-75.25 -38.1 -73.85 -38.25 -73.85 -43.3 Q-73.9 -45.7 -74.35 -48.0 L-79.35 -48.15 -80.35 -48.25" fill="#c5c351" fill-rule="evenodd" stroke="none"/>
    <path d="M-80.45 -48.3 L-80.35 -48.25 -79.35 -48.15 -74.35 -48.0 Q-73.9 -45.7 -73.85 -43.3 L-73.85 -38.25 -75.25 -38.1 -75.3 -38.15 Q-75.6 -43.8 -75.9 -45.25 L-83.3 -45.7 -83.35 -48.45 -83.3 -48.5 Q-84.1 -60.7 -88.45 -71.3 -95.4 -88.45 -109.1 -90.5 L-109.15 -90.85 -107.8 -91.25 Q-95.3 -90.45 -87.85 -77.4 -81.8 -66.95 -81.5 -54.85 -81.4 -51.9 -81.75 -48.35 L-80.45 -48.3" fill="#737115" fill-rule="evenodd" stroke="none"/>
  </g>
</svg>
