<?xml version="1.0" encoding="UTF-8" standalone="no"?>
<svg xmlns:xlink="http://www.w3.org/1999/xlink" height="107.6px" width="160.2px" xmlns="http://www.w3.org/2000/svg">
  <g transform="matrix(1.0, 0.0, 0.0, 1.0, 81.5, 52.6)">
    <path d="M-57.7 -34.1 L-56.7 -34.4 -53.25 -32.35 -60.25 -49.25 -79.4 -49.15 -80.75 -49.35 -81.5 -52.6 -57.65 -52.25 -49.1 -31.1 -48.35 -30.5 -22.6 -30.75 -20.35 -6.85 1.3 -7.25 4.8 14.15 23.3 13.75 28.4 29.2 Q32.05 27.35 35.75 25.8 41.2 23.35 45.9 23.75 L52.3 36.1 60.75 27.75 63.25 27.8 68.7 37.7 77.2 37.55 78.7 40.05 78.1 40.8 77.1 41.8 Q72.8 45.1 67.35 46.75 58.05 49.6 48.6 51.5 L38.0 53.5 18.15 55.0 Q8.2 55.15 -1.55 53.35 -10.55 51.75 -18.8 48.15 -27.95 44.15 -35.8 38.25 L-39.6 35.4 Q-43.25 32.6 -42.75 28.3 L-34.5 34.25 Q-28.55 39.85 -21.1 43.1 -11.95 47.15 -2.3 49.5 L5.85 50.95 16.9 51.65 19.65 51.55 23.2 51.3 Q32.75 50.75 42.25 49.0 L50.8 47.6 Q59.65 46.6 68.1 43.6 L74.75 40.3 64.55 40.0 64.55 39.25 64.6 37.95 61.35 32.2 55.15 37.0 57.8 37.25 57.8 39.25 57.8 39.3 Q52.4 40.4 47.1 38.85 L47.0 37.75 47.0 36.5 49.1 36.55 43.75 26.8 30.55 31.7 33.3 33.95 33.3 34.5 33.3 35.55 Q26.1 35.7 20.2 31.85 L20.9 30.35 21.45 29.2 24.55 29.6 20.55 16.5 4.1 17.15 6.45 19.85 6.35 21.25 6.25 22.55 4.8 22.5 -4.35 13.8 -2.8 13.7 0.15 13.2 1.55 14.25 -1.35 -4.5 -20.25 -4.3 -17.65 -0.6 -17.75 1.75 -30.1 -9.3 -28.5 -9.85 -26.25 -10.6 -23.7 -8.15 -25.25 -27.85 -46.5 -27.7 -44.75 -26.0 -44.8 -24.4 -44.95 -21.3 -59.4 -33.7 -57.7 -34.1" fill="#000000" fill-rule="evenodd" stroke="none"/>
    <path d="M-78.3 -48.1 L-74.2 -45.3 -72.75 -44.25 -68.25 -41.25 Q-66.65 -40.15 -64.8 -39.2 L-64.5 -39.0 -63.0 -38.0 Q-61.45 -37.05 -59.45 -35.55 L-58.35 -34.65 -57.7 -34.1 -59.4 -33.7 -44.95 -21.3 -44.8 -24.4 -42.7 -22.55 -42.3 -22.2 -40.45 -20.55 -40.05 -20.2 Q-38.4 -18.55 -36.35 -17.15 L-35.95 -16.85 -35.0 -16.0 -31.75 -13.0 -30.35 -11.45 -28.5 -9.85 -30.1 -9.3 -17.75 1.75 -17.65 -0.6 -15.95 0.65 -14.05 2.3 -11.8 4.35 -11.45 4.7 -8.55 7.55 -7.5 8.75 -4.5 12.0 -2.8 13.7 -4.35 13.8 4.8 22.5 6.25 22.55 6.35 21.25 6.7 21.55 7.95 22.55 8.25 22.7 10.7 24.35 12.3 25.45 Q14.0 26.75 16.0 27.75 L18.8 29.15 20.9 30.35 20.2 31.85 Q26.1 35.7 33.3 35.55 L33.3 34.5 34.25 34.75 39.25 36.05 39.75 36.2 44.5 37.25 46.5 37.65 47.0 37.75 47.1 38.85 Q52.4 40.4 57.8 39.3 L57.8 39.25 64.0 39.25 64.55 39.25 64.55 40.0 74.75 40.3 68.1 43.6 65.85 43.0 63.35 43.05 57.9 44.45 48.25 45.05 44.95 44.85 42.8 44.1 37.25 44.25 30.05 43.7 Q26.3 43.35 22.7 41.95 L20.1 41.15 Q18.25 40.4 16.25 40.4 L12.3 39.7 8.5 38.9 1.9 36.4 Q0.5 35.75 -0.9 35.2 L-3.2 34.2 -6.55 32.95 Q-10.6 31.4 -14.4 29.1 -18.1 26.8 -21.15 23.8 -21.95 22.95 -22.85 22.2 -24.85 20.65 -27.25 19.75 -31.95 18.1 -35.65 14.85 L-39.75 11.65 Q-41.4 10.5 -43.15 9.6 -46.75 7.85 -49.6 4.85 L-50.3 2.45 -51.35 -1.05 -52.9 -5.55 -53.65 -7.45 -54.6 -9.95 -56.4 -14.05 Q-58.4 -18.2 -59.65 -21.95 L-59.95 -22.55 Q-61.1 -24.45 -62.15 -27.45 L-62.45 -28.05 Q-64.75 -31.75 -67.05 -34.45 -68.35 -35.95 -69.6 -38.45 L-70.0 -39.0 -71.4 -40.55 -71.8 -41.05 -72.05 -41.45 Q-73.4 -43.45 -76.0 -46.0 L-76.5 -46.5 -78.3 -48.1" fill="#007b25" fill-rule="evenodd" stroke="none"/>
    <path d="M-57.7 -34.1 L-58.35 -34.65 -59.45 -35.55 Q-61.45 -37.05 -63.0 -38.0 L-64.5 -39.0 -64.8 -39.2 Q-66.65 -40.15 -68.25 -41.25 L-72.75 -44.25 -74.2 -45.3 -78.3 -48.1 -78.95 -48.55 -79.4 -49.15 -60.25 -49.25 -53.25 -32.35 -56.7 -34.4 -57.7 -34.1" fill="url(#gradient0)" fill-rule="evenodd" stroke="none"/>
    <path d="M-28.5 -9.85 L-30.35 -11.45 -31.75 -13.0 -35.0 -16.0 -35.95 -16.85 -36.35 -17.15 Q-38.4 -18.55 -40.05 -20.2 L-40.45 -20.55 -42.3 -22.2 -42.7 -22.55 -44.8 -24.4 -44.75 -26.0 -46.5 -27.7 -25.25 -27.85 -23.7 -8.15 -26.25 -10.6 -28.5 -9.85" fill="url(#gradient1)" fill-rule="evenodd" stroke="none"/>
    <path d="M-2.8 13.7 L-4.5 12.0 -7.5 8.75 -8.55 7.55 -11.45 4.7 -11.8 4.35 -14.05 2.3 -15.95 0.65 -17.65 -0.6 -20.25 -4.3 -1.35 -4.5 1.55 14.25 0.15 13.2 -2.8 13.7" fill="url(#gradient2)" fill-rule="evenodd" stroke="none"/>
    <path d="M20.9 30.35 L18.8 29.15 16.0 27.75 Q14.0 26.75 12.3 25.45 L10.7 24.35 8.25 22.7 7.95 22.55 6.7 21.55 6.35 21.25 6.45 19.85 4.1 17.15 20.55 16.5 24.55 29.6 21.45 29.2 20.9 30.35" fill="url(#gradient3)" fill-rule="evenodd" stroke="none"/>
    <path d="M64.55 39.25 L64.0 39.25 57.8 39.25 57.8 37.25 55.15 37.0 61.35 32.2 64.6 37.95 64.55 39.25" fill="url(#gradient4)" fill-rule="evenodd" stroke="none"/>
    <path d="M47.0 37.75 L46.5 37.65 44.5 37.25 39.75 36.2 39.25 36.05 34.25 34.75 33.3 34.5 33.3 33.95 30.55 31.7 43.75 26.8 49.1 36.55 47.0 36.5 47.0 37.75" fill="url(#gradient5)" fill-rule="evenodd" stroke="none"/>
    <path d="M-49.6 4.85 Q-46.75 7.85 -43.15 9.6 -41.4 10.5 -39.75 11.65 L-35.65 14.85 Q-31.95 18.1 -27.25 19.75 -24.85 20.65 -22.85 22.2 -21.95 22.95 -21.15 23.8 -18.1 26.8 -14.4 29.1 -10.6 31.4 -6.55 32.95 L-3.2 34.2 -0.9 35.2 Q0.5 35.75 1.9 36.4 L8.5 38.9 12.3 39.7 16.25 40.4 Q18.25 40.4 20.1 41.15 L22.7 41.95 Q26.3 43.35 30.05 43.7 L37.25 44.25 42.8 44.1 44.95 44.85 48.25 45.05 57.9 44.45 63.35 43.05 65.85 43.0 68.1 43.6 Q59.65 46.6 50.8 47.6 L42.25 49.0 Q32.75 50.75 23.2 51.3 L19.65 51.55 19.65 50.85 Q18.5 49.9 18.5 48.4 L18.55 47.9 39.5 49.35 39.55 49.35 39.75 49.15 40.9 49.15 40.5 48.0 Q40.7 47.9 40.85 47.75 L41.35 47.1 41.5 46.6 41.65 46.1 39.25 45.75 39.5 47.55 38.6 48.25 Q27.7 48.65 19.75 46.1 L19.25 44.65 20.0 43.5 20.65 43.4 20.5 41.6 16.75 41.5 17.05 42.8 17.75 43.25 17.45 44.65 17.15 45.25 16.65 45.85 -1.5 43.45 -0.65 39.4 0.5 39.25 0.5 38.25 -0.5 37.6 -2.75 36.3 -4.05 35.85 -2.8 39.1 -3.7 41.05 -4.3 41.8 -5.05 42.4 Q-9.15 41.0 -13.1 39.1 -21.4 35.15 -20.9 26.5 L-20.2 26.45 -20.15 26.25 -21.05 24.65 -22.05 24.6 -23.5 27.6 -27.0 27.9 -30.9 27.1 Q-34.15 26.6 -36.65 19.8 L-37.3 15.35 -38.05 15.6 -39.85 18.75 Q-43.25 20.15 -44.75 17.7 L-45.8 17.55 -46.1 16.55 -48.6 8.05 -48.95 7.0 -49.6 4.85 M-43.75 20.8 L-41.2 22.35 -40.3 23.05 -39.75 23.65 -39.65 24.25 Q-39.9 26.15 -39.25 27.35 L-37.85 23.25 -26.7 30.45 Q-25.65 34.05 -27.4 36.5 L-28.6 36.8 -28.2 37.4 -27.65 38.05 Q-26.7 39.05 -25.55 38.75 L-25.55 37.4 Q-25.45 35.1 -24.0 33.35 L-23.05 33.25 Q-20.15 35.95 -15.2 38.5 -10.3 41.0 -6.25 44.0 -3.85 45.35 -4.0 45.75 L-4.35 46.3 Q-5.2 47.25 -5.35 48.2 L-2.8 48.85 -2.55 45.25 Q9.55 44.1 17.2 48.1 L17.35 48.75 Q17.45 50.2 16.9 51.65 L5.85 50.95 -2.3 49.5 Q-11.95 47.15 -21.1 43.1 -28.55 39.85 -34.5 34.25 L-42.75 28.3 -43.1 27.55 -44.3 22.95 -44.7 21.55 -44.85 20.95 -45.2 19.55 -43.75 20.8" fill="#c5c351" fill-rule="evenodd" stroke="none"/>
    <path d="M-44.75 17.7 Q-43.25 20.15 -39.85 18.75 L-38.05 15.6 -37.3 15.35 -36.65 19.8 Q-34.15 26.6 -30.9 27.1 L-27.0 27.9 -23.5 27.6 -22.05 24.6 -21.05 24.65 -20.15 26.25 -20.2 26.45 -20.9 26.5 Q-21.4 35.15 -13.1 39.1 -9.15 41.0 -5.05 42.4 L-4.3 41.8 -3.7 41.05 -2.8 39.1 -4.05 35.85 -2.75 36.3 -0.5 37.6 0.5 38.25 0.5 39.25 -0.65 39.4 -1.5 43.45 16.65 45.85 17.15 45.25 17.45 44.65 17.75 43.25 17.05 42.8 16.75 41.5 20.5 41.6 20.65 43.4 20.0 43.5 19.25 44.65 19.75 46.1 Q27.7 48.65 38.6 48.25 L39.5 47.55 39.25 45.75 41.65 46.1 41.5 46.6 41.35 47.1 40.85 47.75 Q40.7 47.9 40.5 48.0 L40.9 49.15 39.75 49.15 39.5 49.35 18.55 47.9 18.5 48.4 Q18.5 49.9 19.65 50.85 L19.65 51.55 16.9 51.65 Q17.45 50.2 17.35 48.75 L17.2 48.1 Q9.55 44.1 -2.55 45.25 L-2.8 48.85 -5.35 48.2 Q-5.2 47.25 -4.35 46.3 L-4.0 45.75 Q-3.85 45.35 -6.25 44.0 -10.3 41.0 -15.2 38.5 -20.15 35.95 -23.05 33.25 L-24.0 33.35 Q-25.45 35.1 -25.55 37.4 L-25.55 38.75 Q-26.7 39.05 -27.65 38.05 L-28.2 37.4 -28.6 36.8 -27.4 36.5 Q-25.65 34.05 -26.7 30.45 L-37.85 23.25 -39.25 27.35 Q-39.9 26.15 -39.65 24.25 L-39.75 23.65 -40.3 23.05 -41.2 22.35 -43.75 20.8 -45.15 19.55 -45.8 17.55 -44.75 17.7" fill="#a8a537" fill-rule="evenodd" stroke="none"/>
    <path d="M-60.25 -46.75 L-75.25 -46.75 Q-75.3 -47.1 -76.65 -47.3 L-76.65 -48.25 -73.55 -48.4 -69.75 -48.5 -60.0 -48.5 -60.0 -47.6 -59.55 -46.85 -59.25 -45.8 -59.25 -45.75 Q-59.95 -46.05 -60.1 -46.65 L-60.15 -46.8 -60.25 -46.75 M-44.05 -27.4 L-40.0 -27.5 -33.0 -27.65 -27.75 -27.9 -27.75 -28.0 -24.9 -28.0 -24.9 -26.25 -25.0 -26.05 -26.0 -26.05 -26.0 -26.8 -40.0 -26.4 -44.05 -26.65 -44.05 -27.4 M-17.05 -4.05 L-1.75 -4.0 -1.25 -3.8 Q-1.0 -3.25 -0.75 -3.05 L-0.75 -1.75 -2.4 -1.8 Q-2.4 -2.25 -2.65 -2.5 L-4.4 -2.75 -17.05 -2.8 -18.75 -3.0 -18.9 -3.75 -17.05 -4.05 M60.35 32.6 L61.85 32.65 Q62.15 32.95 62.15 33.95 L62.0 34.5 Q59.9 35.1 59.35 35.8 L57.5 37.5 56.5 37.4 Q56.7 35.9 58.25 34.55 L60.35 32.6 M44.4 29.5 L44.4 29.65 43.5 29.6 43.0 28.75 42.85 28.85 Q41.05 29.25 39.8 29.8 L37.6 30.75 35.7 31.7 Q34.2 32.5 33.5 32.5 L32.0 32.5 32.0 31.9 Q32.0 31.55 34.05 30.5 L36.35 29.35 Q39.7 27.4 43.25 27.4 44.65 28.4 44.4 29.5 M20.75 19.15 L19.75 19.15 19.1 18.5 Q10.5 18.5 10.4 18.65 L5.6 18.6 5.35 18.25 5.35 17.1 9.25 17.0 20.0 17.0 20.75 18.0 20.75 19.15" fill="#ec8494" fill-rule="evenodd" stroke="none"/>
    <path d="M-44.35 6.1 L-40.0 8.35 -36.5 7.75 Q-36.15 6.75 -35.95 5.75 -35.45 3.5 -36.25 1.45 -41.45 -0.3 -45.5 -4.25 L-49.25 -9.0 -55.25 -11.25 -55.25 -13.15 -49.65 -12.65 -46.55 -16.65 -46.1 -17.6 Q-45.85 -18.85 -46.0 -20.0 L-45.4 -20.0 -42.75 -18.0 Q-44.85 -18.4 -46.05 -15.0 L-46.15 -10.55 Q-46.1 -9.2 -45.65 -7.9 -45.25 -6.75 -44.45 -5.7 L-43.0 -4.25 Q-41.35 -3.15 -39.5 -2.4 L-35.15 -1.2 -32.7 -1.5 -30.5 -5.75 -28.35 -4.7 Q-28.95 -3.85 -30.1 -3.35 -31.3 -2.85 -30.4 2.1 -27.35 6.05 -24.2 8.65 -22.3 10.2 -20.1 10.9 L-17.6 11.15 -14.75 10.9 -14.4 10.5 -13.8 10.55 -12.0 8.75 -13.25 11.85 Q-14.1 13.65 -11.5 18.85 L-8.15 21.55 -6.25 22.65 Q-4.15 23.6 -1.95 24.35 L1.2 24.65 Q3.1 24.2 4.6 22.85 L5.85 22.9 Q4.2 24.75 6.15 29.3 L8.4 31.4 Q9.75 32.85 12.55 33.55 L17.4 34.2 21.45 33.5 22.0 32.75 23.0 33.7 25.3 35.45 Q27.0 36.8 29.9 37.85 32.8 38.9 35.05 39.0 L41.25 38.55 41.6 37.85 42.5 37.9 42.75 38.5 44.65 39.15 46.45 39.6 52.5 40.55 56.05 40.2 Q58.15 39.8 60.25 38.75 L73.0 38.85 72.65 40.25 69.8 40.35 67.3 40.3 67.3 40.25 64.05 40.05 63.6 40.05 63.5 40.1 62.5 40.0 62.25 41.0 62.8 42.0 Q66.05 42.5 69.3 41.85 70.85 41.7 72.0 40.75 L74.35 40.75 74.4 41.45 Q67.25 44.2 63.5 44.35 59.95 46.65 48.95 46.45 L38.6 45.6 Q31.8 45.75 25.3 44.1 L21.95 42.65 Q18.95 41.05 15.7 41.2 L5.45 39.45 Q2.4 38.75 -0.3 37.25 L-4.3 35.05 -11.8 31.05 -15.45 28.9 -18.85 26.5 Q-21.9 24.15 -25.1 22.05 L-31.35 18.1 -34.7 15.9 -36.25 14.55 Q-37.85 13.05 -39.7 12.05 L-48.1 7.0 -49.7 6.1 -50.2 2.95 -49.1 3.4 Q-47.35 4.1 -45.75 5.2 L-45.35 5.5 -44.35 6.1 M-12.15 27.7 L-8.7 29.65 Q-4.8 31.65 -0.55 32.0 L0.3 30.35 Q0.8 29.05 0.0 28.15 L-4.55 25.5 -10.4 22.0 Q-12.5 20.75 -14.7 19.8 L-16.45 19.25 -17.0 20.2 Q-18.1 22.6 -16.75 24.4 L-14.75 25.95 -13.45 26.85 -12.4 27.55 -12.15 27.7 M-18.3 17.45 L-19.0 14.35 -22.75 11.55 Q-25.05 10.75 -27.0 9.15 -29.8 6.8 -30.4 5.5 -36.25 5.55 -35.0 12.3 -32.45 15.05 -29.0 16.8 -26.5 18.1 -23.85 19.2 L-21.9 19.7 -19.35 19.2 -18.3 17.45 M43.4 41.2 L42.65 41.85 44.15 43.95 53.35 44.65 57.75 44.0 59.55 43.2 60.5 42.35 60.4 41.4 59.0 41.25 58.0 41.5 43.4 41.2 M1.9 31.4 Q0.65 32.75 0.85 34.65 3.1 36.2 5.9 37.0 L17.5 39.15 20.4 36.7 20.95 35.8 Q16.6 36.0 12.45 34.85 9.4 33.95 6.5 32.5 4.55 31.55 2.6 30.75 L1.9 31.4 M33.85 43.45 L34.25 43.45 40.1 43.0 41.0 41.55 40.1 40.15 35.0 39.75 28.15 38.55 Q25.6 38.1 23.25 36.85 L22.6 37.0 22.1 38.1 23.05 40.65 25.35 41.45 26.8 42.5 29.3 43.0 Q30.3 43.3 30.3 43.5 L33.8 43.5 33.85 43.45" fill="#003e10" fill-rule="evenodd" stroke="none"/>
    <path d="M-59.0 -26.5 Q-55.4 -20.05 -51.0 -14.75 L-51.0 -14.35 Q-57.25 -13.75 -58.05 -19.75 -58.4 -22.45 -59.05 -25.15 L-59.0 -26.5 M-44.35 6.1 L-45.35 5.5 -49.05 2.25 -49.25 -2.75 -47.75 -2.6 -47.45 -1.85 Q-45.7 1.4 -42.55 3.4 L-41.75 4.0 -41.75 6.25 -44.35 6.1 M63.5 40.1 L63.6 40.05 64.05 40.05 67.3 40.25 67.3 40.3 67.3 41.75 64.05 41.8 63.25 41.7 63.15 40.85 Q63.15 40.2 63.5 40.1 M-44.0 -17.0 L-40.75 -16.85 -40.65 -16.05 Q-44.85 -9.5 -39.0 -3.5 -46.6 -6.4 -44.6 -15.15 L-44.0 -17.0 M-26.35 -3.0 Q-28.95 2.15 -23.55 6.3 L-22.6 7.3 -23.85 7.25 Q-29.85 3.9 -29.3 -1.95 L-29.0 -2.85 -26.35 -3.0 M-14.75 25.95 Q-16.6 24.45 -16.25 22.1 L-16.1 21.3 -14.85 21.5 Q-10.15 25.35 -4.25 27.8 L-4.25 30.05 -12.15 27.7 -12.4 27.55 -13.45 26.85 -14.75 25.95 M-4.25 22.3 L-4.25 22.75 Q-11.5 19.85 -11.65 12.8 -11.75 9.4 -8.0 10.05 -10.75 15.35 -6.5 19.75 L-4.25 22.3 M-22.75 18.25 Q-30.15 17.15 -32.15 14.2 -34.2 11.2 -32.6 10.3 L-28.35 13.2 Q-25.65 14.8 -23.1 15.3 L-22.75 18.25 M44.65 42.25 Q44.65 41.5 44.8 41.45 44.85 41.4 44.9 41.5 L52.05 41.55 52.2 41.9 52.3 42.85 52.3 43.7 52.15 44.05 47.15 43.75 44.8 43.25 44.65 43.05 44.65 42.25 M8.5 24.05 Q7.85 28.1 11.95 30.4 L13.25 31.6 Q6.95 32.25 6.5 25.15 L6.5 24.0 8.5 24.05 M13.8 37.0 L13.25 37.4 9.55 37.75 Q9.1 37.4 5.25 35.65 2.0 34.2 2.0 33.35 L2.05 32.05 7.65 34.0 13.55 36.25 13.8 37.0 M29.25 34.9 L36.55 36.65 36.55 38.55 Q32.8 38.45 29.6 36.8 L29.1 36.4 29.25 34.9 M33.85 43.45 L33.8 43.5 30.3 43.5 Q30.3 43.3 29.3 43.0 L26.8 42.5 25.35 41.45 24.8 41.0 Q23.75 40.15 23.75 39.3 L23.8 38.3 27.9 39.85 32.55 41.0 33.8 41.25 33.9 42.3 33.85 43.45" fill="#74d87e" fill-rule="evenodd" stroke="none"/>
  </g>
  <defs>
    <linearGradient gradientTransform="matrix(0.0037, -0.0059, 0.0161, 0.0101, -63.8, -44.75)" gradientUnits="userSpaceOnUse" id="gradient0" spreadMethod="pad" x1="-819.2" x2="819.2">
      <stop offset="0.0" stop-color="#61481d"/>
      <stop offset="0.8" stop-color="#9c2917"/>
      <stop offset="0.9215686274509803" stop-color="#ed657d"/>
    </linearGradient>
    <linearGradient gradientTransform="matrix(0.0056, -0.0086, 0.0152, 0.0099, -32.25, -22.3)" gradientUnits="userSpaceOnUse" id="gradient1" spreadMethod="pad" x1="-819.2" x2="819.2">
      <stop offset="0.0" stop-color="#61481d"/>
      <stop offset="0.8" stop-color="#9c2917"/>
      <stop offset="0.9215686274509803" stop-color="#ed657d"/>
    </linearGradient>
    <linearGradient gradientTransform="matrix(0.0058, -0.0068, 0.0133, 0.0114, -6.1, 1.2)" gradientUnits="userSpaceOnUse" id="gradient2" spreadMethod="pad" x1="-819.2" x2="819.2">
      <stop offset="0.0" stop-color="#61481d"/>
      <stop offset="0.8" stop-color="#9c2917"/>
      <stop offset="0.9215686274509803" stop-color="#ed657d"/>
    </linearGradient>
    <linearGradient gradientTransform="matrix(0.0034, -0.0065, 0.013, 0.0069, 15.65, 20.75)" gradientUnits="userSpaceOnUse" id="gradient3" spreadMethod="pad" x1="-819.2" x2="819.2">
      <stop offset="0.0" stop-color="#61481d"/>
      <stop offset="0.8" stop-color="#9c2917"/>
      <stop offset="0.9215686274509803" stop-color="#ed657d"/>
    </linearGradient>
    <linearGradient gradientTransform="matrix(0.0, -0.0045, 0.0058, 0.0, 59.85, 35.65)" gradientUnits="userSpaceOnUse" id="gradient4" spreadMethod="pad" x1="-819.2" x2="819.2">
      <stop offset="0.0" stop-color="#61481d"/>
      <stop offset="0.8" stop-color="#9c2917"/>
      <stop offset="0.9215686274509803" stop-color="#ed657d"/>
    </linearGradient>
    <linearGradient gradientTransform="matrix(8.0E-4, -0.0063, 0.0116, 0.0015, 40.15, 31.65)" gradientUnits="userSpaceOnUse" id="gradient5" spreadMethod="pad" x1="-819.2" x2="819.2">
      <stop offset="0.0" stop-color="#61481d"/>
      <stop offset="0.8" stop-color="#9c2917"/>
      <stop offset="0.9215686274509803" stop-color="#ed657d"/>
    </linearGradient>
  </defs>
</svg>
