<?xml version="1.0" encoding="UTF-8" standalone="no"?>
<svg xmlns:xlink="http://www.w3.org/1999/xlink" height="20.0px" width="42.35px" xmlns="http://www.w3.org/2000/svg">
  <g transform="matrix(1.0, 0.0, 0.0, 1.0, 136.45, 83.85)">
    <path d="M-106.5 -83.55 L-106.45 -83.85 -94.1 -83.85 -94.55 -80.5 Q-95.25 -76.55 -97.35 -72.9 -100.0 -68.3 -104.2 -65.0 L-105.0 -64.55 -105.8 -64.15 Q-113.85 -63.5 -121.85 -64.25 -124.7 -64.6 -127.15 -65.75 -129.5 -66.9 -130.95 -68.15 -132.45 -69.4 -133.7 -71.15 -134.9 -72.95 -135.8 -76.25 -136.75 -79.55 -136.35 -83.85 L-133.65 -83.85 -133.65 -83.55 Q-133.75 -80.45 -133.4 -78.5 L-132.75 -75.9 Q-132.35 -75.2 -131.9 -73.9 -131.3 -72.5 -130.1 -70.9 -128.85 -69.25 -128.5 -69.3 L-127.4 -68.5 Q-126.45 -67.7 -124.5 -67.3 L-118.3 -67.0 Q-116.35 -67.15 -114.5 -67.9 -111.85 -69.05 -110.5 -71.6 -109.15 -74.1 -108.1 -76.7 -106.85 -80.1 -106.5 -83.55 M-99.05 -81.6 L-99.05 -81.9 -103.15 -81.8 -103.55 -81.7 -103.55 -81.8 -104.45 -81.7 Q-105.65 -78.95 -107.2 -73.25 -109.0 -68.55 -112.55 -66.65 L-112.75 -66.4 -112.75 -65.45 Q-111.75 -65.4 -110.8 -65.95 -106.5 -65.95 -104.6 -67.9 -102.5 -70.1 -100.65 -72.8 -98.8 -75.5 -98.1 -78.05 L-97.3 -81.65 -99.05 -81.6" fill="#000000" fill-rule="evenodd" stroke="none"/>
    <path d="M-110.8 -65.95 Q-111.75 -65.4 -112.75 -65.45 L-112.75 -66.4 -112.55 -66.65 Q-109.0 -68.55 -107.2 -73.25 -105.65 -78.95 -104.45 -81.7 L-103.55 -81.8 -103.55 -81.7 -103.15 -81.8 -99.05 -81.9 -99.05 -81.6 -99.05 -80.75 -103.55 -80.8 Q-103.7 -79.65 -104.7 -76.6 L-106.1 -72.65 Q-106.65 -70.45 -108.35 -68.2 -109.55 -66.6 -110.8 -65.95" fill="#ff797c" fill-rule="evenodd" stroke="none"/>
    <path d="M-110.8 -65.95 Q-109.55 -66.6 -108.35 -68.2 -106.65 -70.45 -106.1 -72.65 L-104.7 -76.6 Q-103.7 -79.65 -103.55 -80.8 L-99.05 -80.75 -99.05 -81.6 -97.3 -81.65 -98.1 -78.05 Q-98.8 -75.5 -100.65 -72.8 -102.5 -70.1 -104.6 -67.9 -106.5 -65.95 -110.8 -65.95" fill="#c2042c" fill-rule="evenodd" stroke="none"/>
    <path d="M-106.5 -83.55 Q-106.85 -80.1 -108.1 -76.7 -109.15 -74.1 -110.5 -71.6 -111.85 -69.05 -114.5 -67.9 -116.35 -67.15 -118.3 -67.0 L-124.5 -67.3 Q-126.45 -67.7 -127.4 -68.5 L-128.5 -69.3 Q-128.85 -69.25 -130.1 -70.9 -131.3 -72.5 -131.9 -73.9 -132.35 -75.2 -132.75 -75.9 L-133.4 -78.5 Q-133.75 -80.45 -133.65 -83.55 L-131.55 -83.55 -122.65 -83.55 -114.15 -83.55 -106.5 -83.55" fill="#570d03" fill-rule="evenodd" stroke="none"/>
  </g>
</svg>
