<?xml version="1.0" encoding="UTF-8" standalone="no"?>
<svg xmlns:xlink="http://www.w3.org/1999/xlink" height="114.35px" width="96.95px" xmlns="http://www.w3.org/2000/svg">
  <g transform="matrix(1.0, 0.0, 0.0, 1.0, 55.0, 81.95)">
    <path d="M-35.15 -72.05 L-34.75 -71.25 Q-27.55 -59.5 -21.4 -47.15 -15.2 -34.6 -11.4 -23.15 L-9.85 -18.3 Q-7.0 -9.05 -4.65 1.0 L-4.3 2.7 -3.55 6.25 -2.9 12.15 -5.45 12.15 -34.25 8.75 -34.35 8.75 -34.0 -5.65 Q-34.35 -12.0 -35.55 -17.75 -36.75 -23.55 -39.6 -34.0 -42.5 -44.5 -51.0 -59.35 -47.35 -63.2 -44.25 -65.4 L-35.15 -72.05 M16.65 -51.1 L17.5 -49.8 19.1 -47.3 Q25.95 -36.5 31.4 -22.75 L31.8 -21.6 33.85 -15.6 37.85 -3.55 Q37.25 -3.55 26.1 1.45 17.85 5.1 7.3 8.85 L4.25 9.95 -1.4 11.85 -1.8 9.0 -2.2 6.35 -4.7 -4.55 Q-6.4 -11.5 -8.5 -18.3 L-12.15 -28.95 Q-17.15 -42.6 -24.2 -55.5 -28.6 -63.5 -33.5 -71.1 L-34.45 -72.4 -6.7 -78.3 Q-6.65 -78.0 -3.2 -74.85 0.85 -71.2 6.35 -64.95 10.85 -59.85 16.65 -51.1" fill="#c5c351" fill-rule="evenodd" stroke="none"/>
    <path d="M-31.75 1.65 L-31.35 3.35 -32.45 3.3 Q-35.95 -1.95 -34.85 -10.15 -34.35 -14.35 -33.8 -15.55 L-34.8 -19.9 -35.0 -22.9 -36.15 -24.5 Q-37.6 -27.5 -38.6 -31.5 L-39.05 -34.7 Q-39.2 -37.0 -38.55 -39.2 -36.8 -37.4 -36.85 -34.8 L-36.85 -34.2 Q-37.05 -32.9 -36.8 -31.65 -36.0 -27.3 -33.5 -23.65 L-29.15 -23.7 -29.45 -22.05 -33.5 -21.65 -32.65 -16.55 -29.25 -14.6 Q-28.7 -14.8 -28.25 -15.1 -27.1 -15.75 -26.8 -17.1 L-25.2 -17.15 -24.45 -16.35 Q-22.25 -15.1 -20.2 -16.35 L-19.15 -17.95 -15.3 -17.1 -14.9 -17.4 -15.6 -19.3 -16.35 -20.45 Q-18.7 -22.8 -18.45 -25.95 L-19.3 -25.95 -19.35 -27.85 -18.3 -27.95 Q-18.05 -29.2 -18.35 -30.4 L-19.75 -35.6 -19.8 -35.7 Q-20.55 -38.35 -22.0 -40.75 -23.4 -42.95 -25.0 -44.4 -24.85 -48.75 -27.65 -52.35 -29.95 -55.45 -30.55 -59.15 -26.95 -56.25 -24.85 -51.45 L-24.4 -49.5 Q-23.95 -45.55 -20.9 -43.05 L-20.8 -42.85 -20.8 -42.35 -19.55 -39.25 -18.1 -36.4 -17.85 -35.7 -17.25 -33.65 Q-16.75 -31.35 -16.65 -28.95 -16.1 -28.95 -15.7 -29.55 L-15.6 -29.55 -15.6 -29.7 Q-15.3 -30.25 -15.1 -31.3 L-13.75 -31.25 Q-13.55 -28.0 -15.65 -26.0 L-15.65 -25.95 -16.5 -25.5 -15.6 -23.7 -15.25 -23.05 -13.4 -19.35 Q-12.35 -19.7 -12.2 -21.3 L-13.35 -23.85 Q-11.85 -23.05 -11.0 -21.8 -8.5 -18.25 -7.8 -13.95 -6.25 -4.9 -6.4 4.0 L-6.8 4.35 -8.1 3.9 -7.85 1.75 Q-7.65 -1.6 -9.05 -5.0 L-9.65 -4.2 -10.6 -4.2 -11.55 -3.45 -12.2 -3.25 -12.2 -2.6 -12.05 -0.15 -12.35 1.35 -12.7 3.0 -12.65 3.2 -13.9 4.75 -15.5 4.75 -15.5 4.1 Q-14.85 4.1 -13.85 2.2 -12.9 0.3 -13.8 -2.55 L-15.25 -1.35 -15.3 -1.5 -17.35 -1.4 -17.3 -1.15 -20.6 -0.9 -20.45 0.2 -20.4 0.25 -20.25 3.8 -21.45 3.45 -22.4 -0.8 -28.3 -1.65 -26.65 4.0 -26.65 4.1 -28.15 3.25 Q-29.95 1.55 -30.05 -0.8 L-30.05 -1.35 -30.05 -1.4 -30.0 -2.1 -30.6 -2.15 -30.8 -2.25 -31.85 -3.1 -32.7 -3.15 -33.25 -3.65 -33.5 -6.15 -32.65 -5.65 Q-31.4 -5.0 -30.95 -3.5 L-30.0 -4.1 -29.85 -6.35 -28.05 -6.3 -28.0 -4.65 -27.25 -3.45 -26.8 -3.15 Q-24.4 -1.75 -22.95 -3.85 L-23.6 -7.65 -21.7 -7.2 -20.35 -2.85 -20.3 -2.7 Q-16.45 -2.6 -14.3 -5.35 L-14.05 -7.25 Q-12.55 -11.4 -14.15 -15.35 L-17.25 -15.65 -19.95 -14.05 -25.65 -14.75 -26.8 -13.2 -31.1 -13.4 -32.2 -14.1 Q-33.6 -11.3 -33.75 -8.2 -33.95 -5.1 -33.6 -4.2 L-33.0 -2.35 -32.65 -0.4 Q-32.35 0.9 -31.75 1.65 M-12.55 -7.8 L-12.85 -5.95 -11.6 -6.1 -11.0 -6.85 Q-10.3 -7.55 -10.05 -8.4 -8.55 -13.45 -10.95 -18.45 L-12.7 -16.4 -12.4 -14.65 -12.3 -12.1 -12.4 -9.95 -12.55 -7.95 -12.55 -7.8" fill="#6e6c11" fill-rule="evenodd" stroke="none"/>
    <path d="M-31.75 1.65 Q-32.35 0.9 -32.65 -0.4 L-33.0 -2.35 -33.05 -3.1 -32.7 -3.15 -31.85 -3.1 -30.8 -2.25 -30.6 -2.15 Q-30.15 -1.8 -30.05 -1.4 L-30.05 -1.35 -30.05 -0.8 -31.4 -0.7 -31.0 0.4 -30.6 1.45 -30.6 1.95 -30.6 2.0 -31.3 2.05 -31.75 1.65 M-20.4 0.25 L-20.45 0.2 -20.6 -0.9 -17.3 -1.15 -17.35 -1.4 -15.3 -1.5 -15.25 -1.35 -15.1 -0.05 -16.55 0.2 -19.5 0.65 -19.4 2.9 Q-20.05 2.45 -20.1 1.6 -20.15 0.7 -20.4 0.25 M-12.65 3.2 L-12.7 3.0 -12.35 1.35 -12.05 -0.15 -12.2 -2.6 -12.1 -2.95 -11.55 -3.45 -10.6 -4.2 -9.65 -4.2 -9.5 -4.2 -9.35 -2.75 -9.5 -2.45 -11.05 -1.7 -10.75 0.95 Q-10.8 2.4 -11.35 3.55 L-12.5 3.6 -12.65 3.2 M-15.25 -23.05 L-15.6 -23.7 -15.95 -24.75 -16.0 -25.6 -15.65 -25.95 -15.65 -26.0 -15.05 -26.15 -14.35 -26.15 -14.45 -24.6 -14.05 -24.2 -13.65 -22.8 Q-13.25 -21.7 -13.2 -20.95 L-13.25 -20.75 -13.95 -20.75 -15.0 -22.7 -15.25 -23.05 M-15.6 -29.7 L-15.6 -29.55 -15.7 -29.55 -16.5 -29.55 Q-16.75 -31.75 -17.25 -33.65 L-17.85 -35.7 -18.1 -36.4 -19.55 -39.25 -20.8 -42.35 -20.8 -42.85 -20.75 -42.95 -19.95 -43.0 Q-18.75 -42.15 -18.1 -40.7 L-17.1 -37.75 -16.5 -35.8 Q-16.0 -33.8 -15.8 -31.9 L-15.6 -29.7 M-26.35 -0.95 L-23.95 -0.8 -23.8 -0.35 -23.65 0.65 -23.75 0.85 -26.0 0.7 -26.55 0.75 Q-26.05 1.65 -25.9 2.25 L-25.85 2.5 -26.55 2.5 Q-27.0 2.1 -27.5 0.65 L-28.0 -1.1 -26.35 -0.95 M-12.4 -14.65 L-12.55 -16.35 -11.4 -16.35 -11.0 -13.75 -10.7 -10.65 Q-10.75 -9.7 -11.55 -6.9 L-12.4 -6.85 -12.55 -7.5 -12.55 -7.8 -12.55 -7.95 -12.4 -9.95 -12.3 -12.1 -12.4 -14.65" fill="#e0dfa3" fill-rule="evenodd" stroke="none"/>
    <path d="M-37.0 -69.85 Q-32.7 -67.45 -30.0 -63.15 -27.55 -59.3 -25.8 -54.9 -24.2 -50.85 -23.65 -46.6 L-23.25 -42.7 -23.2 -41.0 -23.25 -40.25 -24.95 -38.6 Q-27.25 -36.35 -30.15 -34.95 -32.95 -33.6 -35.9 -33.4 L-35.95 -33.4 -37.6 -35.2 -40.65 -38.95 -42.3 -41.7 Q-43.6 -44.15 -44.5 -46.8 L-43.4 -44.7 Q-41.3 -40.75 -38.8 -36.95 -37.4 -34.8 -35.0 -34.3 L-33.35 -34.25 Q-30.25 -34.8 -27.9 -36.75 -25.55 -38.65 -24.0 -41.15 -29.85 -35.5 -35.45 -36.95 -42.9 -44.45 -45.2 -52.95 -47.5 -61.45 -47.05 -61.45 L-47.9 -61.55 Q-47.15 -54.25 -44.55 -47.4 L-46.2 -51.2 Q-47.55 -54.35 -48.45 -57.65 -49.05 -59.85 -48.6 -62.0 L-46.15 -63.9 -44.7 -65.0 -41.8 -67.45 -39.6 -68.8 -37.7 -69.7 -37.0 -69.85 M-18.35 -26.85 L-21.7 -25.25 Q-23.35 -24.5 -25.8 -25.3 L-25.9 -25.3 Q-27.7 -25.45 -28.45 -24.8 L-30.3 -22.8 Q-30.8 -22.3 -31.7 -22.8 -33.15 -24.65 -33.55 -27.2 L-33.9 -31.15 -34.9 -31.2 Q-34.65 -25.95 -32.8 -22.15 -31.15 -20.35 -30.35 -20.65 L-30.95 -20.25 -32.3 -20.4 Q-35.35 -23.75 -35.6 -28.35 L-35.85 -32.15 Q-31.85 -32.15 -28.35 -33.9 -27.0 -34.65 -26.05 -35.5 L-24.9 -36.55 -23.35 -37.8 Q-20.2 -35.4 -18.9 -31.75 L-18.0 -28.85 Q-17.4 -26.6 -18.7 -24.7 -19.65 -23.25 -21.4 -22.8 -20.75 -23.15 -20.15 -23.65 -19.45 -24.3 -19.0 -25.15 L-18.3 -26.65 -18.35 -26.85 M-22.9 -22.4 L-23.9 -22.15 -26.15 -22.5 -28.25 -23.45 -29.15 -21.7 -28.0 -23.95 Q-26.6 -24.1 -25.6 -23.15 L-24.3 -22.45 -22.9 -22.4 M-27.05 -21.45 L-25.5 -21.1 Q-23.35 -20.7 -21.15 -21.15 -18.85 -21.7 -17.5 -23.45 -16.2 -22.85 -15.25 -21.1 L-13.95 -18.3 -13.6 -17.5 Q-12.85 -15.65 -13.05 -12.15 -13.25 -8.65 -15.9 -7.4 L-16.55 -7.25 -16.35 -7.25 -17.55 -6.9 Q-19.45 -6.65 -21.2 -7.55 -22.45 -8.25 -23.25 -9.5 -23.5 -9.95 -24.0 -10.0 L-25.3 -10.15 Q-25.95 -7.65 -27.85 -5.95 L-28.3 -5.7 -29.5 -5.6 -30.65 -6.75 Q-31.2 -7.6 -31.6 -9.25 L-32.35 -12.8 Q-32.7 -14.75 -32.5 -15.9 L-32.25 -17.65 -32.1 -18.3 -31.85 -18.85 -29.7 -18.85 Q-28.0 -19.35 -27.25 -21.15 L-27.05 -21.45 M-23.8 -11.15 L-23.85 -11.05 Q-21.95 -10.7 -21.25 -9.5 -20.7 -8.55 -19.65 -7.95 L-17.1 -7.75 Q-15.6 -8.2 -14.7 -9.9 -17.85 -8.4 -19.2 -9.45 -21.4 -11.15 -23.8 -11.15 M-30.8 -18.3 L-30.75 -18.55 -31.4 -18.35 -31.4 -18.3 Q-32.05 -16.0 -31.95 -13.8 -32.1 -11.25 -31.0 -8.8 -30.75 -7.6 -29.4 -6.7 -27.55 -6.75 -27.15 -7.7 L-25.7 -11.05 -26.35 -10.6 Q-28.5 -8.25 -29.25 -9.55 -31.75 -12.55 -30.8 -18.3" fill="#c0e162" fill-rule="evenodd" stroke="none"/>
    <path d="M-30.8 -18.3 Q-31.75 -12.55 -29.25 -9.55 -28.5 -8.25 -26.35 -10.6 L-25.7 -11.05 -27.15 -7.7 Q-27.55 -6.75 -29.4 -6.7 -30.75 -7.6 -31.0 -8.8 -32.1 -11.25 -31.95 -13.8 -32.05 -16.0 -31.4 -18.3 L-31.4 -18.35 -30.75 -18.55 -30.8 -18.3 M-23.8 -11.15 Q-21.4 -11.15 -19.2 -9.45 -17.85 -8.4 -14.7 -9.9 -15.6 -8.2 -17.1 -7.75 L-19.65 -7.95 Q-20.7 -8.55 -21.25 -9.5 -21.95 -10.7 -23.85 -11.05 L-23.8 -11.15" fill="#6f9009" fill-rule="evenodd" stroke="none"/>
    <path d="M-37.0 -69.85 L-37.7 -69.7 -39.6 -68.8 -41.8 -67.45 -44.7 -65.0 -46.15 -63.9 -48.6 -62.0 Q-49.05 -59.85 -48.45 -57.65 -47.55 -54.35 -46.2 -51.2 L-44.55 -47.4 Q-47.15 -54.25 -47.9 -61.55 L-47.05 -61.45 Q-47.5 -61.45 -45.2 -52.95 -42.9 -44.45 -35.45 -36.95 -29.85 -35.5 -24.0 -41.15 -25.55 -38.65 -27.9 -36.75 -30.25 -34.8 -33.35 -34.25 L-35.0 -34.3 Q-37.4 -34.8 -38.8 -36.95 -41.3 -40.75 -43.4 -44.7 L-44.5 -46.8 Q-43.6 -44.15 -42.3 -41.7 L-40.65 -38.95 -37.6 -35.2 -35.95 -33.4 -35.9 -33.4 Q-32.95 -33.6 -30.15 -34.95 -27.25 -36.35 -24.95 -38.6 L-23.25 -40.25 -23.2 -41.0 -23.25 -42.7 -23.65 -46.6 Q-24.2 -50.85 -25.8 -54.9 -27.55 -59.3 -30.0 -63.15 -32.7 -67.45 -37.0 -69.85 M-40.35 -69.75 L-39.3 -70.5 Q-38.85 -70.85 -38.75 -71.5 L-37.7 -71.2 Q-33.5 -69.45 -30.85 -65.75 L-26.8 -59.55 Q-24.35 -55.7 -23.45 -51.1 -22.15 -46.45 -22.1 -41.5 L-22.2 -40.0 -22.5 -39.0 Q-20.2 -37.85 -19.05 -35.55 L-17.7 -32.85 Q-15.8 -28.85 -16.3 -27.05 -16.85 -25.25 -15.1 -23.85 -13.5 -22.6 -12.15 -18.3 L-12.0 -17.7 Q-10.65 -12.9 -11.75 -9.25 L-11.7 -9.2 -12.25 -8.25 -12.95 -6.65 Q-13.7 -5.75 -14.95 -5.5 L-19.7 -5.95 Q-22.05 -6.55 -24.3 -7.55 L-24.8 -6.6 -25.6 -5.55 Q-26.1 -5.0 -26.75 -4.75 L-30.2 -4.3 -30.25 -4.4 -30.3 -3.85 -30.65 -4.15 -30.9 -4.55 -31.25 -4.95 -31.25 -5.05 Q-32.65 -6.85 -33.35 -11.3 -34.1 -15.75 -34.05 -16.55 L-33.55 -18.3 -33.25 -19.1 Q-34.6 -20.05 -35.2 -21.7 -37.05 -26.7 -36.75 -32.2 L-37.2 -32.2 -39.8 -35.25 -42.55 -39.05 Q-44.7 -42.5 -45.95 -46.35 L-46.65 -48.45 -48.2 -52.45 Q-49.6 -55.8 -49.75 -59.35 L-49.65 -62.05 -49.2 -63.2 -47.3 -64.9 Q-46.45 -65.5 -45.5 -66.25 L-42.75 -68.25 -40.35 -69.75 M-27.05 -21.45 L-27.25 -21.15 Q-28.0 -19.35 -29.7 -18.85 L-31.85 -18.85 -32.1 -18.3 -32.25 -17.65 -32.5 -15.9 Q-32.7 -14.75 -32.35 -12.8 L-31.6 -9.25 Q-31.2 -7.6 -30.65 -6.75 L-29.5 -5.6 -28.3 -5.7 -27.85 -5.95 Q-25.95 -7.65 -25.3 -10.15 L-24.0 -10.0 Q-23.5 -9.95 -23.25 -9.5 -22.45 -8.25 -21.2 -7.55 -19.45 -6.65 -17.55 -6.9 L-16.35 -7.25 -16.55 -7.25 -15.9 -7.4 Q-13.25 -8.65 -13.05 -12.15 -12.85 -15.65 -13.6 -17.5 L-13.95 -18.3 -15.25 -21.1 Q-16.2 -22.85 -17.5 -23.45 -18.85 -21.7 -21.15 -21.15 -23.35 -20.7 -25.5 -21.1 L-27.05 -21.45 M-22.9 -22.4 L-24.3 -22.45 -25.6 -23.15 Q-26.6 -24.1 -28.0 -23.95 L-29.15 -21.7 -28.25 -23.45 -26.15 -22.5 -23.9 -22.15 -22.9 -22.4 M-18.35 -26.85 L-18.3 -26.65 -19.0 -25.15 Q-19.45 -24.3 -20.15 -23.65 -20.75 -23.15 -21.4 -22.8 -19.65 -23.25 -18.7 -24.7 -17.4 -26.6 -18.0 -28.85 L-18.9 -31.75 Q-20.2 -35.4 -23.35 -37.8 L-24.9 -36.55 -26.05 -35.5 Q-27.0 -34.65 -28.35 -33.9 -31.85 -32.15 -35.85 -32.15 L-35.6 -28.35 Q-35.35 -23.75 -32.3 -20.4 L-30.95 -20.25 -30.35 -20.65 Q-31.15 -20.35 -32.8 -22.15 -34.65 -25.95 -34.9 -31.2 L-33.9 -31.15 -33.55 -27.2 Q-33.15 -24.65 -31.7 -22.8 -30.8 -22.3 -30.3 -22.8 L-28.45 -24.8 Q-27.7 -25.45 -25.9 -25.3 L-25.8 -25.3 Q-23.35 -24.5 -21.7 -25.25 L-18.35 -26.85" fill="#6e6c11" fill-rule="evenodd" stroke="none"/>
    <path d="M-15.75 -53.45 L-17.9 -52.15 -17.45 -55.55 Q-13.8 -54.05 -12.15 -57.4 -11.55 -58.65 -12.0 -60.05 L-12.7 -62.25 -14.4 -62.7 -16.9 -61.6 -15.5 -64.05 Q-14.05 -67.9 -16.4 -71.35 L-14.55 -73.0 -14.1 -66.25 -13.2 -65.65 Q-11.05 -67.65 -10.4 -70.3 -9.85 -72.35 -10.45 -74.25 L-9.7 -74.3 -8.55 -72.1 -7.3 -74.25 -5.55 -74.35 -5.15 -70.4 Q-4.95 -69.2 -2.1 -66.6 L0.9 -67.6 1.3 -66.5 -0.65 -64.6 -3.0 -63.1 -3.85 -61.15 -3.9 -59.05 -3.2 -55.6 -2.4 -53.25 Q1.8 -52.4 4.4 -59.65 L5.65 -59.55 Q4.8 -56.65 6.25 -55.45 5.55 -55.3 5.05 -54.95 L4.25 -54.95 3.9 -53.65 Q2.55 -50.95 4.85 -44.25 L6.45 -43.3 Q9.1 -42.85 10.3 -47.45 L12.3 -44.95 10.35 -41.95 10.25 -41.8 10.25 -41.75 9.1 -40.2 Q9.65 -32.6 11.9 -32.4 14.0 -33.2 15.7 -34.55 L17.6 -36.15 18.8 -36.25 18.95 -34.8 Q17.0 -32.2 16.45 -29.0 L16.25 -27.85 Q16.15 -26.4 16.4 -25.0 L17.0 -22.25 22.4 -23.55 22.5 -22.4 Q17.15 -19.15 16.75 -18.25 12.4 -20.6 6.3 -14.85 6.75 -19.45 1.9 -17.5 -1.55 -17.15 -2.5 -14.0 L-3.35 -19.9 Q-0.85 -18.65 1.7 -19.55 2.6 -19.8 3.35 -20.35 4.8 -21.4 5.15 -23.35 L5.65 -25.9 Q4.8 -26.95 3.45 -26.6 L0.25 -26.35 -0.15 -25.75 -0.2 -25.75 -0.65 -25.45 -1.0 -24.5 -1.2 -24.3 -1.25 -23.85 -1.55 -22.8 -2.65 -22.7 -2.0 -23.3 -1.7 -25.95 -2.05 -26.45 -6.25 -25.05 -6.2 -26.1 -5.15 -26.75 Q-3.35 -27.9 -1.6 -29.15 -1.05 -29.6 -0.8 -30.25 -0.25 -31.8 -0.3 -33.35 L-0.75 -36.6 -1.45 -36.95 -3.95 -37.5 -5.45 -34.2 -6.45 -36.7 Q-9.55 -36.75 -10.75 -33.65 L-11.85 -35.15 -13.85 -36.9 -12.5 -37.05 -9.25 -36.95 -6.5 -39.0 Q-6.0 -40.3 -5.8 -41.65 -5.25 -45.3 -7.15 -48.4 L-14.65 -43.3 -15.25 -43.35 -12.85 -46.95 -12.55 -53.35 Q-13.3 -54.75 -15.65 -53.55 L-15.75 -53.45 M4.4 -39.05 L3.95 -39.05 3.5 -38.35 3.2 -38.15 Q1.45 -33.95 1.5 -29.35 L1.9 -29.35 2.0 -29.35 7.05 -29.35 8.8 -33.6 8.65 -37.2 Q8.65 -40.45 6.05 -40.4 L4.4 -39.05 M-4.65 -43.85 L-4.6 -41.0 -2.45 -38.95 2.1 -39.65 Q3.05 -41.15 3.15 -42.95 L3.15 -45.2 Q3.15 -47.6 1.95 -49.55 0.85 -51.1 -0.95 -51.75 L-2.7 -50.9 -3.05 -50.85 Q-4.75 -50.25 -5.0 -48.5 L-5.0 -48.2 -5.15 -47.95 -4.9 -46.25 -4.8 -45.2 -4.65 -43.85 M8.3 -19.4 Q10.45 -19.35 12.45 -20.15 L13.35 -20.6 Q14.65 -24.15 14.75 -27.8 L14.8 -28.85 14.8 -29.85 13.4 -30.35 10.85 -28.75 7.95 -25.75 Q6.9 -23.4 6.75 -20.7 6.7 -20.1 6.8 -19.5 L7.0 -19.5 6.95 -19.2 8.3 -19.4 M-34.8 -66.1 L-35.9 -64.9 -38.75 -63.25 Q-41.6 -61.7 -44.05 -59.6 L-47.0 -57.35 -48.15 -57.4 -46.85 -59.1 -43.5 -62.0 Q-39.6 -65.25 -34.9 -66.95 L-34.45 -66.95 Q-34.55 -66.5 -34.8 -66.1 M-31.65 -61.5 L-31.0 -61.4 -31.05 -60.95 Q-32.15 -60.0 -33.35 -59.3 L-41.7 -54.75 -46.0 -52.6 -45.9 -53.25 -44.9 -54.15 Q-42.65 -55.85 -40.0 -57.05 L-31.65 -61.5 M-28.5 -56.15 L-31.5 -53.55 -43.1 -48.2 -43.95 -48.65 -29.65 -56.25 -28.5 -56.15 M-25.75 -52.4 L-25.8 -51.45 Q-27.25 -49.75 -29.1 -48.7 L-33.75 -46.3 Q-36.2 -44.95 -39.0 -44.45 L-41.75 -44.0 -41.65 -44.6 Q-35.85 -46.45 -30.7 -49.85 L-26.65 -52.5 -25.75 -52.4 M-7.75 -69.2 L-11.6 -64.7 -10.3 -61.9 -7.65 -61.9 -4.0 -66.45 -6.05 -69.45 -7.75 -69.2 M-9.85 -57.5 L-10.4 -57.1 -11.3 -54.55 -10.5 -50.1 Q-9.4 -48.15 -6.05 -50.9 L-5.1 -53.9 -4.7 -55.5 Q-4.55 -56.55 -5.15 -58.3 L-6.75 -59.85 -8.3 -58.7 -8.6 -58.7 -9.85 -57.5 M-28.75 -38.35 L-32.75 -37.25 -37.25 -36.3 -37.15 -37.0 Q-32.7 -37.95 -28.6 -40.1 L-26.95 -41.15 -25.4 -42.5 -24.5 -42.4 -24.6 -41.75 Q-24.75 -41.15 -25.15 -40.65 L-25.7 -40.05 Q-27.05 -38.9 -28.75 -38.35 M-26.3 -44.8 Q-29.8 -42.2 -34.25 -40.8 -35.95 -40.15 -37.7 -39.9 L-40.1 -39.5 -38.6 -40.3 -32.2 -43.15 Q-28.6 -44.55 -25.9 -47.25 L-25.0 -47.15 Q-25.2 -45.7 -26.3 -44.8 M-34.75 -25.85 Q-30.55 -26.55 -26.7 -28.1 -23.8 -29.2 -21.5 -30.75 L-20.5 -30.65 -20.35 -29.75 -20.5 -29.35 -21.6 -28.6 Q-25.5 -26.6 -29.9 -25.95 L-34.75 -25.1 -34.75 -25.85 M-34.8 -29.65 L-35.65 -29.85 -22.0 -34.55 -22.5 -33.3 -32.35 -29.85 Q-33.5 -29.2 -34.8 -29.65 M-25.65 -18.15 L-32.25 -17.4 -32.65 -17.8 -32.65 -18.3 Q-27.4 -18.95 -22.25 -20.4 L-18.45 -21.3 -17.0 -21.4 -17.1 -20.45 Q-20.85 -18.95 -24.65 -18.3 L-25.65 -18.15 M-31.65 -14.5 L-32.1 -14.9 Q-26.6 -15.4 -21.1 -16.6 L-17.15 -17.5 -15.25 -17.35 -15.4 -16.15 Q-21.95 -14.5 -28.75 -14.4 L-31.0 -14.4 -31.65 -14.5 M-30.85 -10.35 L-30.85 -11.05 -29.15 -10.85 -19.1 -11.8 -16.75 -12.25 -15.5 -12.75 -14.5 -12.6 -14.5 -11.5 -17.75 -10.5 -27.4 -10.0 -30.4 -10.1 -30.85 -10.35" fill="#6e6c11" fill-rule="evenodd" stroke="none"/>
    <path d="M5.05 -54.95 L6.3 -55.1 6.7 -55.05 6.75 -54.65 Q6.8 -54.4 6.05 -53.6 5.3 -52.75 5.35 -51.55 L5.6 -48.25 7.05 -44.9 8.25 -45.3 8.1 -44.4 7.05 -44.05 Q5.35 -43.9 4.55 -46.6 L3.95 -50.8 3.75 -52.9 3.9 -53.65 4.25 -54.95 5.05 -54.95 M10.35 -41.95 L12.4 -43.95 13.2 -44.0 Q13.35 -42.6 12.4 -41.05 L11.4 -39.55 11.95 -36.65 11.95 -35.2 Q12.1 -34.5 13.15 -34.5 L13.2 -33.9 12.3 -33.6 11.25 -33.5 10.15 -39.45 Q10.0 -41.2 10.25 -41.75 L10.25 -41.8 10.35 -41.95 M-0.15 -25.75 L1.75 -26.25 3.5 -26.35 3.65 -25.8 3.6 -25.2 3.15 -24.85 1.15 -24.6 Q0.4 -23.55 -0.05 -22.05 L-0.9 -19.9 -1.9 -19.8 -2.0 -20.9 -1.55 -22.8 -1.25 -23.85 -1.0 -24.5 -0.65 -25.45 -0.2 -25.75 -0.15 -25.75 M-15.65 -53.55 L-13.6 -53.75 -13.6 -52.55 -14.5 -52.4 Q-16.75 -50.0 -16.6 -48.7 -15.6 -45.35 -15.55 -44.6 L-15.55 -44.5 -16.55 -44.4 -18.0 -48.7 Q-18.1 -49.95 -17.2 -51.55 -16.5 -52.95 -15.75 -53.45 L-15.65 -53.55 M20.6 -33.3 L18.7 -29.9 18.3 -29.2 Q17.75 -28.0 18.3 -26.75 L18.55 -24.3 18.65 -24.45 19.45 -24.55 19.35 -23.6 Q18.55 -23.55 18.55 -23.35 L18.65 -23.05 17.55 -23.05 Q17.1 -25.7 16.8 -28.55 L16.8 -29.05 Q16.7 -30.45 17.2 -31.05 L19.25 -34.3 20.5 -34.45 20.6 -33.3 M3.5 -38.35 L3.95 -39.05 4.4 -39.05 5.7 -39.15 4.95 -37.05 4.2 -34.95 3.4 -30.7 4.0 -30.7 Q4.05 -30.05 3.6 -29.7 L3.15 -29.45 2.0 -29.35 1.9 -29.35 1.75 -30.55 Q1.65 -31.45 2.25 -34.4 2.85 -37.1 3.5 -38.35 M-2.7 -50.9 L-1.6 -50.95 -1.4 -50.85 -1.35 -50.45 Q-1.25 -49.7 -2.2 -48.75 -3.3 -47.8 -3.2 -46.9 L-3.05 -43.25 -2.8 -41.9 -1.8 -40.65 0.5 -40.65 0.55 -39.95 -0.85 -39.75 Q-3.7 -39.45 -4.3 -41.1 L-4.65 -43.85 -4.8 -45.2 -4.9 -46.25 -5.0 -48.2 -5.0 -48.5 Q-4.75 -50.25 -3.05 -50.85 L-2.7 -50.9 M7.0 -19.5 Q6.9 -22.9 7.45 -24.35 8.25 -26.55 11.15 -28.45 11.6 -28.8 12.2 -29.15 L13.0 -28.95 12.8 -28.65 9.75 -24.9 Q8.05 -22.85 8.45 -20.2 L9.9 -20.5 10.5 -20.3 10.65 -19.8 8.3 -19.4 6.95 -19.2 7.0 -19.5 M11.8 -15.9 L10.4 -15.3 9.65 -14.3 Q9.1 -13.4 9.05 -12.9 L7.65 -12.8 7.5 -14.3 9.0 -16.85 11.9 -17.5 12.1 -17.4 12.35 -16.9 Q12.0 -16.75 11.8 -15.9 M4.65 -17.8 L4.9 -17.45 5.05 -16.3 Q1.45 -15.55 -0.15 -14.3 -1.4 -13.3 -1.05 -12.2 L-1.95 -12.0 -1.95 -13.45 -1.65 -15.1 Q-1.25 -16.25 0.0 -16.85 L4.65 -17.8 M-11.45 -74.35 Q-11.4 -73.85 -12.0 -72.5 -12.55 -71.25 -12.5 -70.7 L-12.1 -67.15 -12.2 -66.8 -12.95 -66.8 -13.4 -69.85 -13.65 -72.15 -13.0 -73.35 -12.2 -74.3 -11.45 -74.35 M-2.3 -69.45 Q-1.1 -68.8 -0.8 -67.55 L-0.85 -67.4 -1.95 -67.3 -3.75 -68.7 Q-4.4 -69.5 -4.5 -70.8 L-4.5 -73.85 -3.75 -73.85 -3.5 -71.0 Q-3.4 -70.0 -2.3 -69.45 M-6.2 -68.85 L-6.05 -67.75 -6.55 -67.55 Q-8.3 -64.95 -9.35 -64.55 L-8.95 -64.15 -8.7 -63.55 -8.75 -63.1 -9.55 -63.1 Q-10.75 -63.55 -10.85 -64.7 -10.95 -65.35 -9.7 -66.8 L-7.95 -68.75 -6.2 -68.85 M-0.15 -63.7 Q-0.5 -62.85 -1.55 -61.3 -2.1 -60.6 -1.95 -59.25 L-1.3 -55.3 -0.5 -55.1 -0.4 -54.15 -1.3 -53.75 -2.2 -53.7 -3.15 -59.0 -3.3 -61.75 Q-3.0 -63.15 -1.55 -63.8 L-0.15 -63.7 M-13.6 -62.35 L-13.45 -61.05 -14.9 -59.65 Q-15.95 -58.4 -15.85 -57.35 -15.8 -56.95 -15.4 -56.95 L-14.55 -56.95 -14.5 -56.6 -14.5 -56.1 -14.7 -55.9 -15.95 -55.75 Q-17.1 -56.0 -17.35 -56.45 L-17.55 -57.4 Q-17.6 -58.1 -16.8 -60.2 L-16.15 -61.3 -15.25 -62.25 -13.6 -62.35 M-8.3 -58.7 L-7.3 -58.75 -7.15 -57.25 Q-8.8 -56.5 -8.95 -54.2 L-8.8 -50.5 -8.75 -50.3 -9.85 -50.35 -10.55 -55.3 Q-10.65 -56.2 -10.1 -57.2 L-9.85 -57.5 -8.6 -58.7 -8.3 -58.7 M-7.8 -44.65 Q-9.4 -43.85 -10.55 -43.3 -11.85 -42.6 -11.95 -41.7 L-11.95 -40.35 -11.8 -38.85 -9.65 -38.7 Q-9.4 -38.45 -9.35 -37.85 L-9.3 -37.6 -10.85 -37.65 -12.8 -37.6 -13.3 -41.75 Q-13.5 -43.5 -12.9 -43.95 L-8.85 -46.55 -6.95 -46.7 -6.85 -45.8 Q-6.8 -45.25 -7.8 -44.65" fill="#e0dfa3" fill-rule="evenodd" stroke="none"/>
    <path d="M16.65 -51.1 Q10.85 -59.85 6.35 -64.95 0.85 -71.2 -3.2 -74.85 -6.65 -78.0 -6.7 -78.3 L-34.45 -72.4 -33.5 -71.1 Q-28.6 -63.5 -24.2 -55.5 -17.15 -42.6 -12.15 -28.95 L-8.5 -18.3 Q-6.4 -11.5 -4.7 -4.55 L-2.2 6.35 -1.8 9.0 -1.4 11.85 4.25 9.95 7.3 8.85 Q17.85 5.1 26.1 1.45 37.25 -3.55 37.85 -3.55 L33.85 -15.6 31.8 -21.6 31.4 -22.75 Q25.95 -36.5 19.1 -47.3 L17.5 -49.8 16.65 -51.1 M32.95 -30.35 L37.15 -19.55 37.85 -17.25 38.35 -15.6 Q40.65 -7.8 41.75 0.35 36.45 1.65 13.35 10.15 L7.3 12.4 4.25 13.6 Q0.4 15.2 -1.65 16.25 L-37.45 11.95 -39.05 11.6 Q-37.9 5.9 -37.25 0.2 -37.15 -7.9 -39.05 -18.3 L-39.75 -21.7 Q-42.65 -35.55 -46.55 -44.15 L-52.35 -56.4 -55.0 -61.05 Q-47.2 -68.75 -37.75 -74.75 L-6.15 -81.95 -4.25 -80.5 Q3.65 -74.2 10.45 -66.55 17.9 -57.8 23.8 -47.7 28.75 -39.2 32.9 -30.35 L32.95 -30.35 M-35.15 -72.05 L-44.25 -65.4 Q-47.35 -63.2 -51.0 -59.35 -42.5 -44.5 -39.6 -34.0 -36.75 -23.55 -35.55 -17.75 -34.35 -12.0 -34.0 -5.65 L-34.35 8.75 -34.25 8.75 -5.45 12.15 -2.9 12.15 -3.55 6.25 -4.3 2.7 -4.65 1.0 Q-7.0 -9.05 -9.85 -18.3 L-11.4 -23.15 Q-15.2 -34.6 -21.4 -47.15 -27.55 -59.5 -34.75 -71.25 L-35.15 -72.05 M-2.85 12.15 L-2.95 11.15 -2.9 12.15 -2.85 12.15" fill="#000000" fill-rule="evenodd" stroke="none"/>
    <path d="M-3.9 -76.3 L-3.85 -76.3 Q-2.0 -75.25 2.25 -73.2 L2.15 -72.55 2.15 -71.5 -4.15 -74.5 Q-9.25 -73.55 -14.15 -71.95 -19.45 -70.4 -24.3 -67.25 L-26.65 -65.3 -27.45 -63.95 Q-27.75 -63.2 -27.65 -62.25 L-27.1 -57.85 Q-26.7 -55.1 -25.55 -52.0 L-23.4 -46.75 Q-22.35 -44.6 -20.7 -42.65 L-17.5 -38.7 Q-15.95 -36.7 -12.2 -35.8 L-5.55 -34.6 1.35 -34.0 4.65 -36.75 10.35 -41.5 13.65 -44.45 Q16.35 -47.2 17.25 -50.95 L17.65 -53.7 18.95 -52.9 18.3 -49.75 18.25 -49.55 17.4 -46.7 Q16.6 -44.7 15.1 -43.2 L11.75 -40.2 Q7.0 -36.3 2.25 -32.5 L-5.2 -32.45 Q-8.9 -32.05 -10.0 -28.75 L-11.25 -28.75 -13.9 -30.4 -14.75 -29.95 -15.0 -29.25 -15.1 -29.25 -16.0 -29.25 -16.25 -29.95 Q-16.55 -30.75 -17.1 -31.2 -19.4 -33.25 -22.25 -34.25 L-22.5 -37.1 Q-22.6 -37.85 -23.0 -38.4 L-26.0 -42.45 -28.65 -42.7 -29.3 -47.25 -31.0 -46.75 -31.9 -46.8 -31.75 -49.15 -31.35 -54.65 Q-31.35 -55.45 -31.9 -55.9 L-33.9 -57.9 -31.8 -60.25 Q-32.6 -60.95 -32.9 -61.85 L-33.0 -62.35 -32.9 -62.9 -30.95 -64.8 -30.25 -65.5 -29.7 -66.0 -29.5 -66.0 -29.4 -66.3 -28.55 -67.0 -28.4 -66.8 Q-28.15 -66.6 -28.15 -67.0 L-28.15 -67.15 -28.15 -67.35 -27.05 -68.05 Q-23.25 -70.35 -19.05 -72.05 L-11.6 -74.55 -4.95 -76.25 -3.9 -76.3 M27.75 -32.05 L28.85 -33.3 30.1 -33.25 30.1 -31.8 28.75 -30.15 28.6 -30.05 Q26.2 -27.45 23.15 -26.0 19.55 -24.25 15.95 -22.8 12.75 -21.6 9.45 -20.7 L4.7 -19.5 Q-1.5 -19.05 -7.65 -19.45 L-11.05 -20.25 -12.5 -18.05 -13.65 -18.3 -15.2 -20.7 Q-18.05 -24.85 -22.2 -28.0 -23.35 -28.85 -25.0 -29.55 L-27.75 -27.5 -28.65 -27.8 -31.55 -31.8 -35.0 -30.75 Q-35.25 -32.75 -35.15 -34.9 -35.1 -37.1 -38.45 -39.9 -41.85 -42.7 -43.0 -43.05 L-43.9 -47.0 -46.6 -47.2 -46.5 -48.0 -45.3 -48.1 -42.5 -48.3 -42.0 -44.4 -38.05 -42.0 -35.7 -40.0 -34.8 -38.75 Q-33.4 -36.2 -33.5 -33.25 L-30.15 -33.4 -27.8 -29.5 -25.9 -30.9 Q-22.5 -30.85 -20.05 -28.75 -16.05 -25.25 -12.9 -20.8 L-12.55 -21.15 -12.3 -21.5 -8.0 -20.8 -3.8 -20.55 4.65 -21.3 11.6 -23.15 Q14.9 -24.1 18.1 -25.35 20.7 -26.45 22.95 -28.0 25.6 -29.85 27.75 -32.05 M-49.5 -56.2 L-50.0 -55.5 -51.35 -55.6 -52.55 -57.05 -53.65 -58.7 -54.25 -60.0 -53.0 -59.9 -50.65 -57.05 -50.25 -57.35 -49.5 -58.0 -45.55 -57.75 -44.95 -57.7 -44.1 -57.3 -43.85 -57.2 -42.75 -60.5 -38.9 -60.8 -39.05 -62.25 Q-39.25 -64.5 -37.75 -65.8 L-36.9 -66.35 -35.35 -67.05 -34.9 -68.85 -34.5 -70.7 -32.9 -70.65 -32.1 -70.85 -31.95 -70.9 -31.35 -71.0 -28.5 -71.75 -27.15 -72.0 -25.4 -72.25 -25.0 -73.55 -21.6 -73.65 -21.1 -75.6 -20.9 -76.4 -14.0 -76.75 -12.75 -78.75 -12.0 -78.65 -12.6 -77.5 -13.5 -75.8 -20.0 -75.4 -20.75 -72.5 -24.15 -72.65 -24.5 -71.3 -30.05 -70.35 -31.75 -70.1 -33.5 -70.15 -33.6 -69.45 -33.6 -69.4 -34.05 -65.95 -36.55 -65.25 -38.25 -62.95 -37.5 -59.5 -41.75 -59.3 -43.0 -55.75 -44.5 -55.75 -45.2 -56.25 -45.95 -56.5 -46.75 -56.7 -47.6 -56.85 -49.5 -56.25 -49.5 -56.2 M-50.25 -60.55 L-50.75 -61.75 -49.3 -61.6 -49.3 -62.05 -49.0 -61.95 -48.95 -61.95 -47.0 -61.35 -44.65 -61.45 -40.2 -65.15 Q-39.05 -66.05 -39.15 -67.6 L-39.0 -69.95 -38.65 -71.5 -38.5 -72.0 -37.75 -72.0 -37.0 -71.45 -36.8 -71.3 -37.1 -71.35 -37.5 -71.5 -38.0 -71.3 -37.95 -70.75 -37.9 -69.85 Q-37.9 -66.15 -39.75 -63.0 -42.65 -61.85 -44.5 -59.25 L-50.25 -60.5 -50.25 -60.55 M-29.9 -62.75 L-29.7 -64.35 -31.75 -62.9 -31.0 -59.65 -31.05 -59.6 -31.95 -58.5 -32.5 -57.9 -29.8 -54.95 -30.75 -48.25 -28.8 -48.3 -28.5 -48.3 -27.95 -44.8 -27.75 -43.5 -24.75 -43.65 -24.8 -42.3 -24.0 -41.7 -22.8 -40.45 Q-21.2 -38.1 -21.25 -35.25 L-15.95 -32.65 Q-15.3 -32.3 -15.25 -31.5 L-12.6 -30.95 -12.4 -30.9 -11.1 -30.6 -8.75 -33.25 -8.3 -33.3 -10.05 -33.7 -12.05 -34.2 -15.8 -35.5 -16.1 -35.6 Q-17.0 -36.0 -17.7 -36.55 L-18.4 -37.15 -20.65 -39.55 -20.85 -39.75 Q-22.35 -41.4 -23.55 -43.3 L-24.05 -44.1 -24.3 -44.5 -24.55 -44.9 -24.55 -45.0 -25.55 -47.65 -26.7 -50.0 -26.75 -50.05 -27.25 -51.4 -27.3 -51.5 -27.75 -52.8 -28.15 -53.95 -28.4 -54.5 -28.45 -54.65 Q-30.0 -59.9 -29.9 -62.75" fill="#000000" fill-rule="evenodd" stroke="none"/>
    <path d="M-30.95 -64.8 L-32.9 -62.9 -33.0 -62.35 -32.9 -61.85 Q-32.6 -60.95 -31.8 -60.25 L-33.9 -57.9 -31.9 -55.9 Q-31.35 -55.45 -31.35 -54.65 L-31.75 -49.15 -31.9 -46.8 -31.0 -46.75 -29.3 -47.25 -28.65 -42.7 -26.0 -42.45 -23.0 -38.4 Q-22.6 -37.85 -22.5 -37.1 L-22.25 -34.25 Q-19.4 -33.25 -17.1 -31.2 -16.55 -30.75 -16.25 -29.95 L-16.0 -29.25 -15.1 -29.25 -14.95 -28.75 -14.8 -28.25 -13.55 -24.25 -13.2 -23.25 -12.55 -21.15 -12.9 -20.8 Q-16.05 -25.25 -20.05 -28.75 -22.5 -30.85 -25.9 -30.9 L-27.8 -29.5 -30.15 -33.4 -33.5 -33.25 Q-33.4 -36.2 -34.8 -38.75 L-35.7 -40.0 -38.05 -42.0 -42.0 -44.4 -42.5 -48.3 -45.3 -48.1 -49.5 -56.2 -49.5 -56.25 -47.6 -56.85 -46.75 -56.7 -45.95 -56.5 -45.2 -56.25 -44.5 -55.75 -43.0 -55.75 -41.75 -59.3 -37.5 -59.5 -38.25 -62.95 -36.55 -65.25 -34.05 -65.95 -33.6 -69.4 -32.75 -68.25 -31.75 -66.5 -30.95 -64.8 M-50.25 -57.35 L-51.45 -59.15 -50.25 -60.55 -50.25 -60.5 -44.5 -59.25 Q-42.65 -61.85 -39.75 -63.0 -37.9 -66.15 -37.9 -69.85 -37.65 -69.5 -37.75 -69.0 L-38.05 -67.5 Q-38.2 -66.55 -37.75 -66.25 L-37.2 -66.65 -36.85 -66.85 -36.45 -67.2 -36.05 -67.55 -35.9 -68.0 Q-35.9 -69.0 -35.5 -69.75 L-34.9 -68.85 -35.35 -67.05 -36.9 -66.35 -37.75 -65.8 Q-39.25 -64.5 -39.05 -62.25 L-38.9 -60.8 -42.75 -60.5 -43.85 -57.2 -44.1 -57.3 -44.95 -57.7 -45.55 -57.75 -49.5 -58.0 -50.25 -57.35 M-31.05 -59.6 L-31.0 -59.65 -31.75 -62.9 -29.7 -64.35 -29.9 -62.75 -30.25 -62.5 Q-30.65 -62.15 -30.7 -61.5 L-30.65 -61.05 Q-30.35 -60.6 -30.6 -60.05 -30.75 -59.75 -31.05 -59.6 M-24.3 -44.5 L-24.05 -44.1 -24.1 -44.1 -24.6 -43.0 -24.55 -42.6 -24.0 -41.75 -23.7 -41.55 -23.35 -41.35 -22.8 -40.45 -22.65 -40.25 -21.85 -39.4 -21.7 -39.0 -21.45 -38.55 Q-20.9 -38.0 -20.65 -36.75 L-20.65 -36.25 Q-20.7 -35.05 -19.75 -35.0 L-19.3 -34.9 -17.0 -33.75 Q-15.65 -32.9 -15.0 -31.75 L-13.5 -31.5 -12.6 -30.95 -15.25 -31.5 Q-15.3 -32.3 -15.95 -32.65 L-21.25 -35.25 Q-21.2 -38.1 -22.8 -40.45 L-24.0 -41.7 -24.8 -42.3 -24.75 -43.65 -27.75 -43.5 -27.95 -44.8 Q-27.7 -44.05 -26.5 -44.3 L-25.05 -44.45 -24.65 -44.4 -24.65 -44.5 -24.3 -44.5 M-10.05 -33.7 L-8.3 -33.3 -8.75 -33.25 -11.1 -30.6 -12.4 -30.9 -11.75 -32.0 -10.05 -33.7 M-28.8 -48.3 L-30.75 -48.25 -29.8 -54.95 -32.5 -57.9 -31.95 -58.5 -29.75 -56.25 -29.6 -56.0 -29.5 -52.5 -29.6 -52.05 -29.75 -51.0 Q-29.7 -49.7 -30.25 -49.0 -29.85 -49.35 -28.85 -49.0 L-28.8 -48.3" fill="#570d03" fill-rule="evenodd" stroke="none"/>
    <path d="M-3.9 -76.3 L-4.95 -76.25 -11.6 -74.55 -19.05 -72.05 Q-23.25 -70.35 -27.05 -68.05 L-28.15 -67.35 Q-28.2 -69.35 -29.4 -69.65 L-29.5 -69.15 -29.35 -68.5 -29.05 -68.05 -28.55 -67.0 -29.4 -66.3 -29.4 -66.85 -29.85 -68.25 -30.3 -69.5 -31.8 -69.55 Q-32.1 -68.95 -31.6 -68.05 L-30.5 -66.25 -29.8 -66.05 -29.7 -66.0 -30.25 -65.5 -30.95 -64.8 -31.75 -66.5 -32.75 -68.25 -33.6 -69.4 -33.6 -69.45 -33.5 -70.15 -31.75 -70.1 -30.05 -70.35 -24.5 -71.3 -24.15 -72.65 -20.75 -72.5 -20.0 -75.4 -13.5 -75.8 -12.6 -77.5 -7.0 -79.0 -3.9 -76.3 M-15.1 -29.25 L-15.0 -29.25 -14.75 -29.95 -13.9 -30.4 -11.25 -28.75 -10.0 -28.75 Q-8.9 -32.05 -5.2 -32.45 L2.25 -32.5 Q7.0 -36.3 11.75 -40.2 L15.1 -43.2 Q16.6 -44.7 17.4 -46.7 L18.25 -49.55 27.75 -32.05 Q25.6 -29.85 22.95 -28.0 20.7 -26.45 18.1 -25.35 14.9 -24.1 11.6 -23.15 L4.65 -21.3 -3.8 -20.55 -8.0 -20.8 -12.3 -21.5 -12.55 -21.15 -13.2 -23.25 -13.55 -24.25 -14.8 -28.25 -14.95 -28.75 -15.1 -29.25 M-37.0 -71.45 L-23.75 -75.65 -21.1 -75.6 -21.6 -73.65 -25.0 -73.55 -25.4 -72.25 -27.15 -72.0 -28.5 -71.75 -31.35 -71.0 -31.95 -70.9 -31.0 -71.25 -31.15 -72.75 -32.25 -72.75 -33.8 -72.0 Q-34.85 -71.5 -35.0 -71.0 L-34.9 -70.75 -34.5 -70.7 -34.9 -68.85 -35.5 -69.75 Q-35.9 -69.0 -35.9 -68.0 L-36.05 -67.55 -36.45 -67.2 -36.85 -66.85 -37.2 -66.65 -37.75 -66.25 Q-38.2 -66.55 -38.05 -67.5 L-37.75 -69.0 Q-37.65 -69.5 -37.9 -69.85 L-37.95 -70.75 -37.1 -71.35 -36.8 -71.3 -37.0 -71.45 M-11.75 -75.2 Q-11.4 -75.75 -11.4 -76.0 L-7.5 -76.8 -5.65 -76.65 -5.65 -77.75 Q-6.25 -77.8 -6.3 -78.0 -8.0 -78.5 -9.8 -78.05 L-12.5 -77.25 Q-12.2 -75.55 -15.15 -75.1 L-19.15 -75.0 -19.25 -73.25 -18.65 -73.15 -18.65 -73.25 -18.5 -73.9 -13.4 -74.1 -12.25 -74.5 -11.75 -75.2 M5.6 -31.4 Q4.7 -30.7 2.15 -30.4 -0.4 -30.1 -3.85 -30.45 -6.35 -30.35 -7.9 -27.55 L-7.5 -27.5 -6.65 -28.45 -5.75 -29.25 2.75 -29.65 Q6.7 -29.85 13.85 -37.5 12.45 -36.9 10.5 -35.3 L7.0 -32.65 5.6 -31.4 M16.85 -39.8 L17.1 -40.5 16.75 -40.55 Q16.6 -40.5 16.6 -40.1 16.6 -39.7 16.75 -39.7 L16.85 -39.8 M18.85 -43.8 L18.85 -45.5 Q13.25 -41.1 10.35 -38.3 9.85 -37.8 8.0 -36.6 L5.85 -35.0 4.75 -34.0 3.75 -33.25 Q2.25 -31.85 -4.15 -31.55 -7.25 -31.55 -8.3 -30.4 L-9.25 -28.5 -8.5 -28.5 -7.55 -29.6 -6.0 -30.65 -5.25 -30.55 Q-2.4 -30.4 1.35 -30.55 L3.35 -30.8 11.3 -36.85 Q16.2 -40.6 18.85 -43.8 M-31.05 -59.6 Q-30.75 -59.75 -30.6 -60.05 -30.35 -60.6 -30.65 -61.05 L-30.7 -61.5 Q-30.65 -62.15 -30.25 -62.5 L-29.9 -62.75 Q-30.0 -59.9 -28.45 -54.65 L-28.4 -54.5 -29.05 -55.3 Q-29.25 -55.3 -29.25 -54.7 L-28.65 -52.1 -27.9 -49.75 -26.7 -47.15 -25.25 -44.5 -25.05 -44.45 -26.5 -44.3 Q-27.7 -44.05 -27.95 -44.8 L-28.5 -48.3 -28.8 -48.3 -28.85 -49.0 Q-29.85 -49.35 -30.25 -49.0 -29.7 -49.7 -29.75 -51.0 L-29.6 -52.05 -29.5 -52.5 -29.6 -56.0 -29.75 -56.25 -31.95 -58.5 -31.05 -59.6 M-24.55 -44.9 L-24.3 -44.5 -24.65 -44.5 -24.55 -44.6 -24.55 -44.9 M-24.05 -44.1 L-23.55 -43.3 Q-23.95 -42.5 -23.35 -41.35 L-23.7 -41.55 -24.0 -41.75 -24.55 -42.6 -24.6 -43.0 -24.1 -44.1 -24.05 -44.1 M-20.85 -39.75 L-20.65 -39.55 -18.4 -37.15 -17.7 -36.55 -19.6 -38.25 -20.85 -39.75 M-16.1 -35.6 L-15.8 -35.5 -12.05 -34.2 -10.05 -33.7 -11.75 -32.0 -12.4 -30.9 -12.6 -30.95 -13.5 -31.5 -15.0 -31.75 Q-15.65 -32.9 -17.0 -33.75 L-19.3 -34.9 -19.75 -35.0 Q-20.7 -35.05 -20.65 -36.25 L-20.65 -36.75 Q-20.9 -38.0 -21.45 -38.55 L-21.7 -39.0 -21.85 -39.4 -20.4 -37.65 Q-19.35 -36.0 -17.0 -34.95 -13.55 -33.35 -13.15 -33.05 L-11.25 -33.05 -11.25 -33.8 Q-14.1 -34.6 -16.1 -35.6 M-35.6 -69.85 Q-35.5 -69.75 -35.5 -70.15 L-35.6 -70.6 -35.75 -70.65 -36.75 -70.75 -36.75 -70.25 -35.75 -70.0 -35.6 -69.85 M-10.4 -25.0 Q-10.85 -26.8 -11.4 -27.9 L-10.95 -24.9 -10.35 -23.0 -10.9 -23.05 -12.5 -29.15 -13.5 -29.25 Q-13.6 -27.9 -13.0 -25.3 L-12.0 -21.75 -10.15 -21.25 -9.35 -21.4 -9.25 -21.5 -9.25 -21.7 Q-9.25 -22.1 -9.6 -22.5 L-9.75 -22.65 -10.4 -25.0 M-4.55 -21.55 L-4.55 -22.25 -6.75 -22.25 -7.05 -22.05 -8.75 -22.0 -8.75 -21.5 -6.95 -21.3 -4.55 -21.55" fill="#c2042c" fill-rule="evenodd" stroke="none"/>
    <path d="M-28.15 -67.35 L-28.15 -67.15 -28.15 -67.0 Q-28.15 -66.6 -28.4 -66.8 L-28.55 -67.0 -29.05 -68.05 -29.35 -68.5 -29.5 -69.15 -29.4 -69.65 Q-28.2 -69.35 -28.15 -67.35 M-29.4 -66.3 L-29.5 -66.0 -29.7 -66.0 -29.8 -66.05 -30.5 -66.25 -31.6 -68.05 Q-32.1 -68.95 -31.8 -69.55 L-30.3 -69.5 -29.85 -68.25 -29.4 -66.85 -29.4 -66.3 M18.85 -43.8 Q16.2 -40.6 11.3 -36.85 L3.35 -30.8 1.35 -30.55 Q-2.4 -30.4 -5.25 -30.55 L-6.0 -30.65 -7.55 -29.6 -8.5 -28.5 -9.25 -28.5 -8.3 -30.4 Q-7.25 -31.55 -4.15 -31.55 2.25 -31.85 3.75 -33.25 L4.75 -34.0 5.85 -35.0 8.0 -36.6 Q9.85 -37.8 10.35 -38.3 13.25 -41.1 18.85 -45.5 L18.85 -43.8 M16.85 -39.8 L16.75 -39.7 Q16.6 -39.7 16.6 -40.1 16.6 -40.5 16.75 -40.55 L17.1 -40.5 16.85 -39.8 M5.6 -31.4 L7.0 -32.65 10.5 -35.3 Q12.45 -36.9 13.85 -37.5 6.7 -29.85 2.75 -29.65 L-5.75 -29.25 -6.65 -28.45 -7.5 -27.5 -7.9 -27.55 Q-6.35 -30.35 -3.85 -30.45 -0.4 -30.1 2.15 -30.4 4.7 -30.7 5.6 -31.4 M-11.75 -75.2 L-12.25 -74.5 -13.4 -74.1 -18.5 -73.9 -18.65 -73.25 -18.65 -73.15 -19.25 -73.25 -19.15 -75.0 -15.15 -75.1 Q-12.2 -75.55 -12.5 -77.25 L-9.8 -78.05 Q-8.0 -78.5 -6.3 -78.0 -6.25 -77.8 -5.65 -77.75 L-5.65 -76.65 -7.5 -76.8 -11.4 -76.0 Q-11.4 -75.75 -11.75 -75.2 M-31.95 -70.9 L-32.1 -70.85 -32.9 -70.65 -34.5 -70.7 -34.9 -70.75 -35.0 -71.0 Q-34.85 -71.5 -33.8 -72.0 L-32.25 -72.75 -31.15 -72.75 -31.0 -71.25 -31.95 -70.9 M-28.4 -54.5 L-28.15 -53.95 -27.75 -52.8 -27.3 -51.5 -27.25 -51.4 -26.75 -50.05 -26.7 -50.0 -25.55 -47.65 -24.55 -45.0 -24.55 -44.9 -24.55 -44.6 -24.65 -44.5 -24.65 -44.4 -25.05 -44.45 -25.25 -44.5 -26.7 -47.15 -27.9 -49.75 -28.65 -52.1 -29.25 -54.7 Q-29.25 -55.3 -29.05 -55.3 L-28.4 -54.5 M-23.55 -43.3 Q-22.35 -41.4 -20.85 -39.75 L-19.6 -38.25 -17.7 -36.55 Q-17.0 -36.0 -16.1 -35.6 -14.1 -34.6 -11.25 -33.8 L-11.25 -33.05 -13.15 -33.05 Q-13.55 -33.35 -17.0 -34.95 -19.35 -36.0 -20.4 -37.65 L-21.85 -39.4 -22.65 -40.25 -22.8 -40.45 -23.35 -41.35 Q-23.95 -42.5 -23.55 -43.3 M-35.6 -69.85 L-35.75 -70.0 -36.75 -70.25 -36.75 -70.75 -35.75 -70.65 -35.6 -70.6 -35.5 -70.15 Q-35.5 -69.75 -35.6 -69.85 M-10.4 -25.0 L-9.75 -22.65 -9.6 -22.5 Q-9.25 -22.1 -9.25 -21.7 L-9.25 -21.5 -9.35 -21.4 -10.15 -21.25 -12.0 -21.75 -13.0 -25.3 Q-13.6 -27.9 -13.5 -29.25 L-12.5 -29.15 -10.9 -23.05 -10.35 -23.0 -10.95 -24.9 -11.4 -27.9 Q-10.85 -26.8 -10.4 -25.0 M-4.55 -21.55 L-6.95 -21.3 -8.75 -21.5 -8.75 -22.0 -7.05 -22.05 -6.75 -22.25 -4.55 -22.25 -4.55 -21.55" fill="#ec8494" fill-rule="evenodd" stroke="none"/>
    <path d="M-35.8 -66.55 L-34.45 -65.35 -34.05 -60.0 -33.75 -50.75 -34.25 -43.85 Q-34.7 -38.9 -35.85 -37.15 -37.05 -35.45 -39.8 -36.75 -42.0 -37.5 -43.95 -40.6 -48.15 -47.3 -49.6 -55.55 -49.8 -56.85 -49.45 -57.55 L-46.3 -54.9 Q-45.4 -51.9 -43.5 -47.3 -41.6 -42.7 -39.55 -43.5 -37.2 -47.0 -37.45 -53.25 -37.6 -56.6 -38.05 -60.1 -38.45 -62.8 -38.0 -64.9 L-35.8 -66.55 M-35.85 -64.4 L-36.75 -65.1 -36.35 -55.8 -36.25 -53.0 -36.25 -51.6 Q-36.15 -45.15 -38.25 -41.05 L-39.3 -40.9 -40.55 -41.3 -42.1 -42.65 -43.0 -44.1 -44.3 -46.8 -45.3 -49.05 Q-46.7 -52.3 -47.65 -55.6 L-48.35 -56.1 -48.3 -54.7 -47.9 -52.7 -47.45 -51.2 -46.3 -48.1 Q-44.8 -44.3 -42.95 -41.75 -41.15 -39.3 -39.95 -38.9 L-38.2 -38.6 -37.35 -38.9 Q-36.55 -39.6 -36.15 -41.7 L-35.7 -44.5 Q-35.45 -46.05 -35.35 -47.75 -35.25 -48.8 -35.3 -49.9 L-35.35 -52.85 -35.3 -54.6 -35.4 -57.0 -35.5 -58.5 -35.7 -63.95 -35.85 -64.4" fill="#000000" fill-rule="evenodd" stroke="none"/>
    <path d="M-35.85 -64.4 L-35.7 -63.95 -35.5 -58.5 -35.4 -57.0 -35.3 -54.6 -35.35 -52.85 -35.3 -49.9 Q-35.25 -48.8 -35.35 -47.75 -35.45 -46.05 -35.7 -44.5 L-36.15 -41.7 Q-36.55 -39.6 -37.35 -38.9 L-38.2 -38.6 -39.95 -38.9 Q-41.15 -39.3 -42.95 -41.75 -44.8 -44.3 -46.3 -48.1 L-47.45 -51.2 -47.9 -52.7 -48.3 -54.7 -48.35 -56.1 -47.65 -55.6 Q-46.7 -52.3 -45.3 -49.05 L-44.3 -46.8 -43.0 -44.1 -42.1 -42.65 -40.55 -41.3 -39.3 -40.9 -38.25 -41.05 Q-36.15 -45.15 -36.25 -51.6 L-36.25 -53.0 -36.35 -55.8 -36.75 -65.1 -35.85 -64.4" fill="#007b25" fill-rule="evenodd" stroke="none"/>
    <path d="M-45.05 -37.9 Q-45.55 -41.65 -43.9 -44.35 -42.3 -47.05 -39.6 -47.0 -36.85 -47.0 -34.6 -44.3 -32.35 -41.6 -31.85 -37.85 -31.4 -34.1 -33.0 -31.4 -34.6 -28.75 -37.35 -28.75 -40.05 -28.8 -42.3 -31.45 -44.6 -34.15 -45.05 -37.9 M-42.75 -42.4 Q-43.95 -40.3 -43.6 -37.3 -43.25 -34.35 -41.45 -32.25 -39.7 -30.1 -37.55 -30.1 -35.4 -30.1 -34.15 -32.2 -32.9 -34.3 -33.25 -37.25 -33.6 -40.25 -35.45 -42.35 -37.2 -44.45 -39.35 -44.45 -41.5 -44.45 -42.75 -42.4" fill="#333333" fill-rule="evenodd" stroke="none"/>
    <path d="M-42.15 -41.15 L-42.5 -40.15 -42.4 -38.9 Q-42.25 -37.7 -41.75 -36.6 L-40.7 -36.55 Q-40.05 -36.5 -39.8 -37.65 -39.55 -38.6 -39.7 -39.65 L-39.95 -40.9 -40.2 -41.05 -42.15 -41.15 M-42.75 -42.4 Q-41.5 -44.45 -39.35 -44.45 -37.2 -44.45 -35.45 -42.35 -33.6 -40.25 -33.25 -37.25 -32.9 -34.3 -34.15 -32.2 -35.4 -30.1 -37.55 -30.1 -39.7 -30.1 -41.45 -32.25 -43.25 -34.35 -43.6 -37.3 -43.95 -40.3 -42.75 -42.4 M-41.25 -34.15 Q-41.2 -33.7 -40.95 -33.4 L-40.35 -33.35 -39.7 -33.65 -39.7 -34.4 -39.8 -35.05 -40.9 -35.1 Q-41.35 -35.0 -41.25 -34.15" fill="#39d1ff" fill-rule="evenodd" stroke="none"/>
    <path d="M-42.15 -41.15 L-40.2 -41.05 -39.95 -40.9 -39.7 -39.65 Q-39.55 -38.6 -39.8 -37.65 -40.05 -36.5 -40.7 -36.55 L-41.75 -36.6 Q-42.25 -37.7 -42.4 -38.9 L-42.5 -40.15 -42.15 -41.15 M-41.25 -34.15 Q-41.35 -35.0 -40.9 -35.1 L-39.8 -35.05 -39.7 -34.4 -39.7 -33.65 -40.35 -33.35 -40.95 -33.4 Q-41.2 -33.7 -41.25 -34.15" fill="#e8faff" fill-rule="evenodd" stroke="none"/>
    <path d="M36.65 3.6 L36.55 3.05 36.45 2.7 35.6 3.05 34.25 3.0 10.95 12.6 Q4.85 15.05 0.8 16.85 L-1.4 16.65 -1.95 16.6 -18.25 15.1 -32.15 13.8 -32.2 15.15 -32.65 24.2 Q-17.05 25.95 -1.5 28.55 L0.05 28.8 Q8.4 26.2 11.1 24.85 12.6 18.0 17.45 16.45 22.25 14.8 27.1 15.25 29.95 15.5 32.8 16.4 L33.85 17.75 Q35.45 17.0 38.75 16.15 L38.8 15.0 Q38.95 13.4 36.65 3.6 M24.85 18.55 Q18.15 18.45 15.35 23.0 L13.55 27.5 Q4.4 30.3 -0.6 32.4 L-1.2 32.3 -3.45 31.9 Q-19.7 28.85 -35.9 26.65 L-34.7 10.5 -0.55 13.75 38.05 -1.3 Q41.5 9.3 41.95 18.1 35.5 20.55 32.65 21.9 31.55 18.6 24.85 18.55" fill="#000000" fill-rule="evenodd" stroke="none"/>
    <path d="M10.95 12.6 L3.5 16.85 Q7.75 15.95 11.85 14.35 15.05 13.0 18.4 11.8 L24.05 9.55 33.55 5.8 36.15 4.65 36.15 5.75 36.75 5.75 36.65 3.6 Q38.95 13.4 38.8 15.0 L38.75 16.15 Q35.45 17.0 33.85 17.75 L32.8 16.4 Q29.95 15.5 27.1 15.25 22.25 14.8 17.45 16.45 12.6 18.0 11.1 24.85 8.4 26.2 0.05 28.8 L-1.5 28.55 -2.2 21.3 -2.35 20.9 -2.8 19.8 Q-2.85 18.6 -3.7 18.55 L-3.75 18.55 -3.9 18.55 -9.15 18.35 -13.65 18.3 -19.0 17.75 Q-18.5 17.25 -17.75 17.25 L-19.75 16.95 -21.5 16.6 -31.25 15.2 -32.2 15.15 -32.15 13.8 -18.25 15.1 -27.6 15.05 Q-14.5 17.1 -1.4 18.1 L-1.8 20.75 -0.55 20.85 -0.8 28.3 0.25 28.35 0.35 28.15 1.0 17.6 0.35 16.85 -1.4 16.65 0.8 16.85 Q4.85 15.05 10.95 12.6 M36.55 3.05 L35.6 3.05 36.45 2.7 36.55 3.05" fill="#c2042c" fill-rule="evenodd" stroke="none"/>
    <path d="M-32.2 15.15 L-31.25 15.2 -21.5 16.6 -19.75 16.95 -17.75 17.25 Q-18.5 17.25 -19.0 17.75 L-13.65 18.3 -9.15 18.35 -3.9 18.55 -3.75 18.55 -3.7 18.55 Q-2.85 18.6 -2.8 19.8 L-2.35 20.9 -2.2 21.3 -1.5 28.55 Q-17.05 25.95 -32.65 24.2 L-32.2 15.15" fill="#570d03" fill-rule="evenodd" stroke="none"/>
    <path d="M36.65 3.6 L36.75 5.75 36.15 5.75 36.15 4.65 33.55 5.8 24.05 9.55 18.4 11.8 Q15.05 13.0 11.85 14.35 7.75 15.95 3.5 16.85 L10.95 12.6 34.25 3.0 35.6 3.05 36.55 3.05 36.65 3.6 M-1.4 16.65 L0.35 16.85 1.0 17.6 0.35 28.15 0.25 28.35 -0.8 28.3 -0.55 20.85 -1.8 20.75 -1.4 18.1 Q-14.5 17.1 -27.6 15.05 L-18.25 15.1 -1.95 16.6 -1.4 16.65" fill="#ff797c" fill-rule="evenodd" stroke="none"/>
  </g>
</svg>
