<?xml version="1.0" encoding="UTF-8" standalone="no"?>
<svg xmlns:xlink="http://www.w3.org/1999/xlink" height="97.3px" width="123.0px" xmlns="http://www.w3.org/2000/svg">
  <g transform="matrix(1.0, 0.0, 0.0, 1.0, 61.5, 47.9)">
    <path d="M21.05 -35.45 L20.25 -35.55 Q15.65 -33.5 11.4 -30.85 L3.75 -27.25 2.05 -27.55 Q-2.95 -33.0 -15.15 -43.65 L-15.9 -43.0 -16.35 -43.05 -18.25 -41.15 Q-24.4 -36.1 -30.4 -30.2 L-33.65 -29.95 -43.95 -37.3 -56.9 -11.65 -57.45 -10.6 -57.65 -10.15 -61.5 -10.7 -60.25 -13.3 -47.35 -40.4 -43.85 -41.65 -32.4 -32.8 -23.7 -41.45 -17.4 -47.9 -13.5 -47.75 3.05 -31.35 21.6 -40.25 24.8 -38.85 30.15 -17.95 52.0 -10.4 53.9 -7.3 46.55 9.3 47.95 11.15 61.5 28.4 61.5 30.2 40.8 49.4 39.35 49.2 39.35 46.2 39.35 45.95 48.8 37.5 57.7 29.4 50.9 21.3 42.45 10.15 50.0 -7.8 27.5 -15.55 21.75 -35.8 21.05 -35.45" fill="#000000" fill-rule="evenodd" stroke="none"/>
    <path d="M21.05 -35.45 L21.75 -35.8 27.5 -15.55 50.0 -7.8 42.45 10.15 50.9 21.3 57.7 29.4 48.8 37.5 39.35 45.95 39.35 46.2 Q38.65 45.9 38.6 45.15 L38.55 42.9 38.65 37.85 38.85 24.9 38.8 21.7 Q36.45 9.65 32.4 1.5 28.25 -6.6 24.2 -10.65 20.05 -14.7 17.4 -16.1 13.25 -18.35 9.0 -20.2 L0.6 -23.55 -6.4 -25.75 -11.35 -27.05 -18.95 -27.25 -28.35 -26.05 Q-30.5 -25.8 -32.5 -25.0 -36.95 -23.35 -41.0 -21.0 -48.05 -17.1 -54.25 -12.1 -46.35 -28.4 -44.3 -31.35 -42.25 -34.3 -41.85 -35.35 L-44.05 -36.75 Q-50.6 -24.7 -56.0 -11.85 L-54.7 -11.75 -56.1 -10.6 -57.45 -10.6 -56.9 -11.65 -43.95 -37.3 -33.65 -29.95 -30.4 -30.2 Q-24.4 -36.1 -18.25 -41.15 L-28.7 -30.75 -28.7 -29.55 -27.5 -29.0 Q-16.7 -39.65 -14.1 -41.45 L-14.95 -43.0 -15.9 -43.0 -15.15 -43.65 Q-2.95 -33.0 2.05 -27.55 L3.75 -27.25 11.4 -30.85 7.95 -28.65 6.2 -27.3 5.3 -26.35 6.85 -26.15 21.85 -33.55 21.85 -35.35 21.05 -35.45 M55.25 29.2 L54.45 27.95 39.8 43.25 42.2 43.5 55.25 29.2 M31.65 -13.4 L32.0 -12.35 46.85 -6.15 41.05 7.25 Q41.35 7.95 42.6 8.15 43.65 3.7 48.8 -7.0 L31.65 -13.4" fill="url(#gradient0)" fill-rule="evenodd" stroke="none"/>
    <path d="M11.4 -30.85 Q15.65 -33.5 20.25 -35.55 L21.05 -35.45 21.85 -35.35 21.85 -33.55 6.85 -26.15 5.3 -26.35 6.2 -27.3 7.95 -28.65 11.4 -30.85 M-18.25 -41.15 L-16.35 -43.05 -15.9 -43.0 -14.95 -43.0 -14.1 -41.45 Q-16.7 -39.65 -27.5 -29.0 L-28.7 -29.55 -28.7 -30.75 -18.25 -41.15 M31.65 -13.4 L48.8 -7.0 Q43.65 3.7 42.6 8.15 41.35 7.95 41.05 7.25 L46.85 -6.15 32.0 -12.35 31.65 -13.4 M55.25 29.2 L42.2 43.5 39.8 43.25 54.45 27.95 55.25 29.2 M-54.7 -11.75 L-56.0 -11.85 Q-50.6 -24.7 -44.05 -36.75 L-41.85 -35.35 Q-42.25 -34.3 -44.3 -31.35 -46.35 -28.4 -54.25 -12.1 L-54.45 -11.75 -54.7 -11.75" fill="#ec8494" fill-rule="evenodd" stroke="none"/>
  </g>
  <defs>
    <radialGradient cx="0" cy="0" gradientTransform="matrix(0.1057, 0.0066, 0.0, 0.1057, -16.95, 39.75)" gradientUnits="userSpaceOnUse" id="gradient0" r="819.2" spreadMethod="pad">
      <stop offset="0.49411764705882355" stop-color="#007b25"/>
      <stop offset="0.8588235294117647" stop-color="#9c2917"/>
      <stop offset="1.0" stop-color="#ed657d"/>
    </radialGradient>
  </defs>
</svg>
