<?xml version="1.0" encoding="UTF-8" standalone="no"?>
<svg xmlns:xlink="http://www.w3.org/1999/xlink" height="131.25px" width="167.65px" xmlns="http://www.w3.org/2000/svg">
  <g transform="matrix(1.0, 0.0, 0.0, 1.0, 87.4, 61.85)">
    <path d="M27.55 -61.05 L35.0 -58.85 32.25 -57.5 Q21.45 -59.0 10.5 -55.9 L2.25 -53.45 2.25 -55.5 4.45 -57.1 3.85 -57.75 7.75 -59.25 Q8.9 -59.65 9.95 -60.3 L22.4 -61.85 23.0 -61.75 27.55 -61.05 M-6.45 -51.95 L-5.25 -51.5 Q-9.3 -46.85 -13.5 -42.85 L-19.4 -37.65 Q-26.75 -31.65 -32.6 -27.9 -38.4 -24.2 -42.15 -17.5 -42.7 -14.35 -35.75 -14.6 L-35.25 -10.85 Q-49.05 -5.8 -57.6 -0.7 -59.15 0.25 -60.25 1.9 -62.75 5.4 -64.5 9.45 -65.2 11.05 -66.65 12.0 -71.4 15.1 -76.25 18.05 L-81.8 21.75 Q-81.85 25.6 -81.4 29.3 -80.95 33.15 -79.1 36.9 -77.75 39.55 -76.7 42.35 L-75.75 41.75 -72.5 39.0 Q-66.35 34.5 -60.5 34.5 L-59.75 34.5 -57.5 33.5 -55.8 33.7 -53.75 34.25 -49.6 34.55 Q-45.5 34.95 -45.5 35.25 L-39.85 36.45 -35.5 37.25 Q-28.75 37.25 -17.25 31.2 -11.3 28.05 -5.0 24.0 8.75 16.45 13.75 14.6 24.45 10.6 34.5 12.25 L35.55 12.65 43.3 12.1 43.4 12.05 46.2 10.85 47.5 9.65 48.25 8.6 45.5 4.45 43.55 1.4 41.2 -0.65 Q40.1 -0.35 39.5 -1.25 37.6 -0.1 36.2 -0.2 L33.5 1.25 Q33.6 -3.2 39.25 -6.75 44.1 -8.6 49.3 -6.75 51.65 -5.8 52.6 -3.45 L53.0 -2.55 Q53.55 -1.4 54.25 -0.5 L54.25 0.25 Q52.2 -1.3 49.25 0.75 L49.7 1.4 50.65 3.45 Q51.25 5.3 51.25 7.1 L51.2 10.15 51.25 11.25 Q51.25 12.1 50.5 13.05 49.6 14.25 47.75 15.25 L47.5 15.25 44.8 16.25 43.3 16.15 41.7 16.4 37.35 15.8 29.5 16.5 25.7 16.8 Q21.8 17.2 21.5 17.5 15.35 18.6 5.9 23.25 L4.9 23.8 -1.55 27.15 -7.7 30.7 -20.35 38.2 Q-26.25 41.5 -28.5 41.5 L-30.45 41.5 -30.5 41.5 -30.9 41.45 -33.95 41.3 -37.5 40.75 Q-39.35 41.25 -43.7 39.65 -47.1 38.4 -49.9 37.95 -59.8 39.45 -65.4 41.95 -68.75 43.45 -74.5 46.5 L-75.55 46.45 -75.6 47.45 Q-75.95 51.05 -76.75 54.65 -77.8 59.4 -79.5 64.0 L-77.15 65.0 -20.3 51.4 Q-4.05 47.6 12.35 44.3 L29.9 41.8 Q37.75 41.0 45.2 42.65 L49.05 43.85 Q59.75 37.95 67.65 30.7 L71.5 27.2 71.75 26.05 71.85 25.45 72.25 23.55 Q72.85 20.75 72.7 17.5 L72.25 14.35 71.85 12.95 Q78.35 -1.05 75.1 -16.4 73.8 -22.7 71.25 -28.75 L75.0 -28.5 75.75 -27.45 Q81.7 -13.7 79.8 1.1 78.9 8.35 75.3 14.3 76.6 22.5 73.35 30.1 L72.3 32.25 63.8 39.95 Q61.25 42.25 58.75 44.85 L58.7 44.9 58.75 44.9 55.0 48.75 48.55 48.4 39.5 46.2 34.8 45.9 Q28.25 46.2 21.8 47.35 -20.25 54.6 -61.5 66.3 L-66.75 67.8 -69.65 68.65 -71.1 69.05 -75.5 69.4 -78.5 69.25 -78.5 68.5 -84.75 67.5 Q-82.95 58.0 -80.2 48.9 -80.0 48.15 -80.2 47.4 -81.1 43.6 -83.4 40.1 -85.3 37.05 -86.45 33.25 -87.65 29.45 -87.35 25.2 -87.1 20.95 -85.4 19.15 L-83.1 16.75 -80.05 14.35 -73.8 9.8 -69.8 6.9 Q-68.45 5.9 -67.9 4.45 -66.05 -0.3 -62.35 -3.8 -58.9 -7.05 -54.6 -9.3 L-46.0 -13.55 Q-47.45 -16.0 -45.6 -20.4 -43.75 -24.8 -34.35 -30.75 -26.9 -35.5 -18.5 -42.85 L-14.9 -46.05 -13.45 -47.15 -10.4 -49.5 -6.45 -51.95 M71.15 -38.25 L69.35 -37.6 67.85 -39.3 Q62.0 -45.8 57.2 -48.9 L55.05 -50.15 Q49.5 -53.0 42.8 -55.2 L43.5 -56.5 52.1 -54.6 51.9 -55.15 Q55.95 -53.5 57.35 -53.5 L57.55 -53.5 61.0 -52.75 67.05 -46.35 Q67.75 -44.65 69.3 -41.75 L70.55 -39.45 71.15 -38.25" fill="#000000" fill-rule="evenodd" stroke="none"/>
    <path d="M53.0 -2.55 Q58.95 0.45 64.65 4.35 L67.55 6.55 Q70.35 8.85 71.85 12.95 L72.25 14.35 72.7 17.5 Q72.85 20.75 72.25 23.55 L71.85 25.45 71.75 26.05 71.5 27.2 67.65 30.7 Q59.75 37.95 49.05 43.85 L45.2 42.65 Q37.75 41.0 29.9 41.8 L12.35 44.3 Q-4.05 47.6 -20.3 51.4 L-77.15 65.0 -79.5 64.0 Q-77.8 59.4 -76.75 54.65 -75.95 51.05 -75.6 47.45 L-75.55 46.45 -74.5 46.5 Q-68.75 43.45 -65.4 41.95 -59.8 39.45 -49.9 37.95 -47.1 38.4 -43.7 39.65 -39.35 41.25 -37.5 40.75 L-33.95 41.3 -30.9 41.45 -30.5 41.5 -30.45 41.5 -28.5 41.5 Q-26.25 41.5 -20.35 38.2 L-7.7 30.7 -1.55 27.15 4.9 23.8 5.9 23.25 Q15.35 18.6 21.5 17.5 21.8 17.2 25.7 16.8 L29.5 16.5 37.35 15.8 41.7 16.4 43.3 16.15 44.8 16.25 47.5 15.25 47.75 15.25 Q49.6 14.25 50.5 13.05 51.25 12.1 51.25 11.25 L51.2 10.15 51.25 7.1 Q51.25 5.3 50.65 3.45 L49.7 1.4 49.25 0.75 Q52.2 -1.3 54.25 0.25 L54.25 -0.5 Q53.55 -1.4 53.0 -2.55 M67.8 21.1 L66.45 15.75 65.3 14.35 65.35 12.95 66.3 12.05 68.3 14.25 69.15 14.05 Q64.25 4.9 54.2 1.3 L52.5 3.2 52.55 3.75 53.25 4.55 53.5 6.3 Q54.5 13.6 48.7 18.2 L39.35 19.1 Q37.15 21.0 33.55 22.95 L32.0 23.5 31.05 23.0 32.55 20.0 25.9 21.05 25.65 23.85 24.75 24.3 23.65 23.65 24.1 19.55 20.35 19.65 Q18.1 20.3 16.5 21.95 L17.3 28.75 15.05 30.0 14.7 26.0 Q10.4 24.45 6.25 25.9 L5.3 33.15 4.8 33.5 4.55 28.5 3.65 28.75 Q1.6 29.35 0.6 31.0 -0.5 32.8 -0.2 34.95 L-2.0 35.0 -2.0 31.15 -2.0 29.5 -4.45 31.1 Q-8.9 34.1 -8.6 39.9 -10.5 40.95 -12.55 40.8 -15.2 40.3 -15.0 37.35 L-16.25 37.35 Q-18.2 37.8 -19.5 39.5 L-20.1 42.75 -20.6 43.1 -21.0 40.5 -27.3 43.0 -28.5 46.5 -29.0 42.65 -37.75 42.25 -38.75 45.75 -39.25 45.95 -39.5 43.0 -47.0 46.5 -48.0 49.5 -48.8 44.85 -50.45 44.75 Q-53.75 44.8 -56.25 46.9 L-56.4 50.05 -57.85 50.45 -58.55 49.8 -58.5 48.0 -64.45 49.95 -65.8 49.5 -67.5 51.5 -68.05 48.4 -69.45 48.7 Q-76.25 53.45 -76.0 60.75 -73.05 61.5 -49.4 56.0 -25.75 50.45 1.3 43.45 28.35 36.5 41.85 37.95 55.3 39.4 61.8 31.3 66.8 26.45 67.8 21.1" fill="#f5ec7d" fill-rule="evenodd" stroke="none"/>
    <path d="M27.55 -61.05 L37.5 -60.05 42.2 -59.2 46.75 -57.55 51.15 -55.5 51.9 -55.15 52.1 -54.6 43.5 -56.5 42.8 -55.2 Q49.5 -53.0 55.05 -50.15 L57.2 -48.9 Q62.0 -45.8 67.85 -39.3 L69.35 -37.6 71.15 -38.25 73.75 -32.9 75.75 -27.45 75.0 -28.5 71.25 -28.75 Q73.8 -22.7 75.1 -16.4 78.35 -1.05 71.85 12.95 70.35 8.85 67.55 6.55 L64.65 4.35 Q58.95 0.45 53.0 -2.55 L52.6 -3.45 Q51.65 -5.8 49.3 -6.75 44.1 -8.6 39.25 -6.75 33.6 -3.2 33.5 1.25 L36.2 -0.2 Q37.6 -0.1 39.5 -1.25 40.1 -0.35 41.2 -0.65 L43.55 1.4 45.5 4.45 48.25 8.6 47.5 9.65 46.2 10.85 43.4 12.05 43.3 12.1 35.55 12.65 34.5 12.25 Q24.45 10.6 13.75 14.6 8.75 16.45 -5.0 24.0 -11.3 28.05 -17.25 31.2 -28.75 37.25 -35.5 37.25 L-39.85 36.45 -45.5 35.25 Q-45.5 34.95 -49.6 34.55 L-53.75 34.25 -55.8 33.7 -57.5 33.5 -59.75 34.5 -60.5 34.5 Q-66.35 34.5 -72.5 39.0 L-75.75 41.75 -76.7 42.35 Q-77.75 39.55 -79.1 36.9 -80.95 33.15 -81.4 29.3 -81.85 25.6 -81.8 21.75 L-76.25 18.05 Q-71.4 15.1 -66.65 12.0 -65.2 11.05 -64.5 9.45 -62.75 5.4 -60.25 1.9 -59.15 0.25 -57.6 -0.7 -49.05 -5.8 -35.25 -10.85 L-35.75 -14.6 Q-42.7 -14.35 -42.15 -17.5 -38.4 -24.2 -32.6 -27.9 -26.75 -31.65 -19.4 -37.65 L-13.5 -42.85 Q-9.3 -46.85 -5.25 -51.5 L-6.45 -51.95 -2.3 -54.5 Q0.45 -56.3 3.85 -57.75 L4.45 -57.1 2.25 -55.5 2.25 -53.45 10.5 -55.9 Q21.45 -59.0 32.25 -57.5 L35.0 -58.85 27.55 -61.05 M10.5 -37.75 L10.75 -40.55 Q10.75 -41.1 9.75 -41.75 L7.75 -42.85 2.75 -43.25 2.6 -42.85 Q2.25 -41.95 2.25 -41.35 L4.25 -41.25 6.25 -41.6 8.1 -40.5 Q9.35 -39.85 9.35 -39.1 L9.25 -37.85 9.1 -37.25 9.85 -37.25 10.5 -37.75 M20.9 -35.8 L23.75 -36.25 Q27.05 -36.25 31.1 -35.05 L34.75 -33.85 34.75 -34.25 28.5 -36.5 Q24.9 -37.5 19.6 -37.85 L19.35 -37.6 Q14.4 -37.25 9.35 -35.9 5.5 -34.85 0.25 -32.75 -7.9 -29.55 -12.3 -27.35 L-12.3 -24.75 -9.05 -24.6 Q-7.75 -24.6 -4.4 -26.5 -3.5 -27.05 0.75 -29.75 5.4 -32.7 16.0 -35.0 L20.9 -35.8 M-61.85 21.0 L-63.1 20.8 -63.1 22.0 -61.85 22.05 -61.85 21.0 M-67.5 19.0 L-67.5 20.8 -65.5 21.0 -65.25 20.55 -65.0 20.3 -65.0 19.55 -65.5 19.05 -67.5 19.0 M-76.3 21.5 Q-77.25 22.45 -77.25 23.0 L-77.1 24.5 -75.85 24.55 -74.85 23.15 -73.75 21.5 -71.7 21.0 -69.35 20.55 -69.35 18.5 -73.1 18.3 -73.4 18.9 -73.75 19.5 -75.25 19.8 Q-75.3 20.5 -76.3 21.5 M-22.8 1.05 Q-22.75 3.9 -24.6 6.15 -25.65 7.4 -28.8 9.75 L-27.35 9.95 -26.5 10.0 Q-24.35 9.35 -22.95 7.1 -21.8 5.15 -21.8 3.55 L-22.05 2.5 Q-22.35 1.55 -22.8 1.05 M-30.0 -19.5 L-29.35 -20.3 Q-28.75 -21.0 -28.75 -21.75 -28.75 -22.5 -29.15 -23.25 L-29.85 -24.35 -34.0 -24.5 Q-35.0 -23.5 -35.0 -22.25 -35.0 -21.45 -34.65 -20.75 L-34.0 -19.6 -30.0 -19.5 M-3.75 -38.25 L-3.75 -38.35 -2.55 -38.6 -2.55 -39.75 -3.45 -39.85 Q-3.8 -39.85 -3.8 -39.05 L-3.75 -38.25 M-8.0 -37.5 L-8.0 -37.6 Q-8.0 -38.5 -8.3 -39.0 L-10.2 -39.4 -12.75 -39.75 -13.25 -37.85 -8.0 -37.5 M-49.6 -3.1 L-54.6 -0.55 -58.85 2.0 Q-59.55 2.35 -59.5 3.8 L-59.35 5.75 Q-59.35 6.05 -60.1 7.5 L-60.85 9.25 -59.6 9.3 -59.6 9.25 Q-60.05 6.25 -55.25 3.2 L-46.5 -1.25 -37.0 -6.05 Q-31.7 -8.65 -26.35 -10.35 L-25.75 -11.35 -25.25 -12.1 Q-32.5 -11.65 -39.7 -8.25 L-49.6 -3.1" fill="#007b25" fill-rule="evenodd" stroke="none"/>
    <path d="M67.8 21.1 Q66.8 26.45 61.8 31.3 55.3 39.4 41.85 37.95 28.35 36.5 1.3 43.45 -25.75 50.45 -49.4 56.0 -73.05 61.5 -76.0 60.75 -76.25 53.45 -69.45 48.7 L-68.05 48.4 -67.5 51.5 -65.8 49.5 -64.45 49.95 -58.5 48.0 -58.55 49.8 -57.85 50.45 -56.4 50.05 -56.25 46.9 Q-53.75 44.8 -50.45 44.75 L-48.8 44.85 -48.0 49.5 -47.0 46.5 -39.5 43.0 -39.25 45.95 -38.75 45.75 -37.75 42.25 -29.0 42.65 -28.5 46.5 -27.3 43.0 -21.0 40.5 -20.6 43.1 -20.1 42.75 -19.5 39.5 Q-18.2 37.8 -16.25 37.35 L-15.0 37.35 Q-15.2 40.3 -12.55 40.8 -10.5 40.95 -8.6 39.9 -8.9 34.1 -4.45 31.1 L-2.0 29.5 -2.0 31.15 -2.0 35.0 -0.2 34.95 Q-0.5 32.8 0.6 31.0 1.6 29.35 3.65 28.75 L4.55 28.5 4.8 33.5 5.3 33.15 6.25 25.9 Q10.4 24.45 14.7 26.0 L15.05 30.0 17.3 28.75 16.5 21.95 Q18.1 20.3 20.35 19.65 L24.1 19.55 23.65 23.65 24.75 24.3 25.65 23.85 25.9 21.05 32.55 20.0 31.05 23.0 32.0 23.5 33.55 22.95 Q37.15 21.0 39.35 19.1 L48.7 18.2 Q54.5 13.6 53.5 6.3 L53.25 4.55 52.55 3.75 52.5 3.2 54.2 1.3 Q64.25 4.9 69.15 14.05 L68.3 14.25 66.3 12.05 65.35 12.95 65.3 14.35 66.45 15.75 67.8 21.1" fill="#b6b445" fill-rule="evenodd" stroke="none"/>
    <path d="M20.9 -35.8 L16.0 -35.0 Q5.4 -32.7 0.75 -29.75 -3.5 -27.05 -4.4 -26.5 -7.75 -24.6 -9.05 -24.6 L-12.3 -24.75 -12.3 -27.35 Q-7.9 -29.55 0.25 -32.75 5.5 -34.85 9.35 -35.9 14.4 -37.25 19.35 -37.6 L19.6 -37.85 Q24.9 -37.5 28.5 -36.5 L34.75 -34.25 34.75 -33.85 31.1 -35.05 Q27.05 -36.25 23.75 -36.25 L20.9 -35.8 M10.5 -37.75 L9.85 -37.25 9.1 -37.25 9.25 -37.85 9.35 -39.1 Q9.35 -39.85 8.1 -40.5 L6.25 -41.6 4.25 -41.25 2.25 -41.35 Q2.25 -41.95 2.6 -42.85 L2.75 -43.25 7.75 -42.85 9.75 -41.75 Q10.75 -41.1 10.75 -40.55 L10.5 -37.75 M-49.6 -3.1 L-39.7 -8.25 Q-32.5 -11.65 -25.25 -12.1 L-25.75 -11.35 -26.35 -10.35 Q-31.7 -8.65 -37.0 -6.05 L-46.5 -1.25 -55.25 3.2 Q-60.05 6.25 -59.6 9.25 L-59.6 9.3 -60.85 9.25 -60.1 7.5 Q-59.35 6.05 -59.35 5.75 L-59.5 3.8 Q-59.55 2.35 -58.85 2.0 L-54.6 -0.55 -49.6 -3.1 M-8.0 -37.5 L-13.25 -37.85 -12.75 -39.75 -10.2 -39.4 -8.3 -39.0 Q-8.0 -38.5 -8.0 -37.6 L-8.0 -37.5 M-3.75 -38.25 L-3.8 -39.05 Q-3.8 -39.85 -3.45 -39.85 L-2.55 -39.75 -2.55 -38.6 -3.75 -38.35 -3.75 -38.25 M-30.0 -19.5 L-34.0 -19.6 -34.65 -20.75 Q-35.0 -21.45 -35.0 -22.25 -35.0 -23.5 -34.0 -24.5 L-29.85 -24.35 -29.15 -23.25 Q-28.75 -22.5 -28.75 -21.75 -28.75 -21.0 -29.35 -20.3 L-30.0 -19.5 M-22.8 1.05 Q-22.35 1.55 -22.05 2.5 L-21.8 3.55 Q-21.8 5.15 -22.95 7.1 -24.35 9.35 -26.5 10.0 L-27.35 9.95 -28.8 9.75 Q-25.65 7.4 -24.6 6.15 -22.75 3.9 -22.8 1.05 M-76.3 21.5 Q-75.3 20.5 -75.25 19.8 L-73.75 19.5 -73.4 18.9 -73.1 18.3 -69.35 18.5 -69.35 20.55 -71.7 21.0 -73.75 21.5 -74.85 23.15 -75.85 24.55 -77.1 24.5 -77.25 23.0 Q-77.25 22.45 -76.3 21.5 M-67.5 19.0 L-65.5 19.05 -65.0 19.55 -65.0 20.3 -65.25 20.55 -65.5 21.0 -67.5 20.8 -67.5 19.0 M-61.85 21.0 L-61.85 22.05 -63.1 22.0 -63.1 20.8 -61.85 21.0" fill="#74d87e" fill-rule="evenodd" stroke="none"/>
  </g>
</svg>
