<?xml version="1.0" encoding="UTF-8" standalone="no"?>
<svg xmlns:xlink="http://www.w3.org/1999/xlink" height="86.3px" width="113.25px" xmlns="http://www.w3.org/2000/svg">
  <g transform="matrix(1.0, 0.0, 0.0, 1.0, 93.5, 42.55)">
    <path d="M-89.75 -5.8 L-89.95 -5.4 -93.5 -5.65 -92.35 -8.1 -80.45 -33.8 -77.25 -35.15 -66.7 -27.65 -58.7 -36.15 -52.9 -42.45 -49.3 -42.55 -34.05 -28.4 -17.0 -37.65 -14.05 -36.55 -9.1 -17.65 11.0 -11.9 12.75 -9.15 6.0 6.55 7.25 8.15 19.75 23.25 19.75 24.9 0.7 43.75 -0.65 43.7 -0.65 40.9 -0.65 40.7 8.05 32.35 16.25 24.4 10.0 17.3 2.2 7.55 9.15 -9.4 -11.55 -15.25 Q-12.95 -20.6 -16.85 -33.55 L-33.4 -24.65 -35.0 -24.8 Q-39.6 -29.55 -50.8 -38.65 -57.95 -32.65 -64.85 -25.4 L-67.85 -25.0 -77.35 -31.15 -89.25 -6.75 -89.75 -5.8" fill="#000000" fill-rule="evenodd" stroke="none"/>
    <path d="M-0.65 40.9 Q-1.3 40.7 -1.35 40.0 L-1.4 37.95 -1.3 33.3 -1.1 21.3 -1.15 18.4 Q-3.3 7.4 -7.05 0.2 -10.85 -7.05 -14.6 -10.55 -18.4 -14.05 -20.85 -15.2 -24.65 -17.0 -28.6 -18.45 L-36.3 -21.1 -42.75 -22.7 -47.3 -23.6 -54.3 -23.35 -62.95 -21.7 Q-64.95 -21.35 -66.8 -20.5 -70.9 -18.7 -74.6 -16.3 -82.05 -11.7 -88.5 -5.9 L-89.75 -5.8 -89.25 -6.75 -77.35 -31.15 -67.85 -25.0 -64.85 -25.4 Q-57.95 -32.65 -50.8 -38.65 -39.6 -29.55 -35.0 -24.8 L-33.4 -24.65 -16.85 -33.55 Q-12.95 -20.6 -11.55 -15.25 L9.15 -9.4 2.2 7.55 10.0 17.3 16.25 24.4 8.05 32.35 -0.65 40.7 -0.65 40.9" fill="url(#gradient0)" fill-rule="evenodd" stroke="none"/>
    <path d="M-88.4 -7.05 Q-83.45 -19.15 -77.4 -30.65 L-75.4 -29.45 Q-75.75 -28.5 -77.65 -25.65 -79.55 -22.8 -87.0 -7.05 L-88.4 -7.05 M-49.85 -36.7 Q-52.25 -34.9 -62.2 -24.45 L-63.3 -24.9 -63.3 -26.0 -51.9 -38.0 -50.65 -38.05 -49.85 -36.7 M-7.75 -13.5 L8.05 -8.6 Q3.3 1.55 2.35 5.7 1.2 5.55 0.9 4.95 L6.25 -7.75 -7.4 -12.55 -7.75 -13.5 M-16.75 -33.15 L-16.75 -31.5 -30.55 -23.8 -32.0 -23.9 -31.15 -24.85 -29.55 -26.2 Q-24.15 -30.2 -18.25 -33.25 L-16.75 -33.15 M14.0 24.35 L2.0 38.25 -0.25 38.15 13.25 23.25 14.0 24.35" fill="#ec8494" fill-rule="evenodd" stroke="none"/>
  </g>
  <defs>
    <radialGradient cx="0" cy="0" gradientTransform="matrix(0.0973, 0.0, 0.0, 0.0973, -52.45, 38.2)" gradientUnits="userSpaceOnUse" id="gradient0" r="819.2" spreadMethod="pad">
      <stop offset="0.49411764705882355" stop-color="#007b25"/>
      <stop offset="0.8588235294117647" stop-color="#9c2917"/>
      <stop offset="1.0" stop-color="#ed657d"/>
    </radialGradient>
  </defs>
</svg>
