<?xml version="1.0" encoding="UTF-8" standalone="no"?>
<svg xmlns:xlink="http://www.w3.org/1999/xlink" height="105.6px" width="148.15px" xmlns="http://www.w3.org/2000/svg">
  <g transform="matrix(1.0, 0.0, 0.0, 1.0, 78.55, 56.55)">
    <path d="M4.5 -49.35 L5.2 -49.3 Q6.3 -49.85 7.4 -49.8 L5.65 -48.6 5.65 -48.55 5.35 -48.4 4.6 -47.95 Q3.9 -47.5 3.2 -47.2 L2.4 -46.75 2.05 -46.75 1.6 -46.65 1.8 -46.75 1.5 -46.8 1.55 -46.95 4.0 -49.1 4.5 -49.35 M-0.15 -46.05 L0.35 -46.25 -2.35 -43.65 Q-5.05 -41.25 -8.15 -39.4 L-8.85 -39.45 -8.2 -40.05 Q-7.15 -41.05 -7.0 -41.75 L-5.25 -43.0 -0.15 -46.05 M-11.95 -39.8 Q0.1 -52.7 17.3 -55.7 42.95 -59.95 62.55 -43.2 67.65 -38.9 69.6 -32.55 67.5 -37.15 64.25 -40.7 59.9 -45.4 53.9 -47.7 L54.05 -45.65 Q50.65 -42.3 46.15 -43.55 40.85 -44.9 36.0 -47.7 L35.4 -52.0 42.9 -52.9 39.35 -54.15 38.6 -55.0 32.75 -55.65 31.0 -55.85 31.0 -54.65 28.4 -54.75 28.4 -55.05 28.5 -55.7 27.35 -55.85 23.7 -55.75 22.5 -55.75 22.45 -54.85 19.15 -54.0 18.5 -54.4 18.75 -53.7 17.55 -54.5 15.05 -54.2 11.45 -53.3 10.0 -52.9 10.0 -51.25 8.75 -50.55 8.6 -50.8 6.55 -50.85 6.25 -50.9 3.15 -49.35 Q0.1 -47.9 -2.55 -45.75 L-3.45 -45.15 -5.6 -43.65 -7.6 -42.1 -11.95 -39.8 M20.25 -53.5 L19.9 -53.45 19.0 -53.55 20.25 -53.5 M16.0 -53.9 L16.0 -53.0 15.5 -52.65 14.75 -52.15 11.9 -52.25 11.5 -52.5 11.55 -52.5 Q12.25 -53.0 13.45 -53.1 15.15 -53.25 16.0 -53.9 M9.55 -50.4 L14.5 -51.05 Q16.35 -51.1 16.25 -49.0 L16.5 -48.5 Q17.95 -48.3 18.0 -50.0 L19.0 -50.25 24.5 -50.7 Q27.65 -50.9 29.05 -49.55 29.8 -48.8 29.95 -47.5 30.25 -44.9 28.0 -44.05 L24.45 -42.65 23.7 -42.4 21.7 -42.1 16.0 -41.05 15.5 -41.0 Q16.05 -44.05 14.0 -44.55 L12.0 -44.95 Q9.45 -45.45 7.65 -46.3 L6.95 -46.95 6.7 -47.55 Q6.25 -49.7 8.45 -50.15 L9.55 -50.4 M34.05 -43.8 L39.0 -44.25 Q40.0 -44.25 40.6 -43.6 41.0 -43.25 41.55 -43.1 42.6 -42.85 42.7 -41.5 L42.75 -40.5 42.7 -39.95 42.25 -38.7 41.95 -38.4 38.5 -38.0 37.5 -37.9 Q34.65 -37.55 33.15 -40.1 L32.45 -41.5 32.2 -42.5 Q32.15 -43.6 33.5 -43.7 L34.05 -43.8 M26.55 -35.3 L28.6 -35.2 29.5 -34.95 Q32.05 -34.6 34.1 -33.75 L37.5 -32.0 Q40.95 -29.9 43.55 -27.55 46.95 -24.45 48.0 -20.5 L47.4 -20.15 48.25 -20.0 49.85 -19.75 51.05 -18.9 51.6 -18.0 51.6 -13.85 48.85 -14.0 48.35 -14.85 Q44.05 -16.0 43.35 -16.6 43.0 -16.9 43.0 -18.55 43.0 -19.3 43.3 -19.8 L43.6 -20.35 46.45 -20.25 45.75 -20.75 45.0 -21.1 43.0 -21.3 36.5 -21.4 Q35.65 -21.35 35.25 -20.65 L34.6 -19.9 Q32.95 -18.45 31.5 -17.5 L36.0 -18.1 Q38.8 -18.3 40.5 -17.5 42.0 -16.75 43.1 -14.55 L43.45 -13.95 45.0 -12.0 Q43.3 -11.2 40.5 -11.4 L37.05 -11.3 36.45 -11.1 Q34.6 -10.2 34.0 -8.0 L33.35 -6.05 32.95 -5.7 29.45 -5.8 Q27.85 -6.15 27.75 -4.5 L27.5 -4.0 Q24.45 -1.45 21.85 1.35 L18.9 3.9 12.0 8.0 Q10.7 8.7 9.05 9.1 L8.45 9.25 8.0 9.3 5.5 9.6 Q4.85 9.65 4.45 10.05 L2.5 9.85 1.0 9.7 -1.55 9.15 Q-3.95 8.15 -6.5 7.5 -7.9 7.15 -8.7 6.15 L-9.5 5.45 -11.05 4.65 -11.95 4.35 -12.4 3.95 Q-13.1 2.4 -14.0 3.5 -14.65 4.35 -16.5 4.1 L-19.1 4.2 Q-19.95 -0.65 -20.0 -5.5 -20.05 -7.85 -20.4 -10.0 -20.65 -11.85 -19.15 -13.15 L-18.35 -13.8 -14.55 -16.55 Q-13.05 -17.55 -12.25 -18.85 L-11.55 -19.55 Q-4.5 -24.6 2.1 -28.3 L2.95 -28.65 Q5.4 -29.65 6.7 -30.75 L7.45 -31.15 Q7.75 -31.25 8.05 -31.45 9.5 -32.55 11.5 -32.7 12.85 -32.8 14.1 -33.3 L14.95 -33.6 16.05 -33.9 Q20.75 -35.15 26.0 -35.25 L26.55 -35.3 M3.0 -41.7 L7.5 -41.3 8.0 -41.05 Q9.15 -40.15 8.9 -38.0 8.8 -36.7 7.95 -36.05 L5.5 -34.0 3.2 -33.45 -0.55 -32.75 Q-2.2 -32.45 -3.6 -33.3 L-4.5 -33.45 Q-5.85 -33.4 -6.5 -34.0 -5.85 -35.3 -4.15 -36.7 L-2.85 -37.85 0.85 -41.15 Q1.5 -41.75 2.5 -41.75 L3.0 -41.7 M61.6 -31.9 L60.95 -31.0 Q59.8 -28.95 57.5 -27.5 57.25 -27.75 57.0 -27.5 L56.95 -27.45 Q53.9 -27.2 52.25 -28.75 L51.85 -29.45 50.85 -32.45 50.65 -33.05 Q49.4 -36.3 50.35 -39.55 L50.65 -40.45 51.05 -40.9 Q53.05 -41.75 55.5 -41.5 58.25 -41.2 59.7 -39.15 L60.3 -38.35 61.1 -37.05 61.3 -36.5 Q61.4 -35.1 61.85 -33.95 62.3 -32.8 61.6 -31.9 M54.05 -22.25 L54.25 -21.05 54.2 -20.25 53.85 -20.1 51.35 -20.1 50.9 -20.55 50.85 -21.6 Q50.85 -22.75 51.0 -23.0 L53.5 -22.85 54.05 -22.25 M56.75 -18.0 L58.25 -9.95 59.1 -10.65 59.45 -11.05 Q60.2 -12.35 60.1 -13.85 62.4 -14.15 63.05 -12.15 64.75 -7.2 61.85 -2.75 L58.35 -2.75 58.3 -3.8 57.1 -4.0 55.7 -5.05 54.75 -8.25 56.6 -9.1 52.85 -10.5 52.75 -17.6 56.75 -18.0 M-0.9 -43.25 L-0.9 -41.15 -2.65 -39.9 -2.9 -39.75 -3.65 -39.65 -5.0 -39.75 -5.05 -40.65 -3.95 -41.95 -2.25 -43.25 -0.9 -43.25 M-17.8 -32.9 Q-17.0 -34.6 -15.05 -36.05 -13.15 -37.4 -10.45 -37.7 L-9.55 -37.45 Q-8.5 -36.75 -8.3 -35.0 -8.2 -33.95 -8.8 -33.6 L-9.2 -33.1 -9.4 -32.7 -9.95 -32.0 -10.65 -31.15 Q-11.5 -30.75 -12.5 -30.75 L-13.05 -30.7 -15.1 -30.8 -15.95 -31.15 -17.75 -32.25 Q-18.0 -32.5 -17.8 -32.9 M-23.4 -14.05 L-25.45 -13.35 -26.05 -13.1 Q-27.4 -12.4 -29.5 -12.65 -30.25 -12.75 -30.9 -13.15 -33.15 -14.45 -35.0 -15.0 -36.5 -15.5 -36.15 -17.55 -36.0 -18.5 -36.0 -19.5 -35.3 -18.7 -34.0 -18.5 L-31.9 -18.2 -31.0 -18.1 Q-28.5 -18.5 -26.0 -19.55 -22.15 -21.15 -18.05 -22.15 -17.1 -22.4 -16.75 -22.75 L-16.05 -23.15 -14.0 -24.0 Q-16.1 -21.05 -20.05 -18.1 -20.95 -17.45 -21.15 -16.55 L-21.5 -16.0 -23.0 -14.5 -23.4 -14.05 M-25.55 -8.7 Q-23.8 -8.95 -23.9 -7.5 -24.0 -6.35 -24.7 -5.7 L-25.15 -5.35 -26.5 -5.1 Q-29.7 -4.55 -28.85 -7.95 L-28.45 -8.3 -25.55 -8.7 M-26.15 -1.25 L-25.45 -0.55 Q-25.0 0.0 -24.9 1.0 L-24.5 2.85 Q-24.7 4.8 -25.35 6.55 L-25.65 7.45 -26.05 7.95 Q-27.0 8.75 -29.0 8.6 L-31.95 8.3 -32.35 7.95 Q-33.2 5.45 -32.95 2.5 -32.55 -2.2 -27.0 -1.55 -26.5 -1.5 -26.15 -1.25" fill="#003e10" fill-rule="evenodd" stroke="none"/>
    <path d="M8.75 -50.55 L8.65 -50.4 Q5.85 -50.1 4.5 -49.35 L4.0 -49.1 1.55 -46.95 1.25 -46.75 -0.15 -46.05 -5.25 -43.0 -7.0 -41.75 Q-7.15 -41.05 -8.2 -40.05 L-8.85 -39.45 -10.25 -38.25 -10.4 -38.15 -11.05 -38.05 -12.8 -38.15 -12.8 -39.25 -11.95 -39.8 -7.6 -42.1 -7.5 -42.1 -5.6 -43.65 -3.45 -45.15 -3.25 -45.3 Q-2.95 -45.45 -2.55 -45.75 0.1 -47.9 3.15 -49.35 L6.25 -50.9 6.55 -50.85 8.6 -50.8 8.75 -50.55 M39.35 -54.15 L39.35 -53.55 Q36.85 -53.75 36.15 -54.15 35.4 -54.65 33.25 -54.8 L33.25 -55.15 32.25 -55.25 Q31.55 -55.35 32.75 -55.65 L38.6 -55.0 39.35 -54.15 M28.4 -55.05 L23.35 -55.0 Q23.15 -55.15 23.15 -55.75 L23.7 -55.75 27.35 -55.85 28.5 -55.7 28.4 -55.05 M22.45 -54.85 L22.9 -55.05 22.15 -54.1 Q21.45 -53.5 21.0 -53.5 L20.25 -53.5 19.0 -53.55 18.75 -53.55 18.75 -53.7 18.5 -54.4 19.15 -54.0 22.45 -54.85 M15.05 -54.2 L16.4 -54.3 16.0 -53.9 Q15.15 -53.25 13.45 -53.1 12.25 -53.0 11.55 -52.5 11.0 -52.2 10.75 -51.75 L10.25 -51.75 Q10.25 -52.7 11.45 -53.3 L15.05 -54.2 M-16.25 -38.25 L-14.75 -38.15 -14.75 -37.0 -15.15 -36.65 -16.55 -36.65 -16.55 -38.05 -16.25 -38.25" fill="#74d87e" fill-rule="evenodd" stroke="none"/>
    <path d="M7.7 -19.6 Q10.6 -19.8 13.65 -20.7 26.9 -20.85 27.4 -19.45 L27.55 -17.45 27.5 -14.55 27.1 -11.6 Q26.7 -9.35 25.85 -7.4 23.95 -2.7 20.05 0.4 17.55 2.25 14.6 3.45 9.85 5.1 4.8 5.25 -0.35 5.4 -5.0 3.65 -9.1 2.1 -12.45 -0.6 L-14.0 -1.75 -11.3 -5.5 -14.65 -5.1 Q-19.25 -5.1 -20.8 -6.85 -23.85 -10.35 -26.0 -11.6 L-26.0 -12.35 Q-23.45 -12.25 -20.7 -11.15 -17.2 -9.8 -16.25 -9.6 L-14.05 -9.6 -4.3 -15.25 Q-1.65 -16.75 0.8 -17.5 5.35 -19.4 7.7 -19.6 M6.5 -7.35 L5.9 -7.45 4.65 -8.7 Q3.5 -9.7 3.25 -10.35 L2.3 -11.75 1.85 -12.7 Q-0.65 -10.8 -2.7 -8.5 L-5.05 -5.6 1.0 -5.4 Q4.7 -5.6 8.05 -6.95 11.35 -8.25 14.1 -10.55 17.05 -12.9 19.15 -16.0 L20.25 -17.6 12.05 -17.25 Q8.5 -16.45 5.35 -14.85 L6.6 -11.5 7.35 -7.5 6.5 -7.35 M7.2 -2.75 L6.85 -3.8 6.7 -3.75 6.55 -4.1 5.7 -4.0 5.5 -3.65 0.1 -2.95 0.3 1.75 5.4 2.3 5.0 2.35 4.85 2.55 Q4.95 2.75 6.85 2.55 L6.85 2.6 7.0 3.05 8.55 2.9 8.5 2.6 8.9 2.6 7.9 -0.55 7.75 -1.15 7.2 -2.75 M18.35 -4.2 L16.2 -6.4 14.9 -6.95 14.3 -6.7 14.0 -6.7 13.85 -6.5 8.95 -4.15 11.2 2.1 14.55 0.45 16.35 -0.75 16.85 -0.85 17.45 -1.5 Q17.85 -2.0 19.15 -2.15 L18.95 -3.15 19.1 -3.35 18.85 -3.6 18.85 -3.65 18.4 -4.15 18.35 -4.2 M24.2 -17.4 L24.05 -17.8 23.8 -17.3 23.2 -17.25 Q22.9 -15.9 22.95 -15.65 L22.05 -13.9 24.25 -13.3 24.8 -15.65 24.8 -15.7 24.6 -16.75 Q24.3 -16.95 24.2 -17.4 M22.1 -8.55 L22.05 -8.25 22.55 -8.3 Q23.55 -9.75 23.4 -10.65 L22.75 -11.45 21.75 -12.45 21.35 -12.45 Q20.15 -12.15 20.15 -11.65 L20.3 -11.35 17.85 -8.2 20.95 -6.05 22.1 -8.55 M22.75 -9.85 L22.4 -9.05 22.3 -8.9 22.75 -9.85 M-2.85 -2.8 L-9.0 -2.85 -9.9 -1.75 -3.5 0.55 Q-4.55 0.9 -3.95 0.9 L-3.35 1.2 Q-2.9 1.45 -2.75 1.6 L-1.4 1.45 -1.05 -0.8 -1.3 -2.1 -1.25 -2.8 -1.45 -2.85 -1.5 -3.0 -2.45 -2.8 -2.85 -2.8" fill="#000000" fill-rule="evenodd" stroke="none"/>
    <path d="M6.5 -7.35 L7.35 -7.5 6.6 -11.5 5.35 -14.85 Q8.5 -16.45 12.05 -17.25 L20.25 -17.6 19.15 -16.0 Q17.05 -12.9 14.1 -10.55 11.35 -8.25 8.05 -6.95 4.7 -5.6 1.0 -5.4 L-5.05 -5.6 -2.7 -8.5 Q-0.65 -10.8 1.85 -12.7 L2.3 -11.75 3.25 -10.35 Q3.5 -9.7 4.65 -8.7 L5.9 -7.45 6.5 -7.35" fill="#ffcc00" fill-rule="evenodd" stroke="none"/>
    <path d="M7.2 -2.75 L7.75 -1.15 7.9 -0.55 8.5 2.6 8.55 2.9 7.0 3.05 6.85 2.6 6.85 2.55 Q4.95 2.75 4.85 2.55 L5.0 2.35 5.4 2.3 6.2 2.1 6.8 1.8 6.8 1.05 5.55 -2.6 5.5 -3.65 5.7 -4.0 6.55 -4.1 6.7 -3.75 7.2 -2.75 M14.3 -6.7 Q15.7 -6.5 16.9 -5.6 L18.35 -4.2 18.4 -4.15 18.85 -3.65 18.85 -3.6 18.95 -3.15 19.15 -2.15 Q17.85 -2.0 17.45 -1.5 L16.85 -0.85 16.35 -0.75 16.15 -0.75 16.3 -1.3 Q16.45 -1.85 17.15 -2.15 L14.4 -4.2 Q12.0 -5.75 12.9 -5.95 13.75 -6.25 13.85 -6.5 L14.0 -6.7 14.3 -6.7 M23.8 -17.3 L24.2 -17.4 Q24.3 -16.95 24.6 -16.75 L24.8 -15.7 24.05 -15.55 24.0 -15.85 Q23.7 -15.9 23.7 -15.75 L22.95 -15.65 Q22.9 -15.9 23.2 -17.25 L23.8 -17.3 M20.3 -11.35 L20.15 -11.65 Q20.15 -12.15 21.35 -12.45 L21.75 -12.45 22.75 -11.45 23.4 -10.65 Q23.55 -9.75 22.55 -8.3 L22.05 -8.25 22.1 -8.55 22.3 -8.9 22.4 -9.05 22.75 -9.85 22.75 -10.0 Q22.25 -10.1 21.3 -10.65 L20.3 -11.35 M-3.5 0.55 L-3.0 0.35 Q-2.7 -1.95 -2.85 -2.8 L-2.45 -2.8 -1.5 -3.0 -1.45 -2.85 -1.3 -2.1 -1.05 -0.8 -1.4 1.45 -2.75 1.6 Q-2.9 1.45 -3.35 1.2 L-3.95 0.9 Q-4.55 0.9 -3.5 0.55" fill="#bd620f" fill-rule="evenodd" stroke="none"/>
    <path d="M6.7 -3.75 L6.85 -3.8 7.2 -2.75 6.7 -3.75 M7.9 -0.55 L8.9 2.6 8.5 2.6 7.9 -0.55 M5.4 2.3 L0.3 1.75 0.1 -2.95 5.5 -3.65 5.55 -2.6 6.8 1.05 6.8 1.8 6.2 2.1 5.4 2.3 M14.3 -6.7 L14.9 -6.95 16.2 -6.4 18.35 -4.2 16.9 -5.6 Q15.7 -6.5 14.3 -6.7 M18.85 -3.6 L19.1 -3.35 18.95 -3.15 18.85 -3.6 M16.35 -0.75 L14.55 0.45 11.2 2.1 8.95 -4.15 13.85 -6.5 Q13.75 -6.25 12.9 -5.95 12.0 -5.75 14.4 -4.2 L17.15 -2.15 Q16.45 -1.85 16.3 -1.3 L16.15 -0.75 16.35 -0.75 M23.8 -17.3 L24.05 -17.8 24.2 -17.4 23.8 -17.3 M24.8 -15.7 L24.8 -15.65 24.25 -13.3 22.05 -13.9 22.95 -15.65 23.7 -15.75 Q23.7 -15.9 24.0 -15.85 L24.05 -15.55 24.8 -15.7 M22.1 -8.55 L20.95 -6.05 17.85 -8.2 20.3 -11.35 21.3 -10.65 Q22.25 -10.1 22.75 -10.0 L22.75 -9.85 22.3 -8.9 22.1 -8.55 M-3.5 0.55 L-9.9 -1.75 -9.0 -2.85 -2.85 -2.8 Q-2.7 -1.95 -3.0 0.35 L-3.5 0.55 M-1.45 -2.85 L-1.25 -2.8 -1.3 -2.1 -1.45 -2.85" fill="#662600" fill-rule="evenodd" stroke="none"/>
    <path d="M42.1 5.55 Q40.4 8.7 40.25 11.8 L40.35 12.25 Q40.7 13.65 43.05 11.65 43.55 10.1 43.45 9.15 L42.1 5.55 M43.35 4.25 Q46.1 8.7 44.15 13.3 L43.5 14.5 38.0 14.3 Q37.7 9.0 41.65 2.05 L43.35 4.25 M31.85 11.25 L32.0 12.3 33.65 13.1 35.15 12.9 35.45 12.5 Q36.15 9.35 34.95 6.5 L34.35 5.4 Q32.85 7.25 32.45 9.05 L31.85 11.25 M34.85 1.7 Q38.75 8.35 36.15 14.0 35.9 14.5 35.35 14.5 L31.0 14.8 Q30.1 13.65 29.95 12.2 29.8 10.7 30.55 8.2 31.25 5.65 32.65 4.2 L34.85 1.7 M21.4 14.95 L21.0 15.5 17.75 16.45 14.35 17.5 Q15.05 21.15 14.5 28.45 L11.5 27.25 Q8.7 25.55 7.4 23.3 6.1 21.0 6.1 19.25 6.1 17.5 7.85 16.25 9.55 14.95 11.6 15.05 L12.1 15.1 Q12.0 13.8 13.0 10.25 13.95 6.65 16.35 2.7 L17.95 4.5 Q20.3 6.9 21.05 9.5 21.5 11.0 21.5 13.75 L21.4 14.95 M17.1 6.65 Q14.0 12.4 14.35 14.3 L16.5 14.2 Q17.25 14.25 17.0 14.35 L17.75 14.2 18.2 14.1 18.2 14.05 Q19.5 13.5 19.55 12.6 19.55 11.65 18.75 9.9 L17.1 6.65 M8.6 19.95 Q8.6 21.1 9.15 22.25 9.7 23.35 12.5 25.4 L12.6 21.5 Q12.6 19.0 12.1 18.0 L9.85 18.25 Q8.55 18.75 8.6 19.95 M0.0 23.65 Q0.0 25.45 -0.8 27.0 -1.85 29.0 -4.0 29.5 L-6.5 29.3 -7.75 28.0 -8.0 26.85 Q-8.0 23.75 -6.95 19.1 -6.1 15.4 -5.45 13.9 -2.2 16.7 -1.1 19.25 -0.05 21.8 0.0 23.65 M-5.65 20.7 Q-6.25 23.9 -6.1 24.75 L-5.75 26.1 -5.5 26.8 -4.25 26.75 Q-3.7 27.05 -2.85 25.75 -2.0 24.4 -2.0 22.7 -2.0 21.0 -2.7 19.6 L-4.55 17.05 Q-5.1 17.5 -5.65 20.7 M-22.25 23.5 Q-21.55 23.55 -19.25 28.15 -17.0 32.75 -17.0 34.4 -17.0 36.05 -21.0 38.5 L-25.0 38.3 -26.25 34.8 -26.6 32.0 Q-26.9 29.5 -23.55 22.4 L-22.25 23.5 M-29.4 28.5 Q-26.8 33.25 -26.8 34.15 L-26.9 36.9 Q-26.95 38.75 -28.05 39.65 -29.15 40.5 -30.5 40.5 L-35.2 40.3 -35.5 41.0 -39.25 40.8 -40.15 39.1 -40.35 39.3 -46.1 40.45 -47.3 44.4 -50.55 44.4 -52.1 41.95 -53.05 44.9 -57.15 45.2 -58.45 46.25 -59.2 46.7 Q-63.85 48.95 -67.55 46.9 L-68.1 46.5 -69.95 48.05 Q-70.4 48.4 -70.95 48.5 L-72.05 48.95 -73.55 49.05 -76.7 48.7 -78.3 48.3 Q-78.95 42.6 -78.05 37.05 -77.5 33.5 -76.3 30.3 L-75.4 28.05 -73.4 28.15 -71.9 31.05 Q-69.15 29.45 -64.65 30.8 L-62.9 25.05 -60.9 25.15 -59.4 32.25 -56.3 24.15 -54.55 24.3 -52.65 30.05 -52.3 28.15 -46.4 28.7 -44.4 23.55 -42.65 22.15 Q-40.8 25.8 -40.1 28.1 -38.65 27.75 -35.8 28.55 -33.0 29.3 -32.25 29.75 L-30.35 26.85 -29.4 28.5 M-29.4 34.15 L-30.55 31.55 -33.25 38.05 -33.3 38.3 Q-30.1 38.4 -29.4 37.75 -28.7 37.05 -28.75 36.4 -28.8 35.7 -29.4 34.15 M-23.5 35.8 L-22.0 35.75 Q-20.1 35.75 -19.7 34.7 -19.35 33.65 -20.2 31.2 -21.05 28.75 -23.05 27.05 L-24.55 31.5 -24.25 33.75 -23.5 35.8 M-34.25 31.5 L-39.25 30.55 Q-39.25 35.5 -38.75 38.5 L-38.85 38.65 -38.25 38.8 Q-36.85 38.8 -35.45 35.35 -34.45 32.8 -34.3 31.55 L-34.25 31.5 M-8.55 33.85 Q-8.6 36.8 -10.95 42.2 -13.75 39.35 -14.75 36.45 -15.8 33.5 -15.8 31.25 -15.8 28.95 -14.8 26.05 -12.4 24.9 -10.5 26.25 -9.05 27.9 -8.8 29.4 -8.55 30.85 -8.55 33.85 M-12.25 28.0 Q-13.8 29.0 -13.8 31.05 -13.8 32.8 -13.25 34.4 L-11.5 38.3 Q-10.3 36.05 -10.3 34.0 -10.3 32.85 -10.95 30.85 -11.6 28.75 -12.25 28.0 M-70.6 33.3 L-68.25 42.8 -65.9 33.3 Q-69.05 32.05 -70.6 33.3 M-72.9 46.9 Q-71.1 46.4 -70.05 44.8 L-74.65 33.3 -76.4 46.4 -75.65 46.65 -74.25 47.15 -72.9 46.9 M-65.15 43.4 Q-62.75 46.3 -59.4 43.3 L-61.9 31.15 -65.15 43.4 M-50.55 30.15 Q-51.35 36.15 -49.05 41.8 -47.2 36.05 -48.3 30.05 L-50.55 30.15 M-43.05 26.65 Q-46.35 32.05 -45.1 37.1 L-44.7 38.35 -42.9 37.8 -41.9 36.5 Q-40.9 33.45 -41.25 31.35 -41.65 29.2 -43.05 26.65 M-54.2 42.0 Q-53.55 35.1 -56.05 28.65 -58.55 34.65 -57.45 41.05 L-57.1 42.9 -54.2 42.0" fill="#000000" fill-rule="evenodd" stroke="none"/>
    <path d="M42.1 5.55 L43.45 9.15 Q43.55 10.1 43.05 11.65 40.7 13.65 40.35 12.25 L40.25 11.8 Q40.4 8.7 42.1 5.55 M31.85 11.25 L32.45 9.05 Q32.85 7.25 34.35 5.4 L34.95 6.5 Q36.15 9.35 35.45 12.5 L35.15 12.9 33.65 13.1 32.0 12.3 31.85 11.25 M8.6 19.95 Q8.55 18.75 9.85 18.25 L12.1 18.0 Q12.6 19.0 12.6 21.5 L12.5 25.4 Q9.7 23.35 9.15 22.25 8.6 21.1 8.6 19.95 M17.1 6.65 L18.75 9.9 Q19.55 11.65 19.55 12.6 19.5 13.5 18.2 14.05 L18.2 14.1 17.75 14.2 17.0 14.35 Q17.25 14.25 16.5 14.2 L14.35 14.3 Q14.0 12.4 17.1 6.65 M-5.65 20.7 Q-5.1 17.5 -4.55 17.05 L-2.7 19.6 Q-2.0 21.0 -2.0 22.7 -2.0 24.4 -2.85 25.75 -3.7 27.05 -4.25 26.75 L-5.5 26.8 -5.75 26.1 -6.1 24.75 Q-6.25 23.9 -5.65 20.7 M-34.25 31.5 L-34.3 31.55 Q-34.45 32.8 -35.45 35.35 -36.85 38.8 -38.25 38.8 L-38.85 38.65 -38.75 38.5 Q-39.25 35.5 -39.25 30.55 L-34.25 31.5 M-23.5 35.8 L-24.25 33.75 -24.55 31.5 -23.05 27.05 Q-21.05 28.75 -20.2 31.2 -19.35 33.65 -19.7 34.7 -20.1 35.75 -22.0 35.75 L-23.5 35.8 M-29.4 34.15 Q-28.8 35.7 -28.75 36.4 -28.7 37.05 -29.4 37.75 -30.1 38.4 -33.3 38.3 L-33.25 38.05 -30.55 31.55 -29.4 34.15 M-54.2 42.0 L-57.1 42.9 -57.45 41.05 Q-58.55 34.65 -56.05 28.65 -53.55 35.1 -54.2 42.0 M-43.05 26.65 Q-41.65 29.2 -41.25 31.35 -40.9 33.45 -41.9 36.5 L-42.9 37.8 -44.7 38.35 -45.1 37.1 Q-46.35 32.05 -43.05 26.65 M-50.55 30.15 L-48.3 30.05 Q-47.2 36.05 -49.05 41.8 -51.35 36.15 -50.55 30.15 M-65.15 43.4 L-61.9 31.15 -59.4 43.3 Q-62.75 46.3 -65.15 43.4 M-72.9 46.9 L-74.25 47.15 -75.65 46.65 -76.4 46.4 -74.65 33.3 -70.05 44.8 Q-71.1 46.4 -72.9 46.9 M-70.6 33.3 Q-69.05 32.05 -65.9 33.3 L-68.25 42.8 -70.6 33.3 M-12.25 28.0 Q-11.6 28.75 -10.95 30.85 -10.3 32.85 -10.3 34.0 -10.3 36.05 -11.5 38.3 L-13.25 34.4 Q-13.8 32.8 -13.8 31.05 -13.8 29.0 -12.25 28.0" fill="#ffffff" fill-rule="evenodd" stroke="none"/>
    <path d="M-71.6 20.55 L-69.85 18.5 Q-66.8 18.2 -65.9 19.25 -65.5 19.7 -65.5 20.8 -65.5 21.45 -66.15 22.6 -66.8 23.75 -67.5 24.35 L-69.75 25.35 -71.85 25.3 Q-72.6 24.65 -72.6 23.4 -72.6 21.9 -71.6 20.55" fill="#000000" fill-rule="evenodd" stroke="none"/>
    <path d="M-60.0 15.05 L-59.7 15.65 -59.65 17.15 -59.65 17.45 -60.05 18.7 Q-60.55 19.9 -62.0 20.8 L-63.55 20.75 -64.45 19.1 Q-65.2 18.05 -66.8 17.4 -68.95 17.6 -69.3 17.9 -69.7 18.3 -71.0 18.5 L-71.6 19.15 -71.75 19.6 -72.25 19.85 -73.85 19.8 -73.85 17.0 Q-73.45 16.95 -73.25 16.65 L-73.1 16.25 -72.2 16.0 -71.8 15.65 -69.65 14.3 -69.1 14.0 -68.35 13.6 -68.05 13.5 Q-66.35 12.7 -65.05 12.6 -63.1 12.45 -60.75 13.7 L-60.85 13.75 -60.85 15.05 -60.0 15.05 M-76.3 22.0 L-76.25 20.6 -74.35 20.6 Q-73.9 21.2 -73.9 21.45 -73.9 22.05 -74.05 22.2 L-75.0 23.1 -76.1 23.05 -76.3 22.0" fill="#003e10" fill-rule="evenodd" stroke="none"/>
    <path d="M-60.75 13.7 L-60.6 13.5 -59.25 13.55 -59.15 14.3 -59.2 14.85 -59.5 15.05 -60.0 15.05 -60.85 15.05 -60.85 13.75 -60.75 13.7 M-59.65 17.45 L-59.4 16.9 -59.15 16.95 Q-59.1 16.5 -58.9 16.5 L-58.9 16.95 -58.15 17.0 Q-58.0 17.35 -58.0 18.4 -58.0 19.8 -58.6 20.6 L-60.6 22.1 -62.4 22.1 -62.4 21.0 -62.0 20.8 Q-60.55 19.9 -60.05 18.7 L-59.65 17.45 M-63.9 21.5 L-63.85 22.05 Q-63.85 23.5 -64.8 24.55 L-65.35 25.55 Q-65.75 26.0 -67.55 26.55 L-68.8 26.5 Q-68.85 25.7 -67.65 24.9 -66.4 24.1 -66.3 23.55 L-65.8 23.4 -64.65 21.4 -63.9 21.5" fill="#74d87e" fill-rule="evenodd" stroke="none"/>
  </g>
</svg>
