<?xml version="1.0" encoding="UTF-8" standalone="no"?>
<svg xmlns:xlink="http://www.w3.org/1999/xlink" height="101.3px" width="182.85px" xmlns="http://www.w3.org/2000/svg">
  <g transform="matrix(1.0, 0.0, 0.0, 1.0, 0.0, 50.65)">
    <path d="M68.2 -29.05 L67.35 -26.8 66.6 -24.95 66.25 -24.1 Q65.15 -21.25 63.7 -19.1 62.6 -17.5 61.3 -16.3 L61.3 -16.75 64.8 -24.5 Q66.9 -29.05 68.7 -32.25 L69.3 -32.1 68.2 -29.05 M74.15 -24.85 L76.2 -28.6 81.0 -36.85 81.15 -36.7 81.3 -36.6 72.4 -19.15 72.1 -19.45 Q72.55 -21.65 74.15 -24.85 M85.1 -39.8 Q86.7 -39.2 88.95 -37.15 L89.45 -36.65 Q92.25 -33.95 92.75 -32.25 92.45 -31.95 91.9 -31.75 L91.35 -31.6 Q89.6 -32.1 86.2 -35.4 L85.85 -35.75 83.85 -37.8 Q83.05 -38.7 83.05 -39.0 83.05 -39.9 83.2 -39.9 L83.35 -40.05 85.1 -39.8 M112.25 -43.3 Q114.4 -42.2 116.9 -39.4 L118.2 -37.75 122.15 -32.85 121.3 -32.3 120.75 -32.1 Q118.5 -33.6 114.25 -37.55 L111.1 -40.6 Q109.5 -42.35 109.5 -43.0 109.5 -43.9 109.65 -43.95 L109.8 -44.05 109.85 -44.05 112.25 -43.3 M29.35 35.95 L29.25 35.65 29.25 35.3 Q30.1 32.95 36.7 30.75 L36.85 30.65 Q38.7 29.55 39.1 28.6 L40.0 26.2 Q40.7 24.6 41.85 24.05 45.05 24.05 47.1 24.95 49.05 25.75 49.05 27.0 L48.5 27.75 52.8 26.7 53.15 27.0 53.5 27.5 Q50.35 29.4 43.7 32.25 34.95 36.0 30.85 36.1 L30.6 36.1 29.35 35.95 M112.65 8.6 Q109.5 3.3 103.45 2.1 L103.05 2.0 102.55 1.5 80.4 7.75 Q78.65 3.4 80.05 -0.7 80.5 -2.1 81.95 -3.1 83.85 -4.5 86.25 -5.5 L87.35 -8.25 88.1 -9.2 82.7 -13.55 Q85.65 -17.45 91.1 -18.15 L93.25 -18.35 102.45 -20.5 108.95 -22.3 111.5 -22.85 119.4 -22.45 120.75 -22.2 120.75 -21.0 121.15 -20.1 Q121.8 -19.5 122.45 -19.55 138.4 -18.8 150.1 -7.9 158.6 0.1 162.4 11.0 163.1 13.0 164.55 14.65 L166.6 11.2 162.25 3.7 174.9 15.25 162.9 25.6 165.7 31.4 162.3 31.65 Q154.6 18.8 139.75 16.3 129.1 14.3 119.4 18.65 117.35 19.6 115.35 20.7 114.3 21.4 113.2 22.05 L114.15 19.75 Q115.95 14.6 113.3 9.75 L112.65 8.6 M141.55 -35.8 L141.45 -37.15 Q141.45 -38.1 141.8 -38.65 L142.35 -39.3 Q145.5 -36.15 147.2 -23.85 L147.0 -22.2 146.1 -21.15 Q145.1 -22.6 143.35 -28.55 L142.75 -30.6 Q141.8 -33.85 141.55 -35.8 M159.55 -0.75 L159.45 -2.1 160.8 -5.15 162.35 -8.35 Q163.05 -8.95 163.75 -11.75 164.1 -12.5 164.6 -12.75 L158.0 -13.55 Q154.55 -14.15 151.65 -16.6 L156.1 -15.45 Q161.25 -14.25 165.5 -13.8 L165.4 -12.9 166.8 -12.25 Q166.1 -9.3 164.4 -5.1 162.3 0.15 161.1 0.15 160.2 0.15 159.85 -0.2 L159.6 -0.55 159.55 -0.75 M87.9 35.95 L85.0 36.9 82.45 37.4 Q74.15 37.4 69.5 32.25 68.25 30.85 66.1 27.85 64.05 25.25 62.1 24.05 L62.4 23.15 Q64.5 22.9 67.4 24.9 L73.15 29.4 Q81.65 36.0 90.0 35.3 89.85 35.65 87.9 35.95 M8.95 43.85 L7.95 43.0 Q8.5 41.15 9.85 40.85 11.2 40.55 12.45 42.05 L10.75 42.9 8.95 43.85" fill="#fdfbed" fill-rule="evenodd" stroke="none"/>
    <path d="M68.2 -29.05 L69.3 -32.1 68.7 -32.25 Q66.9 -29.05 64.8 -24.5 L61.3 -16.75 61.3 -16.3 Q62.6 -17.5 63.7 -19.1 63.1 -16.85 61.95 -15.9 L64.85 -16.6 65.8 -16.6 67.35 -19.8 69.55 -26.25 Q69.85 -27.35 70.3 -27.75 70.6 -27.95 70.6 -28.55 70.55 -29.7 70.0 -30.3 68.85 -30.15 68.2 -29.05 M74.15 -24.85 Q72.55 -21.65 72.1 -19.45 L72.4 -19.15 81.3 -36.6 81.15 -36.7 81.0 -36.85 76.2 -28.6 83.2 -41.3 85.1 -39.8 83.35 -40.05 83.2 -39.9 Q83.05 -39.9 83.05 -39.0 83.05 -38.7 83.85 -37.8 82.8 -34.75 81.5 -32.6 79.2 -28.8 77.4 -24.55 L75.45 -20.35 74.4 -18.35 73.45 -16.15 Q76.95 -17.45 81.0 -18.6 81.55 -18.75 81.9 -19.05 L84.55 -21.55 Q86.9 -24.15 87.7 -27.45 88.05 -29.0 87.15 -29.45 L86.45 -30.0 85.9 -30.4 Q85.25 -30.8 85.65 -32.0 86.05 -33.3 85.9 -34.9 L85.85 -35.5 85.85 -35.75 86.2 -35.4 Q89.6 -32.1 91.35 -31.6 L91.9 -31.75 Q92.45 -31.95 92.75 -32.25 92.25 -33.95 89.45 -36.65 L94.8 -33.0 Q104.75 -42.4 108.3 -46.95 L112.25 -43.3 109.85 -44.05 109.8 -44.7 Q107.35 -42.2 104.6 -38.35 103.0 -36.1 101.4 -34.4 102.45 -33.85 104.0 -33.5 L104.65 -33.35 106.3 -32.9 108.15 -32.3 109.8 -31.9 Q111.95 -31.55 112.65 -32.6 111.05 -34.1 110.05 -36.15 109.8 -36.6 110.05 -36.75 L113.25 -38.35 112.65 -38.9 Q111.7 -39.7 111.1 -40.6 L114.25 -37.55 Q118.5 -33.6 120.75 -32.1 L121.3 -32.3 122.15 -32.85 118.2 -37.75 126.45 -30.1 143.35 -41.75 Q144.9 -36.55 147.4 -24.7 L148.15 -20.4 Q159.3 -16.55 168.8 -14.5 L169.7 -14.3 163.3 0.55 177.2 17.15 166.4 27.3 168.9 31.8 162.45 35.9 Q160.3 30.9 157.1 27.65 153.9 24.4 148.35 22.55 142.8 20.65 137.6 20.0 125.4 18.85 115.0 25.05 112.4 26.6 110.25 28.6 106.45 32.15 101.8 34.35 97.0 36.65 91.9 37.75 80.3 40.2 69.75 35.65 67.25 34.5 66.45 32.0 65.55 29.2 63.65 27.25 L60.8 27.3 49.2 31.55 33.7 36.8 Q26.55 39.1 20.1 42.85 17.85 40.9 15.1 41.65 14.15 41.8 13.35 42.3 10.65 44.1 8.1 46.1 L4.95 43.6 Q13.6 37.15 21.0 29.5 L26.6 23.1 Q29.25 19.85 32.8 17.65 35.0 16.35 37.45 16.9 L43.85 17.85 43.5 17.85 42.9 17.9 40.65 18.3 Q39.35 18.5 39.0 17.8 38.9 17.55 38.3 17.55 L37.05 17.65 Q35.65 17.9 35.0 19.05 L33.75 19.7 33.65 19.7 32.6 20.05 Q32.3 20.15 32.1 20.6 30.15 21.85 28.55 23.35 L24.9 27.2 24.05 28.1 Q19.85 32.15 16.5 36.05 L12.65 40.15 Q14.0 39.3 15.8 38.7 L16.45 38.55 18.65 38.1 19.35 37.95 Q21.6 37.45 22.65 39.2 L23.3 39.3 Q25.7 38.7 27.95 37.75 L29.8 36.8 30.75 36.3 30.85 36.1 Q34.95 36.0 43.7 32.25 50.35 29.4 53.5 27.5 L53.15 27.0 52.8 26.7 48.5 27.75 49.05 27.0 Q49.05 25.75 47.1 24.95 45.05 24.05 41.85 24.05 40.7 24.6 40.0 26.2 L39.1 28.6 Q38.7 29.55 36.85 30.65 L36.7 30.75 Q30.1 32.95 29.25 35.3 L29.25 35.65 29.35 35.95 29.1 35.9 Q26.65 35.85 27.4 32.55 27.65 31.4 28.2 30.4 29.55 27.85 31.45 26.25 35.25 23.15 39.0 21.15 42.0 19.55 45.8 19.55 48.1 19.55 49.15 20.55 L54.7 25.9 55.6 26.15 63.1 25.6 Q59.35 23.65 57.6 20.85 L57.15 19.9 56.95 19.25 56.6 18.2 Q56.2 16.65 55.25 15.55 55.05 15.25 54.55 15.05 53.45 14.5 53.3 12.95 53.2 12.0 54.45 12.05 55.05 12.1 55.4 11.65 L60.9 4.35 67.4 -4.8 68.55 -6.5 69.3 -7.4 70.75 -8.8 Q71.65 -9.6 70.05 -10.25 L69.4 -10.6 Q68.0 -11.55 65.4 -11.2 62.85 -10.9 61.25 -9.7 L57.2 -6.25 Q52.65 -2.05 49.75 2.5 L45.6 8.75 44.9 9.7 44.5 10.6 44.15 11.25 43.5 12.35 45.2 12.6 45.85 12.8 Q47.0 13.2 47.35 14.2 47.75 15.4 47.45 16.05 L39.75 13.35 Q46.15 4.2 56.15 -6.75 61.3 -12.45 63.5 -13.55 L62.95 -13.75 62.35 -13.9 61.65 -13.95 61.05 -13.85 60.35 -13.6 58.8 -12.7 69.1 -33.75 72.6 -31.85 Q72.05 -30.85 66.85 -16.3 L66.6 -15.5 65.6 -12.8 Q65.85 -12.95 65.95 -12.55 L67.0 -11.9 74.15 -24.85 M80.35 10.9 Q79.4 10.35 78.15 9.9 L77.45 9.6 Q73.7 7.6 73.7 3.7 73.7 1.8 75.0 0.65 L75.9 -0.2 77.95 -2.2 78.1 -2.6 Q77.05 -1.8 75.25 -0.85 L73.2 0.6 72.25 1.5 71.2 2.6 69.75 4.4 67.8 5.65 66.45 6.45 62.15 9.35 Q69.1 0.8 82.75 -7.75 L81.85 -8.1 78.55 -7.1 Q66.3 -3.2 60.15 7.75 59.9 8.15 59.8 8.6 L59.65 9.5 61.45 10.25 62.0 9.55 64.8 11.3 Q66.35 12.1 67.45 13.7 L67.7 14.65 67.7 15.25 68.15 15.3 65.1 14.9 Q60.0 12.95 54.75 13.4 L55.6 14.5 Q56.8 16.1 58.35 17.15 60.6 18.55 63.25 18.8 L60.3 18.85 60.15 20.65 66.6 22.85 67.5 21.8 Q68.8 24.65 72.6 27.45 79.6 32.65 90.15 32.65 100.4 32.65 105.3 24.6 108.15 19.9 108.3 15.75 108.5 10.35 104.1 7.45 L103.1 6.85 105.9 6.2 Q111.15 7.85 113.85 12.5 L114.05 12.85 Q113.9 11.1 113.3 9.75 115.95 14.6 114.15 19.75 L113.2 22.05 Q114.3 21.4 115.35 20.7 117.35 19.6 119.4 18.65 129.1 14.3 139.75 16.3 154.6 18.8 162.3 31.65 L165.7 31.4 162.9 25.6 174.9 15.25 162.25 3.7 166.6 11.2 164.55 14.65 Q163.1 13.0 162.4 11.0 158.6 0.1 150.1 -7.9 138.4 -18.8 122.45 -19.55 121.8 -19.5 121.15 -20.1 L120.75 -21.0 120.75 -22.2 119.4 -22.45 111.5 -22.85 108.95 -22.3 102.45 -20.5 93.25 -18.35 91.1 -18.15 Q85.65 -17.45 82.7 -13.55 L88.1 -9.2 87.35 -8.25 86.25 -5.5 Q83.85 -4.5 81.95 -3.1 80.5 -2.1 80.05 -0.7 78.65 3.4 80.4 7.75 L102.55 1.5 103.05 2.0 103.45 2.1 Q109.5 3.3 112.65 8.6 111.05 6.25 107.75 5.15 L104.75 4.15 100.1 3.8 Q96.3 4.55 92.6 6.05 86.55 8.15 80.8 10.7 L80.35 10.9 M141.55 -35.8 Q140.7 -34.6 139.05 -33.4 136.25 -31.4 133.35 -29.8 L132.45 -29.25 Q133.15 -28.0 134.55 -27.3 L135.1 -26.8 Q137.6 -23.4 141.5 -23.35 L141.0 -25.1 140.65 -26.1 Q139.6 -28.15 140.9 -29.15 L142.2 -30.05 142.7 -30.45 142.75 -30.6 143.35 -28.55 Q145.1 -22.6 146.1 -21.15 L147.0 -22.2 147.2 -23.85 Q145.5 -36.15 142.35 -39.3 L141.8 -38.65 Q141.45 -38.1 141.45 -37.15 L141.55 -35.8 M159.55 -0.75 L159.6 -0.55 159.85 -0.2 Q160.2 0.15 161.1 0.15 162.3 0.15 164.4 -5.1 166.1 -9.3 166.8 -12.25 L165.4 -12.9 165.5 -13.8 Q161.25 -14.25 156.1 -15.45 L151.65 -16.6 Q154.55 -14.15 158.0 -13.55 L164.6 -12.75 Q164.1 -12.5 163.75 -11.75 163.05 -8.95 162.35 -8.35 L160.8 -5.15 159.45 -2.1 159.55 -0.75 M87.9 35.95 Q89.85 35.65 90.0 35.3 81.65 36.0 73.15 29.4 L67.4 24.9 Q64.5 22.9 62.4 23.15 L62.1 24.05 Q64.05 25.25 66.1 27.85 68.25 30.85 69.5 32.25 74.15 37.4 82.45 37.4 L85.0 36.9 87.9 35.95 M8.95 43.85 L10.75 42.9 12.45 42.05 Q11.2 40.55 9.85 40.85 8.5 41.15 7.95 43.0 L8.95 43.85" fill="#fce33f" fill-rule="evenodd" stroke="none"/>
    <path d="M63.7 -19.1 Q65.15 -21.25 66.25 -24.1 L66.6 -24.95 67.35 -26.8 68.2 -29.05 Q68.85 -30.15 70.0 -30.3 70.55 -29.7 70.6 -28.55 70.6 -27.95 70.3 -27.75 69.85 -27.35 69.55 -26.25 L67.35 -19.8 65.8 -16.6 64.85 -16.6 61.95 -15.9 Q63.1 -16.85 63.7 -19.1 M43.85 17.85 L48.15 18.0 48.15 16.3 47.45 16.05 Q47.75 15.4 47.35 14.2 47.0 13.2 45.85 12.8 L45.2 12.6 43.5 12.35 44.15 11.25 44.5 10.6 44.9 9.7 45.6 8.75 49.75 2.5 Q52.65 -2.05 57.2 -6.25 L61.25 -9.7 Q62.85 -10.9 65.4 -11.2 68.0 -11.55 69.4 -10.6 L70.05 -10.25 Q71.65 -9.6 70.75 -8.8 L69.3 -7.4 68.55 -6.5 67.4 -4.8 60.9 4.35 55.4 11.65 Q55.05 12.1 54.45 12.05 53.2 12.0 53.3 12.95 53.45 14.5 54.55 15.05 55.05 15.25 55.25 15.55 56.2 16.65 56.6 18.2 L56.95 19.25 57.15 19.9 57.6 20.85 Q59.35 23.65 63.1 25.6 L55.6 26.15 54.7 25.9 49.15 20.55 Q48.1 19.55 45.8 19.55 42.0 19.55 39.0 21.15 35.25 23.15 31.45 26.25 29.55 27.85 28.2 30.4 27.65 31.4 27.4 32.55 26.65 35.85 29.1 35.9 L29.35 35.95 30.6 36.1 30.85 36.1 30.75 36.3 29.8 36.8 27.95 37.75 Q25.7 38.7 23.3 39.3 L22.65 39.2 Q21.6 37.45 19.35 37.95 L18.65 38.1 16.45 38.55 15.8 38.7 Q14.0 39.3 12.65 40.15 L16.5 36.05 Q19.85 32.15 24.05 28.1 L24.9 27.2 28.55 23.35 Q30.15 21.85 32.1 20.6 32.3 20.15 32.6 20.05 L33.65 19.7 33.75 19.7 35.0 19.05 Q35.65 17.9 37.05 17.65 L38.3 17.55 Q38.9 17.55 39.0 17.8 39.35 18.5 40.65 18.3 L42.9 17.9 43.5 17.85 43.85 17.85 M85.85 -35.75 L85.85 -35.5 85.9 -34.9 Q86.05 -33.3 85.65 -32.0 85.25 -30.8 85.9 -30.4 L86.45 -30.0 87.15 -29.45 Q88.05 -29.0 87.7 -27.45 86.9 -24.15 84.55 -21.55 L81.9 -19.05 Q81.55 -18.75 81.0 -18.6 76.95 -17.45 73.45 -16.15 L74.4 -18.35 75.45 -20.35 77.4 -24.55 Q79.2 -28.8 81.5 -32.6 82.8 -34.75 83.85 -37.8 L85.85 -35.75 M62.15 9.35 L66.45 6.45 67.8 5.65 69.75 4.4 71.2 2.6 72.25 1.5 73.2 0.6 75.25 -0.85 Q77.05 -1.8 78.1 -2.6 L77.95 -2.2 75.9 -0.2 75.0 0.65 Q73.7 1.8 73.7 3.7 73.7 7.6 77.45 9.6 L78.15 9.9 Q79.4 10.35 80.35 10.9 L75.75 12.85 71.1 14.45 70.65 14.65 68.65 15.2 68.15 15.3 67.7 15.25 67.7 14.65 67.45 13.7 Q66.35 12.1 64.8 11.3 L62.0 9.55 62.15 9.35 M111.1 -40.6 Q111.7 -39.7 112.65 -38.9 L113.25 -38.35 110.05 -36.75 Q109.8 -36.6 110.05 -36.15 111.05 -34.1 112.65 -32.6 111.95 -31.55 109.8 -31.9 L108.15 -32.3 106.3 -32.9 104.65 -33.35 104.0 -33.5 Q102.45 -33.85 101.4 -34.4 103.0 -36.1 104.6 -38.35 107.35 -42.2 109.8 -44.7 L109.85 -44.05 109.8 -44.05 109.65 -43.95 Q109.5 -43.9 109.5 -43.0 109.5 -42.35 111.1 -40.6 M142.75 -30.6 L142.7 -30.45 142.2 -30.05 140.9 -29.15 Q139.6 -28.15 140.65 -26.1 L141.0 -25.1 141.5 -23.35 Q137.6 -23.4 135.1 -26.8 L134.55 -27.3 Q133.15 -28.0 132.45 -29.25 L133.35 -29.8 Q136.25 -31.4 139.05 -33.4 140.7 -34.6 141.55 -35.8 141.8 -33.85 142.75 -30.6" fill="#8f1b05" fill-rule="evenodd" stroke="none"/>
    <path d="M76.2 -28.6 L74.15 -24.85 67.0 -11.9 65.95 -12.55 Q65.85 -12.95 65.6 -12.8 L66.6 -15.5 66.85 -16.3 Q72.05 -30.85 72.6 -31.85 L69.1 -33.75 58.8 -12.7 60.35 -13.6 61.05 -13.85 61.65 -13.95 62.35 -13.9 62.95 -13.75 63.5 -13.55 Q61.3 -12.45 56.15 -6.75 46.15 4.2 39.75 13.35 L47.45 16.05 48.15 16.3 48.15 18.0 43.85 17.85 37.45 16.9 Q35.0 16.35 32.8 17.65 29.25 19.85 26.6 23.1 L21.0 29.5 Q13.6 37.15 4.95 43.6 L8.1 46.1 Q10.65 44.1 13.35 42.3 14.15 41.8 15.1 41.65 17.85 40.9 20.1 42.85 26.55 39.1 33.7 36.8 L49.2 31.55 60.8 27.3 63.65 27.25 Q65.55 29.2 66.45 32.0 67.25 34.5 69.75 35.65 80.3 40.2 91.9 37.75 97.0 36.65 101.8 34.35 106.45 32.15 110.25 28.6 112.4 26.6 115.0 25.05 125.4 18.85 137.6 20.0 142.8 20.65 148.35 22.55 153.9 24.4 157.1 27.65 160.3 30.9 162.45 35.9 L168.9 31.8 166.4 27.3 177.2 17.15 163.3 0.55 169.7 -14.3 168.8 -14.5 Q159.3 -16.55 148.15 -20.4 L147.4 -24.7 Q144.9 -36.55 143.35 -41.75 L126.45 -30.1 118.2 -37.75 116.9 -39.4 Q114.4 -42.2 112.25 -43.3 L108.3 -46.95 Q104.75 -42.4 94.8 -33.0 L89.45 -36.65 88.95 -37.15 Q86.7 -39.2 85.1 -39.8 L83.2 -41.3 76.2 -28.6 M74.95 -35.65 L81.5 -46.15 91.65 -39.05 96.5 -44.65 99.75 -42.95 108.3 -50.65 117.2 -42.85 Q123.15 -37.75 127.05 -35.2 L144.8 -46.7 152.0 -23.85 175.75 -15.75 168.05 1.1 182.85 17.8 172.25 27.65 174.75 32.45 Q170.75 37.3 165.25 40.05 L162.5 41.25 Q160.95 41.8 159.55 41.25 159.3 36.0 155.45 32.6 153.6 30.9 151.35 29.7 137.3 22.35 122.5 28.0 114.6 31.1 107.15 35.2 103.05 37.5 98.45 39.0 93.9 40.65 89.15 41.2 83.25 42.1 77.35 41.3 70.3 40.7 65.45 35.9 63.2 33.6 62.85 30.5 L20.7 46.7 18.45 44.65 Q16.4 42.9 14.7 44.85 11.8 48.25 8.1 50.65 L0.0 41.65 0.15 41.0 Q8.35 34.75 15.9 27.65 L19.1 24.1 Q25.2 16.25 34.2 12.35 33.4 8.6 35.95 6.1 L40.0 2.5 Q48.95 -4.9 59.1 -21.45 L68.9 -38.1 74.95 -35.65 M80.35 10.9 L80.8 10.7 Q86.55 8.15 92.6 6.05 96.3 4.55 100.1 3.8 L104.75 4.15 107.75 5.15 Q111.05 6.25 112.65 8.6 L113.3 9.75 Q113.9 11.1 114.05 12.85 L113.85 12.5 Q111.15 7.85 105.9 6.2 L103.1 6.85 104.1 7.45 Q108.5 10.35 108.3 15.75 108.15 19.9 105.3 24.6 100.4 32.65 90.15 32.65 79.6 32.65 72.6 27.45 68.8 24.65 67.5 21.8 L66.6 22.85 60.15 20.65 60.3 18.85 63.25 18.8 Q60.6 18.55 58.35 17.15 56.8 16.1 55.6 14.5 L54.75 13.4 Q60.0 12.95 65.1 14.9 L68.15 15.3 68.65 15.2 70.65 14.65 75.75 12.85 80.35 10.9 M62.0 9.55 L61.45 10.25 59.65 9.5 59.8 8.6 Q59.9 8.15 60.15 7.75 66.3 -3.2 78.55 -7.1 L81.85 -8.1 82.75 -7.75 Q69.1 0.8 62.15 9.35 L62.0 9.55 M104.1 11.5 Q103.45 10.25 102.35 9.95 99.75 9.5 97.55 8.2 L92.6 9.6 Q80.95 13.1 69.75 18.3 L68.55 18.75 Q69.75 21.15 72.0 23.4 78.3 29.75 89.9 29.75 97.4 29.75 101.85 24.05 105.2 19.85 105.3 15.75 105.2 13.45 104.1 11.5" fill="#541502" fill-rule="evenodd" stroke="none"/>
  </g>
</svg>
