<?xml version="1.0" encoding="UTF-8" standalone="no"?>
<svg xmlns:xlink="http://www.w3.org/1999/xlink" height="245.95px" width="252.0px" xmlns="http://www.w3.org/2000/svg">
  <g transform="matrix(1.0, 0.0, 0.0, 1.0, 123.15, 120.1)">
    <path d="M31.05 -102.25 L37.15 -102.45 Q50.9 -103.15 64.6 -103.05 L67.7 -100.85 Q70.15 -98.9 71.95 -96.65 73.15 -95.05 73.55 -93.15 L81.15 -88.8 Q81.45 -87.2 82.0 -85.75 89.65 -64.95 100.0 -45.4 106.05 -33.95 113.65 -23.55 L128.85 -2.3 Q128.6 -1.7 128.15 -1.4 123.7 1.7 119.6 5.45 116.4 8.3 115.75 12.5 114.65 19.45 117.0 25.7 L112.8 26.85 109.95 33.75 107.3 35.5 Q105.6 36.7 105.05 38.65 104.55 40.45 105.35 42.05 L113.15 50.15 108.75 52.0 Q104.2 53.95 100.55 57.0 L30.15 116.05 29.75 116.05 27.65 115.55 25.15 115.7 24.25 116.25 23.4 116.9 23.1 117.05 22.8 117.05 22.6 117.05 22.5 116.9 22.35 116.6 22.25 116.15 22.7 115.95 Q19.0 114.25 14.0 116.55 13.1 117.0 12.25 116.85 5.65 116.25 -0.1 119.9 L-9.25 125.85 -9.0 118.1 -4.8 114.35 Q-18.4 106.6 -34.7 108.35 L-36.2 108.15 -34.1 104.3 -44.15 94.95 -44.5 94.9 Q-48.25 95.2 -50.55 98.15 -52.75 101.0 -53.9 104.0 L-54.8 103.85 Q-65.1 96.2 -75.1 87.85 L-80.8 83.25 Q-92.2 73.85 -106.25 69.35 L-97.0 59.2 -104.15 52.15 -106.9 51.9 Q-110.6 37.4 -120.3 26.0 -121.7 24.35 -122.35 22.5 -123.95 18.0 -122.25 13.25 -121.75 11.85 -121.75 10.45 -121.8 3.35 -119.2 -3.0 -119.7 -4.85 -119.45 -6.7 L-117.4 -21.2 Q-114.45 -42.9 -121.4 -63.95 -111.75 -66.4 -106.05 -74.4 -104.75 -76.2 -102.6 -75.55 -91.7 -72.8 -80.95 -76.3 -67.45 -80.7 -57.55 -90.6 -42.8 -105.35 -29.25 -120.1 L-29.0 -119.3 Q-28.0 -117.1 -25.2 -116.3 -20.9 -115.25 -16.55 -116.25 L-14.3 -114.65 -8.85 -117.4 Q9.0 -104.6 31.05 -102.25 M60.05 -99.45 L58.15 -99.3 52.0 -98.9 Q51.0 -99.0 50.65 -98.5 49.5 -97.0 48.75 -95.1 48.5 -94.5 47.9 -94.3 42.1 -92.4 34.0 -92.85 L29.15 -93.65 20.0 -96.0 Q21.75 -93.05 23.75 -91.65 L29.1 -87.1 Q32.6 -83.3 36.0 -80.0 35.0 -80.0 34.8 -79.6 34.15 -78.4 31.95 -78.85 29.45 -79.45 28.05 -81.05 24.0 -85.65 18.95 -89.9 11.8 -95.9 4.05 -101.1 L-0.2 -103.6 -3.75 -105.45 Q-5.3 -106.2 -7.95 -106.45 -8.5 -106.5 -8.75 -107.1 -9.75 -109.7 -13.0 -109.95 L-14.8 -109.6 -17.2 -108.4 -21.0 -106.0 -20.8 -104.05 -20.1 -100.95 Q-19.3 -97.95 -22.1 -97.4 L-27.1 -97.7 Q-30.5 -99.0 -30.1 -103.0 L-29.6 -104.8 Q-28.8 -106.3 -29.0 -109.0 -34.65 -108.25 -39.1 -104.1 L-46.9 -96.9 Q-54.3 -90.15 -59.8 -83.8 L-61.25 -82.25 Q-65.05 -78.25 -67.75 -75.75 -69.0 -74.5 -70.9 -73.75 L-72.1 -73.35 -74.9 -72.6 Q-79.7 -71.3 -85.05 -70.45 L-97.95 -68.65 -99.95 -68.6 Q-107.15 -69.15 -108.8 -64.9 -110.25 -61.2 -113.05 -58.05 -113.5 -57.5 -114.1 -57.3 -116.55 -56.55 -115.75 -53.05 L-115.25 -50.95 -114.6 -49.2 Q-113.8 -47.7 -113.6 -45.05 L-113.35 -41.95 -112.9 -35.0 Q-112.55 -19.95 -115.15 -6.05 -116.95 3.6 -121.0 8.95 -117.1 13.2 -117.9 21.95 -118.0 22.95 -117.6 23.75 -116.25 26.4 -115.75 28.9 -115.5 30.3 -114.45 32.2 L-113.5 33.6 Q-109.55 38.8 -106.75 44.85 L-105.9 45.7 Q-101.8 47.4 -99.75 51.85 L-99.5 52.9 Q-99.65 55.1 -98.0 55.0 L-95.1 55.3 Q-93.2 55.75 -93.3 56.9 -93.75 62.2 -97.0 64.95 L-95.05 65.2 -93.05 65.35 Q-89.55 65.1 -89.0 67.95 L-90.95 69.0 Q-93.5 70.45 -92.0 69.95 -85.25 75.15 -79.95 79.9 -74.95 84.4 -68.9 88.8 L-67.35 90.25 Q-64.55 93.65 -59.05 94.3 -55.8 94.65 -54.65 93.25 -54.0 92.45 -53.05 92.5 -47.35 92.95 -45.4 88.75 L-44.6 87.75 -42.95 87.55 Q-39.6 87.9 -37.05 90.0 L-35.9 90.65 Q-31.7 92.0 -28.9 95.9 -28.5 96.45 -27.9 96.65 -27.0 96.95 -26.65 97.4 -23.7 101.55 -26.0 104.95 L-19.0 104.95 Q-17.5 104.95 -16.2 105.45 -11.95 107.1 -7.0 106.95 -6.0 106.95 -5.6 107.45 -4.7 108.65 -1.95 108.25 0.2 108.0 1.7 109.3 3.8 111.15 4.0 114.95 L5.05 114.05 Q10.75 109.7 17.2 107.25 18.4 108.35 19.9 109.15 20.5 109.45 20.6 110.0 21.15 113.25 23.9 112.6 L25.1 112.25 26.5 111.45 Q28.9 109.05 32.95 107.8 34.65 107.3 36.8 105.7 L41.75 101.65 Q49.5 94.6 53.75 86.8 54.6 85.2 56.75 83.6 61.65 80.0 66.2 77.25 L68.75 75.6 85.85 63.75 88.15 62.2 Q96.35 56.7 102.1 49.0 L102.7 47.85 Q103.0 46.95 102.6 46.75 L98.0 43.95 Q99.5 41.45 103.0 37.95 L105.65 34.7 Q106.5 33.45 107.5 32.5 110.5 29.8 110.0 25.95 L107.1 26.3 105.9 26.65 Q105.0 26.95 104.35 27.4 101.95 29.1 100.0 32.95 L98.0 31.95 96.05 30.95 107.2 21.15 108.45 19.65 112.25 13.1 Q112.95 11.9 113.0 9.95 113.0 7.65 114.75 5.8 115.5 5.0 115.25 4.3 114.05 1.3 117.95 -2.05 118.5 -2.5 119.0 -2.5 121.15 -2.4 120.7 -3.9 L120.45 -5.05 Q120.2 -7.7 119.15 -9.1 113.75 -15.9 107.9 -24.9 L107.15 -26.1 96.75 -41.85 95.45 -44.2 Q92.85 -49.65 89.75 -54.85 85.15 -62.7 82.65 -71.9 80.9 -78.4 77.0 -82.0 76.65 -76.95 79.4 -73.3 L80.75 -71.75 Q81.5 -71.0 81.6 -69.95 L82.25 -60.0 Q82.4 -56.45 82.7 -52.95 L82.85 -51.35 Q80.55 -57.25 78.4 -63.15 76.3 -69.0 72.6 -73.7 72.0 -74.5 70.95 -74.75 70.0 -75.0 69.2 -75.4 67.35 -76.35 64.0 -76.45 63.0 -76.5 62.0 -77.0 59.8 -78.2 57.05 -78.4 L54.0 -78.55 Q48.8 -78.65 45.6 -82.75 46.2 -84.3 46.0 -87.0 49.7 -81.55 57.0 -81.95 58.0 -82.0 58.65 -82.5 60.3 -83.7 64.0 -83.1 72.1 -81.7 70.7 -89.95 L70.55 -91.95 Q70.7 -95.2 69.3 -96.35 65.9 -99.1 60.05 -99.45 M82.85 -51.35 L83.0 -51.0 Q83.0 -50.05 82.85 -51.35" fill="#a8fffd" fill-rule="evenodd" stroke="none"/>
    <path d="M60.05 -99.45 Q65.9 -99.1 69.3 -96.35 70.7 -95.2 70.55 -91.95 L70.7 -89.95 Q72.1 -81.7 64.0 -83.1 60.3 -83.7 58.65 -82.5 58.0 -82.0 57.0 -81.95 49.7 -81.55 46.0 -87.0 46.2 -84.3 45.6 -82.75 48.8 -78.65 54.0 -78.55 L57.05 -78.4 Q59.8 -78.2 62.0 -77.0 63.0 -76.5 64.0 -76.45 67.35 -76.35 69.2 -75.4 70.0 -75.0 70.95 -74.75 72.0 -74.5 72.6 -73.7 76.3 -69.0 78.4 -63.15 80.55 -57.25 82.85 -51.35 L82.7 -52.95 Q82.4 -56.45 82.25 -60.0 L81.6 -69.95 Q81.5 -71.0 80.75 -71.75 L79.4 -73.3 Q76.65 -76.95 77.0 -82.0 80.9 -78.4 82.65 -71.9 85.15 -62.7 89.75 -54.85 92.85 -49.65 95.45 -44.2 L96.75 -41.85 107.15 -26.1 107.9 -24.9 Q113.75 -15.9 119.15 -9.1 120.2 -7.7 120.45 -5.05 L120.7 -3.9 Q121.15 -2.4 119.0 -2.5 118.5 -2.5 117.95 -2.05 114.05 1.3 115.25 4.3 115.5 5.0 114.75 5.8 113.0 7.65 113.0 9.95 112.95 11.9 112.25 13.1 L108.45 19.65 107.2 21.15 96.05 30.95 98.0 31.95 100.0 32.95 Q101.95 29.1 104.35 27.4 105.0 26.95 105.9 26.65 L107.1 26.3 110.0 25.95 Q110.5 29.8 107.5 32.5 106.5 33.45 105.65 34.7 L103.0 37.95 Q99.5 41.45 98.0 43.95 L102.6 46.75 Q103.0 46.95 102.7 47.85 L102.1 49.0 Q96.35 56.7 88.15 62.2 L85.85 63.75 68.75 75.6 66.2 77.25 Q61.65 80.0 56.75 83.6 54.6 85.2 53.75 86.8 49.5 94.6 41.75 101.65 L36.8 105.7 Q34.65 107.3 32.95 107.8 28.9 109.05 26.5 111.45 L25.1 112.25 23.9 112.6 Q21.15 113.25 20.6 110.0 20.5 109.45 19.9 109.15 18.4 108.35 17.2 107.25 10.75 109.7 5.05 114.05 L4.0 114.95 Q3.8 111.15 1.7 109.3 0.2 108.0 -1.95 108.25 -4.7 108.65 -5.6 107.45 -6.0 106.95 -7.0 106.95 -11.95 107.1 -16.2 105.45 -17.5 104.95 -19.0 104.95 L-26.0 104.95 Q-23.7 101.55 -26.65 97.4 -27.0 96.95 -27.9 96.65 -28.5 96.45 -28.9 95.9 -31.7 92.0 -35.9 90.65 L-37.05 90.0 Q-39.6 87.9 -42.95 87.55 L-44.6 87.75 -45.4 88.75 Q-47.35 92.95 -53.05 92.5 -54.0 92.45 -54.65 93.25 -55.8 94.65 -59.05 94.3 -64.55 93.65 -67.35 90.25 L-68.9 88.8 Q-74.95 84.4 -79.95 79.9 -85.25 75.15 -92.0 69.95 -93.5 70.45 -90.95 69.0 L-89.0 67.95 Q-89.55 65.1 -93.05 65.35 L-95.05 65.2 -97.0 64.95 Q-93.75 62.2 -93.3 56.9 -93.2 55.75 -95.1 55.3 L-98.0 55.0 Q-99.65 55.1 -99.5 52.9 L-99.75 51.85 Q-101.8 47.4 -105.9 45.7 L-106.75 44.85 Q-109.55 38.8 -113.5 33.6 L-114.45 32.2 Q-115.5 30.3 -115.75 28.9 -116.25 26.4 -117.6 23.75 -118.0 22.95 -117.9 21.95 -117.1 13.2 -121.0 8.95 -116.95 3.6 -115.15 -6.05 -112.55 -19.95 -112.9 -35.0 L-113.35 -41.95 -113.6 -45.05 Q-113.8 -47.7 -114.6 -49.2 L-115.25 -50.95 -115.75 -53.05 Q-116.55 -56.55 -114.1 -57.3 -113.5 -57.5 -113.05 -58.05 -110.25 -61.2 -108.8 -64.9 -107.15 -69.15 -99.95 -68.6 L-97.95 -68.65 -85.05 -70.45 Q-79.7 -71.3 -74.9 -72.6 L-72.1 -73.35 -70.9 -73.75 Q-69.0 -74.5 -67.75 -75.75 -65.05 -78.25 -61.25 -82.25 L-59.8 -83.8 Q-54.3 -90.15 -46.9 -96.9 L-39.1 -104.1 Q-34.65 -108.25 -29.0 -109.0 -28.8 -106.3 -29.6 -104.8 L-30.1 -103.0 Q-30.5 -99.0 -27.1 -97.7 L-22.1 -97.4 Q-19.3 -97.95 -20.1 -100.95 L-20.8 -104.05 -21.0 -106.0 -17.2 -108.4 -14.8 -109.6 -13.0 -109.95 Q-9.75 -109.7 -8.75 -107.1 -8.5 -106.5 -7.95 -106.45 -5.3 -106.2 -3.75 -105.45 L-0.2 -103.6 4.05 -101.1 Q11.8 -95.9 18.95 -89.9 24.0 -85.65 28.05 -81.05 29.45 -79.45 31.95 -78.85 34.15 -78.4 34.8 -79.6 35.0 -80.0 36.0 -80.0 32.6 -83.3 29.1 -87.1 L23.75 -91.65 Q21.75 -93.05 20.0 -96.0 L29.15 -93.65 34.0 -92.85 Q42.1 -92.4 47.9 -94.3 48.5 -94.5 48.75 -95.1 49.5 -97.0 50.65 -98.5 51.0 -99.0 52.0 -98.9 L58.15 -99.3 60.05 -99.45 M82.85 -51.35 Q83.0 -50.05 83.0 -51.0 L82.85 -51.35" fill="#ffffff" fill-rule="evenodd" stroke="none"/>
  </g>
</svg>
