<?xml version="1.0" encoding="UTF-8" standalone="no"?>
<svg xmlns:xlink="http://www.w3.org/1999/xlink" height="225.85px" width="226.35px" xmlns="http://www.w3.org/2000/svg">
  <g transform="matrix(1.0, 0.0, 0.0, 1.0, 113.15, 112.9)">
    <path d="M44.35 -71.05 L41.9 -65.75 Q56.9 -60.1 64.1 -46.4 L68.2 -38.8 Q67.8 -38.95 67.15 -38.15 L64.1 -38.8 62.9 -41.15 Q57.9 -49.4 51.8 -54.75 45.7 -60.1 37.65 -63.75 L42.15 -75.55 45.6 -75.0 44.35 -71.05 M48.85 60.05 L55.65 52.85 60.5 46.2 63.4 42.1 64.65 40.35 68.15 40.6 Q66.55 47.25 61.95 53.8 56.15 62.1 47.4 67.1 L49.3 73.4 Q50.65 78.1 50.65 79.35 L50.65 80.1 47.9 80.1 Q47.55 78.75 46.8 76.95 L44.9 72.35 43.6 69.35 Q42.9 67.55 42.9 66.0 L48.85 60.05 M-50.7 -73.25 L-48.1 -75.25 -46.85 -74.85 Q-46.35 -74.4 -46.35 -72.75 -46.35 -71.25 -46.65 -70.95 L-47.1 -70.5 Q-56.2 -63.15 -63.4 -54.5 -72.05 -44.25 -74.1 -36.4 L-78.1 -36.65 Q-76.35 -45.7 -67.05 -57.15 -59.7 -66.15 -50.7 -73.25 M-78.3 52.5 Q-78.65 50.65 -77.4 50.3 -75.7 49.75 -75.6 49.35 -71.5 47.6 -66.0 44.85 L-65.75 44.75 -65.35 44.5 -65.35 44.35 -62.85 44.6 Q-64.5 47.25 -72.1 51.35 L-72.35 52.35 Q-70.3 57.55 -61.05 64.45 -54.2 69.55 -41.85 76.6 L-41.85 79.6 -46.35 79.6 Q-54.65 75.15 -65.6 66.1 L-71.35 61.2 Q-77.0 56.1 -77.85 53.95 L-78.3 52.5" fill="#999999" fill-rule="evenodd" stroke="none"/>
    <path d="M44.35 -71.05 L45.6 -75.0 42.15 -75.55 37.65 -63.75 Q45.7 -60.1 51.8 -54.75 57.9 -49.4 62.9 -41.15 L64.1 -38.8 67.15 -38.15 Q67.8 -38.95 68.2 -38.8 L64.1 -46.4 Q56.9 -60.1 41.9 -65.75 L44.35 -71.05 M68.45 -38.35 L63.35 -36.05 Q53.85 -53.0 35.4 -62.0 L41.5 -78.15 Q64.05 -68.2 80.85 -43.95 L68.55 -38.4 68.6 -38.3 Q68.7 -38.0 68.45 -38.35 M63.4 42.1 L65.35 37.2 81.5 43.3 Q71.55 65.85 47.3 82.65 L39.4 65.15 Q44.55 63.05 48.85 60.05 L42.9 66.0 Q42.9 67.55 43.6 69.35 L44.9 72.35 46.8 76.95 Q47.55 78.75 47.9 80.1 L50.65 80.1 50.65 79.35 Q50.65 78.1 49.3 73.4 L47.4 67.1 Q56.15 62.1 61.95 53.8 66.55 47.25 68.15 40.6 L64.65 40.35 63.4 42.1 M-48.1 -75.25 L-46.4 -76.45 -38.5 -58.95 Q-55.45 -49.45 -64.45 -31.0 L-80.6 -37.1 Q-71.55 -57.6 -50.7 -73.25 -59.7 -66.15 -67.05 -57.15 -76.35 -45.7 -78.1 -36.65 L-74.1 -36.4 Q-72.05 -44.25 -63.4 -54.5 -56.2 -63.15 -47.1 -70.5 L-46.65 -70.95 Q-46.35 -71.25 -46.35 -72.75 -46.35 -74.4 -46.85 -74.85 L-48.1 -75.25 M-71.35 61.2 L-65.6 66.1 Q-54.65 75.15 -46.35 79.6 L-41.85 79.6 -41.85 76.6 Q-54.2 69.55 -61.05 64.45 -70.3 57.55 -72.35 52.35 L-72.1 51.35 Q-64.5 47.25 -62.85 44.6 L-65.35 44.35 -65.35 44.5 -65.75 44.75 -66.0 44.85 Q-71.5 47.6 -75.6 49.35 -75.7 49.75 -77.4 50.3 -78.65 50.65 -78.3 52.5 L-79.95 50.15 -62.45 42.25 Q-52.95 59.2 -34.5 68.2 L-40.6 84.35 Q-57.65 76.85 -71.35 61.2" fill="#535353" fill-rule="evenodd" stroke="none"/>
    <path d="M18.95 -57.8 L19.15 -57.6 Q18.15 -58.25 18.95 -57.8 M19.15 -56.7 L20.5 -56.75 22.45 -47.65 25.25 -36.25 Q29.35 -33.5 32.9 -29.65 35.9 -26.4 38.2 -22.9 L46.25 -21.2 Q53.75 -19.35 61.05 -16.75 L61.75 25.85 61.75 27.2 Q56.05 28.15 40.7 32.1 L38.15 32.55 32.8 39.0 28.0 43.35 27.9 43.4 28.05 43.4 26.25 51.9 Q24.4 59.4 21.8 66.7 L-20.8 67.4 -22.15 67.4 Q-23.1 61.7 -27.05 46.35 L-27.25 45.05 Q-31.5 42.5 -35.4 39.15 -39.3 35.8 -42.1 32.0 L-46.95 30.9 -50.8 29.9 -61.75 26.45 -62.4 -16.15 -62.45 -17.5 Q-56.75 -18.45 -41.4 -22.4 L-41.05 -22.45 Q-39.0 -25.7 -36.45 -28.7 -33.15 -32.6 -29.15 -35.45 L-27.9 -41.25 Q-26.05 -48.75 -23.45 -56.05 L19.15 -56.7 M62.6 25.85 Q63.25 24.85 62.8 25.65 L62.6 25.85 M-20.8 68.25 Q-19.8 68.9 -20.6 68.45 L-20.8 68.25 M-63.3 -16.15 Q-63.95 -15.15 -63.5 -15.95 L-63.3 -16.15 M36.9 -18.75 L36.8 -18.8 33.0 -23.55 Q28.25 -29.2 25.0 -31.55 L20.9 -33.9 20.5 -35.35 17.3 -47.25 16.15 -52.05 -19.95 -51.5 -24.95 -31.35 -26.9 -29.9 -30.95 -26.5 Q-34.6 -23.1 -37.3 -19.25 L-37.95 -18.35 -37.95 -18.1 -49.7 -15.05 -57.75 -13.15 -57.2 22.95 -51.05 24.45 -46.95 25.55 -38.45 28.15 -38.45 28.5 -37.05 30.3 Q-34.9 32.85 -32.15 35.25 L-32.0 35.4 -28.6 38.1 -22.85 41.75 -21.55 47.05 -17.8 62.7 18.3 62.15 19.25 58.55 23.85 43.65 24.65 41.1 25.15 40.75 Q28.65 38.2 31.65 34.85 L32.1 34.35 35.95 29.25 36.85 27.8 Q50.75 24.2 57.05 22.85 L56.6 -8.05 Q56.6 -12.5 50.85 -15.6 45.05 -18.75 36.9 -18.75 M77.35 -76.2 Q45.8 -107.8 1.15 -107.8 -43.5 -107.8 -75.05 -76.2 -106.6 -44.65 -106.6 0.0 -106.6 44.65 -75.05 76.25 -43.5 107.8 1.15 107.8 45.8 107.8 77.35 76.25 108.9 44.65 108.9 0.0 108.9 -44.65 77.35 -76.2 M4.65 -112.8 Q54.2 -111.05 83.8 -78.35 113.35 -45.65 113.2 1.1 113.05 47.85 80.8 81.05 48.5 114.2 1.8 112.9 -44.9 111.6 -79.9 81.5 -114.95 51.4 -113.05 3.4 -111.15 -44.55 -78.0 -79.55 -44.9 -114.55 4.65 -112.8" fill="#000000" fill-rule="evenodd" stroke="none"/>
    <path d="M18.95 -57.8 Q18.15 -58.25 19.15 -57.6 L18.95 -57.8 M20.5 -56.75 L19.15 -57.6 19.15 -56.7 -23.45 -56.05 Q-26.05 -48.75 -27.9 -41.25 L-29.15 -35.45 Q-33.15 -32.6 -36.45 -28.7 -39.0 -25.7 -41.05 -22.45 L-41.4 -22.4 Q-56.75 -18.45 -62.45 -17.5 L-63.3 -16.15 -62.4 -16.15 -61.75 26.45 -50.8 29.9 -46.95 30.9 -42.1 32.0 Q-39.3 35.8 -35.4 39.15 -31.5 42.5 -27.25 45.05 L-27.05 46.35 Q-23.1 61.7 -22.15 67.4 L-20.8 68.25 -20.8 67.4 21.8 66.7 Q24.4 59.4 26.25 51.9 L28.05 43.4 28.0 43.35 32.8 39.0 38.15 32.55 40.7 32.1 Q56.05 28.15 61.75 27.2 L62.6 25.85 61.75 25.85 61.05 -16.75 Q53.75 -19.35 46.25 -21.2 L38.2 -22.9 Q35.9 -26.4 32.9 -29.65 29.35 -33.5 25.25 -36.25 L22.45 -47.65 20.5 -56.75 M62.6 25.85 L62.8 25.65 Q63.25 24.85 62.6 25.85 M-20.8 68.25 L-20.6 68.45 Q-19.8 68.9 -20.8 68.25 M-63.3 -16.15 L-63.5 -15.95 Q-63.95 -15.15 -63.3 -16.15 M32.4 -60.65 Q51.3 -51.9 62.35 -32.4 L86.45 -43.9 Q68.75 -70.8 40.35 -83.1 L32.4 -60.65 M77.35 -76.2 Q108.9 -44.65 108.9 0.0 108.9 44.65 77.35 76.25 45.8 107.8 1.15 107.8 -43.5 107.8 -75.05 76.25 -106.6 44.65 -106.6 0.0 -106.6 -44.65 -75.05 -76.2 -43.5 -107.8 1.15 -107.8 45.8 -107.8 77.35 -76.2 M35.75 64.15 L47.25 88.25 Q74.15 70.55 86.45 42.15 L64.0 34.2 Q55.25 53.1 35.75 64.15 M-34.85 -57.95 L-46.35 -82.05 Q-73.25 -64.35 -85.55 -35.95 L-63.1 -28.0 Q-54.35 -46.9 -34.85 -57.95 M-31.5 66.85 Q-50.4 58.1 -61.45 38.6 L-85.55 50.1 Q-67.85 77.0 -39.45 89.3 L-31.5 66.85" fill="url(#gradient0)" fill-rule="evenodd" stroke="none"/>
    <path d="M19.15 -56.7 L19.15 -57.6 20.5 -56.75 19.15 -56.7 M61.75 25.85 L62.6 25.85 61.75 27.2 61.75 25.85 M-20.8 67.4 L-20.8 68.25 -22.15 67.4 -20.8 67.4 M-62.4 -16.15 L-63.3 -16.15 -62.45 -17.5 -62.4 -16.15 M-37.95 -18.1 L-37.95 -18.35 -37.3 -19.25 -37.95 -18.1" fill="#333333" fill-rule="evenodd" stroke="none"/>
    <path d="M32.4 -60.65 L40.35 -83.1 Q68.75 -70.8 86.45 -43.9 L62.35 -32.4 Q51.3 -51.9 32.4 -60.65 M17.3 -47.25 L20.5 -35.35 20.9 -33.9 25.0 -31.55 Q28.25 -29.2 33.0 -23.55 L36.8 -18.8 36.9 -18.75 41.15 -11.0 56.6 -8.05 57.05 22.85 Q50.75 24.2 36.85 27.8 L35.95 29.25 32.1 34.35 31.65 34.85 Q28.65 38.2 25.15 40.75 L24.65 41.1 23.85 43.65 19.25 58.55 -12.8 58.2 -21.55 47.05 -22.85 41.75 -28.6 38.1 -32.0 35.4 -32.15 35.25 Q-34.9 32.85 -37.05 30.3 L-38.45 28.5 -38.45 28.15 -46.95 25.55 -51.05 24.45 -49.7 -15.05 -37.95 -18.1 -37.3 -19.25 Q-34.6 -23.1 -30.95 -26.5 L-26.9 -29.9 -24.95 -31.35 -17.2 -46.2 17.3 -47.25 M0.15 -15.65 Q-7.75 -15.65 -13.3 -10.05 -18.9 -4.45 -18.9 3.45 -18.9 11.35 -13.3 16.95 -7.75 22.55 0.15 22.55 8.05 22.55 13.65 16.95 19.2 11.35 19.2 3.45 19.2 -4.45 13.65 -10.05 8.05 -15.65 0.15 -15.65 M68.45 -38.35 Q68.7 -38.0 68.6 -38.3 L68.55 -38.4 80.85 -43.95 Q64.05 -68.2 41.5 -78.15 L35.4 -62.0 Q53.85 -53.0 63.35 -36.05 L68.45 -38.35 M48.85 60.05 Q44.55 63.05 39.4 65.15 L47.3 82.65 Q71.55 65.85 81.5 43.3 L65.35 37.2 63.4 42.1 60.5 46.2 55.65 52.85 48.85 60.05 M35.75 64.15 Q55.25 53.1 64.0 34.2 L86.45 42.15 Q74.15 70.55 47.25 88.25 L35.75 64.15 M-48.1 -75.25 L-50.7 -73.25 Q-71.55 -57.6 -80.6 -37.1 L-64.45 -31.0 Q-55.45 -49.45 -38.5 -58.95 L-46.4 -76.45 -48.1 -75.25 M-34.85 -57.95 Q-54.35 -46.9 -63.1 -28.0 L-85.55 -35.95 Q-73.25 -64.35 -46.35 -82.05 L-34.85 -57.95 M-71.35 61.2 Q-57.65 76.85 -40.6 84.35 L-34.5 68.2 Q-52.95 59.2 -62.45 42.25 L-79.95 50.15 -78.3 52.5 -77.85 53.95 Q-77.0 56.1 -71.35 61.2 M-31.5 66.85 L-39.45 89.3 Q-67.85 77.0 -85.55 50.1 L-61.45 38.6 Q-50.4 58.1 -31.5 66.85" fill="#232323" fill-rule="evenodd" stroke="none"/>
    <path d="M36.9 -18.75 Q45.05 -18.75 50.85 -15.6 56.6 -12.5 56.6 -8.05 L41.15 -11.0 36.9 -18.75 M19.25 58.55 L18.3 62.15 -17.8 62.7 -21.55 47.05 -12.8 58.2 19.25 58.55 M-51.05 24.45 L-57.2 22.95 -57.75 -13.15 -49.7 -15.05 -51.05 24.45 M-24.95 -31.35 L-19.95 -51.5 16.15 -52.05 17.3 -47.25 -17.2 -46.2 -24.95 -31.35 M0.15 -15.65 Q8.05 -15.65 13.65 -10.05 19.2 -4.45 19.2 3.45 19.2 11.35 13.65 16.95 8.05 22.55 0.15 22.55 -7.75 22.55 -13.3 16.95 -18.9 11.35 -18.9 3.45 -18.9 -4.45 -13.3 -10.05 -7.75 -15.65 0.15 -15.65" fill="#0d0d0d" fill-rule="evenodd" stroke="none"/>
    <path d="M28.0 43.35 L28.05 43.4 27.9 43.4 28.0 43.35" fill="#4a4a4a" fill-rule="evenodd" stroke="none"/>
  </g>
  <defs>
    <radialGradient cx="0" cy="0" gradientTransform="matrix(0.1568, 0.0, 0.0, 0.1568, 0.05, 2.25)" gradientUnits="userSpaceOnUse" id="gradient0" r="819.2" spreadMethod="pad">
      <stop offset="0.0" stop-color="#999999"/>
      <stop offset="0.7137254901960784" stop-color="#696969"/>
      <stop offset="0.7529411764705882" stop-color="#444444"/>
      <stop offset="1.0" stop-color="#666666"/>
    </radialGradient>
  </defs>
</svg>
