<?xml version="1.0" encoding="UTF-8" standalone="no"?>
<svg xmlns:xlink="http://www.w3.org/1999/xlink" height="235.8px" width="253.25px" xmlns="http://www.w3.org/2000/svg">
  <g transform="matrix(1.0, 0.0, 0.0, 1.0, 115.25, 117.2)">
    <path d="M37.1 -101.25 Q41.8 -101.25 50.9 -98.25 L63.5 -93.75 Q70.4 -91.25 72.6 -88.5 73.8 -87.0 78.75 -87.0 85.3 -87.0 87.55 -75.2 88.2 -71.85 88.55 -66.8 88.85 -62.5 89.0 -62.25 91.05 -58.0 94.9 -54.9 96.85 -53.35 101.85 -50.45 106.0 -48.05 107.6 -46.2 110.0 -43.5 110.0 -39.5 110.0 -37.3 105.8 -32.55 L99.0 -24.5 103.5 -19.25 Q103.95 -19.8 104.15 -21.4 104.7 -22.75 107.0 -22.75 L113.45 -20.95 120.75 -20.75 123.1 -16.1 Q125.25 -11.7 125.25 -10.25 125.25 -4.4 122.1 0.45 120.3 3.25 115.15 8.35 110.15 13.25 108.15 16.55 105.0 21.75 105.0 28.25 105.0 29.5 106.15 35.75 L107.25 43.25 Q107.25 45.75 104.55 49.6 L99.0 56.35 Q95.5 60.35 94.65 63.1 L94.0 68.35 Q93.2 74.75 89.3 81.4 L82.25 92.35 Q80.65 92.0 79.55 90.6 L77.75 88.35 78.85 86.85 79.75 85.35 80.75 83.85 Q67.7 85.55 59.15 88.55 50.7 91.5 48.75 95.1 48.0 96.5 46.5 101.15 44.75 105.4 42.0 106.6 35.2 105.05 29.1 100.9 L24.25 97.1 Q22.95 97.1 20.0 98.05 L19.3 98.3 21.0 98.85 22.15 99.7 Q22.75 100.3 22.75 101.85 22.75 106.2 17.55 109.7 10.05 114.8 7.25 118.6 6.0 118.45 3.95 117.55 L1.25 116.1 Q1.45 115.4 4.0 112.85 L3.05 112.0 Q2.25 111.35 2.25 109.85 L1.05 108.55 -0.75 106.85 -15.75 103.6 Q-16.05 103.6 -19.35 104.95 L-22.75 106.35 -28.3 105.3 Q-29.6 104.85 -31.0 103.35 -30.85 102.75 -28.85 100.85 -27.0 99.05 -27.0 98.25 -27.0 96.7 -27.25 96.35 L-27.5 96.35 -28.9 95.6 Q-30.15 94.85 -31.6 94.85 -33.15 94.85 -33.8 95.7 L-34.5 97.1 -36.45 97.15 -39.0 97.6 Q-38.7 99.0 -36.95 100.8 L-33.25 104.35 -33.5 105.1 Q-34.25 105.8 -38.55 106.85 -42.5 107.8 -42.5 108.35 L-48.0 106.6 -47.5 102.1 Q-47.0 99.2 -47.0 98.0 -47.0 96.4 -47.45 94.35 L-48.25 90.85 Q-49.6 89.8 -55.45 89.1 -62.15 88.3 -64.5 87.35 -66.7 86.45 -72.15 83.45 L-72.85 83.15 Q-81.25 79.7 -83.25 77.6 L-82.75 77.25 -84.5 76.1 Q-84.5 75.35 -84.0 74.85 L-80.5 74.35 -78.45 71.1 Q-77.75 69.65 -77.75 69.1 -77.75 65.9 -80.25 62.35 -81.5 60.45 -85.9 58.95 L-91.0 57.1 Q-92.65 55.65 -93.8 51.95 L-94.05 51.1 Q-100.95 50.95 -106.1 48.45 -111.0 46.1 -111.0 43.5 L-107.0 34.95 -106.45 33.85 -106.5 32.0 Q-106.5 30.75 -105.5 26.95 -104.5 23.1 -104.5 21.85 -104.5 20.35 -107.2 18.75 -111.15 16.4 -114.5 11.35 -113.65 10.5 -111.85 7.7 -109.75 4.45 -109.75 3.35 L-112.0 1.2 Q-114.25 -1.1 -114.25 -1.85 -114.25 -3.25 -110.6 -8.65 -107.0 -14.1 -107.0 -15.0 -107.0 -15.95 -109.1 -17.25 -110.9 -18.4 -113.25 -19.25 L-114.55 -22.9 Q-115.25 -25.15 -115.25 -26.75 -115.25 -30.7 -110.75 -39.1 -106.45 -47.1 -107.0 -52.25 -107.4 -55.75 -103.65 -58.9 -98.75 -62.3 -96.5 -64.0 -94.4 -65.55 -91.4 -70.25 -88.75 -74.45 -87.75 -74.75 -86.25 -73.95 -85.05 -71.9 L-84.7 -71.25 Q-81.2 -73.9 -76.0 -74.0 -73.15 -78.7 -71.75 -83.3 -70.05 -89.05 -71.0 -93.5 -57.6 -93.35 -49.05 -98.15 -44.15 -100.95 -36.75 -107.5 L-32.45 -112.2 Q-28.85 -116.3 -27.5 -117.0 -25.8 -117.9 -23.6 -114.55 -21.6 -111.5 -21.5 -109.25 -14.45 -109.8 -8.05 -106.9 0.8 -102.9 4.0 -102.25 8.25 -101.4 12.2 -99.1 15.4 -97.25 18.75 -97.25 23.35 -97.25 27.9 -99.25 32.4 -101.25 37.1 -101.25 M66.25 -104.75 L69.05 -102.95 73.25 -99.25 73.5 -97.75 Q67.7 -94.4 66.5 -95.55 66.2 -97.5 65.25 -97.5 63.8 -97.5 63.85 -96.45 63.9 -95.3 63.75 -95.25 L62.2 -97.0 Q61.0 -98.3 61.0 -98.6 61.0 -99.6 62.45 -102.05 64.25 -105.15 66.25 -104.75 M70.25 -84.25 Q68.4 -85.35 61.3 -87.55 54.2 -89.7 53.0 -89.5 53.75 -88.75 55.8 -87.05 L58.75 -84.75 67.5 -84.0 70.25 -84.25 M78.5 -78.0 L67.5 -79.0 59.0 -79.5 Q54.9 -84.45 51.05 -88.3 43.6 -95.75 37.5 -95.75 L31.0 -95.5 28.9 -93.8 27.5 -92.75 22.6 -92.05 18.85 -91.5 Q16.5 -91.5 11.95 -93.5 9.2 -94.7 2.7 -97.8 -10.8 -104.0 -20.25 -103.5 -21.6 -104.8 -22.95 -106.85 L-25.25 -110.25 Q-28.75 -108.35 -32.45 -104.3 L-38.9 -97.3 Q-48.15 -88.85 -67.0 -87.75 -66.7 -81.95 -66.95 -78.7 -67.45 -72.8 -70.25 -70.5 -73.55 -67.6 -78.25 -61.75 -83.35 -55.4 -84.75 -54.0 -86.25 -55.2 -87.35 -56.8 L-87.7 -57.35 -87.75 -57.25 Q-87.75 -53.55 -85.85 -51.15 -82.7 -47.1 -81.0 -43.0 -95.05 -37.1 -99.05 -32.55 -103.0 -28.1 -103.0 -18.25 -103.0 -16.9 -105.0 -9.2 L-107.0 -1.75 -101.25 2.95 Q-95.5 7.6 -95.5 8.5 -95.5 11.5 -97.85 19.9 L-99.0 24.05 Q-99.15 26.1 -100.25 29.25 -100.2 33.3 -95.8 37.9 -93.6 40.25 -89.15 43.6 L-89.1 43.6 Q-79.45 43.6 -75.55 54.9 -73.7 60.2 -73.5 65.95 L-72.8 67.2 Q-72.25 68.45 -72.25 71.1 -72.25 73.85 -72.45 74.5 -73.1 76.2 -76.0 78.6 L-76.0 79.05 Q-72.45 80.0 -66.45 83.0 L-62.4 85.1 -40.25 93.85 Q-39.85 93.85 -38.4 92.1 -36.95 90.35 -34.5 90.35 -30.35 90.35 -27.85 92.35 L-23.9 96.75 Q-18.15 103.1 -3.75 103.1 1.95 103.1 8.15 100.25 L10.55 99.2 9.25 98.6 9.75 98.1 Q12.5 98.35 18.2 96.05 24.1 93.6 25.85 93.6 28.35 93.6 30.25 94.35 L30.0 95.55 Q29.75 96.65 29.75 98.1 29.75 100.1 30.05 100.55 30.45 101.1 32.25 101.1 40.85 101.1 41.5 98.3 41.7 96.2 42.0 94.85 42.65 92.35 44.75 90.1 46.0 88.75 50.9 86.5 55.4 84.45 57.25 84.1 61.0 83.3 62.8 82.2 L65.3 80.45 Q68.7 78.65 85.0 78.1 L88.65 67.75 Q90.7 61.25 91.0 56.6 91.5 55.45 95.25 51.95 99.4 48.05 100.75 46.1 101.9 44.35 102.55 41.0 L103.0 36.0 Q103.0 34.75 102.0 30.55 101.0 26.35 101.0 25.1 101.0 19.05 103.65 13.9 106.25 8.75 106.25 8.25 L105.4 0.45 104.0 -10.0 Q103.7 -12.25 98.75 -18.75 94.0 -25.05 94.0 -27.75 L99.5 -33.85 Q105.0 -39.9 105.0 -40.85 105.0 -42.6 103.0 -44.45 L98.25 -48.05 Q90.25 -53.75 87.25 -59.75 85.6 -63.1 84.6 -69.1 L83.0 -79.25 Q82.5 -80.0 81.0 -80.5 80.5 -80.5 80.65 -80.05 L81.0 -79.0 80.5 -78.3 78.5 -78.0 M42.75 -77.75 Q42.5 -77.25 40.0 -77.25 39.3 -77.25 37.45 -78.55 35.75 -79.75 34.5 -81.0 34.4 -85.0 38.4 -83.75 42.35 -82.45 43.25 -79.0 43.25 -78.25 42.75 -77.75 M3.25 -93.75 Q0.2 -93.45 -16.2 -88.9 -32.05 -84.5 -34.5 -84.5 -35.45 -84.5 -36.4 -85.95 L-38.0 -88.25 -35.8 -90.35 -33.5 -92.5 Q-25.95 -91.1 -23.05 -93.7 -21.4 -95.15 -20.0 -98.25 L-16.25 -95.0 -18.45 -93.05 Q-19.85 -91.85 -20.25 -90.75 -18.9 -90.45 -11.55 -93.15 -3.6 -96.0 0.0 -96.0 L3.15 -95.55 6.25 -94.75 9.75 -91.0 9.0 -90.25 6.5 -92.5 5.05 -92.95 Q3.55 -93.45 3.25 -93.75 M95.45 -73.8 Q95.85 -74.25 96.25 -74.25 L98.25 -73.5 99.0 -72.0 98.25 -70.5 Q97.25 -70.5 95.0 -72.75 95.0 -73.3 95.45 -73.8 M114.5 -16.95 Q111.5 -18.5 107.0 -18.75 106.85 -16.0 109.95 -7.15 112.75 0.8 111.5 5.25 L111.5 5.75 Q114.7 3.75 118.7 -2.3 122.75 -8.4 122.75 -11.35 122.75 -13.0 122.0 -14.55 L120.5 -17.0 120.0 -16.05 Q119.55 -15.5 118.0 -15.5 117.35 -15.5 114.5 -16.95 M111.0 -15.4 L111.25 -15.5 Q116.5 -15.0 118.7 -14.25 119.6 -13.95 122.5 -12.25 121.9 -11.05 119.05 -9.4 L116.35 -8.0 Q113.25 -8.0 111.75 -10.3 110.75 -11.85 110.75 -13.6 110.75 -15.15 111.0 -15.4 M108.0 -6.75 L107.75 -5.25 Q109.3 -2.45 108.75 2.0 109.25 0.3 108.9 -2.85 108.55 -5.6 108.0 -7.0 L108.0 -6.75 M136.05 12.3 Q137.7 12.85 138.0 13.35 L137.75 13.85 Q134.5 13.1 134.0 12.35 L134.25 11.85 136.05 12.3 M16.25 102.1 Q14.6 102.6 11.1 104.0 L7.25 105.35 5.75 105.55 Q4.15 105.9 3.5 106.35 L5.65 108.05 7.75 109.6 Q9.55 109.6 13.0 105.9 L16.25 102.1 M-104.2 -51.55 L-104.0 -49.0 Q-104.0 -45.8 -108.5 -37.55 -113.0 -29.3 -113.0 -23.1 -113.0 -21.6 -112.6 -21.5 L-112.0 -21.25 Q-109.3 -21.3 -107.9 -19.75 -106.5 -18.2 -105.0 -18.25 -106.65 -24.55 -101.25 -32.2 -95.15 -40.75 -84.0 -44.25 L-88.15 -52.3 -92.0 -60.0 Q-93.4 -59.35 -97.8 -56.05 -101.2 -53.45 -104.75 -52.75 -104.3 -52.1 -104.2 -51.55 M-78.45 56.2 Q-81.2 48.45 -86.7 46.15 L-87.0 46.85 -89.45 46.1 -89.75 46.1 -89.65 46.35 Q-88.65 52.85 -87.25 54.6 -86.05 56.0 -81.05 58.85 L-77.0 61.4 Q-77.5 58.8 -78.45 56.2 M-6.6 91.35 Q-2.35 92.2 -0.5 94.6 L-12.5 95.6 Q-13.8 95.6 -16.55 93.6 -19.15 91.7 -20.25 90.1 L-19.8 89.5 -19.5 89.1 -6.6 91.35 M-105.85 9.4 L-108.0 14.1 Q-105.25 15.75 -103.7 16.2 L-102.75 16.3 Q-102.65 14.85 -101.8 11.35 -101.0 8.05 -101.0 6.75 -101.0 4.25 -104.25 4.5 -104.25 6.05 -105.85 9.4 M-104.5 46.45 L-100.5 48.35 -98.0 48.6 Q-97.65 46.2 -96.85 45.2 L-96.75 45.1 -97.25 44.35 -96.15 43.85 Q-102.5 41.55 -104.45 39.8 L-104.8 39.5 -107.0 43.75 Q-107.0 45.05 -104.5 46.45" fill="#a8fffd" fill-rule="evenodd" stroke="none"/>
  </g>
</svg>
