<?xml version="1.0" encoding="UTF-8" standalone="no"?>
<svg xmlns:xlink="http://www.w3.org/1999/xlink" height="233.4px" width="272.75px" xmlns="http://www.w3.org/2000/svg">
  <g transform="matrix(1.0, 0.0, 0.0, 1.0, 134.0, 116.05)">
    <path d="M1.25 -104.75 L-0.9 -104.95 -1.75 -105.75 -2.0 -106.5 Q0.1 -107.1 2.75 -108.4 L7.75 -110.75 10.05 -113.0 12.5 -115.25 Q16.4 -116.95 22.25 -114.95 30.7 -112.15 32.0 -112.0 L39.8 -109.6 47.5 -107.5 Q63.05 -108.4 67.25 -104.55 L70.05 -101.3 Q71.85 -99.45 75.25 -98.75 83.15 -97.0 89.45 -94.6 93.6 -93.0 96.75 -93.0 99.7 -93.0 100.5 -84.95 L100.75 -73.5 Q100.65 -67.65 105.65 -62.85 L110.05 -59.0 Q112.65 -56.65 114.0 -54.75 L119.55 -45.45 125.5 -35.25 Q127.55 -31.85 128.4 -25.9 129.05 -21.05 128.75 -16.5 L130.95 -19.4 134.0 -24.0 Q137.55 -23.2 138.5 -21.75 L138.75 -19.85 Q138.75 -17.8 134.25 -12.2 129.5 -6.25 126.75 -6.25 L124.4 -7.25 Q121.7 -8.4 119.0 -9.0 122.2 -10.35 123.0 -14.45 L123.25 -20.85 Q123.25 -26.85 120.85 -34.0 118.45 -41.15 114.5 -46.75 111.55 -51.0 105.5 -53.8 96.85 -57.75 95.75 -58.5 91.45 -61.5 90.5 -64.75 90.25 -65.65 90.25 -70.1 90.25 -71.35 91.4 -76.45 92.5 -81.6 92.5 -82.85 92.5 -85.5 91.25 -90.5 90.25 -90.75 86.75 -92.3 83.95 -93.5 82.25 -93.5 L75.0 -93.0 Q74.6 -92.6 72.3 -88.05 70.45 -84.45 67.75 -83.5 L63.75 -83.25 Q59.55 -83.25 55.5 -84.35 53.5 -84.9 50.75 -86.0 49.6 -86.5 48.35 -88.3 46.8 -90.5 46.75 -92.75 L46.8 -93.0 48.35 -93.25 54.7 -90.35 Q61.05 -87.3 62.25 -87.0 L66.0 -88.0 Q66.3 -90.05 65.95 -92.2 L65.5 -95.1 Q65.5 -96.7 66.15 -97.55 L67.75 -99.25 Q67.75 -100.0 66.25 -101.5 59.9 -102.25 59.45 -100.65 L59.05 -99.35 Q58.45 -98.75 56.25 -98.75 51.4 -98.75 47.35 -100.6 L40.3 -104.75 Q30.25 -110.75 14.6 -110.75 12.4 -110.75 9.3 -107.75 6.2 -104.75 1.25 -104.75 M70.0 -90.5 Q70.75 -91.25 72.25 -95.75 71.1 -96.45 69.9 -96.15 68.5 -95.8 68.5 -94.1 68.5 -92.55 69.05 -91.75 L70.0 -90.5 M96.35 -61.95 Q98.15 -57.6 105.0 -57.75 L105.0 -58.5 102.5 -59.0 Q100.1 -62.4 98.55 -68.1 97.7 -71.1 96.75 -75.5 95.75 -72.5 95.75 -68.0 95.75 -63.35 96.35 -61.95 M105.45 -25.4 Q105.0 -24.55 105.0 -22.75 105.0 -21.25 105.4 -19.8 L106.0 -17.75 Q107.4 -18.45 108.65 -21.4 109.75 -24.05 109.75 -25.85 109.75 -28.35 109.5 -27.75 L109.15 -27.8 Q108.75 -27.95 108.75 -28.25 106.2 -26.7 105.45 -25.4 M108.0 -31.65 Q110.9 -31.8 112.8 -30.0 115.0 -28.0 115.0 -24.25 L111.5 -17.15 Q108.0 -10.15 108.0 -9.6 108.0 -8.05 112.15 -2.0 116.2 4.05 117.75 5.0 117.4 6.15 113.1 11.95 109.0 17.5 109.0 18.25 109.0 19.75 111.9 23.5 114.75 27.25 114.75 29.5 114.75 31.2 113.1 33.3 111.25 35.7 111.0 36.6 110.6 37.85 110.6 39.95 L110.5 43.35 Q110.25 45.25 108.4 49.15 L105.25 56.1 103.55 59.65 101.75 62.85 Q100.85 64.5 98.95 64.55 96.85 64.65 95.75 66.1 L91.95 72.4 Q89.2 77.0 87.5 78.35 L82.75 76.85 81.65 75.35 80.5 73.85 71.0 73.85 Q69.35 74.25 63.0 77.6 55.75 81.4 55.75 82.85 55.75 84.35 57.4 87.45 L59.0 90.5 Q59.0 95.35 52.7 98.05 L46.85 100.35 Q43.25 101.85 41.0 103.6 38.35 105.6 33.0 111.6 30.3 114.6 25.2 113.9 19.85 113.2 17.5 115.35 L11.05 116.35 Q9.5 116.85 9.5 117.35 L5.0 116.6 3.0 115.85 Q1.5 111.35 1.5 108.0 1.5 104.85 3.0 101.1 L4.5 97.0 4.4 95.4 Q4.0 95.5 3.5 95.1 -4.7 99.2 -8.65 102.4 -15.15 107.65 -14.75 113.1 -15.35 113.1 -16.0 114.35 -20.15 114.2 -21.4 111.95 -22.15 109.2 -23.0 108.1 L-30.5 108.35 Q-33.25 110.95 -38.1 112.65 -41.55 113.85 -42.75 113.85 -48.45 113.85 -50.2 108.5 -50.75 106.8 -50.9 104.55 L-51.0 102.35 Q-51.85 99.65 -57.8 97.55 -60.15 96.7 -62.05 96.3 -66.25 96.9 -70.2 99.6 -72.8 101.4 -75.25 103.85 L-78.75 103.6 -88.6 97.25 Q-97.5 91.05 -97.5 89.0 -97.5 87.25 -95.6 82.75 -93.75 78.3 -93.75 74.35 -93.75 72.85 -96.25 65.05 -98.75 57.3 -100.0 54.85 -109.3 54.5 -112.7 52.55 L-118.25 48.6 Q-114.65 45.75 -114.0 44.1 -116.9 40.3 -122.5 33.8 -126.95 28.25 -128.5 24.1 L-131.65 13.65 Q-134.0 5.35 -134.0 4.0 L-128.95 0.35 Q-122.6 -4.75 -116.75 -12.5 -113.3 -17.05 -107.8 -22.7 L-98.25 -31.75 Q-97.25 -31.5 -95.75 -29.25 -97.5 -27.1 -102.85 -21.75 L-109.5 -15.0 Q-114.05 -10.0 -113.2 -6.95 -111.25 -3.65 -111.25 -0.75 L-112.85 4.85 -114.5 10.75 Q-114.5 16.05 -113.55 20.8 L-111.25 31.35 Q-110.45 35.35 -107.7 37.65 -105.95 39.1 -102.2 40.5 -98.2 42.0 -96.9 42.9 -94.4 44.65 -94.0 47.85 -88.4 47.3 -81.25 55.65 -75.0 62.95 -75.0 65.5 -75.0 66.55 -76.5 71.1 -78.0 75.65 -78.0 77.1 -78.0 79.5 -75.6 82.9 -73.0 86.6 -69.25 89.1 -66.5 90.95 -57.3 93.2 L-57.25 93.1 -54.2 93.95 Q-46.35 96.0 -43.25 98.35 L-43.5 99.15 Q-41.1 100.9 -38.25 103.6 -23.7 103.55 -21.3 104.65 -20.7 104.9 -20.2 105.7 -19.8 106.45 -18.5 106.85 -17.65 105.15 -9.4 98.5 -0.9 91.6 1.0 91.6 5.7 91.6 7.0 92.45 9.85 94.25 11.75 94.85 14.1 99.2 15.5 109.1 L17.5 109.35 27.0 109.35 Q31.55 103.05 42.8 97.15 L49.35 93.4 Q52.0 91.35 52.0 89.0 52.0 87.75 51.0 85.5 50.0 83.25 50.0 82.0 50.0 80.45 51.8 78.2 53.95 75.55 57.55 73.65 67.55 68.45 83.25 71.85 L86.45 68.6 90.0 64.35 Q91.1 63.1 93.95 61.55 96.6 60.15 97.5 58.85 99.25 56.35 105.5 42.85 105.5 39.8 104.4 37.65 L101.0 31.6 Q101.45 30.55 104.55 28.9 L109.0 26.6 Q109.0 25.45 106.15 21.5 103.25 17.55 103.25 16.35 103.25 15.2 106.9 10.0 L110.5 4.5 Q110.5 2.8 109.0 -0.75 107.35 -4.5 106.25 -4.5 102.75 -4.5 101.5 -14.8 100.9 -19.85 101.0 -24.5 101.0 -27.65 103.2 -29.7 105.2 -31.55 108.0 -31.65 M-29.55 -111.15 L-28.25 -112.0 Q-25.65 -110.15 -23.2 -108.9 -18.8 -106.65 -11.75 -105.0 L-9.0 -102.0 Q-9.25 -101.25 -9.75 -100.75 -17.0 -99.25 -21.6 -96.8 -24.55 -95.25 -28.75 -91.75 -26.5 -89.5 -26.25 -88.75 -26.7 -88.3 -31.65 -88.85 L-38.35 -89.5 -40.75 -89.1 -43.75 -88.5 -46.3 -85.45 Q-48.0 -83.6 -50.0 -83.25 L-50.1 -83.9 -50.25 -85.85 Q-50.25 -86.8 -48.2 -88.85 L-45.0 -92.0 Q-37.5 -92.0 -33.25 -99.4 -30.25 -104.6 -30.25 -108.85 -30.25 -110.45 -29.55 -111.15 M-91.75 -41.75 L-92.6 -42.1 -94.0 -43.0 -92.25 -45.25 Q-88.8 -45.75 -84.65 -49.4 -81.0 -52.65 -81.0 -53.85 -81.0 -59.2 -78.6 -64.15 -77.45 -66.5 -73.35 -72.45 -69.8 -77.7 -68.35 -81.5 -66.15 -87.2 -66.5 -94.0 L-66.05 -94.5 Q-65.7 -95.0 -64.25 -95.0 -61.5 -95.0 -58.25 -91.75 L-54.25 -92.0 Q-49.7 -95.25 -49.0 -96.0 L-47.5 -94.1 Q-46.75 -93.05 -46.75 -91.5 -46.75 -90.95 -53.2 -85.55 -60.15 -79.8 -61.5 -77.25 -62.35 -75.4 -64.0 -73.6 -66.45 -70.95 -67.5 -73.25 L-71.25 -66.75 -74.6 -59.3 Q-76.2 -55.2 -77.0 -52.5 -78.0 -48.65 -82.45 -46.15 -85.1 -44.6 -91.75 -41.75 M-41.7 -80.45 Q-42.0 -80.0 -43.5 -80.0 -45.1 -80.0 -46.45 -80.6 L-49.0 -82.0 Q-47.7 -83.9 -45.8 -85.35 -43.9 -86.75 -42.75 -86.75 -42.75 -84.5 -41.25 -81.5 L-41.7 -80.45 M-26.75 81.35 Q-22.45 81.7 -13.9 83.2 -5.35 84.7 -3.75 85.35 L-1.75 86.1 Q-2.9 88.15 -6.2 92.05 L-10.75 97.35 Q-14.4 97.3 -15.4 94.45 -16.55 91.15 -19.5 90.35 -22.55 89.65 -25.35 86.7 -27.2 84.8 -28.25 82.85 L-27.2 81.9 -26.75 81.35" fill="#a8fffd" fill-rule="evenodd" stroke="none"/>
  </g>
</svg>
