<?xml version="1.0" encoding="UTF-8" standalone="no"?>
<svg xmlns:xlink="http://www.w3.org/1999/xlink" height="258.55px" width="279.85px" xmlns="http://www.w3.org/2000/svg">
  <g transform="matrix(1.0, 0.0, 0.0, 1.0, 135.7, 124.65)">
    <path d="M133.4 -16.45 Q119.3 -2.9 114.05 15.65 L113.9 15.55 113.75 15.4 113.55 15.0 113.3 14.4 112.9 13.85 112.5 13.95 112.1 14.3 Q111.05 17.35 113.1 20.25 L117.2 25.35 118.95 27.1 Q116.45 28.6 114.75 31.0 111.2 35.95 109.8 41.5 109.1 44.35 110.25 47.1 112.4 52.25 112.65 57.7 L111.6 58.4 Q82.9 68.9 54.15 78.8 52.5 79.45 51.5 80.55 50.75 81.4 50.75 82.3 50.55 98.85 42.8 113.15 L41.55 113.05 32.05 110.9 Q29.15 110.3 26.6 111.7 23.0 113.75 19.1 114.3 17.1 114.65 15.4 115.65 10.25 118.45 9.4 124.6 L7.9 133.9 -14.5 133.4 -13.25 126.4 -19.0 124.2 Q-18.45 116.9 -23.95 112.2 -30.15 106.8 -38.3 104.8 -47.8 102.35 -57.8 102.2 -75.2 100.7 -87.45 112.5 L-89.5 114.2 Q-90.05 112.7 -91.6 111.8 -95.05 109.75 -98.0 107.3 -99.7 106.0 -99.2 104.0 L-96.8 95.4 Q-95.9 92.45 -97.35 89.65 L-103.35 86.5 -103.6 83.8 Q-129.7 50.8 -135.25 9.25 -136.5 -0.1 -134.15 -8.8 L-133.2 -9.2 -130.9 -9.5 Q-125.75 -10.8 -122.7 -15.05 -122.35 -15.55 -122.4 -16.45 L-122.5 -17.05 Q-114.8 -23.95 -106.65 -32.25 -104.7 -34.3 -102.25 -35.45 -93.9 -39.2 -87.9 -46.05 -84.8 -49.6 -82.85 -54.05 L-77.75 -65.2 Q-72.25 -76.75 -73.1 -88.95 L-71.5 -88.9 Q-66.0 -89.3 -60.55 -91.55 -52.3 -95.1 -45.4 -100.85 -36.3 -108.5 -36.5 -120.6 L-32.25 -120.85 Q-31.25 -121.2 -30.3 -121.7 L-26.9 -123.8 -25.6 -124.65 Q-24.3 -120.3 -20.75 -117.3 -13.8 -111.25 -5.6 -107.6 L7.9 -112.8 44.45 -123.9 39.15 -116.0 45.05 -114.25 41.15 -112.9 51.1 -112.1 Q53.75 -111.95 56.05 -110.85 64.35 -106.85 73.05 -103.6 85.85 -98.7 99.3 -95.8 L113.55 -92.45 111.1 -91.9 Q107.1 -91.25 103.7 -89.65 102.4 -88.95 101.8 -88.05 L102.55 -87.65 103.05 -82.3 Q105.3 -79.65 108.7 -78.85 L109.8 -78.8 110.55 -78.85 110.8 -79.05 111.05 -79.3 Q111.7 -80.2 111.95 -77.1 L111.9 -75.05 111.3 -72.9 110.9 -71.85 110.75 -71.4 Q111.65 -66.25 117.1 -65.15 119.45 -64.7 121.65 -63.45 124.15 -62.0 126.7 -60.85 127.85 -60.25 128.5 -58.9 128.5 -58.5 128.65 -58.1 L132.05 -47.05 Q136.2 -34.05 144.15 -23.45 138.5 -21.25 133.9 -16.9 L134.0 -19.0 Q134.0 -20.0 134.4 -20.8 135.35 -22.65 135.0 -26.0 133.15 -25.1 132.2 -23.85 128.15 -18.4 124.0 -14.0 123.55 -13.55 123.45 -13.05 127.35 -15.2 132.1 -16.7 133.0 -17.0 133.35 -16.5 L133.4 -16.45 M38.8 -105.9 L37.9 -106.8 Q35.25 -108.25 34.55 -111.9 34.15 -114.3 32.05 -114.85 21.7 -111.95 10.95 -107.15 9.5 -106.5 8.0 -106.55 3.5 -106.7 -0.05 -105.05 -2.45 -103.95 -3.45 -100.15 -4.3 -97.15 -9.0 -96.85 -13.4 -96.5 -16.8 -98.35 -22.3 -101.35 -26.3 -105.7 L-28.45 -108.4 Q-29.9 -110.45 -32.0 -111.0 L-33.1 -108.05 Q-33.5 -107.0 -33.5 -106.0 -33.6 -100.95 -38.1 -99.35 -42.55 -97.75 -44.95 -94.95 L-50.7 -87.8 Q-54.35 -82.8 -59.25 -78.3 -65.35 -72.65 -71.95 -66.95 -72.5 -66.5 -72.45 -66.05 -71.8 -57.9 -75.9 -51.9 L-76.85 -49.95 Q-77.65 -47.6 -80.85 -45.75 -98.2 -35.9 -111.35 -21.3 -112.5 -20.0 -112.6 -18.85 L-113.3 -14.05 -113.6 -11.95 Q-114.0 -8.5 -113.7 -5.05 -113.35 -1.0 -114.65 2.15 -116.55 6.7 -118.7 9.2 -121.45 12.4 -122.85 15.05 -123.75 16.75 -120.3 20.25 -117.55 23.1 -115.6 26.75 L-98.3 60.1 Q-94.85 66.9 -89.9 72.85 L-87.8 74.5 Q-84.4 76.0 -83.0 78.95 -82.5 79.95 -82.55 80.95 -82.7 87.1 -79.05 90.05 -77.95 90.9 -76.1 91.35 L-74.9 91.65 Q-74.0 91.95 -73.35 92.4 -71.9 93.45 -70.0 93.0 L-63.1 91.55 -58.0 90.9 Q-47.8 90.25 -39.15 93.3 -36.85 94.1 -34.75 95.6 L-32.45 97.45 Q-29.0 100.65 -25.05 103.05 L-19.15 107.15 -15.9 109.8 Q-8.65 115.9 -3.85 123.85 L-2.9 124.65 Q-0.75 125.3 -0.2 122.9 0.65 119.35 2.25 116.05 3.0 114.45 3.25 112.85 3.8 108.7 7.95 109.3 9.0 109.45 9.45 110.25 10.3 111.65 11.95 111.5 L13.1 111.2 Q20.15 108.45 26.75 104.55 33.25 100.75 37.8 95.85 L41.8 91.8 41.65 91.0 40.2 82.9 Q40.0 81.95 40.45 81.25 L41.75 79.7 43.3 78.35 Q47.15 75.3 52.95 73.85 54.5 73.45 55.7 72.55 59.8 69.3 65.0 69.05 66.95 68.9 67.55 67.75 69.35 64.2 72.1 61.05 L74.6 57.7 Q77.2 53.55 81.05 51.05 L82.75 49.7 Q86.1 46.3 90.95 47.25 L93.05 47.7 Q96.4 48.5 98.25 49.55 L99.4 50.45 Q100.95 52.35 101.0 50.95 99.3 49.65 100.25 46.0 L100.75 43.9 Q101.0 42.95 101.45 42.3 L108.4 32.3 Q106.45 29.15 102.6 25.3 L109.15 14.05 109.5 12.95 Q109.5 5.55 111.1 -0.95 111.5 -2.5 112.4 -3.7 115.05 -7.3 116.95 -9.05 L118.1 -9.7 Q119.0 -10.0 119.1 -10.35 118.5 -10.5 118.0 -11.0 116.3 -12.8 116.05 -16.0 116.0 -17.0 115.55 -17.7 114.85 -18.7 113.85 -20.95 112.65 -23.65 112.65 -27.0 L112.0 -39.0 Q111.5 -38.5 110.9 -38.3 L109.2 -37.6 Q107.95 -37.05 106.0 -37.2 102.2 -37.5 99.2 -41.15 L97.8 -42.8 Q94.7 -46.3 93.55 -50.9 93.05 -52.8 93.4 -54.95 L93.75 -56.1 Q95.5 -60.5 101.0 -60.9 L102.75 -60.55 Q104.7 -59.35 105.2 -60.95 L106.05 -62.95 Q107.95 -66.3 111.0 -68.0 109.3 -68.3 108.8 -69.95 108.5 -71.0 107.8 -71.8 102.65 -77.8 99.0 -84.0 99.65 -74.0 94.85 -66.1 94.5 -65.5 93.95 -65.45 83.1 -64.2 73.1 -67.3 67.7 -69.0 67.15 -74.0 66.8 -76.8 68.35 -78.7 69.0 -79.5 70.0 -79.5 L72.05 -79.4 77.8 -78.85 Q82.0 -75.6 88.05 -75.3 L90.6 -75.25 Q92.1 -83.75 88.7 -91.7 L82.05 -90.95 Q77.2 -94.95 72.1 -98.15 L70.9 -98.7 Q66.65 -100.05 65.15 -96.95 63.6 -93.8 61.0 -91.0 L60.25 -89.9 Q59.2 -87.4 57.1 -89.1 L55.0 -91.0 53.9 -91.85 Q50.3 -93.95 46.7 -96.65 43.55 -99.0 41.85 -101.9 L40.9 -102.7 Q36.5 -104.0 38.8 -105.9 M124.05 -54.1 Q124.35 -56.45 125.05 -58.55 L118.25 -59.4 Q121.1 -56.25 119.2 -52.7 118.05 -50.6 117.85 -48.3 116.85 -37.2 118.15 -26.35 118.5 -23.55 119.65 -21.1 120.9 -18.6 123.25 -16.7 127.5 -25.8 133.55 -33.05 134.55 -34.2 134.2 -35.7 L133.15 -36.6 130.75 -40.7 Q128.85 -46.3 124.9 -50.95 123.8 -52.3 124.05 -54.1 M103.05 -55.25 Q104.8 -46.6 111.85 -42.55 111.95 -42.45 112.15 -42.4 L115.15 -53.95 103.05 -55.25" fill="#a8fffd" fill-rule="evenodd" stroke="none"/>
    <path d="M133.4 -16.45 L133.35 -16.5 Q133.0 -17.0 132.1 -16.7 127.35 -15.2 123.45 -13.05 123.55 -13.55 124.0 -14.0 128.15 -18.4 132.2 -23.85 133.15 -25.1 135.0 -26.0 135.35 -22.65 134.4 -20.8 134.0 -20.0 134.0 -19.0 L133.9 -16.9 133.55 -16.6 133.4 -16.45" fill="#ffffff" fill-rule="evenodd" stroke="none"/>
  </g>
</svg>
