<?xml version="1.0" encoding="UTF-8" standalone="no"?>
<svg xmlns:xlink="http://www.w3.org/1999/xlink" height="250.35px" width="270.5px" xmlns="http://www.w3.org/2000/svg">
  <g transform="matrix(1.0, 0.0, 0.0, 1.0, 132.0, 123.25)">
    <path d="M75.75 -100.75 Q74.9 -99.2 74.65 -97.65 74.5 -96.65 74.5 -94.35 74.5 -89.35 75.8 -84.6 77.1 -79.8 79.5 -76.0 81.05 -73.5 93.3 -68.55 107.4 -62.85 110.5 -60.75 110.2 -59.35 104.95 -55.55 101.0 -52.7 98.0 -51.0 105.1 -46.2 110.0 -39.85 112.75 -36.25 117.4 -28.15 121.8 -20.45 125.2 -16.3 130.6 -9.7 138.5 -4.5 L137.0 -2.9 134.75 -0.75 Q131.25 -1.0 130.5 -1.5 118.5 6.05 112.85 20.2 109.75 28.0 106.6 42.3 L107.05 40.9 Q109.25 36.7 113.5 37.35 L113.75 37.65 Q114.0 37.8 114.0 39.25 114.0 40.35 111.75 43.3 109.5 46.25 109.5 48.6 109.5 50.5 116.3 53.3 L124.5 56.6 Q123.95 58.2 121.25 60.8 L117.5 64.35 Q109.0 62.4 108.0 58.15 L107.05 54.75 Q106.1 52.85 103.25 51.6 L98.35 57.7 Q94.8 62.15 90.75 63.1 97.75 71.85 97.75 72.85 97.75 73.5 91.45 85.75 84.9 100.05 83.75 110.35 83.5 111.1 82.5 111.35 L79.0 109.85 Q78.35 108.4 78.25 106.1 L78.25 101.6 73.5 105.2 Q71.6 106.65 70.5 108.35 L68.3 106.1 Q67.0 104.5 67.0 103.35 67.0 101.45 68.45 101.0 70.95 100.15 72.5 98.6 80.2 100.95 81.9 96.0 82.4 94.65 82.7 91.3 83.05 88.1 83.5 86.85 84.3 84.7 88.5 78.05 92.25 72.05 92.25 71.1 92.25 70.5 88.75 65.85 L85.25 61.0 Q85.25 59.55 86.55 58.75 87.75 58.05 92.5 56.6 93.9 55.25 96.5 50.05 99.5 45.95 104.5 47.85 L106.5 42.6 Q103.1 41.6 102.3 40.35 102.0 39.9 102.0 38.1 102.0 36.55 103.65 23.05 L105.25 9.6 Q105.25 8.25 100.3 3.1 95.8 -1.65 93.5 -3.25 L93.3 -3.6 Q93.45 -4.0 95.0 -4.0 96.7 -4.0 99.85 -1.2 102.9 1.6 103.5 3.5 105.85 1.0 108.15 -8.0 110.25 -16.3 110.25 -20.85 L107.4 -30.5 Q104.5 -40.5 104.5 -43.0 102.75 -45.85 100.5 -46.5 L96.05 -45.95 Q92.1 -45.0 91.0 -45.0 87.9 -45.0 84.1 -48.55 80.85 -51.55 80.25 -53.5 78.25 -59.2 78.25 -62.5 78.3 -68.55 76.4 -72.0 74.5 -75.5 74.5 -79.35 74.5 -80.75 71.9 -87.9 69.25 -95.05 69.25 -98.5 L59.05 -96.15 49.0 -94.0 19.5 -94.25 Q17.45 -95.6 12.65 -97.4 7.7 -99.25 6.5 -100.0 L6.25 -98.0 6.8 -97.75 Q7.05 -97.5 5.5 -97.5 3.45 -97.5 0.8 -100.55 -2.15 -103.9 -3.25 -104.25 -9.25 -104.5 -13.85 -105.95 -19.0 -107.6 -22.75 -108.0 L-25.75 -108.5 Q-24.95 -106.85 -20.7 -104.35 -16.1 -101.65 -15.25 -100.5 L-15.75 -99.25 Q-18.0 -99.5 -26.7 -102.2 -36.25 -105.15 -38.5 -106.75 -47.0 -103.6 -48.25 -102.75 -50.35 -101.3 -53.75 -100.75 -53.65 -99.25 -55.25 -95.75 -56.75 -92.55 -58.0 -91.0 L-60.8 -86.0 Q-62.8 -82.25 -63.75 -81.25 L-67.85 -76.95 Q-70.7 -74.0 -71.75 -72.25 -77.55 -62.25 -93.2 -44.4 L-91.8 -33.0 Q-91.25 -29.0 -91.25 -23.75 L-92.0 -16.05 Q-92.7 -9.3 -92.5 -5.75 -92.0 -0.45 -92.05 2.55 -92.15 7.85 -94.25 11.1 L-92.0 11.6 Q-88.0 15.0 -87.1 18.0 -86.75 19.25 -86.75 24.0 -86.75 28.1 -87.0 30.35 L-87.65 30.45 -90.0 31.1 -91.5 30.55 -93.75 29.85 Q-92.75 26.85 -91.25 24.6 L-91.25 16.6 -99.0 16.1 -100.2 14.7 -102.25 12.35 Q-96.8 7.95 -95.2 -5.3 -94.5 -10.95 -94.5 -24.6 L-94.6 -29.6 -94.5 -35.5 -94.55 -35.95 -95.0 -36.75 Q-104.0 -31.8 -108.95 -25.2 -113.4 -19.25 -114.0 -12.75 -114.75 -3.35 -114.75 10.35 -114.75 13.7 -109.8 18.75 -107.6 17.25 -106.15 16.75 -102.9 15.7 -101.75 20.35 L-104.2 22.3 -105.7 22.95 Q-104.0 24.85 -104.0 25.35 -104.0 26.8 -104.2 26.75 L-105.0 26.6 Q-107.2 26.15 -112.45 22.2 L-119.5 17.1 -119.75 21.35 -120.15 21.75 -122.25 22.1 Q-123.7 22.1 -123.8 21.25 -123.85 20.0 -124.0 19.85 -124.1 20.9 -126.1 25.6 -128.0 30.1 -128.0 31.6 -128.0 33.45 -122.1 40.3 L-115.75 47.35 -115.95 47.8 -116.75 48.85 Q-119.5 45.6 -126.45 38.75 -132.0 32.7 -132.0 29.0 -132.0 26.55 -130.0 20.7 -128.0 14.85 -128.0 12.1 -128.0 10.9 -127.2 8.35 L-126.0 4.0 Q-125.75 2.75 -126.2 -0.05 L-126.75 -4.25 Q-126.75 -7.85 -124.3 -14.25 -121.75 -20.95 -117.7 -27.4 -108.5 -42.25 -99.0 -45.25 L-98.25 -46.0 -100.05 -47.1 -101.5 -48.25 Q-97.35 -51.75 -98.6 -59.85 L-99.3 -66.0 Q-99.25 -69.3 -97.5 -71.5 -78.85 -79.6 -69.95 -88.1 -61.35 -96.25 -59.75 -106.75 L-57.35 -106.55 Q-55.4 -105.75 -54.25 -105.75 -52.55 -105.75 -46.85 -108.75 L-41.25 -111.75 Q-39.0 -111.75 -36.55 -109.75 L-33.0 -106.25 -29.85 -106.05 Q-26.65 -105.85 -26.5 -106.0 -30.95 -109.25 -32.85 -111.1 L-36.25 -115.0 Q-38.05 -117.45 -41.9 -119.7 -45.6 -121.9 -46.5 -123.25 -31.8 -122.65 -11.25 -112.35 9.3 -100.85 16.25 -98.25 L46.0 -98.5 Q50.25 -100.6 70.0 -104.0 71.2 -104.0 72.65 -103.4 74.8 -102.5 75.75 -100.75 M83.75 -69.25 Q85.75 -58.75 85.75 -52.75 L86.75 -52.05 89.1 -51.75 Q90.2 -51.75 95.5 -55.75 L102.5 -61.25 102.75 -61.75 Q98.8 -62.35 91.3 -65.85 L83.75 -69.25 M96.25 -21.0 Q101.25 -18.9 101.25 -13.85 101.25 -12.1 100.55 -10.75 L98.5 -7.0 96.0 -7.25 Q94.3 -8.7 92.6 -14.0 91.75 -16.6 91.25 -18.85 91.25 -20.8 92.8 -21.35 94.25 -21.85 96.25 -21.0 M114.75 -4.45 L110.75 11.1 Q112.8 6.35 117.25 1.75 122.95 -4.15 129.25 -5.5 L130.6 -5.7 Q132.05 -6.05 132.5 -6.5 L124.9 -13.65 118.5 -19.5 114.75 -4.45 M109.5 52.35 Q110.75 53.45 112.2 55.7 L114.25 58.6 117.0 55.85 Q112.1 52.75 109.5 52.35 M6.5 95.1 L-0.35 95.05 Q-1.65 95.15 -2.5 95.6 L1.0 96.35 Q4.25 98.75 6.4 101.95 L9.25 107.35 Q9.15 106.9 9.55 105.15 L10.0 101.85 Q10.0 99.9 9.4 98.5 8.55 96.65 6.5 95.1 M11.0 97.35 Q11.5 96.7 11.7 95.0 L12.2 91.9 Q13.35 87.65 18.75 85.35 19.75 84.9 27.2 80.05 33.6 75.85 35.5 75.85 39.7 75.85 42.65 77.3 L46.5 79.85 Q48.25 80.95 60.75 84.85 65.85 86.45 68.55 89.45 70.3 91.4 71.75 95.1 L70.25 96.1 Q66.95 90.25 56.55 87.9 L48.55 85.8 Q44.25 84.3 41.75 81.6 L39.0 82.1 39.7 82.4 Q40.0 82.5 40.0 84.0 40.0 85.55 39.15 85.95 L37.75 86.35 Q31.35 87.35 30.15 90.95 29.8 91.9 29.55 93.7 29.2 95.2 28.25 95.85 L28.25 106.1 Q36.1 106.8 39.05 111.6 L41.1 115.75 Q42.3 118.25 43.75 119.6 L42.75 120.35 Q41.45 119.95 39.95 118.0 38.55 116.15 35.5 115.35 32.5 114.65 29.55 113.45 26.25 112.1 25.0 110.85 20.0 111.1 17.5 111.85 16.8 112.55 15.3 114.8 13.2 116.7 8.5 116.85 7.5 118.15 5.9 121.65 L3.25 127.1 -5.5 126.85 Q-8.35 124.7 -11.7 120.25 L-17.35 112.75 Q-24.5 104.25 -34.25 105.35 -37.15 100.4 -43.3 96.05 L-52.5 89.6 -55.75 89.85 -54.1 91.9 Q-52.75 93.85 -52.75 95.1 L-53.65 96.1 -54.75 97.1 -57.25 97.35 -59.75 93.6 -73.5 92.6 Q-86.4 89.7 -90.65 85.2 -93.65 82.0 -93.1 76.45 -92.4 69.15 -92.85 67.35 -94.25 62.25 -102.0 58.85 L-100.7 57.85 Q-100.0 57.05 -100.0 55.5 -100.0 51.75 -105.15 45.7 L-112.0 37.6 Q-105.85 35.2 -97.95 44.45 -90.6 53.0 -90.75 58.6 -90.1 60.6 -89.05 65.7 L-87.5 72.85 Q-87.3 73.55 -87.55 79.5 -87.7 83.7 -84.75 86.1 L-80.55 86.8 -74.5 88.1 -61.25 87.85 -60.8 86.3 Q-60.25 85.2 -59.25 84.35 -49.95 87.7 -44.4 90.95 -37.4 95.05 -35.0 99.6 L-30.75 99.6 Q-23.95 95.1 -19.75 92.95 -12.3 89.1 -2.0 89.1 L5.25 89.35 Q9.1 95.1 11.0 97.35 M16.85 96.8 Q15.95 99.1 15.0 102.6 L15.0 102.85 23.0 102.6 Q22.0 98.85 22.0 90.85 18.6 92.5 16.85 96.8 M68.0 113.85 L69.55 114.05 Q71.3 114.4 72.25 114.85 L72.0 115.6 69.75 116.3 Q67.75 117.1 66.0 118.85 L61.0 118.85 Q58.75 118.35 58.25 117.6 L62.8 115.9 68.0 113.85 M4.0 115.25 L7.0 109.75 Q7.0 102.15 -2.0 100.45 L-9.25 99.7 -14.75 98.85 Q-16.35 98.85 -18.9 100.65 L-23.5 103.6 Q-19.8 106.3 -14.95 113.0 -9.9 120.0 -7.0 122.35 L-3.6 122.6 0.0 122.1 4.0 115.25 M-93.5 -60.5 L-93.5 -54.5 Q-93.35 -54.5 -92.95 -54.1 -92.5 -53.6 -92.25 -53.5 L-84.95 -60.3 Q-79.65 -65.3 -78.75 -67.25 L-82.3 -64.2 Q-85.8 -61.85 -91.25 -62.25 L-92.45 -61.45 -93.5 -60.5 M-123.25 -5.0 L-123.25 3.25 -122.75 3.25 -119.95 -5.7 Q-118.35 -11.15 -119.25 -14.25 L-119.25 -14.0 Q-120.75 -12.05 -121.6 -9.9 L-123.25 -5.0 M-118.75 10.1 L-119.1 11.75 Q-119.0 13.05 -116.75 13.85 -116.75 14.6 -115.75 14.85 -116.15 13.95 -117.3 12.05 L-118.75 9.85 -118.75 10.1" fill="#a8fffd" fill-rule="evenodd" stroke="none"/>
  </g>
</svg>
