<?xml version="1.0" encoding="UTF-8" standalone="no"?>
<svg xmlns:xlink="http://www.w3.org/1999/xlink" height="258.45px" width="259.75px" xmlns="http://www.w3.org/2000/svg">
  <g transform="matrix(1.0, 0.0, 0.0, 1.0, 138.7, 113.1)">
    <path d="M-11.65 108.1 L-13.0 107.85 -21.85 106.7 Q-27.25 106.05 -27.85 111.75 -27.95 112.5 -27.5 113.05 -22.45 118.4 -18.15 124.35 -15.45 128.05 -14.15 132.45 -12.9 136.8 -10.85 138.0 L2.5 122.55 Q-5.9 116.8 -11.65 108.1 M-94.6 -42.9 L-98.65 -41.1 Q-103.2 -39.25 -106.7 -35.75 -125.45 -17.25 -130.25 8.7 -130.8 11.75 -129.2 14.4 -126.15 19.55 -121.55 21.85 -121.3 23.5 -120.0 24.6 -116.3 27.45 -112.25 25.6 L-108.65 25.4 Q-103.4 27.15 -100.45 31.95 L-91.6 33.4 Q-87.6 28.5 -88.4 22.45 -88.55 21.15 -89.35 20.35 -94.75 15.3 -102.45 14.15 -98.95 9.4 -96.85 3.8 -88.25 -19.1 -94.6 -42.9 M34.35 89.95 Q32.5 90.7 31.2 92.2 22.95 101.35 10.9 102.35 9.8 104.2 8.95 106.15 8.2 107.8 8.35 109.5 9.1 118.3 18.65 119.15 36.05 119.8 51.5 110.65 55.1 108.55 58.85 106.75 66.3 103.25 66.8 95.6 66.9 93.65 65.45 92.4 62.2 89.7 58.75 87.3 L58.7 86.85 58.7 86.3 58.65 85.4 58.45 85.6 58.05 85.95 53.25 84.6 Q43.65 86.25 34.35 89.95 M65.55 -97.95 L66.25 -97.0 Q68.95 -87.8 75.05 -80.3 77.05 -77.9 80.0 -76.85 90.2 -73.05 100.8 -70.55 105.35 -69.45 109.45 -67.45 109.55 -54.75 112.7 -42.15 115.45 -31.35 121.05 -21.6 L120.55 -20.75 Q113.9 -15.25 109.3 -7.75 107.3 -4.45 106.0 -0.85 104.15 4.15 107.1 8.5 117.7 24.3 111.4 41.9 111.1 42.75 110.15 43.05 107.3 44.0 105.45 46.1 L100.55 51.35 Q90.7 61.15 87.2 74.2 84.4 84.55 78.65 93.85 72.15 104.2 62.05 110.75 46.65 120.65 28.4 123.55 L6.6 124.45 5.5 125.35 Q2.7 127.65 1.2 130.75 -0.5 134.15 -1.55 137.8 -2.05 139.65 -1.0 141.35 L1.2 142.6 Q-0.85 144.25 -3.75 144.7 -14.65 145.75 -25.5 145.1 -28.9 144.95 -30.7 142.3 -27.95 140.1 -26.45 136.95 -22.0 127.4 -27.5 119.25 L-29.25 116.6 -33.5 109.2 -36.05 104.7 Q-42.25 94.75 -53.05 96.5 -57.2 97.1 -58.15 101.15 -60.5 103.45 -63.05 101.85 L-64.4 101.25 Q-86.7 97.6 -100.1 79.4 -101.2 77.9 -101.6 76.2 -103.55 67.7 -106.45 59.35 L-108.25 54.65 Q-109.8 51.0 -108.9 47.25 -112.75 41.15 -119.15 38.55 -115.1 36.45 -110.05 37.3 L-108.0 37.9 Q-103.3 39.9 -99.5 43.5 -98.5 44.45 -98.0 45.95 -93.6 58.45 -94.45 73.0 -94.5 73.45 -94.0 73.95 -90.65 77.45 -88.05 82.0 -85.6 86.3 -80.0 89.0 L-72.75 92.4 Q-70.5 93.45 -68.0 94.05 L-54.1 94.45 Q-51.55 94.05 -51.5 91.95 L-51.5 90.95 Q-51.7 85.7 -46.95 85.3 -44.2 85.1 -41.75 87.7 L-40.1 89.1 Q-36.7 91.6 -36.85 96.95 -37.0 100.95 -31.95 100.35 L-25.05 99.6 -22.0 98.95 Q-13.75 96.15 -4.05 97.4 -3.5 97.45 -3.0 97.95 L1.2 101.7 Q3.7 103.65 1.8 107.85 L1.3 109.05 Q0.3 112.15 2.0 112.95 1.8 113.65 3.95 111.85 7.15 109.2 8.4 105.75 6.4 101.5 4.85 97.0 2.4 89.75 7.85 83.8 L11.35 80.35 Q13.0 78.95 14.9 77.8 18.35 75.75 22.05 75.4 30.15 74.65 37.95 72.8 42.35 71.75 47.0 71.55 48.9 71.45 50.35 72.5 L51.9 73.25 56.05 74.85 Q57.5 75.45 58.5 76.45 L59.3 77.85 59.6 79.0 Q60.25 82.7 62.85 84.2 65.65 85.75 68.7 86.85 L70.95 86.9 83.0 78.95 Q76.45 75.5 78.15 66.0 78.55 63.9 79.85 61.85 81.6 59.15 84.9 56.85 95.4 49.55 105.75 43.5 107.2 42.65 107.3 39.95 L107.5 30.95 107.3 27.9 Q106.35 21.3 102.35 15.7 L100.7 13.15 Q99.2 10.75 98.05 7.9 97.45 6.5 96.5 5.5 96.0 5.0 95.0 5.0 93.05 5.05 91.85 5.8 90.05 7.05 87.9 7.65 87.0 7.95 86.2 8.35 83.1 9.85 80.9 10.6 74.4 12.75 68.0 10.95 69.0 8.7 72.0 8.0 80.95 5.95 88.95 1.9 98.35 -2.9 101.0 -14.0 101.55 -16.45 100.45 -18.3 100.0 -19.0 100.0 -20.0 101.0 -19.5 102.05 -19.25 L104.0 -19.0 Q105.05 -23.8 105.3 -29.0 105.7 -36.0 101.25 -40.25 100.5 -41.0 100.0 -42.0 L98.0 -46.0 Q96.3 -45.2 96.45 -41.95 96.5 -41.0 96.0 -40.0 95.2 -38.3 92.4 -39.8 92.0 -40.0 92.0 -41.0 92.0 -46.5 92.45 -51.95 95.7 -52.8 97.05 -53.95 99.75 -56.25 96.0 -58.05 92.2 -59.9 90.8 -62.9 87.8 -69.6 80.05 -67.75 L78.2 -67.7 Q77.0 -68.0 76.3 -69.2 73.85 -73.35 70.25 -77.2 L61.7 -85.65 57.05 -89.1 44.8 -95.55 Q42.55 -96.6 40.85 -95.2 L39.1 -93.9 Q37.25 -92.65 35.1 -89.95 32.85 -87.1 29.9 -86.55 27.45 -89.45 23.0 -89.5 L20.95 -89.55 6.0 -90.2 Q-2.9 -90.45 -11.0 -89.0 -10.7 -87.3 -7.95 -87.45 -7.5 -87.5 -6.95 -87.05 -2.0 -82.75 3.9 -80.7 L4.45 -78.95 Q4.2 -75.85 1.7 -77.55 L0.1 -78.3 -1.05 -78.55 Q-6.4 -79.25 -11.15 -81.75 -12.5 -82.5 -13.95 -83.1 -27.4 -88.35 -40.85 -83.6 -44.95 -82.1 -47.0 -80.0 -47.7 -79.8 -46.0 -82.0 -42.3 -86.9 -37.35 -88.85 -37.0 -89.0 -36.7 -89.9 L-35.95 -90.9 Q-32.95 -93.2 -35.1 -94.85 -38.4 -97.45 -44.05 -99.9 L-54.2 -104.6 -56.0 -105.1 Q-64.3 -105.85 -67.55 -100.3 -68.0 -99.5 -68.9 -98.9 -75.45 -94.5 -79.25 -88.25 L-87.75 -79.75 Q-89.65 -77.75 -89.6 -75.0 -89.45 -70.05 -91.25 -66.1 -91.5 -65.5 -92.1 -65.4 -96.3 -64.5 -94.1 -60.95 -91.35 -56.6 -90.45 -52.9 -90.0 -51.0 -90.8 -49.4 -91.0 -49.0 -91.9 -48.7 L-93.0 -48.0 Q-91.0 -44.5 -88.2 -42.7 -87.05 -41.95 -87.05 -40.0 -87.0 -21.5 -87.1 -3.0 -87.1 -0.4 -88.35 1.8 -89.85 4.65 -90.4 7.9 L-90.5 8.95 Q-90.5 9.45 -89.95 9.9 -85.55 13.3 -81.25 17.25 -79.4 19.0 -80.4 21.8 L-81.55 25.1 Q-83.2 30.0 -84.2 34.9 -84.5 36.45 -85.1 37.9 -85.8 39.65 -89.05 39.25 -94.25 38.6 -98.7 36.35 -99.5 35.95 -99.95 34.9 -100.85 32.65 -102.1 32.5 L-103.1 32.6 Q-108.8 33.9 -115.0 33.95 -122.55 34.05 -125.0 27.95 -126.7 28.35 -125.4 31.15 -123.7 34.8 -121.0 37.85 L-121.8 37.6 Q-127.25 36.2 -132.5 34.2 -134.65 33.35 -135.35 31.05 -136.6 26.75 -138.7 23.0 L-137.7 21.0 Q-134.0 12.5 -132.5 3.3 -129.1 -17.35 -115.95 -33.3 -107.85 -43.15 -96.85 -50.2 L-100.8 -59.4 Q-101.75 -61.6 -103.2 -63.45 -105.2 -66.05 -108.3 -67.65 L-107.25 -68.2 Q-106.75 -68.45 -106.3 -68.8 L-105.35 -69.6 -104.6 -70.55 -103.8 -71.6 -103.2 -72.8 -101.7 -76.25 -101.15 -76.55 Q-100.75 -76.7 -100.35 -76.95 L-99.65 -77.3 -99.1 -77.95 -98.65 -78.7 -98.3 -79.6 Q-97.8 -81.2 -97.85 -83.2 -85.85 -92.7 -75.6 -104.3 -66.3 -114.8 -52.55 -112.75 -50.5 -112.55 -48.8 -111.5 -41.4 -107.15 -34.95 -101.85 -33.45 -100.65 -31.7 -100.35 L-17.4 -98.9 -13.15 -98.05 Q-0.85 -95.95 11.55 -97.85 L49.75 -103.1 Q58.35 -102.45 65.55 -97.95" fill="#a8fffd" fill-rule="evenodd" stroke="none"/>
  </g>
</svg>
