<?xml version="1.0" encoding="UTF-8" standalone="no"?>
<svg xmlns:xlink="http://www.w3.org/1999/xlink" height="240.05px" width="250.9px" xmlns="http://www.w3.org/2000/svg">
  <g transform="matrix(1.0, 0.0, 0.0, 1.0, 122.35, 123.4)">
    <path d="M5.05 -101.85 L3.0 -101.45 Q-0.35 -101.35 -2.8 -99.75 -4.3 -98.8 -6.9 -99.4 -12.15 -100.7 -16.8 -104.25 -18.9 -105.85 -21.0 -107.0 L-20.25 -104.95 -19.6 -103.2 -18.4 -100.8 -17.75 -99.95 Q-11.65 -98.4 -11.1 -93.0 -11.0 -92.0 -11.5 -91.45 -15.35 -87.2 -20.95 -84.85 L-25.1 -83.55 Q-29.15 -82.65 -32.9 -80.75 -38.6 -77.85 -45.0 -77.85 -51.75 -77.85 -56.0 -80.0 -55.95 -82.5 -52.95 -83.85 L-50.1 -85.2 Q-38.3 -91.2 -27.05 -96.05 L-25.35 -96.2 Q-23.3 -95.35 -23.0 -97.0 -23.5 -97.5 -23.6 -98.05 -24.0 -100.5 -23.7 -102.95 -23.3 -106.7 -25.0 -108.0 -26.4 -105.6 -29.85 -102.8 L-33.25 -100.4 -51.05 -89.1 Q-52.0 -88.5 -53.05 -88.4 -56.5 -88.0 -59.8 -86.6 -61.0 -86.95 -61.6 -85.8 -62.4 -84.2 -64.95 -84.45 -67.7 -84.7 -68.35 -83.15 -73.2 -72.0 -77.65 -60.85 -78.0 -60.0 -77.55 -59.3 -75.95 -56.95 -75.6 -54.05 L-75.55 -53.05 Q-75.95 -49.45 -77.85 -45.9 -80.4 -41.1 -84.95 -37.9 -85.5 -37.5 -86.1 -37.4 -91.1 -36.4 -95.15 -33.2 -96.0 -32.5 -96.65 -32.8 -98.15 -33.45 -99.15 -31.05 -99.95 -29.2 -100.4 -27.1 L-100.55 -25.95 Q-100.8 -23.3 -102.05 -22.05 -104.2 -19.85 -105.65 -15.9 -106.0 -15.0 -105.7 -14.9 -103.2 -14.0 -101.8 -11.1 L-101.3 -9.9 -98.8 -2.05 Q-94.75 11.25 -94.5 25.95 L-94.5 28.95 Q-94.5 30.45 -94.8 32.0 -95.7 36.15 -92.0 36.1 -87.55 36.1 -84.0 39.95 L-82.95 40.9 Q-78.05 44.65 -76.75 50.9 -76.5 51.95 -75.75 52.7 -73.3 55.05 -72.35 59.05 -71.25 63.7 -72.6 66.15 L-73.5 67.3 Q-75.3 68.65 -76.1 71.95 -76.9 75.6 -78.0 77.95 L-74.0 78.15 Q-70.2 78.6 -66.9 79.55 -65.5 79.95 -64.2 80.5 -60.7 81.95 -57.05 81.55 -50.95 80.9 -48.0 83.95 L-46.9 84.85 Q-46.0 85.45 -45.55 86.25 -43.65 89.85 -41.15 93.1 L-40.0 94.15 Q-41.25 95.55 -41.95 97.95 -42.5 99.95 -43.5 101.3 L-44.3 102.85 -45.0 103.95 Q-44.8 106.15 -42.55 104.65 -41.5 103.95 -40.0 103.8 L-20.0 102.55 -12.0 101.85 Q3.65 99.4 17.9 94.65 18.5 94.45 18.65 93.85 20.15 88.25 24.05 86.0 25.0 85.45 26.05 85.25 L26.15 85.25 27.9 86.15 Q28.5 86.45 28.7 87.05 L29.35 88.8 Q30.35 91.3 31.25 92.8 L32.75 95.1 Q35.0 98.65 38.95 99.3 L40.6 99.15 41.35 98.1 Q43.05 94.4 43.85 89.9 44.0 88.95 44.45 88.25 45.0 87.45 45.9 86.8 47.0 85.95 48.2 85.5 56.05 82.4 63.95 80.75 L71.95 78.8 Q73.35 78.45 75.25 77.4 L76.55 77.45 Q78.65 79.45 78.15 82.95 78.0 83.95 79.0 85.05 79.4 88.6 78.0 91.95 L80.0 91.95 81.8 92.35 83.0 92.95 Q85.8 80.75 91.8 68.85 92.5 67.45 92.8 65.9 94.75 55.45 98.8 44.85 101.05 39.0 102.05 32.95 102.75 29.05 102.55 24.95 L102.45 23.9 101.65 12.95 101.1 7.95 Q99.8 -0.15 104.1 -5.95 L104.75 -7.1 Q107.2 -12.4 113.05 -13.8 114.0 -14.0 114.6 -14.85 115.2 -17.2 114.0 -17.1 L111.05 -17.2 Q100.8 -18.6 99.3 -8.95 L98.6 -5.1 98.3 -3.9 97.15 -1.6 92.0 -2.0 Q92.05 -3.95 93.0 -5.0 L93.95 -6.05 Q95.35 -7.65 95.25 -11.0 L94.6 -26.0 94.55 -30.0 Q94.7 -35.45 92.0 -39.0 L98.0 -39.0 Q99.0 -39.0 99.4 -38.5 100.95 -36.6 101.0 -38.0 102.5 -39.1 102.5 -41.0 L102.2 -42.45 Q101.35 -43.7 99.1 -45.15 L97.9 -45.85 Q92.35 -49.25 88.0 -54.0 87.5 -54.5 87.3 -55.1 L86.55 -56.7 Q84.8 -59.4 84.25 -63.05 L83.6 -65.9 Q82.5 -69.8 81.7 -73.95 L81.35 -76.05 Q80.75 -80.1 79.65 -83.9 79.5 -84.5 78.9 -84.6 77.05 -85.05 75.9 -85.85 75.0 -86.5 74.0 -86.55 69.75 -86.75 68.0 -89.0 67.65 -88.0 68.4 -84.05 68.5 -83.5 69.1 -83.35 72.35 -82.55 75.15 -80.15 L77.65 -77.7 Q79.6 -75.45 80.1 -74.2 L79.0 -74.5 75.95 -74.35 Q73.0 -74.0 70.05 -74.35 L67.95 -74.75 Q60.95 -76.4 55.9 -79.85 55.0 -80.5 53.95 -80.75 47.0 -82.5 41.2 -87.2 36.1 -91.3 32.0 -94.0 33.0 -94.0 33.8 -94.4 35.3 -95.2 38.0 -95.05 39.0 -95.0 39.7 -94.55 43.05 -92.35 46.9 -94.2 L48.0 -94.5 Q50.15 -94.4 50.0 -96.0 L44.9 -97.75 Q44.0 -98.0 43.4 -98.5 40.9 -100.5 36.0 -100.5 L31.95 -100.65 Q20.25 -101.6 9.0 -100.15 8.0 -100.0 8.0 -100.15 7.65 -102.65 5.05 -101.85 M67.1 -104.9 L62.95 -100.55 68.35 -97.9 61.45 -96.2 87.3 -86.75 Q83.55 -85.7 82.15 -82.1 81.65 -80.75 82.3 -79.7 85.0 -75.05 86.75 -70.0 88.25 -65.65 90.9 -61.8 97.45 -52.1 108.35 -47.25 114.35 -44.6 118.3 -40.75 117.7 -38.7 116.05 -37.3 L113.6 -35.2 Q111.85 -33.75 111.15 -31.7 108.75 -24.8 108.6 -17.75 L123.4 -24.0 128.55 -21.55 125.1 -19.55 Q123.0 -18.35 120.75 -17.6 115.0 -15.55 113.8 -10.1 111.95 -1.65 108.7 6.3 108.45 6.9 109.0 7.65 L109.3 7.65 109.5 7.55 109.85 7.3 110.25 6.95 110.85 6.6 111.7 6.3 113.1 5.95 114.45 6.45 Q114.8 6.6 115.15 6.9 L114.9 7.55 Q112.4 10.55 111.4 14.35 L105.1 38.3 Q100.0 57.15 91.85 74.7 85.8 87.65 82.05 101.35 81.4 103.75 81.1 101.05 L80.75 100.6 80.35 100.35 79.8 100.1 79.15 100.0 78.3 99.9 77.15 100.05 75.95 100.3 74.55 101.0 73.6 101.8 75.0 94.6 71.2 93.95 73.35 87.4 Q60.9 90.0 50.3 96.9 45.0 100.4 40.85 105.05 38.2 108.0 35.0 110.2 L34.35 109.75 Q33.9 109.3 33.4 109.15 13.2 102.45 -8.25 106.75 L-14.25 107.9 Q-27.4 108.1 -39.85 111.95 -42.65 112.85 -44.45 114.9 -46.6 117.4 -48.05 116.3 -49.0 113.5 -48.25 110.5 -46.85 104.65 -49.05 99.05 -50.3 95.9 -53.5 94.25 -71.35 84.95 -90.1 76.9 -90.8 76.7 -91.0 76.1 -92.7 70.85 -92.55 64.8 -92.45 60.0 -95.65 56.7 L-109.9 41.8 -122.35 4.25 Q-122.15 2.25 -120.65 1.0 L-118.15 -1.05 Q-109.35 -7.65 -109.4 -19.0 -109.4 -20.0 -109.05 -20.75 -104.05 -31.1 -97.4 -40.5 -84.85 -58.25 -75.45 -77.9 -71.05 -87.05 -68.2 -95.95 L-66.05 -95.4 -62.35 -94.65 Q-56.45 -95.3 -50.8 -98.15 -47.35 -99.85 -43.95 -101.05 -35.6 -103.85 -30.3 -111.2 -26.2 -116.8 -24.65 -123.4 L-19.15 -114.15 Q-16.5 -109.85 -11.8 -109.1 -6.8 -108.0 -1.6 -107.4 L31.2 -106.1 67.1 -104.9 M0.9 90.7 Q-4.3 93.2 -9.0 95.9 -11.75 97.5 -15.9 94.8 -24.25 89.25 -21.4 79.6 -14.75 76.75 -6.0 76.9 L1.95 77.35 Q7.5 77.95 12.85 79.4 L18.05 80.6 20.0 81.2 15.8 83.55 0.9 90.7" fill="#a8fffd" fill-rule="evenodd" stroke="none"/>
    <path d="M5.05 -101.85 Q7.65 -102.65 8.0 -100.15 8.0 -100.0 9.0 -100.15 20.25 -101.6 31.95 -100.65 L36.0 -100.5 Q40.9 -100.5 43.4 -98.5 44.0 -98.0 44.9 -97.75 L50.0 -96.0 Q50.15 -94.4 48.0 -94.5 L46.9 -94.2 Q43.05 -92.35 39.7 -94.55 39.0 -95.0 38.0 -95.05 35.3 -95.2 33.8 -94.4 33.0 -94.0 32.0 -94.0 36.1 -91.3 41.2 -87.2 47.0 -82.5 53.95 -80.75 55.0 -80.5 55.9 -79.85 60.95 -76.4 67.95 -74.75 L70.05 -74.35 Q73.0 -74.0 75.95 -74.35 L79.0 -74.5 80.1 -74.2 Q79.6 -75.45 77.65 -77.7 L75.15 -80.15 Q72.35 -82.55 69.1 -83.35 68.5 -83.5 68.4 -84.05 67.65 -88.0 68.0 -89.0 69.75 -86.75 74.0 -86.55 75.0 -86.5 75.9 -85.85 77.05 -85.05 78.9 -84.6 79.5 -84.5 79.65 -83.9 80.75 -80.1 81.35 -76.05 L81.7 -73.95 Q82.5 -69.8 83.6 -65.9 L84.25 -63.05 Q84.8 -59.4 86.55 -56.7 L87.3 -55.1 Q87.5 -54.5 88.0 -54.0 92.35 -49.25 97.9 -45.85 L99.1 -45.15 Q101.35 -43.7 102.2 -42.45 L102.5 -41.0 Q102.5 -39.1 101.0 -38.0 100.95 -36.6 99.4 -38.5 99.0 -39.0 98.0 -39.0 L92.0 -39.0 Q94.7 -35.45 94.55 -30.0 L94.6 -26.0 95.25 -11.0 Q95.35 -7.65 93.95 -6.05 L93.0 -5.0 Q92.05 -3.95 92.0 -2.0 L97.15 -1.6 98.3 -3.9 98.6 -5.1 99.3 -8.95 Q100.8 -18.6 111.05 -17.2 L114.0 -17.1 Q115.2 -17.2 114.6 -14.85 114.0 -14.0 113.05 -13.8 107.2 -12.4 104.75 -7.1 L104.1 -5.95 Q99.8 -0.15 101.1 7.95 L101.65 12.95 102.45 23.9 102.55 24.95 Q102.75 29.05 102.05 32.95 101.05 39.0 98.8 44.85 94.75 55.45 92.8 65.9 92.5 67.45 91.8 68.85 85.8 80.75 83.0 92.95 L81.8 92.35 80.0 91.95 78.0 91.95 Q79.4 88.6 79.0 85.05 78.0 83.95 78.15 82.95 78.65 79.45 76.55 77.45 L75.25 77.4 Q73.35 78.45 71.95 78.8 L63.95 80.75 Q56.05 82.4 48.2 85.5 47.0 85.95 45.9 86.8 45.0 87.45 44.45 88.25 44.0 88.95 43.85 89.9 43.05 94.4 41.35 98.1 L40.6 99.15 38.95 99.3 Q35.0 98.65 32.75 95.1 L31.25 92.8 Q30.35 91.3 29.35 88.8 L28.7 87.05 Q28.5 86.45 27.9 86.15 L26.15 85.25 26.05 85.25 Q25.0 85.45 24.05 86.0 20.15 88.25 18.65 93.85 18.5 94.45 17.9 94.65 3.65 99.4 -12.0 101.85 L-20.0 102.55 -40.0 103.8 Q-41.5 103.95 -42.55 104.65 -44.8 106.15 -45.0 103.95 L-44.3 102.85 -43.5 101.3 Q-42.5 99.95 -41.95 97.95 -41.25 95.55 -40.0 94.15 L-41.15 93.1 Q-43.65 89.85 -45.55 86.25 -46.0 85.45 -46.9 84.85 L-48.0 83.95 Q-50.95 80.9 -57.05 81.55 -60.7 81.95 -64.2 80.5 -65.5 79.95 -66.9 79.55 -70.2 78.6 -74.0 78.15 L-78.0 77.95 Q-76.9 75.6 -76.1 71.95 -75.3 68.65 -73.5 67.3 L-72.6 66.15 Q-71.25 63.7 -72.35 59.05 -73.3 55.05 -75.75 52.7 -76.5 51.95 -76.75 50.9 -78.05 44.65 -82.95 40.9 L-84.0 39.95 Q-87.55 36.1 -92.0 36.1 -95.7 36.15 -94.8 32.0 -94.5 30.45 -94.5 28.95 L-94.5 25.95 Q-94.75 11.25 -98.8 -2.05 L-101.3 -9.9 -101.8 -11.1 Q-103.2 -14.0 -105.7 -14.9 -106.0 -15.0 -105.65 -15.9 -104.2 -19.85 -102.05 -22.05 -100.8 -23.3 -100.55 -25.95 L-100.4 -27.1 Q-99.95 -29.2 -99.15 -31.05 -98.15 -33.45 -96.65 -32.8 -96.0 -32.5 -95.15 -33.2 -91.1 -36.4 -86.1 -37.4 -85.5 -37.5 -84.95 -37.9 -80.4 -41.1 -77.85 -45.9 -75.95 -49.45 -75.55 -53.05 L-75.6 -54.05 Q-75.95 -56.95 -77.55 -59.3 -78.0 -60.0 -77.65 -60.85 -73.2 -72.0 -68.35 -83.15 -67.7 -84.7 -64.95 -84.45 -62.4 -84.2 -61.6 -85.8 -61.0 -86.95 -59.8 -86.6 -56.5 -88.0 -53.05 -88.4 -52.0 -88.5 -51.05 -89.1 L-33.25 -100.4 -29.85 -102.8 Q-26.4 -105.6 -25.0 -108.0 -23.3 -106.7 -23.7 -102.95 -24.0 -100.5 -23.6 -98.05 -23.5 -97.5 -23.0 -97.0 -23.3 -95.35 -25.35 -96.2 L-27.05 -96.05 Q-38.3 -91.2 -50.1 -85.2 L-52.95 -83.85 Q-55.95 -82.5 -56.0 -80.0 -51.75 -77.85 -45.0 -77.85 -38.6 -77.85 -32.9 -80.75 -29.15 -82.65 -25.1 -83.55 L-20.95 -84.85 Q-15.35 -87.2 -11.5 -91.45 -11.0 -92.0 -11.1 -93.0 -11.65 -98.4 -17.75 -99.95 L-18.4 -100.8 -19.6 -103.2 -20.25 -104.95 -21.0 -107.0 Q-18.9 -105.85 -16.8 -104.25 -12.15 -100.7 -6.9 -99.4 -4.3 -98.8 -2.8 -99.75 -0.35 -101.35 3.0 -101.45 L5.05 -101.85 M0.9 90.7 L15.8 83.55 20.0 81.2 18.05 80.6 12.85 79.4 Q7.5 77.95 1.95 77.35 L-6.0 76.9 Q-14.75 76.75 -21.4 79.6 -24.25 89.25 -15.9 94.8 -11.75 97.5 -9.0 95.9 -4.3 93.2 0.9 90.7" fill="#ffffff" fill-rule="evenodd" stroke="none"/>
  </g>
</svg>
