<?xml version="1.0" encoding="UTF-8" standalone="no"?>
<svg xmlns:xlink="http://www.w3.org/1999/xlink" height="276.5px" width="280.5px" xmlns="http://www.w3.org/2000/svg">
  <g transform="matrix(1.0, 0.0, 0.0, 1.0, 131.4, 129.7)">
    <path d="M62.3 122.65 L67.15 124.6 69.85 117.9 Q72.45 111.65 72.95 104.95 73.0 103.95 73.4 103.75 75.0 102.95 76.95 102.7 84.8 101.75 89.0 105.95 L89.2 99.95 Q89.8 91.4 91.6 82.85 92.35 79.35 93.85 76.8 L94.15 76.05 Q94.75 74.7 95.5 73.65 97.05 71.3 99.05 70.05 L100.65 68.65 Q102.75 66.2 107.0 65.9 113.45 65.45 113.0 58.95 112.0 58.95 111.4 59.45 108.55 61.7 104.0 61.1 L102.15 60.6 Q95.95 57.95 93.0 53.95 101.05 47.9 111.05 41.05 114.15 38.95 113.0 38.95 112.5 38.45 112.05 38.5 107.0 38.8 104.9 36.0 104.5 35.45 104.45 34.9 104.0 30.95 104.0 26.95 104.0 25.95 103.0 24.8 102.0 18.7 108.0 16.95 105.8 16.65 106.15 13.95 106.6 10.5 105.65 8.1 104.9 6.1 103.3 4.7 L101.7 3.55 Q92.0 -1.6 83.95 -10.95 83.5 -11.5 83.45 -12.05 83.0 -16.5 82.85 -21.0 82.8 -23.8 84.35 -25.7 L85.55 -27.3 Q87.15 -29.55 90.95 -28.85 96.5 -27.85 100.0 -24.0 100.1 -29.6 105.15 -31.65 L106.9 -32.3 Q112.8 -34.05 118.95 -33.55 122.2 -33.3 123.0 -35.0 119.3 -36.5 117.05 -40.05 114.45 -44.2 111.15 -46.4 102.0 -43.75 92.05 -42.6 L89.95 -42.35 Q86.25 -41.75 84.85 -39.1 L84.55 -38.05 Q84.9 -34.6 81.15 -35.4 78.8 -34.8 78.65 -35.95 L78.45 -38.0 Q78.2 -46.15 76.65 -53.95 73.5 -69.7 65.6 -83.8 63.7 -87.2 60.8 -88.6 L59.2 -89.4 Q57.7 -90.2 55.05 -89.8 50.1 -89.1 49.25 -92.05 49.0 -93.0 49.4 -93.8 49.95 -95.05 50.0 -97.0 43.35 -98.35 36.0 -98.05 L33.15 -98.45 20.1 -102.35 Q13.9 -104.15 7.0 -104.75 L1.05 -105.35 Q-1.8 -105.7 -3.15 -107.9 -3.5 -108.5 -4.1 -108.7 L-5.9 -109.3 -7.05 -109.55 Q-11.5 -109.85 -14.7 -112.35 -15.5 -113.0 -15.6 -114.05 -15.8 -117.15 -15.0 -120.0 L-16.9 -120.3 -21.0 -120.95 -31.95 -121.45 Q-35.7 -121.7 -37.0 -120.0 -34.25 -119.25 -34.85 -115.0 -35.0 -114.0 -35.45 -113.25 L-37.85 -108.95 Q-38.8 -107.2 -39.8 -106.65 -50.2 -100.65 -60.0 -108.0 -64.6 -89.95 -64.9 -70.0 -64.95 -66.45 -66.1 -64.05 -67.0 -62.0 -68.75 -60.7 L-73.7 -56.65 -75.3 -55.45 Q-77.85 -53.7 -79.1 -52.05 -79.5 -51.5 -80.05 -51.45 -83.8 -51.2 -85.9 -53.1 L-92.0 -59.0 Q-92.0 -58.0 -92.3 -57.1 L-92.7 -55.9 Q-93.0 -55.0 -93.45 -54.3 L-94.75 -52.75 -96.3 -51.35 Q-97.85 -50.1 -98.7 -48.8 -100.2 -46.45 -98.85 -44.1 -98.5 -43.5 -98.5 -43.0 -98.6 -40.65 -100.75 -38.75 L-101.25 -38.3 -98.95 -38.4 Q-94.5 -37.95 -94.5 -34.0 L-94.45 -31.0 Q-94.0 -20.5 -94.2 -10.0 -94.3 -4.7 -92.6 -0.15 -89.7 7.7 -89.95 16.95 -90.0 17.95 -89.55 18.65 -87.85 21.1 -91.0 21.95 -92.0 21.95 -92.3 21.5 -94.1 18.7 -99.0 18.85 -102.7 18.95 -105.8 20.4 -109.0 21.9 -110.15 20.05 L-110.9 18.9 Q-113.35 15.5 -112.7 11.0 -111.95 5.4 -117.0 6.0 -116.85 11.6 -115.65 16.85 L-115.2 18.05 Q-114.1 20.45 -112.7 21.55 -111.2 22.75 -111.1 23.95 -110.95 25.9 -110.0 26.95 -109.5 27.45 -109.35 28.05 -108.55 31.5 -107.0 34.95 -105.0 39.45 -101.8 43.8 -99.7 46.7 -98.3 50.05 -91.75 65.9 -80.25 78.2 -77.5 81.15 -73.95 81.7 -66.1 83.0 -62.95 79.0 -62.5 78.45 -62.0 78.45 L-59.95 78.7 Q-57.45 79.35 -55.2 80.4 L-52.8 81.5 Q-49.6 82.95 -46.85 85.8 -43.2 89.65 -37.95 90.65 L-35.1 91.3 Q-29.5 92.7 -23.0 92.4 L-4.0 91.5 Q-2.5 91.45 -1.45 90.45 3.2 86.2 7.0 83.95 7.0 86.45 7.35 88.9 7.5 89.95 8.25 90.2 L12.15 90.45 3.9 94.7 Q-3.2 98.05 -10.95 97.45 -13.85 97.25 -14.0 97.95 -12.4 100.0 -12.8 103.0 -13.2 105.65 -11.0 105.6 3.85 105.05 17.1 100.25 21.7 98.55 23.85 95.85 26.75 92.2 31.0 92.4 L32.75 92.2 Q34.15 91.7 36.1 94.9 39.8 101.1 44.8 104.25 48.1 106.3 47.25 112.0 L46.55 114.8 Q45.45 117.95 46.0 116.95 L46.9 115.9 Q48.8 113.3 52.0 113.85 56.85 114.75 57.75 119.0 57.9 119.9 58.5 120.6 L51.75 132.0 Q47.8 123.3 38.0 121.7 L35.1 121.15 40.2 110.9 26.55 111.85 26.5 125.9 24.35 123.85 Q19.35 118.95 13.15 115.95 10.55 114.8 7.8 113.95 L6.7 128.65 Q3.75 119.25 -5.35 115.2 -8.85 113.75 -12.6 113.2 -17.75 105.25 -26.65 101.4 -38.3 96.45 -50.45 92.55 -57.9 90.2 -65.5 91.45 L-67.8 91.8 Q-80.6 93.1 -88.35 83.2 -97.75 71.3 -104.95 57.2 -113.7 56.05 -120.35 50.45 -128.3 43.9 -130.65 33.7 -133.45 21.6 -125.75 11.45 -123.55 8.6 -122.75 5.3 -120.35 -4.25 -120.2 -14.55 -120.05 -22.75 -117.15 -30.0 L-116.45 -31.65 Q-115.0 -35.0 -112.9 -38.1 -112.2 -39.1 -110.7 -39.4 -103.2 -41.25 -101.7 -48.4 L-106.5 -52.6 Q-99.0 -52.25 -96.1 -59.35 -95.1 -61.85 -94.95 -64.55 L-94.75 -63.85 Q-90.25 -59.65 -83.2 -60.85 -82.55 -60.95 -82.1 -61.3 -75.55 -67.0 -71.4 -75.4 -61.85 -94.45 -62.2 -116.05 L-61.1 -115.6 -59.45 -115.35 Q-58.85 -115.1 -58.3 -115.35 L-58.35 -115.55 -58.4 -115.75 Q-51.65 -111.5 -43.45 -113.85 -42.15 -114.3 -41.1 -115.4 L-40.85 -115.65 Q-42.8 -122.85 -49.35 -126.0 -54.0 -128.2 -59.05 -129.7 L-10.9 -123.8 -10.7 -119.7 -1.6 -119.1 -1.2 -119.05 Q15.1 -110.65 33.3 -107.05 45.4 -103.9 57.85 -103.75 63.05 -103.35 68.2 -104.75 L66.1 -98.6 69.45 -98.05 70.15 -97.25 Q71.5 -95.6 71.0 -93.35 L69.75 -89.65 69.0 -87.55 79.05 -86.0 82.85 -52.2 119.0 -54.35 Q119.05 -48.15 121.8 -42.15 123.75 -37.75 128.05 -36.0 129.35 -35.5 129.3 -34.3 129.1 -28.6 131.6 -23.4 138.1 -10.1 149.1 -0.05 L139.8 27.95 139.8 26.9 Q139.15 22.9 136.4 20.1 L132.75 17.2 131.9 16.75 125.85 18.2 121.7 16.1 112.0 27.25 128.1 34.15 Q125.1 40.05 119.05 42.6 115.6 44.1 115.65 47.9 L115.75 48.8 116.0 49.1 116.3 49.3 113.95 49.85 112.85 50.4 111.85 51.15 Q122.4 53.9 130.6 47.05 132.85 45.2 134.45 42.8 133.55 49.6 130.85 55.9 130.35 57.1 129.35 57.55 116.6 62.6 104.2 68.5 94.55 92.9 95.45 120.0 L95.55 124.75 Q94.05 121.95 91.1 121.05 L88.95 120.4 Q87.6 120.05 86.5 120.65 L86.0 121.1 85.0 123.3 82.25 113.25 78.9 111.05 72.15 140.8 Q70.55 141.4 69.25 142.5 L67.95 144.05 66.95 145.8 66.6 146.8 Q67.05 137.35 64.0 128.4 63.0 125.55 62.3 122.65 M-115.85 45.85 L-115.65 46.4 Q-113.8 51.1 -108.75 50.85 L-119.7 14.35 Q-125.35 18.15 -126.75 25.0 -127.25 27.5 -126.65 29.75 -124.15 39.65 -115.85 45.85 M-103.45 -31.45 L-108.9 -28.1 Q-110.95 -26.4 -111.9 -24.25 -116.75 -13.0 -113.2 -1.0 -110.4 8.55 -102.5 12.55 -101.6 12.35 -101.1 11.45 -99.45 8.55 -99.65 4.85 -100.0 -2.7 -101.55 -10.05 -103.85 -20.7 -103.45 -31.45 M115.45 -25.75 Q109.65 -33.5 102.45 -27.55 101.4 -26.65 101.15 -25.4 97.75 -8.3 110.85 3.5 113.15 5.6 116.4 5.5 120.7 4.8 118.85 6.7 L119.95 11.85 Q113.3 9.75 110.95 15.75 109.9 18.35 107.25 19.6 L105.15 19.65 105.9 20.55 107.25 19.6 Q112.5 19.6 116.25 17.35 119.95 15.05 119.95 11.85 122.5 10.9 124.45 8.5 125.2 7.55 126.1 7.35 130.7 7.0 134.7 5.3 135.15 -7.35 126.65 -18.4 123.15 -23.05 117.55 -24.55 116.2 -24.8 115.45 -25.75" fill="#a8fffd" fill-rule="evenodd" stroke="none"/>
    <path d="M58.5 120.6 Q57.9 119.9 57.75 119.0 56.85 114.75 52.0 113.85 48.8 113.3 46.9 115.9 L46.0 116.95 Q45.45 117.95 46.55 114.8 L47.25 112.0 Q48.1 106.3 44.8 104.25 39.8 101.1 36.1 94.9 34.15 91.7 32.75 92.2 L31.0 92.4 Q26.75 92.2 23.85 95.85 21.7 98.55 17.1 100.25 3.85 105.05 -11.0 105.6 -13.2 105.65 -12.8 103.0 -12.4 100.0 -14.0 97.95 -13.85 97.25 -10.95 97.45 -3.2 98.05 3.9 94.7 L12.15 90.45 8.25 90.2 Q7.5 89.95 7.35 88.9 7.0 86.45 7.0 83.95 3.2 86.2 -1.45 90.45 -2.5 91.45 -4.0 91.5 L-23.0 92.4 Q-29.5 92.7 -35.1 91.3 L-37.95 90.65 Q-43.2 89.65 -46.85 85.8 -49.6 82.95 -52.8 81.5 L-55.2 80.4 Q-57.45 79.35 -59.95 78.7 L-62.0 78.45 Q-62.5 78.45 -62.95 79.0 -66.1 83.0 -73.95 81.7 -77.5 81.15 -80.25 78.2 -91.75 65.9 -98.3 50.05 -99.7 46.7 -101.8 43.8 -105.0 39.45 -107.0 34.95 -108.55 31.5 -109.35 28.05 -109.5 27.45 -110.0 26.95 -110.95 25.9 -111.1 23.95 -111.2 22.75 -112.7 21.55 -114.1 20.45 -115.2 18.05 L-115.65 16.85 Q-116.85 11.6 -117.0 6.0 -111.95 5.4 -112.7 11.0 -113.35 15.5 -110.9 18.9 L-110.15 20.05 Q-109.0 21.9 -105.8 20.4 -102.7 18.95 -99.0 18.85 -94.1 18.7 -92.3 21.5 -92.0 21.95 -91.0 21.95 -87.85 21.1 -89.55 18.65 -90.0 17.95 -89.95 16.95 -89.7 7.7 -92.6 -0.15 -94.3 -4.7 -94.2 -10.0 -94.0 -20.5 -94.45 -31.0 L-94.5 -34.0 Q-94.5 -37.95 -98.95 -38.4 L-101.25 -38.3 -100.75 -38.75 Q-98.6 -40.65 -98.5 -43.0 -98.5 -43.5 -98.85 -44.1 -100.2 -46.45 -98.7 -48.8 -97.85 -50.1 -96.3 -51.35 L-94.75 -52.75 -93.45 -54.3 Q-93.0 -55.0 -92.7 -55.9 L-92.3 -57.1 Q-92.0 -58.0 -92.0 -59.0 L-85.9 -53.1 Q-83.8 -51.2 -80.05 -51.45 -79.5 -51.5 -79.1 -52.05 -77.85 -53.7 -75.3 -55.45 L-73.7 -56.65 -68.75 -60.7 Q-67.0 -62.0 -66.1 -64.05 -64.95 -66.45 -64.9 -70.0 -64.6 -89.95 -60.0 -108.0 -50.2 -100.65 -39.8 -106.65 -38.8 -107.2 -37.85 -108.95 L-35.45 -113.25 Q-35.0 -114.0 -34.85 -115.0 -34.25 -119.25 -37.0 -120.0 -35.7 -121.7 -31.95 -121.45 L-21.0 -120.95 -16.9 -120.3 -15.0 -120.0 Q-15.8 -117.15 -15.6 -114.05 -15.5 -113.0 -14.7 -112.35 -11.5 -109.85 -7.05 -109.55 L-5.9 -109.3 -4.1 -108.7 Q-3.5 -108.5 -3.15 -107.9 -1.8 -105.7 1.05 -105.35 L7.0 -104.75 Q13.9 -104.15 20.1 -102.35 L33.15 -98.45 36.0 -98.05 Q43.35 -98.35 50.0 -97.0 49.95 -95.05 49.4 -93.8 49.0 -93.0 49.25 -92.05 50.1 -89.1 55.05 -89.8 57.7 -90.2 59.2 -89.4 L60.8 -88.6 Q63.7 -87.2 65.6 -83.8 73.5 -69.7 76.65 -53.95 78.2 -46.15 78.45 -38.0 L78.65 -35.95 Q78.8 -34.8 81.15 -35.4 84.9 -34.6 84.55 -38.05 L84.85 -39.1 Q86.25 -41.75 89.95 -42.35 L92.05 -42.6 Q102.0 -43.75 111.15 -46.4 114.45 -44.2 117.05 -40.05 119.3 -36.5 123.0 -35.0 122.2 -33.3 118.95 -33.55 112.8 -34.05 106.9 -32.3 L105.15 -31.65 Q100.1 -29.6 100.0 -24.0 96.5 -27.85 90.95 -28.85 87.15 -29.55 85.55 -27.3 L84.35 -25.7 Q82.8 -23.8 82.85 -21.0 83.0 -16.5 83.45 -12.05 83.5 -11.5 83.95 -10.95 92.0 -1.6 101.7 3.55 L103.3 4.7 Q104.9 6.1 105.65 8.1 106.6 10.5 106.15 13.95 105.8 16.65 108.0 16.95 102.0 18.7 103.0 24.8 104.0 25.95 104.0 26.95 104.0 30.95 104.45 34.9 104.5 35.45 104.9 36.0 107.0 38.8 112.05 38.5 112.5 38.45 113.0 38.95 114.15 38.95 111.05 41.05 101.05 47.9 93.0 53.95 95.95 57.95 102.15 60.6 L104.0 61.1 Q108.55 61.7 111.4 59.45 112.0 58.95 113.0 58.95 113.45 65.45 107.0 65.9 102.75 66.2 100.65 68.65 L99.05 70.05 Q97.05 71.3 95.5 73.65 94.75 74.7 94.15 76.05 L93.85 76.8 Q92.35 79.35 91.6 82.85 89.8 91.4 89.2 99.95 L89.0 105.95 Q84.8 101.75 76.95 102.7 75.0 102.95 73.4 103.75 73.0 103.95 72.95 104.95 72.45 111.65 69.85 117.9 L67.15 124.6 62.3 122.65 Q61.5 119.5 61.0 116.35 L58.5 120.6" fill="#ffffff" fill-rule="evenodd" stroke="none"/>
  </g>
</svg>
