<?xml version="1.0" encoding="UTF-8" standalone="no"?>
<svg xmlns:xlink="http://www.w3.org/1999/xlink" height="107.75px" width="319.55px" xmlns="http://www.w3.org/2000/svg">
  <g transform="matrix(1.0, 0.0, 0.0, 1.0, 159.75, 53.85)">
    <path d="M155.35 17.2 L155.35 -11.8 144.6 -11.8 144.6 20.0 144.6 24.55 146.2 24.55 Q146.85 25.05 148.15 25.05 L150.7 24.55 155.35 24.55 155.35 23.0 156.15 22.55 Q155.4 21.05 155.4 20.55 L155.35 20.55 155.35 17.2 M138.95 12.65 L140.4 -16.95 140.4 -30.8 -10.85 -31.3 Q-5.75 -28.3 -1.3 -23.85 11.45 -11.1 12.05 6.65 L12.05 7.5 12.05 8.35 Q12.05 21.7 5.35 32.3 L86.25 29.8 114.9 29.2 119.05 28.8 121.6 28.7 122.0 28.7 122.2 28.7 138.15 28.2 138.95 12.65 M146.4 -16.55 L159.15 -15.05 159.8 28.25 143.5 34.05 140.9 34.2 Q99.25 35.0 2.15 37.45 L1.65 37.35 -1.3 40.55 Q-14.65 53.9 -33.5 53.9 -52.35 53.9 -65.7 40.55 L-68.2 37.9 -68.85 37.1 -156.55 38.5 -157.75 31.7 -158.85 23.1 Q-159.85 13.75 -159.75 4.35 -159.7 -3.7 -158.85 -11.8 -157.4 -25.75 -153.85 -39.3 L-150.8 -49.7 Q-97.6 -55.75 -44.1 -52.95 L-43.1 -51.95 -40.1 -38.55 -39.05 -36.9 -33.5 -37.2 Q-26.35 -37.2 -19.95 -35.25 L-19.85 -35.3 -2.7 -35.7 145.15 -35.55 146.4 -16.55 M-6.1 39.4 L-3.3 36.8 0.5 32.5 0.15 32.45 0.55 32.45 Q8.5 22.05 8.5 8.35 L8.5 6.65 Q7.9 -8.9 -3.3 -20.1 -8.85 -25.65 -15.5 -28.55 L-16.35 -28.95 -26.6 -31.6 -31.75 -31.9 Q-48.4 -31.9 -60.2 -20.1 -72.0 -8.3 -72.0 8.35 -72.0 25.0 -60.2 36.8 -48.4 48.6 -31.75 48.6 -25.7 48.6 -20.3 47.05 L-18.45 47.0 -6.1 39.4 M-81.1 31.95 L-72.7 31.7 Q-79.05 21.3 -79.05 8.35 -79.05 -10.5 -65.7 -23.85 -56.65 -32.9 -45.05 -35.8 L-45.25 -36.35 -46.65 -49.35 Q-100.5 -52.55 -148.45 -44.35 L-151.45 -29.7 Q-154.0 -17.65 -154.45 -1.05 L-154.6 4.55 Q-154.7 13.2 -154.3 19.25 L-153.85 24.05 -152.9 31.7 -152.75 34.1 -145.8 33.9 -111.0 32.65 -112.15 32.9 -81.1 31.95" fill="#000000" fill-rule="evenodd" stroke="none"/>
    <path d="M144.6 20.0 L144.6 -11.8 155.35 -11.8 155.35 17.2 144.6 20.0 M12.05 6.65 Q11.45 -11.1 -1.3 -23.85 -5.75 -28.3 -10.85 -31.3 L140.4 -30.8 140.4 -16.95 138.95 12.65 Q133.35 11.6 129.7 14.75 115.8 26.9 99.8 19.0 L99.4 12.1 92.1 11.4 Q88.05 11.55 85.4 13.75 73.1 24.1 57.9 18.95 L57.55 17.6 Q57.2 14.8 58.35 12.35 L59.25 10.65 46.95 11.15 46.5 9.95 Q45.0 10.9 43.6 12.0 32.95 20.75 20.9 16.75 L22.25 6.65 14.25 6.65 12.05 6.65 M-15.5 -28.55 Q-7.5 -24.8 -3.3 -16.95 L-2.1 -14.55 Q-6.35 -18.0 -11.85 -19.25 -23.9 -21.8 -35.85 -19.15 -44.2 -17.15 -50.2 -11.2 -57.55 -3.95 -60.5 6.0 -62.9 14.05 -63.55 22.5 -68.7 14.15 -67.45 4.45 -66.25 -4.55 -61.8 -12.75 -54.1 -26.9 -38.15 -30.35 -32.45 -31.65 -26.6 -31.6 L-16.35 -28.95 -15.5 -28.55 M-154.3 19.25 Q-154.7 13.2 -154.6 4.55 L-154.45 -1.05 Q-154.0 -17.65 -151.45 -29.7 L-148.45 -44.35 Q-100.5 -52.55 -46.65 -49.35 L-45.25 -36.35 -45.05 -35.8 Q-56.65 -32.9 -65.7 -23.85 -79.05 -10.5 -79.05 8.35 -79.05 21.3 -72.7 31.7 L-81.1 31.95 -84.25 26.85 Q-87.0 22.3 -87.8 14.15 -88.65 5.95 -85.75 -1.2 -100.8 -1.7 -107.85 -0.8 -114.9 0.1 -130.2 4.8 -138.05 8.05 -145.1 12.6 L-148.25 14.75 -151.05 16.75 -154.3 19.25" fill="#252525" fill-rule="evenodd" stroke="none"/>
    <path d="M144.6 20.0 L155.35 17.2 155.35 20.55 Q148.55 20.0 145.15 23.05 L146.0 24.35 146.2 24.55 144.6 24.55 144.6 20.0 M155.35 23.0 L155.35 24.55 150.7 24.55 151.45 24.35 155.35 23.0 M12.05 6.65 L14.25 6.65 22.25 6.65 20.9 16.75 Q32.95 20.75 43.6 12.0 45.0 10.9 46.5 9.95 L46.95 11.15 59.25 10.65 58.35 12.35 Q57.2 14.8 57.55 17.6 L57.9 18.95 Q73.1 24.1 85.4 13.75 88.05 11.55 92.1 11.4 L99.4 12.1 99.8 19.0 Q115.8 26.9 129.7 14.75 133.35 11.6 138.95 12.65 L138.15 28.2 122.2 28.7 Q126.6 28.2 131.9 24.8 L131.4 23.3 Q127.45 21.8 110.4 23.05 L80.15 23.3 Q30.95 23.75 13.65 24.8 L14.15 28.55 Q14.65 29.3 18.15 29.8 L86.25 29.8 5.35 32.3 Q12.05 21.7 12.05 8.35 L12.05 7.5 12.05 6.65 M-15.5 -28.55 Q-8.85 -25.65 -3.3 -20.1 7.9 -8.9 8.5 6.65 L8.5 8.35 Q8.5 22.05 0.55 32.45 L0.15 32.45 0.5 32.5 -3.3 36.8 -6.1 39.4 Q-1.3 34.05 2.45 27.9 14.5 7.95 1.15 -9.95 L-0.35 -8.45 -0.1 -1.95 Q-2.3 -10.7 -9.6 -15.25 -13.5 -17.75 -17.35 -14.95 -10.05 -12.25 -6.25 -5.9 -2.55 0.4 -3.45 6.85 -5.85 24.15 -20.8 33.1 L-12.6 24.3 Q-14.4 24.65 -15.6 25.8 -23.2 32.65 -32.55 35.8 -47.7 40.75 -58.6 28.3 L-59.35 29.05 -59.6 30.55 -58.85 31.9 Q-44.8 50.0 -20.3 47.05 -25.7 48.6 -31.75 48.6 -48.4 48.6 -60.2 36.8 -72.0 25.0 -72.0 8.35 -72.0 -8.3 -60.2 -20.1 -48.4 -31.9 -31.75 -31.9 L-26.6 -31.6 Q-32.45 -31.65 -38.15 -30.35 -54.1 -26.9 -61.8 -12.75 -66.25 -4.55 -67.45 4.45 -68.7 14.15 -63.55 22.5 -62.9 14.05 -60.5 6.0 -57.55 -3.95 -50.2 -11.2 -44.2 -17.15 -35.85 -19.15 -23.9 -21.8 -11.85 -19.25 -6.35 -18.0 -2.1 -14.55 L-3.3 -16.95 Q-7.5 -24.8 -15.5 -28.55 M-81.1 31.95 L-112.15 32.9 -111.0 32.65 -96.6 24.55 -145.6 23.55 -148.25 14.75 -145.1 12.6 Q-138.05 8.05 -130.2 4.8 -114.9 0.1 -107.85 -0.8 -100.8 -1.7 -85.75 -1.2 -88.65 5.95 -87.8 14.15 -87.0 22.3 -84.25 26.85 L-81.1 31.95 M-145.8 33.9 L-152.75 34.1 -152.9 31.7 -153.85 24.05 -154.3 19.25 -151.05 16.75 Q-152.8 31.25 -145.8 33.9 M-13.85 34.8 L-15.2 36.3 Q-20.7 42.25 -28.85 41.05 -20.65 39.7 -13.85 34.8" fill="#666666" fill-rule="evenodd" stroke="none"/>
    <path d="M155.35 20.55 L155.4 20.55 Q155.4 21.05 156.15 22.55 L155.35 23.0 151.45 24.35 150.7 24.55 148.15 25.05 Q146.85 25.05 146.2 24.55 L146.0 24.35 145.15 23.05 Q148.55 20.0 155.35 20.55 M122.2 28.7 L122.0 28.7 121.6 28.7 119.05 28.8 114.9 29.2 86.25 29.8 18.15 29.8 Q14.65 29.3 14.15 28.55 L13.65 24.8 Q30.95 23.75 80.15 23.3 L110.4 23.05 Q127.45 21.8 131.4 23.3 L131.9 24.8 Q126.6 28.2 122.2 28.7 M-20.3 47.05 Q-44.8 50.0 -58.85 31.9 L-59.6 30.55 -59.35 29.05 -58.6 28.3 Q-47.7 40.75 -32.55 35.8 -23.2 32.65 -15.6 25.8 -14.4 24.65 -12.6 24.3 L-20.8 33.1 Q-5.85 24.15 -3.45 6.85 -2.55 0.4 -6.25 -5.9 -10.05 -12.25 -17.35 -14.95 -13.5 -17.75 -9.6 -15.25 -2.3 -10.7 -0.1 -1.95 L-0.35 -8.45 1.15 -9.95 Q14.5 7.95 2.45 27.9 -1.3 34.05 -6.1 39.4 L-18.45 47.0 -20.3 47.05 M-111.0 32.65 L-145.8 33.9 Q-152.8 31.25 -151.05 16.75 L-148.25 14.75 -145.6 23.55 -96.6 24.55 -111.0 32.65 M-13.85 34.8 Q-20.65 39.7 -28.85 41.05 -20.7 42.25 -15.2 36.3 L-13.85 34.8" fill="#999999" fill-rule="evenodd" stroke="none"/>
  </g>
</svg>
