<?xml version="1.0" encoding="UTF-8" standalone="no"?>
<svg xmlns:xlink="http://www.w3.org/1999/xlink" height="47.8px" width="101.3px" xmlns="http://www.w3.org/2000/svg">
  <g transform="matrix(1.0, 0.0, 0.0, 1.0, 50.65, 23.9)">
    <path d="M-45.75 -7.25 L-46.9 -7.15 -45.75 -7.2 -45.75 15.35 -29.65 15.25 -29.95 -8.2 -45.75 -7.6 -45.75 -7.25 M2.35 -23.7 L1.85 -8.6 50.65 -8.5 50.65 23.85 -28.55 23.9 -28.5 20.4 -50.65 19.95 -50.35 -12.7 -37.5 -13.05 -37.8 -23.9 2.35 -23.7 M-16.4 -19.2 L-33.4 -19.3 -33.55 -13.1 -21.9 -13.15 -21.45 -8.2 -3.2 -8.3 -2.45 -19.1 -11.65 -19.15 -16.4 -19.25 -16.4 -19.2 M-8.8 -4.45 L-24.2 -3.15 Q-23.85 2.75 -23.85 19.0 L45.3 18.35 44.9 -4.45 -8.8 -4.45" fill="#000000" fill-rule="evenodd" stroke="none"/>
    <path d="M-45.75 -7.25 L-45.75 -7.6 -29.95 -8.2 -29.65 15.25 -45.75 15.35 -45.75 -7.2 -45.75 -7.25 M-16.4 -19.2 L-16.4 -18.3 -29.95 -18.25 -29.95 -14.8 -18.35 -14.1 -3.2 -14.35 -3.2 -18.35 -8.15 -18.7 -11.65 -19.15 -2.45 -19.1 -3.2 -8.3 -21.45 -8.2 -21.9 -13.15 -33.55 -13.1 -33.4 -19.3 -16.4 -19.2 M-31.35 -2.3 L-31.35 -5.7 -43.25 -5.85 -43.0 3.15 -42.6 12.5 -40.75 12.75 -40.3 11.65 -39.6 -1.85 -31.35 -2.3 M-6.95 -1.95 L-20.0 -1.65 Q-19.55 3.85 -19.3 14.25 L-16.9 14.5 Q-16.9 13.8 -16.65 13.85 L-16.65 2.5 3.85 2.55 5.8 2.3 15.2 1.75 28.05 0.7 28.05 -2.9 -6.95 -1.95 M-8.8 -4.45 L44.9 -4.45 45.3 18.35 -23.85 19.0 Q-23.85 2.75 -24.2 -3.15 L-8.8 -4.45" fill="#5c7849" fill-rule="evenodd" stroke="none"/>
    <path d="M-31.35 -2.3 L-39.6 -1.85 -40.3 11.65 -40.75 12.75 -42.6 12.5 -43.0 3.15 -43.25 -5.85 -31.35 -5.7 -31.35 -2.3 M-11.65 -19.15 L-8.15 -18.7 -3.2 -18.35 -3.2 -14.35 -18.35 -14.1 -29.95 -14.8 -29.95 -18.25 -16.4 -18.3 -16.4 -19.2 -16.4 -19.25 -11.65 -19.15 M-6.95 -1.95 L28.05 -2.9 28.05 0.7 15.2 1.75 5.8 2.3 3.85 2.55 -16.65 2.5 -16.65 13.85 Q-16.9 13.8 -16.9 14.5 L-19.3 14.25 Q-19.55 3.85 -20.0 -1.65 L-6.95 -1.95" fill="#234325" fill-rule="evenodd" stroke="none"/>
  </g>
</svg>
