<?xml version="1.0" encoding="UTF-8" standalone="no"?>
<svg xmlns:xlink="http://www.w3.org/1999/xlink" height="166.25px" width="486.2px" xmlns="http://www.w3.org/2000/svg">
  <g transform="matrix(1.0, 0.0, 0.0, 1.0, 243.1, 83.1)">
    <path d="M50.6 -72.7 Q59.3 -66.2 73.9 -57.5 87.05 -49.55 100.7 -42.95 L102.45 -42.1 118.0 -35.2 Q129.35 -30.1 157.65 -29.05 185.9 -28.05 219.45 -40.1 L224.2 -39.3 228.6 -38.05 237.1 -21.3 Q241.9 -15.4 242.45 -13.05 243.4 -8.9 242.95 -4.7 L239.0 31.4 Q226.3 37.15 211.2 41.7 L206.85 43.0 Q200.45 64.45 178.1 59.6 175.85 54.2 178.9 48.95 L174.35 49.55 Q160.8 74.75 145.6 65.6 143.0 58.6 146.05 52.35 L139.6 52.75 Q136.8 63.45 125.5 69.45 117.9 70.75 112.35 64.6 109.95 60.05 111.2 52.3 L98.6 51.9 Q95.85 61.85 81.65 64.95 67.4 68.0 71.5 51.35 L63.85 50.95 62.6 53.6 Q60.6 58.1 54.9 60.05 36.95 66.1 39.5 49.2 L38.6 49.1 35.45 44.1 Q31.8 38.45 27.4 30.15 22.95 21.8 14.25 16.9 5.55 12.0 -18.9 10.55 -43.4 9.1 -60.55 10.9 -69.35 11.8 -87.4 15.6 -105.45 19.4 -117.0 25.85 -128.55 32.25 -143.4 45.0 -158.3 57.75 -172.55 82.95 L-174.3 83.15 Q-216.25 84.0 -243.1 51.3 L-242.7 49.7 Q-234.05 15.45 -214.95 -5.7 -195.4 -27.4 -186.2 -41.15 -177.05 -54.9 -177.9 -65.5 L-173.55 -65.8 Q-130.0 -67.05 -86.55 -66.9 L-85.55 -66.55 -83.15 -66.5 Q-72.3 -56.85 -57.65 -50.2 -43.0 -43.6 -22.15 -44.25 L-17.6 -51.35 Q-6.8 -67.5 9.25 -76.45 25.3 -85.4 33.6 -82.3 41.85 -79.2 50.6 -72.7 M28.4 -78.05 Q26.1 -78.0 22.45 -76.4 -3.8 -64.45 -18.2 -39.1 -31.4 -36.85 -44.85 -39.8 -68.0 -45.15 -85.55 -60.9 L-170.55 -59.0 -173.15 -52.25 -175.45 -47.0 Q-179.15 -38.75 -185.3 -30.05 -191.5 -21.35 -198.85 -14.5 -206.25 -7.7 -219.4 10.05 -232.6 27.7 -235.75 49.7 L-236.0 51.35 -234.2 53.3 Q-209.3 80.05 -174.5 75.0 L-172.55 71.5 Q-168.2 63.9 -162.9 56.75 -158.8 51.2 -154.2 46.1 -149.65 41.1 -144.6 36.65 -139.6 32.2 -134.15 28.3 -130.05 25.4 -125.7 22.95 -109.0 13.3 -90.15 9.05 -75.4 5.65 -60.55 4.2 -35.25 1.7 -9.7 4.85 -0.1 5.95 9.2 8.25 17.15 9.15 23.25 14.3 L24.7 15.5 Q30.45 22.05 35.45 29.35 40.15 36.15 44.1 43.6 L63.45 45.65 107.45 47.0 Q145.35 46.35 188.1 40.0 L228.0 28.25 233.7 25.6 Q237.3 13.35 238.05 0.6 238.8 -12.2 224.8 -32.25 L217.0 -34.7 Q208.3 -30.55 199.05 -28.05 148.95 -14.55 102.45 -35.85 76.65 -47.2 53.7 -62.65 30.65 -78.1 28.4 -78.05 M185.1 47.95 L183.1 51.35 Q182.45 55.55 184.75 55.15 L189.35 55.6 Q196.65 52.7 198.45 45.25 L185.1 47.95 M115.4 58.15 Q114.7 61.3 117.1 62.85 126.7 68.1 133.8 53.0 L117.85 52.35 Q116.1 55.0 115.4 58.15 M148.4 61.05 L150.45 62.1 151.0 62.35 157.1 61.85 Q164.75 58.35 168.35 50.45 L151.35 51.95 149.95 54.65 Q148.9 56.45 148.4 61.05 M78.15 61.2 Q78.8 61.6 79.6 61.85 89.5 59.75 91.65 52.25 L75.75 51.5 Q72.15 58.05 78.15 61.2 M52.9 54.2 Q55.1 52.7 56.2 50.45 L43.6 49.55 Q42.9 54.3 45.6 56.5 48.45 57.2 52.9 54.2" fill="#000000" fill-rule="evenodd" stroke="none"/>
    <path d="M28.4 -78.05 Q30.65 -78.1 53.7 -62.65 76.65 -47.2 102.45 -35.85 148.95 -14.55 199.05 -28.05 208.3 -30.55 217.0 -34.7 L224.8 -32.25 Q238.8 -12.2 238.05 0.6 237.3 13.35 233.7 25.6 L228.0 28.25 188.1 40.0 Q145.35 46.35 107.45 47.0 L63.45 45.65 44.1 43.6 Q40.15 36.15 35.45 29.35 30.45 22.05 24.7 15.5 L23.25 14.3 Q17.15 9.15 9.2 8.25 -0.1 5.95 -9.7 4.85 -35.25 1.7 -60.55 4.2 -75.4 5.65 -90.15 9.05 -109.0 13.3 -125.7 22.95 -130.05 25.4 -134.15 28.3 -139.6 32.2 -144.6 36.65 -149.65 41.1 -154.2 46.1 -158.8 51.2 -162.9 56.75 -168.2 63.9 -172.55 71.5 L-174.5 75.0 Q-209.3 80.05 -234.2 53.3 L-236.0 51.35 -235.75 49.7 Q-232.6 27.7 -219.4 10.05 -206.25 -7.7 -198.85 -14.5 -191.5 -21.35 -185.3 -30.05 -179.15 -38.75 -175.45 -47.0 L-173.15 -52.25 -170.55 -59.0 -85.55 -60.9 Q-68.0 -45.15 -44.85 -39.8 -31.4 -36.85 -18.2 -39.1 -3.8 -64.45 22.45 -76.4 26.1 -78.0 28.4 -78.05 M52.9 54.2 Q48.45 57.2 45.6 56.5 42.9 54.3 43.6 49.55 L56.2 50.45 Q55.1 52.7 52.9 54.2 M78.15 61.2 Q72.15 58.05 75.75 51.5 L91.65 52.25 Q89.5 59.75 79.6 61.85 78.8 61.6 78.15 61.2 M148.4 61.05 Q148.9 56.45 149.95 54.65 L151.35 51.95 168.35 50.45 Q164.75 58.35 157.1 61.85 L151.0 62.35 150.45 62.1 148.4 61.05 M115.4 58.15 Q116.1 55.0 117.85 52.35 L133.8 53.0 Q126.7 68.1 117.1 62.85 114.7 61.3 115.4 58.15 M185.1 47.95 L198.45 45.25 Q196.65 52.7 189.35 55.6 L184.75 55.15 Q182.45 55.55 183.1 51.35 L185.1 47.95" fill="#5c7849" fill-rule="evenodd" stroke="none"/>
    <path d="M48.35 -61.25 L75.2 -44.0 Q73.9 -42.7 74.1 -42.35 71.15 -41.85 69.15 -42.95 63.35 -46.15 47.9 -59.4 L47.55 -60.5 48.35 -61.25 M32.35 -64.5 Q19.8 -67.3 7.15 -57.75 4.15 -59.95 22.8 -70.5 33.9 -72.05 40.6 -64.25 L40.1 -62.45 Q36.7 -61.0 33.45 -63.65 L32.35 -64.5 M84.45 -34.65 L80.75 -38.45 Q83.15 -40.85 85.55 -35.8 L84.45 -34.65 M220.45 -31.55 Q222.4 -31.15 223.1 -29.35 224.6 -26.65 221.85 -25.65 L216.35 -23.75 212.6 -25.25 Q213.25 -31.9 220.45 -31.55 M41.5 6.05 Q37.2 4.6 33.0 2.9 15.55 -4.05 -1.75 -11.25 L-5.9 -15.25 Q21.8 -7.95 42.35 -1.7 62.9 4.5 77.15 9.3 66.15 10.7 54.85 8.95 48.1 7.8 41.5 6.05 M-28.75 -24.6 L-33.4 -26.5 -33.35 -27.75 Q-33.05 -28.05 -32.9 -28.5 L-31.2 -28.6 Q-29.55 -28.55 -27.65 -27.75 L-27.15 -26.25 -28.75 -24.6 M-40.2 -29.3 L-50.2 -33.05 Q-49.5 -34.65 -46.6 -33.7 -43.55 -32.7 -40.2 -29.3 M-54.3 -34.45 L-71.1 -39.55 Q-79.45 -42.25 -87.7 -44.45 -96.5 -46.7 -105.5 -48.0 L-114.7 -49.3 -126.5 -50.0 -127.65 -51.5 -127.85 -51.5 -130.1 -52.85 -122.15 -53.1 -113.65 -53.25 Q-102.5 -53.25 -93.9 -51.6 -87.8 -50.4 -85.15 -49.0 L-80.6 -47.7 -72.65 -45.25 Q-67.7 -43.55 -59.55 -41.4 -53.9 -39.45 -53.9 -36.5 L-53.95 -35.0 -54.3 -34.45 M-141.5 -38.05 L-131.05 -38.7 Q-129.75 -38.45 -129.1 -37.8 -128.5 -37.2 -128.55 -36.25 L-121.75 -36.25 -115.25 -36.3 -111.75 -36.25 -110.65 -36.25 -110.6 -36.2 -105.65 -36.0 -101.15 -35.5 Q-98.45 -34.15 -98.15 -33.25 L-98.05 -32.2 Q-98.1 -31.75 -99.65 -31.75 L-107.7 -32.45 -108.0 -31.9 -109.7 -31.55 Q-114.8 -31.0 -121.15 -28.75 L-123.9 -27.15 -123.3 -27.35 -120.85 -28.05 -118.65 -28.75 Q-116.9 -28.75 -115.95 -28.2 -115.25 -27.75 -114.4 -26.5 L-115.9 -24.8 -115.5 -24.7 Q-112.2 -23.7 -111.15 -20.75 -111.55 -17.9 -116.05 -14.05 -120.4 -10.35 -120.4 -9.5 -120.4 -9.25 -122.05 -7.5 L-122.5 -6.95 Q-123.95 -5.35 -124.4 -4.0 L-127.0 -6.3 -130.45 -9.8 -136.15 -15.75 Q-136.1 -17.15 -135.25 -18.05 L-139.65 -17.75 -143.15 -17.95 -144.8 -18.05 -146.15 -15.9 Q-147.9 -13.5 -147.9 -12.0 L-147.8 -8.2 Q-148.3 -5.3 -151.4 -5.0 -155.25 -9.25 -159.15 -10.5 L-160.2 -13.6 -160.5 -15.25 -160.65 -16.9 Q-160.65 -17.55 -160.05 -18.2 L-160.75 -19.1 Q-161.05 -20.0 -161.85 -20.2 -162.7 -18.95 -164.95 -17.05 L-162.9 -16.5 -162.4 -16.05 Q-162.1 -15.85 -161.95 -15.15 L-161.9 -14.25 Q-161.9 -12.5 -165.4 -10.35 -165.35 -9.35 -162.7 -2.8 L-159.4 4.85 -159.4 5.25 -161.25 5.6 Q-163.25 5.6 -164.8 4.3 L-168.9 1.1 Q-167.9 -2.25 -174.15 -2.25 L-176.35 -2.5 -176.65 -2.75 -177.15 -3.4 Q-177.55 -3.85 -177.6 -4.95 L-179.1 -4.55 -178.4 -4.5 -178.15 -4.05 Q-177.9 -3.7 -177.9 -2.25 -177.9 -0.65 -178.5 -0.05 L-180.4 1.35 -179.5 2.2 Q-179.15 2.75 -179.15 4.35 L-180.15 6.95 Q-181.15 9.2 -181.15 10.35 L-181.5 11.3 -181.15 11.1 -179.55 9.95 Q-178.35 9.0 -177.65 8.85 L-175.7 10.75 Q-174.9 11.65 -174.9 12.35 -174.9 14.1 -175.55 15.9 -175.0 16.0 -174.4 16.35 L-173.9 17.85 -176.2 21.95 Q-173.65 20.7 -171.65 20.6 L-171.4 21.05 Q-171.15 21.4 -171.15 22.85 -171.15 25.3 -171.35 25.9 -171.65 26.75 -172.3 27.25 -173.15 27.85 -174.65 27.85 L-179.7 27.2 -181.65 26.35 -181.2 25.6 -181.65 25.6 -186.7 25.4 Q-190.25 24.7 -190.4 22.1 L-191.65 22.85 -192.8 22.65 -195.3 24.15 -196.75 24.9 -199.65 26.1 -201.45 25.3 Q-202.15 24.65 -202.15 23.0 -202.15 21.85 -200.1 18.9 L-198.85 16.95 Q-199.5 16.6 -200.15 16.6 L-200.55 16.65 -202.25 18.05 Q-203.35 18.9 -204.55 19.1 L-209.65 23.1 Q-208.1 19.6 -208.45 19.3 -209.0 18.75 -209.6 22.55 -209.5 18.05 -210.0 18.75 -211.05 19.85 -215.65 23.35 -213.95 19.65 -214.35 19.45 -214.55 19.3 -213.85 18.6 L-223.1 27.1 Q-218.15 12.4 -205.95 -0.2 L-205.1 -1.05 -204.9 -1.2 -202.9 -3.5 -198.0 -8.75 Q-201.2 -6.65 -203.75 -4.5 -207.3 -1.6 -209.6 1.25 -209.4 0.4 -204.3 -5.25 L-203.1 -6.25 Q-185.3 -23.05 -181.3 -25.2 -177.3 -27.35 -173.6 -28.8 -162.55 -33.25 -148.4 -36.6 L-141.5 -38.05 M-82.65 -26.0 Q-75.35 -25.85 -70.4 -24.15 L-62.4 -20.5 -63.05 -18.95 Q-63.8 -18.0 -65.4 -18.0 L-66.9 -18.35 Q-67.55 -17.35 -68.65 -17.0 L-71.65 -17.0 Q-73.65 -17.5 -74.65 -18.5 L-73.3 -20.1 -83.9 -23.0 -84.15 -22.65 Q-84.4 -22.6 -84.4 -24.15 L-84.25 -25.9 -84.15 -25.75 Q-82.65 -25.75 -82.65 -26.0 M-194.2 27.05 Q-193.65 27.4 -193.65 29.0 -193.65 31.5 -193.9 30.85 L-194.2 31.25 -196.15 31.6 -197.95 31.35 -197.9 31.1 -198.25 31.3 Q-198.65 31.15 -198.65 29.6 -198.65 28.7 -197.15 27.4 L-196.0 26.55 -195.65 26.6 -194.2 27.05 M-225.6 40.65 Q-224.45 39.45 -221.4 40.35 L-221.05 41.0 Q-220.9 41.45 -220.9 43.0 -220.9 43.6 -221.3 44.1 -221.85 44.95 -223.65 46.35 -226.4 43.9 -226.4 43.25 -226.4 41.4 -225.6 40.65 M-211.6 34.9 Q-213.1 35.85 -216.65 35.85 -220.1 35.85 -220.85 33.5 L-220.9 30.85 Q-220.9 27.9 -219.2 25.9 -217.6 24.1 -215.4 23.85 -213.15 23.65 -211.6 25.3 -209.9 27.15 -209.9 30.75 -209.9 33.75 -211.6 34.9" fill="#daeacc" fill-rule="evenodd" stroke="none"/>
    <path d="M10.6 -52.6 Q13.3 -54.7 16.7 -55.7 26.3 -58.2 35.8 -58.55 L36.75 -58.35 37.5 -57.95 38.1 -57.3 39.1 -55.55 Q52.5 -49.1 65.75 -41.95 L77.6 -35.65 Q84.25 -32.1 91.25 -29.2 100.4 -25.5 110.1 -23.6 132.6 -19.45 155.45 -18.6 169.15 -17.85 182.8 -18.6 L197.4 -19.45 204.85 -19.95 209.1 -20.3 Q214.1 -20.7 218.85 -21.85 L224.8 -23.15 Q226.1 -23.25 228.95 -21.7 L230.45 -20.35 Q238.0 -13.75 224.0 -14.85 229.2 -14.0 221.45 -15.1 L216.7 -15.5 Q204.5 -15.45 192.35 -15.0 L135.35 -15.0 125.55 -15.7 105.9 -18.35 Q98.5 -19.25 91.25 -20.7 86.45 -21.75 81.85 -23.3 77.25 -24.75 72.95 -26.9 66.75 -29.9 60.8 -33.3 53.4 -37.55 45.5 -40.7 42.4 -41.95 39.2 -42.6 29.8 -44.85 20.7 -41.9 14.75 -40.05 8.05 -34.75 6.95 -31.7 15.45 -25.95 27.7 -18.9 41.0 -14.35 L74.25 -3.0 84.15 0.1 Q98.85 4.25 113.85 6.6 L110.75 7.9 108.65 8.5 105.25 8.35 97.45 7.2 Q90.8 7.0 84.25 5.6 57.7 -0.05 31.95 -9.1 13.45 -15.65 -3.45 -25.7 -7.4 -28.0 -10.8 -30.95 -13.8 -33.6 -17.65 -34.55 L-17.8 -36.65 -17.3 -37.15 Q-15.15 -38.35 -12.75 -39.05 -7.95 -40.65 -3.6 -43.15 3.8 -47.5 10.6 -52.6 M207.85 31.35 L225.6 27.35 225.85 27.85 208.6 33.65 202.1 35.95 190.8 39.3 182.8 41.1 147.35 45.85 88.35 45.85 82.15 45.4 53.75 42.7 Q46.75 42.35 43.4 36.65 L42.35 34.6 42.6 33.85 50.1 38.35 100.1 38.85 105.5 38.85 111.1 38.85 123.25 38.85 148.25 38.9 168.45 37.95 180.6 36.5 191.75 34.7 191.7 34.55 201.1 32.9 207.9 31.45 207.85 31.35 M188.35 46.6 L189.8 47.05 Q190.35 47.4 190.35 49.0 190.35 50.45 189.2 52.05 187.6 54.25 184.85 53.85 L184.6 53.2 Q184.35 52.7 184.35 51.25 184.35 50.55 185.65 49.1 L188.35 46.6 M41.5 6.05 Q69.6 14.8 99.35 12.7 102.15 12.75 104.7 13.6 L110.35 12.35 Q112.15 12.15 114.0 12.85 L113.95 15.35 112.6 16.25 Q107.6 19.35 101.7 19.4 L99.45 19.65 98.35 19.75 92.65 20.05 80.7 19.9 69.2 18.85 64.7 18.25 55.85 16.45 43.8 13.4 27.65 8.55 Q18.85 5.55 10.25 2.2 1.3 -1.25 -7.5 -5.05 L-23.15 -11.7 Q-45.15 -20.65 -67.65 -28.4 -83.9 -34.05 -100.45 -38.55 -101.3 -37.9 -102.3 -37.65 -107.5 -37.25 -112.9 -37.9 L-131.05 -38.7 -141.5 -38.05 -151.15 -36.7 Q-160.8 -34.85 -169.95 -31.75 -180.0 -28.35 -189.15 -23.0 L-189.65 -23.0 -186.3 -27.1 Q-174.15 -42.25 -156.95 -49.0 L-148.55 -51.3 Q-139.45 -53.65 -130.1 -52.85 L-127.85 -51.5 -126.5 -50.0 -114.7 -49.3 -105.5 -48.0 Q-96.5 -46.7 -87.7 -44.45 -79.45 -42.25 -71.1 -39.55 L-54.3 -34.45 -50.2 -33.05 -40.2 -29.3 -33.4 -26.5 -28.75 -24.6 -1.75 -11.25 Q15.55 -4.05 33.0 2.9 37.2 4.6 41.5 6.05 M81.5 59.9 L79.35 60.35 Q77.1 60.35 76.4 58.4 76.1 57.6 76.1 56.1 76.1 54.1 76.9 52.65 78.0 50.5 80.35 50.85 L81.7 51.1 Q82.1 51.3 82.1 52.85 82.1 54.1 81.1 54.75 80.1 55.35 80.1 56.6 80.1 58.1 81.0 58.4 L82.1 58.85 81.5 59.9 M117.1 57.85 Q117.1 55.55 118.8 53.35 120.9 50.7 123.6 52.1 L124.35 53.6 122.8 57.15 Q122.15 58.95 123.6 60.35 L123.1 61.85 122.8 62.55 120.85 62.85 Q118.6 62.85 117.65 60.5 117.1 59.2 117.1 57.85 M153.35 61.6 Q150.65 61.6 149.9 60.0 149.6 59.45 149.6 58.1 149.6 56.3 151.65 54.25 153.75 52.15 155.85 51.85 L157.1 53.35 156.05 55.8 Q155.35 57.45 155.35 59.0 155.35 61.5 155.1 60.85 L155.05 61.25 Q154.9 61.6 153.35 61.6 M51.3 52.05 L47.35 53.1 44.6 52.85 Q43.85 52.1 43.85 51.35 L44.1 49.35 Q46.95 48.8 54.6 50.1 L54.85 50.85 Q54.55 51.3 51.3 52.05 M-10.15 -1.65 Q-9.4 -0.9 -8.9 0.6 -10.4 2.5 -11.65 3.35 -13.75 1.7 -14.4 -0.15 L-12.65 -1.2 -10.15 -1.65 M-103.45 6.2 L-100.05 5.1 Q-86.8 1.05 -73.55 -0.6 -54.1 -3.1 -34.65 -0.4 -26.4 0.1 -26.15 0.85 L-30.9 1.1 -35.65 0.6 Q-44.15 0.25 -44.15 -0.65 -85.0 3.8 -105.95 11.7 -114.55 14.95 -122.05 19.55 L-134.9 28.35 Q-144.6 35.35 -157.3 49.95 -168.7 63.05 -174.65 72.85 L-176.4 72.6 -176.65 73.0 Q-176.9 73.05 -176.9 71.5 -176.9 69.1 -175.95 66.35 -173.8 59.75 -166.45 51.15 L-161.35 45.5 Q-157.15 41.15 -143.35 28.95 L-136.15 22.6 -136.05 22.55 Q-133.3 20.15 -128.95 17.55 L-124.2 14.95 -122.85 14.2 Q-117.1 11.3 -110.75 8.85 -107.2 7.45 -103.45 6.2 M-159.0 -48.4 Q-170.75 -44.05 -166.2 -45.9 L-159.0 -48.4" fill="#234325" fill-rule="evenodd" stroke="none"/>
    <path d="M143.15 -1.35 Q144.2 -1.1 144.85 -0.15 144.35 0.6 142.6 0.85 141.85 0.1 141.85 -1.4 L143.15 -1.35 M234.6 12.85 Q233.6 14.35 232.35 14.85 L230.5 14.25 Q230.1 13.85 230.1 12.1 230.1 10.45 230.65 10.0 L232.35 9.35 Q233.3 9.75 233.95 10.75 234.6 11.75 234.6 12.85 M213.15 25.65 Q214.2 25.9 214.85 26.85 214.35 27.6 212.6 27.85 211.85 27.1 211.85 25.6 L213.15 25.65 M201.1 32.9 Q201.15 28.6 204.85 29.7 206.9 30.25 207.85 31.35 L207.9 31.45 201.1 32.9 M208.6 33.65 Q208.6 35.55 207.1 36.35 206.15 36.85 204.85 36.85 203.05 36.85 202.1 35.95 L208.6 33.65 M190.8 39.3 Q189.1 41.35 184.85 41.35 L182.8 41.1 190.8 39.3 M100.1 38.85 L100.1 38.5 Q100.1 36.9 101.75 36.45 103.3 36.05 105.1 36.85 L105.15 37.3 Q105.3 37.9 105.6 38.35 L105.5 38.85 100.1 38.85 M111.1 38.85 L111.1 37.85 Q111.1 35.05 111.7 34.3 113.55 32.05 120.35 33.85 L120.95 34.1 Q122.15 34.7 122.8 35.85 123.35 36.85 123.35 37.75 L123.35 37.9 123.25 38.85 111.1 38.85 M148.25 38.9 L147.55 38.5 146.65 37.75 Q146.35 37.35 146.35 36.85 146.35 35.6 148.7 34.2 151.15 32.85 154.6 32.2 L159.95 31.85 Q160.2 30.35 161.65 29.0 163.3 27.5 165.6 26.85 L169.55 26.95 Q171.35 27.8 171.35 30.1 171.35 32.0 169.65 33.85 L168.7 34.7 169.6 35.35 Q169.05 36.05 168.75 37.1 L168.45 37.95 148.25 38.9 M180.6 36.5 L180.6 36.35 Q180.6 33.85 181.3 32.3 182.1 30.6 183.8 30.15 L186.25 30.05 Q188.4 30.4 190.1 32.0 191.3 33.2 191.7 34.55 L191.75 34.7 180.6 36.5 M181.0 28.75 Q181.35 29.3 181.35 30.75 181.35 31.6 181.0 32.2 L179.9 33.1 177.35 33.85 175.0 31.95 Q174.1 31.15 174.1 30.35 174.1 29.0 175.4 28.1 177.2 26.9 180.6 28.1 L181.0 28.75 M180.35 26.85 Q180.35 25.35 181.15 24.5 182.5 23.05 185.6 24.1 L186.0 24.75 Q186.35 25.3 186.35 26.75 L186.1 28.6 185.85 28.6 185.0 29.0 183.55 29.55 183.35 29.6 180.95 27.65 180.9 27.6 Q180.35 27.1 180.35 26.85 M124.85 28.85 L126.1 30.35 125.85 31.85 125.45 32.65 123.5 32.85 121.75 32.6 121.85 32.35 121.3 32.1 Q121.1 32.0 121.1 30.5 121.1 28.9 122.4 28.65 L124.85 28.85 M111.7 22.95 L110.6 21.85 Q111.65 19.8 113.35 19.35 114.6 19.85 115.6 21.35 L114.85 23.35 113.35 23.85 Q112.4 23.55 111.7 22.95 M69.2 18.85 L80.7 19.9 Q81.1 21.2 81.1 22.75 81.1 24.55 79.9 25.85 L78.65 26.85 Q76.95 27.85 75.85 27.85 73.85 27.85 72.4 27.0 71.05 26.25 70.15 24.85 68.85 22.85 68.85 21.1 68.85 19.85 69.2 18.85 M92.65 20.05 L98.35 19.75 Q99.35 21.2 99.35 24.6 99.35 27.3 98.15 28.15 L96.55 28.7 93.85 28.85 Q92.4 28.85 91.55 28.35 L91.6 29.75 Q91.6 33.35 88.6 35.4 86.1 37.1 82.85 37.1 79.35 37.1 78.65 34.75 L78.6 32.1 Q78.6 29.15 80.65 26.7 82.5 24.45 85.1 23.7 87.8 22.95 89.55 24.3 L90.1 24.85 Q90.15 22.9 91.55 21.15 L92.65 20.05 M99.45 19.65 L101.7 19.4 100.35 20.1 Q99.85 19.95 99.45 19.65 M99.1 30.1 L99.5 30.75 Q99.85 31.3 99.85 32.75 L99.6 34.6 99.35 34.6 98.05 35.0 96.35 35.6 93.9 33.6 Q93.35 33.1 93.35 32.85 93.35 30.65 95.05 30.05 L96.7 29.85 99.1 30.1 M49.1 16.35 L51.1 16.55 Q51.85 16.75 52.1 17.1 L52.1 18.35 Q53.0 18.6 50.5 18.6 L50.2 18.6 48.85 18.25 49.1 17.85 49.1 16.35 M43.1 17.85 L42.4 18.8 41.35 19.35 40.0 19.3 Q39.6 19.25 39.6 17.75 39.6 16.2 39.75 16.0 L39.85 16.1 40.95 16.05 42.6 16.35 43.1 17.85 M44.85 23.6 Q45.6 24.35 46.1 25.85 L45.4 26.8 44.35 27.35 43.1 26.85 42.85 27.25 Q42.6 27.3 42.6 25.75 42.6 24.15 43.55 23.75 L44.85 23.6 M48.85 21.75 Q48.85 20.2 49.0 19.85 L49.1 19.85 50.15 19.8 Q51.15 19.9 51.6 20.35 L51.65 21.1 Q51.7 21.85 51.85 21.85 51.35 22.6 49.6 22.85 L49.25 23.25 Q48.85 23.3 48.85 21.75 M56.85 27.9 Q60.1 27.9 60.1 32.1 L59.85 35.1 59.45 35.75 Q58.9 36.35 57.35 36.35 55.1 36.35 54.15 34.4 53.6 33.3 53.6 32.1 53.6 27.9 56.85 27.9 M72.35 29.6 L69.35 32.6 Q68.1 32.1 67.35 31.35 67.8 29.3 68.85 28.6 69.7 28.0 71.6 28.1 L72.35 29.6 M31.6 13.35 Q31.25 14.5 30.35 15.35 28.85 15.35 28.35 14.6 29.65 12.95 31.6 13.35 M-172.3 27.25 L-172.0 27.85 -171.9 30.1 Q-171.9 34.95 -175.65 36.35 L-178.65 36.6 -180.75 34.7 -181.65 33.5 -181.65 33.35 -180.85 29.95 -179.7 27.2 -174.65 27.85 Q-173.15 27.85 -172.3 27.25 M-122.5 -6.95 L-120.65 -6.75 Q-115.9 -6.4 -115.9 -1.5 -115.9 1.15 -117.85 3.4 -120.05 5.85 -123.15 5.85 L-130.65 5.6 -133.1 3.5 Q-133.65 2.9 -133.65 2.1 -133.65 -0.8 -130.65 -3.85 -129.0 -5.55 -127.0 -6.3 L-124.4 -4.0 Q-123.95 -5.35 -122.5 -6.95 M-81.25 -12.4 L-76.65 -15.25 Q-75.6 -14.35 -74.85 -13.25 -73.9 -11.95 -73.9 -11.0 -73.9 -8.8 -75.15 -7.95 L-76.1 -7.45 Q-77.9 -6.75 -81.65 -6.25 -82.95 -6.75 -83.25 -7.05 -83.9 -7.75 -83.9 -9.4 -83.9 -10.55 -81.25 -12.4 M-96.4 -0.4 L-97.25 0.05 -98.65 0.85 -100.9 0.1 -101.25 0.3 Q-101.65 0.15 -101.65 -1.4 -101.65 -2.0 -100.25 -2.9 -98.65 -4.0 -96.9 -4.0 L-96.65 -2.4 -96.4 -0.4 M-74.2 -6.15 L-71.4 -5.75 -70.65 -4.25 -71.15 -2.0 -73.65 -1.15 -75.35 -1.7 Q-75.9 -2.1 -75.9 -3.75 L-75.75 -5.8 -75.65 -6.0 -74.2 -6.15 M-52.65 -6.0 L-54.35 -6.45 Q-54.9 -6.8 -54.9 -8.4 -54.9 -10.85 -52.95 -11.4 L-50.15 -11.5 -49.65 -11.7 Q-49.15 -11.55 -49.15 -10.0 -49.15 -9.5 -50.5 -7.85 -51.95 -6.15 -52.65 -6.0 M-32.4 -5.5 L-32.7 -3.95 Q-33.1 -3.0 -34.65 -3.0 -36.25 -3.0 -36.8 -3.45 L-37.65 -4.5 -35.5 -6.9 Q-33.5 -8.6 -34.65 -7.5 -33.4 -7.0 -32.4 -5.5 M-20.5 -6.35 Q-19.3 -6.95 -18.4 -6.75 L-17.65 -5.25 Q-18.1 -3.85 -19.65 -3.25 -21.5 -4.0 -21.9 -5.25 -21.7 -5.85 -20.5 -6.35 M-175.95 66.35 L-176.15 66.35 Q-178.35 66.35 -179.65 65.45 L-180.6 66.6 Q-182.95 69.1 -185.15 69.1 -188.45 69.1 -189.1 66.95 L-189.15 64.5 Q-189.15 62.8 -187.45 60.75 -186.35 59.45 -184.95 58.6 L-183.65 57.8 Q-181.35 56.7 -179.85 57.35 L-179.5 57.55 -179.65 54.85 Q-179.65 51.45 -179.25 50.35 -178.3 47.8 -174.65 45.85 L-171.95 45.85 -173.15 44.65 Q-173.9 43.45 -173.9 42.35 -173.9 39.1 -171.45 38.8 -170.4 37.6 -169.65 37.6 L-168.75 38.1 Q-168.05 38.6 -167.7 39.45 -166.75 39.85 -165.9 40.55 -164.4 41.75 -164.4 43.0 -164.4 46.6 -169.15 46.6 L-170.35 46.5 Q-167.8 47.9 -166.85 50.1 L-166.45 51.15 Q-173.8 59.75 -175.95 66.35 M-136.05 22.55 L-136.15 22.4 -136.4 20.6 Q-136.4 17.85 -132.9 16.6 -130.4 15.65 -128.95 17.55 -133.3 20.15 -136.05 22.55 M-110.75 8.85 L-111.1 8.55 Q-111.65 7.95 -111.65 7.1 -111.65 5.1 -110.3 3.6 -108.25 1.35 -104.15 2.85 L-103.75 3.5 Q-103.4 4.05 -103.4 5.5 L-103.45 6.2 Q-107.2 7.45 -110.75 8.85 M-122.4 8.35 L-121.9 8.6 Q-121.4 8.85 -121.4 10.35 -121.4 11.7 -124.65 14.1 L-127.15 13.35 -127.7 13.1 Q-127.9 13.0 -127.9 11.5 -127.9 10.0 -126.2 8.9 -124.45 7.75 -122.4 8.35 M-140.9 23.35 Q-140.9 24.9 -141.95 26.8 -142.65 28.1 -143.55 28.75 -144.5 29.35 -145.65 29.35 -147.9 29.35 -149.65 27.65 -151.15 26.15 -151.9 23.85 -150.5 21.8 -148.05 20.55 L-146.35 19.9 -146.9 18.9 Q-147.9 16.75 -147.9 15.85 -147.9 13.75 -146.15 11.9 -144.5 10.15 -142.25 9.45 -139.95 8.7 -138.4 9.5 -136.65 10.45 -136.65 13.1 -136.65 15.8 -138.35 18.4 -139.6 20.2 -141.3 21.0 L-140.9 23.35 M-154.4 20.85 Q-155.4 22.35 -156.65 22.85 -158.15 22.35 -159.15 21.6 L-159.4 20.5 -157.95 19.45 Q-156.65 18.4 -156.65 17.35 -155.7 17.75 -155.05 18.75 -154.4 19.75 -154.4 20.85 M-158.9 27.5 Q-158.9 25.9 -158.15 25.6 L-156.65 25.35 Q-155.4 25.85 -154.4 27.35 L-155.15 29.35 -156.65 29.85 -158.35 29.45 Q-158.9 29.1 -158.9 27.5 M-164.15 22.85 L-163.15 24.35 Q-163.6 25.65 -165.65 26.35 L-167.0 26.3 Q-167.4 26.25 -167.4 24.75 L-167.25 23.0 -167.15 23.1 -164.15 22.85 M-183.65 39.35 L-183.25 40.0 Q-182.9 40.55 -182.9 42.0 -182.9 43.6 -183.3 43.95 L-184.65 44.35 -186.4 43.6 -188.9 42.85 -189.15 43.25 Q-189.4 43.3 -189.4 41.75 -189.4 40.05 -187.25 39.4 -185.4 38.8 -183.65 39.35 M-166.4 35.1 L-165.65 36.6 Q-166.1 38.0 -167.65 38.6 L-168.75 38.05 -169.65 37.35 Q-168.75 36.05 -167.85 35.55 L-166.4 35.1 M-204.05 54.05 Q-202.05 51.55 -199.4 50.8 -196.6 50.0 -194.75 51.7 -193.6 52.75 -193.05 54.65 -192.65 56.2 -192.65 58.35 -192.65 59.1 -195.2 61.85 L-198.65 65.1 -201.65 65.1 Q-204.9 64.9 -205.8 62.75 -206.15 62.0 -206.15 59.75 -206.15 56.7 -204.05 54.05 M-211.15 58.8 Q-210.9 59.15 -210.9 60.6 -210.9 61.7 -211.95 62.9 -213.1 64.3 -214.65 64.35 L-216.85 62.2 -217.4 61.25 Q-217.4 59.35 -216.55 58.65 -215.2 57.45 -211.4 58.35 L-211.15 58.8 M-211.65 53.6 Q-212.9 53.1 -213.65 52.35 -212.75 51.05 -211.85 50.55 L-210.4 50.1 -209.65 51.6 Q-210.1 53.0 -211.65 53.6 M-185.75 53.3 L-185.4 54.5 -185.9 57.1 -187.1 57.4 -188.65 57.85 -191.0 55.95 Q-191.9 55.15 -191.9 54.35 -191.9 53.0 -190.65 52.15 -189.0 50.95 -186.15 51.85 L-185.75 53.3" fill="#cc0000" fill-rule="evenodd" stroke="none"/>
    <path d="M32.35 -39.25 L34.5 -39.15 38.85 -38.45 Q42.75 -37.9 46.6 -36.8 52.65 -35.25 58.4 -32.7 L61.0 -31.2 Q65.4 -27.95 68.6 -23.55 L72.5 -17.9 80.75 -5.75 80.5 -4.25 77.15 -4.95 67.05 -7.4 63.35 -8.3 59.55 -9.3 55.95 -10.3 48.05 -12.65 Q41.75 -14.55 35.45 -17.1 L35.05 -17.25 Q31.45 -18.7 27.9 -20.3 22.9 -22.55 18.0 -25.05 L9.7 -29.6 Q2.5 -33.65 -3.95 -38.85 L-3.0 -41.25 -1.0 -41.2 Q0.2 -40.3 1.55 -39.55 3.85 -38.1 6.45 -37.3 8.35 -36.6 10.4 -36.35 L15.1 -37.0 24.7 -38.65 32.35 -39.25 M43.05 -56.6 L47.05 -54.25 57.15 -47.55 Q59.1 -46.25 61.15 -45.0 L80.4 -33.65 85.95 -30.2 88.05 -28.85 90.15 -27.7 94.6 -25.7 99.3 -24.0 101.7 -23.1 105.4 -22.2 109.95 -21.5 126.95 -19.95 148.35 -19.3 170.35 -20.45 232.6 -22.4 232.6 -20.15 211.95 -19.3 205.05 -19.1 198.2 -18.8 191.3 -18.45 177.5 -17.95 153.8 -17.0 142.0 -16.95 130.1 -17.05 121.3 -17.3 110.2 -18.9 Q97.4 -21.2 85.6 -27.3 76.4 -32.0 67.6 -37.4 L52.6 -47.1 50.7 -48.45 Q49.3 -49.4 49.4 -49.15 L49.6 -49.0 39.8 -54.45 Q35.8 -56.5 32.4 -57.15 L25.95 -57.55 Q22.9 -57.3 20.6 -56.35 16.95 -54.75 -1.7 -43.45 -9.2 -38.95 -12.95 -37.1 L-14.1 -36.6 Q1.1 -25.7 16.45 -19.15 31.75 -12.65 55.45 -5.45 79.15 1.7 101.6 4.7 L100.6 6.8 88.2 4.7 Q59.3 -0.2 31.85 -9.8 3.35 -19.75 -21.65 -36.5 L-21.65 -39.25 Q-17.15 -39.9 -12.9 -41.65 -6.9 -44.1 -1.2 -47.3 L12.05 -55.15 22.05 -60.8 Q25.35 -62.35 29.8 -61.5 L34.4 -60.25 Q39.0 -58.8 43.05 -56.6 M9.75 -33.0 L15.1 -29.8 Q18.9 -27.55 22.85 -25.45 26.1 -23.8 29.45 -22.3 L34.35 -20.3 35.45 -19.85 43.8 -16.7 53.3 -13.65 Q59.85 -11.7 66.5 -10.1 L75.5 -8.0 72.95 -12.65 70.0 -17.3 Q67.45 -21.2 64.15 -24.4 60.5 -27.9 57.25 -29.5 54.0 -31.15 49.85 -32.5 45.65 -33.85 41.25 -34.65 L30.5 -35.7 9.75 -33.0 M-188.65 15.65 L-190.3 17.55 Q-192.1 19.9 -192.9 22.75 L-193.05 23.3 Q-192.9 25.95 -189.0 26.75 L-193.75 26.25 Q-195.75 26.95 -196.0 27.4 -197.35 29.9 -198.05 32.8 -200.45 42.55 -194.0 50.25 L-195.5 50.55 -199.5 48.3 -201.5 48.5 Q-203.4 49.9 -204.6 51.9 -205.5 53.4 -205.75 55.0 L-206.75 54.8 Q-206.45 52.8 -206.45 50.85 -206.45 46.05 -209.45 42.5 -205.25 45.0 -202.55 42.9 -201.6 40.95 -199.55 33.45 -197.55 25.95 -207.15 17.7 -203.1 19.7 -199.2 19.5 -193.85 20.2 -188.65 15.65 M-111.25 -2.25 L-110.8 -0.75 Q-109.35 4.05 -105.35 7.15 L-105.15 7.2 -95.9 4.95 -95.85 4.9 -95.1 3.9 Q-91.6 -1.0 -92.55 -6.95 L-92.2 -5.5 Q-90.75 -0.25 -86.9 3.15 L-86.85 3.2 -67.7 0.6 -66.7 -0.7 -66.1 -1.5 Q-64.6 -3.4 -63.85 -5.6 L-62.8 -9.15 -63.05 -7.75 Q-63.5 -4.6 -62.55 -1.4 L-62.5 -1.0 -62.05 0.05 -60.55 -0.05 -42.8 -1.15 -42.3 -1.55 Q-40.35 -3.75 -39.6 -6.55 -38.55 -10.4 -38.5 -14.5 L-38.3 -11.2 Q-37.95 -6.5 -36.7 -1.75 L-36.2 -1.4 -25.0 -1.6 -25.0 -0.05 -33.5 -0.45 Q-38.85 -0.5 -44.75 -0.15 L-58.4 1.2 -59.8 1.4 -60.55 1.5 Q-79.05 4.05 -102.0 10.0 -150.5 22.5 -175.5 72.5 L-184.8 73.15 -189.8 73.0 Q-197.65 72.55 -204.15 70.35 L-203.15 67.85 -202.0 68.15 -201.1 67.0 Q-199.65 65.05 -199.0 62.5 -199.3 65.8 -198.25 68.95 L-197.2 69.15 -193.15 69.75 -183.1 70.2 -182.15 70.15 -181.9 69.7 -181.45 68.1 Q-180.6 64.1 -182.1 60.35 L-181.35 61.45 Q-179.75 63.6 -177.2 64.35 L-176.2 64.45 Q-170.15 53.65 -161.8 44.1 L-161.8 44.0 -161.8 43.55 -163.35 37.95 -162.55 38.6 Q-161.2 39.85 -159.5 40.4 L-158.45 40.4 Q-151.8 33.3 -143.8 26.9 L-143.8 26.65 -144.6 24.15 Q-145.9 20.35 -148.35 17.2 L-146.5 19.05 Q-143.8 21.75 -140.4 23.35 L-140.0 23.5 -139.65 23.65 -134.55 19.95 Q-130.45 17.1 -125.4 14.65 L-124.3 14.1 Q-122.7 8.75 -123.0 3.25 L-122.25 5.15 Q-120.65 8.8 -117.6 11.15 L-117.55 11.25 -113.05 9.6 -112.6 9.45 Q-110.95 3.7 -111.25 -2.25 M-184.35 -9.95 Q-179.85 -5.8 -175.85 -5.75 -161.15 -9.7 -167.3 -24.2 -165.05 -20.05 -159.75 -18.3 -148.05 -18.4 -137.2 -22.45 -135.15 -24.4 -134.65 -28.95 -134.7 -24.0 -131.5 -22.45 L-130.1 -22.55 Q-112.55 -22.05 -111.85 -35.7 -111.1 -32.0 -107.3 -29.05 -95.8 -25.45 -85.2 -29.5 L-87.95 -17.45 Q-92.15 -28.5 -103.5 -25.0 -106.4 -24.6 -107.35 -19.45 L-107.25 -18.05 Q-107.9 -20.25 -111.75 -23.0 -120.85 -23.1 -129.55 -18.65 -132.2 -17.0 -132.9 -12.5 -133.2 -15.95 -136.0 -17.7 -146.8 -19.45 -156.0 -13.4 -157.4 -11.5 -154.4 -6.45 -156.85 -9.55 -161.25 -11.95 -174.05 -5.25 -169.15 8.85 -172.15 4.85 -176.45 6.75 -180.2 9.15 -183.3 11.9 -174.75 1.2 -184.35 -9.95 M116.1 12.1 L116.1 13.35 Q104.3 15.4 92.4 15.6 63.25 16.1 35.45 9.35 17.25 4.9 -0.4 -2.6 -22.05 -11.8 -44.0 -20.3 -65.65 -28.7 -87.55 -36.4 -136.0 -53.3 -180.7 -30.15 L-181.2 -29.85 Q-190.8 -21.4 -200.15 -16.15 -193.45 -29.55 -177.35 -38.7 L-174.45 -40.25 Q-170.25 -42.0 -165.85 -43.15 -126.9 -52.25 -88.5 -40.4 -63.3 -32.6 -33.4 -20.3 -17.8 -13.85 -0.85 -6.2 16.2 1.55 35.45 6.1 71.85 14.75 116.1 12.1 M228.15 24.55 Q224.45 27.45 219.9 28.95 203.15 34.5 185.65 36.25 184.9 38.05 183.55 38.75 L175.6 39.45 Q169.05 39.45 158.6 39.85 L135.65 40.4 81.6 41.35 67.85 40.8 51.45 40.05 45.55 39.5 Q40.1 32.5 35.45 25.0 32.15 19.6 29.25 14.0 32.3 19.6 35.45 24.15 37.95 27.75 40.6 30.65 46.45 37.25 47.55 37.25 L52.05 37.1 Q54.45 36.1 55.75 29.95 56.2 33.1 57.15 36.0 58.0 38.85 64.55 39.25 L71.2 39.85 Q79.3 40.25 82.35 34.7 85.05 29.8 85.85 23.55 85.55 29.9 86.1 32.75 86.65 35.6 87.75 37.15 88.8 38.65 94.85 39.7 100.85 40.7 105.85 39.15 110.85 37.55 112.55 35.6 114.2 33.65 114.65 28.6 115.7 34.45 118.8 37.0 119.65 37.8 120.65 37.85 125.35 39.65 130.3 39.2 L140.2 38.1 140.75 38.05 Q146.1 36.55 147.25 31.15 L147.45 32.8 Q147.3 36.8 151.0 38.0 L156.3 38.3 Q161.3 38.55 166.55 37.3 169.65 34.9 169.4 32.5 169.65 33.8 170.9 36.5 L176.15 37.45 Q178.75 37.65 181.15 37.45 183.5 37.25 184.65 34.0 L188.2 33.9 195.15 32.85 Q211.95 30.1 228.15 24.55" fill="#000000" fill-rule="evenodd" stroke="none"/>
    <path d="M9.75 -33.0 L30.5 -35.7 41.25 -34.65 Q45.65 -33.85 49.85 -32.5 54.0 -31.15 57.25 -29.5 60.5 -27.9 64.15 -24.4 67.45 -21.2 70.0 -17.3 L72.95 -12.65 75.5 -8.0 66.5 -10.1 Q59.85 -11.7 53.3 -13.65 L43.8 -16.7 35.45 -19.85 34.35 -20.3 29.45 -22.3 Q26.1 -23.8 22.85 -25.45 18.9 -27.55 15.1 -29.8 L9.75 -33.0" fill="#cc0000" fill-rule="evenodd" stroke="none"/>
    <path d="M208.95 -15.85 L211.6 -12.65 Q215.25 -7.65 217.6 -0.55 217.35 0.25 215.35 1.4 L214.0 2.15 211.6 3.05 208.0 3.65 207.8 -14.85 208.95 -15.85 M191.9 -3.55 Q197.6 -2.4 199.55 -1.6 201.45 -0.8 199.95 0.6 198.4 1.95 194.95 3.75 191.85 5.15 188.45 5.9 L185.35 3.9 Q185.4 1.35 184.0 -0.65 183.2 -1.8 182.55 -3.25 L182.55 -3.55 Q186.15 -4.75 191.9 -3.55 M169.85 -1.6 Q170.45 -5.6 169.8 -9.55 L178.4 2.3 175.15 6.1 174.55 6.55 173.9 6.9 173.15 7.1 167.9 6.15 168.55 4.25 Q169.4 1.45 169.85 -1.6 M148.85 -6.35 L152.7 -3.1 Q157.5 1.85 159.45 8.15 L159.25 8.7 147.2 9.25 148.1 4.95 Q148.8 -0.65 148.85 -6.35 M124.3 27.65 Q126.0 26.65 127.9 26.15 130.7 25.3 133.65 24.95 132.85 30.0 130.5 33.3 128.15 36.6 127.1 36.95 L126.05 37.25 Q126.3 33.25 124.3 27.65 M134.5 7.75 L133.65 11.7 Q133.1 12.9 132.35 13.0 L125.6 13.05 Q123.85 13.5 123.0 16.5 L121.35 16.7 120.7 14.7 118.0 9.7 121.3 8.9 Q127.85 7.45 134.5 7.75 M142.65 23.7 L143.65 20.25 158.3 21.55 160.65 19.65 Q158.8 24.8 158.35 25.05 L157.2 25.55 Q155.65 25.95 153.9 25.55 148.15 25.5 142.65 23.7 M164.3 22.55 L165.0 19.2 168.15 19.45 Q174.75 19.85 180.0 16.25 L180.35 20.35 Q172.15 22.85 169.6 23.05 L164.3 22.55 M186.65 16.9 L189.65 17.1 Q194.3 17.2 198.65 15.4 L202.6 14.3 201.65 16.85 Q200.3 20.45 198.0 23.75 195.05 28.25 190.9 31.7 L188.6 31.75 186.65 16.9 M224.05 12.25 L226.9 19.0 Q225.3 20.6 223.15 21.5 L221.95 22.0 Q214.25 24.9 206.45 20.9 L207.3 16.0 208.35 16.0 216.15 13.05 219.0 15.4 221.9 15.45 224.05 12.25" fill="#ffffff" fill-rule="evenodd" stroke="none"/>
    <path d="M145.75 -9.55 L150.45 -9.45 Q157.2 -3.35 161.05 4.65 L161.8 6.1 165.05 5.9 Q168.4 -2.75 167.7 -11.7 L169.9 -13.2 Q176.4 -7.6 179.25 -2.1 L180.9 1.3 182.0 1.4 180.55 -1.25 Q179.85 -2.7 179.55 -4.1 179.35 -4.85 179.45 -5.7 183.3 -7.1 187.8 -6.5 197.05 -6.15 205.45 -3.0 L204.95 -17.15 205.1 -17.55 206.05 -18.55 Q206.6 -18.9 207.2 -19.0 L209.2 -19.3 209.95 -19.2 212.4 -17.0 Q219.1 -10.55 220.85 -4.15 L222.1 -5.7 227.05 -6.05 Q228.45 -4.9 228.7 -3.2 229.9 3.75 225.9 9.55 L229.25 17.4 Q229.7 18.55 229.1 19.65 L227.5 22.0 Q225.2 24.55 221.6 25.0 L211.75 25.15 Q207.75 25.1 204.4 22.95 L204.45 17.4 Q201.65 24.7 196.5 30.4 L193.0 34.05 186.55 33.9 Q186.65 26.6 184.9 19.55 L184.3 18.05 183.45 16.25 184.1 15.05 182.4 15.1 Q184.15 20.9 182.75 22.15 181.35 23.35 171.6 25.65 161.85 27.9 162.3 24.25 L162.2 23.5 161.9 24.65 161.45 25.65 160.85 26.6 159.55 28.0 141.95 27.25 Q140.35 27.3 139.3 25.8 140.65 21.85 141.35 20.45 L140.45 20.6 136.05 24.85 Q135.5 30.05 133.1 34.6 131.55 37.5 125.6 42.15 122.3 42.7 122.6 40.55 123.3 38.2 123.05 35.4 122.75 31.55 121.7 27.95 L116.5 27.2 Q115.95 26.5 115.7 25.8 114.7 22.45 114.9 19.05 L115.05 16.95 118.1 14.7 114.6 9.45 Q121.75 4.25 131.3 4.75 L134.7 4.6 Q137.05 5.05 139.25 4.65 L145.8 4.95 Q146.4 1.4 146.25 -2.2 L145.75 -9.55 M148.85 -6.35 Q148.8 -0.65 148.1 4.95 L147.2 9.25 159.25 8.7 159.45 8.15 Q157.5 1.85 152.7 -3.1 L148.85 -6.35 M169.85 -1.6 Q169.4 1.45 168.55 4.25 L167.9 6.15 173.15 7.1 173.9 6.9 174.55 6.55 175.15 6.1 178.4 2.3 169.8 -9.55 Q170.45 -5.6 169.85 -1.6 M191.9 -3.55 Q186.15 -4.75 182.55 -3.55 L182.55 -3.25 Q183.2 -1.8 184.0 -0.65 185.4 1.35 185.35 3.9 L188.45 5.9 Q191.85 5.15 194.95 3.75 198.4 1.95 199.95 0.6 201.45 -0.8 199.55 -1.6 197.6 -2.4 191.9 -3.55 M208.95 -15.85 L207.8 -14.85 208.0 3.65 211.6 3.05 214.0 2.15 215.35 1.4 Q217.35 0.25 217.6 -0.55 215.25 -7.65 211.6 -12.65 L208.95 -15.85 M223.9 -3.65 Q220.05 4.25 211.6 5.2 L209.95 5.3 205.95 5.55 204.9 2.45 203.0 2.1 Q196.95 7.95 188.35 7.8 183.9 7.65 181.65 3.85 178.8 6.45 175.6 8.55 L174.1 9.2 172.3 8.85 169.6 8.45 166.15 8.85 162.65 8.7 160.85 11.1 Q149.75 10.85 145.9 10.9 143.75 10.9 143.35 8.4 L141.75 7.25 Q138.9 7.75 137.9 9.65 L135.75 13.55 133.55 15.05 Q131.25 14.8 126.15 16.45 L124.85 18.6 Q120.65 20.05 118.15 18.1 115.9 19.7 116.65 22.6 117.5 26.45 121.3 25.6 L130.2 23.9 Q135.4 23.0 137.4 20.65 139.4 18.25 142.7 17.95 L154.4 19.4 Q157.3 19.25 157.95 18.0 158.6 16.7 161.1 16.05 167.8 18.6 174.9 16.6 177.5 15.8 177.35 15.55 L180.0 13.25 Q183.05 11.95 186.1 13.35 L188.4 14.55 Q192.45 15.1 197.2 13.5 199.65 12.5 202.3 12.25 L204.9 12.35 208.0 12.4 212.7 10.65 Q216.55 9.05 217.95 11.2 L219.75 13.0 Q225.7 7.7 226.6 0.3 226.9 -1.85 225.75 -3.7 L223.9 -3.65 M224.05 12.25 L221.9 15.45 219.0 15.4 216.15 13.05 208.35 16.0 207.3 16.0 206.45 20.9 Q214.25 24.9 221.95 22.0 L223.15 21.5 Q225.3 20.6 226.9 19.0 L224.05 12.25 M186.65 16.9 L188.6 31.75 190.9 31.7 Q195.05 28.25 198.0 23.75 200.3 20.45 201.65 16.85 L202.6 14.3 198.65 15.4 Q194.3 17.2 189.65 17.1 L186.65 16.9 M164.3 22.55 L169.6 23.05 Q172.15 22.85 180.35 20.35 L180.0 16.25 Q174.75 19.85 168.15 19.45 L165.0 19.2 164.3 22.55 M142.65 23.7 Q148.15 25.5 153.9 25.55 155.65 25.95 157.2 25.55 L158.35 25.05 Q158.8 24.8 160.65 19.65 L158.3 21.55 143.65 20.25 142.65 23.7 M134.5 7.75 Q127.85 7.45 121.3 8.9 L118.0 9.7 120.7 14.7 121.35 16.7 123.0 16.5 Q123.85 13.5 125.6 13.05 L132.35 13.0 Q133.1 12.9 133.65 11.7 L134.5 7.75 M124.3 27.65 Q126.3 33.25 126.05 37.25 L127.1 36.95 Q128.15 36.6 130.5 33.3 132.85 30.0 133.65 24.95 130.7 25.3 127.9 26.15 126.0 26.65 124.3 27.65" fill="#000000" fill-rule="evenodd" stroke="none"/>
    <path d="M223.9 -3.65 L225.75 -3.7 Q226.9 -1.85 226.6 0.3 225.7 7.7 219.75 13.0 L217.95 11.2 Q216.55 9.05 212.7 10.65 L208.0 12.4 204.9 12.35 202.3 12.25 Q199.65 12.5 197.2 13.5 192.45 15.1 188.4 14.55 L186.1 13.35 Q183.05 11.95 180.0 13.25 L177.35 15.55 Q177.5 15.8 174.9 16.6 167.8 18.6 161.1 16.05 158.6 16.7 157.95 18.0 157.3 19.25 154.4 19.4 L142.7 17.95 Q139.4 18.25 137.4 20.65 135.4 23.0 130.2 23.9 L121.3 25.6 Q117.5 26.45 116.65 22.6 115.9 19.7 118.15 18.1 120.65 20.05 124.85 18.6 L126.15 16.45 Q131.25 14.8 133.55 15.05 L135.75 13.55 137.9 9.65 Q138.9 7.75 141.75 7.25 L143.35 8.4 Q143.75 10.9 145.9 10.9 149.75 10.85 160.85 11.1 L162.65 8.7 166.15 8.85 169.6 8.45 172.3 8.85 174.1 9.2 175.6 8.55 Q178.8 6.45 181.65 3.85 183.9 7.65 188.35 7.8 196.95 7.95 203.0 2.1 L204.9 2.45 205.95 5.55 209.95 5.3 211.6 5.2 Q220.05 4.25 223.9 -3.65" fill="#cc0000" fill-rule="evenodd" stroke="none"/>
  </g>
</svg>
