<?xml version="1.0" encoding="UTF-8" standalone="no"?>
<svg xmlns:xlink="http://www.w3.org/1999/xlink" height="61.1px" width="48.15px" xmlns="http://www.w3.org/2000/svg">
  <g transform="matrix(1.0, 0.0, 0.0, 1.0, 151.3, 94.4)">
    <path d="M-112.4 -76.7 Q-110.85 -72.65 -110.2 -68.5 -109.6 -64.45 -111.2 -52.25 L-107.6 -52.1 -107.7 -51.8 -103.15 -51.5 Q-105.0 -38.7 -105.15 -35.5 L-105.35 -33.75 -113.9 -33.45 Q-129.9 -33.1 -139.95 -33.45 L-144.45 -33.4 -142.9 -42.85 Q-141.15 -52.25 -141.35 -56.85 -141.5 -60.0 -141.7 -59.4 -142.05 -61.65 -141.7 -61.1 L-143.4 -64.9 -145.8 -67.2 Q-151.15 -71.85 -151.25 -76.9 -151.4 -81.9 -151.05 -83.55 -150.6 -85.2 -149.75 -86.85 L-147.15 -90.0 Q-145.85 -91.35 -144.0 -92.4 -142.05 -93.55 -139.95 -94.05 L-138.95 -94.2 -136.85 -94.4 -134.4 -94.3 Q-124.7 -93.55 -121.1 -89.95 -117.0 -85.85 -115.55 -83.45 -114.15 -81.2 -112.4 -76.7 M-114.7 -48.1 L-114.05 -54.55 -113.4 -59.6 Q-113.25 -62.55 -113.65 -66.7 -113.95 -70.9 -114.8 -73.65 -115.7 -76.55 -117.45 -79.8 -119.25 -83.25 -122.5 -85.4 L-126.3 -88.1 Q-129.6 -90.6 -133.7 -91.05 L-138.35 -90.95 -140.25 -90.35 -143.3 -88.85 Q-146.35 -86.95 -147.85 -84.1 -148.6 -82.45 -148.5 -80.45 -148.0 -74.05 -144.85 -71.45 -141.7 -68.85 -140.25 -66.65 L-139.55 -65.7 -139.25 -65.15 -139.1 -65.3 -138.9 -64.9 Q-138.4 -63.9 -138.2 -62.85 -137.55 -60.75 -137.8 -55.5 -138.1 -50.25 -139.1 -44.0 L-140.45 -36.7 -128.35 -36.1 Q-121.0 -36.0 -113.5 -36.35 L-113.45 -36.4 -108.8 -36.9 -107.3 -48.0 -114.65 -48.4 -114.65 -48.15 -114.7 -48.1 M-105.35 -33.55 Q-108.2 -33.45 -105.35 -33.65 L-105.35 -33.55" fill="#000000" fill-rule="evenodd" stroke="none"/>
    <path d="M-114.65 -48.15 L-114.65 -48.4 -107.3 -48.0 -108.8 -36.9 -113.45 -36.4 -113.5 -36.35 Q-121.0 -36.0 -128.35 -36.1 L-140.45 -36.7 -139.1 -44.0 Q-138.1 -50.25 -137.8 -55.5 -137.55 -60.75 -138.2 -62.85 -138.4 -63.9 -138.9 -64.9 L-139.1 -65.3 -139.25 -65.15 -139.55 -65.7 -140.25 -66.65 Q-141.7 -68.85 -144.85 -71.45 -148.0 -74.05 -148.5 -80.45 -148.6 -82.45 -147.85 -84.1 -146.35 -86.95 -143.3 -88.85 L-140.25 -90.35 -138.35 -90.95 -133.7 -91.05 Q-129.6 -90.6 -126.3 -88.1 L-122.5 -85.4 Q-119.25 -83.25 -117.45 -79.8 -115.7 -76.55 -114.8 -73.65 -113.95 -70.9 -113.65 -66.7 -113.25 -62.55 -113.4 -59.6 L-114.05 -54.55 -114.7 -48.1 -116.05 -48.2 -114.75 -54.7 Q-113.15 -66.6 -117.6 -76.65 -122.7 -88.2 -133.4 -89.75 L-135.75 -89.9 -137.1 -89.5 -137.2 -89.2 Q-135.05 -88.9 -133.15 -88.2 -122.95 -84.85 -119.25 -70.7 -116.5 -60.3 -117.65 -48.3 L-117.75 -48.3 -118.1 -45.55 -110.65 -45.25 Q-110.55 -43.85 -111.1 -38.3 L-111.1 -38.25 -109.65 -38.45 -108.8 -43.4 Q-108.5 -45.75 -108.55 -48.0 -110.8 -47.9 -113.65 -48.1 L-114.65 -48.15" fill="#c5c351" fill-rule="evenodd" stroke="none"/>
    <path d="M-114.7 -48.1 L-114.65 -48.15 -113.65 -48.1 Q-110.8 -47.9 -108.55 -48.0 -108.5 -45.75 -108.8 -43.4 L-109.65 -38.45 -111.1 -38.25 -111.1 -38.3 Q-110.55 -43.85 -110.65 -45.25 L-118.1 -45.55 -117.75 -48.3 -117.65 -48.3 Q-116.5 -60.3 -119.25 -70.7 -122.95 -84.85 -133.15 -88.2 -135.05 -88.9 -137.2 -89.2 L-137.1 -89.5 -135.75 -89.9 -133.4 -89.75 Q-122.7 -88.2 -117.6 -76.65 -113.15 -66.6 -114.75 -54.7 L-116.05 -48.2 -114.7 -48.1" fill="#737115" fill-rule="evenodd" stroke="none"/>
  </g>
</svg>
