<?xml version="1.0" encoding="UTF-8" standalone="no"?>
<svg xmlns:xlink="http://www.w3.org/1999/xlink" height="123.0px" width="123.0px" xmlns="http://www.w3.org/2000/svg">
  <g transform="matrix(1.0, 0.0, 0.0, 1.0, 61.5, 61.35)">
    <path d="M8.65 -52.6 L9.9 -61.35 24.15 -47.1 47.25 -24.0 47.25 -14.25 47.25 -14.0 8.65 -52.6 M-47.25 -24.25 L-47.25 -14.25 -52.75 -8.75 -61.5 -10.0 -47.25 -24.25 M52.75 8.8 L61.5 10.05 47.25 24.3 47.25 14.3 52.75 8.8 M-10.15 61.65 L-47.25 24.55 -47.25 24.3 -47.25 14.55 -8.9 52.9 -10.15 61.65" fill="#660000" fill-rule="evenodd" stroke="none"/>
    <path d="M9.9 -61.35 L8.65 -52.6 -8.9 -52.6 -47.25 -14.25 -47.25 -24.25 -10.15 -61.35 9.9 -61.35 M47.25 -14.25 L47.25 -24.0 24.15 -47.1 24.4 -47.1 61.5 -10.0 61.5 10.05 52.75 8.8 52.75 -8.75 47.25 -14.25 M47.25 24.3 L9.9 61.65 -10.15 61.65 -8.9 52.9 8.65 52.9 47.25 14.3 47.25 24.3 M-47.25 24.3 L-61.5 10.05 -61.5 -10.0 -52.75 -8.75 -52.75 8.8 -47.25 14.3 -47.25 14.55 -47.25 24.3" fill="#990000" fill-rule="evenodd" stroke="none"/>
    <path d="M-47.25 -14.25 L-8.9 -52.6 8.65 -52.6 47.25 -14.0 47.25 -14.25 52.75 -8.75 52.75 8.8 47.25 14.3 8.65 52.9 -8.9 52.9 -47.25 14.55 -47.25 14.3 -52.75 8.8 -52.75 -8.75 -47.25 -14.25" fill="#eb7907" fill-rule="evenodd" stroke="none"/>
  </g>
</svg>
