<?xml version="1.0" encoding="UTF-8" standalone="no"?>
<svg xmlns:xlink="http://www.w3.org/1999/xlink" height="45.85px" width="57.25px" xmlns="http://www.w3.org/2000/svg">
  <g transform="matrix(1.0, 0.0, 0.0, 1.0, 28.65, 22.9)">
    <path d="M2.45 -21.9 L3.2 -21.9 28.6 18.75 24.4 22.95 -23.1 22.95 -24.1 22.0 23.05 22.0 27.25 17.8 2.45 -21.9" fill="#000000" fill-rule="evenodd" stroke="none"/>
    <path d="M-24.1 22.0 L-24.45 22.0 -28.65 17.8 -3.3 -22.9 1.8 -22.9 2.45 -21.9 27.25 17.8 23.05 22.0 -24.1 22.0 M20.85 14.75 L1.3 -16.55 -2.6 -16.55 -22.1 14.75 -18.9 17.95 17.65 17.95 20.85 14.75" fill="#ffffff" fill-rule="evenodd" stroke="none"/>
    <path d="M20.85 14.75 L17.65 17.95 -18.9 17.95 -22.1 14.75 -2.6 -16.55 1.3 -16.55 20.85 14.75" fill="#ff0000" fill-rule="evenodd" stroke="none"/>
  </g>
</svg>
