<?xml version="1.0" encoding="UTF-8" standalone="no"?>
<svg xmlns:xlink="http://www.w3.org/1999/xlink" height="35.05px" width="11.4px" xmlns="http://www.w3.org/2000/svg">
  <g transform="matrix(1.0, 0.0, 0.0, 1.0, 6.0, 14.65)">
    <path d="M3.6 -12.85 L5.4 -13.45 Q0.8 -1.5 0.65 11.9 L-0.5 9.55 Q-0.25 -2.25 3.6 -12.85 M-2.25 18.55 Q-1.35 19.3 -0.5 19.3 0.5 19.3 1.7 17.4 2.65 16.1 3.05 14.55 L4.5 14.75 Q4.15 16.8 2.85 18.6 1.7 20.4 0.7 20.4 -0.7 20.4 -2.25 18.55" fill="#430106" fill-rule="evenodd" stroke="none"/>
    <path d="M-0.5 9.55 L-0.5 10.0 -0.5 10.7 Q-5.6 0.85 -6.0 -11.25 L4.2 -14.65 3.85 -13.55 3.6 -12.85 Q-0.25 -2.25 -0.5 9.55 M3.05 14.55 Q2.65 16.1 1.7 17.4 0.5 19.3 -0.5 19.3 -1.35 19.3 -2.25 18.55 L-2.55 18.3 -3.65 17.2 Q-5.25 14.95 -5.25 12.5 L-5.15 10.4 Q-1.3 13.2 3.3 13.55 L3.15 14.15 3.05 14.55" fill="#ffffff" fill-rule="evenodd" stroke="none"/>
  </g>
</svg>
