<?xml version="1.0" encoding="UTF-8" standalone="no"?>
<svg xmlns:xlink="http://www.w3.org/1999/xlink" height="54.15px" width="50.05px" xmlns="http://www.w3.org/2000/svg">
  <g transform="matrix(1.0, 0.0, 0.0, 1.0, 25.2, 22.8)">
    <path d="M-20.85 -3.95 L-19.9 -4.9 -19.9 -5.4 -20.85 -5.4 -20.85 -3.95 M-15.9 25.85 L-16.45 25.35 -22.85 25.35 -22.4 17.4 -22.85 10.95 -22.4 -1.45 -22.85 -10.35 Q-22.7 -15.35 -21.85 -15.35 L-22.85 -20.8 -15.9 -20.8 -15.9 -19.8 -15.45 -19.8 -13.95 -20.8 -11.95 -20.8 -10.95 -19.8 -11.45 -19.3 -10.95 -19.3 -8.0 -18.3 -8.0 -20.7 -7.45 -20.7 -7.45 -19.25 -5.45 -19.25 -5.45 -20.7 2.0 -20.7 Q3.95 -19.7 3.95 -17.75 L5.95 -17.75 5.95 -18.25 5.5 -18.7 Q3.5 -19.0 3.5 -20.25 L3.5 -20.7 16.9 -20.25 Q22.15 -17.15 22.75 -8.35 L22.85 -8.35 22.85 -7.65 22.85 -5.85 22.4 -3.85 22.25 -3.85 Q21.4 -0.2 19.4 2.05 21.4 4.3 22.25 7.95 L22.4 7.95 22.35 8.0 22.35 8.4 22.45 9.05 22.85 10.5 22.8 11.65 22.85 12.5 22.75 12.5 Q22.3 21.75 16.85 24.9 L3.45 25.4 3.45 24.9 Q3.45 23.65 5.45 23.4 L5.95 22.9 5.95 22.45 3.95 22.45 Q3.95 24.4 2.0 25.4 L-5.45 25.4 -5.45 23.9 -7.45 23.9 -7.45 25.4 -8.05 25.4 -8.1 25.35 -10.0 25.35 -10.45 29.35 -12.45 29.35 Q-12.45 28.35 -10.95 28.35 L-10.95 25.35 -12.95 25.85 -15.9 25.35 -15.9 25.85 -14.95 26.85 -14.95 27.35 -15.9 27.35 -15.9 25.85 M-6.95 -14.25 L-6.95 -15.75 -7.95 -15.75 -8.0 -15.7 -8.0 -14.25 -6.95 -14.25 M-18.9 -9.35 L-18.4 -7.9 -17.9 -7.9 -17.9 -9.35 -18.9 -9.35 M-2.15 -2.65 L8.0 -2.65 7.95 -8.9 6.9 -9.9 -8.0 -9.9 -8.0 -2.3 -7.6 -2.2 -5.65 -2.65 -5.1 -2.65 -3.15 -1.2 -2.15 -1.2 -2.15 -2.65 M2.5 -16.25 L1.5 -15.25 1.5 -14.75 2.5 -14.75 2.5 -16.25 M5.3 9.75 L2.35 9.75 -1.65 8.25 -3.15 8.25 -3.65 8.75 -4.15 8.75 Q-7.4 7.95 -8.0 8.75 L-8.0 14.65 7.25 14.65 8.05 13.65 8.05 8.25 5.3 8.25 5.3 9.75 M1.45 19.45 L1.45 19.9 2.45 20.9 2.45 19.45 1.45 19.45 M-19.9 15.95 L-20.4 15.95 -20.4 17.9 -19.9 17.9 -19.9 15.95 M-8.0 20.45 L-7.0 20.45 -7.0 18.95 -8.0 17.95 -8.0 20.45 M-21.85 22.9 L-21.85 24.35 -20.85 24.35 -20.85 23.9 -21.85 22.9 M-13.45 27.85 L-12.95 26.35 -11.95 26.35 -11.45 27.85 -11.95 28.35 -12.45 28.35 -12.95 27.85 -13.45 27.85" fill="#ffffff" fill-rule="evenodd" stroke="none"/>
    <path d="M-15.9 25.85 L-16.45 25.35 -22.85 25.35 -22.4 17.4 -22.85 10.95 -22.4 -1.45 -22.85 -10.35 Q-22.7 -15.35 -21.85 -15.35 L-22.85 -20.8 -15.9 -20.8 -15.9 -19.8 -15.45 -19.8 -13.95 -20.8 -11.95 -20.8 -10.95 -19.8 -11.45 -19.3 -10.95 -19.3 -8.0 -18.3 -8.0 -20.7 -7.45 -20.7 -7.45 -19.25 -5.45 -19.25 -5.45 -20.7 2.0 -20.7 Q3.95 -19.7 3.95 -17.75 L5.95 -17.75 5.95 -18.25 5.5 -18.7 Q3.5 -19.0 3.5 -20.25 L3.5 -20.7 16.9 -20.25 Q22.15 -17.15 22.75 -8.35 L22.85 -8.35 22.85 -7.65 22.85 -5.85 22.4 -3.85 22.25 -3.85 Q21.4 -0.2 19.4 2.05 21.4 4.3 22.25 7.95 L22.4 7.95 22.35 8.0 22.35 8.4 22.45 9.05 22.85 10.5 22.8 11.65 22.85 12.5 22.75 12.5 Q22.3 21.75 16.85 24.9 L3.45 25.4 3.45 24.9 Q3.45 23.65 5.45 23.4 L5.95 22.9 5.95 22.45 3.95 22.45 Q3.95 24.4 2.0 25.4 L-5.45 25.4 -5.45 23.9 -7.45 23.9 -7.45 25.4 -8.05 25.4 -8.1 25.35 -10.0 25.35 -10.45 29.35 -12.45 29.35 Q-12.45 28.35 -10.95 28.35 L-10.95 25.35 -12.95 25.85 -15.9 25.35 -15.9 25.85 M-2.15 -2.65 L8.0 -2.65 7.95 -8.9 6.9 -9.9 -8.0 -9.9 -8.0 -2.3 -7.6 -2.2 -5.65 -2.65 -5.1 -2.65 -3.15 -1.2 -2.15 -1.2 -2.15 -2.65 M5.3 9.75 L2.35 9.75 -1.65 8.25 -3.15 8.25 -3.65 8.75 -4.15 8.75 Q-7.4 7.95 -8.0 8.75 L-8.0 14.65 7.25 14.65 8.05 13.65 8.05 8.25 5.3 8.25 5.3 9.75" fill="none" stroke="#10213a" stroke-linecap="butt" stroke-linejoin="miter-clip" stroke-miterlimit="3.0" stroke-width="4.0"/>
  </g>
</svg>
