<?xml version="1.0" encoding="UTF-8" standalone="no"?>
<svg xmlns:xlink="http://www.w3.org/1999/xlink" height="58.05px" width="49.5px" xmlns="http://www.w3.org/2000/svg">
  <g transform="matrix(1.0, 0.0, 0.0, 1.0, 24.85, 26.75)">
    <path d="M-20.45 -5.3 L-20.55 -5.2 Q-20.8 -3.1 -20.45 -5.3 M-8.0 -14.25 L-6.95 -14.25 -6.95 -15.75 -8.0 -15.75 -8.0 -14.25 M-15.9 25.85 L-22.85 25.35 -22.85 -20.8 -15.9 -19.8 -11.25 -19.7 -8.0 -18.3 -7.45 -20.7 -7.45 -19.25 -5.45 -19.25 -5.45 -20.7 2.0 -20.7 5.0 -17.85 5.9 -17.95 5.9 -18.05 5.9 -18.2 3.5 -20.25 16.9 -20.25 17.55 -19.75 18.05 -19.25 Q23.3 -13.6 22.55 -6.0 22.1 -1.45 19.4 2.05 L20.8 4.5 Q21.4 5.6 21.65 6.85 25.65 27.65 3.5 24.9 L5.9 22.7 2.0 25.4 -5.45 25.4 -5.45 23.9 -7.35 24.2 -7.55 24.6 -7.7 25.3 -10.0 25.35 Q-10.25 27.35 -10.9 29.2 L-11.4 29.3 -12.35 29.1 -12.35 29.0 -11.9 28.2 Q-14.8 27.2 -11.75 26.65 L-11.5 27.0 -10.95 25.35 -15.9 25.85 Q-14.45 28.45 -15.65 26.5 L-15.9 25.85 M-18.55 -8.6 L-18.9 -9.35 Q-18.0 -6.75 -18.55 -8.6 M-7.8 -1.95 L7.95 -1.95 7.95 -9.9 -7.8 -9.9 -7.8 -1.95 M2.05 -14.9 L2.15 -14.95 Q2.65 -17.0 2.05 -14.9 M2.2 20.1 L2.1 19.8 Q1.25 20.95 2.2 20.1 M8.05 9.0 L-7.9 9.0 -7.9 14.65 8.05 14.65 8.05 9.0 M-7.0 18.95 L-8.0 17.95 -7.0 20.45 -7.0 18.95 M-19.9 15.95 L-20.4 15.95 -20.4 17.9 -19.9 17.9 -19.9 15.95 M-21.65 23.4 L-21.85 22.9 Q-21.65 25.3 -21.65 23.4 M-11.5 27.0 L-11.9 28.2 -11.5 27.0" fill="#ffffff" fill-rule="evenodd" stroke="none"/>
    <path d="M-15.9 25.85 L-22.85 25.35 -22.85 -20.8 -15.9 -19.8 -11.25 -19.7 -8.0 -18.3 -7.45 -20.7 -7.45 -19.25 -5.45 -19.25 -5.45 -20.7 2.0 -20.7 5.0 -17.85 5.9 -17.95 5.9 -18.05 5.9 -18.2 3.5 -20.25 16.9 -20.25 17.55 -19.75 18.05 -19.25 Q23.3 -13.6 22.55 -6.0 22.1 -1.45 19.4 2.05 L20.8 4.5 Q21.4 5.6 21.65 6.85 25.65 27.65 3.5 24.9 L5.9 22.7 2.0 25.4 -5.45 25.4 -5.45 23.9 -7.35 24.2 -7.55 24.6 -7.7 25.3 -10.0 25.35 Q-10.25 27.35 -10.9 29.2 L-11.4 29.3 -12.35 29.1 -12.35 29.0 -11.9 28.2 -11.5 27.0 -10.95 25.35 -15.9 25.85 M-7.8 -1.95 L7.95 -1.95 7.95 -9.9 -7.8 -9.9 -7.8 -1.95 M8.05 9.0 L-7.9 9.0 -7.9 14.65 8.05 14.65 8.05 9.0" fill="none" stroke="#10213a" stroke-linecap="butt" stroke-linejoin="miter-clip" stroke-miterlimit="3.0" stroke-width="4.0"/>
  </g>
</svg>
