<?xml version="1.0" encoding="UTF-8" standalone="no"?>
<svg xmlns:xlink="http://www.w3.org/1999/xlink" height="53.8px" width="47.75px" xmlns="http://www.w3.org/2000/svg">
  <g transform="matrix(1.0, 0.0, 0.0, 1.0, 24.95, 22.95)">
    <path d="M18.35 -17.05 Q20.8 -14.0 20.8 -5.75 L20.8 11.5 Q19.35 11.5 19.35 12.5 L19.35 13.45 Q20.8 13.45 20.8 14.45 20.8 21.2 13.95 24.75 L13.95 26.7 14.4 26.25 14.9 26.25 15.9 27.25 15.4 27.7 14.9 27.7 14.4 27.25 13.95 27.25 11.95 27.7 Q11.95 26.7 10.5 26.7 L10.5 26.25 Q11.95 26.25 11.95 25.25 L10.95 25.25 10.5 25.75 8.5 24.75 8.05 26.7 Q6.8 26.7 6.55 24.75 L4.05 25.25 0.15 25.25 -0.35 24.75 -0.85 24.75 -1.3 25.25 -1.3 24.25 -1.85 24.25 -3.3 25.25 -4.3 25.25 Q-5.3 25.25 -5.3 22.8 L-8.2 22.8 -9.2 25.25 -9.7 25.25 Q-14.35 25.25 -18.55 23.3 -19.5 23.3 -19.5 20.35 L-20.0 20.35 -20.0 21.8 Q-22.95 20.45 -22.95 10.05 L-22.95 -4.25 Q-22.95 -20.5 -14.1 -20.5 L-5.75 -20.95 Q17.4 -20.95 17.4 -18.5 L17.4 -18.0 14.9 -18.0 14.9 -17.55 15.9 -16.55 18.35 -17.05 M17.85 -13.1 L17.85 -12.65 18.85 -11.65 19.85 -12.65 19.35 -13.1 17.85 -13.1 M8.5 -17.55 L8.5 -18.0 -10.65 -18.0 -10.65 -17.55 -9.7 -15.55 Q-6.25 -15.55 -6.25 -17.05 L-4.75 -16.55 -4.3 -17.05 -3.8 -17.05 4.05 -14.6 Q4.05 -15.55 6.55 -15.55 6.55 -17.05 8.05 -17.05 L8.5 -17.55 M8.05 -10.65 L8.05 -10.15 9.0 -11.15 9.0 -11.65 8.05 -10.65 M0.15 -3.75 L-0.85 -2.75 -1.3 -2.75 -1.3 -3.75 -0.35 -4.75 0.15 -4.75 0.15 -3.75 M12.45 -7.7 L12.45 -9.2 11.45 -10.15 10.5 -10.15 10.95 -7.7 12.45 -7.7 M13.95 -10.15 L14.9 -9.2 15.4 -9.2 14.4 -10.15 13.95 -10.15 M14.4 -4.25 L15.4 -3.3 15.9 -3.3 15.4 -4.75 14.4 -4.75 14.4 -4.25 M12.45 -1.3 L10.95 -1.3 10.5 1.15 11.45 1.15 12.45 -0.8 12.45 -1.3 M6.05 -8.2 L-6.25 -8.2 -6.75 -8.65 -9.2 -7.2 -8.2 -3.3 -8.2 12.5 6.05 12.5 6.05 -8.2 M-9.7 -9.65 L-9.2 -9.65 -8.2 -10.65 -9.2 -11.65 -9.7 -11.65 -9.7 -9.65 M-15.6 1.65 L-15.6 0.15 -16.6 1.15 -16.6 1.65 -15.6 1.65 M-14.1 21.35 L-14.1 19.35 -16.6 19.35 Q-15.6 21.6 -14.6 21.8 L-14.1 21.35 M-13.15 23.3 L-12.15 22.3 -12.15 21.8 -13.15 21.8 -13.15 23.3 M-2.3 13.45 L-6.25 17.9 -6.25 18.85 -5.3 18.85 Q-5.3 17.45 -1.85 13.95 L-1.85 13.45 -2.3 13.45 M-8.7 20.8 L-7.7 20.8 -6.75 19.85 -6.75 19.35 -7.25 19.35 -8.7 20.8" fill="#ffffff" fill-rule="evenodd" stroke="none"/>
    <path d="M18.35 -17.05 Q20.8 -14.0 20.8 -5.75 L20.8 11.5 Q19.35 11.5 19.35 12.5 L19.35 13.45 Q20.8 13.45 20.8 14.45 20.8 21.2 13.95 24.75 L13.95 26.7 14.4 26.25 14.9 26.25 15.9 27.25 15.4 27.7 14.9 27.7 14.4 27.25 13.95 27.25 11.95 27.7 Q11.95 26.7 10.5 26.7 L10.5 26.25 Q11.95 26.25 11.95 25.25 L10.95 25.25 10.5 25.75 8.5 24.75 8.05 26.7 Q6.8 26.7 6.55 24.75 L4.05 25.25 0.15 25.25 -0.35 24.75 -0.85 24.75 -1.3 25.25 -1.3 24.25 -1.85 24.25 -3.3 25.25 -4.3 25.25 Q-5.3 25.25 -5.3 22.8 L-8.2 22.8 -9.2 25.25 -9.7 25.25 Q-14.35 25.25 -18.55 23.3 -19.5 23.3 -19.5 20.35 L-20.0 20.35 -20.0 21.8 Q-22.95 20.45 -22.95 10.05 L-22.95 -4.25 Q-22.95 -20.5 -14.1 -20.5 L-5.75 -20.95 Q17.4 -20.95 17.4 -18.5 L17.4 -18.0 14.9 -18.0 14.9 -17.55 15.9 -16.55 18.35 -17.05 M6.05 -8.2 L-6.25 -8.2 -6.75 -8.65 -9.2 -7.2 -8.2 -3.3 -8.2 12.5 6.05 12.5 6.05 -8.2" fill="none" stroke="#10213a" stroke-linecap="butt" stroke-linejoin="miter-clip" stroke-miterlimit="3.0" stroke-width="4.0"/>
  </g>
</svg>
