<?xml version="1.0" encoding="UTF-8" standalone="no"?>
<svg xmlns:xlink="http://www.w3.org/1999/xlink" height="52.75px" width="48.65px" xmlns="http://www.w3.org/2000/svg">
  <g transform="matrix(1.0, 0.0, 0.0, 1.0, 25.8, 23.05)">
    <path d="M19.85 -13.1 L17.85 -13.1 18.85 -11.65 19.85 -13.1 M14.9 -17.55 L15.9 -16.55 18.35 -17.05 Q20.9 -12.85 20.85 -7.7 20.8 1.9 19.9 11.45 L19.45 12.1 Q19.4 12.75 19.65 13.35 L20.0 13.7 20.75 14.05 Q20.85 21.55 13.95 24.75 L14.4 26.25 14.8 26.4 Q15.4 26.75 15.4 27.25 L14.9 27.7 11.95 27.7 10.5 26.25 11.9 25.7 10.5 25.75 8.5 24.75 7.65 26.35 7.1 26.25 6.65 25.45 Q2.9 26.05 -0.35 24.75 L-0.8 24.65 -1.3 24.25 -4.5 25.25 -5.3 22.8 -8.2 22.8 -9.7 25.25 -19.25 22.6 -20.0 20.35 -20.65 21.35 Q-21.7 19.9 -22.1 18.2 -23.1 14.15 -23.4 10.05 -24.3 -2.15 -21.5 -14.05 -20.55 -18.0 -16.9 -19.5 -11.75 -21.5 -5.75 -20.95 L4.4 -20.75 Q11.4 -21.4 17.4 -18.5 L14.9 -17.55 M10.95 -7.7 L12.45 -7.7 12.45 -9.2 10.5 -10.15 10.95 -7.7 M12.45 -1.3 L10.95 -1.3 11.45 1.15 12.45 -1.3 M15.15 -4.35 L14.4 -4.25 15.9 -3.3 15.15 -4.35 M6.95 -16.65 L8.5 -18.0 -10.65 -17.55 -8.85 -15.55 -6.3 -16.65 -4.75 -16.55 -3.8 -17.05 4.25 -14.95 6.55 -15.55 6.95 -16.65 M6.05 12.5 L6.05 -8.45 -8.7 -8.45 -8.7 12.5 6.05 12.5 M-5.3 18.85 L-2.3 13.45 Q-4.3 15.65 -5.7 18.2 L-5.3 18.85 M-12.15 21.8 L-12.8 22.0 Q-13.15 22.55 -13.15 23.3 L-12.15 21.8 M-16.6 19.35 L-14.1 21.35 -14.1 19.35 -16.6 19.35 M-0.55 -4.75 L0.0 -4.45 0.2 -3.75 0.0 -3.05 Q-0.25 -2.75 -0.55 -2.75 -0.85 -2.75 -1.05 -3.05 L-1.3 -3.75 -1.05 -4.45 -0.55 -4.75 M-9.45 -11.35 L-9.7 -10.65 -9.45 -9.95 Q-9.25 -9.65 -8.95 -9.65 -8.65 -9.65 -8.4 -9.95 L-8.2 -10.65 -8.4 -11.35 Q-8.65 -11.65 -8.95 -11.65 L-9.45 -11.35" fill="#ffffff" fill-rule="evenodd" stroke="none"/>
    <path d="M14.9 -17.55 L17.4 -18.5 Q11.4 -21.4 4.4 -20.75 L-5.75 -20.95 Q-11.75 -21.5 -16.9 -19.5 -20.55 -18.0 -21.5 -14.05 -24.3 -2.15 -23.4 10.05 -23.1 14.15 -22.1 18.2 -21.7 19.9 -20.65 21.35 L-20.0 20.35 -19.25 22.6 -9.7 25.25 -8.2 22.8 -5.3 22.8 -4.5 25.25 -1.3 24.25 -0.8 24.65 -0.35 24.75 Q2.9 26.05 6.65 25.45 L7.1 26.25 7.65 26.35 8.5 24.75 10.5 25.75 11.9 25.7 10.5 26.25 11.95 27.7 14.9 27.7 15.4 27.25 Q15.4 26.75 14.8 26.4 L14.4 26.25 13.95 24.75 Q20.85 21.55 20.75 14.05 L20.0 13.7 19.65 13.35 Q19.4 12.75 19.45 12.1 L19.9 11.45 Q20.8 1.9 20.85 -7.7 20.9 -12.85 18.35 -17.05 L15.9 -16.55 14.9 -17.55 M6.05 12.5 L-8.7 12.5 -8.7 -8.45 6.05 -8.45 6.05 12.5" fill="none" stroke="#10213a" stroke-linecap="butt" stroke-linejoin="miter-clip" stroke-miterlimit="3.0" stroke-width="4.0"/>
  </g>
</svg>
