<?xml version="1.0" encoding="UTF-8" standalone="no"?>
<svg xmlns:xlink="http://www.w3.org/1999/xlink" height="51.25px" width="50.4px" xmlns="http://www.w3.org/2000/svg">
  <g transform="matrix(1.0, 0.0, 0.0, 1.0, 27.65, 23.35)">
    <path d="M18.2 -12.85 L18.75 -9.3 18.2 -8.75 -8.1 -8.75 -8.1 -3.25 -7.8 -3.25 -7.8 -2.85 -7.45 -2.5 -6.35 -3.25 1.1 -3.25 1.1 -2.15 3.1 -2.15 3.1 -3.25 7.6 -3.25 8.6 -2.25 8.6 -2.15 9.95 -2.15 9.95 -2.0 10.55 -2.75 Q13.7 -2.75 16.05 1.7 L15.05 3.7 Q16.05 3.7 16.05 5.2 L17.05 5.2 17.05 4.2 16.05 4.2 16.05 2.25 17.05 2.25 Q18.5 5.9 18.6 9.95 18.5 21.4 14.15 24.45 L8.15 25.45 -18.65 25.45 -20.65 25.9 -23.15 25.45 -22.6 24.9 -22.6 19.45 -23.15 18.95 -22.6 17.45 -23.15 13.9 -22.6 13.4 3.7 13.4 3.7 7.85 3.45 7.85 3.45 7.5 3.05 7.1 1.95 7.85 -5.5 7.85 -5.5 6.75 -7.5 6.75 -7.5 7.85 -12.0 7.85 -13.0 6.85 -13.0 6.75 -14.35 6.75 -14.35 6.65 -14.95 7.4 Q-18.1 7.4 -20.4 2.9 L-19.4 0.9 Q-20.4 0.9 -20.4 -0.55 L-21.4 -0.55 -21.4 0.4 -20.4 0.4 -20.4 2.4 -21.4 2.4 Q-22.9 -1.3 -23.0 -5.35 -22.9 -16.8 -18.5 -19.8 L-12.55 -20.8 14.25 -20.8 16.25 -21.3 18.75 -20.8 18.2 -20.3 18.2 -14.85 18.75 -14.35 18.2 -12.85 M11.55 2.7 L9.95 2.7 9.95 5.05 Q10.7 6.0 11.55 6.2 L12.05 5.7 12.05 5.2 11.05 5.2 11.55 2.7 M5.1 8.2 L5.1 9.15 7.05 9.65 7.05 8.2 5.1 8.2 M-11.45 -3.55 L-9.5 -3.55 -9.5 -4.55 -11.45 -5.05 -11.45 -3.55 M-15.45 -0.55 L-15.95 1.9 -14.35 1.9 -14.35 -0.4 Q-15.1 -1.4 -15.95 -1.55 L-16.45 -1.05 -16.45 -0.55 -15.45 -0.55" fill="#ffffff" fill-rule="evenodd" stroke="none"/>
    <path d="M18.2 -12.85 L18.75 -9.3 18.2 -8.75 -8.1 -8.75 -8.1 -3.25 -7.8 -3.25 -7.8 -2.85 -7.45 -2.5 -6.35 -3.25 1.1 -3.25 1.1 -2.15 3.1 -2.15 3.1 -3.25 7.6 -3.25 8.6 -2.25 8.6 -2.15 9.95 -2.15 9.95 -2.0 10.55 -2.75 Q13.7 -2.75 16.05 1.7 L15.05 3.7 Q16.05 3.7 16.05 5.2 L17.05 5.2 17.05 4.2 16.05 4.2 16.05 2.25 17.05 2.25 Q18.5 5.9 18.6 9.95 18.5 21.4 14.15 24.45 L8.15 25.45 -18.65 25.45 -20.65 25.9 -23.15 25.45 -22.6 24.9 -22.6 19.45 -23.15 18.95 -22.6 17.45 -23.15 13.9 -22.6 13.4 3.7 13.4 3.7 7.85 3.45 7.85 3.45 7.5 3.05 7.1 1.95 7.85 -5.5 7.85 -5.5 6.75 -7.5 6.75 -7.5 7.85 -12.0 7.85 -13.0 6.85 -13.0 6.75 -14.35 6.75 -14.35 6.65 -14.95 7.4 Q-18.1 7.4 -20.4 2.9 L-19.4 0.9 Q-20.4 0.9 -20.4 -0.55 L-21.4 -0.55 -21.4 0.4 -20.4 0.4 -20.4 2.4 -21.4 2.4 Q-22.9 -1.3 -23.0 -5.35 -22.9 -16.8 -18.5 -19.8 L-12.55 -20.8 14.25 -20.8 16.25 -21.3 18.75 -20.8 18.2 -20.3 18.2 -14.85 18.75 -14.35 18.2 -12.85 Z" fill="none" stroke="#10213a" stroke-linecap="butt" stroke-linejoin="miter-clip" stroke-miterlimit="3.0" stroke-width="4.0"/>
  </g>
</svg>
