<?xml version="1.0" encoding="UTF-8" standalone="no"?>
<svg xmlns:xlink="http://www.w3.org/1999/xlink" height="51.9px" width="45.7px" xmlns="http://www.w3.org/2000/svg">
  <g transform="matrix(1.0, 0.0, 0.0, 1.0, 24.9, 23.3)">
    <path d="M16.25 -21.3 L18.2 -20.3 18.2 -8.75 -8.1 -8.75 -7.8 -2.85 -6.35 -3.25 1.1 -3.25 1.1 -2.15 3.1 -2.15 3.1 -3.25 7.6 -3.25 8.6 -2.15 10.55 -2.75 16.05 1.7 15.5 3.8 15.9 4.6 16.15 5.0 16.8 4.95 17.05 4.2 16.45 4.05 Q16.05 3.2 16.45 2.45 16.55 2.25 17.05 2.25 18.65 6.0 18.8 9.95 19.0 16.95 15.6 23.05 L15.2 23.6 14.7 24.1 14.15 24.45 -18.55 26.55 Q-22.4 26.8 -22.6 24.9 L-22.6 13.4 3.7 13.4 3.45 7.5 1.95 7.85 -5.5 7.85 -5.5 6.75 -7.5 6.75 -7.5 7.85 -12.0 7.85 -13.0 6.75 -14.95 7.4 -20.4 2.9 -19.8 0.85 -20.2 0.1 -20.55 -0.3 Q-20.9 -0.55 -21.2 -0.3 L-21.4 0.4 -21.4 2.4 -22.0 0.55 Q-24.45 -9.0 -20.25 -17.7 L-19.45 -18.9 -18.5 -19.8 -12.55 -20.8 16.25 -21.3 M6.8 9.45 L7.1 8.9 6.8 8.4 6.1 8.15 Q5.7 8.15 5.4 8.4 5.1 8.6 5.1 8.9 L5.4 9.45 6.1 9.65 6.8 9.45 M11.55 5.1 Q11.3 3.95 11.55 2.7 L9.95 2.7 9.95 5.05 10.75 5.85 11.95 5.5 12.05 5.2 11.55 5.1 M-14.55 -1.35 L-15.95 -1.35 -15.95 1.9 -14.55 1.9 -14.55 -1.35 M-11.15 -3.75 L-10.45 -3.55 Q-10.05 -3.55 -9.75 -3.75 -9.45 -4.0 -9.45 -4.3 L-9.75 -4.8 -10.45 -5.05 -11.15 -4.8 -11.45 -4.3 -11.15 -3.75" fill="#ffffff" fill-rule="evenodd" stroke="none"/>
    <path d="M16.25 -21.3 L-12.55 -20.8 -18.5 -19.8 -19.45 -18.9 -20.25 -17.7 Q-24.45 -9.0 -22.0 0.55 L-21.4 2.4 -21.4 0.4 -21.2 -0.3 Q-20.9 -0.55 -20.55 -0.3 L-20.2 0.1 -19.8 0.85 -20.4 2.9 -14.95 7.4 -13.0 6.75 -12.0 7.85 -7.5 7.85 -7.5 6.75 -5.5 6.75 -5.5 7.85 1.95 7.85 3.45 7.5 3.7 13.4 -22.6 13.4 -22.6 24.9 Q-22.4 26.8 -18.55 26.55 L14.15 24.45 14.7 24.1 15.2 23.6 15.6 23.05 Q19.0 16.95 18.8 9.95 18.65 6.0 17.05 2.25 16.55 2.25 16.45 2.45 16.05 3.2 16.45 4.05 L17.05 4.2 16.8 4.95 16.15 5.0 15.9 4.6 15.5 3.8 16.05 1.7 10.55 -2.75 8.6 -2.15 7.6 -3.25 3.1 -3.25 3.1 -2.15 1.1 -2.15 1.1 -3.25 -6.35 -3.25 -7.8 -2.85 -8.1 -8.75 18.2 -8.75 18.2 -20.3 16.25 -21.3 Z" fill="none" stroke="#10213a" stroke-linecap="butt" stroke-linejoin="miter-clip" stroke-miterlimit="3.0" stroke-width="4.0"/>
  </g>
</svg>
