<?xml version="1.0" encoding="UTF-8" standalone="no"?>
<svg xmlns:xlink="http://www.w3.org/1999/xlink" height="58.2px" width="51.95px" xmlns="http://www.w3.org/2000/svg">
  <g transform="matrix(1.0, 0.0, 0.0, 1.0, 25.2, 23.6)">
    <path d="M2.0 -15.55 Q2.35 -16.1 2.35 -16.8 L1.35 -15.35 2.0 -15.55 M3.7 -19.2 Q4.75 -18.8 5.55 -18.85 L5.35 -19.3 3.35 -20.8 16.75 -20.8 Q24.5 -14.6 22.2 -4.4 L22.7 -3.4 22.0 22.7 Q21.9 24.8 23.85 24.4 L24.35 26.9 Q23.35 26.9 22.7 27.35 22.35 27.65 22.2 28.45 L20.85 30.35 19.65 26.9 17.0 25.8 7.9 25.35 7.85 12.05 4.8 12.05 4.8 13.5 1.8 13.5 -0.2 15.0 -0.65 17.0 -2.2 16.45 -3.15 15.0 -2.2 12.05 -4.65 12.5 -6.15 10.5 -8.1 11.65 -8.1 25.45 -22.95 25.45 Q-22.95 8.15 -23.2 -9.1 -23.25 -13.85 -20.5 -15.8 L-21.5 -12.85 -19.5 -14.35 -20.5 -16.35 -15.05 -20.8 -12.55 -17.8 -11.1 -18.35 Q-11.1 -18.85 -11.25 -18.9 L-12.1 -18.8 -13.05 -20.3 -12.1 -21.3 -7.6 -21.3 -7.6 -19.8 -5.6 -19.8 -5.6 -21.3 1.85 -21.3 3.7 -19.2 M0.1 13.35 L0.8 12.05 -0.2 13.5 0.1 13.35 M7.85 1.85 L7.85 -8.35 -8.1 -8.35 -8.1 1.85 7.85 1.85 M-11.25 -8.55 L-10.55 -8.35 -9.85 -8.55 Q-9.55 -8.8 -9.55 -9.1 L-9.85 -9.6 -10.55 -9.85 -11.25 -9.6 -11.55 -9.1 -11.25 -8.55 M-16.05 -15.35 L-15.55 -12.85 -16.0 -12.5 -14.65 -12.55 Q-13.45 -13.7 -13.55 -15.35 L-16.05 -15.35 M-7.1 -14.85 L-7.1 -16.35 -9.1 -13.85 -7.1 -14.85" fill="#ffffff" fill-rule="evenodd" stroke="none"/>
    <path d="M3.7 -19.2 L1.85 -21.3 -5.6 -21.3 -5.6 -19.8 -7.6 -19.8 -7.6 -21.3 -12.1 -21.3 -13.05 -20.3 -12.1 -18.8 -11.25 -18.9 Q-11.1 -18.85 -11.1 -18.35 L-12.55 -17.8 -15.05 -20.8 -20.5 -16.35 -19.5 -14.35 -21.5 -12.85 -20.5 -15.8 Q-23.25 -13.85 -23.2 -9.1 -22.95 8.15 -22.95 25.45 L-8.1 25.45 -8.1 11.65 -6.15 10.5 -4.65 12.5 -2.2 12.05 -3.15 15.0 -2.2 16.45 -0.65 17.0 -0.2 15.0 1.8 13.5 4.8 13.5 4.8 12.05 7.85 12.05 7.9 25.35 17.0 25.8 19.65 26.9 20.85 30.35 22.2 28.45 Q22.35 27.65 22.7 27.35 23.35 26.9 24.35 26.9 L23.85 24.4 Q21.9 24.8 22.0 22.7 L22.7 -3.4 22.2 -4.4 Q24.5 -14.6 16.75 -20.8 L3.35 -20.8 5.35 -19.3 5.55 -18.85 Q4.75 -18.8 3.7 -19.2 M7.85 1.85 L-8.1 1.85 -8.1 -8.35 7.85 -8.35 7.85 1.85" fill="none" stroke="#10213a" stroke-linecap="butt" stroke-linejoin="miter-clip" stroke-miterlimit="3.0" stroke-width="4.0"/>
  </g>
</svg>
