<?xml version="1.0" encoding="UTF-8" standalone="no"?>
<svg xmlns:xlink="http://www.w3.org/1999/xlink" height="55.7px" width="51.35px" xmlns="http://www.w3.org/2000/svg">
  <g transform="matrix(1.0, 0.0, 0.0, 1.0, 25.0, 23.35)">
    <path d="M5.35 -19.3 Q3.35 -19.55 3.35 -20.8 L3.35 -21.3 16.75 -20.8 Q22.7 -17.3 22.7 -6.4 L22.2 -4.4 22.2 -3.9 22.7 -3.4 22.2 -1.4 22.3 22.75 22.35 22.9 22.3 22.95 22.3 23.85 22.85 24.4 23.85 24.4 24.35 23.9 24.35 26.9 22.35 26.9 Q22.35 29.35 20.85 29.35 L20.85 30.35 20.4 30.35 20.4 26.9 Q16.9 26.9 16.9 25.4 L14.85 25.4 14.9 25.35 7.9 25.35 7.85 12.05 4.8 12.05 4.8 13.5 1.8 13.5 Q1.8 14.5 -0.2 14.5 L-0.2 15.0 0.8 15.0 -0.65 17.0 -2.2 17.0 -2.2 16.45 -3.15 15.0 -2.2 12.05 -3.65 12.05 -4.15 12.5 -4.65 12.5 Q-4.65 10.5 -6.15 10.5 L-6.65 10.5 Q-7.65 11.05 -8.1 11.65 L-8.1 25.45 -22.95 25.45 -23.0 -6.4 Q-23.0 -12.1 -21.5 -15.8 L-20.5 -15.8 -20.5 -13.85 -21.5 -13.85 -21.5 -12.85 -20.5 -12.85 Q-20.5 -14.35 -19.5 -14.35 L-20.5 -16.35 Q-18.2 -20.8 -15.05 -20.8 L-12.55 -17.8 -11.1 -18.35 -11.1 -19.3 -11.55 -19.3 -12.1 -18.8 -13.05 -18.8 -13.05 -20.3 -12.1 -21.3 -7.6 -21.3 -7.6 -19.8 -5.6 -19.8 -5.6 -21.3 1.85 -21.3 Q3.8 -20.3 3.8 -18.35 L5.8 -18.35 5.8 -18.8 5.35 -19.3 M2.35 -16.8 L1.35 -15.8 1.35 -15.35 2.35 -15.35 2.35 -16.8 M0.8 12.05 L-0.2 13.0 -0.2 13.5 0.3 13.5 1.8 12.05 0.8 12.05 M7.8 -8.35 L-7.1 -8.35 -8.1 -7.35 -8.1 1.6 -6.15 1.1 -5.65 1.1 -3.65 2.6 -2.65 2.6 -2.65 1.1 7.85 1.1 7.8 -8.35 M-8.1 -16.35 L-9.1 -14.35 -9.1 -13.85 -8.6 -13.35 -7.1 -14.85 -7.1 -16.35 -8.1 -16.35 M-15.55 -12.85 L-16.55 -12.85 -16.55 -12.35 -16.05 -11.85 Q-14.7 -12.2 -13.55 -14.35 L-13.55 -15.35 -16.05 -15.35 -15.55 -12.85 M-11.55 -8.35 L-9.6 -8.9 -9.6 -9.85 -11.55 -9.85 -11.55 -8.35" fill="#ffffff" fill-rule="evenodd" stroke="none"/>
    <path d="M5.35 -19.3 Q3.35 -19.55 3.35 -20.8 L3.35 -21.3 16.75 -20.8 Q22.7 -17.3 22.7 -6.4 L22.2 -4.4 22.2 -3.9 22.7 -3.4 22.2 -1.4 22.3 22.75 22.35 22.9 22.3 22.95 22.3 23.85 22.85 24.4 23.85 24.4 24.35 23.9 24.35 26.9 22.35 26.9 Q22.35 29.35 20.85 29.35 L20.85 30.35 20.4 30.35 20.4 26.9 Q16.9 26.9 16.9 25.4 L14.85 25.4 14.9 25.35 7.9 25.35 7.85 12.05 4.8 12.05 4.8 13.5 1.8 13.5 Q1.8 14.5 -0.2 14.5 L-0.2 15.0 0.8 15.0 -0.65 17.0 -2.2 17.0 -2.2 16.45 -3.15 15.0 -2.2 12.05 -3.65 12.05 -4.15 12.5 -4.65 12.5 Q-4.65 10.5 -6.15 10.5 L-6.65 10.5 Q-7.65 11.05 -8.1 11.65 L-8.1 25.45 -22.95 25.45 -23.0 -6.4 Q-23.0 -12.1 -21.5 -15.8 L-20.5 -15.8 -20.5 -13.85 -21.5 -13.85 -21.5 -12.85 -20.5 -12.85 Q-20.5 -14.35 -19.5 -14.35 L-20.5 -16.35 Q-18.2 -20.8 -15.05 -20.8 L-12.55 -17.8 -11.1 -18.35 -11.1 -19.3 -11.55 -19.3 -12.1 -18.8 -13.05 -18.8 -13.05 -20.3 -12.1 -21.3 -7.6 -21.3 -7.6 -19.8 -5.6 -19.8 -5.6 -21.3 1.85 -21.3 Q3.8 -20.3 3.8 -18.35 L5.8 -18.35 5.8 -18.8 5.35 -19.3 M7.8 -8.35 L-7.1 -8.35 -8.1 -7.35 -8.1 1.6 -6.15 1.1 -5.65 1.1 -3.65 2.6 -2.65 2.6 -2.65 1.1 7.85 1.1 7.8 -8.35" fill="none" stroke="#10213a" stroke-linecap="butt" stroke-linejoin="miter-clip" stroke-miterlimit="3.0" stroke-width="4.0"/>
  </g>
</svg>
