<?xml version="1.0" encoding="UTF-8" standalone="no"?>
<svg xmlns:xlink="http://www.w3.org/1999/xlink" height="54.9px" width="47.55px" xmlns="http://www.w3.org/2000/svg">
  <g transform="matrix(1.0, 0.0, 0.0, 1.0, 25.0, 22.9)">
    <path d="M16.55 -20.8 L16.05 -19.3 17.05 -16.8 Q17.05 -17.3 17.3 -17.55 L17.6 -17.4 18.0 -17.3 16.55 -15.8 16.55 -14.35 17.55 -12.35 15.05 -7.9 4.9 -8.35 4.9 1.35 2.45 -3.1 2.95 17.15 4.4 16.15 4.9 18.1 3.45 19.15 2.95 21.1 4.4 20.6 4.9 22.9 Q4.9 22.45 5.1 22.3 5.35 22.05 5.85 22.05 L5.6 23.4 5.15 23.55 5.45 23.75 Q5.85 24.0 6.1 23.75 L6.35 23.05 7.35 24.0 7.7 25.5 6.85 26.6 0.8 27.55 -0.75 29.8 -8.4 30.0 -8.9 26.0 -10.9 25.55 -10.9 -8.35 -17.7 -9.35 -18.35 -9.1 Q-18.55 -8.85 -18.35 -8.35 L-22.55 -8.35 -21.65 -15.35 -22.65 -20.8 -15.75 -20.45 -15.7 -19.8 -13.7 -20.8 -11.7 -20.8 -10.9 -19.95 -10.9 -20.9 16.55 -20.8 M7.4 25.55 L5.9 25.05 Q5.9 25.5 6.05 25.5 L7.4 25.55 M4.4 19.6 Q4.4 19.2 4.7 18.9 5.0 18.6 5.4 18.6 5.8 18.6 6.1 18.9 L6.4 19.6 6.1 20.3 Q5.8 20.6 5.4 20.6 L4.7 20.3 Q4.4 20.0 4.4 19.6 M-0.9 24.0 L-2.9 25.0 0.55 24.0 -0.9 24.0 M-12.7 -19.8 L-12.6 -19.35 Q-11.15 -17.15 -11.25 -19.3 L-12.7 -19.8" fill="#ffffff" fill-rule="evenodd" stroke="none"/>
    <path d="M16.55 -20.8 L-10.9 -20.9 -10.9 -19.95 -11.7 -20.8 -13.7 -20.8 -15.7 -19.8 -15.75 -20.45 -22.65 -20.8 -21.65 -15.35 -22.55 -8.35 -18.35 -8.35 Q-18.55 -8.85 -18.35 -9.1 L-17.7 -9.35 -10.9 -8.35 -10.9 25.55 -8.9 26.0 -8.4 30.0 -0.75 29.8 0.8 27.55 6.85 26.6 7.7 25.5 7.35 24.0 6.35 23.05 6.1 23.75 Q5.85 24.0 5.45 23.75 L5.15 23.55 5.6 23.4 5.85 22.05 Q5.35 22.05 5.1 22.3 4.9 22.45 4.9 22.9 L4.4 20.6 2.95 21.1 3.45 19.15 4.9 18.1 4.4 16.15 2.95 17.15 2.45 -3.1 4.9 1.35 4.9 -8.35 15.05 -7.9 17.55 -12.35 16.55 -14.35 16.55 -15.8 18.0 -17.3 17.6 -17.4 17.3 -17.55 Q17.05 -17.3 17.05 -16.8 L16.05 -19.3 16.55 -20.8 Z" fill="none" stroke="#10213a" stroke-linecap="butt" stroke-linejoin="miter-clip" stroke-miterlimit="3.0" stroke-width="4.0"/>
  </g>
</svg>
