<?xml version="1.0" encoding="UTF-8" standalone="no"?>
<svg xmlns:xlink="http://www.w3.org/1999/xlink" height="54.95px" width="45.0px" xmlns="http://www.w3.org/2000/svg">
  <g transform="matrix(1.0, 0.0, 0.0, 1.0, 25.0, 22.9)">
    <path d="M16.05 -19.3 L16.55 -16.8 17.05 -16.8 17.05 -17.8 17.55 -17.3 18.0 -17.3 Q18.0 -15.8 16.55 -15.8 L16.55 -14.35 17.55 -12.85 17.55 -12.35 16.55 -12.35 16.55 -10.85 Q16.55 -9.05 15.05 -7.9 L14.6 -8.35 4.9 -8.35 4.9 1.35 2.95 -3.1 2.45 -3.1 Q3.45 1.7 3.45 11.2 L3.45 14.65 2.95 17.15 4.4 16.15 4.9 18.1 Q2.95 18.65 2.95 21.1 L3.45 20.6 4.4 20.6 Q4.4 21.65 4.9 22.9 L4.9 22.05 5.85 22.05 5.85 23.55 5.15 23.55 5.35 24.0 6.35 24.0 6.35 23.05 7.35 24.0 7.35 24.55 Q8.3 26.6 6.35 26.6 L6.85 27.1 6.85 27.6 0.8 27.55 -0.75 29.8 -8.4 30.0 -8.4 26.55 -9.4 26.55 -8.9 26.0 -8.9 25.55 -10.9 25.55 -10.9 -8.35 -17.7 -8.35 -17.7 -9.35 -18.7 -9.35 -18.35 -8.35 -22.55 -8.35 -22.65 -10.35 Q-22.45 -15.35 -21.65 -15.35 L-22.65 -20.8 -15.7 -20.8 -15.7 -19.8 -15.2 -19.8 -13.7 -20.8 -11.7 -20.8 -10.9 -19.95 -10.9 -20.9 4.9 -20.9 4.9 -20.8 16.55 -20.8 16.05 -19.3 M3.45 -5.1 L3.45 -2.6 4.4 -2.6 3.95 -5.1 3.45 -5.1 M0.55 24.0 L-0.9 24.0 -1.9 25.0 -2.4 24.5 -2.9 25.0 -2.9 25.5 -1.9 25.5 0.55 24.5 0.55 24.0 M4.4 20.1 L4.9 18.65 6.4 18.65 6.4 19.1 5.9 20.6 5.4 20.6 4.9 20.1 4.4 20.1 M7.4 25.55 L5.9 25.05 5.9 25.95 7.4 25.55 M-12.7 -19.3 L-11.7 -18.3 -11.25 -18.3 -11.25 -19.3 -11.7 -19.3 -12.25 -19.8 -12.7 -19.8 -12.7 -19.3 M-11.25 -19.3 L-10.9 -19.3 -10.9 -19.6 -11.25 -19.3" fill="#ffffff" fill-rule="evenodd" stroke="none"/>
    <path d="M16.05 -19.3 L16.55 -16.8 17.05 -16.8 17.05 -17.8 17.55 -17.3 18.0 -17.3 Q18.0 -15.8 16.55 -15.8 L16.55 -14.35 17.55 -12.85 17.55 -12.35 16.55 -12.35 16.55 -10.85 Q16.55 -9.05 15.05 -7.9 L14.6 -8.35 4.9 -8.35 4.9 1.35 2.95 -3.1 2.45 -3.1 Q3.45 1.7 3.45 11.2 L3.45 14.65 2.95 17.15 4.4 16.15 4.9 18.1 Q2.95 18.65 2.95 21.1 L3.45 20.6 4.4 20.6 Q4.4 21.65 4.9 22.9 L4.9 22.05 5.85 22.05 5.85 23.55 5.15 23.55 5.35 24.0 6.35 24.0 6.35 23.05 7.35 24.0 7.35 24.55 Q8.3 26.6 6.35 26.6 L6.85 27.1 6.85 27.6 0.8 27.55 -0.75 29.8 -8.4 30.0 -8.4 26.55 -9.4 26.55 -8.9 26.0 -8.9 25.55 -10.9 25.55 -10.9 -8.35 -17.7 -8.35 -17.7 -9.35 -18.7 -9.35 -18.35 -8.35 -22.55 -8.35 -22.65 -10.35 Q-22.45 -15.35 -21.65 -15.35 L-22.65 -20.8 -15.7 -20.8 -15.7 -19.8 -15.2 -19.8 -13.7 -20.8 -11.7 -20.8 -10.9 -19.95 -10.9 -20.9 4.9 -20.9 4.9 -20.8 16.55 -20.8 16.05 -19.3 Z" fill="none" stroke="#10213a" stroke-linecap="butt" stroke-linejoin="miter-clip" stroke-miterlimit="3.0" stroke-width="4.0"/>
  </g>
</svg>
