<?xml version="1.0" encoding="UTF-8" standalone="no"?>
<svg xmlns:xlink="http://www.w3.org/1999/xlink" height="55.1px" width="44.45px" xmlns="http://www.w3.org/2000/svg">
  <g transform="matrix(1.0, 0.0, 0.0, 1.0, 2.4, -14.8)">
    <path d="M4.95 23.8 L4.95 26.25 5.95 26.25 6.95 25.25 6.95 24.25 4.95 23.8 M8.4 23.8 L9.4 24.75 9.9 24.75 8.9 23.8 8.4 23.8 M8.4 16.8 L10.4 17.3 12.4 16.8 15.85 16.8 15.85 18.3 14.85 18.3 14.85 18.8 15.85 18.8 15.85 36.65 14.85 36.65 15.85 37.65 15.35 41.65 15.85 50.15 18.25 50.55 21.7 50.05 28.15 50.05 32.15 50.55 36.1 50.05 37.6 50.05 38.6 51.0 38.6 54.5 37.6 54.5 37.6 55.0 38.6 55.0 38.6 56.5 38.1 56.95 38.6 57.5 38.6 62.95 7.05 62.95 Q7.05 64.4 3.6 64.4 L3.6 67.9 3.1 67.9 3.1 66.9 Q1.6 66.9 1.6 64.4 L-0.4 64.4 -0.4 61.45 0.1 61.95 1.1 61.95 2.05 60.95 2.0 60.95 2.0 60.85 1.6 60.45 2.0 58.5 1.95 23.8 2.95 23.8 2.95 22.8 2.45 23.25 1.95 23.25 1.95 16.8 8.4 16.8 M12.4 22.25 L13.85 22.25 13.85 20.8 12.4 20.8 12.4 22.25 M10.4 35.2 L8.9 35.2 9.9 36.2 10.4 36.2 10.4 35.2 M7.4 29.2 L6.95 29.2 5.95 30.2 6.4 30.7 6.95 30.7 7.4 30.2 7.4 29.2 M8.9 29.2 L8.9 30.7 10.4 30.7 9.9 29.2 8.9 29.2 M4.95 35.65 L5.45 35.65 6.4 33.7 6.4 32.7 5.95 32.7 4.95 33.7 4.95 35.65 M13.85 45.6 L13.85 48.1 14.85 47.1 14.85 45.6 13.85 45.6 M33.6 54.0 L34.6 53.0 34.6 52.0 32.15 52.0 32.15 52.5 Q33.6 52.5 33.6 54.0 M37.6 56.95 L32.6 56.5 Q32.6 55.0 31.65 55.0 L31.65 57.5 37.6 57.5 37.6 56.95 M9.05 63.95 L9.55 63.95 10.0 67.9 9.05 67.9 9.05 63.95 M42.05 67.9 L39.1 67.9 Q39.1 66.9 40.6 66.9 L42.05 67.4 42.05 67.9" fill="#ffffff" fill-rule="evenodd" stroke="none"/>
    <path d="M8.4 16.8 L10.4 17.3 12.4 16.8 15.85 16.8 15.85 18.3 14.85 18.3 14.85 18.8 15.85 18.8 15.85 36.65 14.85 36.65 15.85 37.65 15.35 41.65 15.85 50.15 18.25 50.55 21.7 50.05 28.15 50.05 32.15 50.55 36.1 50.05 37.6 50.05 38.6 51.0 38.6 54.5 37.6 54.5 37.6 55.0 38.6 55.0 38.6 56.5 38.1 56.95 38.6 57.5 38.6 62.95 7.05 62.95 Q7.05 64.4 3.6 64.4 L3.6 67.9 3.1 67.9 3.1 66.9 Q1.6 66.9 1.6 64.4 L-0.4 64.4 -0.4 61.45 0.1 61.95 1.1 61.95 2.05 60.95 2.0 60.95 2.0 60.85 1.6 60.45 2.0 58.5 1.95 23.8 2.95 23.8 2.95 22.8 2.45 23.25 1.95 23.25 1.95 16.8 8.4 16.8 Z" fill="none" stroke="#10213a" stroke-linecap="butt" stroke-linejoin="miter-clip" stroke-miterlimit="3.0" stroke-width="4.0"/>
  </g>
</svg>
