<?xml version="1.0" encoding="UTF-8" standalone="no"?>
<svg xmlns:xlink="http://www.w3.org/1999/xlink" height="58.6px" width="43.55px" xmlns="http://www.w3.org/2000/svg">
  <g transform="matrix(1.0, 0.0, 0.0, 1.0, 2.7, -14.8)">
    <path d="M6.75 24.2 Q6.4 23.85 5.95 23.85 5.5 23.85 5.2 24.2 4.85 24.5 4.85 25.0 4.85 25.5 5.2 25.85 5.5 26.15 5.95 26.15 L6.75 25.85 7.05 25.0 6.75 24.2 M2.7 23.55 L2.95 22.8 2.7 23.0 1.95 16.8 15.85 16.8 14.85 18.8 14.85 36.65 15.85 37.65 15.85 50.15 37.6 50.05 38.6 51.0 37.6 55.0 38.6 62.95 7.0 63.35 3.6 64.4 3.35 67.4 3.1 66.9 1.65 65.05 -0.4 64.4 0.1 61.95 2.0 60.95 1.95 23.8 2.7 23.55 M33.55 53.7 L34.6 53.0 Q34.15 50.3 32.15 52.5 L33.55 53.4 33.55 53.7 M32.1 55.1 L31.85 55.0 31.65 57.5 37.6 56.95 32.65 56.25 32.5 55.9 32.4 55.4 32.1 55.1 M13.85 45.6 L13.85 48.1 14.85 47.1 Q14.85 46.35 14.5 45.85 14.35 45.6 13.85 45.6 M8.9 35.2 Q9.4 35.7 9.9 35.7 L10.4 35.2 8.9 35.2 M4.95 33.7 L4.95 35.65 6.4 32.7 4.95 33.7 M6.35 30.2 Q8.2 30.25 6.95 29.2 L5.95 30.2 Q6.15 30.45 6.35 30.2 M10.2 30.5 L10.4 29.95 10.2 29.45 9.65 29.2 Q9.35 29.2 9.15 29.45 L8.9 29.95 9.15 30.5 Q9.35 30.7 9.65 30.7 L10.2 30.5 M13.85 20.8 L12.4 20.8 12.4 22.25 13.85 22.25 13.85 20.8" fill="#ffffff" fill-rule="evenodd" stroke="none"/>
    <path d="M2.7 23.55 L1.95 23.8 2.0 60.95 0.1 61.95 -0.4 64.4 1.65 65.05 3.1 66.9 3.35 67.4 3.6 64.4 7.0 63.35 38.6 62.95 37.6 55.0 38.6 51.0 37.6 50.05 15.85 50.15 15.85 37.65 14.85 36.65 14.85 18.8 15.85 16.8 1.95 16.8 2.7 23.0 2.95 22.8 2.7 23.55 Z" fill="none" stroke="#10213a" stroke-linecap="butt" stroke-linejoin="miter-clip" stroke-miterlimit="3.0" stroke-width="4.0"/>
  </g>
</svg>
