<?xml version="1.0" encoding="UTF-8" standalone="no"?>
<svg xmlns:xlink="http://www.w3.org/1999/xlink" height="55.95px" width="45.65px" xmlns="http://www.w3.org/2000/svg">
  <g transform="matrix(1.0, 0.0, 0.0, 1.0, 13.2, 22.8)">
    <path d="M-3.9 25.85 L-4.45 25.35 -10.85 25.35 -10.4 17.4 -10.85 9.0 -10.4 -1.45 -10.85 -10.35 Q-10.7 -15.35 -9.85 -15.35 L-10.85 -20.8 -3.9 -20.8 -3.9 -19.8 -3.45 -19.8 -1.95 -20.8 0.05 -20.8 1.05 -19.8 0.55 -19.3 1.05 -19.3 4.0 -18.3 4.5 -18.3 Q4.5 -20.8 7.0 -20.8 L28.3 -20.8 27.85 -19.3 28.3 -16.8 28.85 -16.8 28.85 -17.8 29.3 -17.3 29.8 -17.3 Q29.8 -15.8 28.3 -15.8 L28.3 -14.35 29.3 -12.85 29.3 -12.35 28.3 -12.35 28.3 -10.85 Q28.3 -9.05 26.85 -7.9 L26.35 -8.35 12.95 -8.35 12.45 -8.85 Q10.5 -7.9 7.0 -7.9 L6.5 -7.9 4.0 -8.35 4.0 -3.4 5.5 -3.4 7.5 -2.95 9.45 -3.4 10.0 -3.4 11.95 -1.95 12.95 -1.95 12.95 -3.4 24.85 -3.4 Q25.85 -3.4 25.85 -0.45 28.3 -0.45 28.3 3.5 L27.85 7.5 20.4 7.5 20.4 9.0 17.4 9.0 Q17.4 10.0 15.45 10.0 L15.45 10.5 16.4 10.5 14.95 12.5 17.9 12.95 20.4 12.5 22.85 12.5 Q23.6 12.5 24.35 14.45 L24.85 14.95 25.35 14.95 25.35 12.5 27.85 12.5 27.85 25.35 Q29.1 25.35 30.3 27.35 L29.8 28.85 28.85 28.85 28.85 28.35 29.3 27.85 29.3 27.35 24.35 25.35 22.85 25.35 23.35 25.85 23.35 26.35 22.4 27.35 21.85 25.35 16.9 25.35 13.95 28.35 13.95 26.35 14.45 25.85 14.45 25.35 2.0 25.35 1.55 29.35 -0.45 29.35 Q-0.45 28.35 1.05 28.35 L1.05 25.35 -0.95 25.85 -3.9 25.35 -3.9 25.85 -2.95 26.85 -2.95 27.35 -3.9 27.35 -3.9 25.85 M-6.9 -9.35 L-6.4 -7.9 -5.9 -7.9 -5.9 -9.35 -6.9 -9.35 M-8.85 -5.4 L-8.85 -3.95 -7.9 -4.9 -7.9 -5.4 -8.85 -5.4 M10.95 8.0 Q10.95 6.0 9.45 6.0 L9.0 6.0 Q7.0 7.05 7.0 8.5 L6.0 8.5 6.0 7.5 4.0 7.5 4.0 12.5 7.5 12.95 Q9.45 12.2 9.45 11.5 L8.45 10.0 9.45 9.0 10.0 9.0 Q10.0 11.5 10.95 11.5 L11.45 11.5 10.95 11.95 10.95 12.5 13.45 12.5 13.45 11.95 12.45 10.5 13.45 7.5 11.95 7.5 11.45 8.0 10.95 8.0 M15.45 8.5 L15.45 9.0 15.9 9.0 17.4 7.5 16.4 7.5 15.45 8.5 M0.05 28.35 L-0.45 28.35 -0.95 27.85 -1.45 27.85 -0.95 26.35 0.05 26.35 0.55 27.85 0.05 28.35 M25.85 26.85 L27.3 27.35 27.3 27.85 26.35 28.85 24.35 27.85 24.35 26.85 24.85 27.35 25.35 27.35 25.85 26.85 M-9.85 24.35 L-8.85 24.35 -8.85 23.9 -9.85 22.9 -9.85 24.35 M-7.9 17.9 L-7.9 15.95 -8.4 15.95 -8.4 17.9 -7.9 17.9" fill="#ffffff" fill-rule="evenodd" stroke="none"/>
    <path d="M-3.9 25.85 L-4.45 25.35 -10.85 25.35 -10.4 17.4 -10.85 9.0 -10.4 -1.45 -10.85 -10.35 Q-10.7 -15.35 -9.85 -15.35 L-10.85 -20.8 -3.9 -20.8 -3.9 -19.8 -3.45 -19.8 -1.95 -20.8 0.05 -20.8 1.05 -19.8 0.55 -19.3 1.05 -19.3 4.0 -18.3 4.5 -18.3 Q4.5 -20.8 7.0 -20.8 L28.3 -20.8 27.85 -19.3 28.3 -16.8 28.85 -16.8 28.85 -17.8 29.3 -17.3 29.8 -17.3 Q29.8 -15.8 28.3 -15.8 L28.3 -14.35 29.3 -12.85 29.3 -12.35 28.3 -12.35 28.3 -10.85 Q28.3 -9.05 26.85 -7.9 L26.35 -8.35 12.95 -8.35 12.45 -8.85 Q10.5 -7.9 7.0 -7.9 L6.5 -7.9 4.0 -8.35 4.0 -3.4 5.5 -3.4 7.5 -2.95 9.45 -3.4 10.0 -3.4 11.95 -1.95 12.95 -1.95 12.95 -3.4 24.85 -3.4 Q25.85 -3.4 25.85 -0.45 28.3 -0.45 28.3 3.5 L27.85 7.5 20.4 7.5 20.4 9.0 17.4 9.0 Q17.4 10.0 15.45 10.0 L15.45 10.5 16.4 10.5 14.95 12.5 17.9 12.95 20.4 12.5 22.85 12.5 Q23.6 12.5 24.35 14.45 L24.85 14.95 25.35 14.95 25.35 12.5 27.85 12.5 27.85 25.35 Q29.1 25.35 30.3 27.35 L29.8 28.85 28.85 28.85 28.85 28.35 29.3 27.85 29.3 27.35 24.35 25.35 22.85 25.35 23.35 25.85 23.35 26.35 22.4 27.35 21.85 25.35 16.9 25.35 13.95 28.35 13.95 26.35 14.45 25.85 14.45 25.35 2.0 25.35 1.55 29.35 -0.45 29.35 Q-0.45 28.35 1.05 28.35 L1.05 25.35 -0.95 25.85 -3.9 25.35 -3.9 25.85 M10.95 8.0 Q10.95 6.0 9.45 6.0 L9.0 6.0 Q7.0 7.05 7.0 8.5 L6.0 8.5 6.0 7.5 4.0 7.5 4.0 12.5 7.5 12.95 Q9.45 12.2 9.45 11.5 L8.45 10.0 9.45 9.0 10.0 9.0 Q10.0 11.5 10.95 11.5 L11.45 11.5 10.95 11.95 10.95 12.5 13.45 12.5 13.45 11.95 12.45 10.5 13.45 7.5 11.95 7.5 11.45 8.0 10.95 8.0" fill="none" stroke="#10213a" stroke-linecap="butt" stroke-linejoin="miter-clip" stroke-miterlimit="3.0" stroke-width="4.0"/>
  </g>
</svg>
