<?xml version="1.0" encoding="UTF-8" standalone="no"?>
<svg xmlns:xlink="http://www.w3.org/1999/xlink" height="56.75px" width="47.85px" xmlns="http://www.w3.org/2000/svg">
  <g transform="matrix(1.0, 0.0, 0.0, 1.0, 13.25, 23.05)">
    <path d="M0.5 27.0 L1.05 25.35 -3.9 25.85 -10.85 25.35 -9.85 -15.35 -10.85 -20.8 -3.9 -19.8 -1.95 -20.8 0.05 -20.8 0.75 -19.7 0.55 -19.3 4.5 -18.3 5.15 -20.15 28.3 -20.8 28.85 -16.8 29.05 -17.55 29.35 -17.4 29.8 -17.3 28.3 -15.8 28.3 -14.35 29.3 -12.35 26.85 -7.9 4.0 -8.35 4.0 -3.4 10.0 -3.4 12.95 -1.95 12.95 -3.4 25.3 -3.2 25.85 -0.45 27.4 0.15 27.85 7.5 20.4 7.5 20.4 9.0 17.4 9.0 15.45 10.5 15.9 10.5 Q15.65 11.5 14.95 12.5 L23.25 12.65 24.85 14.95 25.35 12.5 27.85 12.5 28.5 25.5 30.3 27.35 29.55 28.6 28.95 28.7 28.85 28.35 29.05 28.1 Q26.8 26.6 24.25 25.65 L23.35 25.85 22.4 27.35 21.85 25.35 16.9 25.35 13.95 28.35 14.45 25.35 2.0 25.35 1.55 29.35 -0.35 29.1 -0.3 29.0 -0.05 28.6 0.1 28.2 0.5 27.0 0.1 28.2 -0.45 28.35 -1.15 28.05 -1.45 27.35 -1.15 26.65 Q-0.85 26.35 -0.45 26.35 -0.05 26.35 0.25 26.65 L0.5 27.0 M-8.55 -5.2 L-8.85 -3.95 -7.9 -5.4 -8.55 -5.2 M-6.9 -9.35 L-6.4 -7.9 -6.15 -7.9 -6.9 -9.35 M11.45 11.5 L11.05 12.05 10.95 12.2 13.45 11.95 12.45 10.5 13.45 7.5 11.45 8.0 9.45 6.0 7.5 7.2 7.05 7.75 6.0 8.5 4.0 7.5 4.0 12.5 9.0 12.25 8.45 10.0 10.0 9.0 11.45 11.5 M-3.55 27.15 Q-3.9 26.6 -3.9 25.85 L-2.95 27.35 -3.55 27.15 M-7.9 17.9 L-7.9 15.95 -8.4 15.95 -8.4 17.9 -7.9 17.9 M25.85 26.85 L26.9 27.15 27.35 27.85 26.9 28.55 25.85 28.85 Q25.25 28.85 24.8 28.55 24.35 28.25 24.35 27.85 24.35 27.45 24.8 27.15 25.25 26.85 25.85 26.85 M16.4 7.5 L15.45 9.0 Q18.55 7.75 16.4 7.5" fill="#ffffff" fill-rule="evenodd" stroke="none"/>
    <path d="M0.1 28.2 L-0.05 28.6 -0.3 29.0 -0.35 29.1 1.55 29.35 2.0 25.35 14.45 25.35 13.95 28.35 16.9 25.35 21.85 25.35 22.4 27.35 23.35 25.85 24.25 25.65 Q26.8 26.6 29.05 28.1 L28.85 28.35 28.95 28.7 29.55 28.6 30.3 27.35 28.5 25.5 27.85 12.5 25.35 12.5 24.85 14.95 23.25 12.65 14.95 12.5 Q15.65 11.5 15.9 10.5 L15.45 10.5 17.4 9.0 20.4 9.0 20.4 7.5 27.85 7.5 27.4 0.15 25.85 -0.45 25.3 -3.2 12.95 -3.4 12.95 -1.95 10.0 -3.4 4.0 -3.4 4.0 -8.35 26.85 -7.9 29.3 -12.35 28.3 -14.35 28.3 -15.8 29.8 -17.3 29.35 -17.4 29.05 -17.55 28.85 -16.8 28.3 -20.8 5.15 -20.15 4.5 -18.3 0.55 -19.3 0.75 -19.7 0.05 -20.8 -1.95 -20.8 -3.9 -19.8 -10.85 -20.8 -9.85 -15.35 -10.85 25.35 -3.9 25.85 1.05 25.35 0.5 27.0 0.1 28.2 M11.45 11.5 L10.0 9.0 8.45 10.0 9.0 12.25 4.0 12.5 4.0 7.5 6.0 8.5 7.05 7.75 7.5 7.2 9.45 6.0 11.45 8.0 13.45 7.5 12.45 10.5 13.45 11.95 10.95 12.2 11.05 12.05 11.45 11.5" fill="none" stroke="#10213a" stroke-linecap="butt" stroke-linejoin="miter-clip" stroke-miterlimit="3.0" stroke-width="4.0"/>
  </g>
</svg>
