<?xml version="1.0" encoding="UTF-8" standalone="no"?>
<svg xmlns:xlink="http://www.w3.org/1999/xlink" height="73.7px" width="69.35px" xmlns="http://www.w3.org/2000/svg">
  <g transform="matrix(1.0, 0.0, 0.0, 1.0, 26.95, 17.55)">
    <path d="M16.1 -16.7 Q18.25 -16.65 22.75 -14.7 L33.2 -9.55 Q36.25 -8.0 37.2 -7.15 39.05 -5.5 40.1 -2.25 42.4 5.0 42.4 28.55 42.4 30.0 39.8 35.0 36.8 40.8 34.0 42.7 L29.05 46.05 Q26.5 47.55 19.8 50.3 11.15 53.9 5.4 55.25 L-1.65 56.15 Q-6.9 56.15 -11.15 53.8 -14.9 51.7 -16.85 48.4 -18.1 46.35 -19.5 45.05 -20.25 44.35 -20.4 43.1 L-20.6 39.95 Q-20.75 38.3 -22.1 35.15 L-23.55 32.0 Q-24.5 29.45 -25.6 22.6 -26.95 14.25 -26.95 7.75 -26.95 -2.3 -16.8 -10.3 -7.55 -17.55 1.5 -17.55 L16.1 -16.7" fill="#5ad9fe" fill-rule="evenodd" stroke="none"/>
    <path d="M27.9 -1.35 Q35.9 6.65 35.9 17.95 35.9 29.25 27.9 37.25 19.9 45.25 8.6 45.25 -2.7 45.25 -10.7 37.25 -18.7 29.25 -18.7 17.95 -18.7 6.65 -10.7 -1.35 -2.7 -9.35 8.6 -9.35 19.9 -9.35 27.9 -1.35" fill="#ffffff" fill-rule="evenodd" stroke="none"/>
  </g>
</svg>
