<?xml version="1.0" encoding="UTF-8" standalone="no"?>
<svg xmlns:xlink="http://www.w3.org/1999/xlink" height="89.2px" width="175.0px" xmlns="http://www.w3.org/2000/svg">
  <g transform="matrix(1.0, 0.0, 0.0, 1.0, 85.05, 24.25)">
    <path d="M15.1 -24.25 L29.9 -23.25 Q35.65 -22.45 38.7 -21.45 L41.35 -20.15 43.35 -19.1 47.3 -18.4 Q50.25 -17.95 53.65 -16.7 59.65 -15.75 72.9 -7.85 85.9 -0.1 85.8 2.1 85.8 2.8 84.35 5.4 82.9 7.95 82.9 9.65 82.9 11.95 85.8 18.3 88.5 24.2 89.95 25.95 L88.75 27.3 87.65 27.55 Q83.25 29.35 65.9 40.7 L48.8 51.75 Q37.25 59.7 32.3 63.5 31.3 64.25 29.2 64.7 L26.95 64.95 27.7 63.9 28.0 62.7 Q28.0 59.9 15.1 56.1 -0.3 51.6 -20.05 51.6 L-22.65 51.65 -26.1 51.1 Q-30.65 49.35 -41.8 46.1 L-52.1 43.15 Q-58.25 40.5 -64.85 39.25 L-70.9 38.05 Q-68.65 37.2 -67.75 36.15 L-68.65 34.9 -68.9 34.2 Q-68.55 30.05 -68.7 28.55 -69.0 26.3 -71.85 22.5 -75.1 18.15 -79.1 14.35 -83.05 10.6 -85.05 9.95 -83.95 8.1 -78.65 6.2 -72.2 3.95 -69.6 2.0 -56.3 -7.95 -46.2 -15.8 L-40.65 -19.9 -38.05 -19.7 Q-35.85 -19.55 -34.0 -19.75 L-22.85 -21.25 -11.6 -22.5 4.2 -23.6 15.1 -24.25" fill="#5ad9fe" fill-rule="evenodd" stroke="none"/>
  </g>
</svg>
