<?xml version="1.0" encoding="UTF-8" standalone="no"?>
<svg xmlns:xlink="http://www.w3.org/1999/xlink" height="103.45px" width="360.35px" xmlns="http://www.w3.org/2000/svg">
  <g transform="matrix(1.0, 0.0, 0.0, 1.0, 167.1, 45.0)">
    <path d="M8.95 -27.3 L15.35 -28.15 Q18.8 -28.15 19.75 -27.4 20.35 -26.9 21.15 -25.2 24.25 -20.95 40.9 -16.8 L59.1 -13.85 65.35 -11.85 Q70.8 -10.55 82.05 -10.55 L84.85 -10.95 Q87.45 -11.45 88.9 -12.15 L111.7 -23.25 127.55 -31.4 144.35 -40.75 Q145.9 -41.6 149.95 -45.0 149.7 -43.55 146.2 -35.75 142.9 -28.4 142.9 -26.7 142.9 -24.35 144.6 -22.95 146.15 -21.65 150.15 -20.45 155.3 -18.8 175.7 -13.3 L180.4 -12.55 Q184.05 -11.9 185.4 -10.4 L186.95 -8.0 Q190.45 -4.55 191.9 -0.75 193.85 4.25 192.95 10.95 L187.9 9.6 Q184.3 8.7 181.1 8.7 178.2 8.7 177.0 10.4 174.5 13.95 171.6 16.25 169.05 18.3 166.7 18.9 L159.9 19.6 Q149.85 20.2 139.85 22.2 L130.45 23.8 Q124.95 23.3 122.35 25.3 121.35 26.05 119.8 28.9 118.85 30.65 115.05 32.7 111.9 34.35 109.7 34.9 105.6 35.9 96.45 41.05 89.25 45.05 83.15 49.15 L83.55 50.95 83.95 52.95 78.9 51.65 74.4 52.1 70.45 52.9 61.75 54.7 46.9 57.8 41.95 58.45 Q40.45 57.5 36.3 56.4 28.0 54.2 10.1 53.5 L-33.6 50.75 -52.05 49.6 -67.05 49.95 Q-66.8 48.3 -68.25 47.45 -69.3 46.85 -70.75 46.85 L-73.0 47.1 Q-79.8 48.75 -85.2 50.4 -89.35 51.7 -93.1 53.2 L-96.05 54.45 -104.45 52.8 Q-113.25 51.25 -115.8 51.8 -113.25 50.55 -112.15 48.2 -111.5 46.7 -111.5 45.15 -111.5 42.45 -114.05 39.4 -117.0 35.95 -122.05 33.95 -129.7 30.9 -134.7 30.3 -139.1 29.8 -141.95 28.45 -151.0 24.15 -157.35 23.1 -161.25 22.45 -167.1 22.9 -165.0 22.2 -160.85 16.1 -160.85 13.95 -147.5 2.3 -132.75 -10.6 -131.2 -12.8 -130.0 -14.5 -128.95 -20.05 -128.05 -24.75 -126.15 -25.85 -126.7 -22.75 -125.9 -21.6 -125.3 -20.7 -120.65 -17.15 L-113.45 -11.0 Q-110.85 -8.75 -108.0 -8.1 -104.1 -7.15 -71.05 -7.15 L-63.95 -7.35 -56.25 -7.75 -54.7 -8.45 -52.15 -10.0 Q-49.3 -11.6 -41.85 -13.15 L-30.6 -15.65 -22.45 -17.9 Q-16.1 -19.65 -8.15 -22.3 3.05 -26.0 8.95 -27.3 M133.85 -6.3 L125.95 -8.4 Q122.35 -9.55 117.15 -3.0 111.6 4.0 107.95 3.95 110.6 5.1 113.9 7.85 L116.75 10.35 Q118.05 10.35 121.7 9.35 L127.4 7.9 130.55 6.75 Q133.5 5.65 134.95 5.6 138.95 5.45 138.95 4.1 L138.7 2.95 137.95 1.95 143.95 1.7 143.4 -2.2 Q142.9 -3.2 139.5 -4.8 L133.85 -6.3 M-95.85 4.85 Q-103.7 4.85 -118.75 7.2 -123.65 7.95 -123.65 12.3 -123.65 12.95 -122.85 13.65 L-119.75 15.85 Q-115.6 18.8 -110.2 23.1 -107.95 24.9 -104.55 24.9 -100.4 24.9 -98.0 23.7 -98.05 23.4 -99.0 23.2 -99.7 23.05 -100.2 20.5 -101.35 18.05 -101.35 17.05 -101.35 14.75 -97.5 11.4 -92.35 6.95 -91.05 4.95 L-95.85 4.85" fill="#5ad9fe" fill-rule="evenodd" stroke="none"/>
    <path d="M83.8 -0.5 Q113.9 7.35 113.9 18.4 113.9 22.35 108.5 26.65 102.35 31.55 90.9 35.45 62.0 45.25 11.15 45.25 -35.4 45.25 -65.1 36.45 -77.95 32.65 -84.95 27.8 -91.7 23.1 -91.7 18.4 -91.7 14.6 -86.25 10.3 -80.0 5.45 -68.55 1.55 -39.4 -8.35 11.1 -8.35 53.7 -8.35 83.8 -0.5" fill="#ffffff" fill-rule="evenodd" stroke="none"/>
    <path d="M-133.55 -1.0 L-125.15 -10.75 Q-121.75 -10.75 -121.15 -9.65 -120.1 -7.85 -118.5 -7.1 L-113.8 -4.15 Q-109.6 -1.7 -106.55 -1.7 L-96.5 -2.2 -85.15 -2.75 Q-79.85 -2.75 -72.85 -1.45 L-64.6 0.25 Q-56.0 4.7 -55.65 5.1 -56.25 5.7 -59.5 6.15 L-63.75 6.75 Q-64.4 6.95 -67.9 8.95 -70.4 10.35 -72.8 10.35 -75.1 10.35 -75.6 8.95 -76.45 6.65 -77.15 6.0 -78.35 4.9 -80.3 4.15 -81.9 3.55 -85.4 2.7 L-91.6 1.2 Q-97.3 0.0 -100.9 0.0 L-105.15 0.6 -116.95 1.35 Q-123.75 1.5 -126.55 4.3 -128.4 6.1 -128.4 8.85 -128.4 12.5 -126.7 15.45 -125.15 18.1 -121.75 20.8 -119.4 22.65 -113.9 25.95 -106.25 30.6 -103.7 30.6 -90.85 30.6 -85.8 27.75 L-82.7 25.45 Q-81.1 24.2 -79.4 23.75 L-79.15 24.15 -79.25 25.7 -76.15 25.4 -72.1 25.25 Q-67.15 25.9 -67.15 32.35 -67.15 33.0 -67.4 33.45 L-67.9 34.2 -67.15 33.95 Q-66.1 33.5 -62.7 30.7 -59.55 28.1 -56.65 27.1 L-56.8 27.5 Q-62.3 35.35 -63.9 35.35 L-66.2 35.0 Q-67.9 34.7 -68.4 35.0 L-69.7 36.2 -71.0 37.35 -72.75 38.0 Q-73.85 38.35 -74.15 38.65 -79.15 43.05 -83.5 44.85 -87.7 46.6 -93.15 46.6 L-99.65 46.35 Q-101.8 37.35 -109.5 33.0 -118.5 29.4 -122.0 27.0 -124.7 25.15 -127.0 24.0 L-134.25 20.55 Q-137.1 19.2 -142.85 18.65 -148.15 18.2 -148.9 17.6 L-133.55 -1.0 M68.35 -2.85 L66.35 -3.75 66.35 -5.25 Q67.85 -4.6 68.85 -3.75 L80.85 -3.75 Q91.2 -5.6 100.95 -8.85 109.65 -11.8 113.8 -14.4 L117.85 -16.9 120.8 -19.05 128.0 -24.3 133.1 -27.35 Q136.15 -29.05 135.25 -27.6 L134.7 -24.4 Q134.1 -21.6 134.1 -20.15 134.1 -17.4 137.05 -15.45 140.85 -12.9 148.35 -13.0 159.85 -13.2 170.55 -6.8 174.5 -4.45 177.2 -1.85 179.6 0.45 179.6 1.5 179.6 2.5 178.85 3.35 176.85 2.7 175.65 3.0 174.55 3.25 173.35 4.55 171.05 7.05 169.35 7.85 167.1 8.9 162.2 9.2 150.75 9.95 133.45 15.5 117.0 20.8 113.1 24.35 L109.45 19.7 Q108.5 18.65 107.6 18.65 L105.55 18.95 102.35 19.1 103.35 19.1 103.35 17.3 Q112.2 16.45 119.45 14.15 125.3 12.35 127.85 12.5 134.4 12.85 144.55 8.4 154.6 3.95 154.6 0.75 154.6 -3.2 152.45 -5.9 150.5 -8.4 146.35 -10.2 133.4 -16.0 125.1 -16.0 121.6 -16.0 120.8 -15.25 119.4 -13.25 116.85 -10.85 L111.2 -5.5 Q106.7 -1.8 102.35 1.2 94.6 6.6 91.85 6.6 91.2 6.6 88.05 3.15 84.85 -0.35 83.75 -0.55 L79.65 -0.55 Q76.55 -0.55 75.4 -1.15 L75.85 -2.0 68.35 -2.85" fill="#ffffff" fill-rule="evenodd" stroke="none"/>
  </g>
</svg>
