<?xml version="1.0" encoding="UTF-8" standalone="no"?>
<svg xmlns:xlink="http://www.w3.org/1999/xlink" height="104.0px" width="551.15px" xmlns="http://www.w3.org/2000/svg">
  <g transform="matrix(1.0, 0.0, 0.0, 1.0, 239.0, 43.05)">
    <path d="M13.0 -33.1 L13.05 -32.95 Q12.95 -28.85 14.25 -27.05 15.9 -24.8 20.9 -23.6 L23.6 -20.55 Q26.3 -17.4 28.55 -16.6 36.25 -13.95 43.05 -11.05 45.0 -10.2 53.05 -8.1 L62.9 -5.8 89.25 -1.9 Q90.7 -1.9 92.1 -2.95 93.25 -3.8 93.55 -4.55 L94.3 -7.65 Q94.5 -8.45 97.65 -11.15 103.55 -16.15 109.45 -21.6 112.85 -24.5 114.95 -24.5 L119.85 -23.1 125.05 -22.4 129.9 -21.8 Q134.2 -20.8 135.75 -19.95 137.55 -18.95 139.7 -16.25 140.65 -15.05 141.4 -11.8 141.9 -9.65 143.85 -9.45 L146.75 -8.9 148.55 -7.5 Q149.45 -6.8 150.0 -6.8 151.4 -6.8 154.5 -8.35 157.65 -9.95 159.4 -11.55 163.9 -15.7 165.8 -16.35 168.55 -17.25 180.2 -26.7 182.25 -28.4 192.1 -31.6 L202.8 -35.15 Q212.45 -39.9 224.85 -41.85 232.25 -43.05 238.95 -43.05 243.0 -43.05 245.55 -41.25 L248.0 -39.35 Q248.0 -38.9 251.0 -38.6 L254.0 -38.45 261.95 -38.0 Q249.8 -31.7 240.35 -20.5 236.6 -16.05 229.0 -4.35 226.3 -0.15 225.45 3.75 L224.6 7.9 229.7 8.85 233.15 9.35 Q234.4 9.35 235.1 8.65 235.75 7.95 236.95 7.95 L265.2 8.45 312.15 8.95 Q308.05 10.55 305.4 14.2 L302.45 18.05 Q301.5 19.05 300.6 19.05 299.95 19.05 298.0 17.8 L295.9 16.4 Q294.85 15.55 292.35 15.15 L289.85 14.95 287.45 15.4 281.0 16.25 Q279.85 16.35 278.25 17.1 277.6 17.5 276.9 17.85 L251.05 18.3 Q225.95 18.85 222.95 19.95 217.9 32.65 213.75 39.25 211.05 43.55 209.75 44.05 L207.05 44.35 Q204.95 44.4 203.9 44.8 199.15 46.55 194.95 48.8 L191.5 50.65 189.3 50.55 189.3 48.5 189.1 45.8 187.7 43.4 Q186.55 41.75 186.55 40.4 L187.0 34.8 187.85 27.5 Q187.85 24.8 187.3 23.55 186.95 22.75 186.05 22.1 L182.25 21.85 175.0 21.5 169.6 20.8 166.25 20.25 Q163.0 20.25 155.95 21.95 158.0 25.55 161.95 26.65 L166.9 28.0 Q170.95 29.0 173.65 29.0 L175.95 28.95 Q175.4 32.15 169.25 35.8 162.25 39.9 161.9 40.4 153.85 51.8 146.2 51.8 144.15 51.8 142.5 48.0 141.6 45.95 137.4 44.3 133.4 42.75 129.75 42.75 L123.7 43.2 Q119.7 43.75 116.9 44.75 111.2 46.85 102.1 48.05 L86.9 49.95 86.8 48.7 87.15 46.35 87.2 44.25 86.15 42.75 85.5 42.2 Q82.5 37.7 81.2 36.5 76.8 32.35 70.2 32.35 67.55 32.35 54.85 35.1 40.05 38.3 28.75 41.85 12.05 46.35 7.85 48.4 2.45 51.05 -3.05 60.95 -2.9 58.05 -3.15 54.85 -3.6 48.55 -5.3 47.25 L-14.0 40.9 Q-17.1 38.55 -22.95 37.1 -29.75 35.45 -39.05 35.45 -42.6 37.15 -45.45 40.25 -46.0 40.85 -49.15 42.35 -52.8 44.1 -55.05 44.45 -59.0 45.05 -63.95 46.5 L-76.05 49.95 Q-75.15 48.15 -75.15 47.1 -75.15 45.35 -77.75 43.4 L-78.5 42.25 Q-78.95 41.15 -79.7 40.2 -83.95 34.8 -85.85 34.55 -88.3 34.25 -93.5 28.95 -95.4 27.05 -98.55 26.45 L-110.4 24.15 -125.1 22.1 -129.6 20.95 -132.1 20.1 -137.85 19.5 -143.9 19.05 Q-146.45 19.05 -147.9 20.05 L-153.15 23.95 -158.8 27.5 -164.05 30.95 Q-165.1 30.05 -167.8 29.25 -170.25 28.5 -171.55 28.5 -194.0 28.85 -205.0 28.5 L-213.45 27.2 -219.4 25.95 -222.25 26.25 -226.0 26.95 -225.0 25.95 -224.4 25.6 Q-224.15 25.35 -224.15 24.75 -224.15 21.5 -239.0 19.95 -231.75 18.85 -219.85 13.9 -210.8 10.15 -209.0 8.95 L-209.4 9.5 -209.7 9.7 -209.8 10.35 Q-209.8 10.95 -209.6 10.95 L-208.7 10.8 Q-204.5 9.6 -196.05 2.9 -186.15 -4.95 -186.15 -10.05 -186.15 -13.35 -188.85 -18.75 -191.75 -24.35 -195.05 -26.85 L-188.85 -26.2 -184.55 -25.95 -167.7 -27.85 Q-153.2 -29.8 -146.05 -30.0 L-148.0 -29.15 -150.0 -28.5 -150.05 -28.0 Q-148.65 -27.0 -147.8 -23.6 -147.0 -20.45 -144.35 -19.1 -131.95 -12.7 -128.6 -12.7 -126.95 -12.7 -121.05 -13.8 L-114.05 -14.95 -106.9 -14.75 -98.9 -14.2 Q-96.35 -13.7 -93.05 -11.0 L-98.05 -8.0 -93.65 -0.6 Q-90.35 3.85 -86.0 3.85 L-83.95 3.5 -81.15 3.35 -77.75 3.95 -75.1 4.35 Q-68.95 4.35 -62.55 1.95 -55.55 -0.65 -50.05 -1.05 -43.8 -1.5 -30.85 -6.2 -17.95 -10.85 -17.0 -10.9 -13.75 -11.1 -9.8 -14.45 -7.5 -16.35 -2.55 -21.7 7.3 -32.35 13.0 -33.1 M118.55 -7.15 Q117.95 -7.15 116.65 -5.4 114.55 -2.6 112.95 2.95 L126.5 5.85 132.2 6.95 133.8 6.95 Q138.2 6.95 140.6 5.35 142.25 4.25 142.25 3.35 L142.1 3.15 Q141.75 2.95 140.85 1.05 140.6 0.35 130.8 -2.2 122.7 -4.3 120.5 -6.0 119.0 -7.15 118.55 -7.15 M219.6 -17.35 Q222.55 -23.35 223.95 -25.0 L221.8 -25.1 Q217.45 -25.1 208.5 -21.35 195.75 -15.7 186.05 -11.8 170.2 -5.4 160.3 7.45 L170.25 6.95 Q171.6 9.9 175.0 11.2 176.95 11.2 176.9 10.2 176.55 8.8 176.55 8.05 176.7 4.85 188.1 4.85 L190.95 4.95 Q190.95 5.95 189.95 7.95 L211.5 7.35 213.9 6.9 Q214.1 6.7 214.1 5.7 L213.7 3.75 213.25 1.8 Q214.9 -7.2 216.65 -11.1 L219.6 -17.35 M-168.7 -5.5 Q-167.95 -3.7 -167.95 -3.35 -167.95 -2.0 -170.4 -0.05 -174.25 2.95 -176.0 4.95 L-150.25 5.75 -139.05 6.95 -137.4 6.95 Q-138.45 5.3 -141.05 4.1 L-144.3 2.55 -147.15 -0.55 Q-148.7 -2.45 -150.0 -3.1 L-171.0 -13.0 Q-169.8 -8.25 -168.7 -5.5 M-61.05 27.95 L-73.0 25.55 -77.75 24.85 -79.7 25.0 Q-80.45 25.2 -81.05 25.95 L-76.4 26.2 -73.3 28.6 Q-71.3 29.7 -69.65 31.95 -68.55 33.4 -66.2 33.4 L-63.1 33.05 Q-62.55 32.8 -62.55 31.95 -61.75 29.0 -61.05 27.95 M-165.0 12.95 Q-167.15 14.7 -174.1 15.0 L-185.6 14.95 Q-185.65 18.1 -183.5 18.85 L-177.85 19.8 Q-169.05 21.75 -165.3 14.1 L-165.0 12.95 M142.9 19.4 L138.0 19.2 116.5 21.45 Q97.75 23.8 87.35 25.9 88.55 26.95 89.6 26.8 90.7 26.7 92.4 28.1 L100.9 31.25 Q101.75 31.65 102.4 32.55 102.9 33.15 103.65 33.15 L106.2 32.6 111.8 31.55 124.7 29.4 Q133.1 28.0 135.9 28.4 141.5 29.2 143.3 24.65 143.95 22.95 143.8 21.3 143.65 19.7 142.9 19.4" fill="#5ad9fe" fill-rule="evenodd" stroke="none"/>
    <path d="M-163.4 19.85 Q-163.1 20.4 -162.55 20.15 -162.0 19.85 -161.0 18.45 L-163.4 19.85 M-148.2 11.7 L-148.9 10.85 -149.2 11.05 Q-149.25 11.65 -148.2 11.7 M-91.55 19.5 L-89.65 20.35 Q-89.65 20.0 -90.6 19.7 L-91.55 19.5 M-74.4 33.45 Q-73.55 34.75 -71.6 35.1 -68.85 35.55 -67.35 36.4 L-65.9 37.2 -64.9 37.35 Q-63.95 37.35 -61.25 36.0 -58.25 34.5 -57.4 33.2 L-52.65 27.4 -62.95 24.65 Q-75.25 21.65 -86.55 20.2 L-85.75 21.2 -80.2 27.1 Q-75.05 32.45 -74.4 33.45 M-177.25 -18.5 L-174.8 -13.5 Q-173.0 -9.75 -173.0 -8.55 -173.0 -5.55 -175.7 -2.35 -177.05 -0.75 -181.9 3.55 -191.75 12.25 -194.0 20.35 L-185.65 20.85 -180.75 21.05 Q-170.8 21.05 -165.05 19.35 -159.0 17.55 -156.45 13.5 L-174.6 12.3 Q-182.05 11.55 -182.75 9.55 L-182.7 9.35 -180.75 9.1 -170.8 10.0 -163.4 10.9 -149.4 8.75 Q-148.8 8.75 -148.2 9.1 L-147.05 9.75 -144.15 10.85 -125.65 11.85 -110.9 11.8 Q-121.05 6.25 -138.3 -3.85 L-154.3 -13.25 Q-160.0 -16.6 -166.05 -18.45 -170.45 -19.75 -172.75 -19.75 L-174.05 -19.6 Q-174.7 -19.15 -177.25 -18.5 M152.05 20.1 Q151.05 17.15 151.15 15.1 131.7 15.75 111.55 18.35 86.25 21.65 85.4 22.1 L83.75 23.35 Q82.85 24.2 82.85 24.85 82.85 28.85 90.1 33.1 97.8 37.6 106.35 37.6 L129.8 34.0 Q153.1 29.45 153.1 24.5 153.1 23.15 152.05 20.1 M211.05 30.9 Q216.15 24.2 216.7 15.85 L200.75 17.25 198.5 29.05 Q197.55 37.35 201.1 37.35 206.15 37.35 211.05 30.9 M203.35 14.35 L203.0 14.25 200.6 13.8 200.75 14.1 201.1 14.4 203.35 14.35 M218.9 5.7 L218.85 7.6 Q219.1 7.6 219.1 3.6 218.95 3.75 218.9 5.7 M223.35 -6.25 L223.25 -5.9 221.4 -2.15 Q219.85 0.9 219.85 1.6 L219.95 1.45 Q223.75 -5.0 223.35 -6.25 M114.85 -8.5 Q113.5 -7.05 110.9 -2.95 108.35 1.15 108.35 1.85 108.35 3.55 110.25 4.75 111.15 5.35 112.1 5.6 L111.9 6.75 Q112.5 7.3 117.4 7.55 L129.85 8.8 138.5 9.3 145.95 9.7 210.45 11.85 216.85 11.85 Q216.85 7.25 217.25 4.55 218.3 -2.0 221.7 -7.75 227.1 -16.8 228.2 -19.3 229.85 -23.0 229.85 -27.25 229.85 -28.25 228.9 -30.25 227.85 -32.5 226.85 -32.5 217.55 -32.5 197.75 -24.2 184.6 -18.7 177.6 -14.75 172.3 -11.75 167.55 -8.05 163.2 -4.65 162.4 -3.05 158.55 4.5 157.2 5.8 154.95 7.85 148.85 7.85 L146.2 7.55 Q144.3 7.05 144.25 6.05 144.9 1.4 144.75 0.35 144.65 -0.95 142.4 -2.1 L129.6 -8.75 114.85 -8.5 M10.35 -22.75 Q9.25 -18.45 13.6 -14.55 17.25 -11.3 23.85 -8.95 42.75 -2.3 53.05 -0.55 L72.95 2.25 73.85 1.0 79.45 2.25 83.85 2.9 Q85.25 3.0 87.7 3.75 L90.4 4.45 Q91.3 4.45 93.4 2.15 L96.7 -1.5 103.35 -7.85 Q110.35 -14.2 114.1 -15.75 L123.35 -15.75 142.95 -4.95 Q147.85 -2.25 149.25 -2.25 153.0 -2.25 154.8 -3.05 156.05 -3.65 158.35 -5.8 165.4 -12.6 177.5 -19.0 183.75 -22.35 197.15 -27.0 209.15 -31.2 215.0 -32.5 223.55 -34.35 232.8 -35.55 246.9 -37.35 247.6 -35.0 244.9 -31.5 238.7 -24.7 232.7 -18.15 229.95 -14.5 220.6 -2.1 219.95 11.85 L222.25 11.85 228.15 11.4 230.85 11.1 Q266.95 11.7 268.5 11.85 L272.35 12.05 Q275.15 12.4 276.6 13.85 L276.1 14.4 275.85 14.8 Q262.65 14.9 258.15 15.3 253.8 15.7 219.55 15.85 219.75 17.95 217.45 24.1 L214.4 31.7 Q213.85 33.2 212.05 35.6 210.5 37.65 209.8 38.15 206.0 41.05 204.7 41.75 L200.9 43.6 Q198.55 44.6 197.85 44.6 L193.35 44.35 192.2 40.05 Q191.1 36.0 191.1 35.35 191.1 33.75 192.1 30.35 193.1 26.9 193.1 25.05 L192.25 21.7 191.1 17.85 176.45 17.65 166.75 16.65 156.6 15.7 155.15 17.0 Q153.85 18.35 153.85 18.75 153.85 26.85 161.3 27.95 L167.0 28.2 Q170.05 28.2 170.85 28.85 L170.3 30.85 Q165.65 31.5 163.95 32.95 162.65 34.65 161.2 35.45 154.9 39.25 144.85 43.85 142.65 40.4 139.6 39.1 137.4 38.1 134.1 38.1 123.7 38.1 110.35 40.35 L95.85 42.6 Q92.75 42.6 91.1 40.1 88.2 35.6 84.55 32.7 83.05 31.5 78.35 29.35 73.45 27.1 71.85 27.1 63.45 27.1 58.7 28.3 L44.45 33.1 31.8 35.85 18.55 38.5 Q13.55 39.6 7.25 44.2 L1.85 48.6 0.35 48.6 0.2 48.4 Q0.1 48.25 0.1 48.8 L0.05 48.7 -0.15 47.1 0.95 45.85 Q0.95 44.85 -3.1 40.9 -7.45 36.65 -12.05 33.55 -13.95 31.5 -14.85 31.2 L-25.0 30.25 -35.8 29.05 -43.9 28.3 -44.55 28.35 -44.5 28.35 Q-44.05 32.9 -44.2 34.2 -44.4 35.65 -45.55 36.0 -47.1 36.5 -56.1 40.25 -62.25 42.85 -66.0 42.85 L-69.8 42.55 Q-70.95 42.15 -72.3 40.4 L-80.2 31.85 -84.95 27.95 -89.9 24.05 -95.3 20.5 Q-98.65 18.45 -110.05 17.4 L-135.35 14.85 -145.55 14.0 Q-148.05 14.0 -152.4 16.75 L-158.3 20.7 -162.15 22.85 -176.75 23.6 Q-191.9 23.6 -210.5 21.6 L-210.75 21.8 -211.0 20.1 Q-211.0 19.05 -205.85 16.05 -198.6 12.1 -194.5 9.6 -178.0 -0.45 -178.0 -8.25 -178.0 -10.55 -179.5 -13.75 L-181.0 -17.25 -180.65 -19.75 -180.0 -22.0 -155.65 -21.75 -151.9 -16.15 Q-149.9 -13.65 -147.4 -12.35 -141.85 -9.45 -125.9 -9.45 L-107.15 -10.25 -104.25 -9.8 -101.9 -9.25 -103.05 -7.8 Q-103.9 -6.8 -103.9 -4.4 -103.9 -3.6 -102.95 -1.75 -101.55 0.9 -98.85 3.8 L-94.45 7.45 -90.5 9.95 -59.15 8.35 -59.15 7.85 Q-49.1 8.3 -35.15 2.85 -27.0 -0.35 -10.1 -8.3 -0.2 -12.65 2.65 -14.85 L10.35 -22.75" fill="#ffffff" fill-rule="evenodd" stroke="none"/>
  </g>
</svg>
