<?xml version="1.0" encoding="UTF-8" standalone="no"?>
<svg xmlns:xlink="http://www.w3.org/1999/xlink" height="103.0px" width="517.1px" xmlns="http://www.w3.org/2000/svg">
  <g transform="matrix(1.0, 0.0, 0.0, 1.0, 233.75, 54.05)">
    <path d="M2.8 -4.55 L15.7 -17.95 15.65 -16.95 Q16.45 -15.3 16.35 -14.45 17.1 -12.95 22.9 -5.95 23.55 -5.2 24.95 -4.75 L26.5 -4.35 31.05 -1.65 36.0 -0.7 40.95 0.0 Q43.55 -0.2 47.8 0.8 L52.5 1.85 73.0 2.75 80.75 4.3 87.1 4.25 Q88.5 4.0 89.9 2.15 98.8 -9.8 108.45 -19.5 109.1 -19.5 114.3 -23.55 119.5 -27.65 120.85 -27.65 121.8 -27.65 124.4 -26.6 L127.2 -25.4 Q130.1 -24.6 133.45 -23.1 L138.9 -20.25 Q143.4 -17.35 144.45 -15.4 145.75 -12.95 145.75 -5.95 L145.8 2.0 Q146.05 3.8 148.0 3.8 150.1 3.8 152.0 2.95 153.9 2.05 156.4 2.05 157.35 2.05 159.25 3.85 161.15 5.65 162.15 5.65 164.4 5.65 167.35 3.75 170.3 1.85 170.5 0.3 L171.55 -7.35 Q172.1 -10.2 173.35 -12.7 175.75 -17.5 185.05 -23.55 190.1 -26.9 198.95 -32.0 205.7 -36.3 218.9 -43.25 230.25 -49.25 231.9 -49.85 239.65 -52.65 245.5 -54.05 246.95 -54.05 247.85 -52.6 248.85 -51.0 250.95 -50.65 252.9 -50.35 253.4 -49.4 L255.8 -42.7 Q257.05 -38.9 259.0 -34.4 260.2 -31.65 260.2 -30.35 260.2 -25.55 257.6 -23.8 251.7 -19.75 249.5 -17.35 L236.65 -5.1 Q227.5 3.75 227.5 6.75 227.5 9.25 229.65 9.35 L234.95 9.95 Q231.35 12.7 229.95 13.05 L228.75 12.85 228.95 11.95 224.9 11.7 Q223.1 11.7 222.55 12.3 L222.1 13.15 Q219.2 14.0 218.2 13.7 217.2 13.45 217.2 11.7 217.2 10.4 219.55 8.6 L224.25 2.95 229.75 -3.8 239.15 -13.45 246.7 -23.4 Q253.15 -31.8 253.75 -33.2 L254.75 -36.05 255.3 -38.55 Q255.3 -40.45 252.25 -43.8 249.3 -47.0 247.95 -47.0 245.75 -47.0 237.6 -45.15 228.15 -42.95 223.05 -40.75 211.35 -35.65 205.55 -32.0 200.95 -29.1 197.55 -25.3 194.7 -22.15 190.5 -18.8 L184.4 -13.8 Q178.4 -8.4 178.4 -1.0 178.4 5.2 178.2 6.95 177.95 9.25 176.95 9.95 L173.65 10.9 Q170.25 11.55 167.25 12.8 L146.1 12.0 140.55 11.55 Q139.85 11.0 139.85 9.7 139.85 8.05 140.65 2.45 L141.4 -3.5 Q141.4 -5.45 139.85 -9.0 138.15 -12.8 136.4 -14.35 L133.15 -15.55 130.0 -16.55 Q127.9 -17.15 125.7 -18.15 L123.6 -18.95 122.65 -18.8 122.45 -18.7 115.2 -11.7 100.95 2.95 Q99.65 4.35 98.5 7.35 97.25 10.6 96.15 12.0 96.85 13.55 98.55 14.4 99.8 15.0 100.85 15.0 L104.95 14.45 115.8 13.75 130.55 13.15 Q136.35 12.7 140.55 11.55 141.5 12.1 148.55 13.1 L157.15 14.05 163.8 13.55 167.25 12.8 183.0 13.4 185.9 12.6 201.9 11.95 201.3 12.1 Q200.95 12.25 200.95 12.85 200.95 13.85 201.5 16.0 202.9 24.2 202.9 28.85 202.9 30.35 201.7 34.05 200.6 37.35 200.95 41.95 207.6 38.7 214.0 36.65 215.4 36.2 217.25 33.05 220.35 27.8 220.55 24.25 220.95 17.75 222.1 13.15 L228.75 12.85 Q226.5 24.65 224.85 30.05 222.55 37.5 219.55 40.15 215.7 43.5 210.6 46.0 204.5 48.95 199.7 48.95 197.2 48.95 194.95 47.95 192.65 46.95 192.65 45.75 192.65 40.95 193.4 39.4 194.1 37.8 194.1 33.8 194.1 25.7 191.0 21.95 188.65 19.05 185.0 19.05 182.55 19.05 180.6 21.05 L176.9 25.3 176.9 27.35 Q176.95 28.6 175.95 29.35 175.1 25.3 175.1 23.55 L175.5 21.75 175.95 19.95 169.2 20.85 169.25 25.6 169.45 34.95 Q169.45 35.4 166.8 36.5 163.15 38.0 159.95 40.95 158.7 38.85 157.6 38.05 156.1 36.95 153.3 36.95 144.0 36.95 141.35 40.6 L140.05 43.05 Q139.45 44.2 138.25 44.2 137.05 43.0 136.0 42.75 L126.6 40.7 119.85 39.25 116.3 39.25 Q115.3 39.2 114.35 38.45 113.4 37.75 110.35 37.25 L106.05 36.75 102.25 36.5 97.95 35.95 98.7 35.4 Q100.9 34.15 102.75 33.75 L110.75 33.25 Q113.35 33.25 114.95 34.05 L117.05 35.7 Q117.95 36.55 123.55 37.55 L133.05 38.5 Q137.75 38.5 139.2 36.3 140.65 34.05 144.1 34.05 L148.0 34.45 151.9 34.85 Q156.8 34.85 160.5 32.25 164.45 29.5 164.45 25.45 164.45 22.25 162.65 20.6 160.15 18.3 153.9 18.3 L145.0 19.3 140.7 19.95 138.05 19.35 132.05 18.75 121.3 19.35 115.95 19.95 Q81.45 20.05 74.0 20.65 L66.95 21.05 Q63.3 21.0 55.35 23.1 52.0 24.0 45.0 26.2 40.85 27.5 34.85 30.15 27.15 33.55 23.7 36.3 18.3 40.65 16.7 42.9 15.0 45.25 14.95 48.45 14.85 45.55 13.3 43.0 10.05 37.7 -2.0 33.85 L-20.25 27.8 Q-33.85 23.55 -38.15 23.55 -38.85 23.55 -39.45 24.3 -40.1 25.2 -40.1 26.55 L-39.05 33.45 -87.65 34.75 -90.05 34.5 -93.55 34.1 -107.5 33.6 Q-119.6 33.3 -121.1 33.35 -125.3 33.6 -133.05 30.4 L-141.75 26.3 -143.0 24.9 -144.4 23.1 Q-145.4 22.0 -149.2 20.65 L-154.05 18.95 -153.25 18.4 Q-148.2 15.8 -141.9 9.3 -136.1 3.25 -136.1 1.5 -136.1 -5.5 -137.55 -11.55 -139.7 -20.5 -144.25 -22.45 L-152.4 -26.8 Q-156.85 -29.1 -161.05 -29.1 L-170.95 -28.55 Q-172.4 -26.9 -174.05 -19.85 -175.35 -14.2 -176.25 -7.45 -177.05 -1.55 -178.5 0.4 -179.6 1.8 -181.95 1.8 -184.15 1.8 -187.45 -0.1 -190.75 -2.05 -192.0 -2.05 -196.8 -2.05 -202.5 1.45 -208.5 5.15 -208.5 8.95 -208.5 14.25 -203.6 17.4 L-200.25 19.8 Q-198.75 21.3 -198.75 23.5 L-199.0 25.95 -198.05 24.05 Q-197.3 22.7 -196.55 19.8 L-196.0 17.15 Q-196.0 16.0 -196.5 15.5 -197.1 14.85 -198.6 14.85 L-201.0 14.95 -199.75 13.45 -198.2 12.7 -197.15 12.25 -194.55 13.05 -186.0 14.3 -171.4 14.85 -159.05 14.95 Q-167.1 20.9 -168.5 20.9 -169.25 20.9 -170.45 19.6 -171.65 18.25 -173.8 18.25 -179.55 18.25 -183.8 21.35 -188.75 24.9 -188.75 31.0 -188.75 31.9 -189.85 33.55 -190.8 35.0 -191.45 35.35 L-198.7 36.3 -206.8 37.35 -204.55 27.6 Q-204.55 25.0 -210.05 22.0 -215.8 18.9 -221.25 18.95 L-221.35 17.05 Q-221.35 15.35 -220.55 13.85 L-216.65 6.5 -210.9 -6.7 Q-209.45 -9.85 -207.0 -9.85 -206.6 -9.85 -205.6 -8.35 -204.35 -6.6 -203.15 -5.85 -200.45 -4.2 -191.45 -4.2 -184.5 -4.2 -182.05 -8.0 -179.9 -11.3 -179.9 -20.05 -179.9 -21.85 -180.4 -26.95 -180.5 -28.0 -179.1 -29.3 -177.2 -31.1 -173.3 -32.65 -169.9 -34.0 -168.4 -34.0 L-160.8 -32.95 Q-157.0 -32.15 -154.9 -31.4 L-149.65 -30.1 Q-146.95 -29.5 -145.15 -28.2 L-138.9 -24.3 Q-134.3 -21.4 -131.05 -18.0 L-130.25 -16.0 -129.65 -14.05 -128.6 -2.05 -128.3 -0.8 -128.2 0.35 -128.25 2.25 -128.8 2.7 Q-131.0 3.55 -134.65 7.85 L-141.4 15.35 Q-143.05 17.15 -143.05 18.45 -143.05 19.75 -141.4 20.3 L-136.9 20.9 Q-135.95 20.95 -129.25 23.65 L-121.2 26.85 -116.15 27.9 -113.5 28.35 Q-111.5 29.05 -107.3 29.35 -99.05 29.95 -78.55 29.95 L-63.05 29.9 -60.05 29.15 -58.1 27.65 Q-56.85 26.65 -54.7 26.65 L-49.05 26.95 Q-49.4 25.4 -50.7 23.15 -52.45 20.2 -54.05 20.2 L-60.6 21.45 -78.85 20.65 -96.4 19.85 -100.1 20.2 -105.05 20.95 -105.2 20.45 Q-105.25 19.6 -103.75 17.15 L-102.35 15.1 Q-101.35 14.15 -99.6 13.95 L-91.1 12.75 -87.95 13.9 Q-85.3 15.1 -80.7 15.15 L-75.35 14.95 -55.8 13.35 -40.95 11.25 -29.85 9.75 Q-21.0 8.4 -12.2 4.6 -3.1 0.65 2.8 -4.55" fill="#5ad9fe" fill-rule="evenodd" stroke="none"/>
    <path d="M-233.4 14.4 L-232.95 14.2 -232.0 14.1 Q-231.35 14.1 -230.95 14.5 L-230.5 15.1 Q-233.0 16.35 -233.3 16.1 L-233.6 16.15 -233.7 15.7 -233.75 14.6 -233.4 14.4 M-188.35 21.9 Q-190.1 22.85 -193.1 23.65 -195.2 24.7 -195.05 28.05 -194.95 30.0 -196.4 32.4 L-198.2 34.7 -196.75 34.6 Q-192.15 32.4 -190.85 30.3 -189.85 28.65 -188.35 21.9 M-129.9 15.35 L-129.65 16.1 -134.65 17.1 -134.25 16.4 -133.7 15.55 -133.65 15.3 -129.9 15.35 M244.2 10.25 L252.75 10.8 Q253.5 11.15 253.25 13.6 252.0 12.85 249.3 12.15 246.0 11.3 242.35 11.1 L242.35 10.35 244.2 10.25 M281.75 10.6 L275.85 11.6 Q274.7 11.6 273.45 11.0 L272.35 10.35 Q274.65 10.35 276.2 9.75 277.8 9.1 278.85 9.1 L281.2 9.4 Q282.9 9.7 283.35 10.1 L281.75 10.6 M145.35 -3.55 Q145.35 -8.15 141.15 -11.6 138.05 -14.1 123.9 -22.2 137.7 -16.4 142.6 -10.65 146.35 -6.2 146.35 0.8 L146.05 3.8 145.35 7.85 Q146.95 8.4 150.9 7.0 L155.75 5.5 Q156.85 5.5 157.75 6.7 158.55 7.85 158.85 9.6 161.35 9.15 169.65 6.0 177.85 2.9 177.85 2.45 L176.5 -1.05 Q175.1 -4.6 175.1 -5.15 175.1 -9.6 179.15 -14.8 184.75 -22.05 199.35 -33.1 211.95 -42.55 222.4 -45.75 230.15 -48.1 242.05 -48.1 249.0 -48.1 252.4 -46.5 255.9 -44.8 256.25 -40.95 L256.95 -35.5 Q257.35 -32.3 257.35 -30.0 257.35 -28.4 254.45 -25.95 246.55 -19.3 241.15 -14.15 230.95 -4.4 226.95 0.45 222.6 5.75 222.6 8.75 222.6 9.75 223.0 10.55 L230.1 10.6 229.75 10.85 223.6 11.75 224.1 12.55 Q225.25 13.4 225.45 14.3 L225.6 18.65 Q225.6 26.05 221.65 34.6 216.65 45.6 208.85 45.6 L199.35 45.35 197.5 39.6 Q196.75 36.9 196.75 34.7 196.75 32.85 197.55 30.2 198.35 27.55 198.35 23.95 198.35 20.45 198.0 19.15 197.1 15.9 193.85 14.6 L186.15 15.05 184.65 15.3 182.85 16.4 Q181.85 16.9 180.85 18.9 180.0 20.55 180.0 20.9 L178.65 24.55 Q177.9 25.65 175.35 26.1 L176.25 24.7 177.95 20.9 179.85 17.2 182.45 15.3 Q184.65 13.9 185.35 13.6 L194.1 13.6 Q196.8 15.5 198.05 17.3 199.45 19.4 199.7 22.45 L199.35 31.35 Q199.2 39.9 200.6 43.85 L202.75 44.0 Q209.3 44.0 215.25 39.9 224.1 33.8 224.1 21.3 224.1 19.8 221.8 11.8 L218.35 11.85 218.6 12.25 220.35 13.1 220.25 13.2 219.25 13.25 217.45 13.0 Q216.55 12.4 216.35 10.35 L221.5 10.45 Q221.25 9.0 221.95 6.35 222.8 3.05 224.55 1.1 L232.2 -7.6 Q237.2 -12.65 256.35 -29.4 256.05 -35.75 254.75 -40.2 253.4 -44.65 251.35 -46.25 229.45 -46.35 223.05 -44.3 219.5 -43.15 214.1 -40.0 206.5 -35.45 200.55 -32.05 196.8 -29.95 189.75 -23.5 183.15 -17.4 181.4 -14.8 179.85 -12.45 178.15 -8.65 176.6 -5.3 176.6 -4.75 179.6 1.2 179.6 2.2 179.6 3.05 178.55 4.3 177.05 6.05 174.25 6.9 171.35 7.8 166.6 10.05 162.8 11.85 161.85 11.85 158.95 11.85 157.65 10.85 156.5 9.95 154.15 10.15 L148.2 10.0 144.35 9.1 145.35 -3.55 M16.85 -4.0 Q17.85 -4.0 17.75 -3.45 L18.0 -2.8 18.05 -2.05 17.95 -1.25 17.85 -0.25 Q26.75 0.6 35.25 3.55 44.6 6.75 50.45 7.6 L71.35 9.8 85.65 10.8 Q90.65 10.8 94.5 6.5 97.5 3.15 104.5 -9.05 105.6 -10.95 109.2 -13.7 L112.9 -16.35 119.85 -23.5 123.8 -22.25 Q119.6 -23.05 116.95 -19.65 L114.55 -15.1 113.55 -13.45 Q112.6 -12.0 112.05 -12.0 L111.15 -12.55 Q109.9 -13.55 107.35 -9.35 102.2 -0.05 100.3 2.75 97.65 6.6 90.35 12.75 L115.6 13.85 157.85 12.85 168.05 13.25 178.85 13.85 178.85 15.35 Q177.6 16.1 170.5 16.15 165.35 16.2 165.35 20.0 165.35 21.7 167.5 23.95 169.6 26.25 169.6 26.85 169.6 29.95 167.05 33.95 164.55 37.85 162.85 37.85 L151.1 37.1 142.1 37.35 Q141.85 39.15 140.35 42.6 L134.1 42.6 127.85 41.8 Q123.25 41.05 120.35 38.85 118.55 37.5 112.25 36.75 L96.1 35.6 Q96.35 35.5 96.55 35.35 97.8 34.6 99.25 34.6 L110.4 35.75 Q119.9 37.1 123.95 38.5 130.05 40.6 135.1 40.6 138.95 40.6 139.25 39.85 140.1 37.25 141.3 36.05 142.65 34.7 150.2 34.9 L162.85 35.35 Q164.95 33.8 166.75 30.0 168.1 27.05 168.1 26.35 L166.25 23.35 Q164.35 20.7 164.35 20.0 L165.45 17.95 166.9 15.6 166.85 15.5 166.8 15.55 Q165.75 16.0 162.0 16.45 L151.35 17.05 Q132.35 16.75 114.95 17.35 L91.7 18.3 79.1 18.85 58.9 20.75 37.95 23.4 Q29.3 24.75 21.6 29.85 L17.0 33.15 Q15.0 34.6 14.35 34.6 14.1 34.6 10.1 31.8 L4.65 28.25 Q-1.7 25.4 -7.35 24.2 L-23.8 21.4 -36.55 19.7 -41.2 20.55 -45.15 21.35 -43.15 28.5 Q-43.15 32.05 -49.45 32.5 -58.15 32.4 -63.05 32.75 L-81.9 33.95 -88.9 33.85 -112.35 33.15 Q-123.1 31.9 -135.1 27.15 -144.85 23.3 -147.1 21.75 -148.9 20.45 -148.9 18.0 -148.9 16.4 -148.0 15.95 -144.0 14.0 -142.25 12.9 -138.8 10.7 -136.0 6.1 -132.65 0.55 -132.65 -5.15 -132.65 -9.2 -134.55 -13.8 -136.15 -17.75 -138.2 -20.15 L-142.9 -24.1 -147.3 -27.55 -161.15 -34.25 -175.0 -34.0 Q-177.25 -30.9 -180.0 -27.7 -181.6 -25.1 -181.6 -19.35 -181.6 -7.0 -182.0 -5.3 -183.35 0.5 -190.0 0.5 -192.3 0.5 -196.45 -0.85 -200.55 -2.25 -202.0 -2.25 -208.35 -2.25 -212.3 1.7 -216.5 5.85 -216.5 13.25 -216.5 14.9 -215.7 15.2 -213.05 16.2 -209.5 19.0 L-207.0 20.05 -204.45 20.9 Q-202.2 21.3 -200.95 22.95 -199.85 24.4 -199.85 26.1 L-200.25 29.25 -201.25 34.6 -199.35 34.75 -195.9 24.25 Q-195.1 22.2 -191.9 22.0 -188.2 21.7 -186.1 18.8 L-204.5 17.85 -205.6 18.05 -206.5 18.1 -205.5 16.6 -201.1 15.45 -201.0 14.85 -164.15 14.85 -162.65 15.15 Q-161.35 15.4 -160.65 16.1 L-172.05 17.5 -183.75 19.4 Q-185.6 20.05 -187.2 23.15 -188.45 25.55 -189.95 30.3 -190.95 33.45 -192.65 34.65 L-196.75 36.35 -201.75 36.35 -202.1 29.3 -202.0 22.85 Q-206.6 22.85 -209.5 20.75 -211.8 18.4 -212.7 18.0 L-216.35 16.05 Q-217.5 15.15 -217.5 13.5 -217.5 7.4 -212.75 1.9 -208.05 -3.5 -203.0 -3.5 -195.15 -0.75 -194.4 -0.75 -182.55 -0.75 -182.55 -6.15 L-183.0 -8.6 -183.5 -10.2 -183.75 -11.75 Q-183.75 -20.1 -182.05 -26.0 -180.4 -31.7 -177.15 -33.9 -173.95 -36.1 -167.45 -36.1 -160.3 -36.1 -152.15 -31.6 L-141.85 -25.3 Q-136.8 -22.75 -134.15 -17.25 -131.65 -12.05 -131.65 -5.15 -131.65 -3.4 -133.4 1.5 -135.2 6.55 -136.7 8.65 L-142.2 14.3 -145.55 16.3 Q-146.7 16.8 -147.15 17.75 L-147.4 18.6 -142.65 19.1 Q-136.95 26.85 -122.95 29.3 -102.65 32.9 -88.85 31.65 L-89.1 31.6 -88.65 31.6 -46.15 29.35 Q-45.65 29.75 -45.4 29.75 -45.15 29.25 -45.15 28.25 -45.15 26.75 -46.25 25.15 -47.3 23.6 -47.15 19.15 L-71.0 20.1 -74.4 20.85 -82.3 20.2 -94.65 19.1 -93.95 18.25 -98.45 18.3 Q-100.25 18.25 -100.9 16.6 L-100.15 16.1 -86.7 16.85 Q-55.2 16.85 -33.7 14.35 -20.25 12.75 -15.0 10.95 -11.45 9.7 3.05 2.7 L16.85 -4.0" fill="#ffffff" fill-rule="evenodd" stroke="none"/>
  </g>
</svg>
