<?xml version="1.0" encoding="UTF-8" standalone="no"?>
<svg xmlns:xlink="http://www.w3.org/1999/xlink" height="96.95px" width="488.1px" xmlns="http://www.w3.org/2000/svg">
  <g transform="matrix(1.0, 0.0, 0.0, 1.0, 224.75, 50.8)">
    <path d="M21.2 -2.7 Q19.3 -1.3 17.95 1.0 21.55 1.35 34.0 5.15 45.45 8.6 50.4 8.5 51.75 8.5 54.3 9.8 56.95 11.2 57.8 11.25 L67.35 11.75 75.2 12.05 86.3 11.25 Q89.2 10.7 89.95 9.9 L92.8 4.25 Q95.45 -1.4 96.35 -2.75 102.4 -11.85 104.65 -14.8 109.7 -21.4 112.25 -21.4 L123.95 -20.5 132.95 -20.9 Q133.85 -20.9 136.5 -19.5 139.8 -17.8 141.3 -15.75 L142.05 -14.05 Q143.0 -12.25 144.4 -11.15 145.2 -10.5 146.2 -8.6 147.25 -6.55 147.45 -5.0 L147.7 -2.75 Q147.95 -1.8 149.0 -0.05 L150.1 1.75 152.15 4.55 152.9 5.6 Q153.65 6.8 154.0 7.95 154.6 9.85 157.25 11.25 159.75 12.55 162.35 12.55 167.15 12.55 169.25 10.8 171.7 8.8 174.15 7.35 L174.15 7.3 174.9 7.2 175.55 7.75 Q176.3 8.3 176.9 8.3 177.9 8.3 178.8 6.85 179.95 5.0 179.95 1.9 179.95 -2.7 178.75 -4.5 177.65 -6.15 175.45 -5.6 L175.2 -6.0 Q174.95 -6.4 174.95 -7.0 L176.05 -8.25 Q177.1 -9.65 177.1 -11.05 177.1 -14.9 178.2 -16.8 181.0 -21.55 182.15 -22.8 184.15 -24.95 186.95 -24.95 187.75 -24.95 188.75 -24.25 189.75 -23.6 191.55 -23.6 194.8 -23.6 196.55 -24.75 198.15 -25.75 199.45 -28.5 200.15 -27.9 201.15 -27.3 202.55 -26.6 203.15 -26.85 L203.95 -27.0 Q201.9 -25.5 198.35 -21.9 196.5 -20.1 194.65 -20.1 193.45 -20.1 191.05 -21.2 191.45 -21.4 190.45 -21.4 189.9 -21.4 188.15 -20.35 185.85 -18.95 185.15 -18.65 182.5 -17.5 182.25 -16.9 180.9 -13.95 180.9 -12.4 180.9 -12.1 182.6 -8.1 184.25 -4.1 184.25 -0.55 183.6 4.5 182.95 5.95 187.2 4.8 191.35 7.05 193.65 8.35 196.9 11.0 197.3 11.25 197.45 12.4 L197.9 18.0 198.0 24.5 Q198.0 27.7 194.85 29.65 191.65 31.6 191.65 32.75 191.65 36.15 193.4 39.45 195.35 43.1 197.85 43.1 198.6 43.1 203.65 40.05 L207.8 39.7 Q211.45 39.4 212.9 37.95 216.1 34.7 217.4 25.1 218.65 16.05 217.15 13.05 L217.45 12.35 Q222.7 6.6 224.15 5.55 224.55 5.25 227.95 3.95 227.85 1.45 223.95 -1.65 220.05 -4.75 220.05 -6.45 220.05 -8.5 226.1 -9.85 233.15 -11.45 246.25 -11.45 248.75 -11.45 250.9 -12.5 253.0 -13.55 253.65 -15.1 254.7 -17.65 257.7 -31.2 257.7 -41.5 250.1 -45.25 245.15 -47.7 234.9 -47.7 L233.65 -48.1 Q232.55 -48.55 231.95 -49.0 233.1 -50.25 235.15 -50.65 L236.95 -50.8 249.3 -49.7 253.95 -49.8 Q254.65 -49.65 256.3 -48.7 L258.2 -46.1 260.25 -42.55 Q260.9 -41.25 262.0 -40.7 262.8 -39.4 262.8 -32.45 262.8 -26.15 261.5 -22.45 260.15 -18.8 260.15 -18.05 L261.25 -14.95 Q261.85 -13.25 258.1 -11.6 250.6 -8.35 228.95 -8.55 L228.7 -8.6 Q228.4 -8.55 228.4 -7.95 228.4 -5.55 231.45 -3.9 234.45 -2.3 234.45 0.0 234.45 1.5 232.8 3.75 229.95 7.7 223.0 12.0 L222.65 12.2 222.55 12.8 223.0 16.3 223.55 22.0 224.05 27.55 Q224.05 29.15 223.6 30.4 L222.25 33.05 221.85 33.7 Q221.15 34.0 217.5 37.5 214.95 39.95 214.2 41.6 213.75 42.6 212.95 42.95 L198.0 45.3 196.45 45.45 Q193.8 45.45 191.45 41.45 189.15 37.6 189.15 33.6 189.15 31.95 190.5 26.6 191.85 21.2 191.85 18.7 191.85 14.7 189.7 12.6 187.85 10.8 184.8 10.8 183.05 10.8 182.45 12.45 L181.8 15.0 Q177.0 15.35 172.05 20.1 167.15 24.85 167.15 28.9 167.15 29.4 167.65 29.95 L168.1 31.0 Q168.1 34.15 164.7 38.7 160.95 43.8 157.1 43.8 155.3 43.8 154.05 42.75 L152.95 41.95 Q154.95 42.65 158.95 40.5 162.4 38.65 164.35 36.5 166.8 32.0 166.75 27.95 166.75 23.1 166.45 21.45 L168.2 20.4 171.95 17.95 170.1 17.85 167.05 18.35 164.0 18.8 161.65 18.5 157.5 17.85 154.55 17.4 152.6 14.05 Q145.75 3.4 145.5 -1.0 145.4 -3.55 144.25 -5.1 L139.85 -9.1 Q136.1 -12.45 135.6 -14.05 L134.3 -17.3 Q133.2 -18.85 130.7 -18.85 L126.0 -18.55 119.55 -18.35 Q115.85 -18.5 111.5 -14.55 109.55 -13.35 108.4 -12.3 106.55 -10.55 102.2 -3.8 98.0 2.75 96.7 6.15 95.95 8.2 94.95 11.95 105.05 12.1 106.35 11.7 L108.55 11.0 117.6 11.25 Q121.3 11.25 126.7 10.1 132.15 8.95 135.95 8.95 136.95 8.95 141.35 10.35 L142.05 10.15 143.25 9.95 Q144.25 9.95 144.7 11.0 145.05 11.75 145.05 12.75 145.05 13.95 144.85 14.15 144.4 14.25 143.85 14.65 143.0 15.25 142.6 15.9 L142.3 16.35 140.15 15.9 137.95 15.45 114.25 16.45 106.0 17.45 99.4 17.5 Q97.7 17.6 95.75 18.55 95.15 18.85 94.05 21.0 L92.75 23.5 Q91.35 25.55 89.05 27.1 L89.05 27.3 88.45 27.35 Q83.05 24.0 81.4 23.25 L76.85 22.15 67.1 18.25 Q63.9 17.0 62.25 17.0 43.25 17.0 30.7 22.8 26.1 24.95 23.3 27.45 20.95 29.6 20.95 30.95 L21.55 32.7 22.1 34.9 Q22.1 36.0 21.4 36.7 L20.95 36.95 20.5 33.85 Q20.4 33.25 17.05 33.25 15.5 33.25 11.5 31.85 L4.85 29.25 0.1 28.25 -3.95 27.65 Q-14.1 24.65 -18.9 23.65 -27.6 21.75 -35.4 21.75 -42.05 21.75 -44.1 24.25 -44.85 25.2 -44.85 27.3 -44.85 29.7 -44.3 31.95 -43.55 35.05 -42.05 35.95 L-46.0 36.5 -55.3 40.15 Q-61.35 42.5 -64.2 44.75 -66.1 46.15 -67.0 46.15 -69.9 46.15 -72.75 40.4 L-75.5 33.7 Q-75.75 33.05 -79.35 30.15 -83.25 27.0 -84.8 24.45 L-86.45 21.5 -86.2 20.15 -86.05 19.9 -86.55 19.8 -90.3 20.2 -95.3 20.55 Q-96.4 20.55 -98.65 21.65 -101.55 23.1 -101.55 24.95 L-101.1 26.6 -100.05 28.95 Q-101.0 29.1 -101.85 29.8 L-103.75 31.2 Q-107.25 33.25 -116.0 34.25 L-124.05 35.85 -126.0 36.15 Q-126.65 36.15 -130.15 32.3 -133.6 28.45 -137.05 28.45 -138.45 28.45 -139.7 29.25 -140.95 30.0 -142.15 30.0 -144.3 30.0 -145.8 27.4 -149.0 21.8 -149.0 20.5 -149.0 18.55 -147.75 14.05 -146.15 8.35 -144.1 6.3 -143.0 5.2 -142.15 1.25 L-141.05 -4.0 -142.9 -3.8 -144.3 -4.2 -145.05 -5.0 Q-136.9 -10.95 -135.25 -12.55 -133.2 -14.45 -133.2 -17.85 -133.2 -22.1 -134.85 -24.5 -138.15 -28.55 -141.6 -33.5 -142.85 -35.25 -145.25 -37.65 -147.75 -40.15 -149.0 -40.85 L-153.65 -43.45 Q-155.65 -44.5 -156.6 -44.5 -162.5 -44.5 -168.85 -42.65 -178.05 -40.0 -178.05 -35.0 L-177.55 -33.6 -176.95 -31.5 -177.4 -12.1 Q-177.4 -10.4 -176.3 -7.0 -175.15 -3.45 -174.0 -2.0 -176.6 -1.0 -179.0 1.1 -180.9 2.75 -181.95 2.75 L-188.55 0.95 Q-194.7 -0.9 -197.9 -0.9 -203.95 -0.9 -211.6 3.3 -219.1 7.45 -219.1 10.35 -219.1 10.8 -217.35 11.9 -214.7 13.55 -212.2 16.15 -210.95 17.5 -208.25 18.3 L-205.6 18.9 Q-203.8 19.8 -201.85 26.5 -200.85 29.85 -200.25 33.15 -200.25 34.7 -201.8 36.0 -203.85 37.65 -207.0 36.95 -207.05 33.95 -208.3 28.3 -209.8 21.6 -211.35 20.95 -213.3 20.15 -218.75 19.5 -221.85 19.15 -222.0 16.95 -220.65 16.65 -219.85 15.85 L-219.25 14.95 -219.3 14.4 -219.5 14.35 Q-221.65 12.0 -223.95 9.9 L-224.5 9.45 -224.75 8.5 Q-220.7 3.95 -220.6 3.5 L-220.2 0.6 Q-219.9 -0.55 -217.95 -0.35 L-212.85 -0.6 Q-211.0 -1.05 -208.95 -2.35 L-206.25 -2.95 Q-203.75 -3.5 -203.0 -4.1 L-200.0 -7.0 Q-197.35 -7.0 -193.1 -5.75 -188.65 -4.45 -187.0 -3.0 -186.6 -7.6 -184.3 -13.7 -182.15 -19.4 -182.15 -20.5 L-183.15 -38.0 Q-183.15 -40.5 -180.95 -41.95 -179.05 -43.15 -171.55 -45.9 L-165.25 -47.75 Q-164.0 -48.05 -163.25 -49.25 -161.6 -50.3 -155.1 -50.3 -154.0 -50.3 -148.65 -45.7 -142.8 -40.7 -137.55 -34.9 L-130.1 -26.8 Q-128.3 -24.6 -128.3 -21.85 -128.3 -14.8 -133.9 -9.15 L-137.75 -5.65 Q-139.5 -4.05 -139.5 -3.2 -139.5 -1.0 -137.9 -0.65 -135.65 -0.15 -135.0 0.65 -135.25 2.5 -138.2 6.3 L-143.6 12.95 -146.75 17.15 Q-147.55 18.25 -147.55 18.95 -147.55 21.75 -142.65 24.6 -137.95 27.35 -134.0 27.35 -131.75 27.35 -128.2 26.3 -124.25 25.1 -123.05 24.95 L-123.75 26.35 Q-124.25 27.45 -124.25 28.2 L-124.05 29.95 -123.95 29.35 -123.15 29.15 Q-123.05 29.15 -121.9 29.8 L-117.3 30.4 Q-112.85 30.4 -111.95 29.75 -110.6 28.75 -105.05 20.95 L-118.65 20.35 Q-127.9 19.1 -130.05 16.95 -130.05 16.6 -129.35 16.4 L-127.2 16.0 -125.4 15.6 -124.35 15.5 -108.65 16.25 -103.3 16.95 Q-98.85 16.95 -94.6 14.2 -90.4 11.45 -87.55 11.45 -85.0 11.45 -83.95 12.3 -83.25 12.85 -82.05 14.5 L-64.05 15.0 -54.6 14.65 -48.2 13.35 Q-44.45 12.35 -40.0 12.45 L-31.5 12.75 Q-26.7 12.75 -19.25 11.25 -12.0 9.75 -10.3 8.5 -8.65 7.3 -3.95 6.05 L6.4 2.9 Q12.6 0.6 17.85 -2.1 22.5 -4.55 23.95 -5.0 L21.2 -2.7 M-60.65 21.75 L-68.0 20.8 -70.25 20.6 -77.05 20.85 Q-77.15 21.35 -76.7 22.6 L-75.3 25.2 Q-74.95 25.7 -71.05 36.95 L-54.05 32.95 -54.6 31.35 -54.85 29.35 -54.75 26.3 Q-54.45 23.05 -53.45 21.15 L-60.65 21.75" fill="#5ad9fe" fill-rule="evenodd" stroke="none"/>
    <path d="M-201.75 35.5 L-197.75 33.6 -198.75 35.1 -200.0 36.35 -202.5 36.1 -201.75 35.5 M-202.25 27.1 Q-202.25 28.65 -202.45 28.95 L-204.0 31.1 -204.05 30.8 Q-203.65 29.35 -203.8 27.85 -204.0 24.9 -206.4 23.4 L-209.7 20.85 Q-212.75 18.55 -213.3 18.5 L-219.5 18.1 -215.7 16.55 -217.7 13.5 -218.5 11.6 Q-218.5 6.9 -216.75 5.2 L-214.7 3.5 Q-213.2 2.2 -212.0 0.5 L-206.5 0.0 Q-204.75 0.85 -204.5 1.25 L-212.25 1.85 Q-212.55 1.85 -214.05 3.6 L-216.35 6.65 -217.1 9.5 -217.5 12.0 Q-217.5 12.8 -215.5 14.8 -214.5 15.8 -212.0 16.45 -209.4 17.1 -208.5 17.85 L-208.75 18.05 -211.3 18.4 Q-206.55 21.9 -204.6 23.75 -202.25 25.9 -202.25 27.1 M-190.7 22.35 Q-190.65 23.4 -191.95 24.35 -192.9 25.0 -193.5 25.1 L-192.05 22.95 Q-190.95 21.3 -190.7 22.35 M-181.75 15.6 Q-179.75 15.6 -179.4 16.0 L-178.5 17.1 -179.55 17.95 Q-180.65 18.6 -181.85 18.6 L-185.45 18.25 -188.75 17.6 -187.7 17.3 -184.25 16.8 Q-183.45 16.7 -182.8 16.15 -182.2 15.6 -181.75 15.6 M-142.8 9.55 L-144.65 11.55 -149.15 16.1 -149.55 16.15 -149.5 15.75 Q-149.5 15.25 -145.0 10.3 L-138.9 3.6 Q-138.7 4.9 -142.8 9.55 M-98.2 20.75 L-98.9 21.65 Q-105.3 34.35 -116.4 34.35 L-125.65 34.1 -125.65 30.6 -139.65 30.1 Q-151.65 20.7 -151.65 19.5 -151.65 18.45 -151.2 17.55 L-150.25 16.85 -149.65 16.35 -149.5 16.5 Q-150.65 18.1 -150.65 19.5 -150.65 20.25 -148.55 22.05 L-139.15 29.1 -124.75 29.6 -124.65 33.1 Q-111.95 32.9 -107.4 30.3 -106.35 29.7 -104.4 26.8 -102.25 23.6 -98.2 20.75 M-132.25 -13.35 L-134.1 -11.15 Q-136.1 -9.25 -137.65 -9.75 L-137.35 -10.25 -133.75 -14.3 Q-130.75 -17.6 -130.65 -18.0 -135.8 -23.35 -138.5 -29.1 -141.3 -35.0 -148.3 -42.45 -144.6 -39.95 -137.15 -30.2 -129.65 -20.4 -129.65 -18.0 -129.65 -16.45 -132.25 -13.35 M-173.45 -42.75 Q-168.95 -47.6 -162.8 -47.6 L-158.85 -46.75 -153.8 -45.45 -158.65 -46.25 Q-166.3 -46.25 -171.3 -42.85 -176.5 -39.3 -176.5 -33.5 -176.5 -32.6 -175.5 -28.7 L-174.5 -24.75 Q-174.5 -20.85 -177.5 -13.85 -180.5 -6.85 -180.5 -3.65 -180.5 -2.1 -179.5 -1.8 L-178.25 -1.75 -178.5 1.3 -182.25 1.6 Q-190.1 1.6 -192.1 -0.7 L-193.2 -2.3 Q-193.75 -3.0 -195.0 -3.0 L-197.5 -2.4 Q-199.8 -1.7 -201.5 -0.75 L-200.45 -1.6 -196.95 -4.1 -196.0 -4.5 Q-194.5 -4.5 -191.25 -2.1 -187.95 0.25 -185.75 0.25 L-180.0 -0.25 Q-181.5 -2.2 -181.5 -3.25 -181.5 -7.45 -178.5 -14.5 -175.5 -21.55 -175.5 -24.6 -177.5 -32.25 -177.5 -33.65 -177.5 -38.35 -173.45 -42.75 M87.85 21.1 L89.9 18.95 92.5 15.7 69.75 16.0 Q69.05 16.3 74.35 16.95 L80.45 17.75 Q82.7 18.5 87.85 21.1 M166.35 31.6 Q167.35 31.8 167.8 32.6 168.35 33.6 168.35 35.7 168.35 37.05 167.7 37.3 L164.4 38.1 Q163.45 38.4 161.1 39.8 L158.8 41.15 Q158.4 40.85 158.35 39.85 158.85 39.25 161.3 38.45 163.8 37.65 164.1 37.35 166.35 35.35 166.35 31.6 M180.05 10.75 L181.65 8.65 Q177.05 8.8 173.4 10.45 170.15 11.95 169.9 13.3 L178.1 12.85 180.05 10.75 M219.45 34.45 Q220.6 31.7 220.6 28.85 L220.35 26.6 Q221.1 26.6 221.2 26.9 L221.85 28.95 Q222.35 30.75 222.35 32.25 222.35 34.0 218.85 39.05 214.35 45.55 209.05 45.55 L204.5 45.15 202.35 44.35 209.2 43.7 Q214.15 42.8 215.75 40.55 218.35 36.9 219.45 34.45 M222.45 17.25 L221.9 16.55 Q220.15 12.8 220.35 11.6 221.55 12.55 221.75 13.3 222.25 15.35 223.35 17.6 223.05 17.9 222.45 17.25 M211.25 13.65 Q211.25 13.35 211.85 13.35 L214.85 13.65 217.35 14.1 Q217.35 14.35 211.35 14.1 L211.25 13.65 M259.35 11.1 L258.95 11.25 239.35 11.1 239.45 10.85 239.85 10.35 259.35 11.1 M241.05 -49.0 L234.8 -48.55 245.85 -50.3 Q253.25 -50.3 258.65 -44.3 263.35 -39.05 263.35 -33.8 263.35 -31.0 260.35 -24.5 257.55 -18.35 254.35 -13.75 253.6 -12.6 248.7 -11.35 243.8 -10.05 240.95 -10.3 232.95 -11.1 229.4 -9.2 227.35 -8.05 227.35 -6.75 227.35 -5.4 229.85 -3.45 232.35 -1.55 232.35 -0.2 232.35 2.05 230.4 4.25 227.55 7.45 221.35 9.1 L221.65 8.75 Q222.0 8.45 228.15 4.8 231.35 2.85 231.35 0.1 231.35 -0.9 228.85 -3.2 226.35 -5.5 226.35 -6.75 226.35 -8.25 227.15 -9.25 227.95 -10.35 229.35 -10.4 L240.75 -11.35 Q250.45 -12.7 253.6 -15.65 255.25 -17.15 258.8 -24.6 262.35 -31.95 262.35 -33.6 262.35 -38.5 258.65 -43.25 254.0 -49.25 246.35 -49.25 L241.05 -49.0 M229.65 -46.4 L227.85 -44.75 Q227.55 -45.05 228.55 -45.75 L229.65 -46.4 M198.7 -28.15 L199.1 -28.25 199.25 -26.75 Q199.2 -25.65 198.8 -24.6 198.6 -24.1 196.9 -22.9 195.15 -21.75 194.6 -21.75 L188.85 -23.25 Q186.75 -23.25 182.85 -17.75 179.35 -12.75 179.35 -12.0 179.35 -10.25 182.35 -6.05 185.35 -1.85 185.35 0.85 185.35 1.8 183.25 7.75 191.0 9.75 193.8 12.2 196.35 14.5 196.35 18.8 196.35 22.4 193.35 27.35 190.35 32.25 190.35 33.0 190.35 34.4 191.6 37.05 192.9 39.9 195.1 43.1 192.25 42.45 190.65 38.8 189.35 35.9 189.35 32.75 189.35 32.35 192.35 27.15 195.35 21.9 195.35 18.1 195.35 13.35 190.6 10.65 187.0 8.6 183.4 8.6 183.1 8.6 182.6 10.6 182.1 12.75 180.85 13.35 L178.35 13.9 174.8 14.25 185.35 15.1 185.15 15.2 169.05 15.6 169.05 17.75 169.8 22.2 170.15 23.85 170.1 24.1 Q169.25 23.1 168.9 22.15 168.35 20.6 168.35 17.75 L168.6 15.65 Q160.45 16.85 157.15 14.6 L154.45 12.05 151.35 8.85 151.85 8.35 Q153.3 9.2 155.65 12.0 157.45 14.1 159.05 14.1 L163.05 13.95 167.95 13.6 Q168.85 13.5 169.25 13.1 L171.75 10.7 Q173.7 9.05 176.3 8.4 L180.35 7.65 Q184.35 6.7 184.35 0.8 184.35 -0.75 181.35 -5.6 178.35 -10.5 178.35 -11.65 178.35 -14.6 182.35 -19.35 186.55 -24.25 189.65 -24.25 L192.35 -22.75 Q194.6 -22.75 195.7 -23.5 196.6 -24.15 197.6 -26.1 L198.3 -27.6 Q198.35 -28.0 198.7 -28.15 M136.45 -15.0 L136.85 -15.5 Q142.65 -14.55 145.0 -11.5 146.25 -9.9 149.1 -2.25 148.0 -2.45 145.25 -8.2 144.1 -10.5 141.9 -12.25 139.35 -14.35 136.35 -14.75 L136.45 -15.0 M117.35 -18.75 Q106.65 -13.9 101.0 -2.6 99.15 1.15 97.55 6.25 L95.45 13.3 134.85 12.35 138.25 12.6 141.35 13.1 Q131.3 15.45 129.1 15.65 126.25 15.5 121.6 15.6 L98.05 15.65 Q94.5 15.65 93.35 17.2 L92.4 19.6 Q90.75 22.1 87.7 22.1 85.9 22.1 84.8 21.5 L82.9 20.1 Q79.9 18.1 71.35 18.1 L69.55 18.25 69.35 16.85 69.4 16.1 51.15 16.65 43.05 17.55 38.8 18.65 36.15 19.2 Q30.45 20.95 23.15 24.95 L16.9 28.6 10.55 25.5 Q6.5 23.4 -0.5 22.55 L-6.9 22.15 Q-10.85 21.85 -12.3 21.1 -13.4 20.3 -14.7 19.9 -19.35 18.5 -45.65 18.6 L-45.65 17.6 Q-50.65 20.0 -50.65 22.25 -50.65 23.9 -48.15 26.55 -45.65 29.2 -45.65 31.25 -45.65 34.0 -52.4 37.95 -59.8 42.35 -67.15 42.35 L-69.9 42.05 Q-72.0 41.7 -72.65 41.15 L-74.85 38.1 -76.75 35.25 -80.15 27.2 Q-83.5 19.45 -84.05 19.45 L-97.9 20.35 Q-97.9 19.6 -113.75 19.25 L-123.4 18.95 -129.65 18.35 -100.65 17.85 -100.15 17.35 -85.4 17.5 -86.2 16.2 Q-86.55 15.6 -87.15 15.6 -92.6 16.5 -93.55 16.85 L-90.15 14.35 Q-87.85 13.25 -85.95 15.05 -84.95 16.0 -84.1 17.55 L-77.9 17.6 Q-77.25 18.35 -76.9 19.1 L-82.8 19.4 Q-80.65 23.25 -75.55 34.3 -72.35 41.1 -71.15 41.1 -62.25 41.1 -54.0 37.25 -46.65 33.8 -46.65 31.4 -46.65 30.55 -49.25 27.7 -51.9 24.9 -51.9 23.85 -51.9 21.5 -50.8 19.7 -49.8 17.95 -48.35 17.6 L-70.5 16.9 -74.65 16.35 Q-46.45 16.5 -45.5 16.05 L-43.8 15.0 Q-42.75 14.35 -42.15 14.35 -38.75 14.35 -37.9 16.1 -38.8 16.1 -39.25 15.5 L-44.2 16.5 -22.15 16.6 Q-19.5 16.6 -0.15 9.5 L18.15 2.65 17.9 3.4 16.6 5.35 Q17.75 6.4 19.85 6.9 L33.15 9.25 Q61.75 13.85 70.85 13.85 L93.75 13.35 96.95 4.6 Q99.6 -2.6 100.3 -3.85 L104.9 -9.9 Q109.7 -15.75 112.35 -17.6 115.95 -19.75 116.65 -19.55 117.1 -19.45 117.35 -18.75" fill="#ffffff" fill-rule="evenodd" stroke="none"/>
  </g>
</svg>
