<?xml version="1.0" encoding="UTF-8" standalone="no"?>
<svg xmlns:xlink="http://www.w3.org/1999/xlink" height="92.1px" width="490.85px" xmlns="http://www.w3.org/2000/svg">
  <g transform="matrix(1.0, 0.0, 0.0, 1.0, 225.0, 46.95)">
    <path d="M-224.5 21.35 L-224.15 22.3 Q-223.8 23.65 -223.4 26.45 -223.0 29.6 -223.0 31.6 -223.0 34.35 -223.25 35.6 L-224.4 32.45 -225.0 30.1 -224.5 21.35 M-199.3 29.35 L-199.9 32.75 Q-200.5 35.95 -201.1 36.45 -202.45 37.6 -205.4 38.4 -208.4 39.25 -211.75 39.35 L-210.6 37.1 -209.15 35.7 Q-207.5 34.6 -204.75 33.85 L-204.8 32.55 Q-204.5 30.1 -203.05 27.2 -201.75 24.6 -201.75 22.85 -201.75 21.65 -206.65 19.0 -211.9 16.25 -218.75 14.1 L-218.7 13.9 -217.25 12.6 Q-211.15 12.6 -204.6 15.15 -197.25 18.05 -197.25 21.6 -197.25 22.25 -199.3 29.35 M-155.65 13.6 L-155.65 16.6 -155.75 17.1 -177.9 17.6 -178.0 14.35 -164.75 13.6 -164.75 13.1 -155.65 13.6 M-112.1 15.7 Q-109.05 15.45 -108.15 15.65 -107.0 15.9 -106.9 17.1 L-107.5 18.5 Q-107.8 19.2 -108.7 19.5 L-121.05 20.35 -129.3 20.05 Q-129.0 19.7 -130.4 19.6 L-131.0 21.25 Q-131.6 22.7 -131.6 23.9 -131.6 28.05 -118.1 28.35 L-117.9 31.35 -130.15 31.35 Q-132.45 29.3 -133.85 26.6 L-134.9 23.85 -143.65 27.35 -148.65 27.1 Q-149.65 23.3 -144.35 21.6 L-140.05 20.45 Q-137.7 19.8 -136.9 19.1 L-131.9 19.3 -131.9 16.35 -112.1 15.7 M-65.9 41.35 L-65.9 36.95 -58.25 36.25 Q-55.65 35.75 -54.9 35.1 L-49.4 35.35 Q-48.25 39.0 -52.0 39.95 L-58.15 40.65 -62.4 41.6 -65.9 41.35 M-80.7 12.0 L-80.8 11.75 Q-80.8 11.6 -81.4 11.6 -85.7 11.6 -89.75 16.2 -92.75 19.6 -93.05 21.15 L-95.7 29.6 Q-96.1 30.9 -97.85 31.65 L-101.35 32.8 -102.8 33.3 -104.4 33.6 -110.9 33.35 Q-110.5 30.85 -108.6 29.25 -106.95 27.8 -105.6 28.0 -102.9 28.45 -101.0 27.5 -97.5 25.8 -97.25 20.0 L-100.9 21.1 Q-104.45 20.85 -105.9 20.1 L-105.15 19.65 -101.45 18.05 Q-97.95 16.6 -97.4 16.6 -96.25 16.6 -95.5 14.5 -95.25 13.8 -94.65 13.5 -93.85 13.05 -91.65 12.6 L-89.3 10.65 -86.65 8.35 -78.4 8.6 Q-77.0 9.75 -76.85 12.45 L-76.9 16.1 -79.4 15.85 Q-79.55 13.5 -80.15 12.5 L-80.7 12.0 M-80.9 20.1 Q-79.65 21.35 -78.05 23.6 L-76.65 25.85 Q-76.65 26.85 -76.95 26.6 L-78.8 26.85 Q-80.65 26.85 -81.1 26.3 -81.65 25.65 -81.65 23.25 -81.65 21.25 -80.9 20.1 M-46.15 18.85 Q-43.25 19.65 -43.1 21.6 -43.0 22.75 -43.4 25.35 L-44.9 25.35 Q-44.95 24.7 -46.9 19.35 L-46.15 18.85 M-139.1 -33.3 L-134.55 -31.35 Q-127.25 -28.1 -127.25 -18.45 -127.25 -11.0 -128.1 -9.75 -129.0 -8.45 -134.4 -4.25 L-140.15 -4.0 -141.5 -4.1 -142.15 -4.25 Q-141.5 -6.5 -138.8 -7.85 L-134.4 -10.2 Q-132.2 -12.15 -131.55 -13.1 -130.9 -14.1 -130.9 -15.5 -130.9 -19.45 -133.0 -23.05 -134.95 -26.35 -137.65 -27.9 -140.35 -29.4 -142.45 -31.2 L-144.3 -32.75 Q-146.7 -33.1 -147.45 -33.45 L-150.9 -36.85 -153.85 -41.4 Q-154.9 -43.15 -154.9 -43.9 -154.9 -45.7 -153.5 -46.65 -151.85 -47.75 -149.95 -45.0 L-147.0 -41.15 Q-144.6 -38.0 -144.1 -37.05 -143.35 -35.65 -143.35 -34.45 L-139.1 -33.3 M-194.25 -2.5 L-187.2 -1.45 -182.0 -0.25 Q-181.8 -2.0 -181.75 -7.75 L-178.5 -7.75 -178.25 -6.5 -178.25 4.6 -182.6 3.8 -188.8 2.25 -192.6 1.3 Q-193.95 0.65 -194.25 -2.5 M-173.5 -40.9 L-166.75 -46.75 -161.9 -46.5 Q-162.05 -44.2 -165.4 -41.5 L-174.95 -33.3 Q-176.05 -32.25 -176.85 -30.65 -177.8 -28.7 -178.0 -26.55 L-178.4 -20.2 -178.75 -13.75 -181.45 -14.0 -181.75 -21.9 Q-181.75 -31.65 -178.2 -36.25 -176.75 -38.15 -173.5 -40.9 M-211.8 -0.45 Q-209.2 -3.95 -203.75 -2.0 -204.1 0.4 -207.9 3.0 -211.35 5.3 -213.3 5.3 L-213.9 5.05 -213.75 4.0 Q-213.1 1.35 -211.8 -0.45 M25.6 25.85 L26.8 25.4 24.8 25.6 25.6 25.85 M42.25 10.1 L64.6 13.35 64.6 16.35 Q50.9 17.55 39.05 23.85 35.4 25.8 31.9 28.25 L28.6 30.6 23.1 30.35 Q22.0 27.2 10.1 23.7 -3.05 19.8 -16.45 20.2 L-24.9 20.6 -24.9 16.3 -17.05 15.85 Q-10.3 15.3 -9.3 14.65 -7.2 13.4 -3.8 12.65 L4.4 11.05 Q11.3 9.6 13.0 7.15 L13.75 5.7 Q14.15 5.1 15.1 5.1 18.1 5.1 19.5 5.8 21.5 6.8 23.65 7.2 L33.95 8.8 42.25 10.1 M42.3 16.75 L49.35 14.85 29.15 12.55 16.35 10.85 9.9 13.6 Q2.65 16.4 -1.9 16.85 L-1.55 16.95 3.7 17.65 8.05 18.0 14.2 19.2 18.0 21.05 Q20.95 22.6 21.25 22.6 22.8 22.6 27.95 19.35 L33.1 16.1 38.0 16.65 42.3 16.75 M81.45 12.05 Q80.95 11.1 81.1 10.1 L85.05 10.55 96.95 11.35 97.05 13.35 Q97.05 17.15 93.05 21.45 88.55 25.5 87.6 26.6 L82.1 26.35 82.1 21.1 78.6 20.2 Q72.65 17.85 70.45 18.6 67.35 19.65 64.35 19.1 64.4 17.45 66.15 16.35 67.7 15.35 69.35 15.35 L77.7 15.95 81.55 16.8 85.35 17.75 Q86.5 18.15 86.85 19.1 L92.1 15.1 83.1 14.35 81.45 12.05 M93.5 9.85 L93.5 2.2 96.45 2.2 96.45 9.85 93.5 9.85 M129.6 13.6 L129.35 16.35 111.85 15.6 112.55 14.5 Q113.75 11.0 117.95 11.8 L129.6 13.6 M163.0 15.35 L162.85 16.5 Q162.0 16.5 160.6 17.6 L154.1 17.6 145.75 16.95 142.6 16.6 135.6 16.85 135.6 13.4 146.05 14.1 157.1 13.85 156.1 12.1 Q155.85 11.3 155.85 10.0 155.85 8.45 156.25 8.3 L157.8 8.55 Q159.35 8.9 159.5 9.25 159.8 10.05 160.7 11.05 L162.35 13.8 163.0 15.35 M197.85 19.9 Q198.75 20.8 198.7 21.85 199.6 25.0 199.6 26.2 199.6 30.65 198.4 33.25 L196.1 36.35 196.1 41.4 201.35 41.6 200.1 43.85 193.6 43.85 193.6 34.1 195.0 31.4 Q196.1 29.0 196.1 27.6 196.1 23.05 189.35 21.1 189.8 19.95 190.4 18.95 L191.1 18.1 Q196.05 18.1 197.85 19.9 M219.35 37.6 L218.75 38.85 216.45 41.1 214.3 42.9 Q212.4 44.15 211.15 43.65 L210.1 42.85 214.65 39.95 Q218.5 37.7 219.35 37.6 M265.0 -40.6 L265.85 -39.25 Q260.1 -37.7 257.4 -41.2 256.55 -42.35 256.15 -43.8 L255.85 -45.15 255.9 -46.7 256.1 -46.75 Q258.0 -46.5 259.55 -44.8 L262.1 -42.3 265.0 -40.6 M264.85 -33.7 L265.1 -33.15 Q265.1 -32.2 263.2 -26.65 L260.5 -19.25 Q259.8 -17.4 254.9 -15.45 250.7 -13.75 249.0 -13.75 L246.4 -14.0 245.85 -14.25 251.2 -18.15 256.3 -21.95 259.65 -27.1 Q262.95 -32.2 264.85 -33.7 M231.6 -3.8 L231.5 -2.55 Q231.1 -1.5 229.35 -1.5 L224.35 -1.75 224.35 -6.25 Q226.15 -10.7 229.8 -11.1 231.35 -11.25 233.6 -10.5 L229.35 -6.25 Q229.35 -5.25 229.55 -5.6 L231.1 -5.0 231.5 -5.3 231.6 -3.8 M181.1 -19.75 L178.6 -20.0 Q178.25 -21.45 178.9 -22.8 L180.25 -24.75 181.2 -26.2 Q182.45 -27.35 185.1 -27.0 185.2 -24.8 181.1 -19.75 M176.1 -7.75 Q176.6 -8.25 177.35 -10.5 L178.7 -8.2 Q179.25 -6.85 179.6 -3.0 182.45 -2.9 184.2 -1.1 186.1 0.95 189.6 1.5 189.45 5.55 188.35 8.1 L186.2 12.05 Q185.2 14.1 183.4 14.8 L181.2 15.3 175.6 16.6 167.1 16.35 167.1 12.5 Q179.3 11.7 180.95 10.05 181.4 9.65 181.95 7.9 182.5 6.1 183.85 4.6 L180.65 2.7 Q177.95 0.95 176.1 0.5 L176.1 -7.75 M185.6 -28.25 Q185.6 -28.85 185.95 -29.2 L186.35 -29.5 196.85 -29.25 199.6 -27.15 201.35 -25.5 192.25 -26.6 185.85 -26.5 Q185.6 -27.25 185.6 -28.25 M143.35 -10.5 L153.35 -8.25 Q153.2 -1.5 151.75 0.2 L150.8 1.05 Q150.35 1.55 150.35 2.6 150.35 3.0 152.25 4.0 154.1 4.95 154.1 5.85 L154.0 7.15 151.75 7.35 Q148.15 7.35 146.8 6.55 145.35 5.7 145.35 3.25 145.35 2.45 146.3 0.7 L149.35 -5.0 149.3 -5.0 Q147.25 -5.1 145.65 -5.8 142.6 -7.2 143.35 -10.5 M104.85 -8.0 L101.85 -8.25 101.9 -8.45 Q102.35 -10.6 103.9 -11.55 105.8 -12.75 108.35 -11.0 107.5 -9.45 106.25 -8.6 105.4 -8.0 104.85 -8.0 M100.1 -0.75 L97.6 -1.0 97.6 -5.25 99.6 -5.95 101.6 -6.5 Q101.25 -4.15 100.1 -0.75" fill="#5ad9fe" fill-rule="evenodd" stroke="none"/>
    <path d="M-221.6 27.6 L-221.5 32.85 -222.5 33.1 -222.5 27.6 -221.6 27.6 M-215.4 15.85 L-215.0 15.35 -208.15 17.0 Q-203.75 18.65 -203.55 22.75 -203.15 30.05 -206.5 34.8 -209.0 38.35 -211.0 38.35 L-213.5 38.1 -213.05 37.75 Q-209.25 37.15 -206.7 32.8 -204.5 29.0 -204.5 25.1 -204.5 20.4 -207.45 18.9 -212.1 17.55 -215.5 16.1 L-215.4 15.85 M-179.8 3.3 Q-180.15 4.35 -181.75 4.35 L-184.8 4.0 -187.5 3.6 Q-190.6 3.5 -191.3 2.15 L-191.5 0.25 Q-191.25 -0.15 -190.1 0.95 L-188.1 2.4 Q-186.95 2.65 -186.5 3.1 L-181.5 2.85 -179.7 -0.55 Q-179.6 2.65 -179.8 3.3 M-133.75 26.4 L-135.0 24.9 Q-132.8 26.05 -131.95 27.2 L-126.65 31.1 Q-129.45 32.95 -130.1 32.35 -130.55 31.05 -131.2 30.25 L-132.25 28.75 -133.75 26.4 M-158.65 17.1 L-159.5 17.5 -164.15 18.35 -169.1 17.95 -173.5 17.35 -163.15 16.85 -158.65 17.1 M-140.15 23.85 Q-139.45 23.6 -139.15 23.35 -138.2 23.35 -135.7 24.55 L-135.6 24.6 -135.65 24.6 -141.45 25.2 -143.15 26.35 -144.65 26.1 -143.65 24.6 -140.15 23.85 M-116.65 20.1 L-116.85 20.2 -129.95 20.35 -134.65 20.1 -134.1 19.4 -133.1 18.3 Q-132.4 18.35 -130.6 19.05 L-123.7 19.55 -116.65 20.1 M-92.05 18.35 L-92.1 18.35 -93.0 19.35 -93.45 20.15 -94.25 22.65 -94.9 25.45 -96.95 28.9 Q-99.35 32.35 -101.15 32.35 L-105.6 32.1 Q-105.6 31.65 -103.1 31.15 L-100.1 30.45 Q-98.35 29.5 -97.25 27.8 -96.2 26.2 -95.75 24.45 L-94.95 19.25 -97.4 20.0 -99.15 20.35 -101.65 20.1 -100.65 18.6 -94.6 17.9 -93.3 15.4 Q-91.8 13.25 -89.9 12.6 L-90.3 13.6 -91.55 15.75 Q-92.35 17.1 -92.35 17.7 -92.35 18.3 -92.05 18.35 M-46.7 25.6 L-46.9 30.1 -47.65 30.1 -47.65 25.6 -46.7 25.6 M-65.45 41.0 L-67.65 40.35 -59.15 39.15 -49.65 37.35 -49.9 38.1 Q-52.2 39.05 -55.05 39.9 -59.8 41.35 -62.8 41.35 L-65.45 41.0 M-77.0 13.2 Q-76.15 15.2 -76.65 16.6 L-77.15 17.1 -78.1 14.2 Q-79.1 11.6 -80.65 10.85 L-80.15 10.35 Q-78.0 10.9 -77.0 13.2 M-76.9 22.6 L-76.9 23.05 -77.65 28.6 -78.15 29.1 -78.6 28.7 -78.65 26.75 -78.25 24.95 Q-77.7 23.4 -76.9 22.6 M-146.95 -39.0 L-146.65 -38.25 Q-144.5 -35.75 -141.8 -34.25 L-144.95 -34.7 Q-146.1 -35.15 -146.75 -37.75 L-146.95 -39.0 M-149.2 -43.95 Q-148.55 -43.2 -148.35 -42.0 L-149.4 -42.75 Q-151.4 -43.8 -154.65 -44.75 L-154.55 -45.0 -154.15 -45.5 Q-150.45 -45.4 -149.2 -43.95 M-134.2 -27.3 L-138.35 -31.5 -140.3 -33.55 Q-137.35 -32.15 -136.7 -31.55 -131.3 -26.55 -130.3 -24.6 -129.65 -23.2 -129.65 -18.3 L-129.85 -14.95 -130.35 -11.6 Q-130.7 -10.55 -133.65 -8.8 -136.55 -7.1 -137.65 -7.25 -132.95 -9.9 -131.75 -12.0 -130.65 -13.85 -130.65 -18.6 -130.65 -22.35 -131.15 -23.7 -131.75 -25.3 -134.2 -27.3 M-173.15 -38.65 L-171.75 -40.25 -171.9 -39.1 Q-173.0 -37.15 -175.6 -33.35 -177.3 -30.9 -177.95 -29.0 -179.6 -24.45 -179.75 -8.6 -180.5 -13.35 -180.5 -15.0 -180.5 -25.5 -176.15 -33.9 -174.75 -36.55 -173.15 -38.65 M-205.75 -0.75 L-205.0 -1.5 -202.9 -1.15 -201.5 -0.75 Q-204.3 -0.6 -205.95 0.25 L-208.3 1.6 Q-209.55 2.25 -210.5 2.1 L-209.5 0.75 Q-206.65 0.15 -205.75 -0.75 M16.45 9.65 Q24.65 11.4 38.85 13.1 L56.95 14.95 Q39.8 18.05 32.7 21.05 27.6 24.0 24.8 25.2 22.4 25.9 8.1 22.4 -8.85 18.2 -19.45 17.7 -10.5 17.75 0.7 15.1 11.25 12.65 16.45 9.65 M89.85 24.35 Q89.25 24.35 86.65 23.35 L86.05 23.1 Q90.3 23.1 91.15 22.15 L96.1 14.6 Q96.1 16.35 94.65 19.8 92.65 24.35 89.85 24.35 M82.6 20.05 Q81.75 18.85 81.1 18.85 73.35 19.25 70.35 19.1 L70.8 18.35 Q72.55 17.35 73.85 17.35 L78.05 17.5 82.2 18.05 Q83.15 18.55 84.55 20.9 L85.8 23.0 84.2 22.35 82.6 20.05 M82.35 14.1 L82.45 13.85 82.85 13.35 90.6 13.65 Q93.85 13.95 95.35 15.1 L95.15 15.15 82.35 14.1 M96.1 4.6 Q95.1 7.3 95.1 9.1 L93.35 9.1 93.7 5.95 Q93.95 4.5 95.1 4.5 L96.1 4.6 M129.35 16.1 L124.0 16.25 114.35 16.1 114.45 15.85 Q117.1 15.0 129.35 16.1 M163.35 15.1 L163.05 15.3 161.0 15.8 Q161.35 16.6 160.85 17.1 160.4 16.4 159.35 16.25 L145.15 16.15 135.35 15.35 155.25 14.7 159.4 14.45 158.65 12.05 158.35 10.6 159.1 10.6 Q159.55 11.45 159.8 13.8 160.45 15.6 163.35 15.1 M195.0 21.8 L193.35 22.1 Q193.45 20.85 193.85 20.35 L196.0 21.8 195.0 21.8 M196.9 22.6 L197.85 24.1 198.35 25.85 Q198.35 28.85 195.85 34.05 L193.35 39.35 Q193.35 40.3 195.15 41.65 197.9 43.7 199.1 45.1 L197.95 45.15 Q194.4 45.2 193.2 43.65 192.35 42.5 192.35 39.35 192.35 37.4 194.9 32.2 197.45 27.0 197.45 25.15 L197.15 23.15 196.9 22.6 M219.1 39.6 L218.2 40.45 215.8 42.5 213.35 44.1 214.2 43.1 Q214.75 42.0 216.35 40.75 218.1 39.4 219.1 39.6 M248.35 -14.75 L255.05 -18.05 Q255.8 -18.35 258.05 -21.0 L261.1 -24.25 260.4 -22.85 Q258.05 -19.4 254.7 -16.75 250.55 -13.45 248.35 -14.75 M264.95 -40.15 L264.35 -38.75 262.85 -41.55 261.35 -44.0 262.1 -44.25 262.75 -43.55 Q264.85 -41.35 264.95 -40.15 M228.55 -5.8 Q227.7 -3.0 227.35 -2.75 L228.75 -1.85 Q229.8 -1.0 230.35 0.25 227.65 0.35 226.8 -0.75 226.35 -1.3 226.35 -2.75 L227.3 -4.25 Q228.55 -6.0 229.6 -8.15 230.8 -9.65 231.7 -9.5 232.25 -9.45 233.35 -8.75 230.05 -8.55 228.55 -5.8 M176.35 -6.25 L177.25 -6.25 Q177.1 -2.55 178.5 -1.05 179.35 -0.15 181.65 0.4 184.0 0.9 184.85 1.75 186.35 3.2 186.35 6.75 186.35 11.3 183.2 13.35 180.15 15.35 173.85 15.35 L170.8 14.95 Q168.5 14.55 168.35 14.35 L175.85 13.85 175.85 13.35 Q180.65 14.7 183.35 11.45 185.35 9.0 185.35 5.7 L185.15 3.5 184.3 2.5 Q183.6 2.0 179.35 1.25 178.95 1.2 176.35 -2.0 L176.35 -6.25 M181.25 -19.75 Q180.35 -19.15 180.35 -20.25 L180.9 -21.45 Q181.5 -22.3 183.1 -23.25 L183.2 -22.15 Q183.2 -21.6 182.45 -20.85 L181.25 -19.75 M187.15 -25.95 Q189.25 -27.2 190.45 -27.65 192.3 -28.35 194.5 -28.35 L197.15 -28.0 199.5 -27.45 200.35 -26.75 194.25 -26.05 188.85 -25.5 186.35 -25.75 187.15 -25.95 M145.35 -8.75 L145.45 -9.0 145.85 -9.5 Q148.75 -10.3 150.0 -8.35 L151.65 -4.8 Q152.35 -3.7 152.35 -2.05 L151.9 0.45 Q151.15 3.0 149.35 4.1 150.05 4.25 151.4 5.35 152.9 6.55 154.35 7.1 150.45 7.2 149.1 5.9 148.35 5.2 148.35 3.75 148.35 3.35 149.85 0.45 L151.35 -2.45 151.1 -3.75 150.6 -4.8 149.35 -7.5 Q148.0 -9.25 145.35 -8.75 M103.75 -9.25 L105.1 -10.25 105.05 -9.9 Q103.85 -8.1 102.35 -7.75 L102.45 -8.0 103.75 -9.25 M99.5 -3.05 L100.75 -4.15 102.1 -5.25 102.05 -4.9 Q101.25 -3.7 99.35 -2.75 L99.5 -3.05" fill="#ffffff" fill-rule="evenodd" stroke="none"/>
  </g>
</svg>
