<?xml version="1.0" encoding="UTF-8" standalone="no"?>
<svg xmlns:xlink="http://www.w3.org/1999/xlink" height="84.85px" width="471.6px" xmlns="http://www.w3.org/2000/svg">
  <g transform="matrix(1.0, 0.0, 0.0, 1.0, 214.5, 40.25)">
    <path d="M-186.5 7.35 L-183.5 7.6 Q-183.2 9.5 -183.7 10.9 -184.15 12.1 -184.75 12.1 L-187.25 11.85 -186.5 7.35 M-92.9 10.35 Q-90.55 9.5 -90.4 9.25 -90.2 10.45 -91.15 12.3 -92.1 14.1 -92.9 14.1 L-95.4 13.85 Q-95.2 11.55 -92.9 10.35 M-137.9 -10.75 L-134.4 -10.5 Q-133.15 -6.2 -137.4 -6.2 L-138.15 -6.3 -138.3 -6.4 -138.4 -8.0 Q-138.4 -9.45 -137.9 -10.75 M-203.5 -13.75 L-202.85 -14.45 -201.0 -17.45 -199.0 -21.0 Q-197.75 -21.25 -196.0 -19.75 -196.0 -18.15 -198.9 -15.85 -201.8 -13.5 -203.5 -13.75 M15.1 15.6 L15.1 13.6 Q13.65 13.6 13.3 14.0 L12.1 15.6 15.1 15.6 M12.35 9.35 L17.35 9.6 Q17.5 10.3 18.3 10.6 18.95 12.15 18.6 19.6 L8.85 19.35 Q8.1 18.6 8.1 16.75 8.1 13.45 9.15 12.0 9.6 11.35 12.35 9.35 M177.35 28.35 L174.35 28.1 174.1 25.1 177.35 25.6 177.35 28.35 M239.35 -17.75 L240.35 -21.5 243.35 -21.25 243.35 -17.5 239.35 -17.75 M167.35 -4.5 L163.35 -4.75 Q164.05 -5.95 164.15 -7.6 164.5 -8.5 167.35 -8.0 L167.45 -6.1 167.35 -4.5" fill="#5ad9fe" fill-rule="evenodd" stroke="none"/>
    <path d="M-214.5 38.1 L-213.9 37.6 -212.9 37.05 -210.75 36.6 -211.15 37.9 -214.5 38.1 M-207.25 24.75 L-206.15 25.8 Q-205.5 26.3 -205.5 28.6 -205.5 30.55 -206.15 31.45 -206.7 32.15 -208.5 33.1 L-208.15 32.15 Q-206.7 29.85 -206.9 27.45 L-207.3 24.65 -207.25 24.75 M-212.0 15.35 L-208.7 15.75 -205.75 16.0 Q-205.55 16.65 -205.6 17.65 -205.65 18.65 -205.85 18.85 L-207.5 16.6 -212.5 16.1 -212.6 15.65 Q-212.6 15.35 -212.0 15.35 M-187.5 4.1 Q-190.7 4.45 -190.8 3.75 -191.0 2.2 -191.5 1.85 L-190.75 1.6 -190.05 2.3 Q-189.2 3.1 -187.5 4.1 M-167.5 17.6 L-166.7 17.75 -163.65 19.1 Q-166.45 19.55 -167.15 18.8 L-167.5 17.6 M-86.9 11.6 L-87.65 12.15 Q-89.1 13.15 -92.5 14.6 -95.85 16.1 -96.65 16.1 L-92.1 13.6 Q-88.6 11.85 -86.9 11.6 M-132.1 -11.55 Q-132.75 -10.45 -133.65 -9.75 L-133.5 -11.3 Q-133.05 -13.1 -132.45 -13.8 L-131.9 -14.25 -131.65 -12.75 -132.1 -11.55 M-137.15 -30.5 Q-135.55 -30.45 -133.5 -27.1 -132.0 -24.7 -131.65 -23.5 -131.45 -22.0 -134.35 -25.65 L-137.65 -30.0 -137.15 -30.5 M-180.2 -26.3 Q-179.95 -27.15 -178.75 -28.25 L-178.75 -27.75 -178.8 -25.15 Q-178.95 -24.2 -180.5 -22.75 L-180.2 -26.3 M-171.75 -40.25 L-171.9 -39.5 Q-172.15 -38.75 -173.4 -37.9 -174.5 -37.1 -175.5 -36.75 L-175.05 -37.4 -173.7 -38.7 -171.75 -40.25 M-206.75 -1.25 L-206.8 -0.8 -208.1 1.35 Q-208.95 2.65 -209.5 3.1 -209.7 2.25 -208.95 0.85 -208.05 -0.75 -206.75 -1.25 M15.55 18.5 L13.15 18.85 7.35 18.1 7.75 17.4 12.8 13.45 Q16.4 11.65 19.1 15.35 L15.55 18.5 M22.65 18.2 L21.35 18.1 21.45 17.85 21.85 17.35 Q24.15 17.9 24.35 18.1 L22.65 18.2 M86.8 22.15 Q86.4 21.85 86.35 20.85 86.95 20.25 89.05 19.15 91.05 18.15 92.35 16.6 L89.35 17.1 89.4 16.45 Q89.55 15.75 89.85 15.35 L93.1 15.6 Q93.85 17.35 90.75 19.8 88.4 21.65 86.8 22.15 M146.85 3.35 L149.85 3.65 152.35 4.1 Q151.85 4.35 146.35 4.1 L146.25 3.65 Q146.25 3.35 146.85 3.35 M153.85 11.35 L154.55 11.7 Q155.5 12.75 157.0 13.55 158.45 14.3 159.1 15.1 L158.95 15.1 155.3 14.15 Q153.9 13.75 153.35 11.85 L153.85 11.35 M201.1 44.1 L193.35 43.1 193.35 38.6 Q194.25 36.7 194.35 33.6 L195.3 33.6 Q195.15 39.75 194.35 41.85 L199.85 42.85 Q200.8 43.15 201.1 44.1 M212.35 43.25 Q212.35 40.8 214.1 40.6 214.3 42.7 213.55 43.7 L212.55 44.6 212.35 43.25 M252.75 -17.85 Q256.35 -20.85 257.1 -21.25 256.5 -19.4 254.45 -18.05 252.8 -17.0 251.35 -16.75 L252.0 -17.15 252.75 -17.85 M228.85 -4.5 L227.35 -4.75 Q227.15 -9.15 229.0 -9.45 L231.35 -8.75 229.7 -7.15 Q229.05 -6.45 228.85 -4.5 M177.35 -5.25 L178.1 -5.25 179.95 -2.55 Q181.95 -0.05 184.35 0.25 L183.6 1.4 182.2 1.5 Q180.85 1.5 179.2 -0.1 177.05 -2.15 177.35 -5.25 M197.45 -30.9 L197.35 -30.55 Q195.9 -29.65 194.95 -29.25 193.3 -28.55 189.35 -27.75 L190.35 -29.25 197.1 -31.25 197.45 -30.9 M145.45 -7.0 L145.85 -7.5 Q152.05 -8.3 151.15 -3.1 150.8 -1.1 149.4 0.75 148.0 2.6 146.45 3.1 L146.55 2.95 148.85 0.05 Q150.35 -2.05 150.35 -3.5 150.35 -4.2 149.05 -4.95 L145.35 -6.75 145.45 -7.0" fill="#ffffff" fill-rule="evenodd" stroke="none"/>
  </g>
</svg>
