<?xml version="1.0" encoding="UTF-8" standalone="no"?>
<svg xmlns:xlink="http://www.w3.org/1999/xlink" height="161.9px" width="194.45px" xmlns="http://www.w3.org/2000/svg">
  <g transform="matrix(1.0, 0.0, 0.0, 1.0, 97.2, 80.95)">
    <path d="M1.2 -67.85 L22.65 -72.1 33.75 -73.25 53.85 -75.35 65.95 -76.1 65.05 -74.6 Q62.65 -70.6 58.45 -68.45 56.85 -67.5 55.1 -66.85 L53.3 -66.15 Q48.65 -64.75 44.15 -63.95 42.55 -63.65 41.15 -62.95 L41.25 -62.4 38.7 -61.85 39.8 -64.45 41.5 -65.4 Q49.0 -69.7 56.15 -74.6 49.3 -73.3 42.65 -71.4 34.1 -69.0 26.3 -64.95 L28.25 -65.1 22.75 -63.05 20.9 -62.0 20.65 -62.25 Q13.15 -59.3 9.9 -57.05 L8.2 -55.65 Q6.5 -54.25 4.9 -52.7 L0.85 -48.7 25.6 -50.15 19.9 -42.3 Q37.8 -41.4 37.8 -40.35 L58.3 -40.95 Q60.1 -42.05 63.55 -45.25 L76.65 -59.25 76.5 -60.1 69.2 -60.3 76.65 -61.1 78.95 -61.9 79.85 -62.1 80.9 -62.35 81.45 -64.0 82.0 -64.05 81.75 -62.3 80.7 -53.55 Q80.2 -48.15 77.65 -43.55 L75.55 -39.85 Q69.85 -30.65 61.85 -23.2 57.25 -18.95 53.2 -14.35 L53.1 -13.15 53.1 -12.8 57.15 -10.25 Q76.05 -19.9 86.4 -28.7 L86.7 -12.45 Q86.55 -8.55 85.05 -4.65 83.55 -0.7 82.3 0.55 75.85 7.45 68.3 13.25 65.95 15.05 60.2 20.85 L63.4 22.5 87.75 12.75 Q87.75 14.8 85.95 19.15 82.55 27.45 79.4 34.15 L72.7 47.9 72.1 49.15 71.65 49.4 66.6 50.1 55.4 50.65 53.9 50.15 Q59.95 45.6 65.45 40.4 74.6 31.6 82.1 21.1 78.25 22.85 74.1 23.95 L68.6 24.9 Q61.95 25.6 55.6 27.25 L54.65 26.75 Q64.55 14.65 73.55 2.0 75.55 -0.85 77.0 -3.95 81.3 -13.1 83.1 -23.35 L68.85 -13.45 Q62.2 -8.9 55.3 -4.7 54.1 -3.95 53.6 -2.65 52.05 1.1 51.05 4.95 49.35 11.6 46.1 17.75 42.05 25.45 35.5 31.55 28.65 37.8 20.3 41.75 L15.5 44.2 Q15.0 44.45 14.9 44.9 13.85 48.65 13.6 52.75 13.15 58.0 10.6 62.4 12.85 63.5 15.45 63.75 L19.6 64.05 Q26.45 63.4 32.95 61.5 L36.25 60.55 37.4 60.1 Q42.25 58.05 46.75 55.15 L49.0 53.65 50.9 54.15 68.35 54.85 67.0 56.05 Q54.05 62.1 40.25 65.45 26.25 68.75 12.2 65.55 L12.1 65.6 11.7 65.45 11.5 65.4 7.85 64.6 7.0 64.35 Q9.5 59.85 10.2 54.4 L8.1 53.3 8.3 53.0 Q10.05 50.7 10.55 48.2 L10.3 46.85 Q10.2 45.45 9.6 44.35 8.95 43.0 8.85 41.35 L8.8 40.8 8.75 39.1 7.8 36.6 15.85 32.75 Q23.65 28.7 24.9 27.65 L31.6 22.45 34.7 19.8 36.65 19.9 39.7 12.05 40.25 10.35 42.15 10.4 43.3 10.35 44.15 10.4 Q44.65 9.9 47.15 9.4 L47.65 8.8 48.0 8.1 Q48.7 7.4 48.9 7.4 L48.9 5.75 Q49.4 4.6 49.4 3.05 49.4 -0.1 47.4 -3.6 L43.3 -4.55 41.35 -4.8 Q40.9 -9.45 39.7 -13.6 41.5 -14.65 42.45 -16.65 43.4 -18.75 43.4 -22.45 L43.3 -25.6 Q43.1 -26.9 42.4 -27.6 L32.65 -27.8 Q29.25 -32.2 24.65 -35.55 L24.55 -38.45 Q24.3 -40.35 23.65 -41.85 L12.25 -42.05 Q8.65 -43.4 4.65 -44.35 L-2.35 -44.9 -9.35 -45.1 -16.1 -36.35 Q-22.15 -28.65 -27.25 -22.95 -35.95 -13.4 -45.6 -6.0 L-44.2 -19.05 Q-43.75 -23.0 -42.75 -26.8 L-42.45 -26.8 -39.55 -26.65 -40.75 -21.45 -36.7 -26.7 -28.85 -26.6 Q-27.3 -27.8 -26.75 -28.7 -26.05 -29.8 -26.35 -30.85 L-30.6 -30.45 -34.05 -30.15 -29.45 -35.9 -27.85 -35.6 -27.85 -37.9 -18.75 -48.8 Q-12.1 -56.5 -4.5 -63.15 L1.2 -67.85 M37.85 -24.0 Q37.7 -22.5 37.0 -20.75 L35.4 -23.75 37.85 -24.0 M41.65 -0.5 L42.05 -0.45 43.9 -0.1 44.6 1.2 45.4 2.3 45.35 3.2 44.1 4.65 Q43.15 5.7 43.15 5.9 L41.15 6.45 Q41.65 3.65 41.65 1.15 L41.65 -0.5 M-38.45 -39.25 L-36.9 -43.0 Q-33.35 -51.4 -25.35 -57.1 L-21.5 -60.25 Q-18.85 -62.35 -15.65 -63.7 -12.2 -65.15 -7.35 -66.15 L-0.35 -67.55 Q-18.75 -60.0 -30.8 -44.25 L-34.05 -39.45 -37.85 -39.6 -38.45 -39.25 M-45.55 -29.1 L-46.35 -26.85 -46.35 -6.9 Q-49.5 -5.4 -52.1 -5.35 L-55.0 -6.4 -53.2 -14.75 Q-51.35 -23.15 -48.35 -29.6 -45.3 -36.15 -42.45 -40.3 L-42.55 -39.95 -43.4 -36.55 -43.85 -36.6 Q-45.6 -34.4 -45.8 -31.65 -46.05 -30.7 -45.6 -29.1 L-45.55 -29.1 M-40.6 -32.35 L-38.5 -34.4 -36.0 -35.85 -38.55 -29.9 -39.55 -29.9 -40.1 -30.05 -39.85 -30.1 -39.85 -32.35 -40.6 -32.35" fill="#23221f" fill-rule="evenodd" stroke="none"/>
    <path d="M38.7 -61.85 L41.25 -62.4 41.15 -62.95 Q42.55 -63.65 44.15 -63.95 48.65 -64.75 53.3 -66.15 L55.1 -66.85 Q56.85 -67.5 58.45 -68.45 62.65 -70.6 65.05 -74.6 L65.95 -76.1 53.85 -75.35 33.75 -73.25 22.65 -72.1 1.2 -67.85 -0.35 -67.55 -7.35 -66.15 Q-12.2 -65.15 -15.65 -63.7 -18.85 -62.35 -21.5 -60.25 L-25.35 -57.1 Q-33.35 -51.4 -36.9 -43.0 L-38.45 -39.25 Q-41.35 -37.75 -42.7 -36.5 L-43.4 -36.55 -42.55 -39.95 -42.45 -40.3 Q-45.3 -36.15 -48.35 -29.6 -51.35 -23.15 -53.2 -14.75 L-55.0 -6.4 -52.1 -5.35 Q-49.5 -5.4 -46.35 -6.9 L-46.35 -26.85 -45.55 -29.1 -45.2 -29.05 -44.45 -28.2 -43.85 -26.85 -42.75 -26.8 Q-43.75 -23.0 -44.2 -19.05 L-45.6 -6.0 Q-35.95 -13.4 -27.25 -22.95 -22.15 -28.65 -16.1 -36.35 L-9.35 -45.1 -2.35 -44.9 4.65 -44.35 Q8.65 -43.4 12.25 -42.05 L11.65 -42.1 10.65 -41.45 Q9.65 -40.85 9.65 -39.35 L9.7 -37.8 Q3.35 -40.85 0.65 -40.85 L-5.85 -40.6 -7.1 -38.4 Q-12.35 -29.6 -20.75 -20.5 -31.6 -8.75 -42.65 -2.85 L-46.3 -1.1 -48.0 -1.15 -48.4 7.7 -48.9 18.5 -49.1 22.7 Q-36.7 39.8 -17.65 39.35 L-14.45 39.15 -8.8 38.1 Q-4.1 36.8 0.3 34.25 1.0 33.1 2.5 32.45 L8.9 29.65 13.5 26.9 Q15.65 25.8 19.15 24.4 24.3 22.2 27.85 18.5 L29.25 16.85 14.55 16.7 Q12.1 20.05 8.85 22.95 1.95 29.1 -7.25 30.75 L-14.45 31.5 Q-20.65 31.55 -26.8 29.7 -32.5 27.9 -37.05 24.15 L-39.2 22.2 -39.1 22.1 Q-30.95 9.2 -20.95 -2.45 -18.65 -5.2 -15.25 -6.65 L-14.45 -6.95 Q-6.1 -10.2 1.25 -5.35 7.4 -1.9 10.9 3.95 L12.0 5.95 15.45 12.3 15.7 12.95 31.4 13.15 32.45 13.15 32.65 12.95 32.65 12.9 32.85 12.9 33.2 12.95 34.75 9.65 40.25 10.35 39.7 12.05 36.65 19.9 34.7 19.8 31.6 22.45 24.9 27.65 Q23.65 28.7 15.85 32.75 L7.8 36.6 8.75 39.1 8.8 40.8 8.85 41.35 Q8.95 43.0 9.6 44.35 10.2 45.45 10.3 46.85 L10.55 48.2 Q10.05 50.7 8.3 53.0 L8.1 53.3 10.2 54.4 Q9.5 59.85 7.0 64.35 L7.85 64.6 11.5 65.4 11.7 65.45 12.1 65.6 12.2 65.55 Q26.25 68.75 40.25 65.45 54.05 62.1 67.0 56.05 L68.35 54.85 50.9 54.15 49.0 53.65 Q35.55 50.25 32.25 48.7 26.65 46.05 26.65 40.9 L30.65 41.15 Q32.9 42.8 39.95 45.4 L53.9 50.15 55.4 50.65 66.6 50.1 71.65 49.4 72.1 49.15 72.7 47.9 79.4 34.15 Q82.55 27.45 85.95 19.15 87.75 14.8 87.75 12.75 L63.4 22.5 60.2 20.85 Q65.95 15.05 68.3 13.25 75.85 7.45 82.3 0.55 83.55 -0.7 85.05 -4.65 86.55 -8.55 86.7 -12.45 L86.4 -28.7 Q76.05 -19.9 57.15 -10.25 L53.1 -12.8 53.1 -13.15 53.2 -14.35 Q57.25 -18.95 61.85 -23.2 69.85 -30.65 75.55 -39.85 L77.65 -43.55 Q80.2 -48.15 80.7 -53.55 L81.75 -62.3 82.0 -64.05 81.45 -64.0 80.9 -62.35 79.85 -62.1 78.95 -61.9 76.65 -61.1 69.2 -60.3 68.65 -60.1 65.7 -59.9 58.65 -59.1 51.1 -58.65 46.25 -58.15 Q40.3 -57.55 35.0 -54.6 L31.5 -52.55 Q34.25 -49.45 38.15 -48.5 L39.45 -48.3 42.3 -43.6 40.2 -44.2 33.3 -49.6 25.8 -55.85 26.35 -56.4 26.5 -56.95 26.7 -56.75 28.2 -57.75 Q33.05 -60.75 38.7 -61.85 M24.65 -35.55 Q29.25 -32.2 32.65 -27.8 L30.9 -27.85 Q29.75 -26.7 29.45 -25.85 L28.9 -23.6 Q32.15 -23.45 34.3 -23.65 L35.4 -23.75 37.0 -20.75 36.2 -19.05 34.95 -16.95 32.35 -16.45 29.3 -21.9 28.65 -23.35 Q27.0 -26.6 25.3 -28.25 L25.4 -28.35 Q26.1 -30.5 24.65 -34.5 L24.65 -34.85 24.65 -35.55 M39.7 -13.6 Q40.9 -9.45 41.35 -4.8 L36.2 -5.1 34.4 -9.9 33.9 -12.65 35.15 -12.6 36.65 -12.65 38.15 -12.6 38.55 -13.1 39.7 -13.6 M74.7 -79.95 L64.05 -66.85 86.6 -69.3 88.3 -69.5 87.35 -62.65 86.95 -60.0 Q86.0 -54.45 84.25 -49.1 82.35 -43.15 79.55 -37.8 75.7 -30.5 70.05 -24.2 77.1 -26.35 86.85 -34.0 L89.85 -36.35 90.6 -32.1 Q91.6 -26.5 91.7 -22.45 91.85 -17.05 90.8 -7.25 89.65 2.55 80.6 10.85 90.55 5.1 97.25 3.2 92.95 17.85 85.25 34.55 82.3 40.95 78.65 47.25 L78.65 51.9 Q77.3 52.25 76.4 52.9 75.65 53.45 75.65 53.9 L74.5 54.05 69.95 60.8 Q65.05 63.25 60.0 65.35 46.35 70.85 31.9 72.65 17.35 74.55 3.8 68.85 L3.15 69.55 0.7 71.85 -2.25 74.2 -7.4 73.9 -11.25 73.7 -14.45 73.55 Q-27.75 72.95 -41.0 73.1 -44.9 73.2 -48.3 74.5 L-52.75 76.35 -58.8 70.5 Q-61.2 73.2 -63.05 76.55 L-76.05 71.05 -88.9 80.95 -97.2 76.3 Q-93.4 41.05 -92.45 35.9 -91.5 30.6 -83.7 22.6 L-67.25 5.45 -61.1 -1.1 -60.1 -2.2 -61.35 -6.85 Q-55.0 -28.05 -53.65 -31.4 -50.35 -39.65 -45.35 -46.3 -41.0 -52.3 -35.35 -57.1 L-30.85 -60.55 Q-27.9 -63.55 -16.4 -67.85 L-5.95 -71.45 Q-1.45 -72.95 6.55 -74.65 L41.85 -80.0 Q58.3 -81.95 74.7 -79.95 M17.9 -37.55 L18.9 -36.55 20.2 -35.3 20.15 -34.2 20.2 -33.7 19.3 -32.6 18.9 -32.85 Q16.05 -34.65 12.0 -36.7 L13.15 -36.6 Q13.15 -36.85 14.9 -37.2 L17.9 -37.55 M35.9 6.85 Q37.65 2.5 37.65 1.05 L37.35 -1.15 41.65 -0.5 41.65 1.15 Q41.65 3.65 41.15 6.45 L40.45 6.7 38.15 7.15 35.9 6.85 M3.4 3.85 Q0.1 -0.5 -5.45 -0.65 -10.2 -0.8 -14.45 1.05 L-16.4 2.0 Q-20.95 4.45 -23.55 8.55 -19.3 5.05 -14.45 3.25 -9.3 1.3 -3.45 1.25 -2.2 2.35 -0.2 2.3 L0.65 2.4 3.4 3.85 M6.8 14.0 L5.6 15.9 0.2 21.4 2.6 20.45 Q6.1 18.95 8.3 15.8 L6.8 14.0 M-45.45 63.45 L-39.15 66.7 -20.65 49.85 -14.45 52.3 -11.95 53.1 Q-10.2 53.55 -8.6 55.0 -4.8 58.15 -0.45 58.5 L0.3 57.35 Q2.75 54.4 4.5 51.0 L5.8 48.0 Q6.35 46.65 6.2 45.3 L5.75 43.55 4.8 41.75 4.5 41.2 3.75 40.1 Q-5.15 43.45 -14.45 44.9 L-23.4 45.85 Q-26.0 46.0 -28.7 44.5 -43.7 37.0 -54.35 22.95 L-54.3 19.95 -54.15 6.05 -54.05 -0.55 -77.05 22.7 -83.6 28.05 Q-86.05 31.6 -88.1 38.3 L-88.6 40.15 -90.05 47.9 -91.85 73.05 -90.0 72.6 -88.15 72.2 Q-83.15 70.5 -75.4 63.55 -73.55 65.35 -71.2 66.7 -69.0 68.0 -66.45 68.9 L-64.2 69.55 -53.0 58.85 -51.0 60.15 -45.45 63.45 M6.3 57.5 L5.35 57.2 0.05 65.35 Q-7.0 58.6 -14.45 57.8 -20.15 57.15 -26.1 60.0 -29.65 61.7 -32.35 65.3 L-33.7 67.05 Q-24.05 66.9 -14.45 67.2 L-8.05 67.4 -5.05 67.5 -4.1 67.5 Q-2.65 67.0 -1.35 66.3 1.1 64.9 2.85 62.7 L4.3 60.4 6.3 57.5 M-14.45 8.6 Q-20.9 10.9 -25.5 16.25 -20.45 20.3 -14.45 20.6 L-10.9 20.45 Q-7.15 19.9 -4.0 17.75 0.95 14.4 3.9 8.95 -5.05 5.25 -14.15 8.5 L-14.45 8.6 M-25.35 24.35 L-21.6 24.75 -27.95 19.0 -31.2 22.4 Q-28.5 23.95 -25.35 24.35 M-55.6 67.4 L-55.45 67.55 Q-51.65 70.95 -46.45 68.7 -49.55 67.5 -52.7 66.55 -53.95 66.1 -55.15 67.0 L-55.45 67.25 -55.6 67.4" fill="#000000" fill-rule="evenodd" stroke="none"/>
    <path d="M1.2 -67.85 L-4.5 -63.15 Q-12.1 -56.5 -18.75 -48.8 L-27.85 -37.9 -27.85 -38.35 Q-30.1 -38.85 -30.6 -39.35 L-34.05 -39.45 -30.8 -44.25 Q-18.75 -60.0 -0.35 -67.55 L1.2 -67.85 M-29.45 -35.9 L-34.05 -30.15 -38.55 -29.9 -36.0 -35.85 -33.6 -36.35 -29.8 -35.95 -29.45 -35.9 M-36.7 -26.7 L-40.75 -21.45 -39.55 -26.65 -37.85 -26.6 -37.65 -26.75 -36.7 -26.7 M49.0 53.65 L46.75 55.15 Q42.25 58.05 37.4 60.1 L36.25 60.55 32.95 61.5 Q26.45 63.4 19.6 64.05 L15.45 63.75 Q12.85 63.5 10.6 62.4 13.15 58.0 13.6 52.75 13.85 48.65 14.9 44.9 15.0 44.45 15.5 44.2 L20.3 41.75 Q28.65 37.8 35.5 31.55 42.05 25.45 46.1 17.75 49.35 11.6 51.05 4.95 52.05 1.1 53.6 -2.65 54.1 -3.95 55.3 -4.7 62.2 -8.9 68.85 -13.45 L83.1 -23.35 Q81.3 -13.1 77.0 -3.95 75.55 -0.85 73.55 2.0 64.55 14.65 54.65 26.75 L55.6 27.25 Q61.95 25.6 68.6 24.9 L74.1 23.95 Q78.25 22.85 82.1 21.1 74.6 31.6 65.45 40.4 59.95 45.6 53.9 50.15 L39.95 45.4 Q32.9 42.8 30.65 41.15 L26.65 40.9 Q26.65 46.05 32.25 48.7 35.55 50.25 49.0 53.65 M69.2 -60.3 L76.5 -60.1 76.65 -59.25 63.55 -45.25 Q60.1 -42.05 58.3 -40.95 L37.8 -40.35 Q37.8 -41.4 19.9 -42.3 L25.6 -50.15 0.85 -48.7 4.9 -52.7 Q6.5 -54.25 8.2 -55.65 L9.9 -57.05 Q13.15 -59.3 20.65 -62.25 L20.9 -62.0 22.75 -63.05 28.25 -65.1 26.3 -64.95 Q34.1 -69.0 42.65 -71.4 49.3 -73.3 56.15 -74.6 49.0 -69.7 41.5 -65.4 L39.8 -64.45 38.7 -61.85 Q33.05 -60.75 28.2 -57.75 L26.7 -56.75 26.5 -56.95 26.35 -56.4 25.8 -55.85 33.3 -49.6 40.2 -44.2 42.3 -43.6 39.45 -48.3 38.15 -48.5 Q34.25 -49.45 31.5 -52.55 L35.0 -54.6 Q40.3 -57.55 46.25 -58.15 L51.1 -58.65 58.65 -59.1 65.7 -59.9 68.65 -60.1 69.2 -60.3" fill="#010000" fill-rule="evenodd" stroke="none"/>
    <path d="M-27.85 -37.9 L-27.85 -35.6 -29.45 -35.9 -29.8 -35.95 -33.6 -36.35 -36.0 -35.85 -38.5 -34.4 -40.6 -32.35 -41.35 -32.5 Q-41.1 -33.1 -41.0 -33.85 -40.85 -34.7 -40.85 -36.35 L-42.7 -36.5 Q-41.35 -37.75 -38.45 -39.25 L-37.85 -39.6 -34.05 -39.45 -30.6 -39.35 Q-30.1 -38.85 -27.85 -38.35 L-27.85 -37.9 M-34.05 -30.15 L-30.6 -30.45 -26.35 -30.85 Q-26.05 -29.8 -26.75 -28.7 -27.3 -27.8 -28.85 -26.6 L-36.7 -26.7 -37.65 -26.75 -37.1 -27.1 -37.15 -27.95 -37.35 -29.35 -39.55 -29.9 -38.55 -29.9 -34.05 -30.15 M-42.45 -26.8 L-42.75 -26.8 -43.85 -26.85 -44.45 -28.2 -43.1 -26.85 -42.45 -26.8 M12.25 -42.05 L23.65 -41.85 Q24.3 -40.35 24.55 -38.45 L24.65 -35.55 24.65 -34.85 24.65 -34.5 24.3 -35.4 24.25 -35.6 Q23.9 -36.6 23.9 -37.1 L23.55 -37.1 Q22.25 -39.95 20.9 -41.1 L17.4 -41.35 17.4 -41.1 Q17.15 -41.1 16.75 -41.7 16.65 -41.85 16.65 -40.45 16.65 -39.05 17.9 -37.55 L14.9 -37.2 Q13.15 -36.85 13.15 -36.6 L12.0 -36.7 9.9 -36.85 9.7 -37.45 9.7 -37.8 9.65 -39.35 Q9.65 -40.85 10.65 -41.45 L11.65 -42.1 12.25 -42.05 M32.65 -27.8 L42.4 -27.6 Q43.1 -26.9 43.3 -25.6 L43.4 -22.45 Q43.4 -18.75 42.45 -16.65 41.5 -14.65 39.7 -13.6 L38.55 -13.1 39.5 -14.85 39.9 -14.85 Q39.9 -15.2 40.2 -15.65 L40.65 -16.1 40.65 -17.7 41.9 -21.6 Q41.9 -23.3 41.6 -23.75 41.5 -23.95 40.4 -24.6 L37.9 -24.85 37.85 -24.0 35.4 -23.75 34.3 -23.65 Q32.15 -23.45 28.9 -23.6 L29.45 -25.85 Q29.75 -26.7 30.9 -27.85 L32.65 -27.8 M41.35 -4.8 L43.3 -4.55 47.4 -3.6 Q49.4 -0.1 49.4 3.05 49.4 4.6 48.9 5.75 L48.9 2.9 47.75 2.8 47.5 1.75 Q46.65 -1.8 45.15 -2.6 45.05 -2.05 45.3 0.55 L45.4 2.3 44.6 1.2 43.9 -0.1 42.05 -0.45 41.65 -0.5 37.35 -1.15 35.65 -1.35 35.65 -5.1 36.2 -5.1 41.35 -4.8 M43.3 10.35 L42.15 10.4 40.25 10.35 34.75 9.65 33.85 9.4 Q30.0 8.2 28.3 5.7 26.65 3.3 27.15 0.65 L27.15 0.4 30.15 0.65 34.6 5.75 34.9 6.15 Q35.25 6.6 35.9 6.85 L38.15 7.15 40.45 6.7 41.15 6.45 43.15 5.9 Q43.15 5.7 44.1 4.65 L45.35 3.2 45.15 4.15 Q44.95 4.95 43.1 6.55 41.45 8.05 41.15 10.15 L43.3 10.35 M21.05 -32.4 L20.55 -30.5 Q19.9 -28.7 19.9 -27.6 L23.15 -27.4 23.1 -27.35 Q21.3 -24.35 17.4 -24.35 L8.4 -24.6 Q8.15 -25.35 8.15 -28.35 L14.4 -28.35 17.6 -31.05 18.35 -31.75 19.3 -32.6 20.2 -33.7 Q20.35 -32.8 21.05 -32.4 M34.95 -16.95 L33.4 -14.35 33.65 -12.85 36.65 -12.65 35.15 -12.6 33.9 -12.65 21.9 -14.1 Q21.65 -14.85 21.65 -16.85 L30.4 -16.1 32.35 -16.45 34.95 -16.95 M-54.3 19.95 L-54.45 20.7 -54.6 21.65 -54.8 23.05 -54.8 23.1 -54.8 23.5 -54.8 24.2 -54.6 25.95 -55.45 24.65 Q-56.65 22.65 -57.45 20.55 -58.55 17.65 -58.95 14.45 L-60.4 13.4 -60.2 13.15 Q-59.7 12.65 -59.35 11.95 L-57.45 8.75 -56.8 7.65 Q-56.15 6.65 -55.45 6.45 L-55.25 6.4 -54.9 6.35 -54.15 6.05 -54.3 19.95 M6.3 57.5 L4.3 60.4 2.85 62.7 Q1.1 64.9 -1.35 66.3 -2.65 67.0 -4.1 67.5 L-5.05 67.5 -8.05 67.4 -14.45 67.2 Q-24.05 66.9 -33.7 67.05 L-32.35 65.3 Q-29.65 61.7 -26.1 60.0 -20.15 57.15 -14.45 57.8 -7.0 58.6 0.05 65.35 L5.35 57.2 6.3 57.5 M-75.55 31.1 L-75.0 30.5 Q-71.75 40.15 -67.95 47.1 L-68.4 47.3 Q-71.95 49.4 -74.65 52.4 L-75.45 53.2 -78.7 56.05 Q-79.1 56.4 -79.6 56.45 L-80.3 57.0 Q-82.2 53.15 -83.1 48.35 L-85.8 45.8 Q-83.2 42.7 -81.05 39.0 -78.65 34.75 -75.55 31.1 M-64.65 18.25 L-63.4 20.35 Q-60.6 25.35 -57.45 29.9 L-57.05 30.45 -55.45 32.6 -53.4 35.0 -55.45 35.95 -57.45 37.05 -58.9 37.95 -61.9 39.9 -62.75 40.65 -64.55 42.55 Q-64.85 42.85 -64.8 43.4 L-64.7 44.25 Q-68.65 35.75 -71.5 26.8 L-71.7 26.6 -64.65 18.25 M-55.6 67.4 L-55.45 67.25 -55.15 67.0 Q-53.95 66.1 -52.7 66.55 -49.55 67.5 -46.45 68.7 -51.65 70.95 -55.45 67.55 L-55.6 67.4 M-86.55 50.7 Q-84.45 56.05 -81.85 61.25 -82.15 61.25 -82.4 61.5 -83.75 62.8 -84.95 64.65 L-85.65 65.4 Q-86.9 66.6 -87.85 68.1 -88.05 68.35 -88.35 68.3 L-89.7 67.85 -89.35 66.85 Q-88.85 65.65 -88.8 64.25 L-88.3 59.55 Q-87.55 54.5 -87.3 49.95 L-87.3 49.9 -86.55 50.7" fill="#9d6002" fill-rule="evenodd" stroke="none"/>
    <path d="M-39.55 -26.65 L-42.45 -26.8 -43.1 -26.85 -44.45 -28.2 -45.2 -29.05 -41.1 -28.85 Q-41.1 -29.95 -40.1 -30.05 L-39.55 -29.9 -37.35 -29.35 -37.15 -27.95 -37.1 -27.1 -37.65 -26.75 -37.85 -26.6 -39.55 -26.65 M48.0 8.1 L47.65 8.8 47.15 9.4 Q44.65 9.9 44.15 10.4 L43.3 10.35 41.15 10.15 Q41.45 8.05 43.1 6.55 44.95 4.95 45.15 4.15 L45.35 3.2 45.4 2.3 45.3 0.55 Q45.05 -2.05 45.15 -2.6 46.65 -1.8 47.5 1.75 L47.75 2.8 46.4 2.65 45.8 3.65 Q45.4 4.6 45.4 6.15 45.4 7.9 45.75 8.25 L47.4 8.65 48.0 8.1 M24.3 -35.4 L24.65 -34.5 Q26.1 -30.5 25.4 -28.35 L25.3 -28.25 Q24.4 -27.8 24.4 -27.35 L23.15 -27.4 19.9 -27.6 Q19.9 -28.7 20.55 -30.5 L21.05 -32.4 21.6 -32.2 24.9 -32.1 24.9 -32.85 24.4 -35.05 24.3 -35.4 M23.55 -37.1 L20.4 -37.35 20.2 -35.3 18.9 -36.55 17.9 -37.55 Q16.65 -39.05 16.65 -40.45 16.65 -41.85 16.75 -41.7 17.15 -41.1 17.4 -41.1 L17.4 -41.35 20.9 -41.1 Q22.25 -39.95 23.55 -37.1 M37.0 -20.75 Q37.7 -22.5 37.85 -24.0 L37.9 -24.85 40.4 -24.6 Q41.5 -23.95 41.6 -23.75 41.9 -23.3 41.9 -21.6 L40.65 -17.7 40.65 -19.85 37.65 -20.1 37.15 -19.25 Q36.65 -18.45 36.65 -16.95 L36.7 -15.35 36.9 -15.1 39.5 -14.85 38.55 -13.1 38.15 -12.6 36.65 -12.65 33.65 -12.85 33.4 -14.35 34.95 -16.95 36.2 -19.05 37.0 -20.75 M-54.3 19.95 L-54.35 22.95 Q-43.7 37.0 -28.7 44.5 -26.0 46.0 -23.4 45.85 L-14.45 44.9 Q-5.15 43.45 3.75 40.1 L4.5 41.2 4.8 41.75 5.75 43.55 6.2 45.3 Q6.35 46.65 5.8 48.0 L4.5 51.0 Q2.75 54.4 0.3 57.35 L-0.45 58.5 Q-4.8 58.15 -8.6 55.0 -10.2 53.55 -11.95 53.1 L-14.45 52.3 -20.65 49.85 -39.15 66.7 -45.45 63.45 -43.85 63.65 Q-43.15 63.55 -42.35 64.15 -40.75 65.25 -39.75 64.9 -38.9 64.65 -38.35 63.8 L-34.95 58.35 -35.3 58.1 -35.7 57.65 Q-35.7 56.7 -35.3 55.8 L-34.75 53.8 Q-36.9 53.5 -39.05 54.5 L-40.65 55.15 Q-45.65 56.9 -49.8 59.05 -50.8 59.55 -51.0 60.15 L-53.0 58.85 -64.2 69.55 -66.45 68.9 -65.7 68.25 -64.0 65.85 -62.2 63.3 -61.7 62.55 Q-61.95 63.5 -61.1 62.3 L-60.9 62.0 -60.85 61.4 Q-60.8 59.9 -62.4 60.5 L-63.05 60.7 -64.25 61.3 -64.95 61.8 -66.75 62.95 -68.35 64.15 -69.55 65.3 -71.2 66.7 Q-73.55 65.35 -75.4 63.55 -83.15 70.5 -88.15 72.2 L-90.0 72.6 -91.85 73.05 -90.05 47.9 -88.6 40.15 -88.1 38.3 Q-86.05 31.6 -83.6 28.05 L-77.05 22.7 -54.05 -0.55 -54.15 6.05 -54.9 6.35 -55.25 6.4 -55.45 6.45 Q-56.15 6.65 -56.8 7.65 L-57.45 8.75 -59.35 11.95 Q-59.7 12.65 -60.2 13.15 L-60.4 13.4 -58.95 14.45 Q-58.55 17.65 -57.45 20.55 -56.65 22.65 -55.45 24.65 L-54.6 25.95 -54.8 24.2 -54.8 23.5 -54.8 23.1 -54.8 23.05 -54.6 21.65 -54.45 20.7 -54.3 19.95 M3.8 47.3 Q4.1 45.9 2.35 45.1 L1.85 45.15 Q0.45 46.15 -1.25 45.4 L-1.35 45.4 Q-3.0 46.55 -4.95 47.2 L-8.75 47.9 Q-11.85 48.1 -13.95 50.5 -11.7 51.75 -9.9 53.4 L-7.45 55.4 -6.7 56.0 -5.4 56.9 Q-3.1 58.15 -1.7 57.35 L-1.15 57.0 Q2.1 54.1 3.25 50.3 L3.7 48.25 3.8 47.3 M-45.8 -31.65 Q-45.6 -34.4 -43.85 -36.6 L-43.4 -36.55 -42.7 -36.5 -40.85 -36.35 Q-40.85 -34.7 -41.0 -33.85 -41.1 -33.1 -41.35 -32.5 L-43.65 -33.05 Q-45.5 -33.1 -45.8 -31.65 M-36.75 49.45 L-40.4 47.05 Q-42.4 45.6 -43.45 45.0 L-45.3 43.7 -47.25 42.6 -48.35 44.7 -44.05 47.8 -39.65 50.55 Q-44.25 51.8 -46.35 53.75 L-46.3 53.8 -45.75 54.2 Q-45.55 53.75 -44.2 53.85 -43.4 53.3 -41.3 52.6 L-38.7 51.6 -37.15 52.15 -36.85 52.2 -36.35 51.45 -36.2 50.65 -36.3 50.2 -36.75 49.45 M-64.65 18.25 L-71.7 26.6 -71.5 26.8 Q-68.65 35.75 -64.7 44.25 L-64.8 43.4 Q-64.85 42.85 -64.55 42.55 L-62.75 40.65 -61.9 39.9 -58.9 37.95 -57.45 37.05 -55.45 35.95 -53.4 35.0 -55.45 32.6 -57.05 30.45 -57.45 29.9 Q-60.6 25.35 -63.4 20.35 L-64.65 18.25 M-75.55 31.1 Q-78.65 34.75 -81.05 39.0 -83.2 42.7 -85.8 45.8 L-83.1 48.35 Q-82.2 53.15 -80.3 57.0 L-79.6 56.45 Q-79.1 56.4 -78.7 56.05 L-75.45 53.2 -74.65 52.4 Q-71.95 49.4 -68.4 47.3 L-67.95 47.1 Q-71.75 40.15 -75.0 30.5 L-75.55 31.1 M-68.45 52.05 L-69.45 54.05 -65.5 58.65 -68.15 60.6 Q-69.35 61.5 -69.8 62.35 L-69.4 62.7 Q-68.95 61.7 -67.3 60.9 L-64.85 59.55 -63.15 60.15 Q-62.3 58.5 -62.6 57.5 -64.05 56.25 -64.85 54.75 -65.45 53.55 -68.1 51.7 L-68.45 52.05 M-86.55 50.7 L-87.3 49.9 -87.3 49.95 Q-87.55 54.5 -88.3 59.55 L-88.8 64.25 Q-88.85 65.65 -89.35 66.85 L-89.7 67.85 -88.35 68.3 Q-88.05 68.35 -87.85 68.1 -86.9 66.6 -85.65 65.4 L-84.95 64.65 Q-83.75 62.8 -82.4 61.5 -82.15 61.25 -81.85 61.25 -84.45 56.05 -86.55 50.7" fill="#f9a003" fill-rule="evenodd" stroke="none"/>
    <path d="M48.9 5.75 L48.9 7.4 Q48.7 7.4 48.0 8.1 L47.4 8.65 45.75 8.25 Q45.4 7.9 45.4 6.15 45.4 4.6 45.8 3.65 L46.4 2.65 47.75 2.8 48.9 2.9 48.9 5.75 M23.55 -37.1 L23.9 -37.1 Q23.9 -36.6 24.25 -35.6 L24.3 -35.4 24.4 -35.05 24.9 -32.85 24.9 -32.1 21.6 -32.2 21.05 -32.4 Q20.35 -32.8 20.2 -33.7 L20.15 -34.2 20.2 -35.3 20.4 -37.35 23.55 -37.1 M39.5 -14.85 L36.9 -15.1 36.7 -15.35 36.65 -16.95 Q36.65 -18.45 37.15 -19.25 L37.65 -20.1 40.65 -19.85 40.65 -17.7 40.65 -16.1 40.2 -15.65 Q39.9 -15.2 39.9 -14.85 L39.5 -14.85 M-71.2 66.7 L-69.55 65.3 -68.35 64.15 -66.75 62.95 -64.95 61.8 -64.25 61.3 -63.05 60.7 -62.4 60.5 Q-60.8 59.9 -60.85 61.4 L-60.9 62.0 -61.1 62.3 Q-61.95 63.5 -61.7 62.55 L-62.2 63.3 -64.0 65.85 -65.7 68.25 -66.45 68.9 Q-69.0 68.0 -71.2 66.7 M-51.0 60.15 Q-50.8 59.55 -49.8 59.05 -45.65 56.9 -40.65 55.15 L-39.05 54.5 Q-36.9 53.5 -34.75 53.8 L-35.3 55.8 Q-35.7 56.7 -35.7 57.65 L-35.3 58.1 -34.95 58.35 -38.35 63.8 Q-38.9 64.65 -39.75 64.9 -40.75 65.25 -42.35 64.15 -43.15 63.55 -43.85 63.65 L-45.45 63.45 -51.0 60.15 M3.8 47.3 L3.7 48.25 3.25 50.3 Q2.1 54.1 -1.15 57.0 L-1.7 57.35 Q-3.1 58.15 -5.4 56.9 L-6.7 56.0 -7.45 55.4 -9.9 53.4 Q-11.7 51.75 -13.95 50.5 -11.85 48.1 -8.75 47.9 L-4.95 47.2 Q-3.0 46.55 -1.35 45.4 L-1.25 45.4 Q0.45 46.15 1.85 45.15 L2.35 45.1 Q4.1 45.9 3.8 47.3 M-45.55 -29.1 L-45.6 -29.1 Q-46.05 -30.7 -45.8 -31.65 -45.5 -33.1 -43.65 -33.05 L-41.35 -32.5 -40.6 -32.35 -39.85 -32.35 -39.85 -30.1 -40.1 -30.05 Q-41.1 -29.95 -41.1 -28.85 L-45.2 -29.05 -45.55 -29.1 M-36.75 49.45 L-36.3 50.2 -36.2 50.65 -36.35 51.45 -36.85 52.2 -37.15 52.15 -38.7 51.6 -41.3 52.6 Q-43.4 53.3 -44.2 53.85 -45.55 53.75 -45.75 54.2 L-46.3 53.8 -46.35 53.75 Q-44.25 51.8 -39.65 50.55 L-44.05 47.8 -48.35 44.7 -47.25 42.6 -45.3 43.7 -43.45 45.0 Q-42.4 45.6 -40.4 47.05 L-36.75 49.45 M-68.45 52.05 L-68.1 51.7 Q-65.45 53.55 -64.85 54.75 -64.05 56.25 -62.6 57.5 -62.3 58.5 -63.15 60.15 L-64.85 59.55 -67.3 60.9 Q-68.95 61.7 -69.4 62.7 L-69.8 62.35 Q-69.35 61.5 -68.15 60.6 L-65.5 58.65 -69.45 54.05 -68.45 52.05" fill="#e1f3fd" fill-rule="evenodd" stroke="none"/>
    <path d="M23.15 -27.4 L24.4 -27.35 Q24.4 -27.8 25.3 -28.25 27.0 -26.6 28.65 -23.35 L29.3 -21.9 Q26.35 -24.9 23.1 -27.35 L23.15 -27.4 M12.0 -36.7 Q16.05 -34.65 18.9 -32.85 L19.3 -32.6 18.35 -31.75 17.6 -31.05 Q9.55 -35.8 -0.1 -37.6 L-4.85 -38.35 Q-17.55 -16.65 -39.5 -4.5 L-42.65 -2.85 Q-31.6 -8.75 -20.75 -20.5 -12.35 -29.6 -7.1 -38.4 L-5.85 -40.6 0.65 -40.85 Q3.35 -40.85 9.7 -37.8 L9.7 -37.45 9.9 -36.85 12.0 -36.7 M34.4 -9.9 L36.2 -5.1 35.65 -5.1 35.65 -1.35 37.35 -1.15 37.65 1.05 Q37.65 2.5 35.9 6.85 35.25 6.6 34.9 6.15 L34.6 5.75 Q35.7 -1.45 34.3 -8.75 L34.2 -9.1 33.55 -12.1 34.4 -9.9 M-48.9 18.5 L-48.2 21.55 Q-33.45 -9.0 -2.85 -23.95 L0.15 -25.3 Q16.35 -21.4 21.1 -11.65 25.8 -1.95 22.35 10.25 L31.4 13.15 15.7 12.95 15.45 12.3 12.0 5.95 10.9 3.95 Q7.4 -1.9 1.25 -5.35 -6.1 -10.2 -14.45 -6.95 L-15.25 -6.65 Q-18.65 -5.2 -20.95 -2.45 -30.95 9.2 -39.1 22.1 L-39.65 21.55 -36.4 10.85 -44.0 20.65 -46.9 23.45 Q-43.55 30.35 -35.6 33.35 -22.7 38.15 -8.8 38.1 L-14.45 39.15 -17.65 39.35 Q-36.7 39.8 -49.1 22.7 L-48.9 18.5 M32.85 12.9 L33.85 9.4 34.75 9.65 33.2 12.95 32.85 12.9 M-48.4 7.7 L-48.0 -1.15 -46.3 -1.1 -48.4 7.7" fill="#362822" fill-rule="evenodd" stroke="none"/>
    <path d="M23.1 -27.35 Q26.35 -24.9 29.3 -21.9 L32.35 -16.45 30.4 -16.1 21.65 -16.85 Q21.65 -14.85 21.9 -14.1 L33.9 -12.65 34.4 -9.9 33.55 -12.1 34.2 -9.1 34.3 -8.75 Q35.7 -1.45 34.6 5.75 L30.15 0.65 27.15 0.4 27.15 0.65 Q26.65 3.3 28.3 5.7 30.0 8.2 33.85 9.4 L32.85 12.9 32.65 12.9 32.65 12.95 32.45 13.15 31.4 13.15 22.35 10.25 Q25.8 -1.95 21.1 -11.65 16.35 -21.4 0.15 -25.3 L-2.85 -23.95 Q-33.45 -9.0 -48.2 21.55 L-48.9 18.5 -48.4 7.7 -46.3 -1.1 -42.65 -2.85 -39.5 -4.5 Q-17.55 -16.65 -4.85 -38.35 L-0.1 -37.6 Q9.55 -35.8 17.6 -31.05 L14.4 -28.35 8.15 -28.35 Q8.15 -25.35 8.4 -24.6 L17.4 -24.35 Q21.3 -24.35 23.1 -27.35" fill="#8f7f73" fill-rule="evenodd" stroke="none"/>
    <path d="M-39.1 22.1 L-39.2 22.2 -37.05 24.15 Q-32.5 27.9 -26.8 29.7 -20.65 31.55 -14.45 31.5 L-7.25 30.75 Q1.95 29.1 8.85 22.95 12.1 20.05 14.55 16.7 L29.25 16.85 27.85 18.5 Q24.3 22.2 19.15 24.4 15.65 25.8 13.5 26.9 L8.9 29.65 2.5 32.45 Q1.0 33.1 0.3 34.25 -4.1 36.8 -8.8 38.1 -22.7 38.15 -35.6 33.35 -43.55 30.35 -46.9 23.45 L-44.0 20.65 -36.4 10.85 -39.65 21.55 -39.1 22.1" fill="#030200" fill-rule="evenodd" stroke="none"/>
    <path d="M6.8 14.0 L8.3 15.8 Q6.1 18.95 2.6 20.45 L0.2 21.4 5.6 15.9 6.8 14.0 M3.4 3.85 L0.65 2.4 -0.2 2.3 Q-2.2 2.35 -3.45 1.25 -9.3 1.3 -14.45 3.25 -19.3 5.05 -23.55 8.55 -20.95 4.45 -16.4 2.0 L-14.45 1.05 Q-10.2 -0.8 -5.45 -0.65 0.1 -0.5 3.4 3.85 M-25.35 24.35 Q-28.5 23.95 -31.2 22.4 L-27.95 19.0 -21.6 24.75 -25.35 24.35" fill="#c62f53" fill-rule="evenodd" stroke="none"/>
    <path d="M-14.45 8.6 L-14.15 8.5 Q-5.05 5.25 3.9 8.95 0.95 14.4 -4.0 17.75 -7.15 19.9 -10.9 20.45 L-14.45 20.6 Q-20.45 20.3 -25.5 16.25 -20.9 10.9 -14.45 8.6" fill="#fece00" fill-rule="evenodd" stroke="none"/>
    <path d="M-15.7 11.45 L-13.55 11.55 Q-12.55 12.1 -12.25 13.2 -11.85 14.25 -12.35 15.25 -12.9 16.3 -14.0 16.65 L-16.1 16.45 Q-17.15 15.95 -17.45 14.9 -17.8 13.8 -17.25 12.75 -16.75 11.75 -15.7 11.45" fill="#000000" fill-rule="evenodd" stroke="none"/>
    <path d="M-19.85 16.5 Q-20.5 14.25 -19.45 12.25 -18.4 10.2 -16.2 9.5 -14.0 8.8 -12.0 9.85 -9.95 10.9 -9.2 13.1 -8.55 15.3 -9.6 17.35 -10.65 19.4 -12.85 20.1 -15.1 20.85 -17.15 19.8 -19.1 18.8 -19.8 16.7 -18.2 19.4 -15.15 19.95 L-14.15 18.95 -17.05 17.25 -18.35 13.8 -19.1 13.35 -19.4 14.1 Q-19.85 15.25 -19.85 16.5 M-15.7 11.45 Q-16.75 11.75 -17.25 12.75 -17.8 13.8 -17.45 14.9 -17.15 15.95 -16.1 16.45 L-14.0 16.65 Q-12.9 16.3 -12.35 15.25 -11.85 14.25 -12.25 13.2 -12.55 12.1 -13.55 11.55 L-15.7 11.45 M-12.25 16.6 L-12.6 17.25 -12.1 17.5 -13.3 17.3 -13.95 18.5 -13.85 19.05 -13.1 19.45 -12.6 19.15 Q-11.65 18.3 -11.65 17.15 L-12.25 16.6" fill="#842739" fill-rule="evenodd" stroke="none"/>
    <path d="M-19.85 16.5 Q-19.85 15.25 -19.4 14.1 L-19.1 13.35 -18.35 13.8 -17.05 17.25 -14.15 18.95 -15.15 19.95 Q-18.2 19.4 -19.8 16.7 L-19.85 16.55 -19.85 16.5 M-12.25 16.6 L-11.65 17.15 Q-11.65 18.3 -12.6 19.15 L-13.1 19.45 -13.85 19.05 -13.95 18.5 -13.3 17.3 -12.1 17.5 -12.6 17.25 -12.25 16.6" fill="#ff9900" fill-rule="evenodd" stroke="none"/>
  </g>
</svg>
