<?xml version="1.0" encoding="UTF-8" standalone="no"?>
<svg xmlns:xlink="http://www.w3.org/1999/xlink" height="104.75px" width="95.85px" xmlns="http://www.w3.org/2000/svg">
  <g transform="matrix(1.0, 0.0, 0.0, 1.0, 47.95, 52.35)">
    <path d="M16.1 -52.35 Q20.8 -52.55 25.2 -51.0 28.85 -49.8 32.15 -47.3 43.05 -38.85 46.45 -25.7 47.5 -21.45 47.7 -17.1 47.95 -14.5 47.85 -11.8 47.65 -6.05 40.8 7.4 33.9 20.85 16.75 27.8 -0.1 34.7 -0.5 33.15 L1.6 48.3 -37.6 52.4 -47.95 -5.7 -33.5 -6.9 Q-24.8 -7.95 -17.75 -11.3 L-12.9 -14.05 Q-6.95 -25.05 -4.0 -33.05 -1.05 -41.15 1.7 -43.95 4.45 -46.75 7.8 -49.15 L16.1 -52.35 M-33.8 41.45 L-32.95 45.7 -4.9 42.8 -6.0 29.1 Q19.4 24.9 31.8 11.0 41.65 -0.15 42.05 -13.85 42.55 -23.85 38.0 -32.9 36.05 -36.7 32.9 -39.4 25.75 -45.75 16.25 -44.85 L11.8 -43.9 Q8.8 -42.15 6.55 -39.6 L4.4 -36.85 Q-0.85 -28.5 -3.4 -18.8 -3.6 -18.1 -3.95 -17.5 -7.8 -10.3 -15.15 -6.75 -16.75 -5.8 -18.65 -4.95 -27.85 -0.8 -40.6 0.15 L-40.1 3.9 Q-37.75 22.6 -33.8 41.45" fill="#000000" fill-rule="evenodd" stroke="none"/>
    <path d="M6.55 -39.6 Q10.55 -41.35 15.05 -41.15 28.3 -40.65 34.75 -28.95 42.85 -14.15 33.1 0.05 17.75 22.65 -10.55 26.2 L-10.55 27.2 Q-9.5 33.35 -9.75 39.4 L-33.8 41.45 Q-37.75 22.6 -40.1 3.9 L-40.6 0.15 Q-27.85 -0.8 -18.65 -4.95 -16.75 -5.8 -15.15 -6.75 -7.8 -10.3 -3.95 -17.5 -3.6 -18.1 -3.4 -18.8 -0.85 -28.5 4.4 -36.85 L6.55 -39.6" fill="#010000" fill-rule="evenodd" stroke="none"/>
    <path d="M-33.8 41.45 L-9.75 39.4 Q-9.5 33.35 -10.55 27.2 L-10.55 26.2 Q17.75 22.65 33.1 0.05 42.85 -14.15 34.75 -28.95 28.3 -40.65 15.05 -41.15 10.55 -41.35 6.55 -39.6 8.8 -42.15 11.8 -43.9 L16.25 -44.85 Q25.75 -45.75 32.9 -39.4 36.05 -36.7 38.0 -32.9 42.55 -23.85 42.05 -13.85 41.65 -0.15 31.8 11.0 19.4 24.9 -6.0 29.1 L-4.9 42.8 -32.95 45.7 -33.8 41.45" fill="#666666" fill-rule="evenodd" stroke="none"/>
  </g>
</svg>
