<?xml version="1.0" encoding="UTF-8" standalone="no"?>
<svg xmlns:xlink="http://www.w3.org/1999/xlink" height="235.2px" width="638.15px" xmlns="http://www.w3.org/2000/svg">
  <g transform="matrix(1.0, 0.0, 0.0, 1.0, 130.05, 36.6)">
    <path d="M118.4 -4.65 L120.05 -4.55 Q120.35 -4.25 120.15 1.4 119.9 7.0 121.35 12.2 124.9 15.6 129.1 16.75 L134.55 16.95 136.55 16.3 137.05 16.1 Q138.65 15.7 140.9 13.4 143.1 11.05 143.15 4.6 L143.2 -3.4 143.2 -5.35 145.5 -5.0 145.5 -0.1 145.5 5.25 145.5 11.0 145.5 16.75 145.5 21.2 144.4 23.0 Q141.1 28.45 137.95 34.0 L135.35 38.55 128.9 49.2 Q122.3 59.35 116.1 69.6 114.15 72.0 114.1 75.3 114.0 78.55 114.3 80.65 113.3 84.7 105.0 84.75 L103.4 86.5 103.2 86.65 102.1 87.6 Q101.55 88.15 101.1 89.0 96.15 97.75 89.6 105.85 72.25 100.7 55.25 94.75 34.65 87.65 13.55 82.0 14.2 81.55 64.75 81.65 100.65 81.7 109.6 82.05 112.45 82.1 112.45 79.7 112.4 77.25 112.65 74.9 112.9 72.55 112.65 66.15 L112.15 53.25 116.0 50.5 116.4 12.05 Q117.5 10.2 118.4 9.4 L118.4 -4.65 M386.75 -1.05 Q387.35 -1.05 386.4 -1.0 386.55 -0.75 386.15 -1.05 L386.75 -1.05 M363.7 -1.8 L380.6 -1.25 Q375.2 1.65 363.05 11.35 L362.65 6.35 Q362.5 3.6 362.75 0.9 362.85 -0.5 363.7 -1.8 M424.05 -0.6 Q419.8 1.6 402.1 13.65 402.2 7.15 403.0 0.4 L403.2 -0.4 424.65 -0.9 424.05 -0.6 M428.65 -1.0 Q425.05 0.85 426.65 -0.95 L428.65 -1.0 M504.1 85.5 L491.4 84.85 490.85 84.5 503.85 84.55 504.1 85.5 M361.45 37.3 L361.35 36.5 362.05 27.9 362.35 23.85 362.55 21.75 362.9 21.45 364.1 21.5 383.6 21.5 403.1 21.5 422.65 21.5 430.0 21.85 Q425.7 23.7 412.3 31.35 378.75 50.4 360.5 61.65 L360.45 61.2 Q360.05 56.75 360.2 55.5 L363.3 55.5 363.3 37.3 361.45 37.3 M436.85 75.95 L438.0 77.05 440.75 76.9 441.05 77.65 438.25 78.9 437.55 78.55 398.25 79.25 379.9 79.9 376.85 79.8 376.6 78.75 383.35 75.55 383.4 75.0 383.85 74.65 432.2 75.45 436.8 75.7 436.85 75.95 M485.4 83.8 Q480.3 84.9 474.6 83.75 L474.3 83.0 485.1 82.3 485.4 83.8 M279.6 37.3 Q279.65 30.9 279.85 24.5 L279.85 24.0 280.1 14.0 Q280.1 13.25 280.25 12.55 L280.4 11.5 Q280.6 10.0 281.05 8.65 L281.6 8.5 291.6 8.8 311.1 9.0 329.6 8.75 330.6 8.7 Q333.1 8.5 339.65 8.7 346.2 8.85 351.85 8.5 352.55 8.45 352.2 17.6 L347.5 22.4 Q343.85 25.85 340.95 28.85 L335.25 34.65 334.45 35.35 332.35 37.3 279.6 37.3 M234.6 121.75 L261.05 121.8 Q246.6 138.2 231.05 153.8 L216.25 155.0 Q209.65 155.35 208.85 161.25 L208.8 161.65 207.55 169.95 Q207.1 173.15 202.6 180.75 198.1 188.4 196.55 191.55 L196.2 186.25 Q196.6 164.0 196.45 147.55 L196.35 142.55 196.35 142.05 196.3 140.1 Q195.9 121.45 203.8 121.6 L206.05 121.6 233.05 121.75 234.6 121.75 M191.05 142.55 L191.0 147.55 184.15 147.55 182.55 147.55 165.55 147.55 158.9 147.55 158.75 142.65 158.8 142.65 158.8 142.55 160.85 142.55 183.0 143.1 183.05 142.55 185.05 142.55 191.05 142.55 M4.45 51.0 L-4.85 50.9 -4.75 48.1 18.5 48.0 Q12.8 49.05 9.15 51.9 L4.25 55.9 4.45 51.0 M126.15 142.55 L126.9 143.35 145.3 143.55 145.25 144.05 145.2 144.8 145.25 144.8 145.2 145.55 145.1 147.55 142.45 147.55 131.05 147.55 116.95 147.55 116.95 142.55 126.15 142.55 M-6.5 66.5 L-6.4 57.75 2.5 57.65 Q-3.15 62.35 -5.85 66.45 L-6.5 66.5" fill="#524b45" fill-rule="evenodd" stroke="none"/>
    <path d="M297.6 103.5 L298.35 103.5 298.4 103.85 298.45 103.9 298.95 119.0 312.25 119.35 312.25 163.85 276.0 163.85 275.6 119.05 Q275.2 116.6 272.85 116.75 L193.0 116.6 Q190.5 117.05 191.0 119.1 L191.05 127.3 113.25 127.0 112.85 123.4 113.0 115.75 3.85 79.5 38.55 79.55 43.7 79.65 48.55 79.55 106.75 79.75 110.95 79.55 110.9 53.6 114.5 50.0 114.5 10.9 117.4 8.3 117.3 -6.6 121.25 -6.6 Q121.2 -0.6 121.45 5.4 L121.55 7.6 Q121.7 11.4 125.05 13.3 128.7 15.3 132.95 15.25 L133.3 15.25 133.65 15.25 134.55 15.25 136.3 15.05 136.55 14.95 Q139.8 13.4 140.75 10.35 141.7 7.2 141.75 4.5 L141.75 -4.0 141.75 -7.35 146.8 -7.35 147.0 10.05 149.9 12.0 149.95 23.0 149.95 23.5 149.95 34.0 149.95 46.8 149.95 47.3 153.0 47.3 Q179.3 31.25 206.05 21.9 219.5 17.2 233.05 14.2 242.55 12.05 252.1 10.8 L273.25 9.65 273.25 37.3 232.05 37.8 232.0 54.35 232.55 55.05 232.5 55.4 237.1 55.4 237.1 63.0 253.1 63.0 Q220.05 107.6 214.5 114.25 L219.1 114.1 221.55 114.1 224.1 114.05 222.55 114.05 232.7 113.95 230.55 114.0 230.05 114.0 233.05 114.05 235.05 113.95 272.5 114.15 Q275.0 115.15 277.25 116.8 278.35 117.6 278.3 119.05 277.45 140.95 278.25 162.3 L308.5 162.05 Q310.8 141.1 310.5 121.9 307.8 118.5 302.4 120.25 L297.5 121.0 297.05 120.6 295.75 103.5 Q295.7 101.9 296.05 103.5 L297.45 103.5 297.6 103.55 297.6 103.5 M118.4 -4.65 L118.4 9.4 Q117.5 10.2 116.4 12.05 L116.0 50.5 112.15 53.25 112.65 66.15 Q112.9 72.55 112.65 74.9 112.4 77.25 112.45 79.7 112.45 82.1 109.6 82.05 100.65 81.7 64.75 81.65 14.2 81.55 13.55 82.0 34.65 87.65 55.25 94.75 72.25 100.7 89.6 105.85 96.15 97.75 101.1 89.0 101.55 88.15 102.1 87.6 L103.2 86.65 103.4 86.5 105.0 84.75 Q113.3 84.7 114.3 80.65 114.0 78.55 114.1 75.3 114.15 72.0 116.1 69.6 122.3 59.35 128.9 49.2 L135.35 38.55 137.95 34.0 Q141.1 28.45 144.4 23.0 L145.5 21.2 145.5 16.75 145.5 11.0 145.5 5.25 145.5 -0.1 145.5 -5.0 143.2 -5.35 143.2 -3.4 143.15 4.6 Q143.1 11.05 140.9 13.4 138.65 15.7 137.05 16.1 L136.55 16.3 134.55 16.95 129.1 16.75 Q124.9 15.6 121.35 12.2 119.9 7.0 120.15 1.4 120.35 -4.25 120.05 -4.55 L118.4 -4.65 M361.1 -0.3 L361.1 -3.1 365.1 -3.0 395.9 -3.0 395.85 -2.55 396.05 14.35 360.8 14.1 360.9 12.7 361.1 -0.3 M386.75 -1.05 L386.15 -1.05 Q386.55 -0.75 386.4 -1.0 387.35 -1.05 386.75 -1.05 M400.4 -2.0 L400.4 -3.0 433.6 -3.05 433.55 -2.0 433.55 -1.5 433.55 3.9 433.5 14.6 400.25 14.35 400.4 -2.0 M363.7 -1.8 Q362.85 -0.5 362.75 0.9 362.5 3.6 362.65 6.35 L363.05 11.35 Q375.2 1.65 380.6 -1.25 L363.7 -1.8 M504.1 85.5 L503.85 84.55 490.85 84.5 491.4 84.85 504.1 85.5 M428.65 -1.0 L426.65 -0.95 Q425.05 0.85 428.65 -1.0 M424.05 -0.6 L424.65 -0.9 403.2 -0.4 403.0 0.4 Q402.2 7.15 402.1 13.65 419.8 1.6 424.05 -0.6 M493.15 85.8 L489.0 85.85 488.8 83.55 506.7 84.0 506.35 86.55 493.6 86.1 493.15 85.8 M486.1 85.95 L473.6 86.65 472.2 81.75 486.7 81.8 486.1 85.95 M431.05 42.85 L431.15 42.75 Q431.85 42.15 431.85 41.0 431.9 37.65 432.25 34.1 L360.55 71.9 360.0 72.65 360.05 79.0 Q419.1 47.6 428.15 43.95 L431.05 42.85 M426.05 46.65 Q414.75 53.0 423.1 48.35 L426.35 46.45 426.05 46.65 M360.2 55.5 Q360.05 56.75 360.45 61.2 L360.5 61.65 Q378.75 50.4 412.3 31.35 425.7 23.7 430.0 21.85 L422.65 21.5 403.1 21.5 383.6 21.5 364.1 21.5 362.9 21.45 362.55 21.75 362.35 23.85 362.05 27.9 361.35 36.5 361.45 37.3 357.55 37.3 357.55 18.7 357.75 18.75 358.05 18.75 397.3 18.8 396.25 18.85 433.55 18.75 434.35 43.95 358.05 82.05 357.55 82.45 357.55 55.5 360.2 55.5 M432.2 75.45 L383.85 74.65 383.4 75.0 383.35 75.55 376.6 78.75 376.85 79.8 379.9 79.9 398.25 79.25 437.55 78.55 438.25 78.9 441.05 77.65 440.75 76.9 438.0 77.05 436.85 75.95 452.5 78.1 468.9 80.5 469.0 83.75 457.55 84.75 368.05 85.25 360.8 85.45 358.7 85.6 373.6 78.75 384.7 73.4 396.6 73.85 432.2 75.45 M485.4 83.8 L485.1 82.3 474.3 83.0 474.6 83.75 Q480.3 84.9 485.4 83.8 M279.6 37.3 L277.9 37.3 277.65 7.25 354.75 7.25 354.75 7.8 Q356.0 8.0 354.75 8.25 L354.95 37.3 332.35 37.3 334.45 35.35 335.25 34.65 340.95 28.85 Q343.85 25.85 347.5 22.4 L352.2 17.6 Q352.55 8.45 351.85 8.5 346.2 8.85 339.65 8.7 333.1 8.5 330.6 8.7 L329.6 8.75 311.1 9.0 291.6 8.8 281.6 8.5 281.05 8.65 Q280.6 10.0 280.4 11.5 L280.25 12.55 Q280.1 13.25 280.1 14.0 L279.85 24.0 279.85 24.5 Q279.65 30.9 279.6 37.3 M279.6 55.5 L279.6 59.5 279.55 60.85 Q283.85 60.2 298.0 60.6 312.5 61.0 328.5 60.75 L342.7 60.5 310.7 95.65 Q318.65 95.5 326.6 95.5 L341.1 95.5 351.1 95.3 Q352.85 95.25 353.25 93.55 L353.35 93.0 Q353.85 85.05 353.35 77.5 L353.35 77.0 353.45 61.0 354.8 61.0 354.8 98.5 277.15 98.5 277.15 55.5 279.6 55.5 M234.6 121.75 L233.05 121.75 206.05 121.6 203.8 121.6 Q195.9 121.45 196.3 140.1 L196.35 142.05 196.35 142.55 196.45 147.55 Q196.6 164.0 196.2 186.25 L196.55 191.55 Q198.1 188.4 202.6 180.75 207.1 173.15 207.55 169.95 L208.8 161.65 208.85 161.25 Q209.65 155.35 216.25 155.0 L231.05 153.8 Q246.6 138.2 261.05 121.8 L234.6 121.75 M213.7 114.3 Q213.95 113.25 213.05 114.3 L213.7 114.3 M183.15 138.0 L185.55 137.95 190.05 137.75 191.05 137.7 191.05 142.55 185.05 142.55 183.05 142.55 183.15 138.0 M191.0 147.55 L191.0 149.4 158.95 149.1 158.95 148.0 158.9 148.0 158.9 147.55 165.55 147.55 182.55 147.55 184.15 147.55 191.0 147.55 M158.8 142.55 L158.8 142.5 160.85 142.55 158.8 142.55 M194.0 148.0 L193.95 126.55 193.85 119.6 272.95 119.6 272.95 192.1 256.25 192.1 256.25 167.0 256.0 164.1 Q255.45 161.85 254.1 160.0 251.95 157.1 248.1 156.9 L217.95 156.9 Q215.75 156.9 214.0 158.55 L212.9 159.85 Q210.8 162.8 210.55 167.0 L210.5 192.15 194.0 192.5 194.0 154.0 194.0 148.0 M270.95 157.55 L270.8 157.7 267.1 163.05 265.95 164.4 Q264.5 165.8 263.25 167.65 L257.55 175.5 257.35 176.05 Q257.1 180.05 257.1 184.05 L257.3 186.0 Q257.6 187.7 257.4 189.55 257.3 190.6 258.1 190.6 L260.55 190.35 261.1 190.3 266.1 189.85 267.1 189.75 269.55 189.35 270.1 189.3 Q271.15 189.35 271.15 188.55 L271.1 175.05 270.95 157.55 M25.5 52.4 L24.5 54.4 Q22.9 57.15 18.75 60.9 14.6 64.65 7.75 66.25 L6.4 66.65 25.5 66.05 25.5 52.4 M4.45 51.0 L4.25 55.9 9.15 51.9 Q12.8 49.05 18.5 48.0 L-4.75 48.1 -4.85 50.9 4.45 51.0 M3.0 56.8 L3.0 52.25 -5.9 52.0 -5.9 47.5 26.45 47.5 Q27.9 57.95 26.25 67.45 L19.45 67.5 Q25.65 67.35 20.45 67.4 14.5 67.45 9.05 67.65 L-7.85 67.85 -7.8 66.55 -7.75 58.0 -7.75 56.95 3.0 56.8 M126.3 138.0 L126.1 141.75 126.15 141.8 126.1 142.5 126.15 142.55 116.95 142.55 116.85 132.0 116.85 130.1 118.05 130.1 Q118.4 131.0 118.2 132.5 L118.1 133.55 117.85 134.95 117.75 135.55 117.55 138.5 Q118.2 137.65 120.05 137.8 L125.05 138.0 126.3 138.0 M145.1 147.55 L145.1 148.25 145.05 149.0 116.95 148.85 116.95 147.55 131.05 147.55 142.45 147.55 145.1 147.55 M-6.5 66.5 L-5.85 66.45 Q-3.15 62.35 2.5 57.65 L-6.4 57.75 -6.5 66.5" fill="#2e2a26" fill-rule="evenodd" stroke="none"/>
    <path d="M237.1 55.4 L232.5 55.4 232.55 55.05 232.0 54.35 232.05 37.8 273.25 37.3 273.25 9.65 252.1 10.8 Q242.55 12.05 233.05 14.2 219.5 17.2 206.05 21.9 179.3 31.25 153.0 47.3 L149.95 47.3 149.95 46.8 149.95 34.0 149.95 23.5 149.95 23.0 149.9 12.0 147.0 10.05 146.8 -7.35 141.75 -7.35 141.75 -4.0 141.75 4.5 Q141.7 7.2 140.75 10.35 139.8 13.4 136.55 14.95 L136.3 15.05 134.55 15.25 133.65 15.25 133.3 15.25 132.95 15.25 Q128.7 15.3 125.05 13.3 121.7 11.4 121.55 7.6 L121.45 5.4 Q121.2 -0.6 121.25 -6.6 L117.3 -6.6 117.4 8.3 114.5 10.9 114.5 50.0 110.9 53.6 110.95 79.55 106.75 79.75 48.55 79.55 43.7 79.65 38.55 79.55 3.85 79.5 113.0 115.75 112.85 123.4 113.25 127.0 191.05 127.3 191.0 119.1 Q190.5 117.05 193.0 116.6 L272.85 116.75 Q275.2 116.6 275.6 119.05 L276.0 163.85 312.25 163.85 312.25 119.35 298.95 119.0 298.45 103.9 298.4 103.85 298.35 103.5 297.6 103.5 297.45 103.5 296.05 103.5 Q295.7 101.9 295.75 103.5 L274.1 103.5 273.5 55.5 237.1 55.4 M394.25 -28.3 L393.15 -28.25 393.25 -30.75 394.25 -30.8 411.4 -30.3 Q429.65 -29.15 429.7 -12.5 L429.7 -12.25 429.75 -12.25 429.8 -6.3 433.85 -6.3 434.25 -6.05 Q436.7 -4.5 436.0 -2.0 L436.1 14.6 436.9 14.6 437.85 15.8 437.9 46.1 Q433.7 48.1 428.6 50.8 404.5 63.45 389.3 71.1 L394.75 71.25 396.6 71.3 Q435.4 69.35 472.75 78.35 479.55 80.0 486.75 80.05 L489.4 79.9 508.1 81.85 508.1 88.0 488.75 88.2 486.25 88.05 486.25 88.0 Q473.0 87.0 459.75 88.1 458.55 88.35 457.3 88.1 L368.05 87.75 Q361.05 87.6 359.15 87.75 L357.55 86.7 357.55 102.85 308.45 103.05 300.95 103.5 301.3 116.05 315.4 116.5 Q315.45 116.8 317.45 115.65 L315.45 159.8 315.3 165.25 Q315.25 166.5 315.35 167.6 L276.0 167.6 276.25 196.05 256.7 196.05 253.05 196.05 253.05 167.0 Q252.7 164.25 251.65 162.35 251.0 161.3 250.0 160.85 249.15 160.4 248.1 160.5 L217.95 160.5 Q216.2 160.5 214.9 162.4 213.6 164.3 213.7 167.0 L213.65 192.0 213.7 195.4 209.05 195.35 191.05 195.2 191.0 194.6 190.9 152.85 187.95 152.75 182.25 152.5 174.55 152.3 159.35 152.05 157.3 152.05 157.3 148.25 152.2 148.35 147.5 148.2 147.5 149.0 147.45 150.85 147.45 151.05 147.45 151.6 147.45 152.1 147.45 152.6 147.1 152.6 143.05 152.6 114.4 152.45 114.25 152.4 114.3 151.9 114.25 151.9 114.3 151.4 114.25 151.4 114.35 149.25 113.05 149.25 113.05 149.0 114.35 149.0 114.35 148.75 109.9 148.75 108.5 148.75 105.05 148.75 70.25 148.5 69.5 148.4 68.8 148.3 68.8 152.1 67.75 152.75 57.2 152.8 57.1 154.75 56.45 155.5 56.05 155.45 55.95 155.5 53.55 155.1 53.05 155.05 50.65 154.65 48.55 154.3 45.55 153.75 41.4 153.05 36.35 152.2 30.35 151.2 24.65 150.15 21.35 149.5 21.0 149.45 18.0 148.85 18.05 148.35 18.0 148.35 18.05 147.85 18.0 147.85 18.1 147.0 9.9 146.65 9.9 146.15 9.4 125.85 9.4 124.85 18.55 124.7 18.5 124.4 18.6 124.4 18.5 123.9 18.6 123.9 18.5 123.4 21.0 122.95 31.2 121.15 41.4 119.4 45.55 118.7 46.2 118.55 48.55 118.15 52.1 117.55 53.05 117.4 53.55 117.3 55.05 117.05 55.8 116.95 56.0 116.8 56.1 116.9 56.2 117.0 56.3 116.95 56.5 116.8 56.6 116.9 57.45 117.5 57.6 119.75 68.65 120.4 69.0 123.4 70.0 123.4 70.4 123.5 110.0 123.5 110.05 119.05 92.3 113.2 86.1 111.15 67.7 105.1 45.8 97.9 37.0 95.0 -9.5 79.7 -9.5 76.6 -7.2 76.55 -7.5 70.9 -10.5 70.95 Q-11.3 62.7 -10.7 54.15 L-8.25 54.1 -8.3 45.0 29.9 44.55 29.65 67.45 101.5 67.7 107.3 67.4 107.3 53.15 111.15 49.0 111.25 45.0 111.25 44.85 111.25 23.5 111.25 23.0 111.25 18.05 111.25 17.55 111.3 8.9 111.3 8.6 114.05 6.75 114.5 6.4 114.5 6.3 114.5 1.85 Q114.45 -5.15 114.55 -8.8 L114.55 -9.5 125.3 -9.5 125.25 -9.05 125.3 -9.05 125.15 -6.9 125.1 -3.95 125.1 -3.45 125.1 -3.25 Q125.1 3.6 125.35 6.95 125.5 8.9 125.75 9.55 126.4 11.35 127.5 11.4 L131.85 11.75 133.6 11.8 134.55 11.8 134.95 11.8 135.75 11.75 136.55 11.0 Q138.9 8.45 138.95 5.1 L139.05 -4.0 139.15 -9.5 149.6 -9.5 149.65 -8.05 149.85 -4.0 150.25 7.8 152.8 9.2 152.8 9.7 152.8 10.1 152.8 10.45 152.85 23.0 152.85 23.5 152.9 34.0 152.9 43.35 153.0 43.25 153.0 43.6 Q178.7 27.05 206.05 17.7 219.35 13.15 233.05 10.3 252.15 6.25 272.05 5.55 L273.45 5.55 273.35 3.5 357.55 3.5 357.55 14.3 358.0 14.1 358.0 -4.35 360.1 -6.25 396.65 -6.25 Q396.6 -7.3 396.95 -9.2 L396.5 -9.9 394.25 -9.75 393.75 -9.75 Q393.5 -10.0 393.5 -10.9 L393.6 -11.5 Q393.75 -11.7 394.25 -11.75 L394.85 -11.8 399.3 -11.9 399.65 -12.25 399.65 -11.75 399.75 -11.65 399.75 -10.0 399.7 -9.95 399.7 -9.75 399.7 -7.25 399.7 -6.25 401.35 -6.25 409.75 -6.3 416.0 -6.3 422.45 -6.3 427.05 -6.3 427.05 -6.75 427.05 -7.25 427.05 -9.75 427.05 -11.5 427.1 -12.25 427.2 -12.25 Q427.8 -15.2 425.65 -20.65 L423.9 -23.5 Q420.5 -29.2 394.25 -28.3 M358.05 -6.0 L358.0 -5.95 358.0 -6.0 358.05 -6.0 M361.1 -0.3 L360.9 12.7 360.8 14.1 396.05 14.35 395.85 -2.55 395.9 -3.0 365.1 -3.0 361.1 -3.1 361.1 -0.3 M397.05 -6.25 L397.1 -6.25 397.1 -6.5 397.05 -6.5 397.05 -6.25 M399.45 -6.5 L399.45 -6.25 399.45 -6.5 M396.9 -5.65 Q396.9 -4.85 397.0 -5.7 L396.9 -5.65 M400.4 -2.0 L400.25 14.35 433.5 14.6 433.55 3.9 433.55 -1.5 433.55 -2.0 433.6 -3.05 400.4 -3.0 400.4 -2.0 M486.1 85.95 L486.7 81.8 472.2 81.75 473.6 86.65 486.1 85.95 M493.15 85.8 L493.6 86.1 506.35 86.55 506.7 84.0 488.8 83.55 489.0 85.85 493.15 85.8 M360.2 55.5 L357.55 55.5 357.55 82.45 358.05 82.05 434.35 43.95 433.55 18.75 396.25 18.85 397.3 18.8 358.05 18.75 357.75 18.75 357.55 18.7 357.55 37.3 361.45 37.3 363.3 37.3 363.3 55.5 360.2 55.5 M432.2 75.45 L396.6 73.85 384.7 73.4 373.6 78.75 358.7 85.6 360.8 85.45 368.05 85.25 457.55 84.75 469.0 83.75 468.9 80.5 452.5 78.1 436.85 75.95 436.8 75.7 432.2 75.45 M332.35 37.3 L354.95 37.3 354.75 8.25 Q356.0 8.0 354.75 7.8 L354.75 7.25 277.65 7.25 277.9 37.3 279.6 37.3 332.35 37.3 M348.35 40.7 L280.05 40.55 279.6 40.55 277.65 40.55 235.85 40.15 235.55 52.65 237.55 52.6 253.05 52.5 279.6 52.55 282.95 52.55 348.35 52.4 359.2 52.35 359.2 40.7 348.35 40.7 M354.8 61.0 L354.8 55.5 279.6 55.5 277.15 55.5 277.15 98.5 354.8 98.5 354.8 61.0 M357.6 86.0 L357.55 86.0 357.55 86.05 357.6 86.0 M157.3 142.05 L157.3 139.65 157.65 139.9 Q163.45 139.75 181.2 140.0 L180.85 135.1 157.25 135.25 157.3 132.0 157.2 132.0 157.1 130.2 147.35 130.2 147.35 130.25 147.4 132.0 147.35 132.0 147.35 132.2 147.3 133.05 147.25 134.35 147.25 135.1 147.2 135.5 128.65 135.95 128.55 140.7 Q133.6 140.65 137.75 140.75 L143.05 140.95 143.35 140.95 Q146.55 141.15 147.55 140.95 L147.55 141.7 147.55 142.05 147.5 142.55 147.5 142.9 147.55 142.9 147.55 145.75 147.75 145.7 152.45 145.6 157.3 145.8 157.3 142.05 M191.05 137.7 L191.1 130.05 185.4 130.05 187.2 130.0 159.0 130.05 159.05 131.0 159.1 132.75 183.25 132.5 183.15 138.0 183.05 142.55 183.0 143.1 160.85 142.55 158.8 142.5 158.8 142.55 158.8 142.65 158.75 142.65 158.9 147.55 158.9 148.0 158.95 148.0 158.95 149.1 191.0 149.4 191.0 147.55 191.05 142.55 191.05 137.7 M194.0 148.0 L194.0 154.0 194.0 192.5 210.5 192.15 210.55 167.0 Q210.8 162.8 212.9 159.85 L214.0 158.55 Q215.75 156.9 217.95 156.9 L248.1 156.9 Q251.95 157.1 254.1 160.0 255.45 161.85 256.0 164.1 L256.25 167.0 256.25 192.1 272.95 192.1 272.95 119.6 193.85 119.6 193.95 126.55 194.0 148.0 M107.45 76.45 L107.35 70.5 -1.75 70.85 -1.85 76.5 107.45 76.45 M3.0 56.8 L-7.75 56.95 -7.75 58.0 -7.8 66.55 -7.85 67.85 9.05 67.65 Q14.5 67.45 20.45 67.4 25.65 67.35 19.45 67.5 L26.25 67.45 Q27.9 57.95 26.45 47.5 L-5.9 47.5 -5.9 52.0 3.0 52.25 3.0 56.8 M54.85 125.8 L54.9 120.2 26.65 124.65 21.5 125.8 21.4 130.05 21.0 145.95 21.0 146.3 21.5 146.65 34.7 148.45 37.6 148.95 38.8 149.15 45.55 150.4 48.55 151.0 49.7 151.25 53.05 151.95 53.5 152.05 53.55 152.1 54.65 152.35 54.7 149.3 54.75 139.5 54.8 131.7 54.85 125.8 M57.65 124.55 L57.55 130.55 57.4 138.4 57.25 148.6 57.2 149.5 66.6 149.75 66.4 123.1 57.65 123.25 57.65 124.1 57.65 124.55 M114.55 133.55 L114.55 130.5 114.55 130.05 110.85 129.9 110.0 129.5 110.0 127.0 69.5 127.0 69.0 126.9 68.95 133.55 68.9 140.55 68.85 145.05 83.3 145.0 83.3 144.9 114.4 144.95 114.35 141.9 114.45 141.75 114.45 140.55 114.55 133.55 M18.15 130.35 L18.15 127.8 11.75 127.8 11.75 144.45 18.15 144.45 18.15 142.05 18.15 130.35 M126.15 142.55 L126.1 142.5 126.15 141.8 126.1 141.75 126.3 138.0 126.5 133.7 145.35 133.1 145.35 132.3 145.35 130.2 118.05 130.1 116.85 130.1 116.85 132.0 116.95 142.55 116.95 147.55 116.95 148.85 145.05 149.0 145.1 148.25 145.1 147.55 145.2 145.55 145.25 144.8 145.2 144.8 145.25 144.05 145.3 143.55 126.9 143.35 126.15 142.55" fill="#000000" fill-rule="evenodd" stroke="none"/>
    <path d="M394.25 -19.1 L394.25 -22.1 397.25 -22.05 405.0 -22.1 411.75 -22.15 419.25 -21.15 Q421.05 -20.65 421.7 -19.15 L422.1 -17.4 422.3 -12.25 422.45 -6.3 416.0 -6.3 415.85 -9.75 415.55 -14.25 415.25 -15.7 414.5 -17.95 Q412.35 -18.9 410.0 -19.15 L403.65 -19.25 Q398.9 -19.5 394.25 -19.1 M357.2 48.05 Q357.45 49.65 356.85 50.3 L356.35 50.8 355.6 51.05 343.6 51.05 Q354.8 46.25 357.05 44.6 L356.9 45.4 357.1 45.45 Q357.0 46.7 357.2 48.05 M57.25 148.6 L57.4 138.4 59.5 137.6 62.2 136.3 Q62.5 136.05 62.95 135.9 L63.0 135.9 63.55 135.65 64.0 135.55 63.75 144.55 63.7 145.1 Q63.5 145.8 63.45 146.55 63.35 147.9 62.0 147.9 L60.25 148.05 59.4 148.35 58.5 148.5 57.25 148.6 M54.7 149.3 Q54.15 149.7 54.5 151.05 54.1 150.7 53.55 150.45 L53.05 150.25 51.55 149.9 50.45 149.65 49.1 149.25 48.55 149.15 48.5 149.15 47.05 148.9 46.45 148.7 45.55 148.4 43.0 147.85 41.95 147.75 39.55 147.35 38.95 147.2 38.3 147.0 38.0 146.95 38.35 146.75 45.55 143.65 46.95 143.05 48.55 142.35 53.05 140.25 53.55 140.05 54.1 139.75 54.75 139.5 54.7 149.3" fill="#5e0000" fill-rule="evenodd" stroke="none"/>
    <path d="M394.25 -11.75 L394.25 -12.25 394.25 -13.7 401.05 -13.2 Q401.7 -12.85 401.6 -12.25 L401.4 -9.75 401.35 -6.25 399.7 -6.25 399.7 -7.25 399.7 -9.75 399.7 -9.95 399.75 -10.0 399.75 -11.65 399.65 -11.75 399.65 -12.25 399.3 -11.9 394.85 -11.8 394.25 -11.75 M394.25 -15.75 L394.25 -19.1 Q398.9 -19.5 403.65 -19.25 L410.0 -19.15 Q412.35 -18.9 414.5 -17.95 L415.25 -15.7 415.55 -14.25 415.85 -9.75 416.0 -6.3 409.75 -6.3 409.7 -13.9 Q409.15 -15.35 407.75 -15.75 L406.25 -15.95 Q400.25 -16.1 394.25 -15.75 M394.25 -22.1 L394.25 -28.3 Q420.5 -29.2 423.9 -23.5 L425.65 -20.65 Q427.8 -15.2 427.2 -12.25 L427.1 -12.25 427.05 -11.5 427.05 -9.75 427.05 -7.25 427.05 -6.75 427.05 -6.3 422.45 -6.3 422.3 -12.25 422.1 -17.4 421.7 -19.15 Q421.05 -20.65 419.25 -21.15 L411.75 -22.15 405.0 -22.1 397.25 -22.05 394.25 -22.1 M348.35 40.7 L359.2 40.7 359.2 52.35 348.35 52.4 282.95 52.55 279.6 52.55 253.05 52.5 237.55 52.6 235.55 52.65 235.85 40.15 277.65 40.55 279.6 40.55 280.05 40.55 348.35 40.7 M357.2 48.05 Q357.0 46.7 357.1 45.45 L356.9 45.4 357.05 44.6 Q354.8 46.25 343.6 51.05 L355.6 51.05 356.35 50.8 356.85 50.3 Q357.45 49.65 357.2 48.05 M268.1 49.2 L269.05 48.95 272.6 48.2 Q286.95 44.75 301.9 42.05 L237.05 41.55 237.15 42.0 237.3 42.55 237.3 43.55 237.35 44.05 Q237.55 46.05 237.35 48.05 237.25 49.3 237.6 50.0 L237.6 50.05 237.7 50.1 238.15 50.3 240.0 50.75 262.8 50.6 264.55 50.1 267.5 49.35 268.1 49.2 M54.85 125.8 L54.75 125.8 Q53.7 124.35 54.0 121.55 L53.55 121.65 Q53.4 121.7 53.3 121.8 L53.05 122.05 51.5 122.15 50.05 122.2 48.55 122.55 45.55 123.15 45.05 123.25 43.65 123.5 43.0 123.65 26.55 126.7 25.55 126.75 Q23.15 126.45 22.8 128.0 L22.75 128.55 Q22.85 129.9 22.0 130.0 L21.4 130.05 21.5 125.8 26.65 124.65 54.9 120.2 54.85 125.8 M21.0 145.95 L21.55 145.7 22.35 145.3 Q23.4 144.5 25.45 143.9 L28.0 143.05 37.55 139.25 38.4 138.85 41.5 137.45 44.1 136.3 44.8 136.0 45.55 135.7 Q47.05 135.0 48.55 134.4 L53.05 132.45 53.55 132.25 54.8 131.7 54.75 139.5 54.1 139.75 53.55 140.05 53.05 140.25 48.55 142.35 46.95 143.05 45.55 143.65 38.35 146.75 38.0 146.95 38.3 147.0 38.95 147.2 39.55 147.35 41.95 147.75 43.0 147.85 45.55 148.4 46.45 148.7 47.05 148.9 48.5 149.15 48.55 149.15 49.1 149.25 50.45 149.65 51.55 149.9 53.05 150.25 53.55 150.45 Q54.1 150.7 54.5 151.05 54.15 149.7 54.7 149.3 L54.65 152.35 53.55 152.1 53.5 152.05 53.05 151.95 49.7 151.25 48.55 151.0 45.55 150.4 38.8 149.15 37.6 148.95 34.7 148.45 21.5 146.65 21.0 146.3 21.0 145.95 M57.55 130.55 L60.0 129.5 61.05 129.2 61.9 129.0 Q63.55 128.55 64.65 127.7 65.35 127.15 65.1 125.55 L64.95 125.05 59.4 124.6 57.65 124.55 57.65 124.1 57.65 123.25 66.4 123.1 66.6 149.75 57.2 149.5 57.25 148.6 58.5 148.5 59.4 148.35 60.25 148.05 62.0 147.9 Q63.35 147.9 63.45 146.55 63.5 145.8 63.7 145.1 L63.75 144.55 64.0 135.55 63.55 135.65 63.0 135.9 62.95 135.9 Q62.5 136.05 62.2 136.3 L59.5 137.6 57.4 138.4 57.55 130.55 M18.15 130.35 L14.5 130.55 14.0 130.65 Q13.65 132.35 13.55 134.15 L13.5 135.55 13.7 140.55 13.65 142.05 16.85 142.05 18.15 142.05 18.15 144.45 11.75 144.45 11.75 127.8 18.15 127.8 18.15 130.35" fill="#990000" fill-rule="evenodd" stroke="none"/>
    <path d="M394.25 -13.7 L394.25 -15.75 Q400.25 -16.1 406.25 -15.95 L407.75 -15.75 Q409.15 -15.35 409.7 -13.9 L409.75 -6.3 401.35 -6.25 401.4 -9.75 401.6 -12.25 Q401.7 -12.85 401.05 -13.2 L394.25 -13.7 M268.1 49.2 L267.5 49.35 264.55 50.1 262.8 50.6 240.0 50.75 238.15 50.3 237.7 50.1 237.6 50.05 237.6 50.0 Q237.25 49.3 237.35 48.05 237.55 46.05 237.35 44.05 L237.3 43.55 237.3 42.55 237.15 42.0 237.05 41.55 301.9 42.05 Q286.95 44.75 272.6 48.2 L269.05 48.95 268.1 49.2 M21.4 130.05 L22.0 130.0 Q22.85 129.9 22.75 128.55 L22.8 128.0 Q23.15 126.45 25.55 126.75 L26.55 126.7 43.0 123.65 43.65 123.5 45.05 123.25 45.55 123.15 48.55 122.55 50.05 122.2 51.5 122.15 53.05 122.05 53.3 121.8 Q53.4 121.7 53.55 121.65 L54.0 121.55 Q53.7 124.35 54.75 125.8 L54.85 125.8 54.8 131.7 53.55 132.25 53.05 132.45 48.55 134.4 Q47.05 135.0 45.55 135.7 L44.8 136.0 44.1 136.3 41.5 137.45 38.4 138.85 37.55 139.25 28.0 143.05 25.45 143.9 Q23.4 144.5 22.35 145.3 L21.55 145.7 21.0 145.95 21.4 130.05 M57.55 130.55 L57.65 124.55 59.4 124.6 64.95 125.05 65.1 125.55 Q65.35 127.15 64.65 127.7 63.55 128.55 61.9 129.0 L61.05 129.2 60.0 129.5 57.55 130.55 M18.15 142.05 L16.85 142.05 13.65 142.05 13.7 140.55 13.5 135.55 13.55 134.15 Q13.65 132.35 14.0 130.65 L14.5 130.55 18.15 130.35 18.15 142.05" fill="#ff0f0f" fill-rule="evenodd" stroke="none"/>
    <path d="M297.6 103.5 L297.6 103.55 297.45 103.5 297.6 103.5 M295.75 103.5 L297.05 120.6 297.5 121.0 302.4 120.25 Q307.8 118.5 310.5 121.9 310.8 141.1 308.5 162.05 L278.25 162.3 Q277.45 140.95 278.3 119.05 278.35 117.6 277.25 116.8 275.0 115.15 272.5 114.15 L235.05 113.95 233.05 114.05 230.05 114.0 230.55 114.0 232.7 113.95 222.55 114.05 224.1 114.05 221.55 114.1 219.1 114.1 214.5 114.25 Q220.05 107.6 253.1 63.0 L237.1 63.0 237.1 55.4 273.5 55.5 274.1 103.5 295.75 103.5 M426.05 46.65 L426.35 46.45 423.1 48.35 Q414.75 53.0 426.05 46.65 M431.05 42.85 L428.15 43.95 Q419.1 47.6 360.05 79.0 L360.0 72.65 360.55 71.9 432.25 34.1 Q431.9 37.65 431.85 41.0 431.85 42.15 431.15 42.75 L431.05 42.85 M279.6 55.5 L354.8 55.5 354.8 61.0 353.45 61.0 353.35 77.0 353.35 77.5 Q353.85 85.05 353.35 93.0 L353.25 93.55 Q352.85 95.25 351.1 95.3 L341.1 95.5 326.6 95.5 Q318.65 95.5 310.7 95.65 L342.7 60.5 328.5 60.75 Q312.5 61.0 298.0 60.6 283.85 60.2 279.55 60.85 L279.6 59.5 279.6 55.5 M213.7 114.3 L213.05 114.3 Q213.95 113.25 213.7 114.3 M183.15 138.0 L183.25 132.5 159.1 132.75 159.05 131.0 159.0 130.05 187.2 130.0 185.4 130.05 191.1 130.05 191.05 137.7 190.05 137.75 185.55 137.95 183.15 138.0 M270.95 157.55 L271.1 175.05 271.15 188.55 Q271.15 189.35 270.1 189.3 L269.55 189.35 267.1 189.75 266.1 189.85 261.1 190.3 260.55 190.35 258.1 190.6 Q257.3 190.6 257.4 189.55 257.6 187.7 257.3 186.0 L257.1 184.05 Q257.1 180.05 257.35 176.05 L257.55 175.5 263.25 167.65 Q264.5 165.8 265.95 164.4 L267.1 163.05 270.8 157.7 270.95 157.55 M25.5 52.4 L25.5 66.05 6.4 66.65 7.75 66.25 Q14.6 64.65 18.75 60.9 22.9 57.15 24.5 54.4 L25.5 52.4 M118.05 130.1 L145.35 130.2 145.35 132.3 145.35 133.1 126.5 133.7 126.3 138.0 125.05 138.0 120.05 137.8 Q118.2 137.65 117.55 138.5 L117.75 135.55 117.85 134.95 118.1 133.55 118.2 132.5 Q118.4 131.0 118.05 130.1" fill="#141210" fill-rule="evenodd" stroke="none"/>
    <path d="M147.55 142.05 L147.55 141.7 147.55 140.95 Q146.55 141.15 143.35 140.95 L143.05 140.95 137.75 140.75 Q133.6 140.65 128.55 140.7 L128.65 135.95 147.2 135.5 147.25 135.1 147.25 134.35 147.3 133.05 147.35 132.2 147.35 132.0 147.4 132.0 147.35 130.25 147.35 130.2 157.1 130.2 157.2 132.0 157.3 132.0 157.25 135.25 180.85 135.1 181.2 140.0 Q163.45 139.75 157.65 139.9 L157.3 139.65 157.3 142.05 157.05 142.05 147.55 142.05 M68.95 133.55 L81.5 133.55 101.05 133.55 114.55 133.55 114.45 140.55 102.05 140.55 83.0 140.55 68.9 140.55 68.95 133.55" fill="#655c5a" fill-rule="evenodd" stroke="none"/>
    <path d="M157.3 142.05 L157.3 145.8 152.45 145.6 147.75 145.7 147.55 145.75 147.55 142.9 147.5 142.9 147.5 142.55 147.55 142.05 157.05 142.05 157.3 142.05 M107.45 76.45 L-1.85 76.5 -1.75 70.85 107.35 70.5 107.45 76.45 M68.95 133.55 L69.0 126.9 69.5 127.0 110.0 127.0 110.0 129.5 110.85 129.9 114.55 130.05 114.55 130.5 114.55 133.55 101.05 133.55 81.5 133.55 68.95 133.55 M114.45 140.55 L114.45 141.75 114.35 141.9 114.4 144.95 83.3 144.9 83.3 145.0 68.85 145.05 68.9 140.55 83.0 140.55 102.05 140.55 114.45 140.55" fill="#a29b99" fill-rule="evenodd" stroke="none"/>
    <path d="M84.35 39.2 L82.9 39.2 83.05 61.6 84.25 61.6 84.35 39.2 M88.0 37.0 L88.5 37.0 98.5 37.0 99.0 37.0 99.5 37.0 101.0 37.65 101.0 63.65 33.7 63.65 33.7 37.55 34.75 36.8 88.0 37.0 M97.75 39.0 L86.9 39.0 86.9 61.6 97.9 61.6 97.75 39.0 M106.25 66.25 L106.25 33.75 29.9 33.75 29.8 66.25 106.25 66.25 M109.25 31.2 L109.25 69.5 27.4 69.5 27.4 31.2 109.25 31.2 M52.1 39.2 L50.2 39.2 Q50.6 42.8 50.55 61.7 L51.75 61.7 Q51.75 43.45 52.1 39.2 M80.65 39.15 L70.9 39.15 70.9 61.6 80.65 61.6 80.65 39.15 M68.35 39.2 L66.75 39.2 Q67.1 43.6 67.05 61.6 L68.25 61.6 Q67.95 43.65 68.35 39.2 M54.4 39.15 L54.4 61.6 64.65 61.6 64.65 39.15 54.4 39.15 M36.9 39.2 L36.9 61.75 48.15 61.75 48.15 39.2 36.9 39.2" fill="#000000" fill-rule="evenodd" stroke="none"/>
    <path d="M97.75 39.0 L97.9 61.6 86.9 61.6 86.9 39.0 97.75 39.0 M80.65 39.15 L80.65 61.6 70.9 61.6 70.9 39.15 80.65 39.15 M54.4 39.15 L64.65 39.15 64.65 61.6 54.4 61.6 54.4 39.15 M36.9 39.2 L48.15 39.2 48.15 61.75 36.9 61.75 36.9 39.2" fill="#1d1d1d" fill-rule="evenodd" stroke="none"/>
    <path d="M88.0 37.0 L34.75 36.8 33.7 37.55 33.7 63.65 101.0 63.65 101.0 37.65 99.5 37.0 99.0 37.0 98.5 37.0 88.5 37.0 88.0 37.0 M84.35 39.2 L84.25 61.6 83.05 61.6 82.9 39.2 84.35 39.2 M106.25 66.25 L29.8 66.25 29.9 33.75 106.25 33.75 106.25 66.25 M52.1 39.2 Q51.75 43.45 51.75 61.7 L50.55 61.7 Q50.6 42.8 50.2 39.2 L52.1 39.2 M68.35 39.2 Q67.95 43.65 68.25 61.6 L67.05 61.6 Q67.1 43.6 66.75 39.2 L68.35 39.2" fill="#a29b99" fill-rule="evenodd" stroke="none"/>
    <path d="M22.2 -1.05 L21.65 37.8 -13.25 37.75 Q-12.7 37.7 -23.55 33.7 -34.4 29.75 -51.65 26.8 -68.95 23.8 -119.05 29.05 L-125.55 25.3 -114.4 20.5 Q-102.85 15.6 -73.3 7.7 -43.75 -0.2 -7.0 -1.4 L22.2 -1.05 M19.5 1.0 Q-6.0 -0.45 -31.35 2.55 -48.0 4.15 -64.3 7.55 -75.25 9.95 -86.15 12.9 -96.1 15.4 -105.65 18.75 -113.65 21.45 -121.3 25.1 L-121.1 25.95 -118.55 27.3 -116.65 27.4 Q-102.7 24.05 -88.2 23.0 L-72.0 22.4 Q-39.3 7.55 -20.85 5.6 L7.5 2.75 18.75 2.25 19.5 1.0 M19.05 35.05 Q19.75 36.65 20.05 28.1 20.35 19.5 20.1 13.25 L19.25 12.3 16.1 14.45 Q4.9 21.75 -7.75 26.1 -17.95 29.55 -28.75 30.3 L-13.7 34.1 17.7 35.25 19.05 35.05" fill="#a29b99" fill-rule="evenodd" stroke="none"/>
    <path d="M19.05 35.05 L17.7 35.25 -13.7 34.1 -28.75 30.3 Q-17.95 29.55 -7.75 26.1 4.9 21.75 16.1 14.45 L19.25 12.3 20.1 13.25 Q20.35 19.5 20.05 28.1 19.75 36.65 19.05 35.05" fill="#625b59" fill-rule="evenodd" stroke="none"/>
    <path d="M-25.95 -3.75 Q0.65 -6.25 27.2 -5.3 L26.7 41.8 -14.55 41.8 Q-20.05 39.5 -25.85 37.5 -53.0 28.35 -81.65 30.3 L-119.3 32.7 -129.55 26.65 -130.05 24.0 Q-101.8 9.95 -77.95 4.5 -52.6 -1.35 -25.95 -3.75 M22.2 -1.05 L-7.0 -1.4 Q-43.75 -0.2 -73.3 7.7 -102.85 15.6 -114.4 20.5 L-125.55 25.3 -119.05 29.05 Q-68.95 23.8 -51.65 26.8 -34.4 29.75 -23.55 33.7 -12.7 37.7 -13.25 37.75 L21.65 37.8 22.2 -1.05" fill="#000000" fill-rule="evenodd" stroke="none"/>
    <path d="M19.5 1.0 L18.75 2.25 7.5 2.75 -20.85 5.6 Q-39.3 7.55 -72.0 22.4 L-88.2 23.0 Q-102.7 24.05 -116.65 27.4 L-118.55 27.3 -121.1 25.95 -121.3 25.1 Q-113.65 21.45 -105.65 18.75 -96.1 15.4 -86.15 12.9 -75.25 9.95 -64.3 7.55 -48.0 4.15 -31.35 2.55 -6.0 -0.45 19.5 1.0 M-91.9 17.5 L-92.25 17.1 -93.15 17.25 -94.5 17.1 -100.45 18.85 Q-106.0 20.75 -111.45 23.0 -112.55 23.4 -113.5 24.05 L-112.8 25.05 Q-104.7 23.1 -96.6 20.4 L-93.45 18.95 -92.8 18.4 -92.8 18.35 -91.9 17.5" fill="#e0dede" fill-rule="evenodd" stroke="none"/>
    <path d="M-91.9 17.5 L-92.8 18.35 -92.8 18.4 -93.45 18.95 -96.6 20.4 Q-104.7 23.1 -112.8 25.05 L-113.5 24.05 Q-112.55 23.4 -111.45 23.0 -106.0 20.75 -100.45 18.85 L-94.5 17.1 -93.15 17.25 -92.25 17.1 -91.9 17.5" fill="#f2f2f2" fill-rule="evenodd" stroke="none"/>
    <path d="M37.5 -5.3 L34.3 -2.45 33.8 28.5 49.05 28.5 49.0 12.7 Q49.05 11.0 49.65 10.5 54.35 9.05 70.25 9.25 L72.95 7.0 74.65 5.4 Q88.95 -7.7 108.2 -7.55 L108.1 -10.5 107.85 -22.85 107.95 -32.0 107.75 -32.6 Q98.3 -32.8 89.05 -31.3 62.2 -27.0 37.5 -5.3 M34.5 -9.7 L38.0 -12.45 Q43.0 -16.2 48.5 -19.4 76.4 -35.9 109.0 -36.6 L111.65 -36.45 110.7 -10.5 110.45 -2.75 107.15 -2.8 Q91.45 -2.85 79.4 7.0 L79.35 7.0 79.05 7.25 77.85 8.4 73.5 11.85 73.15 31.5 28.35 31.5 28.3 29.0 29.0 -5.25 34.5 -9.7 M68.7 28.35 L68.7 13.25 52.05 13.25 52.05 28.35 68.7 28.35" fill="#000000" fill-rule="evenodd" stroke="none"/>
    <path d="M37.45 -4.05 L37.0 -3.65 37.0 -2.0 Q37.25 0.2 36.65 2.05 L36.45 3.0 36.05 12.0 36.0 13.45 36.1 13.05 36.3 12.45 Q36.5 11.4 37.15 10.6 L39.2 7.65 Q41.0 4.7 43.85 1.85 L45.05 0.55 46.4 -1.1 Q47.9 -3.0 50.05 -4.95 L55.35 -10.15 59.9 -14.1 Q64.5 -17.5 69.45 -20.55 L72.9 -22.7 81.95 -28.15 83.15 -28.8 Q84.8 -29.55 85.55 -30.5 L84.5 -30.1 83.65 -29.8 Q82.75 -29.3 81.05 -29.25 L80.5 -29.1 Q77.3 -27.5 73.95 -26.15 L73.05 -25.85 64.95 -22.1 63.55 -21.4 Q59.25 -19.2 55.55 -16.9 L53.4 -15.65 Q48.15 -12.6 44.45 -9.55 41.05 -6.65 37.45 -4.05 M37.5 -5.3 Q62.2 -27.0 89.05 -31.3 98.3 -32.8 107.75 -32.6 L107.95 -32.0 107.85 -22.85 108.1 -10.5 108.2 -7.55 Q88.95 -7.7 74.65 5.4 L72.95 7.0 70.25 9.25 Q54.35 9.05 49.65 10.5 49.05 11.0 49.0 12.7 L49.05 28.5 33.8 28.5 34.3 -2.45 37.5 -5.3 M47.7 15.35 L47.6 15.3 Q45.8 15.8 44.5 17.0 L43.1 18.15 39.4 20.85 35.65 24.15 34.85 24.75 34.25 25.25 34.35 25.55 34.6 26.0 39.5 26.35 44.55 26.8 Q47.8 27.7 47.6 24.5 47.5 23.25 47.7 22.05 48.05 19.35 48.05 16.45 L47.8 15.55 47.75 15.4 47.7 15.35 M67.0 22.0 L67.2 19.55 67.5 15.6 66.9 14.55 Q66.25 13.5 64.5 13.65 L59.5 13.9 54.5 14.25 54.0 14.25 Q52.95 14.2 52.95 15.0 L52.8 16.45 52.75 17.0 52.5 26.0 Q52.5 26.5 52.65 26.55 L55.5 27.05 65.5 26.6 Q66.0 26.5 66.25 26.25 L66.6 25.55 Q67.0 23.85 67.0 22.0 M106.05 -27.1 L106.05 -29.0 105.8 -30.75 100.95 -26.65 Q99.6 -25.6 98.95 -24.55 L98.5 -24.05 96.7 -22.8 95.9 -22.2 86.6 -15.45 Q76.6 -8.35 67.1 -0.9 L65.4 0.35 55.5 7.5 Q61.25 7.5 67.0 7.65 68.7 7.7 69.45 6.95 73.05 3.25 77.05 0.0 79.65 -2.05 82.55 -3.5 86.6 -5.45 90.6 -6.95 L94.55 -8.45 Q96.7 -9.3 99.05 -9.55 L103.55 -9.95 Q104.05 -10.0 104.1 -10.15 L104.75 -12.45 104.85 -13.05 105.2 -16.5 105.5 -20.5 105.75 -23.45 106.05 -27.1 M68.7 28.35 L52.05 28.35 52.05 13.25 68.7 13.25 68.7 28.35" fill="#2e2a26" fill-rule="evenodd" stroke="none"/>
    <path d="M37.45 -4.05 Q41.05 -6.65 44.45 -9.55 48.15 -12.6 53.4 -15.65 L55.55 -16.9 Q59.25 -19.2 63.55 -21.4 L64.95 -22.1 73.05 -25.85 73.95 -26.15 Q77.3 -27.5 80.5 -29.1 L81.05 -29.25 Q82.75 -29.3 83.65 -29.8 L84.5 -30.1 85.55 -30.5 Q84.8 -29.55 83.15 -28.8 L81.95 -28.15 72.9 -22.7 69.45 -20.55 Q64.5 -17.5 59.9 -14.1 L55.35 -10.15 50.05 -4.95 Q47.9 -3.0 46.4 -1.1 L45.05 0.55 43.85 1.85 Q41.0 4.7 39.2 7.65 L37.15 10.6 Q36.5 11.4 36.3 12.45 L36.1 13.05 36.0 13.45 36.05 12.0 36.45 3.0 36.65 2.05 Q37.25 0.2 37.0 -2.0 L37.0 -3.65 37.45 -4.05" fill="#524b45" fill-rule="evenodd" stroke="none"/>
    <path d="M106.05 -27.1 L105.75 -23.45 105.5 -20.5 105.2 -16.5 104.85 -13.05 104.75 -12.45 104.1 -10.15 Q104.05 -10.0 103.55 -9.95 L99.05 -9.55 Q96.7 -9.3 94.55 -8.45 L90.6 -6.95 Q86.6 -5.45 82.55 -3.5 79.65 -2.05 77.05 0.0 73.05 3.25 69.45 6.95 68.7 7.7 67.0 7.65 61.25 7.5 55.5 7.5 L65.4 0.35 67.1 -0.9 Q76.6 -8.35 86.6 -15.45 L95.9 -22.2 96.7 -22.8 98.5 -24.05 98.95 -24.55 Q99.6 -25.6 100.95 -26.65 L105.8 -30.75 106.05 -29.0 106.05 -27.1 M67.0 22.0 Q67.0 23.85 66.6 25.55 L66.25 26.25 Q66.0 26.5 65.5 26.6 L55.5 27.05 52.65 26.55 Q52.5 26.5 52.5 26.0 L52.75 17.0 52.8 16.45 52.95 15.0 Q52.95 14.2 54.0 14.25 L54.5 14.25 59.5 13.9 64.5 13.65 Q66.25 13.5 66.9 14.55 L67.5 15.6 67.2 19.55 67.0 22.0 M47.7 15.35 L47.75 15.4 47.8 15.55 48.05 16.45 Q48.05 19.35 47.7 22.05 47.5 23.25 47.6 24.5 47.8 27.7 44.55 26.8 L39.5 26.35 34.6 26.0 34.35 25.55 34.25 25.25 34.85 24.75 35.65 24.15 39.4 20.85 43.1 18.15 44.5 17.0 Q45.8 15.8 47.6 15.3 L47.7 15.35" fill="#141210" fill-rule="evenodd" stroke="none"/>
    <path d="M109.25 18.75 L109.25 33.0 77.0 33.0 76.95 32.95 76.0 33.0 76.0 18.75 Q75.45 6.8 87.7 8.7 90.6 8.95 92.35 11.4 97.05 7.1 102.55 8.8 108.05 10.5 108.65 12.4 109.2 14.3 109.25 18.75 M102.3 30.45 L106.8 30.45 106.8 16.35 Q107.05 10.4 100.0 10.85 92.95 11.25 94.0 17.0 L93.85 18.0 93.85 30.45 98.15 30.45 102.3 30.45 M84.55 30.4 L90.7 30.4 90.45 14.35 Q90.2 12.05 89.0 11.65 86.7 9.7 83.4 10.0 L82.05 10.2 Q77.05 12.85 77.8 18.0 L77.8 30.4 80.15 30.4 84.55 30.4" fill="#000000" fill-rule="evenodd" stroke="none"/>
    <path d="M102.3 30.45 L102.0 18.7 101.85 12.9 Q96.8 13.0 97.15 17.85 L97.15 20.0 97.1 30.3 98.15 30.45 93.85 30.45 93.85 18.0 94.0 17.0 Q92.95 11.25 100.0 10.85 107.05 10.4 106.8 16.35 L106.8 30.45 102.3 30.45 M80.15 30.4 L77.8 30.4 77.8 18.0 Q77.05 12.85 82.05 10.2 L83.4 10.0 Q86.7 9.7 89.0 11.65 90.2 12.05 90.45 14.35 L90.7 30.4 84.55 30.4 84.55 30.3 84.7 25.55 84.75 20.0 84.7 18.75 84.65 18.0 84.75 11.75 Q79.4 13.05 79.8 18.75 L79.95 20.8 80.05 22.55 80.15 30.4" fill="#999999" fill-rule="evenodd" stroke="none"/>
    <path d="M98.15 30.45 L97.1 30.3 97.15 20.0 97.15 17.85 Q96.8 13.0 101.85 12.9 L102.0 18.7 102.3 30.45 98.15 30.45 M80.15 30.4 L80.05 22.55 79.95 20.8 79.8 18.75 Q79.4 13.05 84.75 11.75 L84.65 18.0 84.7 18.75 84.75 20.0 84.7 25.55 84.55 30.3 84.55 30.4 80.15 30.4" fill="#333333" fill-rule="evenodd" stroke="none"/>
    <path d="M131.05 38.25 Q130.3 38.1 129.55 37.5 L129.3 37.35 127.25 36.35 126.6 35.9 Q124.65 34.65 122.05 33.5 L120.85 32.9 Q118.65 31.55 116.3 30.45 L115.3 30.35 115.15 30.5 114.95 31.5 114.9 31.75 114.55 36.5 Q114.3 38.1 114.35 39.8 L114.15 45.9 Q115.9 44.45 117.8 43.3 119.15 42.5 120.6 41.9 125.9 39.65 131.05 38.25 M139.0 43.5 Q135.95 47.15 132.25 50.05 L133.8 50.05 143.55 50.05 145.55 50.15 Q146.2 50.2 146.25 49.8 L146.3 48.55 146.2 46.55 146.05 46.3 Q145.5 45.7 144.35 45.2 L139.3 43.25 139.0 43.5 M112.25 51.25 L113.3 27.05 148.35 46.25 148.65 51.2 112.25 51.25" fill="#6633cc" fill-rule="evenodd" stroke="none"/>
    <path d="M131.05 38.25 Q125.9 39.65 120.6 41.9 119.15 42.5 117.8 43.3 115.9 44.45 114.15 45.9 L114.35 39.8 Q114.3 38.1 114.55 36.5 L114.9 31.75 114.95 31.5 115.15 30.5 115.3 30.35 116.3 30.45 Q118.65 31.55 120.85 32.9 L122.05 33.5 Q124.65 34.65 126.6 35.9 L127.25 36.35 129.3 37.35 129.55 37.5 Q130.3 38.1 131.05 38.25" fill="#8a64d9" fill-rule="evenodd" stroke="none"/>
    <path d="M139.0 43.5 L139.3 43.25 144.35 45.2 Q145.5 45.7 146.05 46.3 L146.2 46.55 146.3 48.55 146.25 49.8 Q146.2 50.2 145.55 50.15 L143.55 50.05 133.8 50.05 132.25 50.05 Q135.95 47.15 139.0 43.5" fill="#432288" fill-rule="evenodd" stroke="none"/>
    <path d="M111.2 21.8 L152.5 45.75 152.0 54.5 108.9 55.2 108.9 50.55 108.8 40.0 108.55 24.0 111.2 21.8 M112.25 51.25 L148.65 51.2 148.35 46.25 113.3 27.05 112.25 51.25" fill="#000000" fill-rule="evenodd" stroke="none"/>
    <path d="M223.8 162.45 L243.05 162.45 243.0 159.4 253.25 159.35 253.0 198.15 242.3 198.2 242.35 195.55 223.1 195.65 223.1 198.55 213.8 198.6 213.85 159.85 223.8 159.7 223.8 162.45 M223.75 168.85 L220.75 168.85 220.55 162.2 216.6 162.25 Q216.75 189.1 216.3 195.9 L220.5 195.95 220.55 190.15 223.15 190.15 223.1 192.55 242.35 192.6 242.35 189.1 244.85 189.1 244.8 195.65 250.5 195.7 250.7 162.3 246.2 162.1 245.95 167.8 242.95 167.8 242.75 165.5 223.75 165.5 223.75 168.85 M219.9 175.95 L220.35 174.9 246.05 174.9 246.75 175.8 Q248.0 177.3 248.0 178.1 248.05 180.2 247.35 182.15 L220.45 182.15 Q219.9 181.45 219.65 180.75 L219.5 180.15 219.45 179.1 Q219.35 177.45 219.9 175.95 M221.65 178.5 L222.55 180.1 244.55 180.2 245.1 178.75 244.15 177.0 222.6 176.75 221.65 178.5" fill="#000000" fill-rule="evenodd" stroke="none"/>
    <path d="M219.9 175.95 Q219.35 177.45 219.45 179.1 L219.5 180.15 219.65 180.75 Q219.9 181.45 220.45 182.15 L247.35 182.15 Q248.05 180.2 248.0 178.1 248.0 177.3 246.75 175.8 L246.05 174.9 220.35 174.9 219.9 175.95 M223.75 168.85 L223.75 165.5 242.75 165.5 242.95 167.8 245.95 167.8 246.2 162.1 250.7 162.3 250.5 195.7 244.8 195.65 244.85 189.1 242.35 189.1 242.35 192.6 223.1 192.55 223.15 190.15 220.55 190.15 220.5 195.95 216.3 195.9 Q216.75 189.1 216.6 162.25 L220.55 162.2 220.75 168.85 223.75 168.85" fill="#3366ff" fill-rule="evenodd" stroke="none"/>
    <path d="M221.65 178.5 L222.6 176.75 244.15 177.0 245.1 178.75 244.55 180.2 222.55 180.1 221.65 178.5" fill="#990000" fill-rule="evenodd" stroke="none"/>
    <path d="M289.85 -1.0 L289.6 -0.75" fill="none" stroke="#000066" stroke-linecap="round" stroke-linejoin="round" stroke-width="0.1"/>
    <path d="M301.0 -16.95 Q321.55 -26.95 343.95 -31.8 365.85 -36.45 388.15 -35.95 L395.35 -35.65 Q395.35 -20.65 395.6 -5.85 L392.25 -3.55 389.0 -3.65 360.9 -3.45 361.35 6.8 358.8 7.25 286.9 7.1 279.9 6.95 276.75 6.8 276.7 6.8 Q274.1 1.9 276.35 -0.05 286.1 -8.45 297.15 -14.85 L301.0 -16.95 M284.0 -2.25 L278.35 1.7 278.25 2.85 358.15 3.05 358.05 -4.5 Q359.15 -6.7 361.55 -7.0 373.55 -7.35 385.4 -7.15 L391.7 -6.95 392.35 -32.05 Q376.4 -32.85 355.75 -29.9 333.6 -26.5 312.75 -17.7 297.8 -11.5 284.0 -2.25" fill="#000000" fill-rule="evenodd" stroke="none"/>
    <path d="M292.1 -6.2 L291.15 -5.65 287.25 -2.85 284.85 -0.95 Q284.35 -0.5 284.15 0.05 L285.45 1.1 285.85 1.4 Q286.85 2.05 288.3 2.0 L289.05 2.1 292.1 2.5 299.35 2.4 299.85 2.35 308.6 2.2 314.6 1.65 316.85 1.5 317.3 1.4 318.35 1.25 318.75 1.15 318.95 0.8 319.05 0.5 319.8 -1.0 Q320.15 -1.85 320.85 -2.3 L321.1 -2.5 322.8 -4.55 323.15 -4.9 Q324.45 -5.9 325.55 -7.25 L326.8 -8.55 327.65 -9.2 330.6 -11.55 331.15 -11.9 332.1 -12.5 332.9 -13.15 333.5 -13.6 334.2 -14.1 337.35 -16.3 343.65 -20.0 344.3 -20.35 Q346.2 -21.45 348.15 -22.2 L353.1 -24.25 357.6 -26.0 362.35 -27.5 362.8 -27.65 369.1 -29.55 368.35 -29.55 367.35 -29.45 365.6 -29.4 364.3 -29.15 363.85 -29.0 358.6 -28.1 358.15 -27.95 355.85 -27.45 355.35 -27.4 353.1 -27.1 348.1 -26.3 343.1 -25.45 338.4 -24.45 329.35 -22.1 320.3 -19.4 319.15 -18.95 Q315.25 -17.25 311.35 -15.85 L310.45 -15.4 309.1 -14.8 306.55 -13.85 297.8 -9.85 Q295.9 -8.9 294.15 -7.45 L292.1 -6.2 M284.0 -2.25 Q297.8 -11.5 312.75 -17.7 333.6 -26.5 355.75 -29.9 376.4 -32.85 392.35 -32.05 L391.7 -6.95 385.4 -7.15 Q373.55 -7.35 361.55 -7.0 359.15 -6.7 358.05 -4.5 L358.15 3.05 278.25 2.85 278.35 1.7 284.0 -2.25 M356.5 -3.25 Q356.25 -5.25 356.55 -6.9 L380.75 -8.45 389.5 -8.4 Q390.35 -9.2 390.25 -10.3 389.3 -18.45 390.8 -25.8 391.0 -26.65 390.85 -27.55 385.9 -24.7 380.6 -20.65 378.05 -18.75 375.3 -17.1 364.7 -10.9 353.6 -5.75 L338.9 1.75 Q338.3 2.25 339.85 2.3 L355.75 1.85 Q356.55 0.95 356.6 -0.5 L356.5 -3.25" fill="#6633cc" fill-rule="evenodd" stroke="none"/>
    <path d="M292.1 -6.2 L294.15 -7.45 Q295.9 -8.9 297.8 -9.85 L306.55 -13.85 309.1 -14.8 310.45 -15.4 311.35 -15.85 Q315.25 -17.25 319.15 -18.95 L320.3 -19.4 329.35 -22.1 338.4 -24.45 343.1 -25.45 348.1 -26.3 353.1 -27.1 355.35 -27.4 355.85 -27.45 358.15 -27.95 358.6 -28.1 363.85 -29.0 364.3 -29.15 365.6 -29.4 367.35 -29.45 368.35 -29.55 369.1 -29.55 362.8 -27.65 362.35 -27.5 357.6 -26.0 353.1 -24.25 348.15 -22.2 Q346.2 -21.45 344.3 -20.35 L343.65 -20.0 337.35 -16.3 334.2 -14.1 333.5 -13.6 332.9 -13.15 332.1 -12.5 331.15 -11.9 330.6 -11.55 327.65 -9.2 326.8 -8.55 325.55 -7.25 Q324.45 -5.9 323.15 -4.9 L322.8 -4.55 321.1 -2.5 320.85 -2.3 Q320.15 -1.85 319.8 -1.0 L319.05 0.5 318.95 0.8 318.75 1.15 318.35 1.25 317.3 1.4 316.85 1.5 314.6 1.65 308.6 2.2 299.85 2.35 299.35 2.4 292.1 2.5 289.05 2.1 288.3 2.0 Q286.85 2.05 285.85 1.4 L285.45 1.1 284.15 0.05 Q284.35 -0.5 284.85 -0.95 L287.25 -2.85 291.15 -5.65 292.1 -6.2" fill="#8a64d9" fill-rule="evenodd" stroke="none"/>
    <path d="M356.5 -3.25 L356.6 -0.5 Q356.55 0.95 355.75 1.85 L339.85 2.3 Q338.3 2.25 338.9 1.75 L353.6 -5.75 Q364.7 -10.9 375.3 -17.1 378.05 -18.75 380.6 -20.65 385.9 -24.7 390.85 -27.55 391.0 -26.65 390.8 -25.8 389.3 -18.45 390.25 -10.3 390.35 -9.2 389.5 -8.4 L380.75 -8.45 356.55 -6.9 Q356.25 -5.25 356.5 -3.25" fill="#432288" fill-rule="evenodd" stroke="none"/>
    <path d="M426.75 11.35 L434.95 11.05 434.95 15.95 434.8 16.5 Q434.65 17.1 434.65 19.4 L434.65 21.4 426.5 21.4 426.75 11.35 M409.3 -2.0 L423.9 -1.85 423.95 1.4 409.2 1.75 409.3 -2.0 M371.3 -2.0 L385.9 -1.85 385.95 1.4 371.2 1.75 371.3 -2.0 M409.4 21.9 L424.5 21.9 424.5 25.6 409.4 25.6 409.4 21.9 M407.15 10.95 L407.0 21.35 388.5 21.25 388.75 10.55 407.15 10.95 M369.15 11.0 L369.0 21.8 367.6 21.65 361.55 21.65 359.3 21.75 359.4 19.75 359.15 11.2 369.15 11.0 M395.45 23.85 L395.45 24.15 395.25 39.4 389.6 39.1 359.8 39.15 360.0 24.75 360.0 24.45 362.05 24.4 368.95 24.35 368.9 27.25 388.35 27.65 388.45 23.85 395.45 23.85 M374.1 38.05 L393.9 38.65 394.15 38.5 394.45 37.7 394.5 34.8 394.35 27.9 389.9 30.5 383.15 34.1 Q378.75 36.4 374.1 38.05 M371.4 21.9 L386.5 21.9 386.5 25.6 371.4 25.6 371.4 21.9" fill="#a29b99" fill-rule="evenodd" stroke="none"/>
    <path d="M389.3 -5.2 L388.95 8.35 407.2 8.0 407.3 2.0 407.35 2.0 407.35 -1.6 407.35 -2.8 407.35 -5.1 427.05 -5.35 427.05 -5.7 427.05 -5.35 427.1 -5.35 427.1 -5.0 427.05 -5.2 426.8 8.55 437.35 8.3 437.35 23.75 Q436.75 24.15 436.55 24.15 L426.45 24.1 426.35 27.65 406.9 27.25 406.95 23.8 397.15 23.85 397.15 26.1 397.2 41.15 357.8 41.35 358.1 24.25 357.85 24.15 356.8 23.55 356.85 23.5 356.6 23.4 356.3 19.4 356.4 18.05 356.3 18.05 356.5 8.0 369.2 8.05 369.4 -5.25 370.0 -5.1 Q385.65 -5.55 389.2 -4.85 L389.3 -5.2 M371.3 -2.0 L371.2 1.75 385.95 1.4 385.9 -1.85 371.3 -2.0 M409.3 -2.0 L409.2 1.75 423.95 1.4 423.9 -1.85 409.3 -2.0 M426.75 11.35 L426.5 21.4 434.65 21.4 434.65 19.4 Q434.65 17.1 434.8 16.5 L434.95 15.95 434.95 11.05 426.75 11.35 M424.2 9.25 L424.2 4.3 409.45 4.3 409.45 9.25 409.45 19.15 424.2 19.15 424.2 9.25 M407.15 10.95 L388.75 10.55 388.5 21.25 407.0 21.35 407.15 10.95 M409.4 21.9 L409.4 25.6 424.5 25.6 424.5 21.9 409.4 21.9 M386.2 9.75 L386.2 4.3 371.4 4.3 371.4 9.75 371.4 19.15 386.2 19.15 386.2 9.75 M395.45 23.85 L388.45 23.85 388.35 27.65 368.9 27.25 368.95 24.35 362.05 24.4 360.0 24.45 360.0 24.75 359.8 39.15 389.6 39.1 395.25 39.4 395.45 24.15 395.45 23.85 M369.15 11.0 L359.15 11.2 359.4 19.75 359.3 21.75 361.55 21.65 367.6 21.65 369.0 21.8 369.15 11.0 M371.4 21.9 L371.4 25.6 386.5 25.6 386.5 21.9 371.4 21.9" fill="#000000" fill-rule="evenodd" stroke="none"/>
    <path d="M424.2 9.25 L423.85 9.25 414.85 9.25 409.45 9.25 409.45 4.3 424.2 4.3 424.2 9.25 M371.4 9.75 L371.4 4.3 386.2 4.3 386.2 9.75 385.85 9.75 376.1 9.75 371.4 9.75" fill="#534b4a" fill-rule="evenodd" stroke="none"/>
    <path d="M409.45 9.25 L414.85 9.25 423.85 9.25 424.2 9.25 424.2 19.15 409.45 19.15 409.45 9.25 M371.4 9.75 L376.1 9.75 385.85 9.75 386.2 9.75 386.2 19.15 371.4 19.15 371.4 9.75 M374.1 38.05 Q378.75 36.4 383.15 34.1 L389.9 30.5 394.35 27.9 394.5 34.8 394.45 37.7 394.15 38.5 393.9 38.65 374.1 38.05" fill="#756c6a" fill-rule="evenodd" stroke="none"/>
    <path d="M273.2 72.15 L273.6 73.2 Q273.45 79.85 273.75 101.35 L161.75 101.45 161.85 86.3 161.85 85.8 161.35 85.8 161.1 85.8 156.65 85.4 152.65 85.3 151.5 85.3 151.65 72.35 273.2 72.15 M270.5 98.35 L270.15 78.85 222.55 100.55 234.6 100.25 270.5 98.35 M172.0 98.35 L222.6 74.1 Q188.9 75.55 155.3 75.05 L155.6 82.0 156.55 82.6 157.4 83.05 158.55 83.05 Q161.05 82.7 163.5 83.85 166.25 91.4 164.05 99.55 L170.55 99.05 Q171.5 99.05 172.0 98.35" fill="#990000" fill-rule="evenodd" stroke="none"/>
    <path d="M270.5 98.35 L234.6 100.25 222.55 100.55 270.15 78.85 270.5 98.35" fill="#5e0000" fill-rule="evenodd" stroke="none"/>
    <path d="M275.8 71.15 L275.8 71.65 275.8 72.0 Q276.3 85.9 276.3 96.35 L276.25 102.6 276.25 103.1 275.2 104.1 160.95 104.0 160.6 103.75 160.45 103.75 159.15 102.8 159.25 102.65 159.15 102.55 159.55 101.85 159.45 88.15 150.8 88.1 150.45 87.85 150.3 87.85 148.2 86.3 148.2 86.05 148.45 70.25 148.45 70.0 274.2 69.85 275.8 71.15 M273.2 72.15 L151.65 72.35 151.5 85.3 152.65 85.3 156.65 85.4 161.1 85.8 161.35 85.8 161.85 85.8 161.85 86.3 161.75 101.45 273.75 101.35 Q273.45 79.85 273.6 73.2 L273.2 72.15" fill="#000000" fill-rule="evenodd" stroke="none"/>
    <path d="M172.0 98.35 Q171.5 99.05 170.55 99.05 L164.05 99.55 Q166.25 91.4 163.5 83.85 161.05 82.7 158.55 83.05 L157.4 83.05 156.55 82.6 155.6 82.0 155.3 75.05 Q188.9 75.55 222.6 74.1 L172.0 98.35" fill="#ff0f0f" fill-rule="evenodd" stroke="none"/>
    <path d="M289.7 101.4 L290.0 101.0 289.95 100.2 Q289.75 97.75 289.9 95.25 L289.9 94.85 289.8 94.85 Q289.7 94.9 289.55 95.0 L288.6 95.3 288.05 94.8 287.55 94.85 287.4 95.0 287.3 99.8 287.3 100.5 287.4 101.25 287.45 101.4 286.45 101.4 286.55 100.45 286.65 99.65 286.75 98.15 286.75 96.2 286.65 95.6 286.6 95.15 286.55 94.75 296.9 94.85 296.9 97.0 296.95 97.75 297.0 99.1 296.95 101.0 297.0 101.35 289.7 101.4 M302.75 101.35 L304.55 101.25 Q304.25 100.2 304.25 99.0 L304.3 98.65 304.4 96.0 304.5 95.1 304.5 95.0 304.65 95.0 304.85 95.0 306.2 94.95 Q305.95 96.3 305.95 98.9 L305.9 100.7 305.95 101.35 304.9 101.35 302.75 101.35 M165.6 101.5 L165.9 95.55 165.8 93.3 168.65 93.35 168.55 101.45 165.6 101.5 M161.6 93.3 Q161.8 94.0 161.25 95.15 L161.05 96.05 161.05 101.5 159.35 101.5 158.35 101.4 158.55 93.25 161.6 93.3 M164.75 88.1 L171.65 88.0 171.15 91.5 164.5 91.55 Q164.45 89.75 164.75 88.1 M180.7 87.85 L182.9 87.8 182.75 91.45 181.05 91.45 180.7 87.85 M177.2 93.4 L180.1 93.4 180.15 101.4 177.0 101.45 177.2 93.4 M248.7 116.9 L248.7 115.55 248.55 113.6 248.5 113.05 248.45 112.55 248.45 112.1 247.8 112.15 245.05 112.3 244.6 112.2 Q243.65 111.8 243.1 110.75 L242.3 109.5 242.05 109.7 241.75 110.05 241.55 112.55 241.45 113.0 241.35 113.3 241.25 114.3 241.4 116.3 241.45 116.8 241.5 116.9 228.8 116.95 228.85 116.05 Q228.8 115.45 228.9 114.8 L229.1 112.95 229.05 109.75 228.95 109.4 Q228.55 109.15 228.05 109.05 L227.8 109.05 227.65 109.95 227.5 110.85 227.45 110.25 227.3 109.25 Q227.35 109.65 226.8 109.55 L226.45 109.5 226.85 109.0 202.3 109.0 202.45 109.25 200.85 109.55 200.55 109.6 Q200.0 109.6 200.05 110.0 L200.1 113.95 200.15 115.05 200.2 115.15 200.15 115.55 Q200.1 116.6 200.75 116.95 L187.2 117.0 Q187.85 116.7 187.65 115.55 L187.55 114.05 187.55 112.95 187.65 109.25 187.75 108.9 Q194.05 107.8 200.0 105.2 L200.6 105.05 151.55 104.55 152.0 112.05 151.05 117.15 150.65 117.2 150.65 109.4 150.65 104.75 150.65 103.25 157.7 103.3 160.35 103.4 164.35 103.4 163.65 103.3 304.15 103.6 308.3 103.75 310.7 103.85 312.5 104.0 312.5 105.15 312.8 116.8 312.8 116.85 268.15 116.9 268.4 114.55 268.5 113.3 268.5 113.25 268.45 112.05 268.4 110.25 Q268.55 109.4 267.8 109.4 L267.55 109.4 267.3 109.35 Q266.45 109.25 266.5 110.0 L266.45 112.55 266.4 112.8 266.4 113.2 266.3 116.9 265.75 116.9 265.9 114.55 265.9 114.5 266.0 113.3 266.05 113.2 Q266.15 111.85 266.4 110.5 266.7 109.0 265.3 109.35 L264.45 109.95 263.5 111.55 263.4 111.8 Q263.25 112.35 262.55 112.2 L262.3 112.15 261.05 111.95 Q260.2 111.8 260.2 112.55 L260.2 112.8 260.15 112.8 260.1 114.2 260.05 116.9 258.9 116.9 258.9 111.25 263.1 111.25 264.35 109.0 242.85 109.25 244.35 111.2 249.8 111.2 249.8 116.9 248.7 116.9 M224.65 111.15 L224.05 111.55 222.3 111.9 222.05 112.0 221.8 112.1 221.6 113.2 221.55 113.75 221.55 114.05 221.65 116.55 221.7 116.95 220.6 116.95 220.6 111.15 224.65 111.15 M205.9 116.95 L205.95 116.8 206.05 114.75 206.05 114.0 206.05 112.25 206.1 112.2 206.35 111.3 206.4 111.1 206.8 111.1 206.8 116.95 205.9 116.95 M180.5 117.0 L180.0 117.0 180.0 110.95 182.3 110.7 183.7 109.4 186.6 109.05 186.65 109.5 186.7 109.75 186.75 112.8 186.7 113.55 186.65 114.05 186.55 117.0 183.1 117.0 183.3 116.95 183.8 116.95 185.6 116.65 185.8 116.55 185.9 115.65 186.0 113.1 186.05 112.7 186.05 110.25 185.95 109.9 185.6 109.65 183.55 109.8 183.4 110.0 Q183.35 110.7 182.85 110.9 L181.3 111.1 180.8 111.05 180.55 111.05 180.45 112.8 180.35 115.55 180.3 116.55 180.3 116.95 180.5 117.0 M163.25 109.85 L163.8 110.5 163.05 110.5 161.8 110.6 161.65 110.8 161.6 113.2 161.55 117.0 156.65 117.0 160.95 116.55 161.65 110.65 163.25 109.85 M165.3 110.9 L166.05 110.9 166.05 117.0 161.7 117.0 161.8 116.9 162.8 116.7 164.3 116.55 164.5 116.55 165.55 116.45 165.7 116.4 165.7 116.3 165.8 114.55 165.75 112.65 165.7 111.8 165.7 111.2 165.55 111.2 165.3 110.9 M308.3 106.7 L308.3 106.75 Q304.0 108.8 299.5 111.5 L296.1 113.4 Q292.3 115.4 288.8 116.55 L292.55 116.45 293.3 116.4 294.8 116.2 298.55 115.95 301.45 116.0 308.3 116.05 310.05 116.15 Q310.85 116.25 311.0 115.8 L311.15 115.35 311.35 114.05 311.2 109.0 311.05 105.75 311.15 105.2 310.0 105.7 309.35 106.1 308.3 106.7 M158.65 88.2 L158.9 91.55 156.1 91.55 156.0 88.25 158.65 88.2" fill="#990000" fill-rule="evenodd" stroke="none"/>
    <path d="M289.7 101.4 L297.0 101.35 302.75 101.35 304.9 101.35 305.95 101.35 305.9 100.7 305.95 98.9 Q305.95 96.3 306.2 94.95 L304.85 95.0 304.65 95.0 304.5 95.0 304.3 94.95 304.4 94.9 296.9 94.85 286.55 94.75 286.6 95.15 286.65 95.6 286.75 96.2 286.75 98.15 286.65 99.65 286.55 100.45 286.45 101.4 287.45 101.4 289.7 101.4 M285.65 93.35 L285.7 93.4 285.9 93.15 306.5 93.05 307.4 93.7 307.5 93.6 Q308.4 93.95 308.4 94.55 308.45 99.0 308.05 101.05 L308.0 101.25 308.1 101.25 312.4 101.1 313.25 101.15 315.1 101.2 315.1 103.15 315.05 103.15 315.1 103.55 315.1 119.95 314.9 120.1 157.15 120.0 149.0 119.6 148.2 119.0 148.2 101.55 148.25 101.5 149.7 101.5 149.0 101.55 150.45 101.5 156.5 101.4 156.7 93.15 154.1 93.1 154.4 85.8 158.55 85.75 184.75 85.6 184.85 91.45 184.75 91.9 184.1 93.35 182.05 93.45 181.9 101.4 186.5 101.45 191.05 101.45 191.1 101.5 285.0 101.4 Q284.85 100.5 284.85 98.95 L284.85 98.8 284.9 96.2 284.9 96.15 284.9 96.1 284.85 94.5 285.65 93.35 M165.8 93.3 L161.6 93.3 158.55 93.25 158.35 101.4 159.35 101.5 161.05 101.5 165.6 101.5 168.55 101.45 177.0 101.45 180.15 101.4 180.1 93.4 177.2 93.4 168.65 93.35 165.8 93.3 M171.65 88.0 L164.75 88.1 158.65 88.2 156.0 88.25 156.1 91.55 158.9 91.55 164.5 91.55 171.15 91.5 181.05 91.45 182.75 91.45 182.9 87.8 180.7 87.85 171.65 88.0 M248.7 116.9 L249.8 116.9 249.8 111.2 244.35 111.2 242.85 109.25 264.35 109.0 263.1 111.25 258.9 111.25 258.9 116.9 260.05 116.9 263.35 116.9 263.35 116.8 265.75 116.8 265.75 116.9 266.3 116.9 268.15 116.9 312.8 116.85 312.8 116.8 312.5 105.15 312.5 104.0 310.7 103.85 308.3 103.75 304.15 103.6 163.65 103.3 164.35 103.4 160.35 103.4 157.7 103.3 150.65 103.25 150.65 104.75 150.65 109.4 150.65 117.2 151.05 117.15 156.65 117.0 161.55 117.0 161.7 117.0 166.05 117.0 166.05 110.9 165.3 110.9 164.1 110.85 163.8 110.5 163.25 109.85 162.55 109.0 184.05 109.0 183.7 109.4 182.3 110.7 180.0 110.95 180.0 117.0 180.5 117.0 183.1 117.0 186.55 117.0 187.2 117.0 200.75 116.95 205.9 116.95 206.8 116.95 206.8 111.1 206.4 111.1 205.65 111.1 203.55 110.8 202.45 109.25 202.3 109.0 226.85 109.0 226.45 109.5 225.1 111.15 224.65 111.15 220.6 111.15 220.6 116.95 221.7 116.95 227.55 116.95 228.8 116.95 241.5 116.9 248.7 116.9 M218.15 111.15 L209.25 111.1 209.25 116.95 218.15 116.95 218.15 111.15 M177.55 110.95 L168.5 110.9 168.5 117.0 177.55 117.0 177.55 110.95 M256.45 111.25 L252.25 111.2 252.25 116.9 256.45 116.9 256.45 111.25" fill="#000000" fill-rule="evenodd" stroke="none"/>
    <path d="M287.45 101.4 L287.4 101.25 287.3 100.5 287.3 99.8 287.4 95.0 287.55 94.85 288.05 94.8 288.6 95.3 289.55 95.0 Q289.7 94.9 289.8 94.85 L289.9 94.85 289.9 95.25 Q289.75 97.75 289.95 100.2 L290.0 101.0 289.7 101.4 287.45 101.4 M165.8 93.3 L165.9 95.55 165.6 101.5 161.05 101.5 161.05 96.05 161.25 95.15 Q161.8 94.0 161.6 93.3 L165.8 93.3 M164.75 88.1 Q164.45 89.75 164.5 91.55 L158.9 91.55 158.65 88.2 164.75 88.1 M266.3 116.9 L266.4 113.2 266.4 112.8 266.45 112.55 266.5 110.0 Q266.45 109.25 267.3 109.35 L267.55 109.4 267.8 109.4 Q268.55 109.4 268.4 110.25 L268.45 112.05 268.5 113.25 268.5 113.3 268.4 114.55 268.15 116.9 266.3 116.9 M151.05 117.15 L152.0 112.05 151.55 104.55 200.6 105.05 200.0 105.2 Q194.05 107.8 187.75 108.9 L187.65 109.25 187.55 112.95 187.55 114.05 187.65 115.55 Q187.85 116.7 187.2 117.0 L186.55 117.0 186.65 114.05 186.7 113.55 186.75 112.8 186.7 109.75 186.65 109.5 186.6 109.05 183.7 109.4 184.05 109.0 162.55 109.0 163.25 109.85 161.65 110.65 160.95 116.55 156.65 117.0 151.05 117.15 M227.5 110.85 L227.65 109.95 227.8 109.05 228.05 109.05 Q228.55 109.15 228.95 109.4 L229.05 109.75 229.1 112.95 228.9 114.8 Q228.8 115.45 228.85 116.05 L228.8 116.95 227.55 116.95 227.6 114.55 227.6 113.45 227.6 113.0 227.5 110.85" fill="#ff0f0f" fill-rule="evenodd" stroke="none"/>
    <path d="M297.0 101.35 L296.95 101.0 297.0 99.1 296.95 97.75 296.9 97.0 296.9 94.85 304.4 94.9 304.3 94.95 304.5 95.0 304.5 95.1 304.4 96.0 304.3 98.65 304.25 99.0 Q304.25 100.2 304.55 101.25 L302.75 101.35 297.0 101.35 M168.55 101.45 L168.65 93.35 177.2 93.4 177.0 101.45 168.55 101.45 M171.15 91.5 L171.65 88.0 180.7 87.85 181.05 91.45 171.15 91.5 M241.5 116.9 L241.45 116.8 241.4 116.3 241.25 114.3 241.35 113.3 241.45 113.0 241.55 112.55 241.75 110.05 242.05 109.7 242.3 109.5 243.1 110.75 Q243.65 111.8 244.6 112.2 L245.05 112.3 247.8 112.15 248.45 112.1 248.45 112.55 248.5 113.05 248.55 113.6 248.7 115.55 248.7 116.9 241.5 116.9 M260.05 116.9 L260.1 114.2 260.15 112.8 260.2 112.8 260.2 112.55 Q260.2 111.8 261.05 111.95 L262.3 112.15 262.55 112.2 Q263.25 112.35 263.4 111.8 L263.5 111.55 264.45 109.95 265.3 109.35 Q266.7 109.0 266.4 110.5 266.15 111.85 266.05 113.2 L266.0 113.3 265.9 114.5 265.9 114.55 265.75 116.9 265.75 116.8 263.35 116.8 263.35 116.9 260.05 116.9 M200.75 116.95 Q200.1 116.6 200.15 115.55 L200.2 115.15 200.15 115.05 200.1 113.95 200.05 110.0 Q200.0 109.6 200.55 109.6 L200.85 109.55 202.45 109.25 203.55 110.8 205.65 111.1 206.4 111.1 206.35 111.3 206.1 112.2 206.05 112.25 206.05 114.0 206.05 114.75 205.95 116.8 205.9 116.95 200.75 116.95 M226.45 109.5 L226.8 109.55 Q227.35 109.65 227.3 109.25 L227.45 110.25 227.5 110.85 227.6 113.0 227.6 113.45 227.6 114.55 227.55 116.95 221.7 116.95 221.65 116.55 221.55 114.05 221.55 113.75 221.6 113.2 221.8 112.1 222.05 112.0 222.3 111.9 224.05 111.55 224.65 111.15 225.1 111.15 226.45 109.5 M180.5 117.0 L180.3 116.95 180.3 116.55 180.35 115.55 180.45 112.8 180.55 111.05 180.8 111.05 181.3 111.1 182.85 110.9 Q183.35 110.7 183.4 110.0 L183.55 109.8 185.6 109.65 185.95 109.9 186.05 110.25 186.05 112.7 186.0 113.1 185.9 115.65 185.8 116.55 185.6 116.65 183.8 116.95 183.3 116.95 183.1 117.0 180.5 117.0 M163.8 110.5 L164.1 110.85 165.3 110.9 165.55 111.2 165.7 111.2 165.7 111.8 165.75 112.65 165.8 114.55 165.7 116.3 165.7 116.4 165.55 116.45 164.5 116.55 164.3 116.55 162.8 116.7 161.8 116.9 161.7 117.0 161.55 117.0 161.6 113.2 161.65 110.8 161.8 110.6 163.05 110.5 163.8 110.5 M308.3 106.7 L309.35 106.1 310.0 105.7 311.15 105.2 311.05 105.75 311.2 109.0 311.35 114.05 311.15 115.35 311.0 115.8 Q310.85 116.25 310.05 116.15 L308.3 116.05 301.45 116.0 298.55 115.95 294.8 116.2 293.3 116.4 292.55 116.45 288.8 116.55 Q292.3 115.4 296.1 113.4 L299.5 111.5 Q304.0 108.8 308.3 106.75 L308.3 106.7" fill="#5e0000" fill-rule="evenodd" stroke="none"/>
    <path d="M195.0 101.75 L193.0 101.75 193.0 88.5 193.0 69.0 193.0 64.85 195.0 64.85 195.0 72.0 195.0 90.5 195.0 101.75 M193.0 59.05 L195.0 59.05 195.0 63.0 193.0 63.0 193.0 59.05" fill="#a29b99" fill-rule="evenodd" stroke="none"/>
    <path d="M186.75 101.75 L184.3 101.75 184.15 64.25 184.15 62.7 189.0 57.4 189.2 57.2 193.0 57.2 195.0 57.15 196.1 57.15 200.85 63.15 200.85 64.25 200.9 101.75 198.55 101.75 198.3 64.85 195.0 64.85 193.0 64.85 189.0 64.8 186.6 64.8 186.75 101.75 M195.0 59.05 L193.0 59.05 191.0 59.05 191.0 59.0 190.05 59.0 189.0 60.3 186.85 62.95 189.0 62.95 193.0 63.0 195.0 63.0 198.15 63.0 195.0 59.05" fill="#000000" fill-rule="evenodd" stroke="none"/>
    <path d="M193.0 101.75 L189.0 101.75 189.0 87.0 189.0 67.5 189.0 64.8 193.0 64.85 193.0 69.0 193.0 88.5 193.0 101.75 M193.0 59.05 L193.0 63.0 189.0 62.95 189.0 60.3 190.05 59.0 191.0 59.0 191.0 59.05 193.0 59.05" fill="#e0dede" fill-rule="evenodd" stroke="none"/>
    <path d="M189.0 101.75 L186.75 101.75 186.6 64.8 189.0 64.8 189.0 67.5 189.0 87.0 189.0 101.75 M189.0 60.3 L189.0 62.95 186.85 62.95 189.0 60.3" fill="#666666" fill-rule="evenodd" stroke="none"/>
    <path d="M198.55 101.75 L195.0 101.75 195.0 90.5 195.0 72.0 195.0 64.85 198.3 64.85 198.55 101.75 M195.0 63.0 L195.0 59.05 198.15 63.0 195.0 63.0" fill="#847b79" fill-rule="evenodd" stroke="none"/>
  </g>
</svg>
