<?xml version="1.0" encoding="UTF-8" standalone="no"?>
<svg xmlns:xlink="http://www.w3.org/1999/xlink" height="240.2px" width="638.65px" xmlns="http://www.w3.org/2000/svg">
  <g transform="matrix(1.0, 0.0, 0.0, 1.0, 131.55, 39.6)">
    <path d="M117.4 -4.15 L117.4 9.9 Q116.5 10.7 115.4 12.55 L115.0 51.0 111.15 53.75 111.65 66.65 Q111.9 73.05 111.65 75.4 111.4 77.75 111.45 80.2 111.45 82.6 108.6 82.55 99.65 82.2 63.75 82.15 13.2 82.05 12.55 82.5 33.65 88.15 54.25 95.25 71.25 101.2 88.6 106.35 95.15 98.25 100.1 89.5 100.55 88.65 101.1 88.1 L102.2 87.15 102.4 87.0 104.0 85.25 Q112.3 85.2 113.3 81.15 113.0 79.05 113.1 75.8 113.15 72.5 115.1 70.1 121.3 59.85 127.9 49.7 L134.35 39.05 136.95 34.5 143.4 23.5 144.5 21.7 144.5 17.25 144.5 11.5 144.5 5.75 144.5 0.4 144.5 -4.5 142.2 -4.85 142.2 -2.9 142.15 5.1 Q142.1 11.55 139.9 13.9 137.65 16.2 136.05 16.6 L135.55 16.8 133.55 17.45 128.1 17.25 Q123.9 16.1 120.35 12.7 118.9 7.5 119.15 1.9 119.35 -3.75 119.05 -4.05 L117.4 -4.15 M296.6 104.0 L297.35 104.0 297.4 104.35 297.45 104.4 297.95 119.5 311.25 119.85 311.25 164.35 275.0 164.35 274.6 119.55 Q274.2 117.1 271.85 117.25 L192.0 117.1 Q189.5 117.55 190.0 119.6 L190.05 127.8 112.25 127.5 111.85 123.9 112.0 116.25 2.85 80.0 37.55 80.05 42.7 80.15 47.55 80.05 105.75 80.25 109.95 80.05 109.9 54.1 113.5 50.5 113.5 11.4 116.4 8.8 116.3 -6.1 120.25 -6.1 Q120.2 -0.1 120.45 5.9 L120.55 8.1 Q120.7 11.9 124.05 13.8 127.7 15.8 131.95 15.75 L132.3 15.75 132.65 15.75 133.55 15.75 135.3 15.55 135.55 15.45 Q138.8 13.9 139.75 10.85 140.7 7.7 140.75 5.0 L140.75 -3.5 140.75 -6.85 145.8 -6.85 146.0 10.55 148.9 12.5 148.95 23.5 148.95 24.0 148.95 34.5 148.95 47.3 148.95 47.8 152.0 47.8 Q178.3 31.75 205.05 22.4 218.5 17.7 232.05 14.7 241.55 12.55 251.1 11.3 L272.25 10.15 272.25 37.8 231.05 38.3 231.0 54.85 231.55 55.55 231.5 55.9 236.1 55.9 236.1 63.5 252.1 63.5 Q219.05 108.1 213.5 114.75 L218.1 114.6 220.55 114.6 223.1 114.55 221.55 114.55 231.7 114.45 229.55 114.5 229.05 114.5 232.05 114.55 234.05 114.45 271.5 114.65 Q274.0 115.65 276.25 117.3 277.35 118.1 277.3 119.55 276.45 141.45 277.25 162.8 L307.5 162.55 Q309.8 141.6 309.5 122.4 306.8 119.0 301.4 120.75 L296.5 121.5 296.05 121.1 294.75 104.0 Q294.7 102.4 295.05 104.0 L296.45 104.0 296.6 104.05 296.6 104.0 M360.1 -2.6 L364.1 -2.5 394.9 -2.5 394.85 -2.05 395.05 14.85 359.8 14.6 359.9 13.2 360.1 0.2 360.1 -2.6 M385.75 -0.55 L385.15 -0.55 Q385.55 -0.25 385.4 -0.5 386.35 -0.55 385.75 -0.55 M399.4 -1.5 L399.4 -2.5 432.6 -2.55 432.55 -1.5 432.55 -1.0 432.55 4.4 432.5 15.1 399.25 14.85 399.4 -1.5 M362.7 -1.3 Q361.85 0.0 361.75 1.4 361.5 4.1 361.65 6.85 L362.05 11.85 Q374.2 2.15 379.6 -0.75 L362.7 -1.3 M423.05 -0.1 L423.65 -0.4 402.2 0.1 402.0 0.9 Q401.2 7.65 401.1 14.15 418.8 2.1 423.05 -0.1 M427.65 -0.5 L425.65 -0.45 Q424.05 1.35 427.65 -0.5 M503.1 86.0 L502.85 85.05 489.85 85.0 490.4 85.35 503.1 86.0 M492.15 86.3 L488.0 86.35 487.8 84.05 505.7 84.5 505.35 87.05 492.6 86.6 492.15 86.3 M424.8 47.3 Q413.85 53.45 422.1 48.85 L424.8 47.3 M430.05 43.35 L430.15 43.25 Q430.85 42.65 430.85 41.5 430.9 38.15 431.25 34.6 L359.55 72.4 359.0 73.15 359.05 79.5 Q418.1 48.1 427.15 44.45 L430.05 43.35 M360.45 37.8 L356.55 37.8 356.55 19.2 356.75 19.25 357.05 19.25 396.3 19.3 395.25 19.35 432.55 19.25 433.35 44.45 357.05 82.55 356.55 82.95 356.55 56.0 359.2 56.0 Q359.05 57.25 359.45 61.7 L359.5 62.15 Q377.75 50.9 411.3 31.85 424.7 24.2 429.0 22.35 L421.65 22.0 402.1 22.0 382.6 22.0 363.1 22.0 361.9 21.95 361.55 22.25 361.35 24.35 361.05 28.4 360.35 37.0 360.45 37.8 M435.85 76.45 L451.5 78.6 467.9 81.0 468.0 84.25 456.55 85.25 367.05 85.75 359.8 85.95 357.7 86.1 372.6 79.25 383.7 73.9 395.6 74.35 431.2 75.95 382.85 75.15 Q382.65 75.35 382.4 75.5 L382.35 76.05 375.6 79.25 375.85 80.3 378.9 80.4 397.25 79.75 436.55 79.05 437.25 79.4 440.05 78.15 439.75 77.4 437.0 77.55 435.85 76.45 M484.4 84.3 L484.1 82.8 473.3 83.5 473.6 84.25 Q479.3 85.4 484.4 84.3 M485.1 86.45 L472.6 87.15 471.2 82.25 485.7 82.3 485.1 86.45 M278.6 37.8 L276.9 37.8 276.65 7.75 353.75 7.75 353.75 8.3 Q355.0 8.5 353.75 8.75 L353.95 37.8 331.35 37.8 333.45 35.85 334.25 35.15 339.95 29.35 346.5 22.9 351.2 18.1 Q351.55 8.95 350.85 9.0 345.2 9.35 338.65 9.2 332.1 9.0 329.6 9.2 L328.6 9.25 310.1 9.5 290.6 9.3 280.6 9.0 Q280.1 9.0 280.05 9.15 279.6 10.5 279.4 12.0 L279.25 13.05 279.1 14.5 278.85 24.5 278.85 25.0 Q278.65 31.4 278.6 37.8 M278.6 56.0 L278.6 60.0 278.55 61.35 Q282.85 60.7 297.0 61.1 311.5 61.5 327.5 61.25 L341.7 61.0 309.7 96.15 Q317.65 96.0 325.6 96.0 L340.1 96.0 350.1 95.8 Q351.85 95.75 352.25 94.05 L352.35 93.5 Q352.85 85.55 352.35 78.0 L352.35 77.5 352.45 61.5 353.8 61.5 353.8 99.0 276.15 99.0 276.15 56.0 278.6 56.0 M233.6 122.25 L232.05 122.25 205.05 122.1 202.8 122.1 Q194.9 121.95 195.3 140.6 L195.35 142.55 195.35 143.05 195.45 148.05 Q195.6 164.5 195.2 186.75 L195.55 192.05 Q197.1 188.9 201.6 181.25 206.1 173.65 206.55 170.45 L207.8 162.15 207.85 161.75 Q208.65 155.85 215.25 155.5 L230.05 154.3 Q245.6 138.7 260.05 122.3 L233.6 122.25 M212.7 114.8 Q212.95 113.75 212.05 114.8 L212.7 114.8 M157.9 148.05 L164.55 148.05 181.55 148.05 183.15 148.05 190.0 148.05 190.0 149.9 157.95 149.6 157.95 148.5 157.9 148.5 157.9 148.05 M190.05 143.05 L184.05 143.05 182.05 143.05 182.15 138.5 184.55 138.45 189.05 138.25 190.05 138.2 190.05 143.05 M159.85 143.05 L157.8 143.05 157.8 143.0 159.85 143.05 M192.95 127.05 L192.85 120.1 271.95 120.1 271.95 192.6 255.25 192.6 255.25 167.5 255.0 164.6 Q254.45 162.35 253.1 160.5 250.95 157.6 247.1 157.4 L216.95 157.4 Q214.75 157.4 213.0 159.05 L211.9 160.35 Q209.8 163.3 209.55 167.5 L209.5 192.65 193.0 193.0 192.95 127.05 M269.95 158.05 L269.8 158.2 266.1 163.55 264.95 164.9 Q263.5 166.3 262.25 168.15 L256.55 176.0 256.35 176.55 256.1 184.55 256.3 186.5 Q256.6 188.2 256.4 190.05 256.3 191.1 257.1 191.1 L259.55 190.85 260.1 190.8 265.1 190.35 266.1 190.25 268.55 189.85 269.1 189.8 Q270.15 189.85 270.15 189.05 L270.1 175.55 269.95 158.05 M24.5 66.55 L24.5 52.9 23.5 54.9 Q21.9 57.65 17.75 61.4 13.6 65.15 6.75 66.75 5.9 66.85 5.4 67.15 L24.5 66.55 M2.0 57.3 L2.0 52.75 -6.9 52.5 -6.9 48.0 25.45 48.0 Q26.9 58.45 25.25 67.95 L19.85 68.0 Q24.0 67.85 19.45 67.9 13.5 67.95 8.05 68.15 L-8.85 68.35 -8.8 67.05 -8.75 58.5 -8.75 57.45 2.0 57.3 M3.25 56.4 L8.15 52.4 Q11.8 49.55 17.5 48.5 L-5.75 48.6 -5.85 51.4 3.45 51.5 3.25 56.4 M125.3 138.5 L125.1 142.25 125.15 142.3 125.1 143.0 125.15 143.05 115.95 143.05 115.85 132.5 115.85 130.6 117.05 130.6 Q117.4 131.5 117.2 133.0 L117.1 134.05 116.85 135.45 116.75 136.05 116.55 139.0 Q117.2 138.15 119.05 138.3 L124.05 138.5 125.3 138.5 M144.1 148.05 L144.1 148.75 144.05 149.5 115.95 149.35 115.95 148.05 130.05 148.05 141.45 148.05 144.1 148.05 M-7.5 67.0 L-6.85 66.95 Q-4.15 62.85 1.5 58.15 L-7.4 58.25 -7.5 67.0" fill="#2e2a26" fill-rule="evenodd" stroke="none"/>
    <path d="M314.9 150.35 L314.9 153.6 314.65 153.6 314.3 165.75 Q314.25 167.0 314.35 168.1 L275.0 168.1 275.25 196.55 255.7 196.55 252.05 196.55 252.05 167.5 Q251.7 164.75 250.65 162.85 250.0 161.8 249.0 161.35 248.15 160.9 247.1 161.0 L216.95 161.0 Q215.2 161.0 213.9 162.9 212.6 164.8 212.7 167.5 L212.65 192.5 212.7 195.9 208.05 195.85 190.05 195.7 190.0 195.1 189.9 153.35 186.95 153.25 181.25 153.0 173.55 152.8 158.35 152.55 156.3 152.55 156.3 148.75 151.2 148.85 146.5 148.7 146.5 149.5 146.45 151.35 146.45 151.55 146.45 152.1 146.45 152.6 146.45 153.1 146.1 153.1 142.05 153.1 113.4 152.95 113.25 152.9 113.3 152.4 113.25 152.4 113.3 151.9 113.25 151.9 113.35 149.75 112.05 149.75 112.05 149.5 113.35 149.5 113.35 149.25 108.9 149.25 107.5 149.25 69.25 149.0 68.5 148.9 67.8 148.8 67.8 152.6 66.75 153.25 56.2 153.3 56.1 155.25 55.45 156.0 55.05 155.95 54.95 156.0 52.55 155.6 52.05 155.55 49.65 155.15 47.55 154.8 44.55 154.25 40.4 153.55 35.35 152.7 29.35 151.7 23.65 150.65 20.35 150.0 20.0 149.95 17.0 149.35 17.05 148.85 17.0 148.85 17.05 148.35 17.0 148.35 17.1 147.5 8.9 147.15 8.9 146.65 8.4 126.35 8.4 125.35 17.55 125.2 17.5 124.9 17.6 124.9 17.5 124.4 17.6 124.4 17.5 123.9 20.0 123.45 30.2 121.65 40.4 119.9 44.55 119.2 45.2 119.05 47.55 118.65 51.1 118.05 52.05 117.9 52.55 117.8 54.05 117.55 54.8 117.45 55.0 117.3 55.2 117.5 55.3 117.45 55.5 117.3 55.6 117.4 56.45 118.0 56.6 120.25 67.65 120.9 68.0 123.9 69.0 123.9 69.4 124.0 109.0 124.0 109.05 119.55 91.3 113.7 85.1 111.65 66.7 105.6 44.8 98.4 36.0 95.5 -10.5 80.2 -10.5 77.1 -8.2 77.05 -8.5 71.4 -11.5 71.45 Q-12.3 63.2 -11.7 54.65 L-9.25 54.6 -9.3 45.5 28.9 45.05 28.65 67.95 100.5 68.2 106.3 67.9 106.3 53.65 110.15 49.5 110.25 45.5 110.25 45.35 110.25 24.0 110.25 23.5 110.25 18.55 110.25 18.05 110.3 9.4 110.3 9.1 113.05 7.25 Q113.4 6.95 113.5 6.9 L113.5 6.8 113.5 2.35 Q113.45 -4.65 113.55 -8.3 L113.55 -9.0 124.3 -9.0 124.25 -8.55 124.3 -8.55 124.15 -6.4 124.1 -3.45 124.1 -2.95 124.1 -2.75 Q124.1 4.1 124.35 7.45 124.5 9.4 124.75 10.05 125.4 11.85 126.5 11.9 L130.85 12.25 132.6 12.3 133.55 12.3 133.95 12.3 134.75 12.25 135.55 11.5 Q137.9 8.95 137.95 5.6 L138.05 -3.5 138.15 -9.0 148.6 -9.0 148.65 -7.55 148.85 -3.5 149.25 8.3 151.8 9.7 151.8 10.2 151.8 10.6 151.8 10.95 151.85 23.5 151.85 24.0 151.9 34.5 151.9 43.85 152.0 43.75 152.0 44.1 Q177.7 27.55 205.05 18.2 218.35 13.65 232.05 10.8 251.15 6.75 271.05 6.05 L272.45 6.05 272.35 4.0 356.55 4.0 356.55 14.8 357.0 14.6 357.0 -3.85 359.1 -5.75 395.65 -5.75 395.65 -6.05 381.45 -6.05 381.45 -6.25 396.65 -6.25 Q396.6 -7.3 396.95 -9.2 L396.5 -9.9 394.25 -9.75 393.75 -9.75 Q393.5 -10.0 393.5 -10.9 L393.6 -11.5 Q393.75 -11.7 394.25 -11.75 L394.85 -11.8 399.3 -11.9 399.65 -12.25 399.65 -11.75 399.75 -11.65 399.75 -10.0 399.7 -9.95 399.7 -9.75 399.7 -7.25 399.7 -6.25 401.35 -6.25 409.75 -6.3 416.0 -6.3 422.45 -6.3 427.05 -6.3 427.05 -6.75 427.05 -7.25 427.05 -9.75 427.05 -11.5 427.1 -12.25 427.2 -12.25 Q427.8 -15.2 425.65 -20.65 L423.9 -23.5 Q420.5 -29.2 394.25 -28.3 L393.15 -28.25 393.25 -30.75 394.25 -30.8 411.4 -30.3 Q429.65 -29.15 429.7 -12.5 L429.7 -12.25 429.75 -12.25 429.8 -6.3 433.85 -6.3 434.25 -6.05 428.8 -6.05 428.8 -5.8 432.85 -5.8 Q435.75 -4.25 435.0 -1.5 L435.1 15.1 435.9 15.1 436.85 16.3 436.9 46.6 Q432.7 48.6 427.6 51.3 403.5 63.95 388.3 71.6 L393.75 71.75 395.6 71.8 Q434.4 69.85 471.75 78.85 478.55 80.5 485.75 80.55 L488.4 80.4 507.1 82.35 507.1 88.5 485.25 88.55 485.25 88.5 Q472.0 87.5 458.75 88.6 457.55 88.85 456.3 88.6 L367.05 88.25 Q360.05 88.1 358.15 88.25 L356.55 87.2 356.55 103.35 307.45 103.55 299.95 104.0 300.3 116.55 314.4 117.0 314.7 120.9 314.9 120.9 314.9 128.9 314.85 132.05 314.9 132.05 314.85 132.3 314.75 150.35 314.9 150.35 M236.1 55.9 L231.5 55.9 231.55 55.55 231.0 54.85 231.05 38.3 272.25 37.8 272.25 10.15 251.1 11.3 Q241.55 12.55 232.05 14.7 218.5 17.7 205.05 22.4 178.3 31.75 152.0 47.8 L148.95 47.8 148.95 47.3 148.95 34.5 148.95 24.0 148.95 23.5 148.9 12.5 146.0 10.55 145.8 -6.85 140.75 -6.85 140.75 -3.5 140.75 5.0 Q140.7 7.7 139.75 10.85 138.8 13.9 135.55 15.45 L135.3 15.55 133.55 15.75 132.65 15.75 132.3 15.75 131.95 15.75 Q127.7 15.8 124.05 13.8 120.7 11.9 120.55 8.1 L120.45 5.9 Q120.2 -0.1 120.25 -6.1 L116.3 -6.1 116.4 8.8 113.5 11.4 113.5 50.5 109.9 54.1 109.95 80.05 105.75 80.25 47.55 80.05 42.7 80.15 37.55 80.05 2.85 80.0 112.0 116.25 111.85 123.9 112.25 127.5 190.05 127.8 190.0 119.6 Q189.5 117.55 192.0 117.1 L271.85 117.25 Q274.2 117.1 274.6 119.55 L275.0 164.35 311.25 164.35 311.25 119.85 297.95 119.5 297.45 104.4 297.4 104.35 297.35 104.0 296.6 104.0 296.45 104.0 295.05 104.0 Q294.7 102.4 294.75 104.0 L273.1 104.0 272.5 56.0 236.1 55.9 M360.1 -2.6 L360.1 0.2 359.9 13.2 359.8 14.6 395.05 14.85 394.85 -2.05 394.9 -2.5 364.1 -2.5 360.1 -2.6 M357.05 -5.5 L357.0 -5.45 357.0 -5.5 357.05 -5.5 M397.1 -6.5 L397.05 -6.5 397.05 -6.25 397.1 -6.25 397.1 -6.5 M399.45 -6.5 L399.45 -6.25 399.45 -6.5 M400.35 -6.05 L398.7 -6.05 398.7 -5.75 400.35 -5.75 408.75 -5.8 415.0 -5.8 421.45 -5.8 426.05 -5.8 426.05 -6.05 421.45 -6.05 414.95 -6.05 408.7 -6.05 400.35 -6.05 M396.05 -6.0 L396.05 -5.75 396.1 -5.75 396.1 -6.0 396.05 -6.0 M396.0 -5.2 L395.9 -5.15 Q395.9 -4.35 396.0 -5.2 M399.4 -1.5 L399.25 14.85 432.5 15.1 432.55 4.4 432.55 -1.0 432.55 -1.5 432.6 -2.55 399.4 -2.5 399.4 -1.5 M492.15 86.3 L492.6 86.6 505.35 87.05 505.7 84.5 487.8 84.05 488.0 86.35 492.15 86.3 M359.2 56.0 L356.55 56.0 356.55 82.95 357.05 82.55 433.35 44.45 432.55 19.25 395.25 19.35 396.3 19.3 357.05 19.25 356.75 19.25 356.55 19.2 356.55 37.8 360.45 37.8 362.3 37.8 362.3 56.0 359.2 56.0 M435.85 76.45 L435.8 76.2 431.2 75.95 395.6 74.35 383.7 73.9 372.6 79.25 357.7 86.1 359.8 85.95 367.05 85.75 456.55 85.25 468.0 84.25 467.9 81.0 451.5 78.6 435.85 76.45 M485.1 86.45 L485.7 82.3 471.2 82.25 472.6 87.15 485.1 86.45 M331.35 37.8 L353.95 37.8 353.75 8.75 Q355.0 8.5 353.75 8.3 L353.75 7.75 276.65 7.75 276.9 37.8 278.6 37.8 331.35 37.8 M353.8 61.5 L353.8 56.0 278.6 56.0 276.15 56.0 276.15 99.0 353.8 99.0 353.8 61.5 M356.6 86.5 L356.55 86.5 356.55 86.55 356.6 86.5 M358.2 41.2 L279.05 41.05 278.6 41.05 276.65 41.05 234.85 40.65 234.55 53.15 236.55 53.1 252.05 53.0 278.6 53.05 281.95 53.05 358.2 52.85 358.2 41.2 M190.0 148.05 L190.05 143.05 190.05 138.2 190.1 130.55 184.4 130.55 185.65 130.5 158.0 130.55 158.1 133.25 182.25 133.0 182.15 138.5 182.05 143.05 182.0 143.6 159.85 143.05 157.8 143.0 157.8 143.05 157.8 143.15 157.75 143.15 157.9 148.05 157.9 148.5 157.95 148.5 157.95 149.6 190.0 149.9 190.0 148.05 M156.3 142.55 L156.3 140.15 156.65 140.4 Q162.45 140.25 180.2 140.5 L179.85 135.6 156.25 135.75 156.3 132.5 156.2 132.5 156.1 130.7 146.35 130.7 146.35 130.75 146.4 132.5 146.35 132.5 146.35 132.7 146.3 133.55 146.25 134.85 146.25 135.6 146.2 136.0 127.65 136.45 127.55 141.2 Q132.6 141.15 136.75 141.25 L142.05 141.45 142.35 141.45 Q145.55 141.65 146.55 141.45 L146.55 142.2 146.55 142.55 146.5 143.05 146.5 143.4 146.55 143.4 146.55 146.25 146.75 146.2 151.45 146.1 156.3 146.3 156.3 142.55 M192.95 127.05 L193.0 193.0 209.5 192.65 209.55 167.5 Q209.8 163.3 211.9 160.35 L213.0 159.05 Q214.75 157.4 216.95 157.4 L247.1 157.4 Q250.95 157.6 253.1 160.5 254.45 162.35 255.0 164.6 L255.25 167.5 255.25 192.6 271.95 192.6 271.95 120.1 192.85 120.1 192.95 127.05 M106.45 76.95 L106.35 71.0 -2.75 71.35 -2.85 77.0 106.45 76.95 M2.0 57.3 L-8.75 57.45 -8.75 58.5 -8.8 67.05 -8.85 68.35 8.05 68.15 Q13.5 67.95 19.45 67.9 24.0 67.85 19.85 68.0 L25.25 67.95 Q26.9 58.45 25.45 48.0 L-6.9 48.0 -6.9 52.5 2.0 52.75 2.0 57.3 M53.85 126.3 L53.9 120.7 25.65 125.15 20.5 126.3 20.4 130.55 20.0 146.45 20.0 146.8 20.5 147.15 33.7 148.95 36.6 149.45 37.8 149.65 44.55 150.9 47.55 151.5 48.7 151.75 52.05 152.45 52.5 152.55 52.55 152.6 53.65 152.85 53.7 149.8 53.75 140.0 53.8 132.2 53.85 126.3 M56.25 149.1 L56.2 150.0 65.6 150.25 65.4 123.6 56.65 123.75 56.65 124.6 56.65 125.05 56.55 131.05 56.4 138.9 56.25 149.1 M113.55 134.05 L113.55 131.0 113.55 130.55 109.85 130.4 109.0 130.0 109.0 127.5 68.5 127.5 68.0 127.4 67.95 134.05 67.9 141.05 67.85 145.55 82.3 145.5 82.3 145.4 113.4 145.45 113.35 142.4 113.45 142.25 113.45 141.05 113.55 134.05 M17.15 130.85 L17.15 128.3 10.75 128.3 10.75 144.95 17.15 144.95 17.15 142.55 17.15 130.85 M125.15 143.05 L125.1 143.0 125.15 142.3 125.1 142.25 125.3 138.5 125.5 134.2 144.35 133.6 144.35 132.8 144.35 130.7 117.05 130.6 115.85 130.6 115.85 132.5 115.95 143.05 115.95 148.05 115.95 149.35 144.05 149.5 144.1 148.75 144.1 148.05 144.2 146.05 144.25 145.3 144.2 145.3 144.25 144.55 144.3 144.05 125.9 143.85 125.15 143.05" fill="#000000" fill-rule="evenodd" stroke="none"/>
    <path d="M117.4 -4.15 L119.05 -4.05 Q119.35 -3.75 119.15 1.9 118.9 7.5 120.35 12.7 123.9 16.1 128.1 17.25 L133.55 17.45 135.55 16.8 136.05 16.6 Q137.65 16.2 139.9 13.9 142.1 11.55 142.15 5.1 L142.2 -2.9 142.2 -4.85 144.5 -4.5 144.5 0.4 144.5 5.75 144.5 11.5 144.5 17.25 144.5 21.7 143.4 23.5 136.95 34.5 134.35 39.05 127.9 49.7 Q121.3 59.85 115.1 70.1 113.15 72.5 113.1 75.8 113.0 79.05 113.3 81.15 112.3 85.2 104.0 85.25 L102.4 87.0 102.2 87.15 101.1 88.1 Q100.55 88.65 100.1 89.5 95.15 98.25 88.6 106.35 71.25 101.2 54.25 95.25 33.65 88.15 12.55 82.5 13.2 82.05 63.75 82.15 99.65 82.2 108.6 82.55 111.45 82.6 111.45 80.2 111.4 77.75 111.65 75.4 111.9 73.05 111.65 66.65 L111.15 53.75 115.0 51.0 115.4 12.55 Q116.5 10.7 117.4 9.9 L117.4 -4.15 M385.75 -0.55 Q386.35 -0.55 385.4 -0.5 385.55 -0.25 385.15 -0.55 L385.75 -0.55 M362.7 -1.3 L379.6 -0.75 Q374.2 2.15 362.05 11.85 L361.65 6.85 Q361.5 4.1 361.75 1.4 361.85 0.0 362.7 -1.3 M423.05 -0.1 Q418.8 2.1 401.1 14.15 401.2 7.65 402.0 0.9 L402.2 0.1 423.65 -0.4 423.05 -0.1 M427.65 -0.5 Q424.05 1.35 425.65 -0.45 L427.65 -0.5 M503.1 86.0 L490.4 85.35 489.85 85.0 502.85 85.05 503.1 86.0 M360.45 37.8 L360.35 37.0 361.05 28.4 361.35 24.35 361.55 22.25 361.9 21.95 363.1 22.0 382.6 22.0 402.1 22.0 421.65 22.0 429.0 22.35 Q424.7 24.2 411.3 31.85 377.75 50.9 359.5 62.15 L359.45 61.7 Q359.05 57.25 359.2 56.0 L362.3 56.0 362.3 37.8 360.45 37.8 M431.2 75.95 L435.8 76.2 435.85 76.45 437.0 77.55 439.75 77.4 440.05 78.15 437.25 79.4 436.55 79.05 397.25 79.75 378.9 80.4 375.85 80.3 375.6 79.25 382.35 76.05 382.4 75.5 Q382.65 75.35 382.85 75.15 L431.2 75.95 M484.4 84.3 Q479.3 85.4 473.6 84.25 L473.3 83.5 484.1 82.8 484.4 84.3 M278.6 37.8 Q278.65 31.4 278.85 25.0 L278.85 24.5 279.1 14.5 279.25 13.05 279.4 12.0 Q279.6 10.5 280.05 9.15 280.1 9.0 280.6 9.0 L290.6 9.3 310.1 9.5 328.6 9.25 329.6 9.2 Q332.1 9.0 338.65 9.2 345.2 9.35 350.85 9.0 351.55 8.95 351.2 18.1 L346.5 22.9 339.95 29.35 334.25 35.15 333.45 35.85 331.35 37.8 278.6 37.8 M233.6 122.25 L260.05 122.3 Q245.6 138.7 230.05 154.3 L215.25 155.5 Q208.65 155.85 207.85 161.75 L207.8 162.15 206.55 170.45 Q206.1 173.65 201.6 181.25 197.1 188.9 195.55 192.05 L195.2 186.75 Q195.6 164.5 195.45 148.05 L195.35 143.05 195.35 142.55 195.3 140.6 Q194.9 121.95 202.8 122.1 L205.05 122.1 232.05 122.25 233.6 122.25 M190.0 148.05 L183.15 148.05 181.55 148.05 164.55 148.05 157.9 148.05 157.75 143.15 157.8 143.15 157.8 143.05 159.85 143.05 182.0 143.6 182.05 143.05 184.05 143.05 190.05 143.05 190.0 148.05 M3.25 56.4 L3.45 51.5 -5.85 51.4 -5.75 48.6 17.5 48.5 Q11.8 49.55 8.15 52.4 L3.25 56.4 M125.15 143.05 L125.9 143.85 144.3 144.05 144.25 144.55 144.2 145.3 144.25 145.3 144.2 146.05 144.1 148.05 141.45 148.05 130.05 148.05 115.95 148.05 115.95 143.05 125.15 143.05 M-7.5 67.0 L-7.4 58.25 1.5 58.15 Q-4.15 62.85 -6.85 66.95 L-7.5 67.0" fill="#524b45" fill-rule="evenodd" stroke="none"/>
    <path d="M394.25 -19.1 L394.25 -22.1 397.25 -22.05 405.0 -22.1 411.75 -22.15 419.25 -21.15 Q421.05 -20.65 421.7 -19.15 L422.1 -17.4 422.3 -12.25 422.45 -6.3 416.0 -6.3 415.85 -9.75 415.55 -14.25 415.25 -15.7 414.5 -17.95 Q412.35 -18.9 410.0 -19.15 L403.65 -19.25 Q398.9 -19.5 394.25 -19.1 M414.95 -6.05 L421.45 -6.05 421.45 -5.8 415.0 -5.8 414.95 -6.0 414.95 -6.05 M356.2 48.55 Q356.45 50.15 355.85 50.8 L355.35 51.3 354.6 51.55 342.6 51.55 Q353.8 46.75 356.05 45.1 L355.9 45.9 356.1 45.95 Q356.0 47.2 356.2 48.55 M56.4 138.9 L58.5 138.1 Q60.2 137.5 61.2 136.8 61.5 136.55 61.95 136.4 L62.0 136.4 62.55 136.15 63.0 136.05 62.75 145.05 62.7 145.6 Q62.5 146.3 62.45 147.05 62.35 148.4 61.0 148.4 L59.25 148.55 58.4 148.85 57.5 149.0 56.25 149.1 56.4 138.9 M53.7 149.8 Q53.15 150.2 53.5 151.55 L52.55 150.95 52.05 150.75 50.55 150.4 49.45 150.15 48.1 149.75 47.55 149.65 47.5 149.65 46.05 149.4 45.45 149.2 44.55 148.9 42.0 148.35 40.95 148.25 38.55 147.85 37.95 147.7 37.3 147.5 37.0 147.45 37.35 147.25 Q40.75 145.75 44.55 144.15 L45.95 143.55 47.55 142.85 52.05 140.75 52.55 140.55 53.1 140.25 53.75 140.0 53.7 149.8" fill="#5e0000" fill-rule="evenodd" stroke="none"/>
    <path d="M394.25 -11.75 L394.25 -12.25 394.25 -13.7 401.05 -13.2 Q401.7 -12.85 401.6 -12.25 L401.4 -9.75 401.35 -6.25 399.7 -6.25 399.7 -7.25 399.7 -9.75 399.7 -9.95 399.75 -10.0 399.75 -11.65 399.65 -11.75 399.65 -12.25 399.3 -11.9 394.85 -11.8 394.25 -11.75 M394.25 -15.75 L394.25 -19.1 Q398.9 -19.5 403.65 -19.25 L410.0 -19.15 Q412.35 -18.9 414.5 -17.95 L415.25 -15.7 415.55 -14.25 415.85 -9.75 416.0 -6.3 409.75 -6.3 409.7 -13.9 Q409.15 -15.35 407.75 -15.75 L406.25 -15.95 Q400.25 -16.1 394.25 -15.75 M394.25 -22.1 L394.25 -28.3 Q420.5 -29.2 423.9 -23.5 L425.65 -20.65 Q427.8 -15.2 427.2 -12.25 L427.1 -12.25 427.05 -11.5 427.05 -9.75 427.05 -7.25 427.05 -6.75 427.05 -6.3 422.45 -6.3 422.3 -12.25 422.1 -17.4 421.7 -19.15 Q421.05 -20.65 419.25 -21.15 L411.75 -22.15 405.0 -22.1 397.25 -22.05 394.25 -22.1 M400.35 -5.75 L398.7 -5.75 398.7 -6.05 400.35 -6.05 400.35 -5.75 M408.7 -6.05 L414.95 -6.05 414.95 -6.0 415.0 -5.8 408.75 -5.8 408.7 -6.0 408.7 -6.05 M421.45 -6.05 L426.05 -6.05 426.05 -5.8 421.45 -5.8 421.45 -6.05 M356.2 48.55 Q356.0 47.2 356.1 45.95 L355.9 45.9 356.05 45.1 Q353.8 46.75 342.6 51.55 L354.6 51.55 355.35 51.3 355.85 50.8 Q356.45 50.15 356.2 48.55 M358.2 41.2 L358.2 52.85 281.95 53.05 278.6 53.05 252.05 53.0 236.55 53.1 234.55 53.15 234.85 40.65 276.65 41.05 278.6 41.05 279.05 41.05 358.2 41.2 M268.05 49.45 L271.6 48.7 Q285.95 45.25 300.9 42.55 L236.05 42.05 236.15 42.5 236.3 43.05 236.3 44.05 236.35 44.55 Q236.55 46.55 236.35 48.55 236.25 49.8 236.6 50.5 L236.6 50.55 236.7 50.6 237.15 50.8 239.0 51.25 261.8 51.1 263.55 50.6 266.5 49.85 267.1 49.7 268.05 49.45 M53.85 126.3 L53.75 126.3 Q52.7 124.85 53.0 122.05 L52.55 122.15 52.3 122.3 52.05 122.55 50.5 122.65 49.05 122.7 47.55 123.05 44.55 123.65 44.05 123.75 42.65 124.0 42.0 124.15 25.55 127.2 24.55 127.25 Q22.15 126.95 21.8 128.5 L21.75 129.05 Q21.85 130.4 21.0 130.5 L20.4 130.55 20.5 126.3 25.65 125.15 53.9 120.7 53.85 126.3 M20.0 146.45 L20.55 146.2 21.35 145.8 Q22.4 145.0 24.45 144.4 L27.0 143.55 36.55 139.75 37.4 139.35 40.5 137.95 43.1 136.8 43.8 136.5 44.55 136.2 47.55 134.9 52.05 132.95 52.55 132.75 53.8 132.2 53.75 140.0 53.1 140.25 52.55 140.55 52.05 140.75 47.55 142.85 45.95 143.55 44.55 144.15 Q40.75 145.75 37.35 147.25 L37.0 147.45 37.3 147.5 37.95 147.7 38.55 147.85 40.95 148.25 42.0 148.35 44.55 148.9 45.45 149.2 46.05 149.4 47.5 149.65 47.55 149.65 48.1 149.75 49.45 150.15 50.55 150.4 52.05 150.75 52.55 150.95 53.5 151.55 Q53.15 150.2 53.7 149.8 L53.65 152.85 52.55 152.6 52.5 152.55 52.05 152.45 48.7 151.75 47.55 151.5 44.55 150.9 37.8 149.65 36.6 149.45 33.7 148.95 20.5 147.15 20.0 146.8 20.0 146.45 M56.65 125.05 L56.65 124.6 56.65 123.75 65.4 123.6 65.6 150.25 56.2 150.0 56.25 149.1 57.5 149.0 58.4 148.85 59.25 148.55 61.0 148.4 Q62.35 148.4 62.45 147.05 62.5 146.3 62.7 145.6 L62.75 145.05 63.0 136.05 62.55 136.15 62.0 136.4 61.95 136.4 Q61.5 136.55 61.2 136.8 60.2 137.5 58.5 138.1 L56.4 138.9 56.55 131.05 59.0 130.0 60.05 129.7 60.9 129.5 Q62.55 129.05 63.65 128.2 64.35 127.65 64.1 126.05 L63.95 125.55 58.4 125.1 56.65 125.05 M17.15 130.85 L13.5 131.05 13.0 131.15 Q12.65 132.85 12.55 134.65 L12.5 136.05 12.7 141.05 12.65 142.55 15.85 142.55 17.15 142.55 17.15 144.95 10.75 144.95 10.75 128.3 17.15 128.3 17.15 130.85" fill="#990000" fill-rule="evenodd" stroke="none"/>
    <path d="M394.25 -13.7 L394.25 -15.75 Q400.25 -16.1 406.25 -15.95 L407.75 -15.75 Q409.15 -15.35 409.7 -13.9 L409.75 -6.3 401.35 -6.25 401.4 -9.75 401.6 -12.25 Q401.7 -12.85 401.05 -13.2 L394.25 -13.7 M400.35 -5.75 L400.35 -6.05 408.7 -6.05 408.7 -6.0 408.75 -5.8 400.35 -5.75 M268.05 49.45 L267.1 49.7 266.5 49.85 263.55 50.6 261.8 51.1 239.0 51.25 237.15 50.8 236.7 50.6 236.6 50.55 236.6 50.5 Q236.25 49.8 236.35 48.55 236.55 46.55 236.35 44.55 L236.3 44.05 236.3 43.05 236.15 42.5 236.05 42.05 300.9 42.55 Q285.95 45.25 271.6 48.7 L268.05 49.45 M20.4 130.55 L21.0 130.5 Q21.85 130.4 21.75 129.05 L21.8 128.5 Q22.15 126.95 24.55 127.25 L25.55 127.2 42.0 124.15 42.65 124.0 44.05 123.75 44.55 123.65 47.55 123.05 49.05 122.7 50.5 122.65 52.05 122.55 52.3 122.3 52.55 122.15 53.0 122.05 Q52.7 124.85 53.75 126.3 L53.85 126.3 53.8 132.2 52.55 132.75 52.05 132.95 47.55 134.9 44.55 136.2 43.8 136.5 43.1 136.8 40.5 137.95 37.4 139.35 36.55 139.75 27.0 143.55 24.45 144.4 Q22.4 145.0 21.35 145.8 L20.55 146.2 20.0 146.45 20.4 130.55 M56.65 125.05 L58.4 125.1 63.95 125.55 64.1 126.05 Q64.35 127.65 63.65 128.2 62.55 129.05 60.9 129.5 L60.05 129.7 59.0 130.0 56.55 131.05 56.65 125.05 M17.15 142.55 L15.85 142.55 12.65 142.55 12.7 141.05 12.5 136.05 12.55 134.65 Q12.65 132.85 13.0 131.15 L13.5 131.05 17.15 130.85 17.15 142.55" fill="#ff0f0f" fill-rule="evenodd" stroke="none"/>
    <path d="M296.6 104.0 L296.6 104.05 296.45 104.0 296.6 104.0 M294.75 104.0 L296.05 121.1 296.5 121.5 301.4 120.75 Q306.8 119.0 309.5 122.4 309.8 141.6 307.5 162.55 L277.25 162.8 Q276.45 141.45 277.3 119.55 277.35 118.1 276.25 117.3 274.0 115.65 271.5 114.65 L234.05 114.45 232.05 114.55 229.05 114.5 229.55 114.5 231.7 114.45 221.55 114.55 223.1 114.55 220.55 114.6 218.1 114.6 213.5 114.75 Q219.05 108.1 252.1 63.5 L236.1 63.5 236.1 55.9 272.5 56.0 273.1 104.0 294.75 104.0 M430.05 43.35 L427.15 44.45 Q418.1 48.1 359.05 79.5 L359.0 73.15 359.55 72.4 431.25 34.6 Q430.9 38.15 430.85 41.5 430.85 42.65 430.15 43.25 L430.05 43.35 M424.8 47.3 L422.1 48.85 Q413.85 53.45 424.8 47.3 M353.8 61.5 L352.45 61.5 352.35 77.5 352.35 78.0 Q352.85 85.55 352.35 93.5 L352.25 94.05 Q351.85 95.75 350.1 95.8 L340.1 96.0 325.6 96.0 Q317.65 96.0 309.7 96.15 L341.7 61.0 327.5 61.25 Q311.5 61.5 297.0 61.1 282.85 60.7 278.55 61.35 L278.6 60.0 278.6 56.0 353.8 56.0 353.8 61.5 M212.7 114.8 L212.05 114.8 Q212.95 113.75 212.7 114.8 M182.15 138.5 L182.25 133.0 158.1 133.25 158.0 130.55 185.65 130.5 184.4 130.55 190.1 130.55 190.05 138.2 189.05 138.25 184.55 138.45 182.15 138.5 M269.95 158.05 L270.1 175.55 270.15 189.05 Q270.15 189.85 269.1 189.8 L268.55 189.85 266.1 190.25 265.1 190.35 260.1 190.8 259.55 190.85 257.1 191.1 Q256.3 191.1 256.4 190.05 256.6 188.2 256.3 186.5 L256.1 184.55 256.35 176.55 256.55 176.0 262.25 168.15 Q263.5 166.3 264.95 164.9 L266.1 163.55 269.8 158.2 269.95 158.05 M24.5 66.55 L5.4 67.15 Q5.9 66.85 6.75 66.75 13.6 65.15 17.75 61.4 21.9 57.65 23.5 54.9 L24.5 52.9 24.5 66.55 M117.05 130.6 L144.35 130.7 144.35 132.8 144.35 133.6 125.5 134.2 125.3 138.5 124.05 138.5 119.05 138.3 Q117.2 138.15 116.55 139.0 L116.75 136.05 116.85 135.45 117.1 134.05 117.2 133.0 Q117.4 131.5 117.05 130.6" fill="#141210" fill-rule="evenodd" stroke="none"/>
    <path d="M146.55 142.55 L146.55 142.2 146.55 141.45 Q145.55 141.65 142.35 141.45 L142.05 141.45 136.75 141.25 Q132.6 141.15 127.55 141.2 L127.65 136.45 146.2 136.0 146.25 135.6 146.25 134.85 146.3 133.55 146.35 132.7 146.35 132.5 146.4 132.5 146.35 130.75 146.35 130.7 156.1 130.7 156.2 132.5 156.3 132.5 156.25 135.75 179.85 135.6 180.2 140.5 Q162.45 140.25 156.65 140.4 L156.3 140.15 156.3 142.55 156.05 142.55 146.55 142.55 M67.95 134.05 L80.5 134.05 100.05 134.05 113.55 134.05 113.45 141.05 101.05 141.05 82.0 141.05 67.9 141.05 67.95 134.05" fill="#655c5a" fill-rule="evenodd" stroke="none"/>
    <path d="M314.9 128.9 L314.9 132.05 314.9 150.35 314.75 150.35 314.85 132.3 314.9 132.05 314.85 132.05 314.9 128.9 M156.3 142.55 L156.3 146.3 151.45 146.1 146.75 146.2 146.55 146.25 146.55 143.4 146.5 143.4 146.5 143.05 146.55 142.55 156.05 142.55 156.3 142.55 M106.45 76.95 L-2.85 77.0 -2.75 71.35 106.35 71.0 106.45 76.95 M67.95 134.05 L68.0 127.4 68.5 127.5 109.0 127.5 109.0 130.0 109.85 130.4 113.55 130.55 113.55 131.0 113.55 134.05 100.05 134.05 80.5 134.05 67.95 134.05 M113.45 141.05 L113.45 142.25 113.35 142.4 113.4 145.45 82.3 145.4 82.3 145.5 67.85 145.55 67.9 141.05 82.0 141.05 101.05 141.05 113.45 141.05" fill="#a29b99" fill-rule="evenodd" stroke="none"/>
    <path d="M97.8 38.35 L87.0 38.35 87.0 61.8 97.95 61.8 97.8 38.35 M88.1 36.25 L88.6 36.25 98.55 36.25 99.05 36.25 99.55 36.25 101.05 36.9 101.05 63.95 34.15 63.95 34.15 36.8 35.2 36.05 88.1 36.25 M84.5 38.55 L83.05 38.55 83.2 61.8 84.4 61.8 84.5 38.55 M109.25 30.2 L109.25 70.0 27.9 70.0 27.9 30.2 109.25 30.2 M106.25 66.65 L106.25 32.85 30.35 32.85 30.25 66.65 106.25 66.65 M54.7 38.5 L54.7 61.8 64.9 61.8 64.9 38.5 54.7 38.5 M68.6 38.55 L67.0 38.55 Q67.35 43.1 67.3 61.8 L68.5 61.8 Q68.2 43.15 68.6 38.55 M80.8 38.5 L71.1 38.5 71.1 61.8 80.8 61.8 80.8 38.5 M52.45 38.55 L50.55 38.55 Q50.95 42.3 50.9 61.9 L52.1 61.9 Q52.1 42.95 52.45 38.55 M37.3 38.55 L37.3 61.95 48.5 61.95 48.5 38.55 37.3 38.55" fill="#000000" fill-rule="evenodd" stroke="none"/>
    <path d="M84.5 38.55 L84.4 61.8 83.2 61.8 83.05 38.55 84.5 38.55 M88.1 36.25 L35.2 36.05 34.15 36.8 34.15 63.95 101.05 63.95 101.05 36.9 99.55 36.25 99.05 36.25 98.55 36.25 88.6 36.25 88.1 36.25 M106.25 66.65 L30.25 66.65 30.35 32.85 106.25 32.85 106.25 66.65 M68.6 38.55 Q68.2 43.15 68.5 61.8 L67.3 61.8 Q67.35 43.1 67.0 38.55 L68.6 38.55 M52.45 38.55 Q52.1 42.95 52.1 61.9 L50.9 61.9 Q50.95 42.3 50.55 38.55 L52.45 38.55" fill="#a29b99" fill-rule="evenodd" stroke="none"/>
    <path d="M97.8 38.35 L97.95 61.8 87.0 61.8 87.0 38.35 97.8 38.35 M54.7 38.5 L64.9 38.5 64.9 61.8 54.7 61.8 54.7 38.5 M80.8 38.5 L80.8 61.8 71.1 61.8 71.1 38.5 80.8 38.5 M37.3 38.55 L48.5 38.55 48.5 61.95 37.3 61.95 37.3 38.55" fill="#1d1d1d" fill-rule="evenodd" stroke="none"/>
    <path d="M-25.05 33.7 Q-14.2 37.7 -14.75 37.75 L20.15 37.8 20.7 -1.05 -8.5 -1.4 Q-45.25 -0.2 -74.8 7.7 -104.35 15.6 -115.9 20.5 L-127.05 25.3 -120.55 29.05 Q-70.45 23.8 -53.15 26.8 -35.9 29.75 -25.05 33.7 M-16.05 41.8 Q-21.55 39.5 -27.35 37.5 -54.5 28.35 -83.15 30.3 L-120.8 32.7 -131.05 26.65 -131.55 24.0 Q-103.3 9.95 -79.45 4.5 -54.1 -1.35 -27.45 -3.75 -0.85 -6.25 25.7 -5.3 L25.2 41.8 -16.05 41.8" fill="#000000" fill-rule="evenodd" stroke="none"/>
    <path d="M-30.25 30.3 L-15.2 34.1 16.2 35.25 17.55 35.05 Q18.25 36.65 18.55 28.1 18.85 19.5 18.6 13.25 L17.75 12.3 14.6 14.45 Q3.4 21.75 -9.25 26.1 -19.45 29.55 -30.25 30.3 M-25.05 33.7 Q-35.9 29.75 -53.15 26.8 -70.45 23.8 -120.55 29.05 L-127.05 25.3 -115.9 20.5 Q-104.35 15.6 -74.8 7.7 -45.25 -0.2 -8.5 -1.4 L20.7 -1.05 20.15 37.8 -14.75 37.75 Q-14.2 37.7 -25.05 33.7 M-65.8 7.55 Q-76.75 9.95 -87.65 12.9 -97.6 15.4 -107.15 18.75 -115.15 21.45 -122.8 25.1 L-122.6 25.95 -120.05 27.3 -118.15 27.4 Q-104.2 24.05 -89.7 23.0 L-73.5 22.4 Q-40.8 7.55 -22.35 5.6 L6.0 2.75 17.25 2.25 18.0 1.0 Q-7.5 -0.45 -32.85 2.55 -49.5 4.15 -65.8 7.55" fill="#a29b99" fill-rule="evenodd" stroke="none"/>
    <path d="M-65.8 7.55 Q-49.5 4.15 -32.85 2.55 -7.5 -0.45 18.0 1.0 L17.25 2.25 6.0 2.75 -22.35 5.6 Q-40.8 7.55 -73.5 22.4 L-89.7 23.0 Q-104.2 24.05 -118.15 27.4 L-120.05 27.3 -122.6 25.95 -122.8 25.1 Q-115.15 21.45 -107.15 18.75 -97.6 15.4 -87.65 12.9 -76.75 9.95 -65.8 7.55 M-93.4 17.5 L-93.75 17.1 -94.65 17.25 -96.0 17.1 -101.95 18.85 Q-107.5 20.75 -112.95 23.0 -114.05 23.4 -115.0 24.05 L-114.3 25.05 Q-106.2 23.1 -98.1 20.4 -96.45 19.8 -94.95 18.95 L-94.3 18.4 -94.3 18.35 -93.4 17.5" fill="#e0dede" fill-rule="evenodd" stroke="none"/>
    <path d="M-30.25 30.3 Q-19.45 29.55 -9.25 26.1 3.4 21.75 14.6 14.45 L17.75 12.3 18.6 13.25 Q18.85 19.5 18.55 28.1 18.25 36.65 17.55 35.05 L16.2 35.25 -15.2 34.1 -30.25 30.3" fill="#625b59" fill-rule="evenodd" stroke="none"/>
    <path d="M-93.4 17.5 L-94.3 18.35 -94.3 18.4 -94.95 18.95 Q-96.45 19.8 -98.1 20.4 -106.2 23.1 -114.3 25.05 L-115.0 24.05 Q-114.05 23.4 -112.95 23.0 -107.5 20.75 -101.95 18.85 L-96.0 17.1 -94.65 17.25 -93.75 17.1 -93.4 17.5" fill="#f2f2f2" fill-rule="evenodd" stroke="none"/>
    <path d="M38.25 -5.6 Q62.35 -29.2 88.6 -33.85 97.6 -35.5 106.85 -35.25 L107.05 -34.6 106.95 -24.65 107.15 -11.25 107.25 -8.05 Q88.5 -8.2 74.5 6.0 L72.85 7.75 70.25 10.2 Q54.7 10.0 50.1 11.55 49.55 12.1 49.5 13.95 L49.55 31.1 34.65 31.1 35.15 -2.5 38.25 -5.6 M38.2 -4.25 L37.75 -3.8 37.75 -2.0 Q38.0 0.35 37.45 2.4 L37.25 3.4 36.85 13.2 36.8 14.7 36.9 14.35 37.1 13.65 Q37.3 12.55 37.9 11.65 L39.9 8.45 Q41.65 5.25 44.45 2.15 L45.65 0.75 46.95 -1.05 Q48.4 -3.1 50.5 -5.25 L55.7 -10.9 60.1 -15.15 Q64.6 -18.85 69.45 -22.15 L72.8 -24.5 81.65 -30.45 82.8 -31.15 Q84.45 -31.95 85.15 -33.0 84.65 -32.7 84.15 -32.55 L83.3 -32.2 Q82.45 -31.7 80.75 -31.6 L80.25 -31.45 Q77.1 -29.7 73.85 -28.25 L72.95 -27.95 Q68.65 -25.9 65.05 -23.85 L63.7 -23.1 Q59.5 -20.7 55.9 -18.2 L53.8 -16.85 Q48.65 -13.55 45.05 -10.2 L38.2 -4.25 M48.2 16.8 L48.1 16.75 Q46.35 17.3 45.1 18.6 L43.7 19.85 40.1 22.8 36.45 26.4 35.65 27.05 35.1 27.6 35.2 27.9 35.45 28.4 40.2 28.75 Q42.9 28.55 45.15 29.25 48.3 30.25 48.1 26.75 48.0 25.4 48.2 24.1 48.55 21.15 48.55 18.0 L48.3 17.05 48.25 16.9 48.2 16.8 M67.05 24.05 L67.25 21.4 67.55 17.1 66.95 15.95 Q66.3 14.8 64.6 15.0 L59.75 15.25 54.85 15.65 54.35 15.65 Q53.35 15.55 53.35 16.45 L53.2 18.0 53.15 18.6 52.9 28.4 Q52.9 28.95 53.05 29.0 L55.85 29.55 65.6 29.05 Q66.1 28.95 66.3 28.65 L66.65 27.9 Q67.05 26.05 67.05 24.05 M105.15 -29.3 L105.15 -31.35 104.95 -33.25 Q102.6 -30.75 100.2 -28.8 98.9 -27.65 98.25 -26.5 L97.8 -25.95 96.05 -24.6 95.25 -23.95 86.2 -16.65 Q76.4 -8.9 67.15 -0.85 L65.5 0.55 55.85 8.3 Q61.45 8.3 67.05 8.45 68.7 8.5 69.45 7.7 72.95 3.7 76.85 0.15 79.4 -2.1 82.25 -3.65 86.2 -5.75 90.1 -7.4 92.05 -8.15 93.95 -9.05 96.05 -9.95 98.35 -10.2 L102.75 -10.65 Q103.2 -10.7 103.25 -10.9 L103.9 -13.35 104.0 -14.05 104.35 -17.75 104.65 -22.1 104.9 -25.3 105.15 -29.3 M68.7 30.95 L52.45 30.95 52.45 14.55 68.7 14.55 68.7 30.95" fill="#2e2a26" fill-rule="evenodd" stroke="none"/>
    <path d="M38.2 -4.25 L45.05 -10.2 Q48.65 -13.55 53.8 -16.85 L55.9 -18.2 Q59.5 -20.7 63.7 -23.1 L65.05 -23.85 Q68.65 -25.9 72.95 -27.95 L73.85 -28.25 Q77.1 -29.7 80.25 -31.45 L80.75 -31.6 Q82.45 -31.7 83.3 -32.2 L84.15 -32.55 Q84.65 -32.7 85.15 -33.0 84.45 -31.95 82.8 -31.15 L81.65 -30.45 72.8 -24.5 69.45 -22.15 Q64.6 -18.85 60.1 -15.15 L55.7 -10.9 50.5 -5.25 Q48.4 -3.1 46.95 -1.05 L45.65 0.75 44.45 2.15 Q41.65 5.25 39.9 8.45 L37.9 11.65 Q37.3 12.55 37.1 13.65 L36.9 14.35 36.8 14.7 36.85 13.2 37.25 3.4 37.45 2.4 Q38.0 0.35 37.75 -2.0 L37.75 -3.8 38.2 -4.25" fill="#524b45" fill-rule="evenodd" stroke="none"/>
    <path d="M35.35 -10.4 L38.75 -13.35 Q43.65 -17.45 49.0 -20.9 76.25 -38.85 108.05 -39.6 L110.65 -39.45 109.7 -11.25 109.45 -2.85 106.25 -2.9 Q90.9 -2.95 79.15 7.75 L79.1 7.75 78.8 8.05 77.65 9.25 73.4 13.0 73.05 34.35 29.3 34.35 29.3 31.65 29.95 -5.55 35.35 -10.4 M38.25 -5.6 L35.15 -2.5 34.65 31.1 49.55 31.1 49.5 13.95 Q49.55 12.1 50.1 11.55 54.7 10.0 70.25 10.2 L72.85 7.75 74.5 6.0 Q88.5 -8.2 107.25 -8.05 L107.15 -11.25 106.95 -24.65 107.05 -34.6 106.85 -35.25 Q97.6 -35.5 88.6 -33.85 62.35 -29.2 38.25 -5.6 M68.7 30.95 L68.7 14.55 52.45 14.55 52.45 30.95 68.7 30.95" fill="#000000" fill-rule="evenodd" stroke="none"/>
    <path d="M105.15 -29.3 L104.9 -25.3 104.65 -22.1 104.35 -17.75 104.0 -14.05 103.9 -13.35 103.25 -10.9 Q103.2 -10.7 102.75 -10.65 L98.35 -10.2 Q96.05 -9.95 93.95 -9.05 92.05 -8.15 90.1 -7.4 86.2 -5.75 82.25 -3.65 79.4 -2.1 76.85 0.15 72.95 3.7 69.45 7.7 68.7 8.5 67.05 8.45 61.45 8.3 55.85 8.3 L65.5 0.55 67.15 -0.85 Q76.4 -8.9 86.2 -16.65 L95.25 -23.95 96.05 -24.6 97.8 -25.95 98.25 -26.5 Q98.9 -27.65 100.2 -28.8 102.6 -30.75 104.95 -33.25 L105.15 -31.35 105.15 -29.3 M67.05 24.05 Q67.05 26.05 66.65 27.9 L66.3 28.65 Q66.1 28.95 65.6 29.05 L55.85 29.55 53.05 29.0 Q52.9 28.95 52.9 28.4 L53.15 18.6 53.2 18.0 53.35 16.45 Q53.35 15.55 54.35 15.65 L54.85 15.65 59.75 15.25 64.6 15.0 Q66.3 14.8 66.95 15.95 L67.55 17.1 67.25 21.4 67.05 24.05 M48.2 16.8 L48.25 16.9 48.3 17.05 48.55 18.0 Q48.55 21.15 48.2 24.1 48.0 25.4 48.1 26.75 48.3 30.25 45.15 29.25 42.9 28.55 40.2 28.75 L35.45 28.4 35.2 27.9 35.1 27.6 35.65 27.05 36.45 26.4 40.1 22.8 43.7 19.85 45.1 18.6 Q46.35 17.3 48.1 16.75 L48.2 16.8" fill="#141210" fill-rule="evenodd" stroke="none"/>
    <path d="M102.3 30.6 L102.0 17.35 101.85 10.8 Q96.8 10.9 97.15 16.4 L97.15 18.8 97.1 30.4 98.15 30.6 93.85 30.6 93.85 16.55 94.0 15.4 Q92.95 8.95 100.0 8.5 107.05 8.0 106.8 14.7 L106.8 30.6 102.3 30.6 M80.15 30.55 L77.8 30.55 77.8 16.55 Q77.05 10.75 82.05 7.75 L83.4 7.55 Q86.7 7.2 89.0 9.4 90.2 9.85 90.45 12.45 L90.7 30.55 84.55 30.55 84.55 30.4 84.7 25.05 84.75 18.8 84.7 17.4 84.65 16.55 84.75 9.5 Q79.4 10.95 79.8 17.4 L79.95 19.7 80.05 21.7 80.15 30.55" fill="#999999" fill-rule="evenodd" stroke="none"/>
    <path d="M98.15 30.6 L97.1 30.4 97.15 18.8 97.15 16.4 Q96.8 10.9 101.85 10.8 L102.0 17.35 102.3 30.6 98.15 30.6 M80.15 30.55 L80.05 21.7 79.95 19.7 79.8 17.4 Q79.4 10.95 84.75 9.5 L84.65 16.55 84.7 17.4 84.75 18.8 84.7 25.05 84.55 30.4 84.55 30.55 80.15 30.55" fill="#333333" fill-rule="evenodd" stroke="none"/>
    <path d="M102.3 30.6 L106.8 30.6 106.8 14.7 Q107.05 8.0 100.0 8.5 92.95 8.95 94.0 15.4 L93.85 16.55 93.85 30.6 98.15 30.6 102.3 30.6 M108.65 10.25 Q109.2 12.35 109.25 17.4 L109.25 33.45 77.0 33.45 76.95 33.4 76.0 33.45 76.0 17.4 Q75.45 3.9 87.7 6.05 90.6 6.35 92.35 9.1 97.05 4.25 102.55 6.15 108.05 8.1 108.65 10.25 M84.55 30.55 L90.7 30.55 90.45 12.45 Q90.2 9.85 89.0 9.4 86.7 7.2 83.4 7.55 L82.05 7.75 Q77.05 10.75 77.8 16.55 L77.8 30.55 80.15 30.55 84.55 30.55" fill="#000000" fill-rule="evenodd" stroke="none"/>
    <path d="M139.0 43.5 L139.3 43.25 144.35 45.2 Q145.5 45.7 146.05 46.3 L146.2 46.55 146.3 48.55 146.25 49.8 Q146.2 50.2 145.55 50.15 L143.55 50.05 133.8 50.05 132.25 50.05 Q135.95 47.15 139.0 43.5" fill="#432288" fill-rule="evenodd" stroke="none"/>
    <path d="M139.0 43.5 Q135.95 47.15 132.25 50.05 L133.8 50.05 143.55 50.05 145.55 50.15 Q146.2 50.2 146.25 49.8 L146.3 48.55 146.2 46.55 146.05 46.3 Q145.5 45.7 144.35 45.2 L139.3 43.25 139.0 43.5 M126.6 35.9 Q124.65 34.65 122.05 33.5 L120.85 32.9 Q118.65 31.55 116.3 30.45 L115.3 30.35 115.15 30.5 114.95 31.5 114.9 31.75 114.55 36.5 Q114.3 38.1 114.35 39.8 L114.15 45.9 Q115.9 44.45 117.8 43.3 119.15 42.5 120.6 41.9 125.9 39.65 131.05 38.25 130.3 38.1 129.55 37.5 L129.3 37.35 127.25 36.35 126.6 35.9 M112.25 51.25 L113.3 27.05 148.35 46.25 148.65 51.2 112.25 51.25" fill="#6633cc" fill-rule="evenodd" stroke="none"/>
    <path d="M126.6 35.9 L127.25 36.35 129.3 37.35 129.55 37.5 Q130.3 38.1 131.05 38.25 125.9 39.65 120.6 41.9 119.15 42.5 117.8 43.3 115.9 44.45 114.15 45.9 L114.35 39.8 Q114.3 38.1 114.55 36.5 L114.9 31.75 114.95 31.5 115.15 30.5 115.3 30.35 116.3 30.45 Q118.65 31.55 120.85 32.9 L122.05 33.5 Q124.65 34.65 126.6 35.9" fill="#8a64d9" fill-rule="evenodd" stroke="none"/>
    <path d="M111.2 21.8 L152.5 45.75 152.0 54.5 108.9 55.2 108.9 50.55 108.8 40.0 108.55 24.0 111.2 21.8 M112.25 51.25 L148.65 51.2 148.35 46.25 113.3 27.05 112.25 51.25" fill="#000000" fill-rule="evenodd" stroke="none"/>
    <path d="M223.5 167.05 L223.5 163.3 242.0 163.3 242.2 165.85 245.1 165.85 245.35 159.45 249.75 159.65 249.55 197.35 244.0 197.25 244.05 189.9 241.6 189.9 241.6 193.85 222.85 193.8 222.9 191.05 220.35 191.05 220.3 197.6 216.2 197.55 Q216.65 189.9 216.5 159.6 L220.35 159.55 220.55 167.05 223.5 167.05 M219.5 180.45 L220.25 182.05 246.5 182.05 Q247.15 179.85 247.1 177.5 247.1 176.6 245.9 174.9 L245.2 173.9 220.15 173.9 219.75 175.05 Q219.2 176.75 219.3 178.6 L219.35 179.8 219.5 180.45" fill="#3366ff" fill-rule="evenodd" stroke="none"/>
    <path d="M223.5 167.05 L220.55 167.05 220.35 159.55 216.5 159.6 Q216.65 189.9 216.2 197.55 L220.3 197.6 220.35 191.05 222.9 191.05 222.85 193.8 241.6 193.85 241.6 189.9 244.05 189.9 244.0 197.25 249.55 197.35 249.75 159.65 245.35 159.45 245.1 165.85 242.2 165.85 242.0 163.3 223.5 163.3 223.5 167.05 M223.55 159.85 L242.3 159.85 242.25 156.4 252.25 156.35 252.0 200.1 241.55 200.15 241.6 197.15 222.85 197.25 222.85 200.55 213.8 200.6 213.85 156.9 223.55 156.75 223.55 159.85 M219.5 180.45 L219.35 179.8 219.3 178.6 Q219.2 176.75 219.75 175.05 L220.15 173.9 245.2 173.9 245.9 174.9 Q247.1 176.6 247.1 177.5 247.15 179.85 246.5 182.05 L220.25 182.05 219.5 180.45 M222.3 179.75 L243.75 179.85 244.3 178.2 243.35 176.25 222.35 175.95 221.45 177.95 222.3 179.75" fill="#000000" fill-rule="evenodd" stroke="none"/>
    <path d="M222.3 179.75 L221.45 177.95 222.35 175.95 243.35 176.25 244.3 178.2 243.75 179.85 222.3 179.75" fill="#990000" fill-rule="evenodd" stroke="none"/>
    <path d="M289.85 0.0 L289.6 0.25" fill="none" stroke="#000066" stroke-linecap="round" stroke-linejoin="round" stroke-width="0.1"/>
    <path d="M292.1 -5.2 L291.15 -4.65 287.25 -1.85 284.85 0.05 Q284.35 0.5 284.15 1.05 L285.45 2.1 285.85 2.4 Q286.85 3.05 288.3 3.0 L289.05 3.1 292.1 3.5 299.35 3.4 299.85 3.35 308.6 3.2 314.6 2.65 316.85 2.5 317.3 2.4 318.35 2.25 318.75 2.15 318.95 1.8 319.05 1.5 319.8 0.0 Q320.15 -0.85 320.85 -1.3 L321.1 -1.5 322.8 -3.55 323.15 -3.9 Q324.45 -4.9 325.55 -6.25 L326.8 -7.55 327.65 -8.2 330.6 -10.55 331.15 -10.9 332.1 -11.5 332.9 -12.15 333.5 -12.6 334.2 -13.1 337.35 -15.3 343.65 -19.0 344.3 -19.35 Q346.2 -20.45 348.15 -21.2 L353.1 -23.25 357.6 -25.0 362.35 -26.5 362.8 -26.65 369.1 -28.55 368.35 -28.55 367.35 -28.45 365.6 -28.4 364.3 -28.15 363.85 -28.0 358.6 -27.1 358.15 -26.95 355.85 -26.45 355.35 -26.4 353.1 -26.1 348.1 -25.3 343.1 -24.45 338.4 -23.45 329.35 -21.1 320.3 -18.4 319.15 -17.95 Q315.25 -16.25 311.35 -14.85 L310.45 -14.4 309.1 -13.8 306.55 -12.85 297.8 -8.85 Q295.9 -7.9 294.15 -6.45 L292.1 -5.2 M284.0 -1.25 Q297.8 -10.5 312.75 -16.7 333.6 -25.5 355.75 -28.9 376.4 -31.85 392.35 -31.05 L391.7 -5.95 385.4 -6.15 Q373.55 -6.35 361.55 -6.0 359.15 -5.7 358.05 -3.5 L358.15 4.05 278.25 3.85 278.35 2.7 284.0 -1.25 M356.55 -5.9 L380.75 -7.45 389.5 -7.4 Q390.35 -8.2 390.25 -9.3 389.3 -17.45 390.8 -24.8 391.0 -25.65 390.85 -26.55 385.9 -23.7 380.6 -19.65 378.05 -17.75 375.3 -16.1 364.7 -9.9 353.6 -4.75 L338.9 2.75 Q338.3 3.25 339.85 3.3 L355.75 2.85 Q356.55 1.95 356.6 0.5 L356.5 -2.25 Q356.25 -4.25 356.55 -5.9" fill="#6633cc" fill-rule="evenodd" stroke="none"/>
    <path d="M292.1 -5.2 L294.15 -6.45 Q295.9 -7.9 297.8 -8.85 L306.55 -12.85 309.1 -13.8 310.45 -14.4 311.35 -14.85 Q315.25 -16.25 319.15 -17.95 L320.3 -18.4 329.35 -21.1 338.4 -23.45 343.1 -24.45 348.1 -25.3 353.1 -26.1 355.35 -26.4 355.85 -26.45 358.15 -26.95 358.6 -27.1 363.85 -28.0 364.3 -28.15 365.6 -28.4 367.35 -28.45 368.35 -28.55 369.1 -28.55 362.8 -26.65 362.35 -26.5 357.6 -25.0 353.1 -23.25 348.15 -21.2 Q346.2 -20.45 344.3 -19.35 L343.65 -19.0 337.35 -15.3 334.2 -13.1 333.5 -12.6 332.9 -12.15 332.1 -11.5 331.15 -10.9 330.6 -10.55 327.65 -8.2 326.8 -7.55 325.55 -6.25 Q324.45 -4.9 323.15 -3.9 L322.8 -3.55 321.1 -1.5 320.85 -1.3 Q320.15 -0.85 319.8 0.0 L319.05 1.5 318.95 1.8 318.75 2.15 318.35 2.25 317.3 2.4 316.85 2.5 314.6 2.65 308.6 3.2 299.85 3.35 299.35 3.4 292.1 3.5 289.05 3.1 288.3 3.0 Q286.85 3.05 285.85 2.4 L285.45 2.1 284.15 1.05 Q284.35 0.5 284.85 0.05 L287.25 -1.85 291.15 -4.65 292.1 -5.2" fill="#8a64d9" fill-rule="evenodd" stroke="none"/>
    <path d="M301.0 -15.95 Q321.55 -25.95 343.95 -30.8 365.85 -35.45 388.15 -34.95 L395.35 -34.65 Q395.35 -19.65 395.6 -4.85 L392.25 -2.55 389.0 -2.65 360.9 -2.45 361.35 7.8 358.8 8.25 286.9 8.1 279.9 7.95 276.75 7.8 276.7 7.8 Q274.1 2.9 276.35 0.95 286.1 -7.45 297.15 -13.85 L301.0 -15.95 M284.0 -1.25 L278.35 2.7 278.25 3.85 358.15 4.05 358.05 -3.5 Q359.15 -5.7 361.55 -6.0 373.55 -6.35 385.4 -6.15 L391.7 -5.95 392.35 -31.05 Q376.4 -31.85 355.75 -28.9 333.6 -25.5 312.75 -16.7 297.8 -10.5 284.0 -1.25" fill="#000000" fill-rule="evenodd" stroke="none"/>
    <path d="M356.55 -5.9 Q356.25 -4.25 356.5 -2.25 L356.6 0.5 Q356.55 1.95 355.75 2.85 L339.85 3.3 Q338.3 3.25 338.9 2.75 L353.6 -4.75 Q364.7 -9.9 375.3 -16.1 378.05 -17.75 380.6 -19.65 385.9 -23.7 390.85 -26.55 391.0 -25.65 390.8 -24.8 389.3 -17.45 390.25 -9.3 390.35 -8.2 389.5 -7.4 L380.75 -7.45 356.55 -5.9" fill="#432288" fill-rule="evenodd" stroke="none"/>
    <path d="M371.3 -2.0 L371.2 1.75 385.95 1.4 385.9 -1.85 371.3 -2.0 M389.3 -5.2 L388.95 8.35 407.2 8.0 407.3 2.0 407.35 2.0 407.35 -1.6 407.35 -2.8 407.35 -5.1 427.05 -5.35 427.05 -5.7 427.05 -5.35 427.1 -5.35 427.1 -5.0 427.05 -5.2 426.8 8.55 437.35 8.3 437.35 23.75 Q436.75 24.15 436.55 24.15 L426.45 24.1 426.35 27.65 406.9 27.25 406.95 23.8 397.15 23.85 397.15 26.1 397.2 41.15 357.8 41.35 358.1 24.25 357.85 24.15 356.8 23.55 356.85 23.5 356.6 23.4 356.3 19.4 356.4 18.05 356.3 18.05 356.5 8.0 369.2 8.05 369.4 -5.25 370.0 -5.1 Q385.65 -5.55 389.2 -4.85 L389.3 -5.2 M409.3 -2.0 L409.2 1.75 423.95 1.4 423.9 -1.85 409.3 -2.0 M426.75 11.35 L426.5 21.4 434.65 21.4 434.65 19.4 Q434.65 17.1 434.8 16.5 L434.95 15.95 434.95 11.05 426.75 11.35 M424.2 9.25 L424.2 4.3 409.45 4.3 409.45 9.25 409.45 19.15 424.2 19.15 424.2 9.25 M407.15 10.95 L388.75 10.55 388.5 21.25 407.0 21.35 407.15 10.95 M409.4 21.9 L409.4 25.6 424.5 25.6 424.5 21.9 409.4 21.9 M371.4 9.75 L371.4 19.15 386.2 19.15 386.2 9.75 386.2 4.3 371.4 4.3 371.4 9.75 M395.45 23.85 L388.45 23.85 388.35 27.65 368.9 27.25 368.95 24.35 362.05 24.4 360.0 24.45 360.0 24.75 359.8 39.15 389.6 39.1 395.25 39.4 395.45 24.15 395.45 23.85 M369.15 11.0 L359.15 11.2 359.4 19.75 359.3 21.75 361.55 21.65 367.6 21.65 369.0 21.8 369.15 11.0 M371.4 21.9 L371.4 25.6 386.5 25.6 386.5 21.9 371.4 21.9" fill="#000000" fill-rule="evenodd" stroke="none"/>
    <path d="M371.3 -2.0 L385.9 -1.85 385.95 1.4 371.2 1.75 371.3 -2.0 M426.75 11.35 L434.95 11.05 434.95 15.95 434.8 16.5 Q434.65 17.1 434.65 19.4 L434.65 21.4 426.5 21.4 426.75 11.35 M409.3 -2.0 L423.9 -1.85 423.95 1.4 409.2 1.75 409.3 -2.0 M409.4 21.9 L424.5 21.9 424.5 25.6 409.4 25.6 409.4 21.9 M407.15 10.95 L407.0 21.35 388.5 21.25 388.75 10.55 407.15 10.95 M369.15 11.0 L369.0 21.8 367.6 21.65 361.55 21.65 359.3 21.75 359.4 19.75 359.15 11.2 369.15 11.0 M395.45 23.85 L395.45 24.15 395.25 39.4 389.6 39.1 359.8 39.15 360.0 24.75 360.0 24.45 362.05 24.4 368.95 24.35 368.9 27.25 388.35 27.65 388.45 23.85 395.45 23.85 M374.1 38.05 L393.9 38.65 394.15 38.5 394.45 37.7 394.5 34.8 394.35 27.9 389.9 30.5 383.15 34.1 Q378.75 36.4 374.1 38.05 M371.4 21.9 L386.5 21.9 386.5 25.6 371.4 25.6 371.4 21.9" fill="#a29b99" fill-rule="evenodd" stroke="none"/>
    <path d="M424.2 9.25 L423.85 9.25 414.85 9.25 409.45 9.25 409.45 4.3 424.2 4.3 424.2 9.25 M386.2 9.75 L385.85 9.75 376.1 9.75 371.4 9.75 371.4 4.3 386.2 4.3 386.2 9.75" fill="#534b4a" fill-rule="evenodd" stroke="none"/>
    <path d="M409.45 9.25 L414.85 9.25 423.85 9.25 424.2 9.25 424.2 19.15 409.45 19.15 409.45 9.25 M386.2 9.75 L386.2 19.15 371.4 19.15 371.4 9.75 376.1 9.75 385.85 9.75 386.2 9.75 M374.1 38.05 Q378.75 36.4 383.15 34.1 L389.9 30.5 394.35 27.9 394.5 34.8 394.45 37.7 394.15 38.5 393.9 38.65 374.1 38.05" fill="#756c6a" fill-rule="evenodd" stroke="none"/>
    <path d="M274.65 70.65 L150.7 70.85 150.55 83.8 151.75 83.8 155.8 83.9 160.35 84.3 160.6 84.3 161.1 84.3 161.0 99.95 275.2 99.85 Q274.9 78.35 275.05 71.7 L274.65 70.65 M277.3 69.65 L277.3 70.15 277.3 70.5 Q277.8 84.4 277.8 94.85 L277.75 101.1 277.75 101.6 276.65 102.6 160.2 102.5 159.85 102.25 159.7 102.25 158.35 101.3 158.45 101.15 158.35 101.05 158.75 100.35 158.65 86.65 149.85 86.6 149.5 86.35 149.35 86.35 147.2 84.8 147.2 84.55 147.45 68.75 147.45 68.5 275.65 68.35 277.3 69.65" fill="#000000" fill-rule="evenodd" stroke="none"/>
    <path d="M271.9 96.85 L271.5 77.35 223.0 99.05 235.3 98.75 271.9 96.85 M274.65 70.65 L275.05 71.7 Q274.9 78.35 275.2 99.85 L161.0 99.95 161.1 84.3 160.6 84.3 160.35 84.3 155.8 83.9 151.75 83.8 150.55 83.8 150.7 70.85 274.65 70.65 M170.0 97.55 Q170.95 97.55 171.45 96.85 L223.05 72.6 Q188.7 74.05 154.45 73.55 L154.75 80.5 155.7 81.1 156.55 81.55 157.75 81.55 Q160.3 81.2 162.8 82.35 165.6 89.9 163.35 98.05 L170.0 97.55" fill="#990000" fill-rule="evenodd" stroke="none"/>
    <path d="M271.9 96.85 L235.3 98.75 223.0 99.05 271.5 77.35 271.9 96.85" fill="#5e0000" fill-rule="evenodd" stroke="none"/>
    <path d="M170.0 97.55 L163.35 98.05 Q165.6 89.9 162.8 82.35 160.3 81.2 157.75 81.55 L156.55 81.55 155.7 81.1 154.75 80.5 154.45 73.55 Q188.7 74.05 223.05 72.6 L171.45 96.85 Q170.95 97.55 170.0 97.55" fill="#ff0f0f" fill-rule="evenodd" stroke="none"/>
    <path d="M288.95 101.7 L287.95 101.7 288.05 100.8 288.15 100.0 288.25 98.6 288.25 96.7 288.15 96.15 288.1 95.7 288.05 95.35 298.6 95.45 298.6 97.5 298.65 98.2 298.7 99.5 298.65 101.3 298.7 101.65 291.25 101.7 291.55 101.3 291.5 100.55 Q291.3 98.2 291.45 95.8 L291.45 95.45 291.35 95.45 291.1 95.55 290.15 95.85 289.6 95.4 289.05 95.45 288.9 95.55 288.8 100.15 288.8 100.85 288.9 101.55 288.95 101.7 M306.3 95.55 L306.5 95.55 306.7 95.55 308.05 95.5 Q307.8 96.8 307.8 99.3 L307.75 101.0 307.8 101.65 306.75 101.65 304.55 101.65 306.35 101.55 Q306.05 100.55 306.05 99.4 L306.1 99.05 306.2 96.55 306.3 95.65 306.3 95.55 M164.95 101.8 L165.25 96.1 165.15 93.95 168.05 94.0 167.95 101.75 164.95 101.8 M160.85 93.95 Q161.05 94.6 160.5 95.7 L160.3 96.55 160.3 101.8 158.55 101.8 157.55 101.7 157.75 93.9 160.85 93.95 M170.6 92.2 L163.8 92.25 Q163.75 90.55 164.05 88.95 L171.1 88.85 170.6 92.2 M158.1 92.25 L155.25 92.25 155.15 89.1 157.85 89.05 158.1 92.25 M180.65 92.15 L180.3 88.75 182.55 88.7 182.4 92.15 180.65 92.15 M176.75 94.05 L179.7 94.05 179.75 101.7 176.55 101.75 176.75 94.05 M249.5 116.5 L249.5 115.25 249.35 113.35 249.3 112.85 249.25 112.35 249.25 111.95 248.6 111.95 245.8 112.1 245.35 112.0 Q244.4 111.65 243.8 110.65 L243.0 109.45 242.75 109.65 242.45 109.95 242.25 112.35 242.15 112.8 242.05 113.05 241.95 114.05 242.1 115.95 242.15 116.4 242.2 116.5 229.25 116.55 229.3 115.7 229.35 114.5 229.55 112.75 229.5 109.7 229.4 109.35 228.5 109.0 228.25 109.0 228.1 109.85 227.95 110.75 227.9 110.15 227.75 109.25 Q227.8 109.6 227.25 109.5 L226.85 109.45 227.3 108.95 202.3 108.95 202.45 109.2 200.8 109.5 200.5 109.55 Q199.95 109.55 200.0 109.9 L200.05 113.7 200.1 114.75 200.15 114.85 200.1 115.25 Q200.05 116.25 200.7 116.55 L186.9 116.6 Q187.6 116.35 187.35 115.25 L187.25 113.8 187.25 112.75 187.35 109.2 187.45 108.85 Q193.9 107.8 199.95 105.35 L200.55 105.2 150.6 104.7 151.1 111.9 150.1 116.75 149.7 116.8 149.7 109.35 149.7 104.9 149.7 103.45 156.9 103.5 159.6 103.6 163.65 103.6 162.95 103.5 305.95 103.8 310.2 103.95 312.65 104.05 314.45 104.2 314.45 105.3 314.75 116.4 314.75 116.45 269.3 116.5 269.55 114.25 269.7 113.05 269.65 111.9 Q269.45 111.05 269.55 110.15 269.75 109.35 268.95 109.35 L268.7 109.35 268.45 109.3 Q267.6 109.2 267.65 109.9 L267.6 112.35 267.55 112.6 267.55 113.0 267.45 116.5 266.9 116.5 267.05 114.25 267.05 114.2 267.15 113.05 267.2 113.0 267.55 110.4 Q267.85 108.95 266.4 109.3 265.85 109.4 265.55 109.85 L264.6 111.4 264.5 111.65 Q264.35 112.15 263.6 112.0 L263.35 111.95 262.1 111.8 Q261.25 111.65 261.25 112.35 L261.25 112.6 261.2 112.6 261.15 113.95 261.05 116.5 259.9 116.5 259.9 111.1 264.2 111.1 265.45 108.95 243.55 109.2 245.1 111.05 250.65 111.05 250.65 116.5 249.5 116.5 M222.05 116.55 L220.9 116.55 220.9 111.0 225.05 111.0 224.45 111.4 222.65 111.75 222.4 111.85 222.15 111.95 221.95 113.0 221.9 113.5 221.9 113.8 222.0 116.2 222.05 116.55 M206.45 110.95 L206.85 110.95 206.85 116.55 205.95 116.55 206.0 116.4 206.1 114.45 206.1 113.75 206.1 112.05 206.15 112.0 206.4 111.15 206.45 110.95 M183.35 109.35 L186.3 109.0 186.35 109.45 186.4 109.7 186.45 112.6 186.4 113.3 186.35 113.8 186.25 116.6 182.75 116.6 182.95 116.55 183.45 116.55 185.3 116.3 185.5 116.2 185.6 115.3 185.7 112.9 185.75 112.5 185.75 110.15 185.65 109.8 185.3 109.6 183.2 109.75 183.05 109.9 Q183.0 110.6 182.5 110.8 L180.9 110.95 180.4 110.9 180.15 110.9 180.05 112.6 179.95 115.25 179.9 116.2 179.9 116.55 180.1 116.6 179.6 116.6 179.6 110.85 181.95 110.6 183.35 109.35 M160.95 116.6 L161.05 116.5 162.1 116.35 163.6 116.2 163.8 116.2 164.9 116.1 165.05 116.05 165.05 115.95 165.15 114.25 165.1 112.45 165.05 111.65 165.05 111.05 164.9 111.05 164.6 110.8 165.4 110.8 165.4 116.6 160.95 116.6 M163.1 110.4 L162.35 110.4 161.05 110.5 160.9 110.7 160.85 113.0 160.8 116.6 155.8 116.6 160.2 116.2 160.9 110.55 162.55 109.75 163.1 110.4 M311.25 106.2 L310.2 106.75 310.2 106.8 Q305.8 108.75 301.25 111.35 L297.75 113.15 Q293.9 115.1 290.35 116.2 L294.15 116.1 294.9 116.05 296.45 115.85 300.25 115.6 303.2 115.65 310.2 115.7 311.95 115.8 Q312.8 115.9 312.95 115.45 L313.1 115.05 313.3 113.8 313.15 108.95 313.0 105.85 313.1 105.35 Q312.5 105.5 311.9 105.8 L311.25 106.2" fill="#990000" fill-rule="evenodd" stroke="none"/>
    <path d="M287.15 94.0 L287.2 94.05 287.4 93.8 308.35 93.7 309.3 94.35 309.4 94.25 Q310.3 94.55 310.3 95.15 310.35 99.4 309.95 101.35 L309.9 101.55 310.0 101.55 314.35 101.4 315.25 101.45 317.1 101.5 317.1 103.35 317.05 103.35 317.1 103.75 317.1 119.45 316.9 119.6 156.3 119.5 148.05 119.1 147.2 118.55 147.2 101.85 147.25 101.8 148.75 101.8 148.2 101.85 149.5 101.8 155.65 101.7 155.85 93.8 153.2 93.75 153.55 86.75 157.75 86.7 184.4 86.6 184.5 92.15 184.4 92.6 183.75 94.0 181.65 94.1 181.5 101.7 186.2 101.75 190.85 101.75 190.9 101.8 286.45 101.7 Q286.3 100.85 286.3 99.35 L286.3 99.2 286.35 96.7 286.35 96.6 286.3 95.1 287.15 94.0 M298.6 95.45 L288.05 95.35 288.1 95.7 288.15 96.15 288.25 96.7 288.25 98.6 288.15 100.0 288.05 100.8 287.95 101.7 288.95 101.7 291.25 101.7 298.7 101.65 304.55 101.65 306.75 101.65 307.8 101.65 307.75 101.0 307.8 99.3 Q307.8 96.8 308.05 95.5 L306.7 95.55 306.5 95.55 306.3 95.55 306.1 95.5 306.2 95.45 298.6 95.45 M165.15 93.95 L160.85 93.95 157.75 93.9 157.55 101.7 158.55 101.8 160.3 101.8 164.95 101.8 167.95 101.75 176.55 101.75 179.75 101.7 179.7 94.05 176.75 94.05 168.05 94.0 165.15 93.95 M163.8 92.25 L170.6 92.2 180.65 92.15 182.4 92.15 182.55 88.7 180.3 88.75 171.1 88.85 164.05 88.95 157.85 89.05 155.15 89.1 155.25 92.25 158.1 92.25 163.8 92.25 M249.5 116.5 L250.65 116.5 250.65 111.05 245.1 111.05 243.55 109.2 265.45 108.95 264.2 111.1 259.9 111.1 259.9 116.5 261.05 116.5 264.45 116.5 264.45 116.4 266.9 116.4 266.9 116.5 267.45 116.5 269.3 116.5 314.75 116.45 314.75 116.4 314.45 105.3 314.45 104.2 312.65 104.05 310.2 103.95 305.95 103.8 162.95 103.5 163.65 103.6 159.6 103.6 156.9 103.5 149.7 103.45 149.7 104.9 149.7 109.35 149.7 116.8 150.1 116.75 155.8 116.6 160.8 116.6 160.95 116.6 165.4 116.6 165.4 110.8 164.6 110.8 163.4 110.75 163.1 110.4 162.55 109.75 161.8 108.95 183.7 108.95 183.35 109.35 181.95 110.6 179.6 110.85 179.6 116.6 180.1 116.6 182.75 116.6 186.25 116.6 186.9 116.6 200.7 116.55 205.95 116.55 206.85 116.55 206.85 110.95 206.45 110.95 205.7 110.95 203.55 110.7 202.45 109.2 202.3 108.95 227.3 108.95 226.85 109.45 225.5 111.0 225.05 111.0 220.9 111.0 220.9 116.55 222.05 116.55 228.0 116.55 229.25 116.55 242.2 116.5 249.5 116.5 M218.4 111.0 L209.35 110.95 209.35 116.55 218.4 116.55 218.4 111.0 M177.1 110.85 L167.9 110.8 167.9 116.6 177.1 116.6 177.1 110.85 M253.15 111.05 L253.15 116.5 257.4 116.5 257.4 111.1 253.15 111.05" fill="#000000" fill-rule="evenodd" stroke="none"/>
    <path d="M288.95 101.7 L288.9 101.55 288.8 100.85 288.8 100.15 288.9 95.55 289.05 95.45 289.6 95.4 290.15 95.85 291.1 95.55 291.35 95.45 291.45 95.45 291.45 95.8 Q291.3 98.2 291.5 100.55 L291.55 101.3 291.25 101.7 288.95 101.7 M165.15 93.95 L165.25 96.1 164.95 101.8 160.3 101.8 160.3 96.55 160.5 95.7 Q161.05 94.6 160.85 93.95 L165.15 93.95 M164.05 88.95 Q163.75 90.55 163.8 92.25 L158.1 92.25 157.85 89.05 164.05 88.95 M267.45 116.5 L267.55 113.0 267.55 112.6 267.6 112.35 267.65 109.9 Q267.6 109.2 268.45 109.3 L268.7 109.35 268.95 109.35 Q269.75 109.35 269.55 110.15 269.45 111.05 269.65 111.9 L269.7 113.05 269.55 114.25 269.3 116.5 267.45 116.5 M150.1 116.75 L151.1 111.9 150.6 104.7 200.55 105.2 199.95 105.35 Q193.9 107.8 187.45 108.85 L187.35 109.2 187.25 112.75 187.25 113.8 187.35 115.25 Q187.6 116.35 186.9 116.6 L186.25 116.6 186.35 113.8 186.4 113.3 186.45 112.6 186.4 109.7 186.35 109.45 186.3 109.0 183.35 109.35 183.7 108.95 161.8 108.95 162.55 109.75 160.9 110.55 160.2 116.2 155.8 116.6 150.1 116.75 M227.95 110.75 L228.1 109.85 228.25 109.0 228.5 109.0 229.4 109.35 229.5 109.7 229.55 112.75 229.35 114.5 229.3 115.7 229.25 116.55 228.0 116.55 228.05 114.25 228.05 113.2 228.05 112.8 227.95 110.75" fill="#ff0f0f" fill-rule="evenodd" stroke="none"/>
    <path d="M298.7 101.65 L298.65 101.3 298.7 99.5 298.65 98.2 298.6 97.5 298.6 95.45 306.2 95.45 306.1 95.5 306.3 95.55 306.3 95.65 306.2 96.55 306.1 99.05 306.05 99.4 Q306.05 100.55 306.35 101.55 L304.55 101.65 298.7 101.65 M167.95 101.75 L168.05 94.0 176.75 94.05 176.55 101.75 167.95 101.75 M170.6 92.2 L171.1 88.85 180.3 88.75 180.65 92.15 170.6 92.2 M242.2 116.5 L242.15 116.4 242.1 115.95 241.95 114.05 242.05 113.05 242.15 112.8 242.25 112.35 242.45 109.95 242.75 109.65 243.0 109.45 243.8 110.65 Q244.4 111.65 245.35 112.0 L245.8 112.1 248.6 111.95 249.25 111.95 249.25 112.35 249.3 112.85 249.35 113.35 249.5 115.25 249.5 116.5 242.2 116.5 M261.05 116.5 L261.15 113.95 261.2 112.6 261.25 112.6 261.25 112.35 Q261.25 111.65 262.1 111.8 L263.35 111.95 263.6 112.0 Q264.35 112.15 264.5 111.65 L264.6 111.4 265.55 109.85 Q265.85 109.4 266.4 109.3 267.85 108.95 267.55 110.4 L267.2 113.0 267.15 113.05 267.05 114.2 267.05 114.25 266.9 116.5 266.9 116.4 264.45 116.4 264.45 116.5 261.05 116.5 M200.7 116.55 Q200.05 116.25 200.1 115.25 L200.15 114.85 200.1 114.75 200.05 113.7 200.0 109.9 Q199.95 109.55 200.5 109.55 L200.8 109.5 202.45 109.2 203.55 110.7 205.7 110.95 206.45 110.95 206.4 111.15 206.15 112.0 206.1 112.05 206.1 113.75 206.1 114.45 206.0 116.4 205.95 116.55 200.7 116.55 M226.85 109.45 L227.25 109.5 Q227.8 109.6 227.75 109.25 L227.9 110.15 227.95 110.75 228.05 112.8 228.05 113.2 228.05 114.25 228.0 116.55 222.05 116.55 222.0 116.2 221.9 113.8 221.9 113.5 221.95 113.0 222.15 111.95 222.4 111.85 222.65 111.75 224.45 111.4 225.05 111.0 225.5 111.0 226.85 109.45 M180.1 116.6 L179.9 116.55 179.9 116.2 179.95 115.25 180.05 112.6 180.15 110.9 180.4 110.9 180.9 110.95 182.5 110.8 Q183.0 110.6 183.05 109.9 L183.2 109.75 185.3 109.6 185.65 109.8 185.75 110.15 185.75 112.5 185.7 112.9 185.6 115.3 185.5 116.2 185.3 116.3 183.45 116.55 182.95 116.55 182.75 116.6 180.1 116.6 M164.6 110.8 L164.9 111.05 165.05 111.05 165.05 111.65 165.1 112.45 165.15 114.25 165.05 115.95 165.05 116.05 164.9 116.1 163.8 116.2 163.6 116.2 162.1 116.35 161.05 116.5 160.95 116.6 160.8 116.6 160.85 113.0 160.9 110.7 161.05 110.5 162.35 110.4 163.1 110.4 163.4 110.75 164.6 110.8 M311.25 106.2 L311.9 105.8 Q312.5 105.5 313.1 105.35 L313.0 105.85 313.15 108.95 313.3 113.8 313.1 115.05 312.95 115.45 Q312.8 115.9 311.95 115.8 L310.2 115.7 303.2 115.65 300.25 115.6 296.45 115.85 294.9 116.05 294.15 116.1 290.35 116.2 Q293.9 115.1 297.75 113.15 L301.25 111.35 Q305.8 108.75 310.2 106.8 L310.2 106.75 311.25 106.2" fill="#5e0000" fill-rule="evenodd" stroke="none"/>
    <path d="M187.2 100.75 L184.8 100.75 184.65 62.8 184.65 61.25 189.35 55.9 189.55 55.7 193.25 55.7 195.2 55.65 196.25 55.65 200.85 61.7 200.85 62.8 200.9 100.75 198.6 100.75 198.4 63.45 195.2 63.45 193.25 63.45 189.35 63.4 187.05 63.4 187.2 100.75 M193.25 61.55 L195.2 61.55 198.25 61.55 195.2 57.55 193.25 57.55 191.3 57.55 191.3 57.5 190.4 57.5 189.35 58.85 187.25 61.5 189.35 61.5 193.25 61.55" fill="#000000" fill-rule="evenodd" stroke="none"/>
    <path d="M195.2 100.75 L193.25 100.75 193.25 87.35 193.25 67.6 193.25 63.45 195.2 63.45 195.2 70.65 195.2 89.35 195.2 100.75 M193.25 61.55 L193.25 57.55 195.2 57.55 195.2 61.55 193.25 61.55" fill="#a29b99" fill-rule="evenodd" stroke="none"/>
    <path d="M193.25 100.75 L189.35 100.75 189.35 85.85 189.35 66.1 189.35 63.4 193.25 63.45 193.25 67.6 193.25 87.35 193.25 100.75 M193.25 57.55 L193.25 61.55 189.35 61.5 189.35 58.85 190.4 57.5 191.3 57.5 191.3 57.55 193.25 57.55" fill="#e0dede" fill-rule="evenodd" stroke="none"/>
    <path d="M198.6 100.75 L195.2 100.75 195.2 89.35 195.2 70.65 195.2 63.45 198.4 63.45 198.6 100.75 M195.2 61.55 L195.2 57.55 198.25 61.55 195.2 61.55" fill="#847b79" fill-rule="evenodd" stroke="none"/>
    <path d="M189.35 100.75 L187.2 100.75 187.05 63.4 189.35 63.4 189.35 66.1 189.35 85.85 189.35 100.75 M189.35 58.85 L189.35 61.5 187.25 61.5 189.35 58.85" fill="#666666" fill-rule="evenodd" stroke="none"/>
  </g>
</svg>
