<?xml version="1.0" encoding="UTF-8" standalone="no"?>
<svg xmlns:xlink="http://www.w3.org/1999/xlink" height="77.1px" width="87.5px" xmlns="http://www.w3.org/2000/svg">
  <g transform="matrix(1.0, 0.0, 0.0, 1.0, 43.75, 38.55)">
    <path d="M11.55 -5.05 L12.15 -5.45 Q12.4 -5.8 12.15 -6.15 L10.85 -8.25 8.95 -11.35 5.3 -17.75 5.1 -18.35 Q4.9 -19.3 4.35 -19.75 2.85 -21.1 3.95 -21.7 L6.85 -23.4 10.0 -25.1 Q11.75 -25.95 13.35 -26.9 L13.95 -27.15 Q15.85 -27.7 17.45 -28.75 L18.3 -29.4 Q18.95 -30.05 19.85 -29.65 23.1 -28.3 26.45 -25.85 26.9 -25.55 27.3 -25.2 L33.85 -20.25 34.1 -20.0 Q33.6 -19.3 33.2 -17.85 32.55 -15.85 32.9 -15.8 33.15 -16.05 33.4 -16.1 34.75 -16.2 35.05 -17.25 L35.25 -17.85 Q36.15 -20.3 37.45 -22.25 L37.6 -22.75 Q37.35 -23.95 35.95 -24.85 L35.35 -25.2 Q30.75 -27.8 25.35 -31.25 L24.55 -31.95 Q22.8 -33.8 20.45 -32.7 L18.85 -31.85 15.85 -30.45 Q11.35 -28.65 7.0 -26.6 L5.8 -26.05 Q1.4 -24.0 -3.0 -21.6 L-4.2 -21.05 Q-7.95 -19.6 -11.05 -17.25 L-11.3 -17.0 -8.5 -12.9 -5.95 -8.9 Q-4.0 -5.45 -1.1 -2.3 L-0.75 -1.75 Q0.0 1.15 3.4 0.75 L3.55 0.75 3.35 1.65 Q3.25 2.15 6.35 1.05 9.5 -0.05 13.05 -2.6 L11.55 -5.05 M9.55 -3.35 L9.45 -3.4 8.95 -3.85 Q8.2 -4.85 7.8 -6.15 L9.55 -3.35 M27.25 -15.2 L25.7 -11.85 20.25 -9.4 16.85 -15.25 15.9 -16.8 Q17.05 -18.9 19.35 -19.45 L19.9 -19.55 20.9 -19.35 25.85 -17.2 26.35 -16.75 27.25 -15.2 M16.25 -4.6 L26.7 -8.95 32.35 -20.0 18.25 -29.05 5.65 -21.7 16.25 -4.6 M40.05 -23.3 L34.55 -9.35 1.1 7.2 -12.6 -16.95 20.25 -35.3 39.8 -23.4 40.05 -23.3" fill="#990000" fill-rule="evenodd" stroke="none"/>
    <path d="M3.55 0.75 L3.4 0.75 Q0.0 1.15 -0.75 -1.75 L-1.1 -2.3 Q-4.0 -5.45 -5.95 -8.9 L-8.5 -12.9 -11.3 -17.0 -11.05 -17.25 Q-7.95 -19.6 -4.2 -21.05 L-3.0 -21.6 Q1.4 -24.0 5.8 -26.05 L7.0 -26.6 Q11.35 -28.65 15.85 -30.45 L18.85 -31.85 20.45 -32.7 Q22.8 -33.8 24.55 -31.95 L25.35 -31.25 Q30.75 -27.8 35.35 -25.2 L35.95 -24.85 Q37.35 -23.95 37.6 -22.75 L37.45 -22.25 Q36.15 -20.3 35.25 -17.85 L35.05 -17.25 Q34.75 -16.2 33.4 -16.1 33.15 -16.05 32.9 -15.8 32.55 -15.85 33.2 -17.85 33.6 -19.3 34.1 -20.0 L33.85 -20.25 27.3 -25.2 Q26.9 -25.55 26.45 -25.85 23.1 -28.3 19.85 -29.65 18.95 -30.05 18.3 -29.4 L17.45 -28.75 Q15.85 -27.7 13.95 -27.15 L13.35 -26.9 Q11.75 -25.95 10.0 -25.1 L6.85 -23.4 3.95 -21.7 Q2.85 -21.1 4.35 -19.75 4.9 -19.3 5.1 -18.35 L5.3 -17.75 8.95 -11.35 10.85 -8.25 12.15 -6.15 Q12.4 -5.8 12.15 -5.45 L11.55 -5.05 2.55 -19.45 -5.9 -14.9 -3.0 -9.3 -2.3 -11.95 -2.8 -13.7 1.55 -16.1 7.8 -6.15 Q8.2 -4.85 8.95 -3.85 L9.45 -3.4 9.55 -3.35 3.8 -0.5 3.55 0.75 M20.25 -9.4 L17.2 -8.1 11.5 -16.85 8.9 -20.95 18.8 -25.7 19.0 -25.65 22.15 -23.7 Q28.55 -19.9 29.05 -19.3 L27.25 -15.2 26.35 -16.75 25.85 -17.2 20.9 -19.35 19.9 -19.55 19.35 -19.45 Q17.05 -18.9 15.9 -16.8 L16.85 -15.25 20.25 -9.4" fill="#5e0000" fill-rule="evenodd" stroke="none"/>
    <path d="M11.55 -5.05 L13.05 -2.6 Q9.5 -0.05 6.35 1.05 3.25 2.15 3.35 1.65 L3.55 0.75 3.8 -0.5 9.55 -3.35 7.8 -6.15 1.55 -16.1 -2.8 -13.7 -2.3 -11.95 -3.0 -9.3 -5.9 -14.9 2.55 -19.45 11.55 -5.05 M27.25 -15.2 L29.05 -19.3 Q28.55 -19.9 22.15 -23.7 L19.0 -25.65 18.8 -25.7 8.9 -20.95 11.5 -16.85 17.2 -8.1 20.25 -9.4 25.7 -11.85 27.25 -15.2 M40.05 -23.3 L39.8 -23.4 20.25 -35.3 -12.6 -16.95 1.1 7.2 34.55 -9.35 40.05 -23.3 M16.25 -4.6 L5.65 -21.7 18.25 -29.05 32.35 -20.0 26.7 -8.95 16.25 -4.6 M43.75 -23.75 L37.45 -7.4 Q23.65 -0.9 -0.1 11.15 L-17.2 -18.3 20.45 -38.55 43.75 -23.75" fill="#000000" fill-rule="evenodd" stroke="none"/>
    <path d="M0.55 5.6 Q0.35 5.55 0.35 4.8 L0.45 3.5 0.75 3.6 1.85 3.65 Q2.95 3.65 7.1 1.6 L13.2 -1.35 Q16.5 -2.65 20.2 -4.6 L25.7 -7.5 Q31.35 -9.7 32.35 -10.5 33.25 -11.25 33.7 -12.65 L34.5 -15.0 36.5 -20.0 Q38.05 -23.25 39.25 -22.35 37.0 -17.05 34.85 -13.0 L33.9 -10.45 Q33.1 -8.5 32.6 -8.1 L29.65 -6.55 26.25 -5.1 Q17.85 -0.6 13.6 0.9 12.5 1.25 7.3 3.75 L2.0 6.15 0.9 5.95 0.7 5.75 0.55 5.6" fill="#ff0f0f" fill-rule="evenodd" stroke="none"/>
    <path d="M7.35 -14.9 Q5.45 -18.2 5.45 -18.6 L5.5 -19.3 5.7 -19.25 5.95 -19.25 Q7.9 -17.0 11.85 -10.95 15.85 -4.8 15.85 -4.0 15.85 -3.25 15.4 -2.95 L14.95 -2.75 Q13.2 -3.35 12.0 -6.3 L10.2 -10.35 Q9.25 -11.6 7.35 -14.9" fill="#ff0f0f" fill-rule="evenodd" stroke="none"/>
    <path d="M-13.55 -10.7 L-5.55 3.3 Q-23.25 9.65 -33.75 25.5 -36.85 30.1 -39.45 35.15 L-39.5 35.15 -40.2 35.05 -40.05 33.6 Q-39.0 22.2 -33.05 11.85 L-28.9 5.4 Q-23.3 -2.7 -15.75 -8.9 L-13.55 -10.7 M-14.1 -7.8 L-17.0 -5.45 Q-33.85 9.25 -38.85 31.05 -30.4 6.0 -9.1 -0.3 L-14.1 -7.8 M-7.65 2.95 L-9.4 0.75 Q-26.3 8.6 -35.8 27.9 L-35.65 28.15 -30.0 19.8 Q-23.75 11.0 -14.35 6.55 L-7.65 2.95" fill="#a29b99" fill-rule="evenodd" stroke="none"/>
    <path d="M-14.1 -7.8 L-9.1 -0.3 Q-30.4 6.0 -38.85 31.05 -33.85 9.25 -17.0 -5.45 L-14.1 -7.8" fill="#e0dede" fill-rule="evenodd" stroke="none"/>
    <path d="M-13.55 -10.7 L-15.75 -8.9 Q-23.3 -2.7 -28.9 5.4 L-33.05 11.85 Q-39.0 22.2 -40.05 33.6 L-40.2 35.05 -39.5 35.15 -39.45 35.15 Q-36.85 30.1 -33.75 25.5 -23.25 9.65 -5.55 3.3 L-13.55 -10.7 M-25.45 -5.85 L-22.5 -8.7 Q-17.85 -13.1 -12.3 -16.1 L-3.35 -0.6 Q-1.85 2.05 -1.55 5.1 -26.0 14.4 -37.8 38.4 L-39.95 38.55 -40.8 38.5 -41.95 38.2 -42.65 38.1 -43.2 37.95 -43.65 37.9 -43.75 36.8 Q-43.45 12.1 -25.45 -5.85" fill="#000000" fill-rule="evenodd" stroke="none"/>
    <path d="M-7.65 2.95 L-14.35 6.55 Q-23.75 11.0 -30.0 19.8 L-35.65 28.15 -35.8 27.9 Q-26.3 8.6 -9.4 0.75 L-7.65 2.95" fill="#625b59" fill-rule="evenodd" stroke="none"/>
  </g>
</svg>
