<?xml version="1.0" encoding="UTF-8" standalone="no"?>
<svg xmlns:xlink="http://www.w3.org/1999/xlink" height="44.8px" width="81.6px" xmlns="http://www.w3.org/2000/svg">
  <g transform="matrix(1.0, 0.0, 0.0, 1.0, 40.8, 22.4)">
    <path d="M14.25 -17.55 L13.75 -17.8 Q12.8 -18.25 11.85 -17.55 L9.3 -17.5 9.05 -17.7 7.55 -17.7 1.75 -17.5 -35.85 -17.45 -28.1 5.45 Q-3.45 2.35 12.65 18.6 L14.55 16.85 Q12.6 13.6 11.2 9.75 9.75 5.9 15.45 0.1 21.1 -5.7 32.55 4.05 L34.25 3.15 36.7 1.85 Q31.4 -4.15 24.15 -11.2 L18.9 -16.2 17.0 -17.55 14.25 -17.55 M17.0 -21.7 Q29.5 -12.75 39.05 -1.0 L40.15 0.35 40.8 1.15 39.95 1.75 30.75 8.65 Q27.25 -1.05 20.2 1.75 13.2 4.55 13.95 8.7 14.7 12.7 19.1 17.05 L12.65 22.4 4.0 15.15 Q-6.25 6.85 -31.55 8.55 L-40.8 -16.5 -37.85 -21.45 -19.7 -22.25 Q-1.0 -22.7 17.0 -21.7" fill="#000000" fill-rule="evenodd" stroke="none"/>
    <path d="M11.85 -17.55 Q12.8 -18.25 13.75 -17.8 L14.25 -17.55 Q15.0 -17.0 15.2 -15.8 L14.35 -15.1 Q13.75 -14.7 12.95 -14.7 11.15 -15.5 10.95 -16.7 L11.85 -17.55 M18.9 -16.2 L24.15 -11.2 Q31.4 -4.15 36.7 1.85 L34.25 3.15 Q32.05 0.55 28.6 -0.75 L24.1 -2.25 19.1 -2.95 Q17.1 -3.0 16.0 -2.45 L14.15 -1.6 Q10.2 0.1 9.3 4.3 8.85 6.45 9.55 8.3 10.7 11.45 12.05 13.3 L12.95 14.8 12.95 15.7 12.6 16.25 Q11.45 16.75 10.8 15.4 L10.25 14.65 9.5 13.85 Q7.3 11.55 5.1 10.25 L2.95 9.0 2.15 8.6 1.55 8.4 1.2 8.25 0.05 8.45 Q-0.6 8.45 -1.85 7.3 -3.25 5.95 -3.95 5.7 -5.1 5.3 -8.3 4.95 L-21.05 4.3 Q-22.7 3.95 -22.8 3.55 L-22.5 3.5 Q-14.35 1.8 -6.65 3.6 L-3.3 4.5 -2.6 4.75 -2.3 3.3 -2.05 2.2 -1.55 1.0 Q-1.4 0.75 -0.9 0.85 1.95 1.35 2.25 -0.7 L2.55 -1.75 3.05 -3.75 Q3.7 -7.0 1.15 -7.9 L0.75 -8.3 0.45 -8.7 -2.1 -8.95 -12.8 -9.55 -13.3 -10.3 Q-12.45 -11.2 -10.65 -11.2 L-3.35 -10.9 4.95 -10.25 7.1 -10.25 12.6 -10.25 13.55 -10.1 14.15 -9.9 15.55 -9.55 16.0 -9.2 Q17.05 -7.3 18.55 -6.15 19.25 -5.65 20.6 -5.7 L22.6 -5.75 22.15 -6.5 22.35 -7.45 17.05 -14.2 16.45 -14.2 16.5 -14.3 Q16.85 -15.25 17.65 -15.7 L18.9 -16.2 M1.75 -17.5 L7.55 -17.7 9.05 -17.7 9.3 -17.5 9.65 -17.0 10.2 -15.95 9.4 -15.3 Q8.85 -14.95 8.05 -14.95 L-1.25 -15.25 -13.8 -15.7 -16.05 -15.95 -16.8 -16.2 -16.8 -16.7 1.75 -17.5" fill="#ff0f0f" fill-rule="evenodd" stroke="none"/>
    <path d="M14.25 -17.55 L17.0 -17.55 18.9 -16.2 17.65 -15.7 Q16.85 -15.25 16.5 -14.3 L16.45 -14.2 -32.95 -15.25 -25.7 3.2 -22.5 3.5 -22.8 3.55 Q-22.7 3.95 -21.05 4.3 L-8.3 4.95 Q-5.1 5.3 -3.95 5.7 -3.25 5.95 -1.85 7.3 -0.6 8.45 0.05 8.45 L1.2 8.25 1.55 8.4 2.15 8.6 2.95 9.0 5.1 10.25 Q7.3 11.55 9.5 13.85 L10.25 14.65 10.8 15.4 Q11.45 16.75 12.6 16.25 L12.95 15.7 12.95 14.8 12.05 13.3 Q10.7 11.45 9.55 8.3 8.85 6.45 9.3 4.3 10.2 0.1 14.15 -1.6 L16.0 -2.45 Q17.1 -3.0 19.1 -2.95 L24.1 -2.25 28.6 -0.75 Q32.05 0.55 34.25 3.15 L32.55 4.05 Q21.1 -5.7 15.45 0.1 9.75 5.9 11.2 9.75 12.6 13.6 14.55 16.85 L12.65 18.6 Q-3.45 2.35 -28.1 5.45 L-35.85 -17.45 1.75 -17.5 -16.8 -16.7 -16.8 -16.2 -16.05 -15.95 -13.8 -15.7 -1.25 -15.25 8.05 -14.95 Q8.85 -14.95 9.4 -15.3 L10.2 -15.95 9.65 -17.0 9.3 -17.5 11.85 -17.55 10.95 -16.7 Q11.15 -15.5 12.95 -14.7 13.75 -14.7 14.35 -15.1 L15.2 -15.8 Q15.0 -17.0 14.25 -17.55 M22.15 -6.5 L22.6 -5.75 20.6 -5.7 Q19.25 -5.65 18.55 -6.15 17.05 -7.3 16.0 -9.2 L15.55 -9.55 14.15 -9.9 13.55 -10.1 12.6 -10.25 7.1 -10.25 4.95 -10.25 -3.35 -10.9 -10.65 -11.2 Q-12.45 -11.2 -13.3 -10.3 L-12.8 -9.55 -2.1 -8.95 0.45 -8.7 0.75 -8.3 1.15 -7.9 Q3.7 -7.0 3.05 -3.75 L2.55 -1.75 2.25 -0.7 Q1.95 1.35 -0.9 0.85 -1.4 0.75 -1.55 1.0 L-2.05 2.2 -2.3 3.3 -2.6 4.75 -3.3 4.5 -2.9 0.25 Q-11.4 0.4 -19.7 -1.3 -20.5 -8.4 -19.05 -9.55 -17.6 -10.7 -16.95 -12.0 17.15 -14.2 20.75 -7.1 L22.1 -6.25 22.15 -6.5" fill="#990000" fill-rule="evenodd" stroke="none"/>
    <path d="M16.45 -14.2 L17.05 -14.2 22.35 -7.45 22.15 -6.5 22.1 -6.25 20.75 -7.1 Q17.15 -14.2 -16.95 -12.0 -17.6 -10.7 -19.05 -9.55 -20.5 -8.4 -19.7 -1.3 -11.4 0.4 -2.9 0.25 L-3.3 4.5 -6.65 3.6 Q-14.35 1.8 -22.5 3.5 L-25.7 3.2 -32.95 -15.25 16.45 -14.2" fill="#5e0000" fill-rule="evenodd" stroke="none"/>
  </g>
</svg>
