<?xml version="1.0" encoding="UTF-8" standalone="no"?>
<svg xmlns:xlink="http://www.w3.org/1999/xlink" height="166.2px" width="473.5px" xmlns="http://www.w3.org/2000/svg">
  <g transform="matrix(1.0, 0.0, 0.0, 1.0, 236.75, 83.05)">
    <path d="M-235.6 -31.1 L-236.1 -31.85 -234.4 -34.0 Q-227.45 -30.05 -222.55 -23.9 L-197.35 -23.6 Q-196.5 -26.7 -194.3 -29.05 -189.9 -33.65 -183.3 -33.1 -179.15 -32.05 -175.5 -29.55 L-174.05 -28.5 Q-168.8 -23.6 -170.8 -16.55 L-171.45 -14.7 -173.35 -10.6 Q-174.95 -7.35 -178.25 -6.35 L-178.8 -5.5 -236.75 -5.9 -235.8 -7.3 -235.6 -31.1 M-224.4 -20.2 Q-227.65 -25.5 -233.25 -28.5 L-233.3 -9.15 -181.1 -8.65 -179.55 -9.55 -179.0 -9.25 Q-174.25 -12.8 -174.3 -18.65 -174.35 -21.0 -175.2 -23.25 -177.0 -27.75 -181.6 -28.2 L-181.9 -28.65 Q-191.8 -29.25 -195.15 -20.0 L-196.0 -20.45 -224.4 -20.2" fill="#000000" fill-rule="evenodd" stroke="none"/>
    <path d="M-224.4 -20.2 L-196.0 -20.45 -195.15 -20.0 Q-191.8 -29.25 -181.9 -28.65 L-181.6 -28.2 Q-177.0 -27.75 -175.2 -23.25 -174.35 -21.0 -174.3 -18.65 -174.25 -12.8 -179.0 -9.25 L-179.55 -9.55 -181.1 -8.65 -233.3 -9.15 -233.25 -28.5 Q-227.65 -25.5 -224.4 -20.2" fill="#2e2a26" fill-rule="evenodd" stroke="none"/>
    <path d="M-177.25 -32.5 Q-169.2 -29.3 -154.45 -22.95 L-154.85 -22.75 -153.65 -22.85 Q-149.9 -22.85 -147.2 -20.35 L-147.1 -20.45 Q-142.65 -22.7 -138.9 -25.65 L-138.1 -26.25 -137.15 -26.95 Q-136.85 -36.95 -125.85 -35.6 -120.75 -34.15 -119.5 -28.55 -118.25 -22.95 -122.3 -19.55 -126.35 -16.15 -129.15 -17.35 L-146.95 -6.3 Q-148.2 -5.15 -149.65 -4.45 -155.05 -1.6 -163.65 -7.6 L-174.65 -11.7 Q-172.2 -24.5 -179.15 -30.65 L-177.25 -32.5 M-163.05 -10.85 L-163.05 -11.2 -163.25 -13.25 -163.2 -14.35 Q-166.7 -17.3 -171.15 -17.95 L-171.45 -14.55 -163.05 -10.85 M-170.9 -21.35 L-161.7 -18.5 -160.45 -20.05 -158.75 -21.4 -172.15 -26.4 -170.9 -21.35 M-132.25 -29.65 Q-133.75 -28.2 -133.75 -26.1 -133.75 -24.0 -132.25 -22.5 -130.8 -21.05 -128.75 -21.05 -126.7 -21.05 -125.2 -22.5 -123.75 -24.0 -123.75 -26.1 -123.75 -28.2 -125.2 -29.65 -126.7 -31.15 -128.75 -31.15 -130.8 -31.15 -132.25 -29.65 M-148.85 -17.95 Q-150.75 -19.85 -153.45 -19.85 -156.15 -19.85 -158.05 -17.95 -159.95 -16.05 -159.95 -13.4 -159.95 -10.75 -158.05 -8.85 -156.15 -6.95 -153.45 -6.95 -150.75 -6.95 -148.85 -8.85 -146.95 -10.75 -146.95 -13.4 -146.95 -16.05 -148.85 -17.95 M-144.45 -16.05 L-135.55 -22.35 -136.45 -23.35 -145.35 -18.2 -144.45 -16.05 M-144.2 -10.9 L-131.75 -18.7 -133.7 -20.1 -144.05 -13.25 -144.2 -10.9" fill="#000000" fill-rule="evenodd" stroke="none"/>
    <path d="M-144.2 -10.9 L-144.05 -13.25 -133.7 -20.1 -131.75 -18.7 -144.2 -10.9 M-144.45 -16.05 L-145.35 -18.2 -136.45 -23.35 -135.55 -22.35 -144.45 -16.05 M-148.85 -17.95 Q-146.95 -16.05 -146.95 -13.4 -146.95 -10.75 -148.85 -8.85 -150.75 -6.95 -153.45 -6.95 -156.15 -6.95 -158.05 -8.85 -159.95 -10.75 -159.95 -13.4 -159.95 -16.05 -158.05 -17.95 -156.15 -19.85 -153.45 -19.85 -150.75 -19.85 -148.85 -17.95 M-132.25 -29.65 Q-130.8 -31.15 -128.75 -31.15 -126.7 -31.15 -125.2 -29.65 -123.75 -28.2 -123.75 -26.1 -123.75 -24.0 -125.2 -22.5 -126.7 -21.05 -128.75 -21.05 -130.8 -21.05 -132.25 -22.5 -133.75 -24.0 -133.75 -26.1 -133.75 -28.2 -132.25 -29.65 M-170.9 -21.35 L-172.15 -26.4 -158.75 -21.4 -160.45 -20.05 -161.7 -18.5 -170.9 -21.35 M-163.05 -10.85 L-171.45 -14.55 -171.15 -17.95 Q-166.7 -17.3 -163.2 -14.35 L-163.25 -13.25 -163.05 -11.2 -163.05 -10.85" fill="#2e2a26" fill-rule="evenodd" stroke="none"/>
    <path d="M-163.0 -50.5 L-164.2 -49.65 -164.8 -49.3 -168.7 -47.15 -169.3 -46.8 -173.0 -44.4 -174.5 -43.45 -174.95 -43.15 -176.75 -42.0 -177.55 -41.5 -177.95 -41.15 -180.95 -38.6 Q-182.9 -37.3 -184.45 -35.6 L-184.8 -35.2 -185.85 -33.95 Q-186.9 -32.3 -187.2 -30.15 L-187.25 -29.4 Q-187.35 -28.05 -187.0 -27.15 L-186.3 -25.4 -185.75 -24.65 -185.55 -24.4 Q-185.1 -23.55 -183.8 -23.05 -181.55 -22.3 -179.0 -22.4 L-178.55 -22.5 -177.5 -22.75 -177.0 -22.85 Q-176.0 -23.1 -174.95 -23.6 -172.35 -24.95 -170.05 -26.55 -169.6 -26.15 -169.05 -26.7 L-168.3 -27.25 Q-166.45 -28.2 -164.8 -29.7 -164.0 -30.35 -164.25 -31.65 -165.2 -30.7 -166.7 -29.85 L-170.05 -27.75 -170.7 -27.35 Q-173.25 -25.8 -175.85 -25.15 L-175.85 -25.2 -175.7 -25.65 -175.55 -26.15 -175.4 -26.6 -175.35 -26.9 -174.7 -29.35 Q-174.2 -30.35 -174.7 -30.95 L-175.5 -31.4 Q-177.3 -32.15 -177.05 -34.65 -176.8 -37.0 -175.45 -38.6 L-173.05 -40.95 -172.7 -41.15 -171.2 -42.15 -168.3 -44.25 -167.7 -44.6 Q-166.45 -45.15 -165.45 -45.85 L-161.8 -48.0 -161.45 -48.15 Q-160.5 -48.45 -159.75 -49.0 L-159.45 -49.1 -159.1 -49.3 -156.05 -51.3 Q-153.8 -52.35 -152.25 -53.2 L-150.95 -53.85 Q-150.0 -54.2 -149.5 -54.7 -150.05 -54.75 -150.1 -55.45 L-150.2 -55.75 -151.25 -57.2 -151.45 -57.3 -154.8 -55.5 -155.25 -55.2 -155.9 -54.85 Q-157.95 -53.25 -160.2 -52.1 L-160.8 -51.8 -163.0 -50.5 M-168.95 -34.75 Q-169.3 -34.9 -169.25 -35.4 -169.25 -36.0 -168.8 -36.45 L-168.45 -36.85 Q-166.6 -38.85 -164.3 -40.25 L-162.95 -41.15 Q-161.8 -42.05 -160.45 -42.6 -159.1 -43.15 -157.95 -44.1 L-156.05 -45.3 Q-155.4 -45.55 -154.75 -45.95 L-150.55 -48.3 Q-150.25 -48.45 -150.35 -48.95 L-150.45 -49.2 Q-151.0 -50.0 -151.9 -50.6 L-151.55 -50.8 Q-151.8 -50.75 -151.6 -50.95 L-151.35 -51.3 -152.35 -52.5 -152.6 -52.35 -154.0 -51.7 -154.4 -51.5 Q-157.7 -49.8 -163.9 -45.95 -172.15 -40.9 -172.95 -40.1 -174.2 -38.9 -174.85 -37.35 L-175.05 -36.25 -175.0 -35.65 Q-174.45 -32.65 -171.4 -32.05 L-168.35 -32.15 -147.55 -45.05 -148.65 -46.6 -149.65 -45.9 -152.65 -44.05 -155.4 -42.4 -163.15 -37.55 Q-166.35 -35.7 -168.2 -35.0 L-168.95 -34.75 M-140.45 -45.15 L-139.9 -44.35 -166.7 -27.85 Q-169.45 -25.4 -172.75 -23.8 -177.15 -21.55 -182.0 -21.4 -183.3 -21.8 -184.3 -22.55 -185.9 -23.65 -187.05 -25.25 -189.7 -28.95 -187.9 -33.05 -186.6 -36.15 -183.9 -38.05 L-176.25 -43.25 -150.3 -59.9 Q-149.6 -58.35 -146.75 -54.1 L-147.3 -54.05 Q-148.05 -53.8 -148.05 -53.2 -148.05 -53.85 -143.1 -46.1 -145.85 -43.9 -153.75 -39.0 -159.75 -35.3 -159.75 -34.4 -159.75 -33.75 -159.3 -34.05 -152.75 -36.75 -148.1 -39.85 L-143.3 -42.95 -140.45 -45.15 M-148.4 -47.5 L-148.85 -48.1 -149.3 -48.45 Q-158.4 -42.65 -160.9 -40.45 L-160.3 -39.95 -153.9 -43.8 Q-149.55 -46.4 -148.4 -47.5" fill="#a29b99" fill-rule="evenodd" stroke="none"/>
    <path d="M-163.0 -50.5 L-160.8 -51.8 -160.2 -52.1 Q-157.95 -53.25 -155.9 -54.85 L-155.25 -55.2 -154.8 -55.5 -151.45 -57.3 -151.25 -57.2 -150.2 -55.75 -150.1 -55.45 Q-150.05 -54.75 -149.5 -54.7 -150.0 -54.2 -150.95 -53.85 L-152.25 -53.2 Q-153.8 -52.35 -156.05 -51.3 L-159.1 -49.3 -159.45 -49.1 -159.75 -49.0 Q-160.5 -48.45 -161.45 -48.15 L-161.8 -48.0 -165.45 -45.85 Q-166.45 -45.15 -167.7 -44.6 L-168.3 -44.25 -171.2 -42.15 -172.7 -41.15 -173.05 -40.95 -175.45 -38.6 Q-176.8 -37.0 -177.05 -34.65 -177.3 -32.15 -175.5 -31.4 L-174.7 -30.95 Q-174.2 -30.35 -174.7 -29.35 L-175.35 -26.9 -175.4 -26.6 -175.55 -26.15 -175.7 -25.65 -175.85 -25.2 -175.85 -25.15 Q-173.25 -25.8 -170.7 -27.35 L-170.05 -27.75 -166.7 -29.85 Q-165.2 -30.7 -164.25 -31.65 -164.0 -30.35 -164.8 -29.7 -166.45 -28.2 -168.3 -27.25 L-169.05 -26.7 Q-169.6 -26.15 -170.05 -26.55 -172.35 -24.95 -174.95 -23.6 -176.0 -23.1 -177.0 -22.85 L-177.5 -22.75 -178.55 -22.5 -179.0 -22.4 Q-181.55 -22.3 -183.8 -23.05 -185.1 -23.55 -185.55 -24.4 L-185.75 -24.65 -186.3 -25.4 -187.0 -27.15 Q-187.35 -28.05 -187.25 -29.4 L-187.2 -30.15 Q-186.9 -32.3 -185.85 -33.95 L-184.8 -35.2 -184.45 -35.6 Q-182.9 -37.3 -180.95 -38.6 L-177.95 -41.15 -177.55 -41.5 -176.75 -42.0 -174.95 -43.15 -174.5 -43.45 -173.0 -44.4 -169.3 -46.8 -168.7 -47.15 -164.8 -49.3 -164.2 -49.65 -163.0 -50.5 M-151.9 -50.6 Q-151.0 -50.0 -150.45 -49.2 L-150.35 -48.95 Q-150.25 -48.45 -150.55 -48.3 L-154.75 -45.95 Q-155.4 -45.55 -156.05 -45.3 L-157.95 -44.1 Q-159.1 -43.15 -160.45 -42.6 -161.8 -42.05 -162.95 -41.15 L-164.3 -40.25 Q-166.6 -38.85 -168.45 -36.85 L-168.8 -36.45 Q-169.25 -36.0 -169.25 -35.4 -169.3 -34.9 -168.95 -34.75 L-171.4 -34.45 -172.45 -35.95 Q-172.5 -38.1 -170.5 -39.35 L-160.9 -45.4 -154.75 -49.1 Q-156.3 -48.1 -154.1 -49.35 L-151.9 -50.6" fill="#756c6a" fill-rule="evenodd" stroke="none"/>
    <path d="M-151.9 -50.6 L-154.1 -49.35 Q-156.3 -48.1 -154.75 -49.1 L-160.9 -45.4 -170.5 -39.35 Q-172.5 -38.1 -172.45 -35.95 L-171.4 -34.45 -168.95 -34.75 -168.2 -35.0 Q-166.35 -35.7 -163.15 -37.55 L-155.4 -42.4 -152.65 -44.05 -149.65 -45.9 -148.65 -46.6 -147.55 -45.05 -168.35 -32.15 -171.4 -32.05 Q-174.45 -32.65 -175.0 -35.65 L-175.05 -36.25 -174.85 -37.35 Q-174.2 -38.9 -172.95 -40.1 -172.15 -40.9 -163.9 -45.95 -157.7 -49.8 -154.4 -51.5 L-154.0 -51.7 -152.6 -52.35 -152.35 -52.5 -151.35 -51.3 -151.6 -50.95 Q-151.8 -50.75 -151.55 -50.8 L-151.9 -50.6 M-176.0 -46.8 L-149.65 -63.9 -149.1 -63.5 -148.5 -63.7 Q-147.75 -61.85 -142.2 -53.1 L-137.45 -45.45 -136.35 -43.15 -164.45 -25.75 Q-169.15 -22.5 -174.55 -20.15 L-178.4 -18.65 -178.75 -18.55 -179.35 -18.05 Q-182.7 -18.45 -185.4 -20.55 -187.85 -22.45 -189.55 -24.6 L-190.8 -26.15 -190.55 -27.15 Q-191.1 -29.25 -191.25 -31.3 -191.45 -33.95 -190.05 -36.45 -188.7 -38.9 -186.3 -40.4 L-180.3 -44.15 -176.0 -46.8 M-146.75 -54.1 Q-149.6 -58.35 -150.3 -59.9 L-176.25 -43.25 -183.9 -38.05 Q-186.6 -36.15 -187.9 -33.05 -189.7 -28.95 -187.05 -25.25 -185.9 -23.65 -184.3 -22.55 -183.3 -21.8 -182.0 -21.4 -177.15 -21.55 -172.75 -23.8 -169.45 -25.4 -166.7 -27.85 L-139.9 -44.35 -140.45 -45.15 -140.15 -45.7 Q-140.15 -46.05 -141.7 -48.2 L-143.65 -51.05 -145.9 -53.7 Q-146.3 -54.05 -146.75 -54.1" fill="#000000" fill-rule="evenodd" stroke="none"/>
    <path d="M-146.75 -54.1 Q-146.3 -54.05 -145.9 -53.7 L-143.65 -51.05 -141.7 -48.2 Q-140.15 -46.05 -140.15 -45.7 L-140.45 -45.15 -143.3 -42.95 -148.1 -39.85 Q-152.75 -36.75 -159.3 -34.05 -159.75 -33.75 -159.75 -34.4 -159.75 -35.3 -153.75 -39.0 -145.85 -43.9 -143.1 -46.1 -148.05 -53.85 -148.05 -53.2 -148.05 -53.8 -147.3 -54.05 L-146.75 -54.1 M-148.4 -47.5 Q-149.55 -46.4 -153.9 -43.8 L-160.3 -39.95 -160.9 -40.45 Q-158.4 -42.65 -149.3 -48.45 L-148.85 -48.1 -148.4 -47.5" fill="#dbd8d7" fill-rule="evenodd" stroke="none"/>
    <path d="M-108.95 -60.95 L-109.0 -62.85 -109.0 -64.0 -109.0 -64.55 -124.25 -64.55 -128.15 -64.55 -128.85 -64.55 -139.9 -64.55 -148.25 -46.15 -144.05 -37.8 -111.4 -37.8 -109.45 -38.0 Q-108.9 -43.3 -108.85 -49.85 L-108.85 -50.1 -108.85 -55.4 -108.95 -60.95 M-140.75 -42.2 L-144.0 -46.7 -136.55 -61.7 Q-125.55 -62.35 -113.1 -61.8 L-112.9 -60.55 Q-112.75 -58.95 -112.75 -55.3 L-112.75 -52.8 -112.85 -49.7 Q-113.1 -44.15 -114.0 -41.4 L-120.35 -41.25 -120.35 -42.2 Q-117.0 -42.55 -115.3 -43.85 -114.3 -46.6 -114.05 -49.6 L-113.95 -51.45 -114.1 -55.3 -114.65 -58.85 -114.95 -60.05 -115.2 -60.2 -115.7 -60.4 -117.05 -60.65 -119.7 -60.65 -122.9 -60.6 -123.3 -60.6 -123.3 -47.0 -123.3 -42.95 -123.3 -41.5 -140.15 -41.3 -140.75 -42.2 M-86.5 -47.35 L-77.55 -48.95 -76.85 -48.45 Q-90.55 -43.6 -106.0 -42.55 L-106.05 -42.55 -106.3 -42.7 -106.3 -38.05 -107.4 -36.15 -107.5 -35.7 -111.1 -35.55 -111.55 -35.15 -145.5 -35.35 -151.75 -46.9 -141.75 -67.25 Q-132.9 -66.9 -107.35 -66.95 L-106.25 -66.05 -106.25 -58.5 -106.05 -58.5 -85.7 -57.85 -85.65 -56.95 -86.5 -56.9 -105.45 -55.45 -106.05 -55.4 -106.25 -55.4 -106.3 -50.3 -106.3 -46.45 -106.05 -46.45 -106.0 -46.45 -86.5 -47.35 M-135.8 -58.15 L-125.9 -58.05 -125.9 -59.0 -135.4 -58.95 -135.8 -58.15 M-138.5 -52.65 L-141.15 -47.4 -139.05 -44.1 -125.65 -43.8 Q-122.45 -45.15 -137.9 -44.9 L-139.35 -46.4 -138.65 -51.95 -138.5 -52.65 M-125.95 -49.1 L-125.95 -55.25 -125.95 -55.7 -136.15 -55.7 -136.15 -47.7 -125.95 -47.7 -125.95 -49.1" fill="#000000" fill-rule="evenodd" stroke="none"/>
    <path d="M-109.0 -64.0 L-112.5 -64.0 -112.95 -64.1 -114.5 -64.35 -119.5 -64.35 -120.0 -64.4 -124.25 -64.55 -109.0 -64.55 -109.0 -64.0 M-128.85 -64.55 L-134.0 -64.25 -138.5 -64.0 -138.85 -63.9 Q-140.1 -62.25 -140.95 -60.5 L-141.3 -59.8 -142.4 -57.7 -143.15 -56.2 Q-145.25 -52.15 -146.6 -47.75 L-146.65 -46.7 -146.55 -46.45 -145.8 -44.95 -145.65 -44.5 -143.9 -40.95 Q-143.4 -40.6 -142.75 -40.4 L-142.25 -40.3 Q-141.4 -40.3 -140.95 -41.2 L-140.85 -41.45 -140.75 -42.2 -140.15 -41.3 -123.3 -41.5 -123.3 -42.95 -121.8 -43.75 -118.95 -45.65 -117.25 -46.95 -115.55 -48.3 -115.15 -48.6 -115.0 -48.7 -114.75 -54.0 -114.65 -58.85 -114.1 -55.3 -113.95 -51.45 -114.05 -49.6 Q-114.3 -46.6 -115.3 -43.85 -117.0 -42.55 -120.35 -42.2 L-120.35 -41.25 -114.0 -41.4 Q-113.1 -44.15 -112.85 -49.7 L-112.75 -52.8 -112.75 -55.3 Q-112.75 -58.95 -112.9 -60.55 -112.0 -59.55 -111.4 -58.05 -110.75 -56.45 -111.05 -54.5 L-111.25 -52.5 -111.35 -52.05 -111.85 -49.95 -111.9 -49.7 Q-111.9 -48.75 -112.25 -47.95 L-112.45 -47.45 Q-112.7 -46.5 -112.25 -46.25 L-111.75 -46.05 -111.45 -46.1 -111.25 -46.25 -110.9 -48.2 -110.75 -49.7 -110.65 -50.15 Q-110.4 -51.0 -110.4 -52.0 L-110.35 -52.5 -110.15 -53.45 -110.05 -54.5 Q-110.15 -55.6 -109.8 -56.5 -109.45 -57.45 -109.4 -58.5 L-109.3 -59.25 -108.95 -60.95 -108.85 -55.4 -108.85 -50.1 -108.85 -49.85 Q-108.9 -43.3 -109.45 -38.0 L-111.4 -37.8 -144.05 -37.8 -148.25 -46.15 -139.9 -64.55 -128.85 -64.55 M-122.9 -60.6 L-122.9 -60.5 -122.8 -60.2 Q-122.45 -59.3 -122.5 -58.25 L-122.6 -57.8 Q-122.9 -57.35 -122.85 -56.75 -122.75 -52.65 -123.1 -48.7 L-123.3 -47.0 -123.3 -60.6 -122.9 -60.6 M-116.25 -45.65 Q-116.25 -46.0 -116.4 -46.1 L-116.65 -46.3 -118.15 -45.25 -119.65 -44.05 -119.25 -43.45 Q-116.25 -45.05 -116.25 -45.65 M-125.6 -38.65 L-123.2 -38.5 -120.85 -38.4 -113.65 -38.2 Q-111.6 -38.15 -110.75 -39.9 -110.25 -41.0 -110.25 -42.5 -110.25 -42.9 -110.8 -44.1 L-111.55 -43.85 -112.25 -42.1 -112.4 -40.45 -113.55 -40.2 -120.25 -40.15 -125.25 -40.4 -125.4 -40.6 -133.8 -40.7 -136.2 -40.45 -138.5 -39.8 -138.3 -39.4 -136.8 -38.9 -132.15 -39.05 -125.6 -38.65" fill="#a29b99" fill-rule="evenodd" stroke="none"/>
    <path d="M-109.0 -64.0 L-109.0 -62.85 -108.95 -60.95 -109.3 -59.25 -109.4 -58.5 Q-109.45 -57.45 -109.8 -56.5 -110.15 -55.6 -110.05 -54.5 L-110.15 -53.45 -110.35 -52.5 -110.4 -52.0 Q-110.4 -51.0 -110.65 -50.15 L-110.75 -49.7 -110.9 -48.2 -111.25 -46.25 -111.45 -46.1 -111.75 -46.05 -112.25 -46.25 Q-112.7 -46.5 -112.45 -47.45 L-112.25 -47.95 Q-111.9 -48.75 -111.9 -49.7 L-111.85 -49.95 -111.35 -52.05 -111.25 -52.5 -111.05 -54.5 Q-110.75 -56.45 -111.4 -58.05 -112.0 -59.55 -112.9 -60.55 L-113.1 -61.8 Q-125.55 -62.35 -136.55 -61.7 L-144.0 -46.7 -140.75 -42.2 -140.85 -41.45 -140.95 -41.2 Q-141.4 -40.3 -142.25 -40.3 L-142.75 -40.4 Q-143.4 -40.6 -143.9 -40.95 L-145.65 -44.5 -145.8 -44.95 -146.55 -46.45 -146.65 -46.7 -146.6 -47.75 Q-145.25 -52.15 -143.15 -56.2 L-142.4 -57.7 -141.3 -59.8 -140.95 -60.5 Q-140.1 -62.25 -138.85 -63.9 L-138.5 -64.0 -134.0 -64.25 -128.85 -64.55 -128.15 -64.55 -124.25 -64.55 -120.0 -64.4 -119.5 -64.35 -114.5 -64.35 -112.95 -64.1 -112.5 -64.0 -109.0 -64.0 M-122.9 -60.6 L-119.7 -60.65 -117.05 -60.65 -115.7 -60.4 -115.2 -60.2 -114.95 -60.05 -114.65 -58.85 -114.75 -54.0 -115.0 -48.7 -115.15 -48.6 -115.55 -48.3 -117.25 -46.95 -118.95 -45.65 -121.8 -43.75 -123.3 -42.95 -123.3 -47.0 -123.1 -48.7 Q-122.75 -52.65 -122.85 -56.75 -122.9 -57.35 -122.6 -57.8 L-122.5 -58.25 Q-122.45 -59.3 -122.8 -60.2 L-122.9 -60.5 -122.9 -60.6" fill="#756c6a" fill-rule="evenodd" stroke="none"/>
    <path d="M-106.3 -50.3 L-106.25 -55.4 -106.05 -55.4 -105.45 -55.45 -99.75 -55.4 -99.0 -55.35 -89.5 -55.25 -89.05 -55.35 Q-88.55 -55.65 -88.5 -55.25 L-88.5 -55.0 -88.6 -54.7 Q-88.9 -54.55 -88.85 -54.0 -88.8 -53.3 -89.1 -52.8 -89.3 -52.45 -90.0 -52.4 L-94.25 -51.75 -96.75 -51.35 -97.0 -51.3 -98.25 -51.15 -100.75 -50.9 -106.3 -50.3 M-125.95 -49.1 L-126.5 -49.1 -129.75 -49.0 -131.25 -49.05 Q-133.1 -49.25 -135.0 -49.1 -135.65 -49.05 -135.7 -49.45 L-135.65 -50.7 -135.6 -51.2 -135.4 -54.0 -135.1 -54.75 -134.75 -54.75 -134.35 -54.85 -133.25 -55.1 -131.5 -55.1 -131.0 -55.15 -126.5 -55.25 -125.95 -55.25 -125.95 -49.1" fill="#8a64d9" fill-rule="evenodd" stroke="none"/>
    <path d="M-86.5 -56.9 L-86.5 -52.05 -86.5 -47.35 -106.0 -46.45 -106.05 -46.45 -106.3 -46.45 -106.3 -50.3 -100.75 -50.9 -98.25 -51.15 -97.0 -51.3 -96.75 -51.35 -94.25 -51.75 -90.0 -52.4 Q-89.3 -52.45 -89.1 -52.8 -88.8 -53.3 -88.85 -54.0 -88.9 -54.55 -88.6 -54.7 L-88.5 -55.0 -88.5 -55.25 Q-88.55 -55.65 -89.05 -55.35 L-89.5 -55.25 -99.0 -55.35 -99.75 -55.4 -105.45 -55.45 -86.5 -56.9 M-125.95 -55.25 L-126.5 -55.25 -131.0 -55.15 -131.5 -55.1 -133.25 -55.1 -134.35 -54.85 -134.75 -54.75 -135.1 -54.75 -135.4 -54.0 -135.6 -51.2 -135.65 -50.7 -135.7 -49.45 Q-135.65 -49.05 -135.0 -49.1 -133.1 -49.25 -131.25 -49.05 L-129.75 -49.0 -126.5 -49.1 -125.95 -49.1 -125.95 -47.7 -136.15 -47.7 -136.15 -55.7 -125.95 -55.7 -125.95 -55.25" fill="#6633cc" fill-rule="evenodd" stroke="none"/>
    <path d="M-125.6 -38.65 L-132.15 -39.05 -136.8 -38.9 -138.3 -39.4 -138.5 -39.8 -136.2 -40.45 -133.8 -40.7 -125.4 -40.6 -125.25 -40.4 -120.25 -40.15 -113.55 -40.2 -112.4 -40.45 -112.25 -42.1 -111.55 -43.85 -110.8 -44.1 Q-110.25 -42.9 -110.25 -42.5 -110.25 -41.0 -110.75 -39.9 -111.6 -38.15 -113.65 -38.2 L-120.85 -38.4 -123.2 -38.5 -125.6 -38.65 M-116.25 -45.65 Q-116.25 -45.05 -119.25 -43.45 L-119.65 -44.05 -118.15 -45.25 -116.65 -46.3 -116.4 -46.1 Q-116.25 -46.0 -116.25 -45.65" fill="#dbd8d7" fill-rule="evenodd" stroke="none"/>
    <path d="M86.75 -69.65 L74.3 -68.4 70.3 -68.1 63.75 -67.55 50.75 -66.3 Q30.55 -64.9 10.5 -62.25 L7.75 -61.85 -0.75 -60.85 -1.25 -60.85 Q-2.0 -60.85 -2.5 -60.45 L-1.25 -60.35 -0.5 -60.35 3.5 -60.5 13.25 -61.05 22.25 -61.5 26.75 -61.6 31.5 -61.8 36.5 -62.0 45.75 -62.75 47.25 -62.9 49.5 -63.05 59.0 -63.5 62.25 -63.35 62.55 -63.25 Q63.55 -62.8 64.15 -62.0 L64.75 -60.95 64.9 -60.65 Q65.25 -60.5 65.0 -60.0 L64.9 -59.7 Q64.65 -58.9 65.05 -58.65 L65.3 -58.55 67.8 -58.45 70.3 -58.65 79.8 -59.65 85.05 -60.05 94.3 -60.65 96.3 -60.8 105.3 -61.5 107.55 -61.6 114.55 -61.8 117.55 -61.85 126.8 -61.85 132.05 -61.8 141.3 -61.45 144.8 -61.25 151.8 -60.8 154.05 -60.6 162.8 -59.8 172.3 -58.75 181.8 -57.55 190.8 -56.2 194.55 -55.55 197.35 -54.8 197.6 -54.6 Q198.0 -54.0 199.05 -54.05 L199.55 -54.2 Q200.75 -54.65 201.55 -55.2 L202.5 -55.8 204.5 -57.05 205.1 -57.35 Q206.25 -58.0 207.25 -58.8 L209.55 -60.4 Q211.3 -61.5 212.8 -62.95 L216.35 -66.1 218.25 -67.75 218.9 -68.35 Q220.65 -69.95 222.05 -71.95 L222.65 -72.6 223.5 -73.7 Q223.95 -74.85 224.75 -75.75 L225.05 -76.15 224.9 -76.5 224.7 -76.85 Q224.25 -77.3 223.3 -77.25 L221.05 -77.1 218.8 -76.95 217.55 -76.85 215.3 -76.6 214.8 -76.55 212.55 -76.35 211.8 -76.3 208.3 -75.95 204.05 -75.6 202.8 -75.55 193.3 -74.9 170.05 -73.8 164.3 -73.6 153.55 -73.35 140.3 -73.05 203.1 -77.05 225.65 -79.95 231.15 -80.0 Q211.8 -53.35 190.6 -43.45 L188.55 -42.5 175.8 -42.35 162.9 -42.45 150.0 -42.7 137.1 -43.25 110.4 -43.75 90.35 -43.95 76.75 -43.85 67.7 -43.1 58.8 -41.85 Q57.45 -41.4 56.5 -40.4 55.8 -39.7 55.45 -38.65 L70.05 -35.65 82.0 -33.55 Q118.35 -29.85 154.25 -22.4 146.3 -16.3 136.25 -12.5 126.15 -8.7 124.2 -8.6 L121.05 -8.0 70.5 -15.6 48.55 -19.95 14.3 -26.0 8.15 -26.75 2.0 -25.6 Q-5.6 -23.85 -12.95 -21.35 L-15.95 -20.3 Q-16.9 -19.95 -18.3 -19.2 -19.65 -18.45 -19.8 -17.65 L-19.75 -16.4 -17.1 -14.05 Q-13.9 -11.1 -4.8 -7.0 4.3 -2.9 17.3 2.5 21.15 4.0 25.2 5.15 L27.4 5.75 26.25 6.2 Q12.75 11.5 8.5 12.5 4.2 13.5 2.7 13.05 L-9.05 8.35 -20.8 3.35 Q-23.25 2.2 -25.5 0.75 L-27.65 -0.65 Q-33.7 -3.65 -48.05 -11.25 L-59.5 -10.85 -65.4 -10.9 -67.05 -7.8 Q-59.85 1.7 -52.5 7.85 L-48.2 11.15 -47.35 11.55 -47.2 15.65 Q-46.95 21.9 -47.2 24.4 L-68.8 25.1 -71.5 18.25 -73.9 12.0 -79.0 -1.55 -81.1 -7.35 -81.35 -7.95 -84.2 -10.35 -97.75 -11.0 -99.65 -11.1 -99.85 -56.1 -40.7 -60.45 -41.05 -60.8 0.3 -64.25 86.75 -69.65 M-11.5 -40.5 L-6.75 -40.45 1.75 -40.4 10.25 -40.35 17.0 -40.2 24.05 -40.05 26.05 -40.0 29.6 -39.95 -13.9 -39.15 Q4.55 -38.25 23.05 -38.5 L36.3 -39.2 38.9 -39.55 Q42.3 -38.85 47.95 -44.65 L55.9 -52.9 Q58.2 -55.35 61.2 -61.15 L60.7 -61.7 57.1 -61.55 60.4 -60.8 Q52.8 -48.55 41.0 -40.15 L39.7 -40.1 40.05 -40.15 40.8 -40.35 Q44.35 -43.15 47.5 -46.75 L50.8 -51.2 Q52.5 -53.9 53.3 -56.7 L51.4 -56.85 57.2 -58.8 32.1 -56.1 18.2 -54.75 4.4 -53.35 -9.35 -51.9 -22.85 -49.9 -25.5 -49.35 -30.95 -48.1 -33.1 -47.35 -31.4 -43.65 Q-30.15 -40.5 -29.7 -40.25 L-29.65 -40.2 -25.5 -39.85 -25.45 -39.85 -22.7 -39.8 -11.65 -39.9 Q-11.15 -40.05 -11.5 -40.5 M35.3 -37.2 L24.8 -36.9 Q17.8 -36.55 10.8 -36.55 L0.05 -36.25 -7.5 -35.85 -8.25 -35.8 -10.0 -35.75 -11.0 -35.45 Q-10.6 -34.9 -9.5 -34.85 L-9.2 -34.75 Q-5.15 -33.35 -0.45 -32.65 L1.8 -32.25 Q7.15 -31.2 12.55 -30.7 L37.55 -27.9 42.3 -27.3 Q66.65 -24.45 90.8 -20.75 L102.55 -19.1 106.55 -18.5 108.8 -18.15 118.55 -17.0 120.05 -16.85 121.55 -16.75 124.3 -16.5 125.55 -16.4 129.8 -16.3 130.3 -16.25 133.3 -16.15 135.05 -16.25 135.35 -16.35 136.55 -16.7 137.05 -16.8 Q139.95 -17.25 142.6 -18.25 L143.25 -18.5 144.1 -18.85 144.55 -19.0 145.05 -19.2 145.85 -19.55 146.35 -20.2 146.6 -20.4 Q147.35 -20.65 147.2 -21.7 147.15 -22.15 146.55 -22.45 L142.8 -23.7 138.05 -24.45 132.75 -25.35 131.8 -25.55 122.3 -26.75 112.8 -27.95 103.05 -29.05 102.05 -29.15 92.75 -30.85 89.8 -31.3 89.05 -31.35 79.8 -32.85 78.8 -33.05 69.55 -34.55 68.05 -34.85 67.3 -34.95 64.8 -35.35 62.3 -35.8 61.8 -35.85 60.5 -36.1 60.05 -36.25 57.55 -36.75 54.05 -37.55 53.55 -37.7 Q52.75 -38.0 52.8 -39.2 L51.55 -38.7 51.05 -38.5 50.55 -38.4 48.8 -38.05 47.05 -37.95 45.05 -37.85 44.55 -37.8 43.05 -37.8 42.15 -37.55 41.8 -37.45 38.05 -37.3 35.3 -37.2 M11.0 -28.15 L32.7 -24.6 Q46.85 -21.35 60.95 -18.9 L88.1 -14.4 109.35 -11.0 119.75 -9.6 Q121.95 -9.6 125.5 -10.6 129.05 -11.6 132.25 -13.6 L132.4 -14.3 Q106.95 -16.85 86.2 -19.8 L42.75 -26.25 Q20.05 -29.75 11.0 -28.15 M62.15 -53.9 L55.3 -42.4 Q72.8 -45.55 89.9 -45.45 L124.45 -45.5 157.95 -44.5 184.3 -43.35 Q192.9 -44.85 197.25 -52.3 L197.05 -52.9 Q183.65 -55.35 170.05 -57.05 L143.15 -59.4 Q129.9 -60.0 116.6 -59.85 L89.2 -58.7 Q75.1 -57.7 62.15 -53.9 M16.3 4.65 Q14.45 3.55 12.3 3.05 L11.8 2.85 Q8.5 1.35 5.05 0.1 3.2 -0.55 1.55 -1.35 L-0.95 -2.45 Q-3.95 -3.65 -6.95 -5.1 L-7.7 -5.4 Q-12.15 -6.85 -16.5 -8.8 L-21.95 -11.15 -22.45 -11.35 -24.25 -12.05 -28.7 -13.75 -29.0 -13.85 -31.0 -14.55 -32.75 -15.35 -34.45 -16.0 -34.75 -16.1 -37.0 -16.8 -37.95 -16.75 -37.6 -16.2 -37.25 -15.6 -35.85 -13.7 -32.65 -9.7 -29.5 -6.1 -28.9 -5.45 -25.25 -1.55 -24.4 -0.7 -24.0 -0.35 -21.5 1.4 Q-17.25 3.85 -12.7 5.8 L-11.95 6.15 -3.5 10.15 -2.65 10.5 -2.2 10.65 -1.7 10.85 -0.45 11.2 0.45 11.45 2.95 11.9 Q4.7 12.15 4.4 11.25 4.1 10.35 6.3 9.95 L7.55 9.8 13.05 8.8 13.8 8.6 18.05 7.55 18.8 7.4 20.8 6.85 Q20.05 5.9 18.3 5.55 17.45 5.35 16.95 4.95 L16.6 4.8 16.3 4.65 M-87.6 -27.8 L-87.35 -27.25 Q-85.05 -22.05 -79.35 -20.9 -74.85 -19.85 -71.5 -22.6 L-70.7 -23.35 Q-66.8 -27.3 -66.7 -31.65 -66.7 -34.7 -68.55 -37.95 L-70.1 -39.7 Q-67.95 -36.3 -68.0 -32.9 -68.1 -30.0 -69.85 -27.05 -70.6 -25.75 -71.5 -24.8 -75.4 -20.7 -81.55 -23.5 -85.5 -25.35 -87.05 -28.3 -88.9 -31.8 -87.25 -36.9 -89.3 -32.2 -87.6 -27.8 M-88.7 -26.25 L-88.9 -26.55 Q-91.45 -31.2 -89.3 -36.25 -86.75 -42.15 -80.5 -43.35 -75.6 -44.3 -71.5 -41.9 L-71.35 -41.8 Q-67.1 -45.6 -62.4 -48.4 L-53.0 -54.35 -48.9 -57.2 -47.5 -58.25 -52.65 -57.95 -71.5 -56.4 -78.0 -55.75 -98.0 -54.45 -98.4 -40.2 Q-98.55 -28.25 -98.3 -16.5 L-98.6 -12.4 -96.8 -11.25 Q-95.1 -12.55 -93.6 -13.95 L-90.2 -17.45 Q-88.2 -19.65 -86.5 -21.95 L-88.7 -26.25 M-86.3 -28.9 Q-85.65 -27.45 -84.4 -26.2 -81.7 -23.5 -77.9 -23.5 -74.15 -23.5 -71.5 -26.1 L-71.4 -26.2 Q-68.7 -28.9 -68.7 -32.7 L-68.75 -33.7 Q-69.05 -36.85 -71.4 -39.2 L-71.5 -39.3 Q-74.15 -41.9 -77.9 -41.9 -81.7 -41.9 -84.4 -39.2 -87.1 -36.5 -87.1 -32.7 -87.1 -30.65 -86.3 -28.9 M-83.3 -10.9 L-80.7 -10.2 Q-75.75 0.9 -71.9 12.35 L-71.5 13.65 -71.25 14.4 -67.8 24.4 -55.25 23.8 -63.4 11.9 -71.5 0.1 -72.0 -0.65 -72.4 -1.35 -75.35 -6.0 -75.85 -6.7 -76.1 -7.05 -79.8 -12.3 -83.0 -12.15 -83.3 -10.9 M-53.6 -41.5 L-58.9 -37.3 -52.9 -35.95 -17.45 -30.4 -46.25 -47.7 -52.95 -42.0 -53.6 -41.5 M-57.6 -25.35 L-61.65 -27.0 -61.9 -26.2 -61.9 -25.8 -39.0 -7.2 -47.0 -20.45 Q-48.35 -21.55 -56.4 -24.85 L-57.6 -25.35 M-53.05 -34.8 L-60.55 -36.4 -61.95 -35.9 -64.3 -29.15 -57.1 -26.05 -48.25 -22.4 -45.55 -21.3 -40.55 -19.4 -40.55 -19.55 -37.0 -18.25 -33.8 -17.75 Q-32.6 -18.05 -31.5 -18.55 L-29.2 -19.75 -27.75 -20.95 -26.05 -23.0 -25.5 -23.8 -24.9 -24.95 -25.1 -25.25 Q-30.2 -27.1 -40.65 -31.2 L-40.65 -31.5 Q-46.5 -33.5 -46.95 -33.35 L-53.0 -34.75 -53.05 -34.8 M-62.35 -21.45 L-56.5 -15.7 -59.45 -12.7 -55.25 -12.85 -56.05 -13.45 -55.8 -14.05 -55.4 -14.35 -53.5 -12.9 -47.35 -13.05 -48.35 -14.3 -50.95 -16.55 -58.0 -21.95 -59.7 -23.2 Q-62.15 -24.95 -64.75 -26.2 L-64.75 -23.95 -64.45 -23.3 -62.35 -21.45 M-66.3 -24.05 L-68.2 -22.6 Q-69.7 -21.15 -71.5 -20.3 -72.95 -19.6 -74.55 -19.25 L-74.35 -18.25 -72.85 -16.25 -71.5 -15.0 Q-68.5 -12.7 -64.35 -13.25 L-60.85 -14.2 -59.6 -14.75 -58.4 -16.8 -66.3 -24.05 M-77.15 -13.4 L-77.8 -13.15 -77.85 -11.6 Q-74.6 -7.3 -71.5 -2.8 -68.3 1.85 -65.3 6.65 -59.7 15.7 -53.0 23.7 L-48.75 24.1 -49.5 11.65 Q-57.2 6.4 -63.3 -0.65 -66.35 -4.15 -68.3 -8.15 L-65.6 -11.5 Q-66.95 -12.3 -68.6 -11.9 L-71.5 -11.6 -73.0 -11.75 Q-74.75 -11.95 -76.1 -12.85 L-77.15 -13.4 M-48.3 -11.4 L-48.5 -11.35 -48.25 -11.35 -48.3 -11.4" fill="#6633cc" fill-rule="evenodd" stroke="none"/>
    <path d="M140.3 -73.05 L153.55 -73.35 164.3 -73.6 170.05 -73.8 193.3 -74.9 202.8 -75.55 204.05 -75.6 208.3 -75.95 211.8 -76.3 212.55 -76.35 214.8 -76.55 215.3 -76.6 217.55 -76.85 218.8 -76.95 221.05 -77.1 223.3 -77.25 Q224.25 -77.3 224.7 -76.85 L224.9 -76.5 225.05 -76.15 224.75 -75.75 Q223.95 -74.85 223.5 -73.7 L222.65 -72.6 222.05 -71.95 Q220.65 -69.95 218.9 -68.35 L218.25 -67.75 216.35 -66.1 212.8 -62.95 Q211.3 -61.5 209.55 -60.4 L207.25 -58.8 Q206.25 -58.0 205.1 -57.35 L204.5 -57.05 202.5 -55.8 201.55 -55.2 Q200.75 -54.65 199.55 -54.2 L199.05 -54.05 Q198.0 -54.0 197.6 -54.6 L197.35 -54.8 194.55 -55.55 190.8 -56.2 181.8 -57.55 172.3 -58.75 162.8 -59.8 154.05 -60.6 151.8 -60.8 144.8 -61.25 141.3 -61.45 132.05 -61.8 126.8 -61.85 117.55 -61.85 114.55 -61.8 107.55 -61.6 105.3 -61.5 96.3 -60.8 94.3 -60.65 85.05 -60.05 79.8 -59.65 70.3 -58.65 67.8 -58.45 65.3 -58.55 65.05 -58.65 Q64.65 -58.9 64.9 -59.7 L65.0 -60.0 Q65.25 -60.5 64.9 -60.65 L64.75 -60.95 64.15 -62.0 Q63.55 -62.8 62.55 -63.25 L62.25 -63.35 59.0 -63.5 49.5 -63.05 47.25 -62.9 45.75 -62.75 36.5 -62.0 31.5 -61.8 26.75 -61.6 22.25 -61.5 13.25 -61.05 3.5 -60.5 -0.5 -60.35 -1.25 -60.35 -2.5 -60.45 Q-2.0 -60.85 -1.25 -60.85 L-0.75 -60.85 7.75 -61.85 10.5 -62.25 Q30.55 -64.9 50.75 -66.3 L63.75 -67.55 70.3 -68.1 74.3 -68.4 86.75 -69.65 140.3 -73.05 M35.3 -37.2 L38.05 -37.3 41.8 -37.45 42.15 -37.55 43.05 -37.8 44.55 -37.8 45.05 -37.85 47.05 -37.95 48.8 -38.05 50.55 -38.4 51.05 -38.5 51.55 -38.7 52.8 -39.2 Q52.75 -38.0 53.55 -37.7 L54.05 -37.55 57.55 -36.75 60.05 -36.25 60.5 -36.1 61.8 -35.85 62.3 -35.8 64.8 -35.35 67.3 -34.95 68.05 -34.85 69.55 -34.55 78.8 -33.05 79.8 -32.85 89.05 -31.35 89.8 -31.3 92.75 -30.85 102.05 -29.15 103.05 -29.05 112.8 -27.95 122.3 -26.75 131.8 -25.55 132.75 -25.35 138.05 -24.45 142.8 -23.7 146.55 -22.45 Q147.15 -22.15 147.2 -21.7 147.35 -20.65 146.6 -20.4 L146.35 -20.2 145.85 -19.55 145.05 -19.2 144.55 -19.0 144.1 -18.85 143.25 -18.5 142.6 -18.25 Q139.95 -17.25 137.05 -16.8 L136.55 -16.7 135.35 -16.35 135.05 -16.25 133.3 -16.15 130.3 -16.25 129.8 -16.3 125.55 -16.4 124.3 -16.5 121.55 -16.75 120.05 -16.85 118.55 -17.0 108.8 -18.15 106.55 -18.5 102.55 -19.1 90.8 -20.75 Q66.65 -24.45 42.3 -27.3 L37.55 -27.9 12.55 -30.7 Q7.15 -31.2 1.8 -32.25 L-0.45 -32.65 Q-5.15 -33.35 -9.2 -34.75 L-9.5 -34.85 Q-10.6 -34.9 -11.0 -35.45 L-10.0 -35.75 -8.25 -35.8 -7.5 -35.85 0.05 -36.25 10.8 -36.55 Q17.8 -36.55 24.8 -36.9 L35.3 -37.2 M16.3 4.65 L16.6 4.8 16.95 4.95 Q17.45 5.35 18.3 5.55 20.05 5.9 20.8 6.85 L18.8 7.4 18.05 7.55 13.8 8.6 13.05 8.8 7.55 9.8 6.3 9.95 Q4.1 10.35 4.4 11.25 4.7 12.15 2.95 11.9 L0.45 11.45 -0.45 11.2 -1.7 10.85 -2.2 10.65 -2.65 10.5 -3.5 10.15 -11.95 6.15 -12.7 5.8 Q-17.25 3.85 -21.5 1.4 L-24.0 -0.35 -24.4 -0.7 -25.25 -1.55 -28.9 -5.45 -29.5 -6.1 -32.65 -9.7 -35.85 -13.7 -37.25 -15.6 -37.6 -16.2 -37.95 -16.75 -37.0 -16.8 -34.75 -16.1 -34.45 -16.0 -32.75 -15.35 -31.0 -14.55 -29.0 -13.85 -28.7 -13.75 -24.25 -12.05 -22.45 -11.35 -21.95 -11.15 -16.5 -8.8 Q-12.15 -6.85 -7.7 -5.4 L-6.95 -5.1 Q-3.95 -3.65 -0.95 -2.45 L1.55 -1.35 Q3.2 -0.55 5.05 0.1 8.5 1.35 11.8 2.85 L12.3 3.05 Q14.45 3.55 16.3 4.65 M-87.6 -27.8 Q-89.3 -32.2 -87.25 -36.9 -88.9 -31.8 -87.05 -28.3 -85.5 -25.35 -81.55 -23.5 -75.4 -20.7 -71.5 -24.8 -70.6 -25.75 -69.85 -27.05 -68.1 -30.0 -68.0 -32.9 -67.95 -36.3 -70.1 -39.7 L-68.55 -37.95 Q-66.7 -34.7 -66.7 -31.65 -66.8 -27.3 -70.7 -23.35 L-71.5 -22.6 Q-74.85 -19.85 -79.35 -20.9 -85.05 -22.05 -87.35 -27.25 L-87.6 -27.8 M-53.6 -41.5 L-52.95 -42.0 -46.25 -47.7 -17.45 -30.4 -52.9 -35.95 -58.9 -37.3 -53.6 -41.5 M-57.6 -25.35 L-56.4 -24.85 Q-48.35 -21.55 -47.0 -20.45 L-39.0 -7.2 -61.9 -25.8 -61.9 -26.2 -61.65 -27.0 -57.6 -25.35 M-77.15 -13.4 L-76.1 -12.85 Q-74.75 -11.95 -73.0 -11.75 L-71.5 -11.6 -68.6 -11.9 Q-66.95 -12.3 -65.6 -11.5 L-68.3 -8.15 Q-66.35 -4.15 -63.3 -0.65 -57.2 6.4 -49.5 11.65 L-48.75 24.1 -53.0 23.7 Q-59.7 15.7 -65.3 6.65 -68.3 1.85 -71.5 -2.8 -74.6 -7.3 -77.85 -11.6 L-77.8 -13.15 -77.15 -13.4" fill="#8a64d9" fill-rule="evenodd" stroke="none"/>
    <path d="M5.9 -51.5 L12.05 -52.3 31.5 -54.4 43.6 -55.2 48.25 -56.0 50.5 -56.55 51.4 -56.85 53.3 -56.7 Q52.5 -53.9 50.8 -51.2 L47.5 -46.75 Q44.35 -43.15 40.8 -40.35 L40.05 -40.15 39.7 -40.1 29.6 -39.95 26.05 -40.0 24.05 -40.05 17.0 -40.2 10.25 -40.35 1.75 -40.4 -6.75 -40.45 -11.5 -40.5 -13.4 -42.05 -29.4 -42.7 -29.75 -43.9 Q-29.9 -44.75 -29.0 -44.9 L-28.6 -45.05 -27.75 -45.35 -22.0 -46.65 Q-14.3 -48.45 -6.25 -49.6 L-4.5 -49.8 -2.75 -50.1 5.9 -51.5 M35.45 -17.75 L25.25 -15.55 Q18.95 -13.55 3.95 -10.1 L-0.7 -8.95 Q-8.65 -12.15 -13.25 -14.45 L-14.05 -14.85 -13.25 -15.7 Q-11.0 -16.85 -8.45 -17.7 L-3.9 -19.1 Q-2.1 -19.6 -0.4 -20.3 L1.0 -20.8 4.05 -21.75 5.1 -22.1 5.8 -22.3 6.05 -22.35 8.05 -22.35 16.8 -21.55 20.05 -21.25 Q24.4 -20.8 28.55 -19.65 L35.45 -17.75 M11.0 -28.15 Q20.05 -29.75 42.75 -26.25 L86.2 -19.8 Q106.95 -16.85 132.4 -14.3 L132.25 -13.6 Q129.05 -11.6 125.5 -10.6 121.95 -9.6 119.75 -9.6 L109.35 -11.0 88.1 -14.4 60.95 -18.9 Q46.85 -21.35 32.7 -24.6 L11.0 -28.15 M68.5 -37.85 L67.8 -38.2 Q68.35 -39.3 69.8 -39.5 L70.8 -39.7 73.35 -40.3 73.8 -40.3 76.05 -40.15 94.1 -38.6 86.55 -34.85 68.5 -37.85 M62.15 -53.9 Q75.1 -57.7 89.2 -58.7 L116.6 -59.85 Q129.9 -60.0 143.15 -59.4 L170.05 -57.05 Q183.65 -55.35 197.05 -52.9 L197.25 -52.3 Q192.9 -44.85 184.3 -43.35 L157.95 -44.5 124.45 -45.5 89.9 -45.45 Q72.8 -45.55 55.3 -42.4 L62.15 -53.9 M-83.2 -29.3 L-83.15 -31.5 -82.6 -33.2 Q-82.15 -34.05 -81.3 -34.55 -80.6 -34.9 -79.95 -35.35 -77.9 -36.8 -75.5 -36.85 L-73.55 -36.7 -71.75 -36.15 -71.55 -36.05 -71.5 -35.8 Q-71.25 -34.9 -71.25 -33.9 -71.25 -32.9 -71.5 -32.0 -71.95 -30.35 -73.25 -29.05 -75.25 -27.05 -78.1 -27.05 -80.95 -27.05 -82.95 -29.05 L-83.2 -29.3 M-88.7 -26.25 L-86.5 -21.95 Q-88.2 -19.65 -90.2 -17.45 L-93.6 -13.95 Q-95.1 -12.55 -96.8 -11.25 L-98.6 -12.4 -98.3 -16.5 Q-98.55 -28.25 -98.4 -40.2 L-98.0 -54.45 -78.0 -55.75 -71.5 -56.4 -52.65 -57.95 -47.5 -58.25 -48.9 -57.2 -53.0 -54.35 -62.4 -48.4 Q-67.1 -45.6 -71.35 -41.8 L-71.5 -41.9 Q-75.6 -44.3 -80.5 -43.35 -86.75 -42.15 -89.3 -36.25 -91.45 -31.2 -88.9 -26.55 L-88.7 -26.25 M-97.6 -5.4 L-97.3 -5.4 -91.25 -5.5 -88.0 -5.25 -87.0 -5.1 Q-86.2 -5.05 -85.5 -4.15 L-83.15 -0.2 -81.65 2.5 -97.15 2.15 -97.6 -5.4 M-83.3 -10.9 L-83.0 -12.15 -79.8 -12.3 -76.1 -7.05 -75.85 -6.7 -75.35 -6.0 -72.4 -1.35 -72.0 -0.65 -71.5 0.1 -63.4 11.9 -55.25 23.8 -67.8 24.4 -71.25 14.4 -71.5 13.65 -71.9 12.35 Q-75.75 0.9 -80.7 -10.2 L-83.3 -10.9 M-58.4 -29.4 L-58.4 -29.45 -58.15 -30.15 Q-57.8 -31.55 -56.5 -31.7 L-55.5 -31.65 -54.1 -31.3 Q-51.75 -30.75 -49.45 -29.8 L-45.15 -28.3 -44.95 -28.2 -42.85 -27.0 -42.5 -26.55 -41.65 -26.3 -41.9 -26.5 -40.55 -26.45 -39.7 -26.05 -38.75 -25.65 -38.45 -25.5 -36.65 -24.55 -35.65 -24.0 -34.7 -23.4 Q-33.3 -22.5 -32.35 -21.3 -33.8 -20.6 -35.25 -20.4 L-39.9 -22.3 -47.9 -24.65 -58.4 -29.4 M-62.35 -21.45 L-64.45 -23.3 -64.75 -23.95 -64.75 -26.2 Q-62.15 -24.95 -59.7 -23.2 L-58.0 -21.95 -50.95 -16.55 -48.35 -14.3 -47.35 -13.05 -53.5 -12.9 -55.4 -14.35 -55.8 -14.05 -56.05 -13.45 -55.25 -12.85 -59.45 -12.7 -56.5 -15.7 -62.35 -21.45 M-70.95 -17.05 L-68.5 -17.85 -65.75 -18.25 -65.5 -18.25 Q-64.95 -18.25 -64.6 -17.8 L-64.1 -17.3 -63.45 -16.7 -63.15 -16.45 -65.9 -15.75 Q-68.6 -15.55 -70.95 -17.05 M-54.3 0.35 L-56.2 -1.25 -56.55 -1.6 -59.0 -4.4 -57.75 -4.85 -47.15 -5.35 -44.1 -5.4 -42.75 -4.75 -42.75 -4.85 -34.05 -0.65 -40.3 -0.3 -45.85 0.4 -54.3 0.35" fill="#432288" fill-rule="evenodd" stroke="none"/>
    <path d="M86.75 -69.65 L0.3 -64.25 -41.05 -60.8 -40.7 -60.45 -99.85 -56.1 -99.65 -11.1 -97.75 -11.0 -84.2 -10.35 -81.35 -7.95 -81.1 -7.35 -79.0 -1.55 -73.9 12.0 -71.5 18.25 -68.8 25.1 -47.2 24.4 Q-46.95 21.9 -47.2 15.65 L-47.35 11.55 -48.2 11.15 -52.5 7.85 Q-59.85 1.7 -67.05 -7.8 L-65.4 -10.9 -59.5 -10.85 -48.05 -11.25 Q-33.7 -3.65 -27.65 -0.65 L-25.5 0.75 Q-23.25 2.2 -20.8 3.35 L-9.05 8.35 2.7 13.05 Q4.2 13.5 8.5 12.5 12.75 11.5 26.25 6.2 L27.4 5.75 25.2 5.15 Q21.15 4.0 17.3 2.5 4.3 -2.9 -4.8 -7.0 -13.9 -11.1 -17.1 -14.05 L-19.75 -16.4 -19.8 -17.65 Q-19.65 -18.45 -18.3 -19.2 -16.9 -19.95 -15.95 -20.3 L-12.95 -21.35 Q-5.6 -23.85 2.0 -25.6 L8.15 -26.75 14.3 -26.0 48.55 -19.95 70.5 -15.6 121.05 -8.0 124.2 -8.6 Q126.15 -8.7 136.25 -12.5 146.3 -16.3 154.25 -22.4 118.35 -29.85 82.0 -33.55 L70.05 -35.65 55.45 -38.65 Q55.8 -39.7 56.5 -40.4 57.45 -41.4 58.8 -41.85 L67.7 -43.1 76.75 -43.85 90.35 -43.95 110.4 -43.75 137.1 -43.25 150.0 -42.7 162.9 -42.45 175.8 -42.35 188.55 -42.5 190.6 -43.45 Q211.8 -53.35 231.15 -80.0 L225.65 -79.95 203.1 -77.05 140.3 -73.05 86.75 -69.65 M51.4 -56.85 L50.5 -56.55 48.25 -56.0 43.6 -55.2 31.5 -54.4 12.05 -52.3 5.9 -51.5 -25.5 -47.25 -31.15 -46.45 -29.65 -42.7 -29.4 -42.7 -13.4 -42.05 -11.5 -40.5 Q-11.15 -40.05 -11.65 -39.9 L-22.7 -39.8 -25.45 -39.85 -25.5 -39.85 -29.65 -40.2 -29.7 -40.25 Q-30.15 -40.5 -31.4 -43.65 L-33.1 -47.35 -30.95 -48.1 -25.5 -49.35 -22.85 -49.9 -9.35 -51.9 4.4 -53.35 18.2 -54.75 32.1 -56.1 57.2 -58.8 51.4 -56.85 M29.6 -39.95 L39.7 -40.1 41.0 -40.15 Q52.8 -48.55 60.4 -60.8 L57.1 -61.55 60.7 -61.7 61.2 -61.15 Q58.2 -55.35 55.9 -52.9 L47.95 -44.65 Q42.3 -38.85 38.9 -39.55 L36.3 -39.2 23.05 -38.5 Q4.55 -38.25 -13.9 -39.15 L29.6 -39.95 M35.45 -17.75 L41.7 -19.15 31.6 -20.45 7.7 -25.45 5.35 -25.4 Q1.65 -25.2 -1.85 -24.2 -9.1 -22.25 -16.05 -18.95 L-16.85 -16.7 -14.05 -14.85 -13.25 -14.45 Q-8.65 -12.15 -0.7 -8.95 L3.95 -10.1 Q18.95 -13.55 25.25 -15.55 L35.45 -17.75 M3.95 -7.65 Q11.1 -4.2 18.7 -1.3 25.45 1.25 38.95 5.55 L40.5 6.1 39.55 6.4 37.3 7.15 Q20.45 12.6 9.9 15.5 L2.9 16.2 Q0.5 16.15 -1.8 14.9 -7.4 11.75 -13.65 9.55 -16.9 8.4 -19.95 6.9 L-25.5 4.15 -28.7 2.45 -29.15 2.1 -30.25 1.5 -29.75 1.4 -30.3 1.45 -31.5 1.05 -32.0 1.05 -33.85 1.7 -52.25 2.9 -49.5 5.45 -44.5 9.85 -44.5 27.1 -71.5 27.9 -72.3 27.9 Q-74.2 19.35 -77.5 11.15 L-80.05 5.3 -99.8 5.05 -100.7 -8.8 -102.8 -10.7 -104.65 -55.2 -100.5 -60.95 -71.5 -63.55 -53.75 -65.2 -49.5 -65.5 -6.1 -67.4 236.75 -83.05 Q232.55 -74.45 222.6 -62.1 212.65 -49.8 188.55 -40.2 L180.05 -39.95 151.9 -39.95 Q134.7 -40.1 114.9 -40.65 L104.75 -40.95 97.8 -38.0 Q96.1 -37.25 94.1 -36.45 L89.5 -34.55 Q116.8 -30.1 144.1 -26.75 L164.15 -24.3 163.7 -23.95 164.85 -23.8 163.45 -23.8 Q154.9 -17.6 151.1 -15.6 146.25 -13.15 141.25 -11.0 L134.3 -8.2 125.35 -5.25 127.3 -6.0 121.6 -4.25 100.55 -8.0 66.6 -14.45 45.85 -18.4 40.85 -16.45 Q34.7 -14.25 28.25 -12.85 16.2 -9.95 3.95 -7.65 M94.1 -38.6 L99.3 -41.2 70.75 -41.9 56.35 -39.9 68.5 -37.85 86.55 -34.85 94.1 -38.6 M-83.2 -29.3 L-82.95 -29.05 Q-80.95 -27.05 -78.1 -27.05 -75.25 -27.05 -73.25 -29.05 -71.95 -30.35 -71.5 -32.0 -71.25 -32.9 -71.25 -33.9 -71.25 -34.9 -71.5 -35.8 L-71.55 -36.05 Q-72.0 -37.35 -72.95 -38.4 L-73.25 -38.75 Q-75.25 -40.75 -78.1 -40.75 -80.95 -40.75 -82.95 -38.75 -84.95 -36.75 -84.95 -33.9 -84.95 -32.15 -84.2 -30.7 L-83.2 -29.3 M-86.3 -28.9 Q-87.1 -30.65 -87.1 -32.7 -87.1 -36.5 -84.4 -39.2 -81.7 -41.9 -77.9 -41.9 -74.15 -41.9 -71.5 -39.3 L-71.4 -39.2 Q-69.05 -36.85 -68.75 -33.7 L-68.7 -32.7 Q-68.7 -28.9 -71.4 -26.2 L-71.5 -26.1 Q-74.15 -23.5 -77.9 -23.5 -81.7 -23.5 -84.4 -26.2 -85.65 -27.45 -86.3 -28.9 M-81.65 2.5 L-81.2 2.5 -85.85 -9.0 -97.8 -8.9 -97.6 -5.4 -97.15 2.15 -81.65 2.5 M-32.35 -21.3 L-31.7 -21.7 -29.25 -23.2 -37.05 -26.2 -47.5 -31.0 -59.9 -33.9 -60.9 -30.5 -58.4 -29.4 -47.9 -24.65 -39.9 -22.3 -35.25 -20.4 Q-33.8 -20.6 -32.35 -21.3 M-53.05 -34.8 L-53.0 -34.75 -46.95 -33.35 Q-46.5 -33.5 -40.65 -31.5 L-40.65 -31.2 Q-30.2 -27.1 -25.1 -25.25 L-24.9 -24.95 -25.5 -23.8 -26.05 -23.0 -27.75 -20.95 -29.2 -19.75 -31.5 -18.55 Q-32.6 -18.05 -33.8 -17.75 L-37.0 -18.25 -40.55 -19.55 -40.55 -19.4 -45.55 -21.3 -48.25 -22.4 -57.1 -26.05 -64.3 -29.15 -61.95 -35.9 -60.55 -36.4 -53.05 -34.8 M-66.3 -24.05 L-58.4 -16.8 -59.6 -14.75 -60.85 -14.2 -64.35 -13.25 Q-68.5 -12.7 -71.5 -15.0 L-72.85 -16.25 -74.35 -18.25 -74.55 -19.25 Q-72.95 -19.6 -71.5 -20.3 -69.7 -21.15 -68.2 -22.6 L-66.3 -24.05 M-63.15 -16.45 L-62.15 -16.9 -61.4 -17.4 -66.6 -22.0 -72.4 -18.2 -71.5 -17.45 -70.95 -17.05 Q-68.6 -15.55 -65.9 -15.75 L-63.15 -16.45 M-44.1 -5.4 L-45.85 -6.45 -46.15 -6.6 -48.4 -8.5 -48.9 -9.0 -63.75 -9.5 -64.05 -8.6 -61.65 -5.1 -55.05 0.35 -54.3 0.35 -45.85 0.4 -40.3 -0.3 -34.05 -0.65 -42.75 -4.85 -42.75 -4.75 -44.1 -5.4 M-48.3 -11.4 L-48.25 -11.35 -48.5 -11.35 -48.3 -11.4 M-42.25 3.95 L-42.45 4.05 -44.5 4.25 -42.25 3.95 M-35.0 2.55 L-36.35 2.6 -34.6 2.2 -35.0 2.55" fill="#000000" fill-rule="evenodd" stroke="none"/>
    <path d="M5.9 -51.5 L-2.75 -50.1 -4.5 -49.8 -6.25 -49.6 Q-14.3 -48.45 -22.0 -46.65 L-27.75 -45.35 -28.6 -45.05 -29.0 -44.9 Q-29.9 -44.75 -29.75 -43.9 L-29.4 -42.7 -29.65 -42.7 -31.15 -46.45 -25.5 -47.25 5.9 -51.5 M-14.05 -14.85 L-16.85 -16.7 -16.05 -18.95 Q-9.1 -22.25 -1.85 -24.2 1.65 -25.2 5.35 -25.4 L7.7 -25.45 31.6 -20.45 41.7 -19.15 35.45 -17.75 28.55 -19.65 Q24.4 -20.8 20.05 -21.25 L16.8 -21.55 8.05 -22.35 6.05 -22.35 5.8 -22.3 5.1 -22.1 4.05 -21.75 1.0 -20.8 -0.4 -20.3 Q-2.1 -19.6 -3.9 -19.1 L-8.45 -17.7 Q-11.0 -16.85 -13.25 -15.7 L-14.05 -14.85 M94.1 -38.6 L76.05 -40.15 73.8 -40.3 73.35 -40.3 70.8 -39.7 69.8 -39.5 Q68.35 -39.3 67.8 -38.2 L68.5 -37.85 56.35 -39.9 70.75 -41.9 99.3 -41.2 94.1 -38.6 M-71.55 -36.05 L-71.75 -36.15 -73.55 -36.7 -75.5 -36.85 Q-77.9 -36.8 -79.95 -35.35 -80.6 -34.9 -81.3 -34.55 -82.15 -34.05 -82.6 -33.2 L-83.15 -31.5 -83.2 -29.3 -84.2 -30.7 Q-84.95 -32.15 -84.95 -33.9 -84.95 -36.75 -82.95 -38.75 -80.95 -40.75 -78.1 -40.75 -75.25 -40.75 -73.25 -38.75 L-72.95 -38.4 Q-72.0 -37.35 -71.55 -36.05 M-97.6 -5.4 L-97.8 -8.9 -85.85 -9.0 -81.2 2.5 -81.65 2.5 -83.15 -0.2 -85.5 -4.15 Q-86.2 -5.05 -87.0 -5.1 L-88.0 -5.25 -91.25 -5.5 -97.3 -5.4 -97.6 -5.4 M-32.35 -21.3 Q-33.3 -22.5 -34.7 -23.4 L-35.65 -24.0 -36.65 -24.55 -38.45 -25.5 -38.75 -25.65 -39.7 -26.05 -40.55 -26.45 -41.9 -26.5 -41.65 -26.3 -42.5 -26.55 -42.85 -27.0 -44.95 -28.2 -45.15 -28.3 -49.45 -29.8 Q-51.75 -30.75 -54.1 -31.3 L-55.5 -31.65 -56.5 -31.7 Q-57.8 -31.55 -58.15 -30.15 L-58.4 -29.45 -58.4 -29.4 -60.9 -30.5 -59.9 -33.9 -47.5 -31.0 -37.05 -26.2 -29.25 -23.2 -31.7 -21.7 -32.35 -21.3 M-63.15 -16.45 L-63.45 -16.7 -64.1 -17.3 -64.6 -17.8 Q-64.95 -18.25 -65.5 -18.25 L-65.75 -18.25 -68.5 -17.85 -70.95 -17.05 -71.5 -17.45 -72.4 -18.2 -66.6 -22.0 -61.4 -17.4 -62.15 -16.9 -63.15 -16.45 M-54.3 0.35 L-55.05 0.35 -61.65 -5.1 -64.05 -8.6 -63.75 -9.5 -48.9 -9.0 -48.4 -8.5 -46.15 -6.6 -45.85 -6.45 -44.1 -5.4 -47.15 -5.35 -57.75 -4.85 -59.0 -4.4 -56.55 -1.6 -56.2 -1.25 -54.3 0.35" fill="#2b1555" fill-rule="evenodd" stroke="none"/>
    <path d="M101.05 81.85 Q100.4 82.2 100.1 82.85 L100.05 83.1" fill="none" stroke="#000066" stroke-linecap="round" stroke-linejoin="round" stroke-width="0.1"/>
    <path d="M-172.35 -15.4 Q-170.7 -14.7 -163.9 -13.15 -157.05 -11.65 -151.4 -13.0 -149.3 -13.5 -147.25 -14.6 -145.2 -15.65 -143.25 -17.25 L-140.55 -19.75 -138.85 -21.6 Q-135.25 -25.95 -134.65 -29.85 -134.0 -34.5 -132.65 -36.1 L-128.05 -40.7 -121.15 -42.2 -111.75 -38.7 -108.8 -36.4 Q-104.3 -35.05 -87.9 -39.55 -80.35 -41.35 -73.4 -44.45 -63.05 -49.1 -54.05 -56.55 -46.75 -62.55 -41.8 -70.55 -38.9 -75.3 -33.4 -75.35 -29.05 -69.95 -31.8 -63.0 -35.6 -53.4 -40.65 -44.9 L-43.65 -40.15 Q-47.0 -35.2 -50.8 -30.65 L-53.1 -27.95 Q-58.9 -21.6 -65.7 -16.0 -71.1 -11.6 -77.0 -7.8 L-79.8 -6.1 -83.55 -15.8 Q-87.25 -13.15 -90.45 -10.95 -95.6 -7.4 -99.6 -5.0 L-100.4 -4.55 Q-107.05 -0.8 -110.4 -0.45 -112.3 -2.85 -112.4 -5.85 L-112.35 -7.85 -112.3 -8.4 -112.1 -10.1 -113.3 -8.75 Q-122.55 1.25 -133.9 8.8 -135.4 9.75 -137.25 9.65 -138.95 8.1 -138.7 5.9 -138.6 4.75 -138.0 3.45 L-136.5 -0.25 -135.9 -2.5 -135.7 -3.45 -135.65 -3.7 Q-135.4 -5.5 -135.65 -7.25 L-149.4 3.6 -150.05 3.5 -172.95 -2.05 -177.5 -3.05 Q-177.65 -6.15 -179.15 -13.75 -175.1 -15.65 -173.2 -15.55 L-172.35 -15.4 M-165.1 -3.7 L-161.1 -3.05 -152.95 -2.2 -148.9 -2.0 Q-145.5 -2.2 -138.2 -9.0 L-136.25 -10.75 -134.1 -12.95 -133.25 -11.8 Q-131.95 -9.5 -132.6 -5.7 L-133.0 -3.4 -134.6 4.1 -134.9 5.3 Q-126.75 1.95 -116.35 -10.05 L-110.25 -17.65 -109.55 -18.5 -109.65 -17.45 Q-110.0 -13.7 -109.45 -11.0 L-109.1 -9.7 Q-108.5 -8.3 -107.4 -7.45 L-106.9 -7.1 -106.55 -6.95 -103.9 -6.8 -100.95 -7.8 Q-98.05 -9.15 -94.0 -12.2 -89.5 -15.6 -83.8 -21.1 -80.6 -19.4 -79.1 -16.25 -78.3 -14.4 -78.15 -12.15 L-76.0 -13.8 -70.8 -17.9 Q-61.7 -25.3 -55.0 -32.45 L-50.15 -37.95 -47.3 -41.55 -46.8 -42.3 Q-38.85 -53.35 -36.55 -63.9 L-36.35 -64.85 Q-35.75 -67.9 -35.55 -70.9 -39.3 -63.75 -57.5 -48.95 L-58.05 -48.6 Q-60.7 -46.5 -63.65 -44.7 -66.7 -42.9 -70.05 -41.3 -75.15 -39.0 -80.95 -37.3 -88.95 -35.05 -98.3 -33.9 L-107.5 -33.1 Q-107.45 -28.25 -111.5 -25.4 -112.85 -24.4 -114.65 -23.7 L-113.25 -26.25 Q-111.8 -29.6 -112.3 -32.55 L-115.85 -36.6 Q-123.0 -38.85 -128.9 -35.2 -130.2 -34.4 -130.45 -33.0 L-130.95 -30.1 -131.0 -29.5 Q-131.8 -26.6 -133.0 -24.05 -133.95 -21.95 -135.25 -20.0 L-135.45 -19.8 Q-139.75 -13.45 -147.35 -9.95 L-147.85 -9.7 -149.5 -9.25 -151.55 -9.2 -162.9 -9.6 -173.6 -11.1 -175.15 -11.4 -174.1 -6.25 -173.5 -6.05 Q-170.0 -4.65 -165.1 -3.7 M-123.1 -23.7 L-123.7 -23.55 Q-124.8 -23.95 -125.85 -25.05 L-126.45 -25.9 Q-127.55 -27.35 -127.35 -27.9 L-126.6 -29.2 Q-125.8 -30.55 -124.25 -31.95 -121.65 -34.3 -119.5 -34.0 L-118.0 -33.35 Q-117.45 -32.75 -117.05 -31.75 L-116.7 -30.75 Q-116.2 -29.15 -116.45 -28.5 -116.95 -27.2 -119.3 -25.55 -121.4 -24.05 -123.1 -23.7 M-124.35 -27.6 L-124.35 -27.3 -122.85 -26.7 Q-121.95 -26.5 -120.45 -27.4 -119.0 -28.25 -118.65 -29.1 -118.2 -30.3 -118.5 -30.8 -118.85 -31.4 -120.15 -31.2 -122.0 -31.0 -123.35 -30.15 L-124.35 -27.6" fill="#000000" fill-rule="evenodd" stroke="none"/>
    <path d="M-165.1 -3.7 L-164.35 -4.8 -166.9 -5.15 -168.3 -5.25 Q-170.6 -5.35 -172.7 -6.35 L-173.5 -7.05 -173.55 -7.1 Q-174.15 -7.95 -173.95 -9.3 L-173.8 -9.8 -173.6 -9.9 -173.4 -10.0 -165.0 -9.65 -162.9 -9.6 -151.55 -9.2 -149.5 -9.25 -147.85 -9.7 -147.35 -9.95 -145.5 -10.1 Q-144.2 -10.15 -142.9 -10.95 -139.9 -12.8 -136.3 -14.35 L-135.6 -15.05 Q-134.45 -17.25 -134.1 -19.5 L-134.0 -19.95 -133.95 -20.9 -133.75 -21.85 -133.0 -24.05 Q-131.8 -26.6 -131.0 -29.5 L-130.95 -30.1 -130.3 -32.35 -129.6 -33.65 Q-127.55 -36.15 -124.4 -36.15 L-123.05 -36.25 -119.75 -36.7 -118.65 -36.7 -118.2 -36.6 Q-120.05 -37.0 -122.0 -35.6 L-124.8 -33.25 Q-126.35 -31.7 -126.6 -29.3 L-126.6 -29.2 -127.35 -27.9 Q-127.55 -27.35 -126.45 -25.9 L-125.85 -25.05 Q-124.8 -23.95 -123.7 -23.55 L-123.1 -23.7 Q-121.85 -22.35 -119.7 -23.15 L-118.0 -23.75 -115.2 -25.15 Q-114.2 -25.65 -113.95 -26.9 L-113.25 -26.25 -114.65 -23.7 Q-112.85 -24.4 -111.5 -25.4 -109.95 -24.9 -108.25 -25.35 -107.8 -25.5 -107.4 -25.9 -104.75 -28.55 -106.9 -31.1 L-102.85 -30.75 -102.3 -30.6 -102.25 -30.6 -100.3 -30.25 -99.6 -30.2 -96.35 -30.85 -93.0 -31.85 -82.8 -35.15 Q-80.55 -35.75 -79.1 -36.3 L-76.55 -37.25 -74.8 -37.95 Q-74.2 -38.2 -73.55 -38.65 L-70.05 -41.3 Q-66.7 -42.9 -63.65 -44.7 -60.7 -46.5 -58.05 -48.6 -59.6 -46.55 -61.6 -44.8 L-61.8 -44.55 Q-66.45 -40.5 -71.25 -36.7 -79.55 -30.4 -88.45 -24.9 -92.25 -22.55 -96.2 -20.45 L-99.95 -18.5 -102.5 -17.0 -104.05 -15.8 -104.1 -15.85 Q-105.15 -15.05 -106.9 -15.25 L-107.25 -15.45 -108.45 -17.15 Q-109.2 -18.5 -109.6 -20.05 -109.6 -20.3 -110.1 -20.45 -111.9 -21.05 -112.85 -19.5 L-113.15 -18.95 -113.45 -18.4 -114.15 -17.3 Q-114.6 -16.45 -115.85 -16.5 L-117.15 -16.4 -123.5 -15.0 -124.95 -14.65 -129.25 -13.15 -130.25 -12.8 -133.25 -11.8 -134.1 -12.95 -136.25 -10.75 -137.4 -10.4 -142.1 -9.05 Q-143.15 -8.85 -143.8 -8.25 -144.1 -7.95 -144.65 -7.75 -148.85 -6.1 -153.1 -5.05 L-154.45 -4.75 -155.2 -4.6 -161.1 -3.05 -165.1 -3.7" fill="#8a64d9" fill-rule="evenodd" stroke="none"/>
    <path d="M-162.9 -9.6 L-165.0 -9.65 -173.4 -10.0 -173.6 -9.9 -173.8 -9.8 -173.95 -9.3 Q-174.15 -7.95 -173.55 -7.1 L-173.5 -7.05 -172.7 -6.35 Q-170.6 -5.35 -168.3 -5.25 L-166.9 -5.15 -164.35 -4.8 -165.1 -3.7 Q-170.0 -4.65 -173.5 -6.05 L-174.1 -6.25 -175.15 -11.4 -173.6 -11.1 -162.9 -9.6 M-161.1 -3.05 L-155.2 -4.6 -154.45 -4.75 -153.1 -5.05 Q-148.85 -6.1 -144.65 -7.75 -144.1 -7.95 -143.8 -8.25 -143.15 -8.85 -142.1 -9.05 L-137.4 -10.4 -136.25 -10.75 -138.2 -9.0 Q-145.5 -2.2 -148.9 -2.0 L-152.95 -2.2 -161.1 -3.05 M-133.25 -11.8 L-130.25 -12.8 -129.25 -13.15 -124.95 -14.65 -123.5 -15.0 -117.15 -16.4 -115.85 -16.5 Q-114.6 -16.45 -114.15 -17.3 L-113.45 -18.4 -113.15 -18.95 -112.85 -19.5 Q-111.9 -21.05 -110.1 -20.45 -109.6 -20.3 -109.6 -20.05 -109.2 -18.5 -108.45 -17.15 L-107.25 -15.45 -106.9 -15.25 Q-105.15 -15.05 -104.1 -15.85 L-104.05 -15.8 -102.5 -17.0 -99.95 -18.5 -96.2 -20.45 Q-92.25 -22.55 -88.45 -24.9 -79.55 -30.4 -71.25 -36.7 -66.45 -40.5 -61.8 -44.55 L-61.6 -44.8 Q-59.6 -46.55 -58.05 -48.6 L-57.5 -48.95 Q-39.3 -63.75 -35.55 -70.9 -35.75 -67.9 -36.35 -64.85 -38.3 -63.9 -40.5 -61.7 L-41.65 -60.4 -42.6 -59.4 -43.6 -58.45 Q-45.1 -57.4 -46.75 -56.75 -48.45 -56.15 -49.25 -55.55 L-49.8 -55.1 -59.25 -44.85 -59.7 -44.35 -61.0 -43.1 Q-64.55 -39.7 -67.55 -36.15 L-71.9 -30.5 Q-74.7 -26.6 -78.25 -23.5 -80.0 -22.0 -78.65 -20.8 L-78.0 -20.0 Q-77.85 -19.5 -77.95 -18.9 -78.3 -17.0 -77.9 -14.65 L-77.25 -14.95 -72.4 -17.3 -71.45 -18.1 -66.75 -23.05 -58.4 -32.15 -57.3 -33.35 Q-53.35 -37.6 -50.1 -42.4 L-47.7 -46.25 Q-42.3 -55.45 -36.55 -63.9 -38.85 -53.35 -46.8 -42.3 L-47.3 -41.55 -50.15 -37.95 -55.0 -32.45 Q-61.7 -25.3 -70.8 -17.9 L-76.0 -13.8 -78.15 -12.15 Q-78.3 -14.4 -79.1 -16.25 -80.6 -19.4 -83.8 -21.1 -89.5 -15.6 -94.0 -12.2 -98.05 -9.15 -100.95 -7.8 L-103.9 -6.8 -106.55 -6.95 -106.9 -7.1 -103.75 -7.05 -103.5 -7.1 Q-102.3 -7.35 -101.0 -7.85 L-99.55 -8.65 Q-96.7 -10.3 -94.35 -12.35 -90.85 -15.35 -88.35 -19.35 -87.3 -21.0 -87.9 -21.9 L-88.35 -21.95 -89.05 -21.9 -90.45 -21.4 Q-91.75 -20.35 -93.15 -19.75 -96.4 -18.55 -99.15 -16.7 L-101.55 -15.0 -102.05 -14.6 -106.25 -11.3 -106.4 -10.95 -107.4 -7.65 -107.4 -7.45 Q-108.5 -8.3 -109.1 -9.7 L-109.45 -11.0 Q-110.0 -13.7 -109.65 -17.45 L-109.55 -18.5 -110.25 -17.65 -116.35 -10.05 Q-126.75 1.95 -134.9 5.3 L-134.6 4.1 -134.45 4.15 Q-133.1 4.4 -131.5 3.15 -128.7 1.1 -126.1 -1.5 L-124.05 -3.55 -117.85 -10.7 Q-116.85 -12.0 -117.5 -12.65 L-120.05 -11.8 -121.2 -11.4 Q-125.1 -9.9 -129.1 -9.1 -130.5 -8.8 -131.15 -7.35 L-132.65 -4.2 -133.0 -3.4 -132.6 -5.7 Q-131.95 -9.5 -133.25 -11.8 M-70.05 -41.3 L-73.55 -38.65 Q-74.2 -38.2 -74.8 -37.95 L-76.55 -37.25 -79.1 -36.3 Q-80.55 -35.75 -82.8 -35.15 L-93.0 -31.85 -96.35 -30.85 -99.6 -30.2 -100.3 -30.25 -102.25 -30.6 -102.3 -30.6 -102.85 -30.75 -106.9 -31.1 Q-104.75 -28.55 -107.4 -25.9 -107.8 -25.5 -108.25 -25.35 -109.95 -24.9 -111.5 -25.4 -107.45 -28.25 -107.5 -33.1 L-98.3 -33.9 Q-88.95 -35.05 -80.95 -37.3 -75.15 -39.0 -70.05 -41.3 M-113.25 -26.25 L-113.95 -26.9 Q-114.2 -25.65 -115.2 -25.15 L-118.0 -23.75 -119.7 -23.15 Q-121.85 -22.35 -123.1 -23.7 -121.4 -24.05 -119.3 -25.55 -116.95 -27.2 -116.45 -28.5 -116.2 -29.15 -116.7 -30.75 L-117.05 -31.75 Q-117.45 -32.75 -118.0 -33.35 L-119.5 -34.0 Q-121.65 -34.3 -124.25 -31.95 -125.8 -30.55 -126.6 -29.2 L-126.6 -29.3 Q-126.35 -31.7 -124.8 -33.25 L-122.0 -35.6 Q-120.05 -37.0 -118.2 -36.6 L-118.65 -36.7 -119.75 -36.7 -123.05 -36.25 -124.4 -36.15 Q-127.55 -36.15 -129.6 -33.65 L-130.3 -32.35 -130.95 -30.1 -130.45 -33.0 Q-130.2 -34.4 -128.9 -35.2 -123.0 -38.85 -115.85 -36.6 L-112.3 -32.55 Q-111.8 -29.6 -113.25 -26.25 M-133.0 -24.05 L-133.75 -21.85 -133.95 -20.9 -134.0 -19.95 -134.1 -19.5 Q-134.45 -17.25 -135.6 -15.05 L-136.3 -14.35 Q-139.9 -12.8 -142.9 -10.95 -144.2 -10.15 -145.5 -10.1 L-147.35 -9.95 Q-139.75 -13.45 -135.45 -19.8 L-135.25 -20.0 Q-133.95 -21.95 -133.0 -24.05" fill="#6633cc" fill-rule="evenodd" stroke="none"/>
    <path d="M-124.35 -27.6 L-123.35 -30.15 Q-122.0 -31.0 -120.15 -31.2 -118.85 -31.4 -118.5 -30.8 -118.2 -30.3 -118.65 -29.1 -119.0 -28.25 -120.45 -27.4 -121.95 -26.5 -122.85 -26.7 L-124.35 -27.3 -124.35 -27.6 M-133.0 -3.4 L-132.65 -4.2 -131.15 -7.35 Q-130.5 -8.8 -129.1 -9.1 -125.1 -9.9 -121.2 -11.4 L-120.05 -11.8 -117.5 -12.65 Q-116.85 -12.0 -117.85 -10.7 L-124.05 -3.55 -126.1 -1.5 Q-128.7 1.1 -131.5 3.15 -133.1 4.4 -134.45 4.15 L-134.6 4.1 -133.0 -3.4 M-107.4 -7.45 L-107.4 -7.65 -106.4 -10.95 -106.25 -11.3 -102.05 -14.6 -101.55 -15.0 -99.15 -16.7 Q-96.4 -18.55 -93.15 -19.75 -91.75 -20.35 -90.45 -21.4 L-89.05 -21.9 -88.35 -21.95 -87.9 -21.9 Q-87.3 -21.0 -88.35 -19.35 -90.85 -15.35 -94.35 -12.35 -96.7 -10.3 -99.55 -8.65 L-101.0 -7.85 Q-102.3 -7.35 -103.5 -7.1 L-103.75 -7.05 -106.9 -7.1 -107.4 -7.45 M-36.55 -63.9 Q-42.3 -55.45 -47.7 -46.25 L-50.1 -42.4 Q-53.35 -37.6 -57.3 -33.35 L-58.4 -32.15 -66.75 -23.05 -71.45 -18.1 -72.4 -17.3 -77.25 -14.95 -77.9 -14.65 Q-78.3 -17.0 -77.95 -18.9 -77.85 -19.5 -78.0 -20.0 L-78.65 -20.8 Q-80.0 -22.0 -78.25 -23.5 -74.7 -26.6 -71.9 -30.5 L-67.55 -36.15 Q-64.55 -39.7 -61.0 -43.1 L-59.7 -44.35 -59.25 -44.85 -49.8 -55.1 -49.25 -55.55 Q-48.45 -56.15 -46.75 -56.75 -45.1 -57.4 -43.6 -58.45 L-42.6 -59.4 -41.65 -60.4 -40.5 -61.7 Q-38.3 -63.9 -36.35 -64.85 L-36.55 -63.9" fill="#432288" fill-rule="evenodd" stroke="none"/>
  </g>
</svg>
