<?xml version="1.0" encoding="UTF-8" standalone="no"?>
<svg xmlns:xlink="http://www.w3.org/1999/xlink" height="162.2px" width="477.5px" xmlns="http://www.w3.org/2000/svg">
  <g transform="matrix(1.0, 0.0, 0.0, 1.0, 236.75, 82.05)">
    <path d="M-235.65 -32.9 L-236.15 -33.7 -234.5 -36.0 Q-227.75 -31.75 -223.0 -25.2 L-198.55 -24.85 Q-197.7 -28.15 -195.6 -30.7 -191.3 -35.6 -184.9 -35.0 -180.9 -33.9 -177.35 -31.2 -176.6 -30.75 -175.95 -30.1 -170.85 -24.85 -172.8 -17.3 L-173.4 -15.35 -175.25 -10.95 Q-176.8 -7.45 -180.0 -6.4 L-180.55 -5.5 -236.75 -5.9 -235.85 -7.4 -235.65 -32.9 M-224.8 -21.2 Q-227.95 -26.9 -233.35 -30.1 L-233.4 -9.4 -182.8 -8.85 -181.3 -9.8 -180.75 -9.5 Q-176.15 -13.3 -176.2 -19.55 -176.25 -22.05 -177.05 -24.5 -178.8 -29.3 -183.25 -29.8 L-183.55 -30.25 Q-193.15 -30.9 -196.4 -21.0 L-197.25 -21.5 -224.8 -21.2" fill="#000000" fill-rule="evenodd" stroke="none"/>
    <path d="M-224.8 -21.2 L-197.25 -21.5 -196.4 -21.0 Q-193.15 -30.9 -183.55 -30.25 L-183.25 -29.8 Q-178.8 -29.3 -177.05 -24.5 -176.25 -22.05 -176.2 -19.55 -176.15 -13.3 -180.75 -9.5 L-181.3 -9.8 -182.8 -8.85 -233.4 -9.4 -233.35 -30.1 Q-227.95 -26.9 -224.8 -21.2" fill="#2e2a26" fill-rule="evenodd" stroke="none"/>
    <path d="M-177.25 -32.5 Q-169.2 -29.3 -154.45 -22.95 L-154.85 -22.75 -153.65 -22.85 Q-149.9 -22.85 -147.2 -20.35 L-147.1 -20.45 Q-142.65 -22.7 -138.9 -25.65 L-138.1 -26.25 -137.15 -26.95 Q-136.85 -36.95 -125.85 -35.6 -120.75 -34.15 -119.5 -28.55 -118.25 -22.95 -122.3 -19.55 -126.35 -16.15 -129.15 -17.35 L-146.95 -6.3 Q-148.2 -5.15 -149.65 -4.45 -155.05 -1.6 -163.65 -7.6 L-174.65 -11.7 Q-172.2 -24.5 -179.15 -30.65 L-177.25 -32.5 M-163.05 -10.85 L-163.05 -11.2 -163.25 -13.25 -163.2 -14.35 Q-166.7 -17.3 -171.15 -17.95 L-171.45 -14.55 -163.05 -10.85 M-170.9 -21.35 L-161.7 -18.5 -160.45 -20.05 -158.75 -21.4 -172.15 -26.4 -170.9 -21.35 M-128.75 -31.15 Q-130.8 -31.15 -132.25 -29.65 -133.75 -28.2 -133.75 -26.1 -133.75 -24.0 -132.25 -22.5 -130.8 -21.05 -128.75 -21.05 -126.7 -21.05 -125.2 -22.5 -123.75 -24.0 -123.75 -26.1 -123.75 -28.2 -125.2 -29.65 -126.7 -31.15 -128.75 -31.15 M-148.85 -17.95 Q-150.75 -19.85 -153.45 -19.85 -156.15 -19.85 -158.05 -17.95 -159.95 -16.05 -159.95 -13.4 -159.95 -10.75 -158.05 -8.85 -156.15 -6.95 -153.45 -6.95 -150.75 -6.95 -148.85 -8.85 -146.95 -10.75 -146.95 -13.4 -146.95 -16.05 -148.85 -17.95 M-144.45 -16.05 L-135.55 -22.35 -136.45 -23.35 -145.35 -18.2 -144.45 -16.05 M-144.2 -10.9 L-131.75 -18.7 -133.7 -20.1 -144.05 -13.25 -144.2 -10.9" fill="#000000" fill-rule="evenodd" stroke="none"/>
    <path d="M-144.2 -10.9 L-144.05 -13.25 -133.7 -20.1 -131.75 -18.7 -144.2 -10.9 M-144.45 -16.05 L-145.35 -18.2 -136.45 -23.35 -135.55 -22.35 -144.45 -16.05 M-148.85 -17.95 Q-146.95 -16.05 -146.95 -13.4 -146.95 -10.75 -148.85 -8.85 -150.75 -6.95 -153.45 -6.95 -156.15 -6.95 -158.05 -8.85 -159.95 -10.75 -159.95 -13.4 -159.95 -16.05 -158.05 -17.95 -156.15 -19.85 -153.45 -19.85 -150.75 -19.85 -148.85 -17.95 M-128.75 -31.15 Q-126.7 -31.15 -125.2 -29.65 -123.75 -28.2 -123.75 -26.1 -123.75 -24.0 -125.2 -22.5 -126.7 -21.05 -128.75 -21.05 -130.8 -21.05 -132.25 -22.5 -133.75 -24.0 -133.75 -26.1 -133.75 -28.2 -132.25 -29.65 -130.8 -31.15 -128.75 -31.15 M-170.9 -21.35 L-172.15 -26.4 -158.75 -21.4 -160.45 -20.05 -161.7 -18.5 -170.9 -21.35 M-163.05 -10.85 L-171.45 -14.55 -171.15 -17.95 Q-166.7 -17.3 -163.2 -14.35 L-163.25 -13.25 -163.05 -11.2 -163.05 -10.85" fill="#2e2a26" fill-rule="evenodd" stroke="none"/>
    <path d="M-166.95 -46.15 Q-168.9 -45.3 -170.8 -44.05 L-172.3 -43.2 -172.8 -42.9 Q-173.6 -42.35 -174.65 -41.9 -175.1 -41.6 -175.5 -41.45 L-175.9 -41.1 Q-177.45 -39.75 -179.05 -38.75 -181.1 -37.6 -182.75 -36.0 L-183.15 -35.6 -184.3 -34.45 Q-185.45 -32.85 -185.85 -30.7 L-185.95 -29.95 Q-186.15 -28.65 -185.85 -27.7 L-185.3 -25.9 -184.8 -25.1 -184.6 -24.85 Q-184.2 -24.0 -182.95 -23.4 -180.75 -22.55 -178.2 -22.5 L-177.7 -22.55 -176.65 -22.7 -176.15 -22.75 -174.05 -23.35 Q-171.4 -24.55 -169.0 -26.0 L-168.0 -26.1 -167.2 -26.6 Q-165.3 -27.4 -163.55 -28.8 -162.7 -29.4 -162.9 -30.7 -163.9 -29.85 -165.45 -29.1 L-168.95 -27.2 -169.6 -26.85 Q-172.25 -25.45 -174.85 -25.0 L-174.85 -25.05 -174.65 -25.45 -174.5 -25.95 -174.3 -26.4 -174.25 -26.7 -173.45 -29.1 Q-172.85 -30.05 -173.3 -30.7 L-174.1 -31.2 Q-175.85 -32.05 -175.45 -34.55 -175.05 -36.9 -173.55 -38.4 L-171.05 -40.6 -170.7 -40.75 Q-169.9 -41.15 -169.15 -41.7 L-166.1 -43.6 -165.5 -43.9 Q-164.2 -44.35 -163.15 -45.0 -161.3 -46.1 -159.35 -46.85 L-159.0 -47.0 Q-158.05 -47.25 -157.25 -47.75 L-156.95 -47.8 -156.6 -48.0 -153.4 -49.8 Q-151.1 -50.7 -149.45 -51.45 L-148.15 -52.0 Q-147.2 -52.3 -146.7 -52.75 -147.2 -52.85 -147.25 -53.55 L-147.3 -53.85 Q-147.6 -54.7 -148.2 -55.4 L-148.4 -55.5 Q-150.3 -54.95 -151.85 -53.9 -152.1 -53.7 -152.35 -53.65 L-153.0 -53.35 Q-155.15 -51.85 -157.5 -50.85 L-158.1 -50.6 -160.4 -49.45 -161.65 -48.65 -162.3 -48.35 Q-164.4 -47.65 -166.3 -46.45 L-166.95 -46.15 M-138.25 -42.7 L-137.75 -41.85 -165.55 -27.1 Q-168.5 -24.8 -171.9 -23.45 -176.4 -21.5 -181.25 -21.7 -182.5 -22.15 -183.45 -23.0 -185.0 -24.15 -186.05 -25.8 -188.45 -29.7 -186.4 -33.65 -184.9 -36.7 -182.05 -38.4 L-174.05 -43.1 -147.1 -58.0 Q-146.55 -56.4 -143.95 -52.0 L-144.5 -51.95 Q-145.3 -51.75 -145.3 -51.15 -145.3 -51.8 -140.85 -43.8 -143.75 -41.8 -151.9 -37.4 -158.15 -34.1 -158.2 -33.2 -158.25 -32.55 -157.75 -32.8 -151.05 -35.1 -146.25 -37.85 L-141.25 -40.65 -138.25 -42.7 M-149.3 -48.8 L-148.95 -49.0 Q-149.15 -48.95 -148.95 -49.15 L-148.7 -49.5 -149.6 -50.75 -149.9 -50.6 -151.3 -50.05 -151.75 -49.9 -161.6 -45.0 -171.05 -39.75 Q-172.3 -38.6 -173.05 -37.1 L-173.35 -36.05 -173.3 -35.4 Q-172.95 -32.4 -170.0 -31.6 L-166.95 -31.5 -145.35 -43.05 -146.35 -44.6 Q-146.8 -44.35 -147.4 -44.0 -148.85 -43.2 -150.45 -42.35 L-153.35 -40.9 Q-158.05 -38.2 -161.4 -36.55 -164.7 -34.9 -166.6 -34.35 L-167.35 -34.15 Q-167.7 -34.3 -167.65 -34.8 -167.6 -35.4 -167.1 -35.8 L-166.75 -36.2 Q-164.75 -38.1 -162.35 -39.35 L-160.95 -40.15 -158.35 -41.45 Q-157.0 -41.9 -155.75 -42.75 L-153.8 -43.85 Q-153.1 -44.05 -152.45 -44.4 -150.05 -45.45 -148.1 -46.45 -147.85 -46.55 -147.85 -47.05 L-147.95 -47.35 -149.3 -48.8 M-146.05 -45.5 L-146.45 -46.1 -146.9 -46.5 Q-156.3 -41.35 -158.95 -39.3 L-158.4 -38.75 Q-156.7 -39.6 -151.75 -42.2 -147.25 -44.45 -146.05 -45.5" fill="#a29b99" fill-rule="evenodd" stroke="none"/>
    <path d="M-166.95 -46.15 L-166.3 -46.45 Q-164.4 -47.65 -162.3 -48.35 L-161.65 -48.65 -160.4 -49.45 -158.1 -50.6 -157.5 -50.85 Q-155.15 -51.85 -153.0 -53.35 L-152.35 -53.65 Q-152.1 -53.7 -151.85 -53.9 -150.3 -54.95 -148.4 -55.5 L-148.2 -55.4 Q-147.6 -54.7 -147.3 -53.85 L-147.25 -53.55 Q-147.2 -52.85 -146.7 -52.75 -147.2 -52.3 -148.15 -52.0 L-149.45 -51.45 Q-151.1 -50.7 -153.4 -49.8 L-156.6 -48.0 -156.95 -47.8 -157.25 -47.75 Q-158.05 -47.25 -159.0 -47.0 L-159.35 -46.85 Q-161.3 -46.1 -163.15 -45.0 -164.2 -44.35 -165.5 -43.9 L-166.1 -43.6 -169.15 -41.7 Q-169.9 -41.15 -170.7 -40.75 L-171.05 -40.6 -173.55 -38.4 Q-175.05 -36.9 -175.45 -34.55 -175.85 -32.05 -174.1 -31.2 L-173.3 -30.7 Q-172.85 -30.05 -173.45 -29.1 L-174.25 -26.7 -174.3 -26.4 -174.5 -25.95 -174.65 -25.45 -174.85 -25.05 -174.85 -25.0 Q-172.25 -25.45 -169.6 -26.85 L-168.95 -27.2 -165.45 -29.1 Q-163.9 -29.85 -162.9 -30.7 -162.7 -29.4 -163.55 -28.8 -165.3 -27.4 -167.2 -26.6 L-168.0 -26.1 -169.0 -26.0 Q-171.4 -24.55 -174.05 -23.35 L-176.15 -22.75 -176.65 -22.7 -177.7 -22.55 -178.2 -22.5 Q-180.75 -22.55 -182.95 -23.4 -184.2 -24.0 -184.6 -24.85 L-184.8 -25.1 -185.3 -25.9 -185.85 -27.7 Q-186.15 -28.65 -185.95 -29.95 L-185.85 -30.7 Q-185.45 -32.85 -184.3 -34.45 L-183.15 -35.6 -182.75 -36.0 Q-181.1 -37.6 -179.05 -38.75 -177.45 -39.75 -175.9 -41.1 L-175.5 -41.45 Q-175.1 -41.6 -174.65 -41.9 -173.6 -42.35 -172.8 -42.9 L-172.3 -43.2 -170.8 -44.05 Q-168.9 -45.3 -166.95 -46.15 M-167.35 -34.15 L-169.85 -34.0 -170.8 -35.55 Q-170.7 -37.7 -168.6 -38.85 L-158.65 -44.25 Q-150.65 -48.45 -152.25 -47.5 -153.85 -46.6 -151.55 -47.7 L-149.3 -48.8 -147.95 -47.35 -147.85 -47.05 Q-147.85 -46.55 -148.1 -46.45 -150.05 -45.45 -152.45 -44.4 -153.1 -44.05 -153.8 -43.85 L-155.75 -42.75 Q-157.0 -41.9 -158.35 -41.45 L-160.95 -40.15 -162.35 -39.35 Q-164.75 -38.1 -166.75 -36.2 L-167.1 -35.8 Q-167.6 -35.4 -167.65 -34.8 -167.7 -34.3 -167.35 -34.15" fill="#756c6a" fill-rule="evenodd" stroke="none"/>
    <path d="M-143.95 -52.0 Q-146.55 -56.4 -147.1 -58.0 L-174.05 -43.1 -182.05 -38.4 Q-184.9 -36.7 -186.4 -33.65 -188.45 -29.7 -186.05 -25.8 -185.0 -24.15 -183.45 -23.0 -182.5 -22.15 -181.25 -21.7 -176.4 -21.5 -171.9 -23.45 -168.5 -24.8 -165.55 -27.1 L-137.75 -41.85 -138.25 -42.7 Q-137.9 -43.0 -137.9 -43.2 L-139.3 -45.75 -141.05 -48.75 -143.15 -51.55 -143.95 -52.0 M-173.6 -46.6 L-146.25 -61.95 -145.7 -61.55 -145.1 -61.7 Q-144.45 -59.8 -139.5 -50.7 L-135.25 -42.8 -134.3 -40.4 Q-148.85 -32.6 -163.45 -24.85 -168.35 -21.95 -173.85 -19.95 -175.85 -19.2 -177.8 -18.7 L-178.2 -18.6 -178.8 -18.15 Q-182.15 -18.8 -184.7 -21.05 -187.0 -23.1 -188.6 -25.3 L-189.75 -26.95 -189.4 -27.95 -189.85 -32.15 Q-189.9 -34.8 -188.3 -37.2 -186.8 -39.55 -184.3 -40.9 L-178.05 -44.25 Q-175.85 -45.45 -173.6 -46.6 M-167.35 -34.15 L-166.6 -34.35 Q-164.7 -34.9 -161.4 -36.55 -158.05 -38.2 -153.35 -40.9 L-150.45 -42.35 Q-148.85 -43.2 -147.4 -44.0 -146.8 -44.35 -146.35 -44.6 L-145.35 -43.05 -166.95 -31.5 -170.0 -31.6 Q-172.95 -32.4 -173.3 -35.4 L-173.35 -36.05 -173.05 -37.1 Q-172.3 -38.6 -171.05 -39.75 L-161.6 -45.0 -151.75 -49.9 -151.3 -50.05 -149.9 -50.6 -149.6 -50.75 -148.7 -49.5 -148.95 -49.15 Q-149.15 -48.95 -148.95 -49.0 L-149.3 -48.8 -151.55 -47.7 Q-153.85 -46.6 -152.25 -47.5 -150.65 -48.45 -158.65 -44.25 L-168.6 -38.85 Q-170.7 -37.7 -170.8 -35.55 L-169.85 -34.0 -167.35 -34.15" fill="#000000" fill-rule="evenodd" stroke="none"/>
    <path d="M-138.25 -42.7 L-141.25 -40.65 -146.25 -37.85 Q-151.05 -35.1 -157.75 -32.8 -158.25 -32.55 -158.2 -33.2 -158.15 -34.1 -151.9 -37.4 -143.75 -41.8 -140.85 -43.8 -145.3 -51.8 -145.3 -51.15 -145.3 -51.75 -144.5 -51.95 L-143.95 -52.0 -143.15 -51.55 -141.05 -48.75 -139.3 -45.75 -137.9 -43.2 Q-137.9 -43.0 -138.25 -42.7 M-146.05 -45.5 Q-147.25 -44.45 -151.75 -42.2 -156.7 -39.6 -158.4 -38.75 L-158.95 -39.3 Q-156.3 -41.35 -146.9 -46.5 L-146.45 -46.1 -146.05 -45.5" fill="#dbd8d7" fill-rule="evenodd" stroke="none"/>
    <path d="M-107.25 -62.7 L-107.2 -63.25 -121.35 -64.0 -122.45 -64.1 -126.35 -64.3 -127.05 -64.35 -138.05 -64.95 -147.45 -47.1 -143.7 -38.5 -111.1 -36.7 -109.15 -36.75 Q-108.3 -42.05 -107.9 -48.6 L-107.85 -48.85 -107.55 -54.15 -107.35 -59.65 -107.3 -61.55 -107.25 -62.7 M-140.15 -42.7 L-143.15 -47.4 -134.9 -61.95 -111.45 -60.7 -111.35 -59.45 -111.5 -54.25 -111.6 -51.75 -111.9 -48.65 Q-112.45 -43.1 -113.5 -40.4 L-119.85 -40.65 -119.8 -41.6 Q-116.45 -41.75 -114.65 -42.95 -113.5 -45.65 -113.1 -48.6 L-112.9 -50.45 -112.85 -54.35 -113.2 -57.85 -113.4 -59.1 -113.65 -59.25 -114.15 -59.45 -115.5 -59.8 -118.15 -59.95 -121.35 -60.05 -121.75 -60.1 -122.5 -46.55 -122.7 -42.5 -122.8 -41.05 -139.6 -41.8 -140.15 -42.7 M-85.75 -44.85 L-76.7 -45.95 -76.0 -45.4 Q-90.0 -41.3 -105.5 -41.1 L-105.55 -41.15 -105.8 -41.3 -106.05 -36.65 -107.2 -34.8 -107.35 -34.35 -110.95 -34.4 -111.4 -34.05 -145.3 -36.15 -150.9 -48.05 -139.75 -67.8 -105.45 -65.55 -104.45 -64.6 -104.85 -57.05 -104.65 -57.05 -84.35 -55.25 -84.35 -54.35 -85.2 -54.35 -104.2 -54.0 -104.8 -54.0 -105.0 -54.0 -105.35 -48.9 -105.6 -45.05 -105.35 -45.05 -105.3 -45.0 Q-95.35 -44.1 -85.75 -44.85 M-134.35 -58.35 L-124.5 -57.7 -124.4 -58.65 -133.95 -59.1 -134.35 -58.35 M-137.35 -53.05 L-140.25 -47.95 -138.35 -44.55 -125.0 -43.45 Q-121.75 -44.65 -137.2 -45.25 L-138.55 -46.85 -137.5 -52.35 -137.35 -53.05 M-125.05 -48.8 L-124.7 -54.95 -124.65 -55.4 -134.85 -55.95 -135.3 -47.95 -125.1 -47.4 -125.05 -48.8" fill="#000000" fill-rule="evenodd" stroke="none"/>
    <path d="M-107.25 -62.7 L-110.75 -62.9 -111.2 -63.0 -112.7 -63.35 -117.7 -63.65 -118.2 -63.7 -121.35 -64.0 -107.2 -63.25 -107.25 -62.7 M-127.05 -64.35 L-132.25 -64.35 -136.7 -64.35 -137.05 -64.25 Q-138.4 -62.7 -139.35 -61.0 L-139.75 -60.3 -140.95 -58.25 -141.8 -56.85 Q-144.1 -52.9 -145.7 -48.6 L-145.8 -47.55 -145.75 -47.3 -145.05 -45.75 -144.95 -45.3 -143.4 -41.65 Q-142.9 -41.25 -142.25 -41.05 L-141.75 -40.9 Q-140.9 -40.85 -140.4 -41.75 L-140.3 -42.0 -140.15 -42.7 -139.6 -41.8 -122.8 -41.05 -122.7 -42.5 -121.2 -43.2 -118.2 -44.95 -116.45 -46.15 -114.65 -47.4 -114.25 -47.7 -114.1 -47.8 Q-113.7 -50.4 -113.55 -53.05 L-113.2 -57.85 -112.85 -54.35 -112.9 -50.45 -113.1 -48.6 Q-113.5 -45.65 -114.65 -42.95 -116.45 -41.75 -119.8 -41.6 L-119.85 -40.65 -113.5 -40.4 Q-112.45 -43.1 -111.9 -48.65 L-111.6 -51.75 -111.5 -54.25 -111.35 -59.45 Q-110.5 -58.4 -110.0 -56.9 -109.4 -55.25 -109.8 -53.35 L-110.15 -51.35 -110.25 -50.9 -110.9 -48.85 -110.95 -48.6 Q-111.0 -47.65 -111.4 -46.85 L-111.6 -46.4 Q-111.9 -45.45 -111.5 -45.15 -111.25 -44.95 -111.0 -44.95 L-110.7 -45.0 -110.5 -45.1 Q-110.2 -46.05 -110.05 -47.05 L-109.8 -48.55 -109.65 -49.0 -109.3 -50.8 -109.25 -51.3 -109.0 -52.25 -108.8 -53.3 Q-108.85 -54.4 -108.45 -55.25 -108.05 -56.15 -107.95 -57.2 L-107.8 -57.95 -107.35 -59.65 -107.55 -54.15 -107.85 -48.85 -107.9 -48.6 Q-108.3 -42.05 -109.15 -36.75 L-111.1 -36.7 -143.7 -38.5 -147.45 -47.1 -138.05 -64.95 -127.05 -64.35 M-121.35 -60.05 L-121.35 -59.95 -121.25 -59.65 Q-120.95 -58.75 -121.05 -57.7 L-121.2 -57.25 -121.5 -56.2 Q-121.65 -52.15 -122.2 -48.25 L-122.5 -46.55 -121.75 -60.1 -121.35 -60.05 M-124.8 -40.05 L-124.95 -40.25 -133.35 -40.85 -135.75 -40.7 -138.05 -40.2 -137.85 -39.8 -136.45 -39.2 -131.8 -39.1 -125.25 -38.3 -122.85 -38.05 -120.55 -37.8 -113.35 -37.2 Q-111.3 -37.05 -110.35 -38.75 -109.8 -39.8 -109.7 -41.3 -109.65 -41.7 -110.15 -42.95 L-110.9 -42.75 -111.7 -41.0 -111.95 -39.4 -113.15 -39.2 -119.85 -39.5 -124.8 -40.05 M-115.5 -44.8 Q-115.5 -45.15 -115.65 -45.25 L-115.9 -45.45 -117.45 -44.5 -119.0 -43.4 -118.65 -42.75 Q-115.55 -44.2 -115.5 -44.8" fill="#a29b99" fill-rule="evenodd" stroke="none"/>
    <path d="M-121.35 -64.0 L-118.2 -63.7 -117.7 -63.65 -112.7 -63.35 -111.2 -63.0 -110.75 -62.9 -107.25 -62.7 -107.3 -61.55 -107.35 -59.65 -107.8 -57.95 -107.95 -57.2 Q-108.05 -56.15 -108.45 -55.25 -108.85 -54.4 -108.8 -53.3 L-109.0 -52.25 -109.25 -51.3 -109.3 -50.8 -109.65 -49.0 -109.8 -48.55 -110.05 -47.05 Q-110.2 -46.05 -110.5 -45.1 L-110.7 -45.0 -111.0 -44.95 Q-111.25 -44.95 -111.5 -45.15 -111.9 -45.45 -111.6 -46.4 L-111.4 -46.85 Q-111.0 -47.65 -110.95 -48.6 L-110.9 -48.85 -110.25 -50.9 -110.15 -51.35 -109.8 -53.35 Q-109.4 -55.25 -110.0 -56.9 -110.5 -58.4 -111.35 -59.45 L-111.45 -60.7 -134.9 -61.95 -143.15 -47.4 -140.15 -42.7 -140.3 -42.0 -140.4 -41.75 Q-140.9 -40.85 -141.75 -40.9 L-142.25 -41.05 Q-142.9 -41.25 -143.4 -41.65 L-144.95 -45.3 -145.05 -45.75 -145.75 -47.3 -145.8 -47.55 -145.7 -48.6 Q-144.1 -52.9 -141.8 -56.85 L-140.95 -58.25 -139.75 -60.3 -139.35 -61.0 Q-138.4 -62.7 -137.05 -64.25 L-136.7 -64.35 -132.25 -64.35 -127.05 -64.35 -126.35 -64.3 -122.45 -64.1 -121.35 -64.0 M-121.35 -60.05 L-118.15 -59.95 -115.5 -59.8 -114.15 -59.45 -113.65 -59.25 -113.4 -59.1 -113.2 -57.85 -113.55 -53.05 Q-113.7 -50.4 -114.1 -47.8 L-114.25 -47.7 -114.65 -47.4 -116.45 -46.15 -118.2 -44.95 -121.2 -43.2 -122.7 -42.5 -122.5 -46.55 -122.2 -48.25 Q-121.65 -52.15 -121.5 -56.2 L-121.2 -57.25 -121.05 -57.7 Q-120.95 -58.75 -121.25 -59.65 L-121.35 -59.95 -121.35 -60.05" fill="#756c6a" fill-rule="evenodd" stroke="none"/>
    <path d="M-105.35 -48.9 L-105.0 -54.0 -104.8 -54.0 -104.2 -54.0 -98.5 -53.6 -97.8 -53.55 -88.3 -52.9 -87.85 -52.95 Q-87.3 -53.25 -87.3 -52.85 L-87.3 -52.6 -87.4 -52.3 -87.7 -51.6 Q-87.7 -50.9 -88.0 -50.45 -88.25 -50.1 -88.95 -50.1 L-93.25 -49.65 -95.75 -49.4 -96.0 -49.35 -97.25 -49.3 -99.8 -49.2 -105.35 -48.9 M-125.05 -48.8 L-125.6 -48.8 -128.85 -48.9 -130.35 -49.05 -134.1 -49.3 Q-134.75 -49.3 -134.75 -49.7 L-134.65 -50.95 -134.55 -51.45 -134.2 -54.2 -133.85 -54.95 -133.5 -54.95 -133.1 -55.0 -132.0 -55.2 -130.25 -55.1 -129.75 -55.1 -125.25 -54.95 -124.7 -54.95 -125.05 -48.8" fill="#8a64d9" fill-rule="evenodd" stroke="none"/>
    <path d="M-85.2 -54.35 L-85.45 -49.55 -85.75 -44.85 Q-95.35 -44.1 -105.3 -45.0 L-105.35 -45.05 -105.6 -45.05 -105.35 -48.9 -99.8 -49.2 -97.25 -49.3 -96.0 -49.35 -95.75 -49.4 -93.25 -49.65 -88.95 -50.1 Q-88.25 -50.1 -88.0 -50.45 -87.7 -50.9 -87.7 -51.6 L-87.4 -52.3 -87.3 -52.6 -87.3 -52.85 Q-87.3 -53.25 -87.85 -52.95 L-88.3 -52.9 -97.8 -53.55 -98.5 -53.6 -104.2 -54.0 -85.2 -54.35 M-124.7 -54.95 L-125.25 -54.95 -129.75 -55.1 -130.25 -55.1 -132.0 -55.2 -133.1 -55.0 -133.5 -54.95 -133.85 -54.95 -134.2 -54.2 -134.55 -51.45 -134.65 -50.95 -134.75 -49.7 Q-134.75 -49.3 -134.1 -49.3 L-130.35 -49.05 -128.85 -48.9 -125.6 -48.8 -125.05 -48.8 -125.1 -47.4 -135.3 -47.95 -134.85 -55.95 -124.65 -55.4 -124.7 -54.95" fill="#6633cc" fill-rule="evenodd" stroke="none"/>
    <path d="M-124.8 -40.05 L-119.85 -39.5 -113.15 -39.2 -111.95 -39.4 -111.7 -41.0 -110.9 -42.75 -110.15 -42.95 Q-109.65 -41.7 -109.7 -41.3 -109.8 -39.8 -110.35 -38.75 -111.3 -37.05 -113.35 -37.2 L-120.55 -37.8 -122.85 -38.05 -125.25 -38.3 -131.8 -39.1 -136.45 -39.2 -137.85 -39.8 -138.05 -40.2 -135.75 -40.7 -133.35 -40.85 -124.95 -40.25 -124.8 -40.05 M-115.5 -44.8 Q-115.55 -44.2 -118.65 -42.75 L-119.0 -43.4 -117.45 -44.5 -115.9 -45.45 -115.65 -45.25 Q-115.5 -45.15 -115.5 -44.8" fill="#dbd8d7" fill-rule="evenodd" stroke="none"/>
    <path d="M-10.4 -40.55 Q-10.05 -40.1 -10.55 -39.95 L-21.75 -39.85 -24.5 -39.9 -24.55 -39.9 -28.75 -40.25 -28.8 -40.3 Q-29.25 -40.55 -30.55 -43.6 L-32.25 -47.2 -30.1 -47.95 -24.55 -49.15 -21.9 -49.7 -8.2 -51.65 5.7 -53.05 19.65 -54.45 33.7 -55.75 59.1 -58.4 53.25 -56.5 52.35 -56.2 50.05 -55.65 45.35 -54.85 33.1 -54.1 13.45 -52.05 7.2 -51.25 -24.55 -47.1 -30.3 -46.35 -28.75 -42.65 -28.5 -42.65 -12.3 -42.05 -10.4 -40.55 M41.4 -40.15 L42.7 -40.2 Q54.65 -48.4 62.35 -60.35 L59.0 -61.05 62.65 -61.2 63.15 -60.7 Q60.1 -55.0 57.8 -52.65 L49.75 -44.6 Q44.05 -38.9 40.6 -39.6 L37.95 -39.25 24.55 -38.55 Q5.85 -38.35 -12.85 -39.2 L31.2 -40.0 41.4 -40.15 M89.0 -68.95 L1.55 -63.7 -40.3 -60.35 -39.95 -60.0 -99.8 -55.75 -99.6 -11.85 -97.65 -11.75 -83.95 -11.1 -81.05 -8.75 -80.8 -8.15 -78.7 -2.5 -73.55 10.7 -71.1 16.8 -68.35 23.5 -46.5 22.8 Q-46.25 20.35 -46.5 14.25 L-46.65 10.25 -47.55 9.9 -51.9 6.65 Q-59.3 0.65 -66.6 -8.6 L-64.95 -11.65 -58.95 -11.6 -47.4 -12.0 Q-32.85 -4.55 -26.75 -1.65 L-24.55 -0.25 Q-22.3 1.15 -19.8 2.25 L-7.9 7.15 3.95 11.75 Q5.5 12.15 9.85 11.2 14.15 10.2 27.8 5.05 L28.95 4.6 26.75 4.05 18.75 1.45 Q5.6 -3.85 -3.6 -7.85 -12.85 -11.85 -16.05 -14.7 L-18.75 -17.0 -18.8 -18.25 Q-18.65 -19.0 -17.3 -19.75 L-14.9 -20.8 -11.85 -21.85 Q-4.45 -24.3 3.25 -26.0 L9.5 -27.1 15.7 -26.35 Q32.95 -23.7 50.35 -20.45 L72.55 -16.25 123.7 -8.8 Q124.9 -9.3 126.9 -9.4 128.85 -9.5 139.1 -13.2 149.25 -16.9 157.3 -22.85 120.95 -30.15 84.2 -33.75 L72.1 -35.8 57.35 -38.7 Q57.7 -39.75 58.4 -40.45 59.35 -41.4 60.7 -41.85 L69.75 -43.05 78.9 -43.8 92.65 -43.9 112.95 -43.7 139.95 -43.2 153.0 -42.65 166.05 -42.45 179.1 -42.35 192.0 -42.5 194.05 -43.4 Q215.5 -53.05 235.1 -79.1 L229.55 -79.05 206.7 -76.2 143.2 -72.3 89.0 -68.95 M37.1 -18.3 L43.4 -19.7 33.2 -20.95 9.0 -25.85 6.65 -25.8 Q2.9 -25.6 -0.65 -24.6 -7.95 -22.7 -15.0 -19.5 L-15.8 -17.3 Q-14.45 -16.3 -13.0 -15.5 L-12.15 -15.1 Q-7.5 -12.85 0.55 -9.75 L5.25 -10.85 Q20.4 -14.2 26.8 -16.2 L37.1 -18.3 M5.25 -8.45 Q12.45 -5.1 20.15 -2.25 L40.65 4.4 42.2 4.95 41.25 5.25 38.95 6.0 Q21.9 11.3 11.25 14.15 L4.15 14.8 Q1.75 14.75 -0.6 13.55 -6.25 10.45 -12.6 8.3 -15.85 7.2 -18.95 5.75 L-24.55 3.05 -27.8 1.4 -28.25 1.05 -29.35 0.45 -28.85 0.35 -29.4 0.4 -30.65 0.0 -31.15 0.0 Q-32.2 0.2 -33.0 0.65 L-51.65 1.85 -48.85 4.3 -43.8 8.6 -43.8 25.45 -71.1 26.25 -71.9 26.25 Q-73.85 17.9 -77.15 9.9 L-79.75 4.15 -99.75 3.95 -100.65 -9.6 -102.75 -11.45 -104.65 -54.85 -100.45 -60.5 -71.1 -63.0 -53.15 -64.65 -48.85 -64.9 -4.95 -66.8 240.75 -82.05 Q236.5 -73.65 226.45 -61.6 216.4 -49.6 192.0 -40.25 L183.4 -40.0 154.9 -40.0 Q137.5 -40.15 117.5 -40.65 L107.2 -40.95 100.2 -38.1 96.45 -36.55 91.8 -34.7 Q119.4 -30.4 147.0 -27.1 L167.3 -24.7 166.85 -24.35 168.0 -24.25 166.6 -24.25 Q157.95 -18.2 154.1 -16.25 149.2 -13.85 144.15 -11.75 L137.1 -9.0 128.05 -6.1 130.05 -6.85 124.25 -5.15 102.95 -8.8 68.6 -15.1 47.6 -18.95 42.55 -17.05 Q36.35 -14.9 29.8 -13.55 17.6 -10.7 5.25 -8.45 M96.45 -38.65 L101.7 -41.2 72.8 -41.9 58.25 -39.95 70.55 -37.95 88.8 -35.0 96.45 -38.65 M-71.15 -36.2 Q-71.6 -37.45 -72.55 -38.5 L-72.85 -38.8 Q-74.9 -40.75 -77.8 -40.75 -80.65 -40.75 -82.7 -38.8 -84.7 -36.85 -84.7 -34.1 -84.7 -32.4 -83.95 -30.95 L-82.95 -29.6 -82.7 -29.35 Q-80.65 -27.4 -77.8 -27.4 -74.9 -27.4 -72.85 -29.35 -71.55 -30.6 -71.1 -32.25 -70.85 -33.1 -70.85 -34.1 L-71.1 -35.95 -71.15 -36.2 M-86.9 -32.9 Q-86.9 -36.6 -84.15 -39.25 -81.4 -41.9 -77.6 -41.9 -73.8 -41.9 -71.1 -39.35 L-71.0 -39.25 Q-68.6 -36.95 -68.3 -33.9 L-68.25 -32.9 Q-68.25 -29.2 -71.0 -26.55 L-71.1 -26.45 Q-73.8 -23.95 -77.6 -23.95 -81.4 -23.95 -84.15 -26.55 -85.4 -27.8 -86.1 -29.2 -86.9 -30.9 -86.9 -32.9 M-81.35 1.45 L-80.9 1.45 -85.6 -9.8 -97.7 -9.7 -97.5 -6.25 -97.05 1.1 -81.35 1.45 M-52.45 -34.95 L-52.4 -34.9 -46.25 -33.55 Q-45.8 -33.7 -39.9 -31.75 L-39.9 -31.45 -24.15 -25.65 -23.95 -25.35 -24.55 -24.25 -25.1 -23.45 -26.85 -21.45 -28.3 -20.3 Q-29.4 -19.55 -30.65 -19.1 L-32.95 -18.3 -36.2 -18.8 -39.8 -20.1 -39.8 -19.95 -44.85 -21.8 -47.6 -22.85 -56.55 -26.4 -63.8 -29.45 -61.45 -36.05 -60.0 -36.5 -52.45 -34.95 M-31.5 -21.8 L-30.85 -22.2 -28.35 -23.65 -36.25 -26.55 -46.8 -31.25 -59.35 -34.1 -60.4 -30.75 -57.85 -29.7 -47.25 -25.05 -39.15 -22.75 -34.45 -20.9 Q-32.95 -21.1 -31.5 -21.8 M-62.65 -17.05 L-61.65 -17.5 -60.9 -18.0 -66.15 -22.45 -72.0 -18.75 -71.1 -18.05 -70.55 -17.65 Q-68.15 -16.2 -65.45 -16.35 L-62.65 -17.05 M-65.85 -24.45 L-57.85 -17.4 -59.05 -15.4 -60.35 -14.85 -63.85 -13.95 Q-68.05 -13.4 -71.1 -15.65 L-72.45 -16.85 -74.0 -18.8 -74.2 -19.8 Q-72.55 -20.15 -71.1 -20.8 -69.3 -21.65 -67.75 -23.05 -66.9 -23.9 -65.85 -24.45 M-43.4 -6.25 L-45.15 -7.3 -45.45 -7.45 Q-46.2 -7.85 -47.75 -9.3 L-48.25 -9.8 -63.25 -10.25 -63.55 -9.4 -61.15 -6.0 -54.45 -0.65 -53.7 -0.65 -45.15 -0.6 -39.55 -1.3 -33.2 -1.65 -42.0 -5.75 -42.0 -5.65 -43.4 -6.25 M-47.65 -12.15 L-47.6 -12.1 -47.85 -12.1 -47.65 -12.15 M-41.5 2.85 L-41.7 2.95 -43.8 3.15 -41.5 2.85 M-35.55 1.55 L-33.75 1.15 -34.2 1.5 -35.55 1.55" fill="#000000" fill-rule="evenodd" stroke="none"/>
    <path d="M53.25 -56.5 L59.1 -58.4 33.7 -55.75 19.65 -54.45 5.7 -53.05 -8.2 -51.65 -21.9 -49.7 -24.55 -49.15 -30.1 -47.95 -32.25 -47.2 -30.55 -43.6 Q-29.25 -40.55 -28.8 -40.3 L-28.75 -40.25 -24.55 -39.9 -24.5 -39.9 -21.75 -39.85 -10.55 -39.95 Q-10.05 -40.1 -10.4 -40.55 L-5.6 -40.5 3.0 -40.45 11.6 -40.4 18.45 -40.25 25.55 -40.1 27.6 -40.05 31.2 -40.0 -12.85 -39.2 Q5.85 -38.35 24.55 -38.55 L37.95 -39.25 40.6 -39.6 Q44.05 -38.9 49.75 -44.6 L57.8 -52.65 Q60.1 -55.0 63.15 -60.7 L62.65 -61.2 59.0 -61.05 62.35 -60.35 Q54.65 -48.4 42.7 -40.2 L41.4 -40.15 41.75 -40.2 42.5 -40.4 Q46.1 -43.1 49.3 -46.65 L52.65 -50.95 Q54.35 -53.6 55.15 -56.35 L53.25 -56.5 M89.0 -68.95 L76.4 -67.75 72.35 -67.45 65.75 -66.95 52.6 -65.7 11.85 -61.75 9.1 -61.35 0.5 -60.4 -0.05 -60.4 Q-0.8 -60.4 -1.3 -60.0 L-0.05 -59.9 0.75 -59.9 4.8 -60.05 14.65 -60.6 23.75 -61.0 28.3 -61.1 33.1 -61.3 38.15 -61.5 47.5 -62.25 49.05 -62.4 51.3 -62.55 60.95 -62.95 64.2 -62.85 64.5 -62.75 Q65.55 -62.3 66.15 -61.5 L66.75 -60.5 66.9 -60.2 Q67.25 -60.05 67.0 -59.55 L66.9 -59.25 Q66.65 -58.5 67.05 -58.25 L67.3 -58.15 69.85 -58.05 72.35 -58.25 81.95 -59.2 87.3 -59.6 96.65 -60.2 98.65 -60.35 107.75 -61.0 110.05 -61.1 117.15 -61.3 120.15 -61.35 129.5 -61.35 134.85 -61.3 144.2 -60.95 147.75 -60.8 154.8 -60.35 157.1 -60.15 165.95 -59.35 175.55 -58.35 185.15 -57.15 194.25 -55.85 198.05 -55.2 200.9 -54.5 201.15 -54.3 Q201.55 -53.7 202.6 -53.75 L203.1 -53.9 Q204.35 -54.35 205.15 -54.85 L206.1 -55.45 208.15 -56.7 208.75 -56.95 210.9 -58.4 213.25 -59.95 Q215.0 -61.0 216.55 -62.45 L220.1 -65.5 222.05 -67.1 222.7 -67.7 Q224.45 -69.25 225.9 -71.2 L226.5 -71.85 Q227.05 -72.25 227.35 -72.95 227.8 -74.05 228.6 -74.95 L228.9 -75.3 228.75 -75.65 228.55 -76.0 Q228.1 -76.45 227.15 -76.4 L224.9 -76.25 222.6 -76.1 221.35 -76.0 219.05 -75.75 218.55 -75.7 216.3 -75.5 215.5 -75.45 212.0 -75.1 207.7 -74.8 206.4 -74.75 196.8 -74.1 173.3 -73.0 167.45 -72.85 156.6 -72.6 143.2 -72.3 206.7 -76.2 229.55 -79.05 235.1 -79.1 Q215.5 -53.05 194.05 -43.4 L192.0 -42.5 179.1 -42.35 166.05 -42.45 153.0 -42.65 139.95 -43.2 112.95 -43.7 92.65 -43.9 78.9 -43.8 69.75 -43.05 60.7 -41.85 Q59.35 -41.4 58.4 -40.45 57.7 -39.75 57.35 -38.7 L72.1 -35.8 84.2 -33.75 Q120.95 -30.15 157.3 -22.85 149.25 -16.9 139.1 -13.2 128.85 -9.5 126.9 -9.4 124.9 -9.3 123.7 -8.8 L72.55 -16.25 50.35 -20.45 Q32.95 -23.7 15.7 -26.35 L9.5 -27.1 3.25 -26.0 Q-4.45 -24.3 -11.85 -21.85 L-14.9 -20.8 -17.3 -19.75 Q-18.65 -19.0 -18.8 -18.25 L-18.75 -17.0 -16.05 -14.7 Q-12.85 -11.85 -3.6 -7.85 5.6 -3.85 18.75 1.45 L26.75 4.05 28.95 4.6 27.8 5.05 Q14.15 10.2 9.85 11.2 5.5 12.15 3.95 11.75 L-7.9 7.15 -19.8 2.25 Q-22.3 1.15 -24.55 -0.25 L-26.75 -1.65 Q-32.85 -4.55 -47.4 -12.0 L-58.95 -11.6 -64.95 -11.65 -66.6 -8.6 Q-59.3 0.65 -51.9 6.65 L-47.55 9.9 -46.65 10.25 -46.5 14.25 Q-46.25 20.35 -46.5 22.8 L-68.35 23.5 -71.1 16.8 -73.55 10.7 -78.7 -2.5 -80.8 -8.15 -81.05 -8.75 -83.95 -11.1 -97.65 -11.75 -99.6 -11.85 -99.8 -55.75 -39.95 -60.0 -40.3 -60.35 1.55 -63.7 89.0 -68.95 M36.95 -37.3 L26.35 -37.0 Q19.25 -36.65 12.15 -36.65 L1.3 -36.4 -6.35 -36.0 -7.1 -35.95 -8.9 -35.9 -9.9 -35.6 Q-9.5 -35.05 -8.4 -35.0 L-8.05 -34.9 Q-4.0 -33.55 0.8 -32.85 L3.05 -32.45 13.95 -30.95 39.2 -28.25 44.05 -27.65 Q68.65 -24.85 93.1 -21.25 L105.0 -19.65 109.05 -19.05 111.3 -18.7 121.15 -17.6 122.7 -17.45 124.2 -17.35 127.0 -17.1 128.25 -17.0 132.55 -16.9 133.05 -16.85 136.1 -16.75 137.85 -16.85 138.15 -16.95 139.4 -17.3 139.9 -17.4 Q142.8 -17.85 145.5 -18.8 L146.15 -19.05 147.0 -19.4 147.5 -19.55 Q147.8 -19.6 148.0 -19.75 L148.8 -20.1 149.3 -20.7 149.55 -20.9 Q150.3 -21.15 150.15 -22.2 L149.5 -22.9 145.7 -24.15 140.9 -24.85 135.55 -25.75 134.6 -25.95 124.95 -27.1 115.35 -28.3 105.5 -29.35 104.5 -29.45 95.05 -31.1 92.1 -31.55 91.35 -31.6 81.95 -33.05 80.95 -33.25 71.6 -34.7 70.1 -35.0 69.3 -35.1 66.8 -35.5 64.25 -35.95 63.75 -36.0 62.45 -36.25 62.0 -36.4 59.45 -36.85 55.9 -37.65 55.4 -37.8 Q54.6 -38.1 54.65 -39.25 L53.4 -38.75 Q53.15 -38.6 52.9 -38.55 L52.4 -38.5 50.6 -38.15 48.85 -38.05 46.8 -37.95 46.3 -37.9 44.8 -37.9 Q44.15 -37.95 43.9 -37.65 L43.5 -37.55 39.75 -37.4 36.95 -37.3 M2.8 -2.3 L0.25 -3.4 Q-2.75 -4.55 -5.8 -6.0 L-6.55 -6.25 Q-11.05 -7.7 -15.45 -9.6 L-20.95 -11.9 -21.5 -12.1 -23.3 -12.75 Q-25.45 -13.75 -27.8 -14.4 L-28.1 -14.5 -30.15 -15.2 -31.9 -16.0 -33.6 -16.6 -33.9 -16.7 -36.2 -17.4 -37.15 -17.35 -36.8 -16.8 -36.45 -16.25 -35.05 -14.35 -31.8 -10.45 -28.6 -6.95 -28.0 -6.3 Q-26.2 -4.1 -24.3 -2.5 L-23.45 -1.7 -23.05 -1.35 -20.5 0.35 Q-16.2 2.75 -11.6 4.65 L-10.85 5.0 -2.3 8.9 -1.45 9.25 -1.0 9.4 -0.5 9.6 0.8 9.95 1.7 10.15 4.2 10.6 Q6.0 10.85 5.7 10.0 5.4 9.1 7.6 8.7 L8.85 8.55 14.45 7.6 15.2 7.4 19.5 6.35 20.25 6.2 22.3 5.7 Q21.5 4.75 19.75 4.4 L18.4 3.85 18.05 3.7 17.75 3.55 Q15.85 2.45 13.7 2.0 L13.15 1.8 Q9.85 0.3 6.35 -0.9 L2.8 -2.3 M12.35 -28.45 L34.3 -25.0 Q48.65 -21.85 62.9 -19.45 L90.35 -15.05 111.85 -11.75 122.4 -10.35 Q124.6 -10.35 128.2 -11.35 131.8 -12.3 135.05 -14.25 L135.2 -14.95 Q109.45 -17.45 88.45 -20.3 L44.5 -26.6 Q21.5 -30.05 12.35 -28.45 M64.1 -53.6 L57.2 -42.4 Q74.9 -45.45 92.2 -45.35 L127.15 -45.4 Q144.75 -45.55 161.05 -44.45 L187.7 -43.3 Q196.4 -44.75 200.8 -52.05 L200.6 -52.65 173.3 -56.7 146.05 -58.95 Q132.65 -59.55 119.2 -59.4 L91.5 -58.3 Q77.2 -57.3 64.1 -53.6 M-87.4 -28.15 L-87.15 -27.6 Q-84.8 -22.5 -79.05 -21.4 -74.5 -20.35 -71.1 -23.05 L-70.3 -23.8 Q-66.35 -27.65 -66.25 -31.9 -66.25 -34.85 -68.1 -38.05 L-69.7 -39.75 Q-67.5 -36.45 -67.55 -33.1 -67.65 -30.3 -69.45 -27.4 -70.2 -26.15 -71.1 -25.2 -75.05 -21.2 -81.25 -23.95 -85.25 -25.75 -86.85 -28.6 -88.7 -32.05 -87.05 -37.0 -89.1 -32.45 -87.4 -28.15 M-88.5 -26.6 L-88.7 -26.9 Q-91.3 -31.45 -89.1 -36.4 -86.55 -42.15 -80.2 -43.3 -75.25 -44.25 -71.1 -41.9 L-70.95 -41.8 Q-66.65 -45.5 -61.9 -48.25 L-52.4 -54.05 -48.25 -56.8 -46.8 -57.85 -52.05 -57.55 -71.1 -56.05 -77.7 -55.4 -97.9 -54.15 -98.3 -40.25 Q-98.45 -28.55 -98.2 -17.1 L-98.5 -13.1 -96.7 -12.0 -93.45 -14.6 -90.0 -18.05 -86.3 -22.4 Q-87.2 -24.55 -88.5 -26.6 M-86.9 -32.9 Q-86.9 -30.9 -86.1 -29.2 -85.4 -27.8 -84.15 -26.55 -81.4 -23.95 -77.6 -23.95 -73.8 -23.95 -71.1 -26.45 L-71.0 -26.55 Q-68.25 -29.2 -68.25 -32.9 L-68.3 -33.9 Q-68.6 -36.95 -71.0 -39.25 L-71.1 -39.35 Q-73.8 -41.9 -77.6 -41.9 -81.4 -41.9 -84.15 -39.25 -86.9 -36.6 -86.9 -32.9 M-83.05 -11.65 L-80.4 -10.95 Q-75.4 -0.1 -71.5 11.05 L-71.1 12.3 -70.85 13.05 -67.35 22.8 -54.65 22.25 -62.9 10.6 -71.1 -0.9 -71.6 -1.65 -72.0 -2.3 -75.0 -6.85 -75.5 -7.55 -75.75 -7.9 -79.5 -13.0 -82.75 -12.85 -83.05 -11.65 M-53.0 -41.5 L-58.35 -37.4 -52.3 -36.1 -16.4 -30.65 -45.55 -47.55 Q-46.9 -46.25 -52.35 -42.0 L-53.0 -41.5 M-52.45 -34.95 L-60.0 -36.5 -61.45 -36.05 -63.8 -29.45 -56.55 -26.4 -47.6 -22.85 -44.85 -21.8 -39.8 -19.95 -39.8 -20.1 -36.2 -18.8 -32.95 -18.3 -30.65 -19.1 Q-29.4 -19.55 -28.3 -20.3 L-26.85 -21.45 -25.1 -23.45 -24.55 -24.25 -23.95 -25.35 -24.15 -25.65 -39.9 -31.45 -39.9 -31.75 Q-45.8 -33.7 -46.25 -33.55 L-52.4 -34.9 -52.45 -34.95 M-57.05 -25.75 L-61.15 -27.35 -61.4 -26.55 -61.4 -26.2 -38.2 -8.05 -46.3 -20.95 Q-47.7 -22.05 -55.85 -25.25 L-57.05 -25.75 M-63.95 -23.75 L-61.85 -21.95 -55.95 -16.3 -58.9 -13.4 -54.65 -13.55 -55.45 -14.15 -55.2 -14.7 -54.8 -15.0 -52.9 -13.6 -46.65 -13.75 -47.7 -14.95 -50.3 -17.15 -57.45 -22.4 -59.15 -23.65 Q-61.65 -25.35 -64.25 -26.55 L-64.25 -24.35 -63.95 -23.75 M-65.85 -24.45 Q-66.9 -23.9 -67.75 -23.05 -69.3 -21.65 -71.1 -20.8 -72.55 -20.15 -74.2 -19.8 L-74.0 -18.8 -72.45 -16.85 -71.1 -15.65 Q-68.05 -13.4 -63.85 -13.95 L-60.35 -14.85 -59.05 -15.4 -57.85 -17.4 -65.85 -24.45 M-77.5 -13.85 L-77.55 -12.3 -71.1 -3.75 Q-67.85 0.8 -64.85 5.5 -59.15 14.3 -52.4 22.15 L-48.1 22.5 -48.85 10.35 Q-56.65 5.25 -62.8 -1.65 -65.9 -5.05 -67.85 -8.95 L-65.15 -12.2 Q-66.5 -13.0 -68.15 -12.6 L-71.1 -12.3 -72.6 -12.45 Q-74.4 -12.65 -75.75 -13.55 L-76.8 -14.1 -77.5 -13.85 M-47.65 -12.15 L-47.85 -12.1 -47.6 -12.1 -47.65 -12.15" fill="#6633cc" fill-rule="evenodd" stroke="none"/>
    <path d="M143.2 -72.3 L156.6 -72.6 167.45 -72.85 173.3 -73.0 196.8 -74.1 206.4 -74.75 207.7 -74.8 212.0 -75.1 215.5 -75.45 216.3 -75.5 218.55 -75.7 219.05 -75.75 221.35 -76.0 222.6 -76.1 224.9 -76.25 227.15 -76.4 Q228.1 -76.45 228.55 -76.0 L228.75 -75.65 228.9 -75.3 228.6 -74.95 Q227.8 -74.05 227.35 -72.95 227.05 -72.25 226.5 -71.85 L225.9 -71.2 Q224.45 -69.25 222.7 -67.7 L222.05 -67.1 220.1 -65.5 216.55 -62.45 Q215.0 -61.0 213.25 -59.95 L210.9 -58.4 208.75 -56.95 208.15 -56.7 206.1 -55.45 205.15 -54.85 Q204.35 -54.35 203.1 -53.9 L202.6 -53.75 Q201.55 -53.7 201.15 -54.3 L200.9 -54.5 198.05 -55.2 194.25 -55.85 185.15 -57.15 175.55 -58.35 165.95 -59.35 157.1 -60.15 154.8 -60.35 147.75 -60.8 144.2 -60.95 134.85 -61.3 129.5 -61.35 120.15 -61.35 117.15 -61.3 110.05 -61.1 107.75 -61.0 98.65 -60.35 96.65 -60.2 87.3 -59.6 81.95 -59.2 72.35 -58.25 69.85 -58.05 67.3 -58.15 67.05 -58.25 Q66.65 -58.5 66.9 -59.25 L67.0 -59.55 Q67.25 -60.05 66.9 -60.2 L66.75 -60.5 66.15 -61.5 Q65.55 -62.3 64.5 -62.75 L64.2 -62.85 60.95 -62.95 51.3 -62.55 49.05 -62.4 47.5 -62.25 38.15 -61.5 33.1 -61.3 28.3 -61.1 23.75 -61.0 14.65 -60.6 4.8 -60.05 0.75 -59.9 -0.05 -59.9 -1.3 -60.0 Q-0.8 -60.4 -0.05 -60.4 L0.5 -60.4 9.1 -61.35 11.85 -61.75 52.6 -65.7 65.75 -66.95 72.35 -67.45 76.4 -67.75 89.0 -68.95 143.2 -72.3 M36.95 -37.3 L39.75 -37.4 43.5 -37.55 43.9 -37.65 Q44.15 -37.95 44.8 -37.9 L46.3 -37.9 46.8 -37.95 48.85 -38.05 50.6 -38.15 52.4 -38.5 52.9 -38.55 Q53.15 -38.6 53.4 -38.75 L54.65 -39.25 Q54.6 -38.1 55.4 -37.8 L55.9 -37.65 59.45 -36.85 62.0 -36.4 62.45 -36.25 63.75 -36.0 64.25 -35.95 66.8 -35.5 69.3 -35.1 70.1 -35.0 71.6 -34.7 80.95 -33.25 81.95 -33.05 91.35 -31.6 92.1 -31.55 95.05 -31.1 104.5 -29.45 105.5 -29.35 115.35 -28.3 124.95 -27.1 134.6 -25.95 135.55 -25.75 140.9 -24.85 145.7 -24.15 149.5 -22.9 150.15 -22.2 Q150.3 -21.15 149.55 -20.9 L149.3 -20.7 148.8 -20.1 148.0 -19.75 Q147.8 -19.6 147.5 -19.55 L147.0 -19.4 146.15 -19.05 145.5 -18.8 Q142.8 -17.85 139.9 -17.4 L139.4 -17.3 138.15 -16.95 137.85 -16.85 136.1 -16.75 133.05 -16.85 132.55 -16.9 128.25 -17.0 127.0 -17.1 124.2 -17.35 122.7 -17.45 121.15 -17.6 111.3 -18.7 109.05 -19.05 105.0 -19.65 93.1 -21.25 Q68.65 -24.85 44.05 -27.65 L39.2 -28.25 13.95 -30.95 3.05 -32.45 0.8 -32.85 Q-4.0 -33.55 -8.05 -34.9 L-8.4 -35.0 Q-9.5 -35.05 -9.9 -35.6 L-8.9 -35.9 -7.1 -35.95 -6.35 -36.0 1.3 -36.4 12.15 -36.65 Q19.25 -36.65 26.35 -37.0 L36.95 -37.3 M2.8 -2.3 L6.35 -0.9 Q9.85 0.3 13.15 1.8 L13.7 2.0 Q15.85 2.45 17.75 3.55 L18.05 3.7 18.4 3.85 19.75 4.4 Q21.5 4.75 22.3 5.7 L20.25 6.2 19.5 6.35 15.2 7.4 14.45 7.6 8.85 8.55 7.6 8.7 Q5.4 9.1 5.7 10.0 6.0 10.85 4.2 10.6 L1.7 10.15 0.8 9.95 -0.5 9.6 -1.0 9.4 -1.45 9.25 -2.3 8.9 -10.85 5.0 -11.6 4.65 Q-16.2 2.75 -20.5 0.35 L-23.05 -1.35 -23.45 -1.7 -24.3 -2.5 Q-26.2 -4.1 -28.0 -6.3 L-28.6 -6.95 -31.8 -10.45 -35.05 -14.35 -36.45 -16.25 -36.8 -16.8 -37.15 -17.35 -36.2 -17.4 -33.9 -16.7 -33.6 -16.6 -31.9 -16.0 -30.15 -15.2 -28.1 -14.5 -27.8 -14.4 Q-25.45 -13.75 -23.3 -12.75 L-21.5 -12.1 -20.95 -11.9 -15.45 -9.6 Q-11.05 -7.7 -6.55 -6.25 L-5.8 -6.0 Q-2.75 -4.55 0.25 -3.4 L2.8 -2.3 M-87.4 -28.15 Q-89.1 -32.45 -87.05 -37.0 -88.7 -32.05 -86.85 -28.6 -85.25 -25.75 -81.25 -23.95 -75.05 -21.2 -71.1 -25.2 -70.2 -26.15 -69.45 -27.4 -67.65 -30.3 -67.55 -33.1 -67.5 -36.45 -69.7 -39.75 L-68.1 -38.05 Q-66.25 -34.85 -66.25 -31.9 -66.35 -27.65 -70.3 -23.8 L-71.1 -23.05 Q-74.5 -20.35 -79.05 -21.4 -84.8 -22.5 -87.15 -27.6 L-87.4 -28.15 M-53.0 -41.5 L-52.35 -42.0 Q-46.9 -46.25 -45.55 -47.55 L-16.4 -30.65 -52.3 -36.1 -58.35 -37.4 -53.0 -41.5 M-57.05 -25.75 L-55.85 -25.25 Q-47.7 -22.05 -46.3 -20.95 L-38.2 -8.05 -61.4 -26.2 -61.4 -26.55 -61.15 -27.35 -57.05 -25.75 M-77.5 -13.85 L-76.8 -14.1 -75.75 -13.55 Q-74.4 -12.65 -72.6 -12.45 L-71.1 -12.3 -68.15 -12.6 Q-66.5 -13.0 -65.15 -12.2 L-67.85 -8.95 Q-65.9 -5.05 -62.8 -1.65 -56.65 5.25 -48.85 10.35 L-48.1 22.5 -52.4 22.15 Q-59.15 14.3 -64.85 5.5 -67.85 0.8 -71.1 -3.75 L-77.55 -12.3 -77.5 -13.85" fill="#8a64d9" fill-rule="evenodd" stroke="none"/>
    <path d="M-10.4 -40.55 L-12.3 -42.05 -28.5 -42.65 -28.85 -43.85 Q-29.0 -44.65 -28.1 -44.8 L-27.7 -44.95 -26.85 -45.25 -21.0 -46.55 Q-13.25 -48.3 -5.1 -49.4 L-3.3 -49.6 -1.55 -49.9 7.2 -51.25 13.45 -52.05 33.1 -54.1 45.35 -54.85 50.05 -55.65 52.35 -56.2 53.25 -56.5 55.15 -56.35 Q54.35 -53.6 52.65 -50.95 L49.3 -46.65 Q46.1 -43.1 42.5 -40.4 L41.75 -40.2 41.4 -40.15 31.2 -40.0 27.6 -40.05 25.55 -40.1 18.45 -40.25 11.6 -40.4 3.0 -40.45 -5.6 -40.5 -10.4 -40.55 M-13.0 -15.5 L-12.15 -16.3 Q-9.9 -17.45 -7.3 -18.25 L-2.7 -19.65 0.85 -20.8 2.25 -21.3 5.35 -22.25 6.4 -22.55 7.1 -22.75 7.35 -22.8 9.4 -22.8 18.25 -22.05 21.5 -21.75 30.1 -20.2 37.1 -18.3 26.8 -16.2 Q20.4 -14.2 5.25 -10.85 L0.55 -9.75 Q-7.5 -12.85 -12.15 -15.1 L-13.0 -15.5 M12.35 -28.45 Q21.5 -30.05 44.5 -26.6 L88.45 -20.3 Q109.45 -17.45 135.2 -14.95 L135.05 -14.25 Q131.8 -12.3 128.2 -11.35 124.6 -10.35 122.4 -10.35 L111.85 -11.75 90.35 -15.05 62.9 -19.45 Q48.65 -21.85 34.3 -25.0 L12.35 -28.45 M70.55 -37.95 Q70.15 -38.1 69.85 -38.3 70.4 -39.35 71.85 -39.55 L72.85 -39.75 75.45 -40.35 75.9 -40.35 78.2 -40.2 96.45 -38.65 88.8 -35.0 70.55 -37.95 M64.1 -53.6 Q77.2 -57.3 91.5 -58.3 L119.2 -59.4 Q132.65 -59.55 146.05 -58.95 L173.3 -56.7 200.6 -52.65 200.8 -52.05 Q196.4 -44.75 187.7 -43.3 L161.05 -44.45 Q144.75 -45.55 127.15 -45.4 L92.2 -45.35 Q74.9 -45.45 57.2 -42.4 L64.1 -53.6 M-82.95 -29.6 L-82.9 -31.75 -82.35 -33.4 Q-81.9 -34.25 -81.0 -34.7 -80.3 -35.05 -79.65 -35.5 -77.6 -36.9 -75.15 -36.95 L-73.2 -36.8 -71.35 -36.3 -71.15 -36.2 -71.1 -35.95 -70.85 -34.1 Q-70.85 -33.1 -71.1 -32.25 -71.55 -30.6 -72.85 -29.35 -74.9 -27.4 -77.8 -27.4 -80.65 -27.4 -82.7 -29.35 L-82.95 -29.6 M-88.5 -26.6 Q-87.2 -24.55 -86.3 -22.4 L-90.0 -18.05 -93.45 -14.6 -96.7 -12.0 -98.5 -13.1 -98.2 -17.1 Q-98.45 -28.55 -98.3 -40.25 L-97.9 -54.15 -77.7 -55.4 -71.1 -56.05 -52.05 -57.55 -46.8 -57.85 -48.25 -56.8 -52.4 -54.05 -61.9 -48.25 Q-66.65 -45.5 -70.95 -41.8 L-71.1 -41.9 Q-75.25 -44.25 -80.2 -43.3 -86.55 -42.15 -89.1 -36.4 -91.3 -31.45 -88.7 -26.9 L-88.5 -26.6 M-97.5 -6.25 L-97.2 -6.25 -91.1 -6.35 -87.8 -6.1 -86.8 -6.0 Q-86.0 -5.95 -85.25 -5.05 L-82.9 -1.2 -81.35 1.45 -97.05 1.1 -97.5 -6.25 M-83.05 -11.65 L-82.75 -12.85 -79.5 -13.0 -75.75 -7.9 -75.5 -7.55 -75.0 -6.85 -72.0 -2.3 -71.6 -1.65 -71.1 -0.9 -62.9 10.6 -54.65 22.25 -67.35 22.8 -70.85 13.05 -71.1 12.3 -71.5 11.05 Q-75.4 -0.1 -80.4 -10.95 L-83.05 -11.65 M-57.85 -29.7 L-57.85 -29.75 -57.6 -30.45 Q-57.25 -31.8 -55.95 -31.95 L-54.9 -31.9 -53.5 -31.55 Q-51.1 -31.0 -48.8 -30.1 L-44.45 -28.6 -44.25 -28.5 -42.1 -27.35 -41.75 -26.9 -40.9 -26.65 -41.15 -26.85 -39.8 -26.8 -38.95 -26.4 -37.95 -26.05 -37.65 -25.9 -35.85 -24.95 -34.85 -24.4 -33.85 -23.85 -31.5 -21.8 Q-32.95 -21.1 -34.45 -20.9 L-39.15 -22.75 -47.25 -25.05 -57.85 -29.7 M-70.55 -17.65 L-68.05 -18.4 -65.3 -18.8 -65.05 -18.8 Q-64.5 -18.8 -64.1 -18.35 L-63.6 -17.9 -62.95 -17.3 -62.65 -17.05 -65.45 -16.35 Q-68.15 -16.2 -70.55 -17.65 M-63.95 -23.75 L-64.25 -24.35 -64.25 -26.55 Q-61.65 -25.35 -59.15 -23.65 L-57.45 -22.4 -50.3 -17.15 -47.7 -14.95 -46.65 -13.75 -52.9 -13.6 -54.8 -15.0 -55.2 -14.7 -55.45 -14.15 -54.65 -13.55 -58.9 -13.4 -55.95 -16.3 -61.85 -21.95 -63.95 -23.75 M-53.7 -0.65 L-55.6 -2.2 -56.0 -2.55 -58.45 -5.3 Q-58.15 -5.65 -57.2 -5.75 L-46.45 -6.2 -43.4 -6.25 -42.0 -5.65 -42.0 -5.75 -33.2 -1.65 -39.55 -1.3 -45.15 -0.6 -53.7 -0.65" fill="#432288" fill-rule="evenodd" stroke="none"/>
    <path d="M-28.5 -42.65 L-28.75 -42.65 -30.3 -46.35 -24.55 -47.1 7.2 -51.25 -1.55 -49.9 -3.3 -49.6 -5.1 -49.4 Q-13.25 -48.3 -21.0 -46.55 L-26.85 -45.25 -27.7 -44.95 -28.1 -44.8 Q-29.0 -44.65 -28.85 -43.85 L-28.5 -42.65 M-13.0 -15.5 Q-14.45 -16.3 -15.8 -17.3 L-15.0 -19.5 Q-7.95 -22.7 -0.65 -24.6 2.9 -25.6 6.65 -25.8 L9.0 -25.85 33.2 -20.95 43.4 -19.7 37.1 -18.3 30.1 -20.2 21.5 -21.75 18.25 -22.05 9.4 -22.8 7.35 -22.8 7.1 -22.75 6.4 -22.55 5.35 -22.25 2.25 -21.3 0.85 -20.8 -2.7 -19.65 -7.3 -18.25 Q-9.9 -17.45 -12.15 -16.3 L-13.0 -15.5 M96.45 -38.65 L78.2 -40.2 75.9 -40.35 75.45 -40.35 72.85 -39.75 71.85 -39.55 Q70.4 -39.35 69.85 -38.3 70.15 -38.1 70.55 -37.95 L58.25 -39.95 72.8 -41.9 101.7 -41.2 96.45 -38.65 M-82.95 -29.6 L-83.95 -30.95 Q-84.7 -32.4 -84.7 -34.1 -84.7 -36.85 -82.7 -38.8 -80.65 -40.75 -77.8 -40.75 -74.9 -40.75 -72.85 -38.8 L-72.55 -38.5 Q-71.6 -37.45 -71.15 -36.2 L-71.35 -36.3 -73.2 -36.8 -75.15 -36.95 Q-77.6 -36.9 -79.65 -35.5 -80.3 -35.05 -81.0 -34.7 -81.9 -34.25 -82.35 -33.4 L-82.9 -31.75 -82.95 -29.6 M-81.35 1.45 L-82.9 -1.2 -85.25 -5.05 Q-86.0 -5.95 -86.8 -6.0 L-87.8 -6.1 -91.1 -6.35 -97.2 -6.25 -97.5 -6.25 -97.7 -9.7 -85.6 -9.8 -80.9 1.45 -81.35 1.45 M-31.5 -21.8 L-33.85 -23.85 -34.85 -24.4 -35.85 -24.95 -37.65 -25.9 -37.95 -26.05 -38.95 -26.4 -39.8 -26.8 -41.15 -26.85 -40.9 -26.65 -41.75 -26.9 -42.1 -27.35 -44.25 -28.5 -44.45 -28.6 -48.8 -30.1 Q-51.1 -31.0 -53.5 -31.55 L-54.9 -31.9 -55.95 -31.95 Q-57.25 -31.8 -57.6 -30.45 L-57.85 -29.75 -57.85 -29.7 -60.4 -30.75 -59.35 -34.1 -46.8 -31.25 -36.25 -26.55 -28.35 -23.65 -30.85 -22.2 -31.5 -21.8 M-62.65 -17.05 L-62.95 -17.3 -63.6 -17.9 -64.1 -18.35 Q-64.5 -18.8 -65.05 -18.8 L-65.3 -18.8 -68.05 -18.4 -70.55 -17.65 -71.1 -18.05 -72.0 -18.75 -66.15 -22.45 -60.9 -18.0 -61.65 -17.5 -62.65 -17.05 M-53.7 -0.65 L-54.45 -0.65 -61.15 -6.0 -63.55 -9.4 -63.25 -10.25 -48.25 -9.8 -47.75 -9.3 Q-46.2 -7.85 -45.45 -7.45 L-45.15 -7.3 -43.4 -6.25 -46.45 -6.2 -57.2 -5.75 Q-58.15 -5.65 -58.45 -5.3 L-56.0 -2.55 -55.6 -2.2 -53.7 -0.65" fill="#2b1555" fill-rule="evenodd" stroke="none"/>
    <path d="M103.45 78.9 Q102.8 79.2 102.5 79.85 L102.45 80.1" fill="none" stroke="#000066" stroke-linecap="round" stroke-linejoin="round" stroke-width="0.1"/>
    <path d="M-173.05 -16.3 Q-171.4 -15.5 -164.7 -13.65 -157.9 -11.85 -152.2 -13.0 -150.1 -13.4 -148.0 -14.4 -145.95 -15.35 -143.9 -16.85 L-141.1 -19.25 -139.3 -21.05 Q-135.55 -25.25 -134.75 -29.1 -133.9 -33.75 -132.5 -35.25 L-127.7 -39.65 -120.75 -40.85 -111.5 -36.95 -108.65 -34.55 Q-104.2 -33.0 -87.65 -36.8 -80.0 -38.25 -72.95 -41.05 -62.4 -45.25 -53.05 -52.35 -45.5 -58.0 -40.25 -65.75 -37.15 -70.4 -31.65 -70.2 -27.55 -64.6 -30.6 -57.8 -34.8 -48.4 -40.2 -40.1 L-43.35 -35.5 Q-46.95 -30.65 -50.95 -26.3 L-53.35 -23.7 Q-59.4 -17.6 -66.45 -12.3 -72.05 -8.1 -78.1 -4.6 L-81.0 -3.05 -84.3 -12.85 -91.45 -8.35 Q-96.75 -5.0 -100.8 -2.8 L-101.6 -2.4 Q-108.4 1.1 -111.8 1.3 -113.6 -1.2 -113.55 -4.2 L-113.4 -6.2 -113.35 -6.75 -113.05 -8.45 -114.35 -7.15 Q-124.0 2.45 -135.7 9.55 -137.2 10.4 -139.05 10.25 -140.7 8.6 -140.35 6.4 L-139.55 4.0 -137.9 0.35 -137.2 -1.85 -136.95 -2.8 -136.9 -3.05 Q-136.55 -4.85 -136.75 -6.6 L-150.95 3.65 -151.6 3.55 -174.2 -3.0 -178.7 -4.2 Q-178.75 -7.3 -179.9 -14.9 -175.8 -16.65 -173.9 -16.45 L-173.05 -16.3 M-166.3 -4.3 L-162.3 -3.5 -154.2 -2.3 -150.2 -1.9 Q-146.8 -1.95 -139.2 -8.45 L-137.2 -10.1 -134.95 -12.2 -134.15 -11.0 Q-132.95 -8.7 -133.75 -4.9 L-134.25 -2.65 -136.2 4.8 -136.55 6.0 Q-128.25 3.0 -117.3 -8.55 -114.2 -11.85 -110.9 -15.85 L-110.15 -16.65 -110.3 -15.65 Q-110.8 -11.9 -110.4 -9.2 L-110.1 -7.9 Q-109.55 -6.5 -108.5 -5.6 L-108.0 -5.2 -107.65 -5.05 -105.0 -4.8 Q-103.7 -5.0 -102.0 -5.65 -99.05 -6.9 -94.95 -9.7 -90.3 -12.9 -84.35 -18.15 -81.2 -16.3 -79.85 -13.1 -79.15 -11.2 -79.1 -8.95 L-76.85 -10.55 Q-74.1 -12.45 -71.5 -14.4 -62.05 -21.4 -55.05 -28.25 L-49.95 -33.55 -46.95 -37.05 -46.45 -37.75 Q-38.05 -48.45 -35.3 -58.9 L-35.05 -59.85 Q-34.3 -62.85 -34.0 -65.85 -38.05 -58.9 -56.85 -44.9 L-57.4 -44.55 Q-60.15 -42.55 -63.2 -40.9 -66.3 -39.2 -69.7 -37.75 -74.9 -35.7 -80.8 -34.25 -88.9 -32.35 -98.25 -31.6 L-107.5 -31.2 Q-107.65 -26.35 -111.8 -23.65 -113.2 -22.7 -115.05 -22.1 L-113.5 -24.6 Q-111.95 -27.85 -112.3 -30.85 L-115.65 -35.05 Q-122.75 -37.6 -128.8 -34.2 -130.1 -33.45 -130.45 -32.05 L-131.05 -29.2 -131.15 -28.6 Q-132.05 -25.75 -133.35 -23.25 -134.4 -21.15 -135.8 -19.3 L-136.0 -19.1 Q-140.55 -12.9 -148.3 -9.8 L-148.85 -9.55 -150.5 -9.2 -152.5 -9.25 -163.85 -10.1 -174.45 -12.1 -176.0 -12.45 -175.2 -7.25 -174.6 -7.05 Q-171.15 -5.5 -166.3 -4.3 M-123.5 -22.45 L-124.1 -22.35 -126.15 -23.9 -126.75 -24.8 Q-127.75 -26.3 -127.55 -26.85 L-126.75 -28.1 Q-125.9 -29.4 -124.25 -30.75 -121.55 -33.0 -119.45 -32.6 L-117.95 -31.9 Q-117.45 -31.25 -117.1 -30.25 L-116.8 -29.25 Q-116.35 -27.6 -116.6 -26.95 -117.2 -25.7 -119.6 -24.15 -121.75 -22.75 -123.5 -22.45 M-124.55 -26.4 L-124.6 -26.1 -123.1 -25.45 Q-122.2 -25.2 -120.65 -26.05 -119.2 -26.85 -118.8 -27.65 -118.3 -28.85 -118.55 -29.35 -118.9 -29.95 -120.2 -29.85 -122.05 -29.7 -123.45 -28.9 L-124.55 -26.4" fill="#000000" fill-rule="evenodd" stroke="none"/>
    <path d="M-163.85 -10.1 L-165.95 -10.25 -174.3 -11.0 -174.55 -10.9 -174.75 -10.8 -174.9 -10.3 Q-175.15 -8.95 -174.6 -8.1 L-174.55 -8.05 -173.8 -7.3 Q-171.7 -6.2 -169.45 -6.0 L-168.05 -5.85 -165.5 -5.4 -166.3 -4.3 Q-171.15 -5.5 -174.6 -7.05 L-175.2 -7.25 -176.0 -12.45 -174.45 -12.1 -163.85 -10.1 M-162.3 -3.5 L-156.35 -4.8 -155.6 -4.9 -154.25 -5.15 Q-150.0 -6.0 -145.7 -7.5 -145.15 -7.65 -144.85 -7.95 -144.15 -8.5 -143.1 -8.7 L-138.35 -9.8 -137.2 -10.1 -139.2 -8.45 Q-146.8 -1.95 -150.2 -1.9 L-154.2 -2.3 -162.3 -3.5 M-134.15 -11.0 L-131.1 -11.85 -130.1 -12.15 Q-128.0 -13.0 -125.7 -13.5 L-124.25 -13.75 -117.85 -14.9 -116.55 -14.95 Q-115.3 -14.85 -114.8 -15.65 L-114.05 -16.75 -113.75 -17.3 -113.4 -17.8 Q-112.4 -19.3 -110.6 -18.65 L-110.15 -18.2 Q-109.8 -16.65 -109.1 -15.25 L-108.0 -13.5 -107.65 -13.3 Q-105.9 -13.05 -104.8 -13.8 L-104.75 -13.75 -103.15 -14.85 Q-101.95 -15.65 -100.55 -16.25 L-96.75 -18.05 -88.85 -22.15 Q-79.7 -27.3 -71.1 -33.2 -66.15 -36.8 -61.35 -40.65 L-61.1 -40.9 Q-59.05 -42.55 -57.4 -44.55 L-56.85 -44.9 Q-38.05 -58.9 -34.0 -65.85 -34.3 -62.85 -35.05 -59.85 -37.05 -59.0 -39.35 -56.9 L-40.55 -55.65 -41.55 -54.7 -42.55 -53.8 Q-44.1 -52.8 -45.75 -52.2 L-48.3 -51.1 -48.9 -50.7 -58.75 -40.85 -59.25 -40.35 -60.6 -39.2 Q-64.3 -35.95 -67.45 -32.5 L-72.05 -27.05 Q-75.0 -23.25 -78.7 -20.3 -80.5 -18.9 -79.2 -17.65 L-78.6 -16.8 Q-78.45 -16.3 -78.6 -15.7 -79.0 -13.8 -78.7 -11.45 L-78.05 -11.75 -73.1 -13.85 -72.1 -14.65 -67.2 -19.4 -58.45 -28.1 -57.3 -29.25 Q-53.2 -33.35 -49.7 -38.0 L-47.15 -41.75 Q-41.4 -50.7 -35.3 -58.9 -38.05 -48.45 -46.45 -37.75 L-46.95 -37.05 -49.95 -33.55 -55.05 -28.25 Q-62.05 -21.4 -71.5 -14.4 -74.1 -12.45 -76.85 -10.55 L-79.1 -8.95 Q-79.15 -11.2 -79.85 -13.1 -81.2 -16.3 -84.35 -18.15 -90.3 -12.9 -94.95 -9.7 -99.05 -6.9 -102.0 -5.65 -103.7 -5.0 -105.0 -4.8 L-107.65 -5.05 -108.0 -5.2 -104.85 -5.0 -104.6 -5.05 -102.05 -5.7 Q-101.35 -6.0 -100.6 -6.45 -97.7 -7.95 -95.25 -9.85 -91.65 -12.7 -88.95 -16.6 -87.85 -18.2 -88.4 -19.15 L-88.85 -19.2 -89.55 -19.2 -91.0 -18.75 Q-92.35 -17.75 -93.75 -17.2 -97.05 -16.15 -99.85 -14.4 L-102.3 -12.85 -102.8 -12.45 -107.15 -9.4 -107.35 -9.05 -108.45 -5.8 -108.5 -5.6 Q-109.55 -6.5 -110.1 -7.9 L-110.4 -9.2 Q-110.8 -11.9 -110.3 -15.65 L-110.15 -16.65 -110.9 -15.85 Q-114.2 -11.85 -117.3 -8.55 -128.25 3.0 -136.55 6.0 L-136.2 4.8 -136.05 4.85 Q-134.7 5.15 -133.05 4.0 -130.15 2.05 -127.45 -0.45 L-125.3 -2.4 -118.8 -9.3 Q-117.75 -10.5 -118.35 -11.15 L-120.95 -10.4 -122.1 -10.1 Q-126.1 -8.8 -130.1 -8.15 -131.5 -7.95 -132.25 -6.5 L-133.85 -3.4 -134.25 -2.65 -133.75 -4.9 Q-132.95 -8.7 -134.15 -11.0 M-69.7 -37.75 L-73.35 -35.25 Q-74.0 -34.85 -74.6 -34.6 L-76.4 -34.0 -79.0 -33.15 -82.75 -32.15 -93.1 -29.3 -96.45 -28.45 -99.7 -27.95 -100.4 -28.0 -102.35 -28.45 -102.4 -28.45 -102.95 -28.65 -106.95 -29.15 Q-104.9 -26.5 -107.7 -24.0 -108.1 -23.6 -108.55 -23.45 L-111.8 -23.65 Q-107.65 -26.35 -107.5 -31.2 L-98.25 -31.6 Q-88.9 -32.35 -80.8 -34.25 -74.9 -35.7 -69.7 -37.75 M-113.5 -24.6 L-114.2 -25.25 Q-114.5 -24.0 -115.5 -23.55 L-118.4 -22.3 -120.1 -21.75 Q-122.3 -21.05 -123.5 -22.45 -121.75 -22.75 -119.6 -24.15 -117.2 -25.7 -116.6 -26.95 -116.35 -27.6 -116.8 -29.25 L-117.1 -30.25 Q-117.45 -31.25 -117.95 -31.9 L-119.45 -32.6 Q-121.55 -33.0 -124.25 -30.75 -125.9 -29.4 -126.75 -28.1 L-126.75 -28.2 Q-126.4 -30.6 -124.75 -32.1 L-121.85 -34.3 Q-119.85 -35.6 -118.0 -35.15 L-118.45 -35.25 -119.55 -35.3 -122.9 -35.0 -124.25 -34.95 Q-127.4 -35.1 -129.55 -32.7 L-130.3 -31.4 -131.05 -29.2 -130.45 -32.05 Q-130.1 -33.45 -128.8 -34.2 -122.75 -37.6 -115.65 -35.05 L-112.3 -30.85 Q-111.95 -27.85 -113.5 -24.6 M-133.35 -23.25 L-134.2 -21.05 -134.45 -20.1 -134.55 -19.2 -134.65 -18.75 Q-135.1 -16.5 -136.35 -14.35 -136.6 -13.9 -137.1 -13.7 -140.75 -12.3 -143.85 -10.6 -145.15 -9.85 -146.45 -9.85 L-148.3 -9.8 Q-140.55 -12.9 -136.0 -19.1 L-135.8 -19.3 Q-134.4 -21.15 -133.35 -23.25" fill="#6633cc" fill-rule="evenodd" stroke="none"/>
    <path d="M-166.3 -4.3 L-165.5 -5.4 -168.05 -5.85 -169.45 -6.0 Q-171.7 -6.2 -173.8 -7.3 L-174.55 -8.05 -174.6 -8.1 Q-175.15 -8.95 -174.9 -10.3 L-174.75 -10.8 -174.55 -10.9 -174.3 -11.0 -165.95 -10.25 -163.85 -10.1 -152.5 -9.25 -150.5 -9.2 -148.85 -9.55 -148.3 -9.8 -146.45 -9.85 Q-145.15 -9.85 -143.85 -10.6 -140.75 -12.3 -137.1 -13.7 -136.6 -13.9 -136.35 -14.35 -135.1 -16.5 -134.65 -18.75 L-134.55 -19.2 -134.45 -20.1 -134.2 -21.05 -133.35 -23.25 Q-132.05 -25.75 -131.15 -28.6 L-131.05 -29.2 -130.3 -31.4 -129.55 -32.7 Q-127.4 -35.1 -124.25 -34.95 L-122.9 -35.0 -119.55 -35.3 -118.45 -35.25 -118.0 -35.15 Q-119.85 -35.6 -121.85 -34.3 L-124.75 -32.1 Q-126.4 -30.6 -126.75 -28.2 L-126.75 -28.1 -127.55 -26.85 Q-127.75 -26.3 -126.75 -24.8 L-126.15 -23.9 -124.1 -22.35 -123.5 -22.45 Q-122.3 -21.05 -120.1 -21.75 L-118.4 -22.3 -115.5 -23.55 Q-114.5 -24.0 -114.2 -25.25 L-113.5 -24.6 -115.05 -22.1 Q-113.2 -22.7 -111.8 -23.65 L-108.55 -23.45 Q-108.1 -23.6 -107.7 -24.0 -104.9 -26.5 -106.95 -29.15 L-102.95 -28.65 -102.4 -28.45 -102.35 -28.45 -100.4 -28.0 -99.7 -27.95 -96.45 -28.45 -93.1 -29.3 -82.75 -32.15 -79.0 -33.15 -76.4 -34.0 -74.6 -34.6 Q-74.0 -34.85 -73.35 -35.25 L-69.7 -37.75 Q-66.3 -39.2 -63.2 -40.9 -60.15 -42.55 -57.4 -44.55 -59.05 -42.55 -61.1 -40.9 L-61.35 -40.65 Q-66.15 -36.8 -71.1 -33.2 -79.7 -27.3 -88.85 -22.15 L-96.75 -18.05 -100.55 -16.25 Q-101.95 -15.65 -103.15 -14.85 L-104.75 -13.75 -104.8 -13.8 Q-105.9 -13.05 -107.65 -13.3 L-108.0 -13.5 -109.1 -15.25 Q-109.8 -16.65 -110.15 -18.2 L-110.6 -18.65 Q-112.4 -19.3 -113.4 -17.8 L-113.75 -17.3 -114.05 -16.75 -114.8 -15.65 Q-115.3 -14.85 -116.55 -14.95 L-117.85 -14.9 -124.25 -13.75 -125.7 -13.5 Q-128.0 -13.0 -130.1 -12.15 L-131.1 -11.85 -134.15 -11.0 -134.95 -12.2 -137.2 -10.1 -138.35 -9.8 -143.1 -8.7 Q-144.15 -8.5 -144.85 -7.95 -145.15 -7.65 -145.7 -7.5 -150.0 -6.0 -154.25 -5.15 L-155.6 -4.9 -156.35 -4.8 -162.3 -3.5 -166.3 -4.3" fill="#8a64d9" fill-rule="evenodd" stroke="none"/>
    <path d="M-124.55 -26.4 L-123.45 -28.9 Q-122.05 -29.7 -120.2 -29.85 -118.9 -29.95 -118.55 -29.35 -118.3 -28.85 -118.8 -27.65 -119.2 -26.85 -120.65 -26.05 -122.2 -25.2 -123.1 -25.45 L-124.6 -26.1 -124.55 -26.4 M-134.25 -2.65 L-133.85 -3.4 -132.25 -6.5 Q-131.5 -7.95 -130.1 -8.15 -126.1 -8.8 -122.1 -10.1 L-120.95 -10.4 -118.35 -11.15 Q-117.75 -10.5 -118.8 -9.3 L-125.3 -2.4 -127.45 -0.45 Q-130.15 2.05 -133.05 4.0 -134.7 5.15 -136.05 4.85 L-136.2 4.8 -134.25 -2.65 M-108.5 -5.6 L-108.45 -5.8 -107.35 -9.05 -107.15 -9.4 -102.8 -12.45 -102.3 -12.85 -99.85 -14.4 Q-97.05 -16.15 -93.75 -17.2 -92.35 -17.75 -91.0 -18.75 L-89.55 -19.2 -88.85 -19.2 -88.4 -19.15 Q-87.85 -18.2 -88.95 -16.6 -91.65 -12.7 -95.25 -9.85 -97.7 -7.95 -100.6 -6.45 -101.35 -6.0 -102.05 -5.7 L-104.6 -5.05 -104.85 -5.0 -108.0 -5.2 -108.5 -5.6 M-35.3 -58.9 Q-41.4 -50.7 -47.15 -41.75 L-49.7 -38.0 Q-53.2 -33.35 -57.3 -29.25 L-58.45 -28.1 -67.2 -19.4 -72.1 -14.65 -73.1 -13.85 -78.05 -11.75 -78.7 -11.45 Q-79.0 -13.8 -78.6 -15.7 -78.45 -16.3 -78.6 -16.8 L-79.2 -17.65 Q-80.5 -18.9 -78.7 -20.3 -75.0 -23.25 -72.05 -27.05 L-67.45 -32.5 Q-64.3 -35.95 -60.6 -39.2 L-59.25 -40.35 -58.75 -40.85 -48.9 -50.7 -48.3 -51.1 -45.75 -52.2 Q-44.1 -52.8 -42.55 -53.8 L-41.55 -54.7 -40.55 -55.65 -39.35 -56.9 Q-37.05 -59.0 -35.05 -59.85 L-35.3 -58.9" fill="#432288" fill-rule="evenodd" stroke="none"/>
  </g>
</svg>
