<?xml version="1.0" encoding="UTF-8" standalone="no"?>
<svg xmlns:xlink="http://www.w3.org/1999/xlink" height="21.35px" width="33.4px" xmlns="http://www.w3.org/2000/svg">
  <g transform="matrix(1.0, 0.0, 0.0, 1.0, 16.7, 10.65)">
    <path d="M16.7 4.95 L16.7 6.85 16.35 6.75 16.0 6.7 16.0 8.8 15.4 9.15 9.6 9.2 9.55 10.25 9.2 10.7 8.95 10.65 8.9 10.7 7.6 10.45 7.3 10.45 6.0 10.2 4.85 10.0 3.2 9.7 0.9 9.35 -1.9 8.85 -5.2 8.3 -8.35 7.75 -10.15 7.4 -10.35 7.35 -12.0 7.0 -11.95 6.75 -12.0 6.75 -11.95 6.45 -12.0 6.45 -11.95 6.0 -16.45 5.8 -16.45 5.55 -16.7 -5.65 -16.7 -6.2 -11.7 -6.3 -11.7 -6.45 -11.65 -6.45 -11.7 -6.7 -11.65 -6.7 -11.7 -7.0 -10.35 -7.25 -4.7 -8.25 0.9 -9.2 3.2 -9.6 3.55 -9.65 4.85 -9.9 6.8 -10.2 7.3 -10.3 7.6 -10.35 8.4 -10.5 8.85 -10.55 8.95 -10.65 9.0 -10.55 9.05 -10.5 9.1 -10.55 9.2 -10.65 9.25 -10.55 9.75 -10.25 9.8 -9.0 15.9 -8.65 16.1 -7.0 16.7 -7.0 16.7 -5.0 16.35 -5.0 16.1 -5.05 16.05 -1.4 16.05 2.45 16.0 4.95 16.7 4.95 M8.3 -5.65 L8.35 -8.75 -10.05 -5.65 -10.1 -3.35 -10.35 5.45 -10.35 5.6 -10.05 5.8 -2.8 6.8 -1.2 7.1 -0.55 7.2 3.2 7.9 4.85 8.2 5.45 8.35 7.3 8.75 7.55 8.8 7.6 8.8 8.2 8.95 8.2 7.25 8.25 1.85 8.3 -2.4 8.3 -5.65 M9.65 6.9 L9.6 7.4 14.8 7.5 14.65 -7.15 9.85 -7.1 9.85 -6.6 9.85 -6.35 9.8 -3.05 9.7 1.25 9.65 6.9 M-11.9 -3.15 L-11.9 -4.55 -15.45 -4.55 -15.45 4.6 -11.9 4.6 -11.9 3.3 -11.9 -3.15" fill="#000000" fill-rule="evenodd" stroke="none"/>
    <path d="M8.3 -5.65 L8.25 -5.65 Q7.65 -6.45 7.85 -8.0 L7.6 -7.95 7.45 -7.85 7.3 -7.75 6.45 -7.7 5.65 -7.65 4.85 -7.45 3.2 -7.15 2.9 -7.1 2.15 -6.95 1.8 -6.85 -7.3 -5.2 -7.85 -5.15 Q-9.15 -5.3 -9.35 -4.45 L-9.35 -4.15 Q-9.3 -3.4 -9.8 -3.35 L-10.1 -3.35 -10.05 -5.65 8.35 -8.75 8.3 -5.65 M-10.35 5.45 L-10.05 5.3 -9.6 5.05 -7.9 4.3 -6.5 3.85 -1.2 1.75 -0.75 1.5 0.95 0.75 Q1.65 0.4 2.4 0.1 L2.75 -0.05 3.2 -0.2 4.85 -0.95 7.3 -2.0 7.6 -2.1 8.3 -2.4 8.25 1.85 7.9 2.0 7.6 2.2 7.3 2.3 Q6.1 2.85 4.85 3.45 L3.95 3.85 3.2 4.15 -0.8 5.85 -0.95 6.0 -0.8 6.0 -0.45 6.1 -0.1 6.2 1.2 6.4 1.8 6.45 3.2 6.75 3.7 6.95 4.0 7.05 4.8 7.2 4.85 7.2 5.15 7.25 5.9 7.45 6.5 7.6 7.3 7.8 7.6 7.9 8.1 8.25 Q7.9 7.5 8.2 7.25 L8.2 8.95 7.6 8.8 7.55 8.8 7.3 8.75 5.45 8.35 4.85 8.2 3.2 7.9 -0.55 7.2 -1.2 7.1 -2.8 6.8 -10.05 5.8 -10.35 5.6 -10.35 5.45 M9.85 -6.35 L9.85 -6.6 9.85 -7.1 14.65 -7.15 14.8 7.5 9.6 7.4 9.65 6.9 10.3 6.85 10.8 6.75 11.3 6.6 12.25 6.5 Q13.0 6.5 13.05 5.75 L13.2 4.95 13.2 4.65 13.35 -0.3 13.1 -0.25 12.8 -0.1 12.75 -0.1 12.35 0.1 10.85 0.85 9.7 1.25 9.8 -3.05 11.15 -3.65 11.7 -3.8 12.2 -3.9 Q13.1 -4.15 13.7 -4.6 14.1 -4.95 13.95 -5.8 L13.85 -6.1 10.8 -6.35 9.85 -6.35 M-11.9 3.3 L-11.9 4.6 -15.45 4.6 -15.45 -4.55 -11.9 -4.55 -11.9 -3.15 -13.9 -3.05 -14.2 -3.0 -14.45 -1.05 -14.45 -0.3 -14.35 2.45 -14.4 3.3 -12.6 3.3 -11.9 3.3" fill="#990000" fill-rule="evenodd" stroke="none"/>
    <path d="M-10.1 -3.35 L-9.8 -3.35 Q-9.3 -3.4 -9.35 -4.15 L-9.35 -4.45 Q-9.15 -5.3 -7.85 -5.15 L-7.3 -5.2 1.8 -6.85 2.15 -6.95 2.9 -7.1 3.2 -7.15 4.85 -7.45 5.65 -7.65 6.45 -7.7 7.3 -7.75 7.45 -7.85 7.6 -7.95 7.85 -8.0 Q7.65 -6.45 8.25 -5.65 L8.3 -5.65 8.3 -2.4 7.6 -2.1 7.3 -2.0 4.85 -0.95 3.2 -0.2 2.75 -0.05 2.4 0.1 Q1.65 0.4 0.95 0.75 L-0.75 1.5 -1.2 1.75 -6.5 3.85 -7.9 4.3 -9.6 5.05 -10.05 5.3 -10.35 5.45 -10.1 -3.35 M9.85 -6.35 L10.8 -6.35 13.85 -6.1 13.95 -5.8 Q14.1 -4.95 13.7 -4.6 13.1 -4.15 12.2 -3.9 L11.7 -3.8 11.15 -3.65 9.8 -3.05 9.85 -6.35 M-11.9 3.3 L-12.6 3.3 -14.4 3.3 -14.35 2.45 -14.45 -0.3 -14.45 -1.05 -14.2 -3.0 -13.9 -3.05 -11.9 -3.15 -11.9 3.3" fill="#ff0f0f" fill-rule="evenodd" stroke="none"/>
    <path d="M9.7 1.25 L10.85 0.85 12.35 0.1 12.75 -0.1 12.8 -0.1 13.1 -0.25 13.35 -0.3 13.2 4.65 13.2 4.95 13.05 5.75 Q13.0 6.5 12.25 6.5 L11.3 6.6 10.8 6.75 10.3 6.85 9.65 6.9 9.7 1.25 M8.2 7.25 Q7.9 7.5 8.1 8.25 L7.6 7.9 7.3 7.8 6.5 7.6 5.9 7.45 5.15 7.25 4.85 7.2 4.8 7.2 4.0 7.05 3.7 6.95 3.2 6.75 1.8 6.45 1.2 6.4 -0.1 6.2 -0.45 6.1 -0.8 6.0 -0.95 6.0 -0.8 5.85 3.2 4.15 3.95 3.85 4.85 3.45 Q6.1 2.85 7.3 2.3 L7.6 2.2 7.9 2.0 8.25 1.85 8.2 7.25" fill="#5e0000" fill-rule="evenodd" stroke="none"/>
    <path d="M16.7 -5.0 L16.7 -1.4 16.05 -1.4 16.1 -5.05 16.35 -5.0 16.7 -5.0 M16.7 2.45 L16.7 4.95 16.0 4.95 16.05 2.45 16.7 2.45" fill="#a29b99" fill-rule="evenodd" stroke="none"/>
    <path d="M16.7 -1.4 L16.7 2.45 16.05 2.45 16.05 -1.4 16.7 -1.4" fill="#655c5a" fill-rule="evenodd" stroke="none"/>
  </g>
</svg>
