<?xml version="1.0" encoding="UTF-8" standalone="no"?>
<svg xmlns:xlink="http://www.w3.org/1999/xlink" height="94.8px" width="50.2px" xmlns="http://www.w3.org/2000/svg">
  <g transform="matrix(1.0, 0.0, 0.0, 1.0, 46.45, 47.6)">
    <path d="M-10.25 16.15 L-8.35 14.5 -8.1 13.35 -7.3 20.15 -6.65 26.15 Q-5.95 33.6 -4.2 40.7 L-5.2 39.45 -6.3 42.75 -6.35 44.7 -7.2 46.1 -7.35 47.2 -13.1 33.55 -14.35 34.4 -14.1 35.5 -14.85 36.1 -16.7 36.9 Q-20.7 38.2 -24.9 36.9 -27.35 35.95 -29.55 34.6 L-33.2 32.0 Q-38.3 27.7 -41.7 22.05 -44.2 17.95 -45.2 13.4 -47.65 2.45 -45.3 -8.4 -44.3 -13.2 -41.75 -17.5 -38.7 -22.8 -33.75 -26.75 L-27.7 -31.25 Q-25.95 -32.4 -23.9 -32.95 L-27.7 -36.5 -27.9 -38.9 -27.4 -39.3 -24.6 -39.2 -25.3 -45.7 -19.95 -37.65 -19.7 -38.5 Q-19.5 -39.55 -18.45 -39.7 L-19.65 -41.0 Q-19.35 -41.05 -19.15 -41.2 -18.95 -41.25 -18.85 -41.35 L-17.65 -43.8 -17.05 -45.1 Q-15.55 -41.75 -14.35 -38.2 -12.3 -32.4 -10.65 -26.45 L-7.5 -14.7 -9.5 -14.65 -7.5 -10.9 -9.6 -11.45 -8.8 -8.4 -10.15 -6.3 -10.95 -6.55 -11.3 -5.4 -12.6 -9.15 Q-14.25 -13.7 -16.2 -18.1 -18.3 -22.65 -22.75 -25.9 -24.3 -27.0 -26.1 -26.65 -27.9 -26.1 -29.5 -25.2 -32.2 -23.85 -34.6 -21.95 -39.2 -18.35 -40.35 -12.95 L-41.2 -7.75 Q-42.15 0.05 -40.2 7.6 L-38.4 12.85 -36.25 18.05 Q-34.8 21.4 -31.45 22.95 L-32.15 23.9 -28.75 24.5 Q-25.4 24.75 -22.75 23.45 -19.55 22.1 -16.9 20.0 -13.4 17.05 -12.05 13.0 L-11.65 15.5 -10.25 13.95 -10.25 15.2 -10.95 16.15 -17.0 22.4 -17.7 23.35 Q-16.75 22.55 -15.6 22.1 L-14.6 21.65 -13.1 20.8 Q-12.95 21.85 -13.4 22.65 -14.1 24.0 -15.1 25.2 L-16.15 26.25 -16.9 27.15 Q-18.3 28.7 -20.3 29.2 L-19.55 28.55 -18.45 27.4 Q-17.35 26.05 -17.05 24.85 -17.55 25.7 -19.15 26.45 -21.45 27.45 -24.25 27.45 -31.45 27.3 -36.45 22.95 L-37.4 21.95 Q-38.9 19.85 -40.0 17.6 L-40.55 16.5 Q-41.8 14.35 -42.2 12.05 -41.75 16.4 -39.85 20.55 L-37.4 24.75 -36.25 26.45 Q-34.35 29.2 -31.35 31.6 L-30.8 32.05 Q-29.35 33.1 -27.75 33.7 -24.9 34.85 -21.35 34.65 L-19.55 34.55 -17.05 33.85 Q-15.9 33.3 -15.1 32.35 L-13.95 31.0 -10.6 27.0 -10.95 29.2 Q-10.95 29.7 -11.1 30.1 L-12.4 35.1 -12.05 35.05 -11.65 34.8 -10.6 34.15 -10.45 34.8 -9.65 37.0 Q-8.8 39.15 -8.45 41.3 -7.85 40.1 -6.65 39.95 -6.0 39.85 -6.2 38.8 L-7.2 32.3 -7.5 30.45 Q-8.5 25.5 -8.95 20.6 L-9.9 21.1 -9.95 19.55 -10.1 18.0 -10.25 16.15 M-16.35 -38.9 L-16.4 -38.25 -16.65 -36.7 -16.85 -36.15 -17.3 -35.4 Q-17.7 -34.6 -18.85 -34.6 -20.8 -34.45 -21.45 -36.0 L-21.75 -36.25 -24.25 -36.5 -25.7 -36.7 -25.05 -35.75 Q-23.3 -33.85 -21.0 -32.35 -24.65 -31.5 -28.2 -29.0 L-30.55 -26.95 -29.25 -27.45 Q-27.2 -28.25 -24.25 -28.0 -22.8 -27.9 -21.8 -27.0 L-19.15 -24.35 -18.65 -23.6 -18.35 -23.15 Q-17.55 -22.35 -17.0 -21.25 L-16.85 -20.85 Q-16.7 -20.15 -16.25 -19.6 -15.05 -17.95 -14.1 -15.55 L-13.45 -14.35 Q-11.95 -11.95 -10.95 -9.35 L-10.6 -8.4 -10.4 -8.75 Q-10.3 -9.5 -9.6 -9.55 L-9.6 -10.3 Q-9.65 -11.55 -10.0 -12.7 -10.4 -13.9 -10.4 -15.25 L-10.5 -16.2 -10.75 -17.45 Q-11.1 -18.85 -11.1 -20.55 L-11.15 -21.5 -11.45 -23.05 Q-12.55 -27.75 -13.95 -32.65 -15.0 -36.2 -16.35 -38.9 M-2.9 -16.75 L-3.05 -15.9 -5.5 -15.25 -5.2 -31.9 -1.6 -35.45 Q-1.6 -32.65 -1.75 -29.85 L-1.85 -27.75 -2.25 -27.55 Q-3.5 -26.95 -4.15 -27.7 L-4.55 -24.9 -4.7 -23.05 Q-4.7 -19.6 -5.15 -16.25 L-3.05 -16.75 -2.9 -16.75 M-30.35 -41.05 Q-32.35 -43.35 -31.8 -46.2 L-31.45 -47.6 Q-29.05 -46.2 -28.5 -43.75 L-28.25 -41.6 -30.35 -41.05 M0.1 21.4 Q-1.4 18.95 -2.05 16.15 -2.2 15.4 -2.6 14.9 L-3.05 14.25 Q-3.55 15.05 -4.4 15.9 L-4.55 16.15 Q-3.7 21.3 -2.05 26.05 -1.9 26.55 -1.2 26.2 L-0.6 25.95 1.25 25.6 1.4 24.85 Q1.1 23.1 0.1 21.4 M2.2 29.8 L-1.35 29.25 -5.5 14.75 -5.3 14.5 -4.9 14.15 Q-3.5 12.45 -3.75 10.55 L3.75 30.05 2.2 29.8" fill="#33ccff" fill-rule="evenodd" stroke="none"/>
    <path d="M-10.25 16.15 L-10.1 18.0 -9.95 19.55 -9.9 21.1 -8.95 20.6 Q-8.5 25.5 -7.5 30.45 L-7.2 32.3 -6.2 38.8 Q-6.0 39.85 -6.65 39.95 -7.85 40.1 -8.45 41.3 -8.8 39.15 -9.65 37.0 L-10.45 34.8 -10.6 34.15 -11.65 34.8 -12.05 35.05 -12.4 35.1 -11.1 30.1 Q-10.95 29.7 -10.95 29.2 L-10.6 27.0 -13.95 31.0 -15.1 32.35 Q-15.9 33.3 -17.05 33.85 L-19.55 34.55 -21.35 34.65 Q-24.9 34.85 -27.75 33.7 -29.35 33.1 -30.8 32.05 L-31.35 31.6 Q-34.35 29.2 -36.25 26.45 L-37.4 24.75 -39.85 20.55 Q-41.75 16.4 -42.2 12.05 -41.8 14.35 -40.55 16.5 L-40.0 17.6 Q-38.9 19.85 -37.4 21.95 L-36.45 22.95 Q-31.45 27.3 -24.25 27.45 -21.45 27.45 -19.15 26.45 -17.55 25.7 -17.05 24.85 -17.35 26.05 -18.45 27.4 L-19.55 28.55 -20.3 29.2 Q-18.3 28.7 -16.9 27.15 L-16.15 26.25 -15.1 25.2 Q-14.1 24.0 -13.4 22.65 -12.95 21.85 -13.1 20.8 L-14.6 21.65 -15.6 22.1 Q-16.75 22.55 -17.7 23.35 L-17.0 22.4 -10.95 16.15 -10.25 15.2 -10.25 16.15 M-16.35 -38.9 Q-15.0 -36.2 -13.95 -32.65 -12.55 -27.75 -11.45 -23.05 L-11.15 -21.5 -11.1 -20.55 Q-11.1 -18.85 -10.75 -17.45 L-10.5 -16.2 -10.4 -15.25 Q-10.4 -13.9 -10.0 -12.7 -9.65 -11.55 -9.6 -10.3 L-9.6 -9.55 Q-10.3 -9.5 -10.4 -8.75 L-10.6 -8.4 -10.95 -9.35 Q-11.95 -11.95 -13.45 -14.35 L-14.1 -15.55 Q-15.05 -17.95 -16.25 -19.6 -16.7 -20.15 -16.85 -20.85 L-17.0 -21.25 Q-17.55 -22.35 -18.35 -23.15 L-18.65 -23.6 -19.15 -24.35 -21.8 -27.0 Q-22.8 -27.9 -24.25 -28.0 -27.2 -28.25 -29.25 -27.45 L-30.55 -26.95 -28.2 -29.0 Q-24.65 -31.5 -21.0 -32.35 -23.3 -33.85 -25.05 -35.75 L-25.7 -36.7 -24.25 -36.5 -21.75 -36.25 -21.45 -36.0 Q-20.8 -34.45 -18.85 -34.6 -17.7 -34.6 -17.3 -35.4 L-16.85 -36.15 -16.65 -36.7 -16.4 -38.25 -16.35 -38.9 M-2.9 -16.75 L-3.05 -16.75 -5.15 -16.25 Q-4.7 -19.6 -4.7 -23.05 L-4.55 -24.9 -4.15 -27.7 Q-3.5 -26.95 -2.25 -27.55 L-1.85 -27.75 -2.4 -20.55 -2.9 -16.75 M0.1 21.4 Q1.1 23.1 1.4 24.85 L1.25 25.6 -0.6 25.95 -1.2 26.2 Q-1.9 26.55 -2.05 26.05 -3.7 21.3 -4.55 16.15 L-4.4 15.9 Q-3.55 15.05 -3.05 14.25 L-2.6 14.9 Q-2.2 15.4 -2.05 16.15 -1.4 18.95 0.1 21.4" fill="#cc0000" fill-rule="evenodd" stroke="none"/>
  </g>
</svg>
