<?xml version="1.0" encoding="UTF-8" standalone="no"?>
<svg xmlns:xlink="http://www.w3.org/1999/xlink" height="101.65px" width="78.0px" xmlns="http://www.w3.org/2000/svg">
  <g transform="matrix(1.0, 0.0, 0.0, 1.0, 49.95, 55.05)">
    <path d="M26.4 -32.35 L25.25 -25.9 4.4 -14.35 9.9 -20.55 1.2 -15.9 -1.75 -15.25 2.0 -18.05 Q8.8 -22.8 16.25 -26.7 L22.1 -30.05 Q24.15 -31.35 26.4 -32.35 M22.65 -25.9 L22.9 -26.45 23.55 -29.25 Q22.9 -28.6 21.45 -28.2 L19.6 -27.4 Q14.9 -25.15 10.95 -22.1 L9.5 -21.3 16.7 -24.25 17.4 -24.6 Q18.2 -24.95 18.15 -24.6 15.1 -22.8 12.6 -20.35 L11.75 -19.55 11.3 -19.2 11.55 -18.85 Q13.45 -19.8 15.05 -21.0 L16.65 -21.85 18.2 -22.65 Q20.5 -23.9 22.1 -25.2 L22.65 -25.9 M8.8 -37.45 Q6.45 -37.75 4.4 -39.05 2.9 -40.05 2.35 -41.35 1.85 -41.2 1.25 -40.75 L-1.25 -39.2 -1.45 -39.8 Q-1.55 -40.35 -0.95 -40.55 -0.55 -40.75 -0.25 -41.05 L1.6 -43.25 -0.85 -43.9 -1.25 -44.05 -3.4 -44.3 -4.5 -44.45 Q-5.85 -44.8 -6.5 -46.1 -7.2 -47.45 -7.15 -49.15 -7.1 -50.0 -6.55 -50.65 L-4.85 -52.85 -7.35 -52.2 Q-13.05 -50.95 -19.2 -51.0 L-18.05 -50.15 -17.55 -49.65 -16.2 -48.35 Q-15.35 -47.6 -16.05 -47.0 L-21.65 -43.15 -25.7 -40.1 Q-26.95 -39.05 -26.75 -38.55 -26.55 -39.15 -25.7 -39.55 L-23.15 -40.75 Q-20.45 -42.05 -17.05 -42.1 L-16.35 -42.15 -13.1 -41.75 -10.15 -40.55 Q-8.2 -39.55 -7.8 -37.0 L-7.6 -36.4 Q-6.95 -34.6 -7.0 -32.65 L-6.85 -31.4 Q-6.35 -29.75 -6.7 -27.7 L-6.85 -26.75 Q-6.85 -24.95 -7.45 -23.35 L-7.6 -22.7 -7.85 -21.15 Q-8.45 -17.6 -9.5 -14.35 L-9.0 -14.8 Q-7.65 -15.7 -6.45 -16.9 -5.0 -17.25 -4.2 -17.8 L-2.75 -18.75 0.2 -20.85 -1.25 -20.55 -5.55 -19.9 Q-5.35 -21.6 -4.65 -23.1 L-4.35 -23.6 -2.6 -26.7 Q0.3 -31.65 6.35 -34.8 6.85 -34.95 7.3 -35.25 9.5 -36.65 12.05 -37.0 L11.3 -37.1 10.6 -37.2 8.8 -37.45 M6.15 -40.25 L7.65 -39.7 Q12.8 -38.15 18.15 -40.1 14.85 -37.25 10.8 -34.95 6.8 -32.65 3.05 -29.75 -1.35 -26.2 -3.05 -21.15 L4.05 -23.55 -8.8 -12.75 -10.5 -11.05 -10.9 -12.7 -13.85 -12.4 -12.55 -14.45 Q-10.65 -17.0 -9.65 -20.0 -7.6 -26.25 -8.15 -32.65 -8.35 -35.45 -9.15 -38.0 -9.45 -39.15 -10.15 -39.95 L-11.55 -41.0 -13.3 -41.25 -14.2 -41.7 Q-18.7 -41.85 -22.5 -40.1 -26.35 -38.5 -29.9 -36.6 -35.65 -33.65 -40.1 -29.5 -44.45 -25.5 -46.85 -20.25 -44.0 -27.25 -38.3 -33.05 L-32.8 -38.5 Q-29.15 -42.0 -24.4 -44.55 L-24.05 -45.2 Q-21.95 -45.05 -20.3 -46.35 L-18.65 -47.6 -18.45 -48.15 -22.45 -52.85 -14.9 -52.3 -7.15 -53.75 -2.0 -55.05 Q-2.2 -51.25 -1.1 -47.65 -0.45 -45.35 1.2 -43.75 L2.7 -44.8 Q2.85 -42.65 4.8 -41.3 L6.15 -40.25 M15.6 -34.55 L14.35 -32.6 13.7 -31.8 Q15.55 -31.65 17.0 -32.6 16.05 -33.65 15.6 -34.55 M19.2 -33.6 L18.2 -32.95 Q13.95 -30.55 9.35 -29.05 L14.7 -34.95 19.2 -33.6 M22.65 19.1 L28.05 22.55 27.25 24.5 26.7 26.3 Q26.4 27.25 26.25 28.25 L26.05 30.1 Q22.75 25.9 18.15 22.8 L11.6 18.0 Q7.7 14.95 3.55 12.4 L-5.2 7.1 -5.15 6.75 Q0.95 8.05 6.5 10.6 L8.0 11.3 Q12.9 13.5 17.55 16.2 L20.95 18.1 16.35 16.15 10.5 13.4 11.05 13.9 11.9 14.95 Q15.35 19.4 19.85 23.05 L23.9 26.4 23.45 21.1 Q23.3 19.85 22.65 19.1 M8.8 24.65 Q6.45 21.55 3.65 18.75 L2.35 14.6 13.55 21.9 16.7 31.05 14.45 29.75 11.4 27.55 8.8 24.65 M-16.35 45.55 L-9.9 43.85 -4.5 41.6 -3.85 41.25 -3.25 40.85 -1.6 39.75 -1.4 40.05 Q-1.25 40.7 -1.35 41.3 L-1.45 42.25 Q-1.7 43.8 -2.35 44.7 0.9 41.6 5.2 40.35 L6.3 40.25 7.35 40.35 Q8.8 40.7 8.65 39.75 L8.3 37.25 7.35 29.5 Q7.1 31.15 5.95 32.6 5.55 33.05 4.9 32.85 1.55 31.55 -0.45 28.55 L-1.7 26.75 -3.4 23.9 -3.85 26.7 -5.0 32.3 Q-5.35 34.15 -7.1 35.35 L-8.6 35.45 -8.8 35.1 Q-8.85 33.9 -9.5 33.55 -9.95 34.4 -11.25 35.15 L-14.55 36.9 -13.85 36.9 -12.4 37.1 -11.65 37.2 -9.9 37.9 -10.15 38.2 -10.65 38.8 -15.0 43.75 Q-15.75 44.6 -16.75 45.2 L-17.2 45.6 -18.5 45.6 Q-21.65 45.55 -24.65 44.7 -31.55 43.15 -36.8 38.8 -32.05 42.15 -25.7 41.55 L-22.45 40.75 Q-19.5 39.8 -17.8 37.7 L-19.35 36.85 -19.3 35.5 Q-16.7 35.25 -14.55 33.95 L-12.05 32.0 Q-10.9 30.9 -10.1 29.6 L-7.95 25.75 Q-6.7 23.45 -7.2 20.8 L-9.3 9.6 -7.0 7.1 Q-6.2 13.75 -3.2 19.85 L-1.05 23.65 3.35 30.0 3.9 30.3 5.7 28.85 6.0 23.85 9.5 34.8 Q11.05 39.65 10.6 45.05 L8.95 44.55 Q5.7 43.55 2.4 43.9 L0.7 45.8 -2.0 45.35 -4.5 46.6 -4.5 43.05 Q-6.5 43.55 -8.35 44.3 L-13.45 45.35 -16.35 45.55 M-48.6 -7.75 L-48.5 -7.35 -48.8 -3.5 Q-49.15 0.3 -49.15 4.05 -49.1 9.0 -46.35 20.55 L-45.85 22.7 -46.95 21.55 -48.95 11.95 Q-49.75 7.8 -49.9 3.55 -50.05 -0.7 -49.45 -4.95 L-48.6 -7.75" fill="#33ccff" fill-rule="evenodd" stroke="none"/>
    <path d="M22.65 -25.9 L22.1 -25.2 Q20.5 -23.9 18.2 -22.65 L16.65 -21.85 15.05 -21.0 Q13.45 -19.8 11.55 -18.85 L11.3 -19.2 11.75 -19.55 12.6 -20.35 Q15.1 -22.8 18.15 -24.6 18.2 -24.95 17.4 -24.6 L16.7 -24.25 9.5 -21.3 10.95 -22.1 Q14.9 -25.15 19.6 -27.4 L21.45 -28.2 Q22.9 -28.6 23.55 -29.25 L22.9 -26.45 22.65 -25.9 M8.8 -37.45 L10.6 -37.2 11.3 -37.1 12.05 -37.0 Q9.5 -36.65 7.3 -35.25 6.85 -34.95 6.35 -34.8 0.3 -31.65 -2.6 -26.7 L-4.35 -23.6 -4.65 -23.1 Q-5.35 -21.6 -5.55 -19.9 L-1.25 -20.55 0.2 -20.85 -2.75 -18.75 -4.2 -17.8 Q-5.0 -17.25 -6.45 -16.9 -7.65 -15.7 -9.0 -14.8 L-9.5 -14.35 Q-8.45 -17.6 -7.85 -21.15 L-7.6 -22.7 -7.45 -23.35 Q-6.85 -24.95 -6.85 -26.75 L-6.7 -27.7 Q-6.35 -29.75 -6.85 -31.4 L-7.0 -32.65 Q-6.95 -34.6 -7.6 -36.4 L-7.8 -37.0 Q-8.2 -39.55 -10.15 -40.55 L-13.1 -41.75 -16.35 -42.15 -17.05 -42.1 Q-20.45 -42.05 -23.15 -40.75 L-25.7 -39.55 Q-26.55 -39.15 -26.75 -38.55 -26.95 -39.05 -25.7 -40.1 L-21.65 -43.15 -16.05 -47.0 Q-15.35 -47.6 -16.2 -48.35 L-17.55 -49.65 -18.05 -50.15 -19.2 -51.0 Q-13.05 -50.95 -7.35 -52.2 L-4.85 -52.85 -6.55 -50.65 Q-7.1 -50.0 -7.15 -49.15 -7.2 -47.45 -6.5 -46.1 -5.85 -44.8 -4.5 -44.45 L-3.4 -44.3 -1.25 -44.05 -0.85 -43.9 1.6 -43.25 -0.25 -41.05 Q-0.55 -40.75 -0.95 -40.55 -1.55 -40.35 -1.45 -39.8 L-1.25 -39.2 1.25 -40.75 Q1.85 -41.2 2.35 -41.35 2.9 -40.05 4.4 -39.05 6.45 -37.75 8.8 -37.45 M15.6 -34.55 Q16.05 -33.65 17.0 -32.6 15.55 -31.65 13.7 -31.8 L14.35 -32.6 15.6 -34.55 M20.95 18.1 L22.65 19.1 Q23.3 19.85 23.45 21.1 L23.9 26.4 19.85 23.05 Q15.35 19.4 11.9 14.95 L11.05 13.9 10.5 13.4 16.35 16.15 20.95 18.1 M-17.2 45.6 L-16.75 45.2 Q-15.75 44.6 -15.0 43.75 L-10.65 38.8 -10.15 38.2 -9.9 37.9 -11.65 37.2 -12.4 37.1 -13.85 36.9 -14.55 36.9 -11.25 35.15 Q-9.95 34.4 -9.5 33.55 -8.85 33.9 -8.8 35.1 L-8.6 35.45 -7.1 35.35 Q-5.35 34.15 -5.0 32.3 L-3.85 26.7 -3.4 23.9 -1.7 26.75 -0.45 28.55 Q1.55 31.55 4.9 32.85 5.55 33.05 5.95 32.6 7.1 31.15 7.35 29.5 L8.3 37.25 8.65 39.75 Q8.8 40.7 7.35 40.35 L6.3 40.25 5.2 40.35 Q0.9 41.6 -2.35 44.7 -1.7 43.8 -1.45 42.25 L-1.35 41.3 Q-1.25 40.7 -1.4 40.05 L-1.6 39.75 -3.25 40.85 -3.85 41.25 -4.5 41.6 -9.9 43.85 -16.35 45.55 -17.2 45.6" fill="#cc0000" fill-rule="evenodd" stroke="none"/>
  </g>
</svg>
