<?xml version="1.0" encoding="UTF-8" standalone="no"?>
<svg xmlns:xlink="http://www.w3.org/1999/xlink" height="99.05px" width="60.75px" xmlns="http://www.w3.org/2000/svg">
  <g transform="matrix(1.0, 0.0, 0.0, 1.0, 31.85, 53.2)">
    <path d="M11.55 -18.1 L8.1 -16.8 13.85 -23.35 7.0 -20.35 27.85 -32.65 28.1 -30.75 22.5 -27.25 20.6 -25.9 18.0 -24.1 14.2 -22.4 25.3 -25.2 24.55 -23.15 15.25 -19.55 18.15 -20.8 15.9 -21.35 Q15.6 -21.5 15.55 -21.6 14.9 -22.45 13.95 -21.4 L13.35 -20.65 12.25 -19.35 11.8 -18.6 11.55 -18.1 M23.55 -34.85 L12.9 -31.0 22.8 -37.0 23.55 -34.85 M-21.75 -42.15 Q-24.15 -41.75 -26.4 -40.95 L-31.85 -38.7 -16.9 -47.4 -17.05 -46.85 -16.55 -45.7 Q-15.55 -44.1 -13.4 -44.55 -11.4 -44.95 -10.15 -46.3 L-10.25 -46.95 Q-10.3 -48.45 -11.45 -49.65 L-11.95 -50.2 -12.4 -51.0 -0.2 -53.2 -0.75 -50.7 Q-1.85 -46.45 -0.55 -42.4 -0.05 -41.0 1.4 -39.95 5.15 -37.4 9.75 -36.85 14.9 -36.5 20.3 -37.95 L16.85 -36.5 14.2 -35.25 9.9 -35.75 8.8 -36.0 Q5.05 -36.5 2.05 -38.65 L0.85 -39.4 Q-1.6 -40.8 -3.0 -42.9 L-3.65 -44.45 Q-4.25 -47.4 -3.2 -49.8 L-2.0 -51.6 Q-6.7 -51.3 -10.95 -49.75 -9.75 -48.7 -9.1 -46.65 -8.5 -45.05 -9.6 -43.8 L-8.45 -43.9 -5.2 -43.55 -4.05 -43.05 Q-3.1 -42.6 -2.5 -41.6 -1.05 -39.4 -0.25 -37.0 L-0.05 -36.45 Q0.2 -35.85 0.05 -35.15 L-0.05 -34.55 -0.3 -32.65 Q-0.3 -32.15 -0.45 -31.75 -1.4 -27.45 -3.2 -23.2 L-2.7 -23.95 -1.45 -25.45 Q1.85 -29.0 6.65 -31.0 2.0 -28.05 -2.0 -24.4 L-3.25 -23.1 -3.4 -23.05 -5.4 -20.9 Q-6.65 -19.5 -7.0 -17.75 L-4.85 -17.75 -12.55 -12.95 -15.55 -12.45 -10.25 -17.7 Q-8.35 -19.75 -6.85 -22.05 -4.0 -26.5 -3.0 -31.6 -2.25 -35.05 -3.7 -38.25 -4.4 -39.95 -6.5 -40.85 -10.65 -42.8 -15.1 -42.9 L-18.2 -42.8 Q-18.85 -43.9 -18.85 -45.4 -18.85 -46.45 -19.05 -45.95 L-19.35 -45.45 -19.85 -44.7 -20.85 -43.5 -21.45 -42.65 -21.75 -42.15 M16.9 14.5 L15.6 14.2 14.55 14.15 14.25 14.15 15.2 14.95 16.75 16.4 20.35 20.1 22.9 22.6 Q25.05 24.4 26.75 26.7 L28.0 28.15 28.9 29.25 28.9 29.7 Q24.3 25.0 19.7 21.0 15.0 16.8 9.6 13.35 L4.85 10.45 0.05 7.75 Q5.8 9.85 11.55 12.05 L16.9 14.5 M12.3 26.2 Q10.15 24.5 8.8 22.35 L6.0 18.55 3.9 16.2 7.45 17.1 11.9 21.15 Q12.55 23.35 12.25 25.75 L12.3 26.2 M20.85 31.15 L21.0 31.4 20.95 31.35 20.85 31.15 M16.25 28.7 L14.9 27.9 12.55 26.4 12.75 26.4 13.9 26.65 14.45 27.05 16.25 28.7 M7.45 31.1 Q5.4 35.1 0.9 35.7 2.2 36.7 2.6 38.5 L2.7 38.75 3.5 38.3 Q4.9 37.55 6.65 37.45 8.95 37.2 9.9 38.8 10.25 32.8 8.8 27.3 8.65 28.8 8.0 30.05 L7.45 31.1 M5.05 31.9 Q6.35 30.5 7.15 28.8 8.8 25.45 8.45 22.05 10.6 25.5 11.55 29.6 12.75 35.15 11.3 40.7 L9.15 39.05 Q6.8 38.95 4.7 39.8 2.4 40.8 0.25 41.9 L0.4 40.55 0.4 40.3 Q0.4 38.75 -0.05 37.35 -0.25 36.65 -0.75 36.15 L-3.55 39.2 Q-6.45 42.0 -10.15 43.75 -14.2 45.7 -19.0 45.8 -25.1 46.2 -29.9 43.25 -27.7 44.1 -25.55 43.75 L-21.45 42.55 Q-15.6 40.45 -11.1 36.15 L-16.0 36.0 -10.75 32.05 Q-9.6 31.1 -8.75 29.85 L-7.1 27.0 -6.55 25.9 Q-4.85 21.05 -7.1 15.95 L-7.8 14.4 -9.3 11.8 -10.4 10.2 -8.8 9.0 -8.35 10.2 -6.3 10.2 -6.2 10.9 -6.2 11.15 Q-5.8 19.3 -3.4 27.15 L-1.55 31.5 -0.05 33.65 3.0 33.4 5.05 31.9 M-6.05 28.7 Q-7.0 30.6 -8.75 32.35 L-12.05 35.4 -9.45 35.2 -8.8 35.1 -8.1 35.1 Q-8.3 36.25 -9.75 37.4 L-10.6 38.2 Q-12.95 40.8 -16.4 42.4 L-18.85 43.85 Q-19.5 44.3 -20.2 44.45 L-20.65 44.7 -19.55 44.8 Q-15.9 44.9 -12.7 43.3 L-4.5 38.45 Q-1.45 36.4 0.9 34.45 L-1.6 34.7 -2.7 34.15 -5.05 31.6 -5.55 30.75 -6.05 28.7" fill="#33ccff" fill-rule="evenodd" stroke="none"/>
    <path d="M28.1 -30.75 L28.4 -28.8 18.0 -24.1 20.6 -25.9 22.5 -27.25 28.1 -30.75 M15.25 -19.55 L11.55 -18.1 11.8 -18.6 12.25 -19.35 13.35 -20.65 13.95 -21.4 Q14.9 -22.45 15.55 -21.6 15.6 -21.5 15.9 -21.35 L18.15 -20.8 15.25 -19.55 M-21.75 -42.15 L-21.45 -42.65 -20.85 -43.5 -19.85 -44.7 -19.35 -45.45 -19.05 -45.95 Q-18.85 -46.45 -18.85 -45.4 -18.85 -43.9 -18.2 -42.8 L-20.6 -42.4 -21.75 -42.15 M6.65 -31.0 Q1.85 -29.0 -1.45 -25.45 L-2.7 -23.95 -3.2 -23.2 Q-1.4 -27.45 -0.45 -31.75 -0.3 -32.15 -0.3 -32.65 L-0.05 -34.55 0.05 -35.15 Q0.2 -35.85 -0.05 -36.45 L-0.25 -37.0 Q-1.05 -39.4 -2.5 -41.6 -3.1 -42.6 -4.05 -43.05 L-5.2 -43.55 -8.45 -43.9 -9.6 -43.8 Q-8.5 -45.05 -9.1 -46.65 -9.75 -48.7 -10.95 -49.75 -6.7 -51.3 -2.0 -51.6 L-3.2 -49.8 Q-4.25 -47.4 -3.65 -44.45 L-3.0 -42.9 Q-1.6 -40.8 0.85 -39.4 L2.05 -38.65 Q5.05 -36.5 8.8 -36.0 L9.9 -35.75 14.2 -35.25 Q10.15 -33.35 6.65 -31.0 M28.9 29.25 L28.0 28.15 26.75 26.7 Q25.05 24.4 22.9 22.6 L20.35 20.1 16.75 16.4 15.2 14.95 14.25 14.15 14.55 14.15 15.6 14.2 16.9 14.5 Q20.3 16.25 23.45 18.45 L28.35 22.05 28.9 28.85 28.9 29.25 M11.9 21.15 L16.05 25.4 19.3 29.3 20.85 31.15 20.95 31.35 20.5 31.1 16.25 28.7 14.45 27.05 13.9 26.65 12.75 26.4 12.55 26.4 12.3 26.2 12.25 25.75 Q12.55 23.35 11.9 21.15 M7.45 31.1 L8.0 30.05 Q8.65 28.8 8.8 27.3 10.25 32.8 9.9 38.8 8.95 37.2 6.65 37.45 4.9 37.55 3.5 38.3 L2.7 38.75 2.6 38.5 Q2.2 36.7 0.9 35.7 5.4 35.1 7.45 31.1 M-6.05 28.7 L-5.55 30.75 -5.05 31.6 -2.7 34.15 -1.6 34.7 0.9 34.45 Q-1.45 36.4 -4.5 38.45 L-12.7 43.3 Q-15.9 44.9 -19.55 44.8 L-20.65 44.7 -20.2 44.45 Q-19.5 44.3 -18.85 43.85 L-16.4 42.4 Q-12.95 40.8 -10.6 38.2 L-9.75 37.4 Q-8.3 36.25 -8.1 35.1 L-8.8 35.1 -9.45 35.2 -12.05 35.4 -8.75 32.35 Q-7.0 30.6 -6.05 28.7" fill="#cc0000" fill-rule="evenodd" stroke="none"/>
  </g>
</svg>
