<?xml version="1.0" encoding="UTF-8" standalone="no"?>
<svg xmlns:xlink="http://www.w3.org/1999/xlink" height="98.9px" width="60.05px" xmlns="http://www.w3.org/2000/svg">
  <g transform="matrix(1.0, 0.0, 0.0, 1.0, 27.2, 52.75)">
    <path d="M0.9 -52.2 L3.55 -52.75 Q-0.3 -51.8 -2.05 -48.8 -2.75 -47.45 -2.75 -46.1 L-3.05 -46.35 -3.4 -46.55 Q-3.9 -46.65 -4.0 -47.0 -5.4 -45.4 -7.35 -44.8 L-7.0 -44.8 -4.4 -44.3 -4.25 -44.6 Q-3.75 -45.35 -2.7 -45.6 L-2.6 -45.15 Q-2.2 -43.3 -1.35 -41.85 -2.85 -43.35 -4.85 -43.85 L-7.1 -44.15 -9.6 -44.45 Q-6.95 -45.35 -5.4 -47.15 -4.9 -47.7 -4.85 -48.35 L-4.85 -49.8 -7.0 -50.7 -1.2 -51.75 -5.95 -50.4 -3.85 -49.7 -3.5 -49.45 -3.25 -49.05 -2.05 -50.15 0.9 -52.2 M23.45 -24.85 L22.95 -23.9 22.5 -22.65 Q17.55 -20.35 12.4 -18.0 L16.65 -21.05 Q18.85 -22.6 21.3 -23.8 L22.6 -24.4 23.45 -24.85 M24.6 -29.3 L23.95 -28.0 Q18.55 -24.95 12.75 -22.4 L24.6 -29.3 M25.9 -36.2 L18.3 -34.45 26.05 -37.95 25.9 -36.2 M5.15 -36.7 Q5.35 -35.35 5.2 -33.6 L5.15 -32.95 Q4.25 -30.85 2.25 -28.7 L1.05 -27.3 -1.6 -24.1 -4.0 -22.05 Q-5.8 -20.3 -6.95 -18.25 L-7.85 -16.2 -8.0 -15.0 -7.35 -14.7 -9.75 -13.45 -13.85 -13.15 -9.8 -16.9 -5.85 -20.9 Q-2.0 -25.4 -0.4 -30.65 L0.45 -35.35 Q0.6 -36.95 0.25 -38.55 L-0.2 -40.2 Q2.0 -38.05 4.9 -36.85 L5.15 -36.7 M22.65 17.25 L24.8 21.8 16.7 16.2 6.5 9.5 Q11.55 11.55 16.55 13.9 19.8 15.4 22.65 17.25 M16.65 26.15 L15.35 25.0 Q12.75 22.8 10.5 20.4 L9.35 19.0 8.75 17.95 14.35 21.9 14.9 22.95 15.25 23.6 16.65 26.15 M11.25 31.5 L10.95 31.65 10.3 32.3 Q7.85 34.85 4.5 35.1 L5.0 36.25 5.65 38.3 Q4.4 39.2 3.4 40.35 L3.35 38.2 Q3.05 35.15 0.85 32.6 L0.7 32.5 1.05 32.55 3.25 33.2 5.8 32.4 Q6.85 32.05 7.7 31.3 10.45 29.05 10.95 25.85 10.75 28.7 11.25 31.5 M10.65 36.15 Q10.9 33.85 11.3 31.6 11.65 33.7 12.45 35.85 L11.4 36.0 10.65 36.15 M-18.2 -45.4 L-16.7 -44.3 -27.2 -42.05 -19.0 -46.85 -18.2 -45.4 M-7.8 12.05 L-7.8 12.1 Q-7.15 15.0 -5.0 17.5 L-4.9 17.55 -4.55 20.8 Q-6.2 16.4 -9.15 12.5 L-11.15 9.85 -8.15 12.05 -7.8 12.05 M-15.25 45.65 Q-20.1 46.7 -25.3 45.65 L-23.1 45.2 Q-20.7 44.8 -18.35 43.25 L-10.8 38.65 Q-8.8 37.4 -8.8 35.5 L-13.45 34.8 -11.05 33.4 -8.75 31.75 Q-5.4 29.45 -4.5 26.0 -4.25 25.15 -4.15 24.2 L-1.85 30.2 -2.6 30.0 -2.7 28.25 -3.05 28.55 -9.5 33.85 -10.6 34.4 -9.9 34.35 -8.45 34.55 -7.8 34.85 Q-6.95 35.65 -7.15 37.25 L-7.35 37.9 -8.85 40.35 -9.6 41.25 Q-12.2 43.6 -15.25 45.65" fill="#33ccff" fill-rule="evenodd" stroke="none"/>
    <path d="M-2.75 -46.1 L-2.7 -45.6 Q-3.75 -45.35 -4.25 -44.6 L-4.4 -44.3 -7.0 -44.8 -7.35 -44.8 Q-5.4 -45.4 -4.0 -47.0 -3.9 -46.65 -3.4 -46.55 L-3.05 -46.35 -2.75 -46.1 M-1.2 -51.75 L-0.95 -51.8 0.9 -52.2 -2.05 -50.15 -3.25 -49.05 -3.5 -49.45 -3.85 -49.7 -5.95 -50.4 -1.2 -51.75 M23.45 -24.85 Q26.2 -26.25 28.55 -27.7 L28.0 -25.75 26.85 -24.9 Q25.75 -24.1 24.45 -23.6 L22.5 -22.65 22.95 -23.9 23.45 -24.85 M23.95 -28.0 L24.6 -29.3 29.25 -32.05 Q27.5 -30.1 25.2 -28.75 L23.95 -28.0 M-1.6 -24.1 L1.05 -27.3 2.25 -28.7 Q4.25 -30.85 5.15 -32.95 L5.2 -33.6 Q5.35 -35.35 5.15 -36.7 9.9 -34.95 14.9 -35.75 L10.3 -32.8 Q5.2 -29.5 0.45 -25.7 L-1.6 -24.1 M24.8 21.8 L22.65 17.25 27.5 20.85 Q28.9 22.05 29.9 23.6 L32.85 27.95 26.45 22.95 24.8 21.8 M14.35 21.9 L14.4 21.95 17.4 24.85 23.55 32.3 16.65 26.15 15.25 23.6 14.9 22.95 14.35 21.9 M5.65 38.3 L5.0 36.25 4.5 35.1 Q7.85 34.85 10.3 32.3 L10.95 31.65 11.25 31.5 11.3 31.6 Q10.9 33.85 10.65 36.15 7.8 36.7 5.65 38.3 M-4.9 17.55 L-5.0 17.5 Q-7.15 15.0 -7.8 12.1 L-7.8 12.05 -6.35 12.05 -5.5 12.45 -4.9 17.55 M-15.25 45.65 Q-12.2 43.6 -9.6 41.25 L-8.85 40.35 -7.35 37.9 -7.15 37.25 Q-6.95 35.65 -7.8 34.85 L-8.45 34.55 -9.9 34.35 -10.6 34.4 -9.5 33.85 -3.05 28.55 -2.7 28.25 -2.6 30.0 Q-3.55 29.8 -4.4 30.3 -7.2 31.9 -6.45 35.05 -5.85 37.25 -3.65 38.65 -3.4 38.8 -3.2 39.05 L-3.35 39.2 -6.0 41.25 Q-7.35 42.25 -8.95 43.1 -12.05 44.85 -15.25 45.65" fill="#cc0000" fill-rule="evenodd" stroke="none"/>
  </g>
</svg>
