<?xml version="1.0" encoding="UTF-8" standalone="no"?>
<svg xmlns:xlink="http://www.w3.org/1999/xlink" height="52.85px" width="213.5px" xmlns="http://www.w3.org/2000/svg">
  <g transform="matrix(1.0, 0.0, 0.0, 1.0, 106.5, 22.95)">
    <path d="M103.1 21.95 L99.05 19.4 92.65 15.15 86.05 10.55 82.7 8.15 82.7 26.95 105.5 27.75 105.95 23.2 Q104.35 22.7 103.1 21.95 M83.3 7.0 L84.2 6.95 85.5 8.1 94.15 13.55 107.0 21.65 107.0 29.5 89.7 28.75 86.3 28.75 79.55 29.0 76.9 29.0 67.35 29.05 57.0 28.65 56.75 6.25 Q59.4 7.45 61.9 8.95 L68.45 13.1 73.75 16.8 76.45 18.7 79.1 20.75 81.8 22.55 81.35 6.6 81.9 6.4 83.3 7.0 M81.05 24.2 Q79.6 23.75 78.55 22.7 75.15 19.55 71.25 17.15 L64.8 12.85 58.3 8.25 58.5 27.5 Q69.8 28.0 81.1 27.45 L81.05 24.2" fill="#000000" fill-rule="evenodd" stroke="none"/>
    <path d="M105.45 23.75 L105.85 23.55 Q104.6 22.05 100.65 19.7 L94.35 15.85 92.35 14.55 88.45 11.9 85.7 9.8 Q84.0 8.5 82.95 8.25 L82.95 8.7 Q82.95 9.2 87.45 12.25 L92.35 15.6 93.7 16.55 105.45 23.75 M106.1 28.15 L82.25 28.15 82.25 7.2 106.1 23.1 106.1 28.15 M-81.75 23.45 L-81.75 28.45 -105.65 28.45 -105.65 28.1 -106.05 28.1 -106.05 7.15 -82.15 23.1 -82.15 23.2 -81.75 23.45 M-99.45 12.15 L-99.75 11.9 Q-101.7 10.35 -102.55 10.0 L-103.25 9.4 -104.0 8.85 -104.4 8.55 -105.5 8.35 -105.7 8.35 -105.85 8.7 -105.5 9.1 -104.4 9.85 -103.2 10.65 -100.7 12.3 -100.3 12.55 -99.55 13.05 -94.3 16.5 Q-90.05 19.1 -88.4 20.3 -83.35 24.0 -82.65 24.0 L-82.3 23.9 Q-82.55 23.35 -83.15 22.8 L-84.15 22.05 -87.15 20.4 -89.9 18.35 Q-91.6 17.1 -92.9 16.35 L-98.7 12.75 -98.6 12.75 -99.45 12.15 M-82.15 23.8 L-82.15 24.35 -81.9 24.25 -82.15 23.8" fill="#02441b" fill-rule="evenodd" stroke="none"/>
    <path d="M105.45 23.75 L93.7 16.55 92.35 15.6 87.45 12.25 Q82.95 9.2 82.95 8.7 L82.95 8.25 Q84.0 8.5 85.7 9.8 L88.45 11.9 92.35 14.55 94.35 15.85 100.65 19.7 Q104.6 22.05 105.85 23.55 L105.45 23.75 M-99.45 12.15 L-98.6 12.75 -98.7 12.75 -92.9 16.35 Q-91.6 17.1 -89.9 18.35 L-87.15 20.4 -84.15 22.05 -83.15 22.8 Q-82.55 23.35 -82.3 23.9 L-82.65 24.0 Q-83.35 24.0 -88.4 20.3 -90.05 19.1 -94.3 16.5 L-99.55 13.05 -100.3 12.55 -100.7 12.3 -103.2 10.65 -104.4 9.85 -105.5 9.1 -105.85 8.7 -105.7 8.35 -105.5 8.35 -104.4 8.55 -104.0 8.85 -103.25 9.4 -102.55 10.0 Q-101.7 10.35 -99.75 11.9 L-99.45 12.15 M-82.15 23.8 L-81.9 24.25 -82.15 24.35 -82.15 23.8" fill="#035c25" fill-rule="evenodd" stroke="none"/>
    <path d="M57.4 9.0 L61.6 11.6 63.75 12.85 64.8 13.5 67.0 14.9 68.85 16.05 70.3 16.95 70.4 16.95 70.45 17.0 74.55 20.25 75.9 21.2 78.7 23.05 78.75 23.1 80.55 24.25 81.0 24.0 80.95 23.95 81.0 23.85 81.0 23.5 Q81.0 23.1 76.35 20.4 L75.9 20.05 Q75.2 19.45 74.7 19.35 L74.35 19.1 74.35 18.95 71.15 16.55 70.75 16.15 70.1 15.65 Q69.35 15.1 67.2 13.9 L66.05 13.3 63.0 11.1 57.4 7.5 61.4 9.75 81.45 23.1 81.45 28.15 65.6 28.15 66.15 26.5 Q66.15 24.5 58.0 16.3 L57.4 9.0 M-81.75 23.45 L-81.75 7.5 -79.85 8.7 -79.9 8.75 -79.7 8.85 -58.6 23.0 -58.6 23.05 -60.55 21.75 -63.7 19.95 -69.7 15.95 -72.55 13.85 -73.6 13.15 -74.3 12.7 -75.6 12.05 -77.35 11.05 -77.45 11.0 -78.7 10.0 -79.6 8.95 Q-80.85 8.4 -81.35 8.75 L-78.5 11.25 -76.6 12.55 -74.3 14.0 -73.6 14.45 -72.65 15.05 -70.35 16.55 -64.85 20.25 -61.2 22.55 -58.6 24.05 -58.6 28.45 -81.75 28.45 -81.75 23.45" fill="#4f7500" fill-rule="evenodd" stroke="none"/>
    <path d="M57.4 7.5 L63.0 11.1 66.05 13.3 67.2 13.9 Q69.35 15.1 70.1 15.65 L70.75 16.15 71.15 16.55 74.35 18.95 74.35 19.1 74.7 19.35 Q75.2 19.45 75.9 20.05 L76.35 20.4 Q81.0 23.1 81.0 23.5 L81.0 23.85 80.95 23.95 81.0 24.0 80.55 24.25 78.75 23.1 78.7 23.05 75.9 21.2 74.55 20.25 70.45 17.0 70.4 16.95 70.3 16.95 68.85 16.05 67.0 14.9 64.8 13.5 63.75 12.85 61.6 11.6 57.4 9.0 57.4 7.5 M-58.6 24.05 L-61.2 22.55 -64.85 20.25 -70.35 16.55 -72.65 15.05 -73.6 14.45 -74.3 14.0 -76.6 12.55 -78.5 11.25 -81.35 8.75 Q-80.85 8.4 -79.6 8.95 L-78.7 10.0 -77.45 11.0 -77.35 11.05 -75.6 12.05 -74.3 12.7 -73.6 13.15 -72.55 13.85 -69.7 15.95 -63.7 19.95 -60.55 21.75 -58.6 23.05 -58.6 24.05" fill="#95dd00" fill-rule="evenodd" stroke="none"/>
    <path d="M-42.35 11.25 L29.0 10.6 29.05 10.65 32.4 10.9 34.05 10.75 35.6 10.75 37.75 11.15 Q38.4 11.6 40.15 11.65 L40.15 11.35 42.85 11.75 43.85 12.1 44.0 12.4 Q48.55 14.55 52.8 17.15 L54.5 18.75 Q57.85 21.85 58.75 23.35 L59.85 25.0 61.0 26.6 63.35 29.0 62.65 29.9 61.0 29.85 59.85 28.25 57.85 25.9 54.0 21.5 Q51.05 17.75 42.0 14.75 L39.6 14.4 34.65 14.5 34.6 14.35 33.8 14.35 33.8 17.6 30.3 17.6 32.9 17.4 33.35 16.95 33.35 13.9 -42.3 14.6 -42.35 14.6 -42.35 14.1 -42.35 11.25 M40.4 7.65 L40.15 7.65 37.75 7.5 37.7 7.65 -41.9 8.35 -42.35 8.3 -42.35 7.65 -39.6 7.65 39.15 6.95 39.15 7.45 40.4 7.45 40.4 7.65 M40.4 20.0 L40.4 28.1 40.15 28.1 40.35 20.0 40.4 20.0 M-40.95 20.25 L-40.8 28.35 -41.1 28.35 -41.1 20.25 -40.95 20.25" fill="#999999" fill-rule="evenodd" stroke="none"/>
    <path d="M58.0 16.3 Q66.15 24.5 66.15 26.5 L65.6 28.15 65.15 29.35 63.75 29.35 63.35 29.0 61.0 26.6 59.85 25.0 58.75 23.35 Q57.85 21.85 54.5 18.75 L52.8 17.15 Q50.25 14.9 48.75 14.0 L45.95 12.8 43.85 12.1 42.85 11.75 40.15 11.35 40.15 11.65 Q38.4 11.6 37.75 11.15 L35.6 10.75 34.05 10.75 32.4 10.9 29.05 10.65 29.0 10.6 -42.35 11.25 -42.35 8.3 -41.9 8.35 37.7 7.65 37.75 7.5 40.15 7.65 40.4 7.65 40.4 7.7 40.6 7.75 41.85 8.0 Q47.85 8.1 57.35 16.25 L59.85 18.5 58.0 16.3" fill="#e1e1e1" fill-rule="evenodd" stroke="none"/>
    <path d="M-42.35 14.1 L-42.35 14.6 -42.3 14.6 Q-42.0 21.45 -42.25 28.4 L-54.2 28.05 -54.25 27.45 Q-53.25 25.75 -53.2 23.8 -53.15 18.1 -52.75 12.7 -51.3 10.75 -49.4 9.7 -47.55 8.8 -45.35 8.45 L-43.95 8.35 -42.7 8.8 -42.35 14.1 M-43.75 10.1 L-46.4 9.75 Q-47.9 10.5 -48.6 11.7 -53.0 18.95 -52.3 27.75 L-51.05 27.85 Q-45.15 19.9 -43.75 10.1" fill="#660099" fill-rule="evenodd" stroke="none"/>
    <path d="M-43.75 10.1 Q-45.15 19.9 -51.05 27.85 L-52.3 27.75 Q-53.0 18.95 -48.6 11.7 -47.9 10.5 -46.4 9.75 L-43.75 10.1" fill="#450066" fill-rule="evenodd" stroke="none"/>
    <path d="M-31.1 8.4 Q-31.8 3.9 -32.85 -1.0 L-34.15 -6.5 -34.55 -7.9 Q-36.85 -16.7 -39.3 -22.25 -32.15 -16.7 -29.05 -11.15 L-26.45 -6.5 -25.3 -4.4 -25.2 -4.2 -23.85 -1.0 Q-22.0 3.9 -21.2 9.0 L-21.3 9.45 -26.85 10.2 -30.95 9.95 -31.05 9.05 -31.05 9.0 -31.1 8.4 M-25.35 8.1 L-22.85 7.9 Q-23.8 3.7 -25.3 -0.25 L-25.6 -1.0 -26.95 -4.15 -28.15 -6.5 Q-31.05 -11.9 -35.2 -16.65 L-35.7 -17.25 -37.45 -19.15 Q-34.6 -11.95 -32.95 -6.5 L-32.2 -4.0 -31.45 -1.0 -31.25 0.0 Q-29.8 7.1 -29.75 8.4 L-29.15 8.35 -25.35 8.1" fill="#000000" fill-rule="evenodd" stroke="none"/>
    <path d="M-35.2 -16.65 Q-32.45 -11.75 -30.25 -6.5 L-29.25 -4.05 -28.1 -1.0 -26.75 3.15 -25.35 8.1 -29.15 8.35 Q-29.8 3.65 -30.8 -1.0 L-31.55 -4.0 -32.2 -6.5 -34.0 -12.3 -35.7 -17.25 -35.2 -16.65" fill="#757575" fill-rule="evenodd" stroke="none"/>
    <path d="M-31.1 9.0 L-31.1 8.4 -31.05 9.0 -31.1 9.0 M-25.35 8.1 L-26.75 3.15 -28.1 -1.0 -29.25 -4.05 -30.25 -6.5 Q-32.45 -11.75 -35.2 -16.65 -31.05 -11.9 -28.15 -6.5 L-26.95 -4.15 -25.6 -1.0 -25.3 -0.25 Q-23.8 3.7 -22.85 7.9 L-25.35 8.1 M-35.7 -17.25 L-34.0 -12.3 -32.2 -6.5 -31.55 -4.0 -30.8 -1.0 Q-29.8 3.65 -29.15 8.35 L-29.75 8.4 Q-29.8 7.1 -31.25 0.0 L-31.45 -1.0 -32.2 -4.0 -32.95 -6.5 Q-34.6 -11.95 -37.45 -19.15 L-35.7 -17.25" fill="#000000" fill-opacity="0.8392157" fill-rule="evenodd" stroke="none"/>
    <path d="M-31.05 9.05 L-31.45 9.0 -31.1 9.0 -31.05 9.0 -31.05 9.05" fill="#999999" fill-rule="evenodd" stroke="none"/>
    <path d="M-14.65 -15.8 Q-10.3 -10.5 -7.35 -4.5 -4.75 0.8 -3.3 6.7 L-3.1 7.9 -6.35 8.15 -6.6 5.3 Q-7.25 0.2 -8.9 -4.5 -11.0 -10.45 -14.65 -15.8 M-9.25 8.35 L-9.95 8.4 Q-10.0 7.1 -11.45 0.0 L-12.55 -4.45 Q-14.25 -10.55 -17.65 -19.15 L-16.05 -17.4 -14.4 -12.45 -12.05 -4.45 Q-10.4 1.85 -9.25 8.35 M-11.25 9.0 L-11.6 9.0 -11.8 5.9 -11.3 8.4 -11.25 9.0" fill="#000000" fill-opacity="0.8392157" fill-rule="evenodd" stroke="none"/>
    <path d="M-16.05 -17.4 L-14.65 -15.8 Q-11.0 -10.45 -8.9 -4.5 -7.25 0.2 -6.6 5.3 L-6.35 8.15 -9.25 8.35 Q-10.4 1.85 -12.05 -4.45 L-14.4 -12.45 -16.05 -17.4" fill="#757575" fill-rule="evenodd" stroke="none"/>
    <path d="M-14.65 -15.8 L-16.05 -17.4 -17.65 -19.15 Q-14.25 -10.55 -12.55 -4.45 L-11.45 0.0 Q-10.0 7.1 -9.95 8.4 L-9.25 8.35 -6.35 8.15 -3.1 7.9 -3.05 7.9 -3.3 6.7 Q-4.75 0.8 -7.35 -4.5 -10.3 -10.5 -14.65 -15.8 M-11.8 5.9 Q-12.9 0.7 -15.5 -8.65 -17.65 -16.25 -19.7 -22.15 -9.8 -13.3 -5.8 -5.05 L-5.55 -4.5 Q-2.5 2.05 -1.4 9.0 L-1.5 9.45 -7.05 10.2 -11.15 9.95 -11.25 9.05 -11.25 9.0 -11.3 8.4 -11.8 5.9" fill="#000000" fill-rule="evenodd" stroke="none"/>
    <path d="M9.25 8.35 L8.55 8.4 Q8.5 7.1 7.05 0.0 L5.95 -4.45 Q4.25 -10.55 0.85 -19.15 7.3 -12.4 11.2 -4.4 14.0 1.4 15.45 7.9 L12.35 8.15 11.95 5.55 Q11.05 0.35 9.25 -4.4 6.75 -10.9 2.55 -16.7 L3.55 -13.6 6.3 -4.45 Q8.05 1.9 9.25 8.35" fill="#000000" fill-opacity="0.8392157" fill-rule="evenodd" stroke="none"/>
    <path d="M9.25 8.35 Q8.05 1.9 6.3 -4.45 L3.55 -13.6 2.55 -16.7 Q6.75 -10.9 9.25 -4.4 11.05 0.35 11.95 5.55 L12.35 8.15 9.25 8.35" fill="#757575" fill-rule="evenodd" stroke="none"/>
    <path d="M7.3 9.35 L7.2 8.4 7.2 8.3 Q6.0 1.85 3.95 -6.0 1.9 -13.9 -1.4 -22.95 L-0.7 -22.9 Q7.75 -15.25 12.7 -5.05 L13.05 -4.35 Q15.95 2.05 17.1 8.85 L17.1 9.0 17.0 9.45 11.45 10.2 7.35 9.95 7.35 9.9 7.3 9.35 M12.35 8.15 L15.45 7.9 Q14.0 1.4 11.2 -4.4 7.3 -12.4 0.85 -19.15 4.25 -10.55 5.95 -4.45 L7.05 0.0 Q8.5 7.1 8.55 8.4 L9.25 8.35 12.35 8.15" fill="#000000" fill-rule="evenodd" stroke="none"/>
    <path d="M7.35 9.9 L7.1 9.35 7.3 9.35 7.35 9.9" fill="#e1e1e1" fill-rule="evenodd" stroke="none"/>
    <path d="M32.05 8.25 L31.6 5.15 Q30.8 0.45 29.25 -3.85 26.7 -11.1 22.1 -17.4 L23.3 -14.2 Q25.25 -9.15 26.6 -3.95 28.15 2.15 28.95 8.45 L28.4 8.5 Q28.35 7.2 26.9 0.1 L25.9 -3.95 Q24.2 -10.15 20.7 -19.05 27.35 -12.1 31.3 -3.8 33.95 1.8 35.3 8.0 L32.05 8.25" fill="#000000" fill-opacity="0.8392157" fill-rule="evenodd" stroke="none"/>
    <path d="M28.95 8.45 Q28.15 2.15 26.6 -3.95 25.25 -9.15 23.3 -14.2 L22.1 -17.4 Q26.7 -11.1 29.25 -3.85 30.8 0.45 31.6 5.15 L32.05 8.25 28.95 8.45" fill="#757575" fill-rule="evenodd" stroke="none"/>
    <path d="M32.05 8.25 L35.3 8.0 Q33.95 1.8 31.3 -3.8 27.35 -12.1 20.7 -19.05 24.2 -10.15 25.9 -3.95 L26.9 0.1 Q28.35 7.2 28.4 8.5 L28.95 8.45 32.05 8.25 M27.1 9.1 L27.1 8.95 27.05 8.5 Q25.85 -3.85 18.5 -22.25 28.0 -14.3 32.55 -4.95 L33.1 -3.75 Q35.85 2.4 36.95 8.95 L36.95 9.1 36.85 9.55 31.3 10.3 27.2 10.05 27.15 9.35 27.1 9.15 27.1 9.1" fill="#000000" fill-rule="evenodd" stroke="none"/>
    <path d="M36.95 8.95 L38.05 8.95 38.05 13.55 38.6 13.55 38.5 13.65 37.95 13.65 37.6 12.9 37.6 10.05 37.85 9.1 36.95 9.1 36.95 8.95" fill="#999999" fill-rule="evenodd" stroke="none"/>
    <path d="M27.15 9.35 L25.9 9.1 27.1 9.1 27.1 9.15 27.15 9.35" fill="#e1e1e1" fill-rule="evenodd" stroke="none"/>
    <path d="M41.65 8.05 L40.4 8.1 39.65 8.1 35.6 8.1 35.75 7.15 39.65 7.15 41.65 7.2 41.65 7.35 Q43.45 7.3 45.65 8.25 L50.75 10.6 Q52.6 11.35 54.8 13.0 L58.35 15.85 Q61.75 18.5 64.45 22.0 L68.0 27.1 68.25 27.1 Q68.9 28.1 69.25 28.25 L69.25 29.4 69.1 29.6 68.25 29.5 67.6 28.45 67.4 27.95 Q58.9 18.65 56.55 16.65 50.1 11.05 41.65 8.05 M47.5 17.6 L43.25 16.0 41.65 15.3 41.65 15.4 41.5 15.25 41.15 15.0 39.65 15.0 16.6 15.0 5.35 15.75 -40.1 15.8 -41.75 15.8 -41.55 21.9 Q-41.55 27.0 -41.9 29.0 L-44.05 29.0 -53.35 28.95 -53.4 29.0 -54.5 29.0 -54.75 23.05 -54.5 17.8 -54.8 17.35 -54.45 13.85 Q-54.3 12.65 -53.65 11.6 -52.8 10.2 -51.55 9.1 -50.7 8.4 -49.65 8.05 L-47.5 7.25 -41.85 7.15 -40.1 7.15 -30.45 7.15 -30.4 8.35 -40.1 8.4 -41.9 8.4 -41.8 14.25 -28.4 14.2 -27.75 14.25 -27.35 14.2 11.4 14.0 Q20.4 13.2 39.65 13.4 L40.4 13.5 41.65 13.6 41.65 13.8 Q46.7 14.7 50.05 17.1 L55.0 21.4 58.7 25.2 Q61.05 27.5 61.15 28.75 L61.15 28.9 61.4 29.25 Q61.55 29.5 60.95 29.5 L60.25 28.8 59.6 28.75 53.25 21.95 Q51.2 19.95 48.95 18.4 L47.5 17.6 M-11.0 7.15 L-10.85 8.1 -21.65 8.25 -21.55 7.15 -11.0 7.15 M8.0 7.1 L8.25 8.1 5.35 8.1 3.2 7.8 -2.15 7.95 -2.45 7.95 -2.25 7.1 -2.1 7.1 -0.1 7.15 1.15 7.1 1.15 7.05 8.0 7.1 M27.75 7.15 L27.75 7.4 27.85 8.1 16.45 8.1 16.5 7.5 16.55 7.1 27.75 7.15 M-48.1 9.4 L-50.25 11.1 Q-51.65 11.8 -52.2 13.05 L-52.75 15.35 -52.95 17.0 -52.8 17.0 -52.75 17.5 -53.0 18.5 -53.1 18.9 -53.15 19.85 -53.15 21.3 -52.95 23.95 -52.6 26.75 -47.5 27.1 -45.45 27.5 -44.2 27.5 -44.2 27.65 -44.15 27.65 -43.55 27.6 -43.25 23.65 -43.25 18.05 -43.65 18.1 -43.5 14.25 -43.25 14.25 -43.25 11.1 -43.1 11.0 -43.05 10.55 Q-43.05 9.5 -43.45 8.4 L-44.5 8.45 -45.85 8.5 Q-47.3 8.85 -48.1 9.4 M-58.9 20.5 L-55.8 22.4 -55.8 22.5 -55.65 22.5 -55.5 23.5 -55.75 27.9 -55.8 28.0 -55.8 29.1 -58.15 28.85 -58.8 28.75 -58.75 28.95 -105.55 28.75 -106.5 28.5 -106.5 6.0 -105.05 6.05 -82.25 21.1 -82.4 6.3 -81.6 6.35 Q-70.75 13.7 -59.7 20.45 L-58.9 20.5 M-59.1 22.95 L-81.05 8.75 -80.8 27.55 -59.8 27.5 -59.8 27.4 -57.8 27.25 -57.55 25.95 -57.75 23.4 -58.9 23.25 -59.1 23.0 -59.1 22.95 M-105.4 27.6 L-82.15 27.55 -82.65 23.3 -105.25 8.4 -105.4 27.6" fill="#000000" fill-rule="evenodd" stroke="none"/>
  </g>
</svg>
