<?xml version="1.0" encoding="UTF-8" standalone="no"?>
<svg xmlns:xlink="http://www.w3.org/1999/xlink" height="57.95px" width="114.65px" xmlns="http://www.w3.org/2000/svg">
  <g transform="matrix(1.0, 0.0, 0.0, 1.0, 57.4, 28.95)">
    <path d="M-32.15 3.0 L-32.15 2.4 -32.1 3.0 -32.15 3.0 M-13.1 3.0 L-13.3 -0.1 -12.8 2.4 -12.75 3.0 -13.1 3.0 M5.85 2.35 L5.15 2.4 Q5.1 1.1 3.65 -6.0 L2.55 -10.45 Q0.85 -16.55 -2.55 -25.15 3.9 -18.4 7.8 -10.4 10.6 -4.6 12.05 1.9 L8.95 2.15 8.55 -0.45 Q7.65 -5.65 5.85 -10.4 3.35 -16.9 -0.85 -22.7 L0.15 -19.6 2.9 -10.45 Q4.65 -4.1 5.85 2.35 M27.8 2.15 L27.35 -0.95 Q26.55 -5.65 25.0 -9.95 22.45 -17.2 17.85 -23.5 L19.05 -20.3 Q21.0 -15.25 22.35 -10.05 23.9 -3.95 24.7 2.35 L24.15 2.4 Q24.1 1.1 22.65 -6.0 L21.65 -10.05 Q19.95 -16.25 16.45 -25.15 23.1 -18.2 27.05 -9.9 29.7 -4.3 31.05 1.9 L27.8 2.15 M-36.25 -22.65 Q-31.2 -16.85 -28.0 -10.15 -25.3 -4.45 -23.9 1.9 L-26.4 2.1 -27.8 -2.85 -30.3 -10.05 Q-32.9 -16.6 -36.25 -22.65 M-30.2 2.35 L-30.8 2.4 Q-30.85 1.1 -32.3 -6.0 L-33.25 -10.0 Q-35.0 -16.2 -38.5 -25.15 L-36.75 -23.25 -35.05 -18.3 Q-33.65 -14.2 -32.6 -10.0 -31.05 -3.9 -30.2 2.35 M-16.15 -21.8 Q-11.8 -16.5 -8.85 -10.5 -6.25 -5.2 -4.8 0.7 L-4.6 1.9 -7.85 2.15 -8.1 -0.7 Q-8.75 -5.8 -10.4 -10.5 -12.5 -16.45 -16.15 -21.8 M-10.75 2.35 L-11.45 2.4 Q-11.5 1.1 -12.95 -6.0 L-14.05 -10.45 Q-15.75 -16.55 -19.15 -25.15 L-17.55 -23.4 -15.9 -18.45 -13.55 -10.45 Q-11.9 -4.15 -10.75 2.35" fill="#000000" fill-opacity="0.8392157" fill-rule="evenodd" stroke="none"/>
    <path d="M3.85 2.85 L3.8 2.4 3.8 2.3 Q2.6 -4.15 0.55 -12.0 -1.5 -19.9 -4.8 -28.95 L-4.1 -28.9 Q4.35 -21.25 9.3 -11.05 L9.65 -10.35 Q12.55 -3.95 13.7 2.85 L13.7 3.0 13.65 3.35 13.6 3.45 8.05 4.2 4.0 3.95 3.95 3.95 3.95 3.9 3.9 3.35 3.85 2.85 M22.85 2.85 L22.8 2.4 Q21.6 -9.95 14.25 -28.35 23.75 -20.4 28.3 -11.05 L28.85 -9.85 Q31.6 -3.7 32.7 2.85 L32.7 3.0 32.6 3.45 27.55 4.15 27.05 4.2 22.95 3.95 22.9 3.25 22.85 3.05 22.85 3.0 22.85 2.85 M-32.15 2.4 Q-33.3 -5.15 -35.6 -13.9 -37.9 -22.7 -40.35 -28.25 -33.2 -22.7 -30.1 -17.15 L-26.25 -10.2 Q-23.35 -3.8 -22.25 3.0 L-22.35 3.45 -27.9 4.2 -32.0 3.95 -32.1 3.05 -32.1 3.0 -32.15 2.4 M-13.3 -0.1 Q-14.4 -5.3 -17.0 -14.65 -19.15 -22.25 -21.2 -28.15 -11.3 -19.3 -7.3 -11.05 L-7.05 -10.5 Q-4.0 -3.95 -2.9 3.0 L-3.0 3.45 -8.55 4.2 -12.65 3.95 -12.7 3.35 -12.75 3.05 -12.75 3.0 -12.8 2.4 -13.3 -0.1 M8.95 2.15 L12.05 1.9 Q10.6 -4.6 7.8 -10.4 3.9 -18.4 -2.55 -25.15 0.85 -16.55 2.55 -10.45 L3.65 -6.0 Q5.1 1.1 5.15 2.4 L5.85 2.35 8.95 2.15 M27.8 2.15 L31.05 1.9 Q29.7 -4.3 27.05 -9.9 23.1 -18.2 16.45 -25.15 19.95 -16.25 21.65 -10.05 L22.65 -6.0 Q24.1 1.1 24.15 2.4 L24.7 2.35 27.8 2.15 M-26.4 2.1 L-23.9 1.9 Q-25.3 -4.45 -28.0 -10.15 -31.2 -16.85 -36.25 -22.65 L-36.75 -23.25 -38.5 -25.15 Q-35.0 -16.2 -33.25 -10.0 L-32.3 -6.0 Q-30.85 1.1 -30.8 2.4 L-30.2 2.35 -26.4 2.1 M-16.15 -21.8 L-17.55 -23.4 -19.15 -25.15 Q-15.75 -16.55 -14.05 -10.45 L-12.95 -6.0 Q-11.5 1.1 -11.45 2.4 L-10.75 2.35 -7.85 2.15 -4.6 1.9 -4.55 1.9 -4.8 0.7 Q-6.25 -5.2 -8.85 -10.5 -11.8 -16.5 -16.15 -21.8" fill="#000000" fill-rule="evenodd" stroke="none"/>
    <path d="M5.85 2.35 Q4.65 -4.1 2.9 -10.45 L0.15 -19.6 -0.85 -22.7 Q3.35 -16.9 5.85 -10.4 7.65 -5.65 8.55 -0.45 L8.95 2.15 5.85 2.35 M24.7 2.35 Q23.9 -3.95 22.35 -10.05 21.0 -15.25 19.05 -20.3 L17.85 -23.5 Q22.45 -17.2 25.0 -9.95 26.55 -5.65 27.35 -0.95 L27.8 2.15 24.7 2.35 M-36.25 -22.65 Q-32.9 -16.6 -30.3 -10.05 L-27.8 -2.85 -26.4 2.1 -30.2 2.35 Q-31.05 -3.9 -32.6 -10.0 -33.65 -14.2 -35.05 -18.3 L-36.75 -23.25 -36.25 -22.65 M-17.55 -23.4 L-16.15 -21.8 Q-12.5 -16.45 -10.4 -10.5 -8.75 -5.8 -8.1 -0.7 L-7.85 2.15 -10.75 2.35 Q-11.9 -4.15 -13.55 -10.45 L-15.9 -18.45 -17.55 -23.4" fill="#757575" fill-rule="evenodd" stroke="none"/>
    <path d="M13.7 2.85 L14.2 2.85 14.2 7.45 21.05 7.45 21.05 2.85 22.85 2.85 22.85 3.0 21.65 3.0 22.9 3.25 22.95 3.95 27.05 4.2 27.55 4.15 28.7 4.35 28.95 14.85 29.65 17.6 21.05 17.6 21.05 14.35 14.2 14.35 14.2 17.15 3.0 17.15 3.0 14.6 -2.8 14.6 -2.8 17.4 -14.25 17.4 -14.25 14.6 -21.3 14.6 -21.3 17.85 -34.35 17.85 -34.35 14.6 -43.3 14.6 -43.05 20.25 -40.95 20.25 -40.8 28.35 -56.7 28.35 -56.75 25.4 -56.75 24.05 -56.75 20.25 -54.6 20.25 -54.6 19.25 -54.5 15.95 -54.35 14.85 -53.9 12.5 -53.55 11.4 -53.0 10.6 -52.2 9.95 -51.45 9.25 -49.4 8.1 -48.15 7.7 -34.35 7.7 -34.35 3.0 -32.5 3.0 -32.15 3.0 -32.1 3.0 -32.1 3.05 -32.5 3.0 -34.0 3.7 -32.0 3.95 -27.9 4.2 -26.9 4.15 -26.7 4.95 -26.4 17.6 -22.15 17.6 -21.5 3.45 -22.35 3.45 -22.25 3.0 -21.3 3.0 -21.3 7.7 -14.25 7.7 -14.25 3.0 -13.1 3.0 -12.75 3.0 -12.75 3.05 -12.7 3.35 -13.6 3.35 -13.25 4.0 -10.35 4.35 -8.0 4.25 -8.05 13.65 -7.5 16.75 -5.75 16.95 -5.3 17.0 -4.0 17.1 -3.65 17.1 -2.9 3.45 -3.0 3.45 -2.9 3.0 -2.8 3.0 -2.8 7.45 3.0 7.45 3.0 2.85 3.85 2.85 3.9 3.35 3.7 3.35 3.95 3.9 3.95 3.95 4.0 3.95 4.05 4.15 9.0 4.35 9.75 16.45 13.25 16.55 13.65 13.3 13.7 3.35 13.65 3.35 13.7 3.0 13.7 2.85 M32.7 2.85 L33.8 2.85 33.8 7.45 47.35 7.45 48.55 7.9 50.5 9.0 51.35 9.7 52.05 10.45 52.6 11.25 52.95 12.25 53.4 14.6 53.5 15.7 53.65 19.0 53.65 20.0 55.7 20.0 55.7 23.8 55.7 25.2 55.65 28.1 40.15 28.1 40.35 20.0 42.4 20.0 42.6 14.35 33.8 14.35 33.8 17.6 30.3 17.6 32.9 17.4 33.35 16.95 33.35 9.35 33.75 10.2 36.65 10.2 38.35 10.15 Q50.6 9.85 49.5 14.2 L49.4 20.05 40.7 20.45 41.05 21.15 51.05 21.0 51.8 21.7 52.3 27.6 54.8 27.6 55.25 20.65 53.25 20.05 52.75 13.8 Q53.3 10.0 47.15 7.75 L33.7 7.55 33.35 6.8 33.35 3.95 33.6 3.0 32.7 3.0 32.7 2.85 M-56.1 21.05 L-55.7 21.5 -54.85 21.7 -46.95 21.8 -41.8 21.5 -41.15 20.9 -41.15 20.7 -42.1 20.65 -47.1 20.95 -54.55 20.8 -56.05 20.7 -56.1 21.05 M-34.0 8.1 L-34.65 8.35 -40.85 8.35 Q-48.9 7.05 -51.7 10.2 L-52.8 11.3 -46.35 12.3 -43.0 11.25 -34.65 11.25 -34.0 11.0 -34.0 8.1" fill="#999999" fill-rule="evenodd" stroke="none"/>
    <path d="M30.3 17.6 L29.65 17.6 28.95 14.85 28.7 4.35 27.55 4.15 32.6 3.45 32.7 3.0 33.6 3.0 33.35 3.95 33.35 6.8 33.7 7.55 47.15 7.75 Q53.3 10.0 52.75 13.8 L53.25 20.05 55.25 20.65 54.8 27.6 52.3 27.6 51.8 21.7 51.05 21.0 41.05 21.15 40.7 20.45 49.4 20.05 49.5 14.2 Q50.6 9.85 38.35 10.15 L36.65 10.2 33.75 10.2 33.35 9.35 33.35 16.95 32.9 17.4 30.3 17.6 M3.9 3.35 L3.95 3.9 3.7 3.35 3.9 3.35 M4.0 3.95 L8.05 4.2 13.6 3.45 13.65 3.35 13.7 3.35 13.65 13.3 13.25 16.55 9.75 16.45 9.0 4.35 4.05 4.15 4.0 3.95 M22.9 3.25 L21.65 3.0 22.85 3.0 22.85 3.05 22.9 3.25 M-3.0 3.45 L-2.9 3.45 -3.65 17.1 -4.0 17.1 -5.3 17.0 -5.75 16.95 -7.5 16.75 -8.05 13.65 -8.0 4.25 -10.35 4.35 -13.25 4.0 -13.6 3.35 -12.7 3.35 -12.65 3.95 -8.55 4.2 -3.0 3.45 M-22.35 3.45 L-21.5 3.45 -22.15 17.6 -26.4 17.6 -26.7 4.95 -26.9 4.15 -27.9 4.2 -22.35 3.45 M-32.0 3.95 L-34.0 3.7 -32.5 3.0 -32.1 3.05 -32.0 3.95 M-34.0 8.1 L-34.0 11.0 -34.65 11.25 -43.0 11.25 -46.35 12.3 -52.8 11.3 -51.7 10.2 Q-48.9 7.05 -40.85 8.35 L-34.65 8.35 -34.0 8.1 M-56.1 21.05 L-56.05 20.7 -54.55 20.8 -47.1 20.95 -42.1 20.65 -41.15 20.7 -41.15 20.9 -41.8 21.5 -46.95 21.8 -54.85 21.7 -55.7 21.5 -56.1 21.05" fill="#e1e1e1" fill-rule="evenodd" stroke="none"/>
    <path d="M52.6 10.2 Q53.3 11.0 53.45 12.15 L54.05 19.6 57.25 19.5 56.5 28.75 39.5 28.85 39.55 19.05 42.4 19.2 42.35 17.55 Q42.3 16.0 41.3 15.0 L34.15 14.85 34.0 18.0 20.3 17.85 20.2 15.0 15.25 15.15 15.0 17.75 2.25 18.1 2.1 15.25 -2.25 15.25 -2.0 18.25 -14.8 18.25 -14.8 15.1 -20.25 15.55 -20.25 18.1 Q-27.6 18.85 -35.1 18.2 L-35.1 15.75 -42.0 15.8 -42.25 19.35 -40.25 19.25 -39.5 29.0 -57.4 28.95 -57.4 20.75 -57.25 19.75 -54.9 19.55 -54.9 19.25 -54.45 13.85 Q-54.3 12.65 -53.65 11.6 -52.8 10.2 -51.55 9.1 -50.7 8.4 -49.65 8.05 L-47.5 7.25 -41.85 7.15 -36.25 7.1 -34.95 7.05 -35.25 2.75 -20.25 2.5 -20.45 7.35 -14.65 7.35 -14.75 2.5 -2.0 2.75 -1.75 7.05 2.55 6.85 2.6 2.8 15.0 2.25 14.8 7.3 20.5 6.8 20.75 2.25 33.8 2.25 33.8 7.0 46.35 7.25 Q49.35 7.4 51.65 9.25 L52.6 10.2 M49.15 9.4 L48.25 8.95 Q45.3 7.95 42.25 8.05 L32.25 8.05 32.5 4.3 22.55 3.75 22.55 8.75 14.75 8.75 14.75 9.25 13.25 9.25 13.4 3.75 4.0 4.3 3.8 9.0 2.55 9.0 2.55 8.2 -1.75 8.25 -1.75 9.1 -3.25 9.1 -3.5 4.3 -13.25 4.05 -13.5 9.25 -14.45 9.25 -14.5 9.0 -20.5 8.85 -20.55 9.25 -21.85 9.25 -22.0 4.0 -33.5 4.3 -33.7 9.25 -34.75 9.25 -34.8 8.6 -38.25 8.5 Q-41.0 8.35 -44.5 8.45 -48.0 8.5 -50.0 9.7 -52.05 10.85 -52.55 12.5 L-53.25 15.95 -53.55 18.65 -53.65 19.85 -53.15 19.85 -53.15 21.3 -55.85 21.3 -56.3 27.5 -41.15 27.5 -41.75 20.85 -44.55 20.85 -44.55 19.6 -43.7 19.5 -43.5 14.25 -35.0 13.9 -34.95 13.75 -34.05 13.75 -33.6 16.8 -21.75 16.6 -21.4 13.75 -20.55 13.75 -20.5 14.05 -14.5 13.85 -14.4 13.75 -13.65 13.75 -13.6 13.85 -13.6 17.0 -3.75 16.6 -3.7 15.1 -3.8 14.6 -3.75 14.1 -3.3 13.9 -2.95 13.95 Q-2.7 14.05 -2.55 14.3 L2.15 14.25 2.25 13.75 3.25 13.75 3.6 16.6 13.45 16.25 13.3 13.75 14.65 13.75 14.8 14.0 20.25 13.95 20.25 13.75 21.25 13.75 21.25 16.35 32.75 16.3 32.8 12.85 43.05 13.7 43.55 15.45 44.0 19.4 44.4 19.7 44.4 19.85 44.0 20.05 43.75 20.5 41.15 20.45 41.0 27.3 55.05 26.75 55.25 21.0 53.2 20.85 Q52.85 20.2 52.8 19.6 L52.7 17.6 52.65 15.55 52.5 14.4 52.15 13.3 51.7 12.2 Q51.0 10.85 49.85 9.95 L49.15 9.4" fill="#000000" fill-rule="evenodd" stroke="none"/>
  </g>
</svg>
