<?xml version="1.0" encoding="UTF-8" standalone="no"?>
<svg xmlns:xlink="http://www.w3.org/1999/xlink" height="95.6px" width="345.05px" xmlns="http://www.w3.org/2000/svg">
  <g transform="matrix(1.0, 0.0, 0.0, 1.0, 172.4, 39.3)">
    <path d="M22.5 -4.7 L107.45 -4.7 115.65 -4.7 145.8 -4.7 145.8 18.2 142.2 16.6 142.2 -3.2 119.0 -3.2 -30.85 -3.2 -30.85 -4.7 -13.3 -4.7 14.9 -4.7 22.5 -4.7 M-137.1 -16.4 L-137.85 -16.4 -137.85 -21.9 -82.05 -21.9 -82.05 -16.5 -137.1 -16.5 -137.1 -16.4" fill="#ff9248" fill-rule="evenodd" stroke="none"/>
    <path d="M14.9 -4.7 L14.9 -17.4 17.5 -17.4 22.5 -4.7 14.9 -4.7 M90.7 37.75 L87.45 38.55 88.7 38.2 90.7 37.75" fill="#669900" fill-rule="evenodd" stroke="none"/>
    <path d="M101.95 -19.0 L102.6 -19.75 112.55 -19.75 115.65 -8.9 115.65 -5.05 Q114.45 -5.45 114.4 -6.8 L114.2 -8.4 113.95 -9.15 Q113.4 -10.45 112.35 -11.4 L112.6 -13.0 111.95 -15.55 Q111.25 -17.35 111.25 -17.8 L105.0 -18.25 Q103.15 -18.35 101.95 -19.0 M86.6 47.35 L82.9 45.1 82.9 42.0 89.3 41.05 89.3 47.35 86.6 47.35 M164.15 39.75 L163.0 39.75 161.25 37.05 162.75 37.05 164.15 39.75 M157.85 39.75 L156.0 39.75 153.85 35.8 155.3 35.8 157.85 39.75 M149.8 39.75 L148.75 39.75 146.75 35.65 147.9 35.65 149.8 39.75 M143.7 39.75 L142.05 39.75 141.2 37.8 142.4 37.8 143.7 39.75 M136.3 39.75 L134.45 39.75 132.7 36.3 134.45 36.3 136.3 39.75 M128.45 39.75 L126.65 39.75 123.8 36.0 125.3 36.0 128.45 39.75" fill="#666666" fill-rule="evenodd" stroke="none"/>
    <path d="M107.45 -4.7 L107.45 -15.25 102.6 -15.25 Q100.55 -17.15 101.95 -19.0 103.15 -18.35 105.0 -18.25 L111.25 -17.8 Q111.25 -17.35 111.95 -15.55 L112.6 -13.0 112.35 -11.4 Q113.4 -10.45 113.95 -9.15 L114.2 -8.4 114.4 -6.8 Q114.45 -5.45 115.65 -5.05 L115.65 -4.7 107.45 -4.7 M-30.85 42.0 L-90.85 42.05 -89.5 39.55 -89.25 18.95 -89.25 18.85 -89.25 17.6 -89.25 16.5 -89.35 13.7 -81.0 13.7 -81.05 8.3 -81.2 -7.15 -81.0 -7.15 -64.2 -6.6 -13.3 -6.6 -13.3 -4.7 -30.85 -4.7 -30.85 -3.2 -30.85 16.6 -30.85 18.2 -30.85 19.8 -30.85 42.0 M76.3 40.25 L76.3 41.45 62.85 41.45 62.85 40.25 62.85 37.75 76.3 37.75 76.3 40.25 M55.6 40.25 L55.6 41.45 42.1 41.45 42.1 40.25 42.1 37.8 55.6 37.8 55.6 40.25 M96.35 46.6 L95.6 40.25 97.25 40.25 97.25 46.1 96.35 46.6 M-20.25 -39.3 L-20.15 -39.3 -20.15 -39.0 -20.25 -39.3" fill="#333333" fill-rule="evenodd" stroke="none"/>
    <path d="M119.0 -3.2 L142.2 -3.2 142.2 16.6 134.2 16.6 133.65 15.25 127.6 15.25 127.1 16.6 119.0 16.6 119.0 -3.2" fill="#ff7e28" fill-rule="evenodd" stroke="none"/>
    <path d="M145.2 26.0 L147.8 26.0 147.15 28.55 144.4 33.2 145.0 33.2 144.55 33.25 142.75 33.25 145.2 28.7 145.2 27.25 139.55 27.25 141.15 26.0 142.3 26.0 145.2 26.0 M164.0 28.2 L166.0 27.6 171.35 29.95 170.35 31.3 164.0 28.2 M130.2 33.3 L128.85 33.6 128.85 29.05 128.3 27.25 123.65 27.85 124.5 26.55 129.4 26.0 130.2 28.55 130.2 33.3 M115.65 34.0 L114.35 34.3 114.35 30.2 113.3 28.2 110.05 28.9 110.8 27.35 114.1 26.75 115.65 29.95 115.65 34.0 M101.95 35.85 L100.8 36.15 100.8 31.6 99.45 29.6 96.1 29.6 96.55 28.55 100.65 27.95 101.95 31.3 101.95 35.85 M87.45 38.55 Q87.8 35.45 85.9 33.3 L78.65 37.1 78.65 36.0 86.6 30.95 88.0 33.65 Q89.25 36.45 88.7 38.2 L87.45 38.55" fill="#d4d4d4" fill-rule="evenodd" stroke="none"/>
    <path d="M149.9 33.2 L164.0 28.2 170.35 31.3 169.35 32.75 165.2 36.0 170.85 36.0 171.5 36.85 170.05 39.75 164.15 39.75 162.75 37.05 161.25 37.05 158.7 39.75 157.85 39.75 155.3 35.8 153.85 35.8 152.45 35.8 150.8 39.75 149.8 39.75 147.9 35.65 146.75 35.65 145.55 35.65 145.2 36.45 143.7 39.75 142.4 37.8 141.2 37.8 139.7 37.8 139.5 39.75 136.3 39.75 134.45 36.3 132.7 36.3 130.7 37.3 130.2 39.75 128.45 39.75 125.3 36.0 123.8 36.0 122.05 37.3 122.4 39.75 118.2 39.75 118.3 46.4 119.15 46.4 120.0 51.85 123.75 51.0 125.85 49.3 125.85 46.0 126.85 46.0 126.85 49.5 124.15 51.55 117.25 53.95 116.05 53.1 119.3 51.85 118.3 46.45 111.75 47.15 111.75 39.9 110.35 40.35 107.7 36.3 104.55 40.3 104.5 40.35 103.9 40.35 103.9 47.15 104.5 47.15 104.55 47.2 109.2 52.55 109.2 53.65 103.55 47.5 97.6 47.0 99.8 52.45 109.2 54.6 109.2 55.25 99.7 53.45 95.9 54.8 95.4 54.35 98.65 53.0 89.85 48.45 88.15 48.4 86.6 47.35 89.3 47.35 89.3 41.05 82.9 42.0 82.9 45.1 80.8 43.95 80.0 43.55 37.05 43.55 37.05 42.2 37.05 40.25 42.1 40.25 42.1 41.45 55.6 41.45 55.6 40.25 62.85 40.25 62.85 41.45 76.3 41.45 76.3 40.25 78.65 40.25 78.65 37.1 85.9 33.3 Q87.8 35.45 87.45 38.55 L90.7 37.75 92.7 37.3 93.75 34.9 96.1 29.6 99.45 29.6 100.8 31.6 100.8 36.15 101.95 35.85 107.2 35.1 108.3 32.75 110.05 28.9 113.3 28.2 114.35 30.2 114.35 34.3 115.65 34.0 121.25 33.45 122.75 29.1 123.65 27.85 128.3 27.25 128.85 29.05 128.85 33.6 130.2 33.3 135.15 33.3 137.95 28.55 139.55 27.25 145.2 27.25 145.2 28.7 142.75 33.25 144.55 33.25 145.2 33.2 145.4 33.2 145.8 33.2 146.55 33.2 149.9 33.2 M111.95 50.4 L110.85 49.65 110.85 46.9 111.75 47.15 111.95 50.4 M96.35 46.6 L97.25 46.1 97.25 40.25 95.6 40.25 96.35 46.6 M96.65 47.2 L90.9 47.55 98.9 52.3 96.65 47.2" fill="#999999" fill-rule="evenodd" stroke="none"/>
    <path d="M147.15 28.55 L147.45 28.05 159.2 29.7 149.9 33.2 146.55 33.2 145.8 33.2 145.4 33.2 145.2 33.2 145.0 33.2 144.4 33.2 147.15 28.55 M169.35 32.75 L170.85 36.0 165.2 36.0 169.35 32.75 M137.95 28.55 L135.15 33.3 130.2 33.3 130.2 28.55 137.95 28.55 M122.75 29.1 L121.25 33.45 115.65 34.0 115.65 29.95 119.0 29.55 122.75 29.1 M108.3 32.75 L107.2 35.1 101.95 35.85 101.95 31.3 109.3 30.4 108.3 32.75 M93.75 34.9 L92.7 37.3 90.7 37.75 88.7 38.2 Q89.25 36.45 88.0 33.65 L94.75 32.5 93.75 34.9" fill="#aeaeae" fill-rule="evenodd" stroke="none"/>
    <path d="M170.05 39.75 L171.9 39.75 171.9 45.75 126.85 46.0 125.85 46.0 119.15 46.4 118.3 46.4 118.2 39.75 122.4 39.75 126.65 39.75 128.45 39.75 130.2 39.75 134.45 39.75 136.3 39.75 139.5 39.75 142.05 39.75 143.7 39.75 145.2 39.75 148.75 39.75 149.8 39.75 150.8 39.75 156.0 39.75 157.85 39.75 158.7 39.75 163.0 39.75 164.15 39.75 170.05 39.75 M109.1 40.35 L110.35 40.35 111.75 39.9 111.75 47.15 110.85 46.9 109.25 46.9 106.5 47.15 104.5 47.15 103.9 47.15 103.9 40.35 104.5 40.35 106.05 40.35 109.1 40.35" fill="#ff0000" fill-rule="evenodd" stroke="none"/>
    <path d="M145.8 18.2 L145.8 18.35 145.2 18.35 145.2 26.0 142.3 26.0 142.3 19.8 119.0 19.8 75.5 19.8 75.5 18.2 145.8 18.2 M-81.0 -29.75 L-81.0 -31.25 -77.65 -31.25 -77.65 -31.2 -77.5 -31.2 -67.55 -31.2 -67.55 -31.25 -47.7 -31.25 -47.7 -30.35 -39.2 -30.35 -39.2 -31.25 -35.25 -31.25 -35.25 -29.75 -81.0 -29.75 M75.5 14.0 L54.1 16.2 54.1 14.0 75.5 14.0 M40.7 18.2 L40.7 19.8 -30.85 19.8 -30.85 18.2 40.7 18.2" fill="#908c5f" fill-rule="evenodd" stroke="none"/>
    <path d="M142.2 16.6 L145.8 18.2 75.5 18.2 75.5 16.6 119.0 16.6 127.1 16.6 127.6 15.25 133.65 15.25 134.2 16.6 142.2 16.6 M40.7 16.6 L40.7 18.2 -30.85 18.2 -30.85 16.6 40.7 16.6" fill="#9f4000" fill-rule="evenodd" stroke="none"/>
    <path d="M119.0 19.8 L142.3 19.8 142.3 26.0 141.15 26.0 139.55 27.25 137.95 28.55 130.2 28.55 129.4 26.0 124.5 26.55 123.65 27.85 122.75 29.1 119.0 29.55 119.0 19.8 M142.05 39.75 L139.5 39.75 139.7 37.8 141.2 37.8 142.05 39.75 M134.45 39.75 L130.2 39.75 130.7 37.3 132.7 36.3 134.45 39.75 M126.65 39.75 L122.4 39.75 122.05 37.3 123.8 36.0 126.65 39.75" fill="#6c6940" fill-rule="evenodd" stroke="none"/>
    <path d="M116.05 53.1 L111.95 50.4 111.75 47.15 118.3 46.45 119.3 51.85 116.05 53.1 M110.85 49.65 L109.2 48.55 109.2 52.55 104.55 47.2 104.5 47.15 106.5 47.15 108.25 49.5 109.25 46.9 110.85 46.9 110.85 49.65 M109.2 53.65 L109.2 54.6 99.8 52.45 97.6 47.0 103.55 47.5 109.2 53.65 M95.4 54.35 Q91.85 51.05 88.15 48.4 L89.85 48.45 98.65 53.0 95.4 54.35 M119.15 46.4 L125.85 46.0 125.85 49.3 123.75 51.0 120.0 51.85 119.15 46.4 M96.65 47.2 L98.9 52.3 90.9 47.55 96.65 47.2 M109.1 40.35 L107.6 37.95 106.05 40.35 104.5 40.35 104.55 40.3 107.7 36.3 110.35 40.35 109.1 40.35" fill="#797979" fill-rule="evenodd" stroke="none"/>
    <path d="M-81.2 -7.45 L-81.0 -7.45 -81.0 -7.15 -81.2 -7.15 -81.2 -7.45 M145.2 39.75 L143.7 39.75 145.2 36.45 145.2 39.75 M144.55 33.25 L145.0 33.2 145.2 33.2 144.55 33.25" fill="#8ed200" fill-rule="evenodd" stroke="none"/>
    <path d="M-13.55 42.0 L-30.85 42.0 -30.85 19.8 40.7 19.8 40.7 18.2 40.7 16.6 40.7 14.0 54.1 14.0 54.1 16.2 75.5 14.0 75.5 16.6 75.5 18.2 75.5 19.8 119.0 19.8 119.0 29.55 115.65 29.95 114.1 26.75 110.8 27.35 110.05 28.9 108.3 32.75 109.3 30.4 101.95 31.3 100.65 27.95 96.55 28.55 96.1 29.6 93.75 34.9 94.75 32.5 88.0 33.65 86.6 30.95 78.65 36.0 78.65 37.1 78.65 40.25 76.3 40.25 76.3 37.75 62.85 37.75 62.85 40.25 55.6 40.25 55.6 37.8 42.1 37.8 42.1 40.25 37.05 40.25 37.05 42.2 18.9 42.2 1.25 24.55 -13.55 42.0 M-164.7 16.8 L-163.35 16.8 -90.95 16.8 -90.95 17.0 -91.1 16.95 -91.3 35.95 -163.35 35.95 -164.7 16.8 M-81.0 -7.45 L-81.0 -29.75 -35.25 -29.75 -35.25 -12.95 -64.2 -10.8 -64.2 -6.6 -81.0 -7.15 -81.0 -7.45 M106.05 40.35 L107.6 37.95 109.1 40.35 106.05 40.35 M42.55 24.9 Q42.45 28.95 43.05 32.6 49.05 37.55 54.05 31.7 L54.45 24.2 Q53.05 29.2 50.5 29.85 44.55 31.05 42.6 25.05 L42.55 24.9" fill="#5b5836" fill-rule="evenodd" stroke="none"/>
    <path d="M-137.1 13.7 L-137.1 -16.4 -137.1 -16.5 -82.05 -16.5 -81.3 -16.5 -81.2 -10.5 -81.2 -8.5 -81.2 -7.45 -81.2 -7.15 -81.05 8.3 -81.0 13.7 -89.35 13.7 -137.1 13.7 M75.5 16.6 L75.5 14.0 54.1 14.0 40.7 14.0 40.7 16.6 -30.85 16.6 -30.85 -3.2 119.0 -3.2 119.0 16.6 75.5 16.6" fill="#ff6600" fill-rule="evenodd" stroke="none"/>
    <path d="M37.05 43.55 L30.45 43.55 30.45 43.95 10.7 43.95 9.35 43.4 18.9 43.4 18.9 42.2 37.05 42.2 37.05 43.55 M42.55 24.9 L42.6 25.05 Q44.55 31.05 50.5 29.85 53.05 29.2 54.45 24.2 L54.05 31.7 Q49.05 37.55 43.05 32.6 42.45 28.95 42.55 24.9 M-163.35 35.95 L-91.3 35.95 -91.1 16.95 -90.95 17.0 -90.95 16.8 -89.25 16.5 -89.25 17.6 -89.25 18.85 -89.25 18.95 -89.5 39.55 -165.35 39.55 -163.35 35.95" fill="#4a482d" fill-rule="evenodd" stroke="none"/>
    <path d="M9.35 43.4 L5.65 42.0 -13.55 42.0 1.25 24.55 18.9 42.2 18.9 43.4 9.35 43.4 M-163.35 13.7 L-151.6 0.45 -137.1 13.7 -163.35 13.7" fill="#02441b" fill-rule="evenodd" stroke="none"/>
    <path d="M-163.35 16.8 L-163.35 13.7 -137.1 13.7 -89.35 13.7 -89.25 16.5 -90.95 16.8 -163.35 16.8" fill="#01250f" fill-rule="evenodd" stroke="none"/>
    <path d="M-90.85 42.05 L-167.25 42.05 -171.85 40.55 -171.4 37.85 -165.35 39.55 -89.5 39.55 -90.85 42.05" fill="#272727" fill-rule="evenodd" stroke="none"/>
    <path d="M-170.9 34.45 Q-169.8 26.75 -169.45 19.95 L-166.8 16.8 -164.7 16.8 -163.35 35.95 -170.9 34.45" fill="#4f4e30" fill-rule="evenodd" stroke="none"/>
    <path d="M-171.4 37.85 L-170.9 34.45 -163.35 35.95 -165.35 39.55 -171.4 37.85" fill="#32311f" fill-rule="evenodd" stroke="none"/>
    <path d="M44.15 19.6 Q45.9 17.8 48.4 17.8 50.9 17.8 52.7 19.6 54.45 21.35 54.45 23.9 54.45 26.45 52.7 28.25 50.9 30.0 48.4 30.0 45.9 30.0 44.15 28.25 42.35 26.45 42.35 23.9 42.35 21.35 44.15 19.6" fill="#990000" fill-rule="evenodd" stroke="none"/>
    <path d="M118.0 3.4 L118.15 10.75 118.25 15.0 118.15 15.5 118.15 15.75 118.15 15.8 117.9 15.8 114.05 15.75 110.05 15.75 106.05 15.75 104.3 15.75 106.8 13.75 110.05 10.85 112.55 8.45 115.5 5.75 118.0 3.4 M-82.55 -14.0 L-82.55 -0.25 -82.65 2.1 Q-82.9 5.15 -82.8 8.6 L-82.95 8.65 -83.15 8.95 -83.35 9.7 -83.4 10.65 Q-83.4 11.45 -84.05 11.35 L-88.05 10.65 -91.8 10.95 Q-92.3 11.15 -92.45 10.55 L-92.75 9.7 Q-93.15 8.95 -93.6 9.55 L-93.75 9.7 -93.95 9.9 -94.8 10.5 -96.55 10.65 -97.8 10.85 -99.55 11.05 -102.05 10.65 -102.45 10.5 Q-102.75 9.8 -103.55 10.0 L-104.8 10.4 -105.05 10.5 -106.8 10.85 Q-107.75 11.05 -108.05 10.2 L-107.55 9.7 -106.05 8.2 -100.8 2.95 -100.5 2.7 -99.35 1.55 -98.55 1.0 -98.25 0.8 -94.75 -2.55 -89.3 -7.95 -84.55 -12.2 -83.6 -13.25 -83.15 -13.75 -82.55 -14.0" fill="#dd5800" fill-rule="evenodd" stroke="none"/>
    <path d="M120.6 -2.65 L122.05 -2.75 124.05 -2.85 133.8 -2.75 134.3 -2.75 137.75 -2.75 137.75 -2.3 137.4 -2.0 136.05 -0.6 133.3 1.85 132.25 2.8 Q128.5 5.7 125.2 9.1 L122.8 11.3 120.85 13.05 120.45 13.35 Q119.95 13.7 119.95 14.25 L119.8 14.25 119.85 11.0 120.0 1.25 Q120.0 -0.8 120.3 -2.65 L120.6 -2.65 M138.5 -1.3 L139.05 -1.25 139.05 -0.65 138.5 -0.75 138.5 -1.3 M137.75 0.05 L137.75 2.1 136.3 2.05 136.3 0.0 137.75 0.05 M135.75 1.75 L135.75 3.5 128.9 9.5 122.6 15.3 121.25 15.25 121.25 14.7 Q121.25 13.45 126.55 8.85 133.05 3.2 134.25 1.75 L135.75 1.75" fill="#ffa66a" fill-rule="evenodd" stroke="none"/>
    <path d="M141.0 11.5 L141.2 14.25 141.1 15.4 140.8 15.5 Q141.05 15.8 140.55 15.9 L140.5 15.9 139.8 15.0 139.75 15.5 139.75 15.9 139.55 15.9 137.05 16.0 135.05 15.95 Q134.65 15.9 134.7 15.25 134.7 14.85 134.05 14.9 L131.6 14.85 132.15 14.4 141.3 6.25 Q140.9 8.75 141.0 11.5" fill="#f46200" fill-rule="evenodd" stroke="none"/>
    <path d="M-123.3 -14.8 L-120.8 -15.05 Q-120.1 -15.05 -119.75 -14.7 -119.55 -14.5 -119.3 -14.5 L-113.05 -14.7 -112.8 -14.8 -107.55 -14.95 Q-109.25 -13.0 -112.05 -12.05 L-112.55 -11.75 Q-115.0 -10.15 -117.25 -8.15 L-126.5 -0.05 -127.8 1.05 -131.5 4.6 -135.05 8.3 -135.8 9.25 -135.9 6.4 -135.65 1.65 -135.55 -0.75 Q-135.7 -7.85 -135.3 -14.5 L-134.3 -14.2 -134.05 -14.3 -129.05 -14.4 -123.3 -14.8 M-103.4 -14.5 Q-103.65 -13.65 -104.25 -12.9 L-105.55 -11.65 Q-107.15 -9.75 -108.75 -8.5 L-115.6 -2.65 Q-126.95 7.7 -129.25 9.7 L-129.6 10.0 -130.35 9.9 -130.2 9.7 Q-126.85 5.75 -116.55 -3.2 -105.55 -12.8 -104.05 -14.5 L-103.4 -14.5 M-117.9 -2.8 L-131.45 9.05 -131.9 8.95 Q-127.55 4.2 -117.3 -4.6 -109.0 -11.75 -105.85 -14.1 -105.95 -12.7 -110.35 -8.9 -112.85 -6.8 -117.9 -2.8 M-29.15 -2.3 L-28.25 -2.3 -24.85 -2.3 -21.45 -2.3 -18.0 -2.3 -14.5 -2.3 -11.0 -2.3 -7.5 -2.3 -7.45 -2.1 -9.2 -0.7 -12.05 1.65 -14.95 3.95 -17.75 6.2 -20.45 8.45 -22.85 10.45 -25.05 12.25 -26.85 13.9 -29.1 15.95 -29.1 15.45 -29.05 14.45 -29.1 14.2 -29.15 12.95 -28.95 11.75 Q-28.9 11.35 -29.1 10.95 L-29.15 10.85 -29.25 10.95 Q-29.0 10.1 -29.15 9.15 L-29.15 8.7 -29.2 -0.55 -29.15 -2.3 M-3.05 -0.65 Q-9.25 3.2 -23.9 15.65 L-24.9 15.55 -24.9 15.2 Q-24.75 13.8 -4.0 -2.05 L-2.9 -2.0 -3.05 -0.65 M-6.4 3.1 Q-7.65 4.6 -11.7 7.65 L-22.8 16.3 -23.3 16.25 -12.4 7.4 Q-5.1 1.35 -1.4 -1.3 L-3.8 0.9 -6.4 3.1" fill="#ff8736" fill-rule="evenodd" stroke="none"/>
    <path d="M-78.25 -5.05 Q-78.05 -5.75 -77.25 -5.6 L-75.3 -5.7 Q-72.05 -5.5 -68.8 -5.6 -63.65 -6.25 -58.45 -5.8 L-45.25 -5.7 -44.65 -5.6 -48.35 -2.15 -59.8 8.9 -67.7 16.35 -74.1 22.85 Q-79.4 28.45 -84.4 34.35 L-85.15 35.15 Q-86.0 36.1 -87.0 36.65 L-87.2 30.25 -87.2 23.0 -86.95 19.65 -86.9 18.5 -86.9 15.25 -78.85 15.5 -79.0 -5.15 -78.25 -5.05 -78.2 -4.55 -77.25 -4.95 -78.25 -5.05" fill="#525252" fill-rule="evenodd" stroke="none"/>
    <path d="M-32.7 11.7 L-32.1 11.25 -32.2 35.7 -32.65 36.5 -32.05 37.75 -31.85 40.25 -34.45 40.35 -35.1 40.55 -40.75 40.15 -41.5 40.0 -49.75 39.85 Q-53.25 40.15 -56.9 40.0 L-57.45 39.6 -58.0 39.75 -58.65 40.6 -60.0 40.65 Q-61.4 40.75 -62.5 40.05 L-60.7 38.4 -55.7 33.3 -50.7 28.3 -45.35 23.35 -39.35 17.85 -32.7 11.7" fill="#252525" fill-rule="evenodd" stroke="none"/>
    <path d="M0.65 21.05 L0.25 21.45 -0.7 21.8 -0.95 22.05 Q-1.15 22.55 -0.85 22.65 L-1.95 23.05 -2.15 23.25 Q-2.2 23.95 -2.7 24.15 L-3.05 24.45 -3.7 25.3 -5.85 27.95 -7.45 29.8 -8.85 31.4 -10.2 33.3 -10.95 34.05 -11.2 34.25 -12.7 36.3 -15.25 39.25 -16.75 41.1 -19.0 41.15 -19.65 41.25 -27.0 41.35 -28.3 41.1 -28.75 41.0 -29.45 41.0 -29.45 40.95 Q-28.6 40.15 -29.45 39.85 L-29.45 39.0 -29.45 38.75 -29.5 31.0 -29.4 23.75 -29.35 23.25 -29.15 21.5 -29.05 21.2 -29.0 21.1 Q-28.55 20.7 -28.4 20.95 L-27.7 20.4 Q-27.5 20.4 -27.3 20.55 L-26.25 20.7 -25.75 20.6 -16.0 20.55 -12.05 20.45 Q-9.5 20.3 0.9 20.6 L0.65 21.05 M-57.2 -28.15 L-57.6 -27.85 -58.55 -27.0 -63.5 -22.7 Q-66.3 -20.4 -68.75 -17.7 L-70.0 -16.15 Q-70.7 -15.7 -71.55 -15.2 L-71.8 -15.1 -72.05 -15.15 -72.45 -15.15 -72.85 -14.8 -72.95 -13.85 -75.35 -11.55 -76.25 -10.7 -77.8 -9.15 Q-78.4 -9.45 -78.95 -8.85 L-79.25 -8.65 -79.55 -8.5 -79.5 -9.25 -79.5 -9.3 -79.25 -10.2 -79.15 -10.5 Q-79.05 -11.1 -79.3 -11.4 L-79.25 -13.0 -79.45 -16.25 -79.55 -18.75 -79.65 -23.0 -79.7 -23.25 Q-80.0 -24.2 -79.65 -24.6 L-79.55 -25.0 -79.65 -28.5 -79.55 -28.75 -78.75 -28.65 -73.3 -28.7 -70.05 -28.6 -67.8 -28.65 -62.7 -28.55 -56.95 -28.4 -57.2 -28.15 M-156.8 17.75 L-151.8 17.65 -151.05 17.6 -148.05 17.45 -146.55 17.25 Q-146.0 17.1 -145.85 17.4 L-145.55 17.5 Q-145.9 18.3 -146.95 18.9 L-147.75 19.45 -157.0 27.3 -157.8 28.0 -161.15 31.7 -161.95 32.6 -162.3 32.6 -162.75 24.5 -162.95 23.0 -163.05 21.75 Q-163.0 20.75 -163.3 19.95 L-163.4 19.25 Q-163.7 18.3 -163.4 17.9 L-163.15 17.65 Q-163.05 17.5 -162.8 17.5 L-158.3 17.65 -156.8 17.75 M-148.6 26.5 Q-149.4 28.25 -150.9 28.9 L-149.85 27.6 Q-148.9 26.55 -148.6 26.5 M-159.1 33.1 L-151.8 25.7 Q-147.15 21.2 -143.6 18.75 L-158.85 33.15 -159.1 33.1 M-153.85 29.85 L-151.05 26.65 Q-149.15 24.55 -148.1 24.0 -149.1 25.75 -153.6 29.9 L-153.85 29.85" fill="#827f54" fill-rule="evenodd" stroke="none"/>
    <path d="M110.3 20.85 L110.8 20.9 112.8 20.85 113.8 20.75 117.3 20.65 117.4 20.65 117.6 20.65 117.75 24.0 117.6 25.5 117.35 27.25 117.15 27.9 116.8 28.2 116.35 28.35 116.05 28.4 115.8 28.25 115.0 27.6 114.6 27.45 114.35 27.25 Q113.95 26.6 113.25 26.4 L113.0 26.45 112.1 26.85 110.05 27.15 109.8 27.25 Q109.2 27.8 108.95 28.75 L108.9 29.0 Q108.9 29.75 108.05 29.6 L106.75 29.65 106.05 29.7 103.75 29.9 Q103.05 30.15 102.7 29.55 L102.3 29.0 100.5 27.3 99.9 26.6 99.6 26.6 98.3 26.95 95.8 27.55 Q95.3 27.7 95.15 28.5 L94.65 29.6 94.5 30.0 94.35 30.3 93.5 31.4 92.8 31.65 91.5 31.9 91.1 32.1 90.75 32.2 89.55 32.45 Q88.75 32.45 88.55 33.0 88.35 33.15 88.4 32.5 L88.4 31.75 88.3 30.25 88.4 30.05 89.1 29.0 91.1 26.3 Q92.6 23.9 94.0 22.2 L95.2 21.2 95.55 21.15 Q96.25 21.3 96.4 20.75 96.85 20.55 97.2 20.9 L97.55 20.95 98.55 20.85 108.3 20.75 110.3 20.85 M1.0 24.0 L1.0 23.5 3.0 23.5 Q4.95 25.8 12.2 32.5 18.5 38.35 20.4 41.25 L20.4 41.3 Q16.65 38.45 11.3 33.05 L2.5 24.0 1.0 24.0 M-41.0 -29.15 L-40.25 -29.15 -40.0 -29.1 -38.7 -29.15 -38.0 -29.3 -36.75 -29.45 -35.75 -29.5 Q-36.2 -29.3 -36.15 -28.5 L-36.1 -28.25 -36.25 -28.0 Q-36.0 -27.45 -36.15 -26.95 L-36.25 -26.25 -35.95 -24.5 Q-35.85 -20.75 -36.15 -17.25 L-36.35 -15.25 -36.4 -15.0 -36.65 -14.35 -37.0 -14.25 Q-39.7 -14.35 -42.05 -13.6 L-42.75 -13.5 -44.5 -13.35 -45.75 -13.25 -48.25 -13.1 -50.75 -12.9 -51.25 -12.9 -51.75 -12.9 -54.0 -12.9 -54.5 -12.85 -56.0 -12.75 Q-55.1 -13.0 -54.9 -13.75 L-54.75 -14.0 -51.25 -18.25 -46.95 -22.95 -46.05 -24.05 -45.65 -24.4 -45.25 -24.5 Q-43.95 -24.45 -44.1 -26.0 L-43.95 -26.2 -43.15 -26.65 -42.75 -26.8 -42.6 -27.0 Q-42.55 -27.7 -42.1 -27.95 L-41.9 -28.2 -41.75 -28.5 -41.25 -29.0 -41.0 -29.15 M-1.75 23.75 L-0.75 23.75 -0.75 24.9 -0.8 25.05 -1.85 25.0 -2.0 24.85 -2.0 24.4 -1.85 23.85 -1.75 23.75 M-2.6 26.55 Q-10.05 36.6 -14.05 40.5 L-15.0 40.5 -15.0 40.15 Q-15.0 39.75 -12.5 36.5 L-10.2 33.6 -10.0 33.4 -5.75 28.05 -3.75 25.4 -2.6 25.5 -2.6 26.55 M-92.65 18.5 L-92.65 18.6 -92.6 20.25 -92.55 20.4 -92.55 21.75 -92.65 23.5 -92.75 26.5 -92.85 34.0 -98.0 34.5 -100.0 34.4 -100.5 34.3 -101.8 34.4 -102.25 34.5 -104.5 34.65 -106.25 34.65 -106.75 34.6 -108.05 34.35 -108.5 34.25 -110.25 34.25 -107.15 31.1 -104.2 28.3 -102.45 26.55 -99.7 23.55 -99.05 22.95 -94.2 18.55 -93.0 17.5 Q-92.7 17.65 -92.65 18.05 L-92.65 18.5" fill="#434127" fill-rule="evenodd" stroke="none"/>
    <path d="M1.15 27.25 L-0.25 37.25 -0.45 39.0 -0.55 39.5 -0.65 39.8 -3.45 40.35 -10.9 41.3 -10.6 40.75 -9.3 38.95 -7.25 36.5 Q-5.35 34.05 -3.25 31.75 L-1.0 29.25 0.95 27.05 1.15 27.25 M-153.35 12.2 L-160.2 12.1 -155.9 7.4 -151.5 2.8 -152.05 6.15 -153.35 12.2" fill="#048434" fill-rule="evenodd" stroke="none"/>
    <path d="M2.25 27.0 L15.7 42.35 9.45 41.2 3.9 31.3 2.25 27.0 M-140.6 11.8 L-140.8 12.25 -146.45 12.3 -150.6 2.8 Q-145.45 6.85 -140.6 11.8" fill="#012910" fill-rule="evenodd" stroke="none"/>
    <path d="M15.5 -16.55 L16.25 -16.25 18.5 -6.3 15.5 -6.5 15.5 -16.55" fill="#02441b" fill-rule="evenodd" stroke="none"/>
    <path d="M171.05 44.75 L166.95 45.15 Q168.9 43.25 170.5 41.05 L170.85 40.65 171.05 40.8 171.05 44.75 M110.0 43.45 L111.6 42.1 111.65 45.3 Q111.75 46.1 111.3 46.25 L110.8 46.35 108.05 46.65 107.3 46.7 106.4 46.8 106.35 46.6 110.0 43.45" fill="#990000" fill-rule="evenodd" stroke="none"/>
    <path d="M105.1 41.3 L105.15 41.05 109.35 41.05 104.75 45.1 105.1 41.3 M119.4 41.3 L119.35 40.55 125.95 40.45 120.55 45.05 119.75 45.85 119.6 43.8 119.4 41.3" fill="#ff8888" fill-rule="evenodd" stroke="none"/>
    <path d="M145.35 -4.25 L-13.5 -4.5 -13.5 -4.55 -30.15 -4.5 -30.15 -4.35 -30.3 -4.4 -30.1 1.9 -30.1 17.35 -24.85 17.1 39.85 17.1 40.5 17.2 40.3 14.3 40.15 14.15 40.15 13.65 Q40.15 13.1 40.5 13.0 L75.25 13.1 75.55 13.5 75.75 13.5 75.8 17.3 145.25 17.35 145.15 13.4 145.25 11.5 145.25 -2.15 145.35 -4.25 M-136.35 -8.8 Q-136.35 -6.45 -136.6 -5.4 L-136.6 12.1 -88.4 12.1 -88.4 12.3 -81.8 11.9 -81.8 9.7 Q-81.35 2.4 -81.45 -5.85 L-81.7 -5.85 -81.6 -6.85 -81.55 -7.0 -81.5 -7.8 -81.75 -20.85 -136.45 -21.15 -136.35 -8.8 M-137.5 -22.55 L-136.95 -22.4 -137.0 -22.65 -129.8 -23.05 -114.0 -23.05 -114.05 -23.7 -113.05 -23.7 -113.05 -23.25 -113.05 -23.05 -81.75 -23.05 -81.7 -23.7 -81.05 -23.7 -81.0 -31.9 -81.0 -32.0 -80.0 -31.9 -80.0 -31.75 -35.35 -32.0 -35.35 -32.05 -34.6 -32.0 -34.6 -31.65 -34.25 -31.65 -34.25 -12.75 -63.4 -10.25 -63.55 -9.1 -63.7 -7.8 -12.5 -7.75 -12.5 -5.55 146.4 -5.8 146.6 16.8 146.6 18.15 146.6 18.45 78.5 18.75 75.8 18.55 75.8 19.8 74.55 19.75 74.55 15.6 74.7 14.25 41.5 14.3 41.5 17.75 41.25 17.75 41.25 18.3 -24.85 18.35 -30.1 18.15 -30.1 29.3 -30.05 29.5 -30.05 41.85 -13.95 41.9 -13.65 41.4 0.5 24.0 1.5 24.0 18.8 41.4 Q20.15 42.9 20.15 43.15 L20.15 43.4 36.95 43.4 36.9 41.15 36.9 39.5 41.65 39.4 41.8 37.65 50.75 37.35 55.3 37.35 55.3 37.3 56.55 37.35 56.55 39.15 62.55 39.35 62.55 37.55 62.8 37.55 62.8 37.45 Q62.85 37.15 63.25 36.75 L66.25 36.75 75.15 36.6 76.25 36.75 76.25 39.55 Q76.55 39.25 77.05 39.25 L78.15 39.25 Q78.05 38.1 78.1 35.3 81.2 33.4 83.55 32.15 L87.5 29.95 88.85 32.95 94.75 31.55 96.55 27.85 100.3 26.9 102.85 30.45 109.45 29.6 110.25 26.75 114.5 26.25 116.5 28.8 122.65 28.35 123.65 26.1 129.55 25.25 131.55 27.9 138.55 27.8 140.6 25.55 148.35 25.5 147.75 28.0 157.4 29.0 158.9 29.3 165.6 26.7 171.75 29.7 169.95 33.25 171.1 35.05 172.1 35.1 172.1 37.25 170.2 39.6 172.2 39.6 172.2 39.65 172.35 39.65 172.4 39.95 172.4 45.95 172.35 45.95 172.35 46.2 127.95 46.2 127.3 46.2 127.35 47.1 127.35 47.65 127.35 50.25 121.65 52.55 112.65 56.05 107.3 55.15 102.45 54.15 100.85 53.85 99.25 54.35 95.15 55.5 95.15 54.9 100.25 52.95 104.95 53.85 112.55 55.05 Q114.45 54.15 117.75 53.2 122.3 51.8 126.5 49.55 L126.6 47.65 126.65 46.95 126.6 46.2 126.05 46.2 124.1 46.35 118.35 46.65 118.35 46.55 118.2 46.55 Q118.05 44.25 118.05 39.6 L118.25 39.6 118.25 39.5 119.1 39.6 122.1 39.6 121.6 37.3 123.55 35.65 Q124.9 36.75 125.9 37.95 L127.05 39.6 129.9 39.6 130.6 36.85 131.05 36.65 132.3 36.0 133.05 36.05 133.05 36.15 Q134.05 38.2 135.3 39.6 L139.4 39.6 139.7 37.55 141.6 37.65 141.75 37.65 143.1 39.45 143.1 39.6 143.25 39.6 143.25 39.5 Q143.25 39.1 144.1 37.45 L145.1 35.45 146.9 35.55 Q148.5 37.45 149.25 39.6 L150.65 39.6 150.6 39.45 Q150.6 39.15 151.45 37.4 L152.4 35.45 152.85 35.55 153.0 35.45 154.5 35.45 156.6 39.3 156.6 39.6 158.3 39.6 Q158.45 39.15 159.25 38.4 L160.95 36.95 161.85 36.95 Q162.55 38.2 163.8 39.45 L163.8 39.6 169.1 39.6 170.85 36.0 167.1 35.75 169.9 35.1 168.8 33.5 165.7 35.3 Q166.2 34.2 167.65 32.95 L169.95 31.35 170.45 30.3 165.9 27.95 150.5 33.15 150.05 32.9 156.7 30.05 147.2 29.0 145.35 32.2 147.0 32.6 144.25 32.65 145.0 31.25 146.55 28.35 147.25 26.5 141.2 26.4 137.6 30.95 136.5 32.0 135.3 33.0 134.0 32.6 135.5 32.05 137.85 28.7 131.45 28.85 130.85 32.35 131.7 32.6 129.6 33.1 129.9 31.2 Q130.05 29.95 129.8 28.8 129.45 27.35 128.75 26.05 L124.35 26.85 121.3 33.75 119.5 33.85 119.0 33.5 120.55 33.0 122.2 29.2 116.65 30.05 116.2 33.3 117.75 33.6 116.75 33.95 Q114.8 34.0 114.75 33.3 L115.3 33.3 115.3 29.75 113.4 27.35 111.5 27.75 109.75 31.4 107.9 34.85 105.6 35.5 107.45 34.35 108.25 32.85 108.85 30.85 102.85 31.5 102.4 35.1 104.15 35.4 102.35 35.75 101.6 35.75 101.7 31.1 101.7 30.55 100.3 28.1 97.25 28.75 Q94.8 34.3 93.4 35.9 92.0 37.45 91.3 37.05 93.05 36.05 93.75 34.0 L94.2 32.75 89.15 34.0 88.9 37.25 90.25 37.55 88.15 38.3 87.7 34.6 86.8 31.5 Q85.9 31.85 82.1 34.2 L79.85 35.5 79.5 40.25 76.25 40.35 76.25 41.55 62.75 41.55 62.75 41.5 62.5 41.5 62.55 40.5 60.5 40.5 60.5 40.25 58.8 40.3 57.0 40.5 56.55 40.45 56.55 41.8 56.15 41.8 56.15 42.1 42.7 42.0 42.7 42.4 41.6 42.35 41.6 40.7 38.0 40.6 38.0 41.15 37.85 44.3 37.75 44.35 10.55 44.65 6.4 43.25 -30.65 43.25 -31.5 43.1 -31.5 42.35 -89.5 42.25 -90.65 42.8 -167.2 43.0 -172.05 40.8 -172.15 40.5 -169.85 19.35 -169.65 19.3 -167.1 16.5 -166.5 15.8 -164.25 15.75 -163.35 15.75 -163.5 14.0 -163.65 14.0 -163.75 13.7 Q-163.75 13.05 -159.45 8.4 L-151.9 0.05 -151.85 0.05 -151.75 0.0 -150.85 0.05 -142.95 6.75 -139.9 9.6 -138.05 11.6 -138.05 9.45 -137.9 9.7 -137.85 9.9 -137.85 -7.65 Q-137.6 -11.45 -137.5 -22.55 M-80.0 -31.15 L-79.85 -20.85 -79.9 -7.8 -64.65 -7.8 -64.35 -11.25 -64.0 -11.5 -35.4 -13.85 -35.35 -30.8 -35.35 -30.9 -77.65 -31.0 -80.0 -31.15 M-80.4 -6.55 L-80.4 -0.15 -80.15 3.95 -80.4 10.5 -80.4 7.35 -80.65 14.0 -80.65 14.05 -81.15 14.05 -87.3 14.05 -88.4 13.9 -88.3 39.6 -88.15 40.1 -88.25 40.85 -31.4 40.9 -31.4 29.25 -31.35 29.05 -31.35 1.85 Q-31.25 -1.95 -31.45 -4.5 L-31.55 -4.5 -31.55 -5.5 -13.95 -5.5 -13.85 -5.55 -13.5 -5.55 -13.5 -6.6 -63.75 -6.55 -63.75 -6.5 -64.75 -6.5 -64.75 -6.55 -80.35 -6.55 -80.4 -6.55 M-12.65 41.9 L5.75 41.9 7.3 42.0 10.8 43.0 11.05 43.4 18.9 43.4 17.0 41.55 14.9 39.65 1.2 25.5 -12.2 41.4 -12.25 41.45 -12.65 41.9 M-89.65 39.75 L-89.9 24.75 -89.65 16.8 -164.45 16.85 -163.75 23.05 -163.05 30.15 -163.05 36.75 -165.65 41.55 -91.35 41.7 -90.65 40.9 -90.65 40.85 -90.6 40.85 -89.65 39.75 M-89.6 15.75 L-89.55 14.05 -162.5 14.0 -162.6 15.75 -89.6 15.75 M-139.9 11.45 L-146.0 6.2 -151.25 1.4 Q-156.35 6.45 -162.0 13.0 L-138.1 13.0 -139.5 11.75 -139.9 11.45 M-165.2 16.85 L-166.35 16.85 -168.65 19.8 -169.25 25.5 -169.45 27.5 -170.65 39.7 -168.4 40.85 -167.4 41.35 -167.0 41.55 -166.9 41.6 Q-165.6 38.9 -163.9 36.3 L-164.3 26.25 Q-164.6 20.75 -165.2 16.85 M-163.05 36.9 L-163.1 36.9 -163.05 36.8 -163.05 36.9 M171.65 40.35 L118.8 40.35 119.0 45.6 119.0 45.85 123.6 45.6 124.05 45.6 125.15 45.45 127.5 45.45 127.75 45.45 128.0 45.45 128.25 45.45 128.5 45.45 128.75 45.45 129.0 45.45 129.25 45.45 131.15 45.45 171.65 45.5 171.65 40.35 M130.4 39.6 L134.2 39.6 133.15 38.0 Q132.7 37.2 132.6 36.65 131.3 37.2 130.9 38.0 130.6 38.5 130.4 39.6 M126.25 39.6 L124.75 37.9 123.8 36.55 122.35 37.8 122.8 39.6 126.25 39.6 M140.1 39.6 L142.05 39.6 141.7 38.95 141.6 38.65 141.45 38.45 141.2 38.25 140.4 38.25 Q140.1 38.95 140.1 39.6 M153.2 36.15 L152.9 36.15 151.4 39.6 155.8 39.6 153.9 36.0 153.2 36.15 M145.65 36.05 L144.6 37.95 143.85 39.6 148.45 39.6 147.75 38.4 146.4 36.05 145.65 36.05 M159.2 39.6 L162.7 39.6 Q161.7 38.7 161.4 37.7 160.3 38.2 159.2 39.6 M109.35 39.9 L112.05 39.9 112.05 40.05 112.2 40.05 112.25 47.4 112.05 47.4 109.35 47.4 109.35 47.55 109.3 47.65 108.2 49.8 106.45 47.65 106.25 47.4 103.8 47.4 103.8 47.3 103.7 47.3 103.7 46.65 103.8 46.55 103.8 40.7 103.85 40.65 103.8 40.65 103.8 40.05 105.3 39.9 106.2 39.9 106.9 38.9 107.7 37.95 108.15 37.95 108.9 38.95 109.35 39.9 M106.95 39.9 L108.65 39.9 Q107.9 39.0 107.85 38.7 107.3 39.05 106.95 39.9 M104.7 41.45 L104.45 46.8 107.6 46.7 109.8 46.65 111.5 46.65 111.45 40.65 104.7 40.65 104.7 41.45 M108.55 47.4 L107.1 47.4 107.3 47.65 108.3 48.6 108.45 47.65 108.55 47.4 M44.85 19.25 Q43.15 20.75 43.15 23.5 43.15 26.0 45.0 27.75 46.7 29.3 48.75 29.3 50.6 29.3 52.45 27.25 54.0 25.45 54.0 24.4 54.0 21.55 52.3 19.75 50.8 18.15 48.6 18.05 46.4 17.9 44.85 19.25 M49.25 17.0 Q53.05 17.95 54.2 19.9 55.0 21.25 55.0 24.4 55.0 26.55 54.15 27.8 53.1 29.4 50.25 30.5 L48.95 30.5 47.65 30.3 Q43.75 29.5 42.7 27.3 42.25 26.35 42.25 23.4 42.25 16.5 49.25 17.0 M42.7 40.95 L45.05 40.8 55.25 40.8 55.2 38.6 42.7 38.5 42.7 40.95 M66.5 40.5 L75.55 40.35 75.35 37.75 63.8 37.8 63.8 40.6 66.25 40.6 66.5 40.5" fill="#000000" fill-rule="evenodd" stroke="none"/>
    <path d="M-137.15 -16.7 L-103.3 -16.95 -92.15 -16.95 -83.15 -16.8 -80.75 -16.7 -80.75 -15.75 -137.15 -16.0 -137.15 -16.7 M-90.85 18.0 L-90.85 35.3 -90.8 35.3 -90.8 36.05 -162.85 36.0 -162.85 36.3 -163.6 36.25 -163.6 36.2 -170.65 34.55 -170.65 34.25 -163.6 35.5 -163.6 35.3 -162.85 35.35 -91.6 35.3 -91.6 16.05 -90.85 16.1 -90.65 17.8 -90.75 18.0 -90.85 18.0" fill="#000000" fill-rule="evenodd" stroke="none"/>
    <path d="M146.65 -5.8 L146.85 18.15 146.85 18.45 146.6 18.45 146.6 18.7 78.5 19.0 76.05 18.85 76.05 19.8 75.8 19.8 75.8 20.05 74.55 20.0 74.55 19.75 74.3 19.75 74.3 15.6 74.45 14.5 41.75 14.55 41.75 17.75 41.5 17.75 41.5 18.3 41.25 18.3 41.25 18.55 -24.85 18.6 -29.85 18.45 -29.85 29.3 -29.8 29.5 -29.8 41.6 -14.05 41.65 -13.9 41.4 0.25 24.0 0.3 24.0 0.5 23.75 1.5 23.75 19.05 41.4 Q20.4 42.9 20.4 43.15 L36.7 43.15 36.65 41.15 36.65 39.5 36.9 39.5 36.9 39.25 41.4 39.15 41.55 37.65 41.8 37.65 41.8 37.4 50.75 37.1 55.3 37.1 55.3 37.05 56.55 37.1 56.55 37.35 56.8 37.35 56.8 39.15 62.3 39.35 62.3 37.55 62.55 37.55 62.55 37.45 62.55 37.3 62.6 37.3 63.0 36.75 63.05 36.75 63.25 36.5 66.25 36.5 75.15 36.35 76.25 36.5 76.25 36.75 76.5 36.75 76.5 39.15 77.05 39.0 77.9 39.0 Q77.8 37.8 77.85 35.3 L78.1 35.15 78.1 35.05 Q81.2 33.15 83.55 31.9 L87.5 29.7 87.65 30.0 87.75 29.95 89.0 32.7 94.6 31.35 96.3 27.85 96.45 27.8 96.55 27.6 100.3 26.65 100.5 26.95 100.55 26.9 102.95 30.2 109.3 29.4 110.0 26.75 110.2 26.75 110.25 26.5 114.5 26.0 114.7 26.25 114.75 26.25 116.55 28.55 122.5 28.1 123.4 26.1 123.55 26.1 123.65 25.85 129.55 25.0 129.75 25.25 129.8 25.25 131.6 27.65 138.55 27.55 140.35 25.55 140.4 25.55 140.6 25.3 148.35 25.25 148.3 25.5 148.6 25.5 148.05 27.8 157.4 28.75 158.9 29.05 165.6 26.45 171.75 29.45 171.7 29.55 172.0 29.7 170.2 33.25 171.2 34.8 172.1 34.85 172.1 35.1 172.35 35.1 172.35 37.25 170.65 39.35 172.2 39.35 172.2 39.4 172.35 39.4 172.4 39.6 172.45 39.6 172.45 39.65 172.6 39.65 172.65 39.95 172.65 45.95 172.6 45.95 172.6 46.2 172.35 46.2 172.35 46.45 127.95 46.45 127.6 46.45 127.6 47.1 127.6 47.65 127.6 50.25 127.35 50.35 127.35 50.5 121.65 52.8 112.65 56.3 107.3 55.4 102.45 54.4 100.85 54.1 99.25 54.6 95.15 55.75 95.15 55.5 94.9 55.5 94.9 54.9 95.15 54.8 95.15 54.65 100.25 52.7 104.95 53.6 112.55 54.8 Q114.45 53.9 117.75 52.95 122.15 51.6 126.25 49.45 L126.35 47.65 126.4 46.95 126.35 46.45 126.05 46.45 124.1 46.6 118.35 46.9 118.35 46.8 118.2 46.8 118.2 46.65 118.1 46.65 118.1 46.55 117.95 46.55 Q117.8 44.25 117.8 39.6 L118.0 39.6 118.0 39.5 118.05 39.5 118.05 39.35 118.25 39.35 118.25 39.25 119.1 39.35 121.8 39.35 121.35 37.3 121.6 37.1 121.6 37.05 123.55 35.4 125.1 36.8 126.15 37.95 127.15 39.35 129.7 39.35 130.35 36.85 130.55 36.75 130.6 36.6 131.05 36.4 132.3 35.75 133.05 35.8 133.05 35.9 133.15 36.05 133.3 36.05 133.3 36.15 Q134.2 38.0 135.35 39.35 L139.2 39.35 139.45 37.55 139.7 37.55 139.7 37.3 141.6 37.4 141.75 37.4 141.95 37.65 142.0 37.65 143.1 39.1 143.85 37.45 144.85 35.45 145.0 35.45 145.1 35.2 146.9 35.3 147.1 35.55 147.15 35.55 Q148.65 37.35 149.4 39.35 L150.4 39.35 Q150.45 38.95 151.2 37.4 L152.15 35.45 152.3 35.5 152.4 35.2 152.85 35.3 153.0 35.2 154.5 35.2 154.65 35.45 154.75 35.45 156.85 39.3 156.85 39.35 158.2 39.35 158.95 38.5 159.0 38.4 159.25 38.15 160.95 36.7 161.85 36.7 162.0 36.95 162.1 36.95 163.8 39.2 163.95 39.35 169.0 39.35 170.5 36.25 167.1 36.0 167.9 35.85 166.85 35.75 167.75 35.55 167.1 35.5 169.55 34.95 168.75 33.8 165.7 35.55 166.05 34.95 165.45 35.3 Q165.85 34.4 166.85 33.45 L167.65 32.7 Q168.65 31.9 169.8 31.25 L170.15 30.4 165.9 28.2 150.5 33.4 150.05 33.15 150.2 33.1 149.8 32.9 150.2 32.75 150.05 32.65 155.8 30.2 147.3 29.25 145.7 32.05 147.0 32.35 146.3 32.4 147.25 32.6 146.05 32.65 147.0 32.85 144.25 32.9 144.4 32.65 144.0 32.65 144.75 31.25 146.3 28.35 146.95 26.75 141.25 26.65 137.85 30.95 137.3 31.55 136.5 32.25 135.3 33.25 134.0 32.85 134.25 32.75 133.75 32.6 134.25 32.45 134.0 32.35 135.4 31.85 137.45 28.95 131.65 29.1 131.15 32.2 131.7 32.35 131.4 32.45 131.95 32.6 131.35 32.75 131.7 32.85 129.6 33.35 129.7 33.05 129.35 33.1 129.65 31.2 Q129.8 29.95 129.55 28.8 L128.65 26.35 124.5 27.1 121.55 33.75 121.4 33.75 121.3 34.0 119.5 34.1 119.0 33.75 119.1 33.75 118.75 33.5 119.2 33.4 119.0 33.25 120.4 32.8 121.85 29.5 116.9 30.3 116.5 33.15 117.75 33.35 117.35 33.5 118.0 33.6 117.4 33.8 117.75 33.85 116.75 34.2 Q115.05 34.25 114.8 33.7 L114.5 33.3 114.85 33.3 114.75 33.05 115.05 33.05 115.05 29.75 113.35 27.6 111.65 28.0 110.0 31.4 108.15 34.85 108.05 34.9 107.9 35.1 105.6 35.75 106.65 35.3 105.85 35.5 106.75 35.1 105.35 35.5 106.35 35.05 105.6 35.25 Q106.6 34.9 107.2 34.35 L108.0 32.85 108.5 31.15 103.1 31.75 102.7 34.9 104.15 35.15 103.6 35.25 104.4 35.4 103.6 35.55 104.15 35.65 102.35 36.0 101.6 36.0 101.6 35.75 101.35 35.75 101.45 31.1 101.45 30.55 100.2 28.4 97.4 29.0 Q95.0 34.35 93.65 35.9 L93.4 36.15 93.2 36.35 Q91.95 37.65 91.3 37.3 L91.65 37.1 91.05 37.05 91.4 36.85 91.3 36.8 92.3 36.1 Q93.1 35.25 93.5 34.0 L93.85 33.1 89.4 34.2 89.2 37.05 90.25 37.3 89.9 37.45 90.5 37.55 90.0 37.75 90.25 37.8 88.15 38.55 88.15 38.25 87.9 38.3 87.45 34.6 86.65 31.8 Q85.65 32.25 82.1 34.45 L80.1 35.65 79.75 40.25 79.55 40.25 79.5 40.5 76.5 40.6 76.5 41.55 76.25 41.55 76.25 41.8 62.75 41.8 62.75 41.75 62.5 41.75 62.5 41.5 62.25 41.5 62.3 40.75 60.5 40.75 60.5 40.5 60.25 40.5 58.8 40.55 57.0 40.75 56.8 40.75 56.8 41.8 56.55 41.8 56.55 42.05 56.4 42.05 56.4 42.1 56.15 42.1 56.15 42.35 42.95 42.25 42.95 42.4 42.7 42.4 42.7 42.65 41.6 42.6 41.6 42.35 41.35 42.35 41.35 40.95 38.25 40.85 38.25 41.15 38.1 44.3 38.0 44.35 37.9 44.35 37.85 44.55 37.75 44.6 10.55 44.9 6.4 43.5 -30.65 43.5 -31.5 43.35 -31.5 43.15 -31.75 43.1 -31.75 42.6 -89.5 42.5 -90.65 43.05 -167.2 43.25 -172.05 41.05 -172.1 40.9 -172.3 40.8 -172.4 40.5 -170.1 19.35 -169.9 19.3 -167.35 16.5 -166.75 15.8 -166.25 15.8 -165.35 15.8 -164.5 15.75 -163.6 15.75 -163.7 14.35 -163.75 14.0 -163.9 14.0 -164.0 13.7 Q-164.0 13.05 -159.7 8.4 L-152.15 0.05 -152.1 0.05 -152.05 0.0 -151.9 -0.2 -151.85 -0.2 -151.75 -0.25 -150.85 -0.2 -142.95 6.5 -141.3 8.0 -140.1 9.15 -139.9 9.35 -139.05 10.25 -138.1 11.25 -138.1 2.6 -138.05 2.15 -138.05 -8.5 Q-137.85 -12.6 -137.75 -22.55 L-137.5 -22.5 -137.5 -23.05 -136.95 -22.85 -137.0 -23.15 -129.8 -23.5 -114.3 -23.5 -114.3 -23.7 -112.8 -23.7 -112.8 -23.5 -81.95 -23.5 -81.95 -23.7 -81.3 -23.7 -81.25 -31.9 -81.25 -32.0 -81.0 -31.95 -81.0 -32.25 -80.0 -32.15 -80.0 -32.0 -35.35 -32.25 -35.35 -32.3 -34.6 -32.25 -34.6 -32.0 -34.35 -32.0 -34.35 -31.9 -34.25 -31.9 -34.25 -31.65 -34.0 -31.65 -34.0 -12.75 -34.25 -12.7 -34.25 -12.5 -63.15 -10.0 -63.3 -9.1 -63.4 -8.05 -12.5 -8.0 -12.5 -7.75 -12.25 -7.75 -12.25 -5.8 146.4 -6.05 146.4 -5.8 146.65 -5.8 M145.1 -4.0 L-13.5 -4.25 -13.5 -4.3 -30.05 -4.25 -29.85 1.9 -29.85 17.1 -24.85 16.85 39.85 16.85 40.25 16.9 40.05 14.3 39.9 14.15 39.9 13.65 Q39.9 13.15 40.25 13.0 40.3 12.8 40.5 12.75 L75.25 12.85 75.45 13.1 75.5 13.1 75.65 13.25 75.75 13.25 75.75 13.45 75.8 13.5 76.0 13.5 76.05 17.05 145.0 17.1 144.9 13.4 145.0 11.5 145.0 -2.15 145.1 -4.0 M-136.1 -8.8 Q-136.1 -6.45 -136.35 -5.4 L-136.35 12.1 -88.15 12.1 -88.15 12.3 -82.05 11.9 -82.05 9.7 Q-81.65 3.0 -81.7 -4.4 L-81.65 -4.05 -82.0 -20.4 -136.2 -20.65 -136.1 -8.8 M-79.75 -30.85 L-79.6 -20.85 -79.65 -8.05 -64.9 -8.05 -64.6 -11.25 -64.35 -11.4 -64.35 -11.5 -64.0 -11.75 -35.65 -14.05 -35.6 -30.65 -77.65 -30.75 -79.75 -30.85 M-80.35 -5.5 L-80.35 -4.35 -80.4 -4.35 -80.4 -3.35 -80.2 -0.85 -79.9 3.95 Q-79.9 7.6 -80.4 14.0 L-80.4 14.05 -80.6 14.05 -80.65 14.25 -80.65 14.3 -87.3 14.3 -88.15 14.25 -88.05 39.6 -87.9 40.1 -88.0 40.85 -31.65 40.9 -31.65 29.25 -31.6 29.05 -31.6 1.85 Q-31.5 -1.95 -31.7 -4.5 L-31.8 -4.5 -31.8 -5.5 -31.55 -5.5 -31.55 -5.75 -13.95 -5.75 -13.85 -5.8 -13.75 -5.8 -13.75 -6.35 -63.75 -6.3 -63.75 -6.25 -64.75 -6.25 -64.75 -6.3 -80.25 -6.3 -80.3 -6.0 -80.3 -5.75 -80.4 -5.75 -80.4 -5.5 -80.35 -5.5 M-12.2 41.65 L5.75 41.65 7.3 41.75 10.8 42.75 10.95 42.95 11.05 43.0 11.15 43.15 18.4 43.15 17.45 42.2 17.0 41.8 14.9 39.9 14.25 39.3 13.55 38.6 1.25 25.8 -11.95 41.4 -12.0 41.45 -12.2 41.65 M-90.9 40.85 L-90.85 40.85 -89.9 39.75 -90.15 24.75 -89.9 17.05 -164.15 17.1 -163.5 23.05 -162.8 30.15 -162.8 36.75 -165.4 41.55 -91.6 41.7 -90.9 40.9 -90.9 40.85 M-89.85 15.75 L-89.8 14.3 -162.25 14.25 -162.35 15.75 -89.85 15.75 M-139.9 11.65 L-146.0 6.45 Q-146.9 5.65 -147.7 5.0 L-150.75 2.2 -151.25 1.65 -160.2 11.25 -161.75 13.0 -138.35 13.0 -138.65 12.75 -139.75 11.75 -139.9 11.65 M-165.4 17.1 L-166.3 17.1 -168.4 19.8 -169.0 25.5 -169.2 27.5 -170.35 39.6 -168.4 40.6 -167.4 41.1 -167.0 41.3 Q-165.75 38.75 -164.15 36.3 L-164.55 26.25 Q-164.85 20.95 -165.4 17.1 M-162.85 36.9 L-162.8 36.8 -162.8 36.9 -162.85 36.9 M171.4 40.6 L119.05 40.6 119.25 45.6 123.6 45.35 124.05 45.35 125.15 45.2 127.5 45.2 127.75 45.2 128.0 45.2 128.25 45.2 128.5 45.2 128.75 45.2 129.0 45.2 129.25 45.2 131.15 45.2 171.4 45.25 171.4 40.6 M131.15 38.0 L130.7 39.35 133.8 39.35 132.9 38.0 132.45 37.0 Q131.8 37.25 131.45 37.6 L131.15 38.0 M124.5 37.9 L123.75 36.85 122.65 37.85 123.0 39.35 125.8 39.35 124.5 37.9 M140.55 38.5 L140.35 39.35 141.65 39.35 141.45 38.95 141.35 38.65 141.25 38.55 141.2 38.5 140.55 38.5 M153.2 36.4 L153.05 36.4 151.75 39.35 155.45 39.35 153.8 36.3 153.2 36.4 M145.75 36.3 L144.85 37.95 144.25 39.35 148.05 39.35 147.5 38.4 146.3 36.3 145.75 36.3 M159.65 39.35 L162.2 39.35 161.3 38.05 160.0 38.95 159.65 39.35 M109.55 39.65 L112.05 39.65 112.05 39.8 112.2 39.8 112.2 39.9 112.3 39.9 112.3 40.05 112.45 40.05 112.5 47.4 112.25 47.4 112.25 47.65 109.55 47.65 108.45 49.8 108.4 49.7 108.2 50.05 108.0 49.8 107.95 49.8 106.2 47.65 103.8 47.65 103.8 47.55 103.7 47.55 103.7 47.4 103.55 47.4 103.55 47.3 103.45 47.3 103.45 46.65 103.55 46.55 103.55 40.7 103.6 40.65 103.55 40.65 103.55 40.05 103.8 40.05 103.8 39.8 105.3 39.65 106.1 39.65 106.65 38.9 107.45 37.95 107.5 37.95 107.7 37.7 108.15 37.7 108.35 37.95 108.4 37.95 109.15 38.95 109.55 39.65 M107.7 39.1 L107.35 39.65 108.2 39.65 107.75 39.05 107.7 39.1 M104.95 41.45 L104.7 46.55 107.6 46.45 109.8 46.4 111.25 46.4 111.2 40.9 104.95 40.9 104.95 41.45 M108.2 47.65 L107.6 47.65 108.15 48.2 108.2 47.65 M43.4 23.5 Q43.4 25.8 45.0 27.5 46.7 29.05 48.75 29.05 50.35 29.05 52.0 27.5 L52.2 27.25 Q53.75 25.45 53.75 24.4 53.75 21.55 52.05 19.75 50.6 18.4 48.6 18.3 46.4 18.15 44.85 19.5 L44.75 19.6 Q43.4 21.05 43.4 23.5 M43.75 18.4 Q45.45 16.5 49.25 16.75 52.35 17.55 53.7 19.0 L54.45 19.9 Q55.25 21.25 55.25 24.4 55.25 26.55 54.4 27.8 L53.7 28.65 Q52.55 29.85 50.25 30.75 L48.95 30.75 47.65 30.55 Q44.65 29.95 43.35 28.5 L42.45 27.3 Q42.0 26.35 42.0 23.4 42.0 19.95 43.75 18.4 M42.95 40.9 L44.8 40.8 55.0 40.8 54.95 38.85 42.95 38.75 42.95 40.9 M66.25 40.5 L75.3 40.35 75.1 38.0 64.05 38.05 64.05 40.6 66.0 40.6 66.25 40.5" fill="#000000" fill-rule="evenodd" stroke="none"/>
  </g>
</svg>
