<?xml version="1.0" encoding="UTF-8" standalone="no"?>
<svg xmlns:xlink="http://www.w3.org/1999/xlink" height="20.85px" width="18.7px" xmlns="http://www.w3.org/2000/svg">
  <g transform="matrix(1.0, 0.0, 0.0, 1.0, -97.9, 64.35)">
    <path d="M99.3 -61.35 Q99.05 -60.85 99.15 -60.15 99.55 -58.05 101.05 -57.0 L103.25 -55.2 104.25 -53.7 104.8 -51.15 105.0 -47.25 104.9 -44.85 108.9 -44.55 Q111.35 -44.45 113.75 -44.5 L113.8 -44.55 115.3 -44.65 115.2 -48.4 112.75 -48.6 112.75 -48.5 112.6 -50.65 112.55 -52.4 112.15 -54.8 111.35 -57.15 110.15 -59.25 108.2 -61.2 106.85 -62.1 Q104.8 -63.55 102.35 -63.15 100.3 -62.75 99.3 -61.35 M98.45 -62.35 L99.45 -63.25 Q101.0 -64.25 103.05 -64.35 106.9 -64.1 108.45 -62.7 L110.6 -60.45 112.0 -58.15 113.15 -55.4 Q113.55 -54.0 113.7 -49.9 L114.9 -49.8 114.9 -49.7 116.4 -49.55 116.55 -44.15 116.6 -43.6 113.8 -43.55 Q108.55 -43.5 105.3 -43.7 L103.75 -43.75 103.8 -46.9 Q103.85 -50.1 103.55 -51.65 103.25 -53.2 102.6 -54.05 L100.75 -55.65 Q98.25 -57.45 98.05 -59.15 97.8 -60.8 97.95 -61.35 L98.45 -62.35 M116.6 -43.5 Q115.65 -43.5 116.6 -43.55 L116.6 -43.5" fill="#000000" fill-rule="evenodd" stroke="none"/>
    <path d="M99.3 -61.35 Q100.3 -62.75 102.35 -63.15 104.8 -63.55 106.85 -62.1 L108.2 -61.2 110.15 -59.25 111.35 -57.15 112.15 -54.8 112.55 -52.4 112.6 -50.65 112.75 -48.5 112.75 -48.6 115.2 -48.4 115.3 -44.65 113.8 -44.55 113.75 -44.5 Q111.35 -44.45 108.9 -44.55 L104.9 -44.85 105.0 -47.25 104.8 -51.15 104.25 -53.7 103.25 -55.2 101.05 -57.0 Q99.55 -58.05 99.15 -60.15 99.05 -60.85 99.3 -61.35 M103.2 -62.7 L103.2 -62.55 Q107.75 -61.9 110.05 -56.15 111.5 -52.65 111.8 -48.6 L111.75 -48.55 111.8 -47.65 114.25 -47.5 114.45 -45.15 114.95 -45.2 114.95 -46.85 114.75 -48.4 113.1 -48.45 112.75 -48.5 112.3 -48.55 112.4 -50.7 Q112.3 -54.75 110.25 -58.2 107.8 -62.55 103.65 -62.8 L103.2 -62.7" fill="#c5c351" fill-rule="evenodd" stroke="none"/>
    <path d="M103.2 -62.7 L103.65 -62.8 Q107.8 -62.55 110.25 -58.2 112.3 -54.75 112.4 -50.7 L112.3 -48.55 112.75 -48.5 113.1 -48.45 114.75 -48.4 114.95 -46.85 114.95 -45.2 114.45 -45.15 114.25 -47.5 111.8 -47.65 111.75 -48.55 111.8 -48.6 Q111.5 -52.65 110.05 -56.15 107.75 -61.9 103.2 -62.55 L103.2 -62.7" fill="#737115" fill-rule="evenodd" stroke="none"/>
  </g>
</svg>
