<?xml version="1.0" encoding="UTF-8" standalone="no"?>
<svg xmlns:xlink="http://www.w3.org/1999/xlink" height="6.65px" width="14.1px" xmlns="http://www.w3.org/2000/svg">
  <g transform="matrix(1.0, 0.0, 0.0, 1.0, -94.1, 60.35)">
    <path d="M95.05 -60.25 L95.75 -60.25 98.7 -60.25 101.5 -60.25 104.05 -60.25 103.55 -57.95 102.75 -56.25 Q102.3 -55.4 101.4 -55.05 L100.15 -54.75 98.1 -54.85 Q97.45 -55.0 97.1 -55.25 L96.75 -55.5 96.2 -56.05 95.6 -57.05 95.35 -57.7 95.1 -58.55 Q95.0 -59.2 95.05 -60.25" fill="#570d03" fill-rule="evenodd" stroke="none"/>
    <path d="M95.05 -60.25 Q95.0 -59.2 95.1 -58.55 L95.35 -57.7 95.6 -57.05 96.2 -56.05 96.75 -55.5 97.1 -55.25 Q97.45 -55.0 98.1 -54.85 L100.15 -54.75 101.4 -55.05 Q102.3 -55.4 102.75 -56.25 L103.55 -57.95 104.05 -60.25 104.1 -60.35 108.2 -60.35 108.05 -59.25 Q107.8 -57.9 107.1 -56.7 106.25 -55.15 104.85 -54.1 L104.55 -53.95 104.3 -53.8 Q101.6 -53.6 98.95 -53.85 98.0 -53.95 97.2 -54.35 96.4 -54.7 95.95 -55.1 L95.0 -56.1 Q94.6 -56.7 94.3 -57.8 94.0 -58.9 94.15 -60.35 L95.05 -60.35 95.05 -60.25 M102.65 -54.4 Q104.05 -54.4 104.7 -55.05 L106.0 -56.65 106.85 -58.4 107.15 -59.6 106.55 -59.6 106.55 -59.7 104.75 -59.65 103.85 -56.8 Q103.25 -55.25 102.05 -54.65 L102.0 -54.55 102.0 -54.25 102.65 -54.4" fill="#000000" fill-rule="evenodd" stroke="none"/>
    <path d="M106.55 -59.6 L106.55 -59.3 105.05 -59.35 104.65 -57.95 104.2 -56.6 103.45 -55.15 102.65 -54.4 102.0 -54.25 102.0 -54.55 102.05 -54.65 Q103.25 -55.25 103.85 -56.8 L104.75 -59.65 106.55 -59.7 106.55 -59.6" fill="#ff797c" fill-rule="evenodd" stroke="none"/>
    <path d="M102.65 -54.4 L103.45 -55.15 104.2 -56.6 104.65 -57.95 105.05 -59.35 106.55 -59.3 106.55 -59.6 107.15 -59.6 106.85 -58.4 106.0 -56.65 104.7 -55.05 Q104.05 -54.4 102.65 -54.4" fill="#c2042c" fill-rule="evenodd" stroke="none"/>
  </g>
</svg>
