<?xml version="1.0" encoding="UTF-8" standalone="no"?>
<svg xmlns:xlink="http://www.w3.org/1999/xlink" height="20.3px" width="16.0px" xmlns="http://www.w3.org/2000/svg">
  <g transform="matrix(1.0, 0.0, 0.0, 1.0, -89.2, 63.85)">
    <path d="M93.25 -63.8 L93.95 -63.85 94.8 -63.85 Q98.0 -63.6 99.2 -62.4 L101.05 -60.2 102.1 -57.95 102.85 -55.25 Q103.05 -53.9 102.5 -49.85 L103.7 -49.8 103.65 -49.7 105.2 -49.6 104.5 -44.25 104.45 -43.7 101.6 -43.6 Q96.3 -43.45 92.95 -43.6 L91.45 -43.55 91.95 -46.7 Q92.55 -49.85 92.45 -51.35 L92.35 -52.2 92.35 -52.8 91.8 -54.05 91.0 -54.8 Q89.2 -56.35 89.2 -58.05 89.15 -59.7 89.25 -60.25 L89.7 -61.35 90.55 -62.4 91.6 -63.2 92.95 -63.75 93.25 -63.8 M92.85 -62.5 L91.8 -62.0 Q90.8 -61.4 90.3 -60.45 90.05 -59.9 90.1 -59.2 90.25 -57.1 91.3 -56.2 L92.85 -54.65 93.05 -54.3 93.15 -54.15 93.2 -54.2 93.3 -54.05 93.5 -53.35 Q93.75 -52.65 93.65 -50.9 L93.2 -47.1 92.75 -44.65 96.8 -44.45 101.75 -44.55 103.3 -44.75 103.8 -48.4 101.35 -48.55 101.55 -50.6 101.75 -52.3 101.7 -54.65 101.3 -56.95 100.4 -59.0 Q99.8 -60.15 98.75 -60.85 L97.5 -61.75 Q96.4 -62.6 95.0 -62.75 L93.45 -62.7 92.85 -62.5 M104.45 -43.6 Q103.5 -43.6 104.45 -43.65 L104.45 -43.6" fill="#000000" fill-rule="evenodd" stroke="none"/>
    <path d="M92.85 -62.5 L93.45 -62.7 95.0 -62.75 Q96.4 -62.6 97.5 -61.75 L98.75 -60.85 Q99.8 -60.15 100.4 -59.0 L101.3 -56.95 101.7 -54.65 101.75 -52.3 101.55 -50.6 101.35 -48.55 103.8 -48.4 103.3 -44.75 101.75 -44.55 96.8 -44.45 92.75 -44.65 93.2 -47.1 93.65 -50.9 Q93.75 -52.65 93.5 -53.35 L93.3 -54.05 93.2 -54.2 93.15 -54.15 93.05 -54.3 92.85 -54.65 91.3 -56.2 Q90.25 -57.1 90.1 -59.2 90.05 -59.9 90.3 -60.45 90.8 -61.4 91.8 -62.0 L92.85 -62.5 M93.9 -62.25 L93.85 -62.15 95.2 -61.8 Q98.6 -60.7 99.8 -55.95 100.75 -52.5 100.35 -48.5 L100.3 -48.5 100.2 -47.6 102.7 -47.5 102.55 -45.2 103.0 -45.25 103.3 -46.9 103.4 -48.4 101.7 -48.45 101.35 -48.45 100.9 -48.5 101.3 -50.65 Q101.85 -54.6 100.35 -57.95 98.7 -61.8 95.1 -62.3 L94.35 -62.35 93.9 -62.25" fill="#c5c351" fill-rule="evenodd" stroke="none"/>
    <path d="M93.9 -62.25 L94.35 -62.35 95.1 -62.3 Q98.7 -61.8 100.35 -57.95 101.85 -54.6 101.3 -50.65 L100.9 -48.5 101.35 -48.45 101.7 -48.45 103.4 -48.4 103.3 -46.9 103.0 -45.25 102.55 -45.2 102.7 -47.5 100.2 -47.6 100.3 -48.5 100.35 -48.5 Q100.75 -52.5 99.8 -55.95 98.6 -60.7 95.2 -61.8 L93.85 -62.15 93.9 -62.25" fill="#737115" fill-rule="evenodd" stroke="none"/>
  </g>
</svg>
