<?xml version="1.0" encoding="UTF-8" standalone="no"?>
<svg xmlns:xlink="http://www.w3.org/1999/xlink" height="86.15px" width="16.6px" xmlns="http://www.w3.org/2000/svg">
  <g transform="matrix(1.0, 0.0, 0.0, 1.0, 8.3, 43.1)">
    <path d="M4.6 -37.1 L5.2 -37.05 Q6.3 -33.55 6.85 -30.05 7.45 -25.85 7.55 -21.7 L7.7 -13.2 7.6 -7.55 7.55 -5.8 7.5 -4.2 6.8 2.35 5.65 9.5 4.7 14.15 4.35 15.7 3.95 17.75 2.5 24.25 Q1.15 30.05 -0.6 35.7 L-1.35 38.85 Q-1.6 40.35 -2.45 41.4 L-2.4 40.8 -1.1 36.2 Q-0.1 33.25 0.6 30.25 L1.35 27.6 2.6 22.6 3.55 17.55 4.45 13.35 5.15 10.0 5.8 6.5 Q6.45 2.7 6.7 -0.95 L6.9 -4.0 7.1 -11.1 7.15 -15.2 6.95 -21.8 6.75 -24.3 5.8 -31.85 5.35 -33.7 Q4.75 -35.3 4.6 -37.1" fill="#484848" fill-rule="evenodd" stroke="none"/>
    <path d="M4.6 -37.1 Q4.75 -35.3 5.35 -33.7 L5.8 -31.85 6.75 -24.3 6.95 -21.8 7.15 -15.2 7.1 -11.1 6.9 -4.0 6.7 -0.95 Q6.45 2.7 5.8 6.5 L5.15 10.0 4.45 13.35 3.55 17.55 2.6 22.6 1.35 27.6 0.6 30.25 Q-0.1 33.25 -1.1 36.2 L-2.4 40.8 -2.45 41.4 Q-1.6 40.35 -1.35 38.85 L-0.6 35.7 Q1.15 30.05 2.5 24.25 L3.95 17.75 4.35 15.7 4.7 14.15 5.65 9.5 6.8 2.35 7.5 -4.2 7.55 -5.8 7.6 -7.55 7.7 -13.2 7.55 -21.7 Q7.45 -25.85 6.85 -30.05 6.3 -33.55 5.2 -37.05 L4.6 -37.1 M-8.3 -40.0 L-6.55 -43.1 5.75 -38.35 Q8.15 -29.8 8.3 -18.4 L8.3 -17.75 8.3 -15.05 8.2 -8.35 8.0 -5.25 6.75 6.15 6.25 9.55 6.1 10.45 5.8 12.25 5.8 12.05 5.15 15.5 4.45 18.75 Q1.8 31.35 -1.55 43.05 L-3.55 43.05 Q-0.3 31.75 2.4 19.75 L3.15 16.35 4.15 11.65 4.2 11.3 4.2 11.5 4.65 8.1 5.45 2.1 6.1 -3.6 6.55 -17.1 6.5 -18.0 Q6.15 -27.45 4.0 -35.25 L-8.3 -40.0" fill="#333333" fill-rule="evenodd" stroke="none"/>
    <path d="M-8.3 -40.0 L4.0 -35.25 Q6.15 -27.45 6.5 -18.0 L6.55 -17.1 Q0.2 -11.85 -5.8 -6.3 L-8.3 -3.9 -8.3 -40.0 M6.1 -3.6 L5.45 2.1 4.65 8.1 4.2 11.5 4.2 11.3 4.15 11.65 -8.3 19.3 -8.3 8.9 6.1 -3.6 M3.15 16.35 L2.4 19.75 Q-0.3 31.75 -3.55 43.05 L-8.3 43.05 -8.3 22.05 3.15 16.35 M4.6 -1.5 L-7.75 9.45 -7.75 10.0 5.15 -0.7 5.45 -2.05 4.6 -1.5 M-7.15 10.75 L-5.35 9.65 Q-0.1 6.1 4.75 1.9 L-7.15 10.75" fill="#999999" fill-rule="evenodd" stroke="none"/>
    <path d="M6.55 -17.1 L6.1 -3.6 -8.3 8.9 -8.3 -3.9 -5.8 -6.3 Q0.2 -11.85 6.55 -17.1 M4.15 11.65 L3.15 16.35 -8.3 22.05 -8.3 19.3 4.15 11.65 M4.6 -1.5 L5.45 -2.05 5.15 -0.7 -7.75 10.0 -7.75 9.45 4.6 -1.5 M-7.15 10.75 L4.75 1.9 Q-0.1 6.1 -5.35 9.65 L-7.15 10.75" fill="#acacac" fill-rule="evenodd" stroke="none"/>
  </g>
</svg>
