<?xml version="1.0" encoding="UTF-8" standalone="no"?>
<svg xmlns:xlink="http://www.w3.org/1999/xlink" height="95.75px" width="117.1px" xmlns="http://www.w3.org/2000/svg">
  <g transform="matrix(1.0, 0.0, 0.0, 1.0, 103.05, 30.85)">
    <path d="M0.55 26.3 L0.55 20.95 0.55 15.1 0.55 11.45 -0.5 12.5 -2.75 14.55 -6.2 17.85 -6.7 17.75 -7.55 17.7 -8.85 17.8 Q-10.05 18.1 -11.1 19.15 -12.6 20.65 -12.6 22.75 L-12.45 23.95 -13.1 24.55 -15.7 27.0 -18.2 29.3 -19.0 30.0 -19.0 34.2 -18.9 34.55 -18.3 34.9 Q-16.7 35.3 -15.2 36.1 L-14.75 36.8 -20.1 35.1 -20.1 32.7 -20.1 15.05 -20.1 13.05 -20.1 4.5 -14.0 4.5 -14.0 5.7 -17.05 5.7 -18.95 5.7 -18.95 8.1 -18.95 13.95 -18.95 19.35 -18.95 19.4 -18.25 18.9 -13.75 15.5 -11.85 13.9 -7.8 10.65 -3.3 7.2 -1.4 5.7 -5.45 5.7 -5.5 5.7 -5.5 4.5 -3.75 4.5 -1.5 3.75 0.9 3.85 1.9 3.85 1.9 25.55 0.55 26.3" fill="#333333" fill-rule="evenodd" stroke="none"/>
    <path d="M-5.5 5.7 L-5.45 5.7 -1.4 5.7 -3.3 7.2 -7.8 10.65 -11.85 13.9 -13.75 15.5 -18.25 18.9 -18.95 19.4 -18.95 19.35 -18.95 13.95 -18.95 8.1 -18.95 5.7 -17.05 5.7 -14.0 5.7 -14.0 7.7 -5.5 7.7 -5.5 5.7" fill="#1d1d1d" fill-rule="evenodd" stroke="none"/>
    <path d="M-20.1 13.05 L-20.1 15.05 -35.8 15.05 -35.8 13.05 -20.1 13.05 M-33.05 5.25 L-31.35 5.25 -31.2 8.2 -27.55 8.35 -30.7 12.3 -35.2 12.45 -35.15 7.1 -33.05 5.25" fill="#4a482d" fill-rule="evenodd" stroke="none"/>
    <path d="M-6.2 17.85 Q-4.9 18.15 -3.9 19.15 -2.45 20.65 -2.45 22.75 -2.45 24.8 -3.9 26.4 -5.1 27.55 -6.7 27.7 L-7.55 27.8 -8.85 27.65 Q-10.05 27.35 -11.1 26.4 -12.15 25.3 -12.45 23.95 L-12.6 22.75 Q-12.6 20.65 -11.1 19.15 -10.05 18.1 -8.85 17.8 L-7.55 17.7 -6.7 17.75 -6.2 17.85 M-15.2 36.1 L-15.5 35.6 0.55 26.3 1.9 25.55 7.65 22.2 9.45 25.25 -3.9 32.95 -3.95 33.0 -13.7 38.65 -14.75 36.8 -15.2 36.1 M7.25 22.95 L3.35 24.95 -0.3 30.6 8.8 25.45 7.25 22.95 M-5.7 20.8 Q-6.45 20.05 -7.55 20.05 -8.65 20.05 -9.4 20.8 -10.15 21.55 -10.15 22.65 -10.15 23.75 -9.4 24.5 -8.65 25.25 -7.55 25.25 -6.45 25.25 -5.7 24.5 -4.95 23.75 -4.95 22.65 -4.95 21.55 -5.7 20.8 M-14.75 35.8 L-14.45 36.4 -14.4 36.4 -13.5 38.1 -7.05 30.95 -14.75 35.8" fill="#999999" fill-rule="evenodd" stroke="none"/>
    <path d="M-6.2 17.85 L-2.75 14.55 -0.5 12.5 0.55 11.45 0.55 15.1 0.55 20.95 0.55 26.3 -15.5 35.6 -15.2 36.1 Q-16.7 35.3 -18.3 34.9 L-18.9 34.55 -19.0 34.2 -19.0 30.0 -18.2 29.3 -15.7 27.0 -13.1 24.55 -12.45 23.95 Q-12.15 25.3 -11.1 26.4 -10.05 27.35 -8.85 27.65 L-7.55 27.8 -6.7 27.7 Q-5.1 27.55 -3.9 26.4 -2.45 24.8 -2.45 22.75 -2.45 20.65 -3.9 19.15 -4.9 18.15 -6.2 17.85" fill="#696969" fill-rule="evenodd" stroke="none"/>
    <path d="M-5.7 20.8 Q-4.95 21.55 -4.95 22.65 -4.95 23.75 -5.7 24.5 -6.45 25.25 -7.55 25.25 -8.65 25.25 -9.4 24.5 -10.15 23.75 -10.15 22.65 -10.15 21.55 -9.4 20.8 -8.65 20.05 -7.55 20.05 -6.45 20.05 -5.7 20.8" fill="#000000" fill-rule="evenodd" stroke="none"/>
    <path d="M-20.1 4.5 L-20.1 13.05 -35.8 13.05 -35.8 6.6 -33.4 4.5 -30.45 4.5 -30.45 7.85 -21.95 7.85 -21.95 4.75 -21.45 4.5 -20.1 4.5 M-20.1 15.05 L-20.1 32.7 -35.8 15.05 -20.1 15.05 M-33.05 5.25 L-35.15 7.1 -35.2 12.45 -30.7 12.3 -27.55 8.35 -31.2 8.2 -31.35 5.25 -33.05 5.25 M-26.55 21.25 L-27.65 22.2 -20.7 30.35 -21.3 15.85 Q-23.6 18.55 -26.55 21.25" fill="#5b5836" fill-rule="evenodd" stroke="none"/>
    <path d="M-20.1 32.7 L-20.1 35.1 -35.8 18.1 -35.8 15.05 -20.1 32.7 M-26.55 21.25 Q-23.6 18.55 -21.3 15.85 L-20.7 30.35 -27.65 22.2 -26.55 21.25" fill="#908c5f" fill-rule="evenodd" stroke="none"/>
    <path d="M9.45 25.25 L12.95 31.3 -6.7 42.65 4.45 62.0 0.95 64.0 -9.45 46.25 -9.4 46.05 -13.7 38.65 -3.95 33.0 -3.9 32.95 9.45 25.25 M5.45 28.2 L3.65 29.4 -2.55 39.45 -0.4 38.1 3.5 35.75 Q7.5 33.4 11.7 31.3 L11.25 30.3 Q10.2 28.3 8.85 26.6 L8.7 26.35 5.45 28.2 M3.15 61.25 L-1.1 53.65 -0.55 56.7 Q0.25 61.6 0.65 62.45 L0.95 62.95 3.15 61.25 M-12.8 38.95 L-9.25 45.5 Q-8.3 42.3 -4.3 33.95 L-12.8 38.95" fill="#990000" fill-rule="evenodd" stroke="none"/>
    <path d="M-14.75 35.8 L-7.05 30.95 -13.5 38.1 -14.4 36.4 -14.45 36.4 -14.75 35.8" fill="#747474" fill-rule="evenodd" stroke="none"/>
    <path d="M5.45 28.2 L8.7 26.35 8.85 26.6 Q10.2 28.3 11.25 30.3 L11.7 31.3 Q7.5 33.4 3.5 35.75 L-0.4 38.1 -2.55 39.45 3.65 29.4 5.45 28.2 M3.15 61.25 L0.95 62.95 0.65 62.45 Q0.25 61.6 -0.55 56.7 L-1.1 53.65 3.15 61.25" fill="#ff6666" fill-rule="evenodd" stroke="none"/>
    <path d="M-12.8 38.95 L-4.3 33.95 Q-8.3 42.3 -9.25 45.5 L-12.8 38.95" fill="#4f0000" fill-rule="evenodd" stroke="none"/>
    <path d="M7.25 22.95 L8.8 25.45 -0.3 30.6 3.35 24.95 7.25 22.95" fill="#dbdbdb" fill-rule="evenodd" stroke="none"/>
    <path d="M0.75 4.15 L-2.0 4.15 -3.05 5.35 -5.15 5.45 -5.15 8.05 -14.7 8.2 -14.6 4.9 -19.85 4.8 -19.85 33.25 -19.65 34.45 -15.8 36.1 -15.8 35.0 -0.8 26.45 1.0 25.2 0.95 9.75 0.75 4.15 M1.8 3.45 L1.8 5.5 1.8 5.7 2.1 24.8 7.15 21.7 7.75 21.75 11.15 26.7 14.05 31.0 -6.45 42.8 -4.1 46.6 -3.95 46.8 -2.15 49.9 0.1 53.9 4.0 60.45 5.0 62.05 0.85 64.9 0.65 64.9 -0.45 62.95 -9.7 46.6 -10.85 44.4 -13.5 39.7 -14.85 37.45 Q-18.3 36.2 -20.75 35.45 L-23.75 32.1 -24.05 31.75 -31.6 23.4 -34.75 20.0 -36.35 18.4 -36.55 7.15 -33.8 4.25 -30.35 4.3 -30.35 7.55 -22.85 7.55 -22.95 3.85 -21.0 3.8 -16.8 3.95 -13.7 4.15 -13.85 7.3 -5.9 7.15 -5.9 4.6 -3.75 4.55 -2.3 3.1 1.8 3.15 1.8 3.45 M2.4 29.7 L-2.2 32.4 -7.85 35.9 -12.75 38.8 -12.95 38.8 -11.65 40.95 -10.05 43.85 -8.5 46.6 -8.45 46.7 -6.05 51.25 -1.9 58.6 -0.05 61.8 0.85 63.55 3.1 62.25 3.55 61.6 -0.05 55.4 -1.85 52.35 -3.25 49.9 -5.2 46.6 -5.35 46.35 -6.45 44.45 -7.55 42.25 -6.2 41.45 -6.15 41.4 -6.0 41.35 -5.15 40.85 -4.95 40.75 -1.75 38.85 11.95 30.7 9.2 26.0 2.4 29.7 M0.8 26.65 L-4.2 29.6 -12.35 34.4 Q-13.95 35.35 -14.75 35.7 L-13.35 38.1 -8.5 35.3 Q-6.8 34.35 -2.95 31.85 L8.0 25.55 8.8 25.3 7.4 22.85 3.7 25.0 1.05 26.5 Q0.95 26.6 0.8 26.65 M-24.05 8.45 L-31.2 8.3 -31.1 5.15 -33.05 5.05 -35.75 7.7 -35.7 12.7 -20.6 12.8 -20.6 4.75 -21.8 4.75 -21.85 8.55 -23.4 8.45 -24.05 8.45 M-35.65 14.6 L-20.6 14.65 -20.6 13.45 -35.7 13.45 -35.65 14.6 M-34.9 15.55 L-27.55 23.5 Q-23.95 27.1 -20.8 31.05 L-20.6 31.3 -20.6 15.35 -35.2 15.25 -34.9 15.55 M-35.6 17.55 L-30.0 23.65 -29.9 23.7 -29.9 23.75 -20.6 33.85 -20.6 32.5 -20.8 32.5 -27.9 24.4 Q-31.6 20.3 -35.65 16.55 L-35.6 17.55" fill="#000000" fill-rule="evenodd" stroke="none"/>
    <path d="M-3.75 -0.15 L-3.55 -2.25 -3.55 -3.7 -1.5 -3.75 1.6 -3.75 4.0 -3.75 4.1 -3.75 Q5.6 -3.7 6.55 -2.75 7.6 -1.7 7.6 -0.2 L7.4 0.95 -3.75 -0.15 M-2.55 3.25 L-3.95 3.25 -3.95 3.2 -2.55 3.25 M-81.25 -3.1 L-81.35 -15.15 -79.0 -14.9 -80.0 7.2 -80.0 3.5 -80.0 3.4 Q-79.75 -3.15 -80.75 -3.15 L-81.25 -3.1 M-80.05 8.45 L-80.2 19.25 -81.05 19.25 -81.1 9.8 -80.8 9.8 Q-80.15 9.55 -80.05 8.45 M-49.05 -10.7 L-48.5 -19.25 Q-48.2 -23.85 -47.5 -28.5 L-46.05 -27.45 -46.05 -27.6 -42.25 -16.9 -42.25 -8.55 -42.35 -8.5 -42.85 -7.5 -42.95 -7.3 Q-43.4 -9.4 -44.4 -9.6 L-44.75 -9.7 -44.75 -9.65 -44.75 -8.95 -45.15 -8.0 -45.25 -7.85 Q-45.4 -7.7 -45.6 -7.85 L-45.75 -8.0 Q-46.1 -8.2 -46.25 -8.75 L-46.2 -9.0 -46.15 -9.25 Q-46.05 -9.6 -46.5 -9.55 -47.05 -9.45 -47.3 -9.8 L-47.35 -10.0 Q-47.4 -10.7 -47.05 -11.3 L-47.0 -11.5 Q-47.05 -11.7 -47.35 -11.5 L-47.9 -11.15 -48.05 -10.95 -48.25 -10.75 -48.6 -10.4 -48.75 -10.35 -49.05 -10.7 M-42.25 7.5 L-42.25 15.95 -46.75 30.25 -46.85 29.8 Q-48.1 30.25 -48.4 27.95 -49.05 23.3 -49.15 18.5 L-49.3 12.45 Q-48.9 12.6 -48.65 12.25 L-48.45 12.0 -48.4 11.9 -48.35 10.75 -48.3 10.55 -48.1 10.0 Q-48.0 9.65 -47.6 9.65 L-47.4 9.7 Q-46.9 9.95 -46.75 10.4 -46.35 10.35 -46.0 10.0 L-45.85 9.95 -45.35 9.65 -45.25 8.75 -45.25 8.6 -45.05 8.55 -45.05 9.95 Q-43.65 9.2 -43.0 7.25 L-42.85 7.3 -42.75 7.35 -42.25 7.5 M-34.85 -3.35 L-35.35 -3.2 -35.5 -3.1 -35.65 -3.05 Q-36.0 -3.45 -36.55 -3.45 L-37.0 -3.35 -37.1 -3.6 -37.25 -3.8 -37.5 -3.95 -38.1 -4.1 -38.5 -4.25 -39.9 -4.75 -39.7 -13.35 -34.85 -4.35 -34.85 -3.35 M-40.15 5.75 L-39.8 5.6 -39.6 5.15 -39.2 3.65 -39.15 3.4 Q-39.05 2.8 -38.35 2.9 L-38.15 2.95 -37.85 3.25 -37.65 3.55 -37.25 3.9 -37.0 4.0 -36.85 4.1 -36.7 4.1 -36.6 3.75 Q-36.2 3.8 -35.95 3.5 L-35.6 2.95 -35.5 2.9 -35.3 2.85 -34.85 2.75 -34.85 3.55 -40.25 10.55 -40.15 5.75 M-33.2 1.7 L-33.25 0.95 -33.2 0.55 -33.35 -3.3 -32.5 -3.3 -32.5 -3.15 -31.1 -3.15 -29.75 -3.4 -29.7 -3.4 -29.1 -3.6 -28.3 -3.5 -28.2 -3.4 -26.9 -3.4 -26.95 -1.8 -28.45 -1.75 -29.7 -1.7 -30.75 -1.65 -30.8 -1.45 -32.1 -1.5 -32.15 -0.65 -32.2 -0.5 -32.1 -0.05 -32.1 2.05 -33.1 2.0 -33.2 1.7 M-14.4 -1.0 L-13.25 -1.0 -12.1 -0.95 -5.3 -0.8 -5.0 -0.8 -5.0 0.7 -5.25 0.65 -5.25 1.5 -14.4 1.4 -14.4 -1.0 M-20.15 -0.7 Q-20.0 -1.3 -20.0 -2.7 L-20.0 -3.05 -15.75 -3.2 -15.75 -1.1 -15.7 -0.85 -16.55 -0.85 -18.3 -0.65 -20.15 -0.7 M-79.25 14.65 Q-78.5 8.7 -78.2 3.55 -77.9 -1.6 -78.4 -8.85 -76.25 -3.8 -76.2 1.7 -76.1 7.45 -78.35 12.7 L-79.25 14.65 M-100.95 1.85 L-100.8 0.65 -85.05 0.65 -85.2 2.3 -85.25 2.3 -85.65 1.85 -99.4 1.85 -99.4 1.75 -100.4 1.75 -100.5 1.85 -100.95 1.85" fill="#333333" fill-rule="evenodd" stroke="none"/>
    <path d="M4.0 -4.75 L4.15 -4.75 Q5.95 -4.7 6.95 -3.4 7.95 -2.1 8.25 -0.2 8.6 1.75 6.75 3.15 4.9 4.55 4.15 4.4 L4.0 4.4 1.9 4.35 1.85 4.35 -1.5 4.25 -3.0 4.25 -4.0 4.3 -4.0 4.65 -5.0 4.65 -5.0 2.4 -14.4 2.5 -14.5 5.95 -15.4 6.3 -15.65 6.6 -16.35 6.55 -16.35 6.4 -16.6 6.4 -18.55 6.55 -21.8 6.7 -28.45 6.3 -29.7 6.2 -30.85 6.1 -30.9 6.2 -31.15 6.35 -31.9 6.35 -31.9 6.15 -31.95 6.15 -32.1 5.6 -32.1 3.95 -33.25 3.9 -37.95 8.55 -46.05 32.1 -49.4 32.1 -50.45 9.85 -61.85 9.9 -63.9 8.3 -74.85 8.6 -78.3 19.7 -78.5 21.25 -82.7 20.85 -82.85 10.95 -84.75 10.4 -85.35 4.5 -102.9 4.0 -103.05 -0.9 -102.0 -1.6 -84.95 -1.5 -84.3 -8.3 -83.5 -8.3 -83.25 -17.0 -78.5 -17.35 -77.6 -16.7 -74.65 -3.4 -64.75 -3.4 -62.05 -7.4 -51.15 -7.55 -50.45 -7.1 -49.35 -30.85 -45.75 -30.85 -37.8 -11.2 -33.25 -4.85 -31.7 -4.85 -29.7 -5.0 -28.55 -5.05 -28.45 -5.1 -28.4 -5.15 -27.25 -5.1 -27.4 -5.4 -27.2 -5.9 Q-26.7 -6.15 -26.35 -6.55 L-26.15 -6.55 -26.15 -6.9 -24.65 -6.85 -24.65 -7.15 -22.2 -6.95 -22.2 -7.0 -20.95 -7.1 -15.95 -6.9 -15.75 -6.85 -15.0 -6.85 -15.0 -6.4 -14.9 -5.8 -14.9 -5.65 -14.75 -5.0 -14.65 -5.0 -14.45 -2.0 -5.0 -2.0 -5.0 -5.0 -4.3 -5.05 -3.55 -5.0 -3.55 -4.85 -2.45 -4.85 -2.25 -4.75 -1.55 -4.75 -1.5 -4.75 1.6 -4.75 4.0 -4.75 M7.4 0.95 L7.6 -0.2 Q7.6 -1.7 6.55 -2.75 5.6 -3.7 4.1 -3.75 L4.0 -3.75 1.6 -3.75 -1.5 -3.75 -3.55 -3.7 -3.55 -2.25 -3.75 -0.15 -3.95 3.2 -3.95 3.25 -2.55 3.25 -1.5 3.25 1.9 3.35 4.0 3.4 4.15 3.4 Q5.6 3.35 6.55 2.35 L7.4 0.95 M-81.25 -3.1 L-81.4 -2.95 -81.5 -2.65 -81.3 9.8 -81.1 9.8 -81.05 19.25 -80.2 19.25 -80.05 8.45 -80.0 7.5 -80.0 7.2 -79.0 -14.9 -81.35 -15.15 -81.25 -3.1 M-42.25 -8.55 L-42.25 -16.9 -46.05 -27.6 -46.05 -27.45 -47.5 -28.5 Q-48.2 -23.85 -48.5 -19.25 L-49.05 -10.7 -49.15 -9.45 -49.5 -0.85 -49.4 9.0 -49.3 12.45 -49.15 18.5 Q-49.05 23.3 -48.4 27.95 -48.1 30.25 -46.85 29.8 L-46.75 30.25 -42.25 15.95 -42.25 7.5 -42.25 -8.55 M-66.45 -1.15 L-66.6 5.85 -64.9 5.85 -65.05 -1.05 -66.45 -1.15 M-74.8 -0.85 L-74.8 5.7 -68.3 5.7 -68.3 -0.85 -74.8 -0.85 M-59.65 -4.3 L-51.85 -4.25 -52.9 -2.95 -56.2 -3.1 -59.45 -2.95 Q-62.7 -2.6 -62.45 -1.2 L-59.45 -1.2 -56.2 -1.15 -51.85 -1.1 -52.1 -0.5 -52.9 0.05 -62.75 0.05 -62.8 1.7 -53.5 1.7 -52.4 2.7 -52.7 3.4 -52.75 3.4 -56.2 3.4 -59.45 3.4 -62.9 3.4 -62.75 4.95 -53.2 4.95 -52.15 5.75 -52.4 6.55 -56.2 6.4 -59.45 6.35 Q-64.35 6.4 -60.85 7.55 L-50.45 7.65 -50.45 -5.7 -51.15 -5.3 -58.05 -5.15 -59.65 -4.3 M-34.85 -3.35 L-34.85 -4.35 -39.7 -13.35 -39.9 -4.75 -40.15 5.75 -40.25 10.55 -34.85 3.55 -34.85 2.75 -34.85 -3.35 M-33.1 2.0 L-32.1 2.05 -32.1 -0.05 -32.2 -0.5 -32.15 -0.65 -32.1 -1.5 -30.8 -1.45 -30.75 -1.65 -29.7 -1.7 -28.45 -1.75 -26.95 -1.8 -26.9 -3.4 -28.2 -3.4 -28.3 -3.5 -29.1 -3.6 -29.7 -3.4 -29.75 -3.4 -31.1 -3.15 -32.5 -3.15 -32.5 -3.3 -33.35 -3.3 -33.2 0.55 -33.25 0.95 -33.2 1.7 -33.2 2.0 -33.1 2.0 M-31.0 -0.2 L-30.9 2.95 -30.65 3.0 -30.65 4.85 -30.75 5.5 -29.7 5.55 -28.5 5.6 -28.5 5.5 -22.4 5.5 -22.2 5.6 -19.0 5.35 -17.4 5.4 -17.4 5.6 -16.7 5.55 -16.75 5.3 -16.5 4.9 -16.3 4.2 -20.35 4.05 -20.35 2.55 -16.0 3.0 Q-15.65 1.5 -15.65 0.4 L-15.65 0.25 -17.45 0.45 -19.4 0.35 -19.45 0.25 -20.35 0.15 -20.9 0.05 -20.9 -0.05 -21.2 -0.1 -21.2 -1.4 Q-20.9 -2.2 -20.9 -4.8 L-20.35 -4.75 -20.35 -4.8 -15.75 -4.6 -15.75 -5.6 -15.8 -5.95 -20.15 -5.95 -20.15 -5.8 -25.0 -5.8 -24.9 -5.45 -24.9 -1.15 -26.15 -1.05 -26.15 -0.9 -28.45 -0.55 -29.7 -0.4 -30.7 -0.3 -31.0 -0.2 M-26.3 -5.1 L-26.25 -5.1 -26.25 -4.55 -26.2 -3.65 -26.25 -1.85 -25.65 -1.85 -25.65 -4.65 -25.85 -5.35 -25.95 -5.75 -26.35 -5.2 -26.3 -5.1 M-20.15 -0.7 L-18.3 -0.65 -16.55 -0.85 -15.7 -0.85 -15.75 -1.1 -15.75 -3.2 -20.0 -3.05 -20.0 -2.7 Q-20.0 -1.3 -20.15 -0.7 M-14.4 -1.0 L-14.4 1.4 -5.25 1.5 -5.25 0.65 -5.0 0.7 -5.0 -0.8 -5.3 -0.8 -12.1 -0.95 -13.25 -1.0 -14.4 -1.0 M-79.25 14.65 L-78.35 12.7 Q-76.1 7.45 -76.2 1.7 -76.25 -3.8 -78.4 -8.85 -77.9 -1.6 -78.2 3.55 -78.5 8.7 -79.25 14.65 M-99.3 2.55 L-85.65 2.55 -85.25 2.35 -85.25 2.3 -85.2 2.3 -85.05 0.65 -100.8 0.65 -100.95 1.85 -101.1 1.85 -101.2 2.2 -100.8 2.55 -100.55 2.55 -99.3 2.6 -99.3 2.55" fill="#000000" fill-rule="evenodd" stroke="none"/>
    <path d="M-3.75 -0.15 L7.4 0.95 6.55 2.35 Q5.6 3.35 4.15 3.4 L4.0 3.4 1.9 3.35 -1.5 3.25 -2.55 3.25 -3.95 3.2 -3.75 -0.15 M2.8 2.75 L2.8 2.05 -3.8 2.25 -3.85 2.65 -3.8 2.95 -1.05 3.0 -1.0 2.9 2.8 2.75 M6.15 1.7 L6.15 1.05 5.2 1.05 5.2 1.3 4.95 1.35 4.95 1.55 4.7 1.6 4.6 1.85 4.6 2.5 5.3 2.55 6.0 2.15 6.15 1.7 M-81.1 9.8 L-81.3 9.8 -81.5 -2.65 -81.4 -2.95 -81.25 -3.1 -80.75 -3.15 Q-79.75 -3.15 -80.0 3.4 L-80.0 3.5 -80.0 7.2 -80.0 7.5 -80.05 8.45 Q-80.15 9.55 -80.8 9.8 L-81.1 9.8 M-49.05 -10.7 L-48.75 -10.35 -48.6 -10.4 -48.25 -10.75 -48.05 -10.95 -47.9 -11.15 -47.35 -11.5 Q-47.05 -11.7 -47.0 -11.5 L-47.05 -11.3 Q-47.4 -10.7 -47.35 -10.0 L-47.3 -9.8 Q-47.05 -9.45 -46.5 -9.55 -46.05 -9.6 -46.15 -9.25 L-46.2 -9.0 -46.25 -8.75 Q-46.1 -8.2 -45.75 -8.0 L-45.6 -7.85 Q-45.4 -7.7 -45.25 -7.85 L-45.15 -8.0 -44.75 -8.95 -44.75 -9.0 Q-44.5 -9.4 -44.25 -9.1 L-44.2 -8.9 -44.3 -8.25 Q-44.3 -7.6 -43.85 -7.25 -43.4 -6.9 -43.0 -7.25 L-42.95 -7.3 -42.85 -7.5 -42.35 -8.5 -42.25 -8.55 -42.25 7.5 -42.75 7.35 -42.85 7.3 -43.0 7.25 Q-43.65 9.2 -45.05 9.95 L-45.05 8.55 -45.25 8.6 -45.25 8.75 -45.35 9.65 -45.85 9.95 -46.0 10.0 Q-46.35 10.35 -46.75 10.4 -46.9 9.95 -47.4 9.7 L-47.6 9.65 Q-48.0 9.65 -48.1 10.0 L-48.3 10.55 -48.35 10.75 -48.4 11.9 -48.45 12.0 -48.65 12.25 Q-48.9 12.6 -49.3 12.45 L-49.4 9.0 -49.5 -0.85 -49.15 -9.45 -49.05 -10.7 M-43.4 -2.0 L-44.15 -2.0 -44.15 2.95 -44.05 3.8 -43.3 3.85 -43.25 0.1 Q-43.25 -1.05 -43.4 -2.0 M-48.15 -3.35 L-48.4 -3.4 Q-48.7 -2.9 -48.65 -1.8 -48.6 -0.5 -48.8 0.05 L-49.05 3.6 -49.0 4.3 -48.5 5.25 Q-48.0 3.95 -48.0 -1.5 -48.0 -2.5 -48.15 -3.35 M-46.9 -4.8 L-47.1 -4.05 -47.5 -4.0 -47.75 -1.65 -47.65 7.9 -47.0 7.9 -46.9 6.85 -46.4 6.75 Q-46.05 6.0 -46.05 4.6 L-45.8 4.55 -45.7 2.85 -45.25 2.35 -45.25 2.0 -45.05 1.05 -45.05 -1.95 -45.3 -2.0 Q-45.3 -3.7 -45.45 -4.55 L-46.05 -4.55 -46.3 -3.9 -46.3 -4.75 -46.9 -4.8 M-48.25 -7.55 L-48.3 -7.15 -48.3 -5.95 -47.9 -5.9 -47.8 -5.8 -47.75 -6.0 Q-48.05 -6.5 -47.65 -7.5 L-48.25 -7.55 M-39.9 -4.75 L-38.5 -4.25 -38.1 -4.1 -37.5 -3.95 -37.25 -3.8 -37.1 -3.6 -37.0 -3.35 -36.55 -3.45 Q-36.0 -3.45 -35.65 -3.05 L-35.5 -3.1 -35.35 -3.2 -34.85 -3.35 -34.85 2.75 -35.3 2.85 -35.5 2.9 -35.6 2.95 -35.95 3.5 Q-36.2 3.8 -36.6 3.75 L-36.7 4.1 -36.85 4.1 -37.0 4.0 -37.25 3.9 -37.65 3.55 -37.85 3.25 -38.15 2.95 -38.35 2.9 Q-39.05 2.8 -39.15 3.4 L-39.2 3.65 -39.6 5.15 -39.8 5.6 -40.15 5.75 -39.9 -4.75 M-37.2 -2.55 L-37.85 -2.55 -38.15 -0.75 -38.05 1.4 -37.5 1.4 -37.5 0.65 -37.2 0.35 -37.2 -0.05 -37.05 0.25 -36.2 0.3 -35.95 -0.25 -35.95 -1.35 -36.8 -1.4 -36.8 -1.3 -37.05 -1.25 -37.2 -0.65 -37.2 -2.55 M-38.9 -1.65 L-39.05 -2.3 -39.5 -2.3 -39.8 0.95 -39.8 2.45 -39.05 2.45 -38.9 -1.65 M-48.7 6.1 L-49.0 6.1 -49.15 8.4 -49.05 8.7 -48.95 8.7 -49.0 9.1 -48.75 9.2 -48.15 9.2 -48.15 8.45 -48.55 8.45 -48.85 8.55 -48.7 8.25 -48.7 6.1 M-38.3 1.8 L-38.75 1.75 -38.75 2.35 -38.3 2.35 -38.3 1.8 M-80.5 5.4 L-80.35 3.95 -80.4 1.6 -81.15 1.6 -81.3 3.75 -81.3 4.55 -81.3 5.2 -81.05 5.4 -80.5 5.4 M-85.25 2.3 L-85.25 2.35 -85.65 2.55 -99.3 2.55 -99.4 1.85 -85.65 1.85 -85.25 2.3 M-100.55 2.55 L-100.8 2.55 -101.2 2.2 -101.1 1.85 -100.95 1.85 -100.5 1.85 -100.55 1.9 -100.55 2.55" fill="#999999" fill-rule="evenodd" stroke="none"/>
    <path d="M-74.8 -0.85 L-68.3 -0.85 -68.3 5.7 -74.8 5.7 -74.8 -0.85 M-66.45 -1.15 L-65.05 -1.05 -64.9 5.85 -66.6 5.85 -66.45 -1.15 M-59.3 -2.4 L-59.3 -1.7 -54.05 -1.65 -51.8 -1.75 -51.8 -2.25 -51.85 -2.4 -59.3 -2.4 M-59.65 -4.3 L-58.05 -5.15 -51.15 -5.3 -50.45 -5.7 -50.45 7.65 -60.85 7.55 Q-64.35 6.4 -59.45 6.35 L-56.2 6.4 -52.4 6.55 -52.15 5.75 -53.2 4.95 -62.75 4.95 -62.9 3.4 -59.45 3.4 -56.2 3.4 -52.75 3.4 -52.7 3.4 -52.4 2.7 -53.5 1.7 -62.8 1.7 -62.75 0.05 -52.9 0.05 -52.1 -0.5 -51.85 -1.1 -56.2 -1.15 -59.45 -1.2 -62.45 -1.2 Q-62.7 -2.6 -59.45 -2.95 L-56.2 -3.1 -52.9 -2.95 -51.85 -4.25 -59.65 -4.3 M-52.75 -4.8 L-52.9 -5.1 -55.05 -5.1 -55.55 -4.9 -55.55 -4.7 -55.25 -4.6 -52.9 -4.5 Q-52.75 -4.6 -52.75 -4.8 M-69.1 4.8 L-68.95 4.0 -68.95 3.05 -69.65 3.0 -69.65 3.2 -70.35 3.3 -74.05 3.35 -74.15 3.85 -74.15 4.5 -74.0 4.65 -73.95 4.65 -73.9 4.9 -72.2 4.95 -72.15 4.85 -69.1 4.8 M-61.55 4.0 L-62.4 4.0 -62.4 4.7 -61.55 4.75 -61.55 4.0 M-65.4 5.0 L-65.3 3.85 -65.4 1.85 -66.15 1.85 -66.15 4.05 -66.0 5.0 -65.4 5.0 M-59.45 7.5 L-59.4 7.5 -59.35 7.4 -56.2 7.35 -51.55 7.25 -51.55 6.65 -60.1 6.6 -60.3 6.75 -60.3 7.45 -59.45 7.5 M-51.8 4.1 L-52.8 4.0 -60.4 4.0 -60.4 4.8 -53.55 4.75 -52.55 4.85 -52.45 4.95 -51.65 5.0 -51.45 4.95 -51.45 4.3 -51.8 4.1 M-50.95 1.05 L-50.95 0.4 -51.2 0.35 -55.55 0.25 -56.2 0.25 -59.3 0.6 -59.3 1.3 -59.15 1.45 -58.4 1.5 -58.4 1.3 -56.9 1.25 -56.85 1.15 -55.55 1.0 -50.95 1.05" fill="#660000" fill-rule="evenodd" stroke="none"/>
    <path d="M-59.3 -2.4 L-51.85 -2.4 -51.8 -2.25 -51.8 -1.75 -54.05 -1.65 -59.3 -1.7 -59.3 -2.4 M-52.75 -4.8 Q-52.75 -4.6 -52.9 -4.5 L-55.25 -4.6 -55.55 -4.7 -55.55 -4.9 -55.05 -5.1 -52.9 -5.1 -52.75 -4.8 M-50.95 1.05 L-55.55 1.0 -56.85 1.15 -56.9 1.25 -58.4 1.3 -58.4 1.5 -59.15 1.45 -59.3 1.3 -59.3 0.6 -56.2 0.25 -55.55 0.25 -51.2 0.35 -50.95 0.4 -50.95 1.05 M-51.8 4.1 L-51.45 4.3 -51.45 4.95 -51.65 5.0 -52.45 4.95 -52.55 4.85 -53.55 4.75 -60.4 4.8 -60.4 4.0 -52.8 4.0 -51.8 4.1 M-59.45 7.5 L-60.3 7.45 -60.3 6.75 -60.1 6.6 -51.55 6.65 -51.55 7.25 -56.2 7.35 -59.35 7.4 -59.4 7.5 -59.45 7.5 M-65.4 5.0 L-66.0 5.0 -66.15 4.05 -66.15 1.85 -65.4 1.85 -65.3 3.85 -65.4 5.0 M-61.55 4.0 L-61.55 4.75 -62.4 4.7 -62.4 4.0 -61.55 4.0 M-69.1 4.8 L-72.15 4.85 -72.2 4.95 -73.9 4.9 -73.95 4.65 -74.0 4.65 -74.15 4.5 -74.15 3.85 -74.05 3.35 -70.35 3.3 -69.65 3.2 -69.65 3.0 -68.95 3.05 -68.95 4.0 -69.1 4.8" fill="#ff6262" fill-rule="evenodd" stroke="none"/>
    <path d="M6.15 1.7 L6.0 2.15 5.3 2.55 4.6 2.5 4.6 1.85 4.7 1.6 4.95 1.55 4.95 1.35 5.2 1.3 5.2 1.05 6.15 1.05 6.15 1.7 M2.8 2.75 L-1.0 2.9 -1.05 3.0 -3.8 2.95 -3.85 2.65 -3.8 2.25 2.8 2.05 2.8 2.75 M-48.25 -7.55 L-47.65 -7.5 Q-48.05 -6.5 -47.75 -6.0 L-47.8 -5.8 -47.9 -5.9 -48.3 -5.95 -48.3 -7.15 -48.25 -7.55 M-46.9 -4.8 L-46.3 -4.75 -46.3 -3.9 -46.05 -4.55 -45.45 -4.55 Q-45.3 -3.7 -45.3 -2.0 L-45.05 -1.95 -45.05 1.05 -45.25 2.0 -45.25 2.35 -45.7 2.85 -45.8 4.55 -46.05 4.6 Q-46.05 6.0 -46.4 6.75 L-46.9 6.85 -47.0 7.9 -47.65 7.9 -47.75 -1.65 -47.5 -4.0 -47.1 -4.05 -46.9 -4.8 M-48.15 -3.35 Q-48.0 -2.5 -48.0 -1.5 -48.0 3.95 -48.5 5.25 L-49.0 4.3 -49.05 3.6 -48.8 0.05 Q-48.6 -0.5 -48.65 -1.8 -48.7 -2.9 -48.4 -3.4 L-48.15 -3.35 M-43.4 -2.0 Q-43.25 -1.05 -43.25 0.1 L-43.3 3.85 -44.05 3.8 -44.15 2.95 -44.15 -2.0 -43.4 -2.0 M-38.9 -1.65 L-39.05 2.45 -39.8 2.45 -39.8 0.95 -39.5 -2.3 -39.05 -2.3 -38.9 -1.65 M-37.2 -2.55 L-37.2 -0.65 -37.05 -1.25 -36.8 -1.3 -36.8 -1.4 -35.95 -1.35 -35.95 -0.25 -36.2 0.3 -37.05 0.25 -37.2 -0.05 -37.2 0.35 -37.5 0.65 -37.5 1.4 -38.05 1.4 -38.15 -0.75 -37.85 -2.55 -37.2 -2.55 M-38.3 1.8 L-38.3 2.35 -38.75 2.35 -38.75 1.75 -38.3 1.8 M-48.7 6.1 L-48.7 8.25 -48.85 8.55 -48.55 8.45 -48.15 8.45 -48.15 9.2 -48.75 9.2 -49.0 9.1 -48.95 8.7 -49.05 8.7 -49.15 8.4 -49.0 6.1 -48.7 6.1 M-80.5 5.4 L-81.05 5.4 -81.3 5.2 -81.3 4.55 -81.3 3.75 -81.15 1.6 -80.4 1.6 -80.35 3.95 -80.5 5.4 M-99.3 2.55 L-99.3 2.6 -100.55 2.55 -100.55 1.9 -100.5 1.85 -100.4 1.75 -99.4 1.75 -99.4 1.85 -99.3 2.55" fill="#e4e4e4" fill-rule="evenodd" stroke="none"/>
    <path d="M-31.0 -0.2 L-30.7 -0.3 -29.7 -0.4 -28.45 -0.55 -26.15 -0.9 -26.15 -1.05 -24.9 -1.15 -24.9 -5.45 -25.0 -5.8 -20.15 -5.8 -20.15 -5.95 -15.8 -5.95 -15.75 -5.6 -15.75 -4.6 -20.35 -4.8 -20.35 -4.75 -20.9 -4.8 Q-20.9 -2.2 -21.2 -1.4 L-21.2 -0.1 -20.9 -0.05 -20.9 0.05 -20.35 0.15 -19.45 0.25 -19.4 0.35 -17.45 0.45 -15.65 0.25 -15.65 0.4 Q-15.65 1.5 -16.0 3.0 L-20.35 2.55 -20.35 4.05 -16.3 4.2 -16.5 4.9 -16.75 5.3 -16.7 5.55 -17.4 5.6 -17.4 5.4 -19.0 5.35 -22.2 5.6 -22.4 5.5 -28.5 5.5 -28.5 5.6 -29.7 5.55 -30.75 5.5 -30.65 4.85 -30.65 3.0 -30.9 2.95 -31.0 -0.2 M-24.2 -2.6 Q-24.25 -0.85 -24.9 -0.25 L-26.9 0.05 -28.45 0.3 -29.4 0.5 -29.7 1.1 -30.0 2.45 -29.75 4.65 -29.7 4.65 -28.75 4.75 -28.45 4.5 Q-23.1 -0.45 -21.25 -5.15 L-23.4 -4.9 Q-24.15 -4.3 -24.2 -2.6" fill="#999933" fill-rule="evenodd" stroke="none"/>
    <path d="M-26.3 -5.1 L-26.35 -5.2 -25.95 -5.75 -25.85 -5.35 -25.65 -4.65 -25.65 -1.85 -26.25 -1.85 -26.2 -3.65 -26.25 -4.55 -26.25 -5.1 -26.3 -5.1 M-24.2 -2.6 Q-24.15 -4.3 -23.4 -4.9 L-21.25 -5.15 Q-23.1 -0.45 -28.45 4.5 L-28.75 4.75 -29.7 4.65 -29.75 4.65 -30.0 2.45 -29.7 1.1 -29.4 0.5 -28.45 0.3 -26.9 0.05 -24.9 -0.25 Q-24.25 -0.85 -24.2 -2.6" fill="#996633" fill-rule="evenodd" stroke="none"/>
    <path d="M5.65 -13.95 L5.15 -15.55 Q4.8 -15.05 5.0 -13.4 5.15 -11.75 4.55 -11.0 2.1 -7.65 0.55 -6.05 L4.15 -9.2 Q5.8 -10.9 5.8 -12.25 L5.65 -13.95 M6.3 -10.95 L-1.1 -3.15 3.8 1.5 -6.2 5.85 -10.8 0.35 5.55 -18.75 6.3 -10.95 M2.95 -14.3 L0.4 -11.7 -3.2 -7.65 -9.45 -0.25 Q-9.45 0.35 -8.1 2.1 L-6.1 4.35 Q-5.4 3.25 -4.05 0.05 L-2.05 -4.5 2.95 -14.3 M0.05 -0.9 L-1.55 1.3 -3.2 3.95 -2.55 4.0 -0.3 2.6 2.4 1.35 Q1.9 1.2 1.45 0.35 L0.7 -0.8 0.05 -0.9" fill="#ff9900" fill-rule="evenodd" stroke="none"/>
    <path d="M2.95 -14.3 L-2.05 -4.5 -4.05 0.05 Q-5.4 3.25 -6.1 4.35 L-8.1 2.1 Q-9.45 0.35 -9.45 -0.25 L-3.2 -7.65 0.4 -11.7 2.95 -14.3" fill="#a46200" fill-rule="evenodd" stroke="none"/>
    <path d="M5.4 -20.55 L6.15 -20.5 Q6.75 -14.05 7.4 -10.15 L0.05 -3.25 4.3 0.3 4.85 1.1 5.15 1.95 -6.7 6.6 -11.3 0.85 -11.8 0.75 5.4 -20.55 M6.3 -10.95 L5.55 -18.75 -10.8 0.35 -6.2 5.85 3.8 1.5 -1.1 -3.15 6.3 -10.95" fill="#000000" fill-rule="evenodd" stroke="none"/>
    <path d="M5.65 -13.95 L5.8 -12.25 Q5.8 -10.9 4.15 -9.2 L0.55 -6.05 Q2.1 -7.65 4.55 -11.0 5.15 -11.75 5.0 -13.4 4.8 -15.05 5.15 -15.55 L5.65 -13.95 M0.05 -0.9 L0.7 -0.8 1.45 0.35 Q1.9 1.2 2.4 1.35 L-0.3 2.6 -2.55 4.0 -3.2 3.95 -1.55 1.3 0.05 -0.9" fill="#ffcc80" fill-rule="evenodd" stroke="none"/>
  </g>
</svg>
