<?xml version="1.0" encoding="UTF-8" standalone="no"?>
<svg xmlns:xlink="http://www.w3.org/1999/xlink" height="62.95px" width="111.35px" xmlns="http://www.w3.org/2000/svg">
  <g transform="matrix(1.0, 0.0, 0.0, 1.0, 103.05, 30.85)">
    <path d="M8.25 -0.2 Q8.6 1.75 6.75 3.15 4.9 4.55 4.15 4.4 L4.0 4.4 1.9 4.35 1.85 4.35 -1.5 4.25 -3.0 4.25 -5.05 4.35 -5.35 7.95 -14.3 7.95 -14.75 4.25 -21.6 4.0 -21.55 8.05 -31.0 8.3 -30.95 4.0 -33.25 3.9 -37.95 8.55 -46.05 32.1 -49.4 32.1 -50.45 9.85 -61.85 9.9 -63.9 8.3 -74.85 8.6 -78.3 19.7 -78.5 21.25 -83.8 20.75 -83.85 10.7 -84.75 10.4 -85.35 4.5 -102.9 4.0 -103.05 -0.9 -102.0 -1.6 -84.95 -1.5 -84.3 -8.3 -83.5 -8.3 -83.25 -17.0 -78.5 -17.35 -77.6 -16.7 -74.65 -3.4 -64.75 -3.4 -62.05 -7.4 -51.15 -7.55 -50.45 -7.1 -49.35 -30.85 -45.75 -30.85 -37.8 -11.2 -33.25 -4.85 -31.0 -4.85 -30.85 -7.8 -21.25 -7.7 -21.25 -4.85 -14.65 -4.6 -14.35 -7.4 -14.15 -7.45 -5.65 -7.45 -5.45 -7.4 -5.15 -4.85 -2.45 -4.85 -2.25 -4.75 -1.55 -4.75 -1.5 -4.75 1.6 -4.75 4.0 -4.75 4.15 -4.75 Q5.95 -4.7 6.95 -3.4 7.95 -2.1 8.25 -0.2 M-33.2 1.7 L-33.2 2.0 -33.1 2.0 -33.2 1.7" fill="#ffffff" fill-rule="evenodd" stroke="none"/>
  </g>
</svg>
