<?xml version="1.0" encoding="UTF-8" standalone="no"?>
<svg xmlns:xlink="http://www.w3.org/1999/xlink" height="36.5px" width="96.65px" xmlns="http://www.w3.org/2000/svg">
  <g transform="matrix(1.0, 0.0, 0.0, 1.0, 48.35, 18.25)">
    <path d="M46.4 18.2 L46.45 16.85 Q46.4 11.75 44.85 7.35 43.6 3.75 41.3 0.6 38.4 -3.3 34.0 -6.5 23.8 -13.95 11.6 -16.1 L8.2 -16.6 Q-6.8 -18.2 -20.85 -13.3 -34.6 -8.4 -41.55 4.55 L-42.95 7.35 -44.0 9.4 -42.55 7.35 Q-32.4 -6.3 -14.9 -9.2 -9.45 -10.25 -3.65 -10.15 L-3.65 -8.75 Q-10.85 -4.3 -4.0 2.05 -0.35 5.4 10.1 5.25 L11.6 5.2 Q20.8 4.8 24.45 1.8 L30.05 2.7 30.05 4.65 Q28.2 6.2 25.7 6.7 L22.7 6.9 22.05 7.45 34.55 8.0 34.15 11.65 30.35 13.0 30.35 14.4 Q35.85 13.95 40.55 16.45 L41.15 16.75 41.35 16.85 43.1 18.2 10.95 18.2 10.75 18.0 9.75 18.0 9.85 18.2 5.95 18.25 -5.8 18.2 -5.95 18.05 -6.95 18.05 -6.9 18.2 -12.6 18.2 -16.85 18.2 -18.3 18.2 -37.5 18.2 -37.55 18.15 -48.35 18.2 -48.3 16.95 -48.35 14.65 -48.35 10.6 -48.0 7.35 Q-47.45 3.8 -45.95 0.95 -43.75 -3.35 -39.55 -6.05 L-29.25 -12.45 Q-27.2 -13.55 -20.2 -16.0 -13.25 -18.45 3.35 -18.25 L11.6 -17.55 Q23.55 -15.75 34.1 -8.7 40.5 -4.45 44.05 0.6 46.25 3.8 47.35 7.35 48.3 10.55 48.3 14.05 L48.15 16.85 47.9 18.2 46.4 18.2" fill="#990000" fill-rule="evenodd" stroke="none"/>
    <path d="M43.1 18.2 L41.35 16.85 41.15 16.75 40.55 16.45 Q35.85 13.95 30.35 14.4 L30.35 13.0 34.15 11.65 34.55 8.0 22.05 7.45 22.7 6.9 25.7 6.7 Q28.2 6.2 30.05 4.65 L30.05 2.7 24.45 1.8 Q20.8 4.8 11.6 5.2 L10.1 5.25 Q-0.35 5.4 -4.0 2.05 -10.85 -4.3 -3.65 -8.75 L-3.65 -10.15 Q-9.45 -10.25 -14.9 -9.2 -32.4 -6.3 -42.55 7.35 L-44.0 9.4 -42.95 7.35 -41.55 4.55 Q-34.6 -8.4 -20.85 -13.3 -6.8 -18.2 8.2 -16.6 L11.6 -16.1 Q23.8 -13.95 34.0 -6.5 38.4 -3.3 41.3 0.6 43.6 3.75 44.85 7.35 46.4 11.75 46.45 16.85 L46.4 18.2 43.1 18.2" fill="#ff0000" fill-rule="evenodd" stroke="none"/>
    <path d="M37.8 -1.9 Q39.45 -0.4 40.55 1.4 L41.1 2.35 40.55 1.95 Q32.15 -4.3 22.3 -8.35 6.25 -15.0 -10.85 -12.7 L-15.75 -12.2 -8.6 -14.1 Q3.85 -16.05 15.95 -13.25 28.35 -10.45 37.8 -1.9 M10.4 -8.8 Q16.8 -8.85 15.3 -3.15 11.2 0.3 5.85 -2.15 3.15 -3.4 4.45 -5.5 6.45 -8.8 10.4 -8.8" fill="#ff7979" fill-rule="evenodd" stroke="none"/>
  </g>
</svg>
