<?xml version="1.0" encoding="UTF-8" standalone="no"?>
<svg xmlns:xlink="http://www.w3.org/1999/xlink" height="36.8px" width="99.5px" xmlns="http://www.w3.org/2000/svg">
  <g transform="matrix(1.0, 0.0, 0.0, 1.0, 49.75, 19.05)">
    <path d="M37.85 -3.0 Q33.3 -7.45 26.95 -10.3 14.35 -15.9 0.0 -16.25 -14.35 -16.65 -29.2 -10.8 -35.55 -8.3 -39.75 -4.2 -43.05 -0.8 -45.0 3.7 L-46.5 8.15 -46.8 9.3 Q-47.4 12.95 -47.15 17.7 L-45.0 17.7 -45.0 17.75 -49.5 17.75 -49.5 8.15 -49.75 8.15 -49.5 7.2 Q-48.75 4.6 -46.95 1.75 -44.9 -1.6 -41.45 -5.35 L-40.45 -6.35 Q-33.0 -14.0 -18.4 -17.15 -3.35 -20.4 10.95 -18.15 25.55 -15.8 37.3 -6.75 L40.95 -3.5 Q43.3 -1.2 45.05 1.4 46.35 3.35 47.3 5.45 49.55 10.45 49.75 16.35 L49.75 17.65 40.3 17.65 40.3 17.6 47.25 17.6 47.15 16.35 Q46.8 12.6 45.5 9.15 L45.1 8.15 Q43.6 4.5 41.45 1.4 L37.85 -3.0" fill="#990000" fill-rule="evenodd" stroke="none"/>
  </g>
</svg>
