<?xml version="1.0" encoding="UTF-8" standalone="no"?>
<svg xmlns:xlink="http://www.w3.org/1999/xlink" height="19.5px" width="80.95px" xmlns="http://www.w3.org/2000/svg">
  <g transform="matrix(1.0, 0.0, 0.0, 1.0, 44.8, 18.15)">
    <path d="M3.55 -15.85 L4.0 -16.85 4.5 -16.85 Q4.5 -16.0 3.6 -14.5 L2.65 -12.9 5.3 -8.75 4.8 -7.15 4.6 -7.15 4.25 -7.6 4.4 -8.45 -1.85 -12.75 -1.85 -12.65 -3.25 -12.4 -11.2 -12.3 -8.2 -10.3 -6.85 -9.35 Q-6.0 -8.65 -5.9 -8.0 L-6.0 -5.5 -5.95 -5.1 -6.25 -5.15 -6.25 -7.25 Q-6.25 -8.15 -7.15 -8.9 L-8.65 -9.95 -10.55 -11.25 -11.65 -12.3 -17.0 -12.25 -17.25 -12.15 -26.45 -12.2 -26.95 -12.35 Q-26.95 -12.65 -26.45 -12.8 L-19.7 -12.85 -17.35 -13.05 -14.5 -13.05 -14.4 -13.05 -11.95 -13.05 -4.65 -12.95 -3.65 -12.8 -3.6 -13.05 -3.6 -13.2 -2.55 -13.2 -2.65 -13.25 Q-4.75 -14.05 -6.95 -15.7 L-10.1 -17.75 -10.4 -18.15 Q-9.0 -18.0 -7.35 -16.7 L-4.0 -14.35 Q-1.9 -13.3 0.35 -11.85 L3.9 -9.45 3.95 -9.5 3.2 -10.6 2.45 -11.75 1.35 -12.65 0.6 -13.6 -0.4 -15.65 -1.35 -17.7 -1.35 -17.85 Q-0.45 -17.4 0.5 -16.0 L1.7 -14.05 1.7 -14.0 1.8 -13.95 2.0 -13.6 2.4 -14.15 3.55 -15.85 M20.6 -3.2 L21.0 -3.55 23.8 -6.65 Q26.5 -9.95 27.4 -12.35 L27.9 -12.3 27.9 -11.4 Q26.6 -8.75 23.6 -5.2 L23.45 -5.1 22.95 -4.5 24.65 -4.7 28.5 -4.9 33.35 -5.4 36.15 -5.75 36.15 -4.9 35.95 -4.7 34.0 -4.3 26.35 -3.9 23.4 -3.55 22.25 -3.55 22.1 -3.55 21.45 -2.85 20.15 -2.7 20.6 -3.2 M-38.6 -1.55 L-38.25 -1.6 -38.8 -3.95 -39.4 -6.95 Q-39.4 -7.45 -39.25 -7.35 L-38.45 -7.3 -37.85 -5.8 -37.9 -5.25 -37.85 -4.8 -37.55 -4.75 -37.5 -4.55 -37.45 -4.3 -37.2 -5.0 -37.2 -5.05 -36.8 -6.3 -36.85 -6.6 -36.7 -6.55 -36.35 -8.0 Q-36.0 -9.15 -35.5 -9.15 L-35.45 -8.9 -36.35 -6.55 -34.5 -1.85 -34.5 -1.55 -32.9 -1.55 -30.5 -1.1 -30.35 -0.85 -31.15 -0.25 -31.15 -0.4 -33.35 -0.25 -38.0 -0.5 -38.1 -0.85 -43.85 1.35 -44.75 1.3 Q-44.95 1.05 -44.35 0.45 L-43.55 0.25 -43.55 0.3 -42.85 0.35 -38.65 -1.4 -38.6 -1.55 M-35.55 -2.3 L-36.1 -3.75 -36.65 -5.5 -37.25 -3.35 -36.95 -2.0 -36.95 -1.55 -36.1 -1.5 -35.8 -1.6 -35.3 -1.55 -35.35 -1.65 -34.9 -1.7 -34.9 -2.25 -35.55 -2.3" fill="#990000" fill-rule="evenodd" stroke="none"/>
    <path d="M1.7 -14.05 L1.7 -14.3 Q1.7 -14.75 2.35 -15.3 3.0 -15.9 3.55 -15.9 L3.55 -15.85 2.4 -14.15 2.2 -13.9 1.8 -13.95 1.7 -14.0 1.7 -14.05 M-14.5 -13.05 L-22.3 -13.0 -22.85 -13.1 -22.85 -13.6 -18.65 -13.7 -18.65 -13.8 -4.05 -13.55 Q-4.05 -13.45 -3.65 -13.35 L-3.6 -13.2 -3.6 -13.05 -3.65 -12.8 -4.65 -12.95 -11.95 -13.05 -14.4 -13.05 -14.5 -13.05 M6.45 -8.4 L6.45 -8.2 6.1 -7.15 5.0 -7.15 5.2 -7.55 5.95 -8.45 5.75 -8.45 4.3 -10.85 Q3.35 -12.55 3.25 -13.5 L5.3 -11.15 6.55 -8.65 6.55 -8.4 6.45 -8.4 M2.05 -11.45 L1.35 -11.5 Q1.05 -12.1 -2.25 -13.75 -5.45 -15.4 -5.75 -16.05 L-1.15 -13.7 2.05 -11.9 2.05 -11.45 M20.6 -3.2 L20.05 -2.7 18.65 -2.55 19.8 -3.4 Q21.4 -4.5 23.15 -7.0 25.05 -9.75 25.5 -10.15 25.0 -8.45 23.8 -6.65 L21.0 -3.55 20.6 -3.2 M23.6 -5.2 L24.1 -5.35 26.2 -5.7 29.3 -5.7 Q31.3 -5.6 31.9 -6.25 33.25 -6.4 33.5 -6.65 L34.4 -6.6 34.4 -6.05 32.3 -5.45 30.35 -5.4 28.3 -5.25 25.05 -4.9 24.15 -4.9 23.6 -5.0 23.45 -5.1 23.6 -5.2 M-43.55 0.25 Q-43.5 -0.35 -42.75 -1.35 L-41.15 -2.8 -40.75 -2.75 Q-40.9 -2.4 -41.6 -1.5 L-42.6 -0.4 Q-41.9 -0.6 -40.9 -1.1 L-39.05 -2.0 -38.45 -1.95 -38.6 -1.55 -38.65 -1.4 -42.85 0.35 -43.55 0.3 -43.55 0.25 M-37.85 -5.8 L-37.7 -6.4 -37.2 -6.35 -37.2 -5.05 -37.2 -5.0 -37.45 -4.75 -37.55 -4.75 -37.85 -4.8 -37.9 -5.25 -37.85 -5.8 M-36.95 -2.0 L-37.2 -3.3 -36.65 -3.25 -36.6 -2.4 -35.55 -2.3 -34.9 -2.25 -34.9 -1.7 -35.35 -1.65 -35.8 -1.6 -36.1 -1.5 -36.95 -1.55 -36.95 -2.0" fill="#ffc1c1" fill-rule="evenodd" stroke="none"/>
  </g>
</svg>
