<?xml version="1.0" encoding="UTF-8" standalone="no"?>
<svg xmlns:xlink="http://www.w3.org/1999/xlink" height="36.55px" width="95.8px" xmlns="http://www.w3.org/2000/svg">
  <g transform="matrix(1.0, 0.0, 0.0, 1.0, 49.35, 18.15)">
    <path d="M4.65 -5.45 L6.7 -3.5 Q11.75 -10.5 15.6 -14.45 L16.3 -14.4 16.3 -13.55 13.15 -10.2 21.75 -12.45 22.45 -12.4 22.45 -11.55 17.3 -10.35 Q16.6 -9.95 16.6 -7.55 L17.1 -2.0 17.05 -1.3 16.95 -0.8 16.5 -0.8 16.65 -2.0 16.2 -6.0 Q15.9 -8.5 16.3 -10.0 L16.3 -10.15 12.6 -9.3 12.35 -9.3 11.65 -8.45 7.25 -3.05 7.15 -3.05 11.0 1.0 11.85 1.75 12.45 2.4 13.25 3.85 20.6 -3.2 21.0 -3.55 23.8 -6.65 Q26.5 -9.95 27.4 -12.35 L27.9 -12.3 27.9 -11.4 Q26.6 -8.75 23.6 -5.2 L23.45 -5.1 22.95 -4.5 24.65 -4.7 28.5 -4.9 33.35 -5.4 36.15 -5.75 36.15 -4.9 35.95 -4.7 34.0 -4.3 26.35 -3.9 23.4 -3.55 22.25 -3.55 22.1 -3.55 18.6 0.0 18.7 0.0 18.35 3.1 Q18.2 4.9 18.6 6.15 L18.6 6.25 19.45 6.45 22.3 7.25 22.45 7.05 22.75 7.05 Q22.7 6.7 23.6 5.7 L24.7 4.55 25.45 4.45 39.1 3.3 40.65 3.25 42.8 3.25 42.8 3.85 37.85 4.45 31.95 5.25 26.75 18.35 25.95 18.3 Q26.15 17.45 27.2 15.2 L28.5 11.9 29.05 10.25 30.55 6.8 30.4 6.8 31.1 5.05 30.8 5.0 25.35 5.5 22.1 9.3 Q20.15 11.5 17.65 13.0 L17.5 13.0 18.65 15.2 19.65 16.7 20.4 18.3 20.4 18.35 19.8 18.3 Q17.7 16.7 15.05 10.8 L13.05 6.8 11.15 3.3 1.75 9.65 Q1.75 10.7 2.75 13.7 L3.75 16.95 3.75 17.1 3.2 17.1 3.05 16.55 1.95 13.25 1.85 13.0 1.05 10.1 0.85 10.1 0.7 9.65 -4.05 10.4 -5.55 10.4 Q-5.85 11.2 -6.25 11.65 -6.65 12.1 -6.65 12.85 -6.65 13.2 -8.25 15.05 L-8.85 16.15 -9.5 17.05 -9.9 17.0 -9.4 15.4 -8.6 13.8 -8.55 13.75 -10.2 13.9 Q-11.0 14.0 -11.45 14.45 L-12.35 14.55 Q-11.6 13.65 -10.3 13.4 L-8.15 13.0 -7.05 11.3 -6.4 10.0 -7.2 9.0 Q-7.85 8.3 -8.1 8.3 L-8.45 8.35 Q-10.2 8.9 -11.8 10.3 L-12.6 10.25 -11.9 9.75 -11.6 9.75 -9.7 8.35 -8.3 7.3 -7.75 7.3 Q-6.85 7.75 -5.85 9.4 L-5.95 9.45 -5.9 9.75 -5.05 9.8 -4.7 9.65 -3.35 9.5 -3.35 9.25 -3.2 9.25 -3.2 8.4 -3.35 8.4 -3.65 4.05 -4.05 1.1 -4.0 -0.35 Q-4.0 -1.35 -4.4 -1.75 L-5.0 -2.3 -5.15 -2.55 -5.25 -2.55 -5.55 -2.85 -5.75 -3.1 -7.0 -1.15 -9.4 1.9 -14.35 3.8 -14.75 10.05 -14.55 13.05 Q-14.55 14.85 -15.9 15.85 -15.3 17.4 -14.6 17.85 L-14.6 18.3 -15.3 18.25 -16.3 16.35 Q-17.15 16.65 -17.95 17.3 L-19.2 18.4 -20.1 18.35 Q-20.2 17.8 -19.6 17.25 L-18.35 16.25 -18.2 16.1 -21.15 16.95 Q-22.95 17.6 -23.2 17.95 L-23.8 17.9 Q-24.5 16.25 -15.8 14.55 -15.3 13.4 -15.3 10.7 L-15.15 6.45 -15.15 4.2 -15.3 4.1 Q-17.25 4.7 -19.05 5.75 L-20.75 6.95 -21.2 7.35 -21.55 7.35 -21.7 7.3 -19.7 10.05 -19.7 10.2 -20.35 10.15 -22.6 7.9 -22.55 9.55 -24.15 9.9 -24.35 9.9 -24.35 9.95 -24.9 10.25 -25.35 11.25 -25.65 11.2 -25.7 10.9 -25.25 9.85 -23.95 9.2 -24.2 6.25 -25.55 4.85 -25.8 4.65 -26.45 4.6 -26.35 4.35 -26.5 4.3 -30.8 3.8 -31.9 3.7 -31.9 2.55 -31.4 1.5 -31.1 0.35 -31.15 -0.4 -33.35 -0.25 -38.0 -0.5 -38.1 -0.85 -43.85 1.35 -44.75 1.3 Q-44.95 1.05 -44.35 0.45 L-43.55 0.25 -43.55 0.3 -42.85 0.35 -38.65 -1.4 -38.6 -1.55 -38.25 -1.6 -38.8 -3.95 -39.4 -6.95 Q-39.4 -7.45 -39.25 -7.35 L-38.45 -7.3 -37.85 -5.8 -37.9 -5.25 -37.85 -4.8 -37.55 -4.75 -37.5 -4.55 -37.45 -4.3 -37.2 -5.0 -37.2 -5.05 -36.8 -6.3 -36.85 -6.6 -36.7 -6.55 -36.35 -8.0 Q-36.0 -9.15 -35.5 -9.15 L-35.45 -8.9 -36.35 -6.55 -34.5 -1.85 -34.5 -1.55 -32.9 -1.55 -30.5 -1.1 Q-30.35 -0.95 -30.35 -0.5 L-30.75 1.05 -29.4 1.5 -27.1 2.4 -26.3 2.95 -25.8 3.35 -25.75 3.35 -25.75 3.55 -25.85 3.65 -25.65 3.65 -25.25 3.45 -24.0 3.05 -23.7 3.1 -23.6 2.65 -20.1 3.3 Q-20.25 3.75 -20.5 3.85 L-22.75 3.5 -23.15 4.5 -23.8 5.15 -21.75 7.25 -21.7 7.2 -21.2 6.6 -20.6 5.95 -19.65 4.85 -10.0 1.2 -7.6 -1.6 Q-6.45 -3.1 -6.2 -4.0 L-6.25 -4.4 -6.25 -7.25 Q-6.25 -8.15 -7.15 -8.9 L-8.65 -9.95 -10.55 -11.25 -11.65 -12.3 -17.0 -12.25 -17.25 -12.15 -26.45 -12.2 -26.95 -12.35 Q-26.95 -12.65 -26.45 -12.8 L-19.7 -12.85 -17.35 -13.05 -14.5 -13.05 -14.4 -13.05 -11.95 -13.05 -4.65 -12.95 -3.65 -12.8 -3.6 -13.05 -3.6 -13.2 -2.55 -13.2 -2.65 -13.25 Q-4.75 -14.05 -6.95 -15.7 L-10.1 -17.75 -10.4 -18.15 Q-9.0 -18.0 -7.35 -16.7 L-4.0 -14.35 Q-1.9 -13.3 0.35 -11.85 L3.9 -9.45 3.95 -9.5 3.2 -10.6 2.45 -11.75 1.35 -12.65 0.6 -13.6 -0.4 -15.65 -1.35 -17.7 -1.35 -17.85 Q-0.45 -17.4 0.5 -16.0 L1.7 -14.05 1.7 -14.0 1.8 -13.95 2.0 -13.6 2.4 -14.15 3.55 -15.85 4.0 -16.85 4.5 -16.85 Q4.5 -16.0 3.6 -14.5 L2.65 -12.9 5.3 -8.75 4.6 -6.45 4.5 -6.3 4.5 -6.1 4.4 -5.65 4.5 -5.55 4.5 -5.45 4.65 -5.45 M5.6 6.35 L6.3 5.9 9.45 3.75 10.65 2.45 Q9.0 0.15 7.3 -1.45 L5.25 -3.4 3.45 -5.3 3.95 -6.75 4.4 -8.45 -1.85 -12.75 -1.85 -12.65 -3.25 -12.4 -11.2 -12.3 -8.2 -10.3 -6.85 -9.35 Q-6.0 -8.65 -5.9 -8.0 L-6.0 -5.5 -5.7 -4.2 -5.45 -4.2 -5.5 -3.8 -4.65 -2.8 Q-3.35 -1.75 -3.25 -0.4 L-3.25 2.05 -3.15 3.35 -0.2 6.05 Q1.35 7.65 1.6 8.65 L2.3 8.4 2.5 8.3 3.8 7.5 5.6 6.35 M44.95 9.55 L45.95 8.65 46.45 8.7 Q45.8 9.8 43.75 11.65 L40.95 14.15 39.35 13.2 Q38.25 12.4 36.7 12.4 L33.6 14.4 33.2 14.25 32.85 14.0 32.55 13.65 32.5 13.4 32.85 13.65 Q33.1 13.85 33.4 13.85 33.9 13.85 34.75 13.1 L35.85 11.7 36.75 11.7 39.1 12.65 39.1 9.3 37.2 9.15 36.7 8.85 36.9 8.45 39.6 8.5 39.6 12.85 40.6 13.15 41.05 12.9 41.25 12.9 Q44.85 10.2 44.95 9.55 M21.05 7.9 L21.05 7.85 21.0 7.85 14.55 6.1 15.4 8.05 16.85 11.65 17.15 12.25 18.3 11.1 20.9 8.85 21.6 8.05 21.05 7.9 M18.1 0.5 L13.65 4.6 14.05 5.2 17.9 6.05 17.8 3.85 Q17.8 2.45 18.1 0.5 M-17.15 -2.75 L-16.95 -2.05 -17.0 -1.95 -17.7 -2.15 -18.7 -2.35 -20.4 -2.45 -20.15 -5.4 -20.15 -6.3 -25.65 -6.7 -29.85 -7.6 -29.85 -9.35 Q-29.35 -10.85 -29.25 -12.7 L-28.5 -12.65 -28.5 -11.15 -29.05 -8.4 -28.4 -8.25 -28.4 -8.2 -25.0 -7.35 -20.85 -6.6 -19.5 -6.4 -19.15 -6.4 -19.15 -6.2 -19.6 -4.25 -19.6 -3.2 -19.2 -3.15 -19.15 -2.95 -17.15 -2.75 M-35.55 -2.3 L-36.1 -3.75 -36.65 -5.5 -37.25 -3.35 -36.95 -2.0 -36.95 -1.55 -36.1 -1.5 -35.8 -1.6 -35.3 -1.55 -35.35 -1.65 -34.9 -1.7 -34.9 -2.25 -35.55 -2.3 M-0.95 7.6 L-0.65 7.05 -1.4 6.25 Q-2.6 4.95 -3.1 3.8 L-2.85 7.15 -2.9 9.45 -1.45 9.25 -0.95 7.6 M-1.05 9.2 L0.9 8.85 -0.4 7.35 -1.05 9.2 M-24.1 4.0 L-24.8 4.25 -24.4 4.6 -24.1 4.0 M-30.25 2.1 L-30.25 1.85 -30.65 1.8 -30.65 1.85 -30.9 1.55 -31.5 3.3 -30.3 3.5 -26.45 3.65 -26.95 3.6 -27.4 3.25 -27.6 2.85 -30.05 2.2 -30.25 2.1 M-23.7 6.8 L-23.5 8.75 -23.5 9.05 Q-22.85 8.75 -22.9 8.1 L-22.85 7.65 -23.7 6.8 M-35.15 11.65 L-35.15 11.1 -40.2 11.15 Q-41.45 14.85 -41.5 15.7 L-43.25 15.7 -45.45 15.35 -49.3 15.15 -49.35 14.25 -44.95 14.5 -43.65 14.75 -43.3 14.9 -42.05 14.9 -41.3 12.85 -41.1 10.8 -40.9 10.4 -40.15 10.15 -39.15 10.3 -34.45 10.4 -34.25 11.55 -33.95 12.55 -30.8 12.45 -30.5 12.6 Q-30.5 12.85 -30.8 12.9 L-30.8 12.95 Q-33.25 13.05 -33.6 13.4 L-34.35 13.35 -34.6 13.15 -34.7 12.7 -35.15 11.65" fill="#990000" fill-rule="evenodd" stroke="none"/>
    <path d="M17.05 -1.3 L19.8 -3.4 Q21.4 -4.5 23.15 -7.0 25.05 -9.75 25.5 -10.15 25.0 -8.45 23.8 -6.65 L21.0 -3.55 20.6 -3.2 13.5 3.15 12.9 3.1 Q14.45 1.05 16.5 -0.8 L16.95 -0.8 17.05 -1.3 M23.6 -5.2 L24.1 -5.35 26.2 -5.7 29.3 -5.7 Q31.3 -5.6 31.9 -6.25 33.25 -6.4 33.5 -6.65 L34.4 -6.6 34.4 -6.05 32.3 -5.45 30.35 -5.4 28.3 -5.25 25.05 -4.9 24.15 -4.9 23.6 -5.0 23.45 -5.1 23.6 -5.2 M22.45 7.05 L22.2 7.0 22.2 6.1 24.3 3.65 29.6 3.1 34.05 3.0 34.6 3.2 34.6 3.25 25.45 4.45 24.7 4.55 23.6 5.7 Q22.7 6.7 22.75 7.05 L22.45 7.05 M29.05 10.25 L28.3 12.0 Q26.9 15.35 25.5 17.15 L25.3 17.1 Q26.0 14.75 27.45 11.65 28.9 8.55 30.15 6.75 L30.4 6.8 30.55 6.8 29.05 10.25 M3.2 17.1 L3.2 17.2 Q2.4 16.9 1.9 15.6 L1.35 13.8 Q0.55 11.15 0.55 10.05 L0.85 10.1 1.05 10.1 1.85 13.0 2.0 13.45 3.05 16.55 3.2 17.1 M-11.9 9.75 L-12.15 9.7 -12.2 9.45 -10.3 7.75 -8.6 6.4 -7.8 6.45 -7.75 6.75 -8.3 7.3 -9.7 8.35 -11.6 9.75 -11.9 9.75 M-5.85 9.4 L-4.9 8.85 -3.9 8.35 -3.35 8.4 -3.2 8.4 -3.2 9.25 -3.35 9.25 -4.7 9.65 -5.05 9.8 -5.9 9.75 -5.95 9.45 -5.85 9.4 M-5.0 -2.3 L-4.05 -0.75 -4.45 5.4 -4.65 5.4 -4.75 -1.1 -5.45 -1.9 -7.05 0.6 -7.65 0.55 -6.75 -1.1 -5.75 -2.6 -5.25 -2.55 -5.15 -2.55 -5.0 -2.3 M-20.75 6.95 L-20.7 7.0 Q-18.9 8.5 -18.45 9.75 L-18.45 9.8 -21.35 7.5 -21.55 7.35 -21.2 7.35 -20.75 6.95 M-24.15 9.9 L-22.3 9.75 -22.25 9.25 -21.75 9.3 -21.7 9.75 -21.75 10.35 -23.85 10.45 Q-24.1 11.4 -25.1 11.65 L-25.15 11.25 -24.75 10.75 -24.35 9.95 -24.35 9.9 -24.15 9.9 M-43.55 0.25 Q-43.5 -0.35 -42.75 -1.35 L-41.15 -2.8 -40.75 -2.75 Q-40.9 -2.4 -41.6 -1.5 L-42.6 -0.4 Q-41.9 -0.6 -40.9 -1.1 L-39.05 -2.0 -38.45 -1.95 -38.6 -1.55 -38.65 -1.4 -42.85 0.35 -43.55 0.3 -43.55 0.25 M-37.85 -5.8 L-37.7 -6.4 -37.2 -6.35 -37.2 -5.05 -37.2 -5.0 -37.45 -4.75 -37.55 -4.75 -37.85 -4.8 -37.9 -5.25 -37.85 -5.8 M-26.3 2.95 L-26.55 2.7 -27.0 2.15 -28.45 1.65 Q-28.85 1.35 -29.8 1.2 L-29.85 0.9 Q-29.85 0.8 -29.7 0.8 L-29.7 0.75 -27.95 1.15 -26.5 1.6 -25.45 2.75 -23.35 1.95 -22.05 2.2 -19.3 2.55 -19.35 3.1 -22.9 2.5 -23.9 2.6 Q-24.35 2.75 -24.85 3.2 L-25.25 3.2 -25.25 3.4 -25.75 3.35 -25.8 3.35 -26.3 2.95 M-21.7 7.2 Q-23.0 6.0 -23.0 5.05 L-22.7 4.4 Q-22.4 4.1 -22.45 3.9 L-21.95 3.95 -22.15 4.7 -22.4 5.45 -21.2 6.6 -21.7 7.2 M-14.5 -13.05 L-22.3 -13.0 -22.85 -13.1 -22.85 -13.6 -18.65 -13.7 -18.65 -13.8 -4.05 -13.55 Q-4.05 -13.45 -3.65 -13.35 L-3.6 -13.2 -3.6 -13.05 -3.65 -12.8 -4.65 -12.95 -11.95 -13.05 -14.4 -13.05 -14.5 -13.05 M1.7 -14.05 L1.7 -14.3 Q1.7 -14.75 2.35 -15.3 3.0 -15.9 3.55 -15.9 L3.55 -15.85 2.4 -14.15 2.2 -13.9 1.8 -13.95 1.7 -14.0 1.7 -14.05 M4.6 -6.45 L5.2 -7.55 5.95 -8.45 5.75 -8.45 4.3 -10.85 Q3.35 -12.55 3.25 -13.5 L5.3 -11.15 6.55 -8.65 6.55 -8.4 6.45 -8.4 6.45 -8.2 5.95 -6.85 5.4 -5.6 5.2 -5.4 4.65 -5.45 4.5 -5.45 4.5 -5.55 4.5 -6.1 4.5 -6.3 4.6 -6.45 M2.05 -11.45 L1.35 -11.5 Q1.05 -12.1 -2.25 -13.75 -5.45 -15.4 -5.75 -16.05 L-1.15 -13.7 2.05 -11.9 2.05 -11.45 M2.3 8.4 L1.7 8.35 0.75 6.2 Q0.2 5.2 -0.85 4.5 -2.75 3.25 -2.8 2.05 L-2.5 0.1 Q-2.5 -0.95 -3.9 -2.35 L-4.9 -3.3 Q-5.45 -3.95 -5.15 -4.55 L-4.35 -4.5 Q-1.95 -2.7 -1.7 -1.3 L-1.9 2.0 Q-1.1 2.5 -0.15 3.5 1.45 5.25 2.25 7.5 L6.2 4.5 9.05 2.05 9.75 2.1 9.85 2.65 Q9.85 3.2 6.9 5.4 L5.6 6.35 3.8 7.5 2.7 7.95 2.4 7.95 2.45 8.2 2.3 8.4 M41.05 12.9 L40.65 12.85 Q40.9 12.25 42.65 10.8 L44.85 9.2 44.9 9.15 44.95 9.5 44.95 9.55 Q44.85 10.2 41.25 12.9 L41.05 12.9 M36.35 10.7 Q37.1 11.25 38.7 11.45 L38.95 11.75 38.95 12.05 38.85 12.2 36.95 11.75 36.0 11.4 Q35.8 11.4 35.05 12.35 L34.2 13.4 33.05 13.35 32.55 12.9 32.55 12.45 33.55 12.65 34.55 11.7 Q35.55 10.8 35.85 10.65 L36.35 10.7 M21.0 7.85 L21.05 7.85 21.05 7.9 19.45 9.65 17.5 11.35 17.0 11.3 Q17.15 10.6 17.8 10.15 18.2 9.9 19.1 9.45 L20.25 8.45 Q20.75 7.95 21.0 7.85 M-28.4 -8.25 L-28.6 -9.1 -27.75 -11.5 -27.35 -11.45 -27.3 -11.15 -27.7 -9.95 -27.5 -9.05 -24.9 -8.2 -18.4 -7.5 -18.4 -6.4 -19.15 -6.4 -19.5 -6.4 -20.85 -6.6 -25.0 -7.35 -28.4 -8.2 -28.4 -8.25 M-19.2 -3.15 L-19.2 -3.4 -19.2 -3.8 -19.05 -3.85 -16.15 -3.6 -15.9 -2.9 -16.1 -2.7 -17.15 -2.75 -19.15 -2.95 -19.2 -3.15 M-36.95 -2.0 L-37.2 -3.3 -36.65 -3.25 -36.6 -2.4 -35.55 -2.3 -34.9 -2.25 -34.9 -1.7 -35.35 -1.65 -35.8 -1.6 -36.1 -1.5 -36.95 -1.55 -36.95 -2.0 M-7.05 10.9 L-7.5 11.9 -8.2 12.75 Q-9.9 12.9 -10.5 13.2 L-12.15 13.6 -12.0 13.15 -11.1 12.65 Q-10.2 12.25 -8.6 12.15 -7.35 10.9 -7.35 10.4 -7.05 10.5 -7.05 10.9 M-30.65 1.85 L-30.65 1.8 -30.25 1.85 -30.25 2.1 -30.45 2.65 -28.1 2.75 -27.9 2.95 -27.9 3.4 -28.6 3.25 -31.3 3.15 -31.0 2.35 -30.65 1.85 M-34.6 13.15 L-34.45 13.95 -34.45 14.0 -35.2 14.0 -35.9 12.05 -37.9 11.85 -39.55 11.8 -40.05 11.7 -40.25 11.5 -40.05 11.25 -37.2 11.35 -35.3 11.45 -35.15 11.65 -34.7 12.7 -34.6 13.15 M-43.65 14.75 L-44.1 14.65 -44.9 14.45 -46.7 14.2 Q-46.75 14.05 -47.05 14.0 L-47.05 13.4 -46.1 13.4 -43.9 13.85 -43.05 13.8 -41.85 10.4 -41.15 10.45 -41.1 10.75 -41.1 10.8 -41.3 12.85 -42.05 14.9 -43.3 14.9 -43.65 14.75" fill="#ffc1c1" fill-rule="evenodd" stroke="none"/>
  </g>
</svg>
