<?xml version="1.0" encoding="UTF-8" standalone="no"?>
<svg xmlns:xlink="http://www.w3.org/1999/xlink" height="45.35px" width="120.1px" xmlns="http://www.w3.org/2000/svg">
  <g transform="matrix(1.0, 0.0, 0.0, 1.0, -157.3, 159.0)">
    <path d="M157.3 -118.1 L157.3 -123.15 Q157.4 -125.25 157.75 -127.2 158.4 -131.6 160.3 -135.15 163.0 -140.5 168.25 -143.85 L181.05 -151.8 Q183.6 -153.2 192.25 -156.2 200.9 -159.25 221.55 -159.0 L231.8 -158.15 Q246.65 -155.9 259.75 -147.15 267.7 -141.85 272.1 -135.6 274.85 -131.6 276.2 -127.2 277.4 -123.2 277.4 -118.85 L277.2 -115.4 276.9 -113.7 231.0 -113.7 230.75 -113.95 229.5 -113.95 229.6 -113.7 224.75 -113.65 210.15 -113.7 210.0 -113.9 208.75 -113.9 208.8 -113.7 201.7 -113.7 196.45 -113.7 194.65 -113.7 170.8 -113.7 170.7 -113.75 157.3 -113.7 157.35 -115.25 157.3 -118.1" fill="url(#gradient0)" fill-rule="evenodd" stroke="none"/>
  </g>
  <defs>
    <linearGradient gradientTransform="matrix(0.0, -0.0556, 0.0733, 0.0, 221.25, -163.5)" gradientUnits="userSpaceOnUse" id="gradient0" spreadMethod="pad" x1="-819.2" x2="819.2">
      <stop offset="0.0" stop-color="#ffffff"/>
      <stop offset="1.0" stop-color="#ffffff" stop-opacity="0.0"/>
    </linearGradient>
  </defs>
</svg>
