<?xml version="1.0" encoding="UTF-8" standalone="no"?>
<svg xmlns:xlink="http://www.w3.org/1999/xlink" height="199.0px" width="199.0px" xmlns="http://www.w3.org/2000/svg">
  <g transform="matrix(1.0, 0.0, 0.0, 1.0, 99.5, 99.5)">
    <path d="M59.05 -68.25 Q59.05 -69.05 58.85 -69.25 L58.25 -69.5 57.0 -69.7 56.5 -69.35 Q56.3 -69.1 56.3 -68.25 56.3 -67.65 57.75 -66.5 L58.7 -67.65 59.05 -68.25 M54.45 -76.35 Q53.1 -75.9 51.95 -74.95 50.8 -74.05 50.8 -73.5 50.8 -72.6 52.0 -71.3 52.8 -70.45 53.85 -70.1 L52.5 -70.2 52.0 -69.95 Q51.8 -69.7 51.8 -68.9 51.8 -67.9 52.05 -67.35 52.65 -65.95 54.5 -65.95 L55.3 -66.1 55.5 -66.25 55.55 -68.4 55.5 -69.55 55.35 -69.9 56.0 -69.95 Q57.6 -70.65 57.95 -71.45 L58.05 -73.4 Q58.05 -77.5 54.45 -76.35 M48.05 -76.55 L48.55 -76.0 50.75 -76.0 51.8 -77.45 52.05 -78.15 52.0 -78.95 51.75 -79.0 48.5 -79.2 48.0 -78.85 47.8 -77.75 Q47.8 -76.95 48.05 -76.55 M42.5 -75.2 Q42.5 -75.0 41.8 -74.75 L42.5 -72.35 Q42.95 -71.05 44.05 -69.5 L45.55 -69.0 50.05 -69.0 50.05 -72.0 50.0 -73.95 Q49.8 -74.65 48.0 -75.2 L42.5 -75.2 M42.5 -87.2 L42.5 -86.95 38.5 -86.7 Q37.2 -86.25 36.4 -85.1 35.8 -84.2 35.8 -83.65 35.8 -82.8 36.45 -81.55 L37.75 -78.95 Q38.9 -76.15 39.45 -75.8 L43.5 -75.45 46.5 -75.95 46.8 -79.8 47.05 -82.75 45.95 -84.7 44.25 -87.0 42.5 -87.2 M45.45 -64.7 Q37.8 -70.3 29.25 -74.05 20.85 -77.8 11.8 -79.35 L-3.0 -79.9 -6.4 -79.55 Q-15.3 -78.55 -23.65 -75.75 -31.7 -72.95 -39.2 -69.15 -48.25 -64.6 -56.2 -58.5 -64.35 -52.25 -70.25 -44.1 -75.3 -36.95 -78.4 -28.95 -81.75 -20.35 -83.25 -11.0 -84.8 -1.7 -84.25 7.75 -83.75 17.15 -81.4 26.4 -79.75 36.1 -73.0 43.55 L-61.65 55.6 Q-55.7 61.8 -48.45 67.35 -41.2 72.85 -33.55 76.75 -25.95 80.6 -12.65 81.55 L7.25 80.95 22.4 77.3 Q30.95 75.2 39.45 71.65 47.75 68.15 54.75 62.5 61.75 56.85 66.85 49.4 72.3 41.7 75.7 33.1 79.05 24.65 80.35 15.6 81.6 6.3 80.85 -3.0 80.1 -12.25 77.3 -21.05 74.45 -29.85 69.85 -37.65 65.2 -45.55 59.0 -52.45 53.4 -58.8 46.4 -64.0 L45.45 -64.7 M80.0 -53.7 Q79.3 -53.35 79.3 -51.5 79.3 -48.9 80.45 -44.3 L83.05 -34.75 Q86.8 -20.1 86.8 -6.0 86.8 -0.15 86.25 4.8 L84.55 17.5 Q83.85 22.6 80.0 32.25 L76.3 41.5 Q76.3 42.25 76.55 42.55 L77.05 43.0 78.8 43.25 Q78.8 44.55 79.05 45.0 L80.5 45.05 Q83.85 41.6 87.15 35.6 L91.8 26.0 96.55 15.0 Q97.55 11.85 97.55 6.05 97.55 -1.05 96.0 -8.45 93.8 -17.5 92.5 -23.95 L90.6 -31.55 Q89.3 -36.0 88.05 -38.95 86.3 -44.0 85.15 -46.5 83.2 -50.85 80.0 -53.7 M76.25 -64.0 Q99.5 -36.8 99.5 0.0 99.5 41.2 70.35 70.35 41.2 99.5 0.0 99.5 -41.2 99.5 -70.35 70.35 -99.5 41.2 -99.5 0.0 -99.5 -41.2 -70.35 -70.35 -41.2 -99.5 0.0 -99.5 27.0 -99.5 48.8 -87.0 60.3 -80.4 70.35 -70.35 L76.25 -64.0 M25.3 -90.55 L17.05 -94.1 Q11.05 -96.65 4.75 -97.7 1.15 -98.1 -2.5 -97.8 -11.6 -97.55 -20.35 -95.0 L-22.4 -94.3 -33.05 -90.15 Q-43.5 -85.95 -53.0 -79.8 -58.85 -75.9 -64.15 -71.15 L-69.85 -66.2 Q-73.65 -62.9 -76.85 -58.9 -84.15 -49.85 -88.95 -39.5 -94.5 -27.6 -96.1 -14.5 -97.4 -3.95 -96.65 6.5 -95.95 15.8 -93.0 24.75 -91.15 34.5 -86.7 43.0 L-83.75 48.3 -78.95 55.65 Q-74.2 62.25 -69.0 68.5 -75.5 60.35 -80.05 51.15 -79.15 52.0 -77.9 52.0 -75.55 52.0 -73.0 50.8 -72.0 49.6 -71.95 49.3 L-73.2 47.6 -72.75 48.0 Q-72.45 47.55 -72.45 46.8 L-78.0 37.65 Q-80.95 32.45 -82.25 28.8 L-83.9 24.3 Q-84.7 21.75 -84.95 19.8 L-85.55 15.3 Q-86.05 12.75 -87.0 10.8 L-87.7 11.25 -87.75 12.25 -87.95 12.05 -87.95 11.3 -88.25 11.0 -89.2 11.05 -89.45 12.35 -89.7 13.65 Q-89.7 20.0 -83.55 32.15 L-84.15 32.4 Q-86.2 33.6 -86.2 35.25 -86.2 36.05 -85.8 36.45 L-84.95 37.0 -83.0 37.05 -81.65 35.9 -81.3 36.5 -83.1 38.25 Q-84.2 39.55 -84.2 40.5 -84.2 41.0 -83.1 41.9 L-80.95 43.5 -79.0 43.55 -78.55 43.55 -79.8 45.8 -81.15 48.95 -81.8 47.45 -81.3 47.25 -80.95 47.0 -80.95 44.0 -82.1 43.1 Q-82.75 42.75 -83.8 42.6 L-85.65 37.4 -86.4 35.1 Q-89.4 25.3 -90.5 15.0 -90.9 10.95 -90.55 6.95 -89.7 -2.1 -88.3 -10.95 -87.85 -13.9 -86.95 -16.65 L-82.8 -28.45 Q-80.95 -33.5 -78.05 -38.0 -73.5 -44.95 -67.65 -50.6 -65.5 -52.7 -63.65 -55.0 L-61.05 -57.55 -50.35 -65.85 Q-45.35 -69.7 -39.65 -72.5 -25.0 -79.75 -8.95 -82.1 3.4 -83.55 15.95 -81.8 20.5 -81.3 24.9 -80.1 L28.05 -79.55 28.9 -79.45 29.35 -80.25 34.25 -77.7 35.5 -77.75 36.7 -78.9 Q32.85 -85.0 27.35 -89.3 L25.3 -90.55 M81.8 46.8 Q81.8 47.55 82.05 48.0 L82.75 48.0 83.05 46.8 Q82.2 46.35 81.8 46.8 M76.55 49.3 L76.25 49.0 73.0 49.3 72.2 49.7 Q71.8 50.05 71.8 50.85 L72.05 52.0 Q72.85 53.1 75.5 53.05 L76.0 52.75 76.3 51.5 76.55 49.85 76.55 49.3 M77.5 44.3 L76.35 45.35 Q75.8 46.0 75.8 46.85 75.8 47.6 76.3 48.1 L77.05 49.0 78.75 49.0 79.05 48.55 79.05 46.3 Q78.85 45.6 77.5 44.3 M75.0 46.05 L74.75 46.0 Q71.8 45.6 71.8 47.35 71.8 48.1 72.05 48.25 L72.25 48.5 73.75 48.55 74.7 48.4 Q74.9 48.25 75.0 48.25 L75.05 46.85 75.0 46.05 M17.8 82.35 L18.05 83.0 Q19.25 83.05 19.55 83.5 L26.0 83.55 Q27.0 83.55 27.8 83.0 28.55 82.45 28.55 81.75 L28.0 80.2 27.25 79.0 26.0 78.8 22.5 80.0 Q19.45 81.05 18.55 81.5 L17.8 82.35 M-86.5 -2.7 L-86.45 -3.65 -86.45 -4.2 -86.75 -4.5 -87.7 -4.45 -87.45 -2.5 -86.5 -2.7 M72.0 53.6 Q71.3 53.85 71.3 54.65 71.3 55.45 71.55 55.55 L72.5 55.55 Q73.45 54.6 73.55 53.8 L73.25 53.5 72.0 53.6 M79.5 52.05 L80.05 51.5 Q80.05 50.3 79.75 50.0 L78.0 49.8 77.65 50.0 Q77.3 50.25 77.3 51.0 L77.35 51.8 77.55 52.0 79.5 52.05 M20.55 92.0 L23.0 92.05 23.55 91.8 23.55 89.55 Q23.45 89.0 22.25 88.5 L21.0 88.3 19.3 90.5 20.55 92.0 M24.55 93.8 L23.3 93.55 Q23.3 94.25 24.0 94.5 L24.55 93.8 M32.05 77.5 L31.85 77.45 31.8 78.15 Q31.8 79.4 32.05 79.0 L33.85 79.3 35.5 79.55 Q45.3 75.2 46.8 74.0 47.65 73.3 51.9 70.35 L57.0 66.8 65.15 59.95 Q71.05 54.5 71.05 52.35 L71.0 51.55 70.75 51.5 Q69.85 51.9 69.45 53.45 69.1 54.75 68.1 54.75 66.95 54.75 60.75 60.3 L54.55 66.0 Q53.7 66.4 44.0 71.8 36.05 76.15 32.05 77.5 M8.3 88.75 Q9.1 89.1 10.1 90.35 L11.55 92.5 13.0 92.55 13.55 92.1 14.6 91.55 14.5 91.65 14.3 92.75 Q14.3 93.45 14.45 93.7 14.8 94.4 16.25 94.5 L16.55 93.75 16.25 92.7 15.0 91.3 14.8 91.4 15.0 90.95 15.05 89.75 Q15.05 87.05 13.25 86.0 11.1 84.7 8.3 88.75 M8.9 92.2 L9.05 92.05 8.05 90.8 Q5.55 86.75 4.2 85.9 L1.95 87.95 Q-1.7 90.8 -1.7 91.6 -1.7 92.05 1.55 96.5 L3.75 96.5 4.45 96.0 4.75 96.0 4.9 95.75 Q5.7 95.25 7.1 94.5 L7.8 94.05 8.55 96.0 13.05 96.0 Q13.05 95.0 12.25 93.0 L10.0 92.8 8.8 93.3 8.65 93.4 9.05 92.5 8.9 92.2 M-77.3 42.9 L-77.95 42.8 -77.95 42.0 -77.3 42.9 M-87.75 2.5 L-88.7 2.5 -88.95 5.6 -89.2 8.1 Q-89.2 8.5 -88.0 9.55 -86.95 7.55 -86.95 5.8 -86.95 5.05 -87.25 4.1 L-87.75 2.5 M-6.15 97.3 L-5.95 97.5 -1.0 97.55 -0.3 97.15 Q0.05 96.8 0.05 96.0 0.05 95.15 -2.5 92.3 L-4.4 93.95 Q-6.2 95.7 -6.2 96.5 L-6.15 97.3 M-11.2 90.05 L-10.95 92.0 -10.0 91.8 -9.95 90.85 -9.95 90.3 -10.25 90.0 -11.2 90.05 M-19.45 84.5 L-19.65 84.45 -19.7 85.15 -17.45 89.0 -16.0 89.05 Q-14.65 88.45 -14.2 87.4 -13.95 86.85 -13.95 85.75 L-14.0 84.65 Q-14.25 84.0 -15.25 83.5 L-16.5 83.3 -19.45 84.5 M-1.75 86.5 Q-4.3 86.35 -5.45 86.5 L-7.45 87.0 -8.35 87.8 Q-8.7 88.2 -8.7 89.0 L-7.05 91.35 -8.15 92.3 -9.7 94.0 Q-8.95 94.2 -8.65 95.15 -8.45 95.85 -6.5 95.55 -5.45 94.1 -5.45 92.9 L-5.5 91.85 -5.7 91.55 -4.5 91.55 -2.55 89.65 -0.45 87.8 -1.75 86.5 M-8.95 84.65 Q-8.95 83.85 -9.1 83.85 L-9.25 84.0 -12.0 83.8 -12.5 84.05 Q-12.7 84.3 -12.7 85.1 L-12.65 86.1 -12.45 86.5 -10.5 86.55 -9.65 85.75 Q-8.95 85.1 -8.95 84.65 M-20.95 83.3 L-22.95 82.8 -22.95 82.3 -29.95 80.0 Q-33.75 78.6 -34.7 78.55 L-34.7 78.7 Q-37.65 77.55 -38.5 77.3 L-39.0 77.35 Q-39.2 77.4 -39.2 78.15 -39.2 79.4 -38.95 79.0 -36.65 79.65 -32.05 81.7 -27.7 83.7 -24.45 84.5 L-21.25 84.5 Q-20.95 84.05 -20.95 83.3 M-28.0 85.8 Q-28.0 86.0 -28.7 86.3 L-28.7 89.0 -26.8 89.3 -25.5 89.55 Q-25.1 89.45 -25.05 89.35 L-24.95 88.35 Q-25.25 87.5 -26.75 86.0 L-28.0 85.8 M-69.5 51.05 Q-69.25 51.0 -68.95 50.55 -69.2 48.05 -71.2 48.05 L-71.2 50.25 -70.55 50.75 -69.5 51.05 M-63.9 55.25 Q-64.1 54.65 -64.25 54.5 L-65.5 54.3 -66.45 55.2 -66.45 54.8 Q-67.65 54.25 -67.85 53.4 L-68.25 51.5 -72.0 51.3 -72.75 51.7 Q-73.2 52.05 -73.2 52.85 L-72.3 54.15 -70.95 55.5 Q-69.7 55.75 -69.45 56.0 L-66.65 56.0 -66.7 56.35 -66.45 57.25 -65.95 57.5 Q-65.2 57.75 -63.45 56.3 L-63.9 55.25 M-45.1 71.5 Q-49.8 68.7 -51.2 67.5 -59.0 60.8 -60.95 60.0 L-61.2 60.55 Q-55.05 67.55 -52.75 69.6 -45.05 76.5 -38.65 76.5 -37.4 76.5 -37.95 76.05 L-38.0 75.75 Q-38.3 75.55 -45.1 71.5" fill="#8d070b" fill-rule="evenodd" stroke="none"/>
    <path d="M42.5 -87.2 L44.25 -87.0 45.95 -84.7 47.05 -82.75 46.8 -79.8 46.5 -75.95 43.5 -75.45 39.45 -75.8 Q38.9 -76.15 37.75 -78.95 L36.45 -81.55 Q35.8 -82.8 35.8 -83.65 35.8 -84.2 36.4 -85.1 37.2 -86.25 38.5 -86.7 L42.5 -86.95 42.5 -87.2 M42.5 -75.2 L48.0 -75.2 Q49.8 -74.65 50.0 -73.95 L50.05 -72.0 50.05 -69.0 45.55 -69.0 44.05 -69.5 Q42.95 -71.05 42.5 -72.35 L41.8 -74.75 Q42.5 -75.0 42.5 -75.2 M48.05 -76.55 Q47.8 -76.95 47.8 -77.75 L48.0 -78.85 48.5 -79.2 51.75 -79.0 52.0 -78.95 52.05 -78.15 51.8 -77.45 50.75 -76.0 48.55 -76.0 48.05 -76.55 M54.45 -76.35 Q58.05 -77.5 58.05 -73.4 L57.95 -71.45 Q57.6 -70.65 56.0 -69.95 L55.35 -69.9 55.5 -69.55 55.55 -68.4 55.5 -66.25 55.3 -66.1 54.5 -65.95 Q52.65 -65.95 52.05 -67.35 51.8 -67.9 51.8 -68.9 51.8 -69.7 52.0 -69.95 L52.5 -70.2 53.85 -70.1 Q52.8 -70.45 52.0 -71.3 50.8 -72.6 50.8 -73.5 50.8 -74.05 51.95 -74.95 53.1 -75.9 54.45 -76.35 M59.05 -68.25 L58.7 -67.65 57.75 -66.5 Q56.3 -67.65 56.3 -68.25 56.3 -69.1 56.5 -69.35 L57.0 -69.7 58.25 -69.5 58.85 -69.25 Q59.05 -69.05 59.05 -68.25 M80.0 -53.7 Q83.2 -50.85 85.15 -46.5 86.3 -44.0 88.05 -38.95 89.3 -36.0 90.6 -31.55 L92.5 -23.95 Q93.8 -17.5 96.0 -8.45 97.55 -1.05 97.55 6.05 97.55 11.85 96.55 15.0 L91.8 26.0 87.15 35.6 Q83.85 41.6 80.5 45.05 L79.05 45.0 Q78.8 44.55 78.8 43.25 L77.05 43.0 76.55 42.55 Q76.3 42.25 76.3 41.5 L80.0 32.25 Q83.85 22.6 84.55 17.5 L86.25 4.8 Q86.8 -0.15 86.8 -6.0 86.8 -20.1 83.05 -34.75 L80.45 -44.3 Q79.3 -48.9 79.3 -51.5 79.3 -53.35 80.0 -53.7 M25.3 -90.55 L27.35 -89.3 Q32.85 -85.0 36.7 -78.9 L35.5 -77.75 34.25 -77.7 29.35 -80.25 28.9 -79.45 28.05 -79.55 24.9 -80.1 Q20.5 -81.3 15.95 -81.8 3.4 -83.55 -8.95 -82.1 -25.0 -79.75 -39.65 -72.5 -45.35 -69.7 -50.35 -65.85 L-61.05 -57.55 -63.65 -55.0 Q-65.5 -52.7 -67.65 -50.6 -73.5 -44.95 -78.05 -38.0 -80.95 -33.5 -82.8 -28.45 L-86.95 -16.65 Q-87.85 -13.9 -88.3 -10.95 -89.7 -2.1 -90.55 6.95 -90.9 10.95 -90.5 15.0 -89.4 25.3 -86.4 35.1 L-85.65 37.4 -83.8 42.6 Q-82.75 42.75 -82.1 43.1 L-80.95 44.0 -80.95 47.0 -81.3 47.25 -81.8 47.45 -81.15 48.95 -79.8 45.8 -78.55 43.55 -79.0 43.55 -80.95 43.5 -83.1 41.9 Q-84.2 41.0 -84.2 40.5 -84.2 39.55 -83.1 38.25 L-81.3 36.5 -81.65 35.9 -83.0 37.05 -84.95 37.0 -85.8 36.45 Q-86.2 36.05 -86.2 35.25 -86.2 33.6 -84.15 32.4 L-83.55 32.15 Q-89.7 20.0 -89.7 13.65 L-89.45 12.35 -89.2 11.05 -88.25 11.0 -87.95 11.3 -87.95 12.05 -87.75 12.25 -87.7 11.25 -87.0 10.8 Q-86.05 12.75 -85.55 15.3 L-84.95 19.8 Q-84.7 21.75 -83.9 24.3 L-82.25 28.8 Q-80.95 32.45 -78.0 37.65 L-72.45 46.8 Q-72.45 47.55 -72.75 48.0 L-73.2 47.6 -71.95 49.3 Q-72.0 49.6 -73.0 50.8 -75.55 52.0 -77.9 52.0 -79.15 52.0 -80.05 51.15 -75.5 60.35 -69.0 68.5 -74.2 62.25 -78.95 55.65 L-83.75 48.3 -86.7 43.0 Q-91.15 34.5 -93.0 24.75 -95.95 15.8 -96.65 6.5 -97.4 -3.95 -96.1 -14.5 -94.5 -27.6 -88.95 -39.5 -84.15 -49.85 -76.85 -58.9 -73.65 -62.9 -69.85 -66.2 L-64.15 -71.15 Q-58.85 -75.9 -53.0 -79.8 -43.5 -85.95 -33.05 -90.15 L-22.4 -94.3 -20.35 -95.0 Q-11.6 -97.55 -2.5 -97.8 1.15 -98.1 4.75 -97.7 11.05 -96.65 17.05 -94.1 L25.3 -90.55 M81.8 46.8 Q82.2 46.35 83.05 46.8 L82.75 48.0 82.05 48.0 Q81.8 47.55 81.8 46.8 M75.0 46.05 L75.05 46.85 75.0 48.25 Q74.9 48.25 74.7 48.4 L73.75 48.55 72.25 48.5 72.05 48.25 Q71.8 48.1 71.8 47.35 71.8 45.6 74.75 46.0 L75.0 46.05 M77.5 44.3 Q78.85 45.6 79.05 46.3 L79.05 48.55 78.75 49.0 77.05 49.0 76.3 48.1 Q75.8 47.6 75.8 46.85 75.8 46.0 76.35 45.35 L77.5 44.3 M76.55 49.3 L76.55 49.85 76.3 51.5 76.0 52.75 75.5 53.05 Q72.85 53.1 72.05 52.0 L71.8 50.85 Q71.8 50.05 72.2 49.7 L73.0 49.3 76.25 49.0 76.55 49.3 M17.8 82.35 L18.55 81.5 Q19.45 81.05 22.5 80.0 L26.0 78.8 27.25 79.0 28.0 80.2 28.55 81.75 Q28.55 82.45 27.8 83.0 27.0 83.55 26.0 83.55 L19.55 83.5 Q19.25 83.05 18.05 83.0 L17.8 82.35 M8.9 92.2 L9.05 92.5 8.65 93.4 8.8 93.3 10.0 92.8 12.25 93.0 Q13.05 95.0 13.05 96.0 L8.55 96.0 7.8 94.05 7.1 94.5 Q5.7 95.25 4.9 95.75 L4.75 96.0 4.45 96.0 3.75 96.5 1.55 96.5 Q-1.7 92.05 -1.7 91.6 -1.7 90.8 1.95 87.95 L4.2 85.9 Q5.55 86.75 8.05 90.8 L9.05 92.05 8.9 92.2 M8.3 88.75 Q11.1 84.7 13.25 86.0 15.05 87.05 15.05 89.75 L15.0 90.95 14.8 91.4 15.0 91.3 16.25 92.7 16.55 93.75 16.25 94.5 Q14.8 94.4 14.45 93.7 14.3 93.45 14.3 92.75 L14.5 91.65 14.6 91.55 13.55 92.1 13.0 92.55 11.55 92.5 10.1 90.35 Q9.1 89.1 8.3 88.75 M32.05 77.5 Q36.05 76.15 44.0 71.8 53.7 66.4 54.55 66.0 L60.75 60.3 Q66.95 54.75 68.1 54.75 69.1 54.75 69.45 53.45 69.85 51.9 70.75 51.5 L71.0 51.55 71.05 52.35 Q71.05 54.5 65.15 59.95 L57.0 66.8 51.9 70.35 Q47.65 73.3 46.8 74.0 45.3 75.2 35.5 79.55 L33.85 79.3 32.05 79.0 Q31.8 79.4 31.8 78.15 L31.85 77.45 32.05 77.5 M24.55 93.8 L24.0 94.5 Q23.3 94.25 23.3 93.55 L24.55 93.8 M20.55 92.0 L19.3 90.5 21.0 88.3 22.25 88.5 Q23.45 89.0 23.55 89.55 L23.55 91.8 23.0 92.05 20.55 92.0 M79.5 52.05 L77.55 52.0 77.35 51.8 77.3 51.0 Q77.3 50.25 77.65 50.0 L78.0 49.8 79.75 50.0 Q80.05 50.3 80.05 51.5 L79.5 52.05 M72.0 53.6 L73.25 53.5 73.55 53.8 Q73.45 54.6 72.5 55.55 L71.55 55.55 Q71.3 55.45 71.3 54.65 71.3 53.85 72.0 53.6 M-86.5 -2.7 L-87.45 -2.5 -87.7 -4.45 -86.75 -4.5 -86.45 -4.2 -86.45 -3.65 -86.5 -2.7 M-77.3 42.9 L-77.95 42.0 -77.95 42.8 -77.3 42.9 M-45.1 71.5 Q-38.3 75.55 -38.0 75.75 L-37.95 76.05 Q-37.4 76.5 -38.65 76.5 -45.05 76.5 -52.75 69.6 -55.05 67.55 -61.2 60.55 L-60.95 60.0 Q-59.0 60.8 -51.2 67.5 -49.8 68.7 -45.1 71.5 M-63.9 55.25 L-63.45 56.3 Q-65.2 57.75 -65.95 57.5 L-66.45 57.25 -66.7 56.35 -66.65 56.0 -69.45 56.0 Q-69.7 55.75 -70.95 55.5 L-72.3 54.15 -73.2 52.85 Q-73.2 52.05 -72.75 51.7 L-72.0 51.3 -68.25 51.5 -67.85 53.4 Q-67.65 54.25 -66.45 54.8 L-66.45 55.2 -65.5 54.3 -64.25 54.5 Q-64.1 54.65 -63.9 55.25 M-69.5 51.05 L-70.55 50.75 -71.2 50.25 -71.2 48.05 Q-69.2 48.05 -68.95 50.55 -69.25 51.0 -69.5 51.05 M-28.0 85.8 L-26.75 86.0 Q-25.25 87.5 -24.95 88.35 L-25.05 89.35 Q-25.1 89.45 -25.5 89.55 L-26.8 89.3 -28.7 89.0 -28.7 86.3 Q-28.0 86.0 -28.0 85.8 M-20.95 83.3 Q-20.95 84.05 -21.25 84.5 L-24.45 84.5 Q-27.7 83.7 -32.05 81.7 -36.65 79.65 -38.95 79.0 -39.2 79.4 -39.2 78.15 -39.2 77.4 -39.0 77.35 L-38.5 77.3 Q-37.65 77.55 -34.7 78.7 L-34.7 78.55 Q-33.75 78.6 -29.95 80.0 L-22.95 82.3 -22.95 82.8 -20.95 83.3 M-8.95 84.65 Q-8.95 85.1 -9.65 85.75 L-10.5 86.55 -12.45 86.5 -12.65 86.1 -12.7 85.1 Q-12.7 84.3 -12.5 84.05 L-12.0 83.8 -9.25 84.0 -9.1 83.85 Q-8.95 83.85 -8.95 84.65 M-1.75 86.5 L-0.45 87.8 -2.55 89.65 -4.5 91.55 -5.7 91.55 -5.5 91.85 -5.45 92.9 Q-5.45 94.1 -6.5 95.55 -8.45 95.85 -8.65 95.15 -8.95 94.2 -9.7 94.0 L-8.15 92.3 -7.05 91.35 -8.7 89.0 Q-8.7 88.2 -8.35 87.8 L-7.45 87.0 -5.45 86.5 Q-4.3 86.35 -1.75 86.5 M-19.45 84.5 L-16.5 83.3 -15.25 83.5 Q-14.25 84.0 -14.0 84.65 L-13.95 85.75 Q-13.95 86.85 -14.2 87.4 -14.65 88.45 -16.0 89.05 L-17.45 89.0 -19.7 85.15 -19.65 84.45 -19.45 84.5 M-11.2 90.05 L-10.25 90.0 -9.95 90.3 -9.95 90.85 -10.0 91.8 -10.95 92.0 -11.2 90.05 M-6.15 97.3 L-6.2 96.5 Q-6.2 95.7 -4.4 93.95 L-2.5 92.3 Q0.05 95.15 0.05 96.0 0.05 96.8 -0.3 97.15 L-1.0 97.55 -5.95 97.5 -6.15 97.3 M-87.75 2.5 L-87.25 4.1 Q-86.95 5.05 -86.95 5.8 -86.95 7.55 -88.0 9.55 -89.2 8.5 -89.2 8.1 L-88.95 5.6 -88.7 2.5 -87.75 2.5" fill="#530909" fill-rule="evenodd" stroke="none"/>
    <path d="M45.45 -64.7 L46.4 -64.0 Q53.4 -58.8 59.0 -52.45 65.2 -45.55 69.85 -37.65 74.45 -29.85 77.3 -21.05 80.1 -12.25 80.85 -3.0 81.6 6.3 80.35 15.6 79.05 24.65 75.7 33.1 72.3 41.7 66.85 49.4 61.75 56.85 54.75 62.5 47.75 68.15 39.45 71.65 30.95 75.2 22.4 77.3 L7.25 80.95 -12.65 81.55 Q-25.95 80.6 -33.55 76.75 -41.2 72.85 -48.45 67.35 -55.7 61.8 -61.65 55.6 L-73.0 43.55 Q-79.75 36.1 -81.4 26.4 -83.75 17.15 -84.25 7.75 -84.8 -1.7 -83.25 -11.0 -81.75 -20.35 -78.4 -28.95 -75.3 -36.95 -70.25 -44.1 -64.35 -52.25 -56.2 -58.5 -48.25 -64.6 -39.2 -69.15 -31.7 -72.95 -23.65 -75.75 -15.3 -78.55 -6.4 -79.55 L-3.0 -79.9 11.8 -79.35 Q20.85 -77.8 29.25 -74.05 37.8 -70.3 45.45 -64.7 M45.35 -52.95 L43.6 -59.55 42.55 -62.1 37.4 -64.85 35.65 -66.15 Q33.25 -68.05 30.05 -69.15 L29.45 -69.35 Q27.4 -69.9 26.0 -71.5 L25.65 -72.05 Q25.1 -73.35 23.5 -73.5 23.05 -68.55 24.4 -65.45 L25.35 -62.45 25.65 -61.15 Q37.05 -56.65 46.55 -47.55 L45.35 -52.95 M49.2 -55.0 L49.25 -54.5 Q49.55 -51.3 50.5 -48.5 L50.9 -47.0 51.75 -42.15 Q62.1 -30.25 65.7 -16.1 67.0 -18.2 67.85 -20.55 69.3 -24.65 67.5 -28.5 L67.1 -29.55 65.8 -32.9 63.55 -38.0 Q62.45 -40.7 61.1 -42.6 L58.8 -45.9 52.55 -54.05 Q50.7 -56.2 48.5 -57.5 49.1 -56.4 49.2 -55.0 M71.45 -19.05 L71.15 -18.45 70.8 -17.6 70.1 -16.45 68.0 -14.0 66.55 -12.3 Q67.6 -6.55 67.65 -0.45 67.65 7.2 66.15 14.3 L71.1 12.15 Q74.5 10.45 75.3 6.95 76.3 2.75 76.05 -2.0 L75.8 -2.85 Q75.2 -3.75 75.35 -5.0 76.1 -13.05 74.15 -20.05 L73.85 -20.95 73.45 -21.95 73.05 -21.45 71.45 -19.05 M37.0 -66.0 Q37.0 -65.65 37.4 -65.3 L37.5 -65.5 37.0 -66.0 M20.6 -74.5 L20.25 -75.35 Q19.75 -76.05 18.45 -76.4 18.0 -76.5 17.65 -76.75 16.95 -77.25 16.0 -77.15 L6.55 -77.65 5.5 -77.75 Q2.7 -77.7 1.0 -78.5 L1.15 -74.5 Q1.25 -73.5 1.6 -72.55 L1.95 -71.5 Q3.3 -68.2 4.9 -65.5 10.8 -65.25 16.35 -64.0 L23.75 -61.85 23.35 -62.95 23.15 -63.55 Q21.65 -68.95 20.6 -74.5 M65.65 -0.35 Q65.65 -26.45 46.0 -44.8 26.45 -63.2 -1.25 -63.2 -28.95 -63.2 -48.5 -44.8 -68.1 -26.45 -68.1 -0.35 -68.1 25.8 -48.5 44.15 -28.95 62.5 -1.25 62.5 26.45 62.5 46.0 44.15 65.65 25.8 65.65 -0.35 M54.0 48.0 L50.55 47.25 48.2 46.8 Q38.85 56.3 27.0 61.05 L31.55 66.45 Q33.1 68.2 35.5 67.9 39.05 67.5 42.1 65.65 L51.9 59.85 53.1 59.15 55.85 57.35 Q58.6 55.2 61.1 51.55 62.05 50.2 62.0 48.5 L60.0 48.55 54.0 48.0 M75.95 10.85 Q74.9 11.2 73.9 11.8 70.0 14.05 65.55 17.0 L65.5 17.0 65.5 17.05 Q61.5 32.3 50.1 44.8 L51.0 44.8 Q57.0 44.75 62.4 42.3 L63.6 41.75 Q65.15 41.1 66.4 39.9 68.0 38.4 68.4 36.95 L68.6 36.05 Q69.0 34.7 70.0 33.0 73.7 26.8 76.0 19.5 77.3 15.2 77.5 10.5 L76.55 10.65 75.95 10.85 M25.5 74.05 Q28.95 73.4 30.7 71.15 29.6 68.7 28.0 66.5 L24.7 61.95 Q14.25 65.6 1.95 65.8 L1.9 65.8 2.15 66.45 Q3.7 70.4 5.95 74.05 7.8 77.1 11.5 76.4 L14.5 76.05 16.45 75.75 21.0 74.85 22.05 74.65 23.5 74.4 25.5 74.05 M1.95 78.85 L2.3 78.45 Q2.8 75.8 2.15 73.45 L-0.1 66.55 -0.35 65.8 Q-12.95 65.65 -24.0 61.85 -23.3 67.05 -21.4 71.95 L-20.8 74.05 Q-20.1 77.85 -17.05 78.25 L-9.0 78.5 -8.1 78.7 -5.0 79.25 -2.5 79.35 Q0.05 79.55 1.95 78.85 M-79.1 21.45 Q-79.5 22.0 -79.7 23.05 -79.0 25.7 -77.85 27.95 L-76.4 30.95 Q-74.45 35.15 -71.8 39.4 -70.45 41.6 -69.0 42.45 L-68.2 43.15 Q-67.5 44.0 -66.05 42.95 L-65.65 42.45 -64.55 39.0 Q-63.2 35.25 -61.35 31.8 -66.7 22.25 -67.85 11.1 L-70.55 12.95 Q-75.55 16.4 -79.1 21.45 M-44.6 50.65 L-46.4 61.0 -46.3 61.65 -44.85 62.9 Q-43.0 65.1 -41.0 66.5 L-37.85 68.8 Q-32.8 72.75 -27.5 75.5 L-26.5 75.8 Q-25.4 75.85 -25.15 74.95 -24.5 72.6 -24.65 70.0 L-25.45 61.35 Q-35.65 57.55 -44.6 50.65 M-63.8 46.65 Q-63.05 47.05 -62.6 48.05 -61.85 49.65 -60.65 50.65 L-60.05 51.5 Q-59.35 53.35 -58.35 54.35 L-52.7 59.7 -50.9 58.1 Q-48.9 55.8 -47.85 53.05 L-46.5 49.15 -48.1 47.75 Q-54.95 41.8 -59.45 34.9 L-60.95 38.0 -62.2 40.35 Q-63.9 43.05 -64.0 46.0 L-63.8 46.65" fill="#976900" fill-rule="evenodd" stroke="none"/>
    <path d="M49.2 -55.0 Q49.1 -56.4 48.5 -57.5 50.7 -56.2 52.55 -54.05 L58.8 -45.9 61.1 -42.6 Q62.45 -40.7 63.55 -38.0 L65.8 -32.9 67.1 -29.55 67.5 -28.5 Q69.3 -24.65 67.85 -20.55 67.0 -18.2 65.7 -16.1 62.1 -30.25 51.75 -42.15 L50.9 -47.0 50.5 -48.5 Q49.55 -51.3 49.25 -54.5 L49.2 -55.0 M45.35 -52.95 L46.55 -47.55 Q37.05 -56.65 25.65 -61.15 L25.35 -62.45 24.4 -65.45 Q23.05 -68.55 23.5 -73.5 25.1 -73.35 25.65 -72.05 L26.0 -71.5 Q27.4 -69.9 29.45 -69.35 L30.05 -69.15 Q33.25 -68.05 35.65 -66.15 L37.4 -64.85 42.55 -62.1 43.6 -59.55 45.35 -52.95 M20.6 -74.5 Q21.65 -68.95 23.15 -63.55 L23.35 -62.95 23.75 -61.85 16.35 -64.0 Q10.8 -65.25 4.9 -65.5 3.3 -68.2 1.95 -71.5 L1.6 -72.55 Q1.25 -73.5 1.15 -74.5 L1.0 -78.5 Q2.7 -77.7 5.5 -77.75 L6.55 -77.65 16.0 -77.15 Q16.95 -77.25 17.65 -76.75 18.0 -76.5 18.45 -76.4 19.75 -76.05 20.25 -75.35 L20.6 -74.5 M37.0 -66.0 L37.5 -65.5 37.4 -65.3 Q37.0 -65.65 37.0 -66.0 M71.45 -19.05 L73.05 -21.45 73.45 -21.95 73.85 -20.95 74.15 -20.05 Q76.1 -13.05 75.35 -5.0 75.2 -3.75 75.8 -2.85 L76.05 -2.0 Q76.3 2.75 75.3 6.95 74.5 10.45 71.1 12.15 L66.15 14.3 Q67.65 7.2 67.65 -0.45 67.6 -6.55 66.55 -12.3 L68.0 -14.0 70.1 -16.45 70.8 -17.6 71.15 -18.45 71.45 -19.05 M75.95 10.85 L76.55 10.65 77.5 10.5 Q77.3 15.2 76.0 19.5 73.7 26.8 70.0 33.0 69.0 34.7 68.6 36.05 L68.4 36.95 Q68.0 38.4 66.4 39.9 65.15 41.1 63.6 41.75 L62.4 42.3 Q57.0 44.75 51.0 44.8 L50.1 44.8 Q61.5 32.3 65.5 17.05 L65.5 17.0 65.55 17.0 Q70.0 14.05 73.9 11.8 74.9 11.2 75.95 10.85 M54.0 48.0 L60.0 48.55 62.0 48.5 Q62.05 50.2 61.1 51.55 58.6 55.2 55.85 57.35 L53.1 59.15 51.9 59.85 42.1 65.65 Q39.05 67.5 35.5 67.9 33.1 68.2 31.55 66.45 L27.0 61.05 Q38.85 56.3 48.2 46.8 L50.55 47.25 54.0 48.0 M25.5 74.05 L23.5 74.4 22.05 74.65 21.0 74.85 16.45 75.75 14.5 76.05 11.5 76.4 Q7.8 77.1 5.95 74.05 3.7 70.4 2.15 66.45 L1.9 65.8 1.95 65.8 Q14.25 65.6 24.7 61.95 L28.0 66.5 Q29.6 68.7 30.7 71.15 28.95 73.4 25.5 74.05 M1.95 78.85 Q0.05 79.55 -2.5 79.35 L-5.0 79.25 -8.1 78.7 -9.0 78.5 -17.05 78.25 Q-20.1 77.85 -20.8 74.05 L-21.4 71.95 Q-23.3 67.05 -24.0 61.85 -12.95 65.65 -0.35 65.8 L-0.1 66.55 2.15 73.45 Q2.8 75.8 2.3 78.45 L1.95 78.85 M-79.1 21.45 Q-75.55 16.4 -70.55 12.95 L-67.85 11.1 Q-66.7 22.25 -61.35 31.8 -63.2 35.25 -64.55 39.0 L-65.65 42.45 -66.05 42.95 Q-67.5 44.0 -68.2 43.15 L-69.0 42.45 Q-70.45 41.6 -71.8 39.4 -74.45 35.15 -76.4 30.95 L-77.85 27.95 Q-79.0 25.7 -79.7 23.05 -79.5 22.0 -79.1 21.45 M-63.8 46.65 L-64.0 46.0 Q-63.9 43.05 -62.2 40.35 L-60.95 38.0 -59.45 34.9 Q-54.95 41.8 -48.1 47.75 L-46.5 49.15 -47.85 53.05 Q-48.9 55.8 -50.9 58.1 L-52.7 59.7 -58.35 54.35 Q-59.35 53.35 -60.05 51.5 L-60.65 50.65 Q-61.85 49.65 -62.6 48.05 -63.05 47.05 -63.8 46.65 M-44.6 50.65 Q-35.65 57.55 -25.45 61.35 L-24.65 70.0 Q-24.5 72.6 -25.15 74.95 -25.4 75.85 -26.5 75.8 L-27.5 75.5 Q-32.8 72.75 -37.85 68.8 L-41.0 66.5 Q-43.0 65.1 -44.85 62.9 L-46.3 61.65 -46.4 61.0 -44.6 50.65" fill="#ebc905" fill-rule="evenodd" stroke="none"/>
  </g>
</svg>
