<?xml version="1.0" encoding="UTF-8" standalone="no"?>
<svg xmlns:xlink="http://www.w3.org/1999/xlink" height="104.95px" width="848.95px" xmlns="http://www.w3.org/2000/svg">
  <g transform="matrix(1.0, 0.0, 0.0, 1.0, 430.95, 55.45)">
    <path d="M69.0 -11.45 L-173.0 -11.45 -173.0 -13.45 69.0 -13.45 69.0 -11.45 M175.0 -39.45 L234.0 -39.45 234.0 -36.45 175.0 -36.45 175.0 -39.45 M294.0 -20.45 L418.0 -20.45 418.0 -17.45 294.0 -17.45 294.0 -20.45 M-332.95 -55.45 L-229.0 -55.45 -229.0 -50.45 -332.95 -50.45 -332.95 -55.45 M-168.0 44.5 L-168.0 49.5 -194.0 49.5 -194.0 44.5 -168.0 44.5 M-279.0 22.5 L-430.95 22.5 -430.95 19.5 -279.0 19.5 -279.0 22.5 M261.0 40.5 L229.0 40.5 229.0 38.5 261.0 38.5 261.0 40.5 M76.0 28.5 L76.0 34.5 50.0 34.5 50.0 28.5 76.0 28.5" fill="#ffffff" fill-rule="evenodd" stroke="none"/>
  </g>
</svg>
