<?xml version="1.0" encoding="UTF-8" standalone="no"?>
<svg xmlns:xlink="http://www.w3.org/1999/xlink" height="77.95px" width="841.95px" xmlns="http://www.w3.org/2000/svg">
  <g transform="matrix(1.0, 0.0, 0.0, 1.0, 416.95, 35.45)">
    <path d="M170.0 -30.45 L370.0 -30.45 370.0 -25.45 170.0 -25.45 170.0 -30.45 M425.0 42.5 L391.0 42.5 391.0 34.5 425.0 34.5 425.0 42.5 M279.0 39.5 L-176.0 39.5 -176.0 38.5 279.0 38.5 279.0 39.5 M50.0 7.5 L-59.0 7.5 -59.0 5.5 50.0 5.5 50.0 7.5 M-416.95 -32.45 L-334.95 -32.45 -334.95 -28.45 -416.95 -28.45 -416.95 -32.45 M-138.0 -35.45 L-110.0 -35.45 -110.0 -31.45 -138.0 -31.45 -138.0 -35.45 M-179.0 20.5 L-314.95 20.5 -314.95 18.5 -179.0 18.5 -179.0 20.5" fill="#ffffff" fill-rule="evenodd" stroke="none"/>
  </g>
</svg>
