<?xml version="1.0" encoding="UTF-8" standalone="no"?>
<svg xmlns:xlink="http://www.w3.org/1999/xlink" height="95.95px" width="780.95px" xmlns="http://www.w3.org/2000/svg">
  <g transform="matrix(1.0, 0.0, 0.0, 1.0, 367.95, 50.45)">
    <path d="M11.0 -23.45 L314.0 -23.45 314.0 -22.45 11.0 -22.45 11.0 -23.45 M398.0 -50.45 L413.0 -50.45 413.0 -44.45 398.0 -44.45 398.0 -50.45 M372.0 43.5 L323.0 43.5 323.0 33.5 372.0 33.5 372.0 43.5 M334.0 14.5 L98.0 14.5 98.0 11.5 334.0 11.5 334.0 14.5 M-337.95 -37.45 L-167.0 -37.45 -167.0 -28.45 -337.95 -28.45 -337.95 -37.45 M-32.0 45.5 L-57.0 45.5 -57.0 42.5 -32.0 42.5 -32.0 45.5 M-275.0 29.5 L-367.95 29.5 -367.95 28.5 -275.0 28.5 -275.0 29.5" fill="#ffffff" fill-rule="evenodd" stroke="none"/>
  </g>
</svg>
