<?xml version="1.0" encoding="UTF-8" standalone="no"?>
<svg xmlns:xlink="http://www.w3.org/1999/xlink" height="59.65px" width="577.45px" xmlns="http://www.w3.org/2000/svg">
  <g transform="matrix(1.0, 0.0, 0.0, 1.0, 281.65, 33.55)">
    <path d="M36.4 -33.05 L75.55 -33.05 75.3 -32.55 76.15 -33.05 78.15 -33.05 78.25 -32.9 78.25 -33.05 117.4 -33.05 117.25 -32.75 118.7 -30.05 120.3 -30.6 120.6 -31.55 120.15 -31.55 119.45 -31.05 118.5 -31.05 118.95 -32.55 120.15 -33.55 124.65 -33.55 124.25 -32.05 125.0 -32.05 Q125.75 -32.5 126.45 -32.75 L126.65 -33.55 137.65 -33.45 137.65 -33.55 145.1 -33.55 145.6 -33.15 146.55 -33.15 146.6 -33.55 165.2 -33.05 164.9 -32.05 165.4 -32.05 167.2 -33.05 169.2 -33.05 169.25 -32.95 169.25 -33.05 170.05 -33.05 170.05 -33.15 196.85 -33.15 196.8 -33.05 208.45 -33.05 208.1 -32.45 209.15 -33.05 211.15 -33.05 211.25 -32.9 211.25 -33.05 250.4 -33.05 250.05 -32.45 251.15 -33.05 253.15 -33.05 253.25 -32.9 253.25 -33.05 260.2 -33.05 260.2 -32.95 262.0 -32.95 262.15 -33.05 264.15 -33.05 264.25 -32.95 267.1 -32.95 267.9 -32.25 268.1 -32.95 270.65 -32.85 270.65 -32.95 278.1 -32.95 278.6 -32.6 279.5 -32.55 279.6 -32.95 292.85 -32.5 Q297.75 -28.95 294.5 -18.1 L293.45 -16.1 293.3 -15.55 293.6 -15.1 293.35 -14.65 293.45 -14.65 293.35 -14.55 292.95 -13.9 292.75 -13.9 290.6 -6.75 290.5 -4.75 289.85 -4.25 289.7 -3.75 289.6 -1.75 Q286.35 9.15 279.3 12.65 L279.05 12.65 Q276.0 18.3 271.3 20.65 L257.75 21.15 257.9 20.65 Q258.25 19.4 260.35 19.15 L261.0 18.65 261.15 18.2 259.15 18.2 Q258.55 20.15 256.3 21.15 L248.85 21.15 249.3 19.65 247.3 19.65 246.85 21.15 246.25 21.15 246.2 21.1 244.3 21.1 242.65 25.1 240.65 25.1 Q240.95 24.1 242.45 24.1 L243.35 21.1 241.2 21.6 238.4 21.1 238.25 21.6 238.9 22.6 238.75 23.1 237.8 23.1 238.25 21.6 237.85 21.1 231.45 21.1 233.15 16.35 231.9 15.6 232.2 14.6 232.55 15.1 233.05 15.1 233.7 14.6 233.8 14.65 234.1 13.75 232.65 13.1 231.15 13.1 231.5 13.6 231.35 14.1 230.1 15.1 230.15 14.55 228.15 21.1 Q229.4 21.1 230.0 23.1 L229.05 24.6 228.1 24.6 228.25 24.1 228.85 23.6 229.0 23.1 224.65 21.1 223.15 21.1 223.5 21.6 223.35 22.1 222.1 23.1 222.15 21.1 217.2 21.1 213.35 24.1 213.95 22.1 214.6 21.6 214.75 21.1 202.3 21.1 200.65 25.1 198.65 25.1 Q198.95 24.1 200.45 24.1 L201.35 21.1 199.2 21.6 196.4 21.1 196.25 21.6 196.9 22.6 196.75 23.1 195.8 23.1 196.25 21.6 195.85 21.1 189.45 21.1 192.3 13.15 192.3 13.1 186.45 13.1 189.3 5.15 191.35 -3.25 194.6 -12.6 190.7 -12.6 190.2 -10.9 190.0 -12.6 188.75 -12.6 Q187.9 -8.15 185.8 -1.05 L184.75 2.4 183.5 4.9 185.25 3.9 185.2 5.85 Q183.1 6.4 182.35 8.85 L183.0 8.35 183.95 8.35 Q183.65 9.4 183.75 10.65 L184.0 9.8 184.95 9.8 184.5 11.3 183.8 11.3 183.85 11.75 184.85 11.75 185.15 10.8 185.85 11.75 185.7 12.3 Q186.05 14.35 184.1 14.35 L184.45 14.85 184.3 15.35 178.25 15.3 177.9 15.7 177.45 16.35 177.25 16.35 176.05 17.55 175.75 17.55 175.75 18.65 176.0 17.8 176.95 17.8 176.5 19.3 175.8 19.3 175.85 19.75 176.85 19.75 177.15 18.8 177.85 19.75 177.7 20.3 Q178.05 22.35 176.1 22.35 L176.45 22.85 176.3 23.35 170.25 23.3 168.05 25.55 160.35 25.75 161.35 22.3 160.35 22.3 161.0 21.75 161.15 21.3 159.15 21.3 160.25 17.7 157.35 17.75 158.35 14.3 157.35 14.3 158.0 13.75 158.15 13.3 156.15 13.3 163.9 -12.6 162.5 -12.6 162.8 -13.6 161.8 -13.6 161.85 -12.6 159.2 -12.6 152.4 10.5 152.4 10.65 152.35 10.7 152.05 11.6 152.45 12.15 153.45 12.15 154.1 11.65 153.2 14.65 151.2 14.65 Q150.45 17.1 148.95 17.1 L148.65 18.1 148.2 18.1 149.25 14.65 Q145.75 14.65 146.2 13.15 L146.0 13.15 144.4 18.5 144.4 18.65 144.35 18.7 144.05 19.6 144.45 20.15 145.45 20.15 146.1 19.65 145.2 22.65 143.2 22.65 Q142.45 25.1 140.95 25.1 L140.65 26.1 140.2 26.1 141.25 22.65 Q137.75 22.65 138.2 21.15 L136.15 21.15 136.2 21.1 129.2 21.1 131.6 13.1 126.2 13.1 127.35 9.25 126.65 9.25 Q126.35 10.25 124.35 10.25 L124.2 10.75 125.2 10.75 123.15 12.75 121.6 12.75 121.75 12.2 121.6 11.8 121.2 13.2 115.6 13.2 113.2 21.2 98.35 21.2 99.85 16.15 98.9 15.6 99.2 14.6 99.55 15.1 100.05 15.1 100.2 15.0 100.65 13.55 99.9 13.2 98.25 13.2 98.5 13.6 98.35 14.1 97.1 15.1 97.15 14.55 95.15 21.1 Q96.4 21.1 97.0 23.1 L96.05 24.6 95.1 24.6 95.25 24.1 95.85 23.6 96.0 23.1 91.65 21.1 90.15 21.1 90.5 21.6 90.35 22.1 89.1 23.1 89.15 21.1 84.2 21.1 80.35 24.1 80.95 22.1 81.6 21.6 81.75 21.1 69.3 21.1 67.65 25.1 65.65 25.1 Q65.95 24.1 67.45 24.1 L68.35 21.1 66.2 21.6 63.4 21.1 63.25 21.6 63.9 22.6 63.75 23.1 62.8 23.1 63.25 21.6 62.85 21.1 56.45 21.1 58.2 16.3 57.05 15.6 57.35 14.6 57.7 15.1 58.2 15.1 58.75 14.7 59.3 13.15 59.3 13.1 53.45 13.1 56.3 5.15 56.8 3.25 51.2 3.25 50.75 4.75 47.75 4.75 Q47.45 5.75 45.5 5.75 L45.35 6.25 46.3 6.25 44.25 8.25 42.75 8.25 42.9 7.7 42.35 6.25 44.25 3.25 42.75 3.25 42.1 3.75 41.6 3.75 Q42.15 1.85 40.85 1.75 L37.45 13.1 35.45 13.1 33.8 17.1 31.8 17.1 Q32.1 16.1 33.6 16.1 L34.5 13.1 32.35 13.6 31.75 13.5 29.45 21.1 27.45 21.1 25.8 25.1 23.8 25.1 Q24.1 24.1 25.6 24.1 L26.5 21.1 24.35 21.6 21.55 21.1 21.4 21.6 22.05 22.6 21.9 23.1 20.95 23.1 21.4 21.6 21.0 21.1 14.6 21.1 16.3 16.35 15.05 15.6 15.35 14.6 15.7 15.1 16.2 15.1 16.85 14.6 16.95 14.65 17.25 13.75 15.8 13.1 14.3 13.1 14.65 13.6 14.5 14.1 13.25 15.1 13.3 14.55 11.3 21.1 Q12.55 21.1 13.15 23.1 L12.2 24.6 11.25 24.6 11.4 24.1 12.0 23.6 12.15 23.1 7.8 21.1 6.3 21.1 6.65 21.6 6.5 22.1 5.25 23.1 5.3 21.1 0.35 21.1 -3.5 24.1 -2.9 22.1 -2.25 21.6 -2.1 21.1 -14.55 21.1 -16.2 25.1 -18.2 25.1 Q-17.9 24.1 -16.4 24.1 L-15.5 21.1 -17.65 21.6 -20.45 21.1 -20.6 21.6 -19.95 22.6 -20.1 23.1 -21.05 23.1 -20.6 21.6 -21.0 21.1 -27.4 21.1 -24.55 13.15 -24.55 13.1 -29.45 13.1 Q-32.45 18.4 -36.95 20.65 L-50.5 21.15 -50.35 20.65 Q-50.0 19.4 -47.9 19.15 L-47.25 18.65 -47.1 18.2 -49.1 18.2 Q-49.7 20.15 -51.95 21.15 L-59.4 21.15 -58.95 19.65 -60.95 19.65 -61.4 21.15 -62.0 21.15 -62.05 21.1 -63.95 21.1 -65.6 25.1 -67.6 25.1 Q-67.3 24.1 -65.8 24.1 L-64.9 21.1 -67.05 21.6 -69.85 21.1 -70.0 21.6 -69.35 22.6 -69.5 23.1 -70.45 23.1 -70.0 21.6 -70.4 21.1 -76.8 21.1 -73.95 13.15 -73.95 13.1 -79.8 13.1 -76.95 5.15 -74.9 -3.25 -71.3 -13.7 -69.1 -22.6 Q-67.45 -27.6 -66.6 -27.6 L-66.0 -33.05 -59.05 -33.05 -59.35 -32.05 -58.9 -32.05 -57.1 -33.05 -55.1 -33.05 -55.0 -32.9 -55.0 -33.05 -48.05 -33.05 -48.05 -32.95 -46.25 -32.95 -46.1 -33.05 -44.1 -33.05 -44.0 -32.95 -41.15 -32.95 -40.35 -32.25 -40.15 -32.95 -37.6 -32.85 -37.6 -32.95 -30.15 -32.95 -29.65 -32.6 -28.75 -32.55 -28.65 -32.95 -16.65 -32.55 -16.6 -33.05 -9.65 -33.05 -9.95 -32.05 -9.5 -32.05 -7.7 -33.05 -5.7 -33.05 -5.6 -32.9 -5.6 -33.05 33.55 -33.05 33.2 -32.45 34.3 -33.05 36.3 -33.05 36.4 -32.9 36.4 -33.05 M26.5 -20.15 L26.65 -20.6 26.0 -20.6 26.0 -20.15 26.5 -20.15 M68.35 -20.15 L68.5 -20.6 67.85 -20.6 67.85 -20.15 68.35 -20.15 M115.85 -25.7 L116.65 -26.6 116.95 -27.6 115.8 -27.6 115.5 -26.6 115.85 -25.7 M121.05 -26.4 L121.7 -26.6 121.6 -27.2 121.1 -26.6 121.05 -26.4 M135.3 -32.05 L135.7 -32.05 Q135.4 -32.35 135.45 -32.75 L135.3 -32.15 135.3 -32.05 M135.0 -20.05 L134.85 -19.6 135.85 -19.6 136.15 -20.6 135.75 -20.6 135.0 -20.05 M133.85 -12.6 L128.95 -12.6 128.5 -11.15 133.4 -11.15 133.85 -12.6 M168.8 -31.55 L168.35 -32.05 167.9 -32.05 167.8 -31.55 168.5 -30.55 168.95 -30.55 169.0 -30.65 169.1 -31.55 168.8 -31.55 M201.5 -20.6 L200.85 -20.6 200.85 -20.15 201.35 -20.15 201.5 -20.6 M242.85 -20.15 L243.35 -20.15 243.5 -20.6 242.85 -20.6 242.85 -20.15 M268.4 -32.1 L268.25 -31.55 268.25 -31.5 268.65 -31.5 Q268.4 -31.75 268.4 -32.1 M268.35 -19.8 L267.95 -19.5 267.8 -19.0 268.8 -19.0 268.85 -19.1 268.35 -19.8 M261.85 -12.05 L258.15 0.25 263.1 0.25 266.8 -12.05 261.85 -12.05 M248.55 13.7 L247.8 16.2 248.8 16.2 248.9 16.0 248.6 15.6 248.1 15.6 248.95 14.3 248.55 13.7 M258.1 16.65 L258.55 15.2 257.55 15.2 257.4 15.65 258.1 16.65 M224.2 22.6 L224.55 23.1 225.05 23.1 225.7 22.6 227.0 23.1 226.85 23.6 225.6 24.6 223.9 23.6 224.2 22.6 M233.2 18.65 L232.75 20.1 233.75 20.1 233.9 19.65 233.2 18.65 M241.45 24.1 L240.95 24.1 240.6 23.6 240.1 23.6 241.05 22.1 242.05 22.1 242.1 23.6 241.45 24.1 M191.15 5.65 L191.65 5.65 192.25 3.7 191.75 3.7 191.15 5.65 M185.45 8.35 L184.95 8.35 184.6 7.85 184.1 7.85 185.05 6.4 186.55 6.4 186.4 6.85 185.45 8.35 M188.9 11.65 L188.2 10.65 187.75 12.1 188.75 12.1 188.9 11.65 M184.1 12.8 L183.85 13.7 185.45 13.3 184.1 12.8 M190.75 20.1 L191.75 20.1 191.9 19.65 191.2 18.65 190.75 20.1 M194.3 13.25 L194.15 13.65 194.65 13.65 194.75 13.35 194.3 13.25 M198.95 24.1 L198.6 23.6 198.1 23.6 199.05 22.1 200.05 22.1 200.1 23.6 199.45 24.1 198.95 24.1 M177.6 11.75 L177.25 12.05 177.25 12.85 178.9 12.25 179.05 11.75 177.6 11.75 M168.15 21.25 L170.9 20.25 171.05 19.75 169.6 19.75 168.3 20.75 167.95 20.25 167.3 20.75 167.15 21.25 168.15 21.25 M176.15 12.55 L175.95 12.25 175.75 12.4 175.5 12.9 176.15 12.55 M175.85 21.7 L177.45 21.3 176.1 20.8 175.85 21.7 M125.15 9.25 L127.1 7.8 126.1 7.8 124.8 8.75 124.65 9.25 125.15 9.25 M122.55 8.7 L123.1 7.8 122.8 7.8 122.55 8.7 M92.7 22.6 L94.0 23.1 93.85 23.6 92.6 24.6 90.9 23.6 91.2 22.6 91.55 23.1 92.05 23.1 92.7 22.6 M61.3 13.25 L61.15 13.65 61.65 13.65 61.75 13.35 61.3 13.25 M65.1 23.6 L66.05 22.1 67.05 22.1 67.1 23.6 66.45 24.1 65.95 24.1 65.6 23.6 65.1 23.6 M58.15 5.65 L58.65 5.65 59.25 3.7 58.75 3.7 58.15 5.65 M54.75 12.1 L55.75 12.1 55.9 11.65 55.2 10.65 54.75 12.1 M48.2 3.25 L47.2 3.25 45.95 4.25 45.8 4.75 46.25 4.75 48.2 3.25 M47.85 14.6 L49.15 15.1 49.0 15.6 47.75 16.6 46.05 15.6 46.35 14.6 46.7 15.1 47.2 15.1 47.85 14.6 M49.7 23.1 L50.2 23.1 50.85 22.6 52.15 23.1 52.0 23.6 50.75 24.6 49.05 23.6 49.35 22.6 49.7 23.1 M57.75 20.1 L58.75 20.1 58.9 19.65 58.2 18.65 57.75 20.1 M23.75 23.6 L23.25 23.6 24.2 22.1 25.2 22.1 25.25 23.6 24.6 24.1 24.1 24.1 23.75 23.6 M31.75 15.6 L31.25 15.6 32.2 14.1 33.2 14.1 33.25 15.6 32.6 16.1 32.1 16.1 31.75 15.6 M7.35 22.6 L7.7 23.1 8.2 23.1 8.85 22.6 10.15 23.1 10.0 23.6 8.75 24.6 7.05 23.6 7.35 22.6 M15.9 20.1 L16.9 20.1 17.05 19.65 16.35 18.65 15.9 20.1 M-256.85 -33.05 L-249.9 -33.05 -249.9 -32.95 -248.1 -32.95 -247.95 -33.05 -245.95 -33.05 -245.85 -32.95 -243.0 -32.95 -242.2 -32.25 -242.0 -32.95 -239.45 -32.85 -239.45 -32.95 -232.0 -32.95 -231.5 -32.6 -230.6 -32.55 -230.5 -32.95 -217.25 -32.5 Q-216.2 -31.75 -215.55 -30.7 -212.9 -32.75 -209.75 -32.75 L-201.25 -33.2 -192.4 -33.05 -190.25 -33.2 Q-170.9 -33.2 -168.25 -31.45 L-167.35 -32.05 -161.1 -33.05 -134.3 -33.05 -132.2 -33.55 -129.8 -33.05 -123.3 -33.05 -121.2 -33.55 -118.8 -33.05 -119.45 -32.55 -116.45 -33.05 -89.65 -33.05 -87.55 -33.55 -85.15 -33.05 -78.65 -33.05 -76.55 -33.55 -74.15 -33.05 -74.85 -32.55 -76.5 -27.1 -76.1 -26.6 -77.1 -25.1 -77.6 -21.55 -78.35 -21.0 -83.9 -21.0 -84.5 -19.1 -84.1 -18.6 -85.1 -17.1 -85.5 -14.2 Q-84.2 -13.15 -83.6 -10.55 L-85.2 -8.55 Q-84.2 -8.55 -84.65 -7.05 L-83.65 -7.05 -83.35 -8.05 -84.35 -8.05 -83.75 -10.0 -82.75 -10.0 Q-82.4 -6.35 -83.55 -2.3 -87.05 9.15 -92.3 12.2 L-94.1 12.5 Q-96.85 18.2 -100.3 20.2 L-106.6 21.2 -133.4 21.2 -135.55 21.65 -137.9 21.2 -137.2 20.65 -135.6 15.2 -135.95 14.7 -135.0 13.2 -136.4 13.2 -138.55 13.65 -139.25 13.5 Q-141.8 18.35 -144.95 20.2 L-151.25 21.2 -178.05 21.2 -180.2 21.65 -182.55 21.2 -181.85 20.65 -180.25 15.2 -180.6 14.7 -179.65 13.2 -181.05 13.2 -183.2 13.65 -183.75 13.55 -184.05 14.0 -183.75 14.0 -183.05 15.0 -183.7 15.45 -184.2 15.45 -184.55 15.0 -184.8 15.0 Q-187.45 18.35 -192.25 20.5 L-192.85 22.45 -192.25 22.0 -191.75 22.0 -191.05 23.0 -191.7 23.45 -192.2 23.45 -192.55 23.0 -193.0 23.0 -195.15 23.45 Q-194.85 22.45 -196.3 22.45 L-196.15 22.0 Q-194.7 22.0 -194.4 21.0 L-195.4 21.0 -196.0 21.5 -197.7 20.5 -198.75 22.45 Q-200.0 22.45 -199.65 20.5 L-202.3 21.0 -206.2 21.0 -206.55 20.5 -207.05 20.5 -207.65 21.0 -207.35 20.0 -207.9 20.0 -209.65 21.0 -210.65 21.0 Q-211.65 21.0 -210.9 18.55 L-213.8 18.55 -215.55 21.0 -216.05 21.0 Q-220.7 21.0 -224.3 19.05 -225.25 19.05 -224.4 16.1 L-224.9 16.1 -225.35 17.55 Q-227.05 16.65 -226.15 11.6 L-227.3 11.05 -227.75 10.65 Q-229.15 11.85 -230.8 12.65 L-231.05 12.65 Q-234.05 18.3 -238.8 20.65 L-252.35 21.15 -252.2 20.65 Q-251.85 19.4 -249.75 19.15 L-249.1 18.65 -248.95 18.2 -250.95 18.2 Q-251.55 20.15 -253.8 21.15 L-261.25 21.15 -260.8 19.65 -262.8 19.65 -263.25 21.15 -263.85 21.15 -263.9 21.1 -265.8 21.1 -267.45 25.1 -269.45 25.1 Q-269.15 24.1 -267.65 24.1 L-266.75 21.1 -268.9 21.6 -271.7 21.1 -271.85 21.6 -271.2 22.6 -271.35 23.1 -272.3 23.1 -271.85 21.6 -272.25 21.1 -278.65 21.1 -275.8 13.15 -275.8 13.1 -281.65 13.1 -278.8 5.15 -276.75 -3.25 -273.15 -13.7 -270.95 -22.6 Q-269.3 -27.6 -268.45 -27.6 L-267.85 -33.05 -260.9 -33.05 -261.2 -32.05 -260.75 -32.05 -258.95 -33.05 -256.95 -33.05 -256.85 -32.9 -256.85 -33.05 M-267.25 -20.15 L-266.75 -20.15 -266.3 -21.6 -267.3 -21.6 -267.25 -20.15 M-270.45 -17.65 L-270.85 -16.2 -269.65 -17.15 -269.5 -17.65 -270.45 -17.65 M-207.05 -30.25 L-207.2 -29.8 -206.9 -28.3 -205.05 -30.25 -207.05 -30.25 M-241.85 -31.5 L-241.45 -31.5 -241.7 -32.1 -241.85 -31.55 -241.85 -31.5 M-242.15 -19.5 L-242.3 -19.0 -241.3 -19.0 -240.85 -20.5 -242.15 -19.5 M-181.65 -29.8 L-180.95 -28.8 -178.35 -29.3 -178.3 -29.2 -177.65 -29.3 -177.05 -29.8 -176.9 -30.25 -181.5 -30.25 -181.65 -29.8 M-169.7 -30.25 L-170.5 -30.25 -170.65 -29.8 -170.4 -29.45 -169.7 -30.25 M-196.2 -29.8 L-195.85 -27.8 Q-192.4 -27.8 -191.95 -29.3 L-190.6 -28.8 -190.0 -29.3 -189.5 -29.3 -189.25 -29.2 -188.65 -29.3 -188.05 -29.8 -187.9 -30.25 -196.05 -30.25 -196.2 -29.8 M-187.3 -20.45 L-188.5 -20.45 -188.55 -19.95 -187.55 -19.95 -187.3 -20.45 M-191.0 -12.45 L-191.65 -11.1 -190.7 -11.1 -190.3 -12.45 -191.0 -12.45 M-198.9 -12.45 L-202.75 0.25 -199.5 0.25 -195.65 -12.45 -198.9 -12.45 M-195.0 -20.45 L-193.45 -19.9 -193.3 -20.45 -195.0 -20.45 M-197.5 -8.0 L-198.8 -7.0 -199.25 -7.0 -198.95 -8.0 -197.75 -9.0 -197.25 -9.0 -197.5 -8.0 M-176.2 -22.25 L-177.25 -22.25 -177.4 -20.9 -175.65 -21.25 -175.6 -21.45 -176.2 -22.25 M-172.35 -3.85 L-172.9 -1.85 -173.1 -1.85 -173.45 -0.75 Q-174.9 -0.75 -175.2 0.25 L-175.4 1.15 -172.15 1.15 Q-172.75 0.15 -173.05 -1.35 L-171.45 -3.35 Q-172.45 -3.35 -172.05 -4.8 L-172.25 -4.8 -172.5 -3.85 -172.35 -3.85 M-168.3 -2.35 L-166.7 -2.35 -166.05 -4.4 -167.3 -4.4 -168.3 -2.35 M-133.45 -6.55 L-133.3 -7.05 -134.3 -7.05 -133.05 -9.55 -134.65 -9.55 -135.35 -7.2 Q-134.9 -6.25 -134.1 -6.05 L-133.45 -6.55 M-128.25 -1.85 L-128.35 -1.85 -129.35 1.15 -127.5 1.15 -128.4 -1.35 -126.8 -3.35 Q-127.8 -3.35 -127.4 -4.8 L-127.6 -4.8 -127.8 -3.85 -127.7 -3.85 -128.25 -1.85 M-123.65 -2.35 L-122.05 -2.35 -121.4 -4.4 -122.65 -4.4 -123.65 -2.35 M-88.65 -7.05 L-89.65 -7.05 -88.4 -9.55 -90.0 -9.55 -90.7 -7.2 Q-90.25 -6.25 -89.45 -6.05 L-88.8 -6.55 -88.65 -7.05 M-69.0 -16.2 L-67.8 -17.15 -67.65 -17.65 -68.6 -17.65 -69.0 -16.2 M-64.9 -20.15 L-64.45 -21.6 -65.45 -21.6 -65.4 -20.15 -64.9 -20.15 M-46.4 -12.05 L-50.1 0.25 -45.15 0.25 -41.45 -12.05 -46.4 -12.05 M-40.0 -31.5 L-39.6 -31.5 -39.85 -32.1 -40.0 -31.55 -40.0 -31.5 M-39.9 -19.8 L-40.3 -19.5 -40.45 -19.0 -39.45 -19.0 -39.4 -19.1 -39.9 -19.8 M-18.25 23.6 L-18.75 23.6 -17.8 22.1 -16.8 22.1 -16.75 23.6 -17.4 24.1 -17.9 24.1 -18.25 23.6 M-22.55 13.25 L-22.7 13.65 -22.2 13.65 -22.1 13.35 -22.55 13.25 M-26.1 20.1 L-25.1 20.1 -24.95 19.65 -25.65 18.65 -26.1 20.1 M-50.85 15.65 L-50.15 16.65 -49.7 15.2 -50.7 15.2 -50.85 15.65 M-59.7 13.7 L-60.45 16.2 -59.45 16.2 -59.35 16.0 -59.65 15.6 -60.15 15.6 -59.3 14.3 -59.7 13.7 M-78.5 12.1 L-77.5 12.1 -77.35 11.65 -78.05 10.65 -78.5 12.1 M-75.1 5.65 L-74.6 5.65 -74.0 3.7 -74.5 3.7 -75.1 5.65 M-71.5 13.35 L-71.95 13.25 -72.1 13.65 -71.6 13.65 -71.5 13.35 M-74.5 20.1 L-74.35 19.65 -75.05 18.65 -75.5 20.1 -74.5 20.1 M-67.65 23.6 L-68.15 23.6 -67.2 22.1 -66.2 22.1 -66.15 23.6 -66.8 24.1 -67.3 24.1 -67.65 23.6 M-212.75 16.55 L-211.5 15.6 -211.35 15.1 -211.85 15.1 -213.75 16.55 -212.75 16.55 M-217.5 17.55 L-218.5 17.55 -218.9 19.05 -217.6 18.05 -217.5 17.55 M-221.2 15.1 Q-220.85 17.35 -219.95 17.55 L-219.3 17.1 -218.7 15.1 -221.2 15.1 M-209.2 13.0 L-209.55 12.95 -210.4 13.65 -210.7 14.6 -209.75 14.6 -208.6 13.0 -209.2 13.0 M-261.55 13.7 L-262.3 16.2 -261.3 16.2 -261.2 16.0 -261.5 15.6 -262.0 15.6 -261.15 14.3 -261.55 13.7 M-251.55 15.2 L-252.55 15.2 -252.7 15.65 -252.0 16.65 -251.55 15.2 M-276.45 5.65 L-275.85 3.7 -276.35 3.7 -276.95 5.65 -276.45 5.65 M-280.35 12.1 L-279.35 12.1 -279.2 11.65 -279.9 10.65 -280.35 12.1 M-273.45 13.65 L-273.35 13.35 -273.8 13.25 -273.95 13.65 -273.45 13.65 M-276.35 20.1 L-276.2 19.65 -276.9 18.65 -277.35 20.1 -276.35 20.1 M-270.0 23.6 L-269.05 22.1 -268.05 22.1 -268.0 23.6 -268.65 24.1 -269.15 24.1 -269.5 23.6 -270.0 23.6" fill="#333333" fill-rule="evenodd" stroke="none"/>
    <path d="M28.4 -25.05 L28.95 -25.05 29.25 -26.05 29.55 -25.55 30.05 -25.55 Q29.6 -24.05 28.1 -24.05 L27.65 -22.6 28.2 -21.1 28.05 -20.6 27.05 -20.6 26.6 -19.1 Q26.05 -17.3 24.25 -16.15 L23.9 -16.6 10.5 -16.6 10.15 -17.1 Q7.9 -16.15 4.4 -16.15 L3.9 -16.15 1.55 -16.6 0.05 -11.65 1.55 -11.65 3.45 -11.2 5.5 -11.65 6.05 -11.65 7.6 -10.2 8.6 -10.2 9.0 -11.65 20.9 -11.65 Q21.9 -11.65 21.05 -8.7 23.5 -8.7 22.3 -4.75 L20.65 -0.75 13.2 -0.75 12.75 0.75 9.75 0.75 Q9.45 1.75 7.5 1.75 L7.35 2.25 8.3 2.25 6.25 4.25 9.05 4.7 11.7 4.25 14.15 4.25 Q14.9 4.25 15.1 6.2 L15.4 6.7 15.9 6.7 16.65 4.25 19.15 4.25 15.3 17.1 Q16.55 17.1 17.15 19.1 L16.2 20.6 15.25 20.6 15.4 20.1 16.0 19.6 16.15 19.1 11.8 17.1 10.3 17.1 10.65 17.6 10.5 18.1 9.25 19.1 9.3 17.1 4.35 17.1 0.5 20.1 1.1 18.1 1.75 17.6 1.9 17.1 -10.55 17.1 -12.2 21.1 -14.2 21.1 Q-13.9 20.1 -12.4 20.1 L-11.5 17.1 -13.65 17.6 -16.45 17.1 -16.6 17.6 -15.95 18.6 -16.1 19.1 -17.05 19.1 -16.6 17.6 -17.0 17.1 -23.4 17.1 -20.55 9.15 -18.5 0.75 -14.9 -9.7 -12.7 -18.6 Q-11.05 -23.6 -10.2 -23.6 L-9.6 -29.05 -2.65 -29.05 -2.95 -28.05 -2.5 -28.05 -0.7 -29.05 1.3 -29.05 2.0 -28.05 1.4 -27.55 1.9 -27.55 4.55 -26.55 5.05 -26.55 Q5.75 -29.05 8.25 -29.05 L29.55 -29.05 28.7 -27.55 28.4 -25.05 M39.35 -29.05 L39.05 -28.05 39.5 -28.05 41.3 -29.05 43.3 -29.05 44.0 -28.05 43.4 -27.55 43.9 -27.55 46.55 -26.55 47.05 -26.55 Q47.75 -29.05 50.25 -29.05 L71.55 -29.05 70.7 -27.55 70.4 -25.05 70.95 -25.05 71.25 -26.05 71.55 -25.55 72.05 -25.55 Q71.6 -24.05 70.1 -24.05 L69.65 -22.6 70.2 -21.1 70.05 -20.6 69.05 -20.6 68.6 -19.1 Q68.05 -17.3 66.25 -16.15 L65.9 -16.6 52.5 -16.6 52.15 -17.1 Q49.9 -16.15 46.4 -16.15 L45.9 -16.15 43.55 -16.6 42.05 -11.65 43.55 -11.65 45.45 -11.2 47.5 -11.65 48.05 -11.65 49.6 -10.2 50.6 -10.2 51.0 -11.65 62.9 -11.65 Q63.9 -11.65 63.05 -8.7 65.5 -8.7 64.3 -4.75 L62.65 -0.75 55.2 -0.75 54.75 0.75 51.75 0.75 Q51.45 1.75 49.5 1.75 L49.35 2.25 50.3 2.25 48.25 4.25 46.75 4.25 46.9 3.7 46.35 2.25 48.25 -0.75 46.75 -0.75 46.1 -0.25 45.6 -0.25 Q46.2 -2.25 44.7 -2.25 L44.25 -2.25 Q41.95 -1.2 41.5 0.25 L40.5 0.25 40.8 -0.75 38.8 -0.75 33.45 17.1 31.45 17.1 29.8 21.1 27.8 21.1 Q28.1 20.1 29.6 20.1 L30.5 17.1 28.35 17.6 25.55 17.1 25.4 17.6 26.05 18.6 25.9 19.1 24.95 19.1 25.4 17.6 25.0 17.1 18.6 17.1 21.45 9.15 23.5 0.75 27.1 -9.7 29.3 -18.6 Q30.95 -23.6 31.8 -23.6 L32.4 -29.05 39.35 -29.05 M3.6 -0.25 Q4.2 -2.25 2.7 -2.25 L2.25 -2.25 Q-0.05 -1.2 -0.5 0.25 L-1.5 0.25 -1.2 -0.75 -3.2 -0.75 -4.7 4.25 -1.35 4.7 Q0.85 3.95 1.05 3.25 L0.5 1.75 1.8 0.75 2.35 0.75 Q1.6 3.25 2.55 3.25 L3.05 3.25 2.4 3.7 2.25 4.25 4.75 4.25 4.9 3.7 4.35 2.25 6.25 -0.75 4.75 -0.75 4.1 -0.25 3.6 -0.25 M9.2 -0.75 L7.95 0.25 7.8 0.75 8.25 0.75 10.2 -0.75 9.2 -0.75 M32.95 -17.6 L33.0 -16.15 33.5 -16.15 33.95 -17.6 32.95 -17.6 M30.75 -13.65 L29.8 -13.65 29.4 -12.2 30.6 -13.15 30.75 -13.65 M51.2 -0.75 L49.95 0.25 49.8 0.75 50.25 0.75 52.2 -0.75 51.2 -0.75 M71.65 -13.65 L71.25 -12.2 72.45 -13.15 72.6 -13.65 71.65 -13.65 M73.65 -23.6 L74.25 -29.05 81.2 -29.05 80.9 -28.05 81.35 -28.05 83.15 -29.05 85.15 -29.05 85.85 -28.05 85.25 -27.55 85.75 -27.55 88.4 -26.55 88.9 -26.55 Q89.6 -29.05 92.1 -29.05 L113.4 -29.05 112.55 -27.55 112.25 -25.05 112.8 -25.05 113.1 -26.05 113.4 -25.55 113.9 -25.55 Q113.45 -24.05 111.95 -24.05 L111.5 -22.6 112.05 -21.1 111.9 -20.6 110.9 -20.6 110.45 -19.1 Q109.9 -17.3 108.1 -16.15 L107.75 -16.6 94.35 -16.6 94.0 -17.1 Q91.75 -16.15 88.25 -16.15 L87.75 -16.15 85.4 -16.6 83.9 -11.65 85.4 -11.65 87.3 -11.2 89.35 -11.65 89.9 -11.65 91.45 -10.2 92.45 -10.2 92.85 -11.65 104.75 -11.65 Q105.75 -11.65 104.9 -8.7 107.35 -8.7 106.15 -4.75 L104.5 -0.75 97.05 -0.75 96.6 0.75 93.6 0.75 Q93.3 1.75 91.35 1.75 L91.2 2.25 92.15 2.25 90.1 4.25 92.9 4.7 95.55 4.25 98.0 4.25 Q98.75 4.25 98.95 6.2 L99.25 6.7 99.75 6.7 100.5 4.25 103.0 4.25 99.15 17.1 Q100.4 17.1 101.0 19.1 L100.05 20.6 99.1 20.6 99.25 20.1 99.85 19.6 100.0 19.1 95.65 17.1 94.15 17.1 94.5 17.6 94.35 18.1 93.1 19.1 93.15 17.1 88.2 17.1 84.35 20.1 84.95 18.1 85.6 17.6 85.75 17.1 73.3 17.1 71.65 21.1 69.65 21.1 Q69.95 20.1 71.45 20.1 L72.35 17.1 70.2 17.6 67.4 17.1 67.25 17.6 67.9 18.6 67.75 19.1 66.8 19.1 67.25 17.6 66.85 17.1 60.45 17.1 63.3 9.15 65.35 0.75 68.95 -9.7 71.15 -18.6 Q72.8 -23.6 73.65 -23.6 M74.85 -16.15 L75.35 -16.15 75.8 -17.6 74.8 -17.6 74.85 -16.15 M88.6 -0.75 L87.95 -0.25 87.45 -0.25 Q88.05 -2.25 86.55 -2.25 L86.1 -2.25 Q83.8 -1.2 83.35 0.25 L82.35 0.25 82.65 -0.75 80.65 -0.75 79.15 4.25 82.5 4.7 Q84.7 3.95 84.9 3.25 L84.35 1.75 85.65 0.75 86.2 0.75 Q85.45 3.25 86.4 3.25 L86.9 3.25 86.25 3.7 86.1 4.25 88.6 4.25 88.75 3.7 88.2 2.25 90.1 -0.75 88.6 -0.75 M93.05 -0.75 L91.8 0.25 91.65 0.75 92.1 0.75 94.05 -0.75 93.05 -0.75 M121.2 -21.1 L120.2 -21.1 120.05 -20.6 120.4 -20.1 Q121.85 -20.45 123.65 -22.6 L123.95 -23.6 121.45 -23.6 121.2 -21.1 M117.3 -24.6 Q120.95 -29.05 124.1 -29.05 L125.7 -26.05 127.3 -26.6 127.6 -27.55 127.15 -27.55 126.45 -27.05 125.5 -27.05 125.95 -28.55 127.15 -29.55 131.65 -29.55 131.25 -28.05 133.25 -28.05 133.65 -29.55 141.1 -29.55 Q142.8 -28.55 142.2 -26.6 L144.2 -26.6 144.35 -27.05 144.05 -27.55 Q142.1 -27.8 142.5 -29.05 L142.6 -29.55 155.9 -29.05 Q160.8 -25.55 157.5 -14.65 L156.4 -12.65 156.25 -12.15 156.6 -11.65 155.5 -9.65 148.4 14.5 148.4 14.65 148.35 14.7 148.05 15.6 148.45 16.15 149.45 16.15 150.1 15.65 149.2 18.65 147.2 18.65 Q146.45 21.1 144.95 21.1 L144.65 22.1 144.2 22.1 145.25 18.65 Q141.75 18.65 142.2 17.15 L140.15 17.15 140.2 17.1 133.2 17.1 137.15 3.8 134.1 3.8 133.65 5.25 130.65 5.25 Q130.35 6.25 128.35 6.25 L128.2 6.75 129.2 6.75 127.15 8.75 125.6 8.75 125.75 8.2 125.25 6.75 127.1 3.8 125.65 3.8 125.0 4.25 124.5 4.25 Q125.1 2.25 123.6 2.25 L123.1 2.25 121.3 3.4 117.2 17.2 102.35 17.2 111.8 -14.65 Q113.55 -20.35 116.15 -24.05 L117.15 -24.05 116.55 -22.1 115.55 -22.1 115.25 -21.1 116.25 -21.1 Q116.7 -22.6 117.7 -22.6 L117.3 -24.6 M138.85 -23.6 L139.85 -23.6 140.3 -25.05 139.0 -24.05 138.85 -23.6 M130.25 -23.1 L130.7 -24.6 129.7 -24.6 128.1 -22.6 127.95 -22.1 128.3 -21.6 130.25 -23.1 M124.3 -18.1 L123.85 -16.6 125.95 -17.15 126.25 -18.1 124.3 -18.1 M127.0 -15.6 L124.35 -6.65 126.4 -7.15 126.9 -7.15 128.5 -5.65 129.5 -5.65 129.9 -7.15 140.4 -7.15 143.2 -16.6 128.3 -16.6 127.0 -15.6 M192.8 -29.05 L204.45 -29.05 203.55 -27.55 203.3 -25.05 203.8 -25.05 204.1 -26.05 204.45 -25.55 204.9 -25.55 Q204.45 -24.05 203.0 -24.05 L202.55 -22.6 203.1 -21.1 202.95 -20.6 201.95 -20.6 201.5 -19.1 Q200.95 -17.3 199.1 -16.15 L198.8 -16.6 189.1 -16.6 186.2 -6.9 185.6 -11.35 185.1 -11.35 Q184.65 -6.55 181.8 2.95 L180.75 6.4 179.5 8.9 181.25 7.9 181.2 9.85 Q179.1 10.4 178.35 12.85 L179.0 12.35 179.95 12.35 Q179.65 13.4 179.75 14.65 L180.0 13.8 180.95 13.8 180.5 15.3 179.8 15.3 179.85 15.75 180.85 15.75 181.15 14.8 181.85 15.75 181.7 16.3 Q182.05 18.35 180.1 18.35 L180.45 18.85 180.3 19.35 174.25 19.3 172.05 21.55 164.35 21.75 165.35 18.3 164.35 18.3 165.0 17.75 165.15 17.3 163.15 17.3 173.3 -16.6 166.5 -16.6 166.8 -17.6 165.8 -17.6 165.85 -16.6 161.65 -16.6 162.15 -18.6 Q163.85 -23.6 164.65 -23.6 L165.25 -29.05 172.2 -29.05 171.9 -28.05 172.4 -28.05 174.2 -29.05 176.2 -29.05 176.75 -28.2 177.05 -29.15 192.85 -29.15 192.8 -29.05 M174.9 -28.05 L174.8 -27.55 175.5 -26.55 175.95 -26.55 176.25 -27.55 175.8 -27.55 175.35 -28.05 174.9 -28.05 M176.6 -27.55 L176.65 -27.85 176.25 -27.55 176.6 -27.55 M186.65 -13.35 L185.95 -10.85 186.9 -10.85 187.15 -13.35 186.65 -13.35 M216.15 -29.05 L218.15 -29.05 218.85 -28.05 218.25 -27.55 218.75 -27.55 221.4 -26.55 221.9 -26.55 Q222.6 -29.05 225.1 -29.05 L246.4 -29.05 245.55 -27.55 245.25 -25.05 245.8 -25.05 246.1 -26.05 246.4 -25.55 246.9 -25.55 Q246.45 -24.05 244.95 -24.05 L244.5 -22.6 245.05 -21.1 244.9 -20.6 243.9 -20.6 243.45 -19.1 Q242.9 -17.3 241.1 -16.15 L240.75 -16.6 227.35 -16.6 227.0 -17.1 Q224.75 -16.15 221.25 -16.15 L220.75 -16.15 218.4 -16.6 216.9 -11.65 218.4 -11.65 220.3 -11.2 222.35 -11.65 222.9 -11.65 224.45 -10.2 225.45 -10.2 225.85 -11.65 237.75 -11.65 Q238.75 -11.65 237.9 -8.7 240.35 -8.7 239.15 -4.75 L237.5 -0.75 230.05 -0.75 229.6 0.75 226.6 0.75 Q226.3 1.75 224.35 1.75 L224.2 2.25 225.15 2.25 223.1 4.25 225.9 4.7 228.55 4.25 231.0 4.25 Q231.75 4.25 231.95 6.2 L232.25 6.7 232.75 6.7 233.5 4.25 236.0 4.25 232.15 17.1 Q233.4 17.1 234.0 19.1 L233.05 20.6 232.1 20.6 232.25 20.1 232.85 19.6 233.0 19.1 228.65 17.1 227.15 17.1 227.5 17.6 227.35 18.1 226.1 19.1 226.15 17.1 221.2 17.1 217.35 20.1 217.95 18.1 218.6 17.6 218.75 17.1 206.3 17.1 204.65 21.1 202.65 21.1 Q202.95 20.1 204.45 20.1 L205.35 17.1 203.2 17.6 200.4 17.1 200.25 17.6 200.9 18.6 200.75 19.1 199.8 19.1 200.25 17.6 199.85 17.1 193.45 17.1 196.3 9.15 198.35 0.75 201.95 -9.7 204.15 -18.6 Q205.8 -23.6 206.65 -23.6 L207.25 -29.05 214.2 -29.05 213.9 -28.05 214.35 -28.05 216.15 -29.05 M205.6 -13.65 L204.65 -13.65 204.25 -12.2 205.45 -13.15 205.6 -13.65 M207.85 -16.15 L208.35 -16.15 208.8 -17.6 207.8 -17.6 207.85 -16.15 M213.65 -0.75 L212.15 4.25 215.5 4.7 Q217.7 3.95 217.9 3.25 L217.35 1.75 218.65 0.75 219.2 0.75 Q218.45 3.25 219.4 3.25 L219.9 3.25 219.25 3.7 219.1 4.25 221.6 4.25 221.75 3.7 221.2 2.25 223.1 -0.75 221.6 -0.75 220.95 -0.25 220.45 -0.25 Q221.05 -2.25 219.55 -2.25 L219.1 -2.25 Q216.8 -1.2 216.35 0.25 L215.35 0.25 215.65 -0.75 213.65 -0.75 M226.05 -0.75 L224.8 0.25 224.65 0.75 225.1 0.75 227.05 -0.75 226.05 -0.75 M266.65 -28.95 L274.1 -28.95 Q275.75 -27.95 275.15 -26.0 L277.15 -26.0 277.3 -26.5 277.0 -26.95 Q275.1 -27.25 275.45 -28.5 L275.6 -28.95 288.85 -28.5 Q293.75 -24.95 290.5 -14.1 L289.45 -12.1 289.3 -11.55 289.6 -11.1 289.35 -10.65 289.45 -10.65 289.35 -10.55 288.95 -9.9 288.75 -9.9 286.6 -2.75 286.5 -0.75 285.85 -0.25 285.7 0.25 285.6 2.25 Q282.35 13.15 275.3 16.65 L261.75 17.15 261.9 16.65 Q262.25 15.4 264.35 15.15 L265.0 14.65 265.15 14.2 263.15 14.2 Q262.55 16.15 260.3 17.15 L252.85 17.15 253.3 15.65 251.3 15.65 250.85 17.15 250.25 17.15 250.2 17.1 248.3 17.1 246.65 21.1 244.65 21.1 Q244.95 20.1 246.45 20.1 L247.35 17.1 245.2 17.6 242.4 17.1 242.25 17.6 242.9 18.6 242.75 19.1 241.8 19.1 242.25 17.6 241.85 17.1 235.45 17.1 238.3 9.15 239.75 2.7 243.95 -9.7 246.15 -18.6 Q247.8 -23.6 248.65 -23.6 L249.25 -29.05 256.2 -29.05 255.9 -28.05 256.35 -28.05 258.15 -29.05 260.15 -29.05 260.85 -28.05 260.25 -27.55 260.75 -27.55 263.4 -26.55 264.1 -28.95 264.65 -28.95 264.2 -27.5 266.2 -27.5 266.65 -28.95 M262.15 -22.5 L263.2 -22.5 263.65 -24.0 262.65 -24.0 262.6 -23.95 262.15 -22.5 M246.65 -13.65 L246.25 -12.2 247.45 -13.15 247.6 -13.65 246.65 -13.65 M250.8 -17.6 L249.8 -17.6 249.85 -16.15 250.35 -16.15 250.8 -17.6 M275.9 -15.05 L275.15 -16.05 260.25 -16.05 254.15 4.25 270.1 4.25 274.75 -11.2 274.8 -11.2 275.9 -15.05 M272.8 -23.0 L273.25 -24.5 271.95 -23.5 271.8 -23.0 272.8 -23.0 M261.55 11.2 L261.4 11.65 262.1 12.65 262.55 11.2 261.55 11.2 M251.8 12.2 L252.8 12.2 253.25 10.7 252.55 9.7 251.8 12.2 M246.05 18.1 L246.1 19.6 245.45 20.1 244.95 20.1 244.6 19.6 244.1 19.6 245.05 18.1 246.05 18.1 M240.75 7.7 L240.15 9.65 240.65 9.65 241.25 7.7 240.75 7.7 M230.85 19.6 L229.6 20.6 227.9 19.6 228.2 18.6 228.55 19.1 229.05 19.1 229.7 18.6 231.0 19.1 230.85 19.6 M236.75 16.1 L237.75 16.1 237.9 15.65 237.2 14.65 236.75 16.1 M204.05 18.1 L204.1 19.6 203.45 20.1 202.95 20.1 202.6 19.6 202.1 19.6 203.05 18.1 204.05 18.1 M198.15 9.65 L198.65 9.65 199.25 7.7 198.75 7.7 198.15 9.65 M182.4 10.85 L181.45 12.35 180.95 12.35 180.6 11.85 180.1 11.85 181.05 10.4 182.55 10.4 182.4 10.85 M194.75 16.1 L195.75 16.1 195.9 15.65 195.2 14.65 194.75 16.1 M171.15 17.25 L172.15 17.25 174.9 16.25 175.05 15.75 173.6 15.75 172.3 16.75 171.95 16.25 171.3 16.75 171.15 17.25 M179.85 17.7 L181.45 17.3 180.1 16.8 179.85 17.7 M128.65 5.25 L129.15 5.25 131.1 3.8 130.1 3.8 128.8 4.75 128.65 5.25 M95.2 18.6 L95.55 19.1 96.05 19.1 96.7 18.6 98.0 19.1 97.85 19.6 96.6 20.6 94.9 19.6 95.2 18.6 M65.15 9.65 L65.65 9.65 66.25 7.7 65.75 7.7 65.15 9.65 M61.75 16.1 L62.75 16.1 62.9 15.65 62.2 14.65 61.75 16.1 M69.1 19.6 L70.05 18.1 71.05 18.1 71.1 19.6 70.45 20.1 69.95 20.1 69.6 19.6 69.1 19.6 M53.35 18.6 L53.7 19.1 54.2 19.1 54.85 18.6 56.15 19.1 56.0 19.6 54.75 20.6 53.05 19.6 53.35 18.6 M23.3 9.65 L23.8 9.65 24.4 7.7 23.9 7.7 23.3 9.65 M29.2 18.1 L29.25 19.6 28.6 20.1 28.1 20.1 27.75 19.6 27.25 19.6 28.2 18.1 29.2 18.1 M21.05 15.65 L20.35 14.65 19.9 16.1 20.9 16.1 21.05 15.65 M12.85 18.6 L14.15 19.1 14.0 19.6 12.75 20.6 11.05 19.6 11.35 18.6 11.7 19.1 12.2 19.1 12.85 18.6 M-253.75 -28.05 L-251.95 -29.05 -249.95 -29.05 -249.25 -28.05 -249.85 -27.55 -249.35 -27.55 -246.7 -26.55 -246.0 -28.95 -245.45 -28.95 -245.9 -27.5 -243.9 -27.5 -243.45 -28.95 -236.0 -28.95 Q-234.35 -27.95 -234.95 -26.0 L-232.95 -26.0 -232.8 -26.5 -233.1 -26.95 Q-235.0 -27.25 -234.65 -28.5 L-234.5 -28.95 -221.25 -28.5 Q-216.9 -25.4 -218.95 -16.6 L-218.85 -16.6 -219.05 -15.9 -219.6 -14.1 -220.65 -12.1 -220.8 -12.1 Q-222.75 -8.45 -225.4 -6.2 -224.1 -3.95 -224.35 -0.3 L-224.2 -0.3 -224.25 -0.25 -224.35 0.15 -224.45 0.8 -224.5 2.25 -224.9 3.4 -225.1 4.25 -225.2 4.25 Q-228.4 13.5 -234.8 16.65 L-248.35 17.15 -248.2 16.65 Q-247.85 15.4 -245.75 15.15 L-245.1 14.65 -244.95 14.2 -246.95 14.2 Q-247.55 16.15 -249.8 17.15 L-257.25 17.15 -256.8 15.65 -258.8 15.65 -259.25 17.15 -259.85 17.15 -259.9 17.1 -261.8 17.1 -263.45 21.1 -265.45 21.1 Q-265.15 20.1 -263.65 20.1 L-262.75 17.1 -264.9 17.6 -267.7 17.1 -267.85 17.6 -267.2 18.6 -267.35 19.1 -268.3 19.1 -267.85 17.6 -268.25 17.1 -274.65 17.1 -271.8 9.15 -269.75 0.75 -266.15 -9.7 -263.95 -18.6 Q-262.3 -23.6 -261.45 -23.6 L-260.85 -29.05 -253.9 -29.05 -254.2 -28.05 -253.75 -28.05 M-263.85 -12.2 L-262.65 -13.15 -262.5 -13.65 -263.45 -13.65 -263.85 -12.2 M-246.9 -22.5 L-246.45 -24.0 -247.45 -24.0 -247.5 -23.95 -247.95 -22.5 -246.9 -22.5 M-259.75 -16.15 L-259.3 -17.6 -260.3 -17.6 -260.25 -16.15 -259.75 -16.15 M-245.55 -10.9 L-235.4 -10.9 -233.6 -17.15 -234.35 -18.15 -249.25 -18.15 -251.5 -10.55 -251.15 -10.45 -249.05 -10.9 -248.5 -10.9 -247.0 -9.45 -246.0 -9.45 -245.55 -10.9 M-236.85 -24.5 L-238.15 -23.5 -238.3 -23.0 -237.3 -23.0 -236.85 -24.5 M-210.9 -6.6 L-210.45 -8.1 -211.75 -7.1 -211.9 -6.6 -210.9 -6.6 M-202.75 -28.75 L-194.25 -29.2 Q-171.1 -29.2 -171.85 -26.75 L-172.0 -26.25 -174.5 -26.25 -174.65 -25.8 -173.95 -24.8 -171.35 -25.3 Q-169.8 -22.25 -172.3 -14.0 L-177.45 3.25 Q-178.9 3.25 -179.2 4.25 L-179.45 5.2 Q-178.0 5.2 -178.3 6.2 -180.35 12.95 -188.25 16.5 L-188.85 18.45 -188.25 18.0 -187.75 18.0 -187.05 19.0 -187.7 19.45 -188.2 19.45 -188.55 19.0 -189.0 19.0 -191.15 19.45 Q-190.85 18.45 -192.3 18.45 L-192.15 18.0 Q-190.7 18.0 -190.4 17.0 L-191.4 17.0 -192.0 17.5 -193.7 16.5 -194.75 18.45 Q-196.0 18.45 -195.65 16.5 L-198.3 17.0 -202.2 17.0 -202.55 16.5 -203.05 16.5 -203.65 17.0 -203.35 16.0 -203.9 16.0 -205.65 17.0 -206.65 17.0 Q-207.65 17.0 -206.9 14.55 L-209.8 14.55 -211.55 17.0 -212.05 17.0 Q-216.7 17.0 -220.3 15.05 -221.25 15.05 -220.4 12.1 L-220.9 12.1 -221.35 13.55 Q-223.85 12.2 -220.75 1.8 L-216.5 -12.5 Q-211.6 -28.75 -202.75 -28.75 M-180.9 -26.25 L-200.05 -26.25 -200.2 -25.8 -199.85 -23.8 Q-196.4 -23.8 -195.95 -25.3 L-194.6 -24.8 -194.0 -25.3 -193.5 -25.3 -186.4 -22.85 Q-186.1 -23.8 -183.6 -23.8 -183.15 -25.3 -181.65 -25.3 L-181.05 -25.8 -180.9 -26.25 M-183.7 -18.4 L-182.45 -19.4 -182.3 -19.9 -183.55 -18.9 -183.7 -18.4 M-193.25 -13.0 L-193.5 -12.0 -194.8 -11.0 -195.25 -11.0 -194.95 -12.0 -193.75 -13.0 -193.25 -13.0 M-198.95 -16.9 L-201.85 -15.45 -202.0 -11.55 -206.75 4.25 -192.5 4.25 -186.3 -16.45 -198.6 -16.45 -198.95 -16.9 M-201.6 -17.9 L-201.1 -17.9 -199.8 -18.9 -200.5 -19.9 -201.0 -19.9 -201.6 -17.9 M-183.7 -7.1 L-182.1 -9.05 -181.95 -9.55 -183.45 -9.55 -184.65 -7.1 -183.7 -7.1 M-171.55 -21.35 L-173.05 -21.35 -173.15 -20.9 -172.45 -19.9 -171.15 -20.9 -171.55 -21.35 M-177.8 -18.4 L-177.15 -17.45 -176.65 -17.45 -177.35 -18.4 -177.8 -18.4 M-180.3 -18.4 L-181.25 -18.4 -181.55 -15.95 -180.05 -15.95 -179.6 -17.45 -180.3 -18.4 M-179.0 -13.0 L-179.15 -12.5 -178.4 -11.55 -177.9 -11.55 -178.0 -13.0 -179.0 -13.0 M-163.95 -9.3 L-164.1 -8.8 -163.1 -8.8 -164.3 -6.35 -162.7 -6.35 -162.0 -8.65 Q-162.5 -9.65 -163.3 -9.8 L-163.95 -9.3 M-168.35 -7.85 L-168.9 -5.85 -169.9 -5.85 Q-170.3 -9.55 -169.2 -13.6 -165.7 -25.05 -160.35 -28.05 L-154.1 -29.05 -127.3 -29.05 -125.2 -29.55 -122.8 -29.05 -123.5 -28.55 -125.15 -23.1 -124.75 -22.6 -125.75 -21.1 -126.25 -17.55 -127.0 -17.0 -153.3 -17.0 -154.95 -11.5 -154.65 -11.5 -154.75 -11.1 -154.5 -10.75 -153.2 -11.5 -145.75 -11.5 -146.05 -10.4 -144.05 -10.4 -143.75 -11.5 -139.25 -11.5 -138.55 -10.5 -138.55 -10.4 -137.2 -10.4 -137.25 -10.25 -136.4 -11.0 Q-133.25 -11.0 -132.25 -6.55 L-133.85 -4.55 Q-132.85 -4.55 -133.3 -3.05 L-132.3 -3.05 -132.0 -4.05 -133.0 -4.05 -132.4 -6.0 -131.4 -6.0 Q-131.05 -2.35 -132.2 1.7 -135.7 13.15 -140.95 16.2 L-147.25 17.2 -174.05 17.2 -176.2 17.65 -178.55 17.2 -177.85 16.65 -176.25 11.2 -176.6 10.7 -175.65 9.2 -175.1 5.65 -174.4 5.15 -148.1 5.15 -146.45 -0.4 -146.7 -0.4 -146.6 -0.75 -146.85 -1.15 Q-147.45 -0.7 -148.2 -0.4 L-155.65 -0.4 -155.35 -1.5 -157.35 -1.5 -157.65 -0.4 -162.15 -0.4 -162.85 -1.4 -162.85 -1.5 -164.2 -1.5 -164.15 -1.6 -164.95 -0.85 Q-168.1 -0.85 -169.05 -5.35 L-167.45 -7.35 Q-168.45 -7.35 -168.05 -8.8 L-169.05 -8.8 -169.35 -7.85 -168.35 -7.85 M-157.75 -13.3 L-158.2 -11.8 -156.25 -11.8 -155.95 -12.8 -157.75 -13.3 M-145.15 -0.05 L-145.45 0.9 -143.65 1.4 -143.2 -0.05 -145.15 -0.05 M-137.3 -3.05 L-138.3 -3.05 -137.05 -5.55 -138.65 -5.55 -139.35 -3.2 Q-138.9 -2.25 -138.1 -2.05 L-137.45 -2.55 -137.3 -3.05 M-125.25 -5.85 Q-125.65 -9.55 -124.55 -13.6 -121.05 -25.05 -115.7 -28.05 L-109.45 -29.05 -82.65 -29.05 -80.55 -29.55 -78.15 -29.05 -78.85 -28.55 -80.5 -23.1 -80.1 -22.6 -81.1 -21.1 -81.6 -17.55 -82.35 -17.0 -108.65 -17.0 -110.3 -11.5 -110.0 -11.5 -110.1 -11.1 -109.85 -10.75 -108.55 -11.5 -101.1 -11.5 -101.4 -10.4 -99.4 -10.4 -99.1 -11.5 -94.6 -11.5 -93.9 -10.5 -93.9 -10.4 -92.55 -10.4 -92.6 -10.25 -91.75 -11.0 Q-88.6 -11.0 -87.6 -6.55 L-89.2 -4.55 Q-88.2 -4.55 -88.65 -3.05 L-87.65 -3.05 -87.35 -4.05 -88.35 -4.05 -87.75 -6.0 -86.75 -6.0 Q-86.4 -2.35 -87.55 1.7 -91.05 13.15 -96.3 16.2 L-102.6 17.2 -129.4 17.2 -131.55 17.65 -133.9 17.2 -133.2 16.65 -131.6 11.2 -131.95 10.7 -131.0 9.2 -130.45 5.65 -129.75 5.15 -103.45 5.15 -101.8 -0.4 -102.05 -0.4 -101.95 -0.75 -102.2 -1.15 Q-102.8 -0.7 -103.55 -0.4 L-111.0 -0.4 -110.7 -1.5 -112.7 -1.5 -113.0 -0.4 -117.5 -0.4 -118.2 -1.4 -118.2 -1.5 -119.55 -1.5 -119.5 -1.6 -120.3 -0.85 Q-123.45 -0.85 -124.4 -5.35 L-122.8 -7.35 Q-123.8 -7.35 -123.4 -8.8 L-124.4 -8.8 -124.7 -7.85 -123.7 -7.85 -124.25 -5.85 -125.25 -5.85 M-111.6 -11.8 L-111.3 -12.8 -113.1 -13.3 -113.55 -11.8 -111.6 -11.8 M-118.05 -6.35 L-117.35 -8.65 Q-117.85 -9.65 -118.65 -9.8 L-119.3 -9.3 -119.45 -8.8 -118.45 -8.8 -119.65 -6.35 -118.05 -6.35 M-100.5 -0.05 L-100.8 0.9 -99.0 1.4 -98.55 -0.05 -100.5 -0.05 M-92.4 -5.55 L-94.0 -5.55 -94.7 -3.2 Q-94.25 -2.25 -93.45 -2.05 L-92.8 -2.55 -92.65 -3.05 -93.65 -3.05 -92.4 -5.55 M-51.9 -28.05 L-50.1 -29.05 -48.1 -29.05 -47.4 -28.05 -48.0 -27.55 -47.5 -27.55 -44.85 -26.55 -44.15 -28.95 -43.6 -28.95 -44.05 -27.5 -42.05 -27.5 -41.6 -28.95 -34.15 -28.95 Q-32.5 -27.95 -33.1 -26.0 L-31.1 -26.0 -30.95 -26.5 -31.25 -26.95 Q-33.15 -27.25 -32.8 -28.5 L-32.65 -28.95 -19.4 -28.5 Q-14.5 -24.95 -17.75 -14.1 L-18.8 -12.1 -18.95 -11.55 -18.65 -11.1 -18.9 -10.65 -18.8 -10.65 -18.9 -10.55 -19.3 -9.9 -19.5 -9.9 -21.65 -2.75 -21.75 -0.75 -22.4 -0.25 -22.55 0.25 -22.65 2.25 Q-25.9 13.15 -32.95 16.65 L-46.5 17.15 -46.35 16.65 Q-46.0 15.4 -43.9 15.15 L-43.25 14.65 -43.1 14.2 -45.1 14.2 Q-45.7 16.15 -47.95 17.15 L-55.4 17.15 -54.95 15.65 -56.95 15.65 -57.4 17.15 -58.0 17.15 -58.05 17.1 -59.95 17.1 -61.6 21.1 -63.6 21.1 Q-63.3 20.1 -61.8 20.1 L-60.9 17.1 -63.05 17.6 -65.85 17.1 -66.0 17.6 -65.35 18.6 -65.5 19.1 -66.45 19.1 -66.0 17.6 -66.4 17.1 -72.8 17.1 -69.95 9.15 -67.9 0.75 -64.3 -9.7 -62.1 -18.6 Q-60.45 -23.6 -59.6 -23.6 L-59.0 -29.05 -52.05 -29.05 -52.35 -28.05 -51.9 -28.05 M-62.0 -12.2 L-60.8 -13.15 -60.65 -13.65 -61.6 -13.65 -62.0 -12.2 M-44.6 -24.0 L-45.6 -24.0 -45.65 -23.95 -46.1 -22.5 -45.05 -22.5 -44.6 -24.0 M-58.4 -16.15 L-57.9 -16.15 -57.45 -17.6 -58.45 -17.6 -58.4 -16.15 M-35.0 -24.5 L-36.3 -23.5 -36.45 -23.0 -35.45 -23.0 -35.0 -24.5 M-33.1 -16.05 L-48.0 -16.05 -54.1 4.25 -38.15 4.25 -33.5 -11.2 -33.45 -11.2 -32.35 -15.05 -33.1 -16.05 M-9.0 -16.15 L-8.5 -16.15 -8.05 -17.6 -9.05 -17.6 -9.0 -16.15 M-11.25 -13.65 L-12.2 -13.65 -12.6 -12.2 -11.4 -13.15 -11.25 -13.65 M-18.1 7.7 L-18.7 9.65 -18.2 9.65 -17.6 7.7 -18.1 7.7 M-12.8 18.1 L-12.75 19.6 -13.4 20.1 -13.9 20.1 -14.25 19.6 -14.75 19.6 -13.8 18.1 -12.8 18.1 M-22.1 16.1 L-21.1 16.1 -20.95 15.65 -21.65 14.65 -22.1 16.1 M-46.85 11.65 L-46.15 12.65 -45.7 11.2 -46.7 11.2 -46.85 11.65 M-56.45 12.2 L-55.45 12.2 -55.0 10.7 -55.7 9.7 -56.45 12.2 M-68.1 9.65 L-67.6 9.65 -67.0 7.7 -67.5 7.7 -68.1 9.65 M-71.5 16.1 L-70.5 16.1 -70.35 15.65 -71.05 14.65 -71.5 16.1 M-62.2 18.1 L-62.15 19.6 -62.8 20.1 -63.3 20.1 -63.65 19.6 -64.15 19.6 -63.2 18.1 -62.2 18.1 M-201.1 5.2 L-206.4 9.65 -206.7 10.6 -205.75 10.6 Q-205.3 9.2 -200.85 5.7 L-200.65 5.2 -201.1 5.2 M-207.35 11.1 L-207.85 11.1 -209.75 12.55 -208.75 12.55 -207.5 11.6 -207.35 11.1 M-217.2 11.1 Q-216.85 13.35 -215.95 13.55 L-215.3 13.1 -214.7 11.1 -217.2 11.1 M-214.5 13.55 L-214.9 15.05 -213.6 14.05 -213.5 13.55 -214.5 13.55 M-241.8 1.5 L-244.75 1.5 -248.3 0.0 -249.8 0.0 -250.45 0.5 -250.95 0.5 Q-253.95 -0.3 -254.8 0.5 L-256.6 6.4 -241.35 6.4 -240.25 5.4 -238.6 0.0 -241.35 0.0 -241.8 1.5 M-248.55 11.2 L-248.7 11.65 -248.0 12.65 -247.55 11.2 -248.55 11.2 M-258.3 12.2 L-257.3 12.2 -256.85 10.7 -257.55 9.7 -258.3 12.2 M-269.95 9.65 L-269.45 9.65 -268.85 7.7 -269.35 7.7 -269.95 9.65 M-264.05 18.1 L-264.0 19.6 -264.65 20.1 -265.15 20.1 -265.5 19.6 -266.0 19.6 -265.05 18.1 -264.05 18.1 M-272.9 14.65 L-273.35 16.1 -272.35 16.1 -272.2 15.65 -272.9 14.65" fill="#ffffff" fill-rule="evenodd" stroke="none"/>
  </g>
</svg>
