<?xml version="1.0" encoding="UTF-8" standalone="no"?>
<svg xmlns:xlink="http://www.w3.org/1999/xlink" height="320.0px" width="480.0px" xmlns="http://www.w3.org/2000/svg">
  <g transform="matrix(1.0, 0.0, 0.0, 1.0, 0.0, 0.0)">
    <path d="M480.0 252.35 L480.0 320.0 389.9 320.0 437.95 272.0 Q469.65 263.1 480.0 252.35 M380.9 320.0 L344.9 320.0 381.2 283.7 Q398.0 281.15 413.4 277.9 L425.8 275.15 380.9 320.0 M288.9 320.0 L0.0 320.0 0.0 251.25 Q12.9 266.4 67.6 277.9 139.2 293.0 240.5 293.0 L318.45 290.5 288.9 320.0" fill="#cccccc" fill-rule="evenodd" stroke="none"/>
    <path d="M480.0 248.35 L480.0 252.35 Q469.65 263.1 437.95 272.0 L425.8 275.15 413.4 277.9 Q398.0 281.15 381.2 283.7 351.9 288.15 318.45 290.5 L240.5 293.0 Q139.2 293.0 67.6 277.9 12.9 266.4 0.0 251.25 L0.0 247.25 Q12.9 262.4 67.6 273.9 139.2 289.0 240.5 289.0 284.4 289.0 322.75 286.2 356.5 283.65 385.95 279.0 400.15 276.7 413.4 273.9 L431.1 269.85 443.55 266.35 Q470.6 258.15 480.0 248.35" fill="#666666" fill-rule="evenodd" stroke="none"/>
    <path d="M0.0 247.25 L0.0 75.75 Q12.9 60.6 67.6 49.05 139.2 34.0 240.5 34.0 341.8 34.0 413.4 49.05 466.1 60.15 480.0 74.65 L480.0 248.35 Q470.6 258.15 443.55 266.35 L431.1 269.85 413.4 273.9 Q400.15 276.7 385.95 279.0 356.5 283.65 322.75 286.2 284.4 289.0 240.5 289.0 139.2 289.0 67.6 273.9 12.9 262.4 0.0 247.25" fill="url(#gradient0)" fill-rule="evenodd" stroke="none"/>
    <path d="M344.9 320.0 L288.9 320.0 318.45 290.5 Q351.9 288.15 381.2 283.7 L344.9 320.0" fill="url(#gradient1)" fill-rule="evenodd" stroke="none"/>
    <path d="M389.9 320.0 L380.9 320.0 425.8 275.15 437.95 272.0 389.9 320.0" fill="url(#gradient2)" fill-rule="evenodd" stroke="none"/>
    <path d="M413.4 58.25 Q341.8 41.9 240.5 41.9 L233.95 41.95 Q223.6 41.95 213.65 42.25 L182.55 43.4 Q140.75 45.6 105.05 51.15 85.4 54.2 67.6 58.25 12.9 70.8 0.0 87.25 L0.0 5.0 480.0 5.0 480.0 86.05 Q466.1 70.3 413.4 58.25" fill="#000000" fill-opacity="0.49803922" fill-rule="evenodd" stroke="none"/>
    <path d="M480.0 70.65 L480.0 74.65 Q466.1 60.15 413.4 49.05 341.8 34.0 240.5 34.0 L233.95 34.05 Q223.6 34.05 213.65 34.3 L182.55 35.35 Q140.75 37.4 105.05 42.5 85.4 45.3 67.6 49.05 12.9 60.6 0.0 75.75 L0.0 71.75 Q12.9 56.6 67.6 45.05 87.6 40.85 109.95 37.8 145.5 33.0 186.95 31.15 L217.9 30.2 238.15 30.0 240.5 30.0 Q341.8 30.0 413.4 45.05 466.1 56.15 480.0 70.65" fill="#666666" fill-rule="evenodd" stroke="none"/>
    <path d="M0.0 71.75 L0.0 0.0 149.45 0.0 109.95 37.8 Q87.6 40.85 67.6 45.05 12.9 56.6 0.0 71.75 M219.5 0.0 L249.45 0.0 217.9 30.2 186.95 31.15 219.5 0.0 M269.5 0.0 L480.0 0.0 480.0 70.65 Q466.1 56.15 413.4 45.05 341.8 30.0 240.5 30.0 L238.15 30.0 269.5 0.0" fill="#cccccc" fill-rule="evenodd" stroke="none"/>
    <path d="M149.45 0.0 L219.5 0.0 186.95 31.15 Q145.5 33.0 109.95 37.8 L149.45 0.0" fill="url(#gradient3)" fill-rule="evenodd" stroke="none"/>
    <path d="M249.45 0.0 L269.5 0.0 238.15 30.0 217.9 30.2 249.45 0.0" fill="url(#gradient4)" fill-rule="evenodd" stroke="none"/>
  </g>
  <defs>
    <linearGradient gradientTransform="matrix(-0.0739, -0.1898, 0.29, -0.113, 251.35, 190.2)" gradientUnits="userSpaceOnUse" id="gradient0" spreadMethod="pad" x1="-819.2" x2="819.2">
      <stop offset="0.0" stop-color="#150000"/>
      <stop offset="1.0" stop-color="#930e00"/>
    </linearGradient>
    <linearGradient gradientTransform="matrix(-0.052, 0.0298, -0.0117, -0.0205, 335.7, 303.0)" gradientUnits="userSpaceOnUse" id="gradient1" spreadMethod="pad" x1="-819.2" x2="819.2">
      <stop offset="0.0" stop-color="#cccccc"/>
      <stop offset="1.0" stop-color="#ffffff"/>
    </linearGradient>
    <linearGradient gradientTransform="matrix(-0.032, 0.032, -0.0028, -0.0028, 409.4, 296.0)" gradientUnits="userSpaceOnUse" id="gradient2" spreadMethod="pad" x1="-819.2" x2="819.2">
      <stop offset="0.0" stop-color="#cccccc"/>
      <stop offset="1.0" stop-color="#ffffff"/>
    </linearGradient>
    <linearGradient gradientTransform="matrix(-0.0603, 0.0345, -0.0139, -0.0242, 164.2, 17.9)" gradientUnits="userSpaceOnUse" id="gradient3" spreadMethod="pad" x1="-819.2" x2="819.2">
      <stop offset="0.0" stop-color="#cccccc"/>
      <stop offset="1.0" stop-color="#ffffff"/>
    </linearGradient>
    <linearGradient gradientTransform="matrix(-0.0317, 0.0182, -0.0062, -0.0108, 243.65, 15.1)" gradientUnits="userSpaceOnUse" id="gradient4" spreadMethod="pad" x1="-819.2" x2="819.2">
      <stop offset="0.0" stop-color="#cccccc"/>
      <stop offset="1.0" stop-color="#ffffff"/>
    </linearGradient>
  </defs>
</svg>
