<?xml version="1.0" encoding="UTF-8" standalone="no"?>
<svg xmlns:xlink="http://www.w3.org/1999/xlink" height="87.65px" width="446.15px" xmlns="http://www.w3.org/2000/svg">
  <g transform="matrix(1.0, 0.0, 0.0, 1.0, 210.35, 37.15)">
    <path d="M19.65 -4.15 L20.85 -8.35 Q24.4 -20.45 31.75 -30.65 L36.8 -37.15 Q39.1 -30.65 44.0 -26.0 47.25 -22.75 49.3 -18.7 L47.5 -16.9 Q49.7 -12.85 54.45 -7.55 57.7 -3.75 58.55 1.55 59.6 -1.95 60.95 -5.35 61.9 -7.65 63.3 -9.7 L63.7 -10.1 Q65.05 -10.25 66.25 -8.9 68.6 -6.45 71.7 -4.8 L76.45 -2.1 Q79.6 -7.0 84.1 -10.4 L87.05 -12.45 89.8 -1.4 91.4 -1.95 93.3 -3.45 95.25 -4.8 91.15 -17.75 Q98.35 -19.5 105.85 -21.8 108.95 -22.75 112.35 -23.05 L114.8 -8.5 126.9 -9.15 Q130.0 -8.6 133.0 -7.15 L136.15 -5.5 136.4 -3.45 Q138.05 -8.75 143.05 -11.6 L145.95 -13.25 146.45 -6.45 147.95 -9.45 Q148.8 -10.8 150.0 -11.9 L152.3 -13.8 158.45 -9.3 161.3 -11.75 165.35 -11.9 Q168.9 -11.05 171.5 -8.9 L173.5 -7.15 179.1 -8.5 Q184.65 -9.05 189.85 -6.3 L191.35 -5.5 Q195.8 -11.2 202.9 -14.35 205.2 -15.4 207.65 -16.1 L206.4 -5.9 Q213.6 -10.4 222.75 -7.25 229.4 -5.1 232.9 0.75 239.6 12.3 230.9 23.2 222.6 33.8 212.15 41.65 L214.85 34.2 199.2 40.7 196.75 33.5 Q194.05 36.65 190.5 38.25 187.25 39.5 182.9 40.3 L184.1 35.95 180.85 41.0 Q174.2 38.4 166.6 38.7 L161.4 37.45 161.55 32.95 160.45 34.2 159.65 35.4 159.1 36.8 158.85 38.15 153.4 37.6 152.2 35.4 Q146.9 36.5 142.0 39.35 L138.3 41.65 137.35 38.15 Q131.0 40.05 124.85 37.85 119.3 36.35 116.7 30.95 115.6 28.35 114.8 25.75 111.4 32.95 105.4 38.7 98.1 46.0 88.7 50.5 L92.8 37.6 85.45 39.75 80.7 40.6 79.6 37.3 67.35 41.4 62.35 39.25 57.55 36.25 44.55 42.35 43.55 31.5 28.9 37.45 27.95 36.65 26.6 32.55 21.55 46.0 19.4 43.15 Q18.15 41.25 17.35 39.25 L17.05 38.7 16.5 36.9 16.0 35.3 16.1 34.6 Q16.1 34.35 16.25 34.05 L16.25 33.8 16.5 33.4 16.5 32.55 16.5 31.5 16.65 31.2 16.65 27.15 16.65 25.9 16.5 24.0 Q16.65 22.9 16.4 21.95 L16.25 21.3 16.0 17.5 15.85 17.2 15.85 16.8 15.85 15.7 15.7 15.45 15.7 15.15 16.0 13.0 Q16.4 9.85 17.05 6.85 18.15 1.3 19.65 -4.15" fill="#710000" fill-rule="evenodd" stroke="none"/>
    <path d="M16.0 35.3 L15.85 35.15 Q11.1 35.95 6.45 37.3 0.1 39.25 -3.75 37.2 L-4.15 36.9 -7.4 39.1 -15.15 36.25 Q-20.3 40.6 -26.3 38.25 -37.15 33.9 -38.4 21.95 L-41.1 21.4 Q-40.55 26.6 -42.75 31.75 -46.0 39.9 -52.0 46.15 -52.4 43.45 -53.05 41.0 -53.9 38.4 -55.1 35.95 L-70.05 40.3 -70.75 37.6 -74.8 37.75 Q-83.25 37.85 -89.75 32.85 L-104.3 41.15 -103.5 36.25 -110.45 42.75 -123.35 36.65 -123.5 32.0 -126.75 33.5 -127.15 39.65 -133.25 36.65 -137.35 39.5 Q-139.65 38.15 -142.1 37.05 -144.7 35.95 -147.25 35.3 L-153.4 39.65 Q-158.95 43.15 -165.1 43.7 L-166.3 40.6 Q-168.6 35.95 -171.05 31.5 -186.0 37.3 -202.2 39.35 -206.0 25.1 -205.3 10.15 -195.8 14.6 -185.05 12.6 -192.65 4.0 -198.5 -5.5 L-210.35 -0.45 -200.85 -15.4 -201.25 -23.85 Q-190.5 -30.5 -178.4 -34.05 L-179.75 -27.25 -176.35 -28.6 Q-169.0 -32.15 -161.0 -32.7 L-154.75 -11.6 -153.65 -18.4 Q-150.95 -16.8 -148.5 -14.6 -145.1 -11.75 -142.4 -8.2 L-140.75 -12.55 -133.95 -11.75 -127.7 -9.7 -125.8 -11.2 -123.2 -10.95 Q-119.55 -10.25 -116.95 -7.8 L-114.25 -4.8 Q-112.05 -6.15 -109.75 -7.15 -101.85 -10.1 -94.0 -6.05 L-90.05 -11.35 Q-86.8 -9.7 -83.4 -8.2 -78.2 -6.3 -72.9 -5.75 L-68.45 -10.95 -64.75 -13.9 -61.9 -5.65 -49.4 -11.6 -46.8 -4.55 Q-40.0 -6.6 -32.7 -7.15 -28.35 -8.1 -23.05 -7.0 L-25.75 -13.65 Q-16.8 -13.4 -8.2 -9.05 L-11.6 -12.55 -9.3 -16.25 Q-4.15 -23.85 3.9 -28.05 L4.85 -29.0 6.05 -30.35 Q6.85 -30.9 7.8 -31.2 L11.2 -26.3 Q14.9 -20.6 17.05 -14.45 18.85 -9.45 19.65 -4.15 L17.05 -3.3 12.7 -2.25 9.85 -1.4 12.45 4.7 Q14.5 10.25 15.55 16.1 15.55 15.55 15.7 15.15 L15.7 15.45 15.85 15.7 15.85 16.8 15.85 17.2 16.0 17.5 16.25 21.3 16.4 21.95 Q16.65 22.9 16.5 24.0 L16.65 25.9 16.65 27.15 16.65 31.2 16.5 31.5 16.5 32.55 16.5 33.4 16.25 33.8 16.25 34.05 Q16.1 34.35 16.1 34.6 L16.0 35.3" fill="#000033" fill-rule="evenodd" stroke="none"/>
  </g>
</svg>
