<?xml version="1.0" encoding="UTF-8" standalone="no"?>
<svg xmlns:xlink="http://www.w3.org/1999/xlink" height="51.95px" width="149.35px" xmlns="http://www.w3.org/2000/svg">
  <g transform="matrix(1.0, 0.0, 0.0, 1.0, 74.65, 26.0)">
    <path d="M10.2 -1.3 Q15.8 3.05 21.9 6.7 L33.15 13.2 Q35.35 14.4 37.8 15.2 46.35 18.0 55.35 18.1 65.35 18.25 74.7 15.05 70.3 18.55 64.9 20.75 L57.75 23.55 52.9 25.1 47.9 25.95 32.25 25.7 Q27.1 25.05 22.3 22.75 16.0 19.8 9.5 18.05 1.75 16.15 -6.1 15.1 L-10.65 15.0 Q-26.6 15.8 -42.05 20.2 L-48.35 21.95 Q-56.9 23.95 -65.85 25.15 -64.55 22.75 -64.4 20.1 L-64.0 16.0 -63.5 12.45 Q-62.95 8.1 -63.15 3.6 -63.35 -2.1 -64.8 -7.75 -67.55 -18.25 -74.65 -26.0 L-56.65 -23.4 -42.85 -21.35 -29.3 -18.8 Q-20.65 -17.05 -12.25 -14.15 -2.95 -10.95 5.05 -5.1 L10.2 -1.3" fill="#73263e" fill-rule="evenodd" stroke="none"/>
    <path d="M-45.2 -10.35 L-44.4 -10.7 -41.45 -11.1 Q-37.1 -11.1 -34.1 -7.9 L-33.55 -7.25 -32.45 -7.05 -30.75 -8.7 -28.5 -9.0 -29.5 -11.0 -25.5 -10.7 Q-25.2 -9.55 -24.3 -8.85 -21.9 -6.9 -18.8 -6.95 L-17.95 -7.05 -13.8 0.05 Q-12.9 -0.45 -12.05 -1.0 L-11.9 -2.95 -9.0 -5.0 -9.0 -2.0 -6.75 -2.65 -5.2 -1.4 -5.2 -0.1 -8.5 2.5 -4.0 2.85 -3.6 2.65 -3.25 2.4 -1.85 4.25 0.25 3.15 Q2.25 1.75 4.55 1.45 L5.9 1.8 7.1 5.45 5.5 7.5 Q6.9 7.4 7.7 8.65 9.1 10.75 7.85 13.05 L7.6 13.8 3.7 13.4 2.8 12.1 Q1.65 10.05 1.45 7.45 L1.3 6.9 Q-2.75 7.35 -5.0 10.95 L-6.5 13.0 -10.25 7.35 -12.6 8.4 Q-15.2 9.6 -16.05 12.25 L-16.15 12.35 -17.75 10.6 Q-19.65 10.05 -21.15 8.65 L-22.6 7.15 -23.0 6.5 -31.0 12.5 Q-32.0 9.1 -35.2 7.1 -36.4 6.25 -37.8 6.35 -44.85 6.8 -51.45 11.3 L-58.5 4.0 -57.25 2.8 Q-55.15 0.8 -52.5 0.1 L-52.1 0.2 -52.5 1.0 Q-50.4 -0.9 -48.9 -3.2 -46.75 -6.55 -45.2 -10.35" fill="#380e12" fill-rule="evenodd" stroke="none"/>
    <path d="M4.65 -2.45 L6.0 3.4 1.35 5.0 1.7 -0.9 4.65 -2.45 M10.7 12.2 L7.95 13.45 5.25 12.75 3.7 8.3 11.1 5.2 10.7 12.2 M-40.2 -0.75 L-47.2 -10.25 -39.35 -16.55 -31.55 -8.75 -40.2 -0.75 M-27.0 -12.0 Q-22.35 -14.9 -18.1 -12.2 -17.4 -11.8 -16.95 -11.05 -15.7 -9.3 -15.4 -7.1 L-20.35 -1.8 Q-24.6 -4.4 -26.2 -9.65 L-27.0 -12.0 M-9.95 -4.0 L-8.5 -8.5 -4.65 -2.55 -8.05 0.3 -8.95 -0.05 -9.95 -4.0 M-4.9 10.85 L-8.3 4.75 -1.5 0.0 Q1.1 4.65 -2.0 8.8 -3.15 10.3 -4.9 10.85 M-15.35 10.75 L-21.35 4.4 -13.6 -5.05 -9.5 4.9 -13.6 9.45 -15.35 10.75 M-29.25 10.1 L-37.05 1.25 -27.9 -6.9 -21.6 1.35 -29.25 10.1 M-45.75 7.1 L-47.2 7.65 -50.9 8.7 Q-52.45 5.85 -55.0 3.8 L-56.2 2.9 -57.5 2.0 -49.0 -6.1 -41.1 3.25 Q-43.05 5.7 -45.75 7.1" fill="#e0bcd8" fill-rule="evenodd" stroke="none"/>
  </g>
</svg>
