<?xml version="1.0" encoding="UTF-8" standalone="no"?>
<svg xmlns:xlink="http://www.w3.org/1999/xlink" height="119.95px" width="130.6px" xmlns="http://www.w3.org/2000/svg">
  <g transform="matrix(1.0, 0.0, 0.0, 1.0, 90.0, 145.75)">
    <path d="M17.35 -123.05 Q13.1 -115.55 12.65 -106.85 12.3 -99.65 16.7 -94.0 L6.45 -91.35 Q-6.45 -87.3 -16.15 -77.75 -18.45 -75.5 -18.6 -72.7 -19.0 -66.55 -14.0 -62.1 -20.7 -58.5 -26.1 -53.35 -32.2 -47.4 -36.1 -39.85 -39.6 -33.15 -38.85 -25.8 L-47.15 -27.25 Q-51.35 -27.5 -55.5 -27.15 -52.35 -44.5 -57.25 -61.45 -61.15 -74.85 -73.2 -77.25 -76.75 -78.0 -78.85 -74.95 -81.95 -70.55 -79.6 -65.2 L-90.0 -68.85 -84.85 -74.85 Q-69.5 -92.8 -52.2 -108.8 -33.8 -125.9 -11.25 -136.4 L2.4 -140.55 Q19.1 -145.3 36.6 -145.75 L40.6 -143.1 Q25.25 -137.1 17.35 -123.05" fill="#141414" fill-rule="evenodd" stroke="none"/>
  </g>
</svg>
