<?xml version="1.0" encoding="UTF-8" standalone="no"?>
<svg xmlns:xlink="http://www.w3.org/1999/xlink" height="64.25px" width="28.45px" xmlns="http://www.w3.org/2000/svg">
  <g transform="matrix(1.0, 0.0, 0.0, 1.0, 14.2, 40.7)">
    <path d="M0.5 -39.9 L1.0 -40.25 Q3.3 -41.45 6.9 -39.45 L8.15 -38.75 Q9.35 -38.15 10.15 -37.0 12.8 -33.2 11.8 -28.65 L10.1 -20.4 Q9.4 -16.8 8.85 -13.2 L8.0 -6.95 Q7.65 -3.7 10.05 -1.35 L11.55 0.15 Q13.0 1.65 11.85 3.4 10.5 5.45 11.3 7.7 12.8 12.0 13.8 16.4 14.0 17.25 13.25 17.75 L14.25 23.4 14.1 23.5 Q11.15 23.8 10.05 21.0 L9.0 20.75 6.0 20.85 5.05 21.05 6.15 21.4 6.45 22.35 3.6 19.65 1.55 17.6 Q0.75 16.8 0.85 15.7 L1.15 12.7 Q1.65 8.45 1.65 4.1 1.65 3.25 1.0 2.75 L-3.7 -1.05 -9.35 -5.15 Q-11.45 -6.65 -12.9 -8.95 L-13.95 -11.1 Q-14.25 -12.1 -14.2 -13.1 L-13.45 -19.95 Q-12.85 -23.9 -10.75 -31.8 L-10.2 -34.35 -8.5 -35.7 -8.45 -35.8 -7.5 -36.5 -6.1 -37.05 Q-4.65 -37.65 -3.55 -38.75 L-7.25 -37.95 -3.55 -38.95 0.5 -39.9" fill="#2b0001" fill-rule="evenodd" stroke="none"/>
  </g>
</svg>
