<?xml version="1.0" encoding="UTF-8" standalone="no"?>
<svg xmlns:xlink="http://www.w3.org/1999/xlink" height="140.75px" width="176.15px" xmlns="http://www.w3.org/2000/svg">
  <g transform="matrix(1.0, 0.0, 0.0, 1.0, 72.7, 152.7)">
    <path d="M-52.4 -91.9 L-53.55 -92.15 -53.2 -93.35 Q-52.65 -95.4 -52.9 -97.65 -53.05 -99.35 -52.3 -99.9 -52.0 -100.15 -52.0 -100.75 -52.25 -101.8 -53.9 -100.85 L-58.05 -98.75 Q-59.05 -98.25 -59.0 -97.05 L-58.75 -91.55 -58.75 -91.3 -60.8 -90.4 -60.6 -95.85 Q-63.9 -94.8 -65.8 -93.05 L-66.1 -92.15 Q-66.0 -90.25 -65.4 -88.5 L-65.2 -87.8 -66.95 -86.45 Q-68.05 -88.1 -67.95 -90.35 L-70.7 -88.2 Q-71.05 -87.9 -70.8 -87.35 -70.25 -86.05 -70.1 -83.55 L-69.85 -80.15 -70.1 -79.6 Q-70.7 -78.3 -71.75 -77.35 -71.05 -82.7 -72.7 -88.5 -66.6 -94.85 -60.05 -100.7 L-58.05 -101.1 -56.3 -101.45 Q-54.35 -101.55 -53.1 -102.3 L-52.05 -102.75 Q-50.5 -103.15 -49.55 -103.85 -50.1 -98.65 -51.85 -93.95 L-52.1 -92.8 -52.4 -91.9" fill="#3c0f20" fill-rule="evenodd" stroke="none"/>
    <path d="M-53.55 -92.15 Q-55.7 -92.4 -58.35 -91.45 L-58.75 -91.3 -58.75 -91.55 -59.0 -97.05 Q-59.05 -98.25 -58.05 -98.75 L-53.9 -100.85 Q-52.25 -101.8 -52.0 -100.75 -52.0 -100.15 -52.3 -99.9 -53.05 -99.35 -52.9 -97.65 -52.65 -95.4 -53.2 -93.35 L-53.55 -92.15 M-60.8 -90.4 Q-63.1 -89.3 -65.2 -87.8 L-65.4 -88.5 Q-66.0 -90.25 -66.1 -92.15 L-65.8 -93.05 Q-63.9 -94.8 -60.6 -95.85 L-60.8 -90.4 M-66.95 -86.45 L-68.75 -84.85 Q-68.95 -82.45 -69.85 -80.15 L-70.1 -83.55 Q-70.25 -86.05 -70.8 -87.35 -71.05 -87.9 -70.7 -88.2 L-67.95 -90.35 Q-68.05 -88.1 -66.95 -86.45" fill="#351870" fill-rule="evenodd" stroke="none"/>
    <path d="M-33.9 -24.3 Q-35.75 -21.4 -37.15 -17.85 L-38.85 -12.75 -41.2 -11.95 Q-42.3 -18.7 -49.25 -18.85 L-52.7 -18.7 Q-49.55 -22.45 -47.05 -26.2 L-46.1 -25.15 Q-40.95 -29.75 -38.4 -36.25 L-37.4 -38.45 Q-35.75 -41.8 -34.8 -45.3 -34.9 -40.5 -35.15 -35.75 L-35.2 -35.1 Q-35.5 -29.1 -36.7 -23.5 -36.05 -24.05 -34.85 -24.1 L-33.9 -24.3 M75.8 -128.05 Q37.15 -117.9 -3.45 -110.9 L-30.8 -106.05 -31.55 -107.5 -32.85 -108.2 -42.8 -108.05 Q1.45 -145.05 59.3 -147.55 62.85 -146.9 62.75 -144.8 60.05 -140.3 55.5 -139.4 L49.75 -137.6 Q72.55 -139.25 75.7 -128.7 L75.8 -128.05" fill="#73263e" fill-rule="evenodd" stroke="none"/>
    <path d="M-60.05 -100.7 Q-38.95 -119.45 -13.35 -132.8 17.4 -148.75 51.65 -151.25 L67.65 -152.25 68.6 -152.3 68.6 -152.7 68.65 -152.3 68.8 -152.3 72.7 -152.35 Q67.85 -149.6 69.75 -142.05 74.75 -127.8 103.45 -116.75 L88.4 -117.3 Q80.7 -117.95 73.5 -117.2 L70.1 -116.75 60.25 -116.05 Q54.55 -114.85 48.6 -114.4 33.8 -112.9 25.8 -111.05 L13.8 -108.5 -1.05 -105.1 -20.15 -100.65 Q-28.35 -98.85 -39.35 -94.35 -25.9 -94.1 -6.0 -89.25 11.1 -86.1 27.25 -75.35 7.1 -83.0 -6.75 -85.05 L-38.65 -89.55 Q-37.25 -87.9 -30.45 -75.65 -23.65 -63.4 -22.15 -56.25 L-20.05 -46.9 Q-23.85 -58.15 -38.2 -79.0 -31.55 -56.1 -34.8 -45.3 -35.75 -41.8 -37.4 -38.45 L-38.4 -36.25 Q-40.95 -29.75 -46.1 -25.15 L-47.05 -26.2 Q-26.55 -56.9 -48.35 -88.7 -50.05 -91.15 -52.4 -91.9 L-52.1 -92.8 -51.85 -93.95 Q-50.1 -98.65 -49.55 -103.85 -50.5 -103.15 -52.05 -102.75 L-53.1 -102.3 Q-54.35 -101.55 -56.3 -101.45 L-58.05 -101.1 -60.05 -100.7 M75.8 -128.05 L75.7 -128.7 Q72.55 -139.25 49.75 -137.6 L55.5 -139.4 Q60.05 -140.3 62.75 -144.8 62.85 -146.9 59.3 -147.55 1.45 -145.05 -42.8 -108.05 L-32.85 -108.2 -31.55 -107.5 -30.8 -106.05 -3.45 -110.9 Q37.15 -117.9 75.8 -128.05" fill="#380e12" fill-rule="evenodd" stroke="none"/>
    <path d="M70.1 -116.75 Q47.5 -113.45 30.1 -96.2 28.75 -84.65 34.35 -74.9 L32.65 -72.85 Q8.8 -68.5 -11.55 -54.15 -15.2 -47.25 -13.65 -42.4 -28.15 -39.9 -33.9 -24.3 L-34.85 -24.1 Q-36.05 -24.05 -36.7 -23.5 -35.5 -29.1 -35.2 -35.1 L-35.15 -35.75 Q-34.9 -40.5 -34.8 -45.3 -31.55 -56.1 -38.2 -79.0 -23.85 -58.15 -20.05 -46.9 L-22.15 -56.25 Q-23.65 -63.4 -30.45 -75.65 -37.25 -87.9 -38.65 -89.55 L-6.75 -85.05 Q7.1 -83.0 27.25 -75.35 11.1 -86.1 -6.0 -89.25 -25.9 -94.1 -39.35 -94.35 -28.35 -98.85 -20.15 -100.65 L-1.05 -105.1 13.8 -108.5 25.8 -111.05 Q33.8 -112.9 48.6 -114.4 54.55 -114.85 60.25 -116.05 L70.1 -116.75 M-12.45 -53.55 L-12.55 -53.5 Q-12.85 -50.85 -12.45 -53.55 M-11.7 -38.35 Q-10.75 -37.45 -11.8 -38.15 L-11.7 -38.35" fill="#f5da69" fill-rule="evenodd" stroke="none"/>
  </g>
</svg>
