<?xml version="1.0" encoding="UTF-8" standalone="no"?>
<svg xmlns:xlink="http://www.w3.org/1999/xlink" height="46.3px" width="129.55px" xmlns="http://www.w3.org/2000/svg">
  <g transform="matrix(1.0, 0.0, 0.0, 1.0, 68.6, 22.15)">
    <path d="M2.4 -14.35 Q10.1 -14.25 17.45 -12.35 L21.55 -10.2 25.2 -7.7 Q29.0 -4.8 31.7 -1.0 L34.4 3.05 Q35.6 4.8 37.15 6.25 L39.95 9.0 Q43.2 12.45 47.55 14.2 L51.2 15.6 55.5 16.8 60.95 18.0 Q54.05 19.6 46.95 19.45 L40.0 18.95 Q36.1 18.2 32.4 16.75 L27.15 14.65 Q24.7 13.4 22.0 12.6 L19.0 11.75 17.25 11.55 Q9.7 10.25 2.0 10.4 L-5.0 11.15 Q-20.5 13.25 -34.55 19.9 -36.15 20.7 -37.8 21.15 L-43.55 22.45 -47.5 23.05 -55.3 23.9 Q-60.65 24.35 -66.0 24.0 -61.9 18.0 -61.35 11.05 -61.1 7.5 -61.7 3.95 -63.0 -3.65 -65.15 -10.95 L-68.6 -22.15 -65.15 -20.55 Q-56.8 -16.9 -48.1 -14.4 -41.7 -12.6 -34.9 -13.3 L-15.5 -14.25 2.4 -14.35" fill="#73263e" fill-rule="evenodd" stroke="none"/>
    <path d="M2.2 -1.45 L2.55 -2.05 2.85 -2.15 4.45 -1.45 12.15 4.25 Q11.3 7.15 7.35 7.9 L6.1 7.85 Q4.1 6.55 2.65 4.95 L1.25 3.35 Q-3.25 2.7 -5.75 7.1 -9.2 6.75 -11.55 4.3 L-11.85 4.1 -17.5 11.0 -18.0 9.6 -20.7 8.7 -24.0 4.35 -24.55 4.75 Q-24.15 7.3 -26.15 8.8 -27.7 9.95 -28.8 11.6 L-31.2 14.7 Q-34.65 12.65 -36.75 9.1 -40.6 7.7 -43.55 10.75 L-45.0 11.95 Q-47.1 13.15 -48.75 15.2 L-50.7 14.7 Q-52.3 10.2 -56.5 8.0 L-48.95 2.05 -49.85 -0.25 Q-50.3 -1.65 -48.95 -2.4 -44.55 -4.7 -40.45 -7.7 L-39.9 -7.95 -39.0 -6.6 Q-36.3 -5.5 -34.6 -2.95 L-36.5 -0.3 Q-35.15 -0.3 -33.35 -1.7 L-32.35 -2.55 -31.45 -3.5 -30.45 -4.7 -28.6 -4.0 -28.15 -3.2 -27.05 -4.75 -25.1 -4.7 -24.55 -3.25 -23.5 -3.0 -21.8 -4.85 -18.1 -4.95 Q-17.6 -2.95 -15.65 -2.45 L-14.5 -2.45 -12.85 -3.85 -11.5 -3.0 -10.85 -5.3 -6.75 -3.75 -4.0 -0.5 -3.95 -1.7 -0.1 -2.2 0.65 -0.6 2.2 -1.45" fill="#380e12" fill-rule="evenodd" stroke="none"/>
    <path d="M2.1 -3.8 Q3.0 -4.5 4.0 -5.0 2.85 -3.25 4.3 -1.8 L1.75 -0.3 Q0.0 -2.25 2.1 -3.8 M11.95 3.6 L7.55 5.85 5.3 3.45 4.1 2.8 9.6 -1.8 12.05 2.95 11.95 3.6 M-40.75 -12.05 Q-37.7 -9.4 -36.7 -5.3 L-36.25 -2.3 -41.75 3.0 -47.25 -4.65 -47.0 -6.0 -40.75 -12.05 M-21.85 -10.95 L-18.7 -4.95 -22.85 -0.6 Q-24.6 -1.15 -25.4 -2.8 -26.15 -4.25 -26.15 -6.0 -24.8 -8.8 -22.5 -10.5 L-21.85 -10.95 M-28.5 -4.5 L-23.95 2.55 -31.0 10.95 -37.3 3.95 -31.85 -0.8 -28.5 -4.5 M-11.65 -5.7 L-9.1 -7.65 -8.5 -5.05 -11.0 -1.5 -11.45 -2.2 -11.65 -5.7 M-2.1 -3.7 L-0.5 3.0 -4.85 5.55 -10.5 2.5 -5.85 -1.8 -2.1 -3.7 M-16.85 8.3 L-19.6 5.35 -21.7 2.0 -14.5 -5.0 -12.65 4.4 -16.85 8.3 M-40.1 8.25 Q-43.1 11.55 -47.45 12.2 L-48.7 12.35 Q-50.35 7.8 -53.85 4.05 -51.7 -0.35 -47.05 -1.4 L-39.75 6.65 -40.1 8.25" fill="#e0bcd8" fill-rule="evenodd" stroke="none"/>
  </g>
</svg>
