<?xml version="1.0" encoding="UTF-8" standalone="no"?>
<svg xmlns:xlink="http://www.w3.org/1999/xlink" height="44.95px" width="127.8px" xmlns="http://www.w3.org/2000/svg">
  <g transform="matrix(1.0, 0.0, 0.0, 1.0, 67.55, 22.4)">
    <path d="M11.55 -5.9 L22.5 -7.85 Q37.75 -10.25 52.45 -6.15 54.75 -5.45 56.7 -3.8 L60.25 -0.2 60.25 1.2 59.9 0.75 Q59.15 0.1 58.0 -0.15 L56.5 -0.7 49.3 -1.5 Q43.55 -1.9 38.0 -0.2 34.65 0.8 31.45 2.15 26.95 4.1 22.6 6.4 L16.0 9.6 Q11.55 11.8 7.0 13.35 L0.5 15.2 -12.0 17.7 Q-19.95 19.1 -27.95 19.25 L-45.5 18.4 -50.45 18.9 Q-56.4 20.1 -62.0 22.55 -62.6 9.1 -65.45 -3.95 -66.65 -9.45 -66.9 -14.95 -67.05 -18.75 -67.55 -22.4 L-60.25 -21.45 -44.65 -19.15 -36.05 -17.35 Q-32.75 -16.65 -30.4 -14.1 -28.35 -11.75 -25.5 -10.85 -20.1 -9.35 -14.5 -8.5 L-3.75 -6.65 11.55 -5.9" fill="#73263e" fill-rule="evenodd" stroke="none"/>
    <path d="M-44.5 -0.3 L-45.65 -2.2 Q-45.05 -3.75 -43.65 -4.4 -41.65 -5.4 -40.0 -6.75 L-39.15 -7.45 -38.4 -7.95 -37.6 -8.0 -33.3 -4.75 -34.0 -2.5 Q-33.5 -2.65 -33.05 -2.85 L-31.2 -1.05 -29.8 -0.95 -23.55 -4.9 -20.8 -0.75 -22.0 1.5 -16.0 -1.5 -15.0 1.0 -11.8 -2.0 -10.05 -1.95 -9.05 1.15 -7.0 -0.5 -4.9 2.7 -0.8 0.8 2.2 2.8 2.45 3.75 5.5 2.4 9.0 4.0 5.75 8.7 2.5 7.5 0.4 12.55 -0.3 12.9 -5.7 10.35 -9.45 12.85 -11.8 11.95 -12.85 11.3 -13.3 10.85 -13.75 10.25 -16.5 12.0 -17.6 13.1 -18.55 14.35 Q-19.9 14.35 -21.2 13.65 L-23.35 12.05 -23.95 11.35 -24.5 10.5 -31.4 15.75 -31.65 16.1 -32.0 17.0 -34.3 12.8 -35.4 12.15 -37.45 10.5 -38.3 9.4 -38.95 8.35 -40.0 8.0 -41.15 10.7 -42.5 11.55 -47.2 16.7 Q-50.55 15.2 -52.55 12.1 L-53.65 10.7 -54.95 9.45 -53.7 7.55 -51.05 7.0 -44.5 -0.3" fill="#380e12" fill-rule="evenodd" stroke="none"/>
    <path d="M-45.95 -0.85 Q-45.0 -1.25 -44.35 -1.75 L-44.3 -1.75 -44.05 -1.45 -40.65 2.15 -39.95 2.95 Q-39.5 3.5 -39.5 4.5 -39.55 6.5 -40.85 7.7 -42.0 8.75 -42.85 10.1 L-44.4 12.1 -45.0 13.0 Q-45.5 13.9 -45.5 15.0 -47.9 13.6 -50.6 10.05 -51.05 9.45 -51.85 8.8 -53.3 7.6 -55.0 7.0 L-52.55 4.45 -49.4 1.6 -46.55 -0.6 -45.95 -0.85 M-44.5 -3.95 L-45.5 -4.5 -44.5 -5.5 -44.0 -6.0 -36.95 -12.05 -33.6 -6.45 -33.25 -5.85 -33.7 -5.1 -33.95 -4.65 -35.3 -2.85 -36.7 -1.15 -37.3 -0.35 -39.5 1.5 Q-40.8 -0.6 -43.1 -2.9 L-44.5 -3.95 M-27.05 -4.55 Q-25.0 -6.4 -22.5 -7.0 L-21.2 -3.4 Q-21.0 -3.0 -21.1 -2.55 -21.25 -2.0 -21.55 -1.55 -22.25 -0.5 -23.55 -0.15 L-24.45 0.1 -25.05 0.3 -27.15 -2.9 Q-27.85 -3.8 -27.05 -4.55 M-29.95 -2.1 Q-27.0 -0.45 -25.45 1.95 L-25.0 2.5 Q-23.85 3.95 -23.75 6.0 L-23.65 6.55 Q-23.3 7.6 -24.4 8.2 L-25.55 8.9 -32.4 13.5 Q-33.9 10.35 -35.85 7.4 -36.75 6.0 -37.2 4.4 L-37.05 3.95 Q-34.45 0.0 -30.35 -2.2 L-29.95 -2.1 M-12.1 -1.1 Q-10.5 -2.35 -9.0 -3.0 -10.15 -1.55 -10.25 0.85 L-11.7 1.95 -12.1 2.25 -12.45 -0.6 -12.1 -1.1 M-1.75 3.0 L-2.0 3.25 -3.75 3.6 -4.3 2.35 Q-4.5 2.0 -4.35 1.55 L-3.95 1.1 Q-1.9 0.1 -0.5 -1.0 0.4 -0.4 -1.0 1.0 -1.6 1.65 -1.75 3.0 M-0.35 5.55 L0.0 5.0 1.0 4.0 1.2 8.0 1.3 8.55 Q1.5 9.9 0.0 10.5 L-0.05 10.55 -0.65 10.15 -1.25 9.35 -1.7 8.6 Q-2.25 7.3 -0.75 6.15 -0.5 6.0 -0.35 5.55 M-9.15 4.4 Q-8.1 2.55 -6.5 2.0 -5.65 2.65 -5.95 4.5 -6.2 6.2 -5.7 7.1 L-5.4 7.95 Q-5.25 8.5 -5.4 8.8 L-5.9 9.2 Q-7.6 9.9 -9.5 11.5 L-9.5 11.55 -10.05 10.55 -10.55 10.1 Q-12.25 9.3 -11.1 7.9 -10.2 6.8 -9.75 5.6 L-9.15 4.4 M-15.5 0.5 Q-14.75 2.05 -14.6 5.0 -14.5 7.5 -15.0 9.9 L-15.5 10.1 Q-17.3 10.45 -18.45 11.1 L-18.8 11.4 Q-19.15 10.8 -19.85 10.3 L-20.4 9.45 Q-21.05 7.2 -22.25 6.2 L-22.45 5.5 Q-22.4 4.9 -21.65 4.35 L-19.35 2.7 -17.35 1.25 -16.55 0.9 -15.5 0.5 M6.65 1.35 L8.1 3.45 Q8.75 4.6 7.05 6.05 L6.5 6.55 5.1 5.7 Q4.5 5.5 4.0 5.0 3.5 4.5 2.5 4.5 L6.25 1.0 6.65 1.35" fill="#e0bcd8" fill-rule="evenodd" stroke="none"/>
  </g>
</svg>
