<?xml version="1.0" encoding="UTF-8" standalone="no"?>
<svg xmlns:xlink="http://www.w3.org/1999/xlink" height="133.3px" width="150.2px" xmlns="http://www.w3.org/2000/svg">
  <g transform="matrix(1.0, 0.0, 0.0, 1.0, 89.35, 154.1)">
    <path d="M60.85 -154.1 L58.95 -151.75 Q54.45 -146.3 52.55 -139.65 51.45 -135.85 52.8 -132.15 54.55 -127.4 55.15 -122.6 44.6 -118.9 34.6 -113.85 15.55 -104.15 2.2 -87.7 -2.65 -81.65 -4.6 -73.9 -12.9 -72.2 -19.55 -67.05 -31.8 -57.7 -35.5 -42.55 -38.15 -31.8 -38.75 -20.8 L-56.05 -27.75 Q-53.45 -42.0 -58.4 -55.0 -61.55 -63.15 -68.4 -66.95 -75.25 -70.75 -79.4 -65.9 -83.55 -61.05 -84.7 -56.15 L-89.35 -64.75 Q-74.95 -77.55 -58.45 -93.1 -41.45 -109.1 -21.95 -122.0 -3.25 -134.45 17.6 -142.75 38.7 -151.0 60.85 -154.1" fill="#141414" fill-rule="evenodd" stroke="none"/>
  </g>
</svg>
