<?xml version="1.0" encoding="UTF-8" standalone="no"?>
<svg xmlns:xlink="http://www.w3.org/1999/xlink" height="46.8px" width="133.9px" xmlns="http://www.w3.org/2000/svg">
  <g transform="matrix(1.0, 0.0, 0.0, 1.0, 67.5, 21.75)">
    <path d="M-61.95 -3.85 Q-62.45 -7.35 -63.3 -10.7 -64.75 -16.4 -66.65 -21.75 L-60.65 -21.6 Q-51.25 -21.05 -42.4 -18.25 -33.05 -15.25 -23.3 -13.55 -14.3 -12.1 -6.2 -7.6 -0.15 -4.2 6.05 -1.65 19.5 4.35 34.0 5.3 47.65 6.75 61.25 5.45 L66.4 5.1 Q60.65 7.0 55.0 9.05 43.3 13.2 31.0 13.1 L25.65 13.5 20.15 13.75 -10.0 15.2 Q-21.05 15.7 -32.0 17.15 -48.75 19.65 -64.8 24.7 L-67.5 25.0 Q-63.35 19.15 -61.3 11.95 -59.85 6.95 -60.95 1.95 L-61.95 -3.85" fill="#73263e" fill-rule="evenodd" stroke="none"/>
    <path d="M-41.5 -6.85 L-41.05 -5.2 -37.95 -6.4 -30.15 -2.15 Q-29.25 -1.95 -28.55 -2.5 L-27.95 -2.9 -27.5 -3.4 -27.1 -3.95 -26.75 -4.6 -26.45 -5.1 -26.05 -5.6 -21.6 -4.55 -20.85 -5.05 -19.55 -4.65 -18.5 -4.0 -17.55 -3.25 -16.7 -2.3 -14.75 -1.85 -16.5 1.0 -14.05 0.6 -10.5 2.0 -11.5 -0.5 -8.25 -2.15 -7.15 -1.75 -6.75 -0.95 -7.0 0.0 -7.7 0.1 -6.5 3.0 -4.5 1.1 -3.65 1.7 -0.7 2.0 0.25 3.8 -0.5 4.5 3.0 3.65 5.9 6.7 5.8 8.2 5.65 8.9 5.4 9.45 5.05 10.0 4.7 10.5 4.15 10.9 3.55 11.3 2.7 10.9 2.0 10.45 1.5 9.75 1.0 8.85 0.9 8.6 -8.0 13.0 -10.0 7.5 -19.25 12.25 -20.3 12.3 -23.25 7.85 -24.85 8.65 -26.4 9.65 -27.75 10.9 -29.75 13.2 -30.5 14.0 -40.6 6.2 -50.65 14.6 -56.75 6.05 -55.05 3.95 -44.25 -8.15 -41.5 -6.85" fill="#380e12" fill-rule="evenodd" stroke="none"/>
    <path d="M-48.55 -3.35 Q-48.25 -3.25 -48.05 -2.95 L-46.25 -0.3 -45.85 0.45 -45.45 0.9 Q-43.85 1.75 -42.9 3.95 L-42.7 4.55 -42.6 7.1 Q-45.95 10.2 -49.5 12.5 -50.0 11.2 -51.05 9.55 -52.15 7.8 -54.45 5.95 L-55.4 4.7 -55.75 4.25 -56.0 3.5 Q-54.35 3.15 -53.75 1.6 L-53.05 0.45 Q-51.25 -1.8 -49.3 -3.25 L-48.55 -3.35 M-46.05 -5.85 Q-47.6 -6.45 -46.4 -7.35 L-42.95 -10.45 Q-41.05 -12.35 -38.95 -12.7 L-38.5 -12.5 Q-37.25 -10.95 -35.65 -9.8 -35.25 -9.5 -35.0 -9.0 -34.4 -7.85 -33.2 -7.15 -33.0 -7.0 -33.1 -6.5 -33.3 -5.65 -34.45 -4.95 L-35.95 -3.95 -37.5 -2.5 -38.55 -1.55 -39.3 -0.45 -39.65 -0.25 Q-40.0 0.0 -40.45 0.15 L-40.75 0.25 -41.15 -0.45 -41.5 -1.0 -44.6 -3.9 -45.65 -5.45 -46.05 -5.85 M-21.0 -10.5 Q-20.05 -8.0 -18.1 -5.9 -16.9 -4.6 -18.45 -3.9 L-18.95 -3.45 Q-19.85 -2.1 -21.95 -1.8 L-22.05 -1.75 -23.5 -3.5 -24.05 -3.9 -25.6 -4.9 -26.2 -5.65 -25.95 -5.95 Q-23.85 -7.65 -22.4 -9.45 L-21.0 -10.5 M-26.7 -0.35 L-26.35 0.45 -25.95 0.95 Q-25.25 1.5 -24.85 2.45 L-24.5 3.0 Q-23.25 4.1 -23.25 5.5 -23.25 5.75 -23.55 5.9 -26.9 7.5 -29.25 9.75 L-29.95 10.15 -30.55 10.35 -31.5 10.7 -32.8 8.4 -33.15 7.55 -33.55 7.05 Q-36.05 5.4 -37.2 2.4 L-36.95 2.05 -30.3 -2.75 -29.55 -3.1 -28.7 -3.1 -28.35 -2.55 -28.0 -2.0 -26.7 -0.35 M-15.85 -0.85 Q-14.75 -1.75 -14.2 -0.85 L-13.8 -0.1 Q-13.15 1.4 -13.25 4.0 L-13.1 4.55 Q-12.5 5.75 -12.95 7.35 L-13.4 7.7 Q-14.75 8.5 -17.0 8.85 -18.2 9.0 -18.95 9.55 L-20.0 7.5 Q-20.6 6.1 -22.0 5.5 -19.55 2.2 -16.65 -0.2 L-15.85 -0.85 M-10.15 -3.15 Q-9.45 -3.95 -8.5 -4.0 L-7.85 -3.1 -7.1 -1.9 -7.0 -1.5 Q-8.7 -0.7 -9.75 0.3 L-10.0 0.0 Q-10.8 -0.85 -10.55 -2.45 L-10.15 -3.15 M-3.65 5.55 Q-3.05 7.05 -3.0 8.0 L-3.4 8.2 -5.7 9.75 -6.35 10.25 -7.1 10.9 -7.2 10.05 -7.4 9.45 -8.7 6.4 -8.6 5.95 Q-7.15 3.3 -4.5 1.5 -4.7 3.2 -4.2 4.1 L-3.85 4.95 -3.65 5.55 M5.0 0.0 Q5.45 2.95 3.8 4.25 L3.1 4.7 Q2.1 5.3 1.0 5.55 0.85 3.9 0.2 2.85 0.0 2.5 0.2 2.1 0.5 1.5 1.45 1.3 L2.05 1.2 3.6 0.7 4.45 0.35 5.0 0.0 M2.0 8.0 Q4.35 7.2 5.65 6.25 6.0 6.0 6.5 6.05 7.6 6.15 7.7 7.5 L7.75 8.0 7.45 8.45 4.55 10.9 4.3 10.65 3.15 9.4 2.0 8.0" fill="#e0bcd8" fill-rule="evenodd" stroke="none"/>
  </g>
</svg>
