<?xml version="1.0" encoding="UTF-8" standalone="no"?>
<svg xmlns:xlink="http://www.w3.org/1999/xlink" height="146.4px" width="53.95px" xmlns="http://www.w3.org/2000/svg">
  <g transform="matrix(1.0, 0.0, 0.0, 1.0, 72.85, -3.8)">
    <path d="M-44.9 21.1 L-35.3 42.1 Q-30.45 52.9 -22.55 61.55 L-21.8 61.95 Q-21.25 62.1 -20.9 62.55 -23.2 67.2 -26.45 71.95 -31.45 79.15 -30.25 87.45 -29.8 90.5 -28.45 93.4 -25.6 99.55 -19.6 102.35 L-18.9 102.85 Q-25.35 103.8 -29.3 109.65 L-31.7 112.65 Q-36.0 117.5 -35.5 123.8 L-34.8 132.35 Q-34.1 142.05 -29.2 150.2 -40.6 136.6 -50.9 122.1 -58.75 111.0 -62.25 98.1 -64.4 90.2 -65.0 82.0 -65.55 74.65 -66.75 67.25 -67.6 62.0 -69.0 56.9 -70.3 52.05 -72.85 47.65 -66.5 48.35 -61.05 45.7 -59.9 45.1 -59.2 44.1 -51.1 32.55 -52.0 18.35 -52.45 10.85 -54.0 3.8 -48.5 3.9 -47.1 8.9 -46.15 12.15 -46.15 15.65 -46.15 18.5 -44.9 21.1" fill="#141414" fill-rule="evenodd" stroke="none"/>
  </g>
</svg>
