<?xml version="1.0" encoding="UTF-8" standalone="no"?>
<svg xmlns:xlink="http://www.w3.org/1999/xlink" height="184.6px" width="105.1px" xmlns="http://www.w3.org/2000/svg">
  <g transform="matrix(1.0, 0.0, 0.0, 1.0, 64.5, 25.3)">
    <path d="M10.5 148.5 Q0.0 140.5 -9.2 131.3 -18.45 122.1 -26.5 111.75 -35.4 100.2 -39.4 86.25 -42.85 74.1 -43.1 61.4 L-43.2 59.9 -44.25 58.85 Q-49.85 53.1 -57.75 53.95 -61.3 54.55 -64.5 56.0 L-58.65 48.3 -53.15 47.9 Q-45.45 47.15 -33.85 41.8 -32.9 42.35 -31.0 36.45 -29.05 30.45 -33.45 15.5 -37.9 0.55 -45.25 -16.8 L-47.55 -22.2 -45.35 -24.25 Q-39.25 -12.0 -34.05 0.7 -29.15 12.7 -26.0 26.5 -22.85 40.3 -34.55 47.85 -21.15 50.05 -10.95 47.55 L-7.25 47.05 Q-13.7 49.85 -20.75 51.1 L-36.9 53.0 -33.85 56.25 -10.2 71.5 Q-3.95 75.6 2.65 78.85 -10.4 75.75 -22.25 68.95 L-23.35 68.3 Q-28.85 65.85 -33.25 63.3 L-38.7 59.8 -33.3 81.9 Q-29.35 97.75 -20.25 109.6 -11.15 121.45 2.95 138.8 L10.5 148.5" fill="#380e12" fill-rule="evenodd" stroke="none"/>
    <path d="M-45.35 -24.25 Q-36.55 -27.1 -25.5 -22.25 -27.5 -11.6 -21.15 0.25 -14.8 12.1 -7.15 20.45 0.5 28.75 7.25 32.75 16.3 37.95 27.65 42.6 27.25 43.6 26.45 44.45 23.6 47.45 21.6 51.1 15.1 63.25 19.7 76.3 20.15 77.6 20.95 78.7 L25.9 85.2 Q27.75 87.6 30.0 89.4 34.9 93.2 40.6 96.1 33.95 99.65 30.4 106.25 28.35 110.1 26.9 114.2 23.3 124.6 21.45 135.4 20.9 138.4 21.05 141.4 21.5 151.2 27.1 159.3 L25.85 159.3 10.5 148.5 2.95 138.8 Q-11.15 121.45 -20.25 109.6 -29.35 97.75 -33.3 81.9 L-38.7 59.8 -33.25 63.3 Q-28.85 65.85 -23.35 68.3 L-22.25 68.95 Q-10.4 75.75 2.65 78.85 -3.95 75.6 -10.2 71.5 L-33.85 56.25 -36.9 53.0 -20.75 51.1 Q-13.7 49.85 -7.25 47.05 L-10.95 47.55 Q-21.15 50.05 -34.55 47.85 -22.85 40.3 -26.0 26.5 -29.15 12.7 -34.05 0.7 -39.25 -12.0 -45.35 -24.25" fill="#73263e" fill-rule="evenodd" stroke="none"/>
  </g>
</svg>
