<?xml version="1.0" encoding="UTF-8" standalone="no"?>
<svg xmlns:xlink="http://www.w3.org/1999/xlink" height="133.9px" width="133.35px" xmlns="http://www.w3.org/2000/svg">
  <g transform="matrix(1.0, 0.0, 0.0, 1.0, 66.7, 66.95)">
    <path d="M47.6 -63.95 L46.25 -62.75 Q42.65 -58.9 38.6 -55.85 L38.2 -55.3 36.4 -55.8 39.65 -58.9 Q33.4 -56.3 28.05 -51.95 26.25 -50.5 24.3 -49.3 L36.7 -49.75 36.75 -49.75 39.2 -50.65 39.5 -50.65 44.2 -51.2 50.0 -52.05 Q55.25 -52.55 60.45 -53.85 L65.55 -55.25 66.5 -55.45 66.0 -49.6 Q64.65 -43.4 62.15 -37.3 56.25 -34.45 50.3 -31.4 45.85 -28.95 34.65 -27.75 22.65 -34.95 14.15 -34.7 2.35 -34.4 -9.3 -31.2 L-19.15 -28.05 -19.75 -28.05 -24.25 -27.9 -25.85 -28.2 -26.6 -28.15 -26.6 -27.0 Q-26.45 -25.75 -28.5 -25.75 L-30.8 -25.85 -30.8 -25.4 Q-31.6 -25.3 -31.6 -24.1 -31.6 -21.95 -30.15 -21.95 L-30.05 -21.95 -30.05 -20.7 -29.75 -19.75 Q-29.3 -18.9 -28.45 -18.9 -27.6 -18.9 -27.6 -20.1 L-27.6 -20.35 -23.1 -16.5 -23.05 -16.45 -20.65 -13.55 Q-18.5 -13.55 -15.55 -10.95 L-14.6 -10.1 Q-11.05 -6.65 -9.65 -6.65 -9.05 -6.65 -8.8 -7.05 L-5.9 -5.2 Q-0.8 -6.95 4.4 -7.05 7.45 -7.15 9.8 -7.95 L11.25 -8.6 Q14.1 -9.95 17.85 -13.4 21.5 -16.9 23.5 -19.8 25.4 -22.8 29.05 -25.4 32.65 -28.0 36.75 -25.55 L42.35 -23.85 41.95 -23.8 Q42.25 -23.45 42.65 -23.25 L47.1 -20.05 50.8 -17.65 Q53.9 -15.85 57.55 -14.75 L61.6 -13.7 65.05 -14.0 65.4 -14.15 62.8 -10.1 59.45 -4.85 Q54.65 2.65 48.1 7.9 L47.6 8.3 Q39.0 3.55 29.0 3.4 28.75 4.35 29.2 5.1 L30.0 6.6 32.25 7.55 31.9 7.55 Q31.5 7.15 30.95 7.1 L30.35 7.0 Q29.15 6.75 29.15 7.7 L29.0 8.2 Q28.3 9.2 27.85 10.75 L27.55 11.3 25.45 11.15 25.0 10.65 Q24.15 9.45 24.95 8.15 L25.1 8.3 25.0 8.0 25.55 7.55 Q26.45 7.1 26.55 6.15 26.75 3.55 24.55 1.9 L24.4 1.75 Q23.25 0.95 22.2 0.75 L20.45 -1.4 19.75 -0.1 20.1 0.9 19.65 1.05 Q19.0 1.05 18.85 1.45 L18.85 1.6 18.65 1.75 Q18.35 2.2 18.5 2.8 L18.9 3.65 Q19.6 4.55 19.45 5.15 L19.3 5.1 19.3 5.25 Q18.3 5.45 17.55 4.95 L17.05 4.55 Q16.9 4.35 17.05 4.1 L17.3 3.7 17.7 2.7 17.85 1.75 Q17.85 0.75 17.45 -0.25 16.4 -3.3 13.25 -2.1 L12.8 -1.85 Q12.5 -1.8 12.35 -1.55 L12.2 -1.3 12.1 -1.3 12.05 -0.95 Q11.9 -0.55 12.05 -0.2 12.1 2.05 13.35 3.1 L14.0 4.7 10.1 1.75 9.8 1.6 7.45 0.2 6.05 -0.5 6.85 0.6 7.05 0.9 7.5 1.75 9.05 4.0 7.75 4.1 Q7.5 4.2 7.35 4.35 L5.1 1.95 4.85 1.75 1.05 -0.95 0.25 -1.4 -0.4 -0.2 -0.95 -0.2 -1.55 0.3 -0.65 1.1 -1.2 5.95 -1.2 6.0 1.95 6.15 2.2 5.55 2.25 5.4 2.35 5.1 2.4 3.55 2.4 3.4 2.85 4.55 Q2.55 5.0 2.4 5.7 L2.25 7.15 0.75 7.45 -2.7 8.15 -3.85 8.2 -4.6 6.1 -5.15 4.85 -5.4 4.0 -5.55 3.55 -5.6 3.1 -5.75 1.75 -5.7 -0.05 -7.6 1.5 -9.6 0.05 -10.35 0.15 -10.1 0.35 -7.75 3.55 -9.6 1.75 -11.25 1.65 -11.2 1.75 Q-10.35 3.25 -10.05 4.85 L-9.9 5.7 -9.6 8.7 -9.45 9.35 -9.45 9.6 -6.85 7.85 -7.0 5.0 -6.2 7.3 -6.15 8.4 -6.9 8.9 -8.45 10.05 -10.05 11.3 -11.25 12.5 -12.55 13.65 -13.85 14.2 -14.1 13.4 -15.25 9.05 Q-16.9 5.7 -15.7 1.75 L-15.6 1.45 -17.05 3.05 -19.15 2.95 Q-18.15 4.2 -17.2 6.15 -16.45 7.75 -15.9 10.6 L-15.6 14.1 -15.75 14.7 -15.9 15.4 -19.9 17.9 -25.3 16.0 -25.3 15.95 Q-26.45 14.8 -27.6 7.1 L-26.0 4.65 -26.25 3.4 -29.65 5.55 -32.2 4.5 -32.4 4.55 -31.8 5.7 Q-30.15 5.85 -29.15 6.85 L-28.6 7.45 Q-26.4 15.95 -27.4 16.15 L-27.3 17.3 -28.0 17.7 -30.3 18.85 -32.9 19.9 -33.05 19.75 Q-35.0 18.6 -36.9 17.55 -39.45 16.4 -40.35 9.85 L-39.65 8.4 Q-40.2 10.45 -39.05 12.6 -37.4 16.55 -34.4 17.6 -36.9 11.9 -38.6 6.25 -39.15 6.85 -39.35 7.6 L-39.75 6.6 -41.5 8.6 -42.8 8.15 -44.2 7.6 -44.5 7.4 -44.05 8.2 Q-39.9 12.4 -39.35 18.15 L-39.15 19.0 -40.05 19.7 -40.95 20.3 -41.95 21.15 -42.8 21.75 Q-43.85 20.9 -47.9 19.3 L-49.7 18.55 -51.05 16.0 -51.2 15.8 -52.1 10.65 Q-53.65 7.4 -52.95 6.55 L-52.35 6.0 -51.95 5.8 -51.35 6.1 -51.05 6.25 -49.85 7.0 Q-50.6 3.25 -49.3 -0.35 L-47.85 -4.25 -45.65 -9.25 -45.55 -9.4 -44.8 -10.95 -43.5 -13.15 -41.2 -16.3 -39.45 -17.95 -38.4 -18.6 -41.9 -22.1 -50.8 -18.45 -55.55 -16.0 -59.55 -13.75 Q-60.85 -13.0 -62.2 -12.4 -63.35 -11.8 -64.65 -11.85 L-66.0 -11.55 -66.7 -12.7 -66.4 -13.6 -62.3 -19.6 -58.75 -23.7 -51.9 -31.25 -47.0 -36.15 -44.35 -38.35 -37.45 -37.9 -37.25 -40.2 -37.1 -40.4 -32.5 -42.7 -29.3 -44.45 Q-26.6 -45.9 -23.85 -47.75 L-20.95 -49.45 -20.65 -49.6 Q-19.5 -50.3 -18.2 -50.8 -16.3 -51.65 -14.25 -51.9 L-12.35 -52.1 -10.5 -52.1 -8.5 -52.1 0.75 -51.95 Q3.7 -51.95 6.6 -53.55 L12.2 -56.7 Q13.65 -57.3 15.0 -58.05 L17.75 -59.15 21.95 -59.8 28.3 -61.1 33.95 -62.2 36.4 -62.9 38.75 -63.8 41.2 -64.4 42.6 -65.1 45.7 -66.3 47.55 -66.95 47.6 -63.95 M16.4 -44.0 Q14.45 -47.0 11.95 -48.5 7.05 -49.5 2.55 -47.7 -2.35 -45.75 -6.9 -43.4 -3.1 -46.3 -1.5 -48.0 L-1.65 -48.3 -2.8 -50.3 -2.8 -50.35 -3.4 -50.3 Q-8.65 -51.5 -15.1 -49.3 L-14.1 -48.45 Q-16.0 -42.4 -20.6 -37.35 L-20.5 -36.15 Q-14.95 -36.85 -10.2 -41.2 L-12.8 -36.6 -12.55 -36.0 -12.55 -34.45 Q-11.25 -32.85 -9.3 -33.15 L-2.25 -34.4 Q1.95 -35.25 6.0 -36.45 L12.95 -38.65 Q16.15 -39.35 18.0 -41.7 L18.0 -41.95 16.4 -44.0 M2.7 -4.0 Q4.1 -4.0 4.1 -5.15 4.1 -6.45 2.0 -6.45 0.25 -6.45 0.25 -5.35 L1.05 -4.7 Q1.95 -4.0 2.7 -4.0 M20.45 -7.9 L20.45 -8.25 18.6 -8.45 Q16.9 -8.05 16.3 -7.35 15.85 -6.8 15.85 -5.85 15.85 -5.2 16.1 -4.7 L16.1 -4.55 16.15 -3.6 16.9 -3.4 18.6 -3.3 19.05 -3.3 19.05 -3.4 19.95 -3.6 20.45 -4.0 20.6 -4.25 Q21.05 -5.05 20.8 -6.35 L20.75 -6.95 Q20.75 -7.6 20.45 -7.9 M26.25 -3.55 L24.8 -3.25 Q24.55 -3.15 24.55 -2.4 L24.55 -2.25 24.4 -1.65 24.8 -1.1 Q25.55 -0.2 26.7 -0.2 28.3 -0.2 29.45 -1.15 L29.75 -1.7 33.5 -1.3 Q38.2 -0.55 41.9 -3.7 45.1 -6.2 49.0 -8.1 L42.35 -7.45 Q36.25 -6.6 30.45 -4.6 L29.35 -3.15 Q29.0 -3.45 28.35 -3.6 L28.35 -3.7 27.9 -3.7 27.0 -3.7 26.25 -3.55 M62.45 -41.5 L60.75 -40.8 59.4 -39.65 61.05 -39.05 62.45 -41.5 M52.1 -3.15 L50.15 -2.7 Q43.65 -3.4 37.85 -0.35 L42.95 1.35 52.1 -3.15 M53.25 -35.0 Q56.4 -38.65 58.6 -43.4 55.85 -41.7 52.95 -40.35 47.25 -37.75 43.65 -32.55 L46.6 -33.0 Q50.0 -33.15 52.5 -34.95 L53.25 -35.0 M32.55 9.05 L36.55 11.35 Q33.7 10.75 32.55 9.05 M-44.65 -34.4 L-43.95 -34.75 -43.85 -34.7 -43.8 -34.55 -44.65 -34.4 M-43.4 -34.0 Q-40.75 -30.1 -42.1 -23.95 L-42.5 -23.15 -41.65 -22.5 Q-40.75 -21.8 -40.2 -21.8 -39.6 -21.8 -38.6 -23.3 -37.75 -24.6 -37.3 -25.9 L-36.6 -28.35 -36.55 -30.35 Q-36.55 -36.45 -38.85 -36.9 L-38.75 -36.4 -39.15 -37.15 -44.35 -37.15 Q-46.3 -35.7 -47.6 -33.55 L-47.9 -32.7 -47.45 -32.95 -46.6 -32.4 -45.5 -32.95 Q-44.4 -33.4 -43.4 -34.0 M-61.8 -13.25 L-61.35 -13.15 Q-60.7 -13.15 -46.3 -21.1 L-46.4 -21.35 Q-48.85 -21.2 -55.4 -17.8 -61.95 -14.55 -61.95 -13.6 L-61.8 -13.25 M-43.95 -23.1 L-44.25 -22.55 -44.4 -21.8 Q-44.2 -21.55 -43.7 -21.55 -42.9 -21.55 -42.9 -22.35 -42.9 -22.8 -43.95 -23.1 M-26.7 -44.25 L-26.75 -44.3 -26.85 -44.0 -26.85 -43.95 -25.75 -42.65 Q-24.55 -41.55 -23.25 -41.55 -21.8 -41.55 -19.75 -43.8 -17.75 -46.0 -17.75 -47.6 -17.75 -48.15 -18.05 -48.35 L-18.2 -48.35 -18.2 -47.7 -18.35 -48.35 -19.9 -49.15 -20.5 -49.3 Q-23.65 -47.85 -25.95 -45.4 L-26.7 -44.25 M-14.4 -33.95 L-14.8 -34.85 -15.7 -36.05 -18.75 -35.3 Q-21.35 -34.7 -22.35 -31.95 L-23.35 -30.9 -22.95 -30.2 -21.65 -28.65 -15.55 -31.95 -13.4 -33.25 -13.8 -34.0 -14.4 -33.95 M-25.3 -39.05 L-25.55 -39.15 -25.7 -39.15 -25.4 -38.45 -25.4 -38.15 Q-25.0 -37.75 -23.35 -37.05 L-22.8 -37.0 Q-22.1 -37.0 -21.35 -37.85 -20.65 -38.6 -20.65 -38.95 L-21.05 -40.2 -21.8 -41.25 -21.8 -40.95 -21.9 -41.25 -25.15 -40.5 -25.3 -39.05 M-21.5 -40.1 L-21.2 -39.2 -22.1 -38.05 Q-22.65 -37.6 -23.1 -37.6 L-23.45 -37.85 -23.05 -37.7 -22.1 -38.05 -21.25 -39.2 -21.5 -40.1 M-27.0 -15.3 L-27.0 -15.15 Q-27.0 -14.4 -26.25 -12.65 L-25.55 -10.95 Q-24.15 -8.05 -22.7 -7.8 L-21.9 -7.65 -20.95 -8.45 -20.05 -8.05 Q-19.65 -8.05 -19.6 -8.2 L-20.1 -9.4 -19.95 -9.55 -20.75 -10.95 Q-22.85 -14.75 -24.8 -17.15 -27.6 -20.5 -27.6 -17.6 L-27.0 -15.3 M-33.2 -27.45 Q-34.25 -28.15 -34.25 -26.6 L-33.95 -25.55 Q-33.55 -24.6 -32.9 -24.6 -32.2 -24.6 -32.2 -25.3 -32.2 -26.7 -33.2 -27.45 M-32.35 -29.75 Q-32.35 -28.8 -31.8 -27.8 -30.9 -26.15 -28.85 -26.15 L-27.55 -26.3 Q-27.25 -26.45 -27.25 -27.0 L-29.75 -29.5 Q-32.35 -31.55 -32.35 -29.75 M-36.55 -26.0 Q-37.3 -26.2 -37.3 -25.05 L-37.3 -24.4 Q-37.15 -23.85 -36.45 -23.85 -35.85 -23.85 -35.85 -24.85 -35.85 -25.7 -36.55 -26.0 M-34.0 -32.35 L-30.8 -31.1 -30.0 -32.35 -34.4 -35.3 -36.45 -39.6 -37.1 -37.0 -35.65 -32.7 -35.45 -32.25 -36.1 -29.25 Q-36.6 -27.3 -36.1 -26.35 L-35.65 -26.55 -35.55 -26.75 -34.8 -28.3 -34.8 -28.15 -34.55 -28.9 -34.5 -29.75 -34.0 -32.35 M-2.25 -0.65 L-2.35 -1.0 Q-3.85 -0.95 -4.25 0.35 L-4.3 1.75 -4.3 2.35 -4.25 3.1 -4.15 3.85 -4.1 4.65 -3.25 6.4 -3.1 6.25 -2.35 5.95 -1.95 5.85 -1.65 5.95 -1.65 5.85 Q-2.4 5.0 -2.7 3.7 L-2.95 2.4 -3.0 1.75 -3.0 1.05 -2.65 0.15 -2.25 -0.65 M-17.75 -8.1 L-19.3 -8.05 -19.35 -7.45 Q-19.35 -6.35 -18.75 -6.15 L-17.75 -6.8 -17.7 -7.45 -17.75 -8.1 M-19.65 -10.4 L-19.35 -9.55 Q-18.85 -8.75 -18.0 -8.6 -16.9 -7.8 -15.55 -7.8 -14.6 -7.8 -14.6 -8.45 L-17.3 -10.95 Q-18.85 -12.1 -19.75 -11.95 L-19.75 -10.5 -19.65 -10.4 M-14.45 -6.35 L-14.45 -7.2 Q-14.6 -7.5 -14.95 -7.6 -15.4 -7.5 -15.4 -6.9 -15.4 -6.3 -14.95 -6.15 L-14.45 -6.35 M-18.75 4.85 L-19.15 3.95 -20.9 3.7 Q-20.9 4.8 -20.05 5.45 L-18.75 4.85 M-17.45 7.0 L-19.15 7.55 -18.65 9.85 Q-17.75 13.05 -19.95 15.15 L-19.65 16.15 -19.15 15.8 -18.3 15.8 -16.7 14.55 -16.6 14.4 -17.45 7.0 M-12.35 12.05 L-10.4 10.15 -15.0 2.7 -14.15 10.15 Q-14.1 11.2 -12.95 11.8 L-12.35 12.05 M-25.7 3.5 Q-27.55 10.9 -22.1 15.5 L-21.75 15.8 -21.05 16.15 -20.8 15.5 -21.75 13.85 Q-24.25 9.05 -24.85 3.2 L-25.7 3.5 M-32.95 6.0 Q-33.25 5.85 -33.55 6.15 L-33.7 7.0 Q-30.6 11.5 -29.9 17.15 L-29.9 17.3 -29.15 17.6 -28.15 17.0 -28.15 16.1 Q-28.3 11.2 -29.8 6.75 -31.35 6.15 -32.95 6.0 M-40.15 18.85 L-40.15 18.25 -40.15 18.05 Q-40.15 13.35 -43.05 9.85 L-44.2 9.75 -43.2 18.45 -43.8 19.3 -43.85 20.15 -40.15 18.85 M-34.55 5.45 Q-35.7 5.15 -36.15 6.15 L-35.55 7.45 Q-34.5 7.1 -34.55 5.45 M-44.7 18.25 Q-44.35 18.25 -44.5 18.05 -44.95 17.45 -46.7 16.15 L-49.05 14.4 -49.3 14.8 -46.85 16.85 -44.7 18.25 M-51.05 6.55 L-51.35 6.45 Q-52.45 6.55 -52.45 8.3 L-52.3 9.85 -51.9 9.9 -51.05 9.75 Q-50.35 9.3 -50.35 8.0 -50.35 6.7 -51.05 6.55 M-46.25 8.3 L-49.0 10.05 -49.0 13.4 -45.8 15.85 Q-45.7 13.55 -46.95 10.65 -46.15 9.45 -46.15 8.4 L-46.25 8.3" fill="#73263e" fill-rule="evenodd" stroke="none"/>
    <path d="M36.7 -49.75 L24.3 -49.3 Q26.25 -50.5 28.05 -51.95 33.4 -56.3 39.65 -58.9 L36.4 -55.8 38.2 -55.3 38.6 -55.85 Q42.65 -58.9 46.25 -62.75 L47.6 -63.95 47.6 -61.95 46.15 -60.05 43.1 -56.15 40.45 -52.85 38.0 -50.75 36.7 -49.75 M-66.0 -11.55 L-64.65 -11.85 Q-63.35 -11.8 -62.2 -12.4 -60.85 -13.0 -59.55 -13.75 L-55.55 -16.0 -50.8 -18.45 -41.9 -22.1 -38.4 -18.6 -39.45 -17.95 -41.2 -16.3 -43.5 -13.15 -44.8 -10.95 -45.55 -9.4 -45.65 -9.25 -47.85 -4.25 -49.3 -0.35 Q-50.6 3.25 -49.85 7.0 L-51.05 6.25 -51.35 6.1 -51.95 5.8 -52.35 6.0 -52.95 6.55 Q-53.65 7.4 -52.1 10.65 L-66.0 -11.55 M-39.35 7.6 Q-39.15 6.85 -38.6 6.25 -36.9 11.9 -34.4 17.6 -37.4 16.55 -39.05 12.6 -40.2 10.45 -39.65 8.4 L-39.35 7.6 M9.05 4.0 L7.5 1.75 7.05 0.9 6.85 0.6 6.05 -0.5 7.45 0.2 9.8 1.6 10.1 1.75 14.0 4.7 17.15 8.0 17.9 8.9 20.1 12.2 20.5 12.95 19.5 12.35 19.35 12.2 13.15 7.75 14.0 9.5 Q11.7 7.55 9.8 5.1 L9.05 4.0 M19.3 5.25 L19.3 5.1 19.45 5.15 20.1 5.45 25.0 13.35 25.7 15.15 Q23.55 13.85 22.1 12.2 L22.1 12.05 20.45 9.6 Q19.5 7.6 19.3 5.25 M20.1 0.9 L19.75 -0.1 20.45 -1.4 22.2 0.75 22.8 1.75 23.7 3.65 23.5 3.55 Q23.5 4.1 24.15 4.7 L24.65 6.55 25.0 8.0 25.1 8.3 24.95 8.15 20.95 3.65 20.1 0.9 M32.25 7.55 L30.0 6.6 29.2 5.1 Q28.75 4.35 29.0 3.4 39.0 3.55 47.6 8.3 L48.1 7.9 Q54.65 2.65 59.45 -4.85 L62.8 -10.1 65.4 -14.15 66.65 -14.6 66.35 -13.9 64.55 -9.2 Q63.5 -6.8 62.15 -4.55 60.3 -1.4 58.1 0.95 L55.25 4.2 52.5 7.3 49.85 10.45 48.45 11.95 48.1 11.8 47.3 11.5 43.5 10.05 38.6 9.0 33.65 7.6 32.5 7.55 32.25 7.55 M42.35 -23.85 L36.75 -25.55 Q32.65 -28.0 29.05 -25.4 25.4 -22.8 23.5 -19.8 21.5 -16.9 17.85 -13.4 14.1 -9.95 11.25 -8.6 L9.8 -7.95 Q7.45 -7.15 4.4 -7.05 -0.8 -6.95 -5.9 -5.2 L-8.8 -7.05 Q-9.05 -6.65 -9.65 -6.65 -11.05 -6.65 -14.6 -10.1 L-15.55 -10.95 Q-18.5 -13.55 -20.65 -13.55 L-23.05 -16.45 -23.1 -16.5 -27.6 -20.35 -27.6 -20.1 Q-27.6 -18.9 -28.45 -18.9 -29.3 -18.9 -29.75 -19.75 L-30.05 -20.7 -30.05 -21.95 -30.15 -21.95 Q-31.6 -21.95 -31.6 -24.1 -31.6 -25.3 -30.8 -25.4 L-30.8 -25.85 -28.5 -25.75 Q-26.45 -25.75 -26.6 -27.0 L-26.6 -28.15 -25.85 -28.2 -24.25 -27.9 -19.75 -28.05 -19.15 -28.05 -9.3 -31.2 Q2.35 -34.4 14.15 -34.7 22.65 -34.95 34.65 -27.75 45.85 -28.95 50.3 -31.4 56.25 -34.45 62.15 -37.3 64.65 -43.4 66.0 -49.6 L64.8 -35.6 64.5 -35.6 61.6 -34.3 56.65 -32.0 51.2 -29.05 Q47.9 -27.3 44.95 -24.9 44.1 -24.3 43.05 -24.1 L42.35 -23.85 M-12.55 -36.0 L-12.25 -35.0 Q-9.05 -33.8 -5.4 -35.0 L-1.5 -35.85 6.45 -37.7 Q9.75 -38.3 13.1 -39.6 14.8 -40.25 16.4 -41.55 16.75 -42.65 16.55 -43.5 L16.4 -44.0 18.0 -41.95 18.0 -41.7 Q16.15 -39.35 12.95 -38.65 L6.0 -36.45 Q1.95 -35.25 -2.25 -34.4 L-9.3 -33.15 Q-11.25 -32.85 -12.55 -34.45 L-12.55 -36.0 M-6.9 -43.4 L-7.75 -42.95 -8.0 -42.8 -10.2 -41.2 Q-14.95 -36.85 -20.5 -36.15 L-20.6 -37.35 Q-13.95 -39.05 -8.65 -43.95 L-2.95 -48.6 Q-3.0 -49.45 -3.25 -49.45 L-3.4 -50.3 -2.8 -50.35 -2.8 -50.3 -1.65 -48.3 -1.5 -48.0 Q-3.1 -46.3 -6.9 -43.4 M5.45 -25.85 L4.95 -25.0 3.5 -25.25 2.4 -25.6 5.45 -25.85 M7.75 -27.0 Q10.95 -27.75 14.25 -26.55 L15.4 -26.15 16.4 -26.2 11.8 -29.65 -0.8 -28.05 -6.9 -26.2 -8.65 -25.6 -10.65 -24.25 Q-13.35 -21.85 -16.4 -20.25 -17.85 -19.6 -19.5 -19.75 L-20.05 -19.6 -20.9 -18.35 Q-16.4 -14.25 -11.2 -10.95 L-8.45 -9.25 Q-7.75 -8.8 -6.75 -8.65 L-5.0 -8.75 Q-5.4 -10.05 -4.1 -10.1 L1.2 -10.7 1.85 -9.35 7.15 -10.95 12.25 -12.95 Q15.15 -14.25 15.4 -17.05 14.45 -15.55 12.8 -14.6 11.95 -14.0 10.8 -14.0 L10.9 -15.4 Q12.65 -17.6 14.0 -20.25 14.3 -22.8 12.2 -23.6 9.5 -24.9 6.85 -25.45 L7.75 -27.0 M10.75 -18.3 L10.8 -17.8 10.65 -17.45 Q10.1 -16.45 9.15 -15.9 9.15 -15.45 8.65 -15.15 8.15 -14.85 7.45 -14.85 L4.45 -14.25 Q4.3 -14.1 4.15 -14.25 L4.4 -14.55 7.45 -16.5 10.2 -18.75 10.75 -18.3 M2.7 -4.0 Q1.95 -4.0 1.05 -4.7 L0.25 -5.35 Q0.25 -6.45 2.0 -6.45 4.1 -6.45 4.1 -5.15 4.1 -4.0 2.7 -4.0 M14.7 -1.15 L15.85 0.95 16.25 1.75 16.6 2.7 15.15 2.9 15.1 2.9 Q14.45 2.4 14.15 1.75 L13.85 0.8 13.5 -1.3 14.7 -1.15 M29.35 -3.15 L30.45 -4.6 Q36.25 -6.6 42.35 -7.45 L49.0 -8.1 Q45.1 -6.2 41.9 -3.7 38.2 -0.55 33.5 -1.3 L29.75 -1.7 28.7 -1.7 28.35 -1.8 29.35 -3.15 M62.45 -41.5 L61.05 -39.05 59.4 -39.65 60.75 -40.8 62.45 -41.5 M53.25 -35.0 L52.5 -34.95 Q50.0 -33.15 46.6 -33.0 L43.65 -32.55 Q47.25 -37.75 52.95 -40.35 55.85 -41.7 58.6 -43.4 56.4 -38.65 53.25 -35.0 M52.1 -3.15 L42.95 1.35 37.85 -0.35 Q43.65 -3.4 50.15 -2.7 L52.1 -3.15 M-44.65 -34.4 L-43.8 -34.55 -43.85 -34.7 -44.2 -35.3 -43.4 -34.0 Q-44.4 -33.4 -45.5 -32.95 L-46.6 -32.4 -47.45 -32.95 -44.65 -34.4 M-42.1 -23.95 L-42.05 -23.95 -40.3 -22.65 -38.3 -26.3 Q-37.45 -28.3 -37.45 -30.5 -37.45 -31.95 -38.0 -33.55 L-38.75 -36.4 -38.85 -36.9 Q-36.55 -36.45 -36.55 -30.35 L-36.6 -28.35 -37.3 -25.9 Q-37.75 -24.6 -38.6 -23.3 -39.6 -21.8 -40.2 -21.8 -40.75 -21.8 -41.65 -22.5 L-42.5 -23.15 -42.1 -23.95 M-44.55 -19.1 Q-46.1 -18.3 -47.45 -17.3 L-49.9 -15.2 Q-52.05 -13.25 -53.5 -10.8 -54.4 -9.4 -54.5 -7.75 -54.55 -4.85 -54.2 -1.85 L-53.05 -2.4 -52.35 -5.05 -51.65 -6.8 -51.05 -7.9 -50.45 -8.9 -50.2 -9.25 -49.15 -10.95 -47.9 -12.7 -44.35 -17.3 -44.35 -18.95 -44.55 -19.1 M-18.2 -47.7 L-18.2 -48.35 -18.05 -48.35 Q-17.75 -48.15 -17.75 -47.6 -17.75 -46.0 -19.75 -43.8 -21.8 -41.55 -23.25 -41.55 -24.55 -41.55 -25.75 -42.65 L-26.85 -43.95 -26.85 -44.0 -26.75 -44.3 -26.7 -44.25 Q-26.15 -44.1 -24.7 -42.65 L-22.7 -42.65 Q-20.1 -44.1 -19.2 -45.15 -18.75 -45.7 -18.45 -46.4 L-18.3 -47.05 -18.2 -47.6 -18.2 -47.7 M-14.4 -33.95 L-13.8 -34.0 -13.4 -33.25 -15.55 -31.95 -21.65 -28.65 -22.95 -30.2 -23.35 -30.9 -22.35 -31.95 -22.35 -31.85 -21.2 -29.9 -14.4 -33.95 M-21.8 -40.95 L-21.8 -41.25 -21.05 -40.2 -20.65 -38.95 Q-20.65 -38.6 -21.35 -37.85 -22.1 -37.0 -22.8 -37.0 L-23.35 -37.05 Q-25.0 -37.75 -25.4 -38.15 L-25.4 -38.45 -25.7 -39.15 -25.55 -39.15 -25.3 -39.05 -25.0 -38.65 -24.95 -38.65 -23.55 -37.9 -23.45 -37.85 -23.1 -37.6 Q-22.65 -37.6 -22.1 -38.05 L-21.2 -39.2 -21.5 -40.1 -21.8 -40.8 -21.8 -40.95 M-34.0 -32.35 L-34.5 -29.75 -34.55 -28.9 -34.8 -28.15 -34.8 -28.3 -35.55 -26.75 -35.65 -26.55 -36.1 -26.35 Q-36.6 -27.3 -36.1 -29.25 L-35.45 -32.25 -35.65 -32.7 -37.1 -37.0 -36.45 -39.6 -34.4 -35.3 -30.0 -32.35 -30.8 -31.1 -34.0 -32.35 M-36.55 -26.0 Q-35.85 -25.7 -35.85 -24.85 -35.85 -23.85 -36.45 -23.85 -37.15 -23.85 -37.3 -24.4 L-37.3 -25.05 Q-37.3 -26.2 -36.55 -26.0 M-32.35 -29.75 Q-32.35 -31.55 -29.75 -29.5 L-27.25 -27.0 Q-27.25 -26.45 -27.55 -26.3 L-28.85 -26.15 Q-30.9 -26.15 -31.8 -27.8 -32.35 -28.8 -32.35 -29.75 M-33.2 -27.45 Q-32.2 -26.7 -32.2 -25.3 -32.2 -24.6 -32.9 -24.6 -33.55 -24.6 -33.95 -25.55 L-34.25 -26.6 Q-34.25 -28.15 -33.2 -27.45 M-27.0 -15.3 L-27.6 -17.6 Q-27.6 -20.5 -24.8 -17.15 -22.85 -14.75 -20.75 -10.95 L-19.95 -9.55 -20.1 -9.4 -19.6 -8.2 Q-19.65 -8.05 -20.05 -8.05 L-20.95 -8.45 -21.9 -7.65 -22.7 -7.8 Q-24.15 -8.05 -25.55 -10.95 L-26.25 -12.65 Q-27.0 -14.4 -27.0 -15.15 L-27.0 -15.3 M-14.45 -6.35 L-14.95 -6.15 Q-15.4 -6.3 -15.4 -6.9 -15.4 -7.5 -14.95 -7.6 -14.6 -7.5 -14.45 -7.2 L-14.45 -6.35 M-19.65 -10.4 L-19.75 -10.5 -19.75 -11.95 Q-18.85 -12.1 -17.3 -10.95 L-14.6 -8.45 Q-14.6 -7.8 -15.55 -7.8 -16.9 -7.8 -18.0 -8.6 -18.85 -8.75 -19.35 -9.55 L-19.65 -10.4 M-17.75 -8.1 L-17.7 -7.45 -17.75 -6.8 -18.75 -6.15 Q-19.35 -6.35 -19.35 -7.45 L-19.3 -8.05 -17.75 -8.1 M-2.25 -0.65 L-2.65 0.15 -3.0 1.05 -3.0 1.75 -2.95 2.4 -2.7 3.7 Q-2.4 5.0 -1.65 5.85 L-1.65 5.95 -1.95 5.85 -2.35 5.95 -3.1 6.25 -3.25 6.4 -4.1 4.65 -4.15 3.85 -4.25 3.1 -4.3 2.35 -4.3 1.75 -4.25 0.35 Q-3.85 -0.95 -2.35 -1.0 L-2.25 -0.65 M-12.35 12.05 L-12.95 11.8 Q-14.1 11.2 -14.15 10.15 L-15.0 2.7 -10.4 10.15 -12.35 12.05 M-25.7 3.5 L-24.85 3.2 Q-24.25 9.05 -21.75 13.85 L-20.8 15.5 -21.05 16.15 -21.75 15.8 -22.1 15.5 Q-27.55 10.9 -25.7 3.5 M-46.25 8.3 L-46.15 8.4 Q-46.15 9.45 -46.95 10.65 -45.7 13.55 -45.8 15.85 L-49.0 13.4 -49.0 10.05 -46.25 8.3 M-51.05 6.55 Q-50.35 6.7 -50.35 8.0 -50.35 9.3 -51.05 9.75 L-51.9 9.9 -52.3 9.85 -52.45 8.3 Q-52.45 6.55 -51.35 6.45 L-51.05 6.55 M-44.7 18.25 L-46.85 16.85 -49.3 14.8 -49.05 14.4 -46.7 16.15 Q-44.95 17.45 -44.5 18.05 -44.35 18.25 -44.7 18.25" fill="#380e12" fill-rule="evenodd" stroke="none"/>
    <path d="M-7.0 5.0 L-6.85 7.85 -9.45 9.6 -9.45 9.35 -9.6 8.7 -9.9 5.7 -10.05 4.85 Q-10.35 3.25 -11.2 1.75 L-11.25 1.65 -9.6 1.75 -7.75 3.55 -7.0 5.0 M2.4 3.4 L2.4 3.55 2.35 5.1 2.25 5.4 2.2 5.55 1.95 6.15 -1.2 6.0 -1.2 5.95 -0.65 1.1 -1.55 0.3 -0.95 -0.2 -0.4 -0.2 0.05 -0.05 Q1.4 0.35 1.95 1.75 L2.2 2.4 2.4 3.4 M16.4 -44.0 L16.55 -43.5 Q16.75 -42.65 16.4 -41.55 14.8 -40.25 13.1 -39.6 9.75 -38.3 6.45 -37.7 L-1.5 -35.85 -5.4 -35.0 Q-9.05 -33.8 -12.25 -35.0 L-12.55 -36.0 -12.8 -36.6 -10.2 -41.2 -8.0 -42.8 -7.75 -42.95 -6.9 -43.4 Q-2.35 -45.75 2.55 -47.7 7.05 -49.5 11.95 -48.5 14.45 -47.0 16.4 -44.0 M-43.85 -34.7 L-43.95 -34.75 -44.65 -34.4 -47.45 -32.95 -47.9 -32.7 -47.6 -33.55 Q-46.3 -35.7 -44.35 -37.15 L-39.15 -37.15 -38.75 -36.4 -38.0 -33.55 Q-37.45 -31.95 -37.45 -30.5 -37.45 -28.3 -38.3 -26.3 L-40.3 -22.65 -42.05 -23.95 -42.1 -23.95 Q-40.75 -30.1 -43.4 -34.0 L-44.2 -35.3 -43.85 -34.7 M-61.8 -13.25 L-61.95 -13.6 Q-61.95 -14.55 -55.4 -17.8 -48.85 -21.2 -46.4 -21.35 L-46.3 -21.1 Q-60.7 -13.15 -61.35 -13.15 L-61.8 -13.25 M-43.95 -23.1 Q-42.9 -22.8 -42.9 -22.35 -42.9 -21.55 -43.7 -21.55 -44.2 -21.55 -44.4 -21.8 L-44.25 -22.55 -43.95 -23.1 M-3.4 -50.3 L-3.25 -49.45 Q-3.0 -49.45 -2.95 -48.6 L-8.65 -43.95 Q-13.95 -39.05 -20.6 -37.35 -16.0 -42.4 -14.1 -48.45 L-15.1 -49.3 Q-8.65 -51.5 -3.4 -50.3 M-26.7 -44.25 L-25.95 -45.4 Q-23.65 -47.85 -20.5 -49.3 L-19.9 -49.15 -18.35 -48.35 -18.2 -47.7 -18.2 -47.6 -18.3 -47.05 -18.45 -46.4 Q-18.75 -45.7 -19.2 -45.15 -20.1 -44.1 -22.7 -42.65 L-24.7 -42.65 Q-26.15 -44.1 -26.7 -44.25 M-22.35 -31.95 Q-21.35 -34.7 -18.75 -35.3 L-15.7 -36.05 -14.8 -34.85 -14.4 -33.95 -21.2 -29.9 -22.35 -31.85 -22.35 -31.95 M-25.3 -39.05 L-25.15 -40.5 -21.9 -41.25 -21.8 -40.95 -21.8 -40.8 -21.5 -40.1 -21.25 -39.2 -22.1 -38.05 -23.05 -37.7 -23.45 -37.85 -23.55 -37.9 -24.95 -38.65 -25.0 -38.65 -25.3 -39.05 M-18.75 4.85 L-20.05 5.45 Q-20.9 4.8 -20.9 3.7 L-19.15 3.95 -18.75 4.85 M-17.45 7.0 L-16.6 14.4 -16.7 14.55 -18.3 15.8 -19.15 15.8 -19.65 16.15 -19.95 15.15 Q-17.75 13.05 -18.65 9.85 L-19.15 7.55 -17.45 7.0 M-32.95 6.0 Q-31.35 6.15 -29.8 6.75 -28.3 11.2 -28.15 16.1 L-28.15 17.0 -29.15 17.6 -29.9 17.3 -29.9 17.15 Q-30.6 11.5 -33.7 7.0 L-33.55 6.15 Q-33.25 5.85 -32.95 6.0 M-34.55 5.45 Q-34.5 7.1 -35.55 7.45 L-36.15 6.15 Q-35.7 5.15 -34.55 5.45 M-40.15 18.85 L-43.85 20.15 -43.8 19.3 -43.2 18.45 -44.2 9.75 -43.05 9.85 Q-40.15 13.35 -40.15 18.05 L-40.15 18.25 -40.15 18.85" fill="#e0bcd8" fill-rule="evenodd" stroke="none"/>
    <path d="M-39.35 18.15 Q-39.9 12.4 -44.05 8.2 L-44.5 7.4 -44.2 7.6 -42.8 8.15 -41.5 8.6 -39.75 6.6 -39.35 7.6 -39.65 8.4 -40.35 9.85 Q-39.45 16.4 -36.9 17.55 L-39.35 18.15 M-27.4 16.15 Q-26.4 15.95 -28.6 7.45 L-29.15 6.85 Q-30.15 5.85 -31.8 5.7 L-32.4 4.55 -32.2 4.5 -29.65 5.55 -26.25 3.4 -26.0 4.65 -27.6 7.1 Q-26.45 14.8 -25.3 15.95 L-27.4 16.15 M-15.6 14.1 L-15.9 10.6 Q-16.45 7.75 -17.2 6.15 -18.15 4.2 -19.15 2.95 L-17.05 3.05 -15.6 1.45 -15.7 1.75 Q-16.9 5.7 -15.25 9.05 L-14.1 13.4 -15.6 14.1 M-6.2 7.3 L-7.0 5.0 -7.75 3.55 -10.1 0.35 -10.35 0.15 -9.6 0.05 -7.6 1.5 -5.7 -0.05 -5.75 1.75 -5.6 3.1 -5.55 3.55 -5.4 4.0 -5.15 4.85 -4.6 6.1 -4.4 6.85 -6.2 7.3 M2.85 4.55 L2.4 3.4 2.2 2.4 1.95 1.75 Q1.4 0.35 0.05 -0.05 L-0.4 -0.2 0.25 -1.4 1.05 -0.95 4.85 1.75 5.1 1.95 7.35 4.35 7.85 4.85 8.5 5.85 6.7 3.85 6.15 4.1 3.25 4.65 3.1 4.65 Q3.0 4.8 2.85 4.55 M5.45 -25.85 L2.4 -25.6 3.5 -25.25 4.95 -25.0 5.45 -25.85 M7.75 -27.0 L6.85 -25.45 Q9.5 -24.9 12.2 -23.6 14.3 -22.8 14.0 -20.25 12.65 -17.6 10.9 -15.4 L10.8 -14.0 Q11.95 -14.0 12.8 -14.6 14.45 -15.55 15.4 -17.05 15.15 -14.25 12.25 -12.95 L7.15 -10.95 1.85 -9.35 1.2 -10.7 -4.1 -10.1 Q-5.4 -10.05 -5.0 -8.75 L-6.75 -8.65 Q-7.75 -8.8 -8.45 -9.25 L-11.2 -10.95 Q-16.4 -14.25 -20.9 -18.35 L-20.05 -19.6 -19.5 -19.75 Q-17.85 -19.6 -16.4 -20.25 -13.35 -21.85 -10.65 -24.25 L-8.65 -25.6 -6.9 -26.2 -0.8 -28.05 11.8 -29.65 16.4 -26.2 15.4 -26.15 14.25 -26.55 Q10.95 -27.75 7.75 -27.0 M10.75 -18.3 L10.2 -18.75 7.45 -16.5 4.4 -14.55 4.15 -14.25 Q4.3 -14.1 4.45 -14.25 L7.45 -14.85 Q8.15 -14.85 8.65 -15.15 9.15 -15.45 9.15 -15.9 10.1 -16.45 10.65 -17.45 L10.8 -17.8 10.75 -18.3 M-44.55 -19.1 L-44.35 -18.95 -44.35 -17.3 -47.9 -12.7 -49.15 -10.95 -50.2 -9.25 -50.45 -8.9 -51.05 -7.9 -51.65 -6.8 -52.35 -5.05 -53.05 -2.4 -54.2 -1.85 Q-54.55 -4.85 -54.5 -7.75 -54.4 -9.4 -53.5 -10.8 -52.05 -13.25 -49.9 -15.2 L-47.45 -17.3 Q-46.1 -18.3 -44.55 -19.1 M-8.2 -21.25 Q-16.4 -18.45 -10.6 -12.0 -4.45 -10.35 -1.2 -15.7 -0.2 -23.8 -8.2 -21.25" fill="#000000" fill-rule="evenodd" stroke="none"/>
    <path d="M7.35 4.35 Q7.5 4.2 7.75 4.1 L9.05 4.0 9.8 5.1 Q11.7 7.55 14.0 9.5 L13.15 7.75 19.35 12.2 19.15 12.1 18.0 11.8 Q18.05 12.1 19.05 13.1 19.95 13.95 19.95 14.55 L19.65 15.15 19.2 15.85 19.2 16.55 19.75 16.55 20.05 18.0 19.75 17.7 Q19.05 16.85 18.0 16.4 L18.6 16.45 18.65 15.65 18.75 15.5 19.2 14.85 19.15 14.55 Q17.55 11.65 14.3 10.45 L14.55 11.05 15.15 12.75 Q15.75 14.35 16.75 15.8 L17.0 16.0 17.05 16.1 16.0 15.8 16.9 17.15 15.85 17.0 16.0 18.25 15.9 18.45 15.7 19.05 15.0 18.0 14.7 17.55 14.7 17.0 Q14.85 15.95 14.55 15.0 13.8 12.8 12.4 10.9 L9.8 7.55 8.5 5.85 7.85 4.85 7.35 4.35 M14.0 4.7 L13.35 3.1 13.55 3.25 14.3 3.25 14.3 3.2 13.25 1.25 Q12.65 0.3 12.65 -0.5 L12.7 -0.7 13.0 -1.15 Q13.4 -1.55 13.4 -1.85 L12.8 -1.85 13.25 -2.1 Q16.4 -3.3 17.45 -0.25 17.85 0.75 17.85 1.75 L17.7 2.7 17.7 2.25 17.3 0.8 Q16.85 -0.5 16.3 -0.7 16.25 -0.1 16.6 0.8 L17.05 2.35 16.75 3.05 16.6 3.7 17.3 3.7 17.05 4.1 Q16.9 4.35 17.05 4.55 L17.55 4.95 Q18.3 5.45 19.3 5.25 19.5 7.6 20.45 9.6 L19.8 8.7 Q18.45 6.75 16.75 5.7 19.35 10.5 22.1 13.05 L22.1 12.2 Q23.55 13.85 25.7 15.15 L25.0 13.35 20.1 5.45 19.45 5.15 Q19.6 4.55 18.9 3.65 L18.5 2.8 Q18.35 2.2 18.65 1.75 L18.85 1.6 18.75 2.35 18.85 3.35 19.5 4.5 20.3 4.5 20.3 4.4 19.8 3.4 Q19.35 2.9 19.35 2.4 L20.1 1.45 20.05 1.05 19.65 1.05 20.1 0.9 20.95 3.65 24.95 8.15 Q24.15 9.45 25.0 10.65 L25.45 11.15 27.55 11.3 27.85 10.75 Q28.3 9.2 29.0 8.2 L29.15 7.7 Q29.15 6.75 30.35 7.0 L30.95 7.1 Q31.5 7.15 31.9 7.55 L30.35 7.45 30.9 8.05 32.55 9.05 Q33.7 10.75 36.55 11.35 L36.7 11.45 39.15 12.75 39.15 13.5 39.3 16.7 39.6 20.9 Q39.85 23.35 41.15 25.4 L39.9 30.05 38.15 33.65 34.95 39.3 30.2 47.65 27.45 52.05 24.7 56.65 22.35 60.3 21.25 62.05 19.9 63.95 18.2 65.75 17.0 66.95 8.6 66.5 7.85 65.9 4.85 63.8 1.2 61.55 Q-0.75 60.45 -2.65 59.55 L-6.55 57.8 -7.5 57.4 -8.5 56.95 -10.95 55.75 -15.1 53.2 -15.45 51.6 -16.0 48.45 -16.0 47.5 -14.25 46.5 -13.4 46.05 -13.1 46.4 Q-13.55 46.4 -14.15 46.8 L-14.7 47.25 -13.85 47.3 -13.95 47.4 -14.25 47.5 Q-15.0 47.7 -14.85 48.45 L-14.8 48.8 Q-14.6 49.0 -14.6 49.55 L-14.6 50.3 -14.3 52.0 -14.15 52.2 -13.95 52.45 -12.25 53.95 -12.05 54.2 -10.95 55.1 -10.6 55.35 -10.1 55.55 -9.5 55.95 -8.15 56.7 -9.15 55.65 -9.65 55.05 -10.65 53.8 -11.05 53.15 Q-11.2 52.8 -11.5 52.65 L-11.95 52.45 -11.95 52.3 -11.8 52.2 Q-11.55 52.05 -11.7 51.7 L-12.05 50.6 -12.55 49.0 -12.7 48.7 -13.1 47.65 Q-12.25 48.15 -11.5 49.3 L-10.8 50.55 -8.9 53.8 -8.65 54.2 -7.45 55.35 -7.5 55.35 -7.5 56.1 -6.9 56.1 -6.9 55.4 -7.2 55.4 -7.2 54.8 -8.0 53.8 -8.2 53.5 -10.5 50.0 -10.95 48.95 -8.6 52.0 -7.85 53.15 -7.35 53.8 -6.75 54.75 -5.9 54.9 -6.05 54.45 -6.4 53.8 -7.05 52.65 -8.0 51.3 -10.2 48.3 -9.45 47.8 -8.95 47.5 -7.5 47.25 -5.7 46.65 -4.25 46.05 -5.1 46.95 -3.95 46.95 Q-3.55 46.55 -2.35 46.55 -1.95 46.55 -1.5 46.85 -2.95 46.7 -2.95 47.25 L-2.65 47.65 Q-2.35 47.95 -2.35 48.45 L-1.4 48.45 -1.4 46.95 Q-1.1 47.1 -0.8 47.4 L0.35 48.7 Q-0.05 48.95 -0.05 49.4 L1.05 49.4 1.8 49.25 Q0.75 47.25 -0.25 46.25 L1.55 47.65 1.85 47.5 2.25 47.5 2.35 47.1 2.2 46.7 -2.0 41.0 0.9 37.3 0.95 37.15 1.1 37.25 2.65 38.0 6.85 36.15 10.4 40.6 11.25 40.75 11.5 40.15 9.9 37.4 9.8 37.3 8.0 34.65 9.8 32.2 9.9 32.05 11.9 29.2 12.05 29.0 12.35 28.3 12.85 28.55 15.25 30.85 17.0 32.6 16.75 32.35 12.5 27.4 12.5 23.9 12.5 23.1 12.8 23.05 15.9 23.75 Q16.7 23.8 17.3 24.4 L19.05 26.65 19.0 26.1 17.85 23.75 17.75 23.55 16.6 21.6 16.0 20.0 15.85 19.55 16.3 19.75 16.45 19.9 Q17.2 21.75 18.75 23.25 L19.45 22.6 19.6 22.35 Q19.75 21.8 20.3 21.35 L20.35 21.15 20.1 20.2 Q21.05 20.8 21.8 21.0 L21.8 20.65 21.95 21.9 22.55 21.9 22.55 21.0 Q22.35 20.75 21.8 20.65 L21.8 20.3 20.75 18.85 20.9 18.7 Q20.95 18.6 21.05 18.6 L21.65 18.3 21.65 18.25 21.75 17.9 21.75 16.55 21.55 16.25 20.75 16.0 20.2 16.0 20.5 15.5 20.75 14.95 21.75 15.85 22.25 16.4 23.05 16.4 23.05 15.65 20.9 13.35 20.5 12.95 20.1 12.2 17.9 8.9 17.15 8.0 14.0 4.7 M12.05 -0.2 Q11.9 -0.55 12.05 -0.95 L12.05 -0.5 12.05 -0.2 M22.2 0.75 Q23.25 0.95 24.4 1.75 L24.55 1.9 Q26.75 3.55 26.55 6.15 26.45 7.1 25.55 7.55 L25.0 8.0 24.65 6.55 24.15 4.7 25.45 5.55 25.45 4.7 24.8 4.1 Q24.5 3.7 23.7 3.65 L22.8 1.75 22.2 0.75 M19.05 -3.4 L19.05 -4.0 Q17.85 -3.75 17.0 -4.75 L16.45 -5.85 Q16.45 -6.2 17.2 -6.9 18.15 -7.8 19.3 -7.8 L20.3 -7.6 20.3 -7.65 20.45 -7.9 Q20.75 -7.6 20.75 -6.95 L20.8 -6.35 Q21.05 -5.05 20.6 -4.25 L20.45 -4.0 19.95 -3.6 19.05 -3.4 M16.1 -4.7 L16.25 -4.4 Q16.9 -3.3 18.45 -3.4 L18.6 -3.3 16.9 -3.4 16.15 -3.6 16.1 -4.55 16.1 -4.7 M14.7 -1.15 L13.5 -1.3 13.85 0.8 14.15 1.75 Q14.45 2.4 15.1 2.9 L15.15 2.9 16.6 2.7 16.25 1.75 15.85 0.95 14.7 -1.15 M20.05 -6.05 Q20.1 -5.35 19.45 -5.35 L18.6 -5.6 18.6 -5.15 18.65 -4.85 Q18.65 -4.6 19.5 -4.6 L19.45 -4.45 Q19.2 -4.25 19.2 -3.75 L20.05 -3.75 20.6 -5.9 Q20.6 -7.3 19.8 -7.3 L20.05 -6.05 M26.25 -3.55 L27.0 -3.7 27.9 -3.7 26.25 -3.55 M28.35 -3.6 Q29.0 -3.45 29.35 -3.15 L28.35 -1.8 26.25 -2.1 26.25 -1.25 Q26.0 -1.4 25.7 -1.7 25.15 -2.1 25.15 -2.4 25.15 -2.95 28.35 -3.0 L28.35 -3.6 M29.75 -1.7 L29.45 -1.15 Q28.3 -0.2 26.7 -0.2 25.55 -0.2 24.8 -1.1 L24.4 -1.65 24.55 -2.25 24.65 -1.65 25.45 -0.7 26.4 -0.7 26.4 -0.85 27.85 -0.55 28.7 -0.8 28.7 -1.7 29.75 -1.7 M36.3 15.15 L35.65 13.05 Q35.3 12.1 34.5 12.2 L33.85 12.35 33.25 12.6 Q32.4 12.65 32.35 13.35 L32.4 13.55 33.85 15.8 34.25 16.25 34.95 16.85 35.0 16.85 36.0 16.1 36.15 16.0 36.45 15.95 36.45 15.85 Q37.4 16.0 37.4 16.55 L37.1 17.7 37.1 18.4 37.7 18.4 37.85 18.15 38.0 16.55 37.9 15.8 Q37.55 15.15 36.3 15.15 M23.95 9.2 L23.95 8.55 22.85 6.7 Q22.35 5.7 21.2 5.4 L22.05 7.4 Q22.55 8.6 23.95 9.2 M36.6 29.3 L36.4 28.6 35.95 26.95 Q35.7 26.0 35.7 25.1 35.55 22.45 36.0 19.75 L35.95 19.35 35.55 18.85 35.4 18.7 Q34.7 18.4 34.35 17.75 33.5 16.45 32.25 15.4 31.2 14.25 30.8 12.9 30.75 12.5 30.5 12.4 29.75 12.35 29.15 12.65 L29.0 12.75 Q29.15 14.05 29.9 15.15 30.05 15.0 30.05 15.15 L30.05 15.4 30.2 15.65 30.5 15.95 30.65 16.0 Q31.1 16.15 31.25 16.4 L30.95 16.3 31.2 17.45 31.35 17.75 31.75 18.4 31.8 18.7 Q31.9 19.55 31.6 20.2 L31.25 20.65 31.2 21.15 31.25 23.1 Q31.25 23.75 30.65 23.8 30.3 23.8 30.3 24.35 L30.3 24.65 30.35 41.0 30.35 41.6 30.45 41.75 Q30.6 42.35 30.95 42.5 L31.25 42.2 31.45 42.05 31.45 42.8 32.05 42.8 32.05 42.65 Q32.5 41.05 35.4 36.5 L38.15 31.8 Q38.15 30.85 37.75 30.3 37.3 29.7 37.3 29.2 L37.4 28.55 36.75 28.45 36.6 29.3 M37.4 32.05 L37.0 30.4 37.1 30.5 37.45 31.75 37.4 32.05 M29.9 18.55 L30.05 18.0 30.05 16.6 29.3 16.55 29.3 18.55 29.9 18.55 M29.6 24.55 L29.0 24.5 Q28.85 24.65 28.85 25.25 L29.6 25.25 29.6 24.55 M27.3 20.65 L27.45 21.6 Q27.75 22.5 28.3 22.5 29.15 22.5 29.3 21.95 L29.3 21.05 Q29.3 20.6 28.3 20.0 27.3 19.35 27.3 20.65 M20.6 23.9 L21.5 23.9 21.5 21.8 Q20.35 21.75 20.05 22.2 L19.95 23.05 20.6 23.9 M36.85 20.2 Q36.6 21.45 36.7 22.65 L36.85 22.9 37.25 23.05 Q38.15 23.1 38.6 22.65 L38.75 22.5 Q39.05 21.95 38.9 21.3 38.75 20.0 37.4 20.15 L36.85 20.2 M38.6 23.5 L37.85 23.4 37.55 25.8 37.55 26.5 38.15 26.5 38.3 26.3 38.6 24.85 38.6 23.5 M11.1 7.7 Q12.25 9.9 14.3 11.2 L14.3 10.5 13.15 9.0 Q12.5 8.15 11.1 7.7 M14.95 23.75 L14.95 24.35 Q16.15 24.65 16.75 26.0 17.45 27.45 18.45 27.85 18.45 26.95 18.65 26.85 L18.9 26.8 Q18.9 26.5 17.3 25.1 15.6 23.75 14.95 23.75 M16.25 26.95 L16.0 25.55 15.9 25.1 Q15.75 24.65 15.25 24.7 L13.85 24.7 Q13.25 24.65 13.1 24.95 L13.15 25.1 13.35 25.55 13.15 26.0 Q12.8 26.95 13.35 27.45 L13.7 27.85 14.45 28.55 14.7 28.7 16.4 30.45 16.9 31.45 17.55 32.45 17.7 32.45 18.9 32.45 17.85 29.4 17.75 28.9 Q17.75 28.45 17.35 28.15 L17.05 28.1 Q16.45 27.95 16.4 27.4 L16.25 26.95 M18.9 27.7 L18.65 27.75 18.35 27.95 Q18.05 28.25 18.0 28.6 L18.05 28.85 18.2 29.15 18.35 29.4 18.65 30.3 19.05 31.35 20.05 30.75 20.2 30.45 20.3 30.15 Q20.3 29.55 19.95 28.9 L19.6 28.3 19.6 28.25 Q19.35 27.75 18.9 27.7 M12.95 30.6 Q13.35 30.6 13.15 30.7 L14.25 32.5 Q14.95 33.65 14.95 34.7 L15.7 34.7 15.7 34.65 15.85 33.75 16.3 34.25 17.05 34.25 17.05 33.45 Q16.7 32.3 14.55 30.6 12.85 29.3 12.05 29.9 11.5 30.2 11.25 31.15 L11.25 31.8 12.1 31.8 12.35 31.35 12.4 31.2 Q12.7 30.6 12.95 30.6 M11.9 31.95 L11.65 31.95 10.95 32.75 10.75 32.95 9.9 33.8 9.3 34.25 Q8.8 34.35 8.9 34.7 L8.95 35.05 9.6 36.4 9.8 36.65 10.2 37.0 11.1 38.25 11.5 38.6 12.65 40.05 12.85 40.45 12.95 40.35 13.1 40.3 Q13.35 40.15 13.55 40.05 L13.8 40.0 13.85 39.85 14.0 38.85 13.25 39.0 13.1 38.9 Q12.1 37.1 11.9 34.9 L11.7 34.2 Q11.65 33.75 11.95 33.45 L12.35 32.75 12.4 32.6 11.9 31.95 M17.7 35.5 L17.7 34.5 16.45 34.5 16.45 35.65 16.75 35.95 17.55 35.95 Q17.55 35.55 17.7 35.5 M16.1 36.85 Q16.15 36.35 15.85 36.25 15.45 36.4 15.15 36.8 L14.25 37.55 Q13.95 37.95 14.0 38.4 L14.1 38.7 14.3 39.15 14.65 39.4 Q15.1 38.75 15.7 38.4 L15.85 38.1 16.1 36.85 M5.75 38.45 L6.2 38.3 6.2 38.7 6.6 39.25 6.0 39.4 5.9 39.75 5.9 40.7 7.15 41.0 7.9 40.75 Q8.6 40.85 9.15 42.05 L10.5 42.05 10.5 41.35 8.3 39.1 Q7.05 37.8 6.7 37.1 L4.7 37.3 Q3.15 37.7 3.15 38.85 L3.3 38.85 2.25 39.15 Q1.1 39.4 0.9 38.55 L-0.05 39.45 -0.25 39.7 -0.8 40.2 -0.95 40.35 -0.75 41.3 -0.55 41.6 -0.4 41.85 0.35 42.95 2.0 45.55 3.95 48.0 4.15 48.25 4.3 48.3 Q4.6 47.95 5.0 48.0 L5.3 47.95 6.2 47.85 Q6.9 48.0 6.75 47.4 L6.6 47.15 6.4 46.8 Q6.0 45.65 5.0 44.8 L4.85 44.65 Q4.7 44.2 5.0 44.1 L5.15 44.05 Q5.4 42.35 4.85 40.85 L4.75 40.55 Q4.75 40.35 4.95 40.3 6.0 39.7 5.75 38.45 M9.45 42.2 Q9.3 42.45 9.3 42.75 9.3 43.1 9.6 43.45 L10.5 43.45 10.5 43.35 10.2 42.3 9.45 42.2 M8.2 44.5 L7.9 44.6 Q6.85 44.9 5.9 44.2 L5.9 44.5 Q5.85 45.05 6.05 45.25 L6.3 45.5 7.0 46.2 7.2 46.35 7.3 46.35 7.6 46.2 8.5 45.95 Q9.3 45.7 9.15 44.8 L9.05 44.65 8.2 44.5 M29.9 41.0 Q29.6 39.45 29.6 37.55 L28.85 37.45 28.7 38.3 29.3 42.2 29.9 42.2 29.9 41.0 M22.5 55.35 L22.4 55.2 Q20.5 55.05 18.6 55.2 L17.7 55.25 16.75 55.5 16.6 55.65 Q16.45 56.85 16.45 58.1 L16.55 58.4 17.0 58.65 17.55 59.0 19.15 59.6 19.15 60.1 Q18.65 61.05 19.0 61.9 L19.2 61.9 20.1 61.55 21.05 60.9 21.35 60.75 Q22.25 60.3 22.7 59.45 L22.8 59.0 22.5 55.35 M24.25 52.0 L23.85 51.6 Q22.85 50.55 21.5 51.45 L20.95 51.75 Q20.3 52.15 20.75 52.75 L20.95 53.0 22.1 53.8 Q22.4 54.05 22.5 54.45 22.55 54.8 23.05 54.65 L23.95 54.25 24.1 54.1 24.3 52.35 24.3 52.05 24.25 52.0 M14.95 58.15 L15.25 58.45 16.15 59.3 17.05 59.3 17.05 58.8 16.1 58.15 Q15.7 57.95 15.7 57.65 L16.0 55.1 20.3 54.75 20.3 54.05 19.75 53.5 17.05 53.35 16.45 54.35 15.4 54.25 15.4 54.45 Q15.0 56.65 14.95 57.65 L14.85 56.7 14.7 56.2 14.65 56.2 14.15 56.1 14.0 56.1 13.25 55.95 12.2 55.9 Q11.8 55.9 11.7 56.1 11.65 56.85 11.9 57.5 L11.95 57.95 Q12.05 58.45 12.5 58.55 L14.45 58.4 14.8 58.3 14.95 58.15 M14.0 54.75 L11.55 54.6 11.55 55.65 12.2 55.65 Q12.2 55.25 12.55 55.25 L14.45 55.5 14.45 54.95 Q14.3 54.8 14.0 54.75 M17.2 54.45 L17.2 54.35 17.45 54.2 18.2 54.1 18.85 54.2 17.2 54.45 M24.7 53.6 L24.55 53.5 24.25 55.2 24.95 55.2 25.1 55.05 25.15 54.6 25.15 53.65 25.3 53.65 25.8 52.15 Q25.8 51.7 24.7 50.7 23.55 49.6 22.7 49.4 22.8 50.05 25.0 52.3 L24.7 52.75 24.7 53.6 M11.1 58.4 L10.95 58.25 10.5 57.0 Q10.35 56.85 10.2 56.85 L6.85 56.7 6.05 56.65 5.0 56.4 4.75 56.35 4.25 56.2 4.0 55.95 4.0 55.9 3.7 55.05 3.55 54.9 3.0 54.6 2.95 54.6 2.25 54.35 1.95 54.6 1.8 55.4 Q1.65 55.5 1.55 55.55 L0.55 56.4 0.55 56.5 0.1 56.65 -0.8 56.65 -1.1 56.65 -1.7 56.7 -2.0 56.8 Q-2.55 56.7 -2.65 57.2 L-2.5 57.25 -1.55 57.7 Q-0.75 58.0 0.2 58.95 L0.4 59.25 0.65 59.4 3.0 61.15 4.25 61.9 4.6 62.15 7.0 64.05 7.35 64.45 Q7.85 65.25 8.65 65.25 L9.15 65.35 10.35 65.35 12.2 65.25 12.5 65.25 12.7 65.5 13.25 65.6 Q14.4 65.35 15.25 65.9 L15.7 65.95 16.0 65.9 16.45 65.6 17.15 64.9 18.0 64.2 18.15 64.15 Q18.65 64.2 18.5 63.75 L18.35 63.0 18.35 62.65 18.2 62.15 18.2 62.05 Q18.15 61.45 18.45 61.0 L18.6 60.85 Q18.35 60.6 17.85 60.45 L16.9 60.25 14.3 59.3 13.4 59.1 11.1 58.4 M0.1 50.9 L0.1 49.9 -0.5 49.85 -0.5 50.9 0.1 50.9 M-8.0 48.1 Q-8.75 48.0 -8.75 48.6 L-8.65 48.85 -8.15 49.7 -6.55 52.45 -6.45 52.6 -6.4 52.65 -6.2 52.9 -5.7 53.8 -5.25 54.25 -5.0 54.5 -4.95 54.75 -3.95 55.9 -3.7 55.9 -3.55 55.9 -2.5 55.65 -2.7 55.25 -2.8 55.2 -3.0 54.9 -3.15 54.65 -3.3 53.95 Q-3.3 53.6 -2.8 53.35 L-2.55 53.05 -2.95 51.85 -3.15 51.2 Q-3.45 50.05 -4.0 49.1 L-4.1 48.95 -4.1 48.7 -3.55 48.15 Q-3.25 47.55 -3.7 46.95 L-4.3 47.3 -4.45 47.3 -5.7 47.7 -6.3 48.0 -7.35 48.15 -8.0 48.1 M-2.65 53.95 L-2.55 54.2 -2.4 54.45 -2.35 54.75 -2.2 55.05 -2.0 55.05 -1.4 55.05 -1.1 54.95 -0.95 54.95 -0.05 54.65 Q0.95 54.2 0.9 53.2 L-0.5 53.8 Q-0.95 53.9 -1.1 53.65 -1.25 53.35 -1.4 53.45 L-2.0 53.5 -2.65 53.95" fill="#f5da69" fill-rule="evenodd" stroke="none"/>
    <path d="M13.35 3.1 Q12.1 2.05 12.05 -0.2 L12.05 -0.5 12.05 -0.95 12.1 -1.3 12.2 -1.3 12.35 -1.55 Q12.5 -1.8 12.8 -1.85 L13.4 -1.85 Q13.4 -1.55 13.0 -1.15 L12.7 -0.7 12.65 -0.5 Q12.65 0.3 13.25 1.25 L14.3 3.2 14.3 3.25 13.55 3.25 13.35 3.1 M18.85 1.6 L18.85 1.45 Q19.0 1.05 19.65 1.05 L20.05 1.05 20.1 1.45 19.35 2.4 Q19.35 2.9 19.8 3.4 L20.3 4.4 20.3 4.5 19.5 4.5 18.85 3.35 18.75 2.35 18.85 1.6 M20.45 -7.9 L20.3 -7.65 20.3 -7.6 19.3 -7.8 Q18.15 -7.8 17.2 -6.9 16.45 -6.2 16.45 -5.85 L17.0 -4.75 Q17.85 -3.75 19.05 -4.0 L19.05 -3.4 19.05 -3.3 18.6 -3.3 18.45 -3.4 Q16.9 -3.3 16.25 -4.4 L16.1 -4.7 Q15.85 -5.2 15.85 -5.85 15.85 -6.8 16.3 -7.35 16.9 -8.05 18.6 -8.45 L20.45 -8.25 20.45 -7.9 M24.55 -2.25 L24.55 -2.4 Q24.55 -3.15 24.8 -3.25 L26.25 -3.55 27.9 -3.7 28.35 -3.7 28.35 -3.6 28.35 -3.0 Q25.15 -2.95 25.15 -2.4 25.15 -2.1 25.7 -1.7 26.0 -1.4 26.25 -1.25 L26.25 -1.1 26.4 -0.85 26.4 -0.7 25.45 -0.7 24.65 -1.65 24.55 -2.25 M36.45 15.85 L36.45 15.95 36.15 16.0 36.0 16.1 35.0 16.85 34.95 16.85 34.25 16.25 33.85 15.8 32.4 13.55 32.35 13.35 Q32.4 12.65 33.25 12.6 L33.85 12.35 34.5 12.2 Q35.3 12.1 35.65 13.05 L36.3 15.15 36.15 15.15 36.15 15.8 36.45 15.85 M31.45 42.05 L31.25 42.2 30.95 42.5 Q30.6 42.35 30.45 41.75 L30.35 41.6 30.35 41.0 30.3 24.65 30.3 24.35 Q30.3 23.8 30.65 23.8 31.25 23.75 31.25 23.1 L31.2 21.15 31.25 20.65 31.6 20.2 Q31.9 19.55 31.8 18.7 L31.75 18.4 31.35 17.75 31.2 17.45 30.95 16.3 31.25 16.4 Q31.1 16.15 30.65 16.0 L30.5 15.95 30.2 15.65 30.05 15.4 30.05 15.15 Q30.05 15.0 29.9 15.15 29.15 14.05 29.0 12.75 L29.15 12.65 Q29.75 12.35 30.5 12.4 30.75 12.5 30.8 12.9 31.2 14.25 32.25 15.4 33.5 16.45 34.35 17.75 34.7 18.4 35.4 18.7 L35.55 18.85 35.95 19.35 36.0 19.75 Q35.55 22.45 35.7 25.1 35.7 26.0 35.95 26.95 L36.4 28.6 36.6 29.3 36.95 30.15 37.0 30.3 37.0 30.4 37.4 32.05 36.75 33.2 Q34.8 35.8 33.25 38.7 L31.45 41.3 31.45 42.05 M20.2 16.0 L20.75 16.0 21.55 16.25 21.75 16.55 21.75 17.9 21.65 18.25 21.65 18.3 21.05 18.6 Q20.95 18.6 20.9 18.7 L20.75 18.85 20.05 18.0 19.75 16.55 19.8 16.55 20.2 16.0 M20.1 20.2 L20.35 21.15 20.3 21.35 Q19.75 21.8 19.6 22.35 L19.45 22.6 18.75 23.25 Q17.2 21.75 16.45 19.9 L16.3 19.75 15.85 19.55 15.7 19.05 15.9 18.45 16.0 18.25 15.85 17.0 16.9 17.15 18.3 18.6 20.1 20.2 M-13.1 47.65 L-12.7 48.7 -12.55 49.0 -12.05 50.6 -11.7 51.7 Q-11.55 52.05 -11.8 52.2 L-11.95 52.3 -11.95 52.45 -11.5 52.65 Q-11.2 52.8 -11.05 53.15 L-10.65 53.8 -9.65 55.05 -9.15 55.65 -8.15 56.7 -9.5 55.95 -10.1 55.55 -10.6 55.35 -10.95 55.1 -12.05 54.2 -12.25 53.95 -13.95 52.45 -14.15 52.2 -14.3 52.0 -14.6 50.3 -14.6 49.55 Q-14.6 49.0 -14.8 48.8 L-14.85 48.45 Q-15.0 47.7 -14.25 47.5 L-13.95 47.4 -13.85 47.3 -13.8 47.3 -13.1 47.65 M36.85 20.2 L37.4 20.15 Q38.75 20.0 38.9 21.3 39.05 21.95 38.75 22.5 L38.6 22.65 Q38.15 23.1 37.25 23.05 L36.85 22.9 36.7 22.65 Q36.6 21.45 36.85 20.2 M17.05 16.1 L17.0 16.0 16.75 15.8 Q15.75 14.35 15.15 12.75 L14.55 11.05 14.3 10.45 Q17.55 11.65 19.15 14.55 L19.2 14.85 18.75 15.5 18.65 15.65 18.6 16.45 18.0 16.4 17.05 16.1 M18.9 27.7 Q19.35 27.75 19.6 28.25 L19.6 28.3 19.95 28.9 Q20.3 29.55 20.3 30.15 L20.2 30.45 20.05 30.75 19.05 31.35 18.65 30.3 18.35 29.4 18.2 29.15 18.05 28.85 18.0 28.6 Q18.05 28.25 18.35 27.95 L18.65 27.75 18.9 27.7 M16.25 26.95 L16.4 27.4 Q16.45 27.95 17.05 28.1 L17.35 28.15 Q17.75 28.45 17.75 28.9 L17.85 29.4 18.9 32.45 17.7 32.45 17.55 32.45 16.9 31.45 16.4 30.45 14.7 28.7 14.45 28.55 13.7 27.85 13.35 27.45 Q12.8 26.95 13.15 26.0 L13.35 25.55 13.15 25.1 13.1 24.95 Q13.25 24.65 13.85 24.7 L15.25 24.7 Q15.75 24.65 15.9 25.1 L16.0 25.55 16.25 26.95 M11.9 31.95 L12.4 32.6 12.35 32.75 11.95 33.45 Q11.65 33.75 11.7 34.2 L11.9 34.9 Q12.1 37.1 13.1 38.9 L13.25 39.0 14.0 38.85 13.85 39.85 13.8 40.0 13.55 40.05 Q13.35 40.15 13.1 40.3 L12.95 40.35 12.85 40.45 12.65 40.05 11.5 38.6 11.1 38.25 10.2 37.0 9.8 36.65 9.6 36.4 8.95 35.05 8.9 34.7 Q8.8 34.35 9.3 34.25 L9.9 33.8 10.75 32.95 10.95 32.75 11.65 31.95 11.9 31.95 M16.1 36.85 L15.85 38.1 15.7 38.4 Q15.1 38.75 14.65 39.4 L14.3 39.15 14.1 38.7 14.0 38.4 Q13.95 37.95 14.25 37.55 L15.15 36.8 Q15.45 36.4 15.85 36.25 16.15 36.35 16.1 36.85 M5.75 38.45 Q6.0 39.7 4.95 40.3 4.75 40.35 4.75 40.55 L4.85 40.85 Q5.4 42.35 5.15 44.05 L5.0 44.1 Q4.7 44.2 4.85 44.65 L5.0 44.8 Q6.0 45.65 6.4 46.8 L6.6 47.15 6.75 47.4 Q6.9 48.0 6.2 47.85 L5.3 47.95 5.0 48.0 Q4.6 47.95 4.3 48.3 L4.15 48.25 3.95 48.0 2.0 45.55 0.35 42.95 -0.4 41.85 -0.55 41.6 -0.75 41.3 -0.95 40.35 -0.8 40.2 -0.25 39.7 -0.05 39.45 0.9 38.55 Q1.1 39.4 2.25 39.15 L3.3 38.85 4.85 38.85 5.75 38.45 M8.2 44.5 L9.05 44.65 9.15 44.8 Q9.3 45.7 8.5 45.95 L7.6 46.2 7.3 46.35 7.2 46.35 7.0 46.2 6.3 45.5 6.05 45.25 Q5.85 45.05 5.9 44.5 L5.9 44.2 Q6.85 44.9 7.9 44.6 L8.2 44.5 M24.25 52.0 L24.3 52.05 24.3 52.35 24.1 54.1 23.95 54.25 23.05 54.65 Q22.55 54.8 22.5 54.45 22.4 54.05 22.1 53.8 L20.95 53.0 20.75 52.75 Q20.3 52.15 20.95 51.75 L21.5 51.45 Q22.85 50.55 23.85 51.6 L24.25 52.0 M22.5 55.35 L22.8 59.0 22.7 59.45 Q22.25 60.3 21.35 60.75 L21.05 60.9 20.1 61.55 19.2 61.9 19.0 61.9 Q18.65 61.05 19.15 60.1 L19.15 59.6 17.55 59.0 17.0 58.65 16.55 58.4 16.45 58.1 Q16.45 56.85 16.6 55.65 L16.75 55.5 17.7 55.25 18.6 55.2 Q20.5 55.05 22.4 55.2 L22.5 55.35 M14.95 58.15 L14.8 58.3 14.45 58.4 12.5 58.55 Q12.05 58.45 11.95 57.95 L11.9 57.5 Q11.65 56.85 11.7 56.1 11.8 55.9 12.2 55.9 L13.25 55.95 14.0 56.1 14.15 56.1 14.65 56.2 14.7 56.2 14.85 56.7 14.95 57.65 14.95 57.7 14.95 58.1 14.95 58.15 M11.1 58.4 L13.4 59.1 14.3 59.3 16.9 60.25 17.85 60.45 Q18.35 60.6 18.6 60.85 L18.45 61.0 Q18.15 61.45 18.2 62.05 L18.2 62.15 18.35 62.65 18.35 63.0 18.5 63.75 Q18.65 64.2 18.15 64.15 L18.0 64.2 17.15 64.9 16.45 65.6 16.0 65.9 15.7 65.95 15.25 65.9 Q14.4 65.35 13.25 65.6 L12.7 65.5 12.5 65.25 12.2 65.25 10.35 65.35 9.15 65.35 8.65 65.25 Q7.85 65.25 7.35 64.45 L7.0 64.05 4.6 62.15 4.25 61.9 3.0 61.15 0.65 59.4 0.4 59.25 0.2 58.95 Q-0.75 58.0 -1.55 57.7 L-2.5 57.25 -2.65 57.2 Q-2.55 56.7 -2.0 56.8 L-1.7 56.7 -1.1 56.65 -0.8 56.65 0.1 56.65 0.55 56.5 0.55 56.4 1.55 55.55 Q1.65 55.5 1.8 55.4 L1.95 54.6 2.25 54.35 2.95 54.6 3.0 54.6 3.55 54.9 3.7 55.05 4.0 55.9 4.0 55.95 4.25 56.2 4.75 56.35 5.0 56.4 6.05 56.65 6.85 56.7 10.2 56.85 Q10.35 56.85 10.5 57.0 L10.95 58.25 11.1 58.4 M-8.0 48.1 L-7.35 48.15 -6.3 48.0 -5.7 47.7 -4.45 47.3 -4.3 47.3 -3.7 46.95 Q-3.25 47.55 -3.55 48.15 L-4.1 48.7 -4.1 48.95 -4.0 49.1 Q-3.45 50.05 -3.15 51.2 L-2.95 51.85 -2.55 53.05 -2.8 53.35 Q-3.3 53.6 -3.3 53.95 L-3.15 54.65 -3.0 54.9 -2.8 55.2 -2.7 55.25 -2.5 55.65 -3.55 55.9 -3.7 55.9 -3.95 55.9 -4.95 54.75 -5.0 54.5 -5.25 54.25 -5.7 53.8 -6.2 52.9 -6.4 52.65 -6.45 52.6 -6.55 52.45 -8.15 49.7 -8.65 48.85 -8.75 48.6 Q-8.75 48.0 -8.0 48.1 M-2.65 53.95 L-2.0 53.5 -1.4 53.45 Q-1.25 53.35 -1.1 53.65 -0.95 53.9 -0.5 53.8 L0.9 53.2 Q0.95 54.2 -0.05 54.65 L-0.95 54.95 -1.1 54.95 -1.4 55.05 -2.0 55.05 -2.2 55.05 -2.35 54.75 -2.4 54.45 -2.55 54.2 -2.65 53.95" fill="#f79f1e" fill-rule="evenodd" stroke="none"/>
    <path d="M17.7 2.7 L17.3 3.7 16.6 3.7 16.75 3.05 17.05 2.35 16.6 0.8 Q16.25 -0.1 16.3 -0.7 16.85 -0.5 17.3 0.8 L17.7 2.25 17.7 2.7 M20.05 -6.05 L19.8 -7.3 Q20.6 -7.3 20.6 -5.9 L20.05 -3.75 19.2 -3.75 Q19.2 -4.25 19.45 -4.45 L19.5 -4.6 Q18.65 -4.6 18.65 -4.85 L18.6 -5.15 18.6 -5.6 19.45 -5.35 Q20.1 -5.35 20.05 -6.05 M26.4 -0.85 L26.25 -1.1 26.25 -1.25 26.25 -2.1 28.35 -1.8 28.7 -1.7 28.7 -0.8 27.85 -0.55 26.4 -0.85 M36.3 15.15 Q37.55 15.15 37.9 15.8 L38.0 16.55 37.85 18.15 37.7 18.4 37.1 18.4 37.1 17.7 37.4 16.55 Q37.4 16.0 36.45 15.85 L36.15 15.8 36.15 15.15 36.3 15.15 M23.7 3.65 Q24.5 3.7 24.8 4.1 L25.45 4.7 25.45 5.55 24.15 4.7 Q23.5 4.1 23.5 3.55 L23.7 3.65 M23.95 9.2 Q22.55 8.6 22.05 7.4 L21.2 5.4 Q22.35 5.7 22.85 6.7 L23.95 8.55 23.95 9.2 M20.45 9.6 L22.1 12.05 22.1 12.2 22.1 13.05 Q19.35 10.5 16.75 5.7 18.45 6.75 19.8 8.7 L20.45 9.6 M36.6 29.3 L36.75 28.45 37.4 28.55 37.3 29.2 Q37.3 29.7 37.75 30.3 38.15 30.85 38.15 31.8 L35.4 36.5 Q32.5 41.05 32.05 42.65 L32.05 42.8 31.45 42.8 31.45 42.05 31.45 41.3 33.25 38.7 Q34.8 35.8 36.75 33.2 L37.4 32.05 37.45 31.75 37.1 30.5 37.0 30.4 37.0 30.3 36.95 30.15 36.6 29.3 M29.9 18.55 L29.3 18.55 29.3 16.55 30.05 16.6 30.05 18.0 29.9 18.55 M20.5 12.95 L20.9 13.35 23.05 15.65 23.05 16.4 22.25 16.4 21.75 15.85 20.75 14.95 20.5 15.5 20.2 16.0 19.8 16.55 19.75 16.55 19.2 16.55 19.2 15.85 19.65 15.15 19.95 14.55 Q19.95 13.95 19.05 13.1 18.05 12.1 18.0 11.8 L19.15 12.1 19.35 12.2 19.5 12.35 20.5 12.95 M20.75 18.85 L21.8 20.3 21.8 20.65 Q22.35 20.75 22.55 21.0 L22.55 21.9 21.95 21.9 21.8 20.65 21.8 21.0 Q21.05 20.8 20.1 20.2 L18.3 18.6 16.9 17.15 16.0 15.8 17.05 16.1 18.0 16.4 Q19.05 16.85 19.75 17.7 L20.05 18.0 20.75 18.85 M-10.95 48.95 L-10.5 50.0 -8.2 53.5 -8.0 53.8 -7.2 54.8 -7.2 55.4 -6.9 55.4 -6.9 56.1 -7.5 56.1 -7.5 55.35 -7.45 55.35 -8.65 54.2 -8.9 53.8 -10.8 50.55 -11.5 49.3 Q-12.25 48.15 -13.1 47.65 L-13.8 47.3 -13.85 47.3 -14.7 47.25 -14.15 46.8 Q-13.55 46.4 -13.1 46.4 -12.4 46.35 -11.95 47.0 L-11.5 47.85 -10.95 48.95 M20.6 23.9 L19.95 23.05 20.05 22.2 Q20.35 21.75 21.5 21.8 L21.5 23.9 20.6 23.9 M27.3 20.65 Q27.3 19.35 28.3 20.0 29.3 20.6 29.3 21.05 L29.3 21.95 Q29.15 22.5 28.3 22.5 27.75 22.5 27.45 21.6 L27.3 20.65 M29.6 24.55 L29.6 25.25 28.85 25.25 Q28.85 24.65 29.0 24.5 L29.6 24.55 M38.6 23.5 L38.6 24.85 38.3 26.3 38.15 26.5 37.55 26.5 37.55 25.8 37.85 23.4 38.6 23.5 M11.1 7.7 Q12.5 8.15 13.15 9.0 L14.3 10.5 14.3 11.2 Q12.25 9.9 11.1 7.7 M14.95 23.75 Q15.6 23.75 17.3 25.1 18.9 26.5 18.9 26.8 L18.65 26.85 Q18.45 26.95 18.45 27.85 17.45 27.45 16.75 26.0 16.15 24.65 14.95 24.35 L14.95 23.75 M12.95 30.6 Q12.7 30.6 12.4 31.2 L12.35 31.35 12.1 31.8 11.25 31.8 11.25 31.15 Q11.5 30.2 12.05 29.9 12.85 29.3 14.55 30.6 16.7 32.3 17.05 33.45 L17.05 34.25 16.3 34.25 15.85 33.75 15.7 34.65 15.7 34.7 14.95 34.7 Q14.95 33.65 14.25 32.5 L13.15 30.7 Q13.35 30.6 12.95 30.6 M17.7 35.5 Q17.55 35.55 17.55 35.95 L16.75 35.95 16.45 35.65 16.45 34.5 17.7 34.5 17.7 35.5 M3.3 38.85 L3.15 38.85 Q3.15 37.7 4.7 37.3 L6.7 37.1 Q7.05 37.8 8.3 39.1 L10.5 41.35 10.5 42.05 9.15 42.05 Q8.6 40.85 7.9 40.75 L7.15 41.0 5.9 40.7 5.9 39.75 6.0 39.4 6.6 39.25 6.2 38.7 6.2 38.3 5.75 38.45 4.85 38.85 3.3 38.85 M9.45 42.2 L10.2 42.3 10.5 43.35 10.5 43.45 9.6 43.45 Q9.3 43.1 9.3 42.75 9.3 42.45 9.45 42.2 M29.9 41.0 L29.9 42.2 29.3 42.2 28.7 38.3 28.85 37.45 29.6 37.55 Q29.6 39.45 29.9 41.0 M14.95 57.65 Q15.0 56.65 15.4 54.45 L15.4 54.25 16.45 54.35 17.05 53.35 19.75 53.5 20.3 54.05 20.3 54.75 16.0 55.1 15.7 57.65 Q15.7 57.95 16.1 58.15 L17.05 58.8 17.05 59.3 16.15 59.3 15.25 58.45 14.95 58.15 14.95 58.1 14.95 57.7 14.95 57.65 M24.7 53.6 L24.7 52.75 25.0 52.3 Q22.8 50.05 22.7 49.4 23.55 49.6 24.7 50.7 25.8 51.7 25.8 52.15 L25.3 53.65 25.15 53.65 25.15 54.6 25.1 55.05 24.95 55.2 24.25 55.2 24.55 53.5 24.7 53.6 M17.2 54.45 L18.85 54.2 18.2 54.1 17.45 54.2 17.2 54.35 17.2 54.45 M14.0 54.75 Q14.3 54.8 14.45 54.95 L14.45 55.5 12.55 55.25 Q12.2 55.25 12.2 55.65 L11.55 55.65 11.55 54.6 14.0 54.75 M0.1 50.9 L-0.5 50.9 -0.5 49.85 0.1 49.9 0.1 50.9" fill="#fefac0" fill-rule="evenodd" stroke="none"/>
    <path d="M-2.7 8.15 L0.75 7.45 2.25 7.15 2.4 5.7 Q2.55 5.0 2.85 4.55 3.0 4.8 3.1 4.65 L3.25 4.65 3.3 4.8 8.2 12.4 Q8.5 12.9 8.95 12.8 L9.2 12.6 9.35 11.5 Q9.45 10.3 8.95 9.05 L8.75 8.85 8.6 8.7 8.35 8.3 6.15 4.1 6.7 3.85 8.5 5.85 9.8 7.55 12.4 10.9 Q13.8 12.8 14.55 15.0 14.85 15.95 14.7 17.0 L14.7 17.55 15.0 18.0 15.7 19.05 15.85 19.55 16.0 20.0 16.6 21.6 17.75 23.55 17.85 23.75 19.0 26.1 19.05 26.65 17.3 24.4 Q16.7 23.8 15.9 23.75 L12.8 23.05 12.5 23.1 12.5 23.9 12.25 23.5 11.95 22.9 11.5 22.2 9.6 18.85 Q9.45 18.55 9.15 18.55 8.75 18.85 9.15 19.3 L9.9 21.15 11.9 29.2 9.9 32.05 9.8 32.2 8.0 34.65 9.8 37.3 9.9 37.4 11.5 40.15 11.25 40.75 10.4 40.6 6.85 36.15 2.65 38.0 1.1 37.25 2.4 36.85 2.55 36.7 Q3.25 36.4 2.95 35.55 L2.8 35.25 2.4 34.7 2.0 33.95 1.95 33.8 -0.05 32.95 Q-1.1 32.6 -1.2 31.5 -1.25 30.75 -0.9 30.15 L0.9 27.4 1.25 27.1 1.5 27.1 2.4 27.3 2.55 27.4 4.1 27.45 4.15 27.45 4.45 27.4 4.55 27.4 6.2 27.25 6.4 27.1 Q6.6 26.5 7.15 26.5 7.6 26.4 7.5 25.85 L7.35 24.65 7.15 24.05 Q6.05 21.75 4.6 19.7 L2.65 16.85 -0.05 12.75 -2.1 9.0 -2.5 8.45 -2.7 8.15 M0.9 37.3 L-2.0 41.0 2.2 46.7 2.35 47.1 2.25 47.5 1.85 47.5 1.55 47.65 -0.25 46.25 Q0.75 47.25 1.8 49.25 L1.05 49.4 -0.05 49.4 Q-0.05 48.95 0.35 48.7 L-0.8 47.4 Q-1.1 47.1 -1.4 46.95 L-1.4 48.45 -2.35 48.45 Q-2.35 47.95 -2.65 47.65 L-2.95 47.25 Q-2.95 46.7 -1.5 46.85 -1.95 46.55 -2.35 46.55 -3.55 46.55 -3.95 46.95 L-5.1 46.95 -4.25 46.05 -5.7 46.65 -7.5 47.25 -8.95 47.5 -9.45 47.8 -9.5 47.1 -9.45 46.35 -9.3 45.7 -9.15 45.2 -8.9 44.8 Q-8.65 44.05 -8.0 44.05 -7.05 44.05 -6.3 44.4 L-6.0 44.5 -4.75 44.95 Q-4.55 44.95 -4.45 44.8 -4.15 44.35 -3.55 44.8 L-3.1 45.25 -3.1 45.35 -2.35 45.2 -2.1 45.05 Q-2.25 44.75 -2.65 44.65 -3.45 44.6 -3.95 43.75 L-4.3 43.1 -5.25 41.15 -5.6 40.05 Q-5.75 39.6 -5.45 39.25 L-5.25 38.85 -4.6 37.15 Q-4.55 36.95 -4.15 36.95 L-3.85 36.85 -2.95 36.15 -2.65 36.15 -1.8 36.65 -1.2 37.55 -0.95 37.7 -0.1 37.55 0.1 37.45 0.9 37.3" fill="#410303" fill-rule="evenodd" stroke="none"/>
    <path d="M-8.45 10.05 L-6.9 8.9 -6.15 8.4 -6.2 7.3 -4.4 6.85 -4.6 6.1 -3.85 8.2 -2.7 8.15 -2.5 8.45 -2.1 9.0 -0.05 12.75 2.65 16.85 4.6 19.7 Q6.05 21.75 7.15 24.05 L7.35 24.65 7.5 25.85 Q7.6 26.4 7.15 26.5 6.6 26.5 6.4 27.1 L6.2 27.25 4.55 27.4 4.45 27.4 4.6 27.1 4.85 26.3 4.95 26.15 Q5.15 25.4 4.75 25.0 L4.6 24.8 3.1 21.9 2.35 20.6 0.35 17.7 -0.5 16.7 Q-4.3 13.2 -8.45 10.05 M-14.25 46.5 Q-14.1 43.35 -12.1 41.15 L-11.9 40.9 -10.95 39.7 -10.75 39.6 -9.8 39.9 -8.95 40.3 Q-8.8 40.35 -8.75 40.55 L-7.75 42.35 -7.5 42.65 -6.05 43.65 Q-5.7 44.05 -5.1 44.1 L-4.45 44.2 -4.0 44.2 -5.0 42.8 -6.45 40.55 -7.15 39.4 -7.2 39.15 Q-7.15 37.85 -6.6 36.65 L-6.0 35.05 -5.1 32.95 -4.95 32.9 Q-4.45 32.95 -4.4 33.5 -4.15 34.55 -3.25 35.05 -2.95 34.9 -3.0 34.25 L-2.95 33.8 Q-2.85 33.35 -3.4 33.2 L-3.55 33.05 Q-4.45 31.9 -4.95 30.5 L-4.75 30.3 Q-2.85 28.55 -1.65 26.15 L-1.4 25.85 -0.95 25.35 -0.35 25.0 -0.2 25.0 Q0.5 24.85 0.95 25.35 2.25 26.5 3.8 27.3 L4.15 27.45 4.1 27.45 2.55 27.4 2.4 27.3 1.5 27.1 1.25 27.1 0.9 27.4 -0.9 30.15 Q-1.25 30.75 -1.2 31.5 -1.1 32.6 -0.05 32.95 L1.95 33.8 2.0 33.95 2.4 34.7 2.8 35.25 2.95 35.55 Q3.25 36.4 2.55 36.7 L2.4 36.85 1.1 37.25 0.95 37.15 0.9 37.3 0.1 37.45 -0.1 37.55 -0.95 37.7 -1.2 37.55 -1.8 36.65 -2.65 36.15 -2.95 36.15 -3.85 36.85 -4.15 36.95 Q-4.55 36.95 -4.6 37.15 L-5.25 38.85 -5.45 39.25 Q-5.75 39.6 -5.6 40.05 L-5.25 41.15 -4.3 43.1 -3.95 43.75 Q-3.45 44.6 -2.65 44.65 -2.25 44.75 -2.1 45.05 L-2.35 45.2 -3.1 45.35 -3.1 45.25 -3.55 44.8 Q-4.15 44.35 -4.45 44.8 -4.55 44.95 -4.75 44.95 L-6.0 44.5 -6.3 44.4 Q-7.05 44.05 -8.0 44.05 -8.65 44.05 -8.9 44.8 L-9.15 45.2 -9.3 45.7 -9.45 46.35 -9.5 47.1 -9.45 47.8 -10.2 48.3 -8.0 51.3 -7.05 52.65 -6.4 53.8 -6.05 54.45 -5.9 54.9 -6.75 54.75 -7.35 53.8 -7.85 53.15 -8.6 52.0 -10.95 48.95 -11.5 47.85 -11.95 47.0 Q-12.4 46.35 -13.1 46.4 L-13.4 46.05 -14.25 46.5 M12.5 23.9 L12.5 27.4 16.75 32.35 17.0 32.6 15.25 30.85 12.85 28.55 12.35 28.3 12.05 29.0 11.9 29.2 9.9 21.15 9.15 19.3 Q8.75 18.85 9.15 18.55 9.45 18.55 9.6 18.85 L11.5 22.2 11.95 22.9 12.25 23.5 12.5 23.9 M6.15 4.1 L8.35 8.3 8.6 8.7 8.75 8.85 8.95 9.05 Q9.45 10.3 9.35 11.5 L9.2 12.6 8.95 12.8 Q8.5 12.9 8.2 12.4 L3.3 4.8 3.25 4.65 6.15 4.1" fill="#5c0505" fill-rule="evenodd" stroke="none"/>
    <path d="M-8.2 -21.25 Q-0.2 -23.8 -1.2 -15.7 -4.45 -10.35 -10.6 -12.0 -16.4 -18.45 -8.2 -21.25" fill="#ffffff" fill-rule="evenodd" stroke="none"/>
  </g>
</svg>
