<?xml version="1.0" encoding="UTF-8" standalone="no"?>
<svg xmlns:xlink="http://www.w3.org/1999/xlink" height="122.9px" width="59.05px" xmlns="http://www.w3.org/2000/svg">
  <g transform="matrix(1.0, 0.0, 0.0, 1.0, 85.35, 3.9)">
    <path d="M-27.2 38.85 Q-26.3 40.35 -26.3 42.1 -31.6 52.2 -36.45 62.45 -39.2 68.3 -37.15 74.25 -36.05 77.35 -33.45 79.4 -33.2 79.55 -33.1 79.9 -33.6 81.55 -35.55 81.55 -40.0 81.55 -44.0 83.55 -54.4 88.6 -59.0 99.3 -59.5 100.5 -59.65 101.85 -60.75 111.0 -56.65 119.0 L-69.0 98.95 Q-71.7 94.65 -73.35 89.85 -75.1 84.8 -77.35 80.0 -82.3 69.4 -83.3 57.85 L-83.95 53.05 Q-86.65 39.5 -84.1 26.0 -83.25 21.6 -81.2 17.75 -77.25 10.55 -74.0 2.9 L-72.3 -3.9 Q-60.1 0.55 -48.85 7.2 L-46.4 8.9 Q-40.1 13.65 -35.3 19.85 -31.3 25.0 -29.95 31.55 -29.2 35.35 -27.2 38.85" fill="#141414" fill-rule="evenodd" stroke="none"/>
  </g>
</svg>
