<?xml version="1.0" encoding="UTF-8" standalone="no"?>
<svg xmlns:xlink="http://www.w3.org/1999/xlink" height="148.1px" width="101.8px" xmlns="http://www.w3.org/2000/svg">
  <g transform="matrix(1.0, 0.0, 0.0, 1.0, 64.9, 28.15)">
    <path d="M-45.5 -23.25 Q-46.55 -23.25 -47.25 -22.85 -48.0 -22.4 -48.0 -21.8 L-51.65 -22.35 -50.05 -24.65 Q-48.35 -28.45 -44.05 -28.0 L-39.7 -28.15 Q-31.9 -28.15 -24.4 -26.0 -21.8 -25.2 -19.1 -24.75 -15.85 -24.1 -12.9 -22.45 -6.4 -18.7 0.4 -15.2 3.6 -13.55 5.6 -10.55 12.05 -0.85 17.55 9.15 21.2 15.8 26.45 21.2 28.15 22.95 29.45 25.0 30.4 26.6 32.0 27.4 27.4 27.95 25.55 32.55 L24.05 36.0 Q22.35 39.7 22.75 43.95 23.05 47.15 24.5 50.0 L28.1 56.5 Q30.65 60.7 33.5 64.65 34.75 66.4 36.9 66.65 23.15 74.7 14.7 87.9 14.0 89.1 14.2 90.45 15.65 100.2 19.3 109.0 L21.6 113.9 Q23.35 117.3 26.15 119.95 L18.7 115.35 Q9.8 108.15 1.3 100.2 -2.3 96.8 -6.35 93.85 -13.4 88.8 -18.15 81.6 L-23.85 72.8 -26.35 68.55 Q-32.1 57.7 -36.95 46.45 -39.3 40.85 -39.75 34.75 L-36.4 37.0 Q-35.05 39.65 -32.6 41.25 -29.05 43.7 -24.95 45.7 -22.7 46.85 -20.25 47.5 -10.75 50.45 -1.5 54.45 3.85 56.7 9.45 58.15 L14.25 56.85 Q8.1 55.7 3.0 52.1 -0.7 49.6 -3.85 46.55 -8.6 41.95 -14.6 39.1 -17.9 37.5 -20.85 35.2 -26.3 31.1 -32.35 28.0 -35.5 26.4 -38.2 24.45 L-39.15 23.7 -4.95 21.55 Q-6.3 20.95 -9.0 20.3 L-19.15 18.0 Q-24.75 16.85 -30.35 18.1 -32.1 18.5 -33.6 17.6 -30.25 15.95 -28.3 12.75 -25.9 8.9 -25.85 4.45 -25.65 -6.1 -28.15 -16.25 -28.5 -17.8 -29.4 -19.15 -31.65 -22.75 -36.1 -23.45 L-41.15 -24.1 -45.05 -24.45 -45.5 -23.25" fill="#73263e" fill-rule="evenodd" stroke="none"/>
    <path d="M18.7 115.35 Q11.0 109.85 2.65 105.35 -7.4 99.85 -16.9 93.45 -26.7 86.75 -34.0 77.25 -41.0 68.05 -44.15 56.8 -46.45 48.45 -45.95 39.7 -45.7 34.85 -48.9 31.25 -53.9 30.45 -59.15 31.45 -62.15 31.95 -64.9 32.9 -61.55 31.25 -59.45 28.2 L-58.0 25.75 -57.15 24.1 -56.05 24.0 -55.3 22.9 Q-48.75 21.6 -42.95 18.55 -39.55 16.85 -36.9 14.3 L-34.1 11.25 Q-32.65 9.65 -32.75 7.6 -32.95 -3.55 -36.15 -14.2 -37.5 -18.7 -39.3 -22.9 L-45.5 -23.25 -45.05 -24.45 -41.15 -24.1 -36.1 -23.45 Q-31.65 -22.75 -29.4 -19.15 -28.5 -17.8 -28.15 -16.25 -25.65 -6.1 -25.85 4.45 -25.9 8.9 -28.3 12.75 -30.25 15.95 -33.6 17.6 -32.1 18.5 -30.35 18.1 -24.75 16.85 -19.15 18.0 L-9.0 20.3 Q-6.3 20.95 -4.95 21.55 L-39.15 23.7 -38.2 24.45 Q-35.5 26.4 -32.35 28.0 -26.3 31.1 -20.85 35.2 -17.9 37.5 -14.6 39.1 -8.6 41.95 -3.85 46.55 -0.7 49.6 3.0 52.1 8.1 55.7 14.25 56.85 L9.45 58.15 Q3.85 56.7 -1.5 54.45 -10.75 50.45 -20.25 47.5 -22.7 46.85 -24.95 45.7 -29.05 43.7 -32.6 41.25 -35.05 39.65 -36.4 37.0 L-39.75 34.75 Q-39.3 40.85 -36.95 46.45 -32.1 57.7 -26.35 68.55 L-23.85 72.8 -18.15 81.6 Q-13.4 88.8 -6.35 93.85 -2.3 96.8 1.3 100.2 9.8 108.15 18.7 115.35" fill="#380e12" fill-rule="evenodd" stroke="none"/>
  </g>
</svg>
