<?xml version="1.0" encoding="UTF-8" standalone="no"?>
<svg xmlns:xlink="http://www.w3.org/1999/xlink" height="65.6px" width="100.65px" xmlns="http://www.w3.org/2000/svg">
  <g transform="matrix(1.0, 0.0, 0.0, 1.0, 100.55, 57.35)">
    <path d="M-81.65 -33.05 Q-83.1 -34.1 -84.85 -34.55 -91.45 -36.15 -98.1 -34.2 L-100.55 -33.55 -96.75 -40.55 Q-94.1 -42.3 -91.3 -43.6 -83.35 -47.3 -74.85 -49.65 -64.05 -52.85 -53.35 -56.3 -46.75 -58.4 -40.25 -56.25 -31.55 -53.15 -24.6 -47.2 L-21.3 -44.15 Q-10.05 -33.45 0.1 -21.65 -1.75 -22.6 -3.85 -22.9 -9.1 -23.25 -14.15 -22.8 -20.9 -22.7 -25.9 -18.25 -29.8 -14.75 -30.8 -9.6 -31.0 -8.6 -30.8 -7.6 -30.25 -4.35 -28.3 -2.45 -30.7 -4.7 -34.05 -4.25 -45.4 -2.55 -54.05 5.4 -55.9 7.1 -58.15 8.15 -58.65 8.4 -59.1 8.15 -68.75 3.4 -79.6 3.5 -77.85 1.2 -76.55 -1.45 L-74.95 -5.0 Q-73.75 -7.7 -72.8 -10.55 -72.0 -13.05 -73.4 -15.0 L-73.4 -15.2 Q-73.5 -16.4 -73.9 -17.45 L-77.1 -25.2 -78.75 -29.2 Q-79.7 -31.5 -81.65 -33.05" fill="#141414" fill-rule="evenodd" stroke="none"/>
  </g>
</svg>
