<?xml version="1.0" encoding="UTF-8" standalone="no"?>
<svg xmlns:xlink="http://www.w3.org/1999/xlink" height="83.9px" width="103.65px" xmlns="http://www.w3.org/2000/svg">
  <g transform="matrix(1.0, 0.0, 0.0, 1.0, 62.45, 64.7)">
    <path d="M-49.55 -46.25 Q-45.5 -45.45 -41.55 -47.25 -30.9 -52.05 -19.4 -54.95 -13.25 -56.55 -6.95 -57.4 L-0.05 -58.35 Q-7.35 -56.75 -14.5 -54.75 L-17.9 -53.55 Q-27.9 -49.65 -37.5 -45.05 -39.65 -44.0 -40.9 -41.9 -26.2 -40.85 -13.15 -33.95 -11.8 -33.2 -10.35 -32.85 -1.8 -31.25 6.0 -27.75 7.5 -27.05 9.2 -26.85 L17.7 -25.65 21.05 -25.3 8.75 -24.85 5.95 -25.3 -5.7 -26.65 Q-21.5 -28.6 -36.7 -33.3 -27.95 -20.4 -16.95 -9.05 -14.7 -6.7 -12.2 -4.7 -10.05 -3.1 -7.5 -1.95 L-3.0 0.1 7.95 5.0 Q11.95 6.6 15.35 9.15 L17.95 11.05 Q1.05 7.45 -14.05 -1.1 -26.65 -8.15 -33.65 -20.7 -38.7 -19.2 -43.75 -19.35 L-47.7 -20.15 Q-53.45 -21.8 -58.25 -18.55 L-57.45 -20.0 Q-53.9 -26.55 -54.15 -34.2 L-54.85 -34.2 Q-56.85 -34.35 -58.25 -35.75 -60.1 -37.65 -62.45 -38.8 L-59.4 -38.8 Q-54.9 -39.1 -51.05 -41.45 L-49.55 -46.25" fill="#380e12" fill-rule="evenodd" stroke="none"/>
    <path d="M-49.55 -46.25 Q-45.35 -51.8 -19.8 -62.9 L-15.75 -64.7 13.6 -63.6 33.55 -60.9 Q25.3 -58.45 19.0 -52.55 17.65 -51.25 16.95 -49.65 14.65 -44.0 19.0 -39.1 21.95 -35.85 25.65 -33.45 L32.1 -28.95 Q36.2 -25.8 41.2 -25.95 36.35 -23.55 32.85 -19.45 29.1 -15.15 26.15 -10.25 24.05 -6.8 24.15 -2.9 24.15 -1.1 24.9 0.55 29.2 10.25 34.8 19.2 L17.95 11.05 15.35 9.15 Q11.95 6.6 7.95 5.0 L-3.0 0.1 -7.5 -1.95 Q-10.05 -3.1 -12.2 -4.7 -14.7 -6.7 -16.95 -9.05 -27.95 -20.4 -36.7 -33.3 -21.5 -28.6 -5.7 -26.65 L5.95 -25.3 8.75 -24.85 21.05 -25.3 17.7 -25.65 9.2 -26.85 Q7.5 -27.05 6.0 -27.75 -1.8 -31.25 -10.35 -32.85 -11.8 -33.2 -13.15 -33.95 -26.2 -40.85 -40.9 -41.9 -39.65 -44.0 -37.5 -45.05 -27.9 -49.65 -17.9 -53.55 L-14.5 -54.75 Q-7.35 -56.75 -0.05 -58.35 L-6.95 -57.4 Q-13.25 -56.55 -19.4 -54.95 -30.9 -52.05 -41.55 -47.25 -45.5 -45.45 -49.55 -46.25" fill="#73263e" fill-rule="evenodd" stroke="none"/>
  </g>
</svg>
