<?xml version="1.0" encoding="UTF-8" standalone="no"?>
<svg xmlns:xlink="http://www.w3.org/1999/xlink" height="56.15px" width="424.9px" xmlns="http://www.w3.org/2000/svg">
  <g transform="matrix(1.0, 0.0, 0.0, 1.0, 199.35, 24.0)">
    <path d="M36.1 -18.25 L36.9 -16.65 35.0 -15.55 Q32.85 -10.95 30.95 -6.15 L29.3 -1.7 27.95 2.95 26.3 8.25 23.2 18.0 21.4 23.2 21.0 22.65 21.4 19.4 22.35 13.25 23.45 7.7 24.8 2.0 26.3 -3.45 Q27.4 -7.15 28.75 -10.65 30.0 -14.2 31.6 -17.6 L35.15 -24.0 35.55 -20.05 36.1 -18.25 M47.65 -0.6 L48.75 5.8 49.55 11.65 50.1 17.35 Q50.8 22.65 49.95 28.1 L48.05 28.6 48.05 28.35 48.05 22.1 48.2 15.7 48.2 10.7 Q48.05 2.8 46.85 -4.95 L47.65 -0.6 M105.3 -14.2 L103.1 2.4 100.95 3.9 Q100.65 4.3 100.8 4.45 101.9 5.65 103.5 6.45 L103.5 10.7 103.4 14.75 102.45 22.65 Q102.0 24.95 101.05 27.0 L100.0 29.15 100.65 22.9 100.8 16.65 100.25 6.85 96.6 7.3 Q94.7 7.85 92.9 8.5 L99.6 2.95 96.85 -13.25 105.3 -14.2 M219.2 -0.85 Q220.85 -0.45 221.9 0.9 223.55 2.8 224.5 5.1 226.15 9.2 225.2 13.65 225.05 7.4 220.3 4.3 218.25 2.8 215.8 2.0 L206.0 3.05 Q210.2 0.2 215.8 -0.85 217.45 -1.4 219.2 -0.85 M204.25 29.3 L199.9 29.05 198.55 23.05 Q197.45 17.9 198.0 12.7 L198.8 6.45 Q199.2 3.2 200.05 0.1 L200.45 4.45 202.05 20.9 Q202.35 23.05 203.0 25.25 L204.25 29.3 M184.8 3.9 L189.7 5.5 Q193.1 6.85 192.8 10.4 L192.55 15.3 Q192.0 22.1 189.0 28.2 L189.45 24.8 189.7 14.6 Q189.7 11.75 187.65 9.2 184.25 5.1 179.5 4.95 L184.8 3.9 M172.45 21.85 L172.3 28.5 170.4 30.8 170.1 30.55 165.75 27.25 167.95 18.3 Q168.65 14.75 168.75 11.2 L168.9 6.35 Q170.4 10.15 171.35 14.2 172.3 17.9 172.45 21.85 M156.0 2.4 L161.55 0.9 161.7 1.05 Q157.35 3.6 155.85 8.65 154.5 13.4 153.55 18.45 153.0 21.0 152.7 23.75 L152.2 23.75 151.35 16.25 Q151.1 13.4 151.35 10.7 152.05 5.4 153.0 0.1 L156.0 2.4 M142.8 17.6 L144.15 26.3 144.85 30.65 141.45 30.65 Q140.75 28.1 140.35 25.25 139.8 22.25 139.8 19.1 139.95 14.2 140.5 9.3 141.15 4.45 142.25 -0.45 141.7 5.9 142.25 13.0 142.4 15.3 142.8 17.6 M129.5 6.35 Q125.55 14.5 126.35 23.6 126.65 26.05 127.6 28.5 128.1 30.25 129.6 31.75 L129.9 32.15 126.35 31.05 125.55 30.4 Q122.3 26.7 120.9 22.35 119.55 18.0 120.1 13.55 120.65 8.25 122.7 3.2 L124.05 -0.2 Q125.7 3.05 128.0 5.1 L129.5 6.35 M81.5 13.95 Q81.75 9.05 82.3 4.15 L85.85 31.9 82.7 30.95 82.45 30.65 82.3 30.55 81.5 23.6 Q81.25 18.7 81.5 13.95 M66.7 8.1 Q65.75 12.85 65.05 17.6 63.95 24.15 66.7 30.1 L65.45 28.2 Q65.45 27.15 64.9 26.3 64.35 25.5 63.55 25.5 62.6 22.5 62.35 19.5 61.8 14.6 62.05 9.75 62.35 4.55 65.05 0.35 L66.25 -1.3 67.9 4.15 Q67.1 6.05 66.7 8.1 M30.4 17.75 L29.45 13.95 29.85 11.75 Q35.4 13.0 40.3 10.7 L44.1 9.2 Q42.5 10.95 40.45 12.05 35.55 15.15 30.4 17.75" fill="#fdd97b" fill-rule="evenodd" stroke="none"/>
    <path d="M6.75 -7.15 L-2.8 -11.75 -2.1 -12.7 2.25 -17.45 6.75 -7.15 M-194.85 -19.9 L-190.2 -24.0 -190.2 -15.85 -175.8 -20.85 -184.9 -11.75 Q-184.8 -7.65 -184.1 -3.6 -183.45 0.5 -182.2 4.45 L-186.4 0.5 -192.8 -12.7 -196.35 -11.9 -194.3 -13.9 -194.85 -19.9 M-18.15 -0.75 L-14.75 -0.45 -15.3 -3.75 -11.35 0.2 Q-15.3 1.15 -18.8 2.4 -21.15 3.05 -23.15 4.3 L-27.5 2.8 -27.65 2.4 -29.0 -0.2 -18.15 -0.75 M-10.95 14.6 L-11.2 15.45 Q-11.9 13.8 -11.9 12.05 L-11.5 7.0 Q-10.8 8.8 -10.65 10.7 -10.4 12.6 -10.95 14.6 M-37.85 6.45 L-43.7 3.75 -35.15 0.9 -37.85 6.45 M-24.4 15.05 L-21.8 13.8 -19.1 15.05 Q-23.6 17.2 -25.35 21.95 -26.15 24.25 -26.15 27.0 L-25.9 28.9 -28.2 28.75 -30.35 28.1 -31.05 26.3 Q-32.55 21.4 -28.75 18.55 L-24.4 15.05 M-54.7 10.0 L-57.4 2.25 -58.25 0.75 -56.6 0.6 -52.25 2.1 -52.55 18.85 Q-53.35 14.2 -54.7 10.0 M-69.1 7.4 L-68.15 1.15 -67.75 7.95 -67.35 11.5 -67.05 14.75 -66.1 21.55 -64.9 28.1 -67.75 29.15 Q-68.7 24.25 -69.25 19.5 -69.65 16.4 -69.5 13.4 -69.5 10.4 -69.1 7.4 M-96.55 10.95 Q-95.05 14.75 -97.1 18.0 -97.4 14.6 -98.45 11.65 -99.55 8.9 -101.6 6.85 -104.7 4.3 -108.95 5.65 L-108.0 4.45 -103.35 4.15 Q-101.05 4.85 -99.4 6.45 -97.65 8.35 -96.55 10.95 M-86.1 3.05 L-85.0 1.45 -80.95 5.5 Q-82.7 10.4 -83.4 15.3 -83.95 19.25 -83.95 23.3 L-83.5 28.1 Q-88.4 24.7 -88.15 18.55 L-87.85 9.05 Q-87.85 5.8 -86.1 3.05 M-115.35 19.5 Q-115.05 22.8 -115.2 26.2 -115.2 28.5 -116.4 30.65 L-116.95 30.95 -120.2 27.55 -117.5 15.05 -116.95 7.15 -115.85 13.4 Q-115.45 16.4 -115.35 19.5 M-133.7 21.85 L-133.95 26.6 -134.2 25.9 -134.65 26.2 -136.0 18.0 Q-136.4 14.35 -136.25 10.7 -136.1 7.55 -135.6 4.45 L-134.5 -1.0 -129.75 1.05 Q-131.1 4.15 -131.9 7.4 -133.0 12.3 -133.55 17.5 L-133.7 21.85 M-160.3 21.4 Q-161.15 24.15 -160.6 26.85 -160.05 29.3 -158.95 31.75 L-164.8 28.9 Q-167.0 24.8 -164.65 19.9 -162.35 15.05 -157.35 14.9 -159.25 17.6 -160.3 21.4 M-143.75 13.0 L-142.1 18.95 Q-141.45 22.1 -141.15 25.35 -140.9 28.5 -140.9 31.6 L-145.5 27.0 -145.35 7.0 -143.75 13.0 M-160.3 6.2 L-163.6 0.1 -148.75 1.05 -160.3 6.2 M-188.85 21.4 Q-186.55 22.25 -183.95 22.25 L-186.0 23.75 -190.2 26.7 Q-193.35 28.75 -197.15 29.3 L-199.35 18.55 -193.75 20.45 Q-191.45 21.55 -188.85 21.4 M5.5 18.15 L5.8 22.5 5.8 27.95 5.4 30.55 -0.45 30.25 1.7 20.35 2.8 14.1 3.75 4.55 Q4.55 11.35 5.5 18.15" fill="#00ffff" fill-rule="evenodd" stroke="none"/>
  </g>
</svg>
