<?xml version="1.0" encoding="UTF-8" standalone="no"?>
<svg xmlns:xlink="http://www.w3.org/1999/xlink" height="133.4px" width="151.95px" xmlns="http://www.w3.org/2000/svg">
  <g transform="matrix(1.0, 0.0, 0.0, 1.0, 152.05, 104.7)">
    <path d="M-75.7 -12.85 L-79.6 -14.55 -79.95 -14.7 -82.25 -15.75 Q-94.25 -20.9 -107.15 -19.65 -118.5 -17.25 -129.65 -14.0 -135.1 -12.0 -140.2 -8.7 -146.85 -4.6 -152.05 1.2 -146.85 -8.5 -144.15 -18.9 -143.9 -19.9 -144.0 -21.0 L-140.75 -21.25 -140.45 -22.25 -141.55 -22.7 -142.0 -24.5 -143.25 -24.5 -143.9 -24.35 -144.45 -23.95 -145.05 -23.55 -144.95 -26.85 -142.5 -27.0 -143.25 -31.0 -144.65 -31.2 -144.55 -32.3 -143.85 -32.85 -142.95 -33.3 -141.5 -33.5 -140.5 -33.5 -141.8 -34.1 -141.6 -35.85 -139.75 -36.6 -138.5 -40.5 -137.5 -36.5 Q-136.05 -36.45 -134.95 -37.4 L-134.0 -38.2 -133.6 -38.6 -133.3 -39.15 -134.65 -41.3 -135.7 -41.15 -136.65 -40.35 -138.4 -41.55 -138.5 -42.0 -140.95 -39.8 Q-141.5 -39.35 -142.15 -39.05 L-142.6 -39.3 -143.45 -41.15 -141.85 -49.05 -141.05 -48.9 -139.95 -47.1 -136.05 -47.45 -135.65 -50.15 -133.5 -50.6 -133.05 -50.55 -132.7 -50.55 -132.45 -50.65 -131.6 -53.05 -133.5 -54.5 Q-137.9 -57.9 -138.5 -58.6 -137.6 -61.05 -136.15 -66.0 -129.4 -69.65 -127.2 -71.9 L-124.25 -74.9 -123.35 -73.95 -122.9 -73.35 -117.4 -74.4 -117.05 -74.2 -116.85 -74.05 -115.55 -72.65 -115.15 -72.35 -114.6 -72.1 -114.0 -72.0 -114.3 -72.35 Q-115.2 -73.7 -115.4 -75.15 L-115.5 -75.5 -115.75 -75.9 -115.9 -76.2 -115.4 -77.1 Q-113.85 -79.5 -111.45 -80.95 -110.2 -81.7 -109.4 -82.85 L-109.0 -83.5 -110.5 -84.5 Q-112.05 -81.8 -113.25 -81.0 -114.5 -80.2 -115.5 -80.25 L-117.3 -80.2 Q-117.5 -79.75 -118.8 -78.8 -120.15 -77.9 -120.2 -76.75 -120.25 -75.6 -120.8 -75.4 L-121.65 -75.2 -122.2 -75.45 -122.7 -77.0 -124.95 -76.55 -125.45 -77.55 -125.25 -78.05 Q-121.7 -83.25 -115.75 -85.9 -114.9 -86.3 -114.1 -86.85 L-115.15 -90.35 -116.95 -90.4 -118.05 -89.75 Q-118.6 -89.45 -119.1 -89.1 L-120.0 -88.5 -120.55 -90.55 -112.85 -98.3 -104.0 -98.6 Q-104.05 -100.2 -103.4 -101.55 L-102.85 -102.4 -102.6 -102.85 -102.25 -103.4 -107.35 -102.6 -104.1 -104.7 -87.55 -103.5 Q-51.65 -98.8 -35.6 -76.05 L-27.0 -61.5 -26.45 -60.45 Q-22.95 -54.15 -18.8 -48.8 -16.25 -45.4 -13.5 -42.45 L-7.35 -36.5 -0.1 -30.3 -2.1 -27.95 Q-11.5 -20.25 -21.5 -13.9 -32.9 -6.35 -45.55 -3.9 L-46.4 -3.8 -47.45 -3.9 -51.35 -4.45 -52.15 -4.7 -54.9 -5.25 -57.3 -5.85 -60.55 -6.75 -67.8 -9.25 -70.25 -10.4 -75.7 -12.85 M-131.9 -56.95 Q-132.7 -55.65 -132.0 -54.4 L-130.05 -54.7 -131.5 -57.5 -131.9 -56.95" fill="#015291" fill-rule="evenodd" stroke="none"/>
    <path d="M-75.7 -12.85 L-70.25 -10.4 -67.8 -9.25 -60.55 -6.75 -57.3 -5.85 -54.9 -5.25 -52.15 -4.7 -51.35 -4.45 -47.45 -3.9 -46.4 -3.8 -45.55 -3.9 Q-32.9 -6.35 -21.5 -13.9 -11.5 -20.25 -2.1 -27.95 L-2.65 -24.55 -22.2 -1.05 -28.7 7.5 -31.2 10.55 Q-33.9 13.65 -36.9 15.9 L-39.35 17.45 Q-44.95 20.95 -50.75 23.45 -58.4 26.55 -66.4 27.85 L-70.25 28.4 Q-78.2 29.3 -85.95 27.5 L-88.2 26.9 -85.3 21.2 -83.6 21.3 -83.1 22.3 -77.9 21.9 -77.15 18.9 Q-76.8 17.4 -76.75 15.85 -76.7 15.35 -77.0 14.95 L-77.5 14.55 -79.85 15.35 -81.7 16.05 -82.65 16.05 -83.65 15.75 -83.4 14.4 -81.8 13.7 -80.5 9.5 -80.3 12.35 -79.65 12.6 -77.85 12.7 -76.7 12.5 -75.6 11.95 -75.4 11.75 -75.05 9.95 -76.9 7.85 -78.25 7.6 -78.35 6.4 -78.1 3.9 -77.75 2.55 -77.5 2.2 -76.45 1.95 -76.45 1.85 -76.25 1.1 -76.25 0.35 -76.45 -0.3 -76.9 -1.0 -77.9 -1.95 -77.75 -2.9 -77.25 -4.9 -76.75 -5.95 -75.6 -7.85 -77.5 -8.5 -75.7 -12.85 M-74.0 -5.15 L-73.5 -6.0 -75.55 -7.85 -76.1 -5.7 -75.9 -5.25 -74.5 -4.9 -74.0 -5.15" fill="#00223e" fill-rule="evenodd" stroke="none"/>
  </g>
</svg>
