<?xml version="1.0" encoding="UTF-8" standalone="no"?>
<svg xmlns:xlink="http://www.w3.org/1999/xlink" height="108.2px" width="108.2px" xmlns="http://www.w3.org/2000/svg">
  <g transform="matrix(1.0, 0.0, 0.0, 1.0, 60.65, 46.2)">
    <path d="M-49.3 7.2 Q-49.3 -10.2 -36.95 -22.45 -24.65 -34.8 -7.25 -34.8 10.15 -34.8 22.45 -22.45 34.75 -10.2 34.75 7.2 34.75 24.65 22.45 36.9 10.15 49.25 -7.25 49.25 -24.65 49.25 -36.95 36.9 -49.3 24.65 -49.3 7.2 -49.3 -10.2 -36.95 -22.45 -24.65 -34.8 -7.25 -34.8 10.15 -34.8 22.45 -22.45 34.75 -10.2 34.75 7.2 34.75 24.65 22.45 36.9 10.15 49.25 -7.25 49.25 -24.65 49.25 -36.95 36.9 -49.3 24.65 -49.3 7.2" fill="none" stroke="#ffffff" stroke-linecap="round" stroke-linejoin="round" stroke-width="1.0">
      <animate attributeName="stroke" dur="2s" repeatCount="indefinite" values="#ffffff;#ffffff"/>
      <animate attributeName="stroke-width" dur="2s" repeatCount="indefinite" values="1.0;0.1"/>
      <animate attributeName="fill-opacity" dur="2s" repeatCount="indefinite" values="1.0;0.0"/>
      <animate attributeName="d" dur="2s" repeatCount="indefinite" values="M-49.3 7.2 Q-49.3 -10.2 -36.95 -22.45 -24.65 -34.8 -7.25 -34.8 10.15 -34.8 22.45 -22.45 34.75 -10.2 34.75 7.2 34.75 24.65 22.45 36.9 10.15 49.25 -7.25 49.25 -24.65 49.25 -36.95 36.9 -49.3 24.65 -49.3 7.2 -49.3 -10.2 -36.95 -22.45 -24.65 -34.8 -7.25 -34.8 10.15 -34.8 22.45 -22.45 34.75 -10.2 34.75 7.2 34.75 24.65 22.45 36.9 10.15 49.25 -7.25 49.25 -24.65 49.25 -36.95 36.9 -49.3 24.65 -49.3 7.2;M-60.6 7.85 Q-60.6 -14.5 -44.75 -30.3 -28.9 -46.15 -6.55 -46.15 15.85 -46.15 31.7 -30.3 47.5 -14.5 47.5 7.85 47.5 30.3 31.7 46.05 15.85 61.95 -6.55 61.95 -28.9 61.95 -44.75 46.05 -60.6 30.3 -60.6 7.85 -60.6 -14.5 -44.75 -30.3 -28.9 -46.15 -6.55 -46.15 15.85 -46.15 31.7 -30.3 47.5 -14.5 47.5 7.85 47.5 30.3 31.7 46.05 15.85 61.95 -6.55 61.95 -28.9 61.95 -44.75 46.05 -60.6 30.3 -60.6 7.85"/>
    </path>
  </g>
</svg>
