<?xml version="1.0" encoding="UTF-8" standalone="no"?>
<svg xmlns:xlink="http://www.w3.org/1999/xlink" height="96.25px" width="96.25px" xmlns="http://www.w3.org/2000/svg">
  <g transform="matrix(1.0, 0.0, 0.0, 1.0, 23.1, 23.15)">
    <path d="M18.5 25.5 Q18.5 22.8 20.4 20.9 22.3 19.0 25.0 19.0 27.7 19.0 29.6 20.9 31.5 22.8 31.5 25.5 31.5 28.2 29.6 30.1 27.7 32.0 25.0 32.0 22.3 32.0 20.4 30.1 18.5 28.2 18.5 25.5 18.5 22.8 20.4 20.9 22.3 19.0 25.0 19.0 27.7 19.0 29.6 20.9 31.5 22.8 31.5 25.5 31.5 28.2 29.6 30.1 27.7 32.0 25.0 32.0 22.3 32.0 20.4 30.1 18.5 28.2 18.5 25.5" fill="none" stroke="#0099ff" stroke-linecap="round" stroke-linejoin="round" stroke-width="5.050000000000001">
      <animate attributeName="stroke" dur="2s" repeatCount="indefinite" values="#0099ff;#0099ff"/>
      <animate attributeName="stroke-width" dur="2s" repeatCount="indefinite" values="5.050000000000001;0.1"/>
      <animate attributeName="fill-opacity" dur="2s" repeatCount="indefinite" values="1.0;0.25882354"/>
      <animate attributeName="d" dur="2s" repeatCount="indefinite" values="M18.5 25.5 Q18.5 22.8 20.4 20.9 22.3 19.0 25.0 19.0 27.7 19.0 29.6 20.9 31.5 22.8 31.5 25.5 31.5 28.2 29.6 30.1 27.7 32.0 25.0 32.0 22.3 32.0 20.4 30.1 18.5 28.2 18.5 25.5 18.5 22.8 20.4 20.9 22.3 19.0 25.0 19.0 27.7 19.0 29.6 20.9 31.5 22.8 31.5 25.5 31.5 28.2 29.6 30.1 27.7 32.0 25.0 32.0 22.3 32.0 20.4 30.1 18.5 28.2 18.5 25.5;M-23.05 24.95 Q-23.05 5.0 -8.95 -9.1 5.15 -23.1 25.1 -23.1 45.05 -23.1 59.1 -9.1 73.1 5.0 73.1 24.95 73.1 44.95 59.1 59.0 45.05 73.05 25.1 73.05 5.15 73.05 -8.95 59.0 -23.05 44.95 -23.05 24.95 -23.05 5.0 -8.95 -9.1 5.15 -23.1 25.1 -23.1 45.05 -23.1 59.1 -9.1 73.1 5.0 73.1 24.95 73.1 44.95 59.1 59.0 45.05 73.05 25.1 73.05 5.15 73.05 -8.95 59.0 -23.05 44.95 -23.05 24.95"/>
    </path>
  </g>
</svg>
